# Made in Blockbench 5.1.4
mtllib rotor.mtl

o rotor
v 0.5 0.5 -0.5
v 0.5 0.5 -0.1875
v 0.5 -0.5 -0.5
v 0.5 -0.5 -0.1875
v -0.5 0.5 -0.5
v -0.5 0.5 -0.1875
v -0.5 -0.5 -0.5
v -0.5 -0.5 -0.1875
v -0.375 0.375 -0.1875
v 0.375 0.375 -0.1875
v -0.375 -0.375 -0.1875
v 0.375 -0.375 -0.1875
v 0.5 0.5 0.1875
v 0.5 -0.5 0.1875
v -0.5 0.5 0.1875
v -0.5 -0.5 0.1875
v 0.375 0.375 0.1875
v -0.375 0.375 0.1875
v 0.375 -0.375 0.1875
v -0.375 -0.375 0.1875
v 0.375 0.375 -0.1875
v 0.375 0.375 0.1875
v 0.375 -0.375 -0.1875
v 0.375 -0.375 0.1875
v -0.375 0.375 -0.1875
v -0.375 0.375 0.1875
v -0.375 -0.375 -0.1875
v -0.375 -0.375 0.1875
v -0.5 0.5 0.5
v 0.5 0.5 0.5
v 0.5 -0.5 0.5
v -0.5 -0.5 0.5
vt 0.16346153846153846 1
vt 0.1875 1
vt 0.1875 0.9230769230769231
vt 0.16346153846153846 0.9230769230769231
vt 0.16346153846153846 1
vt 0.1875 1
vt 0.1875 0.9230769230769231
vt 0.16346153846153846 0.9230769230769231
vt 0.1875 1
vt 0.1875 0.9230769230769231
vt 0.16346153846153846 0.9230769230769231
vt 0.16346153846153846 1
vt 0.1875 1
vt 0.1875 0.9230769230769231
vt 0.16346153846153846 0.9230769230769231
vt 0.16346153846153846 1
vt 0.15384615384615385 0.9230769230769231
vt 0.14423076923076922 0.9326923076923077
vt 0.14423076923076922 0.9903846153846154
vt 0.15384615384615385 1
vt 0.15384615384615385 1
vt 0.14423076923076922 0.9903846153846154
vt 0.08653846153846154 0.9903846153846154
vt 0.07692307692307693 1
vt 0.07692307692307693 1
vt 0.08653846153846154 0.9903846153846154
vt 0.08653846153846154 0.9326923076923077
vt 0.07692307692307693 0.9230769230769231
vt 0.07692307692307693 0.9230769230769231
vt 0.08653846153846154 0.9326923076923077
vt 0.14423076923076922 0.9326923076923077
vt 0.15384615384615385 0.9230769230769231
vt 0.16346153846153846 1
vt 0.1875 1
vt 0.1875 0.9230769230769231
vt 0.16346153846153846 0.9230769230769231
vt 0.16346153846153846 1
vt 0.1875 1
vt 0.1875 0.9230769230769231
vt 0.16346153846153846 0.9230769230769231
vt 0.1875 1
vt 0.1875 0.9230769230769231
vt 0.16346153846153846 0.9230769230769231
vt 0.16346153846153846 1
vt 0.1875 1
vt 0.1875 0.9230769230769231
vt 0.16346153846153846 0.9230769230769231
vt 0.16346153846153846 1
vt 0.15384615384615385 0.9230769230769231
vt 0.14423076923076922 0.9326923076923077
vt 0.14423076923076922 0.9903846153846154
vt 0.15384615384615385 1
vt 0.15384615384615385 1
vt 0.14423076923076922 0.9903846153846154
vt 0.08653846153846154 0.9903846153846154
vt 0.07692307692307693 1
vt 0.07692307692307693 1
vt 0.08653846153846154 0.9903846153846154
vt 0.08653846153846154 0.9326923076923077
vt 0.07692307692307693 0.9230769230769231
vt 0.07692307692307693 0.9230769230769231
vt 0.08653846153846154 0.9326923076923077
vt 0.14423076923076922 0.9326923076923077
vt 0.15384615384615385 0.9230769230769231
vt 0.19230769230769232 0.9711538461538461
vt 0.19230769230769232 1
vt 0.25 1
vt 0.25 0.9711538461538461
vt 0.1875 0.9711538461538461
vt 0.1875 1
vt 0.24519230769230768 1
vt 0.24519230769230768 0.9711538461538461
vt 0.19230769230769232 1
vt 0.25 1
vt 0.25 0.9711538461538461
vt 0.19230769230769232 0.9711538461538461
vt 0.19230769230769232 1
vt 0.25 1
vt 0.25 0.9711538461538461
vt 0.19230769230769232 0.9711538461538461
vt 0 1
vt 0.07692307692307693 1
vt 0.07692307692307693 0.9230769230769231
vt 0 0.9230769230769231
vt 0 1
vt 0.07692307692307693 1
vt 0.07692307692307693 0.9230769230769231
vt 0 0.9230769230769231
vn 1 0 0
vn -1 0 0
vn 0 1 0
vn 0 -1 0
vn 0 0 1
vn 0 0 1
vn 0 0 1
vn 0 0 1
vn 1 0 0
vn -1 0 0
vn 0 1 0
vn 0 -1 0
vn 0 0 -1
vn 0 0 -1
vn 0 0 -1
vn 0 0 -1
vn 1 0 0
vn -1 0 0
vn 0 1 0
vn 0 -1 0
vn 0 0 -1
vn 0 0 -1
usemtl m_335de4fc-c297-f76c-175f-7f3dc282b3bb
f 1/1/1 2/2/1 4/3/1 3/4/1
f 6/5/2 5/6/2 7/7/2 8/8/2
f 6/9/3 2/10/3 1/11/3 5/12/3
f 7/13/4 3/14/4 4/15/4 8/16/4
f 8/17/5 11/18/5 9/19/5 6/20/5
f 6/21/6 9/22/6 10/23/6 2/24/6
f 2/25/7 10/26/7 12/27/7 4/28/7
f 4/29/8 12/30/8 11/31/8 8/32/8
f 13/33/9 30/34/9 31/35/9 14/36/9
f 29/37/10 15/38/10 16/39/10 32/40/10
f 29/41/11 30/42/11 13/43/11 15/44/11
f 16/45/12 14/46/12 31/47/12 32/48/12
f 14/49/13 19/50/13 17/51/13 13/52/13
f 13/53/14 17/54/14 18/55/14 15/56/14
f 15/57/15 18/58/15 20/59/15 16/60/15
f 16/61/16 20/62/16 19/63/16 14/64/16
f 21/65/17 22/66/17 24/67/17 23/68/17
f 26/69/18 25/70/18 27/71/18 28/72/18
f 26/73/19 22/74/19 21/75/19 25/76/19
f 27/77/20 23/78/20 24/79/20 28/80/20
f 5/81/21 1/82/21 3/83/21 7/84/21
f 29/85/22 30/86/22 31/87/22 32/88/22
