# Made in Blockbench 5.1.4
mtllib boiler.mtl

o cube
v -0.25 -0.3203125 0.5625
v -0.25 -0.0703125 0.5625
v 2 -0.0703125 0.5625
v 2 -0.3203125 0.5625
v -0.25 -0.3203125 0.4375
v -0.25 -0.0703125 0.4375
v 2 -0.3203125 0.4375
v 2 -0.0703125 0.4375
v 2 -0.5 0.625
v 2 0.125 0.625
v 2.25 0.125 0.625
v 2.25 -0.5 0.625
v 2 -0.5 0.375
v 2 -0.125 0.375
v 2.25 -0.5 0.375
v 2.25 -0.125 0.375
v -0.5 -0.5 0.625
v -0.5 0.125 0.625
v -0.25 0.125 0.625
v -0.25 -0.5 0.625
v -0.5 -0.5 0.375
v -0.5 -0.125 0.375
v -0.25 -0.5 0.375
v -0.25 -0.125 0.375
v -0.25 -0.3203125 -1.5625
v -0.25 -0.0703125 -1.5625
v 2 -0.0703125 -1.5625
v 2 -0.3203125 -1.5625
v -0.25 -0.3203125 -1.4375
v -0.25 -0.0703125 -1.4375
v 2 -0.3203125 -1.4375
v 2 -0.0703125 -1.4375
v 2 -0.5 -1.625
v 2 0.125 -1.625
v 2.25 0.125 -1.625
v 2.25 -0.5 -1.625
v 2 -0.5 -1.375
v 2 -0.125 -1.375
v 2.25 -0.5 -1.375
v 2.25 -0.125 -1.375
v -0.5 -0.5 -1.625
v -0.5 0.125 -1.625
v -0.25 0.125 -1.625
v -0.25 -0.5 -1.625
v -0.5 -0.5 -1.375
v -0.5 -0.125 -1.375
v -0.25 -0.5 -1.375
v -0.25 -0.125 -1.375
v -0.75 2 -1
v -0.75 1.25 -1.75
v 2.5 1.25 -1.75
v -0.75 2 0
v -0.75 1.25 0.75
v 2.5 1.25 0.75
v -0.75 -0.5 0
v -0.75 0.25 0.75
v 2.5 0.25 0.75
v 2.5 -0.5 0
v -0.75 -0.5 -1
v -0.75 0.25 -1.75
v 2.5 -0.5 -1
v 2.5 0.25 -1.75
v 2.5 2 -1
v 2.5 2 0
v 2 2 0
v 2 2 -1
v 2.5 1.5 0
v 2.5 0 0
v 2.5 0 -1
v 2.5 1.5 -1
v 2.5 0.375 0
v 2.875 0.375 0
v 3 0 0
v 3 0 -1
v 2.5 1.125 0
v 2.5 1.125 -1
v 3 2 0
v 3 2 -1
v 3 -0.5 0
v 2.5 0.375 -1
v 2.875 0.375 -1
v 3 1.5 0
v 2.875 1.125 0
v 2.875 1.125 -1
v 3 1.5 -1
v 3 -0.5 -1
v 2.98046875 0.0625 -1
v 2.98046875 0.0625 0
v 2.875 0 0
v 2.875 1.5 0
v 2.875 0.5 0.5
v 2.875 1 0.5
v 2.5 0.5 0.5
v 2.5 1 0.5
v 2.875 0 -1
v 2.875 1.5 -1
v 2.875 0.5 -1.5
v 2.875 1 -1.5
v 2.5 0.5 -1.5
v 2.5 1 -1.5
v -2 -0.5 1
v -2 -0.5 -2
v -2 -1 1
v -2 -1 -2
v 3 -0.5 1
v 3 -0.5 -2
v 3 -1 1
v 3 -1 -2
v -2 0 0
v -2 0 -1
v -2 -0.5 0
v -2 -0.5 -1
v -1 0 0
v -1 0 -1
v -1 -0.5 0
v -1 -0.5 -1
v -1 0.375 -0.75
v -1 1.25 -0.75
v -0.75 1.25 -0.75
v -0.75 0.375 -0.75
v -1 0.375 -1.25
v -1 1.25 -1.25
v -0.75 0.375 -1.25
v -0.75 1.25 -1.25
v -1 0.375 0.25
v -1 1.25 0.25
v -0.75 1.25 0.25
v -0.75 0.375 0.25
v -1.1875 1.375 -0.1875
v -1.875 1.3125 -0.125
v -1.875 1.3125 -0.875
v -1.875 1.1875 -0.125
v -1.875 1.1875 -0.875
v -1.125 1.3125 -0.125
v -1.125 1.3125 -0.875
v -1.125 1.1875 -0.125
v -1.125 1.1875 -0.875
v -1.75 2.25 -0.25
v -1.75 2.25 -0.75
v -1.75 1.3125 -0.25
v -1.75 1.3125 -0.75
v -1.25 2.25 -0.25
v -1.25 2.25 -0.75
v -1.25 1.3125 -0.25
v -1.25 1.3125 -0.75
v 0.4375 1.0625 -1.75
v 0.4375 1.0625 -1.8125
v 0.4375 0.4375 -1.75
v 0.4375 0.4375 -1.8125
v 1.3125 1.0625 -1.75
v 1.3125 1.0625 -1.8125
v 1.3125 0.4375 -1.75
v 1.3125 0.4375 -1.8125
v 1.3125 1.0625 0.75
v 1.3125 1.0625 0.8125
v 1.3125 0.4375 0.75
v 1.3125 0.4375 0.8125
v 0.4375 1.0625 0.75
v 0.4375 1.0625 0.8125
v 0.4375 0.4375 0.75
v 0.4375 0.4375 0.8125
v -1.875 -0.5 0.625
v -1.875 0 0.625
v -1.875 0 0.875
v -1.875 -0.5 0.875
v -1.25 -0.5 0.625
v -1.25 0 0.625
v -1.25 0 0.875
v -1.25 -0.5 0.875
v -1.125 -0.5 0.625
v -1.125 0 0.625
v -1.75 -0.5 0.625
v -1.75 0 0.625
v -1 0 0.5
v -1 1 0.5
v -2 1 0.5
v -2 0 0.5
v -1.125 0 0.875
v -1.125 -0.5 0.875
v -1.75 0 0.875
v -1.75 -0.5 0.875
v -2 0 1
v -1 0 1
v -2 1 1
v -1 1 1
v -1.75 -0.5 -1.875
v -1.75 0 -1.875
v -1.875 0 -1.875
v -1.875 -0.5 -1.875
v -1.875 0 -1.625
v -1.875 -0.5 -1.625
v -1.25 -0.5 -1.875
v -1.25 0 -1.875
v -1.25 0 -1.625
v -1.25 -0.5 -1.625
v -1.125 -0.5 -1.875
v -1.125 0 -1.875
v -1.125 -0.5 -1.625
v -1.125 0 -1.625
v -1.75 -0.5 -1.625
v -1.75 0 -1.625
v -1.9375 0 -1.5625
v -1.9375 1.5 -1.5625
v -1.0625 1.5 -1.5625
v -1.0625 0 -1.5625
v -1.9375 0 -2
v -1.0625 0 -2
v -1.0625 1.5 -2
v -1.9375 1.5 -2
v -1.875 0 -0.875
v -1.875 0 -0.125
v -1.875 0.125 -0.875
v -1.875 0.125 -0.125
v -1.125 0.125 -0.125
v -1.125 0.125 -0.875
v -1.125 0 -0.125
v -1.125 0 -0.875
v -1.75 0.3125 -0.75
v -1.75 0.125 -0.75
v -1.75 0.3125 -0.25
v -1.75 0.125 -0.25
v -1.25 0.3125 -0.25
v -1.25 0.3125 -0.75
v -1.25 0.125 -0.25
v -1.25 0.125 -0.75
v -1.875 0.3125 -0.125
v -1.875 0.4375 -0.125
v -1.875 0.3125 -0.875
v -1.875 0.4375 -0.875
v -1.125 0.3125 -0.875
v -1.125 0.3125 -0.125
v -1.125 0.4375 -0.125
v -1.125 0.4375 -0.875
v -2 1.1875 0.1875
v -1 0.4375 0.1875
v -2 0.4375 0.1875
v -1 0.4375 -1.1875
v -2 0.4375 -1.1875
v -2 1.1875 -1.1875
v -1 1.1875 -1.1875
v -1 1.1875 0.1875
v -1.8125 1.375 -0.1875
v -1.1875 1.375 -0.8125
v -1.8125 1.375 -0.8125
v -1.8125 2.1875 -0.8125
v -1.1875 2.1875 -0.8125
v -1.8125 2.1875 -0.1875
v -1.1875 2.1875 -0.1875
vt 0.6875 0.20833333333333337
vt 0.7430555555555556 0.20833333333333337
vt 0.7430555555555556 0.1875
vt 0.6875 0.1875
vt 0.2986111111111111 0.3472222222222222
vt 0.2986111111111111 0.5972222222222222
vt 0.3263888888888889 0.5972222222222222
vt 0.3263888888888889 0.3472222222222222
vt 0.2986111111111111 0.3472222222222222
vt 0.2986111111111111 0.5972222222222222
vt 0.3263888888888889 0.5972222222222222
vt 0.3263888888888889 0.3472222222222222
vt 0.3125 0.3472222222222222
vt 0.3125 0.5972222222222222
vt 0.3263888888888889 0.5972222222222222
vt 0.3263888888888889 0.3472222222222222
vt 0.3125 0.3472222222222222
vt 0.3125 0.5972222222222222
vt 0.3263888888888889 0.5972222222222222
vt 0.3263888888888889 0.3472222222222222
vt 0.3333333333333333 0.5972222222222222
vt 0.3611111111111111 0.5972222222222222
vt 0.3611111111111111 0.5277777777777778
vt 0.3333333333333333 0.5277777777777778
vt 0.3333333333333333 0.5972222222222222
vt 0.3611111111111111 0.5694444444444444
vt 0.3611111111111111 0.5277777777777778
vt 0.3333333333333333 0.5277777777777778
vt 0.5555555555555556 0.75
vt 0.5833333333333334 0.75
vt 0.5833333333333334 0.7083333333333333
vt 0.5555555555555556 0.7083333333333333
vt 0.3333333333333333 0.5694444444444444
vt 0.3611111111111111 0.5972222222222222
vt 0.3611111111111111 0.5277777777777778
vt 0.3333333333333333 0.5277777777777778
vt 0.3333333333333333 0.5972222222222222
vt 0.3611111111111111 0.5972222222222222
vt 0.3611111111111111 0.5277777777777778
vt 0.3333333333333333 0.5277777777777778
vt 0.3333333333333333 0.5972222222222222
vt 0.3611111111111111 0.5694444444444444
vt 0.3611111111111111 0.5277777777777778
vt 0.3333333333333333 0.5277777777777778
vt 0.5555555555555556 0.75
vt 0.5833333333333334 0.75
vt 0.5833333333333334 0.7083333333333333
vt 0.5555555555555556 0.7083333333333333
vt 0.3333333333333333 0.5694444444444444
vt 0.3611111111111111 0.5972222222222222
vt 0.3611111111111111 0.5277777777777778
vt 0.3333333333333333 0.5277777777777778
vt 0.3263888888888889 0.5972222222222222
vt 0.2986111111111111 0.5972222222222222
vt 0.2986111111111111 0.3472222222222222
vt 0.3263888888888889 0.3472222222222222
vt 0.3263888888888889 0.5972222222222222
vt 0.2986111111111111 0.5972222222222222
vt 0.2986111111111111 0.3472222222222222
vt 0.3263888888888889 0.3472222222222222
vt 0.3263888888888889 0.5972222222222222
vt 0.3125 0.5972222222222222
vt 0.3125 0.3472222222222222
vt 0.3263888888888889 0.3472222222222222
vt 0.3263888888888889 0.5972222222222222
vt 0.3125 0.5972222222222222
vt 0.3125 0.3472222222222222
vt 0.3263888888888889 0.3472222222222222
vt 0.3611111111111111 0.5277777777777778
vt 0.3611111111111111 0.5972222222222222
vt 0.3333333333333333 0.5972222222222222
vt 0.3333333333333333 0.5277777777777778
vt 0.3611111111111111 0.5277777777777778
vt 0.3611111111111111 0.5694444444444444
vt 0.3333333333333333 0.5972222222222222
vt 0.3333333333333333 0.5277777777777778
vt 0.5833333333333334 0.7083333333333333
vt 0.5833333333333334 0.75
vt 0.5555555555555556 0.75
vt 0.5555555555555556 0.7083333333333333
vt 0.3611111111111111 0.5277777777777778
vt 0.3611111111111111 0.5972222222222222
vt 0.3333333333333333 0.5694444444444444
vt 0.3333333333333333 0.5277777777777778
vt 0.3611111111111111 0.5277777777777778
vt 0.3611111111111111 0.5972222222222222
vt 0.3333333333333333 0.5972222222222222
vt 0.3333333333333333 0.5277777777777778
vt 0.3611111111111111 0.5277777777777778
vt 0.3611111111111111 0.5694444444444444
vt 0.3333333333333333 0.5972222222222222
vt 0.3333333333333333 0.5277777777777778
vt 0.5833333333333334 0.7083333333333333
vt 0.5833333333333334 0.75
vt 0.5555555555555556 0.75
vt 0.5555555555555556 0.7083333333333333
vt 0.3611111111111111 0.5277777777777778
vt 0.3611111111111111 0.5972222222222222
vt 0.3333333333333333 0.5694444444444444
vt 0.3333333333333333 0.5277777777777778
vt 0.5625 0.7638888888888888
vt 0.9236111111111112 0.7638888888888888
vt 0.9236111111111112 0.8819444444444444
vt 0.5625 0.8819444444444444
vt 0.9236111111111112 0.7638888888888888
vt 0.5625 0.7638888888888888
vt 0.5625 0.8819444444444444
vt 0.9236111111111112 0.8819444444444444
vt 0.5625 0.6527777777777778
vt 0.9236111111111112 0.6527777777777778
vt 0.9236111111111112 0.5347222222222222
vt 0.5625 0.5347222222222222
vt 0.9236111111111112 0.6527777777777778
vt 0.5625 0.6527777777777778
vt 0.5625 0.5347222222222222
vt 0.9236111111111112 0.5347222222222222
vt 0.5625 0.7638888888888888
vt 0.9236111111111112 0.7638888888888888
vt 0.9236111111111112 0.6527777777777778
vt 0.5625 0.6527777777777778
vt 0.9236111111111112 0.7638888888888888
vt 0.5625 0.7638888888888888
vt 0.5625 0.6527777777777778
vt 0.9236111111111112 0.6527777777777778
vt 0.2777777777777778 0.5138888888888888
vt 0 0.5138888888888888
vt 0.08333333333333333 0.5972222222222222
vt 0.19444444444444445 0.5972222222222222
vt 0 0.4027777777777778
vt 0.2777777777777778 0.4027777777777778
vt 0.19444444444444445 0.3194444444444444
vt 0.08333333333333333 0.3194444444444444
vt 0 0.5138888888888888
vt 0.2777777777777778 0.5138888888888888
vt 0.2777777777777778 0.4027777777777778
vt 0 0.4027777777777778
vt 0.08333333333333333 0.3194444444444444
vt 0 0.4027777777777778
vt 0.2777777777777778 0.4027777777777778
vt 0.19444444444444445 0.3194444444444444
vt 0 0.4027777777777778
vt 0 0.5138888888888888
vt 0.2777777777777778 0.5138888888888888
vt 0.2777777777777778 0.4027777777777778
vt 0.9236111111111112 1
vt 0.9236111111111112 0.8888888888888888
vt 0.6180555555555556 0.8888888888888888
vt 0.6180555555555556 1
vt 0.1111111111111111 0.2222222222222222
vt 0.1111111111111111 0.2777777777777778
vt 0.2222222222222222 0.2777777777777778
vt 0.2222222222222222 0.2222222222222222
vt 0.5 0.5277777777777778
vt 0.5416666666666666 0.5277777777777778
vt 0.5416666666666666 0.48611111111111116
vt 0.4861111111111111 0.48611111111111116
vt 0.5416666666666666 0.5972222222222222
vt 0.4861111111111111 0.5972222222222222
vt 0.4861111111111111 0.5555555555555556
vt 0.5277777777777778 0.5555555555555556
vt 0.4861111111111111 0.5972222222222222
vt 0.5416666666666666 0.5972222222222222
vt 0.5277777777777778 0.5555555555555556
vt 0.4861111111111111 0.5555555555555556
vt 0.4722222222222222 0.29861111111111116
vt 0.5277777777777778 0.29861111111111116
vt 0.5277777777777778 0.24305555555555558
vt 0.4722222222222222 0.24305555555555558
vt 0.4722222222222222 0.29861111111111116
vt 0.5277777777777778 0.29861111111111116
vt 0.5277777777777778 0.24305555555555558
vt 0.4722222222222222 0.24305555555555558
vt 0.9305555555555556 0.6527777777777778
vt 0.9861111111111112 0.6527777777777778
vt 0.9861111111111112 0.5416666666666667
vt 0.9305555555555556 0.5416666666666667
vt 0.4722222222222222 0.29861111111111116
vt 0.5277777777777778 0.29861111111111116
vt 0.5277777777777778 0.24305555555555558
vt 0.4722222222222222 0.24305555555555558
vt 0.4722222222222222 0.29861111111111116
vt 0.5277777777777778 0.29861111111111116
vt 0.5277777777777778 0.24305555555555558
vt 0.4722222222222222 0.24305555555555558
vt 0.4861111111111111 0.5277777777777778
vt 0.5277777777777778 0.5277777777777778
vt 0.5416666666666666 0.48611111111111116
vt 0.4861111111111111 0.48611111111111116
vt 0.75 0.29166666666666663
vt 0.8611111111111112 0.29166666666666663
vt 0.8611111111111112 0.25
vt 0.75 0.25
vt 0.75 0.35416666666666663
vt 0.8611111111111112 0.35416666666666663
vt 0.8611111111111112 0.29861111111111116
vt 0.75 0.29861111111111116
vt 0.75 0.3125
vt 0.75 0.3472222222222222
vt 0.8611111111111112 0.3472222222222222
vt 0.8611111111111112 0.3125
vt 0.8611111111111112 0.25
vt 0.75 0.25
vt 0.75 0.2569444444444444
vt 0.8611111111111112 0.2569444444444444
vt 0.9236111111111112 0.4652777777777778
vt 0.9652777777777778 0.4652777777777778
vt 0.9652777777777778 0.4097222222222222
vt 0.9236111111111112 0.4097222222222222
vt 0.9236111111111112 0.4375
vt 0.9652777777777778 0.4375
vt 0.9652777777777778 0.36111111111111116
vt 0.9236111111111112 0.36111111111111116
vt 0.9236111111111112 0.5277777777777778
vt 0.9652777777777778 0.5277777777777778
vt 0.9652777777777778 0.45138888888888884
vt 0.9236111111111112 0.45138888888888884
vt 0.9652777777777778 0.4097222222222222
vt 0.9652777777777778 0.4652777777777778
vt 0.9236111111111112 0.4652777777777778
vt 0.9236111111111112 0.4097222222222222
vt 0.9652777777777778 0.36111111111111116
vt 0.9652777777777778 0.4375
vt 0.9236111111111112 0.4375
vt 0.9236111111111112 0.36111111111111116
vt 0.9652777777777778 0.45138888888888884
vt 0.9652777777777778 0.5277777777777778
vt 0.9236111111111112 0.5277777777777778
vt 0.9236111111111112 0.45138888888888884
vt 0.16666666666666666 0.20833333333333337
vt 0.2222222222222222 0.1527777777777778
vt 0.2222222222222222 0.09722222222222221
vt 0.16666666666666666 0.04166666666666663
vt 0 0.1527777777777778
vt 0.05555555555555555 0.20833333333333337
vt 0.05555555555555555 0.04166666666666663
vt 0 0.09722222222222221
vt 0.05555555555555555 0.04166666666666663
vt 0.05555555555555555 0.20833333333333337
vt 0.16666666666666666 0.20833333333333337
vt 0.16666666666666666 0.04166666666666663
vt 0 0.2777777777777778
vt 0.3333333333333333 0.2777777777777778
vt 0.3333333333333333 0.2222222222222222
vt 0 0.2222222222222222
vt 0 0.2777777777777778
vt 0.3333333333333333 0.2777777777777778
vt 0.3333333333333333 0.2222222222222222
vt 0 0.2222222222222222
vt 0 0.9375
vt 0.5555555555555556 0.9375
vt 0.5555555555555556 0.6041666666666667
vt 0 0.6041666666666667
vt 0 0.9375
vt 0.5555555555555556 0.9375
vt 0.5555555555555556 0.6041666666666667
vt 0 0.6041666666666667
vt 0 1
vt 0.5555555555555556 1
vt 0.5555555555555556 0.9444444444444444
vt 0 0.9444444444444444
vt 0 1
vt 0.5555555555555556 1
vt 0.5555555555555556 0.9444444444444444
vt 0 0.9444444444444444
vt 0.3680555555555556 0.5972222222222222
vt 0.4791666666666667 0.5972222222222222
vt 0.4791666666666667 0.5416666666666667
vt 0.3680555555555556 0.5416666666666667
vt 0.3680555555555556 0.5972222222222222
vt 0.4791666666666667 0.5972222222222222
vt 0.4791666666666667 0.5416666666666667
vt 0.3680555555555556 0.5416666666666667
vt 0.4861111111111111 0.48611111111111116
vt 0.4861111111111111 0.5972222222222222
vt 0.5416666666666666 0.5972222222222222
vt 0.5416666666666666 0.48611111111111116
vt 0.3680555555555556 0.41666666666666663
vt 0.4791666666666667 0.41666666666666663
vt 0.4791666666666667 0.3055555555555556
vt 0.3680555555555556 0.3055555555555556
vt 0.4861111111111111 0.48611111111111116
vt 0.4861111111111111 0.5972222222222222
vt 0.5416666666666666 0.5972222222222222
vt 0.5416666666666666 0.48611111111111116
vt 0.4861111111111111 0.48611111111111116
vt 0.4861111111111111 0.5972222222222222
vt 0.5416666666666666 0.5972222222222222
vt 0.5416666666666666 0.48611111111111116
vt 0.4236111111111111 0.4097222222222222
vt 0.4791666666666667 0.4097222222222222
vt 0.4791666666666667 0.3125
vt 0.4236111111111111 0.3125
vt 0.2986111111111111 0.5208333333333333
vt 0.3263888888888889 0.5208333333333333
vt 0.3263888888888889 0.42361111111111116
vt 0.2986111111111111 0.42361111111111116
vt 0.2986111111111111 0.5
vt 0.3263888888888889 0.5
vt 0.3263888888888889 0.4444444444444444
vt 0.2986111111111111 0.4444444444444444
vt 0.2986111111111111 0.5
vt 0.3263888888888889 0.5
vt 0.3263888888888889 0.4444444444444444
vt 0.2986111111111111 0.4444444444444444
vt 0.2986111111111111 0.5208333333333333
vt 0.3263888888888889 0.5208333333333333
vt 0.3263888888888889 0.42361111111111116
vt 0.2986111111111111 0.42361111111111116
vt 0.3680555555555556 0.4097222222222222
vt 0.4791666666666667 0.4097222222222222
vt 0.4791666666666667 0.3125
vt 0.3680555555555556 0.3125
vt 0.2986111111111111 0.5277777777777778
vt 0.3263888888888889 0.5277777777777778
vt 0.3263888888888889 0.41666666666666663
vt 0.2986111111111111 0.41666666666666663
vt 0.2986111111111111 0.5277777777777778
vt 0.3263888888888889 0.5277777777777778
vt 0.3263888888888889 0.41666666666666663
vt 0.2986111111111111 0.41666666666666663
vt 0.8263888888888888 0.23611111111111116
vt 0.8958333333333334 0.23611111111111116
vt 0.8958333333333334 0.14583333333333337
vt 0.8263888888888888 0.14583333333333337
vt 0.75 0.23611111111111116
vt 0.8194444444444444 0.23611111111111116
vt 0.8194444444444444 0.16666666666666663
vt 0.75 0.16666666666666663
vt 0.8263888888888888 0.23611111111111116
vt 0.8958333333333334 0.23611111111111116
vt 0.8958333333333334 0.14583333333333337
vt 0.8263888888888888 0.14583333333333337
vt 0.7291666666666666 0.16666666666666663
vt 0.7291666666666666 0.25
vt 0.7430555555555556 0.25
vt 0.7430555555555556 0.16666666666666663
vt 0.7291666666666666 0.16666666666666663
vt 0.7291666666666666 0.25
vt 0.7430555555555556 0.25
vt 0.7430555555555556 0.16666666666666663
vt 0.5416666666666666 0.29861111111111116
vt 0.625 0.29861111111111116
vt 0.625 0.2152777777777778
vt 0.5416666666666666 0.2152777777777778
vt 0.7291666666666666 0.1597222222222222
vt 0.7291666666666666 0.24305555555555558
vt 0.7430555555555556 0.24305555555555558
vt 0.7430555555555556 0.1597222222222222
vt 0.7291666666666666 0.1597222222222222
vt 0.7291666666666666 0.24305555555555558
vt 0.7430555555555556 0.24305555555555558
vt 0.7430555555555556 0.1597222222222222
vt 0.6875 0.23611111111111116
vt 0.7430555555555556 0.23611111111111116
vt 0.7430555555555556 0.13194444444444442
vt 0.6875 0.13194444444444442
vt 0.6875 0.23611111111111116
vt 0.7430555555555556 0.23611111111111116
vt 0.7430555555555556 0.13194444444444442
vt 0.6875 0.13194444444444442
vt 0.6319444444444444 0.35416666666666663
vt 0.6875 0.35416666666666663
vt 0.6875 0.29861111111111116
vt 0.6319444444444444 0.29861111111111116
vt 0.6875 0.23611111111111116
vt 0.7430555555555556 0.23611111111111116
vt 0.7430555555555556 0.13194444444444442
vt 0.6875 0.13194444444444442
vt 0.6875 0.23611111111111116
vt 0.7430555555555556 0.23611111111111116
vt 0.7430555555555556 0.13194444444444442
vt 0.6875 0.13194444444444442
vt 0.3680555555555556 0.29861111111111116
vt 0.375 0.29861111111111116
vt 0.375 0.22916666666666663
vt 0.3680555555555556 0.22916666666666663
vt 0.4583333333333333 0.29861111111111116
vt 0.4652777777777778 0.29861111111111116
vt 0.4652777777777778 0.22916666666666663
vt 0.4583333333333333 0.22916666666666663
vt 0.4652777777777778 0.29861111111111116
vt 0.3680555555555556 0.29861111111111116
vt 0.3680555555555556 0.29166666666666663
vt 0.4652777777777778 0.29166666666666663
vt 0.4652777777777778 0.23611111111111116
vt 0.3680555555555556 0.23611111111111116
vt 0.3680555555555556 0.22916666666666663
vt 0.4652777777777778 0.22916666666666663
vt 0.3680555555555556 0.29861111111111116
vt 0.4652777777777778 0.29861111111111116
vt 0.4652777777777778 0.22916666666666663
vt 0.3680555555555556 0.22916666666666663
vt 0.3680555555555556 0.29861111111111116
vt 0.375 0.29861111111111116
vt 0.375 0.22916666666666663
vt 0.3680555555555556 0.22916666666666663
vt 0.4583333333333333 0.29861111111111116
vt 0.4652777777777778 0.29861111111111116
vt 0.4652777777777778 0.22916666666666663
vt 0.4583333333333333 0.22916666666666663
vt 0.4652777777777778 0.29861111111111116
vt 0.3680555555555556 0.29861111111111116
vt 0.3680555555555556 0.29166666666666663
vt 0.4652777777777778 0.29166666666666663
vt 0.4652777777777778 0.23611111111111116
vt 0.3680555555555556 0.23611111111111116
vt 0.3680555555555556 0.22916666666666663
vt 0.4652777777777778 0.22916666666666663
vt 0.3680555555555556 0.29861111111111116
vt 0.4652777777777778 0.29861111111111116
vt 0.4652777777777778 0.22916666666666663
vt 0.3680555555555556 0.22916666666666663
vt 0.19444444444444445 0.5972222222222222
vt 0.2777777777777778 0.5138888888888888
vt 0 0.5138888888888888
vt 0.08333333333333333 0.5972222222222222
vt 0.3680555555555556 0.5347222222222222
vt 0.4791666666666667 0.5347222222222222
vt 0.4791666666666667 0.42361111111111116
vt 0.3680555555555556 0.42361111111111116
vt 0.4861111111111111 0.5972222222222222
vt 0.5416666666666666 0.5972222222222222
vt 0.5416666666666666 0.48611111111111116
vt 0.4861111111111111 0.48611111111111116
vt 0.3680555555555556 0.41666666666666663
vt 0.4791666666666667 0.41666666666666663
vt 0.4791666666666667 0.3055555555555556
vt 0.3680555555555556 0.3055555555555556
vt 0.4861111111111111 0.5972222222222222
vt 0.5416666666666666 0.5972222222222222
vt 0.5416666666666666 0.48611111111111116
vt 0.4861111111111111 0.48611111111111116
vt 0.4861111111111111 0.48611111111111116
vt 0.4861111111111111 0.5972222222222222
vt 0.5416666666666666 0.5972222222222222
vt 0.5416666666666666 0.48611111111111116
vt 0.4861111111111111 0.48611111111111116
vt 0.4861111111111111 0.5972222222222222
vt 0.5416666666666666 0.5972222222222222
vt 0.5416666666666666 0.48611111111111116
vt 0.5277777777777778 0.47916666666666663
vt 0.5416666666666666 0.47916666666666663
vt 0.5416666666666666 0.42361111111111116
vt 0.5277777777777778 0.42361111111111116
vt 0.4930555555555556 0.47916666666666663
vt 0.5208333333333334 0.47916666666666663
vt 0.5208333333333334 0.42361111111111116
vt 0.4930555555555556 0.42361111111111116
vt 0.5277777777777778 0.47916666666666663
vt 0.5416666666666666 0.47916666666666663
vt 0.5416666666666666 0.42361111111111116
vt 0.5277777777777778 0.42361111111111116
vt 0.4930555555555556 0.47916666666666663
vt 0.5208333333333334 0.47916666666666663
vt 0.5208333333333334 0.42361111111111116
vt 0.4930555555555556 0.42361111111111116
vt 0.5277777777777778 0.47916666666666663
vt 0.5416666666666666 0.47916666666666663
vt 0.5416666666666666 0.42361111111111116
vt 0.5277777777777778 0.42361111111111116
vt 0.4930555555555556 0.47916666666666663
vt 0.5208333333333334 0.47916666666666663
vt 0.5208333333333334 0.42361111111111116
vt 0.4930555555555556 0.42361111111111116
vt 0.5277777777777778 0.47916666666666663
vt 0.5416666666666666 0.47916666666666663
vt 0.5416666666666666 0.42361111111111116
vt 0.5277777777777778 0.42361111111111116
vt 0.4930555555555556 0.47916666666666663
vt 0.5208333333333334 0.47916666666666663
vt 0.5208333333333334 0.42361111111111116
vt 0.4930555555555556 0.42361111111111116
vt 0.5277777777777778 0.47916666666666663
vt 0.5416666666666666 0.47916666666666663
vt 0.5416666666666666 0.42361111111111116
vt 0.5277777777777778 0.42361111111111116
vt 0.4930555555555556 0.47916666666666663
vt 0.5208333333333334 0.47916666666666663
vt 0.5208333333333334 0.42361111111111116
vt 0.4930555555555556 0.42361111111111116
vt 0.5277777777777778 0.47916666666666663
vt 0.5416666666666666 0.47916666666666663
vt 0.5416666666666666 0.42361111111111116
vt 0.5277777777777778 0.42361111111111116
vt 0.4930555555555556 0.47916666666666663
vt 0.5208333333333334 0.47916666666666663
vt 0.5208333333333334 0.42361111111111116
vt 0.4930555555555556 0.42361111111111116
vt 0.5277777777777778 0.47916666666666663
vt 0.5416666666666666 0.47916666666666663
vt 0.5416666666666666 0.42361111111111116
vt 0.5277777777777778 0.42361111111111116
vt 0.4930555555555556 0.47916666666666663
vt 0.5208333333333334 0.47916666666666663
vt 0.5208333333333334 0.42361111111111116
vt 0.4930555555555556 0.42361111111111116
vt 0.5277777777777778 0.47916666666666663
vt 0.5416666666666666 0.47916666666666663
vt 0.5416666666666666 0.42361111111111116
vt 0.5277777777777778 0.42361111111111116
vt 0.4930555555555556 0.47916666666666663
vt 0.5208333333333334 0.47916666666666663
vt 0.5208333333333334 0.42361111111111116
vt 0.4930555555555556 0.42361111111111116
vt 0.7638888888888888 0.5277777777777778
vt 0.8611111111111112 0.5277777777777778
vt 0.8611111111111112 0.36111111111111116
vt 0.7638888888888888 0.36111111111111116
vt 0.7083333333333334 0.5277777777777778
vt 0.7569444444444444 0.5277777777777778
vt 0.7569444444444444 0.36111111111111116
vt 0.7083333333333334 0.36111111111111116
vt 0.6041666666666666 0.5277777777777778
vt 0.7013888888888888 0.5277777777777778
vt 0.7013888888888888 0.36111111111111116
vt 0.6041666666666666 0.36111111111111116
vt 0.7083333333333334 0.5277777777777778
vt 0.7569444444444444 0.5277777777777778
vt 0.7569444444444444 0.36111111111111116
vt 0.7083333333333334 0.36111111111111116
vt 0.9166666666666666 0.5277777777777778
vt 0.9166666666666666 0.4305555555555556
vt 0.8680555555555556 0.4305555555555556
vt 0.8680555555555556 0.5277777777777778
vt 0.8680555555555556 0.5277777777777778
vt 0.8680555555555556 0.4305555555555556
vt 0.9166666666666666 0.4305555555555556
vt 0.9166666666666666 0.5277777777777778
vt 0.7291666666666666 0.16666666666666663
vt 0.7291666666666666 0.25
vt 0.7430555555555556 0.25
vt 0.7430555555555556 0.16666666666666663
vt 0.7291666666666666 0.1597222222222222
vt 0.7291666666666666 0.24305555555555558
vt 0.7430555555555556 0.24305555555555558
vt 0.7430555555555556 0.1597222222222222
vt 0.7291666666666666 0.1597222222222222
vt 0.7291666666666666 0.24305555555555558
vt 0.7430555555555556 0.24305555555555558
vt 0.7430555555555556 0.1597222222222222
vt 0.5416666666666666 0.29861111111111116
vt 0.625 0.29861111111111116
vt 0.625 0.2152777777777778
vt 0.5416666666666666 0.2152777777777778
vt 0.7291666666666666 0.16666666666666663
vt 0.7291666666666666 0.25
vt 0.7430555555555556 0.25
vt 0.7430555555555556 0.16666666666666663
vt 0.6875 0.20833333333333337
vt 0.7430555555555556 0.20833333333333337
vt 0.7430555555555556 0.1875
vt 0.6875 0.1875
vt 0.6875 0.20833333333333337
vt 0.7430555555555556 0.20833333333333337
vt 0.7430555555555556 0.1875
vt 0.6875 0.1875
vt 0.6875 0.20833333333333337
vt 0.7430555555555556 0.20833333333333337
vt 0.7430555555555556 0.1875
vt 0.6875 0.1875
vt 0.625 0.2152777777777778
vt 0.625 0.29861111111111116
vt 0.5416666666666666 0.29861111111111116
vt 0.5416666666666666 0.2152777777777778
vt 0.7430555555555556 0.24305555555555558
vt 0.7291666666666666 0.24305555555555558
vt 0.7291666666666666 0.1597222222222222
vt 0.7430555555555556 0.1597222222222222
vt 0.7430555555555556 0.25
vt 0.7291666666666666 0.25
vt 0.7291666666666666 0.16666666666666663
vt 0.7430555555555556 0.16666666666666663
vt 0.7430555555555556 0.24305555555555558
vt 0.7291666666666666 0.24305555555555558
vt 0.7291666666666666 0.1597222222222222
vt 0.7430555555555556 0.1597222222222222
vt 0.7430555555555556 0.25
vt 0.7291666666666666 0.25
vt 0.7291666666666666 0.16666666666666663
vt 0.7430555555555556 0.16666666666666663
vt 0.3888888888888889 0.2152777777777778
vt 0.5 0.2152777777777778
vt 0.5 0.13194444444444442
vt 0.3888888888888889 0.13194444444444442
vt 0.22916666666666666 0.01388888888888884
vt 0.22916666666666666 0.125
vt 0.3819444444444444 0.125
vt 0.3819444444444444 0.01388888888888884
vt 0.3888888888888889 0.125
vt 0.5416666666666666 0.125
vt 0.5416666666666666 0.04166666666666663
vt 0.3888888888888889 0.04166666666666663
vt 0.3888888888888889 0.2152777777777778
vt 0.5 0.2152777777777778
vt 0.5 0.13194444444444442
vt 0.3888888888888889 0.13194444444444442
vt 0.22916666666666666 0.01388888888888884
vt 0.22916666666666666 0.125
vt 0.3819444444444444 0.125
vt 0.3819444444444444 0.01388888888888884
vt 0.8263888888888888 0.23611111111111116
vt 0.8958333333333334 0.23611111111111116
vt 0.8958333333333334 0.14583333333333337
vt 0.8263888888888888 0.14583333333333337
vt 0.8263888888888888 0.23611111111111116
vt 0.8958333333333334 0.23611111111111116
vt 0.8958333333333334 0.14583333333333337
vt 0.8263888888888888 0.14583333333333337
vt 0.75 0.23611111111111116
vt 0.8194444444444444 0.23611111111111116
vt 0.8194444444444444 0.16666666666666663
vt 0.75 0.16666666666666663
vn 0 0 -1
vn 0 0 1
vn 0 0 -1
vn 0 1 0
vn 0 -1 0
vn 0 0 1
vn -1 0 0
vn 0 0 -1
vn 1 0 0
vn 0 0 1
vn -1 0 0
vn 0 0 -1
vn 1 0 0
vn 0 0 -1
vn 0 0 1
vn 0 1 0
vn 0 -1 0
vn 0 0 -1
vn -1 0 0
vn 0 0 1
vn 1 0 0
vn 0 0 -1
vn -1 0 0
vn 0 0 1
vn 1 0 0
vn 0 0.7071067811865476 -0.7071067811865476
vn 0 0.7071067811865476 0.7071067811865476
vn 0 -0.7071067811865476 0.7071067811865476
vn 0 -0.7071067811865476 -0.7071067811865476
vn 0 0 1
vn 0 0 -1
vn -1 0 0
vn -1 0 0
vn -1 0 0
vn 1 0 0
vn 1 0 0
vn 0 1 0
vn 0 1 0
vn 0 0 1
vn 0 0 1
vn 0 0 -1
vn 0 0 1
vn 0 0 -1
vn 0 1 0
vn 0 0 1
vn 0 0 -1
vn 0 0 -1
vn 0.948683298050514 -0.316227766016838 0
vn 1 0 0
vn 0.9474922789871991 0.3197786441581797 0
vn 0.9544799780350297 0.2982749931359468 0
vn 0 0 1
vn 0 0.7071067811865476 0.7071067811865476
vn 0 -0.7071067811865476 0.7071067811865476
vn 0 0 -1
vn 0 0.7071067811865476 -0.7071067811865476
vn 0 -0.7071067811865476 -0.7071067811865476
vn 1 0 0
vn 1 0 0
vn 1 0 0
vn -1 0 0
vn 1 0 0
vn 0 1 0
vn 0 -1 0
vn 0 0 1
vn 0 0 -1
vn 1 0 0
vn -1 0 0
vn 1 0 0
vn 0 1 0
vn 0 0 1
vn 0 0 -1
vn -1 0 0
vn 0 0 -1
vn 0 1 0
vn 0 -1 0
vn 0 0 1
vn -1 0 0
vn 0 1 0
vn 0 -1 0
vn 1 0 0
vn 0 -1 0
vn 0 0 1
vn -1 0 0
vn 1 0 0
vn 0 1 0
vn 0 0 1
vn 0 0 -1
vn -1 0 0
vn 1 0 0
vn 0 1 0
vn 0 0 1
vn 0 0 -1
vn -1 0 0
vn 1 0 0
vn 0 1 0
vn 0 -1 0
vn 0 0 -1
vn 1 0 0
vn -1 0 0
vn 0 1 0
vn 0 -1 0
vn 0 0 1
vn 1 0 0
vn 0 0 1
vn -1 0 0
vn 0 0 -1
vn 1 0 0
vn 0 1 0
vn 0 -1 0
vn 0 0 1
vn -1 0 0
vn 0 0 -1
vn 1 0 0
vn 0 0 1
vn -1 0 0
vn 0 0 -1
vn 1 0 0
vn 0 0 1
vn -1 0 0
vn 0 0 -1
vn 1 0 0
vn 0 0 1
vn -1 0 0
vn 0 0 -1
vn 1 0 0
vn 0 0 1
vn -1 0 0
vn 0 0 -1
vn 1 0 0
vn 0 1 0
vn 0 -1 0
vn -1 0 0
vn 0 0 -1
vn 0 0 1
vn 0 1 0
vn 1 0 0
vn -1 0 0
vn 0 0 1
vn 1 0 0
vn 0 -1 0
vn 0 0 1
vn -1 0 0
vn 0 0 -1
vn 1 0 0
vn 0 0 1
vn 0 -1 0
vn -1 0 0
vn 0 0 -1
vn 0 1 0
vn -1 0 0
vn 0 0 -1
vn 0 1 0
usemtl m_172712f4-742a-b193-1fb5-06c3ac7ca812
f 218/1/1 223/2/1 225/3/1 219/4/1
f 3/5/2 2/6/2 1/7/2 4/8/2
f 6/9/3 8/10/3 7/11/3 5/12/3
f 8/13/4 6/14/4 2/15/4 3/16/4
f 4/17/5 1/18/5 5/19/5 7/20/5
f 11/21/6 10/22/6 9/23/6 12/24/6
f 10/25/7 14/26/7 13/27/7 9/28/7
f 14/29/8 16/30/8 15/31/8 13/32/8
f 16/33/9 11/34/9 12/35/9 15/36/9
f 19/37/10 18/38/10 17/39/10 20/40/10
f 18/41/11 22/42/11 21/43/11 17/44/11
f 22/45/12 24/46/12 23/47/12 21/48/12
f 24/49/13 19/50/13 20/51/13 23/52/13
f 25/53/14 26/54/14 27/55/14 28/56/14
f 31/57/15 32/58/15 30/59/15 29/60/15
f 26/61/16 30/62/16 32/63/16 27/64/16
f 29/65/17 25/66/17 28/67/17 31/68/17
f 33/69/18 34/70/18 35/71/18 36/72/18
f 37/73/19 38/74/19 34/75/19 33/76/19
f 39/77/20 40/78/20 38/79/20 37/80/20
f 36/81/21 35/82/21 40/83/21 39/84/21
f 41/85/22 42/86/22 43/87/22 44/88/22
f 45/89/23 46/90/23 42/91/23 41/92/23
f 47/93/24 48/94/24 46/95/24 45/96/24
f 44/97/25 43/98/25 48/99/25 47/100/25
f 51/101/26 50/102/26 49/103/26 63/104/26
f 53/105/27 54/106/27 64/107/27 52/108/27
f 57/109/28 56/110/28 55/111/28 58/112/28
f 60/113/29 62/114/29 61/115/29 59/116/29
f 54/117/30 53/118/30 56/119/30 57/120/30
f 50/121/31 51/122/31 62/123/31 60/124/31
f 50/125/32 53/126/32 52/127/32 49/128/32
f 56/129/33 60/130/33 59/131/33 55/132/33
f 53/133/34 50/134/34 60/135/34 56/136/34
f 61/137/35 62/138/35 57/139/35 58/140/35
f 62/141/36 51/142/36 54/143/36 57/144/36
f 49/145/37 52/146/37 65/147/37 66/148/37
f 65/149/38 64/150/38 63/151/38 66/152/38
f 72/153/39 71/154/39 68/155/39 73/156/39
f 82/157/40 67/158/40 75/159/40 83/160/40
f 70/161/41 85/162/41 84/163/41 76/164/41
f 77/165/42 64/166/42 67/167/42 82/168/42
f 63/169/43 78/170/43 85/171/43 70/172/43
f 78/173/44 63/174/44 64/175/44 77/176/44
f 73/177/45 68/178/45 58/179/45 79/180/45
f 69/181/46 74/182/46 86/183/46 61/184/46
f 80/185/47 81/186/47 74/187/47 69/188/47
f 85/189/48 82/190/48 83/191/48 84/192/48
f 78/193/49 77/194/49 82/195/49 85/196/49
f 87/197/50 81/198/50 72/199/50 88/200/50
f 73/201/51 74/202/51 87/203/51 88/204/51
f 92/205/52 94/206/52 93/207/52 91/208/52
f 94/209/53 92/210/53 90/211/53 67/212/53
f 68/213/54 89/214/54 91/215/54 93/216/54
f 99/217/55 100/218/55 98/219/55 97/220/55
f 96/221/56 98/222/56 100/223/56 70/224/56
f 97/225/57 95/226/57 69/227/57 99/228/57
f 90/229/58 92/230/58 91/231/58 89/232/58
f 98/233/59 96/234/59 95/235/59 97/236/59
f 95/237/60 96/238/60 90/239/60 89/240/60
f 101/241/61 102/242/61 104/243/61 103/244/61
f 106/245/62 105/246/62 107/247/62 108/248/62
f 106/249/63 102/250/63 101/251/63 105/252/63
f 107/253/64 103/254/64 104/255/64 108/256/64
f 105/257/65 101/258/65 103/259/65 107/260/65
f 102/261/66 106/262/66 108/263/66 104/264/66
f 74/265/67 73/266/67 79/267/67 86/268/67
f 109/269/68 110/270/68 112/271/68 111/272/68
f 114/273/69 113/274/69 115/275/69 116/276/69
f 114/277/70 110/278/70 109/279/70 113/280/70
f 113/281/71 109/282/71 111/283/71 115/284/71
f 110/285/72 114/286/72 116/287/72 112/288/72
f 118/289/73 122/290/73 121/291/73 117/292/73
f 122/293/74 124/294/74 123/295/74 121/296/74
f 124/297/75 122/298/75 118/299/75 119/300/75
f 120/301/76 117/302/76 121/303/76 123/304/76
f 127/305/77 126/306/77 125/307/77 128/308/77
f 126/309/78 118/310/78 117/311/78 125/312/78
f 119/313/79 118/314/79 126/315/79 127/316/79
f 128/317/80 125/318/80 117/319/80 120/320/80
f 246/321/81 248/322/81 129/323/81 243/324/81
f 129/325/82 242/326/82 244/327/82 243/328/82
f 248/329/83 247/330/83 242/331/83 129/332/83
f 130/333/84 131/334/84 133/335/84 132/336/84
f 135/337/85 134/338/85 136/339/85 137/340/85
f 135/341/86 131/342/86 130/343/86 134/344/86
f 134/345/87 130/346/87 132/347/87 136/348/87
f 131/349/88 135/350/88 137/351/88 133/352/88
f 138/353/89 139/354/89 141/355/89 140/356/89
f 143/357/90 142/358/90 144/359/90 145/360/90
f 143/361/91 139/362/91 138/363/91 142/364/91
f 142/365/92 138/366/92 140/367/92 144/368/92
f 139/369/93 143/370/93 145/371/93 141/372/93
f 146/373/94 147/374/94 149/375/94 148/376/94
f 151/377/95 150/378/95 152/379/95 153/380/95
f 151/381/96 147/382/96 146/383/96 150/384/96
f 152/385/97 148/386/97 149/387/97 153/388/97
f 147/389/98 151/390/98 153/391/98 149/392/98
f 154/393/99 155/394/99 157/395/99 156/396/99
f 159/397/100 158/398/100 160/399/100 161/400/100
f 159/401/101 155/402/101 154/403/101 158/404/101
f 160/405/102 156/406/102 157/407/102 161/408/102
f 155/409/103 159/410/103 161/411/103 157/412/103
f 64/413/104 54/414/104 51/415/104 63/416/104
f 185/417/105 184/418/105 182/419/105 183/420/105
f 184/421/106 176/422/106 177/423/106 182/424/106
f 176/425/107 175/426/107 174/427/107 177/428/107
f 175/429/108 185/430/108 183/431/108 174/432/108
f 175/433/109 176/434/109 184/435/109 185/436/109
f 183/437/110 182/438/110 177/439/110 174/440/110
f 178/441/111 168/442/111 169/443/111 179/444/111
f 168/445/112 167/446/112 166/447/112 169/448/112
f 167/449/113 171/450/113 170/451/113 166/452/113
f 171/453/114 178/454/114 179/455/114 170/456/114
f 180/457/115 164/458/115 165/459/115 181/460/115
f 164/461/116 163/462/116 162/463/116 165/464/116
f 163/465/117 173/466/117 172/467/117 162/468/117
f 173/469/118 180/470/118 181/471/118 172/472/118
f 199/473/119 194/474/119 195/475/119 198/476/119
f 194/477/120 193/478/120 192/479/120 195/480/120
f 193/481/121 197/482/121 196/483/121 192/484/121
f 197/485/122 199/486/122 198/487/122 196/488/122
f 201/489/123 190/490/123 191/491/123 200/492/123
f 190/493/124 188/494/124 189/495/124 191/496/124
f 188/497/125 187/498/125 186/499/125 189/500/125
f 187/501/126 201/502/126 200/503/126 186/504/126
f 204/505/127 203/506/127 202/507/127 205/508/127
f 203/509/128 209/510/128 206/511/128 202/512/128
f 209/513/129 208/514/129 207/515/129 206/516/129
f 208/517/130 204/518/130 205/519/130 207/520/130
f 208/521/131 209/522/131 203/523/131 204/524/131
f 205/525/132 202/526/132 206/527/132 207/528/132
f 213/529/133 212/530/133 210/531/133 211/532/133
f 212/533/134 215/534/134 217/535/134 210/536/134
f 214/537/135 213/538/135 211/539/135 216/540/135
f 215/541/136 212/542/136 213/543/136 214/544/136
f 215/545/137 214/546/137 216/547/137 217/548/137
f 220/549/138 218/550/138 219/551/138 221/552/138
f 222/553/139 220/554/139 221/555/139 224/556/139
f 223/557/140 222/558/140 224/559/140 225/560/140
f 226/561/141 228/562/141 230/563/141 231/564/141
f 227/565/142 226/566/142 231/567/142 232/568/142
f 229/569/143 228/570/143 226/571/143 227/572/143
f 233/573/144 230/574/144 228/575/144 229/576/144
f 232/577/145 231/578/145 230/579/145 233/580/145
f 241/581/146 234/582/146 236/583/146 235/584/146
f 235/585/147 236/586/147 238/587/147 237/588/147
f 234/589/148 239/590/148 238/591/148 236/592/148
f 239/593/149 240/594/149 237/595/149 238/596/149
f 240/597/150 239/598/150 234/599/150 241/600/150
f 247/601/151 245/602/151 244/603/151 242/604/151
f 245/605/152 246/606/152 243/607/152 244/608/152
f 246/609/153 245/610/153 247/611/153 248/612/153
