
mtllib boiler.mtl

usemtl boiler

o base
v -1.875000 0.000000 0.000000
v -1.875000 1.500000 0.000000
v -1.500000 1.500000 0.000000
v -1.500000 0.000000 0.000000
v -1.875000 0.500000 0.500000
v -1.875000 1.000000 0.500000
v -1.500000 0.500000 0.500000
v -1.500000 1.000000 0.500000
v -1.500000 0.000000 -1.000000
v -1.500000 1.500000 -1.000000
v -1.875000 1.500000 -1.000000
v -1.875000 0.000000 -1.000000
v -1.500000 0.500000 -1.500000
v -1.500000 1.000000 -1.500000
v -1.875000 0.500000 -1.500000
v -1.875000 1.000000 -1.500000
v -1.500000 0.375000 0.000000
v -1.875000 0.375000 0.000000
v -2.000000 0.000000 0.000000
v -1.500000 0.375000 -1.000000
v -2.000000 0.000000 -1.000000
v -1.875000 0.375000 -1.000000
v -1.500000 1.125000 0.000000
v -2.000000 1.500000 0.000000
v -1.875000 1.125000 0.000000
v -1.500000 1.125000 -1.000000
v -1.875000 1.125000 -1.000000
v -2.000000 1.500000 -1.000000
v -1.500000 2.000000 0.000000
v -2.000000 2.000000 0.000000
v -1.500000 2.000000 -1.000000
v -2.000000 2.000000 -1.000000
v -1.500000 -0.500000 -0.000000
v -2.000000 -0.500000 -0.000000
v -1.500000 -0.500000 -1.000000
v -2.000000 -0.500000 -1.000000
v -1.875000 1.125000 0.000000
v -1.875000 1.125000 -1.000000
v 2.687500 0.562500 -0.875000
v 2.687500 0.937500 -0.875000
v 2.312500 0.937500 -0.875000
v 2.312500 0.562500 -0.875000
v 2.687500 0.562500 -1.000000
v 2.687500 0.937500 -1.000000
v 2.312500 0.562500 -1.000000
v 2.312500 0.937500 -1.000000
v 2.750000 0.500000 0.250000
v 2.750000 1.000000 0.250000
v 2.250000 1.000000 0.250000
v 2.250000 0.500000 0.250000
v 2.750000 0.500000 -0.125000
v 2.750000 1.000000 -0.125000
v 2.250000 0.500000 -0.125000
v 2.250000 1.000000 -0.125000
v 1.250000 -0.320501 0.562500
v 1.250000 -0.070501 0.562500
v -1.000000 -0.070501 0.562500
v -1.000000 -0.320501 0.562500
v 1.250000 -0.320501 0.437500
v 1.250000 -0.070501 0.437500
v -1.000000 -0.320501 0.437500
v -1.000000 -0.070501 0.437500
v 1.250000 -0.320501 -1.437500
v 1.250000 -0.070501 -1.437500
v -1.000000 -0.070501 -1.437500
v -1.000000 -0.320501 -1.437500
v 1.250000 -0.320501 -1.562500
v 1.250000 -0.070501 -1.562500
v -1.000000 -0.320501 -1.562500
v -1.000000 -0.070501 -1.562500
v 1.500000 -0.500000 0.625000
v 1.500000 0.125000 0.625000
v 1.250000 0.125000 0.625000
v 1.250000 -0.500000 0.625000
v 1.500000 -0.500000 0.375000
v 1.500000 -0.125000 0.375000
v 1.250000 -0.500000 0.375000
v 1.250000 -0.125000 0.375000
v -1.000000 -0.500000 0.625000
v -1.000000 0.125000 0.625000
v -1.250000 0.125000 0.625000
v -1.250000 -0.500000 0.625000
v -1.000000 -0.500000 0.375000
v -1.000000 -0.125000 0.375000
v -1.250000 -0.500000 0.375000
v -1.250000 -0.125000 0.375000
v -1.250000 -0.500000 -1.625000
v -1.250000 0.125000 -1.625000
v -1.000000 0.125000 -1.625000
v -1.000000 -0.500000 -1.625000
v -1.250000 -0.500000 -1.375000
v -1.250000 -0.125000 -1.375000
v -1.000000 -0.500000 -1.375000
v -1.000000 -0.125000 -1.375000
v 2.937500 0.000000 -1.562500
v 2.937500 1.500000 -1.562500
v 2.062500 1.500000 -1.562500
v 2.062500 0.000000 -1.562500
v 2.937500 0.000000 -2.000000
v 2.937500 1.500000 -2.000000
v 2.062500 0.000000 -2.000000
v 2.062500 1.500000 -2.000000
v 2.625000 0.625000 -1.000000
v 2.625000 0.875000 -1.000000
v 2.375000 0.875000 -1.000000
v 2.375000 0.625000 -1.000000
v 2.625000 0.625000 -1.187500
v 2.625000 0.875000 -1.187500
v 2.375000 0.625000 -1.187500
v 2.375000 0.875000 -1.187500
v 2.687500 0.562500 -1.187500
v 2.687500 0.937500 -1.187500
v 2.312500 0.937500 -1.187500
v 2.312500 0.562500 -1.187500
v 2.687500 0.562500 -1.562500
v 2.687500 0.937500 -1.562500
v 2.312500 0.562500 -1.562500
v 2.312500 0.937500 -1.562500
v 2.625000 -0.375000 -1.250000
v 2.625000 0.562500 -1.250000
v 2.375000 0.562500 -1.250000
v 2.375000 -0.375000 -1.250000
v 2.625000 -0.375000 -1.500000
v 2.625000 0.562500 -1.500000
v 2.375000 -0.375000 -1.500000
v 2.375000 0.562500 -1.500000
v 2.687500 -0.500000 -1.187500
v 2.687500 -0.375000 -1.187500
v 2.312500 -0.375000 -1.187500
v 2.312500 -0.500000 -1.187500
v 2.687500 -0.500000 -1.562500
v 2.687500 -0.375000 -1.562500
v 2.312500 -0.500000 -1.562500
v 2.312500 -0.375000 -1.562500
v 3.000000 -0.500000 -0.000000
v 3.000000 0.000000 0.000000
v 2.000000 0.000000 0.000000
v 2.000000 -0.500000 -0.000000
v 3.000000 -0.500000 -1.000000
v 3.000000 0.000000 -1.000000
v 2.000000 -0.500000 -1.000000
v 2.000000 0.000000 -1.000000
v 3.000000 0.500000 -0.250000
v 3.000000 1.000000 -0.250000
v 2.875000 1.000000 -0.250000
v 2.875000 0.500000 -0.250000
v 3.000000 0.500000 -0.750000
v 3.000000 1.000000 -0.750000
v 2.875000 0.500000 -0.750000
v 2.875000 1.000000 -0.750000
v 2.250000 -0.500000 0.875000
v 2.250000 -0.000000 0.875000
v 2.125000 -0.000000 0.875000
v 2.125000 -0.500000 0.875000
v 2.250000 -0.500000 0.625000
v 2.250000 -0.000000 0.625000
v 2.125000 -0.500000 0.625000
v 2.125000 -0.000000 0.625000
v 2.875000 -0.500000 0.875000
v 2.875000 -0.000000 0.875000
v 2.750000 -0.000000 0.875000
v 2.750000 -0.500000 0.875000
v 2.875000 -0.500000 0.625000
v 2.875000 -0.000000 0.625000
v 2.750000 -0.500000 0.625000
v 2.750000 -0.000000 0.625000
v 2.000000 0.250000 0.000000
v 2.000000 1.250000 0.000000
v 1.750000 1.250000 0.000000
v 1.750000 0.250000 0.000000
v 2.000000 0.250000 -1.000000
v 2.000000 1.250000 -1.000000
v 1.750000 0.250000 -1.000000
v 1.750000 1.250000 -1.000000
v 2.868750 0.375000 -0.125000
v 2.868750 1.125000 -0.125000
v 1.993750 1.125000 -0.125000
v 1.993750 0.375000 -0.125000
v 2.868750 0.375000 -0.875000
v 2.868750 1.125000 -0.875000
v 1.993750 0.375000 -0.875000
v 1.993750 1.125000 -0.875000
v 3.000000 -0.000000 1.000000
v 3.000000 1.000000 1.000000
v 2.000000 1.000000 1.000000
v 2.000000 -0.000000 1.000000
v 3.000000 -0.000000 0.500000
v 3.000000 1.000000 0.500000
v 2.000000 -0.000000 0.500000
v 2.000000 1.000000 0.500000
v 1.250000 -0.500000 -1.625000
v 1.250000 0.125000 -1.625000
v 1.500000 0.125000 -1.625000
v 1.500000 -0.500000 -1.625000
v 1.250000 -0.500000 -1.375000
v 1.250000 -0.125000 -1.375000
v 1.500000 -0.500000 -1.375000
v 1.500000 -0.125000 -1.375000
v 1.750000 2.000000 -1.000000
v 1.750000 1.250000 -1.750000
v -1.500000 1.250000 -1.750000
v -1.500000 2.000000 -1.000000
v 1.750000 2.000000 0.000000
v 1.750000 1.250000 0.750000
v -1.500000 2.000000 0.000000
v -1.500000 1.250000 0.750000
v 1.750000 -0.500000 -0.000000
v 1.750000 0.250000 0.750000
v -1.500000 0.250000 0.750000
v -1.500000 -0.500000 -0.000000
v 1.750000 -0.500000 -1.000000
v 1.750000 0.250000 -1.750000
v -1.500000 -0.500000 -1.000000
v -1.500000 0.250000 -1.750000
v 1.750000 1.250000 0.750000
v -1.500000 1.250000 0.750000
v 1.750000 1.250000 -1.750000
v -1.500000 1.250000 -1.750000
v 3.000000 -1.000000 1.000000
v 3.000000 -0.500000 1.000000
v -2.000000 -0.500000 1.000000
v -2.000000 -1.000000 1.000000
v 3.000000 -1.000000 -2.000000
v 3.000000 -0.500000 -2.000000
v -2.000000 -1.000000 -2.000000
v -2.000000 -0.500000 -2.000000
vt 1.000000 0.000000
vt 1.000000 1.000000
vt 0.000000 1.000000
vt 0.000000 0.000000
vt 0.750000 0.593750
vt 0.750000 0.656250
vt 0.812500 0.718750
vt 0.812500 0.531250
vt 0.671875 0.562500
vt 0.671875 0.625000
vt 0.625000 0.625000
vt 0.625000 0.562500
vt 0.718750 0.562500
vt 0.718750 0.648438
vt 0.671875 0.648438
vt 0.109375 0.671875
vt 0.109375 0.718750
vt 0.062500 0.718750
vt 0.046875 0.671875
vt 0.093750 0.718750
vt 0.046875 0.718750
vt 0.875000 0.890625
vt 0.875000 0.937500
vt 0.750000 0.937500
vt 0.750000 0.890625
vt 0.062500 0.671875
vt 0.093750 0.671875
vt 0.875000 0.812500
vt 0.875000 0.859375
vt 0.750000 0.859375
vt 0.750000 0.812500
vt 0.812500 0.812500
vt 0.812500 0.875000
vt 0.750000 0.875000
vt 0.875000 0.875000
vt 0.687500 0.750000
vt 0.687500 0.875000
vt 0.625000 0.875000
vt 0.625000 0.750000
vt 0.812500 0.937500
vt 0.625000 0.937500
vt 0.875000 0.718750
vt 0.750000 0.718750
vt 0.671875 0.703125
vt 0.671875 0.750000
vt 0.656250 0.750000
vt 0.656250 0.703125
vt 0.703125 0.703125
vt 0.703125 0.750000
vt 0.468750 0.187500
vt 0.468750 0.250000
vt 0.406250 0.250000
vt 0.406250 0.187500
vt 0.515625 0.187500
vt 0.515625 0.250000
vt 0.718750 0.812500
vt 0.718750 0.531250
vt 0.750000 0.531250
vt 0.734375 0.812500
vt 0.734375 0.531250
vt 0.656250 0.671875
vt 0.625000 0.671875
vt 0.656250 0.718750
vt 0.625000 0.718750
vt 0.218750 0.000000
vt 0.218750 0.187500
vt 0.109375 0.187500
vt 0.109375 0.000000
vt 0.273438 0.000000
vt 0.273438 0.187500
vt 0.000000 0.187500
vt 0.382812 0.132812
vt 0.382812 0.187500
vt 0.273438 0.132812
vt 0.843750 0.625000
vt 0.812500 0.625000
vt 0.812500 0.601562
vt 0.843750 0.601562
vt 0.843750 0.718750
vt 0.703125 0.718750
vt 0.476562 0.187500
vt 0.476562 0.250000
vt 0.460938 0.250000
vt 0.460938 0.187500
vt 0.734375 0.875000
vt 0.703125 0.875000
vt 0.703125 0.812500
vt 0.750000 0.687500
vt 0.718750 0.687500
vt 0.812500 0.437500
vt 0.718750 0.437500
vt 0.718750 0.328125
vt 0.812500 0.328125
vt 1.000000 0.812500
vt 1.000000 0.937500
vt 0.000000 0.312500
vt 0.000000 0.445312
vt 0.406250 0.445312
vt 0.406250 0.312500
vt 0.500000 0.562500
vt 0.406250 0.468750
vt 0.718750 0.468750
vt 0.625000 0.250000
vt 0.718750 0.343750
vt 0.406250 0.343750
vt 0.500000 0.250000
vt 0.406250 0.437500
vt 0.406250 0.562500
vt 0.000000 0.562500
vt 0.000000 0.437500
vt 0.000000 0.625000
vt 0.625000 1.000000
vn 0.000000 0.000000 -1.000000
vn 0.963300 0.000000 -0.268400
vn -1.000000 0.000000 0.000000
vn 0.000000 -0.382700 0.923900
vn 0.000000 0.382700 0.923900
vn 1.000000 -0.000000 0.000000
vn 0.000000 0.707100 0.707100
vn 0.000000 -0.707100 0.707100
vn 0.963300 -0.000000 0.268400
vn 0.000000 -0.000000 1.000000
vn 0.000000 -0.382700 -0.923900
vn 0.000000 0.382700 -0.923900
vn 0.000000 0.707100 -0.707100
vn 0.000000 -0.707100 -0.707100
vn -0.948700 0.316200 0.000000
vn -0.584700 0.811300 -0.000000
vn -0.584700 0.811300 0.000200
vn 0.000000 1.000000 0.000000
vn -0.584700 0.811200 0.000000
vn -0.584700 0.811200 -0.000200
vn 0.000000 -1.000000 -0.000000
vn -0.584700 -0.811200 -0.000000
vn -0.948700 -0.316200 -0.000000
vn -0.000000 0.923900 -0.382700
vn -0.000000 0.923900 0.382700
vn 0.000000 -0.923900 0.382700
vn 0.000000 -0.923900 -0.382700

f 1/1/1 2/2/1 3/3/2 4/4/2
f 5/5/3 6/6/3 2/7/3 1/8/3
f 7/9/4 8/10/5 6/11/5 5/12/4
f 4/1/2 3/2/2 8/3/6 7/4/6
f 2/13/7 6/14/5 8/15/5 3/9/7
f 5/13/4 1/14/8 4/15/8 7/9/4
f 9/1/9 10/2/9 11/3/10 12/4/10
f 13/1/6 14/2/6 10/3/9 9/4/9
f 15/9/11 16/10/12 14/11/12 13/12/11
f 12/8/3 11/7/3 16/6/3 15/5/3
f 10/13/13 14/14/12 16/15/12 11/9/13
f 13/13/11 9/14/14 12/15/14 15/9/11
f 4/16/10 17/17/10 18/18/10 19/19/10
f 9/1/6 20/2/6 17/3/6 4/4/6
f 21/16/1 22/20/1 20/21/1 9/19/1
f 19/22/15 18/23/16 22/24/17 21/25/15
f 17/1/18 20/2/18 22/3/19 18/4/20
f 9/1/21 4/2/21 19/3/21 21/4/21
f 23/16/10 3/17/10 24/21/10 25/26/10
f 26/1/6 10/2/6 3/3/6 23/4/6
f 27/27/1 28/17/1 10/21/1 26/19/1
f 25/28/22 24/29/23 28/30/23 27/31/22
f 3/1/18 10/2/18 28/3/18 24/4/18
f 26/1/21 23/2/21 25/3/22 27/4/22
f 3/32/10 29/33/10 30/34/10 24/31/10
f 10/1/6 31/2/6 29/3/6 3/4/6
f 28/28/1 32/35/1 31/33/1 10/32/1
f 24/28/3 30/35/3 32/34/3 28/31/3
f 29/36/18 31/37/18 32/38/18 30/39/18
f 33/33/10 4/40/10 19/24/10 34/34/10
f 35/1/6 9/2/6 4/3/6 33/4/6
f 36/35/1 21/23/1 9/40/1 35/33/1
f 34/34/3 19/24/3 21/41/3 36/38/3
f 35/1/21 33/2/21 34/3/21 36/4/21
f 17/1/10 23/2/10 37/3/10 18/4/10
f 20/1/6 26/2/6 23/3/6 17/4/6
f 22/1/1 38/2/1 26/3/1 20/4/1
f 18/42/3 37/28/3 38/31/3 22/43/3
f 23/1/18 26/2/18 38/3/18 37/4/18
f 39/1/10 40/2/10 41/3/10 42/4/10
f 43/44/6 44/45/6 40/46/6 39/47/6
f 45/48/1 46/49/1 44/46/1 43/47/1
f 42/44/3 41/45/3 46/46/3 45/47/3
f 40/44/18 44/45/18 46/46/18 41/47/18
f 43/44/21 39/45/21 42/46/21 45/47/21
f 47/50/10 48/51/10 49/52/10 50/53/10
f 51/54/6 52/55/6 48/51/6 47/50/6
f 53/1/1 54/2/1 52/3/1 51/4/1
f 50/54/3 49/55/3 54/51/3 53/50/3
f 48/54/18 52/55/18 54/51/18 49/50/18
f 51/54/21 47/55/21 50/51/21 53/50/21
f 55/31/10 56/56/10 57/57/10 58/58/10
f 59/1/6 60/2/6 56/3/6 55/4/6
f 61/31/1 62/56/1 60/57/1 59/58/1
f 58/1/3 57/2/3 62/3/3 61/4/3
f 56/31/18 60/59/18 62/60/18 57/58/18
f 59/31/21 55/59/21 58/60/21 61/58/21
f 63/31/10 64/56/10 65/57/10 66/58/10
f 67/1/6 68/2/6 64/3/6 63/4/6
f 69/31/1 70/56/1 68/57/1 67/58/1
f 66/1/3 65/2/3 70/3/3 69/4/3
f 64/31/18 68/59/18 70/60/18 65/58/18
f 67/31/21 63/59/21 66/60/21 69/58/21
f 71/61/10 72/46/10 73/39/10 74/62/10
f 75/61/6 76/63/6 72/39/6 71/62/6
f 77/61/1 78/63/12 76/64/12 75/62/1
f 74/61/3 73/46/3 78/64/3 77/62/3
f 72/1/13 76/2/12 78/3/12 73/4/13
f 75/1/21 71/2/21 74/3/21 77/4/21
f 79/61/10 80/46/10 81/39/10 82/62/10
f 83/61/6 84/63/6 80/39/6 79/62/6
f 85/61/1 86/63/12 84/64/12 83/62/1
f 82/61/3 81/46/3 86/64/3 85/62/3
f 80/1/13 84/2/12 86/3/12 81/4/13
f 83/1/21 79/2/21 82/3/21 85/4/21
f 87/61/1 88/46/1 89/39/1 90/62/1
f 91/61/3 92/63/3 88/39/3 87/62/3
f 93/61/10 94/63/5 92/64/5 91/62/10
f 90/61/6 89/46/6 94/64/6 93/62/6
f 88/1/7 92/2/5 94/3/5 89/4/7
f 91/1/21 87/2/21 90/3/21 93/4/21
f 95/65/10 96/66/10 97/67/10 98/68/10
f 99/69/6 100/70/6 96/66/6 95/65/6
f 101/68/1 102/67/1 100/71/1 99/4/1
f 98/65/3 97/66/3 102/70/3 101/69/3
f 96/72/18 100/73/18 102/70/18 97/74/18
f 99/72/21 95/73/21 98/70/21 101/74/21
f 103/1/10 104/2/10 105/3/10 106/4/10
f 107/75/6 108/76/6 104/77/6 103/78/6
f 109/1/1 110/2/1 108/3/1 107/4/1
f 106/75/3 105/76/3 110/77/3 109/78/3
f 104/75/18 108/76/18 110/77/18 105/78/18
f 107/75/21 103/76/21 106/77/21 109/78/21
f 111/48/10 112/49/10 113/46/10 114/47/10
f 115/48/6 116/49/6 112/46/6 111/47/6
f 117/1/1 118/2/1 116/3/1 115/4/1
f 114/48/3 113/49/3 118/46/3 117/47/3
f 112/48/18 116/49/18 118/46/18 113/47/18
f 115/48/21 111/49/21 114/46/21 117/47/21
f 119/78/10 120/79/10 121/7/10 122/77/10
f 123/78/6 124/79/6 120/7/6 119/77/6
f 125/78/1 126/79/1 124/7/1 123/77/1
f 122/78/3 121/79/3 126/7/3 125/77/3
f 120/1/18 124/2/18 126/3/18 121/4/18
f 123/1/21 119/2/21 122/3/21 125/4/21
f 127/48/10 128/80/10 129/63/10 130/47/10
f 131/48/6 132/80/6 128/63/6 127/47/6
f 133/48/1 134/80/1 132/63/1 131/47/1
f 130/48/3 129/80/3 134/63/3 133/47/3
f 128/48/18 132/49/18 134/46/18 129/47/18
f 131/1/21 127/2/21 130/3/21 133/4/21
f 135/35/10 136/23/10 137/24/10 138/34/10
f 139/34/6 140/24/6 136/41/6 135/38/6
f 141/35/1 142/23/1 140/24/1 139/34/1
f 138/35/3 137/23/3 142/24/3 141/34/3
f 136/28/18 140/23/18 142/24/18 137/31/18
f 139/1/21 135/2/21 138/3/21 141/4/21
f 143/81/10 144/82/10 145/83/10 146/84/10
f 147/50/6 148/51/6 144/52/6 143/53/6
f 149/81/1 150/82/1 148/83/1 147/84/1
f 146/1/3 145/2/3 150/3/3 149/4/3
f 144/81/18 148/82/18 150/83/18 145/84/18
f 147/81/21 143/82/21 146/83/21 149/84/21
f 151/31/10 152/34/10 153/85/10 154/59/10
f 155/59/6 156/85/6 152/86/6 151/87/6
f 157/31/1 158/34/1 156/85/1 155/59/1
f 154/59/3 153/85/3 158/86/3 157/87/3
f 152/1/18 156/2/18 158/3/18 153/4/18
f 155/1/21 151/2/21 154/3/21 157/4/21
f 159/31/10 160/34/10 161/85/10 162/59/10
f 163/59/6 164/85/6 160/86/6 159/87/6
f 165/31/1 166/34/1 164/85/1 163/59/1
f 162/59/3 161/85/3 166/86/3 165/87/3
f 160/1/18 164/2/18 166/3/18 161/4/18
f 163/1/21 159/2/21 162/3/21 165/4/21
f 167/88/10 168/31/10 169/56/10 170/89/10
f 171/28/6 172/23/6 168/24/6 167/31/6
f 173/88/1 174/31/1 172/56/1 171/89/1
f 170/1/3 169/2/3 174/3/3 173/4/3
f 168/88/18 172/31/18 174/56/18 169/89/18
f 171/88/21 167/31/21 170/56/21 173/89/21
f 175/90/10 176/91/10 177/92/10 178/93/10
f 179/90/6 180/8/6 176/57/6 175/91/6
f 181/90/1 182/91/1 180/92/1 179/93/1
f 178/1/3 177/2/3 182/3/3 181/4/3
f 176/90/18 180/91/18 182/92/18 177/93/18
f 179/90/21 175/91/21 178/92/21 181/93/21
f 183/94/10 184/95/10 185/23/10 186/28/10
f 187/28/6 188/23/6 184/40/6 183/32/6
f 189/28/1 190/23/1 188/24/1 187/31/1
f 186/32/3 185/40/3 190/24/3 189/31/3
f 184/35/18 188/23/18 190/24/18 185/34/18
f 187/28/21 183/35/21 186/34/21 189/31/21
f 191/61/1 192/46/1 193/39/1 194/62/1
f 195/61/3 196/63/3 192/39/3 191/62/3
f 197/61/10 198/63/5 196/64/5 195/62/10
f 194/61/6 193/46/6 198/64/6 197/62/6
f 192/1/7 196/2/5 198/3/5 193/4/7
f 195/1/21 191/2/21 194/3/21 197/4/21
f 199/96/24 200/97/13 201/98/13 202/99/24
f 203/100/6 204/101/6 200/102/6 199/12/6
f 205/96/25 206/97/7 204/98/7 203/99/25
f 202/100/3 201/101/3 206/102/3 205/12/3
f 200/1/21 204/2/21 206/3/21 201/4/21
f 203/53/25 199/99/24 202/96/24 205/71/25
f 207/99/26 208/98/8 209/97/8 210/96/26
f 211/103/6 212/104/6 208/105/6 207/106/6
f 213/99/27 214/98/14 212/97/14 211/96/27
f 210/103/3 209/104/3 214/105/3 213/106/3
f 208/1/18 212/2/18 214/3/18 209/4/18
f 211/1/27 207/2/26 210/3/26 213/4/27
f 208/107/10 215/108/10 216/109/10 209/110/10
f 212/104/6 217/102/6 215/101/6 208/105/6
f 214/107/1 218/108/1 217/109/1 212/110/1
f 209/104/3 216/102/3 218/101/3 214/105/3
f 215/1/18 217/2/18 218/3/18 216/4/18
f 219/12/10 220/11/10 221/111/10 222/109/10
f 223/95/6 224/2/6 220/112/6 219/41/6
f 225/12/1 226/11/1 224/111/1 223/109/1
f 222/95/3 221/2/3 226/112/3 225/41/3
f 220/11/18 224/112/18 226/3/18 221/111/18
f 223/11/21 219/112/21 222/3/21 225/111/21
