
mtllib boiler.mtl

usemtl boiler

o base
v 2.500000 0.000000 0.000000
v 2.500000 1.500000 0.000000
v 2.875000 1.500000 0.000000
v 2.875000 0.000000 0.000000
v 2.875000 1.000000 0.500000
v 2.875000 0.500000 0.500000
v 2.500000 1.000000 0.500000
v 2.500000 0.500000 0.500000
v 2.875000 0.000000 -1.000000
v 2.875000 1.500000 -1.000000
v 2.500000 1.500000 -1.000000
v 2.500000 0.000000 -1.000000
v 2.500000 1.000000 -1.500000
v 2.500000 0.500000 -1.500000
v 2.875000 1.000000 -1.500000
v 2.875000 0.500000 -1.500000
v 3.000000 0.000000 0.000000
v 2.875000 0.375000 0.000000
v 2.500000 0.375000 0.000000
v 2.500000 0.375000 -1.000000
v 2.875000 0.375000 -1.000000
v 3.000000 0.000000 -1.000000
v 2.875000 1.125000 0.000000
v 3.000000 1.500000 0.000000
v 2.500000 1.125000 0.000000
v 2.500000 1.125000 -1.000000
v 3.000000 1.500000 -1.000000
v 2.875000 1.125000 -1.000000
v 3.000000 2.000000 0.000000
v 2.500000 2.000000 0.000000
v 2.500000 2.000000 -1.000000
v 3.000000 2.000000 -1.000000
v 3.000000 -0.500000 -0.000000
v 2.500000 -0.500000 -0.000000
v 2.500000 -0.500000 -1.000000
v 3.000000 -0.500000 -1.000000
v 2.875000 1.125000 0.000000
v 2.875000 1.125000 -1.000000
v -1.312500 0.562500 -0.875000
v -1.312500 0.937500 -0.875000
v -1.687500 0.937500 -0.875000
v -1.687500 0.562500 -0.875000
v -1.687500 0.937500 -1.000000
v -1.687500 0.562500 -1.000000
v -1.312500 0.937500 -1.000000
v -1.312500 0.562500 -1.000000
v -1.250000 0.500000 0.250000
v -1.250000 1.000000 0.250000
v -1.750000 1.000000 0.250000
v -1.750000 0.500000 0.250000
v -1.750000 1.000000 -0.125000
v -1.750000 0.500000 -0.125000
v -1.250000 1.000000 -0.125000
v -1.250000 0.500000 -0.125000
v 2.000000 -0.320501 0.562500
v 2.000000 -0.070501 0.562500
v -0.250000 -0.070501 0.562500
v -0.250000 -0.320501 0.562500
v -0.250000 -0.070501 0.437500
v -0.250000 -0.320501 0.437500
v 2.000000 -0.070501 0.437500
v 2.000000 -0.320501 0.437500
v 2.000000 -0.320501 -1.437500
v 2.000000 -0.070501 -1.437500
v -0.250000 -0.070501 -1.437500
v -0.250000 -0.320501 -1.437500
v -0.250000 -0.070501 -1.562500
v -0.250000 -0.320501 -1.562500
v 2.000000 -0.070501 -1.562500
v 2.000000 -0.320501 -1.562500
v -0.250000 -0.500000 0.625000
v -0.250000 0.125000 0.625000
v -0.500000 0.125000 0.625000
v -0.500000 -0.500000 0.625000
v -0.500000 -0.125000 0.375000
v -0.500000 -0.500000 0.375000
v -0.250000 -0.125000 0.375000
v -0.250000 -0.500000 0.375000
v 2.250000 -0.500000 0.625000
v 2.250000 0.125000 0.625000
v 2.000000 0.125000 0.625000
v 2.000000 -0.500000 0.625000
v 2.000000 -0.125000 0.375000
v 2.000000 -0.500000 0.375000
v 2.250000 -0.125000 0.375000
v 2.250000 -0.500000 0.375000
v 2.000000 -0.500000 -1.625000
v 2.000000 0.125000 -1.625000
v 2.250000 0.125000 -1.625000
v 2.250000 -0.500000 -1.625000
v 2.250000 -0.125000 -1.375000
v 2.250000 -0.500000 -1.375000
v 2.000000 -0.125000 -1.375000
v 2.000000 -0.500000 -1.375000
v -1.062500 0.000000 -1.562500
v -1.062500 1.500000 -1.562500
v -1.937500 1.500000 -1.562500
v -1.937500 0.000000 -1.562500
v -1.937500 1.500000 -2.000000
v -1.937500 0.000000 -2.000000
v -1.062500 1.500000 -2.000000
v -1.062500 0.000000 -2.000000
v -1.375000 0.625000 -1.000000
v -1.375000 0.875000 -1.000000
v -1.625000 0.875000 -1.000000
v -1.625000 0.625000 -1.000000
v -1.625000 0.875000 -1.187500
v -1.625000 0.625000 -1.187500
v -1.375000 0.875000 -1.187500
v -1.375000 0.625000 -1.187500
v -1.312500 0.562500 -1.187500
v -1.312500 0.937500 -1.187500
v -1.687500 0.937500 -1.187500
v -1.687500 0.562500 -1.187500
v -1.687500 0.937500 -1.562500
v -1.687500 0.562500 -1.562500
v -1.312500 0.937500 -1.562500
v -1.312500 0.562500 -1.562500
v -1.375000 -0.375000 -1.250000
v -1.375000 0.562500 -1.250000
v -1.625000 0.562500 -1.250000
v -1.625000 -0.375000 -1.250000
v -1.625000 0.562500 -1.500000
v -1.625000 -0.375000 -1.500000
v -1.375000 0.562500 -1.500000
v -1.375000 -0.375000 -1.500000
v -1.312500 -0.500000 -1.187500
v -1.312500 -0.375000 -1.187500
v -1.687500 -0.375000 -1.187500
v -1.687500 -0.500000 -1.187500
v -1.687500 -0.375000 -1.562500
v -1.687500 -0.500000 -1.562500
v -1.312500 -0.375000 -1.562500
v -1.312500 -0.500000 -1.562500
v -1.000000 -0.500000 -0.000000
v -1.000000 0.000000 0.000000
v -2.000000 0.000000 0.000000
v -2.000000 -0.500000 -0.000000
v -2.000000 0.000000 -1.000000
v -2.000000 -0.500000 -1.000000
v -1.000000 0.000000 -1.000000
v -1.000000 -0.500000 -1.000000
v -1.875000 0.500000 -0.250000
v -1.875000 1.000000 -0.250000
v -2.000000 1.000000 -0.250000
v -2.000000 0.500000 -0.250000
v -2.000000 1.000000 -0.750000
v -2.000000 0.500000 -0.750000
v -1.875000 1.000000 -0.750000
v -1.875000 0.500000 -0.750000
v -1.125000 -0.500000 0.875000
v -1.125000 -0.000000 0.875000
v -1.250000 -0.000000 0.875000
v -1.250000 -0.500000 0.875000
v -1.250000 -0.000000 0.625000
v -1.250000 -0.500000 0.625000
v -1.125000 -0.000000 0.625000
v -1.125000 -0.500000 0.625000
v -1.750000 -0.500000 0.875000
v -1.750000 -0.000000 0.875000
v -1.875000 -0.000000 0.875000
v -1.875000 -0.500000 0.875000
v -1.875000 -0.000000 0.625000
v -1.875000 -0.500000 0.625000
v -1.750000 -0.000000 0.625000
v -1.750000 -0.500000 0.625000
v -0.750000 0.250000 0.000000
v -0.750000 1.250000 0.000000
v -1.000000 1.250000 0.000000
v -1.000000 0.250000 0.000000
v -1.000000 1.250000 -1.000000
v -1.000000 0.250000 -1.000000
v -0.750000 1.250000 -1.000000
v -0.750000 0.250000 -1.000000
v -0.993750 0.375000 -0.125000
v -0.993750 1.125000 -0.125000
v -1.868750 1.125000 -0.125000
v -1.868750 0.375000 -0.125000
v -1.868750 1.125000 -0.875000
v -1.868750 0.375000 -0.875000
v -0.993750 1.125000 -0.875000
v -0.993750 0.375000 -0.875000
v -1.000000 -0.000000 1.000000
v -1.000000 1.000000 1.000000
v -2.000000 1.000000 1.000000
v -2.000000 -0.000000 1.000000
v -2.000000 1.000000 0.500000
v -2.000000 -0.000000 0.500000
v -1.000000 1.000000 0.500000
v -1.000000 -0.000000 0.500000
v -0.500000 -0.500000 -1.625000
v -0.500000 0.125000 -1.625000
v -0.250000 0.125000 -1.625000
v -0.250000 -0.500000 -1.625000
v -0.250000 -0.125000 -1.375000
v -0.250000 -0.500000 -1.375000
v -0.500000 -0.125000 -1.375000
v -0.500000 -0.500000 -1.375000
v 2.500000 2.000000 -1.000000
v 2.500000 1.250000 -1.750000
v -0.750000 1.250000 -1.750000
v -0.750000 2.000000 -1.000000
v -0.750000 1.250000 0.750000
v -0.750000 2.000000 0.000000
v 2.500000 1.250000 0.750000
v 2.500000 2.000000 0.000000
v 2.500000 -0.500000 -0.000000
v 2.500000 0.250000 0.750000
v -0.750000 0.250000 0.750000
v -0.750000 -0.500000 -0.000000
v -0.750000 0.250000 -1.750000
v -0.750000 -0.500000 -1.000000
v 2.500000 0.250000 -1.750000
v 2.500000 -0.500000 -1.000000
v 2.500000 1.250000 0.750000
v -0.750000 1.250000 0.750000
v -0.750000 1.250000 -1.750000
v 2.500000 1.250000 -1.750000
v 3.000000 -1.000000 1.000000
v 3.000000 -0.500000 1.000000
v -2.000000 -0.500000 1.000000
v -2.000000 -1.000000 1.000000
v -2.000000 -0.500000 -2.000000
v -2.000000 -1.000000 -2.000000
v 3.000000 -0.500000 -2.000000
v 3.000000 -1.000000 -2.000000
vt 0.000000 0.000000
vt 0.000000 1.000000
vt 1.000000 1.000000
vt 1.000000 0.000000
vt 0.812500 0.531250
vt 0.812500 0.718750
vt 0.750000 0.656250
vt 0.750000 0.593750
vt 0.625000 0.562500
vt 0.625000 0.625000
vt 0.671875 0.625000
vt 0.671875 0.562500
vt 0.671875 0.648438
vt 0.718750 0.648438
vt 0.718750 0.562500
vt 0.046875 0.671875
vt 0.062500 0.718750
vt 0.109375 0.718750
vt 0.109375 0.671875
vt 0.046875 0.718750
vt 0.093750 0.718750
vt 0.750000 0.890625
vt 0.750000 0.937500
vt 0.875000 0.937500
vt 0.875000 0.890625
vt 0.062500 0.671875
vt 0.093750 0.671875
vt 0.750000 0.812500
vt 0.750000 0.859375
vt 0.875000 0.859375
vt 0.875000 0.812500
vt 0.750000 0.875000
vt 0.812500 0.875000
vt 0.812500 0.812500
vt 0.875000 0.875000
vt 0.625000 0.750000
vt 0.625000 0.875000
vt 0.687500 0.875000
vt 0.687500 0.750000
vt 0.812500 0.937500
vt 0.625000 0.937500
vt 0.750000 0.718750
vt 0.875000 0.718750
vt 0.656250 0.703125
vt 0.656250 0.750000
vt 0.671875 0.750000
vt 0.671875 0.703125
vt 0.703125 0.750000
vt 0.703125 0.703125
vt 0.406250 0.187500
vt 0.406250 0.250000
vt 0.468750 0.250000
vt 0.468750 0.187500
vt 0.515625 0.250000
vt 0.515625 0.187500
vt 0.750000 0.531250
vt 0.718750 0.531250
vt 0.718750 0.812500
vt 0.734375 0.531250
vt 0.734375 0.812500
vt 0.625000 0.671875
vt 0.656250 0.671875
vt 0.656250 0.718750
vt 0.625000 0.718750
vt 0.109375 0.000000
vt 0.109375 0.187500
vt 0.218750 0.187500
vt 0.218750 0.000000
vt 0.273438 0.187500
vt 0.273438 0.000000
vt 0.000000 0.187500
vt 0.273438 0.132812
vt 0.382812 0.187500
vt 0.382812 0.132812
vt 0.843750 0.601562
vt 0.812500 0.601562
vt 0.812500 0.625000
vt 0.843750 0.625000
vt 0.843750 0.718750
vt 0.703125 0.718750
vt 0.460938 0.187500
vt 0.460938 0.250000
vt 0.476562 0.250000
vt 0.476562 0.187500
vt 0.734375 0.875000
vt 0.703125 0.812500
vt 0.703125 0.875000
vt 0.718750 0.687500
vt 0.750000 0.687500
vt 0.812500 0.328125
vt 0.718750 0.328125
vt 0.718750 0.437500
vt 0.812500 0.437500
vt 1.000000 0.937500
vt 1.000000 0.812500
vt 0.406250 0.312500
vt 0.406250 0.445312
vt 0.000000 0.445312
vt 0.000000 0.312500
vt 0.718750 0.468750
vt 0.406250 0.468750
vt 0.500000 0.562500
vt 0.500000 0.250000
vt 0.406250 0.343750
vt 0.718750 0.343750
vt 0.625000 0.250000
vt 0.000000 0.437500
vt 0.000000 0.562500
vt 0.406250 0.562500
vt 0.406250 0.437500
vt 0.000000 0.625000
vt 0.625000 1.000000
vn -0.963300 -0.000000 -0.268400
vn 0.000000 0.000000 -1.000000
vn 1.000000 -0.000000 0.000000
vn 0.000000 -0.382700 0.923900
vn 0.000000 0.382700 0.923900
vn -1.000000 0.000000 0.000000
vn 0.000000 0.707100 0.707100
vn 0.000000 -0.707100 0.707100
vn 0.000000 -0.000000 1.000000
vn -0.963300 0.000000 0.268400
vn 0.000000 -0.382700 -0.923900
vn 0.000000 0.382700 -0.923900
vn 0.000000 0.707100 -0.707100
vn 0.000000 -0.707100 -0.707100
vn 0.948700 0.316200 0.000000
vn 0.584700 0.811300 0.000000
vn 0.584700 0.811300 -0.000200
vn 0.000000 -1.000000 -0.000000
vn 0.584700 -0.811200 -0.000000
vn 0.948700 -0.316200 -0.000000
vn 0.000000 1.000000 0.000000
vn 0.000000 0.923900 -0.382700
vn 0.000000 0.923900 0.382700
vn -0.000000 -0.923900 0.382700
vn -0.000000 -0.923900 -0.382700

f 1/1/1 2/2/1 3/3/2 4/4/2
f 4/5/3 3/6/3 5/7/3 6/8/3
f 6/9/4 5/10/5 7/11/5 8/12/4
f 8/1/6 7/2/6 2/3/1 1/4/1
f 2/12/7 7/13/5 5/14/5 3/15/7
f 8/12/4 1/13/8 4/14/8 6/15/4
f 9/1/9 10/2/9 11/3/10 12/4/10
f 12/1/10 11/2/10 13/3/6 14/4/6
f 14/9/11 13/10/12 15/11/12 16/12/11
f 16/8/3 15/7/3 10/6/3 9/5/3
f 10/12/13 15/13/12 13/14/12 11/15/13
f 16/12/11 9/13/14 12/14/14 14/15/11
f 17/16/9 18/17/9 19/18/9 1/19/9
f 1/1/6 19/2/6 20/3/6 12/4/6
f 12/16/2 20/20/2 21/21/2 22/19/2
f 22/22/15 21/23/16 18/24/17 17/25/15
f 22/1/18 17/2/18 1/3/18 12/4/18
f 23/26/9 24/20/9 2/18/9 25/19/9
f 25/1/6 2/2/6 11/3/6 26/4/6
f 26/16/2 11/20/2 27/18/2 28/27/2
f 28/28/19 27/29/20 24/30/20 23/31/19
f 28/1/19 23/2/19 25/3/18 26/4/18
f 24/28/9 29/32/9 30/33/9 2/34/9
f 2/1/6 30/2/6 31/3/6 11/4/6
f 11/34/2 31/33/2 32/35/2 27/31/2
f 27/28/3 32/32/3 29/35/3 24/31/3
f 29/36/21 32/37/21 31/38/21 30/39/21
f 27/1/18 24/2/18 2/3/18 11/4/18
f 33/32/9 17/23/9 1/40/9 34/33/9
f 34/1/6 1/2/6 12/3/6 35/4/6
f 35/33/2 12/40/2 22/24/2 36/35/2
f 36/37/3 22/41/3 17/23/3 33/32/3
f 36/1/18 33/2/18 34/3/18 35/4/18
f 18/1/9 37/2/9 25/3/9 19/4/9
f 19/1/6 25/2/6 26/3/6 20/4/6
f 20/1/2 26/2/2 38/3/2 21/4/2
f 21/42/3 38/28/3 37/31/3 18/43/3
f 37/1/21 38/2/21 26/3/21 25/4/21
f 21/1/18 18/2/18 19/3/18 20/4/18
f 39/1/9 40/2/9 41/3/9 42/4/9
f 42/44/6 41/45/6 43/46/6 44/47/6
f 44/44/2 43/45/2 45/48/2 46/49/2
f 46/44/3 45/45/3 40/46/3 39/47/3
f 40/44/21 45/45/21 43/46/21 41/47/21
f 46/44/18 39/45/18 42/46/18 44/47/18
f 47/50/9 48/51/9 49/52/9 50/53/9
f 50/53/6 49/52/6 51/54/6 52/55/6
f 52/1/2 51/2/2 53/3/2 54/4/2
f 54/53/3 53/52/3 48/54/3 47/55/3
f 48/53/21 53/52/21 51/54/21 49/55/21
f 54/53/18 47/52/18 50/54/18 52/55/18
f 55/56/9 56/57/9 57/58/9 58/28/9
f 58/1/6 57/2/6 59/3/6 60/4/6
f 60/56/2 59/57/2 61/58/2 62/28/2
f 62/1/3 61/2/3 56/3/3 55/4/3
f 56/56/21 61/59/21 59/60/21 57/28/21
f 62/56/18 55/59/18 58/60/18 60/28/18
f 63/56/9 64/57/9 65/58/9 66/28/9
f 66/1/6 65/2/6 67/3/6 68/4/6
f 68/56/2 67/57/2 69/58/2 70/28/2
f 70/1/3 69/2/3 64/3/3 63/4/3
f 64/56/21 69/59/21 67/60/21 65/28/21
f 70/56/18 63/59/18 66/60/18 68/28/18
f 71/61/9 72/36/9 73/45/9 74/62/9
f 74/61/6 73/36/6 75/63/6 76/62/6
f 76/61/2 75/64/12 77/63/12 78/62/2
f 78/61/3 77/64/3 72/45/3 71/62/3
f 72/1/13 77/2/12 75/3/12 73/4/13
f 78/1/18 71/2/18 74/3/18 76/4/18
f 79/61/9 80/36/9 81/45/9 82/62/9
f 82/61/6 81/36/6 83/63/6 84/62/6
f 84/61/2 83/64/12 85/63/12 86/62/2
f 86/61/3 85/64/3 80/45/3 79/62/3
f 80/1/13 85/2/12 83/3/12 81/4/13
f 86/1/18 79/2/18 82/3/18 84/4/18
f 87/61/2 88/36/2 89/45/2 90/62/2
f 90/61/3 89/36/3 91/63/3 92/62/3
f 92/61/9 91/64/5 93/63/5 94/62/9
f 94/61/6 93/64/6 88/45/6 87/62/6
f 88/1/7 93/2/5 91/3/5 89/4/7
f 94/1/18 87/2/18 90/3/18 92/4/18
f 95/65/9 96/66/9 97/67/9 98/68/9
f 98/68/6 97/67/6 99/69/6 100/70/6
f 100/1/2 99/71/2 101/66/2 102/65/2
f 102/70/3 101/69/3 96/67/3 95/68/3
f 96/72/21 101/69/21 99/73/21 97/74/21
f 102/72/18 95/69/18 98/73/18 100/74/18
f 103/1/9 104/2/9 105/3/9 106/4/9
f 106/75/6 105/76/6 107/77/6 108/78/6
f 108/1/2 107/2/2 109/3/2 110/4/2
f 110/75/3 109/76/3 104/77/3 103/78/3
f 104/75/21 109/76/21 107/77/21 105/78/21
f 110/75/18 103/76/18 106/77/18 108/78/18
f 111/44/9 112/45/9 113/48/9 114/49/9
f 114/44/6 113/45/6 115/48/6 116/49/6
f 116/1/2 115/2/2 117/3/2 118/4/2
f 118/44/3 117/45/3 112/48/3 111/49/3
f 112/44/21 117/45/21 115/48/21 113/49/21
f 118/44/18 111/45/18 114/48/18 116/49/18
f 119/76/9 120/6/9 121/79/9 122/75/9
f 122/76/6 121/6/6 123/79/6 124/75/6
f 124/76/2 123/6/2 125/79/2 126/75/2
f 126/76/3 125/6/3 120/79/3 119/75/3
f 120/1/21 125/2/21 123/3/21 121/4/21
f 126/1/18 119/2/18 122/3/18 124/4/18
f 127/44/9 128/63/9 129/80/9 130/49/9
f 130/44/6 129/63/6 131/80/6 132/49/6
f 132/44/2 131/63/2 133/80/2 134/49/2
f 134/44/3 133/63/3 128/80/3 127/49/3
f 128/44/21 133/45/21 131/48/21 129/49/21
f 134/1/18 127/2/18 130/3/18 132/4/18
f 135/32/9 136/23/9 137/24/9 138/35/9
f 138/37/6 137/41/6 139/23/6 140/32/6
f 140/32/2 139/23/2 141/24/2 142/35/2
f 142/32/3 141/23/3 136/24/3 135/35/3
f 136/28/21 141/23/21 139/24/21 137/31/21
f 142/1/18 135/2/18 138/3/18 140/4/18
f 143/81/9 144/82/9 145/83/9 146/84/9
f 146/50/6 145/51/6 147/52/6 148/53/6
f 148/81/2 147/82/2 149/83/2 150/84/2
f 150/1/3 149/2/3 144/3/3 143/4/3
f 144/81/21 149/82/21 147/83/21 145/84/21
f 150/81/18 143/82/18 146/83/18 148/84/18
f 151/60/9 152/85/9 153/32/9 154/28/9
f 154/86/6 153/87/6 155/85/6 156/60/6
f 156/60/2 155/85/2 157/32/2 158/28/2
f 158/86/3 157/87/3 152/85/3 151/60/3
f 152/1/21 157/2/21 155/3/21 153/4/21
f 158/1/18 151/2/18 154/3/18 156/4/18
f 159/60/9 160/85/9 161/32/9 162/28/9
f 162/86/6 161/87/6 163/85/6 164/60/6
f 164/60/2 163/85/2 165/32/2 166/28/2
f 166/86/3 165/87/3 160/85/3 159/60/3
f 160/1/21 165/2/21 163/3/21 161/4/21
f 166/1/18 159/2/18 162/3/18 164/4/18
f 167/88/9 168/58/9 169/28/9 170/89/9
f 170/28/6 169/23/6 171/24/6 172/31/6
f 172/88/2 171/58/2 173/28/2 174/89/2
f 174/1/3 173/2/3 168/3/3 167/4/3
f 168/88/21 173/58/21 171/28/21 169/89/21
f 174/88/18 167/58/18 170/28/18 172/89/18
f 175/90/9 176/91/9 177/92/9 178/93/9
f 178/92/6 177/57/6 179/5/6 180/93/6
f 180/90/2 179/91/2 181/92/2 182/93/2
f 182/1/3 181/2/3 176/3/3 175/4/3
f 176/90/21 181/91/21 179/92/21 177/93/21
f 182/90/18 175/91/18 178/92/18 180/93/18
f 183/31/9 184/24/9 185/94/9 186/95/9
f 186/34/6 185/40/6 187/24/6 188/31/6
f 188/28/2 187/23/2 189/24/2 190/31/2
f 190/28/3 189/23/3 184/40/3 183/34/3
f 184/32/21 189/23/21 187/24/21 185/35/21
f 190/28/18 183/32/18 186/35/18 188/31/18
f 191/61/2 192/36/2 193/45/2 194/62/2
f 194/61/3 193/36/3 195/63/3 196/62/3
f 196/61/9 195/64/5 197/63/5 198/62/9
f 198/61/6 197/64/6 192/45/6 191/62/6
f 192/1/7 197/2/5 195/3/5 193/4/7
f 198/1/18 191/2/18 194/3/18 196/4/18
f 199/96/22 200/97/13 201/98/13 202/99/22
f 202/9/6 201/100/6 203/101/6 204/102/6
f 204/96/23 203/97/7 205/98/7 206/99/23
f 206/9/3 205/100/3 200/101/3 199/102/3
f 200/1/18 205/2/18 203/3/18 201/4/18
f 206/71/23 199/99/22 202/96/22 204/50/23
f 207/99/24 208/98/8 209/97/8 210/96/24
f 210/103/6 209/104/6 211/105/6 212/106/6
f 212/99/25 211/98/14 213/97/14 214/96/25
f 214/103/3 213/104/3 208/105/3 207/106/3
f 208/1/21 213/2/21 211/3/21 209/4/21
f 214/1/25 207/2/24 210/3/24 212/4/25
f 208/107/9 215/108/9 216/109/9 209/110/9
f 209/104/6 216/101/6 217/100/6 211/105/6
f 211/107/2 217/108/2 218/109/2 213/110/2
f 213/104/3 218/101/3 215/100/3 208/105/3
f 215/1/21 218/2/21 217/3/21 216/4/21
f 219/108/9 220/111/9 221/10/9 222/9/9
f 222/41/6 221/112/6 223/3/6 224/94/6
f 224/108/2 223/111/2 225/10/2 226/9/2
f 226/41/3 225/112/3 220/3/3 219/94/3
f 220/111/21 225/2/21 223/112/21 221/10/21
f 226/111/18 219/2/18 222/112/18 224/10/18
