# Made in Blockbench 5.1.4
mtllib boiler.mtl

o cube
v 1.25 -0.3203125 0.5625
v 1.25 -0.0703125 0.5625
v -1 -0.0703125 0.5625
v -1 -0.3203125 0.5625
v 1.25 -0.3203125 0.4375
v 1.25 -0.0703125 0.4375
v -1 -0.3203125 0.4375
v -1 -0.0703125 0.4375
v -1 -0.5 0.625
v -1 0.125 0.625
v -1.25 0.125 0.625
v -1.25 -0.5 0.625
v -1 -0.5 0.375
v -1 -0.125 0.375
v -1.25 -0.5 0.375
v -1.25 -0.125 0.375
v 1.5 -0.5 0.625
v 1.5 0.125 0.625
v 1.25 0.125 0.625
v 1.25 -0.5 0.625
v 1.5 -0.5 0.375
v 1.5 -0.125 0.375
v 1.25 -0.5 0.375
v 1.25 -0.125 0.375
v 1.25 -0.3203125 -1.5625
v 1.25 -0.0703125 -1.5625
v -1 -0.0703125 -1.5625
v -1 -0.3203125 -1.5625
v 1.25 -0.3203125 -1.4375
v 1.25 -0.0703125 -1.4375
v -1 -0.3203125 -1.4375
v -1 -0.0703125 -1.4375
v -1 -0.5 -1.625
v -1 0.125 -1.625
v -1.25 0.125 -1.625
v -1.25 -0.5 -1.625
v -1 -0.5 -1.375
v -1 -0.125 -1.375
v -1.25 -0.5 -1.375
v -1.25 -0.125 -1.375
v 1.5 -0.5 -1.625
v 1.5 0.125 -1.625
v 1.25 0.125 -1.625
v 1.25 -0.5 -1.625
v 1.5 -0.5 -1.375
v 1.5 -0.125 -1.375
v 1.25 -0.5 -1.375
v 1.25 -0.125 -1.375
v 1.75 2 -1
v 1.75 1.25 -1.75
v -1.5 1.25 -1.75
v 1.75 2 0
v 1.75 1.25 0.75
v -1.5 1.25 0.75
v 1.75 -0.5 0
v 1.75 0.25 0.75
v -1.5 0.25 0.75
v -1.5 -0.5 0
v 1.75 -0.5 -1
v 1.75 0.25 -1.75
v -1.5 -0.5 -1
v -1.5 0.25 -1.75
v -1.5 2 -1
v -1.5 2 0
v -1 2 0
v -1 2 -1
v -1.5 1.5 0
v -1.5 0 0
v -1.5 0 -1
v -1.5 1.5 -1
v -1.5 0.375 0
v -1.875 0.375 0
v -2 0 0
v -2 0 -1
v -1.5 1.125 0
v -1.5 1.125 -1
v -2 2 0
v -2 2 -1
v -2 -0.5 0
v -1.5 0.375 -1
v -1.875 0.375 -1
v -2 1.5 0
v -1.875 1.125 0
v -1.875 1.125 -1
v -2 1.5 -1
v -2 -0.5 -1
v -1.98046875 0.0625 -1
v -1.98046875 0.0625 0
v -1.875 0 0
v -1.875 1.5 0
v -1.875 0.5 0.5
v -1.875 1 0.5
v -1.5 0.5 0.5
v -1.5 1 0.5
v -1.875 0 -1
v -1.875 1.5 -1
v -1.875 0.5 -1.5
v -1.875 1 -1.5
v -1.5 0.5 -1.5
v -1.5 1 -1.5
v 3 -0.5 1
v 3 -0.5 -2
v 3 -1 1
v 3 -1 -2
v -2 -0.5 1
v -2 -0.5 -2
v -2 -1 1
v -2 -1 -2
v 3 0 0
v 3 0 -1
v 3 -0.5 0
v 3 -0.5 -1
v 2 0 0
v 2 0 -1
v 2 -0.5 0
v 2 -0.5 -1
v 2 0.375 -0.75
v 2 1.25 -0.75
v 1.75 1.25 -0.75
v 1.75 0.375 -0.75
v 2 0.375 -1.25
v 2 1.25 -1.25
v 1.75 0.375 -1.25
v 1.75 1.25 -1.25
v 2 0.375 0.25
v 2 1.25 0.25
v 1.75 1.25 0.25
v 1.75 0.375 0.25
v 2.1875 1.375 -0.1875
v 2.875 1.3125 -0.125
v 2.875 1.3125 -0.875
v 2.875 1.1875 -0.125
v 2.875 1.1875 -0.875
v 2.125 1.3125 -0.125
v 2.125 1.3125 -0.875
v 2.125 1.1875 -0.125
v 2.125 1.1875 -0.875
v 2.75 2.25 -0.25
v 2.75 2.25 -0.75
v 2.75 1.3125 -0.25
v 2.75 1.3125 -0.75
v 2.25 2.25 -0.25
v 2.25 2.25 -0.75
v 2.25 1.3125 -0.25
v 2.25 1.3125 -0.75
v 0.5625 1.0625 -1.75
v 0.5625 1.0625 -1.8125
v 0.5625 0.4375 -1.75
v 0.5625 0.4375 -1.8125
v -0.3125 1.0625 -1.75
v -0.3125 1.0625 -1.8125
v -0.3125 0.4375 -1.75
v -0.3125 0.4375 -1.8125
v -0.3125 1.0625 0.75
v -0.3125 1.0625 0.8125
v -0.3125 0.4375 0.75
v -0.3125 0.4375 0.8125
v 0.5625 1.0625 0.75
v 0.5625 1.0625 0.8125
v 0.5625 0.4375 0.75
v 0.5625 0.4375 0.8125
v 2.875 -0.5 0.625
v 2.875 0 0.625
v 2.875 0 0.875
v 2.875 -0.5 0.875
v 2.25 -0.5 0.625
v 2.25 0 0.625
v 2.25 0 0.875
v 2.25 -0.5 0.875
v 2.125 -0.5 0.625
v 2.125 0 0.625
v 2.75 -0.5 0.625
v 2.75 0 0.625
v 2 0 0.5
v 2 1 0.5
v 3 1 0.5
v 3 0 0.5
v 2.125 0 0.875
v 2.125 -0.5 0.875
v 2.75 0 0.875
v 2.75 -0.5 0.875
v 3 0 1
v 2 0 1
v 3 1 1
v 2 1 1
v 2.75 -0.5 -1.875
v 2.75 0 -1.875
v 2.875 0 -1.875
v 2.875 -0.5 -1.875
v 2.875 0 -1.625
v 2.875 -0.5 -1.625
v 2.25 -0.5 -1.875
v 2.25 0 -1.875
v 2.25 0 -1.625
v 2.25 -0.5 -1.625
v 2.125 -0.5 -1.875
v 2.125 0 -1.875
v 2.125 -0.5 -1.625
v 2.125 0 -1.625
v 2.75 -0.5 -1.625
v 2.75 0 -1.625
v 2.9375 0 -1.5625
v 2.9375 1.5 -1.5625
v 2.0625 1.5 -1.5625
v 2.0625 0 -1.5625
v 2.9375 0 -2
v 2.0625 0 -2
v 2.0625 1.5 -2
v 2.9375 1.5 -2
v 2.875 0 -0.875
v 2.875 0 -0.125
v 2.875 0.125 -0.875
v 2.875 0.125 -0.125
v 2.125 0.125 -0.125
v 2.125 0.125 -0.875
v 2.125 0 -0.125
v 2.125 0 -0.875
v 2.75 0.3125 -0.75
v 2.75 0.125 -0.75
v 2.75 0.3125 -0.25
v 2.75 0.125 -0.25
v 2.25 0.3125 -0.25
v 2.25 0.3125 -0.75
v 2.25 0.125 -0.25
v 2.25 0.125 -0.75
v 2.875 0.3125 -0.125
v 2.875 0.4375 -0.125
v 2.875 0.3125 -0.875
v 2.875 0.4375 -0.875
v 2.125 0.3125 -0.875
v 2.125 0.3125 -0.125
v 2.125 0.4375 -0.125
v 2.125 0.4375 -0.875
v 3 1.1875 0.1875
v 2 0.4375 0.1875
v 3 0.4375 0.1875
v 2 0.4375 -1.1875
v 3 0.4375 -1.1875
v 3 1.1875 -1.1875
v 2 1.1875 -1.1875
v 2 1.1875 0.1875
v 2.8125 1.375 -0.1875
v 2.1875 1.375 -0.8125
v 2.8125 1.375 -0.8125
v 2.8125 2.1875 -0.8125
v 2.1875 2.1875 -0.8125
v 2.8125 2.1875 -0.1875
v 2.1875 2.1875 -0.1875
vt 0.7430555555555556 0.1875
vt 0.7430555555555556 0.20833333333333337
vt 0.6875 0.20833333333333337
vt 0.6875 0.1875
vt 0.3263888888888889 0.5972222222222222
vt 0.2986111111111111 0.5972222222222222
vt 0.2986111111111111 0.3472222222222222
vt 0.3263888888888889 0.3472222222222222
vt 0.3263888888888889 0.5972222222222222
vt 0.2986111111111111 0.5972222222222222
vt 0.2986111111111111 0.3472222222222222
vt 0.3263888888888889 0.3472222222222222
vt 0.3263888888888889 0.5972222222222222
vt 0.3125 0.5972222222222222
vt 0.3125 0.3472222222222222
vt 0.3263888888888889 0.3472222222222222
vt 0.3263888888888889 0.5972222222222222
vt 0.3125 0.5972222222222222
vt 0.3125 0.3472222222222222
vt 0.3263888888888889 0.3472222222222222
vt 0.3611111111111111 0.5277777777777778
vt 0.3611111111111111 0.5972222222222222
vt 0.3333333333333333 0.5972222222222222
vt 0.3333333333333333 0.5277777777777778
vt 0.3611111111111111 0.5277777777777778
vt 0.3611111111111111 0.5694444444444444
vt 0.3333333333333333 0.5972222222222222
vt 0.3333333333333333 0.5277777777777778
vt 0.5833333333333334 0.7083333333333333
vt 0.5833333333333334 0.75
vt 0.5555555555555556 0.75
vt 0.5555555555555556 0.7083333333333333
vt 0.3611111111111111 0.5277777777777778
vt 0.3611111111111111 0.5972222222222222
vt 0.3333333333333333 0.5694444444444444
vt 0.3333333333333333 0.5277777777777778
vt 0.3611111111111111 0.5277777777777778
vt 0.3611111111111111 0.5972222222222222
vt 0.3333333333333333 0.5972222222222222
vt 0.3333333333333333 0.5277777777777778
vt 0.3611111111111111 0.5277777777777778
vt 0.3611111111111111 0.5694444444444444
vt 0.3333333333333333 0.5972222222222222
vt 0.3333333333333333 0.5277777777777778
vt 0.5833333333333334 0.7083333333333333
vt 0.5833333333333334 0.75
vt 0.5555555555555556 0.75
vt 0.5555555555555556 0.7083333333333333
vt 0.3611111111111111 0.5277777777777778
vt 0.3611111111111111 0.5972222222222222
vt 0.3333333333333333 0.5694444444444444
vt 0.3333333333333333 0.5277777777777778
vt 0.2986111111111111 0.3472222222222222
vt 0.2986111111111111 0.5972222222222222
vt 0.3263888888888889 0.5972222222222222
vt 0.3263888888888889 0.3472222222222222
vt 0.2986111111111111 0.3472222222222222
vt 0.2986111111111111 0.5972222222222222
vt 0.3263888888888889 0.5972222222222222
vt 0.3263888888888889 0.3472222222222222
vt 0.3125 0.3472222222222222
vt 0.3125 0.5972222222222222
vt 0.3263888888888889 0.5972222222222222
vt 0.3263888888888889 0.3472222222222222
vt 0.3125 0.3472222222222222
vt 0.3125 0.5972222222222222
vt 0.3263888888888889 0.5972222222222222
vt 0.3263888888888889 0.3472222222222222
vt 0.3333333333333333 0.5972222222222222
vt 0.3611111111111111 0.5972222222222222
vt 0.3611111111111111 0.5277777777777778
vt 0.3333333333333333 0.5277777777777778
vt 0.3333333333333333 0.5972222222222222
vt 0.3611111111111111 0.5694444444444444
vt 0.3611111111111111 0.5277777777777778
vt 0.3333333333333333 0.5277777777777778
vt 0.5555555555555556 0.75
vt 0.5833333333333334 0.75
vt 0.5833333333333334 0.7083333333333333
vt 0.5555555555555556 0.7083333333333333
vt 0.3333333333333333 0.5694444444444444
vt 0.3611111111111111 0.5972222222222222
vt 0.3611111111111111 0.5277777777777778
vt 0.3333333333333333 0.5277777777777778
vt 0.3333333333333333 0.5972222222222222
vt 0.3611111111111111 0.5972222222222222
vt 0.3611111111111111 0.5277777777777778
vt 0.3333333333333333 0.5277777777777778
vt 0.3333333333333333 0.5972222222222222
vt 0.3611111111111111 0.5694444444444444
vt 0.3611111111111111 0.5277777777777778
vt 0.3333333333333333 0.5277777777777778
vt 0.5555555555555556 0.75
vt 0.5833333333333334 0.75
vt 0.5833333333333334 0.7083333333333333
vt 0.5555555555555556 0.7083333333333333
vt 0.3333333333333333 0.5694444444444444
vt 0.3611111111111111 0.5972222222222222
vt 0.3611111111111111 0.5277777777777778
vt 0.3333333333333333 0.5277777777777778
vt 0.9236111111111112 0.8819444444444444
vt 0.9236111111111112 0.7638888888888888
vt 0.5625 0.7638888888888888
vt 0.5625 0.8819444444444444
vt 0.5625 0.8819444444444444
vt 0.5625 0.7638888888888888
vt 0.9236111111111112 0.7638888888888888
vt 0.9236111111111112 0.8819444444444444
vt 0.9236111111111112 0.5347222222222222
vt 0.9236111111111112 0.6527777777777778
vt 0.5625 0.6527777777777778
vt 0.5625 0.5347222222222222
vt 0.5625 0.5347222222222222
vt 0.5625 0.6527777777777778
vt 0.9236111111111112 0.6527777777777778
vt 0.9236111111111112 0.5347222222222222
vt 0.9236111111111112 0.6527777777777778
vt 0.9236111111111112 0.7638888888888888
vt 0.5625 0.7638888888888888
vt 0.5625 0.6527777777777778
vt 0.5625 0.6527777777777778
vt 0.5625 0.7638888888888888
vt 0.9236111111111112 0.7638888888888888
vt 0.9236111111111112 0.6527777777777778
vt 0.08333333333333333 0.5972222222222222
vt 0 0.5138888888888888
vt 0.2777777777777778 0.5138888888888888
vt 0.19444444444444445 0.5972222222222222
vt 0.19444444444444445 0.3194444444444444
vt 0.2777777777777778 0.4027777777777778
vt 0 0.4027777777777778
vt 0.08333333333333333 0.3194444444444444
vt 0.2777777777777778 0.4027777777777778
vt 0.2777777777777778 0.5138888888888888
vt 0 0.5138888888888888
vt 0 0.4027777777777778
vt 0.2777777777777778 0.4027777777777778
vt 0 0.4027777777777778
vt 0.08333333333333333 0.3194444444444444
vt 0.19444444444444445 0.3194444444444444
vt 0.2777777777777778 0.5138888888888888
vt 0 0.5138888888888888
vt 0 0.4027777777777778
vt 0.2777777777777778 0.4027777777777778
vt 0.6180555555555556 0.8888888888888888
vt 0.9236111111111112 0.8888888888888888
vt 0.9236111111111112 1
vt 0.6180555555555556 1
vt 0.2222222222222222 0.2777777777777778
vt 0.1111111111111111 0.2777777777777778
vt 0.1111111111111111 0.2222222222222222
vt 0.2222222222222222 0.2222222222222222
vt 0.5416666666666666 0.48611111111111116
vt 0.5416666666666666 0.5277777777777778
vt 0.5 0.5277777777777778
vt 0.4861111111111111 0.48611111111111116
vt 0.4861111111111111 0.5555555555555556
vt 0.4861111111111111 0.5972222222222222
vt 0.5416666666666666 0.5972222222222222
vt 0.5277777777777778 0.5555555555555556
vt 0.5277777777777778 0.5555555555555556
vt 0.5416666666666666 0.5972222222222222
vt 0.4861111111111111 0.5972222222222222
vt 0.4861111111111111 0.5555555555555556
vt 0.5277777777777778 0.24305555555555558
vt 0.5277777777777778 0.29861111111111116
vt 0.4722222222222222 0.29861111111111116
vt 0.4722222222222222 0.24305555555555558
vt 0.5277777777777778 0.24305555555555558
vt 0.5277777777777778 0.29861111111111116
vt 0.4722222222222222 0.29861111111111116
vt 0.4722222222222222 0.24305555555555558
vt 0.9861111111111112 0.5416666666666667
vt 0.9861111111111112 0.6527777777777778
vt 0.9305555555555556 0.6527777777777778
vt 0.9305555555555556 0.5416666666666667
vt 0.5277777777777778 0.24305555555555558
vt 0.5277777777777778 0.29861111111111116
vt 0.4722222222222222 0.29861111111111116
vt 0.4722222222222222 0.24305555555555558
vt 0.5277777777777778 0.24305555555555558
vt 0.5277777777777778 0.29861111111111116
vt 0.4722222222222222 0.29861111111111116
vt 0.4722222222222222 0.24305555555555558
vt 0.5416666666666666 0.48611111111111116
vt 0.5277777777777778 0.5277777777777778
vt 0.4861111111111111 0.5277777777777778
vt 0.4861111111111111 0.48611111111111116
vt 0.8611111111111112 0.25
vt 0.8611111111111112 0.29166666666666663
vt 0.75 0.29166666666666663
vt 0.75 0.25
vt 0.8611111111111112 0.29861111111111116
vt 0.8611111111111112 0.35416666666666663
vt 0.75 0.35416666666666663
vt 0.75 0.29861111111111116
vt 0.8611111111111112 0.3472222222222222
vt 0.75 0.3472222222222222
vt 0.75 0.3125
vt 0.8611111111111112 0.3125
vt 0.75 0.2569444444444444
vt 0.75 0.25
vt 0.8611111111111112 0.25
vt 0.8611111111111112 0.2569444444444444
vt 0.9652777777777778 0.4097222222222222
vt 0.9652777777777778 0.4652777777777778
vt 0.9236111111111112 0.4652777777777778
vt 0.9236111111111112 0.4097222222222222
vt 0.9652777777777778 0.36111111111111116
vt 0.9652777777777778 0.4375
vt 0.9236111111111112 0.4375
vt 0.9236111111111112 0.36111111111111116
vt 0.9652777777777778 0.45138888888888884
vt 0.9652777777777778 0.5277777777777778
vt 0.9236111111111112 0.5277777777777778
vt 0.9236111111111112 0.45138888888888884
vt 0.9236111111111112 0.4652777777777778
vt 0.9652777777777778 0.4652777777777778
vt 0.9652777777777778 0.4097222222222222
vt 0.9236111111111112 0.4097222222222222
vt 0.9236111111111112 0.4375
vt 0.9652777777777778 0.4375
vt 0.9652777777777778 0.36111111111111116
vt 0.9236111111111112 0.36111111111111116
vt 0.9236111111111112 0.5277777777777778
vt 0.9652777777777778 0.5277777777777778
vt 0.9652777777777778 0.45138888888888884
vt 0.9236111111111112 0.45138888888888884
vt 0.2222222222222222 0.09722222222222221
vt 0.2222222222222222 0.1527777777777778
vt 0.16666666666666666 0.20833333333333337
vt 0.16666666666666666 0.04166666666666663
vt 0.05555555555555555 0.04166666666666663
vt 0.05555555555555555 0.20833333333333337
vt 0 0.1527777777777778
vt 0 0.09722222222222221
vt 0.16666666666666666 0.20833333333333337
vt 0.05555555555555555 0.20833333333333337
vt 0.05555555555555555 0.04166666666666663
vt 0.16666666666666666 0.04166666666666663
vt 0.3333333333333333 0.2222222222222222
vt 0.3333333333333333 0.2777777777777778
vt 0 0.2777777777777778
vt 0 0.2222222222222222
vt 0.3333333333333333 0.2222222222222222
vt 0.3333333333333333 0.2777777777777778
vt 0 0.2777777777777778
vt 0 0.2222222222222222
vt 0.5555555555555556 0.6041666666666667
vt 0.5555555555555556 0.9375
vt 0 0.9375
vt 0 0.6041666666666667
vt 0.5555555555555556 0.6041666666666667
vt 0.5555555555555556 0.9375
vt 0 0.9375
vt 0 0.6041666666666667
vt 0.5555555555555556 0.9444444444444444
vt 0.5555555555555556 1
vt 0 1
vt 0 0.9444444444444444
vt 0.5555555555555556 0.9444444444444444
vt 0.5555555555555556 1
vt 0 1
vt 0 0.9444444444444444
vt 0.4791666666666667 0.5416666666666667
vt 0.4791666666666667 0.5972222222222222
vt 0.3680555555555556 0.5972222222222222
vt 0.3680555555555556 0.5416666666666667
vt 0.4791666666666667 0.5416666666666667
vt 0.4791666666666667 0.5972222222222222
vt 0.3680555555555556 0.5972222222222222
vt 0.3680555555555556 0.5416666666666667
vt 0.5416666666666666 0.5972222222222222
vt 0.4861111111111111 0.5972222222222222
vt 0.4861111111111111 0.48611111111111116
vt 0.5416666666666666 0.48611111111111116
vt 0.4791666666666667 0.3055555555555556
vt 0.4791666666666667 0.41666666666666663
vt 0.3680555555555556 0.41666666666666663
vt 0.3680555555555556 0.3055555555555556
vt 0.5416666666666666 0.5972222222222222
vt 0.4861111111111111 0.5972222222222222
vt 0.4861111111111111 0.48611111111111116
vt 0.5416666666666666 0.48611111111111116
vt 0.5416666666666666 0.5972222222222222
vt 0.4861111111111111 0.5972222222222222
vt 0.4861111111111111 0.48611111111111116
vt 0.5416666666666666 0.48611111111111116
vt 0.4791666666666667 0.3125
vt 0.4791666666666667 0.4097222222222222
vt 0.4236111111111111 0.4097222222222222
vt 0.4236111111111111 0.3125
vt 0.3263888888888889 0.42361111111111116
vt 0.3263888888888889 0.5208333333333333
vt 0.2986111111111111 0.5208333333333333
vt 0.2986111111111111 0.42361111111111116
vt 0.3263888888888889 0.4444444444444444
vt 0.3263888888888889 0.5
vt 0.2986111111111111 0.5
vt 0.2986111111111111 0.4444444444444444
vt 0.3263888888888889 0.4444444444444444
vt 0.3263888888888889 0.5
vt 0.2986111111111111 0.5
vt 0.2986111111111111 0.4444444444444444
vt 0.3263888888888889 0.42361111111111116
vt 0.3263888888888889 0.5208333333333333
vt 0.2986111111111111 0.5208333333333333
vt 0.2986111111111111 0.42361111111111116
vt 0.4791666666666667 0.3125
vt 0.4791666666666667 0.4097222222222222
vt 0.3680555555555556 0.4097222222222222
vt 0.3680555555555556 0.3125
vt 0.3263888888888889 0.41666666666666663
vt 0.3263888888888889 0.5277777777777778
vt 0.2986111111111111 0.5277777777777778
vt 0.2986111111111111 0.41666666666666663
vt 0.3263888888888889 0.41666666666666663
vt 0.3263888888888889 0.5277777777777778
vt 0.2986111111111111 0.5277777777777778
vt 0.2986111111111111 0.41666666666666663
vt 0.8958333333333334 0.14583333333333337
vt 0.8958333333333334 0.23611111111111116
vt 0.8263888888888888 0.23611111111111116
vt 0.8263888888888888 0.14583333333333337
vt 0.8194444444444444 0.16666666666666663
vt 0.8194444444444444 0.23611111111111116
vt 0.75 0.23611111111111116
vt 0.75 0.16666666666666663
vt 0.8958333333333334 0.14583333333333337
vt 0.8958333333333334 0.23611111111111116
vt 0.8263888888888888 0.23611111111111116
vt 0.8263888888888888 0.14583333333333337
vt 0.7430555555555556 0.25
vt 0.7291666666666666 0.25
vt 0.7291666666666666 0.16666666666666663
vt 0.7430555555555556 0.16666666666666663
vt 0.7430555555555556 0.25
vt 0.7291666666666666 0.25
vt 0.7291666666666666 0.16666666666666663
vt 0.7430555555555556 0.16666666666666663
vt 0.625 0.2152777777777778
vt 0.625 0.29861111111111116
vt 0.5416666666666666 0.29861111111111116
vt 0.5416666666666666 0.2152777777777778
vt 0.7430555555555556 0.24305555555555558
vt 0.7291666666666666 0.24305555555555558
vt 0.7291666666666666 0.1597222222222222
vt 0.7430555555555556 0.1597222222222222
vt 0.7430555555555556 0.24305555555555558
vt 0.7291666666666666 0.24305555555555558
vt 0.7291666666666666 0.1597222222222222
vt 0.7430555555555556 0.1597222222222222
vt 0.7430555555555556 0.13194444444444442
vt 0.7430555555555556 0.23611111111111116
vt 0.6875 0.23611111111111116
vt 0.6875 0.13194444444444442
vt 0.7430555555555556 0.13194444444444442
vt 0.7430555555555556 0.23611111111111116
vt 0.6875 0.23611111111111116
vt 0.6875 0.13194444444444442
vt 0.6875 0.29861111111111116
vt 0.6875 0.35416666666666663
vt 0.6319444444444444 0.35416666666666663
vt 0.6319444444444444 0.29861111111111116
vt 0.7430555555555556 0.13194444444444442
vt 0.7430555555555556 0.23611111111111116
vt 0.6875 0.23611111111111116
vt 0.6875 0.13194444444444442
vt 0.7430555555555556 0.13194444444444442
vt 0.7430555555555556 0.23611111111111116
vt 0.6875 0.23611111111111116
vt 0.6875 0.13194444444444442
vt 0.375 0.22916666666666663
vt 0.375 0.29861111111111116
vt 0.3680555555555556 0.29861111111111116
vt 0.3680555555555556 0.22916666666666663
vt 0.4652777777777778 0.22916666666666663
vt 0.4652777777777778 0.29861111111111116
vt 0.4583333333333333 0.29861111111111116
vt 0.4583333333333333 0.22916666666666663
vt 0.3680555555555556 0.29166666666666663
vt 0.3680555555555556 0.29861111111111116
vt 0.4652777777777778 0.29861111111111116
vt 0.4652777777777778 0.29166666666666663
vt 0.3680555555555556 0.22916666666666663
vt 0.3680555555555556 0.23611111111111116
vt 0.4652777777777778 0.23611111111111116
vt 0.4652777777777778 0.22916666666666663
vt 0.4652777777777778 0.22916666666666663
vt 0.4652777777777778 0.29861111111111116
vt 0.3680555555555556 0.29861111111111116
vt 0.3680555555555556 0.22916666666666663
vt 0.375 0.22916666666666663
vt 0.375 0.29861111111111116
vt 0.3680555555555556 0.29861111111111116
vt 0.3680555555555556 0.22916666666666663
vt 0.4652777777777778 0.22916666666666663
vt 0.4652777777777778 0.29861111111111116
vt 0.4583333333333333 0.29861111111111116
vt 0.4583333333333333 0.22916666666666663
vt 0.3680555555555556 0.29166666666666663
vt 0.3680555555555556 0.29861111111111116
vt 0.4652777777777778 0.29861111111111116
vt 0.4652777777777778 0.29166666666666663
vt 0.3680555555555556 0.22916666666666663
vt 0.3680555555555556 0.23611111111111116
vt 0.4652777777777778 0.23611111111111116
vt 0.4652777777777778 0.22916666666666663
vt 0.4652777777777778 0.22916666666666663
vt 0.4652777777777778 0.29861111111111116
vt 0.3680555555555556 0.29861111111111116
vt 0.3680555555555556 0.22916666666666663
vt 0 0.5138888888888888
vt 0.2777777777777778 0.5138888888888888
vt 0.19444444444444445 0.5972222222222222
vt 0.08333333333333333 0.5972222222222222
vt 0.4791666666666667 0.42361111111111116
vt 0.4791666666666667 0.5347222222222222
vt 0.3680555555555556 0.5347222222222222
vt 0.3680555555555556 0.42361111111111116
vt 0.5416666666666666 0.48611111111111116
vt 0.5416666666666666 0.5972222222222222
vt 0.4861111111111111 0.5972222222222222
vt 0.4861111111111111 0.48611111111111116
vt 0.4791666666666667 0.3055555555555556
vt 0.4791666666666667 0.41666666666666663
vt 0.3680555555555556 0.41666666666666663
vt 0.3680555555555556 0.3055555555555556
vt 0.5416666666666666 0.48611111111111116
vt 0.5416666666666666 0.5972222222222222
vt 0.4861111111111111 0.5972222222222222
vt 0.4861111111111111 0.48611111111111116
vt 0.5416666666666666 0.5972222222222222
vt 0.4861111111111111 0.5972222222222222
vt 0.4861111111111111 0.48611111111111116
vt 0.5416666666666666 0.48611111111111116
vt 0.5416666666666666 0.5972222222222222
vt 0.4861111111111111 0.5972222222222222
vt 0.4861111111111111 0.48611111111111116
vt 0.5416666666666666 0.48611111111111116
vt 0.5416666666666666 0.42361111111111116
vt 0.5416666666666666 0.47916666666666663
vt 0.5277777777777778 0.47916666666666663
vt 0.5277777777777778 0.42361111111111116
vt 0.5208333333333334 0.42361111111111116
vt 0.5208333333333334 0.47916666666666663
vt 0.4930555555555556 0.47916666666666663
vt 0.4930555555555556 0.42361111111111116
vt 0.5416666666666666 0.42361111111111116
vt 0.5416666666666666 0.47916666666666663
vt 0.5277777777777778 0.47916666666666663
vt 0.5277777777777778 0.42361111111111116
vt 0.5208333333333334 0.42361111111111116
vt 0.5208333333333334 0.47916666666666663
vt 0.4930555555555556 0.47916666666666663
vt 0.4930555555555556 0.42361111111111116
vt 0.5416666666666666 0.42361111111111116
vt 0.5416666666666666 0.47916666666666663
vt 0.5277777777777778 0.47916666666666663
vt 0.5277777777777778 0.42361111111111116
vt 0.5208333333333334 0.42361111111111116
vt 0.5208333333333334 0.47916666666666663
vt 0.4930555555555556 0.47916666666666663
vt 0.4930555555555556 0.42361111111111116
vt 0.5416666666666666 0.42361111111111116
vt 0.5416666666666666 0.47916666666666663
vt 0.5277777777777778 0.47916666666666663
vt 0.5277777777777778 0.42361111111111116
vt 0.5208333333333334 0.42361111111111116
vt 0.5208333333333334 0.47916666666666663
vt 0.4930555555555556 0.47916666666666663
vt 0.4930555555555556 0.42361111111111116
vt 0.5416666666666666 0.42361111111111116
vt 0.5416666666666666 0.47916666666666663
vt 0.5277777777777778 0.47916666666666663
vt 0.5277777777777778 0.42361111111111116
vt 0.5208333333333334 0.42361111111111116
vt 0.5208333333333334 0.47916666666666663
vt 0.4930555555555556 0.47916666666666663
vt 0.4930555555555556 0.42361111111111116
vt 0.5416666666666666 0.42361111111111116
vt 0.5416666666666666 0.47916666666666663
vt 0.5277777777777778 0.47916666666666663
vt 0.5277777777777778 0.42361111111111116
vt 0.5208333333333334 0.42361111111111116
vt 0.5208333333333334 0.47916666666666663
vt 0.4930555555555556 0.47916666666666663
vt 0.4930555555555556 0.42361111111111116
vt 0.5416666666666666 0.42361111111111116
vt 0.5416666666666666 0.47916666666666663
vt 0.5277777777777778 0.47916666666666663
vt 0.5277777777777778 0.42361111111111116
vt 0.5208333333333334 0.42361111111111116
vt 0.5208333333333334 0.47916666666666663
vt 0.4930555555555556 0.47916666666666663
vt 0.4930555555555556 0.42361111111111116
vt 0.5416666666666666 0.42361111111111116
vt 0.5416666666666666 0.47916666666666663
vt 0.5277777777777778 0.47916666666666663
vt 0.5277777777777778 0.42361111111111116
vt 0.5208333333333334 0.42361111111111116
vt 0.5208333333333334 0.47916666666666663
vt 0.4930555555555556 0.47916666666666663
vt 0.4930555555555556 0.42361111111111116
vt 0.8611111111111112 0.36111111111111116
vt 0.8611111111111112 0.5277777777777778
vt 0.7638888888888888 0.5277777777777778
vt 0.7638888888888888 0.36111111111111116
vt 0.7569444444444444 0.36111111111111116
vt 0.7569444444444444 0.5277777777777778
vt 0.7083333333333334 0.5277777777777778
vt 0.7083333333333334 0.36111111111111116
vt 0.7013888888888888 0.36111111111111116
vt 0.7013888888888888 0.5277777777777778
vt 0.6041666666666666 0.5277777777777778
vt 0.6041666666666666 0.36111111111111116
vt 0.7569444444444444 0.36111111111111116
vt 0.7569444444444444 0.5277777777777778
vt 0.7083333333333334 0.5277777777777778
vt 0.7083333333333334 0.36111111111111116
vt 0.8680555555555556 0.4305555555555556
vt 0.9166666666666666 0.4305555555555556
vt 0.9166666666666666 0.5277777777777778
vt 0.8680555555555556 0.5277777777777778
vt 0.9166666666666666 0.4305555555555556
vt 0.8680555555555556 0.4305555555555556
vt 0.8680555555555556 0.5277777777777778
vt 0.9166666666666666 0.5277777777777778
vt 0.7430555555555556 0.25
vt 0.7291666666666666 0.25
vt 0.7291666666666666 0.16666666666666663
vt 0.7430555555555556 0.16666666666666663
vt 0.7430555555555556 0.24305555555555558
vt 0.7291666666666666 0.24305555555555558
vt 0.7291666666666666 0.1597222222222222
vt 0.7430555555555556 0.1597222222222222
vt 0.7430555555555556 0.24305555555555558
vt 0.7291666666666666 0.24305555555555558
vt 0.7291666666666666 0.1597222222222222
vt 0.7430555555555556 0.1597222222222222
vt 0.625 0.2152777777777778
vt 0.625 0.29861111111111116
vt 0.5416666666666666 0.29861111111111116
vt 0.5416666666666666 0.2152777777777778
vt 0.7430555555555556 0.25
vt 0.7291666666666666 0.25
vt 0.7291666666666666 0.16666666666666663
vt 0.7430555555555556 0.16666666666666663
vt 0.7430555555555556 0.1875
vt 0.7430555555555556 0.20833333333333337
vt 0.6875 0.20833333333333337
vt 0.6875 0.1875
vt 0.7430555555555556 0.1875
vt 0.7430555555555556 0.20833333333333337
vt 0.6875 0.20833333333333337
vt 0.6875 0.1875
vt 0.7430555555555556 0.1875
vt 0.7430555555555556 0.20833333333333337
vt 0.6875 0.20833333333333337
vt 0.6875 0.1875
vt 0.5416666666666666 0.29861111111111116
vt 0.625 0.29861111111111116
vt 0.625 0.2152777777777778
vt 0.5416666666666666 0.2152777777777778
vt 0.7291666666666666 0.1597222222222222
vt 0.7291666666666666 0.24305555555555558
vt 0.7430555555555556 0.24305555555555558
vt 0.7430555555555556 0.1597222222222222
vt 0.7291666666666666 0.16666666666666663
vt 0.7291666666666666 0.25
vt 0.7430555555555556 0.25
vt 0.7430555555555556 0.16666666666666663
vt 0.7291666666666666 0.1597222222222222
vt 0.7291666666666666 0.24305555555555558
vt 0.7430555555555556 0.24305555555555558
vt 0.7430555555555556 0.1597222222222222
vt 0.7291666666666666 0.16666666666666663
vt 0.7291666666666666 0.25
vt 0.7430555555555556 0.25
vt 0.7430555555555556 0.16666666666666663
vt 0.5 0.13194444444444442
vt 0.5 0.2152777777777778
vt 0.3888888888888889 0.2152777777777778
vt 0.3888888888888889 0.13194444444444442
vt 0.3819444444444444 0.125
vt 0.22916666666666666 0.125
vt 0.22916666666666666 0.01388888888888884
vt 0.3819444444444444 0.01388888888888884
vt 0.5416666666666666 0.04166666666666663
vt 0.5416666666666666 0.125
vt 0.3888888888888889 0.125
vt 0.3888888888888889 0.04166666666666663
vt 0.5 0.13194444444444442
vt 0.5 0.2152777777777778
vt 0.3888888888888889 0.2152777777777778
vt 0.3888888888888889 0.13194444444444442
vt 0.3819444444444444 0.125
vt 0.22916666666666666 0.125
vt 0.22916666666666666 0.01388888888888884
vt 0.3819444444444444 0.01388888888888884
vt 0.8958333333333334 0.14583333333333337
vt 0.8958333333333334 0.23611111111111116
vt 0.8263888888888888 0.23611111111111116
vt 0.8263888888888888 0.14583333333333337
vt 0.8958333333333334 0.14583333333333337
vt 0.8958333333333334 0.23611111111111116
vt 0.8263888888888888 0.23611111111111116
vt 0.8263888888888888 0.14583333333333337
vt 0.8194444444444444 0.16666666666666663
vt 0.8194444444444444 0.23611111111111116
vt 0.75 0.23611111111111116
vt 0.75 0.16666666666666663
vn 0 0 -1
vn 0 0 1
vn 0 0 -1
vn 0 1 0
vn 0 -1 0
vn 0 0 1
vn 1 0 0
vn 0 0 -1
vn -1 0 0
vn 0 0 1
vn 1 0 0
vn 0 0 -1
vn -1 0 0
vn 0 0 -1
vn 0 0 1
vn 0 1 0
vn 0 -1 0
vn 0 0 -1
vn 1 0 0
vn 0 0 1
vn -1 0 0
vn 0 0 -1
vn 1 0 0
vn 0 0 1
vn -1 0 0
vn 0 0.7071067811865476 -0.7071067811865476
vn 0 0.7071067811865476 0.7071067811865476
vn 0 -0.7071067811865476 0.7071067811865476
vn 0 -0.7071067811865476 -0.7071067811865476
vn 0 0 1
vn 0 0 -1
vn 1 0 0
vn 1 0 0
vn 1 0 0
vn -1 0 0
vn -1 0 0
vn 0 1 0
vn 0 1 0
vn 0 0 1
vn 0 0 1
vn 0 0 -1
vn 0 0 1
vn 0 0 -1
vn 0 1 0
vn 0 0 1
vn 0 0 -1
vn 0 0 -1
vn -0.948683298050514 -0.316227766016838 0
vn -1 0 0
vn -0.9474922789871991 0.3197786441581797 0
vn -0.9544799780350297 0.2982749931359468 0
vn 0 0 1
vn 0 0.7071067811865476 0.7071067811865476
vn 0 -0.7071067811865476 0.7071067811865476
vn 0 0 -1
vn 0 0.7071067811865476 -0.7071067811865476
vn 0 -0.7071067811865476 -0.7071067811865476
vn -1 0 0
vn -1 0 0
vn -1 0 0
vn 1 0 0
vn -1 0 0
vn 0 1 0
vn 0 -1 0
vn 0 0 1
vn 0 0 -1
vn -1 0 0
vn 1 0 0
vn -1 0 0
vn 0 1 0
vn 0 0 1
vn 0 0 -1
vn 1 0 0
vn 0 0 -1
vn 0 1 0
vn 0 -1 0
vn 0 0 1
vn 1 0 0
vn 0 1 0
vn 0 -1 0
vn -1 0 0
vn 0 -1 0
vn 0 0 1
vn 1 0 0
vn -1 0 0
vn 0 1 0
vn 0 0 1
vn 0 0 -1
vn 1 0 0
vn -1 0 0
vn 0 1 0
vn 0 0 1
vn 0 0 -1
vn 1 0 0
vn -1 0 0
vn 0 1 0
vn 0 -1 0
vn 0 0 -1
vn -1 0 0
vn 1 0 0
vn 0 1 0
vn 0 -1 0
vn 0 0 1
vn -1 0 0
vn 0 0 1
vn 1 0 0
vn 0 0 -1
vn -1 0 0
vn 0 1 0
vn 0 -1 0
vn 0 0 1
vn 1 0 0
vn 0 0 -1
vn -1 0 0
vn 0 0 1
vn 1 0 0
vn 0 0 -1
vn -1 0 0
vn 0 0 1
vn 1 0 0
vn 0 0 -1
vn -1 0 0
vn 0 0 1
vn 1 0 0
vn 0 0 -1
vn -1 0 0
vn 0 0 1
vn 1 0 0
vn 0 0 -1
vn -1 0 0
vn 0 1 0
vn 0 -1 0
vn 1 0 0
vn 0 0 -1
vn 0 0 1
vn 0 1 0
vn -1 0 0
vn 1 0 0
vn 0 0 1
vn -1 0 0
vn 0 -1 0
vn 0 0 1
vn 1 0 0
vn 0 0 -1
vn -1 0 0
vn 0 0 1
vn 0 -1 0
vn 1 0 0
vn 0 0 -1
vn 0 1 0
vn 1 0 0
vn 0 0 -1
vn 0 1 0
usemtl m_172712f4-742a-b193-1fb5-06c3ac7ca812
f 225/1/1 223/2/1 218/3/1 219/4/1
f 1/5/2 2/6/2 3/7/2 4/8/2
f 7/9/3 8/10/3 6/11/3 5/12/3
f 2/13/4 6/14/4 8/15/4 3/16/4
f 5/17/5 1/18/5 4/19/5 7/20/5
f 9/21/6 10/22/6 11/23/6 12/24/6
f 13/25/7 14/26/7 10/27/7 9/28/7
f 15/29/8 16/30/8 14/31/8 13/32/8
f 12/33/9 11/34/9 16/35/9 15/36/9
f 17/37/10 18/38/10 19/39/10 20/40/10
f 21/41/11 22/42/11 18/43/11 17/44/11
f 23/45/12 24/46/12 22/47/12 21/48/12
f 20/49/13 19/50/13 24/51/13 23/52/13
f 27/53/14 26/54/14 25/55/14 28/56/14
f 30/57/15 32/58/15 31/59/15 29/60/15
f 32/61/16 30/62/16 26/63/16 27/64/16
f 28/65/17 25/66/17 29/67/17 31/68/17
f 35/69/18 34/70/18 33/71/18 36/72/18
f 34/73/19 38/74/19 37/75/19 33/76/19
f 38/77/20 40/78/20 39/79/20 37/80/20
f 40/81/21 35/82/21 36/83/21 39/84/21
f 43/85/22 42/86/22 41/87/22 44/88/22
f 42/89/23 46/90/23 45/91/23 41/92/23
f 46/93/24 48/94/24 47/95/24 45/96/24
f 48/97/25 43/98/25 44/99/25 47/100/25
f 49/101/26 50/102/26 51/103/26 63/104/26
f 64/105/27 54/106/27 53/107/27 52/108/27
f 55/109/28 56/110/28 57/111/28 58/112/28
f 61/113/29 62/114/29 60/115/29 59/116/29
f 56/117/30 53/118/30 54/119/30 57/120/30
f 62/121/31 51/122/31 50/123/31 60/124/31
f 52/125/32 53/126/32 50/127/32 49/128/32
f 59/129/33 60/130/33 56/131/33 55/132/33
f 60/133/34 50/134/34 53/135/34 56/136/34
f 57/137/35 62/138/35 61/139/35 58/140/35
f 54/141/36 51/142/36 62/143/36 57/144/36
f 65/145/37 52/146/37 49/147/37 66/148/37
f 63/149/38 64/150/38 65/151/38 66/152/38
f 68/153/39 71/154/39 72/155/39 73/156/39
f 75/157/40 67/158/40 82/159/40 83/160/40
f 84/161/41 85/162/41 70/163/41 76/164/41
f 67/165/42 64/166/42 77/167/42 82/168/42
f 85/169/43 78/170/43 63/171/43 70/172/43
f 64/173/44 63/174/44 78/175/44 77/176/44
f 58/177/45 68/178/45 73/179/45 79/180/45
f 86/181/46 74/182/46 69/183/46 61/184/46
f 74/185/47 81/186/47 80/187/47 69/188/47
f 83/189/48 82/190/48 85/191/48 84/192/48
f 82/193/49 77/194/49 78/195/49 85/196/49
f 72/197/50 81/198/50 87/199/50 88/200/50
f 87/201/51 74/202/51 73/203/51 88/204/51
f 93/205/52 94/206/52 92/207/52 91/208/52
f 90/209/53 92/210/53 94/211/53 67/212/53
f 91/213/54 89/214/54 68/215/54 93/216/54
f 98/217/55 100/218/55 99/219/55 97/220/55
f 100/221/56 98/222/56 96/223/56 70/224/56
f 69/225/57 95/226/57 97/227/57 99/228/57
f 91/229/58 92/230/58 90/231/58 89/232/58
f 95/233/59 96/234/59 98/235/59 97/236/59
f 90/237/60 96/238/60 95/239/60 89/240/60
f 104/241/61 102/242/61 101/243/61 103/244/61
f 107/245/62 105/246/62 106/247/62 108/248/62
f 101/249/63 102/250/63 106/251/63 105/252/63
f 104/253/64 103/254/64 107/255/64 108/256/64
f 103/257/65 101/258/65 105/259/65 107/260/65
f 108/261/66 106/262/66 102/263/66 104/264/66
f 79/265/67 73/266/67 74/267/67 86/268/67
f 112/269/68 110/270/68 109/271/68 111/272/68
f 115/273/69 113/274/69 114/275/69 116/276/69
f 109/277/70 110/278/70 114/279/70 113/280/70
f 111/281/71 109/282/71 113/283/71 115/284/71
f 116/285/72 114/286/72 110/287/72 112/288/72
f 121/289/73 122/290/73 118/291/73 117/292/73
f 123/293/74 124/294/74 122/295/74 121/296/74
f 118/297/75 122/298/75 124/299/75 119/300/75
f 121/301/76 117/302/76 120/303/76 123/304/76
f 125/305/77 126/306/77 127/307/77 128/308/77
f 117/309/78 118/310/78 126/311/78 125/312/78
f 126/313/79 118/314/79 119/315/79 127/316/79
f 117/317/80 125/318/80 128/319/80 120/320/80
f 129/321/81 248/322/81 246/323/81 243/324/81
f 244/325/82 242/326/82 129/327/82 243/328/82
f 242/329/83 247/330/83 248/331/83 129/332/83
f 133/333/84 131/334/84 130/335/84 132/336/84
f 136/337/85 134/338/85 135/339/85 137/340/85
f 130/341/86 131/342/86 135/343/86 134/344/86
f 132/345/87 130/346/87 134/347/87 136/348/87
f 137/349/88 135/350/88 131/351/88 133/352/88
f 141/353/89 139/354/89 138/355/89 140/356/89
f 144/357/90 142/358/90 143/359/90 145/360/90
f 138/361/91 139/362/91 143/363/91 142/364/91
f 140/365/92 138/366/92 142/367/92 144/368/92
f 145/369/93 143/370/93 139/371/93 141/372/93
f 149/373/94 147/374/94 146/375/94 148/376/94
f 152/377/95 150/378/95 151/379/95 153/380/95
f 146/381/96 147/382/96 151/383/96 150/384/96
f 149/385/97 148/386/97 152/387/97 153/388/97
f 153/389/98 151/390/98 147/391/98 149/392/98
f 157/393/99 155/394/99 154/395/99 156/396/99
f 160/397/100 158/398/100 159/399/100 161/400/100
f 154/401/101 155/402/101 159/403/101 158/404/101
f 157/405/102 156/406/102 160/407/102 161/408/102
f 161/409/103 159/410/103 155/411/103 157/412/103
f 51/413/104 54/414/104 64/415/104 63/416/104
f 182/417/105 184/418/105 185/419/105 183/420/105
f 177/421/106 176/422/106 184/423/106 182/424/106
f 174/425/107 175/426/107 176/427/107 177/428/107
f 183/429/108 185/430/108 175/431/108 174/432/108
f 184/433/109 176/434/109 175/435/109 185/436/109
f 177/437/110 182/438/110 183/439/110 174/440/110
f 169/441/111 168/442/111 178/443/111 179/444/111
f 166/445/112 167/446/112 168/447/112 169/448/112
f 170/449/113 171/450/113 167/451/113 166/452/113
f 179/453/114 178/454/114 171/455/114 170/456/114
f 165/457/115 164/458/115 180/459/115 181/460/115
f 162/461/116 163/462/116 164/463/116 165/464/116
f 172/465/117 173/466/117 163/467/117 162/468/117
f 181/469/118 180/470/118 173/471/118 172/472/118
f 195/473/119 194/474/119 199/475/119 198/476/119
f 192/477/120 193/478/120 194/479/120 195/480/120
f 196/481/121 197/482/121 193/483/121 192/484/121
f 198/485/122 199/486/122 197/487/122 196/488/122
f 191/489/123 190/490/123 201/491/123 200/492/123
f 189/493/124 188/494/124 190/495/124 191/496/124
f 186/497/125 187/498/125 188/499/125 189/500/125
f 200/501/126 201/502/126 187/503/126 186/504/126
f 202/505/127 203/506/127 204/507/127 205/508/127
f 206/509/128 209/510/128 203/511/128 202/512/128
f 207/513/129 208/514/129 209/515/129 206/516/129
f 205/517/130 204/518/130 208/519/130 207/520/130
f 203/521/131 209/522/131 208/523/131 204/524/131
f 206/525/132 202/526/132 205/527/132 207/528/132
f 210/529/133 212/530/133 213/531/133 211/532/133
f 217/533/134 215/534/134 212/535/134 210/536/134
f 211/537/135 213/538/135 214/539/135 216/540/135
f 213/541/136 212/542/136 215/543/136 214/544/136
f 216/545/137 214/546/137 215/547/137 217/548/137
f 219/549/138 218/550/138 220/551/138 221/552/138
f 221/553/139 220/554/139 222/555/139 224/556/139
f 224/557/140 222/558/140 223/559/140 225/560/140
f 230/561/141 228/562/141 226/563/141 231/564/141
f 231/565/142 226/566/142 227/567/142 232/568/142
f 226/569/143 228/570/143 229/571/143 227/572/143
f 228/573/144 230/574/144 233/575/144 229/576/144
f 230/577/145 231/578/145 232/579/145 233/580/145
f 236/581/146 234/582/146 241/583/146 235/584/146
f 238/585/147 236/586/147 235/587/147 237/588/147
f 238/589/148 239/590/148 234/591/148 236/592/148
f 237/593/149 240/594/149 239/595/149 238/596/149
f 234/597/150 239/598/150 240/599/150 241/600/150
f 244/601/151 245/602/151 247/603/151 242/604/151
f 243/605/152 246/606/152 245/607/152 244/608/152
f 247/609/153 245/610/153 246/611/153 248/612/153