# Made in Blockbench 4.12.6
mtllib cooling_tower.mtl

o cube
v -2 1 -4.37109375
v -4 1 -4.5
v -4 1 -2.5
v -2 0.75 -5
v -4 0.25 -5
v -4 0.75 -5
v -4 0.25 -5
v -4 0 -4.5
v -4 0.25 -4.5
v -4 0.25 -5
v -2 0.25 -6
v -2 0.25 -7
v 3 0.75 -5
v 0.5 0.25 -5
v 0.5 0.75 -5
v -2 0 -7
v -4 0.25 -5
v -2 0.25 -7
v 5 0 -4.5
v 5 0.25 -4.5
v 5 0.25 -3.5
v -2 0.75 -7
v -2 0.25 -6
v -2 0.75 -6
v -1 0.25 -3.5
v -4 0.25 -4.5
v -4 0.25 -3.5
v -4 0.25 -4.5
v -1 0.75 -4.5
v -4 0.75 -4.5
v -4 0.75 -5
v -2 0.75 -6
v -2 0.75 -5
v -2 1 -7
v -4 1 -5
v -2 1 -4.37109375
v -4 0.75 -5
v -2 1 -7
v -2 0.75 -7
v 3 0.25 -6
v 0.5 0.75 -6
v 0.5 0.25 -6
v -4 0.75 -4.5
v -1 0.75 -3.5
v -4 0.75 -3.5
v 5 0.25 -5
v 3 0.75 -5
v 5 0.75 -5
v 5 0.25 -4.5
v 5 0 -5
v 5 0.25 -5
v 3 0.25 -6
v 5 0.25 -5
v 3 0.25 -7
v 5 0.25 -5
v 3 0 -7
v 3 0.25 -7
v 3 0.25 -6
v 3 0.75 -7
v 3 0.75 -6
v 2 0.25 -3.5
v -1 0.25 -4.5
v -1 0.25 -3.5
v 2 0.75 -4.5
v 5 0.25 -4.5
v 5 0.75 -4.5
v 2 0.75 -3.5
v 5 0.75 -4.5
v 5 0.75 -3.5
v 5 0.25 -4.5
v 2 0.25 -3.5
v 5 0.25 -3.5
v -4 1 -4.5
v -4 0.75 -4.5
v -4 0.75 -3.5
v 5 0.75 -5
v 3 0.75 -6
v 3 0.75 -7
v 3 0.75 -6
v 0.5 0.75 -5
v 0.5 0.75 -6
v 3 1 -7
v 5 0.75 -5
v 3 0.75 -7
v -4 0.25 -2
v -2 0.75 -2
v -4 0.75 -2
v -4 0.25 -2.5
v -4 0 -2
v -4 0.25 -2
v -2 0.25 -1
v -4 0.25 -2
v -2 0.25 0
v 0.5 0.75 -2
v 3 0.75 -1
v 0.5 0.75 -1
v -4 0.25 -2
v -2 0 0
v -2 0.25 0
v -2 0.25 -1
v -2 0.75 0
v -2 0.75 -1
v -1 0.75 -2.5
v -4 0.25 -2.5
v -4 0.75 -2.5
v -4 0.75 -2
v -2 0.75 -1
v -2 0.75 0
v -2 1 0
v -2 1 -2.62890625
v -4 1 -2
v -2 1 0
v -4 0.75 -2
v -2 0.75 0
v 3 0.75 -1
v 0.5 0.25 -1
v 0.5 0.75 -1
v 3 0.75 -2
v 5 0.25 -2
v 5 0.75 -2
v 5 0.25 -2
v 5 0 -2.5
v 5 0.25 -2.5
v 5 0.25 -2
v 3 0.25 -1
v 3 0.25 0
v 3 0.25 -2
v 0.5 0.75 -2
v 0.5 0.25 -2
v 3 0 0
v 5 0.25 -2
v 3 0.25 0
v 3 0.75 0
v 3 0.25 -1
v 3 0.75 -1
v 5 0.25 -2.5
v 2 0.75 -2.5
v 5 0.75 -2.5
v 5 0.75 -2
v 3 0.75 -1
v 3 0.75 -2
v 3 0.25 -1
v 0.5 0.25 -2
v 0.5 0.25 -1
v 5 0.75 -2
v 3 1 0
v 3 0.75 0
v 5 1 -2
v 3 1 -2.62890625
v 3 1 0
v 3 1 -7
v 3 1 -4.37109375
v 5 1 -5
v 5 1 -4.5
v 5 1 -5
v 3 1 -4.37109375
v -2 1 -8
v -2 0 -8
v -2 0.25 -7
v 3 1 1
v 3 0 1
v 3 0.25 0
v -2 0.75 -6
v 0.5 0.75 -5
v -2 0.75 -5
v 0.5 0.25 -6
v -2 0.75 -6
v -2 0.25 -6
v 3 0.25 -6
v 0.5 0.25 -5
v 3 0.25 -5
v 0.5 0.75 -5
v -2 0.25 -5
v -2 0.75 -5
v -2 0.25 -1
v 0.5 0.25 -2
v -2 0.25 -2
v 0.5 0.25 -2
v -2 0.75 -2
v -2 0.25 -2
v 0.5 0.75 -1
v -2 0.25 -1
v -2 0.75 -1
v 0.5 0.75 -2
v -2 0.75 -1
v -2 0.75 -2
v -1 0.25 -4.5
v 2 0.75 -4.5
v -1 0.75 -4.5
v -1 0.75 -4.5
v 2 0.75 -3.5
v -1 0.75 -3.5
v 2 0.75 -2.5
v -1 0.25 -2.5
v -1 0.75 -2.5
v -2 1 1
v -2 1 0
v -2 0.75 0
v 3 1 0
v -2 1 0
v -2 1 1
v -2 1 -7
v 3 1 -7
v 3 1 -8
v 3 1 -4.37109375
v -2 1 -2.62890625
v -2 1 -4.37109375
v 3 1 -8
v 3 1 -7
v 3 0.75 -7
v 5 0.25 -3.5
v 2 0.25 -2.5
v 5 0.25 -2.5
v 2 0.25 -2.5
v -1 0.25 -3.5
v -1 0.25 -2.5
v -1 0.25 -2.5
v -4 0.25 -3.5
v -4 0.25 -2.5
v -4 0.25 -3.5
v -4 0.25 -4.5
v -4 0 -4.5
v -2 0.25 -6
v 0.5 0.25 -5
v 0.5 0.25 -6
v -1 0.75 -3.5
v 2 0.75 -2.5
v -1 0.75 -2.5
v 2 0.75 -2.5
v 5 0.75 -3.5
v 5 0.75 -2.5
v -4 0.75 -3.5
v -1 0.75 -2.5
v -4 0.75 -2.5
v 5 0.75 -3.5
v 5 1 -4.5
v 5 1 -2.5
v -1.15625 1 0.5
v -3.1015625 3 -2.0078125
v -3.5 1 -1.84375
v 4.1015625 3 -4.9921875
v 4.5 1 -1.84375
v 4.5 1 -5.15625
v -0.9921875 3 -7.1015625
v 2.15625 1 -7.5
v -1.15625 1 -7.5
v -3.1015625 3 -4.9921875
v -1.15625 1 -7.5
v -3.5 1 -5.15625
v 1.9921875 3 0.1015625
v -1.15625 1 0.5
v 2.15625 1 0.5
v 2.15625 1 -7.5
v 4.1015625 3 -4.9921875
v 4.5 1 -5.15625
v -3.1015625 3 -2.0078125
v -3.5 1 -5.15625
v -3.5 1 -1.84375
v -0.9921875 3 0.1015625
v -2.73828125 5 -2.15625
v -3.1015625 3 -2.0078125
v 4.1015625 3 -2.0078125
v 2.15625 1 0.5
v 4.5 1 -1.84375
v 1.84375 5 -6.73828125
v 3.4140625 7 -4.70703125
v 3.73828125 5 -4.84375
v 4.1015625 3 -4.9921875
v 3.73828125 5 -2.15625
v 4.1015625 3 -2.0078125
v -0.9921875 3 -7.1015625
v -2.73828125 5 -4.84375
v -0.84375 5 -6.73828125
v 1.9921875 3 0.1015625
v -0.84375 5 -0.26171875
v -0.9921875 3 0.1015625
v 1.9921875 3 -7.1015625
v 3.73828125 5 -4.84375
v 4.1015625 3 -4.9921875
v -3.1015625 3 -2.0078125
v -2.73828125 5 -4.84375
v -3.1015625 3 -4.9921875
v 1.9921875 3 0.1015625
v 3.73828125 5 -2.15625
v 1.84375 5 -0.26171875
v -0.9921875 3 -7.1015625
v 1.84375 5 -6.73828125
v 1.9921875 3 -7.1015625
v -2.4140625 7 -2.29296875
v -0.87890625 9.5 -0.17578125
v -2.82421875 9.5 -2.12109375
v 1.84375 5 -0.26171875
v 3.4140625 7 -2.29296875
v 1.70703125 7 -0.5859375
v -0.84375 5 -0.26171875
v -2.4140625 7 -2.29296875
v -2.73828125 5 -2.15625
v -0.84375 5 -6.73828125
v -2.4140625 7 -4.70703125
v -0.70703125 7 -6.4140625
v -0.84375 5 -6.73828125
v 1.70703125 7 -6.4140625
v 1.84375 5 -6.73828125
v 3.73828125 5 -4.84375
v 3.4140625 7 -2.29296875
v 3.73828125 5 -2.15625
v 1.84375 5 -0.26171875
v -0.70703125 7 -0.5859375
v -0.84375 5 -0.26171875
v -2.73828125 5 -2.15625
v -2.4140625 7 -4.70703125
v -2.73828125 5 -4.84375
v -1.03125 10 -7.1953125
v 2.03125 9.5 -7.1953125
v -1.03125 9.5 -7.1953125
v 2.03125 10 -7.1953125
v 4.1953125 9.5 -5.03125
v 2.03125 9.5 -7.1953125
v 4.1953125 10 -5.03125
v 4.1953125 9.5 -1.96875
v 4.1953125 9.5 -5.03125
v 4.1953125 10 -1.96875
v 2.03125 9.5 0.1953125
v 4.1953125 9.5 -1.96875
v 2.03125 10 0.1953125
v -1.03125 9.5 0.1953125
v 2.03125 9.5 0.1953125
v -1.03125 10 0.1953125
v -3.1953125 9.5 -1.96875
v -1.03125 9.5 0.1953125
v 2.03125 10 -7.1953125
v 3.82421875 10 -4.87890625
v 4.1953125 10 -5.03125
v -3.1953125 10 -1.96875
v -3.1953125 9.5 -5.03125
v -3.1953125 9.5 -1.96875
v -3.1953125 10 -5.03125
v -1.03125 9.5 -7.1953125
v -3.1953125 9.5 -5.03125
v 2.03125 9.5 0.1953125
v 3.82421875 9.5 -2.12109375
v 4.1953125 9.5 -1.96875
v -0.70703125 7 -0.5859375
v 1.87890625 9.5 -0.17578125
v -0.87890625 9.5 -0.17578125
v -3.1953125 9.5 -5.03125
v -2.82421875 9.5 -2.12109375
v -3.1953125 9.5 -1.96875
v 2.03125 9.5 -7.1953125
v 3.82421875 9.5 -4.87890625
v 1.87890625 9.5 -6.82421875
v -1.03125 9.5 0.1953125
v 1.87890625 9.5 -0.17578125
v 2.03125 9.5 0.1953125
v -1.03125 9.5 -7.1953125
v -2.82421875 9.5 -4.87890625
v -3.1953125 9.5 -5.03125
v 2.03125 9.5 -7.1953125
v -0.87890625 9.5 -6.82421875
v -1.03125 9.5 -7.1953125
v 4.1953125 9.5 -1.96875
v 3.82421875 9.5 -4.87890625
v 4.1953125 9.5 -5.03125
v -1.03125 9.5 0.1953125
v -2.82421875 9.5 -2.12109375
v -0.87890625 9.5 -0.17578125
v 3.82421875 9.5 -2.12109375
v 3.4140625 7 -4.70703125
v 3.82421875 9.5 -4.87890625
v 3.4140625 7 -2.29296875
v 1.87890625 9.5 -0.17578125
v 1.70703125 7 -0.5859375
v -2.4140625 7 -2.29296875
v -2.82421875 9.5 -4.87890625
v -2.4140625 7 -4.70703125
v -2.4140625 7 -4.70703125
v -0.87890625 9.5 -6.82421875
v -0.70703125 7 -6.4140625
v -0.70703125 7 -6.4140625
v 1.87890625 9.5 -6.82421875
v 1.70703125 7 -6.4140625
v 3.4140625 7 -4.70703125
v 1.87890625 9.5 -6.82421875
v 3.82421875 9.5 -4.87890625
v 1.87890625 10 -6.82421875
v 3.4921875 8 -4.73828125
v 3.82421875 10 -4.87890625
v 2.03125 10 0.1953125
v -0.87890625 10 -0.17578125
v -1.03125 10 0.1953125
v -1.03125 10 -7.1953125
v -2.82421875 10 -4.87890625
v -0.87890625 10 -6.82421875
v -1.03125 10 -7.1953125
v 1.87890625 10 -6.82421875
v 2.03125 10 -7.1953125
v 4.1953125 10 -5.03125
v 3.82421875 10 -2.12109375
v 4.1953125 10 -1.96875
v -1.03125 10 0.1953125
v -2.82421875 10 -2.12109375
v -3.1953125 10 -1.96875
v 2.03125 10 0.1953125
v 3.82421875 10 -2.12109375
v 1.87890625 10 -0.17578125
v -3.1953125 10 -1.96875
v -2.82421875 10 -4.87890625
v -3.1953125 10 -5.03125
v 1.73828125 8 -0.5078125
v 3.4921875 8 -2.26171875
v 3.4921875 8 -4.73828125
v -2.82421875 10 -2.12109375
v -2.4921875 8 -4.73828125
v -2.82421875 10 -4.87890625
v -0.87890625 10 -0.17578125
v 1.73828125 8 -0.5078125
v -0.73828125 8 -0.5078125
v 3.82421875 10 -4.87890625
v 3.4921875 8 -2.26171875
v 3.82421875 10 -2.12109375
v -0.87890625 10 -6.82421875
v 1.73828125 8 -6.4921875
v 1.87890625 10 -6.82421875
v -0.87890625 10 -6.82421875
v -2.4921875 8 -4.73828125
v -0.73828125 8 -6.4921875
v -0.87890625 10 -0.17578125
v -2.4921875 8 -2.26171875
v -2.82421875 10 -2.12109375
v 1.87890625 10 -0.17578125
v 3.4921875 8 -2.26171875
v 1.73828125 8 -0.5078125
v -4 1 -2
v -2 1 -2.62890625
v -4 1 -2.5
v -2 1 -2.62890625
v -2 1 -4.37109375
v -4 1 -2.5
v -2 1 -4.37109375
v -4 1 -5
v -4 1 -4.5
v -2 0.75 -5
v -2 0.25 -5
v -4 0.25 -5
v -4 1 -5
v -4 0.75 -5
v -4 1 -4.5
v -4 0.75 -5
v -4 0.25 -5
v -4 0.75 -4.5
v -4 1 -4.5
v -4 0.75 -5
v -4 0.75 -4.5
v -4 0.25 -5
v -4 0 -5
v -4 0 -4.5
v -4 0.25 -4.5
v -4 0.75 -4.5
v -4 0.25 -5
v -4 0.25 -5
v -2 0.25 -5
v -2 0.25 -6
v 3 0.75 -5
v 3 0.25 -5
v 0.5 0.25 -5
v -2 0 -7
v -4 0 -5
v -4 0.25 -5
v 5 0.25 -2.5
v 5 0 -2.5
v 5 0.25 -3.5
v 5 0 -2.5
v 5 0 -4.5
v 5 0.25 -3.5
v -2 0.75 -7
v -2 0.25 -7
v -2 0.25 -6
v -1 0.25 -3.5
v -1 0.25 -4.5
v -4 0.25 -4.5
v -4 0.25 -4.5
v -1 0.25 -4.5
v -1 0.75 -4.5
v -4 0.75 -5
v -2 0.75 -7
v -2 0.75 -6
v -4 0.75 -5
v -4 1 -5
v -2 1 -7
v 3 0.25 -6
v 3 0.75 -6
v 0.5 0.75 -6
v -4 0.75 -4.5
v -1 0.75 -4.5
v -1 0.75 -3.5
v 5 0.25 -5
v 3 0.25 -5
v 3 0.75 -5
v 5 0.25 -5
v 5 0.75 -5
v 5 0.25 -4.5
v 5 0.75 -5
v 5 1 -5
v 5 0.75 -4.5
v 5 0.25 -4.5
v 5 0.75 -5
v 5 0.75 -4.5
v 5 1 -5
v 5 1 -4.5
v 5 0.75 -4.5
v 5 0.25 -4.5
v 5 0 -4.5
v 5 0 -5
v 3 0.25 -6
v 3 0.25 -5
v 5 0.25 -5
v 5 0.25 -5
v 5 0 -5
v 3 0 -7
v 3 0.25 -6
v 3 0.25 -7
v 3 0.75 -7
v 2 0.25 -3.5
v 2 0.25 -4.5
v -1 0.25 -4.5
v 2 0.75 -4.5
v 2 0.25 -4.5
v 5 0.25 -4.5
v 2 0.75 -3.5
v 2 0.75 -4.5
v 5 0.75 -4.5
v 5 0.25 -4.5
v 2 0.25 -4.5
v 2 0.25 -3.5
v -4 0.75 -3.5
v -4 0.75 -2.5
v -4 1 -2.5
v -4 1 -2.5
v -4 1 -4.5
v -4 0.75 -3.5
v 5 0.75 -5
v 3 0.75 -5
v 3 0.75 -6
v 3 0.75 -6
v 3 0.75 -5
v 0.5 0.75 -5
v 3 1 -7
v 5 1 -5
v 5 0.75 -5
v -4 0.25 -2
v -2 0.25 -2
v -2 0.75 -2
v -4 0.25 -2
v -4 0.75 -2
v -4 0.25 -2.5
v -4 0.75 -2
v -4 1 -2
v -4 0.75 -2.5
v -4 0.25 -2.5
v -4 0.75 -2
v -4 0.75 -2.5
v -4 1 -2
v -4 1 -2.5
v -4 0.75 -2.5
v -4 0.25 -2.5
v -4 0 -2.5
v -4 0 -2
v -2 0.25 -1
v -2 0.25 -2
v -4 0.25 -2
v 0.5 0.75 -2
v 3 0.75 -2
v 3 0.75 -1
v -4 0.25 -2
v -4 0 -2
v -2 0 0
v -2 0.25 -1
v -2 0.25 0
v -2 0.75 0
v -1 0.75 -2.5
v -1 0.25 -2.5
v -4 0.25 -2.5
v -4 0.75 -2
v -2 0.75 -2
v -2 0.75 -1
v -2 1 0
v -4 1 -2
v -4 0.75 -2
v 3 0.75 -1
v 3 0.25 -1
v 0.5 0.25 -1
v 3 0.75 -2
v 3 0.25 -2
v 5 0.25 -2
v 5 1 -2
v 5 0.75 -2
v 5 1 -2.5
v 5 0.75 -2
v 5 0.25 -2
v 5 0.75 -2.5
v 5 1 -2.5
v 5 0.75 -2
v 5 0.75 -2.5
v 5 0.25 -2
v 5 0 -2
v 5 0 -2.5
v 5 0.25 -2.5
v 5 0.75 -2.5
v 5 0.25 -2
v 5 0.25 -2
v 3 0.25 -2
v 3 0.25 -1
v 3 0.25 -2
v 3 0.75 -2
v 0.5 0.75 -2
v 3 0 0
v 5 0 -2
v 5 0.25 -2
v 3 0.75 0
v 3 0.25 0
v 3 0.25 -1
v 5 0.25 -2.5
v 2 0.25 -2.5
v 2 0.75 -2.5
v 5 0.75 -2
v 3 0.75 0
v 3 0.75 -1
v 3 0.25 -1
v 3 0.25 -2
v 0.5 0.25 -2
v 5 0.75 -2
v 5 1 -2
v 3 1 0
v 3 1 -4.37109375
v 3 1 -2.62890625
v 5 1 -2.5
v 3 1 -2.62890625
v 5 1 -2
v 5 1 -2.5
v 5 1 -2.5
v 5 1 -4.5
v 3 1 -4.37109375
v -2 0 -7
v -2 0.25 -7
v -2 0 -8
v -2 0.25 -7
v -2 0.75 -7
v -2 1 -8
v -2 0.75 -7
v -2 1 -7
v -2 1 -8
v 3 0 0
v 3 0.25 0
v 3 0 1
v 3 0.25 0
v 3 0.75 0
v 3 1 1
v 3 0.75 0
v 3 1 0
v 3 1 1
v -2 0.75 -6
v 0.5 0.75 -6
v 0.5 0.75 -5
v 0.5 0.25 -6
v 0.5 0.75 -6
v -2 0.75 -6
v 3 0.25 -6
v 0.5 0.25 -6
v 0.5 0.25 -5
v 0.5 0.75 -5
v 0.5 0.25 -5
v -2 0.25 -5
v -2 0.25 -1
v 0.5 0.25 -1
v 0.5 0.25 -2
v 0.5 0.25 -2
v 0.5 0.75 -2
v -2 0.75 -2
v 0.5 0.75 -1
v 0.5 0.25 -1
v -2 0.25 -1
v 0.5 0.75 -2
v 0.5 0.75 -1
v -2 0.75 -1
v -1 0.25 -4.5
v 2 0.25 -4.5
v 2 0.75 -4.5
v -1 0.75 -4.5
v 2 0.75 -4.5
v 2 0.75 -3.5
v 2 0.75 -2.5
v 2 0.25 -2.5
v -1 0.25 -2.5
v -2 0.75 0
v -2 0.25 0
v -2 1 1
v -2 0.25 0
v -2 0 0
v -2 0 1
v -2 1 1
v -2 0.25 0
v -2 0 1
v -2 1 0
v 3 1 -2.62890625
v -2 1 -2.62890625
v 3 1 0
v -2 1 1
v 3 1 1
v -2 1 0
v 3 1 0
v 3 1 -2.62890625
v -2 1 -7
v 3 1 -8
v -2 1 -8
v 3 1 -7
v -2 1 -7
v 3 1 -4.37109375
v 3 1 -4.37109375
v -2 1 -7
v -2 1 -4.37109375
v 3 1 -4.37109375
v 3 1 -2.62890625
v -2 1 -2.62890625
v 3 0.75 -7
v 3 0.25 -7
v 3 1 -8
v 3 0.25 -7
v 3 0 -7
v 3 0 -8
v 3 1 -8
v 3 0.25 -7
v 3 0 -8
v 5 0.25 -3.5
v 2 0.25 -3.5
v 2 0.25 -2.5
v 2 0.25 -2.5
v 2 0.25 -3.5
v -1 0.25 -3.5
v -1 0.25 -2.5
v -1 0.25 -3.5
v -4 0.25 -3.5
v -4 0 -4.5
v -4 0 -2.5
v -4 0.25 -3.5
v -4 0 -2.5
v -4 0.25 -2.5
v -4 0.25 -3.5
v -2 0.25 -6
v -2 0.25 -5
v 0.5 0.25 -5
v -1 0.75 -3.5
v 2 0.75 -3.5
v 2 0.75 -2.5
v 2 0.75 -2.5
v 2 0.75 -3.5
v 5 0.75 -3.5
v -4 0.75 -3.5
v -1 0.75 -3.5
v -1 0.75 -2.5
v 5 1 -2.5
v 5 0.75 -2.5
v 5 0.75 -3.5
v 5 0.75 -3.5
v 5 0.75 -4.5
v 5 1 -4.5
v -1.15625 1 0.5
v -0.9921875 3 0.1015625
v -3.1015625 3 -2.0078125
v 4.1015625 3 -4.9921875
v 4.1015625 3 -2.0078125
v 4.5 1 -1.84375
v -0.9921875 3 -7.1015625
v 1.9921875 3 -7.1015625
v 2.15625 1 -7.5
v -3.1015625 3 -4.9921875
v -0.9921875 3 -7.1015625
v -1.15625 1 -7.5
v 1.9921875 3 0.1015625
v -0.9921875 3 0.1015625
v -1.15625 1 0.5
v 2.15625 1 -7.5
v 1.9921875 3 -7.1015625
v 4.1015625 3 -4.9921875
v -3.1015625 3 -2.0078125
v -3.1015625 3 -4.9921875
v -3.5 1 -5.15625
v -0.9921875 3 0.1015625
v -0.84375 5 -0.26171875
v -2.73828125 5 -2.15625
v 4.1015625 3 -2.0078125
v 1.9921875 3 0.1015625
v 2.15625 1 0.5
v 1.84375 5 -6.73828125
v 1.70703125 7 -6.4140625
v 3.4140625 7 -4.70703125
v 4.1015625 3 -4.9921875
v 3.73828125 5 -4.84375
v 3.73828125 5 -2.15625
v -0.9921875 3 -7.1015625
v -3.1015625 3 -4.9921875
v -2.73828125 5 -4.84375
v 1.9921875 3 0.1015625
v 1.84375 5 -0.26171875
v -0.84375 5 -0.26171875
v 1.9921875 3 -7.1015625
v 1.84375 5 -6.73828125
v 3.73828125 5 -4.84375
v -3.1015625 3 -2.0078125
v -2.73828125 5 -2.15625
v -2.73828125 5 -4.84375
v 1.9921875 3 0.1015625
v 4.1015625 3 -2.0078125
v 3.73828125 5 -2.15625
v -0.9921875 3 -7.1015625
v -0.84375 5 -6.73828125
v 1.84375 5 -6.73828125
v -2.4140625 7 -2.29296875
v -0.70703125 7 -0.5859375
v -0.87890625 9.5 -0.17578125
v 1.84375 5 -0.26171875
v 3.73828125 5 -2.15625
v 3.4140625 7 -2.29296875
v -0.84375 5 -0.26171875
v -0.70703125 7 -0.5859375
v -2.4140625 7 -2.29296875
v -0.84375 5 -6.73828125
v -2.73828125 5 -4.84375
v -2.4140625 7 -4.70703125
v -0.84375 5 -6.73828125
v -0.70703125 7 -6.4140625
v 1.70703125 7 -6.4140625
v 3.73828125 5 -4.84375
v 3.4140625 7 -4.70703125
v 3.4140625 7 -2.29296875
v 1.84375 5 -0.26171875
v 1.70703125 7 -0.5859375
v -0.70703125 7 -0.5859375
v -2.73828125 5 -2.15625
v -2.4140625 7 -2.29296875
v -2.4140625 7 -4.70703125
v -1.03125 10 -7.1953125
v 2.03125 10 -7.1953125
v 2.03125 9.5 -7.1953125
v 2.03125 10 -7.1953125
v 4.1953125 10 -5.03125
v 4.1953125 9.5 -5.03125
v 4.1953125 10 -5.03125
v 4.1953125 10 -1.96875
v 4.1953125 9.5 -1.96875
v 4.1953125 10 -1.96875
v 2.03125 10 0.1953125
v 2.03125 9.5 0.1953125
v 2.03125 10 0.1953125
v -1.03125 10 0.1953125
v -1.03125 9.5 0.1953125
v -1.03125 10 0.1953125
v -3.1953125 10 -1.96875
v -3.1953125 9.5 -1.96875
v 2.03125 10 -7.1953125
v 1.87890625 10 -6.82421875
v 3.82421875 10 -4.87890625
v -3.1953125 10 -1.96875
v -3.1953125 10 -5.03125
v -3.1953125 9.5 -5.03125
v -3.1953125 10 -5.03125
v -1.03125 10 -7.1953125
v -1.03125 9.5 -7.1953125
v 2.03125 9.5 0.1953125
v 1.87890625 9.5 -0.17578125
v 3.82421875 9.5 -2.12109375
v -0.70703125 7 -0.5859375
v 1.70703125 7 -0.5859375
v 1.87890625 9.5 -0.17578125
v -3.1953125 9.5 -5.03125
v -2.82421875 9.5 -4.87890625
v -2.82421875 9.5 -2.12109375
v 2.03125 9.5 -7.1953125
v 4.1953125 9.5 -5.03125
v 3.82421875 9.5 -4.87890625
v -1.03125 9.5 0.1953125
v -0.87890625 9.5 -0.17578125
v 1.87890625 9.5 -0.17578125
v -1.03125 9.5 -7.1953125
v -0.87890625 9.5 -6.82421875
v -2.82421875 9.5 -4.87890625
v 2.03125 9.5 -7.1953125
v 1.87890625 9.5 -6.82421875
v -0.87890625 9.5 -6.82421875
v 4.1953125 9.5 -1.96875
v 3.82421875 9.5 -2.12109375
v 3.82421875 9.5 -4.87890625
v -1.03125 9.5 0.1953125
v -3.1953125 9.5 -1.96875
v -2.82421875 9.5 -2.12109375
v 3.82421875 9.5 -2.12109375
v 3.4140625 7 -2.29296875
v 3.4140625 7 -4.70703125
v 3.4140625 7 -2.29296875
v 3.82421875 9.5 -2.12109375
v 1.87890625 9.5 -0.17578125
v -2.4140625 7 -2.29296875
v -2.82421875 9.5 -2.12109375
v -2.82421875 9.5 -4.87890625
v -2.4140625 7 -4.70703125
v -2.82421875 9.5 -4.87890625
v -0.87890625 9.5 -6.82421875
v -0.70703125 7 -6.4140625
v -0.87890625 9.5 -6.82421875
v 1.87890625 9.5 -6.82421875
v 3.4140625 7 -4.70703125
v 1.70703125 7 -6.4140625
v 1.87890625 9.5 -6.82421875
v 1.87890625 10 -6.82421875
v 1.73828125 8 -6.4921875
v 3.4921875 8 -4.73828125
v 2.03125 10 0.1953125
v 1.87890625 10 -0.17578125
v -0.87890625 10 -0.17578125
v -1.03125 10 -7.1953125
v -3.1953125 10 -5.03125
v -2.82421875 10 -4.87890625
v -1.03125 10 -7.1953125
v -0.87890625 10 -6.82421875
v 1.87890625 10 -6.82421875
v 4.1953125 10 -5.03125
v 3.82421875 10 -4.87890625
v 3.82421875 10 -2.12109375
v -1.03125 10 0.1953125
v -0.87890625 10 -0.17578125
v -2.82421875 10 -2.12109375
v 2.03125 10 0.1953125
v 4.1953125 10 -1.96875
v 3.82421875 10 -2.12109375
v -3.1953125 10 -1.96875
v -2.82421875 10 -2.12109375
v -2.82421875 10 -4.87890625
v 3.4921875 8 -4.73828125
v 1.73828125 8 -6.4921875
v 1.73828125 8 -0.5078125
v 1.73828125 8 -6.4921875
v -0.73828125 8 -6.4921875
v 1.73828125 8 -0.5078125
v -0.73828125 8 -6.4921875
v -2.4921875 8 -4.73828125
v -2.4921875 8 -2.26171875
v -2.4921875 8 -2.26171875
v -0.73828125 8 -0.5078125
v -0.73828125 8 -6.4921875
v -0.73828125 8 -0.5078125
v 1.73828125 8 -0.5078125
v -0.73828125 8 -6.4921875
v -2.82421875 10 -2.12109375
v -2.4921875 8 -2.26171875
v -2.4921875 8 -4.73828125
v -0.87890625 10 -0.17578125
v 1.87890625 10 -0.17578125
v 1.73828125 8 -0.5078125
v 3.82421875 10 -4.87890625
v 3.4921875 8 -4.73828125
v 3.4921875 8 -2.26171875
v -0.87890625 10 -6.82421875
v -0.73828125 8 -6.4921875
v 1.73828125 8 -6.4921875
v -0.87890625 10 -6.82421875
v -2.82421875 10 -4.87890625
v -2.4921875 8 -4.73828125
v -0.87890625 10 -0.17578125
v -0.73828125 8 -0.5078125
v -2.4921875 8 -2.26171875
v 1.87890625 10 -0.17578125
v 3.82421875 10 -2.12109375
v 3.4921875 8 -2.26171875
v -2 0 -7
v -2 0 -5
v -4 0 -5
v 3 0 -7
v 5 0 -5
v 3 0 -5
v -2 0 0
v -4 0 -2
v -2 0 -2
v -4 0 -4.5
v -2 0 -5
v -2 0 -2
v 3 0 0
v 3 0 -2
v 5 0 -2
v -2 0 -7
v -2 0 -8
v 3 0 -7
v 5 0 -4.5
v 5 0 -2.5
v 3 0 -2
v -2 0 -2
v -4 0 -2
v -4 0 -2.5
v -4 0 -4.5
v -4 0 -5
v -2 0 -5
v -2 0 -2
v -4 0 -2.5
v -4 0 -4.5
v 3 0 -7
v 3 0 -5
v -2 0 -5
v 3 0 -5
v 3 0 -2
v -2 0 -2
v -2 0 0
v 3 0 -2
v 3 0 0
v 3 0 0
v 3 0 1
v -2 0 1
v 3 0 -2
v -2 0 0
v -2 0 -2
v -2 0 0
v 3 0 0
v -2 0 1
v -2 0 -8
v 3 0 -8
v 3 0 -7
v -2 0 -2
v -2 0 -5
v 3 0 -5
v -2 0 -5
v -2 0 -7
v 3 0 -7
v 5 0 -2.5
v 5 0 -2
v 3 0 -2
v 3 0 -2
v 3 0 -5
v 5 0 -4.5
v 3 0 -5
v 5 0 -5
v 5 0 -4.5
v 3 0 -8
v -2 1 -8
v 3 1 -8
v -2 1 1
v 3 0 1
v 3 1 1
v 3 0 -8
v -2 0 -8
v -2 1 -8
v -2 1 1
v -2 0 1
v 3 0 1
vt 0.205725 0.38518199218750004
vt 0.1894969921875 0.6231569921875
vt 0.439161015625 0.6231569921875
vt 0.25 0
vt 0 0.0625
vt 0 0
vt 0.281243984375 0.24998800781249997
vt 0.2500180078125 0.18751199218750003
vt 0.281243984375 0.18751199218750003
vt 0.5 0.59375
vt 0.25 0.46875
vt 0.25 0.34375
vt 0.390625 0
vt 0.078125 0.0625
vt 0.078125 0
vt 0.1250369921875 0.5937869921875
vt 0.4999630078125 0.6249630078125
vt 0.1250369921875 0.6249630078125
vt 0.375 0.5937739843750001
vt 0.375 0.6249760156249999
vt 0.2500119921875 0.6249760156249999
vt 0.1250469921875 0.25
vt 0.25 0.18754699218750004
vt 0.25 0.25
vt 0.1250469921875 0.37504699218750004
vt 0.5 0.5
vt 0.5 0.37504699218750004
vt 0 0.0625
vt 0.375 0
vt 0 0
vt 0.5 0.59375
vt 0.25 0.46875
vt 0.25 0.59375
vt 0.125 0.625
vt 0.5 0.625
vt 0.375 0.372353984375
vt 0.5 0.59375
vt 0.125 0.625
vt 0.1250369921875 0.5937869921875
vt 0 0.0625
vt 0.3125 0
vt 0.3125 0.0625
vt 0.5 0.5
vt 0.1250469921875 0.37504699218750004
vt 0.5 0.37504699218750004
vt 0 0
vt 0.25 0.0625
vt 0 0.0625
vt 0.281243984375 0.24998800781249997
vt 0.2500180078125 0.18751199218750003
vt 0.281243984375 0.18751199218750003
vt 0.25 0.46875
vt 0.5 0.59375
vt 0.25 0.34375
vt 0.1250369921875 0.6249630078125
vt 0.4999630078125 0.5937869921875
vt 0.4999630078125 0.6249630078125
vt 0.25 0.25
vt 0.1250469921875 0.18754699218750004
vt 0.25 0.18754699218750004
vt 0.1250469921875 0.5
vt 0.5 0.37504699218750004
vt 0.5 0.5
vt 0.375 0.0625
vt 0 0
vt 0 0.0625
vt 0.1250469921875 0.5
vt 0.5 0.37504699218750004
vt 0.5 0.5
vt 0.5 0.5
vt 0.1250469921875 0.37504699218750004
vt 0.5 0.37504699218750004
vt 0.1250469921875 0.6249530078125001
vt 0.1250469921875 0.5937969921874999
vt 0.25 0.5937969921874999
vt 0.5 0.59375
vt 0.25 0.46875
vt 0.25 0.34375
vt 0.5 0.6249769921875
vt 0.875 0.5000239843750001
vt 0.875 0.6249760156249999
vt 0.4999630078125 0.6249630078125
vt 0.1250369921875 0.5937869921875
vt 0.4999630078125 0.5937869921875
vt 0 0
vt 0.25 0.0625
vt 0 0.0625
vt 0.281243984375 0.24998800781249997
vt 0.2500180078125 0.18751199218750003
vt 0.281243984375 0.18751199218750003
vt 0.25 0.46875
vt 0.5 0.59375
vt 0.25 0.34375
vt 0.875 0.5000239843750001
vt 0.5 0.6249769921875
vt 0.875 0.6249760156249999
vt 0.125055 0.6249819921875
vt 0.5 0.5937680078125
vt 0.5 0.6249819921875
vt 0.1250469921875 0.18754699218750004
vt 0.25 0.25
vt 0.1250469921875 0.25
vt 0.375 0.0625
vt 0 0
vt 0 0.0625
vt 0.5 0.59375
vt 0.25 0.46875
vt 0.25 0.34375
vt 0.125 0.625
vt 0.375 0.372353984375
vt 0.5 0.625
vt 0.4999630078125 0.6249630078125
vt 0.1250369921875 0.5937869921875
vt 0.4999630078125 0.5937869921875
vt 0 0.0625
vt 0.3125 0
vt 0.3125 0.0625
vt 0.25 0
vt 0 0.0625
vt 0 0
vt 0.281243984375 0.24998800781249997
vt 0.2500180078125 0.18751199218750003
vt 0.281243984375 0.18751199218750003
vt 0.5 0.59375
vt 0.25 0.46875
vt 0.25 0.34375
vt 0.390625 0
vt 0.078125 0.0625
vt 0.078125 0
vt 0.125 0.5937680078125
vt 0.499945 0.6249819921875
vt 0.125 0.6249819921875
vt 0.1250469921875 0.25
vt 0.25 0.18754699218750004
vt 0.25 0.25
vt 0 0
vt 0.375 0.0625
vt 0 0.0625
vt 0.5 0.59375
vt 0.25 0.46875
vt 0.25 0.59375
vt 0.1250469921875 0.37504699218750004
vt 0.5 0.5
vt 0.5 0.37504699218750004
vt 0.5 0.59375
vt 0.1250369921875 0.6249630078125
vt 0.1250369921875 0.5937869921875
vt 0.125 0.625
vt 0.25 0.372353984375
vt 0.5 0.625
vt 0.125 0.625
vt 0.375 0.372353984375
vt 0.5 0.625
vt 0.1894969921875 0.6231569921875
vt 0.127081015625 0.6231569921875
vt 0.205725 0.38518199218750004
vt 0 0.5078119921875
vt 0 0.38281199218749995
vt 0.125 0.414096015625
vt 0 0.5078119921875
vt 0 0.38281199218749995
vt 0.125 0.414096015625
vt 0.875 0.5000239843750001
vt 0.5 0.6249769921875
vt 0.875 0.6249760156249999
vt 0.3125 0
vt 0 0.0625
vt 0 0
vt 0.453125 0.37504699218750004
vt 0.1250469921875 0.5
vt 0.453125 0.5
vt 0.328125 0
vt 0.015625 0.0625
vt 0.015625 0
vt 0.5 0.37504699218750004
vt 0.125 0.5
vt 0.5 0.5
vt 0.328125 0
vt 0.015625 0.0625
vt 0.015625 0
vt 0.3125 0
vt 0 0.0625
vt 0 0
vt 0.5 0.6249769921875
vt 0.875 0.5000239843750001
vt 0.875 0.6249760156249999
vt 0.015625 0
vt 0.390625 0.0625
vt 0.015625 0.0625
vt 0.875 0.6249760156249999
vt 0.5 0.5000239843750001
vt 0.875 0.5000239843750001
vt 0.390625 0
vt 0.015625 0.0625
vt 0.015625 0
vt 0.125 0.5078119921875
vt 0 0.5078119921875
vt 0 0.47656199218749995
vt 0 0.1875
vt 0.625 0.1875
vt 0.625 0.06256300781250002
vt 0 0.1875
vt 0.625 0.1875
vt 0.625 0.06256398437499999
vt 0.460931015625 0.7930819921875
vt 0.062501015625 0.8701119921875
vt 0.062501015625 0.7930819921875
vt 0.125 0.5078119921875
vt 0 0.5078119921875
vt 0 0.47656199218749995
vt 0.5 0.37504699218750004
vt 0.1250469921875 0.5
vt 0.5 0.5
vt 0.1250469921875 0.5
vt 0.5 0.37504699218750004
vt 0.5 0.5
vt 0.1250469921875 0.37504699218750004
vt 0.5 0.5
vt 0.5 0.37504699218750004
vt 0.25 0.6249530078125001
vt 0.1250469921875 0.6249530078125001
vt 0.1250469921875 0.5937969921874999
vt 0.1250469921875 0.5
vt 0.5 0.37504699218750004
vt 0.5 0.5
vt 0.875 0.6249760156249999
vt 0.5 0.5000239843750001
vt 0.875 0.5000239843750001
vt 0.1250469921875 0.5
vt 0.5 0.37504699218750004
vt 0.5 0.5
vt 0.5 0.5
vt 0.1250469921875 0.37504699218750004
vt 0.5 0.37504699218750004
vt 0.2500119921875 0.5937739843750001
vt 0.375 0.6249760156249999
vt 0.125023984375 0.6249760156249999
vt 0.9721919921875 0.6241399999999999
vt 0.523496015625 0.879858984375
vt 0.4997930078125 0.624146015625
vt 0.948656015625 0.8798530078125
vt 0.4997930078125 0.624146015625
vt 0.9721919921875 0.6241399999999999
vt 0.948656015625 0.8798530078125
vt 0.4997930078125 0.624146015625
vt 0.9721919921875 0.6241399999999999
vt 0.948656015625 0.8798530078125
vt 0.4997930078125 0.624146015625
vt 0.9721919921875 0.6241399999999999
vt 0.948656015625 0.8798530078125
vt 0.4997930078125 0.624146015625
vt 0.9721919921875 0.6241399999999999
vt 0.9721919921875 0.6241399999999999
vt 0.523496015625 0.879858984375
vt 0.4997930078125 0.624146015625
vt 0.948656015625 0.8798530078125
vt 0.4997930078125 0.624146015625
vt 0.9721919921875 0.6241399999999999
vt 0.448656015625 0.6262680078125
vt 0.0448380078125 0.881935
vt 0.023496015625 0.626273984375
vt 0.948656015625 0.8798530078125
vt 0.4997930078125 0.624146015625
vt 0.9721919921875 0.6241399999999999
vt 0.448656015625 0.6262680078125
vt 0.0448380078125 0.881935
vt 0.023496015625 0.626273984375
vt 0.448656015625 0.6262680078125
vt 0.0448380078125 0.881935
vt 0.023496015625 0.626273984375
vt 0.023496015625 0.626273984375
vt 0.4274819921875 0.881928984375
vt 0.0448380078125 0.881935
vt 0.448656015625 0.6262680078125
vt 0.0448380078125 0.881935
vt 0.023496015625 0.626273984375
vt 0.4274819921875 0.6259930078125
vt 0.064053984375 0.8816169921875
vt 0.0448380078125 0.6259980078125
vt 0.448656015625 0.6262680078125
vt 0.0448380078125 0.881935
vt 0.023496015625 0.626273984375
vt 0.023496015625 0.626273984375
vt 0.4274819921875 0.881928984375
vt 0.0448380078125 0.881935
vt 0.448656015625 0.6262680078125
vt 0.0448380078125 0.881935
vt 0.023496015625 0.626273984375
vt 0.0448380078125 0.6259980078125
vt 0.4084330078125 0.8816119921875
vt 0.064053984375 0.8816169921875
vt 0.0448380078125 0.6259980078125
vt 0.4084330078125 0.8816119921875
vt 0.064053984375 0.8816169921875
vt 0.03995 0.945365
vt 0.4084330078125 0.62583
vt 0.4327469921875 0.945358984375
vt 0.0448380078125 0.6259980078125
vt 0.4084330078125 0.8816119921875
vt 0.064053984375 0.8816169921875
vt 0.4274819921875 0.6259930078125
vt 0.064053984375 0.8816169921875
vt 0.0448380078125 0.6259980078125
vt 0.4274819921875 0.6259930078125
vt 0.064053984375 0.8816169921875
vt 0.0448380078125 0.6259980078125
vt 0.4274819921875 0.6259930078125
vt 0.064053984375 0.8816169921875
vt 0.0448380078125 0.6259980078125
vt 0.4274819921875 0.6259930078125
vt 0.064053984375 0.8816169921875
vt 0.0448380078125 0.6259980078125
vt 0.390625 0.0625
vt 0.015625 0
vt 0.390625 0
vt 0.390625 0.0625
vt 0.015625 0
vt 0.390625 0
vt 0.390625 0.0625
vt 0.015625 0
vt 0.390625 0
vt 0.390625 0.0625
vt 0.015625 0
vt 0.390625 0
vt 0.390625 0.0625
vt 0.015625 0
vt 0.390625 0
vt 0.390625 0.0625
vt 0.015625 0
vt 0.390625 0
vt 0.390625 0.007896992187499952
vt 0.0326730078125 0.05468800781250005
vt 0.015708984375 0.007896992187499952
vt 0.390625 0.0625
vt 0.015625 0
vt 0.390625 0
vt 0.390625 0.0625
vt 0.015625 0
vt 0.390625 0
vt 0.390625 0.007896992187499952
vt 0.0326730078125 0.05468800781250005
vt 0.015708984375 0.007896992187499952
vt 0.4327469921875 0.945358984375
vt 0.064053984375 0.6258349999999999
vt 0.4084330078125 0.62583
vt 0.390625 0.007896992187499952
vt 0.0326730078125 0.05468800781250005
vt 0.015708984375 0.007896992187499952
vt 0.015708984375 0.007896992187499952
vt 0.373661015625 0.05468800781250005
vt 0.0326730078125 0.05468800781250005
vt 0.390625 0.007896992187499952
vt 0.0326730078125 0.05468800781250005
vt 0.015708984375 0.007896992187499952
vt 0.390625 0.007896992187499952
vt 0.0326730078125 0.05468800781250005
vt 0.015708984375 0.007896992187499952
vt 0.390625 0.007896992187499952
vt 0.0326730078125 0.05468800781250005
vt 0.015708984375 0.007896992187499952
vt 0.390625 0.007896992187499952
vt 0.0326730078125 0.05468800781250005
vt 0.015708984375 0.007896992187499952
vt 0.015708984375 0.007896992187499952
vt 0.373661015625 0.05468800781250005
vt 0.0326730078125 0.05468800781250005
vt 0.03995 0.945365
vt 0.4084330078125 0.62583
vt 0.4327469921875 0.945358984375
vt 0.4327469921875 0.945358984375
vt 0.064053984375 0.6258349999999999
vt 0.4084330078125 0.62583
vt 0.03995 0.945365
vt 0.4084330078125 0.62583
vt 0.4327469921875 0.945358984375
vt 0.03995 0.945365
vt 0.4084330078125 0.62583
vt 0.4327469921875 0.945358984375
vt 0.03995 0.945365
vt 0.4084330078125 0.62583
vt 0.4327469921875 0.945358984375
vt 0.4327469921875 0.945358984375
vt 0.064053984375 0.6258349999999999
vt 0.4084330078125 0.62583
vt 0.630623984375 0.26191
vt 0.932656015625 0.012023007812499986
vt 0.948551015625 0.26191
vt 0.390625 0.007896992187499952
vt 0.0326730078125 0.05468800781250005
vt 0.015708984375 0.007896992187499952
vt 0.015708984375 0.007896992187499952
vt 0.373661015625 0.05468800781250005
vt 0.0326730078125 0.05468800781250005
vt 0.390625 0.007896992187499952
vt 0.0326730078125 0.05468800781250005
vt 0.015708984375 0.007896992187499952
vt 0.390625 0.007896992187499952
vt 0.0326730078125 0.05468800781250005
vt 0.015708984375 0.007896992187499952
vt 0.390625 0.007896992187499952
vt 0.0326730078125 0.05468800781250005
vt 0.015708984375 0.007896992187499952
vt 0.015708984375 0.007896992187499952
vt 0.373661015625 0.05468800781250005
vt 0.0326730078125 0.05468800781250005
vt 0.390625 0.007896992187499952
vt 0.0326730078125 0.05468800781250005
vt 0.015708984375 0.007896992187499952
vt 0.731756015625 0.012108984374999965
vt 0.736296015625 0.016648984374999953
vt 0.736296015625 0.023071015625000024
vt 0.630623984375 0.26191
vt 0.932656015625 0.012023007812499986
vt 0.948551015625 0.26191
vt 0.948551015625 0.26191
vt 0.6465219921875 0.012023007812499986
vt 0.932656015625 0.012023007812499986
vt 0.630623984375 0.26191
vt 0.932656015625 0.012023007812499986
vt 0.948551015625 0.26191
vt 0.630623984375 0.26191
vt 0.932656015625 0.012023007812499986
vt 0.948551015625 0.26191
vt 0.948551015625 0.26191
vt 0.6465219921875 0.012023007812499986
vt 0.932656015625 0.012023007812499986
vt 0.630623984375 0.26191
vt 0.932656015625 0.012023007812499986
vt 0.948551015625 0.26191
vt 0.948551015625 0.26191
vt 0.6465219921875 0.012023007812499986
vt 0.932656015625 0.012023007812499986
vt 0.5015769921875 0.6231569921875
vt 0.4229330078125 0.38518199218750004
vt 0.439161015625 0.6231569921875
vt 0.4229330078125 0.38518199218750004
vt 0.205725 0.38518199218750004
vt 0.439161015625 0.6231569921875
vt 0.205725 0.38518199218750004
vt 0.127081015625 0.6231569921875
vt 0.1894969921875 0.6231569921875
vt 0.25 0
vt 0.25 0.0625
vt 0 0.0625
vt 0.374993984375 0.24998800781249997
vt 0.343743984375 0.24998800781249997
vt 0.374993984375 0.18751199218750003
vt 0.343743984375 0.24998800781249997
vt 0.281243984375 0.24998800781249997
vt 0.343743984375 0.18751199218750003
vt 0.374993984375 0.18751199218750003
vt 0.343743984375 0.24998800781249997
vt 0.343743984375 0.18751199218750003
vt 0.281243984375 0.24998800781249997
vt 0.2500180078125 0.24998800781249997
vt 0.2500180078125 0.18751199218750003
vt 0.281243984375 0.18751199218750003
vt 0.343743984375 0.18751199218750003
vt 0.281243984375 0.24998800781249997
vt 0.5 0.59375
vt 0.25 0.59375
vt 0.25 0.46875
vt 0.390625 0
vt 0.390625 0.0625
vt 0.078125 0.0625
vt 0.1250369921875 0.5937869921875
vt 0.4999630078125 0.5937869921875
vt 0.4999630078125 0.6249630078125
vt 0.125023984375 0.6249760156249999
vt 0.125023984375 0.5937730078125
vt 0.2500119921875 0.6249760156249999
vt 0.125023984375 0.5937730078125
vt 0.375 0.5937739843750001
vt 0.2500119921875 0.6249760156249999
vt 0.1250469921875 0.25
vt 0.1250469921875 0.18754699218750004
vt 0.25 0.18754699218750004
vt 0.1250469921875 0.37504699218750004
vt 0.1250469921875 0.5
vt 0.5 0.5
vt 0 0.0625
vt 0.375 0.0625
vt 0.375 0
vt 0.5 0.59375
vt 0.25 0.34375
vt 0.25 0.46875
vt 0.5 0.59375
vt 0.5 0.625
vt 0.125 0.625
vt 0 0.0625
vt 0 0
vt 0.3125 0
vt 0.5 0.5
vt 0.1250469921875 0.5
vt 0.1250469921875 0.37504699218750004
vt 0 0
vt 0.25 0
vt 0.25 0.0625
vt 0.281243984375 0.18751199218750003
vt 0.343743984375 0.18751199218750003
vt 0.281243984375 0.24998800781249997
vt 0.343743984375 0.18751199218750003
vt 0.374993984375 0.18751199218750003
vt 0.343743984375 0.24998800781249997
vt 0.281243984375 0.24998800781249997
vt 0.343743984375 0.18751199218750003
vt 0.343743984375 0.24998800781249997
vt 0.374993984375 0.18751199218750003
vt 0.374993984375 0.24998800781249997
vt 0.343743984375 0.24998800781249997
vt 0.281243984375 0.24998800781249997
vt 0.2500180078125 0.24998800781249997
vt 0.2500180078125 0.18751199218750003
vt 0.25 0.46875
vt 0.25 0.59375
vt 0.5 0.59375
vt 0.1250369921875 0.6249630078125
vt 0.1250369921875 0.5937869921875
vt 0.4999630078125 0.5937869921875
vt 0.25 0.25
vt 0.1250469921875 0.25
vt 0.1250469921875 0.18754699218750004
vt 0.1250469921875 0.5
vt 0.1250469921875 0.37504699218750004
vt 0.5 0.37504699218750004
vt 0.375 0.0625
vt 0.375 0
vt 0 0
vt 0.1250469921875 0.5
vt 0.1250469921875 0.37504699218750004
vt 0.5 0.37504699218750004
vt 0.5 0.5
vt 0.1250469921875 0.5
vt 0.1250469921875 0.37504699218750004
vt 0.25 0.5937969921874999
vt 0.3749530078125 0.5937969921874999
vt 0.3749530078125 0.6249530078125001
vt 0.3749530078125 0.6249530078125001
vt 0.1250469921875 0.6249530078125001
vt 0.25 0.5937969921874999
vt 0.5 0.59375
vt 0.25 0.59375
vt 0.25 0.46875
vt 0.5 0.6249769921875
vt 0.5 0.5000239843750001
vt 0.875 0.5000239843750001
vt 0.4999630078125 0.6249630078125
vt 0.1250369921875 0.6249630078125
vt 0.1250369921875 0.5937869921875
vt 0 0
vt 0.25 0
vt 0.25 0.0625
vt 0.281243984375 0.18751199218750003
vt 0.343743984375 0.18751199218750003
vt 0.281243984375 0.24998800781249997
vt 0.343743984375 0.18751199218750003
vt 0.374993984375 0.18751199218750003
vt 0.343743984375 0.24998800781249997
vt 0.281243984375 0.24998800781249997
vt 0.343743984375 0.18751199218750003
vt 0.343743984375 0.24998800781249997
vt 0.374993984375 0.18751199218750003
vt 0.374993984375 0.24998800781249997
vt 0.343743984375 0.24998800781249997
vt 0.281243984375 0.24998800781249997
vt 0.2500180078125 0.24998800781249997
vt 0.2500180078125 0.18751199218750003
vt 0.25 0.46875
vt 0.25 0.59375
vt 0.5 0.59375
vt 0.875 0.5000239843750001
vt 0.5 0.5000239843750001
vt 0.5 0.6249769921875
vt 0.125055 0.6249819921875
vt 0.125055 0.593768984375
vt 0.5 0.5937680078125
vt 0.1250469921875 0.18754699218750004
vt 0.25 0.18754699218750004
vt 0.25 0.25
vt 0.375 0.0625
vt 0.375 0
vt 0 0
vt 0.5 0.59375
vt 0.25 0.59375
vt 0.25 0.46875
vt 0.4999630078125 0.6249630078125
vt 0.1250369921875 0.6249630078125
vt 0.1250369921875 0.5937869921875
vt 0 0.0625
vt 0 0
vt 0.3125 0
vt 0.25 0
vt 0.25 0.0625
vt 0 0.0625
vt 0.374993984375 0.24998800781249997
vt 0.343743984375 0.24998800781249997
vt 0.374993984375 0.18751199218750003
vt 0.343743984375 0.24998800781249997
vt 0.281243984375 0.24998800781249997
vt 0.343743984375 0.18751199218750003
vt 0.374993984375 0.18751199218750003
vt 0.343743984375 0.24998800781249997
vt 0.343743984375 0.18751199218750003
vt 0.281243984375 0.24998800781249997
vt 0.2500180078125 0.24998800781249997
vt 0.2500180078125 0.18751199218750003
vt 0.281243984375 0.18751199218750003
vt 0.343743984375 0.18751199218750003
vt 0.281243984375 0.24998800781249997
vt 0.5 0.59375
vt 0.25 0.59375
vt 0.25 0.46875
vt 0.390625 0
vt 0.390625 0.0625
vt 0.078125 0.0625
vt 0.125 0.5937680078125
vt 0.499945 0.593768984375
vt 0.499945 0.6249819921875
vt 0.1250469921875 0.25
vt 0.1250469921875 0.18754699218750004
vt 0.25 0.18754699218750004
vt 0 0
vt 0.375 0
vt 0.375 0.0625
vt 0.5 0.59375
vt 0.25 0.34375
vt 0.25 0.46875
vt 0.1250469921875 0.37504699218750004
vt 0.1250469921875 0.5
vt 0.5 0.5
vt 0.5 0.59375
vt 0.4999630078125 0.6249630078125
vt 0.1250369921875 0.6249630078125
vt 0.205725 0.38518199218750004
vt 0.4229330078125 0.38518199218750004
vt 0.439161015625 0.6231569921875
vt 0.4229330078125 0.38518199218750004
vt 0.5015769921875 0.6231569921875
vt 0.439161015625 0.6231569921875
vt 0.439161015625 0.6231569921875
vt 0.1894969921875 0.6231569921875
vt 0.205725 0.38518199218750004
vt 0.125 0.382846015625
vt 0.125 0.414096015625
vt 0 0.38281199218749995
vt 0.125 0.414096015625
vt 0.125 0.476596015625
vt 0 0.5078119921875
vt 0.125 0.476596015625
vt 0.125 0.5078119921875
vt 0 0.5078119921875
vt 0.125 0.382846015625
vt 0.125 0.414096015625
vt 0 0.38281199218749995
vt 0.125 0.414096015625
vt 0.125 0.476596015625
vt 0 0.5078119921875
vt 0.125 0.476596015625
vt 0.125 0.5078119921875
vt 0 0.5078119921875
vt 0.875 0.5000239843750001
vt 0.5 0.5000239843750001
vt 0.5 0.6249769921875
vt 0.3125 0
vt 0.3125 0.0625
vt 0 0.0625
vt 0.453125 0.37504699218750004
vt 0.1250469921875 0.37504699218750004
vt 0.1250469921875 0.5
vt 0.328125 0
vt 0.328125 0.0625
vt 0.015625 0.0625
vt 0.5 0.37504699218750004
vt 0.125 0.37504699218750004
vt 0.125 0.5
vt 0.328125 0
vt 0.328125 0.0625
vt 0.015625 0.0625
vt 0.3125 0
vt 0.3125 0.0625
vt 0 0.0625
vt 0.5 0.6249769921875
vt 0.5 0.5000239843750001
vt 0.875 0.5000239843750001
vt 0.015625 0
vt 0.390625 0
vt 0.390625 0.0625
vt 0.875 0.6249760156249999
vt 0.5 0.6249769921875
vt 0.5 0.5000239843750001
vt 0.390625 0
vt 0.390625 0.0625
vt 0.015625 0.0625
vt 0 0.47656199218749995
vt 0 0.41406199218749995
vt 0.125 0.5078119921875
vt 0 0.41406199218749995
vt 0 0.38281199218749995
vt 0.125 0.382846015625
vt 0.125 0.5078119921875
vt 0 0.41406199218749995
vt 0.125 0.382846015625
vt 0.625 0.1875
vt 0 0.4375
vt 0.625 0.4375
vt 0 0.1875
vt 0.625 0.06256300781250002
vt 0 0.0625
vt 0.625 0.1875
vt 0 0.1875
vt 0 0.4375
vt 0 0.1875
vt 0.625 0.06256398437499999
vt 0 0.0625
vt 0.625 0.1875
vt 0 0.1875
vt 0.625 0.4375
vt 0.625 0.4375
vt 0 0.1875
vt 0 0.4375
vt 0.460931015625 0.7930819921875
vt 0.460931015625 0.8701119921875
vt 0.062501015625 0.8701119921875
vt 0 0.47656199218749995
vt 0 0.41406199218749995
vt 0.125 0.5078119921875
vt 0 0.41406199218749995
vt 0 0.38281199218749995
vt 0.125 0.382846015625
vt 0.125 0.5078119921875
vt 0 0.41406199218749995
vt 0.125 0.382846015625
vt 0.5 0.37504699218750004
vt 0.1250469921875 0.37504699218750004
vt 0.1250469921875 0.5
vt 0.1250469921875 0.5
vt 0.1250469921875 0.37504699218750004
vt 0.5 0.37504699218750004
vt 0.1250469921875 0.37504699218750004
vt 0.1250469921875 0.5
vt 0.5 0.5
vt 0.1250469921875 0.5937969921874999
vt 0.3749530078125 0.5937969921874999
vt 0.25 0.6249530078125001
vt 0.3749530078125 0.5937969921874999
vt 0.3749530078125 0.6249530078125001
vt 0.25 0.6249530078125001
vt 0.1250469921875 0.5
vt 0.1250469921875 0.37504699218750004
vt 0.5 0.37504699218750004
vt 0.875 0.6249760156249999
vt 0.5 0.6249769921875
vt 0.5 0.5000239843750001
vt 0.1250469921875 0.5
vt 0.1250469921875 0.37504699218750004
vt 0.5 0.37504699218750004
vt 0.5 0.5
vt 0.1250469921875 0.5
vt 0.1250469921875 0.37504699218750004
vt 0.125023984375 0.6249760156249999
vt 0.125023984375 0.5937730078125
vt 0.2500119921875 0.5937739843750001
vt 0.2500119921875 0.5937739843750001
vt 0.375 0.5937739843750001
vt 0.375 0.6249760156249999
vt 0.9721919921875 0.6241399999999999
vt 0.948656015625 0.8798530078125
vt 0.523496015625 0.879858984375
vt 0.948656015625 0.8798530078125
vt 0.523496015625 0.879858984375
vt 0.4997930078125 0.624146015625
vt 0.948656015625 0.8798530078125
vt 0.523496015625 0.879858984375
vt 0.4997930078125 0.624146015625
vt 0.948656015625 0.8798530078125
vt 0.523496015625 0.879858984375
vt 0.4997930078125 0.624146015625
vt 0.948656015625 0.8798530078125
vt 0.523496015625 0.879858984375
vt 0.4997930078125 0.624146015625
vt 0.9721919921875 0.6241399999999999
vt 0.948656015625 0.8798530078125
vt 0.523496015625 0.879858984375
vt 0.948656015625 0.8798530078125
vt 0.523496015625 0.879858984375
vt 0.4997930078125 0.624146015625
vt 0.448656015625 0.6262680078125
vt 0.4274819921875 0.881928984375
vt 0.0448380078125 0.881935
vt 0.948656015625 0.8798530078125
vt 0.523496015625 0.879858984375
vt 0.4997930078125 0.624146015625
vt 0.448656015625 0.6262680078125
vt 0.4274819921875 0.881928984375
vt 0.0448380078125 0.881935
vt 0.448656015625 0.6262680078125
vt 0.4274819921875 0.881928984375
vt 0.0448380078125 0.881935
vt 0.023496015625 0.626273984375
vt 0.448656015625 0.6262680078125
vt 0.4274819921875 0.881928984375
vt 0.448656015625 0.6262680078125
vt 0.4274819921875 0.881928984375
vt 0.0448380078125 0.881935
vt 0.4274819921875 0.6259930078125
vt 0.4084330078125 0.8816119921875
vt 0.064053984375 0.8816169921875
vt 0.448656015625 0.6262680078125
vt 0.4274819921875 0.881928984375
vt 0.0448380078125 0.881935
vt 0.023496015625 0.626273984375
vt 0.448656015625 0.6262680078125
vt 0.4274819921875 0.881928984375
vt 0.448656015625 0.6262680078125
vt 0.4274819921875 0.881928984375
vt 0.0448380078125 0.881935
vt 0.0448380078125 0.6259980078125
vt 0.4274819921875 0.6259930078125
vt 0.4084330078125 0.8816119921875
vt 0.0448380078125 0.6259980078125
vt 0.4274819921875 0.6259930078125
vt 0.4084330078125 0.8816119921875
vt 0.03995 0.945365
vt 0.064053984375 0.6258349999999999
vt 0.4084330078125 0.62583
vt 0.0448380078125 0.6259980078125
vt 0.4274819921875 0.6259930078125
vt 0.4084330078125 0.8816119921875
vt 0.4274819921875 0.6259930078125
vt 0.4084330078125 0.8816119921875
vt 0.064053984375 0.8816169921875
vt 0.4274819921875 0.6259930078125
vt 0.4084330078125 0.8816119921875
vt 0.064053984375 0.8816169921875
vt 0.4274819921875 0.6259930078125
vt 0.4084330078125 0.8816119921875
vt 0.064053984375 0.8816169921875
vt 0.4274819921875 0.6259930078125
vt 0.4084330078125 0.8816119921875
vt 0.064053984375 0.8816169921875
vt 0.390625 0.0625
vt 0.015708984375 0.0625
vt 0.015625 0
vt 0.390625 0.0625
vt 0.015708984375 0.0625
vt 0.015625 0
vt 0.390625 0.0625
vt 0.015708984375 0.0625
vt 0.015625 0
vt 0.390625 0.0625
vt 0.015708984375 0.0625
vt 0.015625 0
vt 0.390625 0.0625
vt 0.015708984375 0.0625
vt 0.015625 0
vt 0.390625 0.0625
vt 0.015708984375 0.0625
vt 0.015625 0
vt 0.390625 0.007896992187499952
vt 0.373661015625 0.05468800781250005
vt 0.0326730078125 0.05468800781250005
vt 0.390625 0.0625
vt 0.015708984375 0.0625
vt 0.015625 0
vt 0.390625 0.0625
vt 0.015708984375 0.0625
vt 0.015625 0
vt 0.390625 0.007896992187499952
vt 0.373661015625 0.05468800781250005
vt 0.0326730078125 0.05468800781250005
vt 0.4327469921875 0.945358984375
vt 0.03995 0.945365
vt 0.064053984375 0.6258349999999999
vt 0.390625 0.007896992187499952
vt 0.373661015625 0.05468800781250005
vt 0.0326730078125 0.05468800781250005
vt 0.015708984375 0.007896992187499952
vt 0.390625 0.007896992187499952
vt 0.373661015625 0.05468800781250005
vt 0.390625 0.007896992187499952
vt 0.373661015625 0.05468800781250005
vt 0.0326730078125 0.05468800781250005
vt 0.390625 0.007896992187499952
vt 0.373661015625 0.05468800781250005
vt 0.0326730078125 0.05468800781250005
vt 0.390625 0.007896992187499952
vt 0.373661015625 0.05468800781250005
vt 0.0326730078125 0.05468800781250005
vt 0.390625 0.007896992187499952
vt 0.373661015625 0.05468800781250005
vt 0.0326730078125 0.05468800781250005
vt 0.015708984375 0.007896992187499952
vt 0.390625 0.007896992187499952
vt 0.373661015625 0.05468800781250005
vt 0.03995 0.945365
vt 0.064053984375 0.6258349999999999
vt 0.4084330078125 0.62583
vt 0.4327469921875 0.945358984375
vt 0.03995 0.945365
vt 0.064053984375 0.6258349999999999
vt 0.03995 0.945365
vt 0.064053984375 0.6258349999999999
vt 0.4084330078125 0.62583
vt 0.03995 0.945365
vt 0.064053984375 0.6258349999999999
vt 0.4084330078125 0.62583
vt 0.03995 0.945365
vt 0.064053984375 0.6258349999999999
vt 0.4084330078125 0.62583
vt 0.4327469921875 0.945358984375
vt 0.03995 0.945365
vt 0.064053984375 0.6258349999999999
vt 0.630623984375 0.26191
vt 0.6465219921875 0.012023007812499986
vt 0.932656015625 0.012023007812499986
vt 0.390625 0.007896992187499952
vt 0.373661015625 0.05468800781250005
vt 0.0326730078125 0.05468800781250005
vt 0.015708984375 0.007896992187499952
vt 0.390625 0.007896992187499952
vt 0.373661015625 0.05468800781250005
vt 0.390625 0.007896992187499952
vt 0.373661015625 0.05468800781250005
vt 0.0326730078125 0.05468800781250005
vt 0.390625 0.007896992187499952
vt 0.373661015625 0.05468800781250005
vt 0.0326730078125 0.05468800781250005
vt 0.390625 0.007896992187499952
vt 0.373661015625 0.05468800781250005
vt 0.0326730078125 0.05468800781250005
vt 0.015708984375 0.007896992187499952
vt 0.390625 0.007896992187499952
vt 0.373661015625 0.05468800781250005
vt 0.390625 0.007896992187499952
vt 0.373661015625 0.05468800781250005
vt 0.0326730078125 0.05468800781250005
vt 0.736296015625 0.023071015625000024
vt 0.731756015625 0.027611015625000013
vt 0.731756015625 0.012108984374999965
vt 0.731756015625 0.027611015625000013
vt 0.725333984375 0.027611015625000013
vt 0.731756015625 0.012108984374999965
vt 0.725333984375 0.027611015625000013
vt 0.720793984375 0.023071015625000024
vt 0.720793984375 0.016648984374999953
vt 0.720793984375 0.016648984374999953
vt 0.725333984375 0.012108984374999965
vt 0.725333984375 0.027611015625000013
vt 0.725333984375 0.012108984374999965
vt 0.731756015625 0.012108984374999965
vt 0.725333984375 0.027611015625000013
vt 0.630623984375 0.26191
vt 0.6465219921875 0.012023007812499986
vt 0.932656015625 0.012023007812499986
vt 0.948551015625 0.26191
vt 0.630623984375 0.26191
vt 0.6465219921875 0.012023007812499986
vt 0.630623984375 0.26191
vt 0.6465219921875 0.012023007812499986
vt 0.932656015625 0.012023007812499986
vt 0.630623984375 0.26191
vt 0.6465219921875 0.012023007812499986
vt 0.932656015625 0.012023007812499986
vt 0.948551015625 0.26191
vt 0.630623984375 0.26191
vt 0.6465219921875 0.012023007812499986
vt 0.630623984375 0.26191
vt 0.6465219921875 0.012023007812499986
vt 0.932656015625 0.012023007812499986
vt 0.948551015625 0.26191
vt 0.630623984375 0.26191
vt 0.6465219921875 0.012023007812499986
vt 0.5 0
vt 0.5 0.5
vt 0 0.5
vt 0.5 0
vt 0 0.5
vt 0.5 0.5
vt 0 0.5
vt 0.5 0
vt 0.5 0.5
vt 0.5 0.125
vt 0 0
vt 0 0.75
vt 0.5 0
vt 0.5 0.5
vt 0 0.5
vt 0 0.11718800781250005
vt 0 0
vt 0.5546880078125 0.11718800781250005
vt 0.5 0.125
vt 0.5 0.625
vt 0 0.75
vt 0 0.75
vt 0.5 0.75
vt 0.5 0.625
vt 0.5 0.125
vt 0.5 0
vt 0 0
vt 0 0.75
vt 0.5 0.625
vt 0.5 0.125
vt 0.5546880078125 0.11718800781250005
vt 0.5546880078125 0.328125
vt 0 0.328125
vt 0.5546880078125 0.328125
vt 0.5546880078125 0.671875
vt 0 0.671875
vt 0 0.8828119921875
vt 0.5546880078125 0.671875
vt 0.5546880078125 0.8828119921875
vt 0.5546880078125 0.8828119921875
vt 0.5546880078125 1
vt 0 1
vt 0.5546880078125 0.671875
vt 0 0.8828119921875
vt 0 0.671875
vt 0 0.8828119921875
vt 0.5546880078125 0.8828119921875
vt 0 1
vt 0 0
vt 0.5546880078125 0
vt 0.5546880078125 0.11718800781250005
vt 0 0.671875
vt 0 0.328125
vt 0.5546880078125 0.328125
vt 0 0.328125
vt 0 0.11718800781250005
vt 0.5546880078125 0.11718800781250005
vt 0.5 0.625
vt 0.5 0.75
vt 0 0.75
vt 0 0.75
vt 0 0
vt 0.5 0.125
vt 0 0
vt 0.5 0
vt 0.5 0.125
vt 0 0.875
vt 0.625 1
vt 0 1
vt 0 0.875
vt 0.625 0.75
vt 0.625 0.875
vt 0 0.875
vt 0.625 0.875
vt 0.625 1
vt 0 0.875
vt 0 0.75
vt 0.625 0.75
vn 0 1 0
vn 0 0 -1
vn -1 0 0
vn 0 1 0
vn 0 0 -1
vn -0.7071067811865476 0 -0.7071067811865476
vn 1 0 0
vn -1 0 0
vn 0 1 0
vn 0 0 1
vn 0 -1 0
vn 0 1 0
vn -0.7071067811865476 0 -0.7071067811865476
vn 0 0 1
vn 0 -1 0
vn 0 0 -1
vn 1 0 0
vn 0 1 0
vn 0.7071067811865476 0 -0.7071067811865476
vn 1 0 0
vn 0 1 0
vn 0 0 1
vn 0 -1 0
vn 0 1 0
vn -1 0 0
vn 0 -1 0
vn 0 -1 0
vn 0.7071067811865476 0 -0.7071067811865476
vn 0 0 1
vn -1 0 0
vn 0 1 0
vn 0 -1 0
vn -0.7071067811865476 0 0.7071067811865476
vn -1 0 0
vn 0 0 -1
vn 0 -1 0
vn 0 1 0
vn -0.7071067811865476 0 0.7071067811865476
vn 0 0 -1
vn 0 0 1
vn 1 0 0
vn 0 1 0
vn 0 0 1
vn 0.7071067811865476 0 0.7071067811865476
vn 1 0 0
vn 0 0 -1
vn 0 -1 0
vn 0 1 0
vn 0.7071067811865476 0 0.7071067811865476
vn 0 1 0
vn 0 1 0
vn 0 1 0
vn -1 0 0
vn 1 0 0
vn 0 -1 0
vn 0 0 1
vn 0 1 0
vn 0 0 -1
vn 0 1 0
vn 0 0 1
vn 0 0 -1
vn 0 -1 0
vn 0 0 1
vn 0 -1 0
vn 0 0 -1
vn -1 0 0
vn 0 1 0
vn 0 1 0
vn 0 -1 0
vn 1 0 0
vn 0 1 0
vn 0 1 0
vn 0 1 0
vn -1 0 0
vn 0 1 0
vn 0 -1 0
vn 0 -1 0
vn 0 -1 0
vn 1 0 0
vn -0.6935250424460282 0.19505391818794543 0.6935250424460282
vn 0.9807277438483623 0.1953793552197909 0
vn 0 0.1953793552197909 -0.9807277438483623
vn -0.6935250424460282 0.19505391818794543 -0.6935250424460282
vn 0 0.1953793552197909 0.9807277438483623
vn 0.6935250424460282 0.19505391818794543 -0.6935250424460282
vn -0.9807277438483623 0.1953793552197909 0
vn -0.6958108282788069 0.17802972364164785 0.6958108282788069
vn 0.6935250424460282 0.19505391818794543 0.6935250424460282
vn 0.6979001194897946 0.1608441681636636 -0.6979001194897946
vn 0.9839006424618184 0.17871632763466622 0
vn -0.6958108282788069 0.17802972364164787 -0.6958108282788069
vn 0 0.17871632763466622 0.9839006424618184
vn 0.6958108282788069 0.17802972364164785 -0.6958108282788069
vn -0.9839006424618184 0.17871632763466622 0
vn 0.6958108282788069 0.17802972364164787 0.6958108282788069
vn 0 0.17871632763466622 -0.9839006424618184
vn -0.697715646149601 -0.162436923869204 0.697715646149601
vn 0.6979001194897946 0.1608441681636636 0.6979001194897946
vn -0.6979001194897946 0.1608441681636636 0.6979001194897946
vn -0.6979001194897946 0.1608441681636636 -0.6979001194897946
vn 0 0.1600203865346791 -0.9871137097078999
vn 0.9871137097078999 0.1600203865346791 0
vn 0 0.1600203865346791 0.9871137097078999
vn -0.9871137097078999 0.1600203865346791 0
vn 0 0 -1
vn 0.7071067811865476 0 -0.7071067811865476
vn 1 0 0
vn 0.7071067811865476 0 0.7071067811865476
vn 0 0 1
vn -0.7071067811865476 0 0.7071067811865476
vn 0 1 0
vn -1 0 0
vn -0.7071067811865476 0 -0.7071067811865476
vn 0 -1 0
vn 0 -0.16189810234325697 0.9868074809493758
vn 0 -1 0
vn 0 -1 0
vn 0 -1 0
vn 0 -1 0
vn 0 -1 0
vn 0 -1 0
vn 0 -1 0
vn 0.9868074809493758 -0.16189810234325697 0
vn 0.697715646149601 -0.162436923869204 0.697715646149601
vn -0.9868074809493758 -0.16189810234325697 0
vn -0.697715646149601 -0.162436923869204 -0.697715646149601
vn 0 -0.16189810234325697 -0.9868074809493758
vn 0.697715646149601 -0.162436923869204 -0.697715646149601
vn -0.6974357160807111 0.16482367508938678 0.6974357160807111
vn 0 1 0
vn 0 1 0
vn 0 1 0
vn 0 1 0
vn 0 1 0
vn 0 1 0
vn 0 1 0
vn 0 1 0
vn 0.9864978747398456 0.1637740612361072 0
vn 0 0.16377406123610716 -0.9864978747398455
vn -0.9864978747398456 0.1637740612361072 0
vn 0 0.1637740612361072 0.9864978747398456
vn 0.697435716080711 0.16482367508938678 0.697435716080711
vn 0.6974357160807111 0.16482367508938678 -0.6974357160807111
vn -0.697435716080711 0.16482367508938678 -0.697435716080711
vn 0 1 0
vn 0 1 0
vn 0 1 0
vn 0 0 -1
vn -1 0 0
vn -1 0 0
vn -1 0 0
vn -1 0 0
vn -1 0 0
vn 0 1 0
vn 0 0 -1
vn -0.7071067811865476 0 -0.7071067811865476
vn 1 0 0
vn 1 0 0
vn -1 0 0
vn 0 1 0
vn 0 0 1
vn 0 -1 0
vn -0.7071067811865476 0 -0.7071067811865476
vn 0 0 1
vn 0 -1 0
vn 0 0 -1
vn 1 0 0
vn 1 0 0
vn 1 0 0
vn 1 0 0
vn 1 0 0
vn 0 1 0
vn 0.7071067811865476 0 -0.7071067811865476
vn 1 0 0
vn 0 1 0
vn 0 0 1
vn 0 -1 0
vn 0 1 0
vn -1 0 0
vn -1 0 0
vn 0 -1 0
vn 0 -1 0
vn 0.7071067811865476 0 -0.7071067811865476
vn 0 0 1
vn -1 0 0
vn -1 0 0
vn -1 0 0
vn -1 0 0
vn -1 0 0
vn 0 1 0
vn 0 -1 0
vn -0.7071067811865476 0 0.7071067811865476
vn -1 0 0
vn 0 0 -1
vn 0 -1 0
vn -0.7071067811865476 0 0.7071067811865476
vn 0 0 -1
vn 0 0 1
vn 1 0 0
vn 1 0 0
vn 1 0 0
vn 1 0 0
vn 1 0 0
vn 0 1 0
vn 0 0 1
vn 0.7071067811865476 0 0.7071067811865476
vn 1 0 0
vn 0 0 -1
vn 0 -1 0
vn 0 1 0
vn 0.7071067811865476 0 0.7071067811865476
vn 0 1 0
vn 0 1 0
vn 0 1 0
vn -1 0 0
vn -1 0 0
vn -1 0 0
vn 1 0 0
vn 1 0 0
vn 1 0 0
vn 0 -1 0
vn 0 0 1
vn 0 1 0
vn 0 0 -1
vn 0 1 0
vn 0 0 1
vn 0 0 -1
vn 0 -1 0
vn 0 0 1
vn 0 -1 0
vn 0 0 -1
vn -1 0 0
vn -1 0 0
vn -1 0 0
vn 0 1 0
vn 0 1 0
vn 0 1 0
vn 0 1 0
vn 0 1 0
vn 0 1 0
vn 0 -1 0
vn 1 0 0
vn 1 0 0
vn 1 0 0
vn 0 1 0
vn 0 1 0
vn 0 1 0
vn -1 0 0
vn -1 0 0
vn 0 1 0
vn 0 -1 0
vn 0 -1 0
vn 0 -1 0
vn 1 0 0
vn 1 0 0
vn -0.6935250424460282 0.19505391818794546 0.6935250424460282
vn 0.9807277438483623 0.1953793552197909 0
vn 0 0.1953793552197909 -0.9807277438483623
vn -0.6935250424460282 0.19505391818794546 -0.6935250424460282
vn 0 0.1953793552197909 0.9807277438483623
vn 0.6935250424460282 0.19505391818794546 -0.6935250424460282
vn -0.9807277438483623 0.1953793552197909 0
vn -0.6958108282788069 0.17802972364164787 0.6958108282788069
vn 0.6935250424460282 0.19505391818794546 0.6935250424460282
vn 0.6979001194897946 0.1608441681636636 -0.6979001194897946
vn 0.9839006424618184 0.17871632763466622 0
vn -0.6958108282788069 0.17802972364164785 -0.6958108282788069
vn 0 0.17871632763466622 0.9839006424618184
vn 0.6958108282788069 0.17802972364164787 -0.6958108282788069
vn -0.9839006424618184 0.17871632763466622 0
vn 0.6958108282788069 0.17802972364164785 0.6958108282788069
vn 0 0.17871632763466622 -0.9839006424618184
vn -0.697715646149601 -0.162436923869204 0.697715646149601
vn 0.6979001194897946 0.1608441681636636 0.6979001194897946
vn -0.6979001194897946 0.1608441681636636 0.6979001194897946
vn -0.6979001194897946 0.1608441681636636 -0.6979001194897946
vn 0 0.1600203865346791 -0.9871137097079
vn 0.9871137097079 0.1600203865346791 0
vn 0 0.1600203865346791 0.9871137097079
vn -0.9871137097079 0.1600203865346791 0
vn 0 0 -1
vn 0.7071067811865476 0 -0.7071067811865476
vn 1 0 0
vn 0.7071067811865476 0 0.7071067811865476
vn 0 0 1
vn -0.7071067811865476 0 0.7071067811865476
vn 0 1 0
vn -1 0 0
vn -0.7071067811865476 0 -0.7071067811865476
vn 0 -1 0
vn 0 -0.16189810234325697 0.9868074809493758
vn 0 -1 0
vn 0 -1 0
vn 0 -1 0
vn 0 -1 0
vn 0 -1 0
vn 0 -1 0
vn 0 -1 0
vn 0.9868074809493758 -0.16189810234325697 0
vn 0.697715646149601 -0.162436923869204 0.697715646149601
vn -0.9868074809493758 -0.16189810234325697 0
vn -0.697715646149601 -0.162436923869204 -0.697715646149601
vn 0 -0.16189810234325697 -0.9868074809493758
vn 0.697715646149601 -0.162436923869204 -0.697715646149601
vn -0.697435716080711 0.16482367508938678 0.697435716080711
vn 0 1 0
vn 0 1 0
vn 0 1 0
vn 0 1 0
vn 0 1 0
vn 0 1 0
vn 0 1 0
vn 0 1 0
vn 0 1 0
vn 0 1 0
vn 0 1 0
vn 0 1 0
vn 0.9864978747398455 0.16377406123610716 0
vn 0 0.1637740612361072 -0.9864978747398456
vn -0.9864978747398455 0.16377406123610716 0
vn 0 0.16377406123610716 0.9864978747398455
vn 0.6974357160807111 0.16482367508938678 0.6974357160807111
vn 0.697435716080711 0.16482367508938678 -0.697435716080711
vn -0.6974357160807111 0.16482367508938678 -0.6974357160807111
vn 0 -1 0
vn 0 -1 0
vn 0 -1 0
vn 0 -1 0
vn 0 -1 0
vn 0 -1 0
vn 0 -1 0
vn 0 -1 0
vn 0 -1 0
vn 0 -1 0
vn 0 -1 0
vn 0 -1 0
vn 0 -1 0
vn 0 -1 0
vn 0 -1 0
vn 0 -1 0
vn 0 -1 0
vn 0 -1 0
vn 0 -1 0
vn 0 -1 0
vn 0 -1 0
vn 0 -1 0
vn 0 0 -1
vn 0 0 1
vn 0 0 -1
vn 0 0 1
usemtl m_f697c660-651c-3627-f30d-b324dfa25e94
f 1/1/1 2/2/1 3/3/1
f 4/4/2 5/5/2 6/6/2
f 7/7/3 8/8/3 9/9/3
f 10/10/4 11/11/4 12/12/4
f 13/13/5 14/14/5 15/15/5
f 16/16/6 17/17/6 18/18/6
f 19/19/7 20/20/7 21/21/7
f 22/22/8 23/23/8 24/24/8
f 25/25/9 26/26/9 27/27/9
f 28/28/10 29/29/10 30/30/10
f 31/31/11 32/32/11 33/33/11
f 34/34/12 35/35/12 36/36/12
f 37/37/13 38/38/13 39/39/13
f 40/40/14 41/41/14 42/42/14
f 43/43/15 44/44/15 45/45/15
f 46/46/16 47/47/16 48/48/16
f 49/49/17 50/50/17 51/51/17
f 52/52/18 53/53/18 54/54/18
f 55/55/19 56/56/19 57/57/19
f 58/58/20 59/59/20 60/60/20
f 61/61/21 62/62/21 63/63/21
f 64/64/22 65/65/22 66/66/22
f 67/67/23 68/68/23 69/69/23
f 70/70/24 71/71/24 72/72/24
f 73/73/25 74/74/25 75/75/25
f 76/76/26 77/77/26 78/78/26
f 79/79/27 80/80/27 81/81/27
f 82/82/28 83/83/28 84/84/28
f 85/85/29 86/86/29 87/87/29
f 88/88/30 89/89/30 90/90/30
f 91/91/31 92/92/31 93/93/31
f 94/94/32 95/95/32 96/96/32
f 97/97/33 98/98/33 99/99/33
f 100/100/34 101/101/34 102/102/34
f 103/103/35 104/104/35 105/105/35
f 106/106/36 107/107/36 108/108/36
f 109/109/37 110/110/37 111/111/37
f 112/112/38 113/113/38 114/114/38
f 115/115/39 116/116/39 117/117/39
f 118/118/40 119/119/40 120/120/40
f 121/121/41 122/122/41 123/123/41
f 124/124/42 125/125/42 126/126/42
f 127/127/43 128/128/43 129/129/43
f 130/130/44 131/131/44 132/132/44
f 133/133/45 134/134/45 135/135/45
f 136/136/46 137/137/46 138/138/46
f 139/139/47 140/140/47 141/141/47
f 142/142/48 143/143/48 144/144/48
f 145/145/49 146/146/49 147/147/49
f 148/148/50 149/149/50 150/150/50
f 151/151/51 152/152/51 153/153/51
f 154/154/52 155/155/52 156/156/52
f 157/157/53 158/158/53 159/159/53
f 160/160/54 161/161/54 162/162/54
f 163/163/55 164/164/55 165/165/55
f 166/166/56 167/167/56 168/168/56
f 169/169/57 170/170/57 171/171/57
f 172/172/58 173/173/58 174/174/58
f 175/175/59 176/176/59 177/177/59
f 178/178/60 179/179/60 180/180/60
f 181/181/61 182/182/61 183/183/61
f 184/184/62 185/185/62 186/186/62
f 187/187/63 188/188/63 189/189/63
f 190/190/64 191/191/64 192/192/64
f 193/193/65 194/194/65 195/195/65
f 196/196/66 197/197/66 198/198/66
f 199/199/67 200/200/67 201/201/67
f 202/202/68 203/203/68 204/204/68
f 205/205/69 206/206/69 207/207/69
f 208/208/70 209/209/70 210/210/70
f 211/211/71 212/212/71 213/213/71
f 214/214/72 215/215/72 216/216/72
f 217/217/73 218/218/73 219/219/73
f 220/220/74 221/221/74 222/222/74
f 223/223/75 224/224/75 225/225/75
f 226/226/76 227/227/76 228/228/76
f 229/229/77 230/230/77 231/231/77
f 232/232/78 233/233/78 234/234/78
f 235/235/79 236/236/79 237/237/79
f 238/238/80 239/239/80 240/240/80
f 241/241/81 242/242/81 243/243/81
f 244/244/82 245/245/82 246/246/82
f 247/247/83 248/248/83 249/249/83
f 250/250/84 251/251/84 252/252/84
f 253/253/85 254/254/85 255/255/85
f 256/256/86 257/257/86 258/258/86
f 259/259/87 260/260/87 261/261/87
f 262/262/88 263/263/88 264/264/88
f 265/265/89 266/266/89 267/267/89
f 268/268/90 269/269/90 270/270/90
f 271/271/91 272/272/91 273/273/91
f 274/274/92 275/275/92 276/276/92
f 277/277/93 278/278/93 279/279/93
f 280/280/94 281/281/94 282/282/94
f 283/283/95 284/284/95 285/285/95
f 286/286/96 287/287/96 288/288/96
f 289/289/97 290/290/97 291/291/97
f 292/292/98 293/293/98 294/294/98
f 295/295/99 296/296/99 297/297/99
f 298/298/100 299/299/100 300/300/100
f 301/301/101 302/302/101 303/303/101
f 304/304/102 305/305/102 306/306/102
f 307/307/103 308/308/103 309/309/103
f 310/310/104 311/311/104 312/312/104
f 313/313/105 314/314/105 315/315/105
f 316/316/106 317/317/106 318/318/106
f 319/319/107 320/320/107 321/321/107
f 322/322/108 323/323/108 324/324/108
f 325/325/109 326/326/109 327/327/109
f 328/328/110 329/329/110 330/330/110
f 331/331/111 332/332/111 333/333/111
f 334/334/112 335/335/112 336/336/112
f 337/337/113 338/338/113 339/339/113
f 340/340/114 341/341/114 342/342/114
f 343/343/115 344/344/115 345/345/115
f 346/346/116 347/347/116 348/348/116
f 349/349/117 350/350/117 351/351/117
f 352/352/118 353/353/118 354/354/118
f 355/355/119 356/356/119 357/357/119
f 358/358/120 359/359/120 360/360/120
f 361/361/121 362/362/121 363/363/121
f 364/364/122 365/365/122 366/366/122
f 367/367/123 368/368/123 369/369/123
f 370/370/124 371/371/124 372/372/124
f 373/373/125 374/374/125 375/375/125
f 376/376/126 377/377/126 378/378/126
f 379/379/127 380/380/127 381/381/127
f 382/382/128 383/383/128 384/384/128
f 385/385/129 386/386/129 387/387/129
f 388/388/130 389/389/130 390/390/130
f 391/391/131 392/392/131 393/393/131
f 394/394/132 395/395/132 396/396/132
f 397/397/133 398/398/133 399/399/133
f 400/400/134 401/401/134 402/402/134
f 403/403/135 404/404/135 405/405/135
f 406/406/136 407/407/136 408/408/136
f 409/409/137 410/410/137 411/411/137
f 412/412/138 413/413/138 414/414/138
f 415/415/139 416/416/139 417/417/139
f 418/418/140 419/419/140 420/420/140
f 421/421/141 422/422/141 423/423/141
f 424/424/142 425/425/142 426/426/142
f 427/427/143 428/428/143 429/429/143
f 430/430/144 431/431/144 432/432/144
f 433/433/145 434/434/145 435/435/145
f 436/436/146 437/437/146 438/438/146
f 439/439/147 440/440/147 441/441/147
f 442/442/148 443/443/148 444/444/148
f 445/445/149 446/446/149 447/447/149
f 448/448/150 449/449/150 450/450/150
f 451/451/151 452/452/151 453/453/151
f 454/454/152 455/455/152 456/456/152
f 457/457/153 458/458/153 459/459/153
f 460/460/154 461/461/154 462/462/154
f 463/463/155 464/464/155 465/465/155
f 466/466/156 467/467/156 468/468/156
f 469/469/157 470/470/157 471/471/157
f 472/472/158 473/473/158 474/474/158
f 475/475/159 476/476/159 477/477/159
f 478/478/160 479/479/160 480/480/160
f 481/481/161 482/482/161 483/483/161
f 484/484/162 485/485/162 486/486/162
f 487/487/163 488/488/163 489/489/163
f 490/490/164 491/491/164 492/492/164
f 493/493/165 494/494/165 495/495/165
f 496/496/166 497/497/166 498/498/166
f 499/499/167 500/500/167 501/501/167
f 502/502/168 503/503/168 504/504/168
f 505/505/169 506/506/169 507/507/169
f 508/508/170 509/509/170 510/510/170
f 511/511/171 512/512/171 513/513/171
f 514/514/172 515/515/172 516/516/172
f 517/517/173 518/518/173 519/519/173
f 520/520/174 521/521/174 522/522/174
f 523/523/175 524/524/175 525/525/175
f 526/526/176 527/527/176 528/528/176
f 529/529/177 530/530/177 531/531/177
f 532/532/178 533/533/178 534/534/178
f 535/535/179 536/536/179 537/537/179
f 538/538/180 539/539/180 540/540/180
f 541/541/181 542/542/181 543/543/181
f 544/544/182 545/545/182 546/546/182
f 547/547/183 548/548/183 549/549/183
f 550/550/184 551/551/184 552/552/184
f 553/553/185 554/554/185 555/555/185
f 556/556/186 557/557/186 558/558/186
f 559/559/187 560/560/187 561/561/187
f 562/562/188 563/563/188 564/564/188
f 565/565/189 566/566/189 567/567/189
f 568/568/190 569/569/190 570/570/190
f 571/571/191 572/572/191 573/573/191
f 574/574/192 575/575/192 576/576/192
f 577/577/193 578/578/193 579/579/193
f 580/580/194 581/581/194 582/582/194
f 583/583/195 584/584/195 585/585/195
f 586/586/196 587/587/196 588/588/196
f 589/589/197 590/590/197 591/591/197
f 592/592/198 593/593/198 594/594/198
f 595/595/199 596/596/199 597/597/199
f 598/598/200 599/599/200 600/600/200
f 601/601/201 602/602/201 603/603/201
f 604/604/202 605/605/202 606/606/202
f 607/607/203 608/608/203 609/609/203
f 610/610/204 611/611/204 612/612/204
f 613/613/205 614/614/205 615/615/205
f 616/616/206 617/617/206 618/618/206
f 619/619/207 620/620/207 621/621/207
f 622/622/208 623/623/208 624/624/208
f 625/625/209 626/626/209 627/627/209
f 628/628/210 629/629/210 630/630/210
f 631/631/211 632/632/211 633/633/211
f 634/634/212 635/635/212 636/636/212
f 637/637/213 638/638/213 639/639/213
f 640/640/214 641/641/214 642/642/214
f 643/643/215 644/644/215 645/645/215
f 646/646/216 647/647/216 648/648/216
f 649/649/217 650/650/217 651/651/217
f 652/652/218 653/653/218 654/654/218
f 655/655/219 656/656/219 657/657/219
f 658/658/220 659/659/220 660/660/220
f 661/661/221 662/662/221 663/663/221
f 664/664/222 665/665/222 666/666/222
f 667/667/223 668/668/223 669/669/223
f 670/670/224 671/671/224 672/672/224
f 673/673/225 674/674/225 675/675/225
f 676/676/226 677/677/226 678/678/226
f 679/679/227 680/680/227 681/681/227
f 682/682/228 683/683/228 684/684/228
f 685/685/229 686/686/229 687/687/229
f 688/688/230 689/689/230 690/690/230
f 691/691/231 692/692/231 693/693/231
f 694/694/232 695/695/232 696/696/232
f 697/697/233 698/698/233 699/699/233
f 700/700/234 701/701/234 702/702/234
f 703/703/235 704/704/235 705/705/235
f 706/706/236 707/707/236 708/708/236
f 709/709/237 710/710/237 711/711/237
f 712/712/238 713/713/238 714/714/238
f 715/715/239 716/716/239 717/717/239
f 718/718/240 719/719/240 720/720/240
f 721/721/241 722/722/241 723/723/241
f 724/724/242 725/725/242 726/726/242
f 727/727/243 728/728/243 729/729/243
f 730/730/244 731/731/244 732/732/244
f 733/733/245 734/734/245 735/735/245
f 736/736/246 737/737/246 738/738/246
f 739/739/247 740/740/247 741/741/247
f 742/742/248 743/743/248 744/744/248
f 745/745/249 746/746/249 747/747/249
f 748/748/250 749/749/250 750/750/250
f 751/751/251 752/752/251 753/753/251
f 754/754/252 755/755/252 756/756/252
f 757/757/253 758/758/253 759/759/253
f 760/760/254 761/761/254 762/762/254
f 763/763/255 764/764/255 765/765/255
f 766/766/256 767/767/256 768/768/256
f 769/769/257 770/770/257 771/771/257
f 772/772/258 773/773/258 774/774/258
f 775/775/259 776/776/259 777/777/259
f 778/778/260 779/779/260 780/780/260
f 781/781/261 782/782/261 783/783/261
f 784/784/262 785/785/262 786/786/262
f 787/787/263 788/788/263 789/789/263
f 790/790/264 791/791/264 792/792/264
f 793/793/265 794/794/265 795/795/265
f 796/796/266 797/797/266 798/798/266
f 799/799/267 800/800/267 801/801/267
f 802/802/268 803/803/268 804/804/268
f 805/805/269 806/806/269 807/807/269
f 808/808/270 809/809/270 810/810/270
f 811/811/271 812/812/271 813/813/271
f 814/814/272 815/815/272 816/816/272
f 817/817/273 818/818/273 819/819/273
f 820/820/274 821/821/274 822/822/274
f 823/823/275 824/824/275 825/825/275
f 826/826/276 827/827/276 828/828/276
f 829/829/277 830/830/277 831/831/277
f 832/832/278 833/833/278 834/834/278
f 835/835/279 836/836/279 837/837/279
f 838/838/280 839/839/280 840/840/280
f 841/841/281 842/842/281 843/843/281
f 844/844/282 845/845/282 846/846/282
f 847/847/283 848/848/283 849/849/283
f 850/850/284 851/851/284 852/852/284
f 853/853/285 854/854/285 855/855/285
f 856/856/286 857/857/286 858/858/286
f 859/859/287 860/860/287 861/861/287
f 862/862/288 863/863/288 864/864/288
f 865/865/289 866/866/289 867/867/289
f 868/868/290 869/869/290 870/870/290
f 871/871/291 872/872/291 873/873/291
f 874/874/292 875/875/292 876/876/292
f 877/877/293 878/878/293 879/879/293
f 880/880/294 881/881/294 882/882/294
f 883/883/295 884/884/295 885/885/295
f 886/886/296 887/887/296 888/888/296
f 889/889/297 890/890/297 891/891/297
f 892/892/298 893/893/298 894/894/298
f 895/895/299 896/896/299 897/897/299
f 898/898/300 899/899/300 900/900/300
f 901/901/301 902/902/301 903/903/301
f 904/904/302 905/905/302 906/906/302
f 907/907/303 908/908/303 909/909/303
f 910/910/304 911/911/304 912/912/304
f 913/913/305 914/914/305 915/915/305
f 916/916/306 917/917/306 918/918/306
f 919/919/307 920/920/307 921/921/307
f 922/922/308 923/923/308 924/924/308
f 925/925/309 926/926/309 927/927/309
f 928/928/310 929/929/310 930/930/310
f 931/931/311 932/932/311 933/933/311
f 934/934/312 935/935/312 936/936/312
f 937/937/313 938/938/313 939/939/313
f 940/940/314 941/941/314 942/942/314
f 943/943/315 944/944/315 945/945/315
f 946/946/316 947/947/316 948/948/316
f 949/949/317 950/950/317 951/951/317
f 952/952/318 953/953/318 954/954/318
f 955/955/319 956/956/319 957/957/319
f 958/958/320 959/959/320 960/960/320
f 961/961/321 962/962/321 963/963/321
f 964/964/322 965/965/322 966/966/322
f 967/967/323 968/968/323 969/969/323
f 970/970/324 971/971/324 972/972/324
usemtl m_4274f88e-010f-c548-57df-b27e3387830b
f 973/973/325 974/974/325 975/975/325
f 976/976/326 977/977/326 978/978/326
f 979/979/327 980/980/327 981/981/327
f 982/982/328 983/983/328 984/984/328
f 985/985/329 986/986/329 987/987/329
f 988/988/330 989/989/330 990/990/330
f 991/991/331 992/992/331 993/993/331
f 994/994/332 995/995/332 996/996/332
f 997/997/333 998/998/333 999/999/333
f 1000/1000/334 1001/1001/334 1002/1002/334
f 1003/1003/335 1004/1004/335 1005/1005/335
f 1006/1006/336 1007/1007/336 1008/1008/336
f 1009/1009/337 1010/1010/337 1011/1011/337
f 1012/1012/338 1013/1013/338 1014/1014/338
f 1015/1015/339 1016/1016/339 1017/1017/339
f 1018/1018/340 1019/1019/340 1020/1020/340
f 1021/1021/341 1022/1022/341 1023/1023/341
f 1024/1024/342 1025/1025/342 1026/1026/342
f 1027/1027/343 1028/1028/343 1029/1029/343
f 1030/1030/344 1031/1031/344 1032/1032/344
f 1033/1033/345 1034/1034/345 1035/1035/345
f 1036/1036/346 1037/1037/346 1038/1038/346
usemtl m_9860b512-efa9-331c-182d-cc9fd5f4c810
f 1039/1039/347 1040/1040/347 1041/1041/347
f 1042/1042/348 1043/1043/348 1044/1044/348
f 1045/1045/349 1046/1046/349 1047/1047/349
f 1048/1048/350 1049/1049/350 1050/1050/350