# Made in Blockbench 4.12.6
mtllib distiller.mtl

o base
v 0.0625 1.1875 -1
v 0.0625 1.6875 -1
v 0.0625 1.6875 -0.9375
v 0.0625 1.1875 -0.9375
v 0 1.6875 -0.9375
v 0 1.1875 -0.9375
v 0 1.6875 -1
v 0 1.1875 -1
v 0.0625 1.1875 0.9375
v 0.0625 1.6875 0.9375
v 0.0625 1.6875 1
v 0.0625 1.1875 1
v 0 1.6875 1
v 0 1.1875 1
v 0 1.6875 0.9375
v 0 1.1875 0.9375
v 0.0625 0.3125 0.9375
v 0.0625 0.3125 1
v -0.0625 1.1875 1
v -0.0625 0.3125 1
v -0.0625 1.1875 0.9375
v -0.0625 0.3125 0.9375
v 0.0625 0.3125 -1
v 0.0625 0.3125 -0.9375
v -0.0625 1.1875 -0.9375
v -0.0625 0.3125 -0.9375
v -0.0625 1.1875 -1
v -0.0625 0.3125 -1
v 2 0.3125 -1
v 2 1.6875 -1
v 2 1.6875 -0.9375
v 2 0.3125 -0.9375
v 1.9375 1.6875 -0.9375
v 1.9375 0.3125 -0.9375
v 1.9375 1.6875 -1
v 1.9375 0.3125 -1
v 1.99875 0.3125 0.9375
v 1.99875 1.6875 0.9375
v 1.99875 1.6875 1
v 1.99875 0.3125 1
v 1.93625 1.6875 1
v 1.93625 0.3125 1
v 1.93625 1.6875 0.9375
v 1.93625 0.3125 0.9375
v -0.93625 0.3125 0.9375
v -0.93625 1.1875 0.9375
v -0.93625 1.1875 1
v -0.93625 0.3125 1
v -0.99875 1.1875 1
v -0.99875 0.3125 1
v -0.99875 1.1875 0.9375
v -0.99875 0.3125 0.9375
v -0.9375 0.3125 -1
v -0.9375 1.1875 -1
v -0.9375 1.1875 -0.9375
v -0.9375 0.3125 -0.9375
v -1 1.1875 -0.9375
v -1 0.3125 -0.9375
v -1 1.1875 -1
v -1 0.3125 -1
v 1.25 -0.5 1.625
v 1.25 0 1.625
v 1.25 0 1.875
v 1.25 -0.5 1.875
v 1.125 0 1.875
v 1.125 -0.5 1.875
v 1.125 0 1.625
v 1.125 -0.5 1.625
v 1.875 -0.5 1.625
v 1.875 0 1.625
v 1.875 0 1.875
v 1.875 -0.5 1.875
v 1.75 0 1.875
v 1.75 -0.5 1.875
v 1.75 0 1.625
v 1.75 -0.5 1.625
v 1 -0.375 0.75
v 1 -0.125 0.75
v 1 -0.125 0.875
v 1 -0.375 0.875
v 0 -0.125 0.875
v 0 -0.375 0.875
v 0 -0.125 0.75
v 0 -0.375 0.75
v 1.68775 -0.375 -0.875
v 1.68775 -0.125 -0.875
v 1.68775 -0.125 -0.75
v 1.68775 -0.375 -0.75
v 1.00025 -0.125 -0.75
v 1.00025 -0.375 -0.75
v 1.00025 -0.125 -0.875
v 1.00025 -0.375 -0.875
v 0 -0.375 -0.875
v 0 -0.125 -0.875
v 0 -0.125 -0.75
v 0 -0.375 -0.75
v -0.6875 -0.125 -0.75
v -0.6875 -0.375 -0.75
v -0.6875 -0.125 -0.875
v -0.6875 -0.375 -0.875
v 1.8755 -0.375 -0.6875
v 1.8755 -0.125 -0.6875
v 1.8755 -0.125 0
v 1.8755 -0.375 0
v 1.7505 -0.125 0
v 1.7505 -0.375 0
v 1.7505 -0.125 -0.6875
v 1.7505 -0.375 -0.6875
v -0.7505 -0.375 -0.6875
v -0.7505 -0.125 -0.6875
v -0.7505 -0.125 0
v -0.7505 -0.375 0
v -0.8755 -0.125 0
v -0.8755 -0.375 0
v -0.8755 -0.125 -0.6875
v -0.8755 -0.375 -0.6875
v -0.688 -0.5 -0.9375
v -0.688 0 -0.9375
v -0.688 0 -0.6875
v -0.688 -0.5 -0.6875
v -0.938 0 -0.6875
v -0.938 -0.5 -0.6875
v -0.938 0 -0.9375
v -0.938 -0.5 -0.9375
v 1.9375 -0.5 -0.9375
v 1.9375 0 -0.9375
v 1.9375 0 -0.6875
v 1.9375 -0.5 -0.6875
v 1.6875 0 -0.6875
v 1.6875 -0.5 -0.6875
v 1.6875 0 -0.9375
v 1.6875 -0.5 -0.9375
v -0.9375 1.1875 0.9375
v -0.9375 0.3125 0.9375
v 0 1.5 -1
v 0 1.5 1
v -1 1.5 1
v -1 1.1875 1
v -1 1.5 -1
v 1.9375 1.6875 0.9375
v 1.9375 0.3125 0.9375
v 2 2 -1
v 2 2 1
v 2 1.6875 1
v 0 2 1
v 0 2 -1
v 2 0 -1
v 2 0.3125 1
v 2 0 1
v -1 0.3125 1
v -1 0 1
v -1 0 -1
v 2 0 1.5
v 2 1 1.5
v 2 1 2
v 2 0 2
v 1 1 2
v 1 0 2
v 1 1 1.5
v 1 0 1.5
v 1 -0.5 -1
v 1 0 -1
v 1 0 0
v 1 -0.5 0
v 0 0 0
v 0 -0.5 0
v 0 0 -1
v 0 -0.5 -1
v 2 -0.5 0
v 2 0 0
v 2 -0.5 1
v 1 0 1
v 1 -0.5 1
v 0 0 1
v 0 -0.5 1
v -1 -0.5 1
v -1 0 0
v -1 -0.5 0
v 0 -0.5 1.000046
v 0 1 1
v 0 1 2
v 0 -0.5 2.000046
v -1 1 2
v -1 -0.5 2.000046
v -1 1 1
v -1 -0.5 1.000046
v 2 -1 -1
v 2 -0.5 -1
v 2 -0.5 2
v 2 -1 2
v -1 -0.5 2
v -1 -1 2
v -1 -0.5 -1
v -1 -1 -1
vt 0.398438 0.3125
vt 0.398438 0.375
vt 0.40625 0.375
vt 0.40625 0.3125
vt 0.390625 0.3125
vt 0.390625 0.375
vt 0.398438 0.375
vt 0.398438 0.3125
vt 0.390625 0.3125
vt 0.390625 0.375
vt 0.398438 0.375
vt 0.398438 0.3125
vt 0.398438 0.3125
vt 0.398438 0.375
vt 0.40625 0.375
vt 0.40625 0.3125
vt 0 0
vt 0 1
vt 1 1
vt 1 0
vt 0 0
vt 0 1
vt 1 1
vt 1 0
vt 0.398438 0.3125
vt 0.398438 0.375
vt 0.40625 0.375
vt 0.40625 0.3125
vt 0.398438 0.3125
vt 0.398438 0.375
vt 0.40625 0.375
vt 0.40625 0.3125
vt 0.390625 0.3125
vt 0.390625 0.375
vt 0.398438 0.375
vt 0.398438 0.3125
vt 0.390625 0.3125
vt 0.390625 0.375
vt 0.398438 0.375
vt 0.398438 0.3125
vt 0 0
vt 0 1
vt 1 1
vt 1 0
vt 0 0
vt 0 1
vt 1 1
vt 1 0
vt 0.382812 0.3125
vt 0.382812 0.421875
vt 0.390625 0.421875
vt 0.390625 0.3125
vt 0.390625 0.3125
vt 0.390625 0.421875
vt 0.375 0.421875
vt 0.375 0.3125
vt 0.375 0.3125
vt 0.375 0.421875
vt 0.382812 0.421875
vt 0.382812 0.3125
vt 0 0
vt 0 1
vt 1 1
vt 1 0
vt 0 0
vt 0 1
vt 1 1
vt 1 0
vt 0 0
vt 0 1
vt 1 1
vt 1 0
vt 0.382812 0.3125
vt 0.382812 0.421875
vt 0.390625 0.421875
vt 0.390625 0.3125
vt 0 0
vt 0 1
vt 1 1
vt 1 0
vt 0.375 0.3125
vt 0.375 0.421875
vt 0.382812 0.421875
vt 0.382812 0.3125
vt 0.375 0.3125
vt 0.375 0.421875
vt 0.390625 0.421875
vt 0.390625 0.3125
vt 0 0
vt 0 1
vt 1 1
vt 1 0
vt 0 0
vt 0 1
vt 1 1
vt 1 0
vt 0.414062 0.3125
vt 0.414062 0.484375
vt 0.421875 0.484375
vt 0.421875 0.3125
vt 0.40625 0.3125
vt 0.40625 0.484375
vt 0.414062 0.484375
vt 0.414062 0.3125
vt 0.40625 0.3125
vt 0.40625 0.484375
vt 0.414062 0.484375
vt 0.414062 0.3125
vt 0.414062 0.3125
vt 0.414062 0.484375
vt 0.421875 0.484375
vt 0.421875 0.3125
vt 0 0
vt 0 1
vt 1 1
vt 1 0
vt 0 0
vt 0 1
vt 1 1
vt 1 0
vt 0.414062 0.3125
vt 0.414062 0.484375
vt 0.421875 0.484375
vt 0.421875 0.3125
vt 0.414062 0.3125
vt 0.414062 0.484375
vt 0.421875 0.484375
vt 0.421875 0.3125
vt 0.40625 0.3125
vt 0.40625 0.484375
vt 0.414062 0.484375
vt 0.414062 0.3125
vt 0.40625 0.3125
vt 0.40625 0.484375
vt 0.414062 0.484375
vt 0.414062 0.3125
vt 0 0
vt 0 1
vt 1 1
vt 1 0
vt 0 0
vt 0 1
vt 1 1
vt 1 0
vt 0.382812 0.3125
vt 0.382812 0.421875
vt 0.390625 0.421875
vt 0.390625 0.3125
vt 0.382812 0.3125
vt 0.382812 0.421875
vt 0.390625 0.421875
vt 0.390625 0.3125
vt 0.375 0.3125
vt 0.375 0.421875
vt 0.382812 0.421875
vt 0.382812 0.3125
vt 0.375 0.3125
vt 0.375 0.421875
vt 0.382812 0.421875
vt 0.382812 0.3125
vt 0 0
vt 0 1
vt 1 1
vt 1 0
vt 0 0
vt 0 1
vt 1 1
vt 1 0
vt 0.382812 0.3125
vt 0.382812 0.421875
vt 0.390625 0.421875
vt 0.390625 0.3125
vt 0.375 0.3125
vt 0.375 0.421875
vt 0.382812 0.421875
vt 0.382812 0.3125
vt 0.375 0.3125
vt 0.375 0.421875
vt 0.382812 0.421875
vt 0.382812 0.3125
vt 0.382812 0.3125
vt 0.382812 0.421875
vt 0.390625 0.421875
vt 0.390625 0.3125
vt 0 0
vt 0 1
vt 1 1
vt 1 0
vt 0 0
vt 0 1
vt 1 1
vt 1 0
vt 0.25 0.4375
vt 0.25 0.5
vt 0.28125 0.5
vt 0.28125 0.4375
vt 0.28125 0.4375
vt 0.28125 0.5
vt 0.296875 0.5
vt 0.296875 0.4375
vt 0.25 0.4375
vt 0.25 0.5
vt 0.28125 0.5
vt 0.28125 0.4375
vt 0.28125 0.4375
vt 0.28125 0.5
vt 0.296875 0.5
vt 0.296875 0.4375
vt 0 0
vt 0 1
vt 1 1
vt 1 0
vt 0 0
vt 0 1
vt 1 1
vt 1 0
vt 0.25 0.4375
vt 0.25 0.5
vt 0.28125 0.5
vt 0.28125 0.4375
vt 0.28125 0.4375
vt 0.28125 0.5
vt 0.296875 0.5
vt 0.296875 0.4375
vt 0.25 0.4375
vt 0.25 0.5
vt 0.28125 0.5
vt 0.28125 0.4375
vt 0.28125 0.4375
vt 0.28125 0.5
vt 0.296875 0.5
vt 0.296875 0.4375
vt 0 0
vt 0 1
vt 1 1
vt 1 0
vt 0 0
vt 0 1
vt 1 1
vt 1 0
vt 0 0
vt 0 1
vt 1 1
vt 1 0
vt 0 0.03125
vt 0 0.0625
vt 0.125 0.0625
vt 0.125 0.03125
vt 0 0
vt 0 1
vt 1 1
vt 1 0
vt 0 0.03125
vt 0 0.0625
vt 0.125 0.0625
vt 0.125 0.03125
vt 0 0.015625
vt 0 0.03125
vt 0.125 0.03125
vt 0.125 0.015625
vt 0 0.015625
vt 0 0.03125
vt 0.125 0.03125
vt 0.125 0.015625
vt 0 0
vt 0 1
vt 1 1
vt 1 0
vt 0 0.03125
vt 0 0.0625
vt 0.085938 0.0625
vt 0.085938 0.03125
vt 0 0
vt 0 1
vt 1 1
vt 1 0
vt 0 0.03125
vt 0 0.0625
vt 0.085938 0.0625
vt 0.085938 0.03125
vt 0 0.015625
vt 0 0.03125
vt 0.085938 0.03125
vt 0.085938 0.015625
vt 0 0.015625
vt 0 0.03125
vt 0.085938 0.03125
vt 0.085938 0.015625
vt 0 0
vt 0 1
vt 1 1
vt 1 0
vt 0 0.03125
vt 0 0.0625
vt 0.085938 0.0625
vt 0.085938 0.03125
vt 0 0
vt 0 1
vt 1 1
vt 1 0
vt 0 0.03125
vt 0 0.0625
vt 0.085938 0.0625
vt 0.085938 0.03125
vt 0 0.015625
vt 0 0.03125
vt 0.085938 0.03125
vt 0.085938 0.015625
vt 0 0.015625
vt 0 0.03125
vt 0.085938 0.03125
vt 0.085938 0.015625
vt 0 0.03125
vt 0 0.0625
vt 0.085938 0.0625
vt 0.085938 0.03125
vt 0 0
vt 0 1
vt 1 1
vt 1 0
vt 0 0.03125
vt 0 0.0625
vt 0.085938 0.0625
vt 0.085938 0.03125
vt 0 0
vt 0 1
vt 1 1
vt 1 0
vt 0 0.015625
vt 0 0.03125
vt 0.085938 0.03125
vt 0.085938 0.015625
vt 0 0.015625
vt 0 0.03125
vt 0.085938 0.03125
vt 0.085938 0.015625
vt 0 0.03125
vt 0 0.0625
vt 0.085938 0.0625
vt 0.085938 0.03125
vt 0 0
vt 0 1
vt 1 1
vt 1 0
vt 0 0.03125
vt 0 0.0625
vt 0.085938 0.0625
vt 0.085938 0.03125
vt 0 0
vt 0 1
vt 1 1
vt 1 0
vt 0 0.015625
vt 0 0.03125
vt 0.085938 0.03125
vt 0.085938 0.015625
vt 0 0.015625
vt 0 0.03125
vt 0.085938 0.03125
vt 0.085938 0.015625
vt 0.34375 0.4375
vt 0.34375 0.5
vt 0.375 0.5
vt 0.375 0.4375
vt 0.34375 0.4375
vt 0.34375 0.5
vt 0.375 0.5
vt 0.375 0.4375
vt 0.34375 0.4375
vt 0.34375 0.5
vt 0.375 0.5
vt 0.375 0.4375
vt 0.34375 0.4375
vt 0.34375 0.5
vt 0.375 0.5
vt 0.375 0.4375
vt 0 0
vt 0 1
vt 1 1
vt 1 0
vt 0 0
vt 0 1
vt 1 1
vt 1 0
vt 0.34375 0.4375
vt 0.34375 0.5
vt 0.375 0.5
vt 0.375 0.4375
vt 0.34375 0.4375
vt 0.34375 0.5
vt 0.375 0.5
vt 0.375 0.4375
vt 0.34375 0.4375
vt 0.34375 0.5
vt 0.375 0.5
vt 0.375 0.4375
vt 0.34375 0.4375
vt 0.34375 0.5
vt 0.375 0.5
vt 0.375 0.4375
vt 0 0
vt 0 1
vt 1 1
vt 1 0
vt 0 0
vt 0 1
vt 1 1
vt 1 0
vt 0 0
vt 0 1
vt 1 1
vt 1 0
vt 0.890625 0.28125
vt 0.890625 0.390625
vt 1 0.390625
vt 1 0.28125
vt 0.765625 0.171875
vt 0.765625 0.28125
vt 1 0.28125
vt 1 0.171875
vt 0.890625 0.28125
vt 0.890625 0.390625
vt 1 0.390625
vt 1 0.28125
vt 0 0
vt 0 1
vt 1 1
vt 1 0
vt 0 0
vt 0 1
vt 1 1
vt 1 0
vt 0.375 0.234375
vt 0.375 0.27343800000000007
vt 0.625 0.27343800000000007
vt 0.625 0.234375
vt 0.375 0.19531200000000004
vt 0.375 0.234375
vt 0.5 0.234375
vt 0.5 0.19531200000000004
vt 0.375 0.234375
vt 0.375 0.27343800000000007
vt 0.625 0.27343800000000007
vt 0.625 0.234375
vt 0.375 0.19531200000000004
vt 0.375 0.234375
vt 0.5 0.234375
vt 0.5 0.19531200000000004
vt 0.375 0.6875
vt 0.375 0.8125
vt 0.625 0.8125
vt 0.625 0.6875
vt 0.375 0.6875
vt 0.375 0.8125
vt 0.625 0.8125
vt 0.625 0.6875
vt 0.765625 0
vt 0.765625 0.171875
vt 1 0.171875
vt 1 0
vt 0.765625 0
vt 0.765625 0.171875
vt 1 0.171875
vt 1 0
vt 0.765625 0
vt 0.765625 0.171875
vt 1 0.171875
vt 1 0
vt 0.765625 0
vt 0.765625 0.171875
vt 1 0.171875
vt 1 0
vt 0 0
vt 0 1
vt 1 1
vt 1 0
vt 1 1
vt 0 1
vt 0 0
vt 1 0
vt 0.375 0.234375
vt 0.375 0.27343800000000007
vt 0.625 0.27343800000000007
vt 0.625 0.234375
vt 0.375 0.234375
vt 0.375 0.27343800000000007
vt 0.625 0.27343800000000007
vt 0.625 0.234375
vt 0.375 0.234375
vt 0.375 0.27343800000000007
vt 0.625 0.27343800000000007
vt 0.625 0.234375
vt 0.375 0.234375
vt 0.375 0.27343800000000007
vt 0.625 0.27343800000000007
vt 0.625 0.234375
vt 0.375 0.5625
vt 0.375 0.8125
vt 0.625 0.8125
vt 0.625 0.5625
vt 0.375 0.5625
vt 0.375 0.8125
vt 0.625 0.8125
vt 0.625 0.5625
vt 0.375 0.27343800000000007
vt 0.375 0.234375
vt 0.625 0.234375
vt 0.625 0.27343800000000007
vt 0.375 0.27343800000000007
vt 0.375 0.3125
vt 0.75 0.3125
vt 0.75 0.27343800000000007
vt 0.375 0.27343800000000007
vt 0.375 0.234375
vt 0.625 0.234375
vt 0.625 0.27343800000000007
vt 0.375 0.27343800000000007
vt 0.375 0.3125
vt 0.75 0.3125
vt 0.75 0.27343800000000007
vt 0 0.0625
vt 0 0.3125
vt 0.375 0.3125
vt 0.375 0.0625
vt 0 0.0625
vt 0 0.3125
vt 0.375 0.3125
vt 0.375 0.0625
vt 0 0.3125
vt 0 0.4375
vt 0.0625 0.4375
vt 0.0625 0.3125
vt 0.125 0.3125
vt 0.125 0.4375
vt 0.25 0.4375
vt 0.25 0.3125
vt 0.0625 0.3125
vt 0.0625 0.4375
vt 0.125 0.4375
vt 0.125 0.3125
vt 0 0.3125
vt 0 0.4375
vt 0.125 0.4375
vt 0.125 0.3125
vt 0 0.3125
vt 0 0.4375
vt 0.0625 0.4375
vt 0.0625 0.3125
vt 0 0.3125
vt 0 0.4375
vt 0.0625 0.4375
vt 0.0625 0.3125
vt 0 0.375
vt 0 0.4375
vt 0.125 0.4375
vt 0.125 0.375
vt 0 0.375
vt 0 0.4375
vt 0.125 0.4375
vt 0.125 0.375
vt 0 0.375
vt 0 0.4375
vt 0.125 0.4375
vt 0.125 0.375
vt 0.125 0.4375
vt 0.125 0.5
vt 0.25 0.5
vt 0.25 0.4375
vt 0 0
vt 0 1
vt 1 1
vt 1 0
vt 0 0
vt 0 1
vt 1 1
vt 1 0
vt 0 0.4375
vt 0 0.5
vt 0.125 0.5
vt 0.125 0.4375
vt 0 0.375
vt 0 0.4375
vt 0.125 0.4375
vt 0.125 0.375
vt 0 0.375
vt 0 0.4375
vt 0.125 0.4375
vt 0.125 0.375
vt 0 0.375
vt 0 0.4375
vt 0.125 0.4375
vt 0.125 0.375
vt 0 0
vt 0 1
vt 1 1
vt 1 0
vt 0 0
vt 0 1
vt 1 1
vt 1 0
vt 0 0.375
vt 0 0.4375
vt 0.125 0.4375
vt 0.125 0.375
vt 0 0
vt 0 1
vt 1 1
vt 1 0
vt 0.125 0.4375
vt 0.125 0.5
vt 0.25 0.5
vt 0.25 0.4375
vt 0 0.375
vt 0 0.4375
vt 0.125 0.4375
vt 0.125 0.375
vt 0 0
vt 0 1
vt 1 1
vt 1 0
vt 0 0
vt 0 1
vt 1 1
vt 1 0
vt 0.375 0.8125
vt 0.375 1
vt 0.5 1
vt 0.5 0.8125
vt 0.5 0.8125
vt 0.5 1
vt 0.625 1
vt 0.625 0.8125
vt 0.375 0.8125
vt 0.375 1
vt 0.5 1
vt 0.5 0.8125
vt 0.5 0.8125
vt 0.5 1
vt 0.625 1
vt 0.625 0.8125
vt 0.25 0.3125
vt 0.25 0.4375
vt 0.375 0.4375
vt 0.375 0.3125
vt 0 0
vt 0 1
vt 1 1
vt 1 0
vt 0 0.5625
vt 0 0.625
vt 0.375 0.625
vt 0.375 0.5625
vt 0 0.5
vt 0 0.5625
vt 0.375 0.5625
vt 0.375 0.5
vt 0 0.5625
vt 0 0.625
vt 0.375 0.625
vt 0.375 0.5625
vt 0 0.5625
vt 0 0.625
vt 0.375 0.625
vt 0.375 0.5625
vt 0.625 0.632812
vt 0.625 1
vt 1 1
vt 1 0.632812
vt 0 0.625
vt 0 1
vt 0.375 1
vt 0.375 0.625
vn 1 0 0
vn 0 0 1
vn -1 0 0
vn 0 0 -1
vn 0 1 0
vn 0 -1 0
vn 1 0 0
vn 0 0 1
vn -1 0 0
vn 0 0 -1
vn 0 1 0
vn 0 -1 0
vn 1 0 0
vn 0 0 1
vn -1 0 0
vn 0 0 -1
vn 0 1 0
vn 0 -1 0
vn 1 0 0
vn 0 0 1
vn -1 0 0
vn 0 0 -1
vn 0 1 0
vn 0 -1 0
vn 1 0 0
vn 0 0 1
vn -1 0 0
vn 0 0 -1
vn 0 1 0
vn 0 -1 0
vn 1 0 0
vn 0 0 1
vn -1 0 0
vn 0 0 -1
vn 0 1 0
vn 0 -1 0
vn 1 0 0
vn 0 0 1
vn -1 0 0
vn 0 0 -1
vn 0 1 0
vn 0 -1 0
vn 1 0 0
vn 0 0 1
vn -1 0 0
vn 0 0 -1
vn 0 1 0
vn 0 -1 0
vn 1 0 0
vn 0 0 1
vn -1 0 0
vn 0 0 -1
vn 0 1 0
vn 0 -1 0
vn 1 0 0
vn 0 0 1
vn -1 0 0
vn 0 0 -1
vn 0 1 0
vn 0 -1 0
vn 1 0 0
vn 0 0 1
vn -1 0 0
vn 0 0 -1
vn 0 1 0
vn 0 -1 0
vn 1 0 0
vn 0 0 1
vn -1 0 0
vn 0 0 -1
vn 0 1 0
vn 0 -1 0
vn 1 0 0
vn 0 0 1
vn -1 0 0
vn 0 0 -1
vn 0 1 0
vn 0 -1 0
vn 1 0 0
vn 0 0 1
vn -1 0 0
vn 0 0 -1
vn 0 1 0
vn 0 -1 0
vn 1 0 0
vn 0 0 1
vn -1 0 0
vn 0 0 -1
vn 0 1 0
vn 0 -1 0
vn 1 0 0
vn 0 0 1
vn -1 0 0
vn 0 0 -1
vn 0 1 0
vn 0 -1 0
vn 1 0 0
vn 0 0 1
vn -1 0 0
vn 0 0 -1
vn 0 1 0
vn 0 -1 0
vn 1 0 0
vn 0 0 1
vn -1 0 0
vn 0 0 -1
vn 0 1 0
vn 0 -1 0
vn 1 0 0
vn 0 0 1
vn -1 0 0
vn 0 0 -1
vn 0 1 0
vn 0 -1 0
vn 1 0 0
vn 0 0 1
vn -1 0 0
vn 0 0 -1
vn 0 1 0
vn 0 1 0
vn 1 0 0
vn 0 0 1
vn -1 0 0
vn 0 0 -1
vn 0 1 0
vn 0 -1 0
vn 1 0 0
vn 0 0 1
vn -1 0 0
vn 0 0 -1
vn 0 1 0
vn 0 -1 0
vn 1 0 0
vn 0 0 1
vn -1 0 0
vn 0 0 -1
vn 0 1 0
vn 0 -1 0
vn 1 0 0
vn 0 0 1
vn -1 0 0
vn 0 0 -1
vn 0 1 0
vn 0 -1 0
vn 1 0 0
vn 0 0 1
vn -1 0 0
vn 0 0 -1
vn 0 1 0
vn 0 -1 0
vn 1 0 0
vn 0 0 1
vn -1 0 0
vn 0 0 -1
vn 0 1 0
vn 0 -1 0
vn 1 0 0
vn 0 0.00003066666665238821 0.9999999995297778
vn -1 0 0
vn 0 -0.00003066666665224018 -0.9999999995297778
vn 0 1 0
vn 0 -1 0
vn 1 0 0
vn 0 0 1
vn -1 0 0
vn 0 0 -1
vn 0 1 0
vn 0 -1 0
usemtl distiller
f 1/1/1 2/2/1 3/3/1 4/4/1
f 4/5/2 3/6/2 5/7/2 6/8/2
f 6/9/3 5/10/3 7/11/3 8/12/3
f 8/13/4 7/14/4 2/15/4 1/16/4
f 2/17/5 7/18/5 5/19/5 3/20/5
f 8/21/6 1/22/6 4/23/6 6/24/6
f 9/25/7 10/26/7 11/27/7 12/28/7
f 12/29/8 11/30/8 13/31/8 14/32/8
f 14/33/9 13/34/9 15/35/9 16/36/9
f 16/37/10 15/38/10 10/39/10 9/40/10
f 10/41/11 15/42/11 13/43/11 11/44/11
f 16/45/12 9/46/12 12/47/12 14/48/12
f 17/49/13 9/50/13 12/51/13 18/52/13
f 18/53/14 12/54/14 19/55/14 20/56/14
f 20/57/15 19/58/15 21/59/15 22/60/15
f 22/61/16 21/62/16 9/63/16 17/64/16
f 9/65/17 21/66/17 19/67/17 12/68/17
f 22/69/18 17/70/18 18/71/18 20/72/18
f 23/73/19 1/74/19 4/75/19 24/76/19
f 24/77/20 4/78/20 25/79/20 26/80/20
f 26/81/21 25/82/21 27/83/21 28/84/21
f 28/85/22 27/86/22 1/87/22 23/88/22
f 1/89/23 27/90/23 25/91/23 4/92/23
f 28/93/24 23/94/24 24/95/24 26/96/24
f 29/97/25 30/98/25 31/99/25 32/100/25
f 32/101/26 31/102/26 33/103/26 34/104/26
f 34/105/27 33/106/27 35/107/27 36/108/27
f 36/109/28 35/110/28 30/111/28 29/112/28
f 30/113/29 35/114/29 33/115/29 31/116/29
f 36/117/30 29/118/30 32/119/30 34/120/30
f 37/121/31 38/122/31 39/123/31 40/124/31
f 40/125/32 39/126/32 41/127/32 42/128/32
f 42/129/33 41/130/33 43/131/33 44/132/33
f 44/133/34 43/134/34 38/135/34 37/136/34
f 38/137/35 43/138/35 41/139/35 39/140/35
f 44/141/36 37/142/36 40/143/36 42/144/36
f 45/145/37 46/146/37 47/147/37 48/148/37
f 48/149/38 47/150/38 49/151/38 50/152/38
f 50/153/39 49/154/39 51/155/39 52/156/39
f 52/157/40 51/158/40 46/159/40 45/160/40
f 46/161/41 51/162/41 49/163/41 47/164/41
f 52/165/42 45/166/42 48/167/42 50/168/42
f 53/169/43 54/170/43 55/171/43 56/172/43
f 56/173/44 55/174/44 57/175/44 58/176/44
f 58/177/45 57/178/45 59/179/45 60/180/45
f 60/181/46 59/182/46 54/183/46 53/184/46
f 54/185/47 59/186/47 57/187/47 55/188/47
f 60/189/48 53/190/48 56/191/48 58/192/48
f 61/193/49 62/194/49 63/195/49 64/196/49
f 64/197/50 63/198/50 65/199/50 66/200/50
f 66/201/51 65/202/51 67/203/51 68/204/51
f 68/205/52 67/206/52 62/207/52 61/208/52
f 62/209/53 67/210/53 65/211/53 63/212/53
f 68/213/54 61/214/54 64/215/54 66/216/54
f 69/217/55 70/218/55 71/219/55 72/220/55
f 72/221/56 71/222/56 73/223/56 74/224/56
f 74/225/57 73/226/57 75/227/57 76/228/57
f 76/229/58 75/230/58 70/231/58 69/232/58
f 70/233/59 75/234/59 73/235/59 71/236/59
f 76/237/60 69/238/60 72/239/60 74/240/60
f 77/241/61 78/242/61 79/243/61 80/244/61
f 80/245/62 79/246/62 81/247/62 82/248/62
f 82/249/63 81/250/63 83/251/63 84/252/63
f 84/253/64 83/254/64 78/255/64 77/256/64
f 78/257/65 83/258/65 81/259/65 79/260/65
f 84/261/66 77/262/66 80/263/66 82/264/66
f 85/265/67 86/266/67 87/267/67 88/268/67
f 88/269/68 87/270/68 89/271/68 90/272/68
f 90/273/69 89/274/69 91/275/69 92/276/69
f 92/277/70 91/278/70 86/279/70 85/280/70
f 86/281/71 91/282/71 89/283/71 87/284/71
f 92/285/72 85/286/72 88/287/72 90/288/72
f 93/289/73 94/290/73 95/291/73 96/292/73
f 96/293/74 95/294/74 97/295/74 98/296/74
f 98/297/75 97/298/75 99/299/75 100/300/75
f 100/301/76 99/302/76 94/303/76 93/304/76
f 94/305/77 99/306/77 97/307/77 95/308/77
f 100/309/78 93/310/78 96/311/78 98/312/78
f 101/313/79 102/314/79 103/315/79 104/316/79
f 104/317/80 103/318/80 105/319/80 106/320/80
f 106/321/81 105/322/81 107/323/81 108/324/81
f 108/325/82 107/326/82 102/327/82 101/328/82
f 102/329/83 107/330/83 105/331/83 103/332/83
f 108/333/84 101/334/84 104/335/84 106/336/84
f 109/337/85 110/338/85 111/339/85 112/340/85
f 112/341/86 111/342/86 113/343/86 114/344/86
f 114/345/87 113/346/87 115/347/87 116/348/87
f 116/349/88 115/350/88 110/351/88 109/352/88
f 110/353/89 115/354/89 113/355/89 111/356/89
f 116/357/90 109/358/90 112/359/90 114/360/90
f 117/361/91 118/362/91 119/363/91 120/364/91
f 120/365/92 119/366/92 121/367/92 122/368/92
f 122/369/93 121/370/93 123/371/93 124/372/93
f 124/373/94 123/374/94 118/375/94 117/376/94
f 118/377/95 123/378/95 121/379/95 119/380/95
f 124/381/96 117/382/96 120/383/96 122/384/96
f 125/385/97 126/386/97 127/387/97 128/388/97
f 128/389/98 127/390/98 129/391/98 130/392/98
f 130/393/99 129/394/99 131/395/99 132/396/99
f 132/397/100 131/398/100 126/399/100 125/400/100
f 126/401/101 131/402/101 129/403/101 127/404/101
f 132/405/102 125/406/102 128/407/102 130/408/102
f 26/409/103 25/410/103 21/411/103 22/412/103
f 22/413/104 21/414/104 133/415/104 134/416/104
f 134/417/105 133/418/105 55/419/105 56/420/105
f 56/421/106 55/422/106 25/423/106 26/424/106
f 25/425/107 55/426/107 133/427/107 21/428/107
f 56/429/108 26/430/108 22/431/108 134/432/108
f 8/433/109 135/434/109 136/435/109 14/436/109
f 14/437/110 136/438/110 137/439/110 138/440/110
f 138/441/111 137/442/111 139/443/111 59/444/111
f 59/445/112 139/446/112 135/447/112 8/448/112
f 135/449/113 139/450/113 137/451/113 136/452/113
f 59/453/114 8/454/114 14/455/114 138/456/114
f 34/457/115 33/458/115 140/459/115 141/460/115
f 141/461/116 140/462/116 10/463/116 17/464/116
f 17/465/117 10/466/117 3/467/117 24/468/117
f 24/469/118 3/470/118 33/471/118 34/472/118
f 33/473/119 3/474/119 10/475/119 140/476/119
f 141/477/120 34/478/120 24/479/120 17/480/120
f 30/481/121 142/482/121 143/483/121 144/484/121
f 144/485/122 143/486/122 145/487/122 13/488/122
f 13/489/123 145/490/123 146/491/123 7/492/123
f 7/493/124 146/494/124 142/495/124 30/496/124
f 142/497/125 146/498/125 145/499/125 143/500/125
f 7/501/126 30/502/126 144/503/126 13/504/126
f 147/505/127 29/506/127 148/507/127 149/508/127
f 149/509/128 148/510/128 150/511/128 151/512/128
f 151/513/129 150/514/129 60/515/129 152/516/129
f 152/517/130 60/518/130 29/519/130 147/520/130
f 29/521/131 60/522/131 150/523/131 148/524/131
f 152/525/132 147/526/132 149/527/132 151/528/132
f 153/529/133 154/530/133 155/531/133 156/532/133
f 156/533/134 155/534/134 157/535/134 158/536/134
f 158/537/135 157/538/135 159/539/135 160/540/135
f 160/541/136 159/542/136 154/543/136 153/544/136
f 154/545/137 159/546/137 157/547/137 155/548/137
f 160/549/138 153/550/138 156/551/138 158/552/138
f 161/553/139 162/554/139 163/555/139 164/556/139
f 164/557/140 163/558/140 165/559/140 166/560/140
f 166/561/141 165/562/141 167/563/141 168/564/141
f 168/565/142 167/566/142 162/567/142 161/568/142
f 162/569/143 167/570/143 165/571/143 163/572/143
f 168/573/144 161/574/144 164/575/144 166/576/144
f 169/577/145 170/578/145 149/579/145 171/580/145
f 171/581/146 149/582/146 172/583/146 173/584/146
f 173/585/147 172/586/147 163/587/147 164/588/147
f 164/589/148 163/590/148 170/591/148 169/592/148
f 170/593/149 163/594/149 172/595/149 149/596/149
f 164/597/150 169/598/150 171/599/150 173/600/150
f 166/601/151 165/602/151 174/603/151 175/604/151
f 175/605/152 174/606/152 151/607/152 176/608/152
f 176/609/153 151/610/153 177/611/153 178/612/153
f 178/613/154 177/614/154 165/615/154 166/616/154
f 165/617/155 177/618/155 151/619/155 174/620/155
f 178/621/156 166/622/156 175/623/156 176/624/156
f 179/625/157 180/626/157 181/627/157 182/628/157
f 182/629/158 181/630/158 183/631/158 184/632/158
f 184/633/159 183/634/159 185/635/159 186/636/159
f 186/637/160 185/638/160 180/639/160 179/640/160
f 180/641/161 185/642/161 183/643/161 181/644/161
f 186/645/162 179/646/162 182/647/162 184/648/162
f 187/649/163 188/650/163 189/651/163 190/652/163
f 190/653/164 189/654/164 191/655/164 192/656/164
f 192/657/165 191/658/165 193/659/165 194/660/165
f 194/661/166 193/662/166 188/663/166 187/664/166
f 188/665/167 193/666/167 191/667/167 189/668/167
f 194/669/168 187/670/168 190/671/168 192/672/168