# Made in Blockbench 5.0.4
mtllib electrolytic_crucible_battery.mtl

o cube
v -1 0.5 1
v -1 0 1
v -1 0 -8
v -1 0.5 -8
v 0 0.5 -6
v 0 1 -6
v -1 1 -6
v -1 0.5 -6
v -1 1 -5
v -1 0.5 -5
v 0 1 -5
v 0 0.5 -5
v 2 0.5 1
v 2 3 1
v 2 3 0
v 2 0.5 0
v -1 3 0
v -1 0.5 0
v -1 3 1
v -0.25 3.25 0.25
v -0.25 3.75 0.25
v -0.25 3.75 0
v -0.25 3.25 0
v -0.75 3.25 0
v -0.75 3.75 0
v -0.75 3.75 0.25
v -0.75 3.25 0.25
v -0.25 3 0.75
v -0.25 3.75 0.75
v -0.25 3 0.25
v -0.75 3 0.25
v -0.75 3.75 0.75
v -0.75 3 0.75
v 1.25 0.5 -7.625
v 1.25 1 -7.625
v 1.25 1 -7.875
v 1.25 0.5 -7.875
v 1.125 1 -7.875
v 1.125 0.5 -7.875
v 1.125 1 -7.625
v 1.125 0.5 -7.625
v 1.875 0.5 -7.625
v 1.875 1 -7.625
v 1.875 1 -7.875
v 1.875 0.5 -7.875
v 1.75 1 -7.875
v 1.75 0.5 -7.875
v 1.75 1 -7.625
v 1.75 0.5 -7.625
v 2 1 -7.5
v 2 2 -7.5
v 2 2 -8
v 2 1 -8
v 1 2 -8
v 1 1 -8
v 1 2 -7.5
v 1 1 -7.5
v 1 0.5 -7
v 1 1.5 -7
v 0 1.5 -7
v 0 0.5 -7
v -1 1.5 0
v 0 0.5 0
v -1 1.5 -7
v 2 1.5 -7
v 1 0.5 0
v 2 1.5 0
v 2 3 -7
v -1 3 -7
v 1.25 0.75 -6.75
v 1 0.75 -6.75
v 1 0.5 -6.75
v 1.25 0.5 -6.75
v 1.75 0.5 0
v 1.75 1 0
v 1.75 1 -6.75
v 1.75 0.5 -6.75
v 1.25 1 -6.75
v 1.25 1 0
v -0.75 0.5 0
v -0.75 0.75 0
v -0.75 0.75 -1
v -0.75 0.5 -1
v -1 0.5 -1
v -1 0.75 -1
v -1 0.75 0
v 0 0.5 -4
v 0 1 -4
v -1 1 -4
v -1 0.5 -4
v -1 1 -1
v 0 1 -1
v 0 0.5 -1
v 2 0.5 -8
v 0.25 3 0
v 0.25 3.125 0
v 0.25 3.125 -6.5
v 0.25 3 -6.5
v 0 3.125 -6.5
v 0 3 -6.5
v 0 3.125 0
v 0 3 0
v 0.75 3 -0.25
v 0.75 3.25 -0.25
v 0.75 3.25 -0.75
v 0.75 3 -0.75
v 0.25 3.25 -0.75
v 0.25 3 -0.75
v 0.25 3.25 -0.25
v 0.25 3 -0.25
v -0.25 0.5 -7
v -0.25 3.5 -7
v -0.25 3.5 -7.5
v -0.25 0.5 -7.5
v -0.75 3.5 -7.5
v -0.75 0.5 -7.5
v -0.75 3.5 -7
v -0.75 0.5 -7
v 1.75 0.5 -7
v 1.75 3.5 -7
v 1.75 3.5 -7.5
v 1.75 0.5 -7.5
v 1.25 3.5 -7.5
v 1.25 0.5 -7.5
v 1.25 3.5 -7
v 1.25 0.5 -7
v 1.25 2.75 -7.5
v 1.25 3.25 -7.5
v -0.25 3.25 -7.5
v -0.25 2.75 -7.5
v -0.25 2.75 -7
v -0.25 3.25 -7
v 1.25 3.25 -7
v 1.25 2.75 -7
v -0.25 3 -0.25
v -0.25 3.25 -0.25
v -0.25 3.25 -0.75
v -0.25 3 -0.75
v -0.75 3.25 -0.75
v -0.75 3 -0.75
v -0.75 3.25 -0.25
v -0.75 3 -0.25
v -0.25 3 -1.25
v -0.25 3.25 -1.25
v -0.25 3.25 -1.75
v -0.25 3 -1.75
v -0.75 3.25 -1.75
v -0.75 3 -1.75
v -0.75 3.25 -1.25
v -0.75 3 -1.25
v -0.25 3 -2.25
v -0.25 3.25 -2.25
v -0.25 3.25 -2.75
v -0.25 3 -2.75
v -0.75 3.25 -2.75
v -0.75 3 -2.75
v -0.75 3.25 -2.25
v -0.75 3 -2.25
v -0.25 3 -6.25
v -0.25 3.25 -6.25
v -0.25 3.25 -6.75
v -0.25 3 -6.75
v -0.75 3.25 -6.75
v -0.75 3 -6.75
v -0.75 3.25 -6.25
v -0.75 3 -6.25
v -0.25 3 -5.25
v -0.25 3.25 -5.25
v -0.25 3.25 -5.75
v -0.25 3 -5.75
v -0.75 3.25 -5.75
v -0.75 3 -5.75
v -0.75 3.25 -5.25
v -0.75 3 -5.25
v -0.25 3 -4.25
v -0.25 3.25 -4.25
v -0.25 3.25 -4.75
v -0.25 3 -4.75
v -0.75 3.25 -4.75
v -0.75 3 -4.75
v -0.75 3.25 -4.25
v -0.75 3 -4.25
v -0.25 3 -3.25
v -0.25 3.25 -3.25
v -0.25 3.25 -3.75
v -0.25 3 -3.75
v -0.75 3.25 -3.75
v -0.75 3 -3.75
v -0.75 3.25 -3.25
v -0.75 3 -3.25
v -0.25 3.75 -6.75
v -0.75 3.75 -6.75
v 2 0 1
v 2 0 -8
v 1.75 3 0.75
v 1.75 3.75 0.75
v 1.75 3.75 0.25
v 1.75 3 0.25
v 1.25 3.75 0.25
v 1.25 3 0.25
v 1.25 3.75 0.75
v 1.25 3 0.75
v 1.75 3.25 0.25
v 1.75 3.75 0
v 1.75 3.25 0
v 1.25 3.25 0
v 1.25 3.75 0
v 1.25 3.25 0.25
v 1.75 3 -0.25
v 1.75 3.25 -0.25
v 1.75 3.25 -0.75
v 1.75 3 -0.75
v 1.25 3.25 -0.75
v 1.25 3 -0.75
v 1.25 3.25 -0.25
v 1.25 3 -0.25
v 1.75 3 -1.25
v 1.75 3.25 -1.25
v 1.75 3.25 -1.75
v 1.75 3 -1.75
v 1.25 3.25 -1.75
v 1.25 3 -1.75
v 1.25 3.25 -1.25
v 1.25 3 -1.25
v 1.75 3 -2.25
v 1.75 3.25 -2.25
v 1.75 3.25 -2.75
v 1.75 3 -2.75
v 1.25 3.25 -2.75
v 1.25 3 -2.75
v 1.25 3.25 -2.25
v 1.25 3 -2.25
v 1.75 3 -6.25
v 1.75 3.25 -6.25
v 1.75 3.25 -6.75
v 1.75 3 -6.75
v 1.25 3.25 -6.75
v 1.25 3 -6.75
v 1.25 3.25 -6.25
v 1.25 3 -6.25
v 1.75 3 -5.25
v 1.75 3.25 -5.25
v 1.75 3.25 -5.75
v 1.75 3 -5.75
v 1.25 3.25 -5.75
v 1.25 3 -5.75
v 1.25 3.25 -5.25
v 1.25 3 -5.25
v 1.75 3 -4.25
v 1.75 3.25 -4.25
v 1.75 3.25 -4.75
v 1.75 3 -4.75
v 1.25 3.25 -4.75
v 1.25 3 -4.75
v 1.25 3.25 -4.25
v 1.25 3 -4.25
v 1.75 3 -3.25
v 1.75 3.25 -3.25
v 1.75 3.25 -3.75
v 1.75 3 -3.75
v 1.25 3.25 -3.75
v 1.25 3 -3.75
v 1.25 3.25 -3.25
v 1.25 3 -3.25
v 1.75 3.75 -6.75
v 1.25 3.75 -6.75
v 0.75 3 -1.25
v 0.75 3.25 -1.25
v 0.75 3.25 -1.75
v 0.75 3 -1.75
v 0.25 3.25 -1.75
v 0.25 3 -1.75
v 0.25 3.25 -1.25
v 0.25 3 -1.25
v 0.75 3 -2.25
v 0.75 3.25 -2.25
v 0.75 3.25 -2.75
v 0.75 3 -2.75
v 0.25 3.25 -2.75
v 0.25 3 -2.75
v 0.25 3.25 -2.25
v 0.25 3 -2.25
v 0.75 3 -3.25
v 0.75 3.25 -3.25
v 0.75 3.25 -3.75
v 0.75 3 -3.75
v 0.25 3.25 -3.75
v 0.25 3 -3.75
v 0.25 3.25 -3.25
v 0.25 3 -3.25
v 0.75 3 -4.25
v 0.75 3.25 -4.25
v 0.75 3.25 -4.75
v 0.75 3 -4.75
v 0.25 3.25 -4.75
v 0.25 3 -4.75
v 0.25 3.25 -4.25
v 0.25 3 -4.25
v 0.75 3 -5.25
v 0.75 3.25 -5.25
v 0.75 3.25 -5.75
v 0.75 3 -5.75
v 0.25 3.25 -5.75
v 0.25 3 -5.75
v 0.25 3.25 -5.25
v 0.25 3 -5.25
v 0.75 3 -6.25
v 0.75 3.25 -6.25
v 0.75 3.25 -6.75
v 0.75 3 -6.75
v 0.25 3.25 -6.75
v 0.25 3 -6.75
v 0.25 3.25 -6.25
v 0.25 3 -6.25
v 1 3 0
v 1 3.125 0
v 1 3.125 -6.5
v 1 3 -6.5
v 0.75 3.125 -6.5
v 0.75 3 -6.5
v 0.75 3.125 0
v 0.75 3 0
v 1.25 1 -7.5
v 1.25 1.5 -7.5
v -0.25 1.5 -7.5
v -0.25 1 -7.5
v -0.25 1 -7
v 1.25 1 -7
v 1.25 1.5 -7
v -0.25 1.5 -7
v -0.625 0.5 -1
v -0.625 0.75 -1
v -0.625 0.75 0
v -0.625 0.5 0
v -0.375 0.75 -1
v -0.375 0.75 0
v -0.375 0.5 0
v -0.375 0.5 -1
v 0.25 3 0.25
v 0.25 3.125 0.25
v 0 3.125 0.25
v 0 3 0.25
v 1 3 0.25
v 1 3.125 0.25
v 0.75 3.125 0.25
v 0.75 3 0.25
vt 0.5625 0.75
vt 0 0.75
vt 0 0.78125
vt 0.5625 0.78125
vt 0.1875 0.65625
vt 0.25 0.65625
vt 0.25 0.625
vt 0.1875 0.625
vt 0.1875 0.59375
vt 0.25 0.59375
vt 0.25 0.5625
vt 0.1875 0.5625
vt 0.1875 0.65625
vt 0.25 0.65625
vt 0.25 0.625
vt 0.1875 0.625
vt 0.1875 0.65625
vt 0.25 0.65625
vt 0.25 0.59375
vt 0.1875 0.59375
vt 0.90625 0.5703119921875
vt 0.90625 0.6328119921875
vt 0.75 0.6328119921875
vt 0.75 0.5703119921875
vt 0.4375 0.71875
vt 0.25 0.71875
vt 0.25 0.5625
vt 0.4375 0.5625
vt 0.5 0.65625
vt 0.5625 0.65625
vt 0.5625 0.5
vt 0.5 0.5
vt 0.25 0.71875
vt 0.4375 0.71875
vt 0.4375 0.5625
vt 0.25 0.5625
vt 0 0.65625
vt 0 0.71875
vt 0.1875 0.71875
vt 0.1875 0.65625
vt 0.046875 0.53125
vt 0.03125 0.53125
vt 0.03125 0.5625
vt 0.046875 0.5625
vt 0.03125 0.5625
vt 0.046875 0.5625
vt 0.046875 0.53125
vt 0.03125 0.53125
vt 0.03125 0.53125
vt 0.046875 0.53125
vt 0.046875 0.5
vt 0.03125 0.5
vt 0.03125 0.5625
vt 0.046875 0.5625
vt 0.046875 0.53125
vt 0.03125 0.53125
vt 0.03125 0.5625
vt 0 0.5625
vt 0 0.515625
vt 0.03125 0.515625
vt 0.078125 0.53125
vt 0.078125 0.5
vt 0.03125 0.5
vt 0.03125 0.53125
vt 0 0.5625
vt 0.03125 0.5625
vt 0.03125 0.515625
vt 0 0.515625
vt 0.078125 0.53125
vt 0.078125 0.5
vt 0.03125 0.5
vt 0.03125 0.53125
vt 0.46875 0.53125
vt 0.5 0.53125
vt 0.5 0.5
vt 0.46875 0.5
vt 0.5546880078125 0.6875
vt 0.5390619921875 0.6875
vt 0.5390619921875 0.71875
vt 0.5546880078125 0.71875
vt 0.5546880078125 0.71875
vt 0.5625 0.71875
vt 0.5625 0.6875
vt 0.5546880078125 0.6875
vt 0.5390619921875 0.71875
vt 0.5546880078125 0.71875
vt 0.5546880078125 0.6875
vt 0.5390619921875 0.6875
vt 0.5546880078125 0.71875
vt 0.5625 0.71875
vt 0.5625 0.6875
vt 0.5546880078125 0.6875
vt 0.5546880078125 0.6875
vt 0.5390619921875 0.6875
vt 0.5390619921875 0.71875
vt 0.5546880078125 0.71875
vt 0.5546880078125 0.71875
vt 0.5625 0.71875
vt 0.5625 0.6875
vt 0.5546880078125 0.6875
vt 0.5390619921875 0.71875
vt 0.5546880078125 0.71875
vt 0.5546880078125 0.6875
vt 0.5390619921875 0.6875
vt 0.5546880078125 0.71875
vt 0.5625 0.71875
vt 0.5625 0.6875
vt 0.5546880078125 0.6875
vt 0.25 0.59375
vt 0.25 0.65625
vt 0.1875 0.65625
vt 0.1875 0.59375
vt 0.1875 0.71875
vt 0.25 0.71875
vt 0.25 0.65625
vt 0.1875 0.65625
vt 0.1875 0.65625
vt 0.21875 0.65625
vt 0.21875 0.59375
vt 0.1875 0.59375
vt 0.25 0.71875
vt 0.3125 0.71875
vt 0.3125 0.65625
vt 0.25 0.65625
vt 0.25 0.65625
vt 0.21875 0.65625
vt 0.21875 0.59375
vt 0.25 0.59375
vt 0.1875 0.65625
vt 0.21875 0.65625
vt 0.21875 0.59375
vt 0.1875 0.59375
vt 0.0625 0.65625
vt 0.125 0.65625
vt 0.125 0.59375
vt 0.0625 0.59375
vt 1 0.6328119921875
vt 0.5625 0.6328119921875
vt 0.5625 0.71875
vt 1 0.71875
vt 0.0625 0.65625
vt 0.0625 0.59375
vt 0 0.65625
vt 0.1875 0.65625
vt 0.125 0.59375
vt 0.125 0.65625
vt 0.5625 0.6328119921875
vt 0.5625 0.71875
vt 1 0.71875
vt 1 0.6328119921875
vt 0.5625 0.8125
vt 1 0.8125
vt 1 0.71875
vt 0.5625 0.71875
vt 0.5625 0.6328119921875
vt 0.75 0.6328119921875
vt 0.75 0.5390619921875
vt 0.5625 0.5390619921875
vt 0.5625 0.8125
vt 1 0.8125
vt 1 0.71875
vt 0.5625 0.71875
vt 0.5625 1
vt 1 1
vt 1 0.8125
vt 0.5625 0.8125
vt 0.46875 0.5
vt 0.46875 0.53125
vt 0.5 0.53125
vt 0.5 0.5
vt 0.46875 0.5
vt 0.046875 0.5
vt 0.046875 0.53125
vt 0.46875 0.53125
vt 0.46875 0.53125
vt 0.5 0.53125
vt 0.5 0.5
vt 0.46875 0.5
vt 0.046875 0.53125
vt 0.5 0.53125
vt 0.5 0.5
vt 0.046875 0.5
vt 0.96875 0.5
vt 0.90625 0.5
vt 0.90625 0.515625
vt 0.96875 0.515625
vt 0.90625 0.515625
vt 0.96875 0.515625
vt 0.96875 0.5
vt 0.90625 0.5
vt 0.90625 0.515625
vt 0.96875 0.515625
vt 0.96875 0.5
vt 0.90625 0.5
vt 0.1875 0.65625
vt 0.25 0.65625
vt 0.25 0.625
vt 0.1875 0.625
vt 0 0.75
vt 0.1875 0.75
vt 0.1875 0.71875
vt 0 0.71875
vt 0.1875 0.65625
vt 0.25 0.65625
vt 0.25 0.625
vt 0.1875 0.625
vt 0.5625 1
vt 0 1
vt 0 0.8125
vt 0.5625 0.8125
vt 0 0.71875
vt 0.1875 0.71875
vt 0.1875 0.65625
vt 0 0.65625
vt 0.5625 0.5078119921875
vt 0.96875 0.5078119921875
vt 0.96875 0.5
vt 0.5625 0.5
vt 1 0.515625
vt 1 0.5
vt 0.9921880078125 0.5
vt 0.9921880078125 0.515625
vt 0.96875 0.5
vt 0.5625 0.5
vt 0.5625 0.5078119921875
vt 0.96875 0.5078119921875
vt 0.96875 0.5
vt 0.5625 0.5
vt 0.5625 0.515625
vt 0.96875 0.515625
vt 0.5390619921875 0.71875
vt 0.5390619921875 0.6875
vt 0.5234380078125 0.6875
vt 0.5234380078125 0.71875
vt 0.5390619921875 0.71875
vt 0.5390619921875 0.6875
vt 0.5234380078125 0.6875
vt 0.5234380078125 0.71875
vt 0.5390619921875 0.71875
vt 0.5390619921875 0.6875
vt 0.5234380078125 0.6875
vt 0.5234380078125 0.71875
vt 0.5390619921875 0.71875
vt 0.5390619921875 0.6875
vt 0.5234380078125 0.6875
vt 0.5234380078125 0.71875
vt 0.4921880078125 0.71875
vt 0.5234380078125 0.71875
vt 0.5234380078125 0.6875
vt 0.4921880078125 0.6875
vt 0.96875 0.5703119921875
vt 0.96875 0.5390619921875
vt 0.78125 0.5390619921875
vt 0.78125 0.5703119921875
vt 0.96875 0.5703119921875
vt 0.96875 0.5390619921875
vt 0.78125 0.5390619921875
vt 0.78125 0.5703119921875
vt 0.96875 0.5703119921875
vt 0.96875 0.5390619921875
vt 0.78125 0.5390619921875
vt 0.78125 0.5703119921875
vt 0.96875 0.5703119921875
vt 0.96875 0.5390619921875
vt 0.78125 0.5390619921875
vt 0.78125 0.5703119921875
vt 0.75 0.5703119921875
vt 0.78125 0.5703119921875
vt 0.78125 0.5390619921875
vt 0.75 0.5390619921875
vt 0.96875 0.5703119921875
vt 0.96875 0.5390619921875
vt 0.78125 0.5390619921875
vt 0.78125 0.5703119921875
vt 0.96875 0.5703119921875
vt 0.96875 0.5390619921875
vt 0.78125 0.5390619921875
vt 0.78125 0.5703119921875
vt 0.96875 0.5703119921875
vt 0.96875 0.5390619921875
vt 0.78125 0.5390619921875
vt 0.78125 0.5703119921875
vt 0.96875 0.5703119921875
vt 0.96875 0.5390619921875
vt 0.78125 0.5390619921875
vt 0.78125 0.5703119921875
vt 0.75 0.5703119921875
vt 0.78125 0.5703119921875
vt 0.78125 0.5390619921875
vt 0.75 0.5390619921875
vt 0.9609380078125 0.5390619921875
vt 0.8671880078125 0.5390619921875
vt 0.8671880078125 0.5703119921875
vt 0.9609380078125 0.5703119921875
vt 0.8671880078125 0.5703119921875
vt 0.9609380078125 0.5703119921875
vt 0.9609380078125 0.5390619921875
vt 0.8671880078125 0.5390619921875
vt 0.9609380078125 0.5703119921875
vt 0.9609380078125 0.5390619921875
vt 0.8671880078125 0.5390619921875
vt 0.8671880078125 0.5703119921875
vt 0.8671880078125 0.5390619921875
vt 0.8671880078125 0.5703119921875
vt 0.9609380078125 0.5703119921875
vt 0.9609380078125 0.5390619921875
vt 0.046875 0.53125
vt 0.046875 0.5
vt 0.03125 0.5
vt 0.03125 0.53125
vt 0.046875 0.53125
vt 0.046875 0.5
vt 0.03125 0.5
vt 0.03125 0.53125
vt 0.03125 0.5
vt 0.03125 0.53125
vt 0.046875 0.53125
vt 0.046875 0.5
vt 0.03125 0.5
vt 0.03125 0.53125
vt 0.046875 0.53125
vt 0.046875 0.5
vt 0.046875 0.53125
vt 0.046875 0.5
vt 0.03125 0.5
vt 0.03125 0.53125
vt 0.046875 0.53125
vt 0.046875 0.5
vt 0.03125 0.5
vt 0.03125 0.53125
vt 0.03125 0.5
vt 0.03125 0.53125
vt 0.046875 0.53125
vt 0.046875 0.5
vt 0.03125 0.5
vt 0.03125 0.53125
vt 0.046875 0.53125
vt 0.046875 0.5
vt 0.046875 0.53125
vt 0.046875 0.5
vt 0.03125 0.5
vt 0.03125 0.53125
vt 0.046875 0.53125
vt 0.046875 0.5
vt 0.03125 0.5
vt 0.03125 0.53125
vt 0.03125 0.5
vt 0.03125 0.53125
vt 0.046875 0.53125
vt 0.046875 0.5
vt 0.03125 0.5
vt 0.03125 0.53125
vt 0.046875 0.53125
vt 0.046875 0.5
vt 0.046875 0.53125
vt 0.046875 0.5
vt 0.03125 0.5
vt 0.03125 0.53125
vt 0.046875 0.53125
vt 0.046875 0.5
vt 0.03125 0.5
vt 0.03125 0.53125
vt 0.03125 0.5
vt 0.03125 0.53125
vt 0.046875 0.53125
vt 0.046875 0.5
vt 0.03125 0.5
vt 0.03125 0.53125
vt 0.046875 0.53125
vt 0.046875 0.5
vt 0.046875 0.53125
vt 0.046875 0.5
vt 0.03125 0.5
vt 0.03125 0.53125
vt 0.046875 0.53125
vt 0.046875 0.5
vt 0.03125 0.5
vt 0.03125 0.53125
vt 0.03125 0.5
vt 0.03125 0.53125
vt 0.046875 0.53125
vt 0.046875 0.5
vt 0.03125 0.5
vt 0.03125 0.53125
vt 0.046875 0.53125
vt 0.046875 0.5
vt 0.046875 0.53125
vt 0.046875 0.5
vt 0.03125 0.5
vt 0.03125 0.53125
vt 0.046875 0.53125
vt 0.046875 0.5
vt 0.03125 0.5
vt 0.03125 0.53125
vt 0.03125 0.5
vt 0.03125 0.53125
vt 0.046875 0.53125
vt 0.046875 0.5
vt 0.03125 0.5
vt 0.03125 0.53125
vt 0.046875 0.53125
vt 0.046875 0.5
vt 0.046875 0.53125
vt 0.046875 0.5
vt 0.03125 0.5
vt 0.03125 0.53125
vt 0.046875 0.53125
vt 0.046875 0.5
vt 0.03125 0.5
vt 0.03125 0.53125
vt 0.03125 0.5
vt 0.03125 0.53125
vt 0.046875 0.53125
vt 0.046875 0.5
vt 0.03125 0.5
vt 0.03125 0.53125
vt 0.046875 0.53125
vt 0.046875 0.5
vt 0.46875 0.5625
vt 0.046875 0.5625
vt 0.046875 0.53125
vt 0.46875 0.53125
vt 0.5 0.53125
vt 0.5 0.5
vt 0.46875 0.5
vt 0.46875 0.53125
vt 0.046875 0.5625
vt 0.46875 0.5625
vt 0.46875 0.53125
vt 0.046875 0.53125
vt 0.046875 0.53125
vt 0.46875 0.53125
vt 0.46875 0.5
vt 0.046875 0.5
vt 0.046875 0.53125
vt 0.46875 0.53125
vt 0.46875 0.5
vt 0.046875 0.5
vt 0 0.8125
vt 0.5625 0.8125
vt 0.5625 0.78125
vt 0 0.78125
vt 0.5625 0.71875
vt 0.375 0.71875
vt 0.375 0.75
vt 0.5625 0.75
vt 0.1875 0.75
vt 0.375 0.75
vt 0.375 0.71875
vt 0.1875 0.71875
vt 0 1
vt 0.5625 1
vt 0.5625 0.8125
vt 0 0.8125
vt 0.03125 0.5625
vt 0 0.5625
vt 0 0.515625
vt 0.03125 0.515625
vt 0.078125 0.53125
vt 0.078125 0.5
vt 0.03125 0.5
vt 0.03125 0.53125
vt 0 0.5625
vt 0.03125 0.5625
vt 0.03125 0.515625
vt 0 0.515625
vt 0.078125 0.53125
vt 0.078125 0.5
vt 0.03125 0.5
vt 0.03125 0.53125
vt 0.046875 0.53125
vt 0.03125 0.53125
vt 0.03125 0.5625
vt 0.046875 0.5625
vt 0.03125 0.5625
vt 0.046875 0.5625
vt 0.046875 0.53125
vt 0.03125 0.53125
vt 0.03125 0.53125
vt 0.046875 0.53125
vt 0.046875 0.5
vt 0.03125 0.5
vt 0.03125 0.5625
vt 0.046875 0.5625
vt 0.046875 0.53125
vt 0.03125 0.53125
vt 0.46875 0.53125
vt 0.5 0.53125
vt 0.5 0.5
vt 0.46875 0.5
vt 0.046875 0.53125
vt 0.046875 0.5
vt 0.03125 0.5
vt 0.03125 0.53125
vt 0.046875 0.53125
vt 0.046875 0.5
vt 0.03125 0.5
vt 0.03125 0.53125
vt 0.03125 0.5
vt 0.03125 0.53125
vt 0.046875 0.53125
vt 0.046875 0.5
vt 0.03125 0.5
vt 0.03125 0.53125
vt 0.046875 0.53125
vt 0.046875 0.5
vt 0.046875 0.53125
vt 0.046875 0.5
vt 0.03125 0.5
vt 0.03125 0.53125
vt 0.046875 0.53125
vt 0.046875 0.5
vt 0.03125 0.5
vt 0.03125 0.53125
vt 0.03125 0.5
vt 0.03125 0.53125
vt 0.046875 0.53125
vt 0.046875 0.5
vt 0.03125 0.5
vt 0.03125 0.53125
vt 0.046875 0.53125
vt 0.046875 0.5
vt 0.046875 0.53125
vt 0.046875 0.5
vt 0.03125 0.5
vt 0.03125 0.53125
vt 0.046875 0.53125
vt 0.046875 0.5
vt 0.03125 0.5
vt 0.03125 0.53125
vt 0.03125 0.5
vt 0.03125 0.53125
vt 0.046875 0.53125
vt 0.046875 0.5
vt 0.03125 0.5
vt 0.03125 0.53125
vt 0.046875 0.53125
vt 0.046875 0.5
vt 0.046875 0.53125
vt 0.046875 0.5
vt 0.03125 0.5
vt 0.03125 0.53125
vt 0.046875 0.53125
vt 0.046875 0.5
vt 0.03125 0.5
vt 0.03125 0.53125
vt 0.03125 0.5
vt 0.03125 0.53125
vt 0.046875 0.53125
vt 0.046875 0.5
vt 0.03125 0.5
vt 0.03125 0.53125
vt 0.046875 0.53125
vt 0.046875 0.5
vt 0.046875 0.53125
vt 0.046875 0.5
vt 0.03125 0.5
vt 0.03125 0.53125
vt 0.046875 0.53125
vt 0.046875 0.5
vt 0.03125 0.5
vt 0.03125 0.53125
vt 0.03125 0.5
vt 0.03125 0.53125
vt 0.046875 0.53125
vt 0.046875 0.5
vt 0.03125 0.5
vt 0.03125 0.53125
vt 0.046875 0.53125
vt 0.046875 0.5
vt 0.046875 0.53125
vt 0.046875 0.5
vt 0.03125 0.5
vt 0.03125 0.53125
vt 0.046875 0.53125
vt 0.046875 0.5
vt 0.03125 0.5
vt 0.03125 0.53125
vt 0.03125 0.5
vt 0.03125 0.53125
vt 0.046875 0.53125
vt 0.046875 0.5
vt 0.03125 0.5
vt 0.03125 0.53125
vt 0.046875 0.53125
vt 0.046875 0.5
vt 0.046875 0.53125
vt 0.046875 0.5
vt 0.03125 0.5
vt 0.03125 0.53125
vt 0.046875 0.53125
vt 0.046875 0.5
vt 0.03125 0.5
vt 0.03125 0.53125
vt 0.03125 0.5
vt 0.03125 0.53125
vt 0.046875 0.53125
vt 0.046875 0.5
vt 0.03125 0.5
vt 0.03125 0.53125
vt 0.046875 0.53125
vt 0.046875 0.5
vt 0.46875 0.5625
vt 0.046875 0.5625
vt 0.046875 0.53125
vt 0.46875 0.53125
vt 0.5 0.53125
vt 0.5 0.5
vt 0.46875 0.5
vt 0.46875 0.53125
vt 0.046875 0.5625
vt 0.46875 0.5625
vt 0.46875 0.53125
vt 0.046875 0.53125
vt 0.046875 0.53125
vt 0.46875 0.53125
vt 0.46875 0.5
vt 0.046875 0.5
vt 0.046875 0.53125
vt 0.46875 0.53125
vt 0.46875 0.5
vt 0.046875 0.5
vt 0.5390619921875 0.71875
vt 0.5390619921875 0.6875
vt 0.5234380078125 0.6875
vt 0.5234380078125 0.71875
vt 0.5390619921875 0.71875
vt 0.5390619921875 0.6875
vt 0.5234380078125 0.6875
vt 0.5234380078125 0.71875
vt 0.5390619921875 0.71875
vt 0.5390619921875 0.6875
vt 0.5234380078125 0.6875
vt 0.5234380078125 0.71875
vt 0.5390619921875 0.71875
vt 0.5390619921875 0.6875
vt 0.5234380078125 0.6875
vt 0.5234380078125 0.71875
vt 0.4921880078125 0.71875
vt 0.5234380078125 0.71875
vt 0.5234380078125 0.6875
vt 0.4921880078125 0.6875
vt 0.5390619921875 0.71875
vt 0.5390619921875 0.6875
vt 0.5234380078125 0.6875
vt 0.5234380078125 0.71875
vt 0.5390619921875 0.71875
vt 0.5390619921875 0.6875
vt 0.5234380078125 0.6875
vt 0.5234380078125 0.71875
vt 0.5390619921875 0.71875
vt 0.5390619921875 0.6875
vt 0.5234380078125 0.6875
vt 0.5234380078125 0.71875
vt 0.5390619921875 0.71875
vt 0.5390619921875 0.6875
vt 0.5234380078125 0.6875
vt 0.5234380078125 0.71875
vt 0.4921880078125 0.71875
vt 0.5234380078125 0.71875
vt 0.5234380078125 0.6875
vt 0.4921880078125 0.6875
vt 0.5390619921875 0.71875
vt 0.5390619921875 0.6875
vt 0.5234380078125 0.6875
vt 0.5234380078125 0.71875
vt 0.5390619921875 0.71875
vt 0.5390619921875 0.6875
vt 0.5234380078125 0.6875
vt 0.5234380078125 0.71875
vt 0.5390619921875 0.71875
vt 0.5390619921875 0.6875
vt 0.5234380078125 0.6875
vt 0.5234380078125 0.71875
vt 0.5390619921875 0.71875
vt 0.5390619921875 0.6875
vt 0.5234380078125 0.6875
vt 0.5234380078125 0.71875
vt 0.4921880078125 0.71875
vt 0.5234380078125 0.71875
vt 0.5234380078125 0.6875
vt 0.4921880078125 0.6875
vt 0.5390619921875 0.71875
vt 0.5390619921875 0.6875
vt 0.5234380078125 0.6875
vt 0.5234380078125 0.71875
vt 0.5390619921875 0.71875
vt 0.5390619921875 0.6875
vt 0.5234380078125 0.6875
vt 0.5234380078125 0.71875
vt 0.5390619921875 0.71875
vt 0.5390619921875 0.6875
vt 0.5234380078125 0.6875
vt 0.5234380078125 0.71875
vt 0.5390619921875 0.71875
vt 0.5390619921875 0.6875
vt 0.5234380078125 0.6875
vt 0.5234380078125 0.71875
vt 0.4921880078125 0.71875
vt 0.5234380078125 0.71875
vt 0.5234380078125 0.6875
vt 0.4921880078125 0.6875
vt 0.5390619921875 0.71875
vt 0.5390619921875 0.6875
vt 0.5234380078125 0.6875
vt 0.5234380078125 0.71875
vt 0.5390619921875 0.71875
vt 0.5390619921875 0.6875
vt 0.5234380078125 0.6875
vt 0.5234380078125 0.71875
vt 0.5390619921875 0.71875
vt 0.5390619921875 0.6875
vt 0.5234380078125 0.6875
vt 0.5234380078125 0.71875
vt 0.5390619921875 0.71875
vt 0.5390619921875 0.6875
vt 0.5234380078125 0.6875
vt 0.5234380078125 0.71875
vt 0.4921880078125 0.71875
vt 0.5234380078125 0.71875
vt 0.5234380078125 0.6875
vt 0.4921880078125 0.6875
vt 0.5390619921875 0.71875
vt 0.5390619921875 0.6875
vt 0.5234380078125 0.6875
vt 0.5234380078125 0.71875
vt 0.5390619921875 0.71875
vt 0.5390619921875 0.6875
vt 0.5234380078125 0.6875
vt 0.5234380078125 0.71875
vt 0.5390619921875 0.71875
vt 0.5390619921875 0.6875
vt 0.5234380078125 0.6875
vt 0.5234380078125 0.71875
vt 0.5390619921875 0.71875
vt 0.5390619921875 0.6875
vt 0.5234380078125 0.6875
vt 0.5234380078125 0.71875
vt 0.4921880078125 0.71875
vt 0.5234380078125 0.71875
vt 0.5234380078125 0.6875
vt 0.4921880078125 0.6875
vt 0.5625 0.5078119921875
vt 0.96875 0.5078119921875
vt 0.96875 0.5
vt 0.5625 0.5
vt 1 0.515625
vt 1 0.5
vt 0.9921880078125 0.5
vt 0.9921880078125 0.515625
vt 0.96875 0.5
vt 0.5625 0.5
vt 0.5625 0.5078119921875
vt 0.96875 0.5078119921875
vt 0.96875 0.5
vt 0.5625 0.5
vt 0.5625 0.515625
vt 0.96875 0.515625
vt 0.9609380078125 0.5390619921875
vt 0.8671880078125 0.5390619921875
vt 0.8671880078125 0.5703119921875
vt 0.9609380078125 0.5703119921875
vt 0.9609380078125 0.5703119921875
vt 0.9609380078125 0.5390619921875
vt 0.8671880078125 0.5390619921875
vt 0.8671880078125 0.5703119921875
vt 0.8671880078125 0.5390619921875
vt 0.8671880078125 0.5703119921875
vt 0.9609380078125 0.5703119921875
vt 0.9609380078125 0.5390619921875
vt 0.90625 0.515625
vt 0.96875 0.515625
vt 0.96875 0.5
vt 0.90625 0.5
vt 0.90625 0.515625
vt 0.96875 0.515625
vt 0.96875 0.5
vt 0.90625 0.5
vt 0.96875 0.5
vt 0.90625 0.5
vt 0.90625 0.515625
vt 0.96875 0.515625
vt 0.5625 0.6875
vt 0.546875 0.6875
vt 0.546875 0.6796880078125
vt 0.5625 0.6796880078125
vt 0.546875 0.6875
vt 0.5625 0.6875
vt 0.5625 0.6796880078125
vt 0.546875 0.6796880078125
vt 0.5625 0.5
vt 0.5625 0.515625
vt 0.5703119921875 0.515625
vt 0.5703119921875 0.5
vt 0.5625 0.515625
vt 0.578125 0.515625
vt 0.578125 0.5
vt 0.5625 0.5
vt 0.5625 0.6875
vt 0.546875 0.6875
vt 0.546875 0.6796880078125
vt 0.5625 0.6796880078125
vt 0.546875 0.6875
vt 0.5625 0.6875
vt 0.5625 0.6796880078125
vt 0.546875 0.6796880078125
vt 0.5625 0.5
vt 0.5625 0.515625
vt 0.5703119921875 0.515625
vt 0.5703119921875 0.5
vt 0.5625 0.515625
vt 0.578125 0.515625
vt 0.578125 0.5
vt 0.5625 0.5
vn -1 0 0
vn 0 0 -1
vn -1 0 0
vn 0 0 1
vn 0 1 0
vn 1 0 0
vn 0 0 -1
vn -1 0 0
vn 0 0 1
vn 0 1 0
vn 1 0 0
vn -1 0 0
vn 0 -1 0
vn 0 1 0
vn 1 0 0
vn 0 0 -1
vn -1 0 0
vn 0 0 1
vn 0 1 0
vn 1 0 0
vn 0 0 -1
vn -1 0 0
vn 0 0 1
vn 1 0 0
vn 0 0 -1
vn -1 0 0
vn 0 0 1
vn 1 0 0
vn 0 0 -1
vn -1 0 0
vn 0 0 1
vn 0 -1 0
vn 0 1 0
vn 0 0 -1
vn -0.7071067811865476 -0.7071067811865476 0
vn 0 0 -1
vn 0 0 -1
vn 0.7071067811865476 -0.7071067811865476 0
vn 1 0 0
vn 0 0 -1
vn -1 0 0
vn 0 1 0
vn 0 0 -1
vn 1 0 0
vn 0 0 -1
vn 0 1 0
vn 1 0 0
vn -1 0 0
vn 0 1 0
vn 0 0 -1
vn -1 0 0
vn 0 0 1
vn 0 1 0
vn 0 1 0
vn 1 0 0
vn 0 0 -1
vn -1 0 0
vn 0 1 0
vn 1 0 0
vn 0 0 -1
vn -1 0 0
vn 0 0 1
vn 0 1 0
vn 1 0 0
vn 0 0 -1
vn -1 0 0
vn 0 0 1
vn 0 1 0
vn 1 0 0
vn 0 0 -1
vn -1 0 0
vn 0 0 1
vn 0 1 0
vn 0 0 -1
vn 0 0 1
vn 0 -1 0
vn 0 1 0
vn 1 0 0
vn 0 0 -1
vn -1 0 0
vn 0 0 1
vn 1 0 0
vn 0 0 -1
vn -1 0 0
vn 0 0 1
vn 1 0 0
vn 0 0 -1
vn -1 0 0
vn 0 0 1
vn 1 0 0
vn 0 0 -1
vn -1 0 0
vn 0 0 1
vn 1 0 0
vn 0 0 -1
vn -1 0 0
vn 0 0 1
vn 1 0 0
vn 0 0 -1
vn -1 0 0
vn 0 0 1
vn 1 0 0
vn 0 0 -1
vn -1 0 0
vn 0 0 1
vn 1 0 0
vn 0 0 -1
vn -1 0 0
vn 0 -1 0
vn 0 1 0
vn 1 0 0
vn 0 0 -1
vn 0 0 1
vn 0 -1 0
vn 1 0 0
vn 0 0 -1
vn -1 0 0
vn 0 0 1
vn 1 0 0
vn -1 0 0
vn 0 -1 0
vn 0 1 0
vn 0 1 0
vn 1 0 0
vn 0 0 -1
vn -1 0 0
vn 0 0 1
vn 1 0 0
vn 0 0 -1
vn -1 0 0
vn 0 0 1
vn 1 0 0
vn 0 0 -1
vn -1 0 0
vn 0 0 1
vn 1 0 0
vn 0 0 -1
vn -1 0 0
vn 0 0 1
vn 1 0 0
vn 0 0 -1
vn -1 0 0
vn 0 0 1
vn 1 0 0
vn 0 0 -1
vn -1 0 0
vn 0 0 1
vn 1 0 0
vn 0 0 -1
vn -1 0 0
vn 0 0 1
vn 1 0 0
vn 0 0 -1
vn -1 0 0
vn 0 -1 0
vn 0 1 0
vn 1 0 0
vn 0 0 -1
vn -1 0 0
vn 0 0 1
vn 0 1 0
vn 1 0 0
vn 0 0 -1
vn -1 0 0
vn 0 0 1
vn 0 1 0
vn 1 0 0
vn 0 0 -1
vn -1 0 0
vn 0 0 1
vn 0 1 0
vn 1 0 0
vn 0 0 -1
vn -1 0 0
vn 0 0 1
vn 0 1 0
vn 1 0 0
vn 0 0 -1
vn -1 0 0
vn 0 0 1
vn 0 1 0
vn 1 0 0
vn 0 0 -1
vn -1 0 0
vn 0 0 1
vn 0 1 0
vn 1 0 0
vn 0 0 -1
vn -1 0 0
vn 0 1 0
vn 0 0 -1
vn 0 -1 0
vn 0 1 0
vn -1 0 0
vn 0 1 0
vn 1 0 0
vn 1 0 0
vn -1 0 0
vn 0 0 1
vn 0 1 0
vn 1 0 0
vn -1 0 0
vn 0 0 1
vn 0 1 0
usemtl m_f4233543-45c1-7eb4-442c-0fd84b72c1e4
f 3/1/1 2/2/1 1/3/1 4/4/1
f 7/5/2 6/6/2 5/7/2 8/8/2
f 9/9/3 7/10/3 8/11/3 10/12/3
f 11/13/4 9/14/4 10/15/4 12/16/4
f 11/17/5 6/18/5 7/19/5 9/20/5
f 15/21/6 14/22/6 13/23/6 16/24/6
f 17/25/7 15/26/7 16/27/7 18/28/7
f 19/29/8 17/30/8 18/31/8 1/32/8
f 14/33/9 19/34/9 1/35/9 13/36/9
f 14/37/10 15/38/10 17/39/10 19/40/10
f 22/41/11 21/42/11 20/43/11 23/44/11
f 26/45/12 25/46/12 24/47/12 27/48/12
f 27/49/13 24/50/13 23/51/13 20/52/13
f 21/53/14 22/54/14 25/55/14 26/56/14
f 21/57/15 29/58/15 28/59/15 30/60/15
f 26/61/16 21/62/16 30/63/16 31/64/16
f 32/65/17 26/66/17 31/67/17 33/68/17
f 29/69/18 32/70/18 33/71/18 28/72/18
f 29/73/19 21/74/19 26/75/19 32/76/19
f 36/77/20 35/78/20 34/79/20 37/80/20
f 38/81/21 36/82/21 37/83/21 39/84/21
f 40/85/22 38/86/22 39/87/22 41/88/22
f 35/89/23 40/90/23 41/91/23 34/92/23
f 44/93/24 43/94/24 42/95/24 45/96/24
f 46/97/25 44/98/25 45/99/25 47/100/25
f 48/101/26 46/102/26 47/103/26 49/104/26
f 43/105/27 48/106/27 49/107/27 42/108/27
f 52/109/28 51/110/28 50/111/28 53/112/28
f 54/113/29 52/114/29 53/115/29 55/116/29
f 56/117/30 54/118/30 55/119/30 57/120/30
f 51/121/31 56/122/31 57/123/31 50/124/31
f 57/125/32 55/126/32 53/127/32 50/128/32
f 51/129/33 52/130/33 54/131/33 56/132/33
f 60/133/34 59/134/34 58/135/34 61/136/34
f 61/137/35 63/138/35 62/139/35 64/140/35
f 60/141/36 61/142/36 64/143/36
f 65/144/37 58/145/37 59/146/37
f 67/147/38 66/148/38 58/149/38 65/150/38
f 68/151/39 15/152/39 67/153/39 65/154/39
f 69/155/40 68/156/40 65/157/40 64/158/40
f 17/159/41 69/160/41 64/161/41 62/162/41
f 15/163/42 68/164/42 69/165/42 17/166/42
f 72/167/43 71/168/43 70/169/43 73/170/43
f 76/171/44 75/172/44 74/173/44 77/174/44
f 78/175/45 76/176/45 77/177/45 73/178/45
f 75/179/46 76/180/46 78/181/46 79/182/46
f 82/183/47 81/184/47 80/185/47 83/186/47
f 86/187/48 85/188/48 84/189/48 18/190/48
f 81/191/49 82/192/49 85/193/49 86/194/49
f 89/195/50 88/196/50 87/197/50 90/198/50
f 91/199/51 89/200/51 90/201/51 84/202/51
f 92/203/52 91/204/52 84/205/52 93/206/52
f 4/207/53 1/208/53 13/209/53 94/210/53
f 92/211/54 88/212/54 89/213/54 91/214/54
f 97/215/55 96/216/55 95/217/55 98/218/55
f 99/219/56 97/220/56 98/221/56 100/222/56
f 101/223/57 99/224/57 100/225/57 102/226/57
f 96/227/58 97/228/58 99/229/58 101/230/58
f 105/231/59 104/232/59 103/233/59 106/234/59
f 107/235/60 105/236/60 106/237/60 108/238/60
f 109/239/61 107/240/61 108/241/61 110/242/61
f 104/243/62 109/244/62 110/245/62 103/246/62
f 104/247/63 105/248/63 107/249/63 109/250/63
f 113/251/64 112/252/64 111/253/64 114/254/64
f 115/255/65 113/256/65 114/257/65 116/258/65
f 117/259/66 115/260/66 116/261/66 118/262/66
f 112/263/67 117/264/67 118/265/67 111/266/67
f 112/267/68 113/268/68 115/269/68 117/270/68
f 121/271/69 120/272/69 119/273/69 122/274/69
f 123/275/70 121/276/70 122/277/70 124/278/70
f 125/279/71 123/280/71 124/281/71 126/282/71
f 120/283/72 125/284/72 126/285/72 119/286/72
f 120/287/73 121/288/73 123/289/73 125/290/73
f 129/291/74 128/292/74 127/293/74 130/294/74
f 133/295/75 132/296/75 131/297/75 134/298/75
f 131/299/76 130/300/76 127/301/76 134/302/76
f 133/303/77 128/304/77 129/305/77 132/306/77
f 137/307/78 136/308/78 135/309/78 138/310/78
f 139/311/79 137/312/79 138/313/79 140/314/79
f 141/315/80 139/316/80 140/317/80 142/318/80
f 136/319/81 141/320/81 142/321/81 135/322/81
f 145/323/82 144/324/82 143/325/82 146/326/82
f 147/327/83 145/328/83 146/329/83 148/330/83
f 149/331/84 147/332/84 148/333/84 150/334/84
f 144/335/85 149/336/85 150/337/85 143/338/85
f 153/339/86 152/340/86 151/341/86 154/342/86
f 155/343/87 153/344/87 154/345/87 156/346/87
f 157/347/88 155/348/88 156/349/88 158/350/88
f 152/351/89 157/352/89 158/353/89 151/354/89
f 161/355/90 160/356/90 159/357/90 162/358/90
f 163/359/91 161/360/91 162/361/91 164/362/91
f 165/363/92 163/364/92 164/365/92 166/366/92
f 160/367/93 165/368/93 166/369/93 159/370/93
f 169/371/94 168/372/94 167/373/94 170/374/94
f 171/375/95 169/376/95 170/377/95 172/378/95
f 173/379/96 171/380/96 172/381/96 174/382/96
f 168/383/97 173/384/97 174/385/97 167/386/97
f 177/387/98 176/388/98 175/389/98 178/390/98
f 179/391/99 177/392/99 178/393/99 180/394/99
f 181/395/100 179/396/100 180/397/100 182/398/100
f 176/399/101 181/400/101 182/401/101 175/402/101
f 185/403/102 184/404/102 183/405/102 186/406/102
f 187/407/103 185/408/103 186/409/103 188/410/103
f 189/411/104 187/412/104 188/413/104 190/414/104
f 184/415/105 189/416/105 190/417/105 183/418/105
f 191/419/106 22/420/106 23/421/106 161/422/106
f 192/423/107 191/424/107 161/425/107 163/426/107
f 25/427/108 192/428/108 163/429/108 24/430/108
f 24/431/109 163/432/109 161/433/109 23/434/109
f 22/435/110 191/436/110 192/437/110 25/438/110
f 94/439/111 13/440/111 193/441/111 194/442/111
f 4/443/112 94/444/112 194/445/112 3/446/112
f 13/447/113 1/448/113 2/449/113 193/450/113
f 2/451/114 3/452/114 194/453/114 193/454/114
f 197/455/115 196/456/115 195/457/115 198/458/115
f 199/459/116 197/460/116 198/461/116 200/462/116
f 201/463/117 199/464/117 200/465/117 202/466/117
f 196/467/118 201/468/118 202/469/118 195/470/118
f 204/471/119 197/472/119 203/473/119 205/474/119
f 199/475/120 207/476/120 206/477/120 208/478/120
f 208/479/121 206/480/121 205/481/121 203/482/121
f 197/483/122 204/484/122 207/485/122 199/486/122
f 196/487/123 197/488/123 199/489/123 201/490/123
f 211/491/124 210/492/124 209/493/124 212/494/124
f 213/495/125 211/496/125 212/497/125 214/498/125
f 215/499/126 213/500/126 214/501/126 216/502/126
f 210/503/127 215/504/127 216/505/127 209/506/127
f 219/507/128 218/508/128 217/509/128 220/510/128
f 221/511/129 219/512/129 220/513/129 222/514/129
f 223/515/130 221/516/130 222/517/130 224/518/130
f 218/519/131 223/520/131 224/521/131 217/522/131
f 227/523/132 226/524/132 225/525/132 228/526/132
f 229/527/133 227/528/133 228/529/133 230/530/133
f 231/531/134 229/532/134 230/533/134 232/534/134
f 226/535/135 231/536/135 232/537/135 225/538/135
f 235/539/136 234/540/136 233/541/136 236/542/136
f 237/543/137 235/544/137 236/545/137 238/546/137
f 239/547/138 237/548/138 238/549/138 240/550/138
f 234/551/139 239/552/139 240/553/139 233/554/139
f 243/555/140 242/556/140 241/557/140 244/558/140
f 245/559/141 243/560/141 244/561/141 246/562/141
f 247/563/142 245/564/142 246/565/142 248/566/142
f 242/567/143 247/568/143 248/569/143 241/570/143
f 251/571/144 250/572/144 249/573/144 252/574/144
f 253/575/145 251/576/145 252/577/145 254/578/145
f 255/579/146 253/580/146 254/581/146 256/582/146
f 250/583/147 255/584/147 256/585/147 249/586/147
f 259/587/148 258/588/148 257/589/148 260/590/148
f 261/591/149 259/592/149 260/593/149 262/594/149
f 263/595/150 261/596/150 262/597/150 264/598/150
f 258/599/151 263/600/151 264/601/151 257/602/151
f 265/603/152 204/604/152 205/605/152 235/606/152
f 266/607/153 265/608/153 235/609/153 237/610/153
f 207/611/154 266/612/154 237/613/154 206/614/154
f 206/615/155 237/616/155 235/617/155 205/618/155
f 204/619/156 265/620/156 266/621/156 207/622/156
f 269/623/157 268/624/157 267/625/157 270/626/157
f 271/627/158 269/628/158 270/629/158 272/630/158
f 273/631/159 271/632/159 272/633/159 274/634/159
f 268/635/160 273/636/160 274/637/160 267/638/160
f 268/639/161 269/640/161 271/641/161 273/642/161
f 277/643/162 276/644/162 275/645/162 278/646/162
f 279/647/163 277/648/163 278/649/163 280/650/163
f 281/651/164 279/652/164 280/653/164 282/654/164
f 276/655/165 281/656/165 282/657/165 275/658/165
f 276/659/166 277/660/166 279/661/166 281/662/166
f 285/663/167 284/664/167 283/665/167 286/666/167
f 287/667/168 285/668/168 286/669/168 288/670/168
f 289/671/169 287/672/169 288/673/169 290/674/169
f 284/675/170 289/676/170 290/677/170 283/678/170
f 284/679/171 285/680/171 287/681/171 289/682/171
f 293/683/172 292/684/172 291/685/172 294/686/172
f 295/687/173 293/688/173 294/689/173 296/690/173
f 297/691/174 295/692/174 296/693/174 298/694/174
f 292/695/175 297/696/175 298/697/175 291/698/175
f 292/699/176 293/700/176 295/701/176 297/702/176
f 301/703/177 300/704/177 299/705/177 302/706/177
f 303/707/178 301/708/178 302/709/178 304/710/178
f 305/711/179 303/712/179 304/713/179 306/714/179
f 300/715/180 305/716/180 306/717/180 299/718/180
f 300/719/181 301/720/181 303/721/181 305/722/181
f 309/723/182 308/724/182 307/725/182 310/726/182
f 311/727/183 309/728/183 310/729/183 312/730/183
f 313/731/184 311/732/184 312/733/184 314/734/184
f 308/735/185 313/736/185 314/737/185 307/738/185
f 308/739/186 309/740/186 311/741/186 313/742/186
f 317/743/187 316/744/187 315/745/187 318/746/187
f 319/747/188 317/748/188 318/749/188 320/750/188
f 321/751/189 319/752/189 320/753/189 322/754/189
f 316/755/190 317/756/190 319/757/190 321/758/190
f 325/759/191 324/760/191 323/761/191 326/762/191
f 327/763/192 326/764/192 323/765/192 328/766/192
f 329/767/193 324/768/193 325/769/193 330/770/193
f 333/771/194 332/772/194 331/773/194 334/774/194
f 336/775/195 335/776/195 332/777/195 333/778/195
f 335/779/196 336/780/196 337/781/196 338/782/196
f 96/783/197 340/784/197 339/785/197 95/786/197
f 341/787/198 101/788/198 102/789/198 342/790/198
f 340/791/199 341/792/199 342/793/199 339/794/199
f 340/795/200 96/796/200 101/797/200 341/798/200
f 316/799/201 344/800/201 343/801/201 315/802/201
f 345/803/202 321/804/202 322/805/202 346/806/202
f 344/807/203 345/808/203 346/809/203 343/810/203
f 344/811/204 316/812/204 321/813/204 345/814/204