mtllib steam_turbine.mtl
usemtl steam_turbine

o rotor
v 0.125000 0.125002 -7.000000
v 0.125000 0.875002 -7.000000
v 0.875000 0.875002 -7.000000
v 0.875000 0.125002 -7.000000
v 0.875000 0.875001 -6.000000
v 0.875000 0.125001 -6.000000
v 0.125000 0.875001 -6.000000
v 0.125000 0.125001 -6.000000
vt 0.000000 0.054688
vt 0.000000 0.148438
vt 0.093750 0.148438
vt 0.093750 0.054688
vt 0.218750 0.148438
vt 0.218750 0.054688
vt 0.000000 0.054688
vt 0.000000 0.148438
vt 0.093750 0.148438
vt 0.093750 0.054688
vt 0.218750 0.148438
vt 0.218750 0.054688
vt 0.093750 0.148438
vt 0.218750 0.148438
vt 0.218750 0.054688
vt 0.093750 0.054688
vt 0.093750 0.148438
vt 0.218750 0.148438
vt 0.218750 0.054688
vt 0.093750 0.054688
vn -0.4329 0.7500 -0.5000
vn 0.8529 -0.1503 -0.5000
vn -0.1503 -0.8529 -0.5000
vn -0.7500 -0.4329 -0.5000
vn 0.5000 0.7500 -0.4329
vn 0.5000 -0.1503 0.8529
vn 0.5000 -0.8529 -0.1503
vn 0.5000 -0.4329 -0.7500
vn 0.4329 0.7500 0.5000
vn -0.8529 -0.1503 0.5000
vn 0.1503 -0.8529 0.5000
vn 0.7500 -0.4329 0.5000
vn -0.5000 0.7500 0.4329
vn -0.5000 -0.1503 -0.8529
vn -0.5000 -0.8529 0.1503
vn -0.5000 -0.4329 0.7500
vn 0.1503 0.5000 0.8529
vn 0.8529 0.5000 -0.1503
vn -0.1503 0.5000 -0.8529
vn -0.8529 0.5000 0.1503
vn -0.4329 -0.5000 -0.7500
vn 0.7500 -0.5000 -0.4329
vn 0.4329 -0.5000 0.7500
vn -0.7500 -0.5000 0.4329
s off
f 1/1/1 2/2/2 3/3/3 4/4/4
f 4/4/5 3/3/6 5/5/7 6/6/8
f 6/7/9 5/8/10 7/9/11 8/10/12
f 8/10/13 7/9/14 2/11/15 1/12/16
f 2/13/17 7/14/18 5/15/19 3/16/20
f 8/17/21 1/18/22 4/19/23 6/20/24
