# Blender v2.83.1 OBJ File: 'heat exchanger.blend'
# www.blender.org
mtllib heat_exchanger.mtl
o Heat_Exchanger_base
v -1.875000 -0.000000 0.000000
v -1.875000 1.500000 0.000000
v -1.500000 1.500000 0.000000
v -1.500000 -0.000000 0.000000
v -1.875000 0.500000 0.500000
v -1.875000 1.000000 0.500000
v -1.500000 0.500000 0.500000
v -1.500000 1.000000 0.500000
v -1.500000 0.000000 -1.000000
v -1.500000 1.500000 -1.000000
v -1.875000 1.500000 -1.000000
v -1.875000 0.000000 -1.000000
v -1.500000 0.500000 -1.500000
v -1.500000 1.000000 -1.500000
v -1.875000 0.500000 -1.500000
v -1.875000 1.000000 -1.500000
v -1.500000 0.375000 0.000000
v -1.875000 0.375000 0.000000
v -2.000000 -0.000000 0.000000
v -1.500000 0.375000 -1.000000
v -2.000000 0.000000 -1.000000
v -1.875000 0.375000 -1.000000
v -1.500000 1.125000 0.000000
v -2.000000 1.500000 0.000000
v -1.875000 1.125000 0.000000
v -1.500000 1.125000 -1.000000
v -1.875000 1.125000 -1.000000
v -2.000000 1.500000 -1.000000
v -1.500000 2.000000 0.000000
v -2.000000 2.000000 0.000000
v -1.500000 2.000000 -1.000000
v -2.000000 2.000000 -1.000000
v -1.500000 -0.500000 -0.000000
v -2.000000 -0.500000 -0.000000
v -1.500000 -0.500000 -1.000000
v -2.000000 -0.500000 -1.000000
v -1.875000 1.125000 0.000000
v -1.875000 1.125000 -1.000000
v 2.000000 -0.320501 0.562500
v 2.000000 -0.070501 0.562500
v 1.000000 -0.070501 0.562500
v 1.000000 -0.320501 0.562500
v 2.000000 -0.320501 0.437500
v 2.000000 -0.070501 0.437500
v 1.000000 -0.320501 0.437500
v 1.000000 -0.070501 0.437500
v 0.750000 -0.125000 -1.375000
v 0.750000 -0.500000 -1.375000
v 1.000000 -0.125000 -1.375000
v 1.000000 -0.500000 -1.375000
v 0.750000 -0.500000 -1.625000
v 0.750000 0.125000 -1.625000
v 1.000000 0.125000 -1.625000
v 1.000000 -0.500000 -1.625000
v 2.250000 -0.500000 0.625000
v 2.250000 0.125000 0.625000
v 2.000000 0.125000 0.625000
v 2.000000 -0.500000 0.625000
v 2.250000 -0.500000 0.375000
v 2.250000 -0.125000 0.375000
v 2.000000 -0.500000 0.375000
v 2.000000 -0.125000 0.375000
v 1.000000 -0.500000 0.625000
v 1.000000 0.125000 0.625000
v 0.750000 0.125000 0.625000
v 0.750000 -0.500000 0.625000
v 1.000000 -0.500000 0.375000
v 1.000000 -0.125000 0.375000
v 0.750000 -0.500000 0.375000
v 0.750000 -0.125000 0.375000
v 2.000000 -0.125000 -1.375000
v 2.000000 -0.500000 -1.375000
v 2.250000 -0.125000 -1.375000
v 2.250000 -0.500000 -1.375000
v 2.000000 -0.500000 -1.625000
v 2.000000 0.125000 -1.625000
v 2.250000 0.125000 -1.625000
v 2.250000 -0.500000 -1.625000
v -0.750000 -0.500000 0.875000
v -0.750000 -0.000000 0.875000
v -0.875000 -0.000000 0.875000
v -0.875000 -0.500000 0.875000
v -0.750000 -0.500000 0.625000
v -0.750000 -0.000000 0.625000
v -0.875000 -0.500000 0.625000
v -0.875000 -0.000000 0.625000
v -0.125000 -0.500000 0.875000
v -0.125000 -0.000000 0.875000
v -0.250000 -0.000000 0.875000
v -0.250000 -0.500000 0.875000
v -0.125000 -0.500000 0.625000
v -0.125000 -0.000000 0.625000
v -0.250000 -0.500000 0.625000
v -0.250000 -0.000000 0.625000
v 0.000000 -0.000000 1.000000
v 0.000000 1.000000 1.000000
v -1.000000 1.000000 1.000000
v -1.000000 -0.000000 1.000000
v 0.000000 -0.000000 0.500000
v 0.000000 1.000000 0.500000
v -1.000000 -0.000000 0.500000
v -1.000000 1.000000 0.500000
v 1.000000 -0.070501 -1.437500
v 1.000000 -0.320501 -1.437500
v 2.000000 -0.070501 -1.437500
v 2.000000 -0.320501 -1.437500
v 1.000000 -0.320501 -1.562500
v 1.000000 -0.070501 -1.562500
v 2.000000 -0.070501 -1.562500
v 2.000000 -0.320501 -1.562500
v 2.500000 2.000000 -1.000000
v 2.500000 1.250000 -1.750000
v -1.500000 1.250000 -1.750000
v -1.500000 2.000000 -1.000000
v 2.500000 2.000000 0.000000
v 2.500000 1.250000 0.750000
v -1.500000 2.000000 0.000000
v -1.500000 1.250000 0.750000
v 2.500000 -0.500000 -0.000000
v 2.500000 0.250000 0.750000
v -1.500000 0.250000 0.750000
v -1.500000 -0.500000 -0.000000
v 2.500000 -0.500000 -1.000000
v 2.500000 0.250000 -1.750000
v -1.500000 -0.500000 -1.000000
v -1.500000 0.250000 -1.750000
v 2.500000 1.250000 0.750000
v -1.500000 1.250000 0.750000
v 2.500000 1.250000 -1.750000
v -1.500000 1.250000 -1.750000
v 3.000000 -1.000000 1.000000
v 3.000000 -0.500000 1.000000
v -2.000000 -0.500000 1.000000
v -2.000000 -1.000000 1.000000
v 3.000000 -1.000000 -2.000000
v 3.000000 -0.500000 -2.000000
v -2.000000 -1.000000 -2.000000
v -2.000000 -0.500000 -2.000000
v 2.875016 -0.000000 0.000000
v 2.875016 1.500000 0.000000
v 2.500016 1.500000 0.000000
v 2.500016 -0.000000 0.000000
v 2.875016 0.500000 0.500000
v 2.875016 1.000000 0.500000
v 2.500016 0.500000 0.500000
v 2.500016 1.000000 0.500000
v 2.500016 0.000000 -1.000000
v 2.500016 1.500000 -1.000000
v 2.875016 1.500000 -1.000000
v 2.875016 0.000000 -1.000000
v 2.500016 0.500000 -1.500000
v 2.500016 1.000000 -1.500000
v 2.875016 0.500000 -1.500000
v 2.875016 1.000000 -1.500000
v 2.500016 0.375000 0.000000
v 2.875016 0.375000 0.000000
v 3.000016 -0.000000 0.000000
v 2.500016 0.375000 -1.000000
v 3.000016 0.000000 -1.000000
v 2.875016 0.375000 -1.000000
v 2.500016 1.125000 0.000000
v 3.000016 1.500000 0.000000
v 2.875016 1.125000 0.000000
v 2.500016 1.125000 -1.000000
v 2.875016 1.125000 -1.000000
v 3.000016 1.500000 -1.000000
v 2.500016 2.000000 0.000000
v 3.000016 2.000000 0.000000
v 2.500016 2.000000 -1.000000
v 3.000016 2.000000 -1.000000
v 2.500016 -0.500000 -0.000000
v 3.000016 -0.500000 -0.000000
v 2.500016 -0.500000 -1.000000
v 3.000016 -0.500000 -1.000000
v 2.875016 1.125000 0.000000
v 2.875016 1.125000 -1.000000
v 0.000000 2.000000 1.000000
v -1.000000 2.000000 1.000000
v 0.000000 2.000000 0.500000
v -1.000000 2.000000 0.500000
v 0.000000 -0.500000 1.000000
v -1.000000 -0.500000 1.000000
v 0.000000 -0.500000 0.500000
v -1.000000 -0.500000 0.500000
v -1.250000 -0.125000 -1.375000
v -1.250000 -0.500000 -1.375000
v -1.000000 -0.125000 -1.375000
v -1.000000 -0.500000 -1.375000
v -1.250000 -0.500000 -1.625000
v -1.250000 0.125000 -1.625000
v -1.000000 0.125000 -1.625000
v -1.000000 -0.500000 -1.625000
v 0.000000 -0.125000 -1.375000
v 0.000000 -0.500000 -1.375000
v 0.250000 -0.125000 -1.375000
v 0.250000 -0.500000 -1.375000
v 0.000000 -0.500000 -1.625000
v 0.000000 0.125000 -1.625000
v 0.250000 0.125000 -1.625000
v 0.250000 -0.500000 -1.625000
v -1.000000 -0.070501 -1.437500
v -1.000000 -0.320501 -1.437500
v 0.000000 -0.070501 -1.437500
v 0.000000 -0.320501 -1.437500
v -1.000000 -0.320501 -1.562500
v -1.000000 -0.070501 -1.562500
v 0.000000 -0.070501 -1.562500
v 0.000000 -0.320501 -1.562500
vt 0.750000 0.593750
vt 0.750000 0.656250
vt 0.812500 0.718750
vt 0.812500 0.531250
vt 0.671875 0.562500
vt 0.671875 0.625000
vt 0.625000 0.625000
vt 0.625000 0.562500
vt 0.718750 0.562500
vt 0.718750 0.648438
vt 0.671875 0.648438
vt 0.671875 0.562500
vt 0.718750 0.562500
vt 0.718750 0.648438
vt 0.671875 0.648438
vt 0.671875 0.562500
vt 0.671875 0.625000
vt 0.625000 0.625000
vt 0.625000 0.562500
vt 0.812500 0.531250
vt 0.812500 0.718750
vt 0.750000 0.656250
vt 0.750000 0.593750
vt 0.718750 0.562500
vt 0.718750 0.648438
vt 0.671875 0.648438
vt 0.671875 0.562500
vt 0.718750 0.562500
vt 0.718750 0.648438
vt 0.671875 0.648438
vt 0.109375 0.671875
vt 0.109375 0.718750
vt 0.062500 0.718750
vt 0.046875 0.671875
vt 0.109375 0.671875
vt 0.093750 0.718750
vt 0.046875 0.718750
vt 0.046875 0.671875
vt 0.875000 0.890625
vt 0.875000 0.937500
vt 0.750000 0.937500
vt 0.750000 0.890625
vt 0.109375 0.671875
vt 0.109375 0.718750
vt 0.046875 0.718750
vt 0.062500 0.671875
vt 0.093750 0.671875
vt 0.109375 0.718750
vt 0.046875 0.718750
vt 0.046875 0.671875
vt 0.875000 0.812500
vt 0.875000 0.859375
vt 0.750000 0.859375
vt 0.750000 0.812500
vt 0.812500 0.812500
vt 0.812500 0.875000
vt 0.750000 0.875000
vt 0.750000 0.812500
vt 0.875000 0.812500
vt 0.875000 0.875000
vt 0.812500 0.875000
vt 0.812500 0.812500
vt 0.875000 0.812500
vt 0.875000 0.875000
vt 0.750000 0.875000
vt 0.750000 0.812500
vt 0.687500 0.750000
vt 0.687500 0.875000
vt 0.625000 0.875000
vt 0.625000 0.750000
vt 0.812500 0.875000
vt 0.812500 0.937500
vt 0.750000 0.937500
vt 0.750000 0.875000
vt 0.875000 0.875000
vt 0.875000 0.937500
vt 0.812500 0.937500
vt 0.812500 0.875000
vt 0.625000 0.937500
vt 0.625000 0.875000
vt 0.875000 0.718750
vt 0.875000 0.812500
vt 0.750000 0.812500
vt 0.750000 0.718750
vt 0.062500 0.187500
vt 0.062500 0.156250
vt 0.187500 0.156250
vt 0.187500 0.187500
vt 0.062500 0.187500
vt 0.062500 0.156250
vt 0.187500 0.156250
vt 0.187500 0.187500
vt 0.062500 0.179688
vt 0.062500 0.164062
vt 0.187500 0.164062
vt 0.187500 0.179688
vt 0.062500 0.179688
vt 0.062500 0.164062
vt 0.187500 0.164062
vt 0.187500 0.179688
vt 0.656250 0.671875
vt 0.625000 0.671875
vt 0.625000 0.718750
vt 0.656250 0.718750
vt 0.656250 0.671875
vt 0.625000 0.671875
vt 0.625000 0.750000
vt 0.656250 0.750000
vt 0.656250 0.671875
vt 0.625000 0.671875
vt 0.625000 0.750000
vt 0.656250 0.718750
vt 0.656250 0.671875
vt 0.625000 0.671875
vt 0.625000 0.718750
vt 0.656250 0.750000
vt 0.656250 0.671875
vt 0.656250 0.750000
vt 0.625000 0.750000
vt 0.625000 0.671875
vt 0.656250 0.671875
vt 0.656250 0.718750
vt 0.625000 0.750000
vt 0.625000 0.671875
vt 0.656250 0.671875
vt 0.656250 0.718750
vt 0.625000 0.718750
vt 0.625000 0.671875
vt 0.656250 0.671875
vt 0.656250 0.750000
vt 0.625000 0.718750
vt 0.625000 0.671875
vt 0.656250 0.671875
vt 0.656250 0.750000
vt 0.625000 0.750000
vt 0.625000 0.671875
vt 0.656250 0.671875
vt 0.656250 0.718750
vt 0.625000 0.750000
vt 0.625000 0.671875
vt 0.656250 0.671875
vt 0.656250 0.718750
vt 0.625000 0.718750
vt 0.625000 0.671875
vt 0.656250 0.671875
vt 0.656250 0.750000
vt 0.625000 0.718750
vt 0.625000 0.671875
vt 0.656250 0.671875
vt 0.625000 0.671875
vt 0.625000 0.718750
vt 0.656250 0.750000
vt 0.656250 0.671875
vt 0.625000 0.671875
vt 0.625000 0.718750
vt 0.656250 0.718750
vt 0.656250 0.671875
vt 0.625000 0.671875
vt 0.625000 0.750000
vt 0.656250 0.750000
vt 0.656250 0.671875
vt 0.625000 0.671875
vt 0.625000 0.750000
vt 0.656250 0.718750
vt 0.750000 0.812500
vt 0.750000 0.875000
vt 0.734375 0.875000
vt 0.734375 0.812500
vt 0.734375 0.812500
vt 0.734375 0.875000
vt 0.703125 0.875000
vt 0.703125 0.812500
vt 0.750000 0.812500
vt 0.750000 0.875000
vt 0.703125 0.875000
vt 0.703125 0.812500
vt 0.750000 0.812500
vt 0.750000 0.875000
vt 0.734375 0.875000
vt 0.734375 0.812500
vt 0.734375 0.812500
vt 0.734375 0.875000
vt 0.703125 0.875000
vt 0.703125 0.812500
vt 0.750000 0.812500
vt 0.750000 0.875000
vt 0.703125 0.875000
vt 0.703125 0.812500
vt 1.000000 0.812500
vt 1.000000 0.937500
vt 0.875000 0.937500
vt 0.875000 0.812500
vt 0.875000 0.812500
vt 0.875000 0.937500
vt 0.812500 0.937500
vt 0.812500 0.812500
vt 0.875000 0.812500
vt 0.875000 0.937500
vt 0.750000 0.937500
vt 0.750000 0.812500
vt 0.812500 0.812500
vt 0.812500 0.937500
vt 0.750000 0.937500
vt 0.750000 0.812500
vt 0.812500 0.812500
vt 0.875000 0.812500
vt 0.875000 0.937500
vt 0.812500 0.937500
vt 0.812500 0.875000
vt 0.750000 0.875000
vt 0.750000 0.812500
vt 0.812500 0.812500
vt 0.062500 0.179688
vt 0.187500 0.179688
vt 0.187500 0.164062
vt 0.062500 0.164062
vt 0.062500 0.179688
vt 0.187500 0.179688
vt 0.187500 0.164062
vt 0.062500 0.164062
vt 0.062500 0.187500
vt 0.187500 0.187500
vt 0.187500 0.156250
vt 0.062500 0.156250
vt 0.062500 0.187500
vt 0.187500 0.187500
vt 0.187500 0.156250
vt 0.062500 0.156250
vt 0.500000 0.312500
vt 0.500000 0.437500
vt 0.000000 0.437500
vt 0.000000 0.312500
vt 0.781250 0.312500
vt 0.687500 0.218750
vt 1.000000 0.218750
vt 0.906250 0.312500
vt 0.000000 0.312500
vt 0.000000 0.437500
vt 0.500000 0.437500
vt 0.500000 0.312500
vt 0.781250 0.312500
vt 0.687500 0.218750
vt 1.000000 0.218750
vt 0.906250 0.312500
vt 0.500000 0.187500
vt 0.000000 0.187500
vt 0.500000 0.312500
vt 0.500000 0.437500
vt 0.000000 0.437500
vt 0.000000 0.312500
vt 0.906250 0.000000
vt 1.000000 0.093750
vt 0.687500 0.093750
vt 0.781250 0.000000
vt 0.000000 0.312500
vt 0.000000 0.437500
vt 0.500000 0.437500
vt 0.500000 0.312500
vt 0.906250 0.000000
vt 1.000000 0.093750
vt 0.687500 0.093750
vt 0.781250 0.000000
vt 0.500000 0.562500
vt 0.000000 0.562500
vt 1.000000 0.218750
vt 0.687500 0.218750
vt 0.000000 0.562500
vt 0.500000 0.562500
vt 1.000000 0.218750
vt 0.687500 0.218750
vt 0.625000 0.562500
vt 0.625000 0.625000
vt 0.000000 0.625000
vt 0.000000 0.562500
vt 0.625000 0.562500
vt 0.625000 0.625000
vt 0.000000 0.625000
vt 0.000000 0.562500
vt 1.000000 0.937500
vt 1.000000 1.000000
vt 0.625000 1.000000
vt 0.625000 0.937500
vt 0.625000 1.000000
vt 0.000000 1.000000
vt 0.625000 0.625000
vt 0.625000 1.000000
vt 0.000000 1.000000
vt 0.000000 0.625000
vt 0.750000 0.593750
vt 0.812500 0.531250
vt 0.812500 0.718750
vt 0.750000 0.656250
vt 0.671875 0.562500
vt 0.625000 0.562500
vt 0.625000 0.625000
vt 0.671875 0.625000
vt 0.718750 0.562500
vt 0.671875 0.562500
vt 0.671875 0.648438
vt 0.718750 0.648438
vt 0.718750 0.562500
vt 0.671875 0.648438
vt 0.718750 0.648438
vt 0.671875 0.562500
vt 0.625000 0.562500
vt 0.625000 0.625000
vt 0.671875 0.625000
vt 0.812500 0.531250
vt 0.750000 0.593750
vt 0.750000 0.656250
vt 0.812500 0.718750
vt 0.718750 0.562500
vt 0.671875 0.562500
vt 0.671875 0.648438
vt 0.718750 0.648438
vt 0.718750 0.562500
vt 0.671875 0.648438
vt 0.718750 0.648438
vt 0.109375 0.671875
vt 0.046875 0.671875
vt 0.062500 0.718750
vt 0.109375 0.718750
vt 0.109375 0.671875
vt 0.046875 0.671875
vt 0.046875 0.718750
vt 0.093750 0.718750
vt 0.875000 0.890625
vt 0.750000 0.890625
vt 0.750000 0.937500
vt 0.875000 0.937500
vt 0.109375 0.671875
vt 0.062500 0.671875
vt 0.046875 0.718750
vt 0.109375 0.718750
vt 0.093750 0.671875
vt 0.046875 0.671875
vt 0.046875 0.718750
vt 0.109375 0.718750
vt 0.875000 0.812500
vt 0.750000 0.812500
vt 0.750000 0.859375
vt 0.875000 0.859375
vt 0.812500 0.812500
vt 0.750000 0.812500
vt 0.750000 0.875000
vt 0.812500 0.875000
vt 0.875000 0.812500
vt 0.812500 0.812500
vt 0.812500 0.875000
vt 0.875000 0.875000
vt 0.875000 0.812500
vt 0.750000 0.812500
vt 0.750000 0.875000
vt 0.875000 0.875000
vt 0.625000 0.875000
vt 0.625000 0.937500
vt 0.750000 0.937500
vt 0.750000 0.875000
vt 0.812500 0.875000
vt 0.750000 0.875000
vt 0.750000 0.937500
vt 0.812500 0.937500
vt 0.875000 0.875000
vt 0.812500 0.875000
vt 0.812500 0.937500
vt 0.875000 0.937500
vt 0.875000 0.718750
vt 0.750000 0.718750
vt 0.750000 0.812500
vt 0.875000 0.812500
vt 1.000000 1.000000
vt 0.625000 1.000000
vt 0.625000 0.937500
vt 1.000000 0.937500
vt 0.625000 0.875000
vt 0.625000 0.750000
vt 0.687500 0.750000
vt 0.687500 0.875000
vt 0.875000 0.875000
vt 0.750000 0.937500
vt 0.750000 0.875000
vt 0.875000 0.562500
vt 1.000000 0.562500
vt 1.000000 0.687500
vt 0.875000 0.687500
vt 0.750000 0.812500
vt 0.812500 0.812500
vt 0.812500 0.937500
vt 0.750000 0.812500
vt 0.875000 0.812500
vt 0.875000 0.937500
vt 0.750000 0.937500
vt 0.875000 0.812500
vt 0.875000 0.875000
vt 0.750000 0.875000
vt 0.875000 0.875000
vt 0.812500 0.875000
vt 0.812500 0.812500
vt 1.000000 0.500000
vt 0.875000 0.500000
vt 0.875000 0.562500
vt 1.000000 0.562500
vt 0.750000 0.812500
vt 0.875000 0.812500
vt 0.656250 0.671875
vt 0.625000 0.671875
vt 0.625000 0.718750
vt 0.656250 0.718750
vt 0.656250 0.671875
vt 0.625000 0.671875
vt 0.625000 0.750000
vt 0.656250 0.750000
vt 0.656250 0.671875
vt 0.625000 0.671875
vt 0.625000 0.750000
vt 0.656250 0.718750
vt 0.656250 0.671875
vt 0.625000 0.671875
vt 0.625000 0.718750
vt 0.656250 0.750000
vt 0.656250 0.671875
vt 0.625000 0.671875
vt 0.625000 0.718750
vt 0.656250 0.750000
vt 0.656250 0.671875
vt 0.625000 0.671875
vt 0.625000 0.718750
vt 0.656250 0.718750
vt 0.656250 0.671875
vt 0.625000 0.671875
vt 0.625000 0.750000
vt 0.656250 0.750000
vt 0.656250 0.671875
vt 0.625000 0.671875
vt 0.625000 0.750000
vt 0.656250 0.718750
vt 0.062500 0.179688
vt 0.187500 0.179688
vt 0.187500 0.164062
vt 0.062500 0.164062
vt 0.062500 0.179688
vt 0.187500 0.179688
vt 0.187500 0.164062
vt 0.062500 0.164062
vt 0.062500 0.187500
vt 0.187500 0.187500
vt 0.187500 0.156250
vt 0.062500 0.156250
vt 0.062500 0.187500
vt 0.187500 0.187500
vt 0.187500 0.156250
vt 0.062500 0.156250
vn -1.0000 -0.0000 0.0000
vn 0.0000 0.0000 1.0000
vn 0.0000 0.7071 0.7071
vn 0.0000 -0.7071 0.7071
vn 0.0000 0.0000 -1.0000
vn 0.0000 0.7071 -0.7071
vn 0.0000 -0.7071 -0.7071
vn -0.9487 0.3162 0.0000
vn -0.5847 0.8113 -0.0000
vn -0.9487 -0.3162 -0.0000
vn 0.0000 1.0000 0.0000
vn 0.0000 -1.0000 -0.0000
vn 1.0000 0.0000 0.0000
vn 0.9487 0.3162 0.0000
vn 0.7696 0.2565 -0.5848
vn 0.7696 0.2565 0.5848
vn 0.9487 -0.3162 -0.0000
usemtl boiler
s off
f 5/1/1 6/2/1 2/3/1 1/4/1
f 7/5/2 8/6/2 6/7/2 5/8/2
f 2/9/3 6/10/3 8/11/3 3/12/3
f 5/13/4 1/14/4 4/15/4 7/5/4
f 15/16/5 16/17/5 14/18/5 13/19/5
f 12/20/1 11/21/1 16/22/1 15/23/1
f 10/24/6 14/25/6 16/26/6 11/27/6
f 13/28/7 9/29/7 12/30/7 15/16/7
f 4/31/2 17/32/2 18/33/2 19/34/2
f 21/35/5 22/36/5 20/37/5 9/38/5
f 19/39/8 18/40/9 22/41/9 21/42/8
f 23/43/2 3/44/2 24/45/2 25/46/2
f 27/47/5 28/48/5 10/49/5 26/50/5
f 25/51/10 24/52/10 28/53/10 27/54/10
f 3/55/2 29/56/2 30/57/2 24/58/2
f 28/59/5 32/60/5 31/61/5 10/62/5
f 24/63/1 30/64/1 32/65/1 28/66/1
f 29/67/11 31/68/11 32/69/11 30/70/11
f 33/71/2 4/72/2 19/73/2 34/74/2
f 36/75/5 21/76/5 9/77/5 35/78/5
f 34/74/1 19/73/1 21/79/1 36/80/1
f 18/81/1 37/82/1 38/83/1 22/84/1
f 39/85/2 40/86/2 41/87/2 42/88/2
f 45/89/5 46/90/5 44/91/5 43/92/5
f 40/93/11 44/94/11 46/95/11 41/96/11
f 43/97/12 39/98/12 42/99/12 45/100/12
f 48/101/2 50/102/2 49/103/2 47/104/2
f 54/105/5 51/106/5 52/107/5 53/108/5
f 50/109/13 54/110/13 53/111/13 49/112/13
f 51/113/1 48/114/1 47/115/1 52/116/1
f 55/117/2 56/118/2 57/119/2 58/120/2
f 59/121/13 60/122/13 56/123/13 55/124/13
f 61/125/5 62/126/5 60/127/5 59/128/5
f 58/129/1 57/130/1 62/131/1 61/132/1
f 63/133/2 64/134/2 65/135/2 66/136/2
f 67/137/13 68/138/13 64/139/13 63/140/13
f 69/141/5 70/142/5 68/143/5 67/144/5
f 66/145/1 65/146/1 70/147/1 69/148/1
f 75/149/1 72/150/1 71/151/1 76/152/1
f 72/153/2 74/154/2 73/155/2 71/156/2
f 78/157/5 75/158/5 76/159/5 77/160/5
f 74/161/13 78/162/13 77/163/13 73/164/13
f 79/165/2 80/166/2 81/167/2 82/168/2
f 83/169/13 84/170/13 80/171/13 79/172/13
f 85/173/5 86/174/5 84/170/5 83/169/5
f 82/168/1 81/167/1 86/175/1 85/176/1
f 87/177/2 88/178/2 89/179/2 90/180/2
f 91/181/13 92/182/13 88/183/13 87/184/13
f 93/185/5 94/186/5 92/182/5 91/181/5
f 90/180/1 89/179/1 94/187/1 93/188/1
f 95/189/2 96/190/2 97/191/2 98/192/2
f 99/193/13 100/194/13 96/195/13 95/196/13
f 101/197/5 102/198/5 100/199/5 99/200/5
f 98/201/1 97/202/1 102/203/1 101/204/1
f 96/205/13 100/206/13 179/207/13 177/208/13
f 98/209/1 101/210/1 184/211/1 182/212/1
f 106/213/12 104/214/12 107/215/12 110/216/12
f 109/217/11 108/218/11 103/219/11 105/220/11
f 110/221/5 107/222/5 108/223/5 109/224/5
f 104/225/2 106/226/2 105/227/2 103/228/2
f 111/229/6 112/230/6 113/231/6 114/232/6
f 115/233/13 116/234/13 112/235/13 111/236/13
f 117/237/3 118/238/3 116/239/3 115/240/3
f 114/241/1 113/242/1 118/243/1 117/244/1
f 115/245/11 111/229/11 114/232/11 117/246/11
f 119/247/4 120/248/4 121/249/4 122/250/4
f 123/251/13 124/252/13 120/253/13 119/254/13
f 125/255/7 126/256/7 124/257/7 123/258/7
f 122/259/1 121/260/1 126/261/1 125/262/1
f 120/248/2 127/263/2 128/264/2 121/249/2
f 124/252/13 129/265/13 127/266/13 120/253/13
f 126/256/5 130/267/5 129/268/5 124/257/5
f 121/260/1 128/269/1 130/270/1 126/261/1
f 131/271/2 132/272/2 133/273/2 134/274/2
f 137/275/5 138/276/5 136/277/5 135/278/5
f 134/279/1 133/280/1 138/281/1 137/282/1
f 132/272/11 136/283/11 138/284/11 133/273/11
f 135/285/12 131/286/12 134/287/12 137/288/12
f 143/289/13 139/290/13 140/291/13 144/292/13
f 145/293/2 143/294/2 144/295/2 146/296/2
f 140/297/3 141/298/3 146/299/3 144/300/3
f 143/301/4 145/293/4 142/302/4 139/303/4
f 153/304/5 151/305/5 152/306/5 154/307/5
f 150/308/13 153/309/13 154/310/13 149/311/13
f 148/312/6 149/313/6 154/314/6 152/315/6
f 151/316/7 153/304/7 150/317/7 147/318/7
f 142/319/2 157/320/2 156/321/2 155/322/2
f 159/323/5 147/324/5 158/325/5 160/326/5
f 157/327/14 159/328/14 160/329/15 156/330/16
f 161/331/2 163/332/2 162/333/2 141/334/2
f 165/335/5 164/336/5 148/337/5 166/338/5
f 163/339/17 165/340/17 166/341/17 162/342/17
f 141/343/2 162/344/2 168/345/2 167/346/2
f 166/347/5 148/348/5 169/349/5 170/350/5
f 162/351/13 166/352/13 170/353/13 168/354/13
f 167/355/11 168/356/11 170/357/11 169/358/11
f 171/359/2 172/360/2 157/361/2 142/362/2
f 174/363/5 173/364/5 147/365/5 159/366/5
f 156/367/13 160/368/13 176/369/13 175/370/13
f 136/371/13 132/372/13 131/373/13 135/374/13
f 159/375/13 157/376/13 172/377/13 174/378/13
f 177/379/11 179/207/11 180/380/11 178/381/11
f 97/382/2 96/383/2 177/384/2 178/385/2
f 102/386/1 97/387/1 178/388/1 180/380/1
f 100/389/5 102/390/5 180/391/5 179/392/5
f 183/393/12 181/394/12 182/395/12 184/211/12
f 99/396/13 95/397/13 181/398/13 183/393/13
f 95/399/2 98/400/2 182/401/2 181/402/2
f 101/197/5 99/200/5 183/403/5 184/404/5
f 186/405/2 188/406/2 187/407/2 185/408/2
f 192/409/5 189/410/5 190/411/5 191/412/5
f 188/413/13 192/414/13 191/415/13 187/416/13
f 189/417/1 186/418/1 185/419/1 190/420/1
f 197/421/1 194/422/1 193/423/1 198/424/1
f 194/425/2 196/426/2 195/427/2 193/428/2
f 200/429/5 197/430/5 198/431/5 199/432/5
f 196/433/13 200/434/13 199/435/13 195/436/13
f 204/437/12 202/438/12 205/439/12 208/440/12
f 207/441/11 206/442/11 201/443/11 203/444/11
f 208/445/5 205/446/5 206/447/5 207/448/5
f 202/449/2 204/450/2 203/451/2 201/452/2
