# Made in Blockbench 5.0.7
mtllib heat_exchanger.mtl

o cube
v -1.875 0.5 0.5
v -1.875 1 0.5
v -1.875 1.5 1
v -1.875 0 1
v -1.5 0.5 0.5
v -1.5 1 0.5
v -1.5 1.5 1
v -1.5 0 1
v -1.875 0.5 2.5
v -1.875 1 2.5
v -1.5 1 2.5
v -1.5 0.5 2.5
v -1.875 0 2
v -1.875 1.5 2
v -1.5 1.5 2
v -1.5 0 2
v -1.5 0.375 1
v -1.875 0.375 1
v -2 0 1
v -2 0 2
v -1.875 0.375 2
v -1.5 0.375 2
v -1.5 1.125 1
v -2 1.5 1
v -1.875 1.125 1
v -1.875 1.125 2
v -2 1.5 2
v -1.5 1.125 2
v -1.5 2 1
v -2 2 1
v -2 2 2
v -1.5 2 2
v -1.5 -0.5 1
v -2 -0.5 1
v -2 -0.5 2
v -1.5 -0.5 2
v -1.875 1.125 1
v -1.875 1.125 2
v 2 -0.3203125 0.4375
v 2 -0.0703125 0.4375
v 1 -0.0703125 0.4375
v 1 -0.3203125 0.4375
v 1 -0.3203125 0.5625
v 1 -0.0703125 0.5625
v 2 -0.0703125 0.5625
v 2 -0.3203125 0.5625
v 0.75 -0.5 2.375
v 1 -0.5 2.375
v 1 -0.125 2.375
v 0.75 -0.125 2.375
v 1 -0.5 2.625
v 0.75 -0.5 2.625
v 0.75 0.125 2.625
v 1 0.125 2.625
v 2.25 -0.5 0.375
v 2.25 0.125 0.375
v 2 0.125 0.375
v 2 -0.5 0.375
v 2.25 -0.5 0.625
v 2.25 -0.125 0.625
v 2 -0.5 0.625
v 2 -0.125 0.625
v 1 -0.5 0.375
v 1 0.125 0.375
v 0.75 0.125 0.375
v 0.75 -0.5 0.375
v 1 -0.5 0.625
v 1 -0.125 0.625
v 0.75 -0.5 0.625
v 0.75 -0.125 0.625
v 2 -0.5 2.625
v 2 -0.5 2.375
v 2 -0.125 2.375
v 2 0.125 2.625
v 2.25 -0.5 2.375
v 2.25 -0.125 2.375
v 2.25 -0.5 2.625
v 2.25 0.125 2.625
v -0.75 -0.5 0.125
v -0.75 0 0.125
v -0.875 0 0.125
v -0.875 -0.5 0.125
v -0.75 -0.5 0.375
v -0.75 0 0.375
v -0.875 -0.5 0.375
v -0.875 0 0.375
v -0.125 -0.5 0.125
v -0.125 0 0.125
v -0.25 0 0.125
v -0.25 -0.5 0.125
v -0.125 -0.5 0.375
v -0.125 0 0.375
v -0.25 -0.5 0.375
v -0.25 0 0.375
v 0 0 0
v 0 1 0
v -1 1 0
v -1 0 0
v 0 0 0.5
v 0 1 0.5
v -1 0 0.5
v -1 1 0.5
v 0 2 0.5
v 0 2 0
v -1 -0.5 0.5
v -1 -0.5 0
v 2 -0.3203125 2.4375
v 1 -0.3203125 2.4375
v 1 -0.3203125 2.5625
v 2 -0.3203125 2.5625
v 2 -0.0703125 2.5625
v 1 -0.0703125 2.5625
v 1 -0.0703125 2.4375
v 2 -0.0703125 2.4375
v 2.5 2 2
v 2.5 1.25 2.75
v -1.5 1.25 2.75
v -1.5 2 2
v 2.5 2 1
v 2.5 1.25 0.25
v -1.5 2 1
v -1.5 1.25 0.25
v 2.5 -0.5 1
v 2.5 0.25 0.25
v -1.5 0.25 0.25
v -1.5 -0.5 1
v 2.5 -0.5 2
v 2.5 0.25 2.75
v -1.5 -0.5 2
v -1.5 0.25 2.75
v 2.5 1.25 0.25
v -1.5 1.25 0.25
v 2.5 1.25 2.75
v -1.5 1.25 2.75
v 3 -1 0
v 3 -0.5 0
v -2 -0.5 0
v -2 -1 0
v -2 -1 3
v -2 -0.5 3
v 3 -0.5 3
v 3 -1 3
v 2.875 0.5 0.5
v 2.875 0 1
v 2.875 1.5 1
v 2.875 1 0.5
v 2.5 0.5 0.5
v 2.5 1 0.5
v 2.5 1.5 1
v 2.5 0 1
v 2.875 0.5 2.5
v 2.5 0.5 2.5
v 2.5 1 2.5
v 2.875 1 2.5
v 2.875 0 2
v 2.875 1.5 2
v 2.5 1.5 2
v 2.5 0 2
v 3 0 1
v 2.875 0.375 1
v 2.5 0.375 1
v 3 0 2
v 2.5 0.375 2
v 2.875 0.375 2
v 2.5 1.125 1
v 2.875 1.125 1
v 3 1.5 1
v 2.875 1.125 2
v 2.5 1.125 2
v 3 1.5 2
v 3 2 1
v 2.5 2 1
v 2.5 2 2
v 3 2 2
v 2.5 -0.5 1
v 3 -0.5 1
v 3 -0.5 2
v 2.5 -0.5 2
v 2.875 1.125 2
v 2.875 1.125 1
v -1 2 0.5
v -1 2 0
v 0 -0.5 0.5
v 0 -0.5 0
v -1.25 -0.5 2.375
v -1 -0.5 2.375
v -1 -0.125 2.375
v -1.25 -0.125 2.375
v -1 -0.5 2.625
v -1.25 -0.5 2.625
v -1.25 0.125 2.625
v -1 0.125 2.625
v 0 -0.5 2.625
v 0 -0.5 2.375
v 0 -0.125 2.375
v 0 0.125 2.625
v 0.25 -0.5 2.375
v 0.25 -0.125 2.375
v 0.25 -0.5 2.625
v 0.25 0.125 2.625
v 0 -0.3203125 2.4375
v -1 -0.3203125 2.4375
v -1 -0.3203125 2.5625
v 0 -0.3203125 2.5625
v 0 -0.0703125 2.5625
v -1 -0.0703125 2.5625
v -1 -0.0703125 2.4375
v 0 -0.0703125 2.4375
vt 0.8125 0.71875
vt 0.75 0.65625
vt 0.75 0.59375
vt 0.8125 0.53125
vt 0.625 0.625
vt 0.671875 0.625
vt 0.671875 0.5625
vt 0.625 0.5625
vt 0.671875 0.6484379687499999
vt 0.71875 0.6484379687499999
vt 0.71875 0.5625
vt 0.671875 0.5625
vt 0.671875 0.6484379687499999
vt 0.71875 0.6484379687499999
vt 0.71875 0.5625
vt 0.671875 0.5625
vt 0.625 0.625
vt 0.671875 0.625
vt 0.671875 0.5625
vt 0.625 0.5625
vt 0.75 0.65625
vt 0.8125 0.71875
vt 0.8125 0.53125
vt 0.75 0.59375
vt 0.671875 0.6484379687499999
vt 0.71875 0.6484379687499999
vt 0.71875 0.5625
vt 0.671875 0.5625
vt 0.671875 0.6484379687499999
vt 0.71875 0.6484379687499999
vt 0.71875 0.5625
vt 0.671875 0.5625
vt 0.0625 0.71875
vt 0.109375 0.71875
vt 0.109375 0.671875
vt 0.046875 0.671875
vt 0.046875 0.71875
vt 0.09375 0.71875
vt 0.109375 0.671875
vt 0.046875 0.671875
vt 0.75 0.9375
vt 0.875 0.9375
vt 0.875 0.890625
vt 0.75 0.890625
vt 0.046875 0.71875
vt 0.109375 0.71875
vt 0.109375 0.671875
vt 0.0625 0.671875
vt 0.046875 0.71875
vt 0.109375 0.71875
vt 0.09375 0.671875
vt 0.046875 0.671875
vt 0.75 0.859375
vt 0.875 0.859375
vt 0.875 0.8125
vt 0.75 0.8125
vt 0.75 0.875
vt 0.8125 0.875
vt 0.8125 0.8125
vt 0.75 0.8125
vt 0.8125 0.875
vt 0.875 0.875
vt 0.875 0.8125
vt 0.8125 0.8125
vt 0.75 0.875
vt 0.875 0.875
vt 0.875 0.8125
vt 0.75 0.8125
vt 0.625 0.875
vt 0.6875 0.875
vt 0.6875 0.75
vt 0.625 0.75
vt 0.75 0.9375
vt 0.8125 0.9375
vt 0.8125 0.875
vt 0.75 0.875
vt 0.8125 0.9375
vt 0.875 0.9375
vt 0.875 0.875
vt 0.8125 0.875
vt 0.625 0.9375
vt 0.75 0.9375
vt 0.75 0.875
vt 0.625 0.875
vt 0.75 0.8125
vt 0.875 0.8125
vt 0.875 0.71875
vt 0.75 0.71875
vt 0.1875 0.15625
vt 0.0625 0.15625
vt 0.0625 0.1875
vt 0.1875 0.1875
vt 0.1875 0.15625
vt 0.0625 0.15625
vt 0.0625 0.1875
vt 0.1875 0.1875
vt 0.1875 0.16406203124999996
vt 0.0625 0.16406203124999996
vt 0.0625 0.17968796875000004
vt 0.1875 0.17968796875000004
vt 0.1875 0.16406203124999996
vt 0.0625 0.16406203124999996
vt 0.0625 0.17968796875000004
vt 0.1875 0.17968796875000004
vt 0.625 0.71875
vt 0.625 0.671875
vt 0.65625 0.671875
vt 0.65625 0.71875
vt 0.625 0.75
vt 0.625 0.671875
vt 0.65625 0.671875
vt 0.65625 0.75
vt 0.625 0.75
vt 0.625 0.671875
vt 0.65625 0.671875
vt 0.65625 0.71875
vt 0.625 0.71875
vt 0.625 0.671875
vt 0.65625 0.671875
vt 0.65625 0.75
vt 0.625 0.75
vt 0.65625 0.75
vt 0.65625 0.671875
vt 0.625 0.671875
vt 0.625 0.75
vt 0.65625 0.71875
vt 0.65625 0.671875
vt 0.625 0.671875
vt 0.625 0.71875
vt 0.65625 0.71875
vt 0.65625 0.671875
vt 0.625 0.671875
vt 0.625 0.71875
vt 0.65625 0.75
vt 0.65625 0.671875
vt 0.625 0.671875
vt 0.625 0.75
vt 0.65625 0.75
vt 0.65625 0.671875
vt 0.625 0.671875
vt 0.625 0.75
vt 0.65625 0.71875
vt 0.65625 0.671875
vt 0.625 0.671875
vt 0.625 0.71875
vt 0.65625 0.71875
vt 0.65625 0.671875
vt 0.625 0.671875
vt 0.625 0.71875
vt 0.65625 0.75
vt 0.65625 0.671875
vt 0.625 0.671875
vt 0.625 0.71875
vt 0.625 0.671875
vt 0.65625 0.671875
vt 0.65625 0.75
vt 0.625 0.71875
vt 0.625 0.671875
vt 0.65625 0.671875
vt 0.65625 0.71875
vt 0.625 0.75
vt 0.625 0.671875
vt 0.65625 0.671875
vt 0.65625 0.75
vt 0.625 0.75
vt 0.625 0.671875
vt 0.65625 0.671875
vt 0.65625 0.71875
vt 0.734375 0.875
vt 0.75 0.875
vt 0.75 0.8125
vt 0.734375 0.8125
vt 0.703125 0.875
vt 0.734375 0.875
vt 0.734375 0.8125
vt 0.703125 0.8125
vt 0.734375 0.875
vt 0.75 0.875
vt 0.75 0.8125
vt 0.734375 0.8125
vt 0.703125 0.875
vt 0.734375 0.875
vt 0.734375 0.8125
vt 0.703125 0.8125
vt 0.734375 0.875
vt 0.75 0.875
vt 0.75 0.8125
vt 0.734375 0.8125
vt 0.703125 0.875
vt 0.734375 0.875
vt 0.734375 0.8125
vt 0.703125 0.8125
vt 0.734375 0.875
vt 0.75 0.875
vt 0.75 0.8125
vt 0.734375 0.8125
vt 0.703125 0.875
vt 0.734375 0.875
vt 0.734375 0.8125
vt 0.703125 0.8125
vt 0.875 0.9375
vt 1 0.9375
vt 1 0.8125
vt 0.875 0.8125
vt 0.8125 0.9375
vt 0.875 0.9375
vt 0.875 0.8125
vt 0.8125 0.8125
vt 0.75 0.9375
vt 0.875 0.9375
vt 0.875 0.8125
vt 0.75 0.8125
vt 0.75 0.9375
vt 0.8125 0.9375
vt 0.8125 0.8125
vt 0.75 0.8125
vt 0.875 0.9375
vt 0.875 0.8125
vt 0.8125 0.8125
vt 0.8125 0.9375
vt 0.75 0.8125
vt 0.75 0.875
vt 0.8125 0.875
vt 0.8125 0.8125
vt 0.1875 0.16406203124999996
vt 0.1875 0.17968796875000004
vt 0.0625 0.17968796875000004
vt 0.0625 0.16406203124999996
vt 0.1875 0.16406203124999996
vt 0.1875 0.17968796875000004
vt 0.0625 0.17968796875000004
vt 0.0625 0.16406203124999996
vt 0.1875 0.15625
vt 0.1875 0.1875
vt 0.0625 0.1875
vt 0.0625 0.15625
vt 0.1875 0.15625
vt 0.1875 0.1875
vt 0.0625 0.1875
vt 0.0625 0.15625
vt 0 0.4375
vt 0.5 0.4375
vt 0.5 0.3125
vt 0 0.3125
vt 1 0.21875
vt 0.6875 0.21875
vt 0.78125 0.3125
vt 0.90625 0.3125
vt 0.5 0.4375
vt 0 0.4375
vt 0 0.3125
vt 0.5 0.3125
vt 1 0.21875
vt 0.6875 0.21875
vt 0.78125 0.3125
vt 0.90625 0.3125
vt 0 0.3125
vt 0.5 0.3125
vt 0.5 0.1875
vt 0 0.1875
vt 0 0.4375
vt 0.5 0.4375
vt 0.5 0.3125
vt 0 0.3125
vt 0.6875 0.09375
vt 1 0.09375
vt 0.90625 0
vt 0.78125 0
vt 0.5 0.4375
vt 0 0.4375
vt 0 0.3125
vt 0.5 0.3125
vt 0.6875 0.09375
vt 1 0.09375
vt 0.90625 0
vt 0.78125 0
vt 0 0.5625
vt 0.5 0.5625
vt 0.5 0.4375
vt 0 0.4375
vt 0.6875 0.21875
vt 1 0.21875
vt 1 0.09375
vt 0.6875 0.09375
vt 0.5 0.5625
vt 0 0.5625
vt 0 0.4375
vt 0.5 0.4375
vt 0.6875 0.21875
vt 1 0.21875
vt 1 0.09375
vt 0.6875 0.09375
vt 0 0.625
vt 0.625 0.625
vt 0.625 0.5625
vt 0 0.5625
vt 0 0.625
vt 0.625 0.625
vt 0.625 0.5625
vt 0 0.5625
vt 0.625 1
vt 1 1
vt 1 0.9375
vt 0.625 0.9375
vt 0 1
vt 0.625 1
vt 0.625 0.625
vt 0 0.625
vt 0 1
vt 0.625 1
vt 0.625 0.625
vt 0 0.625
vt 0.8125 0.71875
vt 0.8125 0.53125
vt 0.75 0.59375
vt 0.75 0.65625
vt 0.625 0.625
vt 0.625 0.5625
vt 0.671875 0.5625
vt 0.671875 0.625
vt 0.671875 0.6484379687499999
vt 0.671875 0.5625
vt 0.71875 0.5625
vt 0.71875 0.6484379687499999
vt 0.671875 0.6484379687499999
vt 0.671875 0.5625
vt 0.71875 0.5625
vt 0.71875 0.6484379687499999
vt 0.625 0.625
vt 0.625 0.5625
vt 0.671875 0.5625
vt 0.671875 0.625
vt 0.75 0.65625
vt 0.75 0.59375
vt 0.8125 0.53125
vt 0.8125 0.71875
vt 0.671875 0.6484379687499999
vt 0.671875 0.5625
vt 0.71875 0.5625
vt 0.71875 0.6484379687499999
vt 0.671875 0.6484379687499999
vt 0.671875 0.5625
vt 0.71875 0.5625
vt 0.71875 0.6484379687499999
vt 0.0625 0.71875
vt 0.046875 0.671875
vt 0.109375 0.671875
vt 0.109375 0.71875
vt 0.046875 0.71875
vt 0.046875 0.671875
vt 0.109375 0.671875
vt 0.09375 0.71875
vt 0.75 0.9375
vt 0.75 0.890625
vt 0.875 0.890625
vt 0.875 0.9375
vt 0.046875 0.71875
vt 0.0625 0.671875
vt 0.109375 0.671875
vt 0.109375 0.71875
vt 0.046875 0.71875
vt 0.046875 0.671875
vt 0.09375 0.671875
vt 0.109375 0.71875
vt 0.75 0.859375
vt 0.75 0.8125
vt 0.875 0.8125
vt 0.875 0.859375
vt 0.75 0.875
vt 0.75 0.8125
vt 0.8125 0.8125
vt 0.8125 0.875
vt 0.8125 0.875
vt 0.8125 0.8125
vt 0.875 0.8125
vt 0.875 0.875
vt 0.75 0.875
vt 0.75 0.8125
vt 0.875 0.8125
vt 0.875 0.875
vt 0.75 0.9375
vt 0.625 0.9375
vt 0.625 0.875
vt 0.75 0.875
vt 0.75 0.9375
vt 0.75 0.875
vt 0.8125 0.875
vt 0.8125 0.9375
vt 0.8125 0.9375
vt 0.8125 0.875
vt 0.875 0.875
vt 0.875 0.9375
vt 0.75 0.8125
vt 0.75 0.71875
vt 0.875 0.71875
vt 0.875 0.8125
vt 0.625 0.9375
vt 0.625 1
vt 1 1
vt 1 0.9375
vt 0.6875 0.75
vt 0.625 0.75
vt 0.625 0.875
vt 0.6875 0.875
vt 0.75 0.9375
vt 0.875 0.9375
vt 0.875 0.875
vt 0.75 0.875
vt 1 0.6875
vt 1 0.5625
vt 0.875 0.5625
vt 0.875 0.6875
vt 0.8125 0.9375
vt 0.8125 0.8125
vt 0.75 0.8125
vt 0.75 0.9375
vt 0.875 0.9375
vt 0.875 0.8125
vt 0.75 0.8125
vt 0.75 0.9375
vt 0.75 0.875
vt 0.875 0.875
vt 0.875 0.8125
vt 0.75 0.8125
vt 0.8125 0.8125
vt 0.8125 0.875
vt 0.875 0.875
vt 0.875 0.8125
vt 0.875 0.5625
vt 0.875 0.5
vt 1 0.5
vt 1 0.5625
vt 0.75 0.8125
vt 0.75 0.8125
vt 0.875 0.8125
vt 0.875 0.8125
vt 0.625 0.71875
vt 0.625 0.671875
vt 0.65625 0.671875
vt 0.65625 0.71875
vt 0.625 0.75
vt 0.625 0.671875
vt 0.65625 0.671875
vt 0.65625 0.75
vt 0.625 0.75
vt 0.625 0.671875
vt 0.65625 0.671875
vt 0.65625 0.71875
vt 0.625 0.71875
vt 0.625 0.671875
vt 0.65625 0.671875
vt 0.65625 0.75
vt 0.625 0.71875
vt 0.625 0.671875
vt 0.65625 0.671875
vt 0.65625 0.75
vt 0.625 0.71875
vt 0.625 0.671875
vt 0.65625 0.671875
vt 0.65625 0.71875
vt 0.625 0.75
vt 0.625 0.671875
vt 0.65625 0.671875
vt 0.65625 0.75
vt 0.625 0.75
vt 0.625 0.671875
vt 0.65625 0.671875
vt 0.65625 0.71875
vt 0.1875 0.16406203124999996
vt 0.1875 0.17968796875000004
vt 0.0625 0.17968796875000004
vt 0.0625 0.16406203124999996
vt 0.1875 0.16406203124999996
vt 0.1875 0.17968796875000004
vt 0.0625 0.17968796875000004
vt 0.0625 0.16406203124999996
vt 0.1875 0.15625
vt 0.1875 0.1875
vt 0.0625 0.1875
vt 0.0625 0.15625
vt 0.1875 0.15625
vt 0.1875 0.1875
vt 0.0625 0.1875
vt 0.0625 0.15625
vn -1 0 0
vn 0 0 -1
vn 0 0.7071067811865476 -0.7071067811865476
vn 0 -0.7071067811865476 -0.7071067811865476
vn 0 0 1
vn -1 0 0
vn 0 0.7071067811865476 0.7071067811865476
vn 0 -0.7071067811865476 0.7071067811865476
vn 0 0 -1
vn 0 0 1
vn -0.948683298050514 0.316227766016838 0
vn 0 0 -1
vn 0 0 1
vn -0.948683298050514 -0.316227766016838 0
vn 0 0 -1
vn 0 0 1
vn -1 0 0
vn 0 1 0
vn 0 0 -1
vn 0 0 1
vn -1 0 0
vn -1 0 0
vn 0 0 -1
vn 0 0 1
vn 0 1 0
vn 0 -1 0
vn 0 0 -1
vn 0 0 1
vn 1 0 0
vn -1 0 0
vn 0 0 -1
vn 1 0 0
vn 0 0 1
vn -1 0 0
vn 0 0 -1
vn 1 0 0
vn 0 0 1
vn -1 0 0
vn -1 0 0
vn 0 0 -1
vn 0 0 1
vn 1 0 0
vn 0 0 -1
vn 1 0 0
vn 0 0 1
vn -1 0 0
vn 0 0 -1
vn 1 0 0
vn 0 0 1
vn -1 0 0
vn 0 0 -1
vn 1 0 0
vn 0 0 1
vn -1 0 0
vn 1 0 0
vn -1 0 0
vn 0 -1 0
vn 0 1 0
vn 0 0 1
vn 0 0 -1
vn 0 0.7071067811865476 0.7071067811865476
vn 1 0 0
vn 0 0.7071067811865476 -0.7071067811865476
vn -1 0 0
vn 0 1 0
vn 0 -0.7071067811865476 -0.7071067811865476
vn 1 0 0
vn 0 -0.7071067811865476 0.7071067811865476
vn -1 0 0
vn 0 0 -1
vn 1 0 0
vn 0 0 1
vn -1 0 0
vn 0 0 -1
vn 0 0 1
vn -1 0 0
vn 0 1 0
vn 0 -1 0
vn 1 0 0
vn 0 0 -1
vn 0 0.7071067811865476 -0.7071067811865476
vn 0 -0.7071067811865476 -0.7071067811865476
vn 0 0 1
vn 1 0 0
vn 0 0.7071067811865476 0.7071067811865476
vn 0 -0.7071067811865476 0.7071067811865476
vn 0 0 -1
vn 0 0 1
vn 0.948683298050514 0.316227766016838 0
vn 0 0 -1
vn 0 0 1
vn 0.948683298050514 -0.316227766016838 0
vn 0 0 -1
vn 0 0 1
vn 1 0 0
vn 0 1 0
vn 0 0 -1
vn 0 0 1
vn 1 0 0
vn 1 0 0
vn 1 0 0
vn 0 1 0
vn 0 0 -1
vn -1 0 0
vn 0 0 1
vn 0 -1 0
vn 1 0 0
vn 0 0 -1
vn 0 0 1
vn 0 0 -1
vn 0 0 1
vn 1 0 0
vn -1 0 0
vn -1 0 0
vn 0 0 -1
vn 0 0 1
vn 1 0 0
vn 0 -1 0
vn 0 1 0
vn 0 0 1
vn 0 0 -1
usemtl m_6cc76360-2e0b-486d-7532-69a199a87a72
f 3/1/1 2/2/1 1/3/1 4/4/1
f 2/5/2 6/6/2 5/7/2 1/8/2
f 6/9/3 2/10/3 3/11/3 7/12/3
f 8/13/4 4/14/4 1/15/4 5/16/4
f 11/17/5 10/18/5 9/19/5 12/20/5
f 10/21/6 14/22/6 13/23/6 9/24/6
f 10/25/7 11/26/7 15/27/7 14/28/7
f 13/29/8 16/30/8 12/31/8 9/32/8
f 18/33/9 17/34/9 8/35/9 19/36/9
f 22/37/10 21/38/10 20/39/10 16/40/10
f 21/41/11 18/42/11 19/43/11 20/44/11
f 24/45/12 7/46/12 23/47/12 25/48/12
f 15/49/13 27/50/13 26/51/13 28/52/13
f 27/53/14 24/54/14 25/55/14 26/56/14
f 30/57/15 29/58/15 7/59/15 24/60/15
f 32/61/16 31/62/16 27/63/16 15/64/16
f 31/65/17 30/66/17 24/67/17 27/68/17
f 31/69/18 32/70/18 29/71/18 30/72/18
f 19/73/19 8/74/19 33/75/19 34/76/19
f 16/77/20 20/78/20 35/79/20 36/80/20
f 20/81/21 19/82/21 34/83/21 35/84/21
f 38/85/22 37/86/22 18/87/22 21/88/22
f 41/89/23 40/90/23 39/91/23 42/92/23
f 45/93/24 44/94/24 43/95/24 46/96/24
f 44/97/25 45/98/25 40/99/25 41/100/25
f 42/101/26 39/102/26 46/103/26 43/104/26
f 49/105/27 48/106/27 47/107/27 50/108/27
f 53/109/28 52/110/28 51/111/28 54/112/28
f 54/113/29 51/114/29 48/115/29 49/116/29
f 50/117/30 47/118/30 52/119/30 53/120/30
f 57/121/31 56/122/31 55/123/31 58/124/31
f 56/125/32 60/126/32 59/127/32 55/128/32
f 60/129/33 62/130/33 61/131/33 59/132/33
f 62/133/34 57/134/34 58/135/34 61/136/34
f 65/137/35 64/138/35 63/139/35 66/140/35
f 64/141/36 68/142/36 67/143/36 63/144/36
f 68/145/37 70/146/37 69/147/37 67/148/37
f 70/149/38 65/150/38 66/151/38 69/152/38
f 73/153/39 72/154/39 71/155/39 74/156/39
f 76/157/40 75/158/40 72/159/40 73/160/40
f 74/161/41 71/162/41 77/163/41 78/164/41
f 78/165/42 77/166/42 75/167/42 76/168/42
f 81/169/43 80/170/43 79/171/43 82/172/43
f 80/173/44 84/174/44 83/175/44 79/176/44
f 84/177/45 86/178/45 85/179/45 83/180/45
f 86/181/46 81/182/46 82/183/46 85/184/46
f 89/185/47 88/186/47 87/187/47 90/188/47
f 88/189/48 92/190/48 91/191/48 87/192/48
f 92/193/49 94/194/49 93/195/49 91/196/49
f 94/197/50 89/198/50 90/199/50 93/200/50
f 97/201/51 96/202/51 95/203/51 98/204/51
f 96/205/52 100/206/52 99/207/52 95/208/52
f 100/209/53 102/210/53 101/211/53 99/212/53
f 102/213/54 97/214/54 98/215/54 101/216/54
f 103/217/55 100/218/55 96/219/55 104/220/55
f 105/221/56 101/222/56 98/223/56 106/224/56
f 109/225/57 108/226/57 107/227/57 110/228/57
f 113/229/58 112/230/58 111/231/58 114/232/58
f 112/233/59 109/234/59 110/235/59 111/236/59
f 114/237/60 107/238/60 108/239/60 113/240/60
f 117/241/61 116/242/61 115/243/61 118/244/61
f 116/245/62 120/246/62 119/247/62 115/248/62
f 120/249/63 122/250/63 121/251/63 119/252/63
f 122/253/64 117/254/64 118/255/64 121/256/64
f 118/257/65 115/258/65 119/259/65 121/260/65
f 125/261/66 124/262/66 123/263/66 126/264/66
f 124/265/67 128/266/67 127/267/67 123/268/67
f 128/269/68 130/270/68 129/271/68 127/272/68
f 130/273/69 125/274/69 126/275/69 129/276/69
f 132/277/70 131/278/70 124/279/70 125/280/70
f 131/281/71 133/282/71 128/283/71 124/284/71
f 133/285/72 134/286/72 130/287/72 128/288/72
f 134/289/73 132/290/73 125/291/73 130/292/73
f 137/293/74 136/294/74 135/295/74 138/296/74
f 141/297/75 140/298/75 139/299/75 142/300/75
f 140/301/76 137/302/76 138/303/76 139/304/76
f 140/305/77 141/306/77 136/307/77 137/308/77
f 138/309/78 135/310/78 142/311/78 139/312/78
f 145/313/79 144/314/79 143/315/79 146/316/79
f 146/317/80 143/318/80 147/319/80 148/320/80
f 148/321/81 149/322/81 145/323/81 146/324/81
f 150/325/82 147/326/82 143/327/82 144/328/82
f 153/329/83 152/330/83 151/331/83 154/332/83
f 154/333/84 151/334/84 155/335/84 156/336/84
f 154/337/85 156/338/85 157/339/85 153/340/85
f 155/341/86 151/342/86 152/343/86 158/344/86
f 160/345/87 159/346/87 150/347/87 161/348/87
f 163/349/88 158/350/88 162/351/88 164/352/88
f 164/353/89 162/354/89 159/355/89 160/356/89
f 167/357/90 166/358/90 165/359/90 149/360/90
f 157/361/91 169/362/91 168/363/91 170/364/91
f 170/365/92 168/366/92 166/367/92 167/368/92
f 171/369/93 167/370/93 149/371/93 172/372/93
f 173/373/94 157/374/94 170/375/94 174/376/94
f 174/377/95 170/378/95 167/379/95 171/380/95
f 174/381/96 171/382/96 172/383/96 173/384/96
f 159/385/97 176/386/97 175/387/97 150/388/97
f 158/389/98 178/390/98 177/391/98 162/392/98
f 179/393/99 164/394/99 160/395/99 180/396/99
f 135/397/100 136/398/100 141/399/100 142/400/100
f 176/401/101 159/402/101 162/403/101 177/404/101
f 181/405/102 103/406/102 104/407/102 182/408/102
f 104/409/103 96/410/103 97/411/103 182/412/103
f 182/413/104 97/414/104 102/415/104 181/416/104
f 181/417/105 102/418/105 100/419/105 103/420/105
f 106/421/106 184/422/106 183/423/106 105/424/106
f 184/425/107 95/426/107 99/427/107 183/428/107
f 106/429/108 98/430/108 95/431/108 184/432/108
f 183/433/109 99/434/109 101/435/109 105/436/109
f 187/437/110 186/438/110 185/439/110 188/440/110
f 191/441/111 190/442/111 189/443/111 192/444/111
f 192/445/112 189/446/112 186/447/112 187/448/112
f 188/449/113 185/450/113 190/451/113 191/452/113
f 195/453/114 194/454/114 193/455/114 196/456/114
f 198/457/115 197/458/115 194/459/115 195/460/115
f 196/461/116 193/462/116 199/463/116 200/464/116
f 200/465/117 199/466/117 197/467/117 198/468/117
f 203/469/118 202/470/118 201/471/118 204/472/118
f 207/473/119 206/474/119 205/475/119 208/476/119
f 206/477/120 203/478/120 204/479/120 205/480/120
f 208/481/121 201/482/121 202/483/121 207/484/121