# Made in Blockbench 5.0.7
mtllib heat_exchanger.mtl

o cube
v -1.875 0.5 0.5
v -1.875 1 0.5
v -1.875 1.5 0
v -1.875 0 0
v -1.5 0.5 0.5
v -1.5 1 0.5
v -1.5 1.5 0
v -1.5 0 0
v -1.875 0.5 -1.5
v -1.875 1 -1.5
v -1.5 1 -1.5
v -1.5 0.5 -1.5
v -1.875 0 -1
v -1.875 1.5 -1
v -1.5 1.5 -1
v -1.5 0 -1
v -1.5 0.375 0
v -1.875 0.375 0
v -2 0 0
v -2 0 -1
v -1.875 0.375 -1
v -1.5 0.375 -1
v -1.5 1.125 0
v -2 1.5 0
v -1.875 1.125 0
v -1.875 1.125 -1
v -2 1.5 -1
v -1.5 1.125 -1
v -1.5 2 0
v -2 2 0
v -2 2 -1
v -1.5 2 -1
v -1.5 -0.5 0
v -2 -0.5 0
v -2 -0.5 -1
v -1.5 -0.5 -1
v -1.875 1.125 0
v -1.875 1.125 -1
v 2 -0.3203125 0.5625
v 2 -0.0703125 0.5625
v 1 -0.0703125 0.5625
v 1 -0.3203125 0.5625
v 1 -0.3203125 0.4375
v 1 -0.0703125 0.4375
v 2 -0.0703125 0.4375
v 2 -0.3203125 0.4375
v 0.75 -0.5 -1.375
v 1 -0.5 -1.375
v 1 -0.125 -1.375
v 0.75 -0.125 -1.375
v 1 -0.5 -1.625
v 0.75 -0.5 -1.625
v 0.75 0.125 -1.625
v 1 0.125 -1.625
v 2.25 -0.5 0.625
v 2.25 0.125 0.625
v 2 0.125 0.625
v 2 -0.5 0.625
v 2.25 -0.5 0.375
v 2.25 -0.125 0.375
v 2 -0.5 0.375
v 2 -0.125 0.375
v 1 -0.5 0.625
v 1 0.125 0.625
v 0.75 0.125 0.625
v 0.75 -0.5 0.625
v 1 -0.5 0.375
v 1 -0.125 0.375
v 0.75 -0.5 0.375
v 0.75 -0.125 0.375
v 2 -0.5 -1.625
v 2 -0.5 -1.375
v 2 -0.125 -1.375
v 2 0.125 -1.625
v 2.25 -0.5 -1.375
v 2.25 -0.125 -1.375
v 2.25 -0.5 -1.625
v 2.25 0.125 -1.625
v -0.75 -0.5 0.875
v -0.75 0 0.875
v -0.875 0 0.875
v -0.875 -0.5 0.875
v -0.75 -0.5 0.625
v -0.75 0 0.625
v -0.875 -0.5 0.625
v -0.875 0 0.625
v -0.125 -0.5 0.875
v -0.125 0 0.875
v -0.25 0 0.875
v -0.25 -0.5 0.875
v -0.125 -0.5 0.625
v -0.125 0 0.625
v -0.25 -0.5 0.625
v -0.25 0 0.625
v 0 0 1
v 0 1 1
v -1 1 1
v -1 0 1
v 0 0 0.5
v 0 1 0.5
v -1 0 0.5
v -1 1 0.5
v 0 2 0.5
v 0 2 1
v -1 -0.5 0.5
v -1 -0.5 1
v 2 -0.3203125 -1.4375
v 1 -0.3203125 -1.4375
v 1 -0.3203125 -1.5625
v 2 -0.3203125 -1.5625
v 2 -0.0703125 -1.5625
v 1 -0.0703125 -1.5625
v 1 -0.0703125 -1.4375
v 2 -0.0703125 -1.4375
v 2.5 2 -1
v 2.5 1.25 -1.75
v -1.5 1.25 -1.75
v -1.5 2 -1
v 2.5 2 0
v 2.5 1.25 0.75
v -1.5 2 0
v -1.5 1.25 0.75
v 2.5 -0.5 0
v 2.5 0.25 0.75
v -1.5 0.25 0.75
v -1.5 -0.5 0
v 2.5 -0.5 -1
v 2.5 0.25 -1.75
v -1.5 -0.5 -1
v -1.5 0.25 -1.75
v 2.5 1.25 0.75
v -1.5 1.25 0.75
v 2.5 1.25 -1.75
v -1.5 1.25 -1.75
v 3 -1 1
v 3 -0.5 1
v -2 -0.5 1
v -2 -1 1
v -2 -1 -2
v -2 -0.5 -2
v 3 -0.5 -2
v 3 -1 -2
v 2.875 0.5 0.5
v 2.875 0 0
v 2.875 1.5 0
v 2.875 1 0.5
v 2.5 0.5 0.5
v 2.5 1 0.5
v 2.5 1.5 0
v 2.5 0 0
v 2.875 0.5 -1.5
v 2.5 0.5 -1.5
v 2.5 1 -1.5
v 2.875 1 -1.5
v 2.875 0 -1
v 2.875 1.5 -1
v 2.5 1.5 -1
v 2.5 0 -1
v 3 0 0
v 2.875 0.375 0
v 2.5 0.375 0
v 3 0 -1
v 2.5 0.375 -1
v 2.875 0.375 -1
v 2.5 1.125 0
v 2.875 1.125 0
v 3 1.5 0
v 2.875 1.125 -1
v 2.5 1.125 -1
v 3 1.5 -1
v 3 2 0
v 2.5 2 0
v 2.5 2 -1
v 3 2 -1
v 2.5 -0.5 0
v 3 -0.5 0
v 3 -0.5 -1
v 2.5 -0.5 -1
v 2.875 1.125 -1
v 2.875 1.125 0
v -1 2 0.5
v -1 2 1
v 0 -0.5 0.5
v 0 -0.5 1
v -1.25 -0.5 -1.375
v -1 -0.5 -1.375
v -1 -0.125 -1.375
v -1.25 -0.125 -1.375
v -1 -0.5 -1.625
v -1.25 -0.5 -1.625
v -1.25 0.125 -1.625
v -1 0.125 -1.625
v 0 -0.5 -1.625
v 0 -0.5 -1.375
v 0 -0.125 -1.375
v 0 0.125 -1.625
v 0.25 -0.5 -1.375
v 0.25 -0.125 -1.375
v 0.25 -0.5 -1.625
v 0.25 0.125 -1.625
v 0 -0.3203125 -1.4375
v -1 -0.3203125 -1.4375
v -1 -0.3203125 -1.5625
v 0 -0.3203125 -1.5625
v 0 -0.0703125 -1.5625
v -1 -0.0703125 -1.5625
v -1 -0.0703125 -1.4375
v 0 -0.0703125 -1.4375
vt 0.75 0.59375
vt 0.75 0.65625
vt 0.8125 0.71875
vt 0.8125 0.53125
vt 0.671875 0.5625
vt 0.671875 0.625
vt 0.625 0.625
vt 0.625 0.5625
vt 0.71875 0.5625
vt 0.71875 0.6484379687499999
vt 0.671875 0.6484379687499999
vt 0.671875 0.5625
vt 0.71875 0.5625
vt 0.71875 0.6484379687499999
vt 0.671875 0.6484379687499999
vt 0.671875 0.5625
vt 0.671875 0.5625
vt 0.671875 0.625
vt 0.625 0.625
vt 0.625 0.5625
vt 0.8125 0.53125
vt 0.8125 0.71875
vt 0.75 0.65625
vt 0.75 0.59375
vt 0.71875 0.5625
vt 0.71875 0.6484379687499999
vt 0.671875 0.6484379687499999
vt 0.671875 0.5625
vt 0.71875 0.5625
vt 0.71875 0.6484379687499999
vt 0.671875 0.6484379687499999
vt 0.671875 0.5625
vt 0.109375 0.671875
vt 0.109375 0.71875
vt 0.0625 0.71875
vt 0.046875 0.671875
vt 0.109375 0.671875
vt 0.09375 0.71875
vt 0.046875 0.71875
vt 0.046875 0.671875
vt 0.875 0.890625
vt 0.875 0.9375
vt 0.75 0.9375
vt 0.75 0.890625
vt 0.109375 0.671875
vt 0.109375 0.71875
vt 0.046875 0.71875
vt 0.0625 0.671875
vt 0.09375 0.671875
vt 0.109375 0.71875
vt 0.046875 0.71875
vt 0.046875 0.671875
vt 0.875 0.8125
vt 0.875 0.859375
vt 0.75 0.859375
vt 0.75 0.8125
vt 0.8125 0.8125
vt 0.8125 0.875
vt 0.75 0.875
vt 0.75 0.8125
vt 0.875 0.8125
vt 0.875 0.875
vt 0.8125 0.875
vt 0.8125 0.8125
vt 0.875 0.8125
vt 0.875 0.875
vt 0.75 0.875
vt 0.75 0.8125
vt 0.6875 0.75
vt 0.6875 0.875
vt 0.625 0.875
vt 0.625 0.75
vt 0.8125 0.875
vt 0.8125 0.9375
vt 0.75 0.9375
vt 0.75 0.875
vt 0.875 0.875
vt 0.875 0.9375
vt 0.8125 0.9375
vt 0.8125 0.875
vt 0.75 0.875
vt 0.75 0.9375
vt 0.625 0.9375
vt 0.625 0.875
vt 0.875 0.71875
vt 0.875 0.8125
vt 0.75 0.8125
vt 0.75 0.71875
vt 0.0625 0.1875
vt 0.0625 0.15625
vt 0.1875 0.15625
vt 0.1875 0.1875
vt 0.0625 0.1875
vt 0.0625 0.15625
vt 0.1875 0.15625
vt 0.1875 0.1875
vt 0.0625 0.17968796875000004
vt 0.0625 0.16406203124999996
vt 0.1875 0.16406203124999996
vt 0.1875 0.17968796875000004
vt 0.0625 0.17968796875000004
vt 0.0625 0.16406203124999996
vt 0.1875 0.16406203124999996
vt 0.1875 0.17968796875000004
vt 0.65625 0.671875
vt 0.625 0.671875
vt 0.625 0.71875
vt 0.65625 0.71875
vt 0.65625 0.671875
vt 0.625 0.671875
vt 0.625 0.75
vt 0.65625 0.75
vt 0.65625 0.671875
vt 0.625 0.671875
vt 0.625 0.75
vt 0.65625 0.71875
vt 0.65625 0.671875
vt 0.625 0.671875
vt 0.625 0.71875
vt 0.65625 0.75
vt 0.65625 0.671875
vt 0.65625 0.75
vt 0.625 0.75
vt 0.625 0.671875
vt 0.65625 0.671875
vt 0.65625 0.71875
vt 0.625 0.75
vt 0.625 0.671875
vt 0.65625 0.671875
vt 0.65625 0.71875
vt 0.625 0.71875
vt 0.625 0.671875
vt 0.65625 0.671875
vt 0.65625 0.75
vt 0.625 0.71875
vt 0.625 0.671875
vt 0.65625 0.671875
vt 0.65625 0.75
vt 0.625 0.75
vt 0.625 0.671875
vt 0.65625 0.671875
vt 0.65625 0.71875
vt 0.625 0.75
vt 0.625 0.671875
vt 0.65625 0.671875
vt 0.65625 0.71875
vt 0.625 0.71875
vt 0.625 0.671875
vt 0.65625 0.671875
vt 0.65625 0.75
vt 0.625 0.71875
vt 0.625 0.671875
vt 0.65625 0.671875
vt 0.625 0.671875
vt 0.625 0.71875
vt 0.65625 0.75
vt 0.65625 0.671875
vt 0.625 0.671875
vt 0.625 0.71875
vt 0.65625 0.71875
vt 0.65625 0.671875
vt 0.625 0.671875
vt 0.625 0.75
vt 0.65625 0.75
vt 0.65625 0.671875
vt 0.625 0.671875
vt 0.625 0.75
vt 0.65625 0.71875
vt 0.75 0.8125
vt 0.75 0.875
vt 0.734375 0.875
vt 0.734375 0.8125
vt 0.734375 0.8125
vt 0.734375 0.875
vt 0.703125 0.875
vt 0.703125 0.8125
vt 0.75 0.8125
vt 0.75 0.875
vt 0.734375 0.875
vt 0.734375 0.8125
vt 0.734375 0.8125
vt 0.734375 0.875
vt 0.703125 0.875
vt 0.703125 0.8125
vt 0.75 0.8125
vt 0.75 0.875
vt 0.734375 0.875
vt 0.734375 0.8125
vt 0.734375 0.8125
vt 0.734375 0.875
vt 0.703125 0.875
vt 0.703125 0.8125
vt 0.75 0.8125
vt 0.75 0.875
vt 0.734375 0.875
vt 0.734375 0.8125
vt 0.734375 0.8125
vt 0.734375 0.875
vt 0.703125 0.875
vt 0.703125 0.8125
vt 1 0.8125
vt 1 0.9375
vt 0.875 0.9375
vt 0.875 0.8125
vt 0.875 0.8125
vt 0.875 0.9375
vt 0.8125 0.9375
vt 0.8125 0.8125
vt 0.875 0.8125
vt 0.875 0.9375
vt 0.75 0.9375
vt 0.75 0.8125
vt 0.8125 0.8125
vt 0.8125 0.9375
vt 0.75 0.9375
vt 0.75 0.8125
vt 0.8125 0.8125
vt 0.875 0.8125
vt 0.875 0.9375
vt 0.8125 0.9375
vt 0.8125 0.875
vt 0.75 0.875
vt 0.75 0.8125
vt 0.8125 0.8125
vt 0.0625 0.17968796875000004
vt 0.1875 0.17968796875000004
vt 0.1875 0.16406203124999996
vt 0.0625 0.16406203124999996
vt 0.0625 0.17968796875000004
vt 0.1875 0.17968796875000004
vt 0.1875 0.16406203124999996
vt 0.0625 0.16406203124999996
vt 0.0625 0.1875
vt 0.1875 0.1875
vt 0.1875 0.15625
vt 0.0625 0.15625
vt 0.0625 0.1875
vt 0.1875 0.1875
vt 0.1875 0.15625
vt 0.0625 0.15625
vt 0.5 0.3125
vt 0.5 0.4375
vt 0 0.4375
vt 0 0.3125
vt 0.78125 0.3125
vt 0.6875 0.21875
vt 1 0.21875
vt 0.90625 0.3125
vt 0 0.3125
vt 0 0.4375
vt 0.5 0.4375
vt 0.5 0.3125
vt 0.78125 0.3125
vt 0.6875 0.21875
vt 1 0.21875
vt 0.90625 0.3125
vt 0.5 0.1875
vt 0.5 0.3125
vt 0 0.3125
vt 0 0.1875
vt 0.5 0.3125
vt 0.5 0.4375
vt 0 0.4375
vt 0 0.3125
vt 0.90625 0
vt 1 0.09375
vt 0.6875 0.09375
vt 0.78125 0
vt 0 0.3125
vt 0 0.4375
vt 0.5 0.4375
vt 0.5 0.3125
vt 0.90625 0
vt 1 0.09375
vt 0.6875 0.09375
vt 0.78125 0
vt 0.5 0.4375
vt 0.5 0.5625
vt 0 0.5625
vt 0 0.4375
vt 1 0.09375
vt 1 0.21875
vt 0.6875 0.21875
vt 0.6875 0.09375
vt 0 0.4375
vt 0 0.5625
vt 0.5 0.5625
vt 0.5 0.4375
vt 1 0.09375
vt 1 0.21875
vt 0.6875 0.21875
vt 0.6875 0.09375
vt 0.625 0.5625
vt 0.625 0.625
vt 0 0.625
vt 0 0.5625
vt 0.625 0.5625
vt 0.625 0.625
vt 0 0.625
vt 0 0.5625
vt 1 0.9375
vt 1 1
vt 0.625 1
vt 0.625 0.9375
vt 0.625 0.625
vt 0.625 1
vt 0 1
vt 0 0.625
vt 0.625 0.625
vt 0.625 1
vt 0 1
vt 0 0.625
vt 0.75 0.59375
vt 0.8125 0.53125
vt 0.8125 0.71875
vt 0.75 0.65625
vt 0.671875 0.5625
vt 0.625 0.5625
vt 0.625 0.625
vt 0.671875 0.625
vt 0.71875 0.5625
vt 0.671875 0.5625
vt 0.671875 0.6484379687499999
vt 0.71875 0.6484379687499999
vt 0.71875 0.5625
vt 0.671875 0.5625
vt 0.671875 0.6484379687499999
vt 0.71875 0.6484379687499999
vt 0.671875 0.5625
vt 0.625 0.5625
vt 0.625 0.625
vt 0.671875 0.625
vt 0.8125 0.53125
vt 0.75 0.59375
vt 0.75 0.65625
vt 0.8125 0.71875
vt 0.71875 0.5625
vt 0.671875 0.5625
vt 0.671875 0.6484379687499999
vt 0.71875 0.6484379687499999
vt 0.71875 0.5625
vt 0.671875 0.5625
vt 0.671875 0.6484379687499999
vt 0.71875 0.6484379687499999
vt 0.109375 0.671875
vt 0.046875 0.671875
vt 0.0625 0.71875
vt 0.109375 0.71875
vt 0.109375 0.671875
vt 0.046875 0.671875
vt 0.046875 0.71875
vt 0.09375 0.71875
vt 0.875 0.890625
vt 0.75 0.890625
vt 0.75 0.9375
vt 0.875 0.9375
vt 0.109375 0.671875
vt 0.0625 0.671875
vt 0.046875 0.71875
vt 0.109375 0.71875
vt 0.09375 0.671875
vt 0.046875 0.671875
vt 0.046875 0.71875
vt 0.109375 0.71875
vt 0.875 0.8125
vt 0.75 0.8125
vt 0.75 0.859375
vt 0.875 0.859375
vt 0.8125 0.8125
vt 0.75 0.8125
vt 0.75 0.875
vt 0.8125 0.875
vt 0.875 0.8125
vt 0.8125 0.8125
vt 0.8125 0.875
vt 0.875 0.875
vt 0.875 0.8125
vt 0.75 0.8125
vt 0.75 0.875
vt 0.875 0.875
vt 0.625 0.875
vt 0.625 0.9375
vt 0.75 0.9375
vt 0.75 0.875
vt 0.8125 0.875
vt 0.75 0.875
vt 0.75 0.9375
vt 0.8125 0.9375
vt 0.875 0.875
vt 0.8125 0.875
vt 0.8125 0.9375
vt 0.875 0.9375
vt 0.875 0.71875
vt 0.75 0.71875
vt 0.75 0.8125
vt 0.875 0.8125
vt 1 1
vt 0.625 1
vt 0.625 0.9375
vt 1 0.9375
vt 0.625 0.875
vt 0.625 0.75
vt 0.6875 0.75
vt 0.6875 0.875
vt 0.875 0.875
vt 0.875 0.9375
vt 0.75 0.9375
vt 0.75 0.875
vt 0.875 0.5625
vt 1 0.5625
vt 1 0.6875
vt 0.875 0.6875
vt 0.75 0.8125
vt 0.8125 0.8125
vt 0.8125 0.9375
vt 0.75 0.9375
vt 0.75 0.8125
vt 0.875 0.8125
vt 0.875 0.9375
vt 0.75 0.9375
vt 0.875 0.8125
vt 0.875 0.875
vt 0.75 0.875
vt 0.75 0.8125
vt 0.875 0.875
vt 0.8125 0.875
vt 0.8125 0.8125
vt 0.875 0.8125
vt 1 0.5
vt 0.875 0.5
vt 0.875 0.5625
vt 1 0.5625
vt 0.875 0.8125
vt 0.75 0.8125
vt 0.75 0.8125
vt 0.875 0.8125
vt 0.65625 0.671875
vt 0.625 0.671875
vt 0.625 0.71875
vt 0.65625 0.71875
vt 0.65625 0.671875
vt 0.625 0.671875
vt 0.625 0.75
vt 0.65625 0.75
vt 0.65625 0.671875
vt 0.625 0.671875
vt 0.625 0.75
vt 0.65625 0.71875
vt 0.65625 0.671875
vt 0.625 0.671875
vt 0.625 0.71875
vt 0.65625 0.75
vt 0.65625 0.671875
vt 0.625 0.671875
vt 0.625 0.71875
vt 0.65625 0.75
vt 0.65625 0.671875
vt 0.625 0.671875
vt 0.625 0.71875
vt 0.65625 0.71875
vt 0.65625 0.671875
vt 0.625 0.671875
vt 0.625 0.75
vt 0.65625 0.75
vt 0.65625 0.671875
vt 0.625 0.671875
vt 0.625 0.75
vt 0.65625 0.71875
vt 0.0625 0.17968796875000004
vt 0.1875 0.17968796875000004
vt 0.1875 0.16406203124999996
vt 0.0625 0.16406203124999996
vt 0.0625 0.17968796875000004
vt 0.1875 0.17968796875000004
vt 0.1875 0.16406203124999996
vt 0.0625 0.16406203124999996
vt 0.0625 0.1875
vt 0.1875 0.1875
vt 0.1875 0.15625
vt 0.0625 0.15625
vt 0.0625 0.1875
vt 0.1875 0.1875
vt 0.1875 0.15625
vt 0.0625 0.15625
vn -1 0 0
vn 0 0 1
vn 0 0.7071067811865476 0.7071067811865476
vn 0 -0.7071067811865476 0.7071067811865476
vn 0 0 -1
vn -1 0 0
vn 0 0.7071067811865476 -0.7071067811865476
vn 0 -0.7071067811865476 -0.7071067811865476
vn 0 0 1
vn 0 0 -1
vn -0.948683298050514 0.316227766016838 0
vn 0 0 1
vn 0 0 -1
vn -0.948683298050514 -0.316227766016838 0
vn 0 0 1
vn 0 0 -1
vn -1 0 0
vn 0 1 0
vn 0 0 1
vn 0 0 -1
vn -1 0 0
vn -1 0 0
vn 0 0 1
vn 0 0 -1
vn 0 1 0
vn 0 -1 0
vn 0 0 1
vn 0 0 -1
vn 1 0 0
vn -1 0 0
vn 0 0 1
vn 1 0 0
vn 0 0 -1
vn -1 0 0
vn 0 0 1
vn 1 0 0
vn 0 0 -1
vn -1 0 0
vn -1 0 0
vn 0 0 1
vn 0 0 -1
vn 1 0 0
vn 0 0 1
vn 1 0 0
vn 0 0 -1
vn -1 0 0
vn 0 0 1
vn 1 0 0
vn 0 0 -1
vn -1 0 0
vn 0 0 1
vn 1 0 0
vn 0 0 -1
vn -1 0 0
vn 1 0 0
vn -1 0 0
vn 0 -1 0
vn 0 1 0
vn 0 0 -1
vn 0 0 1
vn 0 0.7071067811865476 -0.7071067811865476
vn 1 0 0
vn 0 0.7071067811865476 0.7071067811865476
vn -1 0 0
vn 0 1 0
vn 0 -0.7071067811865476 0.7071067811865476
vn 1 0 0
vn 0 -0.7071067811865476 -0.7071067811865476
vn -1 0 0
vn 0 0 1
vn 1 0 0
vn 0 0 -1
vn -1 0 0
vn 0 0 1
vn 0 0 -1
vn -1 0 0
vn 0 1 0
vn 0 -1 0
vn 1 0 0
vn 0 0 1
vn 0 0.7071067811865476 0.7071067811865476
vn 0 -0.7071067811865476 0.7071067811865476
vn 0 0 -1
vn 1 0 0
vn 0 0.7071067811865476 -0.7071067811865476
vn 0 -0.7071067811865476 -0.7071067811865476
vn 0 0 1
vn 0 0 -1
vn 0.948683298050514 0.316227766016838 0
vn 0 0 1
vn 0 0 -1
vn 0.948683298050514 -0.316227766016838 0
vn 0 0 1
vn 0 0 -1
vn 1 0 0
vn 0 1 0
vn 0 0 1
vn 0 0 -1
vn 1 0 0
vn 1 0 0
vn 1 0 0
vn 0 1 0
vn 0 0 1
vn -1 0 0
vn 0 0 -1
vn 0 -1 0
vn 1 0 0
vn 0 0 1
vn 0 0 -1
vn 0 0 1
vn 0 0 -1
vn 1 0 0
vn -1 0 0
vn -1 0 0
vn 0 0 1
vn 0 0 -1
vn 1 0 0
vn 0 -1 0
vn 0 1 0
vn 0 0 -1
vn 0 0 1
usemtl m_6cc76360-2e0b-486d-7532-69a199a87a72
f 1/1/1 2/2/1 3/3/1 4/4/1
f 5/5/2 6/6/2 2/7/2 1/8/2
f 3/9/3 2/10/3 6/11/3 7/12/3
f 1/13/4 4/14/4 8/15/4 5/16/4
f 9/17/5 10/18/5 11/19/5 12/20/5
f 13/21/6 14/22/6 10/23/6 9/24/6
f 15/25/7 11/26/7 10/27/7 14/28/7
f 12/29/8 16/30/8 13/31/8 9/32/8
f 8/33/9 17/34/9 18/35/9 19/36/9
f 20/37/10 21/38/10 22/39/10 16/40/10
f 19/41/11 18/42/11 21/43/11 20/44/11
f 23/45/12 7/46/12 24/47/12 25/48/12
f 26/49/13 27/50/13 15/51/13 28/52/13
f 25/53/14 24/54/14 27/55/14 26/56/14
f 7/57/15 29/58/15 30/59/15 24/60/15
f 27/61/16 31/62/16 32/63/16 15/64/16
f 24/65/17 30/66/17 31/67/17 27/68/17
f 29/69/18 32/70/18 31/71/18 30/72/18
f 33/73/19 8/74/19 19/75/19 34/76/19
f 35/77/20 20/78/20 16/79/20 36/80/20
f 34/81/21 19/82/21 20/83/21 35/84/21
f 18/85/22 37/86/22 38/87/22 21/88/22
f 39/89/23 40/90/23 41/91/23 42/92/23
f 43/93/24 44/94/24 45/95/24 46/96/24
f 40/97/25 45/98/25 44/99/25 41/100/25
f 46/101/26 39/102/26 42/103/26 43/104/26
f 47/105/27 48/106/27 49/107/27 50/108/27
f 51/109/28 52/110/28 53/111/28 54/112/28
f 48/113/29 51/114/29 54/115/29 49/116/29
f 52/117/30 47/118/30 50/119/30 53/120/30
f 55/121/31 56/122/31 57/123/31 58/124/31
f 59/125/32 60/126/32 56/127/32 55/128/32
f 61/129/33 62/130/33 60/131/33 59/132/33
f 58/133/34 57/134/34 62/135/34 61/136/34
f 63/137/35 64/138/35 65/139/35 66/140/35
f 67/141/36 68/142/36 64/143/36 63/144/36
f 69/145/37 70/146/37 68/147/37 67/148/37
f 66/149/38 65/150/38 70/151/38 69/152/38
f 71/153/39 72/154/39 73/155/39 74/156/39
f 72/157/40 75/158/40 76/159/40 73/160/40
f 77/161/41 71/162/41 74/163/41 78/164/41
f 75/165/42 77/166/42 78/167/42 76/168/42
f 79/169/43 80/170/43 81/171/43 82/172/43
f 83/173/44 84/174/44 80/175/44 79/176/44
f 85/177/45 86/178/45 84/179/45 83/180/45
f 82/181/46 81/182/46 86/183/46 85/184/46
f 87/185/47 88/186/47 89/187/47 90/188/47
f 91/189/48 92/190/48 88/191/48 87/192/48
f 93/193/49 94/194/49 92/195/49 91/196/49
f 90/197/50 89/198/50 94/199/50 93/200/50
f 95/201/51 96/202/51 97/203/51 98/204/51
f 99/205/52 100/206/52 96/207/52 95/208/52
f 101/209/53 102/210/53 100/211/53 99/212/53
f 98/213/54 97/214/54 102/215/54 101/216/54
f 96/217/55 100/218/55 103/219/55 104/220/55
f 98/221/56 101/222/56 105/223/56 106/224/56
f 107/225/57 108/226/57 109/227/57 110/228/57
f 111/229/58 112/230/58 113/231/58 114/232/58
f 110/233/59 109/234/59 112/235/59 111/236/59
f 108/237/60 107/238/60 114/239/60 113/240/60
f 115/241/61 116/242/61 117/243/61 118/244/61
f 119/245/62 120/246/62 116/247/62 115/248/62
f 121/249/63 122/250/63 120/251/63 119/252/63
f 118/253/64 117/254/64 122/255/64 121/256/64
f 119/257/65 115/258/65 118/259/65 121/260/65
f 123/261/66 124/262/66 125/263/66 126/264/66
f 127/265/67 128/266/67 124/267/67 123/268/67
f 129/269/68 130/270/68 128/271/68 127/272/68
f 126/273/69 125/274/69 130/275/69 129/276/69
f 124/277/70 131/278/70 132/279/70 125/280/70
f 128/281/71 133/282/71 131/283/71 124/284/71
f 130/285/72 134/286/72 133/287/72 128/288/72
f 125/289/73 132/290/73 134/291/73 130/292/73
f 135/293/74 136/294/74 137/295/74 138/296/74
f 139/297/75 140/298/75 141/299/75 142/300/75
f 138/301/76 137/302/76 140/303/76 139/304/76
f 136/305/77 141/306/77 140/307/77 137/308/77
f 142/309/78 135/310/78 138/311/78 139/312/78
f 143/313/79 144/314/79 145/315/79 146/316/79
f 147/317/80 143/318/80 146/319/80 148/320/80
f 145/321/81 149/322/81 148/323/81 146/324/81
f 143/325/82 147/326/82 150/327/82 144/328/82
f 151/329/83 152/330/83 153/331/83 154/332/83
f 155/333/84 151/334/84 154/335/84 156/336/84
f 157/337/85 156/338/85 154/339/85 153/340/85
f 152/341/86 151/342/86 155/343/86 158/344/86
f 150/345/87 159/346/87 160/347/87 161/348/87
f 162/349/88 158/350/88 163/351/88 164/352/88
f 159/353/89 162/354/89 164/355/89 160/356/89
f 165/357/90 166/358/90 167/359/90 149/360/90
f 168/361/91 169/362/91 157/363/91 170/364/91
f 166/365/92 168/366/92 170/367/92 167/368/92
f 149/369/93 167/370/93 171/371/93 172/372/93
f 170/373/94 157/374/94 173/375/94 174/376/94
f 167/377/95 170/378/95 174/379/95 171/380/95
f 172/381/96 171/382/96 174/383/96 173/384/96
f 175/385/97 176/386/97 159/387/97 150/388/97
f 177/389/98 178/390/98 158/391/98 162/392/98
f 160/393/99 164/394/99 179/395/99 180/396/99
f 141/397/100 136/398/100 135/399/100 142/400/100
f 162/401/101 159/402/101 176/403/101 177/404/101
f 104/405/102 103/406/102 181/407/102 182/408/102
f 97/409/103 96/410/103 104/411/103 182/412/103
f 102/413/104 97/414/104 182/415/104 181/416/104
f 100/417/105 102/418/105 181/419/105 103/420/105
f 183/421/106 184/422/106 106/423/106 105/424/106
f 99/425/107 95/426/107 184/427/107 183/428/107
f 95/429/108 98/430/108 106/431/108 184/432/108
f 101/433/109 99/434/109 183/435/109 105/436/109
f 185/437/110 186/438/110 187/439/110 188/440/110
f 189/441/111 190/442/111 191/443/111 192/444/111
f 186/445/112 189/446/112 192/447/112 187/448/112
f 190/449/113 185/450/113 188/451/113 191/452/113
f 193/453/114 194/454/114 195/455/114 196/456/114
f 194/457/115 197/458/115 198/459/115 195/460/115
f 199/461/116 193/462/116 196/463/116 200/464/116
f 197/465/117 199/466/117 200/467/117 198/468/117
f 201/469/118 202/470/118 203/471/118 204/472/118
f 205/473/119 206/474/119 207/475/119 208/476/119
f 204/477/120 203/478/120 206/479/120 205/480/120
f 202/481/121 201/482/121 208/483/121 207/484/121