# Blender v2.79 (sub 0) OBJ File: 'melting_crucible.blend'
# www.blender.org
mtllib melting_crucible.mtl
o melting_crucible
v 0.687500 0.437500 -0.937500
v 0.687500 0.437500 -1.000000
v 0.687500 0.812500 -1.000000
v 0.687500 0.812500 -0.937500
v 0.312500 0.437500 -1.000000
v 0.312500 0.812500 -1.000000
v 0.312500 0.437500 -0.937500
v 0.312500 0.812500 -0.937500
v 1.062500 0.375000 -0.937500
v 1.062500 0.375000 -1.000000
v 1.062500 0.875000 -1.000000
v 1.062500 0.875000 -0.937500
v 0.812500 0.375000 -1.000000
v 0.812500 0.875000 -1.000000
v 0.812500 0.375000 -0.937500
v 0.812500 0.875000 -0.937500
v 0.062500 0.250000 1.000000
v 0.062500 0.250000 0.937500
v 0.062500 1.000000 0.937500
v 0.062500 1.000000 1.000000
v 0.000000 0.250000 0.937500
v 0.000000 1.000000 0.937500
v 0.000000 0.250000 1.000000
v 0.000000 1.000000 1.000000
v 1.937500 0.250000 0.937500
v 1.937500 0.250000 -0.937500
v 1.937500 1.000000 -0.937500
v 1.937500 1.000000 0.937500
v 0.062500 0.250000 -0.937500
v 0.062500 1.000000 -0.937500
v 0.062500 0.250000 0.937500
v 0.062500 1.000000 0.937500
v 2.000000 -0.000000 1.000000
v 2.000000 0.000000 -1.000000
v 2.000000 0.250000 -1.000000
v 2.000000 0.250000 1.000000
v 0.000000 0.000000 -1.000000
v 0.000000 0.250000 -1.000000
v 0.000000 -0.000000 1.000000
v 0.000000 0.250000 1.000000
v 0.375000 -0.500000 -0.625000
v 0.375000 -0.500000 -0.875000
v 0.375000 0.000000 -0.875000
v 0.375000 0.000000 -0.625000
v 0.125000 -0.500000 -0.875000
v 0.125000 0.000000 -0.875000
v 0.125000 -0.500000 -0.625000
v 0.125000 0.000000 -0.625000
v 0.000000 -0.500000 1.000000
v 0.000000 -0.500000 -0.000000
v 0.000000 0.000000 0.000000
v 0.000000 -0.000000 1.000000
v -1.000000 -0.500000 -0.000000
v -1.000000 0.000000 0.000000
v -1.000000 -0.500000 1.000000
v -1.000000 -0.000000 1.000000
v -0.187500 -0.500000 1.875000
v -0.187500 -0.500000 1.625000
v -0.187500 -0.000000 1.625000
v -0.187500 -0.000000 1.875000
v -0.312500 -0.500000 1.625000
v -0.312500 -0.000000 1.625000
v -0.312500 -0.500000 1.875000
v -0.312500 -0.000000 1.875000
v 0.000000 -0.000000 2.000000
v 0.000000 -0.000000 1.500000
v 0.000000 1.000000 1.500000
v 0.000000 1.000000 2.000000
v -1.000000 -0.000000 1.500000
v -1.000000 1.000000 1.500000
v -1.000000 -0.000000 2.000000
v -1.000000 1.000000 2.000000
v 2.000000 -0.500000 2.000000
v 2.000000 -0.500000 1.000000
v 2.000000 1.000000 1.000000
v 2.000000 1.000000 2.000000
v 1.000000 -0.500000 1.000000
v 1.000000 1.000000 1.000000
v 1.000000 -0.500000 2.000000
v 1.000000 1.000000 2.000000
v 2.000000 -1.000000 2.000000
v 2.000000 -1.000000 -1.000000
v 2.000000 -0.500000 -1.000000
v 2.000000 -0.500000 2.000000
v -1.000000 -1.000000 -1.000000
v -1.000000 -0.500000 -1.000000
v -1.000000 -1.000000 2.000000
v -1.000000 -0.500000 2.000000
v 1.500000 -0.500000 0.500000
v 1.500000 -0.500000 -0.500000
v 1.500000 0.000000 -0.500000
v 1.500000 -0.000000 0.500000
v 0.500000 -0.500000 -0.500000
v 0.500000 0.000000 -0.500000
v 0.500000 -0.500000 0.500000
v 0.500000 -0.000000 0.500000
v -0.687500 -0.500000 1.875000
v -0.687500 -0.500000 1.625000
v -0.687500 -0.000000 1.625000
v -0.687500 -0.000000 1.875000
v -0.812500 -0.500000 1.625000
v -0.812500 -0.000000 1.625000
v -0.812500 -0.500000 1.875000
v -0.812500 -0.000000 1.875000
v 0.062500 0.250000 -0.937500
v 0.062500 0.250000 -1.000000
v 0.062500 1.000000 -1.000000
v 0.062500 1.000000 -0.937500
v 0.000000 0.250000 -1.000000
v 0.000000 1.000000 -1.000000
v 0.000000 0.250000 -0.937500
v 0.000000 1.000000 -0.937500
v 2.000000 0.250000 -0.937500
v 2.000000 0.250000 -1.000000
v 2.000000 1.000000 -1.000000
v 2.000000 1.000000 -0.937500
v 1.937500 0.250000 -1.000000
v 1.937500 1.000000 -1.000000
v 1.937500 0.250000 -0.937500
v 1.937500 1.000000 -0.937500
v 2.000000 0.250000 1.000000
v 2.000000 0.250000 0.937500
v 2.000000 1.000000 0.937500
v 2.000000 1.000000 1.000000
v 1.937500 0.250000 0.937500
v 1.937500 1.000000 0.937500
v 1.937500 0.250000 1.000000
v 1.937500 1.000000 1.000000
v 1.875000 -0.500000 -0.625000
v 1.875000 -0.500000 -0.875000
v 1.875000 0.000000 -0.875000
v 1.875000 0.000000 -0.625000
v 1.625000 -0.500000 -0.875000
v 1.625000 0.000000 -0.875000
v 1.625000 -0.500000 -0.625000
v 1.625000 0.000000 -0.625000
v 1.875000 -0.500000 0.875000
v 1.875000 -0.500000 0.625000
v 1.875000 -0.000000 0.625000
v 1.875000 -0.000000 0.875000
v 1.625000 -0.500000 0.625000
v 1.625000 -0.000000 0.625000
v 1.625000 -0.500000 0.875000
v 1.625000 -0.000000 0.875000
v 0.375000 -0.500000 0.875000
v 0.375000 -0.500000 0.625000
v 0.375000 -0.000000 0.625000
v 0.375000 -0.000000 0.875000
v 0.125000 -0.500000 0.625000
v 0.125000 -0.000000 0.625000
v 0.125000 -0.500000 0.875000
v 0.125000 -0.000000 0.875000
v 2.000000 1.000000 1.000000
v 2.000000 1.000000 -1.000000
v 2.000000 1.250000 -1.000000
v 2.000000 1.250000 1.000000
v 0.000000 1.000000 -1.000000
v 0.000000 1.250000 -1.000000
v 0.000000 1.000000 1.000000
v 0.000000 1.250000 1.000000
v 1.625000 -0.375000 -0.812500
v 0.375000 -0.375000 -0.812500
v 0.375000 -0.125000 -0.812500
v 1.625000 -0.125000 -0.812500
v 0.375000 -0.375000 -0.687500
v 1.625000 -0.375000 -0.687500
v 1.625000 -0.125000 -0.687500
v 0.375000 -0.125000 -0.687500
v 1.625000 -0.375000 0.687500
v 0.375000 -0.375000 0.687500
v 0.375000 -0.125000 0.687500
v 1.625000 -0.125000 0.687500
v 0.375000 -0.375000 0.812500
v 1.625000 -0.375000 0.812500
v 1.625000 -0.125000 0.812500
v 0.375000 -0.125000 0.812500
v 0.312500 -0.375000 0.625000
v 0.312500 -0.375000 -0.625000
v 0.312500 -0.125000 -0.625000
v 0.312500 -0.125000 0.625000
v 0.187500 -0.375000 -0.625000
v 0.187500 -0.375000 0.625000
v 0.187500 -0.125000 0.625000
v 0.187500 -0.125000 -0.625000
v 1.812500 -0.375000 0.625000
v 1.812500 -0.375000 -0.625000
v 1.812500 -0.125000 -0.625000
v 1.812500 -0.125000 0.625000
v 1.687500 -0.375000 -0.625000
v 1.687500 -0.375000 0.625000
v 1.687500 -0.125000 0.625000
v 1.687500 -0.125000 -0.625000
v 2.000000 0.750000 0.625000
v 2.000000 0.750000 0.375000
v 2.000000 1.000000 0.375000
v 2.000000 1.000000 0.625000
v 1.937500 0.750000 0.375000
v 1.937500 1.000000 0.375000
v 1.937500 0.750000 0.625000
v 1.937500 1.000000 0.625000
v 2.000000 0.250000 0.750000
v 2.000000 0.250000 0.250000
v 2.000000 0.750000 0.250000
v 2.000000 0.750000 0.750000
v 1.937500 0.250000 0.250000
v 1.937500 0.750000 0.250000
v 1.937500 0.250000 0.750000
v 1.937500 0.750000 0.750000
v -0.500000 -0.500000 -0.250000
v -0.500000 -0.500000 -0.000000
v -0.500000 -0.250000 -0.000000
v -0.500000 -0.250000 -0.250000
v 0.500000 -0.500000 -0.000000
v 0.500000 -0.250000 -0.000000
v 0.500000 -0.250000 -0.250000
v 0.500000 -0.500000 -0.250000
v -0.500000 -0.500000 -0.250000
v -0.500000 -0.250000 -0.250000
v 0.500000 -0.250000 -0.250000
vt 0.296875 0.265625
vt 0.289062 0.265625
vt 0.289062 0.312500
vt 0.296875 0.312500
vt 0.296875 0.265625
vt 0.250000 0.265625
vt 0.250000 0.312500
vt 0.296875 0.312500
vt 0.257812 0.265625
vt 0.250000 0.265625
vt 0.250000 0.312500
vt 0.257812 0.312500
vt 0.296875 0.273438
vt 0.250000 0.273438
vt 0.296875 0.312500
vt 0.296875 0.304688
vt 0.250000 0.304688
vt 0.250000 0.312500
vt 0.328125 0.250000
vt 0.320312 0.250000
vt 0.320312 0.312500
vt 0.328125 0.312500
vt 0.328125 0.250000
vt 0.296875 0.250000
vt 0.296875 0.312500
vt 0.328125 0.312500
vt 0.304688 0.250000
vt 0.296875 0.250000
vt 0.296875 0.312500
vt 0.304688 0.312500
vt 0.296875 0.250000
vt 0.296875 0.257812
vt 0.328125 0.257812
vt 0.328125 0.250000
vt 0.296875 0.304688
vt 0.328125 0.304688
vt 0.375000 0.406250
vt 0.382812 0.406250
vt 0.382812 0.312500
vt 0.375000 0.312500
vt 0.375000 0.406250
vt 0.382812 0.406250
vt 0.382812 0.312500
vt 0.375000 0.312500
vt 0.382812 0.312500
vt 0.375000 0.312500
vt 0.375000 0.406250
vt 0.382812 0.406250
vt 0.382812 0.312500
vt 0.375000 0.312500
vt 0.375000 0.406250
vt 0.382812 0.406250
vt 0.000000 0.000000
vt 0.000000 0.000000
vt 0.000000 0.000000
vt 0.000000 0.000000
vt 0.000000 0.000000
vt 0.000000 0.000000
vt 0.000000 0.000000
vt 0.000000 0.000000
vt 0.617188 0.468750
vt 0.382812 0.468750
vt 0.382812 0.562500
vt 0.617188 0.562500
vt 0.617188 0.468750
vt 0.382812 0.468750
vt 0.382812 0.562500
vt 0.617188 0.562500
vt 0.617188 0.468750
vt 0.382812 0.468750
vt 0.382812 0.562500
vt 0.617188 0.562500
vt 0.617188 0.468750
vt 0.382812 0.468750
vt 0.382812 0.562500
vt 0.617188 0.562500
vt 0.125000 0.250000
vt 0.375000 0.250000
vt 0.375000 0.218750
vt 0.125000 0.218750
vt 0.125000 0.250000
vt 0.375000 0.250000
vt 0.375000 0.218750
vt 0.125000 0.218750
vt 0.125000 0.250000
vt 0.375000 0.250000
vt 0.375000 0.218750
vt 0.125000 0.218750
vt 0.125000 0.250000
vt 0.375000 0.250000
vt 0.375000 0.218750
vt 0.125000 0.218750
vt 0.375000 0.562500
vt 0.375000 0.812500
vt 0.625000 0.812500
vt 0.625000 0.562500
vt 0.625000 0.812500
vt 0.625000 0.562500
vt 0.375000 0.562500
vt 0.375000 0.812500
vt -0.000000 0.500000
vt 0.031250 0.500000
vt 0.031250 0.437500
vt -0.000000 0.437500
vt 0.000000 0.500000
vt 0.031250 0.500000
vt 0.031250 0.437500
vt 0.000000 0.437500
vt 0.031250 0.437500
vt -0.000000 0.437500
vt -0.000000 0.500000
vt 0.031250 0.500000
vt 0.031250 0.437500
vt -0.000000 0.437500
vt -0.000000 0.500000
vt 0.031250 0.500000
vt 0.125000 0.375000
vt -0.000000 0.375000
vt 0.000000 0.437500
vt 0.125000 0.437500
vt 0.125000 0.375000
vt -0.000000 0.375000
vt 0.000000 0.437500
vt 0.125000 0.437500
vt 0.250000 0.437500
vt 0.125000 0.437500
vt 0.125000 0.500000
vt 0.250000 0.500000
vt 0.125000 0.375000
vt -0.000000 0.375000
vt -0.000000 0.437500
vt 0.125000 0.437500
vt 0.125000 0.312500
vt 0.000000 0.312500
vt -0.000000 0.500000
vt 0.031250 0.500000
vt 0.031250 0.437500
vt 0.000000 0.437500
vt 0.046875 0.500000
vt 0.046875 0.437500
vt 0.031250 0.437500
vt -0.000000 0.437500
vt -0.000000 0.500000
vt 0.031250 0.500000
vt 0.046875 0.437500
vt 0.031250 0.437500
vt 0.031250 0.500000
vt 0.046875 0.500000
vt 0.062500 0.312500
vt 0.125000 0.312500
vt 0.125000 0.437500
vt 0.062500 0.437500
vt 0.000000 0.312500
vt -0.000000 0.437500
vt 0.125000 0.312500
vt 0.062500 0.312500
vt 0.062500 0.437500
vt 0.125000 0.437500
vt 0.250000 0.312500
vt 0.125000 0.312500
vt 0.125000 0.437500
vt 0.250000 0.437500
vt -0.000000 0.312500
vt 0.000000 0.375000
vt 0.125000 0.375000
vt 0.125000 0.375000
vt -0.000000 0.375000
vt -0.000000 0.437500
vt 0.500000 0.812500
vt 0.375000 0.812500
vt 0.375000 1.000000
vt 0.500000 1.000000
vt 0.375000 0.312500
vt 0.250000 0.312500
vt 0.250000 0.500000
vt 0.375000 0.500000
vt 0.375000 0.312500
vt 0.250000 0.312500
vt 0.250000 0.500000
vt 0.375000 0.500000
vt 0.625000 0.812500
vt 0.507812 0.812500
vt 0.507812 1.000000
vt 0.625000 1.000000
vt 0.125000 0.312500
vt 0.125000 0.187500
vt 0.000000 0.187500
vt 0.000000 0.312500
vt 0.375000 0.500000
vt -0.000000 0.500000
vt 0.000000 0.562500
vt 0.375000 0.562500
vt 0.375000 0.500000
vt -0.000000 0.500000
vt 0.000000 0.562500
vt 0.375000 0.562500
vt 0.375000 0.562500
vt 0.000000 0.562500
vt 0.000000 0.625000
vt 0.375000 0.625000
vt 0.375000 0.500000
vt 0.000000 0.500000
vt 0.000000 0.562500
vt 0.375000 0.562500
vt 0.000000 0.625000
vt 0.000100 0.999900
vt 0.375000 1.000000
vt 0.375000 0.625000
vt 0.375000 1.000000
vt 0.000000 1.000000
vt 0.000000 0.625000
vt 0.375000 0.625000
vt 0.250000 0.250000
vt 0.125000 0.250000
vt 0.125000 0.312500
vt 0.250000 0.312500
vt 0.250000 0.250000
vt 0.125000 0.250000
vt 0.125000 0.312500
vt 0.250000 0.312500
vt 0.250000 0.250000
vt 0.125000 0.250000
vt 0.125000 0.312500
vt 0.250000 0.312500
vt 0.250000 0.250000
vt 0.125000 0.250000
vt 0.125000 0.312500
vt 0.250000 0.312500
vt -0.000000 0.500000
vt 0.031250 0.500000
vt 0.031250 0.437500
vt 0.000000 0.437500
vt 0.046875 0.500000
vt 0.046875 0.437500
vt 0.031250 0.437500
vt -0.000000 0.437500
vt -0.000000 0.500000
vt 0.031250 0.500000
vt 0.046875 0.437500
vt 0.031250 0.437500
vt 0.031250 0.500000
vt 0.046875 0.500000
vt 0.375000 0.406250
vt 0.382812 0.406250
vt 0.382812 0.312500
vt 0.375000 0.312500
vt 0.375000 0.406250
vt 0.382812 0.406250
vt 0.382812 0.312500
vt 0.375000 0.312500
vt 0.382812 0.312500
vt 0.375000 0.312500
vt 0.375000 0.406250
vt 0.382812 0.406250
vt 0.382812 0.312500
vt 0.375000 0.312500
vt 0.375000 0.406250
vt 0.382812 0.406250
vt 0.375000 0.406250
vt 0.382812 0.406250
vt 0.382812 0.312500
vt 0.375000 0.312500
vt 0.375000 0.406250
vt 0.382812 0.406250
vt 0.382812 0.312500
vt 0.375000 0.312500
vt 0.382812 0.312500
vt 0.375000 0.312500
vt 0.375000 0.406250
vt 0.382812 0.406250
vt 0.382812 0.312500
vt 0.375000 0.312500
vt 0.375000 0.406250
vt 0.382812 0.406250
vt 0.375000 0.406250
vt 0.382812 0.406250
vt 0.382812 0.312500
vt 0.375000 0.312500
vt 0.375000 0.406250
vt 0.382812 0.406250
vt 0.382812 0.312500
vt 0.375000 0.312500
vt 0.382812 0.312500
vt 0.375000 0.312500
vt 0.375000 0.406250
vt 0.382812 0.406250
vt 0.382812 0.312500
vt 0.375000 0.312500
vt 0.375000 0.406250
vt 0.382812 0.406250
vt -0.000000 0.500000
vt 0.031250 0.500000
vt 0.031250 0.437500
vt -0.000000 0.437500
vt 0.000000 0.500000
vt 0.031250 0.500000
vt 0.031250 0.437500
vt 0.000000 0.437500
vt 0.031250 0.437500
vt -0.000000 0.437500
vt -0.000000 0.500000
vt 0.031250 0.500000
vt 0.031250 0.437500
vt -0.000000 0.437500
vt -0.000000 0.500000
vt 0.031250 0.500000
vt -0.000000 0.500000
vt 0.031250 0.500000
vt 0.031250 0.437500
vt -0.000000 0.437500
vt 0.000000 0.500000
vt 0.031250 0.500000
vt 0.031250 0.437500
vt 0.000000 0.437500
vt 0.031250 0.437500
vt -0.000000 0.437500
vt -0.000000 0.500000
vt 0.031250 0.500000
vt 0.031250 0.437500
vt -0.000000 0.437500
vt -0.000000 0.500000
vt 0.031250 0.500000
vt -0.000000 0.500000
vt 0.031250 0.500000
vt 0.031250 0.437500
vt -0.000000 0.437500
vt 0.000000 0.500000
vt 0.031250 0.500000
vt 0.031250 0.437500
vt 0.000000 0.437500
vt 0.031250 0.437500
vt -0.000000 0.437500
vt -0.000000 0.500000
vt 0.031250 0.500000
vt 0.031250 0.437500
vt -0.000000 0.437500
vt -0.000000 0.500000
vt 0.031250 0.500000
vt 0.125000 0.250000
vt 0.375000 0.250000
vt 0.375000 0.218750
vt 0.125000 0.218750
vt 0.125000 0.250000
vt 0.375000 0.250000
vt 0.375000 0.218750
vt 0.125000 0.218750
vt 0.125000 0.250000
vt 0.375000 0.250000
vt 0.375000 0.218750
vt 0.125000 0.218750
vt 0.125000 0.250000
vt 0.375000 0.250000
vt 0.375000 0.218750
vt 0.125000 0.218750
vt 0.375000 0.562500
vt 0.375000 0.812500
vt 0.625000 0.812500
vt 0.625000 0.562500
vt 0.625000 0.812500
vt 0.625000 0.562500
vt 0.375000 0.562500
vt 0.375000 0.812500
vt 0.125000 0.218750
vt 0.281250 0.218750
vt 0.281250 0.187500
vt 0.125000 0.187500
vt 0.281250 0.187500
vt 0.125000 0.187500
vt 0.125000 0.218750
vt 0.281250 0.218750
vt 0.125000 0.195312
vt 0.125000 0.210938
vt 0.281250 0.210938
vt 0.281250 0.195312
vt 0.281250 0.210938
vt 0.281250 0.195312
vt 0.125000 0.195312
vt 0.125000 0.210938
vt 0.125000 0.218750
vt 0.281250 0.218750
vt 0.281250 0.187500
vt 0.125000 0.187500
vt 0.281250 0.187500
vt 0.125000 0.187500
vt 0.125000 0.218750
vt 0.281250 0.218750
vt 0.125000 0.195312
vt 0.125000 0.210938
vt 0.281250 0.210938
vt 0.281250 0.195312
vt 0.281250 0.210938
vt 0.281250 0.195312
vt 0.125000 0.195312
vt 0.125000 0.210938
vt 0.125000 0.218750
vt 0.281250 0.218750
vt 0.281250 0.187500
vt 0.125000 0.187500
vt 0.281250 0.187500
vt 0.125000 0.187500
vt 0.125000 0.218750
vt 0.281250 0.218750
vt 0.125000 0.195312
vt 0.125000 0.210938
vt 0.281250 0.210938
vt 0.281250 0.195312
vt 0.281250 0.210938
vt 0.281250 0.195312
vt 0.125000 0.195312
vt 0.125000 0.210938
vt 0.125000 0.218750
vt 0.281250 0.218750
vt 0.281250 0.187500
vt 0.125000 0.187500
vt 0.281250 0.187500
vt 0.125000 0.187500
vt 0.125000 0.218750
vt 0.281250 0.218750
vt 0.125000 0.195312
vt 0.125000 0.210938
vt 0.281250 0.210938
vt 0.281250 0.195312
vt 0.281250 0.210938
vt 0.281250 0.195312
vt 0.125000 0.195312
vt 0.125000 0.210938
vt 0.046875 0.148438
vt 0.015625 0.148438
vt 0.015625 0.179688
vt 0.046875 0.179688
vt 0.007812 0.148438
vt 0.007812 0.179688
vt 0.054688 0.148438
vt 0.054688 0.179688
vt 0.070312 0.070312
vt 0.007812 0.070312
vt 0.007812 0.132812
vt 0.070312 0.132812
vt -0.000000 0.070312
vt 0.000000 0.132812
vt 0.078125 0.070312
vt 0.078125 0.132812
vt 0.007812 0.140625
vt 0.070312 0.140625
vt 0.031250 0.000000
vt 0.000041 0.000041
vt -0.000000 0.031250
vt 0.031250 0.031250
vt 0.125000 0.031250
vt 0.000000 0.031250
vt 0.000000 0.062500
vt 0.125000 0.062500
vt 0.125000 0.031250
vt 0.125000 0.000000
vt 0.000000 0.000000
vt 0.000000 0.031250
vt 0.000000 0.062500
vt 0.125000 0.062500
vt 0.125000 0.031250
vt -0.000000 0.031250
vn 1.0000 0.0000 0.0000
vn 0.0000 0.0000 -1.0000
vn -1.0000 0.0000 0.0000
vn 0.0000 -1.0000 0.0000
vn 0.0000 1.0000 0.0000
vn 0.0000 0.0000 1.0000
usemtl melting_crucible
s 1
f 1/1/1 2/2/1 3/3/1 4/4/1
f 2/5/2 5/6/2 6/7/2 3/8/2
f 5/9/3 7/10/3 8/11/3 6/12/3
f 2/13/4 1/1/4 7/10/4 5/14/4
f 6/15/5 8/16/5 4/17/5 3/18/5
f 9/19/1 10/20/1 11/21/1 12/22/1
f 10/23/2 13/24/2 14/25/2 11/26/2
f 13/27/3 15/28/3 16/29/3 14/30/3
f 10/31/4 9/32/4 15/33/4 13/34/4
f 14/35/5 16/29/5 12/22/5 11/36/5
f 17/37/1 18/38/1 19/39/1 20/40/1
f 18/41/2 21/42/2 22/43/2 19/44/2
f 21/45/3 23/46/3 24/47/3 22/48/3
f 23/49/6 17/50/6 20/51/6 24/52/6
f 18/53/4 17/54/4 23/55/4 21/56/4
f 22/57/5 24/58/5 20/59/5 19/60/5
f 25/61/1 26/62/1 27/63/1 28/64/1
f 26/65/2 29/66/2 30/67/2 27/68/2
f 29/69/3 31/70/3 32/71/3 30/72/3
f 31/73/6 25/74/6 28/75/6 32/76/6
f 33/77/1 34/78/1 35/79/1 36/80/1
f 34/81/2 37/82/2 38/83/2 35/84/2
f 37/85/3 39/86/3 40/87/3 38/88/3
f 39/89/6 33/90/6 36/91/6 40/92/6
f 34/93/4 33/94/4 39/95/4 37/96/4
f 38/97/5 40/98/5 36/99/5 35/100/5
f 41/101/1 42/102/1 43/103/1 44/104/1
f 42/105/2 45/106/2 46/107/2 43/108/2
f 45/109/3 47/110/3 48/111/3 46/112/3
f 47/113/6 41/114/6 44/115/6 48/116/6
f 49/117/1 50/118/1 51/119/1 52/120/1
f 50/121/2 53/122/2 54/123/2 51/124/2
f 53/125/3 55/126/3 56/127/3 54/128/3
f 55/129/6 49/130/6 52/131/6 56/132/6
f 54/133/5 56/134/5 52/131/5 51/124/5
f 57/135/1 58/136/1 59/137/1 60/138/1
f 58/136/2 61/139/2 62/140/2 59/137/2
f 61/141/3 63/142/3 64/143/3 62/144/3
f 63/145/6 57/146/6 60/147/6 64/148/6
f 65/149/1 66/150/1 67/151/1 68/152/1
f 66/150/2 69/153/2 70/154/2 67/151/2
f 69/155/3 71/156/3 72/157/3 70/158/3
f 71/159/6 65/160/6 68/161/6 72/162/6
f 66/163/4 65/164/4 71/165/4 69/155/4
f 70/158/5 72/166/5 68/167/5 67/168/5
f 73/169/1 74/170/1 75/171/1 76/172/1
f 74/173/2 77/174/2 78/175/2 75/176/2
f 77/177/3 79/178/3 80/179/3 78/180/3
f 79/181/6 73/182/6 76/183/6 80/184/6
f 78/185/5 80/186/5 76/187/5 75/188/5
f 81/189/1 82/190/1 83/191/1 84/192/1
f 82/193/2 85/194/2 86/195/2 83/196/2
f 85/197/3 87/198/3 88/199/3 86/200/3
f 87/201/6 81/202/6 84/203/6 88/204/6
f 82/205/4 81/206/4 87/207/4 85/208/4
f 86/209/5 88/210/5 84/211/5 83/212/5
f 89/213/1 90/214/1 91/215/1 92/216/1
f 90/217/2 93/218/2 94/219/2 91/220/2
f 93/221/3 95/222/3 96/223/3 94/224/3
f 95/225/6 89/226/6 92/227/6 96/228/6
f 97/229/1 98/230/1 99/231/1 100/232/1
f 98/230/2 101/233/2 102/234/2 99/231/2
f 101/235/3 103/236/3 104/237/3 102/238/3
f 103/239/6 97/240/6 100/241/6 104/242/6
f 105/243/1 106/244/1 107/245/1 108/246/1
f 106/247/2 109/248/2 110/249/2 107/250/2
f 109/251/3 111/252/3 112/253/3 110/254/3
f 111/255/6 105/256/6 108/257/6 112/258/6
f 113/259/1 114/260/1 115/261/1 116/262/1
f 114/263/2 117/264/2 118/265/2 115/266/2
f 117/267/3 119/268/3 120/269/3 118/270/3
f 119/271/6 113/272/6 116/273/6 120/274/6
f 121/275/1 122/276/1 123/277/1 124/278/1
f 122/279/2 125/280/2 126/281/2 123/282/2
f 125/283/3 127/284/3 128/285/3 126/286/3
f 127/287/6 121/288/6 124/289/6 128/290/6
f 129/291/1 130/292/1 131/293/1 132/294/1
f 130/295/2 133/296/2 134/297/2 131/298/2
f 133/299/3 135/300/3 136/301/3 134/302/3
f 135/303/6 129/304/6 132/305/6 136/306/6
f 137/307/1 138/308/1 139/309/1 140/310/1
f 138/311/2 141/312/2 142/313/2 139/314/2
f 141/315/3 143/316/3 144/317/3 142/318/3
f 143/319/6 137/320/6 140/321/6 144/322/6
f 145/323/1 146/324/1 147/325/1 148/326/1
f 146/327/2 149/328/2 150/329/2 147/330/2
f 149/331/3 151/332/3 152/333/3 150/334/3
f 151/335/6 145/336/6 148/337/6 152/338/6
f 153/339/1 154/340/1 155/341/1 156/342/1
f 154/343/2 157/344/2 158/345/2 155/346/2
f 157/347/3 159/348/3 160/349/3 158/350/3
f 159/351/6 153/352/6 156/353/6 160/354/6
f 154/355/4 153/356/4 159/357/4 157/358/4
f 158/359/5 160/360/5 156/361/5 155/362/5
f 161/363/2 162/364/2 163/365/2 164/366/2
f 165/367/6 166/368/6 167/369/6 168/370/6
f 161/371/4 166/372/4 165/373/4 162/374/4
f 163/375/5 168/376/5 167/377/5 164/378/5
f 169/379/2 170/380/2 171/381/2 172/382/2
f 173/383/6 174/384/6 175/385/6 176/386/6
f 169/387/4 174/388/4 173/389/4 170/390/4
f 171/391/5 176/392/5 175/393/5 172/394/5
f 177/395/1 178/396/1 179/397/1 180/398/1
f 181/399/3 182/400/3 183/401/3 184/402/3
f 177/403/4 182/404/4 181/405/4 178/406/4
f 179/407/5 184/408/5 183/409/5 180/410/5
f 185/411/1 186/412/1 187/413/1 188/414/1
f 189/415/3 190/416/3 191/417/3 192/418/3
f 185/419/4 190/420/4 189/421/4 186/422/4
f 187/423/5 192/424/5 191/425/5 188/426/5
f 193/427/1 194/428/1 195/429/1 196/430/1
f 194/428/2 197/431/2 198/432/2 195/429/2
f 199/433/6 193/427/6 196/430/6 200/434/6
f 201/435/1 202/436/1 203/437/1 204/438/1
f 202/436/2 205/439/2 206/440/2 203/437/2
f 207/441/6 201/435/6 204/438/6 208/442/6
f 206/443/5 208/444/5 204/438/5 203/437/5
f 209/445/3 210/446/3 211/447/3 212/448/3
f 210/449/6 213/450/6 214/451/6 211/452/6
f 212/453/5 211/454/5 214/455/5 215/456/5
f 216/457/2 217/458/2 218/459/2 219/460/2
