# Made in Blockbench 5.0.4
mtllib melting_crucible.mtl

o cube
v 1.5 -0.5 -0.25
v 0.3125 0.4375 -0.9375
v 0.3125 0.8125 -0.9375
v 0.3125 0.8125 -1
v 0.3125 0.4375 -1
v 0.6875 0.8125 -1
v 0.6875 0.4375 -1
v 0.6875 0.8125 -0.9375
v 0.6875 0.4375 -0.9375
v -0.0625 0.375 -0.9375
v -0.0625 0.875 -0.9375
v -0.0625 0.875 -1
v -0.0625 0.375 -1
v 0.1875 0.875 -1
v 0.1875 0.375 -1
v 0.1875 0.875 -0.9375
v 0.1875 0.375 -0.9375
v 0.9375 0.25 1
v 0.9375 1 1
v 0.9375 1 0.9375
v 0.9375 0.25 0.9375
v 1 1 0.9375
v 1 0.25 0.9375
v 1 1 1
v 1 0.25 1
v -0.9375 0.25 0.9375
v -0.9375 1 0.9375
v -0.9375 1 -0.9375
v -0.9375 0.25 -0.9375
v 0.9375 1 -0.9375
v 0.9375 0.25 -0.9375
v 0.9375 1 0.9375
v 0.9375 0.25 0.9375
v -1 0 1
v -1 0.25 1
v -1 0.25 -1
v -1 0 -1
v 1 0.25 -1
v 1 0 -1
v 1 0.25 1
v 1 0 1
v 0.625 -0.5 -0.625
v 0.625 0 -0.625
v 0.625 0 -0.875
v 0.625 -0.5 -0.875
v 0.875 0 -0.875
v 0.875 -0.5 -0.875
v 0.875 0 -0.625
v 0.875 -0.5 -0.625
v 1 -0.5 1
v 1 0 1
v 1 0 0
v 1 -0.5 0
v 2 0 0
v 2 -0.5 0
v 2 0 1
v 2 -0.5 1
v 1.1875 -0.5 1.875
v 1.1875 0 1.875
v 1.1875 0 1.625
v 1.1875 -0.5 1.625
v 1.3125 0 1.625
v 1.3125 -0.5 1.625
v 1.3125 0 1.875
v 1.3125 -0.5 1.875
v 1 0 2
v 1 1 2
v 1 1 1.5
v 1 0 1.5
v 2 1 1.5
v 2 0 1.5
v 2 1 2
v 2 0 2
v -1 -0.5 2
v -1 1 2
v -1 1 1
v -1 -0.5 1
v 0 1 1
v 0 -0.5 1
v 0 1 2
v 0 -0.5 2
v -1 -1 2
v -1 -0.5 2
v -1 -0.5 -1
v -1 -1 -1
v 2 -0.5 -1
v 2 -1 -1
v 2 -0.5 2
v 2 -1 2
v -0.5 -0.5 0.5
v -0.5 0 0.5
v -0.5 0 -0.5
v -0.5 -0.5 -0.5
v 0.5 0 -0.5
v 0.5 -0.5 -0.5
v 0.5 0 0.5
v 0.5 -0.5 0.5
v 1.6875 -0.5 1.875
v 1.6875 0 1.875
v 1.6875 0 1.625
v 1.6875 -0.5 1.625
v 1.8125 0 1.625
v 1.8125 -0.5 1.625
v 1.8125 0 1.875
v 1.8125 -0.5 1.875
v 0.9375 0.25 -0.9375
v 0.9375 1 -0.9375
v 0.9375 1 -1
v 0.9375 0.25 -1
v 1 1 -1
v 1 0.25 -1
v 1 1 -0.9375
v 1 0.25 -0.9375
v -1 0.25 -0.9375
v -1 1 -0.9375
v -1 1 -1
v -1 0.25 -1
v -0.9375 1 -1
v -0.9375 0.25 -1
v -0.9375 1 -0.9375
v -0.9375 0.25 -0.9375
v -1 0.25 1
v -1 1 1
v -1 1 0.9375
v -1 0.25 0.9375
v -0.9375 1 0.9375
v -0.9375 0.25 0.9375
v -0.9375 1 1
v -0.9375 0.25 1
v -0.875 -0.5 -0.625
v -0.875 0 -0.625
v -0.875 0 -0.875
v -0.875 -0.5 -0.875
v -0.625 0 -0.875
v -0.625 -0.5 -0.875
v -0.625 0 -0.625
v -0.625 -0.5 -0.625
v -0.875 -0.5 0.875
v -0.875 0 0.875
v -0.875 0 0.625
v -0.875 -0.5 0.625
v -0.625 0 0.625
v -0.625 -0.5 0.625
v -0.625 0 0.875
v -0.625 -0.5 0.875
v 0.625 -0.5 0.875
v 0.625 0 0.875
v 0.625 0 0.625
v 0.625 -0.5 0.625
v 0.875 0 0.625
v 0.875 -0.5 0.625
v 0.875 0 0.875
v 0.875 -0.5 0.875
v -1 1 1
v -1 1.25 1
v -1 1.25 -1
v -1 1 -1
v 1 1.25 -1
v 1 1 -1
v 1 1.25 1
v 1 1 1
v -0.625 -0.375 -0.8125
v -0.625 -0.125 -0.8125
v 0.625 -0.125 -0.8125
v 0.625 -0.375 -0.8125
v 0.625 -0.375 -0.6875
v 0.625 -0.125 -0.6875
v -0.625 -0.125 -0.6875
v -0.625 -0.375 -0.6875
v -0.625 -0.375 0.6875
v -0.625 -0.125 0.6875
v 0.625 -0.125 0.6875
v 0.625 -0.375 0.6875
v 0.625 -0.375 0.8125
v 0.625 -0.125 0.8125
v -0.625 -0.125 0.8125
v -0.625 -0.375 0.8125
v 0.6875 -0.375 0.625
v 0.6875 -0.125 0.625
v 0.6875 -0.125 -0.625
v 0.6875 -0.375 -0.625
v 0.8125 -0.375 -0.625
v 0.8125 -0.125 -0.625
v 0.8125 -0.125 0.625
v 0.8125 -0.375 0.625
v -0.8125 -0.375 0.625
v -0.8125 -0.125 0.625
v -0.8125 -0.125 -0.625
v -0.8125 -0.375 -0.625
v -0.6875 -0.375 -0.625
v -0.6875 -0.125 -0.625
v -0.6875 -0.125 0.625
v -0.6875 -0.375 0.625
v -1 0.75 0.625
v -1 1 0.625
v -1 1 0.375
v -1 0.75 0.375
v -0.9375 1 0.375
v -0.9375 0.75 0.375
v -0.9375 0.75 0.625
v -0.9375 1 0.625
v -1 0.25 0.75
v -1 0.75 0.75
v -1 0.75 0.25
v -1 0.25 0.25
v -0.9375 0.75 0.25
v -0.9375 0.25 0.25
v -0.9375 0.25 0.75
v -0.9375 0.75 0.75
v 1.5 -0.25 -0.25
v 1.5 -0.25 0
v 1.5 -0.5 0
v 0.5 -0.25 0
v 0.5 -0.5 0
v 0.5 -0.25 -0.25
v 0.5 -0.5 -0.25
v 0.5 -0.25 -0.25
v 1.5 -0.25 -0.25
v 1.5 -0.5 -0.25
vt 0.296875 0.265625
vt 0.296875 0.3125
vt 0.28906203125 0.3125
vt 0.28906203125 0.265625
vt 0.296875 0.265625
vt 0.296875 0.3125
vt 0.25 0.3125
vt 0.25 0.265625
vt 0.25781203125 0.265625
vt 0.25781203125 0.3125
vt 0.25 0.3125
vt 0.25 0.265625
vt 0.296875 0.27343796875000004
vt 0.25 0.27343796875000004
vt 0.25 0.265625
vt 0.296875 0.265625
vt 0.296875 0.3125
vt 0.25 0.3125
vt 0.25 0.30468796875000004
vt 0.296875 0.30468796875000004
vt 0.328125 0.25
vt 0.328125 0.3125
vt 0.32031203125 0.3125
vt 0.32031203125 0.25
vt 0.328125 0.25
vt 0.328125 0.3125
vt 0.296875 0.3125
vt 0.296875 0.25
vt 0.30468796875 0.25
vt 0.30468796875 0.3125
vt 0.296875 0.3125
vt 0.296875 0.25
vt 0.296875 0.25
vt 0.328125 0.25
vt 0.328125 0.25781203124999996
vt 0.296875 0.25781203124999996
vt 0.296875 0.30468796875000004
vt 0.328125 0.30468796875000004
vt 0.328125 0.3125
vt 0.296875 0.3125
vt 0.375 0.40625
vt 0.375 0.3125
vt 0.38281203125 0.3125
vt 0.38281203125 0.40625
vt 0.375 0.40625
vt 0.375 0.3125
vt 0.38281203125 0.3125
vt 0.38281203125 0.40625
vt 0.38281203125 0.3125
vt 0.38281203125 0.40625
vt 0.375 0.40625
vt 0.375 0.3125
vt 0.38281203125 0.3125
vt 0.38281203125 0.40625
vt 0.375 0.40625
vt 0.375 0.3125
vt 0 0
vt 0 0
vt 0 0
vt 0 0
vt 0 0
vt 0 0
vt 0 0
vt 0 0
vt 0.61718796875 0.46875
vt 0.61718796875 0.5625
vt 0.38281203125 0.5625
vt 0.38281203125 0.46875
vt 0.61718796875 0.46875
vt 0.61718796875 0.5625
vt 0.38281203125 0.5625
vt 0.38281203125 0.46875
vt 0.61718796875 0.46875
vt 0.61718796875 0.5625
vt 0.38281203125 0.5625
vt 0.38281203125 0.46875
vt 0.61718796875 0.46875
vt 0.61718796875 0.5625
vt 0.38281203125 0.5625
vt 0.38281203125 0.46875
vt 0.125 0.25
vt 0.125 0.21875
vt 0.375 0.21875
vt 0.375 0.25
vt 0.125 0.25
vt 0.125 0.21875
vt 0.375 0.21875
vt 0.375 0.25
vt 0.125 0.25
vt 0.125 0.21875
vt 0.375 0.21875
vt 0.375 0.25
vt 0.125 0.25
vt 0.125 0.21875
vt 0.375 0.21875
vt 0.375 0.25
vt 0.375 0.5625
vt 0.625 0.5625
vt 0.625 0.8125
vt 0.375 0.8125
vt 0.625 0.8125
vt 0.375 0.8125
vt 0.375 0.5625
vt 0.625 0.5625
vt 0 0.5
vt 0 0.4375
vt 0.03125 0.4375
vt 0.03125 0.5
vt 0 0.5
vt 0 0.4375
vt 0.03125 0.4375
vt 0.03125 0.5
vt 0.03125 0.4375
vt 0.03125 0.5
vt 0 0.5
vt 0 0.4375
vt 0.03125 0.4375
vt 0.03125 0.5
vt 0 0.5
vt 0 0.4375
vt 0.125 0.375
vt 0.125 0.4375
vt 0 0.4375
vt 0 0.375
vt 0.125 0.375
vt 0.125 0.4375
vt 0 0.4375
vt 0 0.375
vt 0.25 0.4375
vt 0.25 0.5
vt 0.125 0.5
vt 0.125 0.4375
vt 0.125 0.375
vt 0.125 0.4375
vt 0 0.4375
vt 0 0.375
vt 0.125 0.3125
vt 0.125 0.4375
vt 0 0.4375
vt 0 0.3125
vt 0 0.5
vt 0 0.4375
vt 0.03125 0.4375
vt 0.03125 0.5
vt 0.03125 0.5
vt 0.03125 0.4375
vt 0.046875 0.4375
vt 0.046875 0.5
vt 0.03125 0.4375
vt 0.03125 0.5
vt 0 0.5
vt 0 0.4375
vt 0.046875 0.4375
vt 0.046875 0.5
vt 0.03125 0.5
vt 0.03125 0.4375
vt 0.0625 0.3125
vt 0.0625 0.4375
vt 0.125 0.4375
vt 0.125 0.3125
vt 0.125 0.3125
vt 0.125 0.4375
vt 0 0.4375
vt 0 0.3125
vt 0.125 0.3125
vt 0.125 0.4375
vt 0.0625 0.4375
vt 0.0625 0.3125
vt 0.25 0.3125
vt 0.25 0.4375
vt 0.125 0.4375
vt 0.125 0.3125
vt 0 0.3125
vt 0.125 0.3125
vt 0.125 0.375
vt 0 0.375
vt 0.125 0.4375
vt 0 0.4375
vt 0 0.375
vt 0.125 0.375
vt 0.5 0.8125
vt 0.5 1
vt 0.375 1
vt 0.375 0.8125
vt 0.375 0.3125
vt 0.375 0.5
vt 0.25 0.5
vt 0.25 0.3125
vt 0.375 0.3125
vt 0.375 0.5
vt 0.25 0.5
vt 0.25 0.3125
vt 0.625 0.8125
vt 0.625 1
vt 0.50781203125 1
vt 0.50781203125 0.8125
vt 0.125 0.3125
vt 0 0.3125
vt 0 0.1875
vt 0.125 0.1875
vt 0.375 0.5
vt 0.375 0.5625
vt 0 0.5625
vt 0 0.5
vt 0.375 0.5
vt 0.375 0.5625
vt 0 0.5625
vt 0 0.5
vt 0.375 0.5625
vt 0.375 0.625
vt 0 0.625
vt 0 0.5625
vt 0.375 0.5
vt 0.375 0.5625
vt 0 0.5625
vt 0 0.5
vt 0 0.625
vt 0.375 0.625
vt 0.375 1
vt 0.0001 0.9999
vt 0.375 1
vt 0.375 0.625
vt 0 0.625
vt 0 1
vt 0.25 0.25
vt 0.25 0.3125
vt 0.125 0.3125
vt 0.125 0.25
vt 0.25 0.25
vt 0.25 0.3125
vt 0.125 0.3125
vt 0.125 0.25
vt 0.25 0.25
vt 0.25 0.3125
vt 0.125 0.3125
vt 0.125 0.25
vt 0.25 0.25
vt 0.25 0.3125
vt 0.125 0.3125
vt 0.125 0.25
vt 0 0.5
vt 0 0.4375
vt 0.03125 0.4375
vt 0.03125 0.5
vt 0.03125 0.5
vt 0.03125 0.4375
vt 0.046875 0.4375
vt 0.046875 0.5
vt 0.03125 0.4375
vt 0.03125 0.5
vt 0 0.5
vt 0 0.4375
vt 0.046875 0.4375
vt 0.046875 0.5
vt 0.03125 0.5
vt 0.03125 0.4375
vt 0.375 0.40625
vt 0.375 0.3125
vt 0.38281203125 0.3125
vt 0.38281203125 0.40625
vt 0.375 0.40625
vt 0.375 0.3125
vt 0.38281203125 0.3125
vt 0.38281203125 0.40625
vt 0.38281203125 0.3125
vt 0.38281203125 0.40625
vt 0.375 0.40625
vt 0.375 0.3125
vt 0.38281203125 0.3125
vt 0.38281203125 0.40625
vt 0.375 0.40625
vt 0.375 0.3125
vt 0.375 0.40625
vt 0.375 0.3125
vt 0.38281203125 0.3125
vt 0.38281203125 0.40625
vt 0.375 0.40625
vt 0.375 0.3125
vt 0.38281203125 0.3125
vt 0.38281203125 0.40625
vt 0.38281203125 0.3125
vt 0.38281203125 0.40625
vt 0.375 0.40625
vt 0.375 0.3125
vt 0.38281203125 0.3125
vt 0.38281203125 0.40625
vt 0.375 0.40625
vt 0.375 0.3125
vt 0.375 0.40625
vt 0.375 0.3125
vt 0.38281203125 0.3125
vt 0.38281203125 0.40625
vt 0.375 0.40625
vt 0.375 0.3125
vt 0.38281203125 0.3125
vt 0.38281203125 0.40625
vt 0.38281203125 0.3125
vt 0.38281203125 0.40625
vt 0.375 0.40625
vt 0.375 0.3125
vt 0.38281203125 0.3125
vt 0.38281203125 0.40625
vt 0.375 0.40625
vt 0.375 0.3125
vt 0 0.5
vt 0 0.4375
vt 0.03125 0.4375
vt 0.03125 0.5
vt 0 0.5
vt 0 0.4375
vt 0.03125 0.4375
vt 0.03125 0.5
vt 0.03125 0.4375
vt 0.03125 0.5
vt 0 0.5
vt 0 0.4375
vt 0.03125 0.4375
vt 0.03125 0.5
vt 0 0.5
vt 0 0.4375
vt 0 0.5
vt 0 0.4375
vt 0.03125 0.4375
vt 0.03125 0.5
vt 0 0.5
vt 0 0.4375
vt 0.03125 0.4375
vt 0.03125 0.5
vt 0.03125 0.4375
vt 0.03125 0.5
vt 0 0.5
vt 0 0.4375
vt 0.03125 0.4375
vt 0.03125 0.5
vt 0 0.5
vt 0 0.4375
vt 0 0.5
vt 0 0.4375
vt 0.03125 0.4375
vt 0.03125 0.5
vt 0 0.5
vt 0 0.4375
vt 0.03125 0.4375
vt 0.03125 0.5
vt 0.03125 0.4375
vt 0.03125 0.5
vt 0 0.5
vt 0 0.4375
vt 0.03125 0.4375
vt 0.03125 0.5
vt 0 0.5
vt 0 0.4375
vt 0.125 0.25
vt 0.125 0.21875
vt 0.375 0.21875
vt 0.375 0.25
vt 0.125 0.25
vt 0.125 0.21875
vt 0.375 0.21875
vt 0.375 0.25
vt 0.125 0.25
vt 0.125 0.21875
vt 0.375 0.21875
vt 0.375 0.25
vt 0.125 0.25
vt 0.125 0.21875
vt 0.375 0.21875
vt 0.375 0.25
vt 0.375 0.5625
vt 0.625 0.5625
vt 0.625 0.8125
vt 0.375 0.8125
vt 0.625 0.8125
vt 0.375 0.8125
vt 0.375 0.5625
vt 0.625 0.5625
vt 0.125 0.21875
vt 0.125 0.1875
vt 0.28125 0.1875
vt 0.28125 0.21875
vt 0.28125 0.1875
vt 0.28125 0.21875
vt 0.125 0.21875
vt 0.125 0.1875
vt 0.125 0.19531203124999996
vt 0.28125 0.19531203124999996
vt 0.28125 0.21093796875000004
vt 0.125 0.21093796875000004
vt 0.28125 0.21093796875000004
vt 0.125 0.21093796875000004
vt 0.125 0.19531203124999996
vt 0.28125 0.19531203124999996
vt 0.125 0.21875
vt 0.125 0.1875
vt 0.28125 0.1875
vt 0.28125 0.21875
vt 0.28125 0.1875
vt 0.28125 0.21875
vt 0.125 0.21875
vt 0.125 0.1875
vt 0.125 0.19531203124999996
vt 0.28125 0.19531203124999996
vt 0.28125 0.21093796875000004
vt 0.125 0.21093796875000004
vt 0.28125 0.21093796875000004
vt 0.125 0.21093796875000004
vt 0.125 0.19531203124999996
vt 0.28125 0.19531203124999996
vt 0.125 0.21875
vt 0.125 0.1875
vt 0.28125 0.1875
vt 0.28125 0.21875
vt 0.28125 0.1875
vt 0.28125 0.21875
vt 0.125 0.21875
vt 0.125 0.1875
vt 0.125 0.19531203124999996
vt 0.28125 0.19531203124999996
vt 0.28125 0.21093796875000004
vt 0.125 0.21093796875000004
vt 0.28125 0.21093796875000004
vt 0.125 0.21093796875000004
vt 0.125 0.19531203124999996
vt 0.28125 0.19531203124999996
vt 0.125 0.21875
vt 0.125 0.1875
vt 0.28125 0.1875
vt 0.28125 0.21875
vt 0.28125 0.1875
vt 0.28125 0.21875
vt 0.125 0.21875
vt 0.125 0.1875
vt 0.125 0.19531203124999996
vt 0.28125 0.19531203124999996
vt 0.28125 0.21093796875000004
vt 0.125 0.21093796875000004
vt 0.28125 0.21093796875000004
vt 0.125 0.21093796875000004
vt 0.125 0.19531203124999996
vt 0.28125 0.19531203124999996
vt 0.046875 0.14843796875000004
vt 0.046875 0.17968796875000004
vt 0.015625 0.17968796875000004
vt 0.015625 0.14843796875000004
vt 0.015625 0.14843796875000004
vt 0.015625 0.17968796875000004
vt 0.00781203125 0.17968796875000004
vt 0.00781203125 0.14843796875000004
vt 0.05468796875 0.14843796875000004
vt 0.05468796875 0.17968796875000004
vt 0.046875 0.17968796875000004
vt 0.046875 0.14843796875000004
vt 0.07031203125 0.07031203124999996
vt 0.07031203125 0.13281203124999996
vt 0.00781203125 0.13281203124999996
vt 0.00781203125 0.07031203124999996
vt 0.00781203125 0.07031203124999996
vt 0.00781203125 0.13281203124999996
vt 0 0.13281203124999996
vt 0 0.07031203124999996
vt 0.078125 0.07031203124999996
vt 0.078125 0.13281203124999996
vt 0.07031203125 0.13281203124999996
vt 0.07031203125 0.07031203124999996
vt 0.00781203125 0.140625
vt 0.00781203125 0.13281203124999996
vt 0.07031203125 0.13281203124999996
vt 0.07031203125 0.140625
vt 0.03125 0
vt 0.03125 0.03125
vt 0 0.03125
vt 0.000041015625 0.00004101562500002931
vt 0.125 0.03125
vt 0.125 0.0625
vt 0 0.0625
vt 0 0.03125
vt 0.125 0.03125
vt 0 0.03125
vt 0 0
vt 0.125 0
vt 0 0.0625
vt 0 0.03125
vt 0.125 0.03125
vt 0.125 0.0625
vn -1 0 0
vn 0 0 -1
vn 1 0 0
vn 0 -1 0
vn 0 1 0
vn -1 0 0
vn 0 0 -1
vn 1 0 0
vn 0 -1 0
vn 0 1 0
vn -1 0 0
vn 0 0 -1
vn 1 0 0
vn 0 0 1
vn 0 -1 0
vn 0 1 0
vn -1 0 0
vn 0 0 -1
vn 1 0 0
vn 0 0 1
vn -1 0 0
vn 0 0 -1
vn 1 0 0
vn 0 0 1
vn 0 -1 0
vn 0 1 0
vn -1 0 0
vn 0 0 -1
vn 1 0 0
vn 0 0 1
vn -1 0 0
vn 0 0 -1
vn 1 0 0
vn 0 0 1
vn 0 1 0
vn -1 0 0
vn 0 0 -1
vn 1 0 0
vn 0 0 1
vn -1 0 0
vn 0 0 -1
vn 1 0 0
vn 0 0 1
vn 0 -1 0
vn 0 1 0
vn -1 0 0
vn 0 0 -1
vn 1 0 0
vn 0 0 1
vn 0 1 0
vn -1 0 0
vn 0 0 -1
vn 1 0 0
vn 0 0 1
vn 0 -1 0
vn 0 1 0
vn -1 0 0
vn 0 0 -1
vn 1 0 0
vn 0 0 1
vn -1 0 0
vn 0 0 -1
vn 1 0 0
vn 0 0 1
vn -1 0 0
vn 0 0 -1
vn 1 0 0
vn 0 0 1
vn -1 0 0
vn 0 0 -1
vn 1 0 0
vn 0 0 1
vn -1 0 0
vn 0 0 -1
vn 1 0 0
vn 0 0 1
vn -1 0 0
vn 0 0 -1
vn 1 0 0
vn 0 0 1
vn -1 0 0
vn 0 0 -1
vn 1 0 0
vn 0 0 1
vn -1 0 0
vn 0 0 -1
vn 1 0 0
vn 0 0 1
vn -1 0 0
vn 0 0 -1
vn 1 0 0
vn 0 0 1
vn 0 -1 0
vn 0 1 0
vn 0 0 -1
vn 0 0 1
vn 0 -1 0
vn 0 1 0
vn 0 0 -1
vn 0 0 1
vn 0 -1 0
vn 0 1 0
vn -1 0 0
vn 1 0 0
vn 0 -1 0
vn 0 1 0
vn -1 0 0
vn 1 0 0
vn 0 -1 0
vn 0 1 0
vn -1 0 0
vn 0 0 -1
vn 0 0 1
vn -1 0 0
vn 0 0 -1
vn 0 0 1
vn 0 1 0
vn 1 0 0
vn 0 0 1
vn 0 1 0
vn 0 0 -1
usemtl m_f6887dba-9dec-f27c-446d-7808da3d7d2c
f 2/1/1 3/2/1 4/3/1 5/4/1
f 5/5/2 4/6/2 6/7/2 7/8/2
f 7/9/3 6/10/3 8/11/3 9/12/3
f 5/13/4 7/14/4 9/15/4 2/16/4
f 6/17/5 4/18/5 3/19/5 8/20/5
f 10/21/6 11/22/6 12/23/6 13/24/6
f 13/25/7 12/26/7 14/27/7 15/28/7
f 15/29/8 14/30/8 16/31/8 17/32/8
f 13/33/9 15/34/9 17/35/9 10/36/9
f 14/37/10 12/38/10 11/39/10 16/40/10
f 18/41/11 19/42/11 20/43/11 21/44/11
f 21/45/12 20/46/12 22/47/12 23/48/12
f 23/49/13 22/50/13 24/51/13 25/52/13
f 25/53/14 24/54/14 19/55/14 18/56/14
f 21/57/15 23/58/15 25/59/15 18/60/15
f 22/61/16 20/62/16 19/63/16 24/64/16
f 26/65/17 27/66/17 28/67/17 29/68/17
f 29/69/18 28/70/18 30/71/18 31/72/18
f 31/73/19 30/74/19 32/75/19 33/76/19
f 33/77/20 32/78/20 27/79/20 26/80/20
f 34/81/21 35/82/21 36/83/21 37/84/21
f 37/85/22 36/86/22 38/87/22 39/88/22
f 39/89/23 38/90/23 40/91/23 41/92/23
f 41/93/24 40/94/24 35/95/24 34/96/24
f 37/97/25 39/98/25 41/99/25 34/100/25
f 38/101/26 36/102/26 35/103/26 40/104/26
f 42/105/27 43/106/27 44/107/27 45/108/27
f 45/109/28 44/110/28 46/111/28 47/112/28
f 47/113/29 46/114/29 48/115/29 49/116/29
f 49/117/30 48/118/30 43/119/30 42/120/30
f 50/121/31 51/122/31 52/123/31 53/124/31
f 53/125/32 52/126/32 54/127/32 55/128/32
f 55/129/33 54/130/33 56/131/33 57/132/33
f 57/133/34 56/134/34 51/135/34 50/136/34
f 54/137/35 52/138/35 51/139/35 56/140/35
f 58/141/36 59/142/36 60/143/36 61/144/36
f 61/145/37 60/146/37 62/147/37 63/148/37
f 63/149/38 62/150/38 64/151/38 65/152/38
f 65/153/39 64/154/39 59/155/39 58/156/39
f 66/157/40 67/158/40 68/159/40 69/160/40
f 69/161/41 68/162/41 70/163/41 71/164/41
f 71/165/42 70/166/42 72/167/42 73/168/42
f 73/169/43 72/170/43 67/171/43 66/172/43
f 69/173/44 71/174/44 73/175/44 66/176/44
f 70/177/45 68/178/45 67/179/45 72/180/45
f 74/181/46 75/182/46 76/183/46 77/184/46
f 77/185/47 76/186/47 78/187/47 79/188/47
f 79/189/48 78/190/48 80/191/48 81/192/48
f 81/193/49 80/194/49 75/195/49 74/196/49
f 78/197/50 76/198/50 75/199/50 80/200/50
f 82/201/51 83/202/51 84/203/51 85/204/51
f 85/205/52 84/206/52 86/207/52 87/208/52
f 87/209/53 86/210/53 88/211/53 89/212/53
f 89/213/54 88/214/54 83/215/54 82/216/54
f 85/217/55 87/218/55 89/219/55 82/220/55
f 86/221/56 84/222/56 83/223/56 88/224/56
f 90/225/57 91/226/57 92/227/57 93/228/57
f 93/229/58 92/230/58 94/231/58 95/232/58
f 95/233/59 94/234/59 96/235/59 97/236/59
f 97/237/60 96/238/60 91/239/60 90/240/60
f 98/241/61 99/242/61 100/243/61 101/244/61
f 101/245/62 100/246/62 102/247/62 103/248/62
f 103/249/63 102/250/63 104/251/63 105/252/63
f 105/253/64 104/254/64 99/255/64 98/256/64
f 106/257/65 107/258/65 108/259/65 109/260/65
f 109/261/66 108/262/66 110/263/66 111/264/66
f 111/265/67 110/266/67 112/267/67 113/268/67
f 113/269/68 112/270/68 107/271/68 106/272/68
f 114/273/69 115/274/69 116/275/69 117/276/69
f 117/277/70 116/278/70 118/279/70 119/280/70
f 119/281/71 118/282/71 120/283/71 121/284/71
f 121/285/72 120/286/72 115/287/72 114/288/72
f 122/289/73 123/290/73 124/291/73 125/292/73
f 125/293/74 124/294/74 126/295/74 127/296/74
f 127/297/75 126/298/75 128/299/75 129/300/75
f 129/301/76 128/302/76 123/303/76 122/304/76
f 130/305/77 131/306/77 132/307/77 133/308/77
f 133/309/78 132/310/78 134/311/78 135/312/78
f 135/313/79 134/314/79 136/315/79 137/316/79
f 137/317/80 136/318/80 131/319/80 130/320/80
f 138/321/81 139/322/81 140/323/81 141/324/81
f 141/325/82 140/326/82 142/327/82 143/328/82
f 143/329/83 142/330/83 144/331/83 145/332/83
f 145/333/84 144/334/84 139/335/84 138/336/84
f 146/337/85 147/338/85 148/339/85 149/340/85
f 149/341/86 148/342/86 150/343/86 151/344/86
f 151/345/87 150/346/87 152/347/87 153/348/87
f 153/349/88 152/350/88 147/351/88 146/352/88
f 154/353/89 155/354/89 156/355/89 157/356/89
f 157/357/90 156/358/90 158/359/90 159/360/90
f 159/361/91 158/362/91 160/363/91 161/364/91
f 161/365/92 160/366/92 155/367/92 154/368/92
f 157/369/93 159/370/93 161/371/93 154/372/93
f 158/373/94 156/374/94 155/375/94 160/376/94
f 162/377/95 163/378/95 164/379/95 165/380/95
f 166/381/96 167/382/96 168/383/96 169/384/96
f 162/385/97 165/386/97 166/387/97 169/388/97
f 164/389/98 163/390/98 168/391/98 167/392/98
f 170/393/99 171/394/99 172/395/99 173/396/99
f 174/397/100 175/398/100 176/399/100 177/400/100
f 170/401/101 173/402/101 174/403/101 177/404/101
f 172/405/102 171/406/102 176/407/102 175/408/102
f 178/409/103 179/410/103 180/411/103 181/412/103
f 182/413/104 183/414/104 184/415/104 185/416/104
f 178/417/105 181/418/105 182/419/105 185/420/105
f 180/421/106 179/422/106 184/423/106 183/424/106
f 186/425/107 187/426/107 188/427/107 189/428/107
f 190/429/108 191/430/108 192/431/108 193/432/108
f 186/433/109 189/434/109 190/435/109 193/436/109
f 188/437/110 187/438/110 192/439/110 191/440/110
f 194/441/111 195/442/111 196/443/111 197/444/111
f 197/445/112 196/446/112 198/447/112 199/448/112
f 200/449/113 201/450/113 195/451/113 194/452/113
f 202/453/114 203/454/114 204/455/114 205/456/114
f 205/457/115 204/458/115 206/459/115 207/460/115
f 208/461/116 209/462/116 203/463/116 202/464/116
f 206/465/117 204/466/117 203/467/117 209/468/117
f 1/469/118 210/470/118 211/471/118 212/472/118
f 212/473/119 211/474/119 213/475/119 214/476/119
f 210/477/120 215/478/120 213/479/120 211/480/120
f 216/481/121 217/482/121 218/483/121 219/484/121