#OBJ Created and UV'd by Silfryi Kalsandryn for MCT Immersive Technology

mtllib radiator.mtl
o radiator_ports
v 0.000000 -0.000000 -7.000000
v 0.000000 1.000000 -7.000000
v 0.000000 -0.000000 -8.000000
v 0.000000 1.000000 -8.000000
v 1.000000 -0.000000 -7.000000
v 1.000000 1.000000 -7.000000
v 1.000000 -0.000000 -8.000000
v 1.000000 1.000000 -8.000000
v 1.000000 0.000000 0.000000
v 1.000000 1.000000 0.000000
v 1.000000 0.000000 1.000000
v 1.000000 1.000000 1.000000
v -0.000000 0.000000 0.000000
v -0.000000 1.000000 0.000000
v 0.000000 0.000000 1.000000
v 0.000000 1.000000 1.000000
vt 0.375000 0.000000
vt 0.375000 0.125000
vt 0.250000 0.125000
vt 0.250000 0.000000
vt 0.125000 0.000000
vt 0.125000 0.125000
vt 0.000000 0.125000
vt 0.000000 0.000000
vt 0.375000 0.000000
vt 0.375000 0.125000
vt 0.250000 0.125000
vt 0.250000 0.000000
vt 0.375000 0.000000
vt 0.375000 0.125000
vt 0.250000 0.125000
vt 0.250000 0.000000
vt 0.375000 0.125000
vt 0.250000 0.125000
vt 0.250000 0.000000
vt 0.375000 0.000000
vt 0.375000 0.000000
vt 0.375000 0.125000
vt 0.250000 0.125000
vt 0.250000 0.000000
vt 0.125000 0.125000
vt 0.125000 0.000000
vt 0.375000 0.000000
vt 0.375000 0.125000
vt 0.250000 0.125000
vt 0.250000 0.000000
vt 0.375000 0.000000
vt 0.375000 0.125000
vt 0.250000 0.125000
vt 0.250000 0.000000
vt 0.375000 0.125000
vt 0.250000 0.125000
vt 0.250000 0.000000
vt 0.375000 0.000000
vn -1.0000 0.0000 0.0000
vn 0.0000 0.0000 -1.0000
vn 1.0000 0.0000 0.0000
vn 0.0000 0.0000 1.0000
vn 0.0000 -1.0000 0.0000
vn 0.0000 1.0000 0.0000
usemtl None
s off
f 1/1/1 2/2/1 4/3/1 3/4/1
f 3/5/2 4/6/2 8/7/2 7/8/2
f 7/9/3 8/10/3 6/11/3 5/12/3
f 5/13/4 6/14/4 2/15/4 1/16/4
f 3/4/5 7/9/5 5/17/5 1/18/5
f 8/19/6 4/20/6 2/2/6 6/11/6
f 9/21/3 10/22/3 12/23/3 11/24/3
f 11/24/4 12/23/4 16/25/4 15/26/4
f 15/27/1 16/28/1 14/29/1 13/30/1
f 13/31/2 14/32/2 10/33/2 9/34/2
f 11/24/5 15/27/5 13/35/5 9/36/5
f 16/37/6 12/38/6 10/22/6 14/29/6
o radiator
v 4.000000 0.625000 -8.000000
v 4.000000 0.375000 1.000000
v -3.000000 0.625000 -8.000000
v -3.000000 0.625000 -6.999999
v -3.000000 0.625000 -6.000000
v -3.000000 0.625000 -4.999999
v 4.000000 0.625000 -2.999999
v 4.000000 0.625000 -1.999999
v -3.000000 0.625000 -1.000000
v -3.000000 0.625000 0.000001
v 4.000000 0.625000 0.000000
v 4.000000 0.625000 1.000001
v -3.000000 0.375000 -8.000000
v 4.000000 0.375000 -3.000000
v 4.000000 0.375000 -6.000000
v -3.000000 0.375000 -6.000000
v -3.000000 0.375000 -7.000001
v 4.000000 0.375001 -7.000000
v 4.000000 0.375001 -8.000001
v 4.000000 0.375000 0.000000
v 4.000000 0.375000 -1.000000
v 4.000000 0.625000 -0.999999
v 4.000000 0.375000 -2.000000
v 4.000000 0.375000 -4.000000
v 4.000000 0.625000 -3.999999
v 4.000000 0.375000 -5.000000
v 4.000000 0.625000 -6.000000
v 4.000000 0.625000 -4.999999
v 4.000000 0.625000 -6.999999
v -3.000000 0.625000 1.000000
v -3.000000 0.375000 -2.999999
v -3.000000 0.375000 -1.999999
v -3.000000 0.375000 0.000000
v -3.000000 0.375000 1.000001
v -3.000000 0.625000 -3.000000
v -3.000000 0.375000 -0.999999
v -3.000000 0.625000 -2.000000
v -3.000000 0.625000 -4.000000
v -3.000000 0.375000 -3.999999
v -3.000000 0.375000 -4.999999
v 1.000000 0.375000 0.000000
v 1.000000 0.625000 0.000000
v 1.000000 0.625000 1.000001
v 0.000000 0.375000 0.000000
v 0.000000 0.625000 0.000000
v 1.000000 0.625000 -7.000000
v 1.000000 0.375000 -7.000000
v -0.000000 0.625000 -7.000000
v -0.000000 0.375000 -7.000000
v -0.000000 0.625000 1.000000
v -0.000000 0.375000 1.000001
v 1.000000 0.375000 1.000000
v -0.000000 0.625000 -8.000000
v 1.000000 0.375000 -8.000000
v 1.000000 0.625000 -8.000000
v -0.000000 0.375000 -8.000000
v 0.250000 0.750000 0.000000
v 0.750000 0.750000 0.000000
v 0.250000 0.750000 -7.000000
v 0.750000 0.750000 -7.000000
v 0.250000 0.250000 0.000000
v 0.750000 0.250000 0.000000
v 0.250000 0.250000 -7.000000
v 0.750000 0.250000 -7.000000
vt 0.406250 0.125000
vt 0.406250 0.500000
vt 0.375000 0.500000
vt 0.375000 0.125000
vt 0.406250 0.125000
vt 0.406250 0.500000
vt 0.375000 0.500000
vt 0.375000 0.125000
vt 0.000000 0.125000
vt 0.125000 0.125000
vt 0.125000 0.500000
vt 0.000016 0.499984
vt 0.125000 0.125000
vt 0.250000 0.125000
vt 0.250000 1.000000
vt 0.125000 1.000000
vt 0.125000 0.125000
vt 0.250000 0.125000
vt 0.250000 1.000000
vt 0.125000 1.000000
vt 0.125000 0.125000
vt 0.250000 0.125000
vt 0.250000 1.000000
vt 0.125000 1.000000
vt 0.125000 0.125000
vt 0.250000 0.125000
vt 0.250000 1.000000
vt 0.125000 1.000000
vt 0.125000 0.125000
vt 0.250000 0.125000
vt 0.250000 1.000000
vt 0.125000 1.000000
vt 0.125000 0.125000
vt 0.250000 0.125000
vt 0.250000 1.000000
vt 0.125000 1.000000
vt 0.000000 1.000000
vt 0.125000 1.000000
vt 0.125000 0.625000
vt 0.000000 0.625000
vt 0.250000 0.125000
vt 0.250000 0.500000
vt 0.000000 0.125000
vt 0.125000 0.125000
vt 0.125000 0.500000
vt 0.000016 0.499984
vt 0.000000 1.000000
vt 0.000000 0.625000
vt 0.125000 0.625000
vt 0.125000 1.000000
vt 0.125000 0.125000
vt 0.250000 0.125000
vt 0.250000 1.000000
vt 0.125000 1.000000
vt 0.125000 0.125000
vt 0.250000 0.125000
vt 0.250000 1.000000
vt 0.125000 1.000000
vt 0.125000 0.125000
vt 0.250000 0.125000
vt 0.250000 1.000000
vt 0.125000 1.000000
vt 0.125000 0.125000
vt 0.250000 0.125000
vt 0.250000 1.000000
vt 0.125000 1.000000
vt 0.125000 0.125000
vt 0.250000 0.125000
vt 0.250000 1.000000
vt 0.125000 1.000000
vt 0.250000 0.125000
vt 0.250000 1.000000
vt 0.250000 0.500000
vt 0.406250 1.000000
vt 0.375000 1.000000
vt 0.375000 0.875000
vt 0.406250 0.875000
vt 0.375000 0.750000
vt 0.406250 0.750000
vt 0.406250 0.875000
vt 0.375000 0.875000
vt 0.375000 0.750000
vt 0.406250 0.750000
vt 0.406250 0.875000
vt 0.375000 0.875000
vt 0.375000 0.750000
vt 0.406250 0.750000
vt 0.406250 0.875000
vt 0.375000 0.875000
vt 0.375000 0.750000
vt 0.406250 0.750000
vt 0.406250 0.875000
vt 0.375000 0.875000
vt 0.375000 0.750000
vt 0.406250 0.750000
vt 0.406250 0.875000
vt 0.375000 0.875000
vt 0.375000 0.750000
vt 0.406250 0.750000
vt 0.406250 0.875000
vt 0.375000 0.875000
vt 0.375000 0.750000
vt 0.406250 0.750000
vt 0.406250 0.875000
vt 0.375000 0.875000
vt 0.406250 0.250000
vt 0.375000 0.250000
vt 0.375000 0.125000
vt 0.406250 0.125000
vt 0.406250 1.000000
vt 0.375000 1.000000
vt 0.375000 0.875000
vt 0.406250 0.875000
vt 0.375000 0.750000
vt 0.406250 0.750000
vt 0.406250 0.875000
vt 0.375000 0.875000
vt 0.375000 0.750000
vt 0.406250 0.750000
vt 0.406250 0.875000
vt 0.375000 0.875000
vt 0.375000 0.750000
vt 0.406250 0.750000
vt 0.406250 0.875000
vt 0.375000 0.875000
vt 0.375000 0.750000
vt 0.406250 0.750000
vt 0.406250 0.875000
vt 0.375000 0.875000
vt 0.375000 0.750000
vt 0.406250 0.750000
vt 0.406250 0.875000
vt 0.375000 0.875000
vt 0.375000 0.750000
vt 0.406250 0.750000
vt 0.406250 0.875000
vt 0.375000 0.875000
vt 0.375000 0.750000
vt 0.406250 0.750000
vt 0.406250 0.875000
vt 0.375000 0.875000
vt 0.406250 0.250000
vt 0.375000 0.250000
vt 0.375000 0.125000
vt 0.406250 0.125000
vt 0.375000 0.625000
vt 0.406250 0.625000
vt 0.406250 1.000000
vt 0.375000 1.000000
vt 0.375000 0.625000
vt 0.406250 0.625000
vt 0.406250 1.000000
vt 0.375000 1.000000
vt 0.250000 0.625000
vt 0.125000 0.125000
vt 0.250000 1.000000
vt 0.250000 0.125000
vt 0.375000 0.625000
vt 0.250000 0.625000
vt 0.468750 0.125000
vt 0.531250 0.125000
vt 0.531250 1.000000
vt 0.468750 1.000000
vt 0.468750 0.125000
vt 0.531250 0.125000
vt 0.531250 1.000000
vt 0.468750 1.000000
vt 0.468750 0.125000
vt 0.531250 0.125000
vt 0.531250 1.000000
vt 0.468750 1.000000
vt 0.468750 0.125000
vt 0.531250 0.125000
vt 0.531250 1.000000
vt 0.468750 1.000000
vn 0.0000 0.0000 -1.0000
vn 0.0000 0.0000 1.0000
vn -0.0000 1.0000 0.0000
vn 0.0000 -1.0000 -0.0000
vn 1.0000 0.0000 0.0000
vn -1.0000 0.0000 0.0000
usemtl None
s off
f 19/39/7 69/40/7 72/41/7 29/42/7
f 50/43/8 67/44/8 66/45/8 46/46/8
f 19/47/9 20/48/9 64/49/9 69/50/9
f 32/51/10 33/52/10 34/53/10 31/54/10
f 21/55/9 22/56/9 44/57/9 43/58/9
f 22/59/9 54/60/9 41/61/9 44/62/9
f 54/63/9 51/64/9 23/65/9 41/66/9
f 51/67/9 53/68/9 24/69/9 23/70/9
f 53/71/9 25/72/9 38/73/9 24/74/9
f 28/75/9 27/76/9 58/77/9 59/78/9
f 26/79/9 46/46/9 66/45/9 61/80/9
f 50/81/10 49/82/10 60/83/10 67/84/10
f 17/85/9 71/86/9 62/87/9 45/88/9
f 52/89/10 48/90/10 39/91/10 37/92/10
f 48/93/10 47/94/10 30/95/10 39/96/10
f 47/97/10 55/98/10 40/99/10 30/100/10
f 55/101/10 56/102/10 42/103/10 40/104/10
f 56/105/10 32/106/10 31/107/10 42/108/10
f 20/48/9 21/109/9 43/110/9 45/88/9
f 33/52/10 29/42/10 72/41/10 65/111/10
f 28/112/11 18/113/11 36/114/11 27/115/11
f 27/116/11 36/117/11 37/118/11 38/119/11
f 38/120/11 37/121/11 39/122/11 24/123/11
f 24/124/11 39/125/11 30/126/11 23/127/11
f 23/128/11 30/129/11 40/130/11 41/131/11
f 41/132/11 40/133/11 42/134/11 44/135/11
f 44/136/11 42/137/11 31/138/11 43/139/11
f 43/140/11 31/141/11 34/142/11 45/143/11
f 45/144/11 34/145/11 35/146/11 17/147/11
f 50/148/12 46/149/12 26/150/12 49/151/12
f 49/152/12 26/153/12 25/154/12 52/155/12
f 52/156/12 25/157/12 53/158/12 48/159/12
f 48/160/12 53/161/12 51/162/12 47/163/12
f 47/164/12 51/165/12 54/166/12 55/167/12
f 55/168/12 54/169/12 22/170/12 56/171/12
f 56/172/12 22/173/12 21/174/12 32/175/12
f 32/176/12 21/177/12 20/178/12 33/179/12
f 33/180/12 20/181/12 19/182/12 29/183/12
f 70/184/7 71/185/7 17/186/7 35/187/7
f 59/188/8 68/189/8 18/190/8 28/191/8
f 35/187/10 34/53/10 63/192/10 70/184/10
f 25/72/9 26/193/9 27/76/9 38/73/9
f 37/92/10 36/194/10 49/195/10 52/89/10
f 18/113/10 68/196/10 57/197/10 36/194/10
f 73/198/9 74/199/9 76/200/9 75/201/9
f 79/202/10 80/203/10 78/204/10 77/205/10
f 75/206/12 79/207/12 77/208/12 73/209/12
f 80/210/11 76/211/11 74/212/11 78/213/11
l 57 60
l 58 61
l 62 64
