# Made in Blockbench 5.0.4
mtllib solar_tower.mtl

o cube
v 0 18 0.9375
v 1.25 -1 -0.25
v 1.75 -1 -0.25
v 1.75 0 -0.25
v 1.25 0 -0.25
v 1.75 -1 -0.75
v 1.75 0 -0.75
v 1.25 -1 -0.75
v 1.25 0 -0.75
v 1.25 -1 1.75
v 1.75 -1 1.75
v 1.75 0 1.75
v 1.25 0 1.75
v 1.75 -1 1.25
v 1.75 0 1.25
v 1.25 -1 1.25
v 1.25 0 1.25
v -0.75 -1 -0.25
v -0.25 -1 -0.25
v -0.25 0 -0.25
v -0.75 0 -0.25
v -0.25 -1 -0.75
v -0.25 0 -0.75
v -0.75 -1 -0.75
v -0.75 0 -0.75
v -0.75 -1 1.75
v -0.25 -1 1.75
v -0.25 0 1.75
v -0.75 0 1.75
v -0.25 -1 1.25
v -0.25 0 1.25
v -0.75 -1 1.25
v -0.75 0 1.25
v 1.3125 4 -0.3125
v 1.6875 4 -0.3125
v 1.6875 8 -0.3125
v 1.3125 8 -0.3125
v 1.6875 4 -0.6875
v 1.6875 8 -0.6875
v 1.3125 4 -0.6875
v 1.3125 8 -0.6875
v 1.625 0.28125 1.55859375
v 1.625 0.22265625 1.31640625
v 1.625 3.71875 0.44140625
v 1.625 3.77734375 0.68359375
v 1.375 7.77734375 -0.31640625
v 1.375 7.71875 -0.55859375
v 1.375 4.22265625 0.31640625
v 1.375 4.28125 0.55859375
v 1.625 7.77734375 -0.31640625
v 1.625 4.28125 0.55859375
v 1.375 0.28125 1.55859375
v 1.375 3.77734375 0.68359375
v 1.375 0.22265625 1.31640625
v 1.375 3.71875 0.44140625
v 1.3125 4.5 0.75
v 1.6875 4.5 0.75
v 1.6875 4.5 0.25
v 1.3125 4.5 0.25
v 1.3125 3.5 0.25
v 1.6875 3.5 0.25
v 1.6875 3.5 0.75
v 1.3125 3.5 0.75
v 1.625 0.22265625 -0.31640625
v 1.625 0.28125 -0.55859375
v 1.625 3.77734375 0.31640625
v 1.625 3.71875 0.55859375
v 1.375 0.22265625 -0.31640625
v 1.375 3.71875 0.55859375
v 1.375 0.28125 -0.55859375
v 1.375 3.77734375 0.31640625
v 1.625 7.71875 -0.55859375
v 1.625 4.22265625 0.31640625
v 1.625 7.77734375 1.31640625
v 1.625 7.71875 1.55859375
v 1.625 4.22265625 0.68359375
v 1.625 4.28125 0.44140625
v 1.375 7.77734375 1.31640625
v 1.375 4.28125 0.44140625
v 1.375 7.71875 1.55859375
v 1.375 4.22265625 0.68359375
v -0.375 0.28125 1.55859375
v -0.375 0.22265625 1.31640625
v -0.375 3.71875 0.44140625
v -0.375 3.77734375 0.68359375
v -0.625 0.28125 1.55859375
v -0.625 3.77734375 0.68359375
v -0.3125 3.5 0.25
v -0.6875 3.5 0.25
v -0.6875 4.5 0.25
v -0.3125 4.5 0.25
v -0.625 7.71875 -0.55859375
v -0.375 7.71875 -0.55859375
v -0.375 4.22265625 0.31640625
v -0.625 4.22265625 0.31640625
v -0.375 7.77734375 1.31640625
v -0.375 7.71875 1.55859375
v -0.375 4.22265625 0.68359375
v -0.375 4.28125 0.44140625
v -0.625 0.22265625 1.31640625
v -0.625 3.71875 0.44140625
v -0.625 7.77734375 -0.31640625
v -0.625 4.28125 0.55859375
v -0.625 7.77734375 1.31640625
v -0.625 4.28125 0.44140625
v -0.375 0.22265625 -0.31640625
v -0.375 0.28125 -0.55859375
v -0.375 3.77734375 0.31640625
v -0.375 3.71875 0.55859375
v -0.625 7.71875 1.55859375
v -0.625 4.22265625 0.68359375
v -0.375 7.77734375 -0.31640625
v -0.375 4.28125 0.55859375
v -0.625 0.22265625 -0.31640625
v -0.625 3.71875 0.55859375
v -0.625 0.28125 -0.55859375
v -0.625 3.77734375 0.31640625
v -0.6875 4.5 0.75
v -0.3125 4.5 0.75
v -0.3125 3.5 0.75
v -0.6875 3.5 0.75
v 1.55859375 7.71875 1.375
v 1.55859375 7.71875 1.625
v 0.68359375 4.22265625 1.625
v 0.68359375 4.22265625 1.375
v 1.31640625 7.77734375 1.625
v 0.44140625 4.28125 1.625
v 1.31640625 7.77734375 1.375
v 0.44140625 4.28125 1.375
v 0.25 3.5 1.3125
v 0.25 3.5 1.6875
v 0.25 4.5 1.6875
v 0.25 4.5 1.3125
v 0.75 3.5 1.6875
v 0.75 4.5 1.6875
v 0.75 3.5 1.3125
v 0.75 4.5 1.3125
v 1.3125 0 -0.3125
v 1.6875 0 -0.3125
v 1.6875 0 -0.6875
v 1.3125 0 -0.6875
v -0.6875 4 -0.3125
v -0.3125 4 -0.3125
v -0.3125 8 -0.3125
v -0.6875 8 -0.3125
v -0.3125 4 -0.6875
v -0.3125 8 -0.6875
v -0.6875 4 -0.6875
v -0.6875 8 -0.6875
v -0.6875 0 -0.3125
v -0.3125 0 -0.3125
v -0.3125 0 -0.6875
v -0.6875 0 -0.6875
v 1.3125 4 1.6875
v 1.6875 4 1.6875
v 1.6875 8 1.6875
v 1.3125 8 1.6875
v 1.6875 4 1.3125
v 1.6875 8 1.3125
v 1.3125 4 1.3125
v 1.3125 8 1.3125
v 1.3125 0 1.6875
v 1.6875 0 1.6875
v 1.6875 0 1.3125
v 1.3125 0 1.3125
v -0.6875 4 1.6875
v -0.3125 4 1.6875
v -0.3125 8 1.6875
v -0.6875 8 1.6875
v -0.3125 4 1.3125
v -0.3125 8 1.3125
v -0.6875 4 1.3125
v -0.6875 8 1.3125
v -0.6875 0 1.6875
v -0.3125 0 1.6875
v -0.3125 0 1.3125
v -0.6875 0 1.3125
v -0.31640625 7.77734375 1.375
v -0.31640625 7.77734375 1.625
v 0.55859375 4.28125 1.625
v 0.55859375 4.28125 1.375
v -0.55859375 7.71875 1.625
v 0.31640625 4.22265625 1.625
v -0.55859375 7.71875 1.375
v 0.31640625 4.22265625 1.375
v -0.55859375 0.28125 1.375
v -0.55859375 0.28125 1.625
v 0.31640625 3.77734375 1.625
v 0.31640625 3.77734375 1.375
v -0.31640625 0.22265625 1.625
v 0.55859375 3.71875 1.625
v -0.31640625 0.22265625 1.375
v 0.55859375 3.71875 1.375
v 1.31640625 0.22265625 1.375
v 1.31640625 0.22265625 1.625
v 0.44140625 3.71875 1.625
v 0.44140625 3.71875 1.375
v 1.55859375 0.28125 1.625
v 0.68359375 3.77734375 1.625
v 1.55859375 0.28125 1.375
v 0.68359375 3.77734375 1.375
v 1.55859375 7.71875 -0.625
v 1.55859375 7.71875 -0.375
v 0.68359375 4.22265625 -0.375
v 0.68359375 4.22265625 -0.625
v 1.31640625 7.77734375 -0.375
v 0.44140625 4.28125 -0.375
v 1.31640625 7.77734375 -0.625
v 0.44140625 4.28125 -0.625
v 0.25 3.5 -0.6875
v 0.25 3.5 -0.3125
v 0.25 4.5 -0.3125
v 0.25 4.5 -0.6875
v 0.75 3.5 -0.3125
v 0.75 4.5 -0.3125
v 0.75 3.5 -0.6875
v 0.75 4.5 -0.6875
v -0.31640625 7.77734375 -0.625
v -0.31640625 7.77734375 -0.375
v 0.55859375 4.28125 -0.375
v 0.55859375 4.28125 -0.625
v -0.55859375 7.71875 -0.375
v 0.31640625 4.22265625 -0.375
v -0.55859375 7.71875 -0.625
v 0.31640625 4.22265625 -0.625
v -0.55859375 0.28125 -0.625
v -0.55859375 0.28125 -0.375
v 0.31640625 3.77734375 -0.375
v 0.31640625 3.77734375 -0.625
v -0.31640625 0.22265625 -0.375
v 0.55859375 3.71875 -0.375
v -0.31640625 0.22265625 -0.625
v 0.55859375 3.71875 -0.625
v 1.31640625 0.22265625 -0.625
v 1.31640625 0.22265625 -0.375
v 0.44140625 3.71875 -0.375
v 0.44140625 3.71875 -0.625
v 1.55859375 0.28125 -0.375
v 0.68359375 3.77734375 -0.375
v 1.55859375 0.28125 -0.625
v 0.68359375 3.77734375 -0.625
v -0.5 -1 1.5
v 1.5 -1 1.5
v 1.5 -0.5 1.5
v -0.5 -0.5 1.5
v 1.5 -1 -0.5
v 1.5 -0.5 -0.5
v -0.5 -1 -0.5
v -0.5 -0.5 -0.5
v 0 -1 2
v 1 -1 2
v 1 0 2
v 0 0 2
v 1 -1 1
v 1 0 1
v 0 -1 1
v 0 0 1
v 0.75 4 0.75
v 1.25 4 0.75
v 1.25 8 0.75
v 0.75 8 0.75
v 1.25 4 0.25
v 1.25 8 0.25
v 0.75 4 0.25
v 0.75 8 0.25
v 0 -1 0
v 1 -1 0
v 1 0 0
v 0 0 0
v 1 -1 -1
v 1 0 -1
v 0 -1 -1
v 0 0 -1
v 0.75 0 0.75
v 1.25 0 0.75
v 1.25 0 0.25
v 0.75 0 0.25
v 0.75 -0.5 0.75
v 1.25 -0.5 0.75
v 1.25 -0.5 0.25
v 0.75 -0.5 0.25
v -0.25 4 0.75
v 0.25 4 0.75
v 0.25 8 0.75
v -0.25 8 0.75
v 0.25 4 0.25
v 0.25 8 0.25
v -0.25 4 0.25
v -0.25 8 0.25
v -0.25 0 0.75
v 0.25 0 0.75
v 0.25 0 0.25
v -0.25 0 0.25
v -0.25 -0.5 0.75
v 0.25 -0.5 0.75
v 0.25 -0.5 0.25
v -0.25 -0.5 0.25
v -1 -2 2
v 2 -2 2
v 2 -1 2
v -1 -1 2
v 2 -2 -1
v 2 -1 -1
v -1 -2 -1
v -1 -1 -1
v 2 16.5 0
v 1 16.5 -1
v 1 17 -1
v 2 17 0
v 0 16.5 2
v 1 16.5 2
v 0.5 16.5 2
v -1 17 0
v 0 17 -1
v 0 16.5 -1
v -1 16.5 0
v -1 16.5 1
v 0 17 2
v -1 17 1
v 2 18.5 1
v 1 18.5 2
v 1 18 2
v 2 18 1
v 0 18.5 -1
v 1 18.5 -1
v 0.5 18.5 -1
v -1 18 1
v 0 18 2
v 0 18.5 2
v -1 18.5 1
v -1 18.5 0
v 0 18 -1
v -1 18 0
v -1 17.5 0
v 0 17.5 -1
v 2 17.5 1
v 1 17.5 2
v 1 17 2
v 2 17 1
v -1 -1 1
v -0.5 -1 1
v -0.5 0 1
v -1 0 1
v -0.5 -1 0
v -0.5 0 0
v -1 -1 0
v -1 0 0
v 1.3125 12 -0.3125
v 1.6875 12 -0.3125
v 1.6875 16 -0.3125
v 1.3125 16 -0.3125
v 1.6875 12 -0.6875
v 1.6875 16 -0.6875
v 1.3125 12 -0.6875
v 1.3125 16 -0.6875
v 1.625 8.28125 1.55859375
v 1.625 8.22265625 1.31640625
v 1.625 11.71875 0.44140625
v 1.625 11.77734375 0.68359375
v 1.375 15.77734375 -0.31640625
v 1.375 15.71875 -0.55859375
v 1.375 12.22265625 0.31640625
v 1.375 12.28125 0.55859375
v 1.625 15.77734375 -0.31640625
v 1.625 12.28125 0.55859375
v 1.375 8.28125 1.55859375
v 1.375 11.77734375 0.68359375
v 1.3125 12.5 0.75
v 1.6875 12.5 0.75
v 1.6875 12.5 0.25
v 1.3125 12.5 0.25
v 1.3125 11.5 0.25
v 1.6875 11.5 0.25
v 1.6875 11.5 0.75
v 1.3125 11.5 0.75
v 1.375 8.22265625 1.31640625
v 1.375 11.71875 0.44140625
v 1.625 8.22265625 -0.31640625
v 1.625 8.28125 -0.55859375
v 1.625 11.77734375 0.31640625
v 1.625 11.71875 0.55859375
v 1.375 8.22265625 -0.31640625
v 1.375 11.71875 0.55859375
v 1.375 8.28125 -0.55859375
v 1.375 11.77734375 0.31640625
v 1.625 15.71875 -0.55859375
v 1.625 12.22265625 0.31640625
v 1.625 15.77734375 1.31640625
v 1.625 15.71875 1.55859375
v 1.625 12.22265625 0.68359375
v 1.625 12.28125 0.44140625
v 1.375 15.77734375 1.31640625
v 1.375 12.28125 0.44140625
v 1.375 15.71875 1.55859375
v 1.375 12.22265625 0.68359375
v -0.625 8.28125 1.55859375
v -0.375 8.28125 1.55859375
v -0.375 11.77734375 0.68359375
v -0.625 11.77734375 0.68359375
v -0.3125 11.5 0.25
v -0.6875 11.5 0.25
v -0.6875 12.5 0.25
v -0.3125 12.5 0.25
v -0.625 15.71875 -0.55859375
v -0.375 15.71875 -0.55859375
v -0.375 12.22265625 0.31640625
v -0.625 12.22265625 0.31640625
v -0.375 15.77734375 1.31640625
v -0.375 15.71875 1.55859375
v -0.375 12.22265625 0.68359375
v -0.375 12.28125 0.44140625
v -0.625 8.22265625 1.31640625
v -0.625 11.71875 0.44140625
v -0.375 8.22265625 1.31640625
v -0.375 11.71875 0.44140625
v -0.625 15.77734375 -0.31640625
v -0.625 12.28125 0.55859375
v -0.625 15.77734375 1.31640625
v -0.625 12.28125 0.44140625
v -0.625 15.71875 1.55859375
v -0.625 12.22265625 0.68359375
v -0.375 15.77734375 -0.31640625
v -0.375 12.28125 0.55859375
v -0.625 8.22265625 -0.31640625
v -0.375 8.22265625 -0.31640625
v -0.375 11.71875 0.55859375
v -0.625 11.71875 0.55859375
v -0.625 8.28125 -0.55859375
v -0.625 11.77734375 0.31640625
v -0.6875 12.5 0.75
v -0.3125 12.5 0.75
v -0.3125 11.5 0.75
v -0.6875 11.5 0.75
v -0.375 8.28125 -0.55859375
v -0.375 11.77734375 0.31640625
v 1.55859375 15.71875 1.375
v 1.55859375 15.71875 1.625
v 0.68359375 12.22265625 1.625
v 0.68359375 12.22265625 1.375
v 1.31640625 15.77734375 1.625
v 0.44140625 12.28125 1.625
v 1.31640625 15.77734375 1.375
v 0.44140625 12.28125 1.375
v 0.25 11.5 1.3125
v 0.25 11.5 1.6875
v 0.25 12.5 1.6875
v 0.25 12.5 1.3125
v 0.75 11.5 1.6875
v 0.75 12.5 1.6875
v 0.75 11.5 1.3125
v 0.75 12.5 1.3125
v -0.6875 12 -0.3125
v -0.3125 12 -0.3125
v -0.3125 16 -0.3125
v -0.6875 16 -0.3125
v -0.3125 12 -0.6875
v -0.3125 16 -0.6875
v -0.6875 12 -0.6875
v -0.6875 16 -0.6875
v 1.3125 12 1.6875
v 1.6875 12 1.6875
v 1.6875 16 1.6875
v 1.3125 16 1.6875
v 1.6875 12 1.3125
v 1.6875 16 1.3125
v 1.3125 12 1.3125
v 1.3125 16 1.3125
v -0.6875 12 1.6875
v -0.3125 12 1.6875
v -0.3125 16 1.6875
v -0.6875 16 1.6875
v -0.3125 12 1.3125
v -0.3125 16 1.3125
v -0.6875 12 1.3125
v -0.6875 16 1.3125
v -0.31640625 15.77734375 1.375
v -0.31640625 15.77734375 1.625
v 0.55859375 12.28125 1.625
v 0.55859375 12.28125 1.375
v -0.55859375 15.71875 1.625
v 0.31640625 12.22265625 1.625
v -0.55859375 15.71875 1.375
v 0.31640625 12.22265625 1.375
v -0.55859375 8.28125 1.375
v -0.55859375 8.28125 1.625
v 0.31640625 11.77734375 1.625
v 0.31640625 11.77734375 1.375
v -0.31640625 8.22265625 1.625
v 0.55859375 11.71875 1.625
v -0.31640625 8.22265625 1.375
v 0.55859375 11.71875 1.375
v 1.31640625 8.22265625 1.375
v 1.31640625 8.22265625 1.625
v 0.44140625 11.71875 1.625
v 0.44140625 11.71875 1.375
v 1.55859375 8.28125 1.625
v 0.68359375 11.77734375 1.625
v 1.55859375 8.28125 1.375
v 0.68359375 11.77734375 1.375
v 1.55859375 15.71875 -0.625
v 1.55859375 15.71875 -0.375
v 0.68359375 12.22265625 -0.375
v 0.68359375 12.22265625 -0.625
v 1.31640625 15.77734375 -0.375
v 0.44140625 12.28125 -0.375
v 1.31640625 15.77734375 -0.625
v 0.44140625 12.28125 -0.625
v 0.25 11.5 -0.6875
v 0.25 11.5 -0.3125
v 0.25 12.5 -0.3125
v 0.25 12.5 -0.6875
v 0.75 11.5 -0.3125
v 0.75 12.5 -0.3125
v 0.75 11.5 -0.6875
v 0.75 12.5 -0.6875
v -0.31640625 15.77734375 -0.625
v -0.31640625 15.77734375 -0.375
v 0.55859375 12.28125 -0.375
v 0.55859375 12.28125 -0.625
v -0.55859375 15.71875 -0.375
v 0.31640625 12.22265625 -0.375
v -0.55859375 15.71875 -0.625
v 0.31640625 12.22265625 -0.625
v -0.55859375 8.28125 -0.625
v -0.55859375 8.28125 -0.375
v 0.31640625 11.77734375 -0.375
v 0.31640625 11.77734375 -0.625
v -0.31640625 8.22265625 -0.375
v -0.31640625 8.22265625 -0.625
v 0.55859375 11.71875 -0.625
v 0.55859375 11.71875 -0.375
v 1.31640625 8.22265625 -0.625
v 1.31640625 8.22265625 -0.375
v 0.44140625 11.71875 -0.375
v 0.44140625 11.71875 -0.625
v 1.55859375 8.28125 -0.375
v 1.55859375 8.28125 -0.625
v 0.68359375 11.77734375 -0.625
v 0.68359375 11.77734375 -0.375
v 0.75 12 0.75
v 1.25 12 0.75
v 1.25 16 0.75
v 0.75 16 0.75
v 1.25 12 0.25
v 1.25 16 0.25
v 0.75 12 0.25
v 0.75 16 0.25
v -0.25 12 0.75
v 0.25 12 0.75
v 0.25 16 0.75
v -0.25 16 0.75
v 0.25 12 0.25
v 0.25 16 0.25
v -0.25 12 0.25
v -0.25 16 0.25
v 2 16.5 -1
v 2 16.5 2
v 2 16 2
v 2 16 -1
v -1 16.5 2
v -1 16.5 -1
v -1 16 -1
v -1 16 2
v 0.0625 17 1
v 0.0625 17 2
v 0.5 16.5 1
v 0.9375 17 2
v 0.9375 17 1
v 0 17 0.0625
v -1 17 0.0625
v -1 16.5 0.5
v 0 16.5 0.5
v -1 17 0.9375
v 0 17 0.9375
v 0.9375 17 0
v 0.9375 17 -1
v 0.5 16.5 -1
v 0.5 16.5 0
v 0.0625 17 -1
v 0.0625 17 0
v 1 17 0.9375
v 2 17 0.9375
v 2 16.5 0.5
v 1 16.5 0.5
v 2 17 0.0625
v 1 17 0.0625
v 2 16.5 1
v -0.9375 17 -0.6875
v -0.9375 16.5 -0.6875
v -0.6875 16.5 -0.6875
v -0.6875 17 -0.6875
v 1.6875 17 1.9375
v 1.6875 16.5 1.9375
v 1.9375 16.5 1.9375
v 1.9375 17 1.9375
v 1.9375 16.5 1.6875
v 1.9375 17 1.6875
v 1 17 1
v 1 16.5 1
v 1 16.5 0
v 1 17 0
v -0.9375 16.5 1.9375
v -0.9375 17 1.9375
v 0 16.5 1
v 0 17 1
v 0 17 0
v 0 16.5 0
v -0.9375 17 -0.9375
v -0.9375 16.5 -0.9375
v -0.6875 17 1.9375
v -0.6875 16.5 1.9375
v 1.6875 16.5 1.6875
v 1.6875 17 1.6875
v 1.6875 17 -0.9375
v 1.6875 16.5 -0.9375
v 1.6875 16.5 -0.6875
v 1.6875 17 -0.6875
v -0.6875 16.5 -0.9375
v -0.6875 17 -0.9375
v 1.9375 17 -0.6875
v 1.9375 16.5 -0.6875
v 1.9375 16.5 -0.9375
v 1.9375 17 -0.9375
v 2 18.5 2
v 2 18.5 -1
v 2 19 -1
v 2 19 2
v -1 18.5 -1
v -1 18.5 2
v -1 19 2
v -1 19 -1
v 0.0625 18 0
v 0.0625 18 -1
v 0.5 18.5 0
v 0.9375 18 -1
v 0.9375 18 0
v 1 18 -1
v -1 18 0.9375
v -1 18.5 0.5
v 0 18.5 0.5
v -1 18 0.0625
v 0 18 0.0625
v 0.9375 18 1
v 0.9375 18 2
v 0.5 18.5 2
v 0.5 18.5 1
v 0.0625 18 2
v 0.0625 18 1
v 1 18 0.0625
v 2 18 0.0625
v 2 18.5 0.5
v 1 18.5 0.5
v 2 18 0.9375
v 1 18 0.9375
v 2 18 0
v 2 18.5 0
v -0.9375 18 1.6875
v -0.9375 18.5 1.6875
v -0.6875 18.5 1.6875
v -0.6875 18 1.6875
v 1.6875 18 -0.9375
v 1.6875 18.5 -0.9375
v 1.9375 18.5 -0.9375
v 1.9375 18 -0.9375
v 1.9375 18.5 -0.6875
v 1.9375 18 -0.6875
v -0.6875 18 -0.6875
v -0.6875 18.5 -0.6875
v -0.9375 18.5 -0.6875
v -0.9375 18 -0.6875
v 1 18 0
v 1 18.5 0
v 1 18.5 1
v 1 18 1
v -0.9375 18.5 -0.9375
v -0.9375 18 -0.9375
v 0 18.5 0
v 0 18 0
v 0 18 1
v 0 18.5 1
v -0.9375 18 1.9375
v -0.9375 18.5 1.9375
v -0.6875 18 -0.9375
v -0.6875 18.5 -0.9375
v 2 17.5 0
v 1 17.5 -1
v 1.6875 18.5 -0.6875
v 1.6875 18 -0.6875
v 1.6875 18 1.9375
v 1.6875 18.5 1.9375
v 1.6875 18.5 1.6875
v 1.6875 18 1.6875
v -0.6875 18.5 1.9375
v -0.6875 18 1.9375
v 1.9375 18 1.6875
v 1.9375 18.5 1.6875
v 1.9375 18.5 1.9375
v 1.9375 18 1.9375
v -1 17.5 1
v 0 17.5 2
v -0.6875 16.5 1.6875
v -0.9375 16.5 1.6875
v -0.6875 17 1.6875
v -0.9375 17 1.6875
vt 0.25 0.375
vt 0.25 0.4375
vt 0.375 0.4375
vt 0.375 0.375
vt 0.25 0.4375
vt 0.25 0.375
vt 0.375 0.375
vt 0.375 0.4375
vt 0.25 0.375
vt 0.25 0.4375
vt 0.375 0.4375
vt 0.375 0.375
vt 0.25 0.4375
vt 0.25 0.375
vt 0.375 0.375
vt 0.375 0.4375
vt 0.40625 0.40625
vt 0.46875 0.40625
vt 0.46875 0.46875
vt 0.40625 0.46875
vt 0.25 0.375
vt 0.25 0.4375
vt 0.375 0.4375
vt 0.375 0.375
vt 0.25 0.4375
vt 0.25 0.375
vt 0.375 0.375
vt 0.375 0.4375
vt 0.25 0.375
vt 0.25 0.4375
vt 0.375 0.4375
vt 0.375 0.375
vt 0.25 0.4375
vt 0.25 0.375
vt 0.375 0.375
vt 0.375 0.4375
vt 0.40625 0.40625
vt 0.46875 0.40625
vt 0.46875 0.46875
vt 0.40625 0.46875
vt 0.25 0.375
vt 0.25 0.4375
vt 0.375 0.4375
vt 0.375 0.375
vt 0.25 0.375
vt 0.25 0.4375
vt 0.375 0.4375
vt 0.375 0.375
vt 0.25 0.4375
vt 0.25 0.375
vt 0.375 0.375
vt 0.375 0.4375
vt 0.25 0.375
vt 0.25 0.4375
vt 0.375 0.4375
vt 0.375 0.375
vt 0.46875 0.46875
vt 0.46875 0.40625
vt 0.40625 0.40625
vt 0.40625 0.46875
vt 0.25 0.375
vt 0.25 0.4375
vt 0.375 0.4375
vt 0.375 0.375
vt 0.25 0.375
vt 0.25 0.4375
vt 0.375 0.4375
vt 0.375 0.375
vt 0.25 0.4375
vt 0.25 0.375
vt 0.375 0.375
vt 0.375 0.4375
vt 0.25 0.375
vt 0.25 0.4375
vt 0.375 0.4375
vt 0.375 0.375
vt 0.46875 0.46875
vt 0.46875 0.40625
vt 0.40625 0.40625
vt 0.40625 0.46875
vt 0.640625 0.25
vt 0.59375 0.25
vt 0.59375 0.75
vt 0.640625 0.75
vt 0.640625 0.25
vt 0.59375 0.25
vt 0.59375 0.75
vt 0.640625 0.75
vt 0.59375 0.25
vt 0.640625 0.25
vt 0.640625 0.75
vt 0.59375 0.75
vt 0.640625 0.25
vt 0.59375 0.25
vt 0.59375 0.75
vt 0.640625 0.75
vt 0.59375 0.75
vt 0.5625 0.75
vt 0.5625 0.3125
vt 0.59375 0.3125
vt 0.59375 0.75
vt 0.5625 0.75
vt 0.5625 0.3125
vt 0.59375 0.3125
vt 0.5625 0.75
vt 0.59375 0.75
vt 0.59375 0.3125
vt 0.5625 0.3125
vt 0.5625 0.75
vt 0.59375 0.75
vt 0.59375 0.3125
vt 0.5625 0.3125
vt 0.59375 0.75
vt 0.5625 0.75
vt 0.5625 0.3125
vt 0.59375 0.3125
vt 0.414061875 0.90625
vt 0.460938125 0.90625
vt 0.460938125 0.84375
vt 0.414061875 0.84375
vt 0.414061875 0.90625
vt 0.460938125 0.90625
vt 0.460938125 0.84375
vt 0.414061875 0.84375
vt 0.5625 0.75
vt 0.59375 0.75
vt 0.59375 0.3125
vt 0.5625 0.3125
vt 0.25 0.375
vt 0.25 0.4375
vt 0.375 0.4375
vt 0.375 0.375
vt 0.414061875 0.9375
vt 0.460938125 0.9375
vt 0.460938125 0.8125
vt 0.414061875 0.8125
vt 0.59375 0.75
vt 0.5625 0.75
vt 0.5625 0.3125
vt 0.59375 0.3125
vt 0.5625 0.75
vt 0.59375 0.75
vt 0.59375 0.3125
vt 0.5625 0.3125
vt 0.375 0.4375
vt 0.375 0.375
vt 0.25 0.375
vt 0.25 0.4375
vt 0.460938125 0.8125
vt 0.414061875 0.8125
vt 0.414061875 0.9375
vt 0.460938125 0.9375
vt 0.59375 0.75
vt 0.5625 0.75
vt 0.5625 0.3125
vt 0.59375 0.3125
vt 0.5625 0.75
vt 0.59375 0.75
vt 0.59375 0.3125
vt 0.5625 0.3125
vt 0.59375 0.75
vt 0.5625 0.75
vt 0.5625 0.3125
vt 0.59375 0.3125
vt 0.59375 0.75
vt 0.5625 0.75
vt 0.5625 0.3125
vt 0.59375 0.3125
vt 0.5625 0.75
vt 0.59375 0.75
vt 0.59375 0.3125
vt 0.5625 0.3125
vt 0.5625 0.75
vt 0.59375 0.75
vt 0.59375 0.3125
vt 0.5625 0.3125
vt 0.59375 0.75
vt 0.5625 0.75
vt 0.5625 0.3125
vt 0.59375 0.3125
vt 0.5625 0.75
vt 0.59375 0.75
vt 0.59375 0.3125
vt 0.5625 0.3125
vt 0.59375 0.75
vt 0.5625 0.75
vt 0.5625 0.3125
vt 0.59375 0.3125
vt 0.5625 0.75
vt 0.59375 0.75
vt 0.59375 0.3125
vt 0.5625 0.3125
vt 0.460938125 0.8125
vt 0.414061875 0.8125
vt 0.414061875 0.9375
vt 0.460938125 0.9375
vt 0.5625 0.75
vt 0.59375 0.75
vt 0.59375 0.3125
vt 0.5625 0.3125
vt 0.59375 0.75
vt 0.5625 0.75
vt 0.5625 0.3125
vt 0.59375 0.3125
vt 0.59375 0.75
vt 0.5625 0.75
vt 0.5625 0.3125
vt 0.59375 0.3125
vt 0.5625 0.75
vt 0.59375 0.75
vt 0.59375 0.3125
vt 0.5625 0.3125
vt 0.59375 0.75
vt 0.5625 0.75
vt 0.5625 0.3125
vt 0.59375 0.3125
vt 0.5625 0.75
vt 0.59375 0.75
vt 0.59375 0.3125
vt 0.5625 0.3125
vt 0.59375 0.75
vt 0.5625 0.75
vt 0.5625 0.3125
vt 0.59375 0.3125
vt 0.59375 0.75
vt 0.5625 0.75
vt 0.5625 0.3125
vt 0.59375 0.3125
vt 0.5625 0.75
vt 0.59375 0.75
vt 0.59375 0.3125
vt 0.5625 0.3125
vt 0.5625 0.75
vt 0.59375 0.75
vt 0.59375 0.3125
vt 0.5625 0.3125
vt 0.59375 0.75
vt 0.5625 0.75
vt 0.5625 0.3125
vt 0.59375 0.3125
vt 0.414061875 0.90625
vt 0.460938125 0.90625
vt 0.460938125 0.84375
vt 0.414061875 0.84375
vt 0.414061875 0.90625
vt 0.460938125 0.90625
vt 0.460938125 0.84375
vt 0.414061875 0.84375
vt 0.25 0.375
vt 0.25 0.4375
vt 0.375 0.4375
vt 0.375 0.375
vt 0.5625 0.75
vt 0.59375 0.75
vt 0.59375 0.3125
vt 0.5625 0.3125
vt 0.5625 0.75
vt 0.59375 0.75
vt 0.59375 0.3125
vt 0.5625 0.3125
vt 0.414061875 0.9375
vt 0.460938125 0.9375
vt 0.460938125 0.8125
vt 0.414061875 0.8125
vt 0.375 0.4375
vt 0.375 0.375
vt 0.25 0.375
vt 0.25 0.4375
vt 0.59375 0.75
vt 0.5625 0.75
vt 0.5625 0.3125
vt 0.59375 0.3125
vt 0.5625 0.75
vt 0.59375 0.75
vt 0.59375 0.3125
vt 0.5625 0.3125
vt 0.59375 0.75
vt 0.5625 0.75
vt 0.5625 0.3125
vt 0.59375 0.3125
vt 0.5625 0.75
vt 0.59375 0.75
vt 0.59375 0.3125
vt 0.5625 0.3125
vt 0.59375 0.75
vt 0.5625 0.75
vt 0.5625 0.3125
vt 0.59375 0.3125
vt 0.460938125 0.8125
vt 0.414061875 0.8125
vt 0.414061875 0.9375
vt 0.460938125 0.9375
vt 0.375 0.4375
vt 0.375 0.375
vt 0.25 0.375
vt 0.25 0.4375
vt 0.414061875 0.9375
vt 0.460938125 0.9375
vt 0.460938125 0.8125
vt 0.414061875 0.8125
vt 0.25 0.375
vt 0.25 0.4375
vt 0.375 0.4375
vt 0.375 0.375
vt 0.414061875 0.90625
vt 0.460938125 0.90625
vt 0.460938125 0.84375
vt 0.414061875 0.84375
vt 0.414061875 0.90625
vt 0.460938125 0.90625
vt 0.460938125 0.84375
vt 0.414061875 0.84375
vt 0.640625 0.25
vt 0.59375 0.25
vt 0.59375 0.75
vt 0.640625 0.75
vt 0.640625 0.25
vt 0.59375 0.25
vt 0.59375 0.75
vt 0.640625 0.75
vt 0.59375 0.25
vt 0.640625 0.25
vt 0.640625 0.75
vt 0.59375 0.75
vt 0.640625 0.25
vt 0.59375 0.25
vt 0.59375 0.75
vt 0.640625 0.75
vt 0.640625 0.25
vt 0.59375 0.25
vt 0.59375 0.75
vt 0.640625 0.75
vt 0.640625 0.25
vt 0.59375 0.25
vt 0.59375 0.75
vt 0.640625 0.75
vt 0.59375 0.25
vt 0.640625 0.25
vt 0.640625 0.75
vt 0.59375 0.75
vt 0.640625 0.25
vt 0.59375 0.25
vt 0.59375 0.75
vt 0.640625 0.75
vt 0.640625 0.25
vt 0.59375 0.25
vt 0.59375 0.75
vt 0.640625 0.75
vt 0.640625 0.25
vt 0.59375 0.25
vt 0.59375 0.75
vt 0.640625 0.75
vt 0.59375 0.25
vt 0.640625 0.25
vt 0.640625 0.75
vt 0.59375 0.75
vt 0.640625 0.25
vt 0.59375 0.25
vt 0.59375 0.75
vt 0.640625 0.75
vt 0.640625 0.25
vt 0.59375 0.25
vt 0.59375 0.75
vt 0.640625 0.75
vt 0.640625 0.25
vt 0.59375 0.25
vt 0.59375 0.75
vt 0.640625 0.75
vt 0.59375 0.25
vt 0.640625 0.25
vt 0.640625 0.75
vt 0.59375 0.75
vt 0.640625 0.25
vt 0.59375 0.25
vt 0.59375 0.75
vt 0.640625 0.75
vt 0.640625 0.25
vt 0.59375 0.25
vt 0.59375 0.75
vt 0.640625 0.75
vt 0.640625 0.25
vt 0.59375 0.25
vt 0.59375 0.75
vt 0.640625 0.75
vt 0.59375 0.25
vt 0.640625 0.25
vt 0.640625 0.75
vt 0.59375 0.75
vt 0.640625 0.25
vt 0.59375 0.25
vt 0.59375 0.75
vt 0.640625 0.75
vt 0.640625 0.25
vt 0.59375 0.25
vt 0.59375 0.75
vt 0.640625 0.75
vt 0.640625 0.25
vt 0.59375 0.25
vt 0.59375 0.75
vt 0.640625 0.75
vt 0.59375 0.25
vt 0.640625 0.25
vt 0.640625 0.75
vt 0.59375 0.75
vt 0.640625 0.25
vt 0.59375 0.25
vt 0.59375 0.75
vt 0.640625 0.75
vt 0.640625 0.25
vt 0.59375 0.25
vt 0.59375 0.75
vt 0.640625 0.75
vt 0.640625 0.25
vt 0.59375 0.25
vt 0.59375 0.75
vt 0.640625 0.75
vt 0.59375 0.25
vt 0.640625 0.25
vt 0.640625 0.75
vt 0.59375 0.75
vt 0.640625 0.25
vt 0.59375 0.25
vt 0.59375 0.75
vt 0.640625 0.75
vt 0.5625 0.75
vt 0.59375 0.75
vt 0.59375 0.3125
vt 0.5625 0.3125
vt 0.59375 0.75
vt 0.5625 0.75
vt 0.5625 0.3125
vt 0.59375 0.3125
vt 0.5625 0.75
vt 0.59375 0.75
vt 0.59375 0.3125
vt 0.5625 0.3125
vt 0.59375 0.75
vt 0.5625 0.75
vt 0.5625 0.3125
vt 0.59375 0.3125
vt 0.5625 0.75
vt 0.59375 0.75
vt 0.59375 0.3125
vt 0.5625 0.3125
vt 0.59375 0.75
vt 0.5625 0.75
vt 0.5625 0.3125
vt 0.59375 0.3125
vt 0.5625 0.75
vt 0.59375 0.75
vt 0.59375 0.3125
vt 0.5625 0.3125
vt 0.59375 0.75
vt 0.5625 0.75
vt 0.5625 0.3125
vt 0.59375 0.3125
vt 0.5625 0.75
vt 0.59375 0.75
vt 0.59375 0.3125
vt 0.5625 0.3125
vt 0.59375 0.75
vt 0.5625 0.75
vt 0.5625 0.3125
vt 0.59375 0.3125
vt 0.5625 0.75
vt 0.59375 0.75
vt 0.59375 0.3125
vt 0.5625 0.3125
vt 0.59375 0.75
vt 0.5625 0.75
vt 0.5625 0.3125
vt 0.59375 0.3125
vt 0.5625 0.75
vt 0.59375 0.75
vt 0.59375 0.3125
vt 0.5625 0.3125
vt 0.59375 0.75
vt 0.5625 0.75
vt 0.5625 0.3125
vt 0.59375 0.3125
vt 0.5625 0.75
vt 0.59375 0.75
vt 0.59375 0.3125
vt 0.5625 0.3125
vt 0.59375 0.75
vt 0.5625 0.75
vt 0.5625 0.3125
vt 0.59375 0.3125
vt 0.460938125 0.8125
vt 0.414061875 0.8125
vt 0.414061875 0.9375
vt 0.460938125 0.9375
vt 0.375 0.4375
vt 0.375 0.375
vt 0.25 0.375
vt 0.25 0.4375
vt 0.414061875 0.9375
vt 0.460938125 0.9375
vt 0.460938125 0.8125
vt 0.414061875 0.8125
vt 0.25 0.375
vt 0.25 0.4375
vt 0.375 0.4375
vt 0.375 0.375
vt 0.414061875 0.90625
vt 0.460938125 0.90625
vt 0.460938125 0.84375
vt 0.414061875 0.84375
vt 0.414061875 0.90625
vt 0.460938125 0.90625
vt 0.460938125 0.84375
vt 0.414061875 0.84375
vt 0.5625 0.75
vt 0.59375 0.75
vt 0.59375 0.3125
vt 0.5625 0.3125
vt 0.59375 0.75
vt 0.5625 0.75
vt 0.5625 0.3125
vt 0.59375 0.3125
vt 0.5625 0.75
vt 0.59375 0.75
vt 0.59375 0.3125
vt 0.5625 0.3125
vt 0.59375 0.75
vt 0.5625 0.75
vt 0.5625 0.3125
vt 0.59375 0.3125
vt 0.5625 0.75
vt 0.59375 0.75
vt 0.59375 0.3125
vt 0.5625 0.3125
vt 0.59375 0.75
vt 0.5625 0.75
vt 0.5625 0.3125
vt 0.59375 0.3125
vt 0.5625 0.75
vt 0.59375 0.75
vt 0.59375 0.3125
vt 0.5625 0.3125
vt 0.59375 0.75
vt 0.5625 0.75
vt 0.5625 0.3125
vt 0.59375 0.3125
vt 0.5625 0.75
vt 0.59375 0.75
vt 0.59375 0.3125
vt 0.5625 0.3125
vt 0.59375 0.75
vt 0.5625 0.75
vt 0.5625 0.3125
vt 0.59375 0.3125
vt 0.5625 0.75
vt 0.59375 0.75
vt 0.59375 0.3125
vt 0.5625 0.3125
vt 0.59375 0.75
vt 0.5625 0.75
vt 0.5625 0.3125
vt 0.59375 0.3125
vt 0.25 0.375
vt 0 0.375
vt 0 0.4375
vt 0.25 0.4375
vt 0.25 0.375
vt 0 0.375
vt 0 0.4375
vt 0.25 0.4375
vt 0.25 0.375
vt 0 0.375
vt 0 0.4375
vt 0.25 0.4375
vt 0.25 0.375
vt 0 0.375
vt 0 0.4375
vt 0.25 0.4375
vt 0.960938125 1
vt 0.960938125 0.75
vt 0.710938125 0.75
vt 0.710938125 1
vt 0.5 0.375
vt 0.375 0.375
vt 0.375 0.5
vt 0.5 0.5
vt 0.375 0.4375
vt 0.25 0.4375
vt 0.25 0.5625
vt 0.375 0.5625
vt 0.375 0.4375
vt 0.25 0.4375
vt 0.25 0.5625
vt 0.375 0.5625
vt 0.375 0.4375
vt 0.25 0.4375
vt 0.25 0.5625
vt 0.375 0.5625
vt 0.25 0.5625
vt 0.375 0.5625
vt 0.375 0.4375
vt 0.25 0.4375
vt 0.5 0.25
vt 0.5625 0.25
vt 0.5625 0.75
vt 0.5 0.75
vt 0.5625 0.25
vt 0.5 0.25
vt 0.5 0.75
vt 0.5625 0.75
vt 0.5 0.75
vt 0.5625 0.75
vt 0.5625 0.25
vt 0.5 0.25
vt 0.5625 0.75
vt 0.5 0.75
vt 0.5 0.25
vt 0.5625 0.25
vt 0.375 0.4375
vt 0.25 0.4375
vt 0.25 0.5625
vt 0.375 0.5625
vt 0.375 0.4375
vt 0.25 0.4375
vt 0.25 0.5625
vt 0.375 0.5625
vt 0.5 0.25
vt 0.375 0.25
vt 0.375 0.375
vt 0.5 0.375
vt 0.375 0.4375
vt 0.25 0.4375
vt 0.25 0.5625
vt 0.375 0.5625
vt 0.25 0.5625
vt 0.375 0.5625
vt 0.375 0.4375
vt 0.25 0.4375
vt 0.5 0.25
vt 0.5625 0.25
vt 0.5625 0.75
vt 0.5 0.75
vt 0.5625 0.25
vt 0.5 0.25
vt 0.5 0.75
vt 0.5625 0.75
vt 0.5 0.75
vt 0.5625 0.75
vt 0.5625 0.25
vt 0.5 0.25
vt 0.5625 0.75
vt 0.5 0.75
vt 0.5 0.25
vt 0.5625 0.25
vt 0.5 0.3125
vt 0.5625 0.3125
vt 0.5625 0.25
vt 0.5 0.25
vt 0.5625 0.3125
vt 0.5 0.3125
vt 0.5 0.25
vt 0.5625 0.25
vt 0.5 0.3125
vt 0.5625 0.3125
vt 0.5625 0.25
vt 0.5 0.25
vt 0.5 0.3125
vt 0.5625 0.3125
vt 0.5625 0.25
vt 0.5 0.25
vt 0.5 0.25
vt 0.5625 0.25
vt 0.5625 0.75
vt 0.5 0.75
vt 0.5625 0.25
vt 0.5 0.25
vt 0.5 0.75
vt 0.5625 0.75
vt 0.5 0.75
vt 0.5625 0.75
vt 0.5625 0.25
vt 0.5 0.25
vt 0.5625 0.75
vt 0.5 0.75
vt 0.5 0.25
vt 0.5625 0.25
vt 0.5 0.25
vt 0.5625 0.25
vt 0.5625 0.75
vt 0.5 0.75
vt 0.5625 0.25
vt 0.5 0.25
vt 0.5 0.75
vt 0.5625 0.75
vt 0.5 0.75
vt 0.5625 0.75
vt 0.5625 0.25
vt 0.5 0.25
vt 0.5625 0.75
vt 0.5 0.75
vt 0.5 0.25
vt 0.5625 0.25
vt 0.5 0.3125
vt 0.5625 0.3125
vt 0.5625 0.25
vt 0.5 0.25
vt 0.5625 0.3125
vt 0.5 0.3125
vt 0.5 0.25
vt 0.5625 0.25
vt 0.5 0.3125
vt 0.5625 0.3125
vt 0.5625 0.25
vt 0.5 0.25
vt 0.5 0.3125
vt 0.5625 0.3125
vt 0.5625 0.25
vt 0.5 0.25
vt 0 0.125
vt 0.375 0.125
vt 0.375 0
vt 0 0
vt 0.375 0
vt 0 0
vt 0 0.125
vt 0.375 0.125
vt 0.375 0
vt 0 0
vt 0 0.125
vt 0.375 0.125
vt 0 0.125
vt 0.375 0.125
vt 0.375 0
vt 0 0
vt 0 0
vt 0 0.375
vt 0.375 0.375
vt 0.375 0
vt 0 0
vt 0 0.375
vt 0.375 0.375
vt 0.375 0
vt 0.710938125 0.75
vt 0.53125 0.75
vt 0.53125 0.8125
vt 0.710938125 0.8125
vt 0 0
vt 0 0
vt 0 0
vt 0.53125 0.8125
vt 0.710938125 0.8125
vt 0.710938125 0.75
vt 0.53125 0.75
vt 0.710938125 0.75
vt 0.53125 0.75
vt 0.53125 0.8125
vt 0.710938125 0.8125
vt 0.53125 1
vt 0.710938125 1
vt 0.710938125 0.9375
vt 0.53125 0.9375
vt 0 0
vt 0 0
vt 0 0
vt 0.710938125 0.9375
vt 0.53125 0.9375
vt 0.53125 1
vt 0.710938125 1
vt 0.53125 1
vt 0.710938125 1
vt 0.710938125 0.9375
vt 0.53125 0.9375
vt 0.710938125 0.8125
vt 0.53125 0.8125
vt 0.53125 0.875
vt 0.710938125 0.875
vt 0.53125 0.875
vt 0.710938125 0.875
vt 0.710938125 0.8125
vt 0.53125 0.8125
vt 0.3125 0.4375
vt 0.25 0.4375
vt 0.25 0.5625
vt 0.3125 0.5625
vt 0.375 0.4375
vt 0.25 0.4375
vt 0.25 0.5625
vt 0.375 0.5625
vt 0.375 0.4375
vt 0.3125 0.4375
vt 0.3125 0.5625
vt 0.375 0.5625
vt 0.5 0.125
vt 0.375 0.125
vt 0.375 0.25
vt 0.5 0.25
vt 0.375 0.5625
vt 0.375 0.5
vt 0.25 0.5
vt 0.25 0.5625
vt 0.640625 0.25
vt 0.59375 0.25
vt 0.59375 0.75
vt 0.640625 0.75
vt 0.640625 0.25
vt 0.59375 0.25
vt 0.59375 0.75
vt 0.640625 0.75
vt 0.59375 0.25
vt 0.640625 0.25
vt 0.640625 0.75
vt 0.59375 0.75
vt 0.640625 0.25
vt 0.59375 0.25
vt 0.59375 0.75
vt 0.640625 0.75
vt 0.59375 0.75
vt 0.5625 0.75
vt 0.5625 0.3125
vt 0.59375 0.3125
vt 0.59375 0.75
vt 0.5625 0.75
vt 0.5625 0.3125
vt 0.59375 0.3125
vt 0.5625 0.75
vt 0.59375 0.75
vt 0.59375 0.3125
vt 0.5625 0.3125
vt 0.5625 0.75
vt 0.59375 0.75
vt 0.59375 0.3125
vt 0.5625 0.3125
vt 0.414061875 0.90625
vt 0.460938125 0.90625
vt 0.460938125 0.84375
vt 0.414061875 0.84375
vt 0.414061875 0.90625
vt 0.460938125 0.90625
vt 0.460938125 0.84375
vt 0.414061875 0.84375
vt 0.5625 0.75
vt 0.59375 0.75
vt 0.59375 0.3125
vt 0.5625 0.3125
vt 0.25 0.375
vt 0.25 0.4375
vt 0.375 0.4375
vt 0.375 0.375
vt 0.414061875 0.9375
vt 0.460938125 0.9375
vt 0.460938125 0.8125
vt 0.414061875 0.8125
vt 0.59375 0.75
vt 0.5625 0.75
vt 0.5625 0.3125
vt 0.59375 0.3125
vt 0.5625 0.75
vt 0.59375 0.75
vt 0.59375 0.3125
vt 0.5625 0.3125
vt 0.375 0.4375
vt 0.375 0.375
vt 0.25 0.375
vt 0.25 0.4375
vt 0.460938125 0.8125
vt 0.414061875 0.8125
vt 0.414061875 0.9375
vt 0.460938125 0.9375
vt 0.5625 0.75
vt 0.59375 0.75
vt 0.59375 0.3125
vt 0.5625 0.3125
vt 0.59375 0.75
vt 0.5625 0.75
vt 0.5625 0.3125
vt 0.59375 0.3125
vt 0.59375 0.75
vt 0.5625 0.75
vt 0.5625 0.3125
vt 0.59375 0.3125
vt 0.5625 0.75
vt 0.59375 0.75
vt 0.59375 0.3125
vt 0.5625 0.3125
vt 0.5625 0.75
vt 0.59375 0.75
vt 0.59375 0.3125
vt 0.5625 0.3125
vt 0.59375 0.75
vt 0.5625 0.75
vt 0.5625 0.3125
vt 0.59375 0.3125
vt 0.5625 0.75
vt 0.59375 0.75
vt 0.59375 0.3125
vt 0.5625 0.3125
vt 0.5625 0.75
vt 0.59375 0.75
vt 0.59375 0.3125
vt 0.5625 0.3125
vt 0.460938125 0.8125
vt 0.414061875 0.8125
vt 0.414061875 0.9375
vt 0.460938125 0.9375
vt 0.5625 0.75
vt 0.59375 0.75
vt 0.59375 0.3125
vt 0.5625 0.3125
vt 0.59375 0.75
vt 0.5625 0.75
vt 0.5625 0.3125
vt 0.59375 0.3125
vt 0.59375 0.75
vt 0.5625 0.75
vt 0.5625 0.3125
vt 0.59375 0.3125
vt 0.5625 0.75
vt 0.59375 0.75
vt 0.59375 0.3125
vt 0.5625 0.3125
vt 0.59375 0.75
vt 0.5625 0.75
vt 0.5625 0.3125
vt 0.59375 0.3125
vt 0.5625 0.75
vt 0.59375 0.75
vt 0.59375 0.3125
vt 0.5625 0.3125
vt 0.59375 0.75
vt 0.5625 0.75
vt 0.5625 0.3125
vt 0.59375 0.3125
vt 0.5625 0.75
vt 0.59375 0.75
vt 0.59375 0.3125
vt 0.5625 0.3125
vt 0.5625 0.75
vt 0.59375 0.75
vt 0.59375 0.3125
vt 0.5625 0.3125
vt 0.59375 0.75
vt 0.5625 0.75
vt 0.5625 0.3125
vt 0.59375 0.3125
vt 0.414061875 0.90625
vt 0.460938125 0.90625
vt 0.460938125 0.84375
vt 0.414061875 0.84375
vt 0.414061875 0.90625
vt 0.460938125 0.90625
vt 0.460938125 0.84375
vt 0.414061875 0.84375
vt 0.25 0.375
vt 0.25 0.4375
vt 0.375 0.4375
vt 0.375 0.375
vt 0.5625 0.75
vt 0.59375 0.75
vt 0.59375 0.3125
vt 0.5625 0.3125
vt 0.5625 0.75
vt 0.59375 0.75
vt 0.59375 0.3125
vt 0.5625 0.3125
vt 0.414061875 0.9375
vt 0.460938125 0.9375
vt 0.460938125 0.8125
vt 0.414061875 0.8125
vt 0.375 0.4375
vt 0.375 0.375
vt 0.25 0.375
vt 0.25 0.4375
vt 0.59375 0.75
vt 0.5625 0.75
vt 0.5625 0.3125
vt 0.59375 0.3125
vt 0.5625 0.75
vt 0.59375 0.75
vt 0.59375 0.3125
vt 0.5625 0.3125
vt 0.59375 0.75
vt 0.5625 0.75
vt 0.5625 0.3125
vt 0.59375 0.3125
vt 0.5625 0.75
vt 0.59375 0.75
vt 0.59375 0.3125
vt 0.5625 0.3125
vt 0.59375 0.75
vt 0.5625 0.75
vt 0.5625 0.3125
vt 0.59375 0.3125
vt 0.460938125 0.8125
vt 0.414061875 0.8125
vt 0.414061875 0.9375
vt 0.460938125 0.9375
vt 0.375 0.4375
vt 0.375 0.375
vt 0.25 0.375
vt 0.25 0.4375
vt 0.414061875 0.9375
vt 0.460938125 0.9375
vt 0.460938125 0.8125
vt 0.414061875 0.8125
vt 0.25 0.375
vt 0.25 0.4375
vt 0.375 0.4375
vt 0.375 0.375
vt 0.414061875 0.90625
vt 0.460938125 0.90625
vt 0.460938125 0.84375
vt 0.414061875 0.84375
vt 0.414061875 0.90625
vt 0.460938125 0.90625
vt 0.460938125 0.84375
vt 0.414061875 0.84375
vt 0.640625 0.25
vt 0.59375 0.25
vt 0.59375 0.75
vt 0.640625 0.75
vt 0.640625 0.25
vt 0.59375 0.25
vt 0.59375 0.75
vt 0.640625 0.75
vt 0.59375 0.25
vt 0.640625 0.25
vt 0.640625 0.75
vt 0.59375 0.75
vt 0.640625 0.25
vt 0.59375 0.25
vt 0.59375 0.75
vt 0.640625 0.75
vt 0.640625 0.25
vt 0.59375 0.25
vt 0.59375 0.75
vt 0.640625 0.75
vt 0.640625 0.25
vt 0.59375 0.25
vt 0.59375 0.75
vt 0.640625 0.75
vt 0.59375 0.25
vt 0.640625 0.25
vt 0.640625 0.75
vt 0.59375 0.75
vt 0.640625 0.25
vt 0.59375 0.25
vt 0.59375 0.75
vt 0.640625 0.75
vt 0.640625 0.25
vt 0.59375 0.25
vt 0.59375 0.75
vt 0.640625 0.75
vt 0.640625 0.25
vt 0.59375 0.25
vt 0.59375 0.75
vt 0.640625 0.75
vt 0.59375 0.25
vt 0.640625 0.25
vt 0.640625 0.75
vt 0.59375 0.75
vt 0.640625 0.25
vt 0.59375 0.25
vt 0.59375 0.75
vt 0.640625 0.75
vt 0.640625 0.25
vt 0.59375 0.25
vt 0.59375 0.75
vt 0.640625 0.75
vt 0.640625 0.25
vt 0.59375 0.25
vt 0.59375 0.75
vt 0.640625 0.75
vt 0.59375 0.25
vt 0.640625 0.25
vt 0.640625 0.75
vt 0.59375 0.75
vt 0.640625 0.25
vt 0.59375 0.25
vt 0.59375 0.75
vt 0.640625 0.75
vt 0.640625 0.25
vt 0.59375 0.25
vt 0.59375 0.75
vt 0.640625 0.75
vt 0.640625 0.25
vt 0.59375 0.25
vt 0.59375 0.75
vt 0.640625 0.75
vt 0.59375 0.25
vt 0.640625 0.25
vt 0.640625 0.75
vt 0.59375 0.75
vt 0.640625 0.25
vt 0.59375 0.25
vt 0.59375 0.75
vt 0.640625 0.75
vt 0.640625 0.25
vt 0.59375 0.25
vt 0.59375 0.75
vt 0.640625 0.75
vt 0.640625 0.25
vt 0.59375 0.25
vt 0.59375 0.75
vt 0.640625 0.75
vt 0.59375 0.25
vt 0.640625 0.25
vt 0.640625 0.75
vt 0.59375 0.75
vt 0.640625 0.25
vt 0.59375 0.25
vt 0.59375 0.75
vt 0.640625 0.75
vt 0.640625 0.25
vt 0.59375 0.25
vt 0.59375 0.75
vt 0.640625 0.75
vt 0.640625 0.25
vt 0.59375 0.25
vt 0.59375 0.75
vt 0.640625 0.75
vt 0.59375 0.25
vt 0.640625 0.25
vt 0.640625 0.75
vt 0.59375 0.75
vt 0.640625 0.25
vt 0.59375 0.25
vt 0.59375 0.75
vt 0.640625 0.75
vt 0.5625 0.75
vt 0.59375 0.75
vt 0.59375 0.3125
vt 0.5625 0.3125
vt 0.59375 0.75
vt 0.5625 0.75
vt 0.5625 0.3125
vt 0.59375 0.3125
vt 0.5625 0.75
vt 0.59375 0.75
vt 0.59375 0.3125
vt 0.5625 0.3125
vt 0.59375 0.75
vt 0.5625 0.75
vt 0.5625 0.3125
vt 0.59375 0.3125
vt 0.5625 0.75
vt 0.59375 0.75
vt 0.59375 0.3125
vt 0.5625 0.3125
vt 0.59375 0.75
vt 0.5625 0.75
vt 0.5625 0.3125
vt 0.59375 0.3125
vt 0.5625 0.75
vt 0.59375 0.75
vt 0.59375 0.3125
vt 0.5625 0.3125
vt 0.5625 0.75
vt 0.59375 0.75
vt 0.59375 0.3125
vt 0.5625 0.3125
vt 0.59375 0.75
vt 0.5625 0.75
vt 0.5625 0.3125
vt 0.59375 0.3125
vt 0.5625 0.75
vt 0.59375 0.75
vt 0.59375 0.3125
vt 0.5625 0.3125
vt 0.5625 0.75
vt 0.59375 0.75
vt 0.59375 0.3125
vt 0.5625 0.3125
vt 0.59375 0.75
vt 0.5625 0.75
vt 0.5625 0.3125
vt 0.59375 0.3125
vt 0.5625 0.75
vt 0.59375 0.75
vt 0.59375 0.3125
vt 0.5625 0.3125
vt 0.59375 0.75
vt 0.5625 0.75
vt 0.5625 0.3125
vt 0.59375 0.3125
vt 0.460938125 0.8125
vt 0.414061875 0.8125
vt 0.414061875 0.9375
vt 0.460938125 0.9375
vt 0.375 0.4375
vt 0.375 0.375
vt 0.25 0.375
vt 0.25 0.4375
vt 0.414061875 0.9375
vt 0.460938125 0.9375
vt 0.460938125 0.8125
vt 0.414061875 0.8125
vt 0.25 0.375
vt 0.25 0.4375
vt 0.375 0.4375
vt 0.375 0.375
vt 0.414061875 0.90625
vt 0.460938125 0.90625
vt 0.460938125 0.84375
vt 0.414061875 0.84375
vt 0.414061875 0.90625
vt 0.460938125 0.90625
vt 0.460938125 0.84375
vt 0.414061875 0.84375
vt 0.5625 0.75
vt 0.59375 0.75
vt 0.59375 0.3125
vt 0.5625 0.3125
vt 0.59375 0.75
vt 0.5625 0.75
vt 0.5625 0.3125
vt 0.59375 0.3125
vt 0.5625 0.75
vt 0.59375 0.75
vt 0.59375 0.3125
vt 0.5625 0.3125
vt 0.59375 0.75
vt 0.5625 0.75
vt 0.5625 0.3125
vt 0.59375 0.3125
vt 0.5625 0.75
vt 0.59375 0.75
vt 0.59375 0.3125
vt 0.5625 0.3125
vt 0.5625 0.75
vt 0.59375 0.75
vt 0.59375 0.3125
vt 0.5625 0.3125
vt 0.59375 0.75
vt 0.5625 0.75
vt 0.5625 0.3125
vt 0.59375 0.3125
vt 0.5625 0.75
vt 0.59375 0.75
vt 0.59375 0.3125
vt 0.5625 0.3125
vt 0.5625 0.75
vt 0.59375 0.75
vt 0.59375 0.3125
vt 0.5625 0.3125
vt 0.59375 0.75
vt 0.5625 0.75
vt 0.5625 0.3125
vt 0.59375 0.3125
vt 0.5 0.25
vt 0.5625 0.25
vt 0.5625 0.75
vt 0.5 0.75
vt 0.5625 0.25
vt 0.5 0.25
vt 0.5 0.75
vt 0.5625 0.75
vt 0.5 0.75
vt 0.5625 0.75
vt 0.5625 0.25
vt 0.5 0.25
vt 0.5625 0.75
vt 0.5 0.75
vt 0.5 0.25
vt 0.5625 0.25
vt 0.5 0.25
vt 0.5625 0.25
vt 0.5625 0.75
vt 0.5 0.75
vt 0.5625 0.25
vt 0.5 0.25
vt 0.5 0.75
vt 0.5625 0.75
vt 0.5 0.75
vt 0.5625 0.75
vt 0.5625 0.25
vt 0.5 0.25
vt 0.5625 0.75
vt 0.5 0.75
vt 0.5 0.25
vt 0.5625 0.25
vt 0.5 0.25
vt 0.5625 0.25
vt 0.5625 0.75
vt 0.5 0.75
vt 0.5625 0.25
vt 0.5 0.25
vt 0.5 0.75
vt 0.5625 0.75
vt 0.5 0.75
vt 0.5625 0.75
vt 0.5625 0.25
vt 0.5 0.25
vt 0.5625 0.75
vt 0.5 0.75
vt 0.5 0.25
vt 0.5625 0.25
vt 0.5 0.25
vt 0.5625 0.25
vt 0.5625 0.75
vt 0.5 0.75
vt 0.5625 0.25
vt 0.5 0.25
vt 0.5 0.75
vt 0.5625 0.75
vt 0.5 0.75
vt 0.5625 0.75
vt 0.5625 0.25
vt 0.5 0.25
vt 0.5625 0.75
vt 0.5 0.75
vt 0.5 0.25
vt 0.5625 0.25
vt 0.59375 0.75
vt 0.5625 0.75
vt 0.5625 0.3125
vt 0.59375 0.3125
vt 0.59375 0.75
vt 0.5625 0.75
vt 0.5625 0.3125
vt 0.59375 0.3125
vt 0.59375 0.75
vt 0.5625 0.75
vt 0.5625 0.3125
vt 0.59375 0.3125
vt 0.59375 0.75
vt 0.5625 0.75
vt 0.5625 0.3125
vt 0.59375 0.3125
vt 0.59375 0.75
vt 0.5625 0.75
vt 0.5625 0.3125
vt 0.59375 0.3125
vt 0.59375 0.75
vt 0.5625 0.75
vt 0.5625 0.3125
vt 0.59375 0.3125
vt 0.59375 0.75
vt 0.5625 0.75
vt 0.5625 0.3125
vt 0.59375 0.3125
vt 0.59375 0.75
vt 0.5625 0.75
vt 0.5625 0.3125
vt 0.59375 0.3125
vt 0 0.625
vt 0.375 0.625
vt 0.375 0.5625
vt 0 0.5625
vt 0 0.625
vt 0.375 0.625
vt 0.375 0.5625
vt 0 0.5625
vt 0.125 0.476561875
vt 0.25 0.476561875
vt 0.25 0.5625
vt 0.125 0.5625
vt 0.125 0.476561875
vt 0.25 0.476561875
vt 0.25 0.5625
vt 0.125 0.5625
vt 0.5 0.8125
vt 0.5 0.75
vt 0.4375 0.75
vt 0.492188125 0.8125
vt 0.382811875 0.8125
vt 0.4375 0.75
vt 0.375 0.75
vt 0.375 0.8125
vt 0 0.625
vt 0.375 0.625
vt 0.375 0.5625
vt 0 0.5625
vt 0.125 0.476561875
vt 0.25 0.476561875
vt 0.25 0.5625
vt 0.125 0.5625
vt 0.125 0.476561875
vt 0.25 0.476561875
vt 0.25 0.5625
vt 0.125 0.5625
vt 0.5 0.8125
vt 0.5 0.75
vt 0.4375 0.75
vt 0.492188125 0.8125
vt 0.382811875 0.8125
vt 0.4375 0.75
vt 0.375 0.75
vt 0.375 0.8125
vt 0.125 0.476561875
vt 0.25 0.476561875
vt 0.25 0.5625
vt 0.125 0.5625
vt 0.125 0.476561875
vt 0.25 0.476561875
vt 0.25 0.5625
vt 0.125 0.5625
vt 0.5 0.8125
vt 0.5 0.75
vt 0.4375 0.75
vt 0.492188125 0.8125
vt 0.382811875 0.8125
vt 0.4375 0.75
vt 0.375 0.75
vt 0.375 0.8125
vt 0.125 0.476561875
vt 0.25 0.476561875
vt 0.25 0.5625
vt 0.125 0.5625
vt 0.125 0.476561875
vt 0.25 0.476561875
vt 0.25 0.5625
vt 0.125 0.5625
vt 0.5 0.8125
vt 0.5 0.75
vt 0.4375 0.75
vt 0.492188125 0.8125
vt 0.382811875 0.8125
vt 0.4375 0.75
vt 0.375 0.75
vt 0.375 0.8125
vt 0 0.625
vt 0.375 0.625
vt 0.375 1
vt 0 1
vt 0 0.625
vt 0.375 0.625
vt 0.375 0.5625
vt 0 0.5625
vt 0.53125 0.8125
vt 0.53125 0.75
vt 0.5 0.75
vt 0.5 0.8125
vt 0.53125 0.8125
vt 0.53125 0.75
vt 0.5 0.75
vt 0.5 0.8125
vt 0.53125 0.8125
vt 0.53125 0.75
vt 0.5 0.75
vt 0.5 0.8125
vt 0.375 0.5625
vt 0.375 0.5
vt 0.5 0.5
vt 0.5 0.5625
vt 0.53125 0.8125
vt 0.53125 0.75
vt 0.5 0.75
vt 0.5 0.8125
vt 0.375 0.5
vt 0.375 0.5625
vt 0.5 0.5625
vt 0.5 0.5
vt 0.375 0.5625
vt 0.375 0.5
vt 0.5 0.5
vt 0.5 0.5625
vt 0.53125 0.8125
vt 0.53125 0.75
vt 0.5 0.75
vt 0.5 0.8125
vt 0.53125 0.8125
vt 0.53125 0.75
vt 0.5 0.75
vt 0.5 0.8125
vt 0.53125 0.8125
vt 0.710938125 0.8125
vt 0.710938125 0.75
vt 0.53125 0.75
vt 0.53125 0.8125
vt 0.53125 0.75
vt 0.5 0.75
vt 0.5 0.8125
vt 0.53125 0.8125
vt 0.53125 0.75
vt 0.5 0.75
vt 0.5 0.8125
vt 0.53125 0.8125
vt 0.53125 0.75
vt 0.5 0.75
vt 0.5 0.8125
vt 0.53125 0.8125
vt 0.53125 0.75
vt 0.5 0.75
vt 0.5 0.8125
vt 0.53125 0.8125
vt 0.53125 0.75
vt 0.5 0.75
vt 0.5 0.8125
vt 0.53125 0.8125
vt 0.53125 0.75
vt 0.5 0.75
vt 0.5 0.8125
vt 0.53125 0.75
vt 0.53125 0.8125
vt 0.5 0.8125
vt 0.5 0.75
vt 0.53125 0.8125
vt 0.5 0.8125
vt 0.5 0.75
vt 0.53125 0.75
vt 0.53125 0.8125
vt 0.53125 0.75
vt 0.5 0.75
vt 0.5 0.8125
vt 0.375 0.5625
vt 0.375 0.5
vt 0.5 0.5
vt 0.5 0.5625
vt 0 1
vt 0 0.625
vt 0.375 0.625
vt 0.375 1
vt 0.375 0.5625
vt 0 0.5625
vt 0 0.625
vt 0.375 0.625
vt 0.375 0.5625
vt 0 0.5625
vt 0 0.625
vt 0.375 0.625
vt 0.125 0.476561875
vt 0.25 0.476561875
vt 0.25 0.5625
vt 0.125 0.5625
vt 0.125 0.476561875
vt 0.25 0.476561875
vt 0.25 0.5625
vt 0.125 0.5625
vt 0.375 0.9375
vt 0.375 1
vt 0.4375 1
vt 0.382811875 0.9375
vt 0.492188125 0.9375
vt 0.4375 1
vt 0.5 1
vt 0.5 0.9375
vt 0.375 0.5625
vt 0 0.5625
vt 0 0.625
vt 0.375 0.625
vt 0.125 0.476561875
vt 0.25 0.476561875
vt 0.25 0.5625
vt 0.125 0.5625
vt 0.125 0.476561875
vt 0.25 0.476561875
vt 0.25 0.5625
vt 0.125 0.5625
vt 0.375 0.9375
vt 0.375 1
vt 0.4375 1
vt 0.382811875 0.9375
vt 0.492188125 0.9375
vt 0.4375 1
vt 0.5 1
vt 0.5 0.9375
vt 0.125 0.476561875
vt 0.25 0.476561875
vt 0.25 0.5625
vt 0.125 0.5625
vt 0.125 0.476561875
vt 0.25 0.476561875
vt 0.25 0.5625
vt 0.125 0.5625
vt 0.375 0.9375
vt 0.375 1
vt 0.4375 1
vt 0.382811875 0.9375
vt 0.492188125 0.9375
vt 0.4375 1
vt 0.5 1
vt 0.5 0.9375
vt 0.125 0.476561875
vt 0.25 0.476561875
vt 0.25 0.5625
vt 0.125 0.5625
vt 0.125 0.476561875
vt 0.25 0.476561875
vt 0.25 0.5625
vt 0.125 0.5625
vt 0.375 0.9375
vt 0.375 1
vt 0.4375 1
vt 0.382811875 0.9375
vt 0.492188125 0.9375
vt 0.4375 1
vt 0.5 1
vt 0.5 0.9375
vt 0 0.625
vt 0.375 0.625
vt 0.375 1
vt 0 1
vt 0.375 0.5625
vt 0 0.5625
vt 0 0.625
vt 0.375 0.625
vt 0.53125 0.9375
vt 0.53125 1
vt 0.5 1
vt 0.5 0.9375
vt 0.53125 0.9375
vt 0.53125 1
vt 0.5 1
vt 0.5 0.9375
vt 0.53125 0.9375
vt 0.53125 1
vt 0.5 1
vt 0.5 0.9375
vt 0.5 0.9375
vt 0.5 1
vt 0.53125 1
vt 0.53125 0.9375
vt 0.5 0.6875
vt 0.5 0.75
vt 0.375 0.75
vt 0.375 0.6875
vt 0.53125 0.9375
vt 0.53125 1
vt 0.5 1
vt 0.5 0.9375
vt 0.5 0.75
vt 0.5 0.6875
vt 0.375 0.6875
vt 0.375 0.75
vt 0.5 0.6875
vt 0.5 0.75
vt 0.375 0.75
vt 0.375 0.6875
vt 0.53125 0.9375
vt 0.53125 1
vt 0.5 1
vt 0.5 0.9375
vt 0.53125 0.9375
vt 0.53125 1
vt 0.5 1
vt 0.5 0.9375
vt 0.53125 0.9375
vt 0.710938125 0.9375
vt 0.710938125 0.875
vt 0.53125 0.875
vt 0.53125 0.9375
vt 0.53125 1
vt 0.5 1
vt 0.5 0.9375
vt 0.53125 0.9375
vt 0.53125 1
vt 0.5 1
vt 0.5 0.9375
vt 0.53125 0.9375
vt 0.53125 1
vt 0.5 1
vt 0.5 0.9375
vt 0.53125 0.9375
vt 0.53125 1
vt 0.5 1
vt 0.5 0.9375
vt 0.53125 0.9375
vt 0.53125 1
vt 0.5 1
vt 0.5 0.9375
vt 0.53125 0.9375
vt 0.53125 1
vt 0.5 1
vt 0.5 0.9375
vt 0.5 0.9375
vt 0.5 1
vt 0.53125 1
vt 0.53125 0.9375
vt 0.53125 0.9375
vt 0.5 0.9375
vt 0.5 1
vt 0.53125 1
vt 0.53125 0.9375
vt 0.53125 1
vt 0.5 1
vt 0.5 0.9375
vt 0.5 0.6875
vt 0.5 0.75
vt 0.375 0.75
vt 0.375 0.6875
vt 0 1
vt 0 0.625
vt 0.375 0.625
vt 0.375 1
vt 0.375 0.5625
vt 0.382811875 0.5625
vt 0.382811875 0.6875
vt 0.375 0.6875
vt 0 0.4375
vt 0.125 0.4375
vt 0.125 0.5625
vt 0 0.5625
vt 0.375 0.5625
vt 0.382811875 0.5625
vt 0.382811875 0.6875
vt 0.375 0.6875
vt 0 0.4375
vt 0.125 0.4375
vt 0.125 0.5625
vt 0 0.5625
vt 0.375 0.5625
vt 0.382811875 0.5625
vt 0.382811875 0.6875
vt 0.375 0.6875
vt 0 0.4375
vt 0.125 0.4375
vt 0.125 0.5625
vt 0 0.5625
vt 0 0.4375
vt 0.125 0.4375
vt 0.125 0.5625
vt 0 0.5625
vt 0.375 0.5625
vt 0.382811875 0.5625
vt 0.382811875 0.6875
vt 0.375 0.6875
vt 0 0.4375
vt 0.125 0.4375
vt 0.125 0.5625
vt 0 0.5625
vt 0.375 0.5625
vt 0.382811875 0.5625
vt 0.382811875 0.6875
vt 0.375 0.6875
vt 0.382811875 0.5625
vt 0.382811875 0.6875
vt 0.375 0.6875
vt 0.375 0.5625
vt 0 0.4375
vt 0.125 0.4375
vt 0.125 0.5625
vt 0 0.5625
vt 0.5 0.6875
vt 0.5 0.5625
vt 0.375 0.5625
vt 0.375 0.6875
vt 0 0.4375
vt 0.125 0.4375
vt 0.125 0.5625
vt 0 0.5625
vt 0.375 0.5625
vt 0.382811875 0.5625
vt 0.382811875 0.6875
vt 0.375 0.6875
vt 0 0.4375
vt 0.125 0.4375
vt 0.125 0.5625
vt 0 0.5625
vt 0.375 0.5625
vt 0.382811875 0.5625
vt 0.382811875 0.6875
vt 0.375 0.6875
vt 0 0
vt 1 0
vt 1 1
vt 0 1
vt 0.710938125 0.9375
vt 0.53125 0.9375
vt 0.53125 1
vt 0.710938125 1
vt 0.53125 0.875
vt 0.53125 0.9375
vt 0.710938125 0.9375
vt 0.710938125 0.875
vt 0.710938125 0.875
vt 0.53125 0.875
vt 0.53125 0.9375
vt 0.710938125 0.9375
vt 0.53125 0.875
vt 0.53125 0.9375
vt 0.710938125 0.9375
vt 0.710938125 0.875
vt 0.710938125 0.875
vt 0.710938125 0.8125
vt 0.53125 0.8125
vt 0.53125 0.875
vt 0.710938125 0.875
vt 0.710938125 0.8125
vt 0.53125 0.8125
vt 0.53125 0.875
vt 0.53125 0.8125
vt 0.53125 0.9375
vt 0.5 0.9375
vt 0.5 0.8125
vt 0.53125 0.8125
vt 0.53125 0.9375
vt 0.5 0.9375
vt 0.5 0.8125
vt 0.53125 0.8125
vt 0.53125 0.9375
vt 0.5 0.9375
vt 0.5 0.8125
vt 0.53125 0.8125
vt 0.53125 0.9375
vt 0.5 0.9375
vt 0.5 0.8125
vt 0.53125 0.8125
vt 0.53125 0.9375
vt 0.5 0.9375
vt 0.5 0.8125
vt 0.53125 0.8125
vt 0.53125 0.9375
vt 0.5 0.9375
vt 0.5 0.8125
vt 0.53125 0.8125
vt 0.53125 0.9375
vt 0.5 0.9375
vt 0.5 0.8125
vt 0.5 0.5625
vt 0.5 0.6875
vt 0.375 0.6875
vt 0.375 0.5625
vt 0.53125 0.8125
vt 0.53125 0.9375
vt 0.5 0.9375
vt 0.5 0.8125
vt 0.53125 0.8125
vt 0.53125 0.9375
vt 0.5 0.9375
vt 0.5 0.8125
vt 0.53125 0.8125
vt 0.53125 0.9375
vt 0.5 0.9375
vt 0.5 0.8125
vt 0.53125 0.8125
vt 0.53125 0.9375
vt 0.5 0.9375
vt 0.5 0.8125
vt 0.53125 0.8125
vt 0.53125 0.9375
vt 0.5 0.9375
vt 0.5 0.8125
vt 0.5 0.5625
vt 0.5 0.6875
vt 0.375 0.6875
vt 0.375 0.5625
vt 0.53125 0.8125
vt 0.53125 0.9375
vt 0.5 0.9375
vt 0.5 0.8125
vt 0.53125 0.8125
vt 0.53125 0.9375
vt 0.5 0.9375
vt 0.5 0.8125
vt 0.53125 0.8125
vt 0.53125 0.9375
vt 0.5 0.9375
vt 0.5 0.8125
vt 0.53125 0.8125
vt 0.53125 0.9375
vt 0.5 0.9375
vt 0.5 0.8125
vt 0.5 0.5625
vt 0.5 0.6875
vt 0.375 0.6875
vt 0.375 0.5625
vt 0.53125 0.8125
vt 0.53125 0.75
vt 0.5 0.75
vt 0.5 0.8125
vn 0 0 1
vn 1 0 0
vn 0 0 -1
vn -1 0 0
vn 0 1 0
vn 0 0 1
vn 1 0 0
vn 0 0 -1
vn -1 0 0
vn 0 1 0
vn 0 0 1
vn 1 0 0
vn 0 0 -1
vn -1 0 0
vn 0 1 0
vn 0 0 1
vn 1 0 0
vn 0 0 -1
vn -1 0 0
vn 0 1 0
vn 0 0 1
vn 1 0 0
vn 0 0 -1
vn -1 0 0
vn 1 0 0
vn -1 0 0
vn 0 0.24279064885010795 0.9700787085752082
vn 0 0.24279064885010795 0.9700787085752082
vn -1 0 0
vn 0 1 0
vn 0 -1 0
vn 0 -0.24279064885010795 -0.9700787085752082
vn 1 0 0
vn 0 0 1
vn 1 0 0
vn 0 -0.24279064885010795 0.9700787085752082
vn -1 0 0
vn 0 0 -1
vn -1 0 0
vn 0 0.24279064885010795 -0.9700787085752082
vn 1 0 0
vn 1 0 0
vn 0 0.24279064885010795 -0.9700787085752082
vn 0 -0.24279064885010795 -0.9700787085752082
vn -1 0 0
vn 0 -0.24279064885010795 0.9700787085752082
vn 1 0 0
vn 0 0.24279064885010795 0.9700787085752082
vn 0 0 -1
vn 0 -0.24279064885010795 -0.9700787085752082
vn 1 0 0
vn -1 0 0
vn 0 -0.24279064885010795 -0.9700787085752082
vn -1 0 0
vn 0 0.24279064885010795 -0.9700787085752082
vn 1 0 0
vn -1 0 0
vn 0 0.24279064885010795 0.9700787085752082
vn 0 -0.24279064885010795 0.9700787085752082
vn -1 0 0
vn 0 1 0
vn 0 -1 0
vn 1 0 0
vn 0 0.24279064885010795 -0.9700787085752082
vn 0 -0.24279064885010795 0.9700787085752082
vn 0 0 1
vn -1 0 0
vn 1 0 0
vn 0.9700787085752082 -0.24279064885010795 0
vn 0 0 1
vn -0.9700787085752082 0.24279064885010795 0
vn 0 0 -1
vn -1 0 0
vn 0 0 1
vn 1 0 0
vn 0 0 -1
vn 0 -1 0
vn 0 1 0
vn 0 0 1
vn 1 0 0
vn 0 0 -1
vn -1 0 0
vn 0 0 1
vn 1 0 0
vn 0 0 -1
vn -1 0 0
vn 0 0 1
vn 1 0 0
vn 0 0 -1
vn -1 0 0
vn 0 0 1
vn 1 0 0
vn 0 0 -1
vn -1 0 0
vn 0 0 1
vn 1 0 0
vn 0 0 -1
vn -1 0 0
vn 0 0 1
vn 1 0 0
vn 0 0 -1
vn -1 0 0
vn 0 0 1
vn 1 0 0
vn 0 0 -1
vn -1 0 0
vn 0.9700787085752082 0.24279064885010795 0
vn 0 0 1
vn -0.9700787085752082 -0.24279064885010795 0
vn 0 0 -1
vn -0.9700787085752082 0.24279064885010795 0
vn 0 0 1
vn 0.9700787085752082 -0.24279064885010795 0
vn 0 0 -1
vn -0.9700787085752082 -0.24279064885010795 0
vn 0 0 1
vn 0.9700787085752082 0.24279064885010795 0
vn 0 0 -1
vn 0.9700787085752082 -0.24279064885010795 0
vn 0 0 1
vn -0.9700787085752082 0.24279064885010795 0
vn 0 0 -1
vn -1 0 0
vn 0 0 1
vn 1 0 0
vn 0 0 -1
vn 0 -1 0
vn 0 1 0
vn 0.9700787085752082 0.24279064885010795 0
vn 0 0 1
vn -0.9700787085752082 -0.24279064885010795 0
vn 0 0 -1
vn -0.9700787085752082 0.24279064885010795 0
vn 0 0 1
vn 0.9700787085752082 -0.24279064885010795 0
vn 0 0 -1
vn -0.9700787085752082 -0.24279064885010795 0
vn 0 0 1
vn 0.9700787085752082 0.24279064885010795 0
vn 0 0 -1
vn 0 0 1
vn 1 0 0
vn 0 0 -1
vn -1 0 0
vn 0 1 0
vn 0 0 1
vn 1 0 0
vn 0 0 -1
vn -1 0 0
vn 0 1 0
vn 0 0 1
vn 1 0 0
vn 0 0 -1
vn -1 0 0
vn 0 0 1
vn 1 0 0
vn 0 0 -1
vn -1 0 0
vn 0 1 0
vn 0 0 1
vn 1 0 0
vn 0 0 -1
vn -1 0 0
vn 0 0 1
vn 1 0 0
vn 0 0 -1
vn -1 0 0
vn 0 0 1
vn 1 0 0
vn 0 0 -1
vn -1 0 0
vn 0 0 1
vn 1 0 0
vn 0 0 -1
vn -1 0 0
vn 0 0 1
vn 1 0 0
vn 0 0 -1
vn -1 0 0
vn 0 0 1
vn 1 0 0
vn 0 0 -1
vn -1 0 0
vn 0 -1 0
vn 0 1 0
vn 0.7071067811865476 0 -0.7071067811865476
vn 0 0 0
vn -0.7071067811865476 0 -0.7071067811865476
vn -0.7071067811865476 0 0.7071067811865476
vn 0.7071067811865476 0 0.7071067811865476
vn 0 0 0
vn -0.7071067811865476 0 0.7071067811865476
vn -0.7071067811865476 0 -0.7071067811865476
vn -0.7071067811865476 0 -0.7071067811865476
vn 0.7071067811865476 0 0.7071067811865476
vn 0 0 1
vn 1 0 0
vn 0 0 -1
vn -1 0 0
vn 0 1 0
vn 0 0 1
vn 1 0 0
vn 0 0 -1
vn -1 0 0
vn 1 0 0
vn -1 0 0
vn 0 0.24279064885010795 0.9700787085752082
vn 0 0.24279064885010795 0.9700787085752082
vn 0 1 0
vn 0 -1 0
vn 0 -0.24279064885010795 -0.9700787085752082
vn 1 0 0
vn 0 0 1
vn 1 0 0
vn 0 -0.24279064885010795 0.9700787085752082
vn -1 0 0
vn 0 0 -1
vn 0 0.24279064885010795 -0.9700787085752082
vn 1 0 0
vn 1 0 0
vn 0 0.24279064885010795 -0.9700787085752082
vn 0 -0.24279064885010795 -0.9700787085752082
vn -1 0 0
vn 0 -0.24279064885010795 0.9700787085752082
vn 0 0.24279064885010795 0.9700787085752082
vn 0 0 -1
vn 0 -0.24279064885010795 -0.9700787085752082
vn 1 0 0
vn -1 0 0
vn 0 -0.24279064885010795 -0.9700787085752082
vn -1 0 0
vn 0 0.24279064885010795 -0.9700787085752082
vn -1 0 0
vn 0 0.24279064885010795 0.9700787085752082
vn 0 -0.24279064885010795 0.9700787085752082
vn -1 0 0
vn 0 1 0
vn 0 -1 0
vn 1 0 0
vn 0 0.24279064885010795 -0.9700787085752082
vn 0 -0.24279064885010795 0.9700787085752082
vn 0 0 1
vn -1 0 0
vn 1 0 0
vn 0.9700787085752082 -0.24279064885010795 0
vn 0 0 1
vn -0.9700787085752082 0.24279064885010795 0
vn 0 0 -1
vn -1 0 0
vn 0 0 1
vn 1 0 0
vn 0 0 -1
vn 0 -1 0
vn 0 1 0
vn 0 0 1
vn 1 0 0
vn 0 0 -1
vn -1 0 0
vn 0 0 1
vn 1 0 0
vn 0 0 -1
vn -1 0 0
vn 0 0 1
vn 1 0 0
vn 0 0 -1
vn -1 0 0
vn 0 0 1
vn 1 0 0
vn 0 0 -1
vn -1 0 0
vn 0 0 1
vn 1 0 0
vn 0 0 -1
vn -1 0 0
vn 0 0 1
vn 1 0 0
vn 0 0 -1
vn -1 0 0
vn 0 0 1
vn 1 0 0
vn 0 0 -1
vn -1 0 0
vn 0.9700787085752082 0.24279064885010795 0
vn 0 0 1
vn -0.9700787085752082 -0.24279064885010795 0
vn 0 0 -1
vn -0.9700787085752082 0.24279064885010795 0
vn 0 0 1
vn 0.9700787085752082 -0.24279064885010795 0
vn -0.9700787085752082 -0.24279064885010795 0
vn 0 0 1
vn 0.9700787085752082 0.24279064885010795 0
vn 0.9700787085752082 -0.24279064885010795 0
vn 0 0 1
vn -0.9700787085752082 0.24279064885010795 0
vn 0 0 -1
vn -1 0 0
vn 0 0 1
vn 1 0 0
vn 0 0 -1
vn 0 -1 0
vn 0 1 0
vn 0.9700787085752082 0.24279064885010795 0
vn 0 0 1
vn -0.9700787085752082 -0.24279064885010795 0
vn 0 0 -1
vn -0.9700787085752082 0.24279064885010795 0
vn 0.9700787085752082 -0.24279064885010795 0
vn 0 0 -1
vn -0.9700787085752082 -0.24279064885010795 0
vn 0.9700787085752082 0.24279064885010795 0
vn 0 0 -1
vn 0 0 1
vn 1 0 0
vn 0 0 -1
vn -1 0 0
vn 0 0 1
vn 1 0 0
vn 0 0 -1
vn -1 0 0
vn 0 0 1
vn 1 0 0
vn 0 0 -1
vn -1 0 0
vn 0 0 1
vn 1 0 0
vn 0 0 -1
vn -1 0 0
vn -1 0 0
vn -1 0 0
vn 1 0 0
vn 1 0 0
vn 0 0 -1
vn 0 0 1
vn 0 0 1
vn 0 0 -1
vn 1 0 0
vn -1 0 0
vn 0.7525766947068778 0.658504607868518 0
vn -0.7525766947068778 0.658504607868518 0
vn 0 0 1
vn 0 0 1
vn 0 0 -1
vn 0 0.658504607868518 0.7525766947068778
vn 0 0.658504607868518 -0.7525766947068778
vn -1 0 0
vn -1 0 0
vn -0.7525766947068778 0.658504607868518 0
vn 0.7525766947068778 0.658504607868518 0
vn 0 0 -1
vn 0 0 -1
vn 0 0.658504607868518 -0.7525766947068778
vn 0 0.658504607868518 0.7525766947068778
vn 1 0 0
vn 1 0 0
vn 0 -1 0
vn 0 0 1
vn 0 0 1
vn 0 0 1
vn 1 0 0
vn 1 0 0
vn -1 0 0
vn -1 0 0
vn 0 0 -1
vn -1 0 0
vn 1 0 0
vn 0.7071067811865476 0 0.7071067811865476
vn 0 0 1
vn 0 0 -1
vn -1 0 0
vn -1 0 0
vn 1 0 0
vn 1 0 0
vn 0 0 -1
vn 0 0 -1
vn 0 0 1
vn 0 0 1
vn 0 1 0
vn 1 0 0
vn -1 0 0
vn 0.7525766947068778 -0.658504607868518 0
vn -0.7525766947068778 -0.658504607868518 0
vn 0 0 -1
vn 0 0 -1
vn 0 0 1
vn 0 -0.658504607868518 -0.7525766947068778
vn 0 -0.658504607868518 0.7525766947068778
vn -1 0 0
vn -1 0 0
vn -0.7525766947068778 -0.658504607868518 0
vn 0.7525766947068778 -0.658504607868518 0
vn 0 0 1
vn 0 0 1
vn 0 -0.658504607868518 0.7525766947068778
vn 0 -0.658504607868518 -0.7525766947068778
vn 1 0 0
vn 1 0 0
vn 0 1 0
vn 0 0 -1
vn 0 0 -1
vn 0 0 -1
vn 1 0 0
vn 0 0 1
vn 1 0 0
vn -1 0 0
vn -1 0 0
vn 0 0 1
vn -1 0 0
vn 1 0 0
vn 0.7071067811865476 0 -0.7071067811865476
vn 0 0 -1
vn 0 0 1
vn -1 0 0
vn -1 0 0
vn 1 0 0
vn 1 0 0
vn 0 0 1
vn 0 0 1
vn 0 0 -1
vn 0 0 -1
vn 0 -1 0
vn 1 0 0
vn 0 0 1
vn 1 0 0
vn 0 0 -1
vn -1 0 0
vn 0 0 1
vn 0 0 -1
vn -1 0 0
vn 1 0 0
vn 0 0 -1
vn 0 0 -1
vn -1 0 0
vn -1 0 0
vn -1 0 0
vn 0 0 1
vn 1 0 0
vn 0 0 1
vn 0 -1 0
vn 0.7071067811865476 0 -0.7071067811865476
vn -0.7071067811865476 0 -0.7071067811865476
vn -0.7071067811865476 0 0.7071067811865476
vn 0.7071067811865476 0 0.7071067811865476
vn 0.7071067811865476 0 -0.7071067811865476
vn -0.7071067811865476 0 0.7071067811865476
vn 0 0 -1
vn 1 0 0
vn 0 0 -1
vn -1 0 0
vn 0 0 1
vn 1 0 0
vn 0 0 1
vn 0 0 -1
vn -1 0 0
vn 0 0 1
vn 0 0 1
vn 1 0 0
vn 1 0 0
vn 1 0 0
vn -1 0 0
vn -1 0 0
vn 0 0 -1
vn 0 0 -1
vn 0 0 1
vn 0 0 -1
usemtl m_caaf9b70-21fd-5031-0c80-0737423a7486
f 2/1/1 3/2/1 4/3/1 5/4/1
f 3/5/2 6/6/2 7/7/2 4/8/2
f 6/9/3 8/10/3 9/11/3 7/12/3
f 8/13/4 2/14/4 5/15/4 9/16/4
f 7/17/5 9/18/5 5/19/5 4/20/5
f 10/21/6 11/22/6 12/23/6 13/24/6
f 11/25/7 14/26/7 15/27/7 12/28/7
f 14/29/8 16/30/8 17/31/8 15/32/8
f 16/33/9 10/34/9 13/35/9 17/36/9
f 15/37/10 17/38/10 13/39/10 12/40/10
f 18/41/11 19/42/11 20/43/11 21/44/11
f 19/45/12 22/46/12 23/47/12 20/48/12
f 22/49/13 24/50/13 25/51/13 23/52/13
f 24/53/14 18/54/14 21/55/14 25/56/14
f 23/57/15 25/58/15 21/59/15 20/60/15
f 26/61/16 27/62/16 28/63/16 29/64/16
f 27/65/17 30/66/17 31/67/17 28/68/17
f 30/69/18 32/70/18 33/71/18 31/72/18
f 32/73/19 26/74/19 29/75/19 33/76/19
f 31/77/20 33/78/20 29/79/20 28/80/20
f 34/81/21 35/82/21 36/83/21 37/84/21
f 35/85/22 38/86/22 39/87/22 36/88/22
f 38/89/23 40/90/23 41/91/23 39/92/23
f 40/93/24 34/94/24 37/95/24 41/96/24
f 42/97/25 43/98/25 44/99/25 45/100/25
f 46/101/26 47/102/26 48/103/26 49/104/26
f 50/105/27 46/106/27 49/107/27 51/108/27
f 52/109/28 42/110/28 45/111/28 53/112/28
f 54/113/29 52/114/29 53/115/29 55/116/29
f 56/117/30 57/118/30 58/119/30 59/120/30
f 60/121/31 61/122/31 62/123/31 63/124/31
f 43/125/32 54/126/32 55/127/32 44/128/32
f 62/129/33 61/130/33 58/131/33 57/132/33
f 63/133/34 62/134/34 57/135/34 56/136/34
f 64/137/35 65/138/35 66/139/35 67/140/35
f 68/141/36 64/142/36 67/143/36 69/144/36
f 60/145/37 63/146/37 56/147/37 59/148/37
f 61/149/38 60/150/38 59/151/38 58/152/38
f 70/153/39 68/154/39 69/155/39 71/156/39
f 65/157/40 70/158/40 71/159/40 66/160/40
f 72/161/41 50/162/41 51/163/41 73/164/41
f 74/165/42 75/166/42 76/167/42 77/168/42
f 78/169/43 74/170/43 77/171/43 79/172/43
f 47/173/44 72/174/44 73/175/44 48/176/44
f 80/177/45 78/178/45 79/179/45 81/180/45
f 75/181/46 80/182/46 81/183/46 76/184/46
f 82/185/47 83/186/47 84/187/47 85/188/47
f 86/189/48 82/190/48 85/191/48 87/192/48
f 88/193/49 89/194/49 90/195/49 91/196/49
f 92/197/50 93/198/50 94/199/50 95/200/50
f 96/201/51 97/202/51 98/203/51 99/204/51
f 100/205/52 86/206/52 87/207/52 101/208/52
f 83/209/53 100/210/53 101/211/53 84/212/53
f 102/213/54 92/214/54 95/215/54 103/216/54
f 104/217/55 96/218/55 99/219/55 105/220/55
f 106/221/56 107/222/56 108/223/56 109/224/56
f 110/225/57 104/226/57 105/227/57 111/228/57
f 112/229/58 102/230/58 103/231/58 113/232/58
f 114/233/59 106/234/59 109/235/59 115/236/59
f 116/237/60 114/238/60 115/239/60 117/240/60
f 118/241/61 119/242/61 91/243/61 90/244/61
f 89/245/62 88/246/62 120/247/62 121/248/62
f 120/249/63 88/250/63 91/251/63 119/252/63
f 107/253/64 116/254/64 117/255/64 108/256/64
f 97/257/65 110/258/65 111/259/65 98/260/65
f 121/261/66 120/262/66 119/263/66 118/264/66
f 89/265/67 121/266/67 118/267/67 90/268/67
f 93/269/68 112/270/68 113/271/68 94/272/68
f 122/273/69 123/274/69 124/275/69 125/276/69
f 123/277/70 126/278/70 127/279/70 124/280/70
f 126/281/71 128/282/71 129/283/71 127/284/71
f 128/285/72 122/286/72 125/287/72 129/288/72
f 130/289/73 131/290/73 132/291/73 133/292/73
f 131/293/74 134/294/74 135/295/74 132/296/74
f 134/297/75 136/298/75 137/299/75 135/300/75
f 136/301/76 130/302/76 133/303/76 137/304/76
f 131/305/77 130/306/77 136/307/77 134/308/77
f 135/309/78 137/310/78 133/311/78 132/312/78
f 138/313/79 139/314/79 35/315/79 34/316/79
f 139/317/80 140/318/80 38/319/80 35/320/80
f 140/321/81 141/322/81 40/323/81 38/324/81
f 141/325/82 138/326/82 34/327/82 40/328/82
f 142/329/83 143/330/83 144/331/83 145/332/83
f 143/333/84 146/334/84 147/335/84 144/336/84
f 146/337/85 148/338/85 149/339/85 147/340/85
f 148/341/86 142/342/86 145/343/86 149/344/86
f 150/345/87 151/346/87 143/347/87 142/348/87
f 151/349/88 152/350/88 146/351/88 143/352/88
f 152/353/89 153/354/89 148/355/89 146/356/89
f 153/357/90 150/358/90 142/359/90 148/360/90
f 154/361/91 155/362/91 156/363/91 157/364/91
f 155/365/92 158/366/92 159/367/92 156/368/92
f 158/369/93 160/370/93 161/371/93 159/372/93
f 160/373/94 154/374/94 157/375/94 161/376/94
f 162/377/95 163/378/95 155/379/95 154/380/95
f 163/381/96 164/382/96 158/383/96 155/384/96
f 164/385/97 165/386/97 160/387/97 158/388/97
f 165/389/98 162/390/98 154/391/98 160/392/98
f 166/393/99 167/394/99 168/395/99 169/396/99
f 167/397/100 170/398/100 171/399/100 168/400/100
f 170/401/101 172/402/101 173/403/101 171/404/101
f 172/405/102 166/406/102 169/407/102 173/408/102
f 174/409/103 175/410/103 167/411/103 166/412/103
f 175/413/104 176/414/104 170/415/104 167/416/104
f 176/417/105 177/418/105 172/419/105 170/420/105
f 177/421/106 174/422/106 166/423/106 172/424/106
f 178/425/107 179/426/107 180/427/107 181/428/107
f 179/429/108 182/430/108 183/431/108 180/432/108
f 182/433/109 184/434/109 185/435/109 183/436/109
f 184/437/110 178/438/110 181/439/110 185/440/110
f 186/441/111 187/442/111 188/443/111 189/444/111
f 187/445/112 190/446/112 191/447/112 188/448/112
f 190/449/113 192/450/113 193/451/113 191/452/113
f 192/453/114 186/454/114 189/455/114 193/456/114
f 194/457/115 195/458/115 196/459/115 197/460/115
f 195/461/116 198/462/116 199/463/116 196/464/116
f 198/465/117 200/466/117 201/467/117 199/468/117
f 200/469/118 194/470/118 197/471/118 201/472/118
f 202/473/119 203/474/119 204/475/119 205/476/119
f 203/477/120 206/478/120 207/479/120 204/480/120
f 206/481/121 208/482/121 209/483/121 207/484/121
f 208/485/122 202/486/122 205/487/122 209/488/122
f 210/489/123 211/490/123 212/491/123 213/492/123
f 211/493/124 214/494/124 215/495/124 212/496/124
f 214/497/125 216/498/125 217/499/125 215/500/125
f 216/501/126 210/502/126 213/503/126 217/504/126
f 211/505/127 210/506/127 216/507/127 214/508/127
f 215/509/128 217/510/128 213/511/128 212/512/128
f 218/513/129 219/514/129 220/515/129 221/516/129
f 219/517/130 222/518/130 223/519/130 220/520/130
f 222/521/131 224/522/131 225/523/131 223/524/131
f 224/525/132 218/526/132 221/527/132 225/528/132
f 226/529/133 227/530/133 228/531/133 229/532/133
f 227/533/134 230/534/134 231/535/134 228/536/134
f 230/537/135 232/538/135 233/539/135 231/540/135
f 232/541/136 226/542/136 229/543/136 233/544/136
f 234/545/137 235/546/137 236/547/137 237/548/137
f 235/549/138 238/550/138 239/551/138 236/552/138
f 238/553/139 240/554/139 241/555/139 239/556/139
f 240/557/140 234/558/140 237/559/140 241/560/140
f 242/561/141 243/562/141 244/563/141 245/564/141
f 243/565/142 246/566/142 247/567/142 244/568/142
f 246/569/143 248/570/143 249/571/143 247/572/143
f 248/573/144 242/574/144 245/575/144 249/576/144
f 247/577/145 249/578/145 245/579/145 244/580/145
f 250/581/146 251/582/146 252/583/146 253/584/146
f 251/585/147 254/586/147 255/587/147 252/588/147
f 254/589/148 256/590/148 257/591/148 255/592/148
f 256/593/149 250/594/149 253/595/149 257/596/149
f 255/597/150 257/598/150 253/599/150 252/600/150
f 258/601/151 259/602/151 260/603/151 261/604/151
f 259/605/152 262/606/152 263/607/152 260/608/152
f 262/609/153 264/610/153 265/611/153 263/612/153
f 264/613/154 258/614/154 261/615/154 265/616/154
f 266/617/155 267/618/155 268/619/155 269/620/155
f 267/621/156 270/622/156 271/623/156 268/624/156
f 270/625/157 272/626/157 273/627/157 271/628/157
f 272/629/158 266/630/158 269/631/158 273/632/158
f 271/633/159 273/634/159 269/635/159 268/636/159
f 274/637/160 275/638/160 259/639/160 258/640/160
f 275/641/161 276/642/161 262/643/161 259/644/161
f 276/645/162 277/646/162 264/647/162 262/648/162
f 277/649/163 274/650/163 258/651/163 264/652/163
f 278/653/164 279/654/164 275/655/164 274/656/164
f 279/657/165 280/658/165 276/659/165 275/660/165
f 280/661/166 281/662/166 277/663/166 276/664/166
f 281/665/167 278/666/167 274/667/167 277/668/167
f 282/669/168 283/670/168 284/671/168 285/672/168
f 283/673/169 286/674/169 287/675/169 284/676/169
f 286/677/170 288/678/170 289/679/170 287/680/170
f 288/681/171 282/682/171 285/683/171 289/684/171
f 290/685/172 291/686/172 283/687/172 282/688/172
f 291/689/173 292/690/173 286/691/173 283/692/173
f 292/693/174 293/694/174 288/695/174 286/696/174
f 293/697/175 290/698/175 282/699/175 288/700/175
f 294/701/176 295/702/176 291/703/176 290/704/176
f 295/705/177 296/706/177 292/707/177 291/708/177
f 296/709/178 297/710/178 293/711/178 292/712/178
f 297/713/179 294/714/179 290/715/179 293/716/179
f 298/717/180 299/718/180 300/719/180 301/720/180
f 299/721/181 302/722/181 303/723/181 300/724/181
f 302/725/182 304/726/182 305/727/182 303/728/182
f 304/729/183 298/730/183 301/731/183 305/732/183
f 299/733/184 298/734/184 304/735/184 302/736/184
f 303/737/185 305/738/185 301/739/185 300/740/185
f 306/741/186 307/742/186 308/743/186 309/744/186
f 310/745/187 311/746/187 312/747/187
f 313/748/188 314/749/188 315/750/188 316/751/188
f 317/752/189 310/753/189 318/754/189 319/755/189
f 320/756/190 321/757/190 322/758/190 323/759/190
f 324/760/191 325/761/191 326/762/191
f 327/763/192 328/764/192 329/765/192 330/766/192
f 331/767/193 324/768/193 332/769/193 333/770/193
f 314/771/194 313/772/194 334/773/194 335/774/194
f 336/775/195 337/776/195 338/777/195 339/778/195
f 340/779/196 341/780/196 342/781/196 343/782/196
f 341/783/197 344/784/197 345/785/197 342/786/197
f 344/787/198 346/788/198 347/789/198 345/790/198
f 346/791/199 340/792/199 343/793/199 347/794/199
f 345/795/200 347/796/200 343/797/200 342/798/200
f 348/799/201 349/800/201 350/801/201 351/802/201
f 349/803/202 352/804/202 353/805/202 350/806/202
f 352/807/203 354/808/203 355/809/203 353/810/203
f 354/811/204 348/812/204 351/813/204 355/814/204
f 356/815/205 357/816/205 358/817/205 359/818/205
f 360/819/206 361/820/206 362/821/206 363/822/206
f 364/823/207 360/824/207 363/825/207 365/826/207
f 366/827/208 356/828/208 359/829/208 367/830/208
f 368/831/209 369/832/209 370/833/209 371/834/209
f 372/835/210 373/836/210 374/837/210 375/838/210
f 357/839/211 376/840/211 377/841/211 358/842/211
f 374/843/212 373/844/212 370/845/212 369/846/212
f 375/847/213 374/848/213 369/849/213 368/850/213
f 378/851/214 379/852/214 380/853/214 381/854/214
f 382/855/215 378/856/215 381/857/215 383/858/215
f 372/859/216 375/860/216 368/861/216 371/862/216
f 373/863/217 372/864/217 371/865/217 370/866/217
f 379/867/218 384/868/218 385/869/218 380/870/218
f 386/871/219 364/872/219 365/873/219 387/874/219
f 388/875/220 389/876/220 390/877/220 391/878/220
f 392/879/221 388/880/221 391/881/221 393/882/221
f 361/883/222 386/884/222 387/885/222 362/886/222
f 394/887/223 392/888/223 393/889/223 395/890/223
f 389/891/224 394/892/224 395/893/224 390/894/224
f 396/895/225 397/896/225 398/897/225 399/898/225
f 400/899/226 401/900/226 402/901/226 403/902/226
f 404/903/227 405/904/227 406/905/227 407/906/227
f 408/907/228 409/908/228 410/909/228 411/910/228
f 412/911/229 396/912/229 399/913/229 413/914/229
f 414/915/230 412/916/230 413/917/230 415/918/230
f 416/919/231 404/920/231 407/921/231 417/922/231
f 418/923/232 408/924/232 411/925/232 419/926/232
f 420/927/233 418/928/233 419/929/233 421/930/233
f 422/931/234 416/932/234 417/933/234 423/934/234
f 424/935/235 425/936/235 426/937/235 427/938/235
f 428/939/236 424/940/236 427/941/236 429/942/236
f 430/943/237 431/944/237 403/945/237 402/946/237
f 401/947/238 400/948/238 432/949/238 433/950/238
f 432/951/239 400/952/239 403/953/239 431/954/239
f 434/955/240 428/956/240 429/957/240 435/958/240
f 409/959/241 420/960/241 421/961/241 410/962/241
f 433/963/242 432/964/242 431/965/242 430/966/242
f 401/967/243 433/968/243 430/969/243 402/970/243
f 405/971/244 422/972/244 423/973/244 406/974/244
f 436/975/245 437/976/245 438/977/245 439/978/245
f 437/979/246 440/980/246 441/981/246 438/982/246
f 440/983/247 442/984/247 443/985/247 441/986/247
f 442/987/248 436/988/248 439/989/248 443/990/248
f 444/991/249 445/992/249 446/993/249 447/994/249
f 445/995/250 448/996/250 449/997/250 446/998/250
f 448/999/251 450/1000/251 451/1001/251 449/1002/251
f 450/1003/252 444/1004/252 447/1005/252 451/1006/252
f 445/1007/253 444/1008/253 450/1009/253 448/1010/253
f 449/1011/254 451/1012/254 447/1013/254 446/1014/254
f 37/1015/255 36/1016/255 349/1017/255 348/1018/255
f 36/1019/256 39/1020/256 352/1021/256 349/1022/256
f 39/1023/257 41/1024/257 354/1025/257 352/1026/257
f 41/1027/258 37/1028/258 348/1029/258 354/1030/258
f 452/1031/259 453/1032/259 454/1033/259 455/1034/259
f 453/1035/260 456/1036/260 457/1037/260 454/1038/260
f 456/1039/261 458/1040/261 459/1041/261 457/1042/261
f 458/1043/262 452/1044/262 455/1045/262 459/1046/262
f 145/1047/263 144/1048/263 453/1049/263 452/1050/263
f 144/1051/264 147/1052/264 456/1053/264 453/1054/264
f 147/1055/265 149/1056/265 458/1057/265 456/1058/265
f 149/1059/266 145/1060/266 452/1061/266 458/1062/266
f 460/1063/267 461/1064/267 462/1065/267 463/1066/267
f 461/1067/268 464/1068/268 465/1069/268 462/1070/268
f 464/1071/269 466/1072/269 467/1073/269 465/1074/269
f 466/1075/270 460/1076/270 463/1077/270 467/1078/270
f 157/1079/271 156/1080/271 461/1081/271 460/1082/271
f 156/1083/272 159/1084/272 464/1085/272 461/1086/272
f 159/1087/273 161/1088/273 466/1089/273 464/1090/273
f 161/1091/274 157/1092/274 460/1093/274 466/1094/274
f 468/1095/275 469/1096/275 470/1097/275 471/1098/275
f 469/1099/276 472/1100/276 473/1101/276 470/1102/276
f 472/1103/277 474/1104/277 475/1105/277 473/1106/277
f 474/1107/278 468/1108/278 471/1109/278 475/1110/278
f 169/1111/279 168/1112/279 469/1113/279 468/1114/279
f 168/1115/280 171/1116/280 472/1117/280 469/1118/280
f 171/1119/281 173/1120/281 474/1121/281 472/1122/281
f 173/1123/282 169/1124/282 468/1125/282 474/1126/282
f 476/1127/283 477/1128/283 478/1129/283 479/1130/283
f 477/1131/284 480/1132/284 481/1133/284 478/1134/284
f 480/1135/285 482/1136/285 483/1137/285 481/1138/285
f 482/1139/286 476/1140/286 479/1141/286 483/1142/286
f 484/1143/287 485/1144/287 486/1145/287 487/1146/287
f 485/1147/288 488/1148/288 489/1149/288 486/1150/288
f 488/1151/289 490/1152/289 491/1153/289 489/1154/289
f 492/1155/290 493/1156/290 494/1157/290 495/1158/290
f 493/1159/291 496/1160/291 497/1161/291 494/1162/291
f 496/1163/292 498/1164/292 499/1165/292 497/1166/292
f 500/1167/293 501/1168/293 502/1169/293 503/1170/293
f 501/1171/294 504/1172/294 505/1173/294 502/1174/294
f 504/1175/295 506/1176/295 507/1177/295 505/1178/295
f 506/1179/296 500/1180/296 503/1181/296 507/1182/296
f 508/1183/297 509/1184/297 510/1185/297 511/1186/297
f 509/1187/298 512/1188/298 513/1189/298 510/1190/298
f 512/1191/299 514/1192/299 515/1193/299 513/1194/299
f 514/1195/300 508/1196/300 511/1197/300 515/1198/300
f 509/1199/301 508/1200/301 514/1201/301 512/1202/301
f 513/1203/302 515/1204/302 511/1205/302 510/1206/302
f 516/1207/303 517/1208/303 518/1209/303 519/1210/303
f 517/1211/304 520/1212/304 521/1213/304 518/1214/304
f 520/1215/305 522/1216/305 523/1217/305 521/1218/305
f 522/1219/306 516/1220/306 519/1221/306 523/1222/306
f 524/1223/307 525/1224/307 526/1225/307 527/1226/307
f 528/1227/308 529/1228/308 530/1229/308 531/1230/308
f 529/1231/309 524/1232/309 527/1233/309 530/1234/309
f 532/1235/310 533/1236/310 534/1237/310 535/1238/310
f 536/1239/311 537/1240/311 538/1241/311 539/1242/311
f 537/1243/312 532/1244/312 535/1245/312 538/1246/312
f 540/1247/313 541/1248/313 542/1249/313 543/1250/313
f 541/1251/314 544/1252/314 545/1253/314 542/1254/314
f 544/1255/315 546/1256/315 547/1257/315 545/1258/315
f 546/1259/316 540/1260/316 543/1261/316 547/1262/316
f 261/1263/317 260/1264/317 541/1265/317 540/1266/317
f 260/1267/318 263/1268/318 544/1269/318 541/1270/318
f 263/1271/319 265/1272/319 546/1273/319 544/1274/319
f 265/1275/320 261/1276/320 540/1277/320 546/1278/320
f 548/1279/321 549/1280/321 550/1281/321 551/1282/321
f 549/1283/322 552/1284/322 553/1285/322 550/1286/322
f 552/1287/323 554/1288/323 555/1289/323 553/1290/323
f 554/1291/324 548/1292/324 551/1293/324 555/1294/324
f 285/1295/325 284/1296/325 549/1297/325 548/1298/325
f 284/1299/326 287/1300/326 552/1301/326 549/1302/326
f 287/1303/327 289/1304/327 554/1305/327 552/1306/327
f 289/1307/328 285/1308/328 548/1309/328 554/1310/328
f 376/1311/329 366/1312/329 367/1313/329 377/1314/329
f 384/1315/330 382/1316/330 383/1317/330 385/1318/330
f 397/1319/331 414/1320/331 415/1321/331 398/1322/331
f 425/1323/332 434/1324/332 435/1325/332 426/1326/332
f 498/1327/333 492/1328/333 495/1329/333 499/1330/333
f 525/1331/334 528/1332/334 531/1333/334 526/1334/334
f 533/1335/335 536/1336/335 539/1337/335 534/1338/335
f 490/1339/336 484/1340/336 487/1341/336 491/1342/336
f 556/1343/337 557/1344/337 558/1345/337 559/1346/337
f 560/1347/338 561/1348/338 562/1349/338 563/1350/338
f 564/1351/339 565/1352/339 312/1353/339 566/1354/339
f 566/1355/340 312/1356/340 567/1357/340 568/1358/340
f 318/1359/341 310/1360/341 312/1361/341 565/1362/341
f 567/1363/342 312/1364/342 311/1365/342 338/1366/342
f 561/1367/343 556/1368/343 559/1369/343 562/1370/343
f 569/1371/344 570/1372/344 571/1373/344 572/1374/344
f 572/1375/345 571/1376/345 573/1377/345 574/1378/345
f 313/1379/346 316/1380/346 571/1381/346 570/1382/346
f 573/1383/347 571/1384/347 317/1385/347 319/1386/347
f 575/1387/348 576/1388/348 577/1389/348 578/1390/348
f 578/1391/349 577/1392/349 579/1393/349 580/1394/349
f 308/1395/350 307/1396/350 577/1397/350 576/1398/350
f 579/1399/351 577/1400/351 315/1401/351 314/1402/351
f 581/1403/352 582/1404/352 583/1405/352 584/1406/352
f 584/1407/353 583/1408/353 585/1409/353 586/1410/353
f 339/1411/354 587/1412/354 583/1413/354 582/1414/354
f 585/1415/355 583/1416/355 306/1417/355 309/1418/355
f 559/1419/356 558/1420/356 563/1421/356 562/1422/356
f 557/1423/357 560/1424/357 563/1425/357 558/1426/357
f 588/1427/358 589/1428/358 590/1429/358 591/1430/358
f 592/1431/359 593/1432/359 594/1433/359 595/1434/359
f 595/1435/360 594/1436/360 596/1437/360 597/1438/360
f 598/1439/361 599/1440/361 600/1441/361 601/1442/361
f 704/1443/362 702/1444/362 602/1445/362 603/1446/362
f 604/1447/363 605/1448/363 606/1449/363 607/1450/363
f 601/1451/364 600/1452/364 607/1453/364 606/1454/364
f 608/1455/365 609/1456/365 589/1457/365 588/1458/365
f 610/1459/366 611/1460/366 701/1461/366 703/1462/366
f 339/1463/367 338/1464/367 311/1465/367 587/1466/367
f 603/1467/368 602/1468/368 611/1469/368 610/1470/368
f 597/1471/369 596/1472/369 612/1473/369 613/1474/369
f 613/1475/370 612/1476/370 593/1477/370 592/1478/370
f 614/1479/371 615/1480/371 616/1481/371 617/1482/371
f 591/1483/372 590/1484/372 618/1485/372 619/1486/372
f 620/1487/373 621/1488/373 622/1489/373 623/1490/373
f 615/1491/374 614/1492/374 623/1493/374 622/1494/374
f 608/1495/375 619/1496/375 618/1497/375 609/1498/375
f 617/1499/376 616/1500/376 621/1501/376 620/1502/376
f 605/1503/377 604/1504/377 599/1505/377 598/1506/377
f 560/1507/378 557/1508/378 556/1509/378 561/1510/378
f 624/1511/379 625/1512/379 626/1513/379 627/1514/379
f 628/1515/380 629/1516/380 630/1517/380 631/1518/380
f 632/1519/381 633/1520/381 326/1521/381 634/1522/381
f 634/1523/382 326/1524/382 635/1525/382 636/1526/382
f 332/1527/383 324/1528/383 326/1529/383 633/1530/383
f 635/1531/384 326/1532/384 325/1533/384 637/1534/384
f 629/1535/385 624/1536/385 627/1537/385 630/1538/385
f 1/1539/386 638/1540/386 639/1541/386 640/1542/386
f 640/1543/387 639/1544/387 641/1545/387 642/1546/387
f 327/1547/388 330/1548/388 639/1549/388 638/1550/388
f 641/1551/389 639/1552/389 331/1553/389 333/1554/389
f 643/1555/390 644/1556/390 645/1557/390 646/1558/390
f 646/1559/391 645/1560/391 647/1561/391 648/1562/391
f 322/1563/392 321/1564/392 645/1565/392 644/1566/392
f 647/1567/393 645/1568/393 329/1569/393 328/1570/393
f 649/1571/394 650/1572/394 651/1573/394 652/1574/394
f 652/1575/395 651/1576/395 653/1577/395 654/1578/395
f 655/1579/396 656/1580/396 651/1581/396 650/1582/396
f 653/1583/397 651/1584/397 320/1585/397 323/1586/397
f 627/1587/398 626/1588/398 631/1589/398 630/1590/398
f 625/1591/399 628/1592/399 631/1593/399 626/1594/399
f 657/1595/400 658/1596/400 659/1597/400 660/1598/400
f 661/1599/401 662/1600/401 663/1601/401 664/1602/401
f 664/1603/402 663/1604/402 665/1605/402 666/1606/402
f 667/1607/403 668/1608/403 669/1609/403 670/1610/403
f 671/1611/404 672/1612/404 673/1613/404 674/1614/404
f 670/1615/405 669/1616/405 675/1617/405 676/1618/405
f 677/1619/406 678/1620/406 679/1621/406 680/1622/406
f 674/1623/407 673/1624/407 680/1625/407 679/1626/407
f 681/1627/408 682/1628/408 658/1629/408 657/1630/408
f 683/1631/409 684/1632/409 668/1633/409 667/1634/409
f 637/1635/410 655/1636/410 685/1637/410 686/1638/410
f 676/1639/411 675/1640/411 684/1641/411 683/1642/411
f 666/1643/412 665/1644/412 687/1645/412 688/1646/412
f 688/1647/413 687/1648/413 662/1649/413 661/1650/413
f 689/1651/414 690/1652/414 691/1653/414 692/1654/414
f 660/1655/415 659/1656/415 693/1657/415 694/1658/415
f 695/1659/416 696/1660/416 697/1661/416 698/1662/416
f 698/1663/417 697/1664/417 690/1665/417 689/1666/417
f 681/1667/418 694/1668/418 693/1669/418 682/1670/418
f 692/1671/419 691/1672/419 696/1673/419 695/1674/419
f 678/1675/420 677/1676/420 672/1677/420 671/1678/420
f 628/1679/421 625/1680/421 624/1681/421 629/1682/421
f 585/1683/422 309/1684/422 655/1685/422 650/1686/422
f 586/1687/423 585/1688/423 650/1689/423 649/1690/423
f 339/1691/424 582/1692/424 653/1693/424 323/1694/424
f 582/1695/425 581/1696/425 654/1697/425 653/1698/425
f 313/1699/426 570/1700/426 641/1701/426 333/1702/426
f 570/1703/427 569/1704/427 642/1705/427 641/1706/427
f 574/1707/428 573/1708/428 638/1709/428 1/1710/428
f 573/1711/429 319/1712/429 327/1713/429 638/1714/429
f 580/1715/430 579/1716/430 633/1717/430 632/1718/430
f 579/1719/431 314/1720/431 332/1721/431 633/1722/431
f 576/1723/432 635/1724/432 637/1725/432 308/1726/432
f 576/1727/433 575/1728/433 636/1729/433 635/1730/433
f 678/1731/434 606/1732/434 605/1733/434 679/1734/434
f 568/1735/435 567/1736/435 644/1737/435 643/1738/435
f 567/1739/436 338/1740/436 322/1741/436 644/1742/436
f 565/1743/437 564/1744/437 648/1745/437 647/1746/437
f 318/1747/438 565/1748/438 647/1749/438 328/1750/438
f 318/1751/439 605/1752/439 564/1753/439 565/1754/439
f 655/1755/440 637/1756/440 325/1757/440 656/1758/440
f 334/1759/441 333/1760/441 332/1761/441 335/1762/441
f 699/1763/442 700/1764/442 328/1765/442 327/1766/442
f 336/1767/443 323/1768/443 322/1769/443 337/1770/443
f 685/1771/444 309/1772/444 308/1773/444 686/1774/444
f 699/1775/445 319/1776/445 318/1777/445 700/1778/445
f 614/1779/446 661/1780/446 664/1781/446 623/1782/446
f 619/1783/447 683/1784/447 667/1785/447 591/1786/447
f 608/1787/448 676/1788/448 683/1789/448 619/1790/448
f 603/1791/449 681/1792/449 657/1793/449 704/1794/449
f 595/1795/450 698/1796/450 689/1797/450 592/1798/450
f 623/1799/451 664/1800/451 666/1801/451 620/1802/451
f 591/1803/452 667/1804/452 670/1805/452 588/1806/452
f 606/1807/453 678/1808/453 671/1809/453 601/1810/453
f 588/1811/454 670/1812/454 676/1813/454 608/1814/454
f 610/1815/455 694/1816/455 681/1817/455 603/1818/455
f 620/1819/456 666/1820/456 688/1821/456 617/1822/456
f 597/1823/457 695/1824/457 698/1825/457 595/1826/457
f 703/1827/458 660/1828/458 694/1829/458 610/1830/458
f 601/1831/459 671/1832/459 674/1833/459 598/1834/459
f 617/1835/460 688/1836/460 661/1837/460 614/1838/460
f 592/1839/461 689/1840/461 692/1841/461 613/1842/461
f 704/1843/462 657/1844/462 660/1845/462 703/1846/462
f 613/1847/463 692/1848/463 695/1849/463 597/1850/463
f 598/1851/464 674/1852/464 679/1853/464 605/1854/464
f 703/1855/465 701/1856/465 702/1857/465 704/1858/465