# Made in Blockbench 5.0.4
mtllib solar_reflector.mtl

o support
v 2 -0.5 0.875
v 2 1 0.875
v 2 1 0.125
v 2 -0.5 0.125
v 2.125 1 0.125
v 2.125 -0.5 0.125
v 2.125 1 0.875
v 2.125 -0.5 0.875
v -1.125 -0.5 0.875
v -1.125 1 0.875
v -1.125 1 0.125
v -1.125 -0.5 0.125
v -1 1 0.125
v -1 -0.5 0.125
v -1 1 0.875
v -1 -0.5 0.875
v 1 -0.375 0.125
v 1 -0.125 0.125
v 2 -0.125 0.125
v 2 -0.375 0.125
v 2 -0.375 0.875
v 2 -0.125 0.875
v 1 -0.125 0.875
v 1 -0.375 0.875
v -1 -0.375 0.125
v -1 -0.125 0.125
v 0 -0.125 0.125
v 0 -0.375 0.125
v 0 -0.375 0.875
v 0 -0.125 0.875
v -1 -0.125 0.875
v -1 -0.375 0.875
v 0 -0.5 1
v 0 0 1
v 0 0 0
v 0 -0.5 0
v 1 0 0
v 1 -0.5 0
v 1 0 1
v 1 -0.5 1
vt 0.125 0.1875
vt 0.34375 0.1875
vt 0.34375 0.0625
vt 0.125 0.0625
vt 0.34375 0.0625
vt 0.125 0.0625
vt 0.125 0.046875
vt 0.34375 0.046875
vt 0.125 0.1875
vt 0.34375 0.1875
vt 0.34375 0.0625
vt 0.125 0.0625
vt 0.125 0.046875
vt 0.34375 0.046875
vt 0.34375 0.0625
vt 0.125 0.0625
vt 0.25 0.046875
vt 0.25 0.0625
vt 0.125 0.0625
vt 0.125 0.046875
vt 0.25 0.046875
vt 0.25 0.0625
vt 0.125 0.0625
vt 0.125 0.046875
vt 0.125 0.1875
vt 0.34375 0.1875
vt 0.34375 0.0625
vt 0.125 0.0625
vt 0.34375 0.0625
vt 0.125 0.0625
vt 0.125 0.046875
vt 0.34375 0.046875
vt 0.125 0.1875
vt 0.34375 0.1875
vt 0.34375 0.0625
vt 0.125 0.0625
vt 0.125 0.046875
vt 0.34375 0.046875
vt 0.34375 0.0625
vt 0.125 0.0625
vt 0.25 0.046875
vt 0.25 0.0625
vt 0.125 0.0625
vt 0.125 0.046875
vt 0.25 0.046875
vt 0.25 0.0625
vt 0.125 0.0625
vt 0.125 0.046875
vt 0.125 0.046875
vt 0.125 0.015625
vt 0.25 0.015625
vt 0.25 0.046875
vt 0.25 0.015625
vt 0.25 0.046875
vt 0.125 0.046875
vt 0.125 0.015625
vt 0.34375 0.125
vt 0.34375 0
vt 0.4375 0
vt 0.4375 0.125
vt 0.34375 0.125
vt 0.34375 0
vt 0.4375 0
vt 0.4375 0.125
vt 0.125 0.046875
vt 0.125 0.015625
vt 0.25 0.015625
vt 0.25 0.046875
vt 0.25 0.015625
vt 0.25 0.046875
vt 0.125 0.046875
vt 0.125 0.015625
vt 0.34375 0.125
vt 0.34375 0
vt 0.4375 0
vt 0.4375 0.125
vt 0.34375 0.125
vt 0.34375 0
vt 0.4375 0
vt 0.4375 0.125
vt 0 0.125
vt 0 0.1875
vt 0.125 0.1875
vt 0.125 0.125
vt 0.125 0.125
vt 0.125 0.1875
vt 0 0.1875
vt 0 0.125
vt 0 0.125
vt 0 0.1875
vt 0.125 0.1875
vt 0.125 0.125
vt 0.125 0.125
vt 0.125 0.1875
vt 0 0.1875
vt 0 0.125
vt 0 0.125
vt 0.125 0.125
vt 0.125 0
vt 0 0
vn -1 0 0
vn 0 0 -1
vn 1 0 0
vn 0 0 1
vn 0 -1 0
vn 0 1 0
vn -1 0 0
vn 0 0 -1
vn 1 0 0
vn 0 0 1
vn 0 -1 0
vn 0 1 0
vn 0 0 -1
vn 0 0 1
vn 0 -1 0
vn 0 1 0
vn 0 0 -1
vn 0 0 1
vn 0 -1 0
vn 0 1 0
vn -1 0 0
vn 0 0 -1
vn 1 0 0
vn 0 0 1
vn 0 1 0
usemtl m_fa385af5-f5af-063b-95a9-c7b42f9d79fc
f 1/1/1 2/2/1 3/3/1 4/4/1
f 4/5/2 3/6/2 5/7/2 6/8/2
f 6/9/3 5/10/3 7/11/3 8/12/3
f 8/13/4 7/14/4 2/15/4 1/16/4
f 4/17/5 6/18/5 8/19/5 1/20/5
f 5/21/6 3/22/6 2/23/6 7/24/6
f 9/25/7 10/26/7 11/27/7 12/28/7
f 12/29/8 11/30/8 13/31/8 14/32/8
f 14/33/9 13/34/9 15/35/9 16/36/9
f 16/37/10 15/38/10 10/39/10 9/40/10
f 12/41/11 14/42/11 16/43/11 9/44/11
f 13/45/12 11/46/12 10/47/12 15/48/12
f 17/49/13 18/50/13 19/51/13 20/52/13
f 21/53/14 22/54/14 23/55/14 24/56/14
f 17/57/15 20/58/15 21/59/15 24/60/15
f 19/61/16 18/62/16 23/63/16 22/64/16
f 25/65/17 26/66/17 27/67/17 28/68/17
f 29/69/18 30/70/18 31/71/18 32/72/18
f 25/73/19 28/74/19 29/75/19 32/76/19
f 27/77/20 26/78/20 31/79/20 30/80/20
f 33/81/21 34/82/21 35/83/21 36/84/21
f 36/85/22 35/86/22 37/87/22 38/88/22
f 38/89/23 37/90/23 39/91/23 40/92/23
f 40/93/24 39/94/24 34/95/24 33/96/24
f 37/97/25 35/98/25 34/99/25 39/100/25