# Made in Blockbench 5.0.4
mtllib solar_reflector.mtl

o base
v -1 -1 2
v -1 -0.5 2
v -1 -0.5 -1
v -1 -1 -1
v 2 -0.5 -1
v 2 -1 -1
v 2 -0.5 2
v 2 -1 2
vt 0.375 0.9375
vt 0.375 1
vt 0 1
vt 0 0.9375
vt 0.375 0.9375
vt 0.375 1
vt 0 1
vt 0 0.9375
vt 0.375 0.9375
vt 0.375 1
vt 0 1
vt 0 0.9375
vt 0.375 0.9375
vt 0.375 1
vt 0.0001 0.9999
vt 0 0.9375
vt 0 0.5625
vt 0.375 0.5625
vt 0.375 0.9375
vt 0 0.9375
vt 0.375 0.5625
vt 0 0.5625
vt 0 0.1875
vt 0.375 0.1875
vn -1 0 0
vn 0 0 -1
vn 1 0 0
vn 0 0 1
vn 0 -1 0
vn 0 1 0
usemtl m_fa385af5-f5af-063b-95a9-c7b42f9d79fc
f 1/1/1 2/2/1 3/3/1 4/4/1
f 4/5/2 3/6/2 5/7/2 6/8/2
f 6/9/3 5/10/3 7/11/3 8/12/3
f 8/13/4 7/14/4 2/15/4 1/16/4
f 4/17/5 6/18/5 8/19/5 1/20/5
f 5/21/6 3/22/6 2/23/6 7/24/6