
mtllib steam_turbine.mtl

usemtl steam_turbine

o base
v 1.312661 0.875000 0.750000
v 1.687661 0.875000 0.750000
v 1.687661 0.875000 0.375000
v 1.312661 0.875000 0.375000
v 1.000000 0.000000 -0.000020
v 0.000000 0.000000 -0.000020
v 0.000000 0.000000 -0.250020
v 1.000000 0.000000 -0.250020
v -0.750000 0.250000 -1.750020
v -0.500000 1.000000 -1.750020
v -0.500000 1.000001 -2.750000
v -0.750000 0.250001 -2.750000
v 1.687661 0.750000 0.750000
v 1.312661 0.750000 0.750000
v 1.312661 0.750000 0.375000
v 1.687661 0.750000 0.375000
v 1.250161 0.250000 0.875000
v 1.250161 0.750000 0.875000
v 1.250161 0.750000 -0.750000
v 1.250161 0.250000 -0.750000
v 0.875000 2.125000 -2.500000
v 0.875000 2.875000 -2.499999
v 0.125000 2.875000 -2.499999
v 0.125000 2.125000 -2.500000
v 0.000000 0.000003 -7.750021
v 0.000000 1.000003 -7.750021
v 0.000000 1.000003 -8.000020
v 0.000000 0.000003 -8.000020
v 1.000000 0.000003 -7.750021
v 1.000000 1.000003 -7.750021
v 1.000000 0.000003 -8.000020
v 1.000000 1.000003 -8.000020
v 0.000000 0.000002 -4.000021
v 0.000000 1.000002 -4.000021
v 0.000000 1.000002 -4.250021
v 0.000000 0.000002 -4.250021
v 1.000000 0.000002 -4.000021
v 1.000000 1.000002 -4.000021
v 1.000000 0.000002 -4.250021
v 1.000000 1.000002 -4.250021
v 1.750161 0.250000 0.875000
v 1.750161 0.750000 0.875000
v 1.750000 0.250000 -1.750021
v 1.500000 1.000000 -1.750020
v 1.750000 0.250001 -2.750000
v 1.500000 1.000001 -2.750000
v 1.750161 0.250000 -0.750000
v 1.750161 0.750000 -0.750000
v 0.875000 1.500001 -2.750000
v 0.875000 1.500000 -1.750020
v 0.625000 0.500000 0.687480
v 0.375000 0.500000 0.687480
v 0.375000 0.500000 0.437480
v 0.625000 0.500000 0.437480
v 0.000000 0.750000 -0.250020
v 0.375000 1.000000 -0.250020
v 0.375000 1.000000 -1.750020
v 0.000000 0.750000 -1.750020
v 1.000000 0.750000 -0.250020
v 0.625000 1.000000 -0.250020
v 1.000000 0.750000 -1.750020
v 0.625000 1.000000 -1.750020
v 1.125161 0.125000 1.000000
v 1.125161 0.875000 1.000000
v 1.125161 0.875000 0.875000
v 1.125161 0.125000 0.875000
v 1.875161 0.125000 1.000000
v 1.875161 0.875000 1.000000
v 1.875161 0.125000 0.875000
v 1.875161 0.875000 0.875000
v 0.125000 -0.375000 0.874979
v 0.125000 0.375000 0.874980
v 0.125000 0.375000 0.249980
v 0.125000 -0.375000 0.249979
v -0.250000 0.250000 -0.250020
v -0.250000 0.250000 -1.750020
v 1.250000 0.250000 -0.250020
v 1.250000 0.250000 -1.750021
v 0.312500 0.375000 0.749980
v 0.312500 0.500000 0.749980
v 0.312500 0.500000 0.374980
v 0.312500 0.375000 0.374980
v 2.000000 -1.000000 0.999979
v 2.000000 -0.500000 0.999979
v -1.000000 -0.500000 0.999979
v -1.000000 -1.000000 0.999979
v 2.000000 -1.000000 -0.000021
v 2.000000 -0.500000 -0.000021
v -1.000000 -0.500000 -0.000020
v -1.000000 -1.000000 -0.000021
v -0.874839 -0.500000 0.250000
v -0.874839 -0.000000 0.250000
v -0.874839 -0.000000 0.125000
v -0.874839 -0.500000 0.125000
v 0.875000 -0.375000 0.874979
v 0.875000 0.375000 0.874980
v -0.624839 -0.500000 0.250000
v -0.624839 -0.000000 0.250000
v -0.250000 0.000000 -0.250020
v -0.250000 0.000000 -1.750020
v 1.250000 0.000000 -0.250021
v 1.250000 0.000000 -1.750021
v -0.624839 -0.500000 0.125000
v -0.624839 -0.000000 0.125000
v -0.750000 0.000000 -1.750020
v -0.750000 0.000001 -2.750000
v 0.875000 -0.375000 0.249979
v 0.875000 0.375000 0.249980
v 1.750000 0.000000 -1.750021
v 0.687500 0.375000 0.749980
v 0.687500 0.500000 0.749980
v 1.750000 0.000001 -2.750000
v -1.000000 -1.000000 -1.500021
v -1.000000 0.000000 -1.500020
v -1.000000 0.000001 -3.000000
v -1.000000 -0.999999 -3.000000
v 2.000000 -1.000000 -1.500021
v 2.000000 0.000000 -1.500021
v 2.000000 -0.999999 -3.000000
v 2.000000 0.000001 -3.000000
v 0.687500 0.375000 0.374980
v 0.687500 0.500000 0.374980
v 0.125000 2.125002 -6.375020
v 0.875000 2.125002 -6.375020
v 0.375000 1.125000 0.687480
v 0.625000 1.125000 0.687480
v 0.625000 1.125000 0.437480
v 0.375000 1.125000 0.437480
v -0.874839 -0.500000 0.875000
v -0.874839 -0.000000 0.875000
v -0.874839 -0.000000 0.750000
v -0.874839 -0.500000 0.750000
v -0.500000 -1.000000 -0.000021
v -0.500000 0.000000 -0.000020
v -0.500000 0.000000 -1.500020
v -0.500000 -1.000000 -1.500021
v -0.624839 -0.500000 0.875000
v -0.624839 -0.000000 0.875000
v 0.000000 -0.500000 0.249979
v 0.000000 0.500000 0.249980
v 0.000000 0.500000 -0.000020
v 0.000000 -0.500000 -0.000021
v 1.500000 -1.000000 -0.000021
v 1.500000 0.000000 -0.000021
v 1.500000 -1.000000 -1.500021
v 1.500000 0.000000 -1.500021
v -0.624839 -0.500000 0.750000
v -0.624839 -0.000000 0.750000
v 1.000000 -0.500000 0.249979
v 1.000000 0.500000 0.249980
v 0.687500 1.187500 0.687500
v 0.687500 1.437500 0.687500
v 0.687500 1.437500 0.437500
v 0.687500 1.187500 0.437500
v 1.312500 1.187500 0.687500
v 1.312500 1.437500 0.687500
v 1.000000 -0.500000 -0.000021
v 1.000000 0.500000 -0.000020
v 1.312500 1.187500 0.437500
v 1.312500 1.437500 0.437500
v -0.999839 -0.000000 1.000000
v -0.999839 1.000000 1.000000
v -0.999839 1.000000 0.000000
v -0.999839 0.000000 0.000000
v -0.499839 -0.000000 1.000000
v -0.499839 1.000000 1.000000
v 1.312661 1.125000 0.750000
v 1.312661 1.500000 0.750000
v 1.312661 1.500000 0.375000
v 1.312661 1.125000 0.375000
v 1.687661 1.125000 0.750000
v 1.687661 1.500000 0.750000
v -0.499839 0.000000 0.000000
v -0.499839 1.000000 0.000000
v 1.687661 1.125000 0.375000
v 1.687661 1.500000 0.375000
v 1.375161 0.875000 0.687500
v 1.375161 1.125000 0.687500
v 1.375161 1.125000 0.437500
v 1.375161 0.875000 0.437500
v 1.250161 0.250000 -1.250000
v 1.750161 0.250000 -1.250000
v 1.625161 0.875000 0.687500
v 1.625161 1.125000 0.687500
v 1.625161 0.875000 0.437500
v 1.625161 1.125000 0.437500
v 1.750161 0.750000 -1.250000
v 1.000161 0.750000 -1.250000
v 0.125000 2.875002 -6.375020
v 0.875000 2.875002 -6.375020
v 0.000000 0.500000 -0.250020
v 1.000161 0.750000 -0.750000
v 2.000000 -0.999998 -4.000021
v -1.000000 -0.999998 -4.000021
v -1.000000 -0.999998 -5.500021
v 2.000000 -0.999998 -5.500021
v 1.000000 0.500000 -0.250020
v 2.000000 0.000002 -5.500021
v 2.000000 0.000002 -4.000021
v -1.000000 0.000002 -5.500021
v -1.000000 0.000002 -4.000021
v 0.125000 1.500000 -1.750020
v 0.125000 1.500001 -2.750000
v 0.312500 1.500000 0.749980
v 0.687500 1.500000 0.749980
v 0.687500 1.500000 0.374980
v 0.312500 1.500000 0.374980
v 0.687500 1.125000 0.749980
v 0.312500 1.125000 0.749980
v 0.312500 1.125000 0.374980
v 0.687500 1.125000 0.374980
v 0.250000 2.750000 -1.999999
v 0.750000 2.750000 -1.999999
v 0.750000 2.750000 -2.499999
v 0.250000 2.750000 -2.499999
v 0.750000 1.500000 -2.000000
v 0.250000 1.500000 -2.000000
v 0.250000 1.500000 -2.500000
v 0.750000 1.500000 -2.500000
v 0.000000 0.000001 -2.750000
v 0.000000 1.000001 -2.750000
v 0.000000 1.000001 -3.000000
v 0.000000 0.000001 -3.000000
v 1.000000 0.000001 -2.750000
v 1.000000 1.000001 -2.750000
v 1.000000 0.000001 -3.000000
v 1.000000 1.000001 -3.000000
v 0.250000 0.937502 -5.750021
v 0.250000 2.125002 -5.750020
v 0.250000 2.125002 -6.250020
v 0.250000 0.937502 -6.250021
v 0.750000 0.937502 -5.750021
v 0.750000 2.125002 -5.750020
v 0.750000 0.937502 -6.250021
v 0.750000 2.125002 -6.250020
v 0.000000 0.750002 -5.250021
v 0.375000 1.000002 -5.250021
v 0.375000 1.000002 -6.750021
v 0.000000 0.750002 -6.750021
v 1.000000 0.750002 -5.250021
v 0.625000 1.000002 -5.250021
v 1.000000 0.750002 -6.750021
v 0.625000 1.000002 -6.750021
v -0.250000 0.250002 -5.250021
v -0.250000 0.250002 -6.750021
v 1.250000 0.250002 -5.250021
v 1.250000 0.250002 -6.750021
v -0.250000 0.000002 -5.250021
v -0.250000 0.000002 -6.750021
v 1.250000 0.000002 -5.250021
v 1.250000 0.000002 -6.750021
v -0.500000 1.000002 -6.750021
v 0.125000 1.500002 -6.750020
v 0.125000 1.500003 -7.750020
v -0.500000 1.000003 -7.750021
v 1.500000 1.000002 -6.750021
v 0.875000 1.500002 -6.750020
v 1.500000 1.000003 -7.750021
v 0.875000 1.500003 -7.750020
v -0.750000 0.250002 -6.750021
v -0.750000 0.250003 -7.750021
v 1.750000 0.250002 -6.750021
v 1.750000 0.250003 -7.750021
v -0.750000 0.000002 -6.750021
v -0.750000 0.000003 -7.750021
v 1.750000 0.000002 -6.750021
v 1.750000 0.000003 -7.750021
v -1.000000 -0.999998 -6.500021
v -1.000000 0.000002 -6.500021
v -1.000000 0.000003 -8.000020
v -1.000000 -0.999997 -8.000020
v 2.000000 -0.999998 -6.500021
v 2.000000 0.000002 -6.500021
v 2.000000 -0.999997 -8.000021
v 2.000000 0.000003 -8.000021
v -0.500000 -0.999998 -5.500021
v -0.500000 0.000002 -5.500021
v -0.500000 0.000002 -6.500021
v -0.500000 -0.999998 -6.500021
v 1.500000 -0.999998 -5.500021
v 1.500000 0.000002 -5.500021
v 1.500000 -0.999998 -6.500021
v 1.500000 0.000002 -6.500021
v -0.500000 1.000002 -4.250021
v 0.125000 1.500002 -4.250020
v 0.125000 1.500002 -5.250020
v -0.500000 1.000002 -5.250021
v 1.500000 1.000002 -4.250021
v 0.875000 1.500002 -4.250020
v 1.500000 1.000002 -5.250021
v 0.875000 1.500002 -5.250020
v -0.750000 0.250002 -4.250021
v -0.750000 0.250002 -5.250021
v 1.750000 0.250002 -4.250021
v 1.750000 0.250002 -5.250021
v -0.750000 0.000002 -4.250021
v -0.750000 0.000002 -5.250021
v 1.750000 0.000002 -4.250021
v 1.750000 0.000002 -5.250021
vt 0.890625 0.734375
vt 0.890625 0.781250
vt 0.843750 0.781250
vt 0.843750 0.734375
vt 1.000000 0.000000
vt 1.000000 1.000000
vt 0.000000 1.000000
vt 0.000000 0.000000
vt 0.843750 0.328125
vt 0.843750 0.429688
vt 0.718750 0.429688
vt 0.718750 0.328125
vt 1.000000 0.890625
vt 0.937500 0.890625
vt 0.937500 0.687500
vt 1.000000 0.687500
vt 0.578125 0.343750
vt 0.578125 0.437500
vt 0.484375 0.437500
vt 0.484375 0.343750
vt 0.718750 0.500000
vt 0.718750 0.625000
vt 0.687500 0.625000
vt 0.687500 0.500000
vt 0.968750 0.375000
vt 0.968750 0.500000
vt 0.843750 0.500000
vt 0.843750 0.375000
vt 0.500000 0.187500
vt 0.468750 0.281250
vt 0.218750 0.281250
vt 0.187500 0.187500
vt 0.843750 0.531250
vt 0.718750 0.531250
vt 0.187500 0.250000
vt 0.187500 0.312500
vt 0.000000 0.312500
vt 0.000000 0.250000
vt 1.000000 0.546875
vt 1.000000 0.578125
vt 0.968750 0.625000
vt 0.937500 0.640625
vt 0.843750 0.640625
vt 0.843750 0.625000
vt 0.937500 0.625000
vt 0.843750 0.843750
vt 0.843750 0.937500
vt 0.750000 0.937500
vt 0.750000 0.843750
vt 0.828125 0.656250
vt 0.828125 0.750000
vt 0.750000 0.750000
vt 0.750000 0.656250
vt 0.187500 0.343750
vt 0.000000 0.343750
vt 0.937500 0.734375
vt 0.187500 0.179688
vt 0.000000 0.179688
vt 0.656250 0.281250
vt 0.625000 0.343750
vt 0.500000 0.343750
vt 0.890625 0.750000
vt 0.843750 0.750000
vt 0.687500 0.437500
vt 0.312500 0.500000
vt 0.312500 0.437500
vt 0.125000 0.437500
vt 0.125000 0.500000
vt 0.000000 0.500000
vt 0.000000 0.437500
vt 0.750000 0.625000
vt 0.750000 1.000000
vt 0.625000 1.000000
vt 0.625000 0.625000
vt 0.000000 0.625000
vt 0.125000 1.000000
vt 0.125000 0.625000
vt 0.921875 0.796875
vt 0.921875 0.859375
vt 0.906250 0.859375
vt 0.906250 0.796875
vt 0.937500 0.796875
vt 0.937500 0.859375
vt 0.187500 0.148438
vt 0.000000 0.148438
vt 0.687500 0.250000
vt 0.687500 0.281250
vt 0.500000 0.281250
vt 0.500000 0.250000
vt 0.843750 0.296875
vt 0.718750 0.296875
vt 0.500000 0.156250
vt 0.187500 0.156250
vt 0.500000 0.500000
vt 0.500000 0.625000
vt 0.312500 0.625000
vt 0.312500 1.000000
vt 0.500000 1.000000
vt 0.625000 0.500000
vt 0.375000 0.625000
vt 0.375000 0.500000
vt 0.312500 0.687500
vt 0.125000 0.687500
vt 0.312500 0.937500
vt 0.125000 0.937500
vt 0.937500 0.937500
vt 0.906250 0.937500
vt 0.906250 0.625000
vt 0.906250 0.500000
vt 0.906250 0.890625
vt 1.000000 0.875000
vt 1.000000 0.937500
vt 0.937500 0.875000
vt 1.000000 0.750000
vt 0.937500 0.750000
vt 1.000000 0.250000
vt 0.937500 0.281250
vt 0.937500 0.187500
vt 1.000000 0.187500
vt 0.671875 0.343750
vt 0.671875 0.437500
vt 1.000000 0.281250
vt 1.000000 0.218750
vt 1.000000 0.843750
vt 0.937500 0.843750
vt 0.390625 0.343750
vt 0.296875 0.343750
vt 0.250000 1.000000
vt 0.250000 0.937500
vt 1.000000 0.375000
vt 0.937500 0.375000
vt 0.937500 0.218750
vt 1.000000 0.171875
vt 1.000000 0.328125
vt 0.937500 0.328125
vt 0.937500 0.171875
vt 0.906250 0.789062
vt 0.843750 0.789062
vt 0.562500 0.500000
vt 0.562500 0.625000
vt 0.437500 0.625000
vt 0.437500 0.500000
vt 0.281250 0.687500
vt 0.281250 0.937500
vt 0.156250 0.937500
vt 0.156250 0.687500
vn 0.000000 1.000000 0.000000
vn 0.000000 -1.000000 -0.000000
vn -0.948700 0.316200 0.000000
vn -0.584600 0.811300 -0.000200
vn -0.584700 0.811200 0.000000
vn -1.000000 0.000000 0.000000
vn 0.000000 -0.000000 1.000000
vn 1.000000 0.000000 0.000000
vn 0.000000 0.000000 -1.000000
vn 0.948700 0.316200 0.000000
vn 0.584700 0.811300 0.000000
vn 0.624700 0.780900 0.000000
vn 0.331000 0.943600 0.000000
vn -0.554700 0.832100 0.000000
vn -0.289800 0.957100 0.000000
vn 0.554700 0.832100 0.000000
vn 0.289800 0.957100 0.000000
vn -0.894400 0.447200 0.000000
vn -0.525700 0.850700 -0.000000
vn -0.525800 0.850600 0.000000
vn 0.894400 0.447200 0.000000
vn 0.525700 0.850700 0.000000
vn 0.525800 0.850600 -0.000000
vn -0.525700 0.850600 -0.000000
vn 0.525700 0.850600 -0.000000
vn -0.525700 -0.850700 -0.000000
vn -0.894400 -0.447200 -0.000000
vn -0.624700 0.780900 0.000000
vn -0.331000 0.943600 0.000000
vn -0.584700 0.811300 -0.000000
vn 0.584700 0.811200 -0.000000
vn -0.584700 0.811200 -0.000200
vn 0.584700 0.811200 -0.000200

f 1/1/1 2/2/1 3/3/1 4/4/1
f 5/5/2 6/6/2 7/7/2 8/8/2
f 9/9/3 10/10/4 11/11/5 12/12/3
f 13/5/2 14/6/2 15/7/2 16/8/2
f 17/13/6 18/14/6 19/15/6 20/16/6
f 21/17/7 22/18/7 23/19/7 24/20/7
f 25/21/6 26/22/6 27/23/6 28/24/6
f 29/5/7 30/6/7 26/7/7 25/8/7
f 31/21/8 32/22/8 30/23/8 29/24/8
f 28/25/9 27/26/9 32/27/9 31/28/9
f 26/21/1 30/22/1 32/23/1 27/24/1
f 29/5/2 25/6/2 28/7/2 31/8/2
f 33/21/6 34/22/6 35/23/6 36/24/6
f 37/25/7 38/26/7 34/27/7 33/28/7
f 39/21/8 40/22/8 38/23/8 37/24/8
f 36/5/9 35/6/9 40/7/9 39/8/9
f 34/21/1 38/22/1 40/23/1 35/24/1
f 37/5/2 33/6/2 36/7/2 39/8/2
f 41/5/7 42/6/7 18/7/7 17/8/7
f 43/29/7 44/30/7 10/31/7 9/32/7
f 45/9/10 46/10/11 44/11/11 43/12/10
f 12/29/9 11/30/9 46/31/9 45/32/9
f 47/16/8 48/15/8 42/14/8 41/13/8
f 20/5/9 19/6/9 48/7/9 47/8/9
f 46/10/12 49/33/13 50/34/13 44/11/12
f 51/5/2 52/6/2 53/7/2 54/8/2
f 43/5/2 9/6/2 12/7/2 45/8/2
f 18/13/1 42/14/1 48/15/1 19/16/1
f 55/35/14 56/36/15 57/37/15 58/38/14
f 41/13/2 17/14/2 20/15/2 47/16/2
f 59/26/7 60/39/7 56/40/7 55/41/7
f 61/35/16 62/36/17 60/37/17 59/38/16
f 63/42/6 64/43/6 65/44/6 66/45/6
f 67/46/7 68/47/7 64/48/7 63/49/7
f 58/5/9 57/6/9 62/7/9 61/8/9
f 69/45/8 70/44/8 68/43/8 67/42/8
f 71/50/6 72/51/6 73/52/6 74/53/6
f 56/36/15 60/54/17 62/55/17 57/37/15
f 66/42/9 65/56/9 70/4/9 69/43/9
f 64/42/1 68/43/1 70/44/1 65/45/1
f 75/57/18 55/35/19 58/38/20 76/58/18
f 77/59/7 59/60/7 55/61/7 75/30/7
f 78/57/21 61/35/22 59/38/23 77/58/21
f 76/5/9 58/6/9 61/7/9 78/8/9
f 67/42/2 63/43/2 66/44/2 69/45/2
f 79/1/6 80/62/6 81/63/6 82/4/6
f 83/64/7 84/24/7 85/65/7 86/66/7
f 87/67/8 88/68/8 84/69/8 83/70/8
f 85/71/1 84/72/1 88/73/1 89/74/1
f 83/75/2 86/7/2 90/76/2 87/77/2
f 86/67/6 85/68/6 89/69/6 90/70/6
f 90/64/9 89/24/9 88/65/9 87/66/9
f 91/78/6 92/79/6 93/80/6 94/81/6
f 55/5/24 59/6/25 61/7/25 58/8/24
f 77/5/2 75/6/2 76/7/2 78/8/2
f 95/63/7 96/46/7 72/49/7 71/52/7
f 97/82/7 98/83/7 92/80/7 91/81/7
f 99/84/6 75/57/6 76/58/6 100/85/6
f 101/86/7 77/87/7 75/88/7 99/89/7
f 102/84/8 78/57/8 77/58/8 101/85/8
f 100/5/9 76/6/9 78/7/9 102/8/9
f 103/78/8 104/79/8 98/80/8 97/81/8
f 101/5/2 99/6/2 100/7/2 102/8/2
f 105/90/6 9/9/6 12/12/6 106/91/6
f 107/50/8 108/51/8 96/52/8 95/53/8
f 74/5/9 73/6/9 108/7/9 107/8/9
f 72/50/1 96/51/1 108/52/1 73/53/1
f 109/92/7 43/29/7 9/32/7 105/93/7
f 110/1/7 111/62/7 80/63/7 79/4/7
f 94/82/9 93/83/9 104/80/9 103/81/9
f 112/90/8 45/9/8 43/12/8 109/91/8
f 106/92/9 12/29/9 45/32/9 112/93/9
f 109/5/2 105/6/2 106/7/2 112/8/2
f 113/94/6 114/95/6 115/96/6 116/65/6
f 92/5/1 98/6/1 104/7/1 93/8/1
f 95/50/2 71/51/2 74/52/2 107/53/2
f 117/24/7 118/23/7 114/96/7 113/65/7
f 119/94/8 120/95/8 118/96/8 117/65/8
f 97/5/2 91/6/2 94/7/2 103/8/2
f 116/24/9 115/23/9 120/96/9 119/65/9
f 121/1/8 122/62/8 111/63/8 110/4/8
f 82/1/9 81/62/9 122/63/9 121/4/9
f 80/1/1 111/2/1 122/3/1 81/4/1
f 110/5/2 79/6/2 82/7/2 121/8/2
f 21/20/2 24/19/2 123/70/2 124/55/2
f 125/5/1 126/6/1 127/7/1 128/8/1
f 129/78/6 130/79/6 131/80/6 132/81/6
f 114/96/1 118/97/1 120/98/1 115/95/1
f 117/96/2 113/97/2 116/98/2 119/95/2
f 133/94/6 134/95/6 135/96/6 136/65/6
f 137/82/7 138/83/7 130/80/7 129/81/7
f 139/21/6 140/22/6 141/23/6 142/24/6
f 143/99/7 144/74/7 134/100/7 133/101/7
f 145/94/8 146/95/8 144/96/8 143/65/8
f 136/5/9 135/6/9 146/7/9 145/8/9
f 134/66/1 144/102/1 146/103/1 135/67/1
f 147/78/8 148/79/8 138/80/8 137/81/8
f 149/26/7 150/41/7 140/44/7 139/27/7
f 132/82/9 131/83/9 148/80/9 147/81/9
f 143/102/2 133/104/2 136/105/2 145/103/2
f 151/5/6 152/6/6 153/7/6 154/8/6
f 130/5/1 138/6/1 148/7/1 131/8/1
f 137/5/2 129/6/2 132/7/2 147/8/2
f 155/106/7 156/107/7 152/80/7 151/83/7
f 157/21/8 158/22/8 150/23/8 149/24/8
f 159/5/8 160/6/8 156/7/8 155/8/8
f 154/106/9 153/107/9 160/80/9 159/83/9
f 161/68/6 162/77/6 163/75/6 164/69/6
f 165/26/7 166/41/7 162/108/7 161/109/7
f 152/83/1 156/106/1 160/107/1 153/80/1
f 155/83/2 151/106/2 154/107/2 159/80/2
f 167/1/6 168/2/6 169/3/6 170/4/6
f 171/1/7 172/2/7 168/3/7 167/4/7
f 173/26/8 174/41/8 166/44/8 165/27/8
f 164/109/9 163/108/9 174/44/9 173/27/9
f 175/1/8 176/2/8 172/3/8 171/4/8
f 162/108/1 166/44/1 174/27/1 163/109/1
f 170/1/9 169/2/9 176/3/9 175/4/9
f 168/1/1 172/2/1 176/3/1 169/4/1
f 171/1/2 167/2/2 170/3/2 175/4/2
f 165/41/2 161/108/2 164/109/2 173/26/2
f 177/83/6 178/14/6 179/110/6 180/80/6
f 181/111/26 182/112/2 47/106/2 20/113/26
f 183/83/7 184/14/7 178/110/7 177/80/7
f 185/83/8 186/14/8 184/110/8 183/80/8
f 182/114/8 187/115/8 48/15/8 47/16/8
f 181/116/9 188/117/9 187/118/9 182/119/9
f 24/20/6 23/19/6 189/70/6 123/55/6
f 142/5/9 141/6/9 158/7/9 157/8/9
f 123/120/9 189/121/9 190/18/9 124/17/9
f 124/20/8 190/19/8 22/70/8 21/55/8
f 23/20/1 22/19/1 190/70/1 189/55/1
f 53/83/9 128/106/9 127/107/9 54/80/9
f 6/21/6 141/22/6 191/23/6 7/24/6
f 20/5/26 192/6/27 188/7/27 181/8/26
f 180/83/9 179/14/9 186/110/9 185/80/9
f 140/21/1 150/22/1 158/23/1 141/24/1
f 178/5/1 184/6/1 186/7/1 179/8/1
f 47/122/7 48/117/7 192/118/7 20/123/7
f 183/5/2 177/6/2 180/7/2 185/8/2
f 149/5/2 139/6/2 142/7/2 157/8/2
f 193/95/2 194/98/2 195/97/2 196/96/2
f 5/5/7 158/6/7 141/7/7 6/8/7
f 8/21/8 197/22/8 158/23/8 5/24/8
f 7/5/9 191/6/9 197/7/9 8/8/9
f 141/21/1 158/22/1 197/23/1 191/24/1
f 196/94/8 198/95/8 199/96/8 193/65/8
f 195/24/9 200/23/9 198/96/9 196/65/9
f 14/1/6 1/62/6 4/63/6 15/4/6
f 194/94/6 201/95/6 200/96/6 195/65/6
f 187/112/1 188/124/1 192/125/1 48/106/1
f 13/1/7 2/62/7 1/63/7 14/4/7
f 16/1/8 3/62/8 2/63/8 13/4/8
f 193/24/7 199/23/7 201/96/7 194/65/7
f 201/95/1 199/98/1 198/97/1 200/96/1
f 10/10/28 202/33/29 203/34/29 11/11/28
f 15/1/9 4/62/9 3/63/9 16/4/9
f 44/30/7 50/126/7 202/127/7 10/31/7
f 11/30/9 203/126/9 49/127/9 46/31/9
f 204/1/1 205/2/1 206/3/1 207/4/1
f 51/83/7 126/106/7 125/107/7 52/80/7
f 202/33/29 50/44/13 49/22/13 203/34/29
f 44/5/2 10/6/2 11/7/2 46/8/2
f 54/83/8 127/106/8 126/107/8 51/80/8
f 208/1/2 209/2/2 210/3/2 211/4/2
f 212/104/1 213/97/1 214/128/1 215/129/1
f 208/1/7 205/2/7 204/3/7 209/4/7
f 211/1/8 206/2/8 205/3/8 208/4/8
f 52/83/6 125/106/6 128/107/6 53/80/6
f 210/1/9 207/2/9 206/3/9 211/4/9
f 216/5/2 217/6/2 218/7/2 219/8/2
f 217/123/6 212/130/6 215/131/6 218/132/6
f 216/133/7 213/134/7 212/135/7 217/136/7
f 209/1/6 204/2/6 207/3/6 210/4/6
f 219/132/8 214/131/8 213/130/8 216/123/8
f 218/133/9 215/134/9 214/135/9 219/136/9
f 220/21/6 221/22/6 222/23/6 223/24/6
f 224/5/7 225/6/7 221/7/7 220/8/7
f 226/21/8 227/22/8 225/23/8 224/24/8
f 223/25/9 222/26/9 227/27/9 226/28/9
f 221/21/1 225/22/1 227/23/1 222/24/1
f 224/5/2 220/6/2 223/7/2 226/8/2
f 228/137/6 229/107/6 230/47/6 231/138/6
f 232/137/7 233/107/7 229/47/7 228/138/7
f 234/137/8 235/107/8 233/47/8 232/138/8
f 231/137/9 230/107/9 235/47/9 234/138/9
f 229/5/1 233/6/1 235/7/1 230/8/1
f 232/5/2 228/6/2 231/7/2 234/8/2
f 236/35/14 237/36/15 238/37/15 239/38/14
f 240/5/7 241/6/7 237/7/7 236/8/7
f 242/35/16 243/36/17 241/37/17 240/38/16
f 239/5/9 238/6/9 243/7/9 242/8/9
f 237/36/15 241/54/17 243/55/17 238/37/15
f 244/57/18 236/35/19 239/38/20 245/58/18
f 246/5/7 240/6/7 236/7/7 244/8/7
f 247/57/21 242/35/22 240/38/23 246/58/21
f 245/5/9 239/6/9 242/7/9 247/8/9
f 236/5/24 240/6/25 242/7/25 239/8/24
f 246/5/2 244/6/2 245/7/2 247/8/2
f 248/84/6 244/57/6 245/58/6 249/85/6
f 250/5/7 246/6/7 244/7/7 248/8/7
f 251/84/8 247/57/8 246/58/8 250/85/8
f 249/5/9 245/6/9 247/7/9 251/8/9
f 250/5/2 248/6/2 249/7/2 251/8/2
f 252/10/28 253/33/29 254/34/29 255/11/28
f 256/30/7 257/126/7 253/127/7 252/31/7
f 258/10/12 259/33/13 257/34/13 256/11/12
f 255/30/9 254/126/9 259/127/9 258/31/9
f 253/33/29 257/44/13 259/22/13 254/34/29
f 260/9/3 252/10/30 255/11/5 261/12/3
f 262/29/7 256/30/7 252/31/7 260/32/7
f 263/9/10 258/10/11 256/11/31 262/12/10
f 261/29/9 255/30/9 258/31/9 263/32/9
f 252/5/32 256/6/31 258/7/33 255/8/5
f 264/90/6 260/9/6 261/12/6 265/91/6
f 266/92/7 262/29/7 260/32/7 264/93/7
f 267/90/8 263/9/8 262/12/8 266/91/8
f 265/92/9 261/29/9 263/32/9 267/93/9
f 260/5/1 262/6/1 263/7/1 261/8/1
f 266/5/2 264/6/2 265/7/2 267/8/2
f 268/94/6 269/95/6 270/96/6 271/65/6
f 272/24/7 273/23/7 269/96/7 268/65/7
f 274/94/8 275/95/8 273/96/8 272/65/8
f 271/24/9 270/23/9 275/96/9 274/65/9
f 269/97/1 273/96/1 275/95/1 270/98/1
f 272/96/2 268/97/2 271/98/2 274/95/2
f 276/139/6 277/140/6 278/141/6 279/142/6
f 280/5/7 281/6/7 277/7/7 276/8/7
f 282/139/8 283/140/8 281/141/8 280/142/8
f 279/5/9 278/6/9 283/7/9 282/8/9
f 277/143/1 281/144/1 283/145/1 278/146/1
f 280/143/2 276/144/2 279/145/2 282/146/2
f 284/10/28 285/33/29 286/34/29 287/11/28
f 288/30/7 289/126/7 285/127/7 284/31/7
f 290/10/12 291/33/13 289/34/13 288/11/12
f 287/30/9 286/126/9 291/127/9 290/31/9
f 285/33/29 289/44/13 291/22/13 286/34/29
f 288/5/2 284/6/2 287/7/2 290/8/2
f 292/9/3 284/10/30 287/11/5 293/12/3
f 294/29/7 288/30/7 284/31/7 292/32/7
f 295/9/10 290/10/11 288/11/31 294/12/10
f 293/29/9 287/30/9 290/31/9 295/32/9
f 296/90/6 292/9/6 293/12/6 297/91/6
f 298/92/7 294/29/7 292/32/7 296/93/7
f 299/90/8 295/9/8 294/12/8 298/91/8
f 297/92/9 293/29/9 295/32/9 299/93/9
f 292/5/1 294/6/1 295/7/1 293/8/1
f 298/5/2 296/6/2 297/7/2 299/8/2
