# Made in Blockbench 5.0.4
mtllib steam_turbine.mtl

o cube
v 2 -1 -8
v 2 0 -8
v -1 0 -8
v -1 -1 -8
v 1.3125 0.875 0.375
v 1.6875 0.875 0.375
v 1.6875 0.875 0.75
v 1.3125 0.875 0.75
v 1 0 -0.25
v 0 0 -0.25
v 0 0 0
v 1 0 0
v -0.75 0.25 -2.75
v -0.5 1 -2.75
v -0.5 1 -1.75
v -0.75 0.25 -1.75
v 1.6875 0.75 0.375
v 1.3125 0.75 0.375
v 1.3125 0.75 0.75
v 1.6875 0.75 0.75
v 1.25 0.25 -0.75
v 1.25 0.75 -0.75
v 1.25 0.75 0.875
v 1.25 0.25 0.875
v 0.125 2.125 -2.5
v 0.125 2.875 -2.5
v 0.875 2.875 -2.5
v 0.875 2.125 -2.5
v 0 0 -8
v 0 1 -8
v 0 1 -7.75
v 0 0 -7.75
v 1 1 -7.75
v 1 0 -7.75
v 1 1 -8
v 1 0 -8
v 0 0 -4.25
v 0 1 -4.25
v 0 1 -4
v 0 0 -4
v 1 1 -4
v 1 0 -4
v 1 1 -4.25
v 1 0 -4.25
v 1.75 0.75 0.875
v 1.75 0.25 0.875
v 1.5 1 -1.75
v 1.75 0.25 -1.75
v 1.5 1 -2.75
v 1.75 0.25 -2.75
v 1.75 0.75 -0.75
v 1.75 0.25 -0.75
v 0.875 1.5 -1.75
v 0.875 1.5 -2.75
v 1.5 1 -2.75
v 0.625 0.5 0.4375
v 0.375 0.5 0.4375
v 0.375 0.5 0.6875
v 0.625 0.5 0.6875
v 0 0.75 -1.75
v 0.375 1 -1.75
v 0.375 1 -0.25
v 0 0.75 -0.25
v 0.625 1 -0.25
v 1 0.75 -0.25
v 0.625 1 -1.75
v 1 0.75 -1.75
v 1.125 0.125 0.875
v 1.125 0.875 0.875
v 1.125 0.875 1
v 1.125 0.125 1
v 1.875 0.875 1
v 1.875 0.125 1
v 1.875 0.875 0.875
v 1.875 0.125 0.875
v 0.125 -0.375 0.25
v 0.125 0.375 0.25
v 0.125 0.375 0.875
v 0.125 -0.375 0.875
v -0.25 0.25 -1.75
v -0.25 0.25 -0.25
v 1.25 0.25 -0.25
v 1.25 0.25 -1.75
v 0.3125 0.375 0.375
v 0.3125 0.5 0.375
v 0.3125 0.5 0.75
v 0.3125 0.375 0.75
v -1 -1 1
v -1 -0.5 1
v 2 -0.5 1
v 2 -1 1
v 2 -0.5 0
v 2 -1 0
v -1 -0.5 0
v -1 -1 0
v -0.875 -0.5 0.125
v -0.875 0 0.125
v -0.875 0 0.25
v -0.875 -0.5 0.25
v 0.875 0.375 0.875
v 0.875 -0.375 0.875
v -0.625 0 0.25
v -0.625 -0.5 0.25
v -0.25 0 -1.75
v -0.25 0 -0.25
v 1.25 0 -0.25
v 1.25 0 -1.75
v -0.625 0 0.125
v -0.625 -0.5 0.125
v -0.75 0 -2.75
v -0.75 0.25 -2.75
v -0.75 0 -1.75
v 0.875 0.375 0.25
v 0.875 -0.375 0.25
v 1.75 0 -1.75
v 0.6875 0.5 0.75
v 0.6875 0.375 0.75
v 1.75 0.25 -2.75
v 1.75 0 -2.75
v -1 -1 -3
v -1 0 -3
v -1 0 -1.5
v -1 -1 -1.5
v 2 0 -1.5
v 2 -1 -1.5
v 2 0 -3
v 2 -1 -3
v 0.6875 0.5 0.375
v 0.6875 0.375 0.375
v 0.875 2.125 -6.375
v 0.125 2.125 -6.375
v 0.375 1.125 0.4375
v 0.625 1.125 0.4375
v 0.625 1.125 0.6875
v 0.375 1.125 0.6875
v -0.875 -0.5 0.75
v -0.875 0 0.75
v -0.875 0 0.875
v -0.875 -0.5 0.875
v -0.5 -1 -1.5
v -0.5 0 -1.5
v -0.5 0 0
v -0.5 -1 0
v -0.625 0 0.875
v -0.625 -0.5 0.875
v 0 -0.5 0
v 0 0.5 0
v 0 0.5 0.25
v 0 -0.5 0.25
v 1.5 0 0
v 1.5 -1 0
v 1.5 0 -1.5
v 1.5 -1 -1.5
v -0.625 0 0.75
v -0.625 -0.5 0.75
v 1 0.5 0.25
v 1 -0.5 0.25
v 0.6875 1.1875 0.4375
v 0.6875 1.4375 0.4375
v 0.6875 1.4375 0.6875
v 0.6875 1.1875 0.6875
v 1.3125 1.4375 0.6875
v 1.3125 1.1875 0.6875
v 1 0.5 0
v 1 -0.5 0
v 1.3125 1.4375 0.4375
v 1.3125 1.1875 0.4375
v -1 0 0
v -1 1 0
v -1 1 1
v -1 0 1
v -0.5 1 1
v -0.5 0 1
v 1.3125 1.125 0.375
v 1.3125 1.5 0.375
v 1.3125 1.5 0.75
v 1.3125 1.125 0.75
v 1.6875 1.5 0.75
v 1.6875 1.125 0.75
v -0.5 1 0
v -0.5 0 0
v 1.6875 1.5 0.375
v 1.6875 1.125 0.375
v 1.375 0.875 0.4375
v 1.375 1.125 0.4375
v 1.375 1.125 0.6875
v 1.375 0.875 0.6875
v 1.25 0.25 -0.75
v 1.75 0.25 -0.75
v 1.75 0.25 -1.25
v 1.25 0.25 -1.25
v 1.625 1.125 0.6875
v 1.625 0.875 0.6875
v 1.625 1.125 0.4375
v 1.625 0.875 0.4375
v 1.75 0.75 -0.75
v 1.75 0.75 -1.25
v 1 0.75 -1.25
v 0.125 2.875 -6.375
v 0.875 2.875 -6.375
v 0 0.5 -0.25
v 1 0.75 -0.75
v 2 -1 -5.5
v -1 -1 -5.5
v -1 -1 -4
v 2 -1 -4
v 1 0.5 -0.25
v 2 0 -4
v 2 0 -5.5
v -1 0 -5.5
v -1 0 -4
v -0.5 1 -2.75
v 0.125 1.5 -2.75
v 0.125 1.5 -1.75
v 0.3125 1.5 0.375
v 0.6875 1.5 0.375
v 0.6875 1.5 0.75
v 0.3125 1.5 0.75
v 0.6875 1.125 0.375
v 0.3125 1.125 0.375
v 0.3125 1.125 0.75
v 0.6875 1.125 0.75
v 0.25 2.75 -2.5
v 0.75 2.75 -2.5
v 0.75 2.75 -2
v 0.25 2.75 -2
v 0.75 1.5 -2.5
v 0.25 1.5 -2.5
v 0.25 1.5 -2
v 0.75 1.5 -2
v 0 0 -3
v 0 1 -3
v 0 1 -2.75
v 0 0 -2.75
v 1 1 -2.75
v 1 0 -2.75
v 1 1 -3
v 1 0 -3
v 0.25 0.9375 -6.25
v 0.25 2.125 -6.25
v 0.25 2.125 -5.75
v 0.25 0.9375 -5.75
v 0.75 2.125 -5.75
v 0.75 0.9375 -5.75
v 0.75 2.125 -6.25
v 0.75 0.9375 -6.25
v 0 0.75 -6.75
v 0.375 1 -6.75
v 0.375 1 -5.25
v 0 0.75 -5.25
v 0.625 1 -5.25
v 1 0.75 -5.25
v 0.625 1 -6.75
v 1 0.75 -6.75
v -0.25 0.25 -6.75
v -0.25 0.25 -5.25
v 1.25 0.25 -5.25
v 1.25 0.25 -6.75
v -0.25 0 -6.75
v -0.25 0 -5.25
v 1.25 0 -5.25
v 1.25 0 -6.75
v -0.5 1 -7.75
v 0.125 1.5 -7.75
v 0.125 1.5 -6.75
v -0.5 1 -6.75
v 0.875 1.5 -6.75
v 1.5 1 -6.75
v 0.875 1.5 -7.75
v 1.5 1 -7.75
v -0.75 0.25 -7.75
v -0.75 0.25 -6.75
v 1.75 0.25 -6.75
v 1.75 0.25 -7.75
v -0.75 0 -7.75
v -0.75 0 -6.75
v 1.75 0 -6.75
v 1.75 0 -7.75
v -1 0 -6.5
v -1 -1 -6.5
v 2 0 -6.5
v 2 -1 -6.5
v -0.5 -1 -6.5
v -0.5 0 -6.5
v -0.5 0 -5.5
v -0.5 -1 -5.5
v 1.5 0 -5.5
v 1.5 -1 -5.5
v 1.5 0 -6.5
v 1.5 -1 -6.5
v -0.5 1 -5.25
v 0.125 1.5 -5.25
v 0.125 1.5 -4.25
v -0.5 1 -4.25
v 0.875 1.5 -4.25
v 1.5 1 -4.25
v 0.875 1.5 -5.25
v 1.5 1 -5.25
v -0.75 0.25 -5.25
v -0.75 0.25 -4.25
v 1.75 0.25 -4.25
v 1.75 0.25 -5.25
v -0.75 0 -5.25
v -0.75 0 -4.25
v 1.75 0 -4.25
v 1.75 0 -5.25
vt 0.59375 0.15625
vt 0.21875 0.15625
vt 0.21875 0.03125
vt 0.59375 0.03125
vt 0.890625 0.78125
vt 0.84375 0.78125
vt 0.84375 0.734375
vt 0.890625 0.734375
vt 1 1
vt 0 1
vt 0 0
vt 1 0
vt 0.84375 0.42968798611111103
vt 0.71875 0.42968798611111103
vt 0.71875 0.328125
vt 0.84375 0.328125
vt 1 1
vt 0 1
vt 0 0
vt 1 0
vt 0.9375 0.890625
vt 0.9375 0.6875
vt 1 0.6875
vt 1 0.890625
vt 0.578125 0.4375
vt 0.484375 0.4375
vt 0.484375 0.34375
vt 0.578125 0.34375
vt 0.71875 0.625
vt 0.6875 0.625
vt 0.6875 0.5
vt 0.71875 0.5
vt 1 1
vt 0 1
vt 0 0
vt 1 0
vt 0.71875 0.625
vt 0.6875 0.625
vt 0.6875 0.5
vt 0.71875 0.5
vt 0.96875 0.5
vt 0.84375 0.5
vt 0.84375 0.375
vt 0.96875 0.375
vt 0.71875 0.625
vt 0.6875 0.625
vt 0.6875 0.5
vt 0.71875 0.5
vt 1 1
vt 0 1
vt 0 0
vt 1 0
vt 0.71875 0.625
vt 0.6875 0.625
vt 0.6875 0.5
vt 0.71875 0.5
vt 0.96875 0.5
vt 0.84375 0.5
vt 0.84375 0.375
vt 0.96875 0.375
vt 0.71875 0.625
vt 0.6875 0.625
vt 0.6875 0.5
vt 0.71875 0.5
vt 1 1
vt 0 1
vt 0 0
vt 1 0
vt 0.71875 0.625
vt 0.6875 0.625
vt 0.6875 0.5
vt 0.71875 0.5
vt 1 1
vt 0 1
vt 0 0
vt 1 0
vt 1 1
vt 0 1
vt 0 0
vt 1 0
vt 0.46875 0.28125
vt 0.21875 0.28125
vt 0.1875 0.1875
vt 0.5 0.1875
vt 0.84375 0.42968798611111103
vt 0.71875 0.42968798611111103
vt 0.71875 0.328125
vt 0.84375 0.328125
vt 0.46875 0.28125
vt 0.21875 0.28125
vt 0.1875 0.1875
vt 0.5 0.1875
vt 0.9375 0.6875
vt 0.9375 0.890625
vt 1 0.890625
vt 1 0.6875
vt 1 1
vt 0 1
vt 0 0
vt 1 0
vt 1 1
vt 0 1
vt 0 0
vt 1 0
vt 0.84375 0.53125
vt 0.71875 0.53125
vt 0.71875 0.42968798611111103
vt 0.84375 0.42968798611111103
vt 1 1
vt 0 1
vt 0 0
vt 1 0
vt 1 1
vt 0 1
vt 0 0
vt 1 0
vt 0.9375 0.890625
vt 0.9375 0.6875
vt 1 0.6875
vt 1 0.890625
vt 0.1875 0.3125
vt 0 0.3125
vt 0 0.25
vt 0.1875 0.25
vt 0.9375 0.890625
vt 0.9375 0.6875
vt 1 0.6875
vt 1 0.890625
vt 1 0.546875
vt 1 0.578125
vt 0.96875 0.625
vt 0.96875 0.5
vt 0.1875 0.3125
vt 0 0.3125
vt 0 0.25
vt 0.1875 0.25
vt 0.84375 0.640625
vt 0.84375 0.625
vt 0.9375 0.625
vt 0.9375 0.640625
vt 0.84375 0.9375
vt 0.75 0.9375
vt 0.75 0.84375
vt 0.84375 0.84375
vt 1 1
vt 0 1
vt 0 0
vt 1 0
vt 0.84375 0.625
vt 0.84375 0.640625
vt 0.9375 0.640625
vt 0.9375 0.625
vt 0.828125 0.75
vt 0.75 0.75
vt 0.75 0.65625
vt 0.828125 0.65625
vt 0.1875 0.34375
vt 0 0.34375
vt 0 0.3125
vt 0.1875 0.3125
vt 0.9375 0.734375
vt 0.84375 0.734375
vt 0.84375 0.640625
vt 0.9375 0.640625
vt 0.84375 0.640625
vt 0.84375 0.625
vt 0.9375 0.625
vt 0.9375 0.640625
vt 0.1875 0.25
vt 0 0.25
vt 0 0.17968798611111103
vt 0.1875 0.17968798611111103
vt 0.625 0.34375
vt 0.5 0.34375
vt 0.46875 0.28125
vt 0.65625 0.28125
vt 0.1875 0.25
vt 0 0.25
vt 0 0.17968798611111103
vt 0.1875 0.17968798611111103
vt 1 1
vt 0 1
vt 0 0
vt 1 0
vt 0.84375 0.640625
vt 0.84375 0.625
vt 0.9375 0.625
vt 0.9375 0.640625
vt 0.890625 0.75
vt 0.84375 0.75
vt 0.84375 0.734375
vt 0.890625 0.734375
vt 0.6875 0.5
vt 0.3125 0.5
vt 0.3125 0.4375
vt 0.6875 0.4375
vt 0.125 0.5
vt 0 0.5
vt 0 0.4375
vt 0.125 0.4375
vt 0.75 1
vt 0.625 1
vt 0.625 0.625
vt 0.75 0.625
vt 0 1
vt 0.125 1
vt 0.125 0.625
vt 0 0.625
vt 0.125 0.5
vt 0 0.5
vt 0 0.4375
vt 0.125 0.4375
vt 0.6875 0.5
vt 0.3125 0.5
vt 0.3125 0.4375
vt 0.6875 0.4375
vt 0.921875 0.859375
vt 0.90625 0.859375
vt 0.90625 0.796875
vt 0.921875 0.796875
vt 1 1
vt 0 1
vt 0 0
vt 1 0
vt 1 1
vt 0 1
vt 0 0
vt 1 0
vt 0.84375 0.84375
vt 0.75 0.84375
vt 0.75 0.75
vt 0.84375 0.75
vt 0.9375 0.859375
vt 0.90625 0.859375
vt 0.90625 0.796875
vt 0.9375 0.796875
vt 0.1875 0.17968798611111103
vt 0 0.17968798611111103
vt 0 0.14843798611111103
vt 0.1875 0.14843798611111103
vt 0.6875 0.28125
vt 0.5 0.28125
vt 0.5 0.25
vt 0.6875 0.25
vt 0.1875 0.17968798611111103
vt 0 0.17968798611111103
vt 0 0.14843798611111103
vt 0.1875 0.14843798611111103
vt 0 0
vt 0 1
vt 1 1
vt 1 0
vt 0.921875 0.859375
vt 0.90625 0.859375
vt 0.90625 0.796875
vt 0.921875 0.796875
vt 1 1
vt 0 1
vt 0 0
vt 1 0
vt 0.84375 0.328125
vt 0.71875 0.328125
vt 0.71875 0.296875
vt 0.84375 0.296875
vt 0.828125 0.75
vt 0.75 0.75
vt 0.75 0.65625
vt 0.828125 0.65625
vt 1 1
vt 0 1
vt 0 0
vt 1 0
vt 0.828125 0.75
vt 0.75 0.75
vt 0.75 0.65625
vt 0.828125 0.65625
vt 0.5 0.1875
vt 0.1875 0.1875
vt 0.1875 0.15625
vt 0.5 0.15625
vt 0.890625 0.75
vt 0.84375 0.75
vt 0.84375 0.734375
vt 0.890625 0.734375
vt 0.9375 0.859375
vt 0.90625 0.859375
vt 0.90625 0.796875
vt 0.9375 0.796875
vt 0.84375 0.328125
vt 0.71875 0.328125
vt 0.71875 0.296875
vt 0.84375 0.296875
vt 0.5 0.1875
vt 0.1875 0.1875
vt 0.1875 0.15625
vt 0.5 0.15625
vt 1 1
vt 0 1
vt 0 0
vt 1 0
vt 1 1
vt 0 1
vt 0 0
vt 1 0
vt 0.5 0.625
vt 0.3125 0.625
vt 0.3125 0.5
vt 0.5 0.5
vt 1 1
vt 0 1
vt 0 0
vt 1 0
vt 0.828125 0.75
vt 0.75 0.75
vt 0.75 0.65625
vt 0.828125 0.65625
vt 0.6875 0.625
vt 0.3125 0.625
vt 0.3125 0.5
vt 0.6875 0.5
vt 0.5 0.625
vt 0.3125 0.625
vt 0.3125 0.5
vt 0.5 0.5
vt 1 1
vt 0 1
vt 0 0
vt 1 0
vt 0.6875 0.625
vt 0.3125 0.625
vt 0.3125 0.5
vt 0.6875 0.5
vt 0.890625 0.75
vt 0.84375 0.75
vt 0.84375 0.734375
vt 0.890625 0.734375
vt 0.890625 0.75
vt 0.84375 0.75
vt 0.84375 0.734375
vt 0.890625 0.734375
vt 0.890625 0.78125
vt 0.84375 0.78125
vt 0.84375 0.734375
vt 0.890625 0.734375
vt 1 1
vt 0 1
vt 0 0
vt 1 0
vt 0.484375 0.4375
vt 0 0.4375
vt 0 0.34375
vt 0.484375 0.34375
vt 1 1
vt 0 1
vt 0 0
vt 1 0
vt 0.921875 0.859375
vt 0.90625 0.859375
vt 0.90625 0.796875
vt 0.921875 0.796875
vt 0.3125 1
vt 0.5 1
vt 0.5 0.625
vt 0.3125 0.625
vt 0.3125 1
vt 0.5 1
vt 0.5 0.625
vt 0.3125 0.625
vt 0.5 0.625
vt 0.3125 0.625
vt 0.3125 0.5
vt 0.5 0.5
vt 0.9375 0.859375
vt 0.90625 0.859375
vt 0.90625 0.796875
vt 0.9375 0.796875
vt 0.71875 0.625
vt 0.6875 0.625
vt 0.6875 0.5
vt 0.71875 0.5
vt 0.625 0.625
vt 0.375 0.625
vt 0.375 0.5
vt 0.625 0.5
vt 0.5 0.625
vt 0.3125 0.625
vt 0.3125 0.5
vt 0.5 0.5
vt 0 0
vt 0 1
vt 1 1
vt 1 0
vt 0.3125 0.6875
vt 0.125 0.6875
vt 0.125 0.4375
vt 0.3125 0.4375
vt 0.921875 0.859375
vt 0.90625 0.859375
vt 0.90625 0.796875
vt 0.921875 0.796875
vt 0.96875 0.625
vt 0.84375 0.625
vt 0.84375 0.5
vt 0.96875 0.5
vt 0.9375 0.859375
vt 0.90625 0.859375
vt 0.90625 0.796875
vt 0.9375 0.796875
vt 0.3125 0.9375
vt 0.125 0.9375
vt 0.125 0.6875
vt 0.3125 0.6875
vt 1 1
vt 0 1
vt 0 0
vt 1 0
vt 1 1
vt 0 1
vt 0 0
vt 1 0
vt 1 1
vt 0 1
vt 0 0
vt 1 0
vt 0.90625 0.9375
vt 0.90625 0.859375
vt 0.9375 0.859375
vt 0.9375 0.9375
vt 0.71875 0.625
vt 0.6875 0.625
vt 0.6875 0.5
vt 0.71875 0.5
vt 1 1
vt 0 1
vt 0 0
vt 1 0
vt 0.90625 0.9375
vt 0.90625 0.859375
vt 0.9375 0.859375
vt 0.9375 0.9375
vt 0.125 0.625
vt 0 0.625
vt 0 0.5
vt 0.125 0.5
vt 0.96875 0.625
vt 0.90625 0.625
vt 0.90625 0.5
vt 0.96875 0.5
vt 0.9375 0.9375
vt 0.90625 0.9375
vt 0.90625 0.859375
vt 0.9375 0.859375
vt 0.9375 0.9375
vt 0.90625 0.9375
vt 0.90625 0.859375
vt 0.9375 0.859375
vt 0.890625 0.78125
vt 0.84375 0.78125
vt 0.84375 0.734375
vt 0.890625 0.734375
vt 0.890625 0.78125
vt 0.84375 0.78125
vt 0.84375 0.734375
vt 0.890625 0.734375
vt 0.96875 0.625
vt 0.84375 0.625
vt 0.84375 0.5
vt 0.96875 0.5
vt 0.90625 0.625
vt 0.84375 0.625
vt 0.84375 0.5
vt 0.90625 0.5
vt 0.890625 0.78125
vt 0.84375 0.78125
vt 0.84375 0.734375
vt 0.890625 0.734375
vt 0.84375 0.625
vt 0.84375 0.5
vt 0.90625 0.5
vt 0.90625 0.625
vt 0.890625 0.78125
vt 0.84375 0.78125
vt 0.84375 0.734375
vt 0.890625 0.734375
vt 0.890625 0.78125
vt 0.84375 0.78125
vt 0.84375 0.734375
vt 0.890625 0.734375
vt 0.890625 0.78125
vt 0.84375 0.78125
vt 0.84375 0.734375
vt 0.890625 0.734375
vt 0.90625 0.625
vt 0.90625 0.5
vt 0.96875 0.5
vt 0.96875 0.625
vt 0.9375 0.890625
vt 0.90625 0.890625
vt 0.90625 0.859375
vt 0.9375 0.859375
vt 1 0.9375
vt 0.9375 0.9375
vt 0.9375 0.875
vt 1 0.875
vt 0.9375 0.890625
vt 0.90625 0.890625
vt 0.90625 0.859375
vt 0.9375 0.859375
vt 0.9375 0.890625
vt 0.90625 0.890625
vt 0.90625 0.859375
vt 0.9375 0.859375
vt 0.9375 0.75
vt 0.9375 0.6875
vt 1 0.6875
vt 1 0.75
vt 0.9375 0.28125
vt 0.9375 0.1875
vt 1 0.1875
vt 1 0.25
vt 0.484375 0.4375
vt 0 0.4375
vt 0 0.34375
vt 0.484375 0.34375
vt 1 1
vt 0 1
vt 0 0
vt 1 0
vt 0.671875 0.4375
vt 0.578125 0.4375
vt 0.578125 0.34375
vt 0.671875 0.34375
vt 0.484375 0.4375
vt 0 0.4375
vt 0 0.34375
vt 0.484375 0.34375
vt 0.484375 0.4375
vt 0 0.4375
vt 0 0.34375
vt 0.484375 0.34375
vt 0.9375 0.9375
vt 0.90625 0.9375
vt 0.90625 0.859375
vt 0.9375 0.859375
vt 0.71875 0.625
vt 0.6875 0.625
vt 0.6875 0.5
vt 0.71875 0.5
vt 1 1
vt 0 1
vt 0 0
vt 1 0
vt 0.9375 0.890625
vt 0.90625 0.890625
vt 0.90625 0.859375
vt 0.9375 0.859375
vt 0.71875 0.625
vt 0.6875 0.625
vt 0.6875 0.5
vt 0.71875 0.5
vt 1 1
vt 0 1
vt 0 0
vt 1 0
vt 0.9375 0.28125
vt 0.9375 0.1875
vt 1 0.21875
vt 1 0.28125
vt 1 1
vt 0 1
vt 0 0
vt 1 0
vt 1 1
vt 0 1
vt 0 0
vt 1 0
vt 0.5 1
vt 0.3125 1
vt 0.3125 0.625
vt 0.5 0.625
vt 1 1
vt 0 1
vt 0 0
vt 1 0
vt 0.71875 0.625
vt 0.6875 0.625
vt 0.6875 0.5
vt 0.71875 0.5
vt 1 1
vt 0 1
vt 0 0
vt 1 0
vt 0.71875 0.625
vt 0.6875 0.625
vt 0.6875 0.5
vt 0.71875 0.5
vt 0.5 0.625
vt 0.3125 0.625
vt 0.3125 0.5
vt 0.5 0.5
vt 0.6875 0.625
vt 0.3125 0.625
vt 0.3125 0.5
vt 0.6875 0.5
vt 0.890625 0.75
vt 0.84375 0.75
vt 0.84375 0.734375
vt 0.890625 0.734375
vt 0.5 0.625
vt 0.3125 0.625
vt 0.3125 0.5
vt 0.5 0.5
vt 1 0.84375
vt 0.9375 0.84375
vt 0.9375 0.9375
vt 1 0.9375
vt 0.890625 0.75
vt 0.84375 0.75
vt 0.84375 0.734375
vt 0.890625 0.734375
vt 0.890625 0.75
vt 0.84375 0.75
vt 0.84375 0.734375
vt 0.890625 0.734375
vt 0.6875 0.625
vt 0.3125 0.625
vt 0.3125 0.5
vt 0.6875 0.5
vt 0.5 1
vt 0.3125 1
vt 0.3125 0.625
vt 0.5 0.625
vt 0.84375 0.53125
vt 0.71875 0.53125
vt 0.71875 0.42968798611111103
vt 0.84375 0.42968798611111103
vt 0.890625 0.75
vt 0.84375 0.75
vt 0.84375 0.734375
vt 0.890625 0.734375
vt 0.390625 0.34375
vt 0.296875 0.34375
vt 0.21875 0.28125
vt 0.46875 0.28125
vt 0.390625 0.34375
vt 0.296875 0.34375
vt 0.21875 0.28125
vt 0.46875 0.28125
vt 0.890625 0.78125
vt 0.84375 0.78125
vt 0.84375 0.734375
vt 0.890625 0.734375
vt 0.9375 0.9375
vt 0.90625 0.9375
vt 0.90625 0.859375
vt 0.9375 0.859375
vt 0.84375 0.625
vt 0.71875 0.625
vt 0.71875 0.53125
vt 0.84375 0.53125
vt 1 1
vt 0 1
vt 0 0
vt 1 0
vt 0.9375 0.9375
vt 0.90625 0.9375
vt 0.90625 0.859375
vt 0.9375 0.859375
vt 0.890625 0.78125
vt 0.84375 0.78125
vt 0.84375 0.734375
vt 0.890625 0.734375
vt 0.3125 1
vt 0.25 1
vt 0.25 0.9375
vt 0.3125 0.9375
vt 0.890625 0.78125
vt 0.84375 0.78125
vt 0.84375 0.734375
vt 0.890625 0.734375
vt 0.890625 0.78125
vt 0.84375 0.78125
vt 0.84375 0.734375
vt 0.890625 0.734375
vt 0.9375 0.9375
vt 0.90625 0.9375
vt 0.90625 0.859375
vt 0.9375 0.859375
vt 0.890625 0.78125
vt 0.84375 0.78125
vt 0.84375 0.734375
vt 0.890625 0.734375
vt 1 1
vt 0 1
vt 0 0
vt 1 0
vt 1 0.375
vt 0.9375 0.375
vt 0.9375 0.21875
vt 1 0.21875
vt 1 0.328125
vt 0.9375 0.328125
vt 0.9375 0.171875
vt 1 0.171875
vt 0.890625 0.78125
vt 0.84375 0.78125
vt 0.84375 0.734375
vt 0.890625 0.734375
vt 0.9375 0.375
vt 1 0.375
vt 1 0.21875
vt 0.9375 0.21875
vt 1 0.328125
vt 0.9375 0.328125
vt 0.9375 0.171875
vt 1 0.171875
vt 0.71875 0.625
vt 0.6875 0.625
vt 0.6875 0.5
vt 0.71875 0.5
vt 1 1
vt 0 1
vt 0 0
vt 1 0
vt 0.71875 0.625
vt 0.6875 0.625
vt 0.6875 0.5
vt 0.71875 0.5
vt 0.96875 0.5
vt 0.84375 0.5
vt 0.84375 0.375
vt 0.96875 0.375
vt 0.71875 0.625
vt 0.6875 0.625
vt 0.6875 0.5
vt 0.71875 0.5
vt 1 1
vt 0 1
vt 0 0
vt 1 0
vt 0.90625 0.9375
vt 0.84375 0.9375
vt 0.84375 0.7890620138888889
vt 0.90625 0.7890620138888889
vt 0.90625 0.9375
vt 0.84375 0.9375
vt 0.84375 0.7890620138888889
vt 0.90625 0.7890620138888889
vt 0.90625 0.9375
vt 0.84375 0.9375
vt 0.84375 0.7890620138888889
vt 0.90625 0.7890620138888889
vt 0.90625 0.9375
vt 0.84375 0.9375
vt 0.84375 0.7890620138888889
vt 0.90625 0.7890620138888889
vt 1 1
vt 0 1
vt 0 0
vt 1 0
vt 1 1
vt 0 1
vt 0 0
vt 1 0
vt 0.1875 0.3125
vt 0 0.3125
vt 0 0.25
vt 0.1875 0.25
vt 1 1
vt 0 1
vt 0 0
vt 1 0
vt 0.1875 0.3125
vt 0 0.3125
vt 0 0.25
vt 0.1875 0.25
vt 1 1
vt 0 1
vt 0 0
vt 1 0
vt 0.1875 0.34375
vt 0 0.34375
vt 0 0.3125
vt 0.1875 0.3125
vt 0.1875 0.25
vt 0 0.25
vt 0 0.17968798611111103
vt 0.1875 0.17968798611111103
vt 1 1
vt 0 1
vt 0 0
vt 1 0
vt 0.1875 0.25
vt 0 0.25
vt 0 0.17968798611111103
vt 0.1875 0.17968798611111103
vt 1 1
vt 0 1
vt 0 0
vt 1 0
vt 1 1
vt 0 1
vt 0 0
vt 1 0
vt 1 1
vt 0 1
vt 0 0
vt 1 0
vt 0.1875 0.17968798611111103
vt 0 0.17968798611111103
vt 0 0.14843798611111103
vt 0.1875 0.14843798611111103
vt 1 1
vt 0 1
vt 0 0
vt 1 0
vt 0.1875 0.17968798611111103
vt 0 0.17968798611111103
vt 0 0.14843798611111103
vt 0.1875 0.14843798611111103
vt 1 1
vt 0 1
vt 0 0
vt 1 0
vt 1 1
vt 0 1
vt 0 0
vt 1 0
vt 0.84375 0.53125
vt 0.71875 0.53125
vt 0.71875 0.42968798611111103
vt 0.84375 0.42968798611111103
vt 0.390625 0.34375
vt 0.296875 0.34375
vt 0.21875 0.28125
vt 0.46875 0.28125
vt 0.84375 0.53125
vt 0.71875 0.53125
vt 0.71875 0.42968798611111103
vt 0.84375 0.42968798611111103
vt 0.390625 0.34375
vt 0.296875 0.34375
vt 0.21875 0.28125
vt 0.46875 0.28125
vt 0.84375 0.625
vt 0.71875 0.625
vt 0.71875 0.53125
vt 0.84375 0.53125
vt 0.84375 0.42968798611111103
vt 0.71875 0.42968798611111103
vt 0.71875 0.328125
vt 0.84375 0.328125
vt 0.46875 0.28125
vt 0.21875 0.28125
vt 0.1875 0.1875
vt 0.5 0.1875
vt 0.84375 0.42968798611111103
vt 0.71875 0.42968798611111103
vt 0.71875 0.328125
vt 0.84375 0.328125
vt 0.46875 0.28125
vt 0.21875 0.28125
vt 0.1875 0.1875
vt 0.5 0.1875
vt 1 1
vt 0 1
vt 0 0
vt 1 0
vt 0.84375 0.328125
vt 0.71875 0.328125
vt 0.71875 0.296875
vt 0.84375 0.296875
vt 0.5 0.1875
vt 0.1875 0.1875
vt 0.1875 0.15625
vt 0.5 0.15625
vt 0.84375 0.328125
vt 0.71875 0.328125
vt 0.71875 0.296875
vt 0.84375 0.296875
vt 0.5 0.1875
vt 0.1875 0.1875
vt 0.1875 0.15625
vt 0.5 0.15625
vt 1 1
vt 0 1
vt 0 0
vt 1 0
vt 1 1
vt 0 1
vt 0 0
vt 1 0
vt 0.5 0.625
vt 0.3125 0.625
vt 0.3125 0.5
vt 0.5 0.5
vt 0.6875 0.625
vt 0.3125 0.625
vt 0.3125 0.5
vt 0.6875 0.5
vt 0.5 0.625
vt 0.3125 0.625
vt 0.3125 0.5
vt 0.5 0.5
vt 0.3125 0.625
vt 0.5 0.625
vt 0.5 1
vt 0.3125 1
vt 0.3125 1
vt 0.5 1
vt 0.5 0.625
vt 0.3125 0.625
vt 0.5625 0.625
vt 0.4375 0.625
vt 0.4375 0.5
vt 0.5625 0.5
vt 1 1
vt 0 1
vt 0 0
vt 1 0
vt 0.5625 0.625
vt 0.4375 0.625
vt 0.4375 0.5
vt 0.5625 0.5
vt 1 1
vt 0 1
vt 0 0
vt 1 0
vt 0.28125 0.9375
vt 0.15625 0.9375
vt 0.15625 0.6875
vt 0.28125 0.6875
vt 0.28125 0.9375
vt 0.15625 0.9375
vt 0.15625 0.6875
vt 0.28125 0.6875
vt 0.84375 0.53125
vt 0.71875 0.53125
vt 0.71875 0.42968798611111103
vt 0.84375 0.42968798611111103
vt 0.390625 0.34375
vt 0.296875 0.34375
vt 0.21875 0.28125
vt 0.46875 0.28125
vt 0.84375 0.53125
vt 0.71875 0.53125
vt 0.71875 0.42968798611111103
vt 0.84375 0.42968798611111103
vt 0.390625 0.34375
vt 0.296875 0.34375
vt 0.21875 0.28125
vt 0.46875 0.28125
vt 0.84375 0.625
vt 0.71875 0.625
vt 0.71875 0.53125
vt 0.84375 0.53125
vt 1 1
vt 0 1
vt 0 0
vt 1 0
vt 0.84375 0.42968798611111103
vt 0.71875 0.42968798611111103
vt 0.71875 0.328125
vt 0.84375 0.328125
vt 0.46875 0.28125
vt 0.21875 0.28125
vt 0.1875 0.1875
vt 0.5 0.1875
vt 0.84375 0.42968798611111103
vt 0.71875 0.42968798611111103
vt 0.71875 0.328125
vt 0.84375 0.328125
vt 0.46875 0.28125
vt 0.21875 0.28125
vt 0.1875 0.1875
vt 0.5 0.1875
vt 0.84375 0.328125
vt 0.71875 0.328125
vt 0.71875 0.296875
vt 0.84375 0.296875
vt 0.5 0.1875
vt 0.1875 0.1875
vt 0.1875 0.15625
vt 0.5 0.15625
vt 0.84375 0.328125
vt 0.71875 0.328125
vt 0.71875 0.296875
vt 0.84375 0.296875
vt 0.5 0.1875
vt 0.1875 0.1875
vt 0.1875 0.15625
vt 0.5 0.15625
vt 1 1
vt 0 1
vt 0 0
vt 1 0
vt 1 1
vt 0 1
vt 0 0
vt 1 0
vn 0 0 -1
vn 0 1 0
vn 0 -1 0
vn -0.948683298050514 0.316227766016838 0
vn 0 -1 0
vn -1 0 0
vn 0 0 1
vn -1 0 0
vn 0 0 1
vn 1 0 0
vn 0 0 -1
vn 0 1 0
vn 0 -1 0
vn -1 0 0
vn 0 0 1
vn 1 0 0
vn 0 0 -1
vn 0 1 0
vn 0 -1 0
vn 0 0 1
vn 0 0 1
vn 0.948683298050514 0.316227766016838 0
vn 0 0 -1
vn 1 0 0
vn 0 1 0
vn 0 0 -1
vn 0.6246950475544243 0.7808688094430304 0
vn 0 -1 0
vn 0 -1 0
vn 0 1 0
vn -0.5547001962252291 0.8320502943378438 0
vn 0 -1 0
vn 0 0 1
vn 0.5547001962252291 0.8320502943378438 0
vn -1 0 0
vn 0 0 1
vn 0 0 -1
vn 1 0 0
vn -1 0 0
vn 0 1 0
vn 0 0 -1
vn 0 1 0
vn -0.8944271909999161 0.44721359549995804 0
vn 0 0 1
vn 0.8944271909999161 0.44721359549995804 0
vn 0 0 -1
vn 0 -1 0
vn -1 0 0
vn 0 0 1
vn 1 0 0
vn 0 1 0
vn 0 -1 0
vn -1 0 0
vn 0 0 -1
vn -1 0 0
vn 0 1 0
vn 0 -1 0
vn 0 0 1
vn 0 0 1
vn -1 0 0
vn 0 0 1
vn 1 0 0
vn 0 0 1
vn 1 0 0
vn 0 -1 0
vn -1 0 0
vn 1 0 0
vn 0 0 -1
vn 0 1 0
vn 0 0 1
vn 0 0 1
vn 0 0 -1
vn 1 0 0
vn 0 0 -1
vn 0 1 0
vn 0 -1 0
vn -1 0 0
vn 0 1 0
vn 0 -1 0
vn 0 0 1
vn 1 0 0
vn 0 -1 0
vn 0 0 -1
vn 1 0 0
vn 0 0 -1
vn 0 1 0
vn 0 -1 0
vn 0 -1 0
vn 0 1 0
vn -1 0 0
vn 0 1 0
vn 0 -1 0
vn -1 0 0
vn 0 0 1
vn -1 0 0
vn 0 0 1
vn 1 0 0
vn 0 0 1
vn 0 1 0
vn 1 0 0
vn 0 0 1
vn 0 0 -1
vn 0 -1 0
vn -1 0 0
vn 0 1 0
vn 0 -1 0
vn 0 0 1
vn 1 0 0
vn 1 0 0
vn 0 0 -1
vn -1 0 0
vn 0 0 1
vn 0 1 0
vn 0 -1 0
vn -1 0 0
vn 0 0 1
vn 1 0 0
vn 0 0 -1
vn 1 0 0
vn 0 1 0
vn 0 0 -1
vn 0 1 0
vn 0 -1 0
vn 0 -1 0
vn -1 0 0
vn 0 -1 0
vn 0 0 1
vn 1 0 0
vn 1 0 0
vn 0 0 -1
vn -1 0 0
vn 0 0 -1
vn 0 0 -1
vn 1 0 0
vn 0 1 0
vn 0 0 -1
vn -1 0 0
vn -0.8944271909999161 -0.44721359549995804 0
vn 0 0 -1
vn 0 1 0
vn 0 1 0
vn 0 0 1
vn 0 -1 0
vn 0 -1 0
vn 0 -1 0
vn 0 0 1
vn 1 0 0
vn 0 0 -1
vn 0 1 0
vn 1 0 0
vn 0 0 -1
vn -1 0 0
vn -1 0 0
vn 0 1 0
vn 0 0 1
vn 1 0 0
vn 0 0 1
vn 0 1 0
vn -0.6246950475544243 0.7808688094430304 0
vn 0 0 -1
vn 0 0 1
vn 0 0 -1
vn 0 1 0
vn 0 0 1
vn 0 1 0
vn 0 -1 0
vn 1 0 0
vn 0 -1 0
vn 0 1 0
vn 0 0 1
vn 1 0 0
vn -1 0 0
vn 0 0 -1
vn 0 -1 0
vn -1 0 0
vn 0 0 1
vn -1 0 0
vn 1 0 0
vn 0 0 -1
vn -1 0 0
vn 0 0 1
vn 1 0 0
vn 0 0 -1
vn 0 1 0
vn 0 -1 0
vn -1 0 0
vn 0 0 1
vn 1 0 0
vn 0 0 -1
vn 0 1 0
vn 0 -1 0
vn -0.5547001962252291 0.8320502943378438 0
vn 0 0 1
vn 0.5547001962252291 0.8320502943378438 0
vn 0 0 -1
vn 0 1 0
vn -0.8944271909999161 0.44721359549995804 0
vn 0 0 1
vn 0.8944271909999161 0.44721359549995804 0
vn 0 0 -1
vn 0 1 0
vn 0 -1 0
vn -1 0 0
vn 0 0 1
vn 1 0 0
vn 0 0 -1
vn 0 -1 0
vn -0.6246950475544243 0.7808688094430304 0
vn 0 0 1
vn 0.6246950475544243 0.7808688094430304 0
vn 0 0 -1
vn 0 1 0
vn -0.948683298050514 0.316227766016838 0
vn 0 0 1
vn 0.948683298050514 0.316227766016838 0
vn 0 0 -1
vn 0 1 0
vn -1 0 0
vn 0 0 1
vn 1 0 0
vn 0 0 -1
vn 0 1 0
vn 0 -1 0
vn -1 0 0
vn 0 0 1
vn 1 0 0
vn 0 1 0
vn 0 -1 0
vn -1 0 0
vn 0 0 1
vn 1 0 0
vn 0 0 -1
vn 0 1 0
vn 0 -1 0
vn -0.6246950475544243 0.7808688094430304 0
vn 0 0 1
vn 0.6246950475544243 0.7808688094430304 0
vn 0 0 -1
vn 0 1 0
vn 0 -1 0
vn -0.948683298050514 0.316227766016838 0
vn 0 0 1
vn 0.948683298050514 0.316227766016838 0
vn 0 0 -1
vn -1 0 0
vn 0 0 1
vn 1 0 0
vn 0 0 -1
vn 0 1 0
vn 0 -1 0
usemtl m_a0dcc1f6-efba-317a-25f1-4ae56ebbb2d5
f 3/1/1 2/2/1 1/3/1 4/4/1
f 7/5/2 6/6/2 5/7/2 8/8/2
f 11/9/3 10/10/3 9/11/3 12/12/3
f 15/13/4 14/14/4 13/15/4 16/16/4
f 19/17/5 18/18/5 17/19/5 20/20/5
f 23/21/6 22/22/6 21/23/6 24/24/6
f 27/25/7 26/26/7 25/27/7 28/28/7
f 31/29/8 30/30/8 29/31/8 32/32/8
f 33/33/9 31/34/9 32/35/9 34/36/9
f 35/37/10 33/38/10 34/39/10 36/40/10
f 30/41/11 35/42/11 36/43/11 29/44/11
f 33/45/12 35/46/12 30/47/12 31/48/12
f 32/49/13 29/50/13 36/51/13 34/52/13
f 39/53/14 38/54/14 37/55/14 40/56/14
f 41/57/15 39/58/15 40/59/15 42/60/15
f 43/61/16 41/62/16 42/63/16 44/64/16
f 38/65/17 43/66/17 44/67/17 37/68/17
f 41/69/18 43/70/18 38/71/18 39/72/18
f 40/73/19 37/74/19 44/75/19 42/76/19
f 45/77/20 23/78/20 24/79/20 46/80/20
f 47/81/21 15/82/21 16/83/21 48/84/21
f 49/85/22 47/86/22 48/87/22 50/88/22
f 14/89/23 49/90/23 50/91/23 13/92/23
f 51/93/24 45/94/24 46/95/24 52/96/24
f 47/97/25 49/98/25 14/99/25 15/100/25
f 22/101/26 51/102/26 52/103/26 21/104/26
f 54/105/27 53/106/27 47/107/27 55/108/27
f 58/109/28 57/110/28 56/111/28 59/112/28
f 16/113/29 13/114/29 50/115/29 48/116/29
f 45/117/30 51/118/30 22/119/30 23/120/30
f 62/121/31 61/122/31 60/123/31 63/124/31
f 24/125/32 21/126/32 52/127/32 46/128/32
f 64/129/33 62/130/33 63/131/33 65/132/33
f 66/133/34 64/134/34 65/135/34 67/136/34
f 70/137/35 69/138/35 68/139/35 71/140/35
f 72/141/36 70/142/36 71/143/36 73/144/36
f 61/145/37 66/146/37 67/147/37 60/148/37
f 74/149/38 72/150/38 73/151/38 75/152/38
f 78/153/39 77/154/39 76/155/39 79/156/39
f 64/157/40 66/158/40 61/159/40 62/160/40
f 69/161/41 74/162/41 75/163/41 68/164/41
f 72/165/42 74/166/42 69/167/42 70/168/42
f 63/169/43 60/170/43 80/171/43 81/172/43
f 65/173/44 63/174/44 81/175/44 82/176/44
f 67/177/45 65/178/45 82/179/45 83/180/45
f 60/181/46 67/182/46 83/183/46 80/184/46
f 71/185/47 68/186/47 75/187/47 73/188/47
f 86/189/48 85/190/48 84/191/48 87/192/48
f 90/193/49 89/194/49 88/195/49 91/196/49
f 92/197/50 90/198/50 91/199/50 93/200/50
f 90/201/51 92/202/51 94/203/51 89/204/51
f 88/205/52 95/206/52 93/207/52 91/208/52
f 89/209/53 94/210/53 95/211/53 88/212/53
f 94/213/54 92/214/54 93/215/54 95/216/54
f 98/217/55 97/218/55 96/219/55 99/220/55
f 65/221/56 67/222/56 60/223/56 63/224/56
f 81/225/57 80/226/57 83/227/57 82/228/57
f 100/229/58 78/230/58 79/231/58 101/232/58
f 102/233/59 98/234/59 99/235/59 103/236/59
f 81/237/60 80/238/60 104/239/60 105/240/60
f 82/241/61 81/242/61 105/243/61 106/244/61
f 83/245/62 82/246/62 106/247/62 107/248/62
f 107/249/63 83/250/63 80/251/63 104/252/63
f 108/253/64 102/254/64 103/255/64 109/256/64
f 105/257/65 104/258/65 107/259/65 106/260/65
f 16/261/66 111/262/66 110/263/66 112/264/66
f 113/265/67 100/266/67 101/267/67 114/268/67
f 77/269/68 113/270/68 114/271/68 76/272/68
f 100/273/69 113/274/69 77/275/69 78/276/69
f 48/277/70 16/278/70 112/279/70 115/280/70
f 116/281/71 86/282/71 87/283/71 117/284/71
f 97/285/72 108/286/72 109/287/72 96/288/72
f 118/289/73 48/290/73 115/291/73 119/292/73
f 111/293/74 118/294/74 119/295/74 110/296/74
f 48/297/75 118/298/75 111/299/75 16/300/75
f 112/301/76 110/302/76 119/303/76 115/304/76
f 122/305/77 121/306/77 120/307/77 123/308/77
f 102/309/78 108/310/78 97/311/78 98/312/78
f 79/313/79 76/314/79 114/315/79 101/316/79
f 124/317/80 122/318/80 123/319/80 125/320/80
f 126/321/81 124/322/81 125/323/81 127/324/81
f 99/325/82 96/326/82 109/327/82 103/328/82
f 121/329/83 126/330/83 127/331/83 120/332/83
f 128/333/84 116/334/84 117/335/84 129/336/84
f 85/337/85 128/338/85 129/339/85 84/340/85
f 116/341/86 128/342/86 85/343/86 86/344/86
f 87/345/87 84/346/87 129/347/87 117/348/87
f 25/349/88 131/350/88 130/351/88 28/352/88
f 134/353/89 133/354/89 132/355/89 135/356/89
f 138/357/90 137/358/90 136/359/90 139/360/90
f 124/361/91 126/362/91 121/363/91 122/364/91
f 123/365/92 120/366/92 127/367/92 125/368/92
f 142/369/93 141/370/93 140/371/93 143/372/93
f 144/373/94 138/374/94 139/375/94 145/376/94
f 148/377/95 147/378/95 146/379/95 149/380/95
f 150/381/96 142/382/96 143/383/96 151/384/96
f 152/385/97 150/386/97 151/387/97 153/388/97
f 153/389/98 152/390/98 141/391/98 140/392/98
f 150/393/99 152/394/99 141/395/99 142/396/99
f 154/397/100 144/398/100 145/399/100 155/400/100
f 156/401/101 148/402/101 149/403/101 157/404/101
f 137/405/102 154/406/102 155/407/102 136/408/102
f 143/409/103 140/410/103 153/411/103 151/412/103
f 160/413/104 159/414/104 158/415/104 161/416/104
f 144/417/105 154/418/105 137/419/105 138/420/105
f 139/421/106 136/422/106 155/423/106 145/424/106
f 162/425/107 160/426/107 161/427/107 163/428/107
f 164/429/108 156/430/108 157/431/108 165/432/108
f 166/433/109 162/434/109 163/435/109 167/436/109
f 159/437/110 166/438/110 167/439/110 158/440/110
f 170/441/111 169/442/111 168/443/111 171/444/111
f 172/445/112 170/446/112 171/447/112 173/448/112
f 162/449/113 166/450/113 159/451/113 160/452/113
f 161/453/114 158/454/114 167/455/114 163/456/114
f 176/457/115 175/458/115 174/459/115 177/460/115
f 178/461/116 176/462/116 177/463/116 179/464/116
f 180/465/117 172/466/117 173/467/117 181/468/117
f 169/469/118 180/470/118 181/471/118 168/472/118
f 182/473/119 178/474/119 179/475/119 183/476/119
f 172/477/120 180/478/120 169/479/120 170/480/120
f 175/481/121 182/482/121 183/483/121 174/484/121
f 178/485/122 182/486/122 175/487/122 176/488/122
f 177/489/123 174/490/123 183/491/123 179/492/123
f 171/493/124 168/494/124 181/495/124 173/496/124
f 186/497/125 185/498/125 184/499/125 187/500/125
f 190/501/126 189/502/126 188/503/126 191/504/126
f 192/505/127 186/506/127 187/507/127 193/508/127
f 194/509/128 192/510/128 193/511/128 195/512/128
f 197/513/129 196/514/129 189/515/129 190/516/129
f 198/517/130 197/518/130 190/519/130 191/520/130
f 26/521/131 199/522/131 131/523/131 25/524/131
f 147/525/132 164/526/132 165/527/132 146/528/132
f 199/529/133 200/530/133 130/531/133 131/532/133
f 200/533/134 27/534/134 28/535/134 130/536/134
f 27/537/135 200/538/135 199/539/135 26/540/135
f 132/541/136 133/542/136 56/543/136 57/544/136
f 147/545/137 201/546/137 10/547/137 11/548/137
f 202/549/138 198/550/138 191/551/138 188/552/138
f 185/553/139 194/554/139 195/555/139 184/556/139
f 156/557/140 164/558/140 147/559/140 148/560/140
f 192/561/141 194/562/141 185/563/141 186/564/141
f 196/565/142 202/566/142 188/567/142 189/568/142
f 187/569/143 184/570/143 195/571/143 193/572/143
f 149/573/144 146/574/144 165/575/144 157/576/144
f 205/577/145 204/578/145 203/579/145 206/580/145
f 164/581/146 147/582/146 11/583/146 12/584/146
f 207/585/147 164/586/147 12/587/147 9/588/147
f 201/589/148 207/590/148 9/591/148 10/592/148
f 164/593/149 207/594/149 201/595/149 147/596/149
f 209/597/150 208/598/150 206/599/150 203/600/150
f 210/601/151 209/602/151 203/603/151 204/604/151
f 8/605/152 5/606/152 18/607/152 19/608/152
f 211/609/153 210/610/153 204/611/153 205/612/153
f 198/613/154 202/614/154 196/615/154 197/616/154
f 7/617/155 8/618/155 19/619/155 20/620/155
f 6/621/156 7/622/156 20/623/156 17/624/156
f 208/625/157 211/626/157 205/627/157 206/628/157
f 208/629/158 209/630/158 210/631/158 211/632/158
f 214/633/159 213/634/159 212/635/159 15/636/159
f 5/637/160 6/638/160 17/639/160 18/640/160
f 53/641/161 214/642/161 15/643/161 47/644/161
f 213/645/162 54/646/162 55/647/162 212/648/162
f 217/649/163 216/650/163 215/651/163 218/652/163
f 134/653/164 135/654/164 58/655/164 59/656/164
f 53/657/165 54/658/165 213/659/165 214/660/165
f 15/661/166 212/662/166 55/663/166 47/664/166
f 133/665/167 134/666/167 59/667/167 56/668/167
f 221/669/168 220/670/168 219/671/168 222/672/168
f 225/673/169 224/674/169 223/675/169 226/676/169
f 217/677/170 218/678/170 221/679/170 222/680/170
f 216/681/171 217/682/171 222/683/171 219/684/171
f 135/685/172 132/686/172 57/687/172 58/688/172
f 215/689/173 216/690/173 219/691/173 220/692/173
f 229/693/174 228/694/174 227/695/174 230/696/174
f 226/697/175 223/698/175 228/699/175 229/700/175
f 225/701/176 226/702/176 229/703/176 230/704/176
f 218/705/177 215/706/177 220/707/177 221/708/177
f 224/709/178 225/710/178 230/711/178 227/712/178
f 223/713/179 224/714/179 227/715/179 228/716/179
f 233/717/180 232/718/180 231/719/180 234/720/180
f 235/721/181 233/722/181 234/723/181 236/724/181
f 237/725/182 235/726/182 236/727/182 238/728/182
f 232/729/183 237/730/183 238/731/183 231/732/183
f 235/733/184 237/734/184 232/735/184 233/736/184
f 234/737/185 231/738/185 238/739/185 236/740/185
f 241/741/186 240/742/186 239/743/186 242/744/186
f 243/745/187 241/746/187 242/747/187 244/748/187
f 245/749/188 243/750/188 244/751/188 246/752/188
f 240/753/189 245/754/189 246/755/189 239/756/189
f 243/757/190 245/758/190 240/759/190 241/760/190
f 242/761/191 239/762/191 246/763/191 244/764/191
f 249/765/192 248/766/192 247/767/192 250/768/192
f 251/769/193 249/770/193 250/771/193 252/772/193
f 253/773/194 251/774/194 252/775/194 254/776/194
f 248/777/195 253/778/195 254/779/195 247/780/195
f 251/781/196 253/782/196 248/783/196 249/784/196
f 250/785/197 247/786/197 255/787/197 256/788/197
f 252/789/198 250/790/198 256/791/198 257/792/198
f 254/793/199 252/794/199 257/795/199 258/796/199
f 247/797/200 254/798/200 258/799/200 255/800/200
f 252/801/201 254/802/201 247/803/201 250/804/201
f 256/805/202 255/806/202 258/807/202 257/808/202
f 256/809/203 255/810/203 259/811/203 260/812/203
f 257/813/204 256/814/204 260/815/204 261/816/204
f 258/817/205 257/818/205 261/819/205 262/820/205
f 255/821/206 258/822/206 262/823/206 259/824/206
f 260/825/207 259/826/207 262/827/207 261/828/207
f 265/829/208 264/830/208 263/831/208 266/832/208
f 267/833/209 265/834/209 266/835/209 268/836/209
f 269/837/210 267/838/210 268/839/210 270/840/210
f 264/841/211 269/842/211 270/843/211 263/844/211
f 267/845/212 269/846/212 264/847/212 265/848/212
f 266/849/213 263/850/213 271/851/213 272/852/213
f 268/853/214 266/854/214 272/855/214 273/856/214
f 270/857/215 268/858/215 273/859/215 274/860/215
f 263/861/216 270/862/216 274/863/216 271/864/216
f 268/865/217 270/866/217 263/867/217 266/868/217
f 272/869/218 271/870/218 275/871/218 276/872/218
f 273/873/219 272/874/219 276/875/219 277/876/219
f 274/877/220 273/878/220 277/879/220 278/880/220
f 271/881/221 274/882/221 278/883/221 275/884/221
f 273/885/222 274/886/222 271/887/222 272/888/222
f 276/889/223 275/890/223 278/891/223 277/892/223
f 279/893/224 3/894/224 4/895/224 280/896/224
f 281/897/225 279/898/225 280/899/225 282/900/225
f 2/901/226 281/902/226 282/903/226 1/904/226
f 281/905/227 2/906/227 3/907/227 279/908/227
f 280/909/228 4/910/228 1/911/228 282/912/228
f 285/913/229 284/914/229 283/915/229 286/916/229
f 287/917/230 285/918/230 286/919/230 288/920/230
f 289/921/231 287/922/231 288/923/231 290/924/231
f 284/925/232 289/926/232 290/927/232 283/928/232
f 287/929/233 289/930/233 284/931/233 285/932/233
f 286/933/234 283/934/234 290/935/234 288/936/234
f 293/937/235 292/938/235 291/939/235 294/940/235
f 295/941/236 293/942/236 294/943/236 296/944/236
f 297/945/237 295/946/237 296/947/237 298/948/237
f 292/949/238 297/950/238 298/951/238 291/952/238
f 295/953/239 297/954/239 292/955/239 293/956/239
f 294/957/240 291/958/240 298/959/240 296/960/240
f 294/961/241 291/962/241 299/963/241 300/964/241
f 296/965/242 294/966/242 300/967/242 301/968/242
f 298/969/243 296/970/243 301/971/243 302/972/243
f 291/973/244 298/974/244 302/975/244 299/976/244
f 300/977/245 299/978/245 303/979/245 304/980/245
f 301/981/246 300/982/246 304/983/246 305/984/246
f 302/985/247 301/986/247 305/987/247 306/988/247
f 299/989/248 302/990/248 306/991/248 303/992/248
f 301/993/249 302/994/249 299/995/249 300/996/249
f 304/997/250 303/998/250 306/999/250 305/1000/250