# Made in Blockbench 5.0.4
mtllib steam_turbine.mtl

o cube
v -1 -1 -8
v -1 0 -8
v 2 0 -8
v 2 -1 -8
v -0.3125 0.875 0.375
v -0.6875 0.875 0.375
v -0.6875 0.875 0.75
v -0.3125 0.875 0.75
v 0 0 -0.25
v 1 0 -0.25
v 1 0 0
v 0 0 0
v 1.75 0.25 -2.75
v 1.5 1 -2.75
v 1.5 1 -1.75
v 1.75 0.25 -1.75
v -0.6875 0.75 0.375
v -0.3125 0.75 0.375
v -0.3125 0.75 0.75
v -0.6875 0.75 0.75
v -0.25 0.25 -0.75
v -0.25 0.75 -0.75
v -0.25 0.75 0.875
v -0.25 0.25 0.875
v 0.875 2.125 -2.5
v 0.875 2.875 -2.5
v 0.125 2.875 -2.5
v 0.125 2.125 -2.5
v 1 0 -8
v 1 1 -8
v 1 1 -7.75
v 1 0 -7.75
v 0 1 -7.75
v 0 0 -7.75
v 0 1 -8
v 0 0 -8
v 1 0 -4.25
v 1 1 -4.25
v 1 1 -4
v 1 0 -4
v 0 1 -4
v 0 0 -4
v 0 1 -4.25
v 0 0 -4.25
v -0.75 0.75 0.875
v -0.75 0.25 0.875
v -0.5 1 -1.75
v -0.75 0.25 -1.75
v -0.5 1 -2.75
v -0.75 0.25 -2.75
v -0.75 0.75 -0.75
v -0.75 0.25 -0.75
v 0.125 1.5 -1.75
v 0.125 1.5 -2.75
v -0.5 1 -2.75
v 0.375 0.5 0.4375
v 0.625 0.5 0.4375
v 0.625 0.5 0.6875
v 0.375 0.5 0.6875
v 1 0.75 -1.75
v 0.625 1 -1.75
v 0.625 1 -0.25
v 1 0.75 -0.25
v 0.375 1 -0.25
v 0 0.75 -0.25
v 0.375 1 -1.75
v 0 0.75 -1.75
v -0.125 0.125 0.875
v -0.125 0.875 0.875
v -0.125 0.875 1
v -0.125 0.125 1
v -0.875 0.875 1
v -0.875 0.125 1
v -0.875 0.875 0.875
v -0.875 0.125 0.875
v 0.875 -0.375 0.25
v 0.875 0.375 0.25
v 0.875 0.375 0.875
v 0.875 -0.375 0.875
v 1.25 0.25 -1.75
v 1.25 0.25 -0.25
v -0.25 0.25 -0.25
v -0.25 0.25 -1.75
v 0.6875 0.375 0.375
v 0.6875 0.5 0.375
v 0.6875 0.5 0.75
v 0.6875 0.375 0.75
v 2 -1 1
v 2 -0.5 1
v -1 -0.5 1
v -1 -1 1
v -1 -0.5 0
v -1 -1 0
v 2 -0.5 0
v 2 -1 0
v 1.875 -0.5 0.125
v 1.875 0 0.125
v 1.875 0 0.25
v 1.875 -0.5 0.25
v 0.125 0.375 0.875
v 0.125 -0.375 0.875
v 1.625 0 0.25
v 1.625 -0.5 0.25
v 1.25 0 -1.75
v 1.25 0 -0.25
v -0.25 0 -0.25
v -0.25 0 -1.75
v 1.625 0 0.125
v 1.625 -0.5 0.125
v 1.75 0 -2.75
v 1.75 0.25 -2.75
v 1.75 0 -1.75
v 0.125 0.375 0.25
v 0.125 -0.375 0.25
v -0.75 0 -1.75
v 0.3125 0.5 0.75
v 0.3125 0.375 0.75
v -0.75 0.25 -2.75
v -0.75 0 -2.75
v 2 -1 -3
v 2 0 -3
v 2 0 -1.5
v 2 -1 -1.5
v -1 0 -1.5
v -1 -1 -1.5
v -1 0 -3
v -1 -1 -3
v 0.3125 0.5 0.375
v 0.3125 0.375 0.375
v 0.125 2.125 -6.375
v 0.875 2.125 -6.375
v 0.625 1.125 0.4375
v 0.375 1.125 0.4375
v 0.375 1.125 0.6875
v 0.625 1.125 0.6875
v 1.875 -0.5 0.75
v 1.875 0 0.75
v 1.875 0 0.875
v 1.875 -0.5 0.875
v 1.5 -1 -1.5
v 1.5 0 -1.5
v 1.5 0 0
v 1.5 -1 0
v 1.625 0 0.875
v 1.625 -0.5 0.875
v 1 -0.5 0
v 1 0.5 0
v 1 0.5 0.25
v 1 -0.5 0.25
v -0.5 0 0
v -0.5 -1 0
v -0.5 0 -1.5
v -0.5 -1 -1.5
v 1.625 0 0.75
v 1.625 -0.5 0.75
v 0 0.5 0.25
v 0 -0.5 0.25
v 0.3125 1.1875 0.4375
v 0.3125 1.4375 0.4375
v 0.3125 1.4375 0.6875
v 0.3125 1.1875 0.6875
v -0.3125 1.4375 0.6875
v -0.3125 1.1875 0.6875
v 0 0.5 0
v 0 -0.5 0
v -0.3125 1.4375 0.4375
v -0.3125 1.1875 0.4375
v 2 0 0
v 2 1 0
v 2 1 1
v 2 0 1
v 1.5 1 1
v 1.5 0 1
v -0.3125 1.125 0.375
v -0.3125 1.5 0.375
v -0.3125 1.5 0.75
v -0.3125 1.125 0.75
v -0.6875 1.5 0.75
v -0.6875 1.125 0.75
v 1.5 1 0
v 1.5 0 0
v -0.6875 1.5 0.375
v -0.6875 1.125 0.375
v -0.375 0.875 0.4375
v -0.375 1.125 0.4375
v -0.375 1.125 0.6875
v -0.375 0.875 0.6875
v -0.25 0.25 -0.75
v -0.75 0.25 -0.75
v -0.75 0.25 -1.25
v -0.25 0.25 -1.25
v -0.625 1.125 0.6875
v -0.625 0.875 0.6875
v -0.625 1.125 0.4375
v -0.625 0.875 0.4375
v -0.75 0.75 -0.75
v -0.75 0.75 -1.25
v 0 0.75 -1.25
v 0.875 2.875 -6.375
v 0.125 2.875 -6.375
v 1 0.5 -0.25
v 0 0.75 -0.75
v -1 -1 -5.5
v 2 -1 -5.5
v 2 -1 -4
v -1 -1 -4
v 0 0.5 -0.25
v -1 0 -4
v -1 0 -5.5
v 2 0 -5.5
v 2 0 -4
v 1.5 1 -2.75
v 0.875 1.5 -2.75
v 0.875 1.5 -1.75
v 0.6875 1.5 0.375
v 0.3125 1.5 0.375
v 0.3125 1.5 0.75
v 0.6875 1.5 0.75
v 0.3125 1.125 0.375
v 0.6875 1.125 0.375
v 0.6875 1.125 0.75
v 0.3125 1.125 0.75
v 0.75 2.75 -2.5
v 0.25 2.75 -2.5
v 0.25 2.75 -2
v 0.75 2.75 -2
v 0.25 1.5 -2.5
v 0.75 1.5 -2.5
v 0.75 1.5 -2
v 0.25 1.5 -2
v 1 0 -3
v 1 1 -3
v 1 1 -2.75
v 1 0 -2.75
v 0 1 -2.75
v 0 0 -2.75
v 0 1 -3
v 0 0 -3
v 0.75 0.9375 -6.25
v 0.75 2.125 -6.25
v 0.75 2.125 -5.75
v 0.75 0.9375 -5.75
v 0.25 2.125 -5.75
v 0.25 0.9375 -5.75
v 0.25 2.125 -6.25
v 0.25 0.9375 -6.25
v 1 0.75 -6.75
v 0.625 1 -6.75
v 0.625 1 -5.25
v 1 0.75 -5.25
v 0.375 1 -5.25
v 0 0.75 -5.25
v 0.375 1 -6.75
v 0 0.75 -6.75
v 1.25 0.25 -6.75
v 1.25 0.25 -5.25
v -0.25 0.25 -5.25
v -0.25 0.25 -6.75
v 1.25 0 -6.75
v 1.25 0 -5.25
v -0.25 0 -5.25
v -0.25 0 -6.75
v 1.5 1 -7.75
v 0.875 1.5 -7.75
v 0.875 1.5 -6.75
v 1.5 1 -6.75
v 0.125 1.5 -6.75
v -0.5 1 -6.75
v 0.125 1.5 -7.75
v -0.5 1 -7.75
v 1.75 0.25 -7.75
v 1.75 0.25 -6.75
v -0.75 0.25 -6.75
v -0.75 0.25 -7.75
v 1.75 0 -7.75
v 1.75 0 -6.75
v -0.75 0 -6.75
v -0.75 0 -7.75
v 2 0 -6.5
v 2 -1 -6.5
v -1 0 -6.5
v -1 -1 -6.5
v 1.5 -1 -6.5
v 1.5 0 -6.5
v 1.5 0 -5.5
v 1.5 -1 -5.5
v -0.5 0 -5.5
v -0.5 -1 -5.5
v -0.5 0 -6.5
v -0.5 -1 -6.5
v 1.5 1 -5.25
v 0.875 1.5 -5.25
v 0.875 1.5 -4.25
v 1.5 1 -4.25
v 0.125 1.5 -4.25
v -0.5 1 -4.25
v 0.125 1.5 -5.25
v -0.5 1 -5.25
v 1.75 0.25 -5.25
v 1.75 0.25 -4.25
v -0.75 0.25 -4.25
v -0.75 0.25 -5.25
v 1.75 0 -5.25
v 1.75 0 -4.25
v -0.75 0 -4.25
v -0.75 0 -5.25
vt 0.21875 0.03125
vt 0.21875 0.15625
vt 0.59375 0.15625
vt 0.59375 0.03125
vt 0.84375 0.734375
vt 0.84375 0.78125
vt 0.890625 0.78125
vt 0.890625 0.734375
vt 0 0
vt 0 1
vt 1 1
vt 1 0
vt 0.71875 0.328125
vt 0.71875 0.42968798611111103
vt 0.84375 0.42968798611111103
vt 0.84375 0.328125
vt 0 0
vt 0 1
vt 1 1
vt 1 0
vt 1 0.6875
vt 0.9375 0.6875
vt 0.9375 0.890625
vt 1 0.890625
vt 0.484375 0.34375
vt 0.484375 0.4375
vt 0.578125 0.4375
vt 0.578125 0.34375
vt 0.6875 0.5
vt 0.6875 0.625
vt 0.71875 0.625
vt 0.71875 0.5
vt 0 0
vt 0 1
vt 1 1
vt 1 0
vt 0.6875 0.5
vt 0.6875 0.625
vt 0.71875 0.625
vt 0.71875 0.5
vt 0.84375 0.375
vt 0.84375 0.5
vt 0.96875 0.5
vt 0.96875 0.375
vt 0.6875 0.5
vt 0.6875 0.625
vt 0.71875 0.625
vt 0.71875 0.5
vt 0 0
vt 0 1
vt 1 1
vt 1 0
vt 0.6875 0.5
vt 0.6875 0.625
vt 0.71875 0.625
vt 0.71875 0.5
vt 0.84375 0.375
vt 0.84375 0.5
vt 0.96875 0.5
vt 0.96875 0.375
vt 0.6875 0.5
vt 0.6875 0.625
vt 0.71875 0.625
vt 0.71875 0.5
vt 0 0
vt 0 1
vt 1 1
vt 1 0
vt 0.6875 0.5
vt 0.6875 0.625
vt 0.71875 0.625
vt 0.71875 0.5
vt 0 0
vt 0 1
vt 1 1
vt 1 0
vt 0 0
vt 0 1
vt 1 1
vt 1 0
vt 0.1875 0.1875
vt 0.21875 0.28125
vt 0.46875 0.28125
vt 0.5 0.1875
vt 0.71875 0.328125
vt 0.71875 0.42968798611111103
vt 0.84375 0.42968798611111103
vt 0.84375 0.328125
vt 0.1875 0.1875
vt 0.21875 0.28125
vt 0.46875 0.28125
vt 0.5 0.1875
vt 1 0.890625
vt 0.9375 0.890625
vt 0.9375 0.6875
vt 1 0.6875
vt 0 0
vt 0 1
vt 1 1
vt 1 0
vt 0 0
vt 0 1
vt 1 1
vt 1 0
vt 0.71875 0.42968798611111103
vt 0.71875 0.53125
vt 0.84375 0.53125
vt 0.84375 0.42968798611111103
vt 0 0
vt 0 1
vt 1 1
vt 1 0
vt 0 0
vt 0 1
vt 1 1
vt 1 0
vt 1 0.6875
vt 0.9375 0.6875
vt 0.9375 0.890625
vt 1 0.890625
vt 0 0.25
vt 0 0.3125
vt 0.1875 0.3125
vt 0.1875 0.25
vt 1 0.6875
vt 0.9375 0.6875
vt 0.9375 0.890625
vt 1 0.890625
vt 0.96875 0.625
vt 1 0.578125
vt 1 0.546875
vt 0.96875 0.5
vt 0 0.25
vt 0 0.3125
vt 0.1875 0.3125
vt 0.1875 0.25
vt 0.9375 0.625
vt 0.84375 0.625
vt 0.84375 0.640625
vt 0.9375 0.640625
vt 0.75 0.84375
vt 0.75 0.9375
vt 0.84375 0.9375
vt 0.84375 0.84375
vt 0 0
vt 0 1
vt 1 1
vt 1 0
vt 0.9375 0.640625
vt 0.84375 0.640625
vt 0.84375 0.625
vt 0.9375 0.625
vt 0.75 0.65625
vt 0.75 0.75
vt 0.828125 0.75
vt 0.828125 0.65625
vt 0 0.3125
vt 0 0.34375
vt 0.1875 0.34375
vt 0.1875 0.3125
vt 0.84375 0.640625
vt 0.84375 0.734375
vt 0.9375 0.734375
vt 0.9375 0.640625
vt 0.9375 0.625
vt 0.84375 0.625
vt 0.84375 0.640625
vt 0.9375 0.640625
vt 0 0.17968798611111103
vt 0 0.25
vt 0.1875 0.25
vt 0.1875 0.17968798611111103
vt 0.46875 0.28125
vt 0.5 0.34375
vt 0.625 0.34375
vt 0.65625 0.28125
vt 0 0.17968798611111103
vt 0 0.25
vt 0.1875 0.25
vt 0.1875 0.17968798611111103
vt 0 0
vt 0 1
vt 1 1
vt 1 0
vt 0.9375 0.625
vt 0.84375 0.625
vt 0.84375 0.640625
vt 0.9375 0.640625
vt 0.84375 0.734375
vt 0.84375 0.75
vt 0.890625 0.75
vt 0.890625 0.734375
vt 0.3125 0.4375
vt 0.3125 0.5
vt 0.6875 0.5
vt 0.6875 0.4375
vt 0 0.4375
vt 0 0.5
vt 0.125 0.5
vt 0.125 0.4375
vt 0.625 0.625
vt 0.625 1
vt 0.75 1
vt 0.75 0.625
vt 0.125 0.625
vt 0.125 1
vt 0 1
vt 0 0.625
vt 0 0.4375
vt 0 0.5
vt 0.125 0.5
vt 0.125 0.4375
vt 0.3125 0.4375
vt 0.3125 0.5
vt 0.6875 0.5
vt 0.6875 0.4375
vt 0.90625 0.796875
vt 0.90625 0.859375
vt 0.921875 0.859375
vt 0.921875 0.796875
vt 0 0
vt 0 1
vt 1 1
vt 1 0
vt 0 0
vt 0 1
vt 1 1
vt 1 0
vt 0.75 0.75
vt 0.75 0.84375
vt 0.84375 0.84375
vt 0.84375 0.75
vt 0.90625 0.796875
vt 0.90625 0.859375
vt 0.9375 0.859375
vt 0.9375 0.796875
vt 0 0.14843798611111103
vt 0 0.17968798611111103
vt 0.1875 0.17968798611111103
vt 0.1875 0.14843798611111103
vt 0.5 0.25
vt 0.5 0.28125
vt 0.6875 0.28125
vt 0.6875 0.25
vt 0 0.14843798611111103
vt 0 0.17968798611111103
vt 0.1875 0.17968798611111103
vt 0.1875 0.14843798611111103
vt 1 1
vt 0 1
vt 0 0
vt 1 0
vt 0.90625 0.796875
vt 0.90625 0.859375
vt 0.921875 0.859375
vt 0.921875 0.796875
vt 0 0
vt 0 1
vt 1 1
vt 1 0
vt 0.71875 0.296875
vt 0.71875 0.328125
vt 0.84375 0.328125
vt 0.84375 0.296875
vt 0.75 0.65625
vt 0.75 0.75
vt 0.828125 0.75
vt 0.828125 0.65625
vt 0 0
vt 0 1
vt 1 1
vt 1 0
vt 0.75 0.65625
vt 0.75 0.75
vt 0.828125 0.75
vt 0.828125 0.65625
vt 0.1875 0.15625
vt 0.1875 0.1875
vt 0.5 0.1875
vt 0.5 0.15625
vt 0.84375 0.734375
vt 0.84375 0.75
vt 0.890625 0.75
vt 0.890625 0.734375
vt 0.90625 0.796875
vt 0.90625 0.859375
vt 0.9375 0.859375
vt 0.9375 0.796875
vt 0.71875 0.296875
vt 0.71875 0.328125
vt 0.84375 0.328125
vt 0.84375 0.296875
vt 0.1875 0.15625
vt 0.1875 0.1875
vt 0.5 0.1875
vt 0.5 0.15625
vt 0 0
vt 0 1
vt 1 1
vt 1 0
vt 0 0
vt 0 1
vt 1 1
vt 1 0
vt 0.3125 0.5
vt 0.3125 0.625
vt 0.5 0.625
vt 0.5 0.5
vt 0 0
vt 0 1
vt 1 1
vt 1 0
vt 0.75 0.65625
vt 0.75 0.75
vt 0.828125 0.75
vt 0.828125 0.65625
vt 0.3125 0.5
vt 0.3125 0.625
vt 0.6875 0.625
vt 0.6875 0.5
vt 0.3125 0.5
vt 0.3125 0.625
vt 0.5 0.625
vt 0.5 0.5
vt 0 0
vt 0 1
vt 1 1
vt 1 0
vt 0.3125 0.5
vt 0.3125 0.625
vt 0.6875 0.625
vt 0.6875 0.5
vt 0.84375 0.734375
vt 0.84375 0.75
vt 0.890625 0.75
vt 0.890625 0.734375
vt 0.84375 0.734375
vt 0.84375 0.75
vt 0.890625 0.75
vt 0.890625 0.734375
vt 0.84375 0.734375
vt 0.84375 0.78125
vt 0.890625 0.78125
vt 0.890625 0.734375
vt 0 0
vt 0 1
vt 1 1
vt 1 0
vt 0 0.34375
vt 0 0.4375
vt 0.484375 0.4375
vt 0.484375 0.34375
vt 0 0
vt 0 1
vt 1 1
vt 1 0
vt 0.90625 0.796875
vt 0.90625 0.859375
vt 0.921875 0.859375
vt 0.921875 0.796875
vt 0.5 0.625
vt 0.5 1
vt 0.3125 1
vt 0.3125 0.625
vt 0.5 0.625
vt 0.5 1
vt 0.3125 1
vt 0.3125 0.625
vt 0.3125 0.5
vt 0.3125 0.625
vt 0.5 0.625
vt 0.5 0.5
vt 0.90625 0.796875
vt 0.90625 0.859375
vt 0.9375 0.859375
vt 0.9375 0.796875
vt 0.6875 0.5
vt 0.6875 0.625
vt 0.71875 0.625
vt 0.71875 0.5
vt 0.375 0.5
vt 0.375 0.625
vt 0.625 0.625
vt 0.625 0.5
vt 0.3125 0.5
vt 0.3125 0.625
vt 0.5 0.625
vt 0.5 0.5
vt 1 1
vt 0 1
vt 0 0
vt 1 0
vt 0.125 0.4375
vt 0.125 0.6875
vt 0.3125 0.6875
vt 0.3125 0.4375
vt 0.90625 0.796875
vt 0.90625 0.859375
vt 0.921875 0.859375
vt 0.921875 0.796875
vt 0.84375 0.5
vt 0.84375 0.625
vt 0.96875 0.625
vt 0.96875 0.5
vt 0.90625 0.796875
vt 0.90625 0.859375
vt 0.9375 0.859375
vt 0.9375 0.796875
vt 0.125 0.6875
vt 0.125 0.9375
vt 0.3125 0.9375
vt 0.3125 0.6875
vt 0 0
vt 0 1
vt 1 1
vt 1 0
vt 0 0
vt 0 1
vt 1 1
vt 1 0
vt 0 0
vt 0 1
vt 1 1
vt 1 0
vt 0.9375 0.859375
vt 0.90625 0.859375
vt 0.90625 0.9375
vt 0.9375 0.9375
vt 0.6875 0.5
vt 0.6875 0.625
vt 0.71875 0.625
vt 0.71875 0.5
vt 0 0
vt 0 1
vt 1 1
vt 1 0
vt 0.9375 0.859375
vt 0.90625 0.859375
vt 0.90625 0.9375
vt 0.9375 0.9375
vt 0 0.5
vt 0 0.625
vt 0.125 0.625
vt 0.125 0.5
vt 0.90625 0.5
vt 0.90625 0.625
vt 0.96875 0.625
vt 0.96875 0.5
vt 0.90625 0.859375
vt 0.90625 0.9375
vt 0.9375 0.9375
vt 0.9375 0.859375
vt 0.90625 0.859375
vt 0.90625 0.9375
vt 0.9375 0.9375
vt 0.9375 0.859375
vt 0.84375 0.734375
vt 0.84375 0.78125
vt 0.890625 0.78125
vt 0.890625 0.734375
vt 0.84375 0.734375
vt 0.84375 0.78125
vt 0.890625 0.78125
vt 0.890625 0.734375
vt 0.84375 0.5
vt 0.84375 0.625
vt 0.96875 0.625
vt 0.96875 0.5
vt 0.84375 0.5
vt 0.84375 0.625
vt 0.90625 0.625
vt 0.90625 0.5
vt 0.84375 0.734375
vt 0.84375 0.78125
vt 0.890625 0.78125
vt 0.890625 0.734375
vt 0.90625 0.5
vt 0.84375 0.5
vt 0.84375 0.625
vt 0.90625 0.625
vt 0.84375 0.734375
vt 0.84375 0.78125
vt 0.890625 0.78125
vt 0.890625 0.734375
vt 0.84375 0.734375
vt 0.84375 0.78125
vt 0.890625 0.78125
vt 0.890625 0.734375
vt 0.84375 0.734375
vt 0.84375 0.78125
vt 0.890625 0.78125
vt 0.890625 0.734375
vt 0.96875 0.5
vt 0.90625 0.5
vt 0.90625 0.625
vt 0.96875 0.625
vt 0.90625 0.859375
vt 0.90625 0.890625
vt 0.9375 0.890625
vt 0.9375 0.859375
vt 0.9375 0.875
vt 0.9375 0.9375
vt 1 0.9375
vt 1 0.875
vt 0.90625 0.859375
vt 0.90625 0.890625
vt 0.9375 0.890625
vt 0.9375 0.859375
vt 0.90625 0.859375
vt 0.90625 0.890625
vt 0.9375 0.890625
vt 0.9375 0.859375
vt 1 0.6875
vt 0.9375 0.6875
vt 0.9375 0.75
vt 1 0.75
vt 1 0.1875
vt 0.9375 0.1875
vt 0.9375 0.28125
vt 1 0.25
vt 0 0.34375
vt 0 0.4375
vt 0.484375 0.4375
vt 0.484375 0.34375
vt 0 0
vt 0 1
vt 1 1
vt 1 0
vt 0.578125 0.34375
vt 0.578125 0.4375
vt 0.671875 0.4375
vt 0.671875 0.34375
vt 0 0.34375
vt 0 0.4375
vt 0.484375 0.4375
vt 0.484375 0.34375
vt 0 0.34375
vt 0 0.4375
vt 0.484375 0.4375
vt 0.484375 0.34375
vt 0.90625 0.859375
vt 0.90625 0.9375
vt 0.9375 0.9375
vt 0.9375 0.859375
vt 0.6875 0.5
vt 0.6875 0.625
vt 0.71875 0.625
vt 0.71875 0.5
vt 0 0
vt 0 1
vt 1 1
vt 1 0
vt 0.90625 0.859375
vt 0.90625 0.890625
vt 0.9375 0.890625
vt 0.9375 0.859375
vt 0.6875 0.5
vt 0.6875 0.625
vt 0.71875 0.625
vt 0.71875 0.5
vt 0 0
vt 0 1
vt 1 1
vt 1 0
vt 1 0.21875
vt 0.9375 0.1875
vt 0.9375 0.28125
vt 1 0.28125
vt 0 0
vt 0 1
vt 1 1
vt 1 0
vt 0 0
vt 0 1
vt 1 1
vt 1 0
vt 0.3125 0.625
vt 0.3125 1
vt 0.5 1
vt 0.5 0.625
vt 0 0
vt 0 1
vt 1 1
vt 1 0
vt 0.6875 0.5
vt 0.6875 0.625
vt 0.71875 0.625
vt 0.71875 0.5
vt 0 0
vt 0 1
vt 1 1
vt 1 0
vt 0.6875 0.5
vt 0.6875 0.625
vt 0.71875 0.625
vt 0.71875 0.5
vt 0.3125 0.5
vt 0.3125 0.625
vt 0.5 0.625
vt 0.5 0.5
vt 0.3125 0.5
vt 0.3125 0.625
vt 0.6875 0.625
vt 0.6875 0.5
vt 0.84375 0.734375
vt 0.84375 0.75
vt 0.890625 0.75
vt 0.890625 0.734375
vt 0.3125 0.5
vt 0.3125 0.625
vt 0.5 0.625
vt 0.5 0.5
vt 0.9375 0.9375
vt 0.9375 0.84375
vt 1 0.84375
vt 1 0.9375
vt 0.84375 0.734375
vt 0.84375 0.75
vt 0.890625 0.75
vt 0.890625 0.734375
vt 0.84375 0.734375
vt 0.84375 0.75
vt 0.890625 0.75
vt 0.890625 0.734375
vt 0.3125 0.5
vt 0.3125 0.625
vt 0.6875 0.625
vt 0.6875 0.5
vt 0.3125 0.625
vt 0.3125 1
vt 0.5 1
vt 0.5 0.625
vt 0.71875 0.42968798611111103
vt 0.71875 0.53125
vt 0.84375 0.53125
vt 0.84375 0.42968798611111103
vt 0.84375 0.734375
vt 0.84375 0.75
vt 0.890625 0.75
vt 0.890625 0.734375
vt 0.21875 0.28125
vt 0.296875 0.34375
vt 0.390625 0.34375
vt 0.46875 0.28125
vt 0.21875 0.28125
vt 0.296875 0.34375
vt 0.390625 0.34375
vt 0.46875 0.28125
vt 0.84375 0.734375
vt 0.84375 0.78125
vt 0.890625 0.78125
vt 0.890625 0.734375
vt 0.90625 0.859375
vt 0.90625 0.9375
vt 0.9375 0.9375
vt 0.9375 0.859375
vt 0.71875 0.53125
vt 0.71875 0.625
vt 0.84375 0.625
vt 0.84375 0.53125
vt 0 0
vt 0 1
vt 1 1
vt 1 0
vt 0.90625 0.859375
vt 0.90625 0.9375
vt 0.9375 0.9375
vt 0.9375 0.859375
vt 0.84375 0.734375
vt 0.84375 0.78125
vt 0.890625 0.78125
vt 0.890625 0.734375
vt 0.25 0.9375
vt 0.25 1
vt 0.3125 1
vt 0.3125 0.9375
vt 0.84375 0.734375
vt 0.84375 0.78125
vt 0.890625 0.78125
vt 0.890625 0.734375
vt 0.84375 0.734375
vt 0.84375 0.78125
vt 0.890625 0.78125
vt 0.890625 0.734375
vt 0.90625 0.859375
vt 0.90625 0.9375
vt 0.9375 0.9375
vt 0.9375 0.859375
vt 0.84375 0.734375
vt 0.84375 0.78125
vt 0.890625 0.78125
vt 0.890625 0.734375
vt 0 0
vt 0 1
vt 1 1
vt 1 0
vt 0.9375 0.21875
vt 0.9375 0.375
vt 1 0.375
vt 1 0.21875
vt 0.9375 0.171875
vt 0.9375 0.328125
vt 1 0.328125
vt 1 0.171875
vt 0.84375 0.734375
vt 0.84375 0.78125
vt 0.890625 0.78125
vt 0.890625 0.734375
vt 1 0.21875
vt 1 0.375
vt 0.9375 0.375
vt 0.9375 0.21875
vt 0.9375 0.171875
vt 0.9375 0.328125
vt 1 0.328125
vt 1 0.171875
vt 0.6875 0.5
vt 0.6875 0.625
vt 0.71875 0.625
vt 0.71875 0.5
vt 0 0
vt 0 1
vt 1 1
vt 1 0
vt 0.6875 0.5
vt 0.6875 0.625
vt 0.71875 0.625
vt 0.71875 0.5
vt 0.84375 0.375
vt 0.84375 0.5
vt 0.96875 0.5
vt 0.96875 0.375
vt 0.6875 0.5
vt 0.6875 0.625
vt 0.71875 0.625
vt 0.71875 0.5
vt 0 0
vt 0 1
vt 1 1
vt 1 0
vt 0.84375 0.7890620138888889
vt 0.84375 0.9375
vt 0.90625 0.9375
vt 0.90625 0.7890620138888889
vt 0.84375 0.7890620138888889
vt 0.84375 0.9375
vt 0.90625 0.9375
vt 0.90625 0.7890620138888889
vt 0.84375 0.7890620138888889
vt 0.84375 0.9375
vt 0.90625 0.9375
vt 0.90625 0.7890620138888889
vt 0.84375 0.7890620138888889
vt 0.84375 0.9375
vt 0.90625 0.9375
vt 0.90625 0.7890620138888889
vt 0 0
vt 0 1
vt 1 1
vt 1 0
vt 0 0
vt 0 1
vt 1 1
vt 1 0
vt 0 0.25
vt 0 0.3125
vt 0.1875 0.3125
vt 0.1875 0.25
vt 0 0
vt 0 1
vt 1 1
vt 1 0
vt 0 0.25
vt 0 0.3125
vt 0.1875 0.3125
vt 0.1875 0.25
vt 0 0
vt 0 1
vt 1 1
vt 1 0
vt 0 0.3125
vt 0 0.34375
vt 0.1875 0.34375
vt 0.1875 0.3125
vt 0 0.17968798611111103
vt 0 0.25
vt 0.1875 0.25
vt 0.1875 0.17968798611111103
vt 0 0
vt 0 1
vt 1 1
vt 1 0
vt 0 0.17968798611111103
vt 0 0.25
vt 0.1875 0.25
vt 0.1875 0.17968798611111103
vt 0 0
vt 0 1
vt 1 1
vt 1 0
vt 0 0
vt 0 1
vt 1 1
vt 1 0
vt 0 0
vt 0 1
vt 1 1
vt 1 0
vt 0 0.14843798611111103
vt 0 0.17968798611111103
vt 0.1875 0.17968798611111103
vt 0.1875 0.14843798611111103
vt 0 0
vt 0 1
vt 1 1
vt 1 0
vt 0 0.14843798611111103
vt 0 0.17968798611111103
vt 0.1875 0.17968798611111103
vt 0.1875 0.14843798611111103
vt 0 0
vt 0 1
vt 1 1
vt 1 0
vt 0 0
vt 0 1
vt 1 1
vt 1 0
vt 0.71875 0.42968798611111103
vt 0.71875 0.53125
vt 0.84375 0.53125
vt 0.84375 0.42968798611111103
vt 0.21875 0.28125
vt 0.296875 0.34375
vt 0.390625 0.34375
vt 0.46875 0.28125
vt 0.71875 0.42968798611111103
vt 0.71875 0.53125
vt 0.84375 0.53125
vt 0.84375 0.42968798611111103
vt 0.21875 0.28125
vt 0.296875 0.34375
vt 0.390625 0.34375
vt 0.46875 0.28125
vt 0.71875 0.53125
vt 0.71875 0.625
vt 0.84375 0.625
vt 0.84375 0.53125
vt 0.71875 0.328125
vt 0.71875 0.42968798611111103
vt 0.84375 0.42968798611111103
vt 0.84375 0.328125
vt 0.1875 0.1875
vt 0.21875 0.28125
vt 0.46875 0.28125
vt 0.5 0.1875
vt 0.71875 0.328125
vt 0.71875 0.42968798611111103
vt 0.84375 0.42968798611111103
vt 0.84375 0.328125
vt 0.1875 0.1875
vt 0.21875 0.28125
vt 0.46875 0.28125
vt 0.5 0.1875
vt 0 0
vt 0 1
vt 1 1
vt 1 0
vt 0.71875 0.296875
vt 0.71875 0.328125
vt 0.84375 0.328125
vt 0.84375 0.296875
vt 0.1875 0.15625
vt 0.1875 0.1875
vt 0.5 0.1875
vt 0.5 0.15625
vt 0.71875 0.296875
vt 0.71875 0.328125
vt 0.84375 0.328125
vt 0.84375 0.296875
vt 0.1875 0.15625
vt 0.1875 0.1875
vt 0.5 0.1875
vt 0.5 0.15625
vt 0 0
vt 0 1
vt 1 1
vt 1 0
vt 0 0
vt 0 1
vt 1 1
vt 1 0
vt 0.3125 0.5
vt 0.3125 0.625
vt 0.5 0.625
vt 0.5 0.5
vt 0.3125 0.5
vt 0.3125 0.625
vt 0.6875 0.625
vt 0.6875 0.5
vt 0.3125 0.5
vt 0.3125 0.625
vt 0.5 0.625
vt 0.5 0.5
vt 0.5 1
vt 0.5 0.625
vt 0.3125 0.625
vt 0.3125 1
vt 0.5 0.625
vt 0.5 1
vt 0.3125 1
vt 0.3125 0.625
vt 0.4375 0.5
vt 0.4375 0.625
vt 0.5625 0.625
vt 0.5625 0.5
vt 0 0
vt 0 1
vt 1 1
vt 1 0
vt 0.4375 0.5
vt 0.4375 0.625
vt 0.5625 0.625
vt 0.5625 0.5
vt 0 0
vt 0 1
vt 1 1
vt 1 0
vt 0.15625 0.6875
vt 0.15625 0.9375
vt 0.28125 0.9375
vt 0.28125 0.6875
vt 0.15625 0.6875
vt 0.15625 0.9375
vt 0.28125 0.9375
vt 0.28125 0.6875
vt 0.71875 0.42968798611111103
vt 0.71875 0.53125
vt 0.84375 0.53125
vt 0.84375 0.42968798611111103
vt 0.21875 0.28125
vt 0.296875 0.34375
vt 0.390625 0.34375
vt 0.46875 0.28125
vt 0.71875 0.42968798611111103
vt 0.71875 0.53125
vt 0.84375 0.53125
vt 0.84375 0.42968798611111103
vt 0.21875 0.28125
vt 0.296875 0.34375
vt 0.390625 0.34375
vt 0.46875 0.28125
vt 0.71875 0.53125
vt 0.71875 0.625
vt 0.84375 0.625
vt 0.84375 0.53125
vt 0 0
vt 0 1
vt 1 1
vt 1 0
vt 0.71875 0.328125
vt 0.71875 0.42968798611111103
vt 0.84375 0.42968798611111103
vt 0.84375 0.328125
vt 0.1875 0.1875
vt 0.21875 0.28125
vt 0.46875 0.28125
vt 0.5 0.1875
vt 0.71875 0.328125
vt 0.71875 0.42968798611111103
vt 0.84375 0.42968798611111103
vt 0.84375 0.328125
vt 0.1875 0.1875
vt 0.21875 0.28125
vt 0.46875 0.28125
vt 0.5 0.1875
vt 0.71875 0.296875
vt 0.71875 0.328125
vt 0.84375 0.328125
vt 0.84375 0.296875
vt 0.1875 0.15625
vt 0.1875 0.1875
vt 0.5 0.1875
vt 0.5 0.15625
vt 0.71875 0.296875
vt 0.71875 0.328125
vt 0.84375 0.328125
vt 0.84375 0.296875
vt 0.1875 0.15625
vt 0.1875 0.1875
vt 0.5 0.1875
vt 0.5 0.15625
vt 0 0
vt 0 1
vt 1 1
vt 1 0
vt 0 0
vt 0 1
vt 1 1
vt 1 0
vn 0 0 -1
vn 0 1 0
vn 0 -1 0
vn 0.948683298050514 0.316227766016838 0
vn 0 -1 0
vn 1 0 0
vn 0 0 1
vn 1 0 0
vn 0 0 1
vn -1 0 0
vn 0 0 -1
vn 0 1 0
vn 0 -1 0
vn 1 0 0
vn 0 0 1
vn -1 0 0
vn 0 0 -1
vn 0 1 0
vn 0 -1 0
vn 0 0 1
vn 0 0 1
vn -0.948683298050514 0.316227766016838 0
vn 0 0 -1
vn -1 0 0
vn 0 1 0
vn 0 0 -1
vn -0.6246950475544243 0.7808688094430304 0
vn 0 -1 0
vn 0 -1 0
vn 0 1 0
vn 0.5547001962252291 0.8320502943378438 0
vn 0 -1 0
vn 0 0 1
vn -0.5547001962252291 0.8320502943378438 0
vn 1 0 0
vn 0 0 1
vn 0 0 -1
vn -1 0 0
vn 1 0 0
vn 0 1 0
vn 0 0 -1
vn 0 1 0
vn 0.8944271909999161 0.44721359549995804 0
vn 0 0 1
vn -0.8944271909999161 0.44721359549995804 0
vn 0 0 -1
vn 0 -1 0
vn 1 0 0
vn 0 0 1
vn -1 0 0
vn 0 1 0
vn 0 -1 0
vn 1 0 0
vn 0 0 -1
vn 1 0 0
vn 0 1 0
vn 0 -1 0
vn 0 0 1
vn 0 0 1
vn 1 0 0
vn 0 0 1
vn -1 0 0
vn 0 0 1
vn -1 0 0
vn 0 -1 0
vn 1 0 0
vn -1 0 0
vn 0 0 -1
vn 0 1 0
vn 0 0 1
vn 0 0 1
vn 0 0 -1
vn -1 0 0
vn 0 0 -1
vn 0 1 0
vn 0 -1 0
vn 1 0 0
vn 0 1 0
vn 0 -1 0
vn 0 0 1
vn -1 0 0
vn 0 -1 0
vn 0 0 -1
vn -1 0 0
vn 0 0 -1
vn 0 1 0
vn 0 -1 0
vn 0 -1 0
vn 0 1 0
vn 1 0 0
vn 0 1 0
vn 0 -1 0
vn 1 0 0
vn 0 0 1
vn 1 0 0
vn 0 0 1
vn -1 0 0
vn 0 0 1
vn 0 1 0
vn -1 0 0
vn 0 0 1
vn 0 0 -1
vn 0 -1 0
vn 1 0 0
vn 0 1 0
vn 0 -1 0
vn 0 0 1
vn -1 0 0
vn -1 0 0
vn 0 0 -1
vn 1 0 0
vn 0 0 1
vn 0 1 0
vn 0 -1 0
vn 1 0 0
vn 0 0 1
vn -1 0 0
vn 0 0 -1
vn -1 0 0
vn 0 1 0
vn 0 0 -1
vn 0 1 0
vn 0 -1 0
vn 0 -1 0
vn 1 0 0
vn 0 -1 0
vn 0 0 1
vn -1 0 0
vn -1 0 0
vn 0 0 -1
vn 1 0 0
vn 0 0 -1
vn 0 0 -1
vn -1 0 0
vn 0 1 0
vn 0 0 -1
vn 1 0 0
vn 0.8944271909999161 -0.44721359549995804 0
vn 0 0 -1
vn 0 1 0
vn 0 1 0
vn 0 0 1
vn 0 -1 0
vn 0 -1 0
vn 0 -1 0
vn 0 0 1
vn -1 0 0
vn 0 0 -1
vn 0 1 0
vn -1 0 0
vn 0 0 -1
vn 1 0 0
vn 1 0 0
vn 0 1 0
vn 0 0 1
vn -1 0 0
vn 0 0 1
vn 0 1 0
vn 0.6246950475544243 0.7808688094430304 0
vn 0 0 -1
vn 0 0 1
vn 0 0 -1
vn 0 1 0
vn 0 0 1
vn 0 1 0
vn 0 -1 0
vn -1 0 0
vn 0 -1 0
vn 0 1 0
vn 0 0 1
vn -1 0 0
vn 1 0 0
vn 0 0 -1
vn 0 -1 0
vn 1 0 0
vn 0 0 1
vn 1 0 0
vn -1 0 0
vn 0 0 -1
vn 1 0 0
vn 0 0 1
vn -1 0 0
vn 0 0 -1
vn 0 1 0
vn 0 -1 0
vn 1 0 0
vn 0 0 1
vn -1 0 0
vn 0 0 -1
vn 0 1 0
vn 0 -1 0
vn 0.5547001962252291 0.8320502943378438 0
vn 0 0 1
vn -0.5547001962252291 0.8320502943378438 0
vn 0 0 -1
vn 0 1 0
vn 0.8944271909999161 0.44721359549995804 0
vn 0 0 1
vn -0.8944271909999161 0.44721359549995804 0
vn 0 0 -1
vn 0 1 0
vn 0 -1 0
vn 1 0 0
vn 0 0 1
vn -1 0 0
vn 0 0 -1
vn 0 -1 0
vn 0.6246950475544243 0.7808688094430304 0
vn 0 0 1
vn -0.6246950475544243 0.7808688094430304 0
vn 0 0 -1
vn 0 1 0
vn 0.948683298050514 0.316227766016838 0
vn 0 0 1
vn -0.948683298050514 0.316227766016838 0
vn 0 0 -1
vn 0 1 0
vn 1 0 0
vn 0 0 1
vn -1 0 0
vn 0 0 -1
vn 0 1 0
vn 0 -1 0
vn 1 0 0
vn 0 0 1
vn -1 0 0
vn 0 1 0
vn 0 -1 0
vn 1 0 0
vn 0 0 1
vn -1 0 0
vn 0 0 -1
vn 0 1 0
vn 0 -1 0
vn 0.6246950475544243 0.7808688094430304 0
vn 0 0 1
vn -0.6246950475544243 0.7808688094430304 0
vn 0 0 -1
vn 0 1 0
vn 0 -1 0
vn 0.948683298050514 0.316227766016838 0
vn 0 0 1
vn -0.948683298050514 0.316227766016838 0
vn 0 0 -1
vn 1 0 0
vn 0 0 1
vn -1 0 0
vn 0 0 -1
vn 0 1 0
vn 0 -1 0
usemtl m_a0dcc1f6-efba-317a-25f1-4ae56ebbb2d5
f 1/1/1 2/2/1 3/3/1 4/4/1
f 5/5/2 6/6/2 7/7/2 8/8/2
f 9/9/3 10/10/3 11/11/3 12/12/3
f 13/13/4 14/14/4 15/15/4 16/16/4
f 17/17/5 18/18/5 19/19/5 20/20/5
f 21/21/6 22/22/6 23/23/6 24/24/6
f 25/25/7 26/26/7 27/27/7 28/28/7
f 29/29/8 30/30/8 31/31/8 32/32/8
f 32/33/9 31/34/9 33/35/9 34/36/9
f 34/37/10 33/38/10 35/39/10 36/40/10
f 36/41/11 35/42/11 30/43/11 29/44/11
f 30/45/12 35/46/12 33/47/12 31/48/12
f 36/49/13 29/50/13 32/51/13 34/52/13
f 37/53/14 38/54/14 39/55/14 40/56/14
f 40/57/15 39/58/15 41/59/15 42/60/15
f 42/61/16 41/62/16 43/63/16 44/64/16
f 44/65/17 43/66/17 38/67/17 37/68/17
f 38/69/18 43/70/18 41/71/18 39/72/18
f 44/73/19 37/74/19 40/75/19 42/76/19
f 24/77/20 23/78/20 45/79/20 46/80/20
f 16/81/21 15/82/21 47/83/21 48/84/21
f 48/85/22 47/86/22 49/87/22 50/88/22
f 50/89/23 49/90/23 14/91/23 13/92/23
f 46/93/24 45/94/24 51/95/24 52/96/24
f 14/97/25 49/98/25 47/99/25 15/100/25
f 52/101/26 51/102/26 22/103/26 21/104/26
f 47/105/27 53/106/27 54/107/27 55/108/27
f 56/109/28 57/110/28 58/111/28 59/112/28
f 50/113/29 13/114/29 16/115/29 48/116/29
f 22/117/30 51/118/30 45/119/30 23/120/30
f 60/121/31 61/122/31 62/123/31 63/124/31
f 52/125/32 21/126/32 24/127/32 46/128/32
f 63/129/33 62/130/33 64/131/33 65/132/33
f 65/133/34 64/134/34 66/135/34 67/136/34
f 68/137/35 69/138/35 70/139/35 71/140/35
f 71/141/36 70/142/36 72/143/36 73/144/36
f 67/145/37 66/146/37 61/147/37 60/148/37
f 73/149/38 72/150/38 74/151/38 75/152/38
f 76/153/39 77/154/39 78/155/39 79/156/39
f 61/157/40 66/158/40 64/159/40 62/160/40
f 75/161/41 74/162/41 69/163/41 68/164/41
f 69/165/42 74/166/42 72/167/42 70/168/42
f 80/169/43 60/170/43 63/171/43 81/172/43
f 81/173/44 63/174/44 65/175/44 82/176/44
f 82/177/45 65/178/45 67/179/45 83/180/45
f 83/181/46 67/182/46 60/183/46 80/184/46
f 75/185/47 68/186/47 71/187/47 73/188/47
f 84/189/48 85/190/48 86/191/48 87/192/48
f 88/193/49 89/194/49 90/195/49 91/196/49
f 91/197/50 90/198/50 92/199/50 93/200/50
f 94/201/51 92/202/51 90/203/51 89/204/51
f 93/205/52 95/206/52 88/207/52 91/208/52
f 95/209/53 94/210/53 89/211/53 88/212/53
f 93/213/54 92/214/54 94/215/54 95/216/54
f 96/217/55 97/218/55 98/219/55 99/220/55
f 60/221/56 67/222/56 65/223/56 63/224/56
f 83/225/57 80/226/57 81/227/57 82/228/57
f 79/229/58 78/230/58 100/231/58 101/232/58
f 99/233/59 98/234/59 102/235/59 103/236/59
f 104/237/60 80/238/60 81/239/60 105/240/60
f 105/241/61 81/242/61 82/243/61 106/244/61
f 106/245/62 82/246/62 83/247/62 107/248/62
f 80/249/63 83/250/63 107/251/63 104/252/63
f 103/253/64 102/254/64 108/255/64 109/256/64
f 107/257/65 104/258/65 105/259/65 106/260/65
f 110/261/66 111/262/66 16/263/66 112/264/66
f 101/265/67 100/266/67 113/267/67 114/268/67
f 114/269/68 113/270/68 77/271/68 76/272/68
f 77/273/69 113/274/69 100/275/69 78/276/69
f 112/277/70 16/278/70 48/279/70 115/280/70
f 87/281/71 86/282/71 116/283/71 117/284/71
f 109/285/72 108/286/72 97/287/72 96/288/72
f 115/289/73 48/290/73 118/291/73 119/292/73
f 119/293/74 118/294/74 111/295/74 110/296/74
f 111/297/75 118/298/75 48/299/75 16/300/75
f 119/301/76 110/302/76 112/303/76 115/304/76
f 120/305/77 121/306/77 122/307/77 123/308/77
f 97/309/78 108/310/78 102/311/78 98/312/78
f 114/313/79 76/314/79 79/315/79 101/316/79
f 123/317/80 122/318/80 124/319/80 125/320/80
f 125/321/81 124/322/81 126/323/81 127/324/81
f 109/325/82 96/326/82 99/327/82 103/328/82
f 127/329/83 126/330/83 121/331/83 120/332/83
f 117/333/84 116/334/84 128/335/84 129/336/84
f 129/337/85 128/338/85 85/339/85 84/340/85
f 85/341/86 128/342/86 116/343/86 86/344/86
f 129/345/87 84/346/87 87/347/87 117/348/87
f 130/349/88 131/350/88 25/351/88 28/352/88
f 132/353/89 133/354/89 134/355/89 135/356/89
f 136/357/90 137/358/90 138/359/90 139/360/90
f 121/361/91 126/362/91 124/363/91 122/364/91
f 127/365/92 120/366/92 123/367/92 125/368/92
f 140/369/93 141/370/93 142/371/93 143/372/93
f 139/373/94 138/374/94 144/375/94 145/376/94
f 146/377/95 147/378/95 148/379/95 149/380/95
f 143/381/96 142/382/96 150/383/96 151/384/96
f 151/385/97 150/386/97 152/387/97 153/388/97
f 141/389/98 152/390/98 153/391/98 140/392/98
f 141/393/99 152/394/99 150/395/99 142/396/99
f 145/397/100 144/398/100 154/399/100 155/400/100
f 149/401/101 148/402/101 156/403/101 157/404/101
f 155/405/102 154/406/102 137/407/102 136/408/102
f 153/409/103 140/410/103 143/411/103 151/412/103
f 158/413/104 159/414/104 160/415/104 161/416/104
f 137/417/105 154/418/105 144/419/105 138/420/105
f 155/421/106 136/422/106 139/423/106 145/424/106
f 161/425/107 160/426/107 162/427/107 163/428/107
f 157/429/108 156/430/108 164/431/108 165/432/108
f 163/433/109 162/434/109 166/435/109 167/436/109
f 167/437/110 166/438/110 159/439/110 158/440/110
f 168/441/111 169/442/111 170/443/111 171/444/111
f 171/445/112 170/446/112 172/447/112 173/448/112
f 159/449/113 166/450/113 162/451/113 160/452/113
f 167/453/114 158/454/114 161/455/114 163/456/114
f 174/457/115 175/458/115 176/459/115 177/460/115
f 177/461/116 176/462/116 178/463/116 179/464/116
f 173/465/117 172/466/117 180/467/117 181/468/117
f 181/469/118 180/470/118 169/471/118 168/472/118
f 179/473/119 178/474/119 182/475/119 183/476/119
f 169/477/120 180/478/120 172/479/120 170/480/120
f 183/481/121 182/482/121 175/483/121 174/484/121
f 175/485/122 182/486/122 178/487/122 176/488/122
f 183/489/123 174/490/123 177/491/123 179/492/123
f 181/493/124 168/494/124 171/495/124 173/496/124
f 184/497/125 185/498/125 186/499/125 187/500/125
f 188/501/126 189/502/126 190/503/126 191/504/126
f 187/505/127 186/506/127 192/507/127 193/508/127
f 193/509/128 192/510/128 194/511/128 195/512/128
f 189/513/129 196/514/129 197/515/129 190/516/129
f 190/517/130 197/518/130 198/519/130 191/520/130
f 131/521/131 199/522/131 26/523/131 25/524/131
f 165/525/132 164/526/132 147/527/132 146/528/132
f 130/529/133 200/530/133 199/531/133 131/532/133
f 28/533/134 27/534/134 200/535/134 130/536/134
f 199/537/135 200/538/135 27/539/135 26/540/135
f 56/541/136 133/542/136 132/543/136 57/544/136
f 10/545/137 201/546/137 147/547/137 11/548/137
f 191/549/138 198/550/138 202/551/138 188/552/138
f 195/553/139 194/554/139 185/555/139 184/556/139
f 147/557/140 164/558/140 156/559/140 148/560/140
f 185/561/141 194/562/141 192/563/141 186/564/141
f 188/565/142 202/566/142 196/567/142 189/568/142
f 195/569/143 184/570/143 187/571/143 193/572/143
f 165/573/144 146/574/144 149/575/144 157/576/144
f 203/577/145 204/578/145 205/579/145 206/580/145
f 11/581/146 147/582/146 164/583/146 12/584/146
f 12/585/147 164/586/147 207/587/147 9/588/147
f 9/589/148 207/590/148 201/591/148 10/592/148
f 201/593/149 207/594/149 164/595/149 147/596/149
f 206/597/150 208/598/150 209/599/150 203/600/150
f 203/601/151 209/602/151 210/603/151 204/604/151
f 18/605/152 5/606/152 8/607/152 19/608/152
f 204/609/153 210/610/153 211/611/153 205/612/153
f 196/613/154 202/614/154 198/615/154 197/616/154
f 19/617/155 8/618/155 7/619/155 20/620/155
f 20/621/156 7/622/156 6/623/156 17/624/156
f 205/625/157 211/626/157 208/627/157 206/628/157
f 210/629/158 209/630/158 208/631/158 211/632/158
f 212/633/159 213/634/159 214/635/159 15/636/159
f 17/637/160 6/638/160 5/639/160 18/640/160
f 15/641/161 214/642/161 53/643/161 47/644/161
f 55/645/162 54/646/162 213/647/162 212/648/162
f 215/649/163 216/650/163 217/651/163 218/652/163
f 58/653/164 135/654/164 134/655/164 59/656/164
f 213/657/165 54/658/165 53/659/165 214/660/165
f 55/661/166 212/662/166 15/663/166 47/664/166
f 59/665/167 134/666/167 133/667/167 56/668/167
f 219/669/168 220/670/168 221/671/168 222/672/168
f 223/673/169 224/674/169 225/675/169 226/676/169
f 221/677/170 218/678/170 217/679/170 222/680/170
f 222/681/171 217/682/171 216/683/171 219/684/171
f 57/685/172 132/686/172 135/687/172 58/688/172
f 219/689/173 216/690/173 215/691/173 220/692/173
f 227/693/174 228/694/174 229/695/174 230/696/174
f 228/697/175 223/698/175 226/699/175 229/700/175
f 229/701/176 226/702/176 225/703/176 230/704/176
f 220/705/177 215/706/177 218/707/177 221/708/177
f 230/709/178 225/710/178 224/711/178 227/712/178
f 227/713/179 224/714/179 223/715/179 228/716/179
f 231/717/180 232/718/180 233/719/180 234/720/180
f 234/721/181 233/722/181 235/723/181 236/724/181
f 236/725/182 235/726/182 237/727/182 238/728/182
f 238/729/183 237/730/183 232/731/183 231/732/183
f 232/733/184 237/734/184 235/735/184 233/736/184
f 238/737/185 231/738/185 234/739/185 236/740/185
f 239/741/186 240/742/186 241/743/186 242/744/186
f 242/745/187 241/746/187 243/747/187 244/748/187
f 244/749/188 243/750/188 245/751/188 246/752/188
f 246/753/189 245/754/189 240/755/189 239/756/189
f 240/757/190 245/758/190 243/759/190 241/760/190
f 246/761/191 239/762/191 242/763/191 244/764/191
f 247/765/192 248/766/192 249/767/192 250/768/192
f 250/769/193 249/770/193 251/771/193 252/772/193
f 252/773/194 251/774/194 253/775/194 254/776/194
f 254/777/195 253/778/195 248/779/195 247/780/195
f 248/781/196 253/782/196 251/783/196 249/784/196
f 255/785/197 247/786/197 250/787/197 256/788/197
f 256/789/198 250/790/198 252/791/198 257/792/198
f 257/793/199 252/794/199 254/795/199 258/796/199
f 258/797/200 254/798/200 247/799/200 255/800/200
f 247/801/201 254/802/201 252/803/201 250/804/201
f 258/805/202 255/806/202 256/807/202 257/808/202
f 259/809/203 255/810/203 256/811/203 260/812/203
f 260/813/204 256/814/204 257/815/204 261/816/204
f 261/817/205 257/818/205 258/819/205 262/820/205
f 262/821/206 258/822/206 255/823/206 259/824/206
f 262/825/207 259/826/207 260/827/207 261/828/207
f 263/829/208 264/830/208 265/831/208 266/832/208
f 266/833/209 265/834/209 267/835/209 268/836/209
f 268/837/210 267/838/210 269/839/210 270/840/210
f 270/841/211 269/842/211 264/843/211 263/844/211
f 264/845/212 269/846/212 267/847/212 265/848/212
f 271/849/213 263/850/213 266/851/213 272/852/213
f 272/853/214 266/854/214 268/855/214 273/856/214
f 273/857/215 268/858/215 270/859/215 274/860/215
f 274/861/216 270/862/216 263/863/216 271/864/216
f 263/865/217 270/866/217 268/867/217 266/868/217
f 275/869/218 271/870/218 272/871/218 276/872/218
f 276/873/219 272/874/219 273/875/219 277/876/219
f 277/877/220 273/878/220 274/879/220 278/880/220
f 278/881/221 274/882/221 271/883/221 275/884/221
f 271/885/222 274/886/222 273/887/222 272/888/222
f 278/889/223 275/890/223 276/891/223 277/892/223
f 4/893/224 3/894/224 279/895/224 280/896/224
f 280/897/225 279/898/225 281/899/225 282/900/225
f 282/901/226 281/902/226 2/903/226 1/904/226
f 3/905/227 2/906/227 281/907/227 279/908/227
f 1/909/228 4/910/228 280/911/228 282/912/228
f 283/913/229 284/914/229 285/915/229 286/916/229
f 286/917/230 285/918/230 287/919/230 288/920/230
f 288/921/231 287/922/231 289/923/231 290/924/231
f 290/925/232 289/926/232 284/927/232 283/928/232
f 284/929/233 289/930/233 287/931/233 285/932/233
f 290/933/234 283/934/234 286/935/234 288/936/234
f 291/937/235 292/938/235 293/939/235 294/940/235
f 294/941/236 293/942/236 295/943/236 296/944/236
f 296/945/237 295/946/237 297/947/237 298/948/237
f 298/949/238 297/950/238 292/951/238 291/952/238
f 292/953/239 297/954/239 295/955/239 293/956/239
f 298/957/240 291/958/240 294/959/240 296/960/240
f 299/961/241 291/962/241 294/963/241 300/964/241
f 300/965/242 294/966/242 296/967/242 301/968/242
f 301/969/243 296/970/243 298/971/243 302/972/243
f 302/973/244 298/974/244 291/975/244 299/976/244
f 303/977/245 299/978/245 300/979/245 304/980/245
f 304/981/246 300/982/246 301/983/246 305/984/246
f 305/985/247 301/986/247 302/987/247 306/988/247
f 306/989/248 302/990/248 299/991/248 303/992/248
f 299/993/249 302/994/249 301/995/249 300/996/249
f 306/997/250 303/998/250 304/999/250 305/1000/250