# Made in Blockbench 4.12.6
mtllib valve_fluid.mtl

o Pipe
v 0.25 0.75 0.125
v 0.25 0.25 0.125
v 0.25 0.25 0.875
v 0.25 0.75 0.875
v 0.75 0.75 0.875
v 0.75 0.25 0.875
v 0.75 0.25 0.125
v 0.75 0.75 0.125
v 0.125 0.875 0
v 0.125 0.125 0
v 0.125 0.125 0.125
v 0.125 0.875 0.125
v 0.875 0.875 0
v 0.875 0.125 0
v 0.875 0.875 0.125
v 0.875 0.125 0.125
v 0.875 0.875 1
v 0.875 0.125 1
v 0.875 0.125 0.875
v 0.875 0.875 0.875
v 0.125 0.875 1
v 0.125 0.125 1
v 0.125 0.875 0.875
v 0.125 0.125 0.875
v 0.1875 0.25 0.75
v 0.1875 0.75 0.75
v 0.1875 0.75 0.25
v 0.1875 0.25 0.25
v 0.75 0.25 0.25
v 0.75 0.75 0.25
v 0.8125 0.75 0.25
v 0.8125 0.25 0.25
v 0.8125 0.75 0.75
v 0.8125 0.25 0.75
v 0.25 0.25 0.75
v 0.25 0.75 0.75
v 0.75 0.25 0.75
v 0.25 0.75 0.25
v 0.75 0.75 0.75
v 0.25 0.25 0.25
v 0.75 0.1875 0.75
v 0.75 0.1875 0.25
v 0.25 0.1875 0.25
v 0.25 0.1875 0.75
v 0.25 0.8125 0.75
v 0.25 0.8125 0.25
v 0.75 0.8125 0.75
v 0.75 0.8125 0.25
vt 0.75 0.9375
vt 0.5 0.9375
vt 0.5 0.5625
vt 0.75 0.5625
vt 0.75 0.5625
vt 0.5 0.5625
vt 0.5 0.9375
vt 0.75 0.9375
vt 0.75 0.9375
vt 0.5 0.9375
vt 0.5 0.5625
vt 0.75 0.5625
vt 0.75 0.9375
vt 0.5 0.9375
vt 0.5 0.5625
vt 0.75 0.5625
vt 0.4375 0.9375
vt 0.4375 0.5625
vt 0.5 0.5625
vt 0.5 0.9375
vt 1 0.125
vt 1 0.5
vt 0.625 0.5
vt 0.625 0.125
vt 0 0.5625
vt 0 0.9375
vt 0.0625 0.9375
vt 0.0625 0.5625
vt 1 0.125
vt 1 0.5
vt 0.625 0.5
vt 0.625 0.125
vt 0.4375 0.5625
vt 0.0625 0.5625
vt 0.0625 0.5
vt 0.4375 0.5
vt 0.0625 0.9375
vt 0.4375 0.9375
vt 0.4375 1
vt 0.0625 1
vt 0.0625 0.5625
vt 0.0625 0.9375
vt 0 0.9375
vt 0 0.5625
vt 0.5 0.125
vt 0.5 0.5
vt 0.125 0.5
vt 0.125 0.125
vt 0.5 0.9375
vt 0.5 0.5625
vt 0.4375 0.5625
vt 0.4375 0.9375
vt 0.5 0.125
vt 0.5 0.5
vt 0.125 0.5
vt 0.125 0.125
vt 0.4375 0.5625
vt 0.0625 0.5625
vt 0.0625 0.5
vt 0.4375 0.5
vt 0.0625 0.9375
vt 0.4375 0.9375
vt 0.4375 1
vt 0.0625 1
vt 0.125 0.625
vt 0.375 0.625
vt 0.375 0.875
vt 0.125 0.875
vt 0.125 0.84375
vt 0.375 0.84375
vt 0.375 0.875
vt 0.125 0.875
vt 0.125 0.625
vt 0.375 0.625
vt 0.375 0.875
vt 0.125 0.875
vt 0.125 0.625
vt 0.375 0.625
vt 0.375 0.65625
vt 0.125 0.65625
vt 0.125 0.625
vt 0.15625 0.625
vt 0.15625 0.875
vt 0.125 0.875
vt 0.375 0.625
vt 0.40625 0.625
vt 0.40625 0.875
vt 0.375 0.875
vt 0.375 0.625
vt 0.40625 0.625
vt 0.40625 0.875
vt 0.375 0.875
vt 0.125 0.625
vt 0.15625 0.625
vt 0.15625 0.875
vt 0.125 0.875
vt 0.375 0.65625
vt 0.125 0.65625
vt 0.125 0.625
vt 0.375 0.625
vt 0.125 0.625
vt 0.375 0.625
vt 0.375 0.65625
vt 0.125 0.65625
vt 0.125 0.84375
vt 0.375 0.84375
vt 0.375 0.875
vt 0.125 0.875
vt 0.125 0.625
vt 0.375 0.625
vt 0.375 0.875
vt 0.125 0.875
vt 0.375 0.84375
vt 0.125 0.84375
vt 0.125 0.875
vt 0.375 0.875
vt 0.125 0.65625
vt 0.375 0.65625
vt 0.375 0.625
vt 0.125 0.625
vt 0.125 0.875
vt 0.375 0.875
vt 0.375 0.84375
vt 0.125 0.84375
vt 0.375 0.84375
vt 0.125 0.84375
vt 0.125 0.875
vt 0.375 0.875
vt 0.125 0.875
vt 0.125 0.625
vt 0.375 0.625
vt 0.375 0.875
vt 0.375 0.875
vt 0.125 0.875
vt 0.125 0.84375
vt 0.375 0.84375
vt 0.125 0.875
vt 0.375 0.875
vt 0.375 0.84375
vt 0.125 0.84375
vt 0.375 0.875
vt 0.125 0.875
vt 0.125 0.84375
vt 0.375 0.84375
vn -1 0 0
vn 1 0 0
vn 0 -1 0
vn 0 1 0
vn -1 0 0
vn 0 0 -1
vn 1 0 0
vn 0 0 1
vn 0 -1 0
vn 0 1 0
vn 1 0 0
vn 0 0 1
vn -1 0 0
vn 0 0 -1
vn 0 -1 0
vn 0 1 0
vn -1 0 0
vn 0 0 -1
vn 1 0 0
vn 0 0 1
vn 0 -1 0
vn 0 1 0
vn 0 1 0
vn 0 -1 0
vn 1 0 0
vn 0 0 1
vn 0 0 -1
vn 0 -1 0
vn 0 0 1
vn 0 0 -1
vn -1 0 0
vn -1 0 0
vn 0 1 0
vn 1 0 0
vn 0 0 -1
vn 0 0 1
usemtl m_d956332d-e934-efa3-df8b-fc62219410f6
f 1/1/1 2/2/1 3/3/1 4/4/1
f 5/5/2 6/6/2 7/7/2 8/8/2
f 2/9/3 7/10/3 6/11/3 3/12/3
f 8/13/4 1/14/4 4/15/4 5/16/4
f 9/17/5 10/18/5 11/19/5 12/20/5
f 13/21/6 14/22/6 10/23/6 9/24/6
f 15/25/7 16/26/7 14/27/7 13/28/7
f 12/29/8 11/30/8 16/31/8 15/32/8
f 10/33/9 14/34/9 16/35/9 11/36/9
f 13/37/10 9/38/10 12/39/10 15/40/10
f 17/41/11 18/42/11 19/43/11 20/44/11
f 21/45/12 22/46/12 18/47/12 17/48/12
f 23/49/13 24/50/13 22/51/13 21/52/13
f 20/53/14 19/54/14 24/55/14 23/56/14
f 18/57/15 22/58/15 24/59/15 19/60/15
f 21/61/16 17/62/16 20/63/16 23/64/16
f 25/65/17 26/66/17 27/67/17 28/68/17
f 29/69/18 30/70/18 31/71/18 32/72/18
f 32/73/19 31/74/19 33/75/19 34/76/19
f 35/77/20 36/78/20 26/79/20 25/80/20
f 29/81/21 32/82/21 34/83/21 37/84/21
f 38/85/22 27/86/22 26/87/22 36/88/22
f 31/89/23 30/90/23 39/91/23 33/92/23
f 28/93/24 40/94/24 35/95/24 25/96/24
f 29/97/25 37/98/25 41/99/25 42/100/25
f 34/101/26 33/102/26 39/103/26 37/104/26
f 28/105/27 27/106/27 38/107/27 40/108/27
f 43/109/28 42/110/28 41/111/28 44/112/28
f 37/113/29 35/114/29 44/115/29 41/116/29
f 40/117/30 29/118/30 42/119/30 43/120/30
f 35/121/31 40/122/31 43/123/31 44/124/31
f 38/125/32 36/126/32 45/127/32 46/128/32
f 46/129/33 45/130/33 47/131/33 48/132/33
f 48/133/34 47/134/34 39/135/34 30/136/34
f 46/137/35 48/138/35 30/139/35 38/140/35
f 47/141/36 45/142/36 36/143/36 39/144/36
o Handle_Open
v 0.4375 0.875 0.4375
v 0.4375 0.875 0.5625
v 0.4375 0.9375 0.5625
v 0.4375 0.9375 0.4375
v 0.4375 0.875 0.8125
v 0.5625 0.875 0.8125
v 0.5625 0.9375 0.8125
v 0.4375 0.9375 0.8125
v 0.5625 0.875 0.5625
v 0.5625 0.9375 0.5625
v 0.5625 0.875 0.4375
v 0.5625 0.9375 0.4375
v 0.4375 0.8125 0.5625
v 0.4375 0.8125 0.4375
v 0.5625 0.8125 0.4375
v 0.5625 0.8125 0.5625
vt 0.9375 0.875
vt 0.9375 0.8125
vt 0.90625 0.8125
vt 0.90625 0.875
vt 0.84375 0.625
vt 0.84375 0.65625
vt 0.90625 0.65625
vt 0.90625 0.625
vt 0.8125 0.65625
vt 0.8125 0.8125
vt 0.84375 0.8125
vt 0.84375 0.65625
vt 0.75 0.90625
vt 0.75 0.9375
vt 0.8125 0.9375
vt 0.8125 0.90625
vt 0.84375 0.65625
vt 0.84375 0.8125
vt 0.90625 0.8125
vt 0.90625 0.65625
vt 0.84375 0.65625
vt 0.84375 0.8125
vt 0.90625 0.8125
vt 0.90625 0.65625
vt 0.75 0.9375
vt 0.75 1
vt 0.8125 1
vt 0.8125 0.9375
vt 0.96875 0.875
vt 0.9375 0.875
vt 0.9375 0.8125
vt 0.96875 0.8125
vt 0.84375 0.90625
vt 0.84375 0.875
vt 0.90625 0.875
vt 0.90625 0.90625
vt 0.8125 0.875
vt 0.8125 0.8125
vt 0.78125 0.8125
vt 0.78125 0.875
vt 0.8125 0.90625
vt 0.8125 0.875
vt 0.75 0.875
vt 0.75 0.90625
vt 0.9375 0.8125
vt 0.9375 0.65625
vt 0.90625 0.65625
vt 0.90625 0.8125
vt 0.84375 0.8125
vt 0.84375 0.875
vt 0.90625 0.875
vt 0.90625 0.8125
vt 0.8125 0.8125
vt 0.8125 0.875
vt 0.84375 0.875
vt 0.84375 0.8125
vn -1 0 0
vn 0 0 1
vn 1 0 0
vn 0 0 -1
vn 0 -1 0
vn 0 1 0
vn 0 -1 0
vn -1 0 0
vn 0 0 1
vn 1 0 0
vn 0 0 -1
vn -1 0 0
vn 0 1 0
vn 1 0 0
usemtl m_d956332d-e934-efa3-df8b-fc62219410f6
f 49/145/37 50/146/37 51/147/37 52/148/37
f 53/149/38 54/150/38 55/151/38 56/152/38
f 54/153/39 57/154/39 58/155/39 55/156/39
f 59/157/40 49/158/40 52/159/40 60/160/40
f 53/161/41 50/162/41 57/163/41 54/164/41
f 55/165/42 58/166/42 51/167/42 56/168/42
f 61/169/43 62/170/43 63/171/43 64/172/43
f 49/173/44 62/174/44 61/175/44 50/176/44
f 50/177/45 61/178/45 64/179/45 57/180/45
f 57/181/46 64/182/46 63/183/46 59/184/46
f 59/185/47 63/186/47 62/187/47 49/188/47
f 50/189/48 53/190/48 56/191/48 51/192/48
f 58/193/49 60/194/49 52/195/49 51/196/49
f 57/197/50 59/198/50 60/199/50 58/200/50
o Handle_Closed
v 0.5625 0.875 0.4375
v 0.4375 0.875 0.4375
v 0.4375 0.9375 0.4375
v 0.5625 0.9375 0.4375
v 0.1875 0.875 0.4375
v 0.1875 0.875 0.5625
v 0.1875 0.9375 0.5625
v 0.1875 0.9375 0.4375
v 0.4375 0.875 0.5625
v 0.4375 0.9375 0.5625
v 0.5625 0.875 0.5625
v 0.5625 0.9375 0.5625
v 0.4375 0.8125 0.4375
v 0.5625 0.8125 0.4375
v 0.5625 0.8125 0.5625
v 0.4375 0.8125 0.5625
vt 0.9375 0.875
vt 0.9375 0.8125
vt 0.90625 0.8125
vt 0.90625 0.875
vt 0.84375 0.625
vt 0.84375 0.65625
vt 0.90625 0.65625
vt 0.90625 0.625
vt 0.8125 0.65625
vt 0.8125 0.8125
vt 0.84375 0.8125
vt 0.84375 0.65625
vt 0.75 0.90625
vt 0.75 0.9375
vt 0.8125 0.9375
vt 0.8125 0.90625
vt 0.84375 0.65625
vt 0.84375 0.8125
vt 0.90625 0.8125
vt 0.90625 0.65625
vt 0.84375 0.65625
vt 0.84375 0.8125
vt 0.90625 0.8125
vt 0.90625 0.65625
vt 0.75 0.9375
vt 0.75 1
vt 0.8125 1
vt 0.8125 0.9375
vt 0.96875 0.875
vt 0.9375 0.875
vt 0.9375 0.8125
vt 0.96875 0.8125
vt 0.84375 0.90625
vt 0.84375 0.875
vt 0.90625 0.875
vt 0.90625 0.90625
vt 0.8125 0.875
vt 0.8125 0.8125
vt 0.78125 0.8125
vt 0.78125 0.875
vt 0.8125 0.90625
vt 0.8125 0.875
vt 0.75 0.875
vt 0.75 0.90625
vt 0.9375 0.8125
vt 0.9375 0.65625
vt 0.90625 0.65625
vt 0.90625 0.8125
vt 0.84375 0.8125
vt 0.84375 0.875
vt 0.90625 0.875
vt 0.90625 0.8125
vt 0.8125 0.8125
vt 0.8125 0.875
vt 0.84375 0.875
vt 0.84375 0.8125
vn 0 0 -1
vn -1 0 0
vn 0 0 1
vn 1 0 0
vn 0 -1 0
vn 0 1 0
vn 0 -1 0
vn 0 0 -1
vn -1 0 0
vn 0 0 1
vn 1 0 0
vn 0 0 -1
vn 0 1 0
vn 0 0 1
usemtl m_d956332d-e934-efa3-df8b-fc62219410f6
f 65/201/51 66/202/51 67/203/51 68/204/51
f 69/205/52 70/206/52 71/207/52 72/208/52
f 70/209/53 73/210/53 74/211/53 71/212/53
f 75/213/54 65/214/54 68/215/54 76/216/54
f 69/217/55 66/218/55 73/219/55 70/220/55
f 71/221/56 74/222/56 67/223/56 72/224/56
f 77/225/57 78/226/57 79/227/57 80/228/57
f 65/229/58 78/230/58 77/231/58 66/232/58
f 66/233/59 77/234/59 80/235/59 73/236/59
f 73/237/60 80/238/60 79/239/60 75/240/60
f 75/241/61 79/242/61 78/243/61 65/244/61
f 66/245/62 69/246/62 72/247/62 67/248/62
f 74/249/63 76/250/63 68/251/63 67/252/63
f 73/253/64 75/254/64 76/255/64 74/256/64