# Made in Blockbench 5.1.4
mtllib alternator.mtl

o mesh
v 2.625 0 1.875
v 2 2 3
v 2 2 2.375
v 2 0 3
v 2 0 2.375
v 1 2 3
v 1 2 2.375
v 1 0 3
v 1 0 2.375
v 1.5 2 3
v 1.5 2 2.375
v 1.5 0 2.375
v 1.5 0 3
v 2.25 2.25 2.375
v 2.25 2.25 1.875
v 2.25 1 2.375
v 2.25 1 1.875
v 0.75 2.25 2.375
v 0.75 2.25 1.875
v 0.75 1 2.375
v 0.75 1 1.875
v 1.5 2.5 0.5
v 1.5 2.5 1.875
v 0.515625 2.265625 0.5
v 0.515625 2.265625 1.875
v 0 1 1.875
v 0 1 0.5
v 0 1.28125 0.5
v 0 1.28125 1.875
v 1.5 2.5 1.875
v 2.484375 2.265625 0.5
v 2.484375 2.265625 1.875
v 3 1 1.875
v 3 1 0.5
v 3 1.28125 0.5
v 3 1.28125 1.875
v 3 1 1.875
v 3 1 0.5
v 3 0 1.875
v 3 0 0.5
v 0 1 1.875
v 0 1 0.5
v 0 0 1.875
v 0 0 0.5
v 0 1 1.1875
v 0 0 1.1875
v 3 0 1.1875
v 3 1 1.1875
v 1.5 2.5 1.875
v 0.515625 2.265625 1.875
v 0 1 1.875
v 0 1.28125 1.875
v 2.484375 2.265625 1.875
v 3 1 1.875
v 3 1.28125 1.875
v 1.5 2.5 0.5
v 0.515625 2.265625 0.5
v 0 1 0.5
v 0 1.28125 0.5
v 2.484375 2.265625 0.5
v 3 1 0.5
v 3 1.28125 0.5
v 2.25 2.25 0.5
v 2.25 2.25 0
v 2.25 1 0.5
v 2.25 1 0
v 0.75 2.25 0.5
v 0.75 2.25 0
v 0.75 1 0.5
v 0.75 1 0
v 2.625 1 0.5
v 2.625 1 0
v 2.625 0 0.5
v 2.625 0 0
v 0.375 1 0.5
v 0.375 1 0
v 0.375 0 0.5
v 0.375 0 0
v 1.5 1 0
v 1.5 1 0.5
v 1.5 0 0
v 1.5 0 0.5
v 0.375 1 1.875
v 0.375 1 2.375
v 0.375 0 1.875
v 0.375 0 2.375
v 2.625 1 1.875
v 2.625 1 2.375
v 2.625 0 2.375
v 1.5 1 2.375
v 1.5 1 1.875
v 1.5 0 2.375
v 1.5 0 1.875
v 2.75 3 4
v 2.75 3 3
v 2.75 0 4
v 2.75 0 3
v 2.25 3 4
v 2.25 3 3
v 2.25 0 4
v 2.25 0 3
v 0.25 3 4
v 0.25 3 3
v 0.25 0 4
v 0.25 0 3
v 0.75 3 4
v 0.75 3 3
v 0.75 0 4
v 0.75 0 3
v 3 0.8125 3.8125
v 3 0.8125 3.1875
v 3 0.1875 3.8125
v 3 0.1875 3.1875
v 2.75 0.8125 3.8125
v 2.75 0.8125 3.1875
v 2.75 0.1875 3.8125
v 2.75 0.1875 3.1875
v 3 1.8125 3.8125
v 3 1.8125 3.1875
v 3 1.1875 3.8125
v 3 1.1875 3.1875
v 2.75 1.8125 3.8125
v 2.75 1.8125 3.1875
v 2.75 1.1875 3.8125
v 2.75 1.1875 3.1875
v 3 2.8125 3.8125
v 3 2.8125 3.1875
v 3 2.1875 3.8125
v 3 2.1875 3.1875
v 2.75 2.8125 3.8125
v 2.75 2.8125 3.1875
v 2.75 2.1875 3.8125
v 2.75 2.1875 3.1875
v 1 0.8125 3.8125
v 1 0.8125 3.1875
v 1 0.1875 3.8125
v 1 0.1875 3.1875
v 0.75 0.8125 3.8125
v 0.75 0.8125 3.1875
v 0.75 0.1875 3.8125
v 0.75 0.1875 3.1875
v 1.1875 0.8125 3.125
v 1.8125 0.8125 3.125
v 1.1875 0.1875 3.125
v 1.8125 0.1875 3.125
v 1.1875 0.8125 2.875
v 1.8125 0.8125 2.875
v 1.1875 0.1875 2.875
v 1.8125 0.1875 2.875
v 1 1.8125 3.8125
v 1 1.8125 3.1875
v 1 1.1875 3.8125
v 1 1.1875 3.1875
v 0.75 1.8125 3.8125
v 0.75 1.8125 3.1875
v 0.75 1.1875 3.8125
v 0.75 1.1875 3.1875
v 1 2.8125 3.8125
v 1 2.8125 3.1875
v 1 2.1875 3.8125
v 1 2.1875 3.1875
v 0.75 2.8125 3.8125
v 0.75 2.8125 3.1875
v 0.75 2.1875 3.8125
v 0.75 2.1875 3.1875
v 2 2.8125 3.8125
v 2 2.8125 3.1875
v 2 2.1875 3.8125
v 2 2.1875 3.1875
v 2.25 2.8125 3.8125
v 2.25 2.8125 3.1875
v 2.25 2.1875 3.8125
v 2.25 2.1875 3.1875
v 2 1.8125 3.8125
v 2 1.8125 3.1875
v 2 1.1875 3.8125
v 2 1.1875 3.1875
v 2.25 1.8125 3.8125
v 2.25 1.8125 3.1875
v 2.25 1.1875 3.8125
v 2.25 1.1875 3.1875
v 2 0.8125 3.8125
v 2 0.8125 3.1875
v 2 0.1875 3.8125
v 2 0.1875 3.1875
v 2.25 0.8125 3.8125
v 2.25 0.8125 3.1875
v 2.25 0.1875 3.8125
v 2.25 0.1875 3.1875
v 0 2.8125 3.8125
v 0 2.8125 3.1875
v 0 2.1875 3.8125
v 0 2.1875 3.1875
v 0.25 2.8125 3.8125
v 0.25 2.8125 3.1875
v 0.25 2.1875 3.8125
v 0.25 2.1875 3.1875
v 0 1.8125 3.8125
v 0 1.8125 3.1875
v 0 1.1875 3.8125
v 0 1.1875 3.1875
v 0.25 1.8125 3.8125
v 0.25 1.8125 3.1875
v 0.25 1.1875 3.8125
v 0.25 1.1875 3.1875
v 0 0.8125 3.8125
v 0 0.8125 3.1875
v 0 0.1875 3.8125
v 0 0.1875 3.1875
v 0.25 0.8125 3.8125
v 0.25 0.8125 3.1875
v 0.25 0.1875 3.8125
v 0.25 0.1875 3.1875
v 1.6875 0.6875 3.3125
v 1.6875 0.6875 3.125
v 1.6875 0.3125 3.3125
v 1.6875 0.3125 3.125
v 1.3125 0.6875 3.3125
v 1.3125 0.6875 3.125
v 1.3125 0.3125 3.3125
v 1.3125 0.3125 3.125
v 1 0.3125 3.6875
v 1 0.6875 3.6875
v 1 0.6875 3.3125
v 1 0.3125 3.3125
v 2 0.6875 3.6875
v 2 0.3125 3.6875
v 2 0.3125 3.3125
v 2 0.6875 3.3125
v 1.6875 2.6875 3.3125
v 1.6875 2.3125 3.3125
v 1.3125 2.6875 3.3125
v 1.3125 2.3125 3.3125
v 1.6875 2.6875 3.6875
v 1.3125 2.6875 3.6875
v 1.6875 2.3125 3.6875
v 1.3125 2.3125 3.6875
v 1 2.3125 3.6875
v 1 2.6875 3.6875
v 1 2.6875 3.3125
v 1 2.3125 3.3125
v 2 2.6875 3.6875
v 2 2.3125 3.6875
v 2 2.3125 3.3125
v 2 2.6875 3.3125
v 1.6875 1.6875 3.3125
v 1.3125 1.6875 3.3125
v 1.6875 1.6875 3.6875
v 1.3125 1.6875 3.6875
v 1.3125 2.3125 3.6875
v 1.6875 2.3125 3.6875
v 1.6875 2.3125 3.3125
v 1.3125 2.3125 3.3125
v 1.6875 1.6875 3.3125
v 1.6875 1.3125 3.3125
v 1.3125 1.6875 3.3125
v 1.3125 1.3125 3.3125
v 1.6875 1.6875 3.6875
v 1.3125 1.6875 3.6875
v 1.6875 1.3125 3.6875
v 1.3125 1.3125 3.6875
v 1 1.3125 3.6875
v 1 1.6875 3.6875
v 1 1.6875 3.3125
v 1 1.3125 3.3125
v 2 1.6875 3.6875
v 2 1.3125 3.6875
v 2 1.3125 3.3125
v 2 1.6875 3.3125
v 1.6875 0.6875 3.3125
v 1.6875 0.3125 3.3125
v 1.3125 0.6875 3.3125
v 1.3125 0.3125 3.3125
v 1.6875 0.6875 3.6875
v 1.3125 0.6875 3.6875
v 1.6875 0.3125 3.6875
v 1.3125 0.3125 3.6875
v 1 0.3125 3.6875
v 1 0.6875 3.6875
v 1 0.6875 3.3125
v 1 0.3125 3.3125
v 2 0.6875 3.6875
v 2 0.3125 3.6875
v 2 0.3125 3.3125
v 2 0.6875 3.3125
v 1.3125 1.3125 3.6875
v 1.6875 1.3125 3.6875
v 1.6875 1.3125 3.3125
v 1.3125 1.3125 3.3125
v 1.6875 2.6875 3.3125
v 1.3125 2.6875 3.3125
v 1.6875 2.3125 3.3125
v 1.3125 2.3125 3.3125
v 1.6875 1.6875 3.3125
v 1.3125 1.6875 3.3125
v 1.6875 1.3125 3.3125
v 1.3125 1.3125 3.3125
v 1.6875 2.6875 3.6875
v 1.3125 2.6875 3.6875
v 1.6875 2.3125 3.6875
v 1.3125 2.3125 3.6875
v 1.6875 1.6875 3.6875
v 1.3125 1.6875 3.6875
v 1.6875 1.3125 3.6875
v 1.3125 1.3125 3.6875
vt 0.3333333333333333 0.0625
vt 0.3333333333333333 0.16666666666666663
vt 0.6666666666666666 0.16666666666666663
vt 0.6666666666666666 0.0625
vt 0.6666666666666666 0.0625
vt 0.3333333333333333 0.0625
vt 0.3333333333333333 0.16666666666666663
vt 0.6666666666666666 0.16666666666666663
vt 0.6666666666666666 0.16666666666666663
vt 0.5833333333333334 0.16666666666666663
vt 0.5833333333333334 0.0625
vt 0.6666666666666666 0.0625
vt 0.6666666666666666 0.16666666666666663
vt 0.5833333333333334 0.16666666666666663
vt 0.5833333333333334 0.0625
vt 0.6666666666666666 0.0625
vt 0 0.16666666666666663
vt 0 0.08333333333333337
vt 0.3333333333333333 0.08333333333333337
vt 0.3333333333333333 0.16666666666666663
vt 0.3333333333333333 0.0625
vt 0.4166666666666667 0.0625
vt 0.4166666666666667 0.16666666666666663
vt 0.3333333333333333 0.16666666666666663
vt 0.3333333333333333 0.0625
vt 0.4166666666666667 0.0625
vt 0.4166666666666667 0.16666666666666663
vt 0.3333333333333333 0.16666666666666663
vt 0.3333333333333333 0
vt 0.3333333333333333 0.08333333333333337
vt 0 0.08333333333333337
vt 0 0
vt 0.9166666666666666 0.5
vt 0.8333333333333334 0.5
vt 0.8333333333333334 0.29166666666666663
vt 0.9166666666666666 0.29166666666666663
vt 0.9166666666666666 0.29166666666666663
vt 0.9166666666666666 0.5
vt 0.8333333333333334 0.5
vt 0.8333333333333334 0.29166666666666663
vt 0.8333333333333334 0.25
vt 0.8333333333333334 0
vt 0.9166666666666666 0
vt 0.9166666666666666 0.25
vt 0.16666666666666666 0.8333333333333334
vt 0.16666666666666666 1
vt 0 1
vt 0 0.8333333333333334
vt 0.6041666666666666 0.4375
vt 0.6041666666666666 0.6458333333333333
vt 0.3541666666666667 0.6458333333333333
vt 0.3541666666666667 0.4375
vt 0.6041666666666666 0.6458333333333333
vt 0.3541666666666667 0.6458333333333333
vt 0.3541666666666667 0.4375
vt 0.6041666666666666 0.4375
vt 0 0.71875
vt 0.22916666666666666 0.71875
vt 0.22916666666666666 0.5520833333333333
vt 0 0.5520833333333333
vt 0 0.7083333333333333
vt 0.22916666666666666 0.7083333333333333
vt 0.22916666666666666 0.5208333333333333
vt 0 0.5208333333333333
vt 0 0.78125
vt 0.22916666666666666 0.78125
vt 0.22916666666666666 0.8333333333333334
vt 0 0.8333333333333334
vt 0.22916666666666666 0.5833333333333333
vt 0.22916666666666666 0.75
vt 0 0.75
vt 0 0.5833333333333333
vt 0.22916666666666666 0.5208333333333333
vt 0.22916666666666666 0.7083333333333333
vt 0 0.7083333333333333
vt 0 0.5208333333333333
vt 0.22916666666666666 0.47916666666666663
vt 0.22916666666666666 0.53125
vt 0 0.53125
vt 0 0.47916666666666663
vt 0.5 1
vt 0.3854166666666667 1
vt 0.3854166666666667 0.8333333333333334
vt 0.5 0.8333333333333334
vt 0 0.8333333333333334
vt 0.11458333333333333 0.8333333333333334
vt 0.11458333333333333 1
vt 0 1
vt 0.5 0.8333333333333334
vt 0.5 1
vt 0 1
vt 0 0.8333333333333334
vt 0.5 0.8333333333333334
vt 0.5 1
vt 0 1
vt 0 0.8333333333333334
vt 0.5 1
vt 0.3854166666666667 1
vt 0.3854166666666667 0.8333333333333334
vt 0.5 0.8333333333333334
vt 0 0.8333333333333334
vt 0.11458333333333333 0.8333333333333334
vt 0.11458333333333333 1
vt 0 1
vt 0 0.16666666666666663
vt 0 0.21875
vt 0.5 0.21875
vt 0.5 0.16666666666666663
vt 0 0.2192708333333333
vt 0.0859375 0.38593749999999993
vt 0.4140625 0.38593749999999993
vt 0.5 0.2192708333333333
vt 0.25 0.42604166666666665
vt 0.4140625 0.38697916666666665
vt 0.0859375 0.38697916666666665
vt 0.5 0.21875
vt 0 0.21875
vt 0 0.16666666666666663
vt 0.5 0.16666666666666663
vt 0.4140625 0.38593749999999993
vt 0.0859375 0.38593749999999993
vt 0 0.2192708333333333
vt 0.5 0.2192708333333333
vt 0.4140625 0.38697916666666665
vt 0.25 0.42604166666666665
vt 0.0859375 0.38697916666666665
vt 0.8333333333333334 1
vt 0.6041666666666666 1
vt 0.6041666666666666 0.5
vt 0.8333333333333334 0.5
vt 0.5208333333333334 0.6666666666666667
vt 0.5208333333333334 0.75
vt 0.3125 0.75
vt 0.3125 0.6666666666666667
vt 0.3125 0.6666666666666667
vt 0.5208333333333334 0.6666666666666667
vt 0.5208333333333334 0.75
vt 0.3125 0.75
vt 0.22916666666666666 0.75
vt 0.22916666666666666 0.5
vt 0.3125 0.5
vt 0.3125 0.75
vt 0.16666666666666666 0.8333333333333334
vt 0.16666666666666666 1
vt 0 1
vt 0 0.8333333333333334
vt 0.16666666666666666 0.9166666666666666
vt 0.16666666666666666 1
vt 0 1
vt 0 0.9166666666666666
vt 0.6041666666666666 0.6458333333333333
vt 0.3541666666666667 0.6458333333333333
vt 0.3541666666666667 0.4375
vt 0.6041666666666666 0.4375
vt 0.5 1
vt 0.4166666666666667 1
vt 0.4166666666666667 0.8333333333333334
vt 0.5 0.8333333333333334
vt 0.08333333333333333 0.8333333333333334
vt 0.08333333333333333 1
vt 0 1
vt 0 0.8333333333333334
vt 0.22916666666666666 0.75
vt 0.4166666666666667 0.75
vt 0.4166666666666667 0.8333333333333334
vt 0.22916666666666666 0.8333333333333334
vt 0.6041666666666666 0.8333333333333334
vt 0.4166666666666667 0.8333333333333334
vt 0.4166666666666667 0.75
vt 0.6041666666666666 0.75
vt 0.5 1
vt 0.3125 1
vt 0.3125 0.8333333333333334
vt 0.5 0.8333333333333334
vt 0.6041666666666666 0.8333333333333334
vt 0.4166666666666667 0.8333333333333334
vt 0.4166666666666667 0.75
vt 0.6041666666666666 0.75
vt 0 0.8333333333333334
vt 0.1875 0.8333333333333334
vt 0.1875 1
vt 0 1
vt 0.22916666666666666 0.75
vt 0.4166666666666667 0.75
vt 0.4166666666666667 0.8333333333333334
vt 0.22916666666666666 0.8333333333333334
vt 0.5 1
vt 0.4166666666666667 1
vt 0.4166666666666667 0.8333333333333334
vt 0.5 0.8333333333333334
vt 0.08333333333333333 0.8333333333333334
vt 0.08333333333333333 1
vt 0 1
vt 0 0.8333333333333334
vt 0.22916666666666666 0.75
vt 0.4166666666666667 0.75
vt 0.4166666666666667 0.8333333333333334
vt 0.22916666666666666 0.8333333333333334
vt 0.6041666666666666 0.8333333333333334
vt 0.4166666666666667 0.8333333333333334
vt 0.4166666666666667 0.75
vt 0.6041666666666666 0.75
vt 0.5 1
vt 0.3125 1
vt 0.3125 0.8333333333333334
vt 0.5 0.8333333333333334
vt 0.6041666666666666 0.8333333333333334
vt 0.4166666666666667 0.8333333333333334
vt 0.4166666666666667 0.75
vt 0.6041666666666666 0.75
vt 0 0.8333333333333334
vt 0.1875 0.8333333333333334
vt 0.1875 1
vt 0 1
vt 0.22916666666666666 0.75
vt 0.4166666666666667 0.75
vt 0.4166666666666667 0.8333333333333334
vt 0.22916666666666666 0.8333333333333334
vt 1 1
vt 0.8333333333333334 1
vt 0.8333333333333334 0.5
vt 1 0.5
vt 1 0.5
vt 1 1
vt 0.8333333333333334 1
vt 0.8333333333333334 0.5
vt 0.5 0.25
vt 0.5 0.16666666666666663
vt 0.6666666666666666 0.16666666666666663
vt 0.6666666666666666 0.25
vt 0.5 0.16666666666666663
vt 0.6666666666666666 0.16666666666666663
vt 0.6666666666666666 0.25
vt 0.5 0.25
vt 1 0
vt 1 0.5
vt 0.9166666666666666 0.5
vt 0.9166666666666666 0
vt 1 0.5
vt 0.9166666666666666 0.5
vt 0.9166666666666666 0
vt 1 0
vt 0.8333333333333334 0.5
vt 0.8333333333333334 1
vt 1 1
vt 1 0.5
vt 0.8333333333333334 1
vt 1 1
vt 1 0.5
vt 0.8333333333333334 0.5
vt 0.6666666666666666 0.16666666666666663
vt 0.5 0.16666666666666663
vt 0.5 0.25
vt 0.6666666666666666 0.25
vt 0.6666666666666666 0.25
vt 0.6666666666666666 0.16666666666666663
vt 0.5 0.16666666666666663
vt 0.5 0.25
vt 0.9166666666666666 0.5
vt 1 0.5
vt 1 0
vt 0.9166666666666666 0
vt 0.9166666666666666 0
vt 0.9166666666666666 0.5
vt 1 0.5
vt 1 0
vt 0.6041666666666666 1
vt 0.5 1
vt 0.5 0.8958333333333334
vt 0.6041666666666666 0.8958333333333334
vt 0.5 0.8541666666666666
vt 0.5 0.8958333333333334
vt 0.6041666666666666 0.8958333333333334
vt 0.6041666666666666 0.8541666666666666
vt 0.5 0.8958333333333334
vt 0.6041666666666666 0.8958333333333334
vt 0.6041666666666666 0.8541666666666666
vt 0.5 0.8541666666666666
vt 0.5 0.8958333333333334
vt 0.6041666666666666 0.8958333333333334
vt 0.6041666666666666 0.8541666666666666
vt 0.5 0.8541666666666666
vt 0.6041666666666666 0.8541666666666666
vt 0.6041666666666666 0.8958333333333334
vt 0.5 0.8958333333333334
vt 0.5 0.8541666666666666
vt 0.6041666666666666 1
vt 0.5 1
vt 0.5 0.8958333333333334
vt 0.6041666666666666 0.8958333333333334
vt 0.5 0.8541666666666666
vt 0.5 0.8958333333333334
vt 0.6041666666666666 0.8958333333333334
vt 0.6041666666666666 0.8541666666666666
vt 0.5 0.8958333333333334
vt 0.6041666666666666 0.8958333333333334
vt 0.6041666666666666 0.8541666666666666
vt 0.5 0.8541666666666666
vt 0.5 0.8958333333333334
vt 0.6041666666666666 0.8958333333333334
vt 0.6041666666666666 0.8541666666666666
vt 0.5 0.8541666666666666
vt 0.6041666666666666 0.8541666666666666
vt 0.6041666666666666 0.8958333333333334
vt 0.5 0.8958333333333334
vt 0.5 0.8541666666666666
vt 0.6041666666666666 1
vt 0.5 1
vt 0.5 0.8958333333333334
vt 0.6041666666666666 0.8958333333333334
vt 0.5 0.8541666666666666
vt 0.5 0.8958333333333334
vt 0.6041666666666666 0.8958333333333334
vt 0.6041666666666666 0.8541666666666666
vt 0.5 0.8958333333333334
vt 0.6041666666666666 0.8958333333333334
vt 0.6041666666666666 0.8541666666666666
vt 0.5 0.8541666666666666
vt 0.5 0.8958333333333334
vt 0.6041666666666666 0.8958333333333334
vt 0.6041666666666666 0.8541666666666666
vt 0.5 0.8541666666666666
vt 0.6041666666666666 0.8541666666666666
vt 0.6041666666666666 0.8958333333333334
vt 0.5 0.8958333333333334
vt 0.5 0.8541666666666666
vt 0.6666666666666666 0.35416666666666663
vt 0.5625 0.35416666666666663
vt 0.5625 0.25
vt 0.6666666666666666 0.25
vt 0 0.4375
vt 0 0.47916666666666663
vt 0.10416666666666667 0.47916666666666663
vt 0.10416666666666667 0.4375
vt 0 0.47916666666666663
vt 0.10416666666666667 0.47916666666666663
vt 0.10416666666666667 0.4375
vt 0 0.4375
vt 0 0.47916666666666663
vt 0.10416666666666667 0.47916666666666663
vt 0.10416666666666667 0.4375
vt 0 0.4375
vt 0.10416666666666667 0.4375
vt 0.10416666666666667 0.47916666666666663
vt 0 0.47916666666666663
vt 0 0.4375
vt 0.6666666666666666 0.35416666666666663
vt 0.5625 0.35416666666666663
vt 0.5625 0.25
vt 0.6666666666666666 0.25
vt 0 0.4375
vt 0 0.47916666666666663
vt 0.10416666666666667 0.47916666666666663
vt 0.10416666666666667 0.4375
vt 0 0.47916666666666663
vt 0.10416666666666667 0.47916666666666663
vt 0.10416666666666667 0.4375
vt 0 0.4375
vt 0 0.47916666666666663
vt 0.10416666666666667 0.47916666666666663
vt 0.10416666666666667 0.4375
vt 0 0.4375
vt 0.10416666666666667 0.4375
vt 0.10416666666666667 0.47916666666666663
vt 0 0.47916666666666663
vt 0 0.4375
vt 0.6666666666666666 0.35416666666666663
vt 0.5625 0.35416666666666663
vt 0.5625 0.25
vt 0.6666666666666666 0.25
vt 0 0.4375
vt 0 0.47916666666666663
vt 0.10416666666666667 0.47916666666666663
vt 0.10416666666666667 0.4375
vt 0 0.47916666666666663
vt 0.10416666666666667 0.47916666666666663
vt 0.10416666666666667 0.4375
vt 0 0.4375
vt 0 0.47916666666666663
vt 0.10416666666666667 0.47916666666666663
vt 0.10416666666666667 0.4375
vt 0 0.4375
vt 0.10416666666666667 0.4375
vt 0.10416666666666667 0.47916666666666663
vt 0 0.47916666666666663
vt 0 0.4375
vt 0.6666666666666666 0.35416666666666663
vt 0.5625 0.35416666666666663
vt 0.5625 0.25
vt 0.6666666666666666 0.25
vt 0 0.4375
vt 0 0.47916666666666663
vt 0.10416666666666667 0.47916666666666663
vt 0.10416666666666667 0.4375
vt 0 0.47916666666666663
vt 0.10416666666666667 0.47916666666666663
vt 0.10416666666666667 0.4375
vt 0 0.4375
vt 0 0.47916666666666663
vt 0.10416666666666667 0.47916666666666663
vt 0.10416666666666667 0.4375
vt 0 0.4375
vt 0.10416666666666667 0.4375
vt 0.10416666666666667 0.47916666666666663
vt 0 0.47916666666666663
vt 0 0.4375
vt 0.5625 0.25
vt 0.5625 0.35416666666666663
vt 0.6666666666666666 0.35416666666666663
vt 0.6666666666666666 0.25
vt 0.10416666666666667 0.47916666666666663
vt 0 0.47916666666666663
vt 0 0.4375
vt 0.10416666666666667 0.4375
vt 0.10416666666666667 0.4375
vt 0.10416666666666667 0.47916666666666663
vt 0 0.47916666666666663
vt 0 0.4375
vt 0.10416666666666667 0.4375
vt 0.10416666666666667 0.47916666666666663
vt 0 0.47916666666666663
vt 0 0.4375
vt 0 0.47916666666666663
vt 0.10416666666666667 0.47916666666666663
vt 0.10416666666666667 0.4375
vt 0 0.4375
vt 0.5625 0.25
vt 0.5625 0.35416666666666663
vt 0.6666666666666666 0.35416666666666663
vt 0.6666666666666666 0.25
vt 0.10416666666666667 0.47916666666666663
vt 0 0.47916666666666663
vt 0 0.4375
vt 0.10416666666666667 0.4375
vt 0.10416666666666667 0.4375
vt 0.10416666666666667 0.47916666666666663
vt 0 0.47916666666666663
vt 0 0.4375
vt 0.10416666666666667 0.4375
vt 0.10416666666666667 0.47916666666666663
vt 0 0.47916666666666663
vt 0 0.4375
vt 0 0.47916666666666663
vt 0.10416666666666667 0.47916666666666663
vt 0.10416666666666667 0.4375
vt 0 0.4375
vt 0.5625 0.25
vt 0.5625 0.35416666666666663
vt 0.6666666666666666 0.35416666666666663
vt 0.6666666666666666 0.25
vt 0.10416666666666667 0.47916666666666663
vt 0 0.47916666666666663
vt 0 0.4375
vt 0.10416666666666667 0.4375
vt 0.10416666666666667 0.4375
vt 0.10416666666666667 0.47916666666666663
vt 0 0.47916666666666663
vt 0 0.4375
vt 0.10416666666666667 0.4375
vt 0.10416666666666667 0.47916666666666663
vt 0 0.47916666666666663
vt 0 0.4375
vt 0 0.47916666666666663
vt 0.10416666666666667 0.47916666666666663
vt 0.10416666666666667 0.4375
vt 0 0.4375
vt 0.5 0.8958333333333334
vt 0.5 1
vt 0.6041666666666666 1
vt 0.6041666666666666 0.8958333333333334
vt 0.6041666666666666 0.8958333333333334
vt 0.5 0.8958333333333334
vt 0.5 0.8541666666666666
vt 0.6041666666666666 0.8541666666666666
vt 0.6041666666666666 0.8541666666666666
vt 0.6041666666666666 0.8958333333333334
vt 0.5 0.8958333333333334
vt 0.5 0.8541666666666666
vt 0.6041666666666666 0.8541666666666666
vt 0.6041666666666666 0.8958333333333334
vt 0.5 0.8958333333333334
vt 0.5 0.8541666666666666
vt 0.5 0.8958333333333334
vt 0.6041666666666666 0.8958333333333334
vt 0.6041666666666666 0.8541666666666666
vt 0.5 0.8541666666666666
vt 0.5 0.8958333333333334
vt 0.5 1
vt 0.6041666666666666 1
vt 0.6041666666666666 0.8958333333333334
vt 0.6041666666666666 0.8958333333333334
vt 0.5 0.8958333333333334
vt 0.5 0.8541666666666666
vt 0.6041666666666666 0.8541666666666666
vt 0.6041666666666666 0.8541666666666666
vt 0.6041666666666666 0.8958333333333334
vt 0.5 0.8958333333333334
vt 0.5 0.8541666666666666
vt 0.6041666666666666 0.8541666666666666
vt 0.6041666666666666 0.8958333333333334
vt 0.5 0.8958333333333334
vt 0.5 0.8541666666666666
vt 0.5 0.8958333333333334
vt 0.6041666666666666 0.8958333333333334
vt 0.6041666666666666 0.8541666666666666
vt 0.5 0.8541666666666666
vt 0.5 0.8958333333333334
vt 0.5 1
vt 0.6041666666666666 1
vt 0.6041666666666666 0.8958333333333334
vt 0.6041666666666666 0.8958333333333334
vt 0.5 0.8958333333333334
vt 0.5 0.8541666666666666
vt 0.6041666666666666 0.8541666666666666
vt 0.6041666666666666 0.8541666666666666
vt 0.6041666666666666 0.8958333333333334
vt 0.5 0.8958333333333334
vt 0.5 0.8541666666666666
vt 0.6041666666666666 0.8541666666666666
vt 0.6041666666666666 0.8958333333333334
vt 0.5 0.8958333333333334
vt 0.5 0.8541666666666666
vt 0.5 0.8958333333333334
vt 0.6041666666666666 0.8958333333333334
vt 0.6041666666666666 0.8541666666666666
vt 0.5 0.8541666666666666
vt 0.7291666666666666 0.38541666666666663
vt 0.7291666666666666 0.41666666666666663
vt 0.6666666666666666 0.41666666666666663
vt 0.6666666666666666 0.38541666666666663
vt 0.6666666666666666 0.38541666666666663
vt 0.7291666666666666 0.38541666666666663
vt 0.7291666666666666 0.41666666666666663
vt 0.6666666666666666 0.41666666666666663
vt 0.6666666666666666 0.41666666666666663
vt 0.7291666666666666 0.41666666666666663
vt 0.7291666666666666 0.44791666666666663
vt 0.6666666666666666 0.44791666666666663
vt 0.7291666666666666 0.39583333333333337
vt 0.7291666666666666 0.42708333333333337
vt 0.6666666666666666 0.42708333333333337
vt 0.6666666666666666 0.39583333333333337
vt 0.8333333333333334 0.47916666666666663
vt 0.7708333333333334 0.47916666666666663
vt 0.7708333333333334 0.41666666666666663
vt 0.8333333333333334 0.41666666666666663
vt 0.7708333333333334 0.40625
vt 0.8333333333333334 0.40625
vt 0.8333333333333334 0.46875
vt 0.7708333333333334 0.46875
vt 0.7291666666666666 0.4375
vt 0.6666666666666666 0.4375
vt 0.6666666666666666 0.38541666666666663
vt 0.7291666666666666 0.38541666666666663
vt 0.7291666666666666 0.44791666666666663
vt 0.6666666666666666 0.44791666666666663
vt 0.6666666666666666 0.39583333333333337
vt 0.7291666666666666 0.39583333333333337
vt 0.6666666666666666 0.39583333333333337
vt 0.7291666666666666 0.39583333333333337
vt 0.7291666666666666 0.44791666666666663
vt 0.6666666666666666 0.44791666666666663
vt 0.7291666666666666 0.44791666666666663
vt 0.6666666666666666 0.44791666666666663
vt 0.6666666666666666 0.39583333333333337
vt 0.7291666666666666 0.39583333333333337
vt 0.6666666666666666 0.40625
vt 0.7291666666666666 0.40625
vt 0.7291666666666666 0.45833333333333337
vt 0.6666666666666666 0.45833333333333337
vt 0.6666666666666666 0.375
vt 0.7291666666666666 0.375
vt 0.7291666666666666 0.42708333333333337
vt 0.6666666666666666 0.42708333333333337
vt 0.7291666666666666 0.45833333333333337
vt 0.6666666666666666 0.45833333333333337
vt 0.6666666666666666 0.40625
vt 0.7291666666666666 0.40625
vt 0.6666666666666666 0.41666666666666663
vt 0.7291666666666666 0.41666666666666663
vt 0.7291666666666666 0.46875
vt 0.6666666666666666 0.46875
vt 0.8333333333333334 0.5
vt 0.7708333333333334 0.5
vt 0.7708333333333334 0.39583333333333337
vt 0.8333333333333334 0.39583333333333337
vt 0.8333333333333334 0.5
vt 0.7708333333333334 0.5
vt 0.7708333333333334 0.39583333333333337
vt 0.8333333333333334 0.39583333333333337
vt 0.8333333333333334 0.5
vt 0.7708333333333334 0.5
vt 0.7708333333333334 0.39583333333333337
vt 0.8333333333333334 0.39583333333333337
vt 0.8333333333333334 0.5
vt 0.7708333333333334 0.5
vt 0.7708333333333334 0.39583333333333337
vt 0.8333333333333334 0.39583333333333337
vt 0.7291666666666666 0.4375
vt 0.6666666666666666 0.4375
vt 0.6666666666666666 0.38541666666666663
vt 0.7291666666666666 0.38541666666666663
vt 0.7291666666666666 0.44791666666666663
vt 0.6666666666666666 0.44791666666666663
vt 0.6666666666666666 0.39583333333333337
vt 0.7291666666666666 0.39583333333333337
vt 0.6666666666666666 0.39583333333333337
vt 0.7291666666666666 0.39583333333333337
vt 0.7291666666666666 0.44791666666666663
vt 0.6666666666666666 0.44791666666666663
vt 0.7291666666666666 0.44791666666666663
vt 0.6666666666666666 0.44791666666666663
vt 0.6666666666666666 0.39583333333333337
vt 0.7291666666666666 0.39583333333333337
vt 0.6666666666666666 0.40625
vt 0.7291666666666666 0.40625
vt 0.7291666666666666 0.45833333333333337
vt 0.6666666666666666 0.45833333333333337
vt 0.6666666666666666 0.375
vt 0.7291666666666666 0.375
vt 0.7291666666666666 0.42708333333333337
vt 0.6666666666666666 0.42708333333333337
vt 0.7291666666666666 0.45833333333333337
vt 0.6666666666666666 0.45833333333333337
vt 0.6666666666666666 0.40625
vt 0.7291666666666666 0.40625
vt 0.6666666666666666 0.41666666666666663
vt 0.7291666666666666 0.41666666666666663
vt 0.7291666666666666 0.46875
vt 0.6666666666666666 0.46875
vt 0.7291666666666666 0.32291666666666663
vt 0.7291666666666666 0.26041666666666663
vt 0.6666666666666666 0.26041666666666663
vt 0.6666666666666666 0.32291666666666663
vt 0.7291666666666666 0.32291666666666663
vt 0.6666666666666666 0.32291666666666663
vt 0.6666666666666666 0.26041666666666663
vt 0.7291666666666666 0.26041666666666663
vt 0.7291666666666666 0.4375
vt 0.6666666666666666 0.4375
vt 0.6666666666666666 0.38541666666666663
vt 0.7291666666666666 0.38541666666666663
vt 0.7291666666666666 0.44791666666666663
vt 0.6666666666666666 0.44791666666666663
vt 0.6666666666666666 0.39583333333333337
vt 0.7291666666666666 0.39583333333333337
vt 0.6666666666666666 0.39583333333333337
vt 0.7291666666666666 0.39583333333333337
vt 0.7291666666666666 0.44791666666666663
vt 0.6666666666666666 0.44791666666666663
vt 0.7291666666666666 0.44791666666666663
vt 0.6666666666666666 0.44791666666666663
vt 0.6666666666666666 0.39583333333333337
vt 0.7291666666666666 0.39583333333333337
vt 0.6666666666666666 0.40625
vt 0.7291666666666666 0.40625
vt 0.7291666666666666 0.45833333333333337
vt 0.6666666666666666 0.45833333333333337
vt 0.6666666666666666 0.375
vt 0.7291666666666666 0.375
vt 0.7291666666666666 0.42708333333333337
vt 0.6666666666666666 0.42708333333333337
vt 0.7291666666666666 0.45833333333333337
vt 0.6666666666666666 0.45833333333333337
vt 0.6666666666666666 0.40625
vt 0.7291666666666666 0.40625
vt 0.6666666666666666 0.41666666666666663
vt 0.7291666666666666 0.41666666666666663
vt 0.7291666666666666 0.46875
vt 0.6666666666666666 0.46875
vt 0.8333333333333334 0.5
vt 0.7708333333333334 0.5
vt 0.7708333333333334 0.39583333333333337
vt 0.8333333333333334 0.39583333333333337
vt 0.8333333333333334 0.5
vt 0.7708333333333334 0.5
vt 0.7708333333333334 0.39583333333333337
vt 0.8333333333333334 0.39583333333333337
vt 0.8333333333333334 0.5
vt 0.7708333333333334 0.5
vt 0.7708333333333334 0.39583333333333337
vt 0.8333333333333334 0.39583333333333337
vt 0.8333333333333334 0.5
vt 0.7708333333333334 0.5
vt 0.7708333333333334 0.39583333333333337
vt 0.8333333333333334 0.39583333333333337
vt 0.7291666666666666 0.41666666666666663
vt 0.7291666666666666 0.47916666666666663
vt 0.6666666666666666 0.47916666666666663
vt 0.6666666666666666 0.41666666666666663
vt 0.6666666666666666 0.32291666666666663
vt 0.7291666666666666 0.32291666666666663
vt 0.7291666666666666 0.26041666666666663
vt 0.6666666666666666 0.26041666666666663
vt 0.7708333333333334 0.26041666666666663
vt 0.8333333333333334 0.26041666666666663
vt 0.8333333333333334 0.32291666666666663
vt 0.7708333333333334 0.32291666666666663
vt 0.7291666666666666 0.26041666666666663
vt 0.7291666666666666 0.32291666666666663
vt 0.6666666666666666 0.32291666666666663
vt 0.6666666666666666 0.26041666666666663
vt 0.8333333333333334 0.32291666666666663
vt 0.8333333333333334 0.26041666666666663
vt 0.7708333333333334 0.26041666666666663
vt 0.7708333333333334 0.32291666666666663
vn 1 0 0
vn -1 0 0
vn 0 1 0
vn 0 -1 0
vn 0 0 1
vn 0 1 0
vn 0 -1 0
vn 0 0 1
vn 1 0 0
vn -1 0 0
vn 0 1 0
vn 0 -1 0
vn 0 0 1
vn 0 0 -1
vn -0.23162052730603974 0.972806214685367 0
vn -0.8858315352801553 0.46400699467055756 0
vn -1 0 0
vn 0.23162052730603974 0.972806214685367 0
vn 0.8858315352801553 0.46400699467055756 0
vn 1 0 0
vn 1 0 0
vn -1 0 0
vn 0 0 1
vn 0 0 -1
vn -1 0 0
vn 1 0 0
vn 0 0 1
vn 0 0 1
vn 0 0 1
vn 0 0 -1
vn 0 0 -1
vn 0 0 -1
vn 0 -1 0
vn 1 0 0
vn -1 0 0
vn 0 1 0
vn 0 -1 0
vn 0 0 1
vn 0 0 -1
vn 1 0 0
vn -1 0 0
vn 0 1 0
vn 0 -1 0
vn 0 0 -1
vn 0 1 0
vn 0 0 -1
vn 0 -1 0
vn -1 0 0
vn 1 0 0
vn 0 1 0
vn 0 -1 0
vn 0 0 1
vn 0 1 0
vn 0 0 1
vn 0 -1 0
vn 1 0 0
vn -1 0 0
vn 0 1 0
vn 0 -1 0
vn 0 0 1
vn 0 0 -1
vn -1 0 0
vn 1 0 0
vn 0 1 0
vn 0 -1 0
vn 0 0 1
vn 0 0 -1
vn 1 0 0
vn 0 1 0
vn 0 -1 0
vn 0 0 1
vn 0 0 -1
vn 1 0 0
vn 0 1 0
vn 0 -1 0
vn 0 0 1
vn 0 0 -1
vn 1 0 0
vn 0 1 0
vn 0 -1 0
vn 0 0 1
vn 0 0 -1
vn 1 0 0
vn 0 1 0
vn 0 -1 0
vn 0 0 1
vn 0 0 -1
vn 0 0 1
vn 0 1 0
vn 0 -1 0
vn -1 0 0
vn 1 0 0
vn 1 0 0
vn 0 1 0
vn 0 -1 0
vn 0 0 1
vn 0 0 -1
vn 1 0 0
vn 0 1 0
vn 0 -1 0
vn 0 0 1
vn 0 0 -1
vn -1 0 0
vn 0 1 0
vn 0 -1 0
vn 0 0 1
vn 0 0 -1
vn -1 0 0
vn 0 1 0
vn 0 -1 0
vn 0 0 1
vn 0 0 -1
vn -1 0 0
vn 0 1 0
vn 0 -1 0
vn 0 0 1
vn 0 0 -1
vn -1 0 0
vn 0 1 0
vn 0 -1 0
vn 0 0 1
vn 0 0 -1
vn -1 0 0
vn 0 1 0
vn 0 -1 0
vn 0 0 1
vn 0 0 -1
vn -1 0 0
vn 0 1 0
vn 0 -1 0
vn 0 0 1
vn 0 0 -1
vn 1 0 0
vn -1 0 0
vn 0 1 0
vn 0 -1 0
vn 1 0 0
vn -1 0 0
vn 0 0 1
vn 0 1 0
vn 0 0 -1
vn 0 -1 0
vn 0 0 1
vn 0 -1 0
vn 0 0 -1
vn 0 1 0
vn 0 0 1
vn 1 0 0
vn 0 0 -1
vn -1 0 0
vn 0 0 1
vn 0 1 0
vn 0 0 -1
vn 0 -1 0
vn 0 0 1
vn 0 -1 0
vn 0 0 -1
vn 0 1 0
vn 0 0 1
vn 0 -1 0
vn 0 0 1
vn 0 1 0
vn 0 0 -1
vn 0 -1 0
vn 0 0 1
vn 0 -1 0
vn 0 0 -1
vn 0 1 0
vn 0 0 1
vn 1 0 0
vn 0 0 -1
vn -1 0 0
vn 0 1 0
vn 0 0 -1
vn 0 0 -1
vn 0 0 1
vn 0 0 1
usemtl m_32ac1214-805e-94a8-6d46-903047519aed
f 3/1/1 2/2/1 4/3/1 5/4/1
f 8/5/2 6/6/2 7/7/2 9/8/2
f 3/9/3 11/10/3 10/11/3 2/12/3
f 4/13/4 13/14/4 12/15/4 5/16/4
f 2/17/5 10/18/5 13/19/5 4/20/5
f 6/21/6 10/22/6 11/23/6 7/24/6
f 9/25/7 12/26/7 13/27/7 8/28/7
f 8/29/8 13/30/8 10/31/8 6/32/8
f 15/33/9 14/34/9 16/35/9 17/36/9
f 20/37/10 18/38/10 19/39/10 21/40/10
f 18/41/11 14/42/11 15/43/11 19/44/11
f 17/45/12 16/46/12 20/47/12 21/48/12
f 16/49/13 14/50/13 18/51/13 20/52/13
f 19/53/14 15/54/14 17/55/14 21/56/14
f 23/57/15 22/58/15 24/59/15 25/60/15
f 25/61/16 24/62/16 28/63/16 29/64/16
f 29/65/17 28/66/17 27/67/17 26/68/17
f 31/69/18 22/70/18 30/71/18 32/72/18
f 35/73/19 31/74/19 32/75/19 36/76/19
f 34/77/20 35/78/20 36/79/20 33/80/20
f 38/81/21 48/82/21 47/83/21 40/84/21
f 44/85/22 46/86/22 45/87/22 42/88/22
f 39/89/23 37/90/23 41/91/23 43/92/23
f 44/93/24 42/94/24 38/95/24 40/96/24
f 41/97/25 45/98/25 46/99/25 43/100/25
f 39/101/26 47/102/26 48/103/26 37/104/26
f 54/105/27 55/106/27 52/107/27 51/108/27
f 55/109/28 53/110/28 50/111/28 52/112/28
f 49/113/29 50/114/29 53/115/29
f 59/116/30 62/117/30 61/118/30 58/119/30
f 57/120/31 60/121/31 62/122/31 59/123/31
f 57/124/32 56/125/32 60/126/32
f 40/127/33 39/128/33 43/129/33 44/130/33
f 64/131/34 63/132/34 65/133/34 66/134/34
f 69/135/35 67/136/35 68/137/35 70/138/35
f 67/139/36 63/140/36 64/141/36 68/142/36
f 66/143/37 65/144/37 69/145/37 70/146/37
f 65/147/38 63/148/38 67/149/38 69/150/38
f 68/151/39 64/152/39 66/153/39 70/154/39
f 72/155/40 71/156/40 73/157/40 74/158/40
f 77/159/41 75/160/41 76/161/41 78/162/41
f 75/163/42 80/164/42 79/165/42 76/166/42
f 78/167/43 81/168/43 82/169/43 77/170/43
f 76/171/44 79/172/44 81/173/44 78/174/44
f 72/175/45 79/176/45 80/177/45 71/178/45
f 74/179/46 81/180/46 79/181/46 72/182/46
f 73/183/47 82/184/47 81/185/47 74/186/47
f 84/187/48 83/188/48 85/189/48 86/190/48
f 1/191/49 87/192/49 88/193/49 89/194/49
f 87/195/50 91/196/50 90/197/50 88/198/50
f 89/199/51 92/200/51 93/201/51 1/202/51
f 88/203/52 90/204/52 92/205/52 89/206/52
f 84/207/53 90/208/53 91/209/53 83/210/53
f 86/211/54 92/212/54 90/213/54 84/214/54
f 85/215/55 93/216/55 92/217/55 86/218/55
f 95/219/56 94/220/56 96/221/56 97/222/56
f 100/223/57 98/224/57 99/225/57 101/226/57
f 98/227/58 94/228/58 95/229/58 99/230/58
f 97/231/59 96/232/59 100/233/59 101/234/59
f 96/235/60 94/236/60 98/237/60 100/238/60
f 99/239/61 95/240/61 97/241/61 101/242/61
f 104/243/62 102/244/62 103/245/62 105/246/62
f 107/247/63 106/248/63 108/249/63 109/250/63
f 103/251/64 102/252/64 106/253/64 107/254/64
f 108/255/65 104/256/65 105/257/65 109/258/65
f 106/259/66 102/260/66 104/261/66 108/262/66
f 105/263/67 103/264/67 107/265/67 109/266/67
f 111/267/68 110/268/68 112/269/68 113/270/68
f 114/271/69 110/272/69 111/273/69 115/274/69
f 113/275/70 112/276/70 116/277/70 117/278/70
f 112/279/71 110/280/71 114/281/71 116/282/71
f 115/283/72 111/284/72 113/285/72 117/286/72
f 119/287/73 118/288/73 120/289/73 121/290/73
f 122/291/74 118/292/74 119/293/74 123/294/74
f 121/295/75 120/296/75 124/297/75 125/298/75
f 120/299/76 118/300/76 122/301/76 124/302/76
f 123/303/77 119/304/77 121/305/77 125/306/77
f 127/307/78 126/308/78 128/309/78 129/310/78
f 130/311/79 126/312/79 127/313/79 131/314/79
f 129/315/80 128/316/80 132/317/80 133/318/80
f 128/319/81 126/320/81 130/321/81 132/322/81
f 131/323/82 127/324/82 129/325/82 133/326/82
f 135/327/83 134/328/83 136/329/83 137/330/83
f 138/331/84 134/332/84 135/333/84 139/334/84
f 137/335/85 136/336/85 140/337/85 141/338/85
f 136/339/86 134/340/86 138/341/86 140/342/86
f 139/343/87 135/344/87 137/345/87 141/346/87
f 143/347/88 142/348/88 144/349/88 145/350/88
f 146/351/89 142/352/89 143/353/89 147/354/89
f 145/355/90 144/356/90 148/357/90 149/358/90
f 144/359/91 142/360/91 146/361/91 148/362/91
f 147/363/92 143/364/92 145/365/92 149/366/92
f 151/367/93 150/368/93 152/369/93 153/370/93
f 154/371/94 150/372/94 151/373/94 155/374/94
f 153/375/95 152/376/95 156/377/95 157/378/95
f 152/379/96 150/380/96 154/381/96 156/382/96
f 155/383/97 151/384/97 153/385/97 157/386/97
f 159/387/98 158/388/98 160/389/98 161/390/98
f 162/391/99 158/392/99 159/393/99 163/394/99
f 161/395/100 160/396/100 164/397/100 165/398/100
f 160/399/101 158/400/101 162/401/101 164/402/101
f 163/403/102 159/404/102 161/405/102 165/406/102
f 168/407/103 166/408/103 167/409/103 169/410/103
f 167/411/104 166/412/104 170/413/104 171/414/104
f 172/415/105 168/416/105 169/417/105 173/418/105
f 170/419/106 166/420/106 168/421/106 172/422/106
f 169/423/107 167/424/107 171/425/107 173/426/107
f 176/427/108 174/428/108 175/429/108 177/430/108
f 175/431/109 174/432/109 178/433/109 179/434/109
f 180/435/110 176/436/110 177/437/110 181/438/110
f 178/439/111 174/440/111 176/441/111 180/442/111
f 177/443/112 175/444/112 179/445/112 181/446/112
f 184/447/113 182/448/113 183/449/113 185/450/113
f 183/451/114 182/452/114 186/453/114 187/454/114
f 188/455/115 184/456/115 185/457/115 189/458/115
f 186/459/116 182/460/116 184/461/116 188/462/116
f 185/463/117 183/464/117 187/465/117 189/466/117
f 192/467/118 190/468/118 191/469/118 193/470/118
f 191/471/119 190/472/119 194/473/119 195/474/119
f 196/475/120 192/476/120 193/477/120 197/478/120
f 194/479/121 190/480/121 192/481/121 196/482/121
f 193/483/122 191/484/122 195/485/122 197/486/122
f 200/487/123 198/488/123 199/489/123 201/490/123
f 199/491/124 198/492/124 202/493/124 203/494/124
f 204/495/125 200/496/125 201/497/125 205/498/125
f 202/499/126 198/500/126 200/501/126 204/502/126
f 201/503/127 199/504/127 203/505/127 205/506/127
f 208/507/128 206/508/128 207/509/128 209/510/128
f 207/511/129 206/512/129 210/513/129 211/514/129
f 212/515/130 208/516/130 209/517/130 213/518/130
f 210/519/131 206/520/131 208/521/131 212/522/131
f 209/523/132 207/524/132 211/525/132 213/526/132
f 215/527/133 214/528/133 216/529/133 217/530/133
f 220/531/134 218/532/134 219/533/134 221/534/134
f 218/535/135 214/536/135 215/537/135 219/538/135
f 217/539/136 216/540/136 220/541/136 221/542/136
f 226/543/137 227/544/137 228/545/137 229/546/137
f 222/547/138 223/548/138 224/549/138 225/550/138
f 239/551/139 238/552/139 237/553/139 235/554/139
f 240/555/140 239/556/140 235/557/140 232/558/140
f 241/559/141 240/560/141 232/561/141 233/562/141
f 238/563/142 241/564/142 233/565/142 237/566/142
f 243/567/143 242/568/143 234/569/143 236/570/143
f 244/571/144 243/572/144 236/573/144 231/574/144
f 245/575/145 244/576/145 231/577/145 230/578/145
f 242/579/146 245/580/146 230/581/146 234/582/146
f 251/583/147 250/584/147 249/585/147 248/586/147
f 252/587/148 251/588/148 248/589/148 246/590/148
f 253/591/149 252/592/149 246/593/149 247/594/149
f 250/595/150 253/596/150 247/597/150 249/598/150
f 263/599/151 262/600/151 261/601/151 259/602/151
f 264/603/152 263/604/152 259/605/152 256/606/152
f 265/607/153 264/608/153 256/609/153 257/610/153
f 262/611/154 265/612/154 257/613/154 261/614/154
f 267/615/155 266/616/155 258/617/155 260/618/155
f 268/619/156 267/620/156 260/621/156 255/622/156
f 269/623/157 268/624/157 255/625/157 254/626/157
f 266/627/158 269/628/158 254/629/158 258/630/158
f 276/631/159 274/632/159 275/633/159 277/634/159
f 276/635/160 277/636/160 273/637/160 271/638/160
f 279/639/161 278/640/161 277/641/161 275/642/161
f 280/643/162 279/644/162 275/645/162 272/646/162
f 281/647/163 280/648/163 272/649/163 273/650/163
f 278/651/164 281/652/164 273/653/164 277/654/164
f 283/655/165 282/656/165 274/657/165 276/658/165
f 284/659/166 283/660/166 276/661/166 271/662/166
f 285/663/167 284/664/167 271/665/167 270/666/167
f 282/667/168 285/668/168 270/669/168 274/670/168
f 287/671/169 286/672/169 275/673/169 274/674/169
f 288/675/170 287/676/170 274/677/170 270/678/170
f 289/679/171 288/680/171 270/681/171 272/682/171
f 286/683/172 289/684/172 272/685/172 275/686/172
f 230/687/173 232/688/173 235/689/173 234/690/173
f 291/691/174 290/692/174 292/693/174 293/694/174
f 295/695/175 294/696/175 296/697/175 297/698/175
f 300/699/176 298/700/176 299/701/176 301/702/176
f 304/703/177 302/704/177 303/705/177 305/706/177