# Made in Blockbench 5.1.3
mtllib melting_crucible.mtl

o cube
v -0.5 -0.5 -0.25
v 0.6875 0.4375 -0.9375
v 0.6875 0.8125 -0.9375
v 0.6875 0.8125 -1
v 0.6875 0.4375 -1
v 0.3125 0.8125 -1
v 0.3125 0.4375 -1
v 0.3125 0.8125 -0.9375
v 0.3125 0.4375 -0.9375
v 1.0625 0.375 -0.9375
v 1.0625 0.875 -0.9375
v 1.0625 0.875 -1
v 1.0625 0.375 -1
v 0.8125 0.875 -1
v 0.8125 0.375 -1
v 0.8125 0.875 -0.9375
v 0.8125 0.375 -0.9375
v 0.0625 0.25 1
v 0.0625 1 1
v 0.0625 1 0.9375
v 0.0625 0.25 0.9375
v 0 1 0.9375
v 0 0.25 0.9375
v 0 1 1
v 0 0.25 1
v 1.9375 0.25 0.9375
v 1.9375 1 0.9375
v 1.9375 1 -0.9375
v 1.9375 0.25 -0.9375
v 0.0625 1 -0.9375
v 0.0625 0.25 -0.9375
v 0.0625 1 0.9375
v 0.0625 0.25 0.9375
v 2 0 1
v 2 0.25 1
v 2 0.25 -1
v 2 0 -1
v 0 0.25 -1
v 0 0 -1
v 0 0.25 1
v 0 0 1
v 0.375 -0.5 -0.625
v 0.375 0 -0.625
v 0.375 0 -0.875
v 0.375 -0.5 -0.875
v 0.125 0 -0.875
v 0.125 -0.5 -0.875
v 0.125 0 -0.625
v 0.125 -0.5 -0.625
v 0 -0.5 1
v 0 0 1
v 0 0 0
v 0 -0.5 0
v -1 0 0
v -1 -0.5 0
v -1 0 1
v -1 -0.5 1
v -0.1875 -0.5 1.875
v -0.1875 0 1.875
v -0.1875 0 1.625
v -0.1875 -0.5 1.625
v -0.3125 0 1.625
v -0.3125 -0.5 1.625
v -0.3125 0 1.875
v -0.3125 -0.5 1.875
v 0 0 2
v 0 1 2
v 0 1 1.5
v 0 0 1.5
v -1 1 1.5
v -1 0 1.5
v -1 1 2
v -1 0 2
v 2 -0.5 2
v 2 1 2
v 2 1 1
v 2 -0.5 1
v 1 1 1
v 1 -0.5 1
v 1 1 2
v 1 -0.5 2
v 2 -1 2
v 2 -0.5 2
v 2 -0.5 -1
v 2 -1 -1
v -1 -0.5 -1
v -1 -1 -1
v -1 -0.5 2
v -1 -1 2
v 1.5 -0.5 0.5
v 1.5 0 0.5
v 1.5 0 -0.5
v 1.5 -0.5 -0.5
v 0.5 0 -0.5
v 0.5 -0.5 -0.5
v 0.5 0 0.5
v 0.5 -0.5 0.5
v -0.6875 -0.5 1.875
v -0.6875 0 1.875
v -0.6875 0 1.625
v -0.6875 -0.5 1.625
v -0.8125 0 1.625
v -0.8125 -0.5 1.625
v -0.8125 0 1.875
v -0.8125 -0.5 1.875
v 0.0625 0.25 -0.9375
v 0.0625 1 -0.9375
v 0.0625 1 -1
v 0.0625 0.25 -1
v 0 1 -1
v 0 0.25 -1
v 0 1 -0.9375
v 0 0.25 -0.9375
v 2 0.25 -0.9375
v 2 1 -0.9375
v 2 1 -1
v 2 0.25 -1
v 1.9375 1 -1
v 1.9375 0.25 -1
v 1.9375 1 -0.9375
v 1.9375 0.25 -0.9375
v 2 0.25 1
v 2 1 1
v 2 1 0.9375
v 2 0.25 0.9375
v 1.9375 1 0.9375
v 1.9375 0.25 0.9375
v 1.9375 1 1
v 1.9375 0.25 1
v 1.875 -0.5 -0.625
v 1.875 0 -0.625
v 1.875 0 -0.875
v 1.875 -0.5 -0.875
v 1.625 0 -0.875
v 1.625 -0.5 -0.875
v 1.625 0 -0.625
v 1.625 -0.5 -0.625
v 1.875 -0.5 0.875
v 1.875 0 0.875
v 1.875 0 0.625
v 1.875 -0.5 0.625
v 1.625 0 0.625
v 1.625 -0.5 0.625
v 1.625 0 0.875
v 1.625 -0.5 0.875
v 0.375 -0.5 0.875
v 0.375 0 0.875
v 0.375 0 0.625
v 0.375 -0.5 0.625
v 0.125 0 0.625
v 0.125 -0.5 0.625
v 0.125 0 0.875
v 0.125 -0.5 0.875
v 2 1 1
v 2 1.25 1
v 2 1.25 -1
v 2 1 -1
v 0 1.25 -1
v 0 1 -1
v 0 1.25 1
v 0 1 1
v 1.625 -0.375 -0.8125
v 1.625 -0.125 -0.8125
v 0.375 -0.125 -0.8125
v 0.375 -0.375 -0.8125
v 0.375 -0.375 -0.6875
v 0.375 -0.125 -0.6875
v 1.625 -0.125 -0.6875
v 1.625 -0.375 -0.6875
v 1.625 -0.375 0.6875
v 1.625 -0.125 0.6875
v 0.375 -0.125 0.6875
v 0.375 -0.375 0.6875
v 0.375 -0.375 0.8125
v 0.375 -0.125 0.8125
v 1.625 -0.125 0.8125
v 1.625 -0.375 0.8125
v 0.3125 -0.375 0.625
v 0.3125 -0.125 0.625
v 0.3125 -0.125 -0.625
v 0.3125 -0.375 -0.625
v 0.1875 -0.375 -0.625
v 0.1875 -0.125 -0.625
v 0.1875 -0.125 0.625
v 0.1875 -0.375 0.625
v 1.8125 -0.375 0.625
v 1.8125 -0.125 0.625
v 1.8125 -0.125 -0.625
v 1.8125 -0.375 -0.625
v 1.6875 -0.375 -0.625
v 1.6875 -0.125 -0.625
v 1.6875 -0.125 0.625
v 1.6875 -0.375 0.625
v -0.5 -0.25 -0.25
v -0.5 -0.25 0
v -0.5 -0.5 0
v 0.5 -0.25 0
v 0.5 -0.5 0
v 0.5 -0.25 -0.25
v 0.5 -0.5 -0.25
v 0.5 -0.25 -0.25
v -0.5 -0.25 -0.25
v -0.5 -0.5 -0.25
v 2 0.8125 0.8125
v 1.9375 0.8125 0.8125
v 1.9375 0.8125 0.1875
v 2 0.8125 0.1875
v 1.9375 0.25 0.8125
v 1.9375 0.25 0.1875
v 2 0.25 0.8125
v 2 0.25 0.1875
v 1.9375 0.9375 0.625
v 1.9375 0.9375 0.375
v 1.9375 0.8125 0.625
v 1.9375 0.8125 0.375
v 2 0.9375 0.625
v 2 0.9375 0.375
v 2 0.8125 0.625
v 2 0.8125 0.375
vt 0.28906203125 0.3125
vt 0.296875 0.3125
vt 0.296875 0.265625
vt 0.28906203125 0.265625
vt 0.25 0.3125
vt 0.296875 0.3125
vt 0.296875 0.265625
vt 0.25 0.265625
vt 0.25 0.3125
vt 0.25781203125 0.3125
vt 0.25781203125 0.265625
vt 0.25 0.265625
vt 0.25 0.265625
vt 0.25 0.27343796875000004
vt 0.296875 0.27343796875000004
vt 0.296875 0.265625
vt 0.25 0.30468796875000004
vt 0.25 0.3125
vt 0.296875 0.3125
vt 0.296875 0.30468796875000004
vt 0.32031203125 0.3125
vt 0.328125 0.3125
vt 0.328125 0.25
vt 0.32031203125 0.25
vt 0.296875 0.3125
vt 0.328125 0.3125
vt 0.328125 0.25
vt 0.296875 0.25
vt 0.296875 0.3125
vt 0.30468796875 0.3125
vt 0.30468796875 0.25
vt 0.296875 0.25
vt 0.328125 0.25781203124999996
vt 0.328125 0.25
vt 0.296875 0.25
vt 0.296875 0.25781203124999996
vt 0.328125 0.3125
vt 0.328125 0.30468796875000004
vt 0.296875 0.30468796875000004
vt 0.296875 0.3125
vt 0.38281203125 0.3125
vt 0.375 0.3125
vt 0.375 0.40625
vt 0.38281203125 0.40625
vt 0.38281203125 0.3125
vt 0.375 0.3125
vt 0.375 0.40625
vt 0.38281203125 0.40625
vt 0.375 0.40625
vt 0.38281203125 0.40625
vt 0.38281203125 0.3125
vt 0.375 0.3125
vt 0.375 0.40625
vt 0.38281203125 0.40625
vt 0.38281203125 0.3125
vt 0.375 0.3125
vt 0 0
vt 0 0
vt 0 0
vt 0 0
vt 0 0
vt 0 0
vt 0 0
vt 0 0
vt 0.38281203125 0.5625
vt 0.61718796875 0.5625
vt 0.61718796875 0.46875
vt 0.38281203125 0.46875
vt 0.38281203125 0.5625
vt 0.61718796875 0.5625
vt 0.61718796875 0.46875
vt 0.38281203125 0.46875
vt 0.38281203125 0.5625
vt 0.61718796875 0.5625
vt 0.61718796875 0.46875
vt 0.38281203125 0.46875
vt 0.38281203125 0.5625
vt 0.61718796875 0.5625
vt 0.61718796875 0.46875
vt 0.38281203125 0.46875
vt 0.375 0.21875
vt 0.125 0.21875
vt 0.125 0.25
vt 0.375 0.25
vt 0.375 0.21875
vt 0.125 0.21875
vt 0.125 0.25
vt 0.375 0.25
vt 0.375 0.21875
vt 0.125 0.21875
vt 0.125 0.25
vt 0.375 0.25
vt 0.375 0.21875
vt 0.125 0.21875
vt 0.125 0.25
vt 0.375 0.25
vt 0.625 0.8125
vt 0.625 0.5625
vt 0.375 0.5625
vt 0.375 0.8125
vt 0.375 0.5625
vt 0.375 0.8125
vt 0.625 0.8125
vt 0.625 0.5625
vt 0.03125 0.4375
vt 0 0.4375
vt 0 0.5
vt 0.03125 0.5
vt 0.03125 0.4375
vt 0 0.4375
vt 0 0.5
vt 0.03125 0.5
vt 0 0.5
vt 0.03125 0.5
vt 0.03125 0.4375
vt 0 0.4375
vt 0 0.5
vt 0.03125 0.5
vt 0.03125 0.4375
vt 0 0.4375
vt 0 0.4375
vt 0.125 0.4375
vt 0.125 0.375
vt 0 0.375
vt 0 0.4375
vt 0.125 0.4375
vt 0.125 0.375
vt 0 0.375
vt 0.125 0.5
vt 0.25 0.5
vt 0.25 0.4375
vt 0.125 0.4375
vt 0 0.4375
vt 0.125 0.4375
vt 0.125 0.375
vt 0 0.375
vt 0 0.4375
vt 0.125 0.4375
vt 0.125 0.3125
vt 0 0.3125
vt 0.03125 0.4375
vt 0 0.4375
vt 0 0.5
vt 0.03125 0.5
vt 0.046875 0.4375
vt 0.03125 0.4375
vt 0.03125 0.5
vt 0.046875 0.5
vt 0 0.5
vt 0.03125 0.5
vt 0.03125 0.4375
vt 0 0.4375
vt 0.03125 0.5
vt 0.046875 0.5
vt 0.046875 0.4375
vt 0.03125 0.4375
vt 0.125 0.4375
vt 0.0625 0.4375
vt 0.0625 0.3125
vt 0.125 0.3125
vt 0 0.4375
vt 0.125 0.4375
vt 0.125 0.3125
vt 0 0.3125
vt 0.0625 0.4375
vt 0.125 0.4375
vt 0.125 0.3125
vt 0.0625 0.3125
vt 0.125 0.4375
vt 0.25 0.4375
vt 0.25 0.3125
vt 0.125 0.3125
vt 0.125 0.375
vt 0.125 0.3125
vt 0 0.3125
vt 0 0.375
vt 0 0.375
vt 0 0.4375
vt 0.125 0.4375
vt 0.125 0.375
vt 0.375 1
vt 0.5 1
vt 0.5 0.8125
vt 0.375 0.8125
vt 0.25 0.5
vt 0.375 0.5
vt 0.375 0.3125
vt 0.25 0.3125
vt 0.25 0.5
vt 0.375 0.5
vt 0.375 0.3125
vt 0.25 0.3125
vt 0.50781203125 1
vt 0.625 1
vt 0.625 0.8125
vt 0.50781203125 0.8125
vt 0 0.1875
vt 0 0.3125
vt 0.125 0.3125
vt 0.125 0.1875
vt 0 0.5625
vt 0.375 0.5625
vt 0.375 0.5
vt 0 0.5
vt 0 0.5625
vt 0.375 0.5625
vt 0.375 0.5
vt 0 0.5
vt 0 0.625
vt 0.375 0.625
vt 0.375 0.5625
vt 0 0.5625
vt 0 0.5625
vt 0.375 0.5625
vt 0.375 0.5
vt 0 0.5
vt 0.375 1
vt 0.375 0.625
vt 0 0.625
vt 0.0001 0.9999
vt 0 0.625
vt 0.375 0.625
vt 0.375 1
vt 0 1
vt 0.125 0.3125
vt 0.25 0.3125
vt 0.25 0.25
vt 0.125 0.25
vt 0.125 0.3125
vt 0.25 0.3125
vt 0.25 0.25
vt 0.125 0.25
vt 0.125 0.3125
vt 0.25 0.3125
vt 0.25 0.25
vt 0.125 0.25
vt 0.125 0.3125
vt 0.25 0.3125
vt 0.25 0.25
vt 0.125 0.25
vt 0.03125 0.4375
vt 0 0.4375
vt 0 0.5
vt 0.03125 0.5
vt 0.046875 0.4375
vt 0.03125 0.4375
vt 0.03125 0.5
vt 0.046875 0.5
vt 0 0.5
vt 0.03125 0.5
vt 0.03125 0.4375
vt 0 0.4375
vt 0.03125 0.5
vt 0.046875 0.5
vt 0.046875 0.4375
vt 0.03125 0.4375
vt 0.38281203125 0.3125
vt 0.375 0.3125
vt 0.375 0.40625
vt 0.38281203125 0.40625
vt 0.38281203125 0.3125
vt 0.375 0.3125
vt 0.375 0.40625
vt 0.38281203125 0.40625
vt 0.375 0.40625
vt 0.38281203125 0.40625
vt 0.38281203125 0.3125
vt 0.375 0.3125
vt 0.375 0.40625
vt 0.38281203125 0.40625
vt 0.38281203125 0.3125
vt 0.375 0.3125
vt 0.38281203125 0.3125
vt 0.375 0.3125
vt 0.375 0.40625
vt 0.38281203125 0.40625
vt 0.38281203125 0.3125
vt 0.375 0.3125
vt 0.375 0.40625
vt 0.38281203125 0.40625
vt 0.375 0.40625
vt 0.38281203125 0.40625
vt 0.38281203125 0.3125
vt 0.375 0.3125
vt 0.375 0.40625
vt 0.38281203125 0.40625
vt 0.38281203125 0.3125
vt 0.375 0.3125
vt 0.38281203125 0.3125
vt 0.375 0.3125
vt 0.375 0.40625
vt 0.38281203125 0.40625
vt 0.38281203125 0.3125
vt 0.375 0.3125
vt 0.375 0.40625
vt 0.38281203125 0.40625
vt 0.375 0.40625
vt 0.38281203125 0.40625
vt 0.38281203125 0.3125
vt 0.375 0.3125
vt 0.375 0.40625
vt 0.38281203125 0.40625
vt 0.38281203125 0.3125
vt 0.375 0.3125
vt 0.03125 0.4375
vt 0 0.4375
vt 0 0.5
vt 0.03125 0.5
vt 0.03125 0.4375
vt 0 0.4375
vt 0 0.5
vt 0.03125 0.5
vt 0 0.5
vt 0.03125 0.5
vt 0.03125 0.4375
vt 0 0.4375
vt 0 0.5
vt 0.03125 0.5
vt 0.03125 0.4375
vt 0 0.4375
vt 0.03125 0.4375
vt 0 0.4375
vt 0 0.5
vt 0.03125 0.5
vt 0.03125 0.4375
vt 0 0.4375
vt 0 0.5
vt 0.03125 0.5
vt 0 0.5
vt 0.03125 0.5
vt 0.03125 0.4375
vt 0 0.4375
vt 0 0.5
vt 0.03125 0.5
vt 0.03125 0.4375
vt 0 0.4375
vt 0.03125 0.4375
vt 0 0.4375
vt 0 0.5
vt 0.03125 0.5
vt 0.03125 0.4375
vt 0 0.4375
vt 0 0.5
vt 0.03125 0.5
vt 0 0.5
vt 0.03125 0.5
vt 0.03125 0.4375
vt 0 0.4375
vt 0 0.5
vt 0.03125 0.5
vt 0.03125 0.4375
vt 0 0.4375
vt 0.375 0.21875
vt 0.125 0.21875
vt 0.125 0.25
vt 0.375 0.25
vt 0.375 0.21875
vt 0.125 0.21875
vt 0.125 0.25
vt 0.375 0.25
vt 0.375 0.21875
vt 0.125 0.21875
vt 0.125 0.25
vt 0.375 0.25
vt 0.375 0.21875
vt 0.125 0.21875
vt 0.125 0.25
vt 0.375 0.25
vt 0.625 0.8125
vt 0.625 0.5625
vt 0.375 0.5625
vt 0.375 0.8125
vt 0.375 0.5625
vt 0.375 0.8125
vt 0.625 0.8125
vt 0.625 0.5625
vt 0.28125 0.1875
vt 0.125 0.1875
vt 0.125 0.21875
vt 0.28125 0.21875
vt 0.125 0.21875
vt 0.28125 0.21875
vt 0.28125 0.1875
vt 0.125 0.1875
vt 0.28125 0.21093796875000004
vt 0.28125 0.19531203124999996
vt 0.125 0.19531203124999996
vt 0.125 0.21093796875000004
vt 0.125 0.19531203124999996
vt 0.125 0.21093796875000004
vt 0.28125 0.21093796875000004
vt 0.28125 0.19531203124999996
vt 0.28125 0.1875
vt 0.125 0.1875
vt 0.125 0.21875
vt 0.28125 0.21875
vt 0.125 0.21875
vt 0.28125 0.21875
vt 0.28125 0.1875
vt 0.125 0.1875
vt 0.28125 0.21093796875000004
vt 0.28125 0.19531203124999996
vt 0.125 0.19531203124999996
vt 0.125 0.21093796875000004
vt 0.125 0.19531203124999996
vt 0.125 0.21093796875000004
vt 0.28125 0.21093796875000004
vt 0.28125 0.19531203124999996
vt 0.28125 0.1875
vt 0.125 0.1875
vt 0.125 0.21875
vt 0.28125 0.21875
vt 0.125 0.21875
vt 0.28125 0.21875
vt 0.28125 0.1875
vt 0.125 0.1875
vt 0.28125 0.21093796875000004
vt 0.28125 0.19531203124999996
vt 0.125 0.19531203124999996
vt 0.125 0.21093796875000004
vt 0.125 0.19531203124999996
vt 0.125 0.21093796875000004
vt 0.28125 0.21093796875000004
vt 0.28125 0.19531203124999996
vt 0.28125 0.1875
vt 0.125 0.1875
vt 0.125 0.21875
vt 0.28125 0.21875
vt 0.125 0.21875
vt 0.28125 0.21875
vt 0.28125 0.1875
vt 0.125 0.1875
vt 0.28125 0.21093796875000004
vt 0.28125 0.19531203124999996
vt 0.125 0.19531203124999996
vt 0.125 0.21093796875000004
vt 0.125 0.19531203124999996
vt 0.125 0.21093796875000004
vt 0.28125 0.21093796875000004
vt 0.28125 0.19531203124999996
vt 0 0.03125
vt 0.03125 0.03125
vt 0.03125 0
vt 0.000041015625 0.00004101562500002931
vt 0 0.0625
vt 0.125 0.0625
vt 0.125 0.03125
vt 0 0.03125
vt 0 0
vt 0 0.03125
vt 0.125 0.03125
vt 0.125 0
vt 0.125 0.03125
vt 0 0.03125
vt 0 0.0625
vt 0.125 0.0625
vt 0.0078125 0.0703125
vt 0.0078125 0.140625
vt 0.015625 0.140625
vt 0.015625 0.0703125
vt 0.0859375 0.0703125
vt 0.078125 0.0703125
vt 0.078125 0.140625
vt 0.0859375 0.140625
vt 0.0078125 0.0703125
vt 0.0078125 0.140625
vt 0.0859375 0.140625
vt 0.0859375 0.0703125
vt 0.0859375 0.140625
vt 0.0859375 0.1328125
vt 0.0078125 0.1328125
vt 0.0078125 0.140625
vt 0.03125 0.15625
vt 0.0625 0.15625
vt 0.0625 0.140625
vt 0.03125 0.140625
vt 0.0625 0.1640625
vt 0.0625 0.15625
vt 0.03125 0.15625
vt 0.03125 0.1640625
vt 0.0625 0.15625
vt 0.0703125 0.15625
vt 0.0703125 0.140625
vt 0.0625 0.140625
vt 0.0234375 0.140625
vt 0.0234375 0.15625
vt 0.03125 0.15625
vt 0.03125 0.140625
vn 1 0 0
vn 0 0 -1
vn -1 0 0
vn 0 -1 0
vn 0 1 0
vn 1 0 0
vn 0 0 -1
vn -1 0 0
vn 0 -1 0
vn 0 1 0
vn 1 0 0
vn 0 0 -1
vn -1 0 0
vn 0 0 1
vn 0 -1 0
vn 0 1 0
vn 1 0 0
vn 0 0 -1
vn -1 0 0
vn 0 0 1
vn 1 0 0
vn 0 0 -1
vn -1 0 0
vn 0 0 1
vn 0 -1 0
vn 0 1 0
vn 1 0 0
vn 0 0 -1
vn -1 0 0
vn 0 0 1
vn 1 0 0
vn 0 0 -1
vn -1 0 0
vn 0 0 1
vn 0 1 0
vn 1 0 0
vn 0 0 -1
vn -1 0 0
vn 0 0 1
vn 1 0 0
vn 0 0 -1
vn -1 0 0
vn 0 0 1
vn 0 -1 0
vn 0 1 0
vn 1 0 0
vn 0 0 -1
vn -1 0 0
vn 0 0 1
vn 0 1 0
vn 1 0 0
vn 0 0 -1
vn -1 0 0
vn 0 0 1
vn 0 -1 0
vn 0 1 0
vn 1 0 0
vn 0 0 -1
vn -1 0 0
vn 0 0 1
vn 1 0 0
vn 0 0 -1
vn -1 0 0
vn 0 0 1
vn 1 0 0
vn 0 0 -1
vn -1 0 0
vn 0 0 1
vn 1 0 0
vn 0 0 -1
vn -1 0 0
vn 0 0 1
vn 1 0 0
vn 0 0 -1
vn -1 0 0
vn 0 0 1
vn 1 0 0
vn 0 0 -1
vn -1 0 0
vn 0 0 1
vn 1 0 0
vn 0 0 -1
vn -1 0 0
vn 0 0 1
vn 1 0 0
vn 0 0 -1
vn -1 0 0
vn 0 0 1
vn 1 0 0
vn 0 0 -1
vn -1 0 0
vn 0 0 1
vn 0 -1 0
vn 0 1 0
vn 0 0 -1
vn 0 0 1
vn 0 -1 0
vn 0 1 0
vn 0 0 -1
vn 0 0 1
vn 0 -1 0
vn 0 1 0
vn 1 0 0
vn -1 0 0
vn 0 -1 0
vn 0 1 0
vn 1 0 0
vn -1 0 0
vn 0 -1 0
vn 0 1 0
vn -1 0 0
vn 0 0 1
vn 0 1 0
vn 0 0 -1
vn 0 0 1
vn 0 0 -1
vn 1 0 0
vn 0 1 0
vn 1 0 0
vn 0 1 0
vn 0 0 1
vn 0 0 -1
usemtl m_f6887dba-9dec-f27c-446d-7808da3d7d2c
f 4/1/1 3/2/1 2/3/1 5/4/1
f 6/5/2 4/6/2 5/7/2 7/8/2
f 8/9/3 6/10/3 7/11/3 9/12/3
f 9/13/4 7/14/4 5/15/4 2/16/4
f 3/17/5 4/18/5 6/19/5 8/20/5
f 12/21/6 11/22/6 10/23/6 13/24/6
f 14/25/7 12/26/7 13/27/7 15/28/7
f 16/29/8 14/30/8 15/31/8 17/32/8
f 17/33/9 15/34/9 13/35/9 10/36/9
f 11/37/10 12/38/10 14/39/10 16/40/10
f 20/41/11 19/42/11 18/43/11 21/44/11
f 22/45/12 20/46/12 21/47/12 23/48/12
f 24/49/13 22/50/13 23/51/13 25/52/13
f 19/53/14 24/54/14 25/55/14 18/56/14
f 25/57/15 23/58/15 21/59/15 18/60/15
f 19/61/16 20/62/16 22/63/16 24/64/16
f 28/65/17 27/66/17 26/67/17 29/68/17
f 30/69/18 28/70/18 29/71/18 31/72/18
f 32/73/19 30/74/19 31/75/19 33/76/19
f 27/77/20 32/78/20 33/79/20 26/80/20
f 36/81/21 35/82/21 34/83/21 37/84/21
f 38/85/22 36/86/22 37/87/22 39/88/22
f 40/89/23 38/90/23 39/91/23 41/92/23
f 35/93/24 40/94/24 41/95/24 34/96/24
f 41/97/25 39/98/25 37/99/25 34/100/25
f 35/101/26 36/102/26 38/103/26 40/104/26
f 44/105/27 43/106/27 42/107/27 45/108/27
f 46/109/28 44/110/28 45/111/28 47/112/28
f 48/113/29 46/114/29 47/115/29 49/116/29
f 43/117/30 48/118/30 49/119/30 42/120/30
f 52/121/31 51/122/31 50/123/31 53/124/31
f 54/125/32 52/126/32 53/127/32 55/128/32
f 56/129/33 54/130/33 55/131/33 57/132/33
f 51/133/34 56/134/34 57/135/34 50/136/34
f 51/137/35 52/138/35 54/139/35 56/140/35
f 60/141/36 59/142/36 58/143/36 61/144/36
f 62/145/37 60/146/37 61/147/37 63/148/37
f 64/149/38 62/150/38 63/151/38 65/152/38
f 59/153/39 64/154/39 65/155/39 58/156/39
f 68/157/40 67/158/40 66/159/40 69/160/40
f 70/161/41 68/162/41 69/163/41 71/164/41
f 72/165/42 70/166/42 71/167/42 73/168/42
f 67/169/43 72/170/43 73/171/43 66/172/43
f 73/173/44 71/174/44 69/175/44 66/176/44
f 67/177/45 68/178/45 70/179/45 72/180/45
f 76/181/46 75/182/46 74/183/46 77/184/46
f 78/185/47 76/186/47 77/187/47 79/188/47
f 80/189/48 78/190/48 79/191/48 81/192/48
f 75/193/49 80/194/49 81/195/49 74/196/49
f 75/197/50 76/198/50 78/199/50 80/200/50
f 84/201/51 83/202/51 82/203/51 85/204/51
f 86/205/52 84/206/52 85/207/52 87/208/52
f 88/209/53 86/210/53 87/211/53 89/212/53
f 83/213/54 88/214/54 89/215/54 82/216/54
f 89/217/55 87/218/55 85/219/55 82/220/55
f 83/221/56 84/222/56 86/223/56 88/224/56
f 92/225/57 91/226/57 90/227/57 93/228/57
f 94/229/58 92/230/58 93/231/58 95/232/58
f 96/233/59 94/234/59 95/235/59 97/236/59
f 91/237/60 96/238/60 97/239/60 90/240/60
f 100/241/61 99/242/61 98/243/61 101/244/61
f 102/245/62 100/246/62 101/247/62 103/248/62
f 104/249/63 102/250/63 103/251/63 105/252/63
f 99/253/64 104/254/64 105/255/64 98/256/64
f 108/257/65 107/258/65 106/259/65 109/260/65
f 110/261/66 108/262/66 109/263/66 111/264/66
f 112/265/67 110/266/67 111/267/67 113/268/67
f 107/269/68 112/270/68 113/271/68 106/272/68
f 116/273/69 115/274/69 114/275/69 117/276/69
f 118/277/70 116/278/70 117/279/70 119/280/70
f 120/281/71 118/282/71 119/283/71 121/284/71
f 115/285/72 120/286/72 121/287/72 114/288/72
f 124/289/73 123/290/73 122/291/73 125/292/73
f 126/293/74 124/294/74 125/295/74 127/296/74
f 128/297/75 126/298/75 127/299/75 129/300/75
f 123/301/76 128/302/76 129/303/76 122/304/76
f 132/305/77 131/306/77 130/307/77 133/308/77
f 134/309/78 132/310/78 133/311/78 135/312/78
f 136/313/79 134/314/79 135/315/79 137/316/79
f 131/317/80 136/318/80 137/319/80 130/320/80
f 140/321/81 139/322/81 138/323/81 141/324/81
f 142/325/82 140/326/82 141/327/82 143/328/82
f 144/329/83 142/330/83 143/331/83 145/332/83
f 139/333/84 144/334/84 145/335/84 138/336/84
f 148/337/85 147/338/85 146/339/85 149/340/85
f 150/341/86 148/342/86 149/343/86 151/344/86
f 152/345/87 150/346/87 151/347/87 153/348/87
f 147/349/88 152/350/88 153/351/88 146/352/88
f 156/353/89 155/354/89 154/355/89 157/356/89
f 158/357/90 156/358/90 157/359/90 159/360/90
f 160/361/91 158/362/91 159/363/91 161/364/91
f 155/365/92 160/366/92 161/367/92 154/368/92
f 161/369/93 159/370/93 157/371/93 154/372/93
f 155/373/94 156/374/94 158/375/94 160/376/94
f 164/377/95 163/378/95 162/379/95 165/380/95
f 168/381/96 167/382/96 166/383/96 169/384/96
f 166/385/97 165/386/97 162/387/97 169/388/97
f 168/389/98 163/390/98 164/391/98 167/392/98
f 172/393/99 171/394/99 170/395/99 173/396/99
f 176/397/100 175/398/100 174/399/100 177/400/100
f 174/401/101 173/402/101 170/403/101 177/404/101
f 176/405/102 171/406/102 172/407/102 175/408/102
f 180/409/103 179/410/103 178/411/103 181/412/103
f 184/413/104 183/414/104 182/415/104 185/416/104
f 182/417/105 181/418/105 178/419/105 185/420/105
f 184/421/106 179/422/106 180/423/106 183/424/106
f 188/425/107 187/426/107 186/427/107 189/428/107
f 192/429/108 191/430/108 190/431/108 193/432/108
f 190/433/109 189/434/109 186/435/109 193/436/109
f 192/437/110 187/438/110 188/439/110 191/440/110
f 195/441/111 194/442/111 1/443/111 196/444/111
f 197/445/112 195/446/112 196/447/112 198/448/112
f 197/449/113 199/450/113 194/451/113 195/452/113
f 202/453/114 201/454/114 200/455/114 203/456/114
f 210/457/115 204/458/115 205/459/115 208/460/115
f 211/461/116 209/462/116 206/463/116 207/464/116
f 211/465/117 207/466/117 204/467/117 210/468/117
f 207/469/118 206/470/118 205/471/118 204/472/118
f 217/473/119 216/474/119 218/475/119 219/476/119
f 213/477/120 212/478/120 216/479/120 217/480/120
f 216/481/121 212/482/121 214/483/121 218/484/121
f 215/485/122 213/486/122 217/487/122 219/488/122
