# Made in Blockbench 4.12.6
mtllib boiler.mtl

o base
v -1.5 1.5 1
v -1.875 1.5 1
v -1.875 0 1
v -1.5 0 1
v -1.875 1 1.5
v -1.875 0.5 1.5
v -1.5 1 1.5
v -1.5 0.5 1.5
v -1.875 1.5 0
v -1.5 1.5 0
v -1.5 0 0
v -1.875 0 0
v -1.5 1 -0.5
v -1.5 0.5 -0.5
v -1.875 1 -0.5
v -1.875 0.5 -0.5
v -1.875 0.375 1
v -1.5 0.375 1
v -2 0 1
v -1.5 0.375 0
v -1.875 0.375 0
v -2 0 0
v -2 1.5 1
v -1.5 1.125 1
v -1.875 1.125 1
v -1.5 1.125 0
v -2 1.5 0
v -1.875 1.125 0
v -2 2 1
v -1.5 2 1
v -1.5 2 0
v -2 2 0
v -1.5 -0.5 1
v -2 -0.5 1
v -1.5 -0.5 0
v -2 -0.5 0
v -1.875 1.125 1
v -1.875 1.125 0
v 2.3125 0.9375 0.125
v 2.6875 0.9375 0.125
v 2.6875 0.5625 0.125
v 2.3125 0.5625 0.125
v 2.6875 0.9375 0
v 2.6875 0.5625 0
v 2.3125 0.9375 0
v 2.3125 0.5625 0
v 2.25 1 1.25
v 2.75 1 1.25
v 2.75 0.5 1.25
v 2.25 0.5 1.25
v 2.75 1 0.875
v 2.75 0.5 0.875
v 2.25 1 0.875
v 2.25 0.5 0.875
v -1 -0.070501 1.5625
v 1.25 -0.070501 1.5625
v 1.25 -0.320501 1.5625
v -1 -0.320501 1.5625
v 1.25 -0.070501 1.4375
v 1.25 -0.320501 1.4375
v -1 -0.070501 1.4375
v -1 -0.320501 1.4375
v -1 -0.070501 -0.4375
v 1.25 -0.070501 -0.4375
v 1.25 -0.320501 -0.4375
v -1 -0.320501 -0.4375
v 1.25 -0.070501 -0.5625
v 1.25 -0.320501 -0.5625
v -1 -0.070501 -0.5625
v -1 -0.320501 -0.5625
v 1.25 0.125 1.625
v 1.5 0.125 1.625
v 1.5 -0.5 1.625
v 1.25 -0.5 1.625
v 1.5 -0.125 1.375
v 1.5 -0.5 1.375
v 1.25 -0.125 1.375
v 1.25 -0.5 1.375
v -1.25 0.125 1.625
v -1 0.125 1.625
v -1 -0.5 1.625
v -1.25 -0.5 1.625
v -1 -0.125 1.375
v -1 -0.5 1.375
v -1.25 -0.125 1.375
v -1.25 -0.5 1.375
v -1 0.125 -0.625
v -1.25 0.125 -0.625
v -1.25 -0.5 -0.625
v -1 -0.5 -0.625
v -1.25 -0.125 -0.375
v -1.25 -0.5 -0.375
v -1 -0.125 -0.375
v -1 -0.5 -0.375
v 2.0625 1.5 -0.5625
v 2.9375 1.5 -0.5625
v 2.9375 0 -0.5625
v 2.0625 0 -0.5625
v 2.9375 1.5 -1
v 2.9375 0 -1
v 2.0625 1.5 -1
v 2.0625 0 -1
v 2.375 0.875 0
v 2.625 0.875 0
v 2.625 0.625 0
v 2.375 0.625 0
v 2.625 0.875 -0.1875
v 2.625 0.625 -0.1875
v 2.375 0.875 -0.1875
v 2.375 0.625 -0.1875
v 2.3125 0.9375 -0.1875
v 2.6875 0.9375 -0.1875
v 2.6875 0.5625 -0.1875
v 2.3125 0.5625 -0.1875
v 2.6875 0.9375 -0.5625
v 2.6875 0.5625 -0.5625
v 2.3125 0.9375 -0.5625
v 2.3125 0.5625 -0.5625
v 2.375 0.5625 -0.25
v 2.625 0.5625 -0.25
v 2.625 -0.375 -0.25
v 2.375 -0.375 -0.25
v 2.625 0.5625 -0.5
v 2.625 -0.375 -0.5
v 2.375 0.5625 -0.5
v 2.375 -0.375 -0.5
v 2.3125 -0.375 -0.1875
v 2.6875 -0.375 -0.1875
v 2.6875 -0.5 -0.1875
v 2.3125 -0.5 -0.1875
v 2.6875 -0.375 -0.5625
v 2.6875 -0.5 -0.5625
v 2.3125 -0.375 -0.5625
v 2.3125 -0.5 -0.5625
v 2 0 1
v 3 0 1
v 3 -0.5 1
v 2 -0.5 1
v 3 0 0
v 3 -0.5 0
v 2 0 0
v 2 -0.5 0
v 2.875 1 0.75
v 3 1 0.75
v 3 0.5 0.75
v 2.875 0.5 0.75
v 3 1 0.25
v 3 0.5 0.25
v 2.875 1 0.25
v 2.875 0.5 0.25
v 2.125 0 1.875
v 2.25 0 1.875
v 2.25 -0.5 1.875
v 2.125 -0.5 1.875
v 2.25 0 1.625
v 2.25 -0.5 1.625
v 2.125 0 1.625
v 2.125 -0.5 1.625
v 2.75 0 1.875
v 2.875 0 1.875
v 2.875 -0.5 1.875
v 2.75 -0.5 1.875
v 2.875 0 1.625
v 2.875 -0.5 1.625
v 2.75 0 1.625
v 2.75 -0.5 1.625
v 1.75 1.25 1
v 2 1.25 1
v 2 0.25 1
v 1.75 0.25 1
v 2 1.25 0
v 2 0.25 0
v 1.75 1.25 0
v 1.75 0.25 0
v 1.99375 1.125 0.875
v 2.86875 1.125 0.875
v 2.86875 0.375 0.875
v 1.99375 0.375 0.875
v 2.86875 1.125 0.125
v 2.86875 0.375 0.125
v 1.99375 1.125 0.125
v 1.99375 0.375 0.125
v 2 1 2
v 3 1 2
v 3 0 2
v 2 0 2
v 3 1 1.5
v 3 0 1.5
v 2 1 1.5
v 2 0 1.5
v 1.5 0.125 -0.625
v 1.25 0.125 -0.625
v 1.25 -0.5 -0.625
v 1.5 -0.5 -0.625
v 1.25 -0.125 -0.375
v 1.25 -0.5 -0.375
v 1.5 -0.125 -0.375
v 1.5 -0.5 -0.375
v -1.5 1.25 -0.75
v 1.75 1.25 -0.75
v 1.75 2 0
v -1.5 2 0
v 1.75 1.25 1.75
v 1.75 2 1
v -1.5 1.25 1.75
v -1.5 2 1
v -1.5 0.25 1.75
v 1.75 0.25 1.75
v 1.75 -0.5 1
v -1.5 -0.5 1
v 1.75 0.25 -0.75
v 1.75 -0.5 0
v -1.5 0.25 -0.75
v -1.5 -0.5 0
v -1.5 1.25 1.75
v 1.75 1.25 1.75
v 1.75 1.25 -0.75
v -1.5 1.25 -0.75
v -2 -0.5 2
v 3 -0.5 2
v 3 -1 2
v -2 -1 2
v 3 -0.5 -1
v 3 -1 -1
v -2 -0.5 -1
v -2 -1 -1
vt 1 0
vt 1 1
vt 0 1
vt 0 0
vt 0.75 0.59375
vt 0.75 0.65625
vt 0.8125 0.71875
vt 0.8125 0.53125
vt 0.671875 0.5625
vt 0.671875 0.625
vt 0.625 0.625
vt 0.625 0.5625
vt 1 0
vt 1 1
vt 0 1
vt 0 0
vt 0.71875 0.5625
vt 0.71875 0.648438
vt 0.671875 0.648438
vt 0.671875 0.5625
vt 0.71875 0.5625
vt 0.71875 0.648438
vt 0.671875 0.648438
vt 0.671875 0.5625
vt 1 0
vt 1 1
vt 0 1
vt 0 0
vt 1 0
vt 1 1
vt 0 1
vt 0 0
vt 0.671875 0.5625
vt 0.671875 0.625
vt 0.625 0.625
vt 0.625 0.5625
vt 0.8125 0.53125
vt 0.8125 0.71875
vt 0.75 0.65625
vt 0.75 0.59375
vt 0.71875 0.5625
vt 0.71875 0.648438
vt 0.671875 0.648438
vt 0.671875 0.5625
vt 0.71875 0.5625
vt 0.71875 0.648438
vt 0.671875 0.648438
vt 0.671875 0.5625
vt 0.109375 0.671875
vt 0.109375 0.71875
vt 0.0625 0.71875
vt 0.046875 0.671875
vt 1 0
vt 1 1
vt 0 1
vt 0 0
vt 0.109375 0.671875
vt 0.09375 0.71875
vt 0.046875 0.71875
vt 0.046875 0.671875
vt 0.875 0.890625
vt 0.875 0.9375
vt 0.75 0.9375
vt 0.75 0.890625
vt 1 0
vt 1 1
vt 0 1
vt 0 0
vt 1 0
vt 1 1
vt 0 1
vt 0 0
vt 0.109375 0.671875
vt 0.109375 0.71875
vt 0.046875 0.71875
vt 0.0625 0.671875
vt 1 0
vt 1 1
vt 0 1
vt 0 0
vt 0.09375 0.671875
vt 0.109375 0.71875
vt 0.046875 0.71875
vt 0.046875 0.671875
vt 0.875 0.8125
vt 0.875 0.859375
vt 0.75 0.859375
vt 0.75 0.8125
vt 1 0
vt 1 1
vt 0 1
vt 0 0
vt 1 0
vt 1 1
vt 0 1
vt 0 0
vt 0.8125 0.8125
vt 0.8125 0.875
vt 0.75 0.875
vt 0.75 0.8125
vt 1 0
vt 1 1
vt 0 1
vt 0 0
vt 0.875 0.8125
vt 0.875 0.875
vt 0.8125 0.875
vt 0.8125 0.8125
vt 0.875 0.8125
vt 0.875 0.875
vt 0.75 0.875
vt 0.75 0.8125
vt 0.6875 0.75
vt 0.6875 0.875
vt 0.625 0.875
vt 0.625 0.75
vt 0.8125 0.875
vt 0.8125 0.9375
vt 0.75 0.9375
vt 0.75 0.875
vt 1 0
vt 1 1
vt 0 1
vt 0 0
vt 0.875 0.875
vt 0.875 0.9375
vt 0.8125 0.9375
vt 0.8125 0.875
vt 0.75 0.875
vt 0.75 0.9375
vt 0.625 0.9375
vt 0.625 0.875
vt 1 0
vt 1 1
vt 0 1
vt 0 0
vt 1 0
vt 1 1
vt 0 1
vt 0 0
vt 1 0
vt 1 1
vt 0 1
vt 0 0
vt 1 0
vt 1 1
vt 0 1
vt 0 0
vt 0.875 0.71875
vt 0.875 0.8125
vt 0.75 0.8125
vt 0.75 0.71875
vt 1 0
vt 1 1
vt 0 1
vt 0 0
vt 1 0
vt 1 1
vt 0 1
vt 0 0
vt 0.671875 0.703125
vt 0.671875 0.75
vt 0.65625 0.75
vt 0.65625 0.703125
vt 0.703125 0.703125
vt 0.703125 0.75
vt 0.65625 0.75
vt 0.65625 0.703125
vt 0.671875 0.703125
vt 0.671875 0.75
vt 0.65625 0.75
vt 0.65625 0.703125
vt 0.671875 0.703125
vt 0.671875 0.75
vt 0.65625 0.75
vt 0.65625 0.703125
vt 0.671875 0.703125
vt 0.671875 0.75
vt 0.65625 0.75
vt 0.65625 0.703125
vt 0.46875 0.1875
vt 0.46875 0.25
vt 0.40625 0.25
vt 0.40625 0.1875
vt 0.515625 0.1875
vt 0.515625 0.25
vt 0.46875 0.25
vt 0.46875 0.1875
vt 1 0
vt 1 1
vt 0 1
vt 0 0
vt 0.515625 0.1875
vt 0.515625 0.25
vt 0.46875 0.25
vt 0.46875 0.1875
vt 0.515625 0.1875
vt 0.515625 0.25
vt 0.46875 0.25
vt 0.46875 0.1875
vt 0.515625 0.1875
vt 0.515625 0.25
vt 0.46875 0.25
vt 0.46875 0.1875
vt 0.75 0.8125
vt 0.71875 0.8125
vt 0.71875 0.53125
vt 0.75 0.53125
vt 1 0
vt 1 1
vt 0 1
vt 0 0
vt 0.75 0.8125
vt 0.71875 0.8125
vt 0.71875 0.53125
vt 0.75 0.53125
vt 1 0
vt 1 1
vt 0 1
vt 0 0
vt 0.75 0.8125
vt 0.734375 0.8125
vt 0.734375 0.53125
vt 0.75 0.53125
vt 0.75 0.8125
vt 0.734375 0.8125
vt 0.734375 0.53125
vt 0.75 0.53125
vt 0.75 0.8125
vt 0.71875 0.8125
vt 0.71875 0.53125
vt 0.75 0.53125
vt 1 0
vt 1 1
vt 0 1
vt 0 0
vt 0.75 0.8125
vt 0.71875 0.8125
vt 0.71875 0.53125
vt 0.75 0.53125
vt 1 0
vt 1 1
vt 0 1
vt 0 0
vt 0.75 0.8125
vt 0.734375 0.8125
vt 0.734375 0.53125
vt 0.75 0.53125
vt 0.75 0.8125
vt 0.734375 0.8125
vt 0.734375 0.53125
vt 0.75 0.53125
vt 0.65625 0.671875
vt 0.65625 0.75
vt 0.625 0.75
vt 0.625 0.671875
vt 0.65625 0.671875
vt 0.65625 0.71875
vt 0.625 0.75
vt 0.625 0.671875
vt 0.65625 0.671875
vt 0.65625 0.71875
vt 0.625 0.71875
vt 0.625 0.671875
vt 0.65625 0.671875
vt 0.65625 0.75
vt 0.625 0.71875
vt 0.625 0.671875
vt 1 0
vt 1 1
vt 0 1
vt 0 0
vt 1 0
vt 1 1
vt 0 1
vt 0 0
vt 0.65625 0.671875
vt 0.65625 0.75
vt 0.625 0.75
vt 0.625 0.671875
vt 0.65625 0.671875
vt 0.65625 0.71875
vt 0.625 0.75
vt 0.625 0.671875
vt 0.65625 0.671875
vt 0.65625 0.71875
vt 0.625 0.71875
vt 0.625 0.671875
vt 0.65625 0.671875
vt 0.65625 0.75
vt 0.625 0.71875
vt 0.625 0.671875
vt 1 0
vt 1 1
vt 0 1
vt 0 0
vt 1 0
vt 1 1
vt 0 1
vt 0 0
vt 0.65625 0.671875
vt 0.65625 0.75
vt 0.625 0.75
vt 0.625 0.671875
vt 0.65625 0.671875
vt 0.65625 0.71875
vt 0.625 0.75
vt 0.625 0.671875
vt 0.65625 0.671875
vt 0.65625 0.71875
vt 0.625 0.71875
vt 0.625 0.671875
vt 0.65625 0.671875
vt 0.65625 0.75
vt 0.625 0.71875
vt 0.625 0.671875
vt 1 0
vt 1 1
vt 0 1
vt 0 0
vt 1 0
vt 1 1
vt 0 1
vt 0 0
vt 0.21875 0
vt 0.21875 0.1875
vt 0.109375 0.1875
vt 0.109375 0
vt 0.273438 0
vt 0.273438 0.1875
vt 0.21875 0.1875
vt 0.21875 0
vt 0.109375 0
vt 0.109375 0.1875
vt 0 0.1875
vt 0 0
vt 0.21875 0
vt 0.21875 0.1875
vt 0.273438 0.1875
vt 0.273438 0
vt 0.382812 0.13281200000000004
vt 0.382812 0.1875
vt 0.273438 0.1875
vt 0.273438 0.13281200000000004
vt 0.382812 0.13281200000000004
vt 0.382812 0.1875
vt 0.273438 0.1875
vt 0.273438 0.13281200000000004
vt 1 0
vt 1 1
vt 0 1
vt 0 0
vt 0.84375 0.625
vt 0.8125 0.625
vt 0.8125 0.601562
vt 0.84375 0.601562
vt 1 0
vt 1 1
vt 0 1
vt 0 0
vt 0.84375 0.625
vt 0.8125 0.625
vt 0.8125 0.601562
vt 0.84375 0.601562
vt 0.84375 0.625
vt 0.8125 0.625
vt 0.8125 0.601562
vt 0.84375 0.601562
vt 0.84375 0.625
vt 0.8125 0.625
vt 0.8125 0.601562
vt 0.84375 0.601562
vt 0.703125 0.703125
vt 0.703125 0.75
vt 0.65625 0.75
vt 0.65625 0.703125
vt 0.703125 0.703125
vt 0.703125 0.75
vt 0.65625 0.75
vt 0.65625 0.703125
vt 1 0
vt 1 1
vt 0 1
vt 0 0
vt 0.703125 0.703125
vt 0.703125 0.75
vt 0.65625 0.75
vt 0.65625 0.703125
vt 0.703125 0.703125
vt 0.703125 0.75
vt 0.65625 0.75
vt 0.65625 0.703125
vt 0.703125 0.703125
vt 0.703125 0.75
vt 0.65625 0.75
vt 0.65625 0.703125
vt 0.84375 0.601562
vt 0.84375 0.71875
vt 0.8125 0.71875
vt 0.8125 0.601562
vt 0.84375 0.601562
vt 0.84375 0.71875
vt 0.8125 0.71875
vt 0.8125 0.601562
vt 0.84375 0.601562
vt 0.84375 0.71875
vt 0.8125 0.71875
vt 0.8125 0.601562
vt 0.84375 0.601562
vt 0.84375 0.71875
vt 0.8125 0.71875
vt 0.8125 0.601562
vt 1 0
vt 1 1
vt 0 1
vt 0 0
vt 1 0
vt 1 1
vt 0 1
vt 0 0
vt 0.703125 0.703125
vt 0.703125 0.71875
vt 0.65625 0.71875
vt 0.65625 0.703125
vt 0.703125 0.703125
vt 0.703125 0.71875
vt 0.65625 0.71875
vt 0.65625 0.703125
vt 0.703125 0.703125
vt 0.703125 0.71875
vt 0.65625 0.71875
vt 0.65625 0.703125
vt 0.703125 0.703125
vt 0.703125 0.71875
vt 0.65625 0.71875
vt 0.65625 0.703125
vt 0.703125 0.703125
vt 0.703125 0.75
vt 0.65625 0.75
vt 0.65625 0.703125
vt 1 0
vt 1 1
vt 0 1
vt 0 0
vt 0.875 0.875
vt 0.875 0.9375
vt 0.75 0.9375
vt 0.75 0.875
vt 0.75 0.875
vt 0.75 0.9375
vt 0.625 0.9375
vt 0.625 0.875
vt 0.875 0.875
vt 0.875 0.9375
vt 0.75 0.9375
vt 0.75 0.875
vt 0.875 0.875
vt 0.875 0.9375
vt 0.75 0.9375
vt 0.75 0.875
vt 0.875 0.8125
vt 0.875 0.9375
vt 0.75 0.9375
vt 0.75 0.8125
vt 1 0
vt 1 1
vt 0 1
vt 0 0
vt 0.476562 0.1875
vt 0.476562 0.25
vt 0.460938 0.25
vt 0.460938 0.1875
vt 0.46875 0.1875
vt 0.46875 0.25
vt 0.40625 0.25
vt 0.40625 0.1875
vt 0.476562 0.1875
vt 0.476562 0.25
vt 0.460938 0.25
vt 0.460938 0.1875
vt 1 0
vt 1 1
vt 0 1
vt 0 0
vt 0.476562 0.1875
vt 0.476562 0.25
vt 0.460938 0.25
vt 0.460938 0.1875
vt 0.476562 0.1875
vt 0.476562 0.25
vt 0.460938 0.25
vt 0.460938 0.1875
vt 0.75 0.8125
vt 0.75 0.875
vt 0.734375 0.875
vt 0.734375 0.8125
vt 0.734375 0.8125
vt 0.734375 0.875
vt 0.703125 0.875
vt 0.703125 0.8125
vt 0.75 0.8125
vt 0.75 0.875
vt 0.734375 0.875
vt 0.734375 0.8125
vt 0.734375 0.8125
vt 0.734375 0.875
vt 0.703125 0.875
vt 0.703125 0.8125
vt 1 0
vt 1 1
vt 0 1
vt 0 0
vt 1 0
vt 1 1
vt 0 1
vt 0 0
vt 0.75 0.8125
vt 0.75 0.875
vt 0.734375 0.875
vt 0.734375 0.8125
vt 0.734375 0.8125
vt 0.734375 0.875
vt 0.703125 0.875
vt 0.703125 0.8125
vt 0.75 0.8125
vt 0.75 0.875
vt 0.734375 0.875
vt 0.734375 0.8125
vt 0.734375 0.8125
vt 0.734375 0.875
vt 0.703125 0.875
vt 0.703125 0.8125
vt 1 0
vt 1 1
vt 0 1
vt 0 0
vt 1 0
vt 1 1
vt 0 1
vt 0 0
vt 0.75 0.6875
vt 0.75 0.8125
vt 0.71875 0.8125
vt 0.71875 0.6875
vt 0.875 0.8125
vt 0.875 0.9375
vt 0.75 0.9375
vt 0.75 0.8125
vt 0.75 0.6875
vt 0.75 0.8125
vt 0.71875 0.8125
vt 0.71875 0.6875
vt 1 0
vt 1 1
vt 0 1
vt 0 0
vt 0.75 0.6875
vt 0.75 0.8125
vt 0.71875 0.8125
vt 0.71875 0.6875
vt 0.75 0.6875
vt 0.75 0.8125
vt 0.71875 0.8125
vt 0.71875 0.6875
vt 0.8125 0.4375
vt 0.71875 0.4375
vt 0.71875 0.328125
vt 0.8125 0.328125
vt 0.8125 0.4375
vt 0.8125 0.53125
vt 0.71875 0.53125
vt 0.71875 0.4375
vt 0.8125 0.4375
vt 0.71875 0.4375
vt 0.71875 0.328125
vt 0.8125 0.328125
vt 1 0
vt 1 1
vt 0 1
vt 0 0
vt 0.8125 0.4375
vt 0.71875 0.4375
vt 0.71875 0.328125
vt 0.8125 0.328125
vt 0.8125 0.4375
vt 0.71875 0.4375
vt 0.71875 0.328125
vt 0.8125 0.328125
vt 1 0.8125
vt 1 0.9375
vt 0.875 0.9375
vt 0.875 0.8125
vt 0.875 0.8125
vt 0.875 0.9375
vt 0.8125 0.9375
vt 0.8125 0.8125
vt 0.875 0.8125
vt 0.875 0.9375
vt 0.75 0.9375
vt 0.75 0.8125
vt 0.8125 0.8125
vt 0.8125 0.9375
vt 0.75 0.9375
vt 0.75 0.8125
vt 0.875 0.875
vt 0.875 0.9375
vt 0.75 0.9375
vt 0.75 0.875
vt 0.875 0.8125
vt 0.875 0.875
vt 0.75 0.875
vt 0.75 0.8125
vt 0.65625 0.671875
vt 0.65625 0.75
vt 0.625 0.75
vt 0.625 0.671875
vt 0.65625 0.671875
vt 0.65625 0.71875
vt 0.625 0.75
vt 0.625 0.671875
vt 0.65625 0.671875
vt 0.65625 0.71875
vt 0.625 0.71875
vt 0.625 0.671875
vt 0.65625 0.671875
vt 0.65625 0.75
vt 0.625 0.71875
vt 0.625 0.671875
vt 1 0
vt 1 1
vt 0 1
vt 0 0
vt 1 0
vt 1 1
vt 0 1
vt 0 0
vt 0 0.3125
vt 0 0.44531199999999993
vt 0.40625 0.44531199999999993
vt 0.40625 0.3125
vt 0.5 0.5625
vt 0.40625 0.46875
vt 0.71875 0.46875
vt 0.625 0.5625
vt 0 0.3125
vt 0 0.44531199999999993
vt 0.40625 0.44531199999999993
vt 0.40625 0.3125
vt 0.5 0.5625
vt 0.40625 0.46875
vt 0.71875 0.46875
vt 0.625 0.5625
vt 1 0
vt 1 1
vt 0 1
vt 0 0
vt 0.40625 0.1875
vt 0.40625 0.3125
vt 0 0.3125
vt 0 0.1875
vt 0.40625 0.3125
vt 0.40625 0.44531199999999993
vt 0 0.44531199999999993
vt 0 0.3125
vt 0.625 0.25
vt 0.71875 0.34375
vt 0.40625 0.34375
vt 0.5 0.25
vt 0.40625 0.3125
vt 0.40625 0.44531199999999993
vt 0 0.44531199999999993
vt 0 0.3125
vt 0.625 0.25
vt 0.71875 0.34375
vt 0.40625 0.34375
vt 0.5 0.25
vt 1 0
vt 1 1
vt 0 1
vt 0 0
vt 1 0
vt 1 1
vt 0 1
vt 0 0
vt 0.40625 0.4375
vt 0.40625 0.5625
vt 0 0.5625
vt 0 0.4375
vt 0.71875 0.34375
vt 0.71875 0.46875
vt 0.40625 0.46875
vt 0.40625 0.34375
vt 0.40625 0.4375
vt 0.40625 0.5625
vt 0 0.5625
vt 0 0.4375
vt 0.71875 0.34375
vt 0.71875 0.46875
vt 0.40625 0.46875
vt 0.40625 0.34375
vt 1 0
vt 1 1
vt 0 1
vt 0 0
vt 0.625 0.5625
vt 0.625 0.625
vt 0 0.625
vt 0 0.5625
vt 1 0.9375
vt 1 1
vt 0.625 1
vt 0.625 0.9375
vt 0.625 0.5625
vt 0.625 0.625
vt 0 0.625
vt 0 0.5625
vt 1 0.9375
vt 1 1
vt 0.625 1
vt 0.625 0.9375
vt 0.625 0.625
vt 0.625 1
vt 0 1
vt 0 0.625
vt 0.625 0.625
vt 0.625 1
vt 0 1
vt 0 0.625
vn 0 0 -1
vn -1 0 0
vn 0 0 1
vn 1 0 0
vn 0 0.7071067811865476 0.7071067811865476
vn 0 -0.7071067811865476 0.7071067811865476
vn 0 0 1
vn 1 0 0
vn 0 0 -1
vn -1 0 0
vn 0 0.7071067811865476 -0.7071067811865476
vn 0 -0.7071067811865476 -0.7071067811865476
vn 0 0 1
vn 1 0 0
vn 0 0 -1
vn -0.948683298050514 0.316227766016838 0
vn 0 1 0
vn 0 -1 0
vn 0 0 1
vn 1 0 0
vn 0 0 -1
vn -0.948683298050514 -0.316227766016838 0
vn 0 1 0
vn 0 -1 0
vn 0 0 1
vn 1 0 0
vn 0 0 -1
vn -1 0 0
vn 0 1 0
vn 0 0 1
vn 1 0 0
vn 0 0 -1
vn -1 0 0
vn 0 -1 0
vn 0 0 1
vn 1 0 0
vn 0 0 -1
vn -1 0 0
vn 0 1 0
vn 0 0 1
vn 1 0 0
vn 0 0 -1
vn -1 0 0
vn 0 1 0
vn 0 -1 0
vn 0 0 1
vn 1 0 0
vn 0 0 -1
vn -1 0 0
vn 0 1 0
vn 0 -1 0
vn 0 0 1
vn 1 0 0
vn 0 0 -1
vn -1 0 0
vn 0 1 0
vn 0 -1 0
vn 0 0 1
vn 1 0 0
vn 0 0 -1
vn -1 0 0
vn 0 1 0
vn 0 -1 0
vn 0 0 1
vn 1 0 0
vn 0 0 -1
vn -1 0 0
vn 0 0.7071067811865476 -0.7071067811865476
vn 0 -1 0
vn 0 0 1
vn 1 0 0
vn 0 0 -1
vn -1 0 0
vn 0 0.7071067811865476 -0.7071067811865476
vn 0 -1 0
vn 0 0 -1
vn -1 0 0
vn 0 0 1
vn 1 0 0
vn 0 0.7071067811865476 0.7071067811865476
vn 0 -1 0
vn 0 0 1
vn 1 0 0
vn 0 0 -1
vn -1 0 0
vn 0 1 0
vn 0 -1 0
vn 0 0 1
vn 1 0 0
vn 0 0 -1
vn -1 0 0
vn 0 1 0
vn 0 -1 0
vn 0 0 1
vn 1 0 0
vn 0 0 -1
vn -1 0 0
vn 0 1 0
vn 0 -1 0
vn 0 0 1
vn 1 0 0
vn 0 0 -1
vn -1 0 0
vn 0 1 0
vn 0 -1 0
vn 0 0 1
vn 1 0 0
vn 0 0 -1
vn -1 0 0
vn 0 1 0
vn 0 -1 0
vn 0 0 1
vn 1 0 0
vn 0 0 -1
vn -1 0 0
vn 0 1 0
vn 0 -1 0
vn 0 0 1
vn 1 0 0
vn 0 0 -1
vn -1 0 0
vn 0 1 0
vn 0 -1 0
vn 0 0 1
vn 1 0 0
vn 0 0 -1
vn -1 0 0
vn 0 1 0
vn 0 -1 0
vn 0 0 1
vn 1 0 0
vn 0 0 -1
vn -1 0 0
vn 0 1 0
vn 0 -1 0
vn 0 0 1
vn 1 0 0
vn 0 0 -1
vn -1 0 0
vn 0 1 0
vn 0 -1 0
vn 0 0 1
vn 1 0 0
vn 0 0 -1
vn -1 0 0
vn 0 1 0
vn 0 -1 0
vn 0 0 1
vn 1 0 0
vn 0 0 -1
vn -1 0 0
vn 0 1 0
vn 0 -1 0
vn 0 0 -1
vn -1 0 0
vn 0 0 1
vn 1 0 0
vn 0 0.7071067811865476 0.7071067811865476
vn 0 -1 0
vn 0 0.7071067811865476 -0.7071067811865476
vn 1 0 0
vn 0 0.7071067811865476 0.7071067811865476
vn -1 0 0
vn 0 -1 0
vn 0 1 0
vn 0 -0.7071067811865476 0.7071067811865476
vn 1 0 0
vn 0 -0.7071067811865476 -0.7071067811865476
vn -1 0 0
vn 0 1 0
vn 0 -1 0
vn 0 0 1
vn 1 0 0
vn 0 0 -1
vn -1 0 0
vn 0 1 0
vn 0 0 1
vn 1 0 0
vn 0 0 -1
vn -1 0 0
vn 0 1 0
vn 0 -1 0
usemtl m_293c202d-84f4-6d9a-77e8-2ae89d9793ef
f 3/1/1 2/2/1 1/3/1 4/4/1
f 6/5/2 5/6/2 2/7/2 3/8/2
f 8/9/3 7/10/3 5/11/3 6/12/3
f 4/13/4 1/14/4 7/15/4 8/16/4
f 2/17/5 5/18/5 7/19/5 1/20/5
f 6/21/6 3/22/6 4/23/6 8/24/6
f 11/25/7 10/26/7 9/27/7 12/28/7
f 14/29/8 13/30/8 10/31/8 11/32/8
f 16/33/9 15/34/9 13/35/9 14/36/9
f 12/37/10 9/38/10 15/39/10 16/40/10
f 10/41/11 13/42/11 15/43/11 9/44/11
f 14/45/12 11/46/12 12/47/12 16/48/12
f 4/49/13 18/50/13 17/51/13 19/52/13
f 11/53/14 20/54/14 18/55/14 4/56/14
f 22/57/15 21/58/15 20/59/15 11/60/15
f 19/61/16 17/62/16 21/63/16 22/64/16
f 18/65/17 20/66/17 21/67/17 17/68/17
f 11/69/18 4/70/18 19/71/18 22/72/18
f 24/73/19 1/74/19 23/75/19 25/76/19
f 26/77/20 10/78/20 1/79/20 24/80/20
f 28/81/21 27/82/21 10/83/21 26/84/21
f 25/85/22 23/86/22 27/87/22 28/88/22
f 1/89/23 10/90/23 27/91/23 23/92/23
f 26/93/24 24/94/24 25/95/24 28/96/24
f 1/97/25 30/98/25 29/99/25 23/100/25
f 10/101/26 31/102/26 30/103/26 1/104/26
f 27/105/27 32/106/27 31/107/27 10/108/27
f 23/109/28 29/110/28 32/111/28 27/112/28
f 30/113/29 31/114/29 32/115/29 29/116/29
f 33/117/30 4/118/30 19/119/30 34/120/30
f 35/121/31 11/122/31 4/123/31 33/124/31
f 36/125/32 22/126/32 11/127/32 35/128/32
f 34/129/33 19/130/33 22/131/33 36/132/33
f 35/133/34 33/134/34 34/135/34 36/136/34
f 18/137/35 24/138/35 37/139/35 17/140/35
f 20/141/36 26/142/36 24/143/36 18/144/36
f 21/145/37 38/146/37 26/147/37 20/148/37
f 17/149/38 37/150/38 38/151/38 21/152/38
f 24/153/39 26/154/39 38/155/39 37/156/39
f 41/157/40 40/158/40 39/159/40 42/160/40
f 44/161/41 43/162/41 40/163/41 41/164/41
f 46/165/42 45/166/42 43/167/42 44/168/42
f 42/169/43 39/170/43 45/171/43 46/172/43
f 40/173/44 43/174/44 45/175/44 39/176/44
f 44/177/45 41/178/45 42/179/45 46/180/45
f 49/181/46 48/182/46 47/183/46 50/184/46
f 52/185/47 51/186/47 48/187/47 49/188/47
f 54/189/48 53/190/48 51/191/48 52/192/48
f 50/193/49 47/194/49 53/195/49 54/196/49
f 48/197/50 51/198/50 53/199/50 47/200/50
f 52/201/51 49/202/51 50/203/51 54/204/51
f 57/205/52 56/206/52 55/207/52 58/208/52
f 60/209/53 59/210/53 56/211/53 57/212/53
f 62/213/54 61/214/54 59/215/54 60/216/54
f 58/217/55 55/218/55 61/219/55 62/220/55
f 56/221/56 59/222/56 61/223/56 55/224/56
f 60/225/57 57/226/57 58/227/57 62/228/57
f 65/229/58 64/230/58 63/231/58 66/232/58
f 68/233/59 67/234/59 64/235/59 65/236/59
f 70/237/60 69/238/60 67/239/60 68/240/60
f 66/241/61 63/242/61 69/243/61 70/244/61
f 64/245/62 67/246/62 69/247/62 63/248/62
f 68/249/63 65/250/63 66/251/63 70/252/63
f 73/253/64 72/254/64 71/255/64 74/256/64
f 76/257/65 75/258/65 72/259/65 73/260/65
f 78/261/66 77/262/66 75/263/66 76/264/66
f 74/265/67 71/266/67 77/267/67 78/268/67
f 72/269/68 75/270/68 77/271/68 71/272/68
f 76/273/69 73/274/69 74/275/69 78/276/69
f 81/277/70 80/278/70 79/279/70 82/280/70
f 84/281/71 83/282/71 80/283/71 81/284/71
f 86/285/72 85/286/72 83/287/72 84/288/72
f 82/289/73 79/290/73 85/291/73 86/292/73
f 80/293/74 83/294/74 85/295/74 79/296/74
f 84/297/75 81/298/75 82/299/75 86/300/75
f 89/301/76 88/302/76 87/303/76 90/304/76
f 92/305/77 91/306/77 88/307/77 89/308/77
f 94/309/78 93/310/78 91/311/78 92/312/78
f 90/313/79 87/314/79 93/315/79 94/316/79
f 88/317/80 91/318/80 93/319/80 87/320/80
f 92/321/81 89/322/81 90/323/81 94/324/81
f 97/325/82 96/326/82 95/327/82 98/328/82
f 100/329/83 99/330/83 96/331/83 97/332/83
f 102/333/84 101/334/84 99/335/84 100/336/84
f 98/337/85 95/338/85 101/339/85 102/340/85
f 96/341/86 99/342/86 101/343/86 95/344/86
f 100/345/87 97/346/87 98/347/87 102/348/87
f 105/349/88 104/350/88 103/351/88 106/352/88
f 108/353/89 107/354/89 104/355/89 105/356/89
f 110/357/90 109/358/90 107/359/90 108/360/90
f 106/361/91 103/362/91 109/363/91 110/364/91
f 104/365/92 107/366/92 109/367/92 103/368/92
f 108/369/93 105/370/93 106/371/93 110/372/93
f 113/373/94 112/374/94 111/375/94 114/376/94
f 116/377/95 115/378/95 112/379/95 113/380/95
f 118/381/96 117/382/96 115/383/96 116/384/96
f 114/385/97 111/386/97 117/387/97 118/388/97
f 112/389/98 115/390/98 117/391/98 111/392/98
f 116/393/99 113/394/99 114/395/99 118/396/99
f 121/397/100 120/398/100 119/399/100 122/400/100
f 124/401/101 123/402/101 120/403/101 121/404/101
f 126/405/102 125/406/102 123/407/102 124/408/102
f 122/409/103 119/410/103 125/411/103 126/412/103
f 120/413/104 123/414/104 125/415/104 119/416/104
f 124/417/105 121/418/105 122/419/105 126/420/105
f 129/421/106 128/422/106 127/423/106 130/424/106
f 132/425/107 131/426/107 128/427/107 129/428/107
f 134/429/108 133/430/108 131/431/108 132/432/108
f 130/433/109 127/434/109 133/435/109 134/436/109
f 128/437/110 131/438/110 133/439/110 127/440/110
f 132/441/111 129/442/111 130/443/111 134/444/111
f 137/445/112 136/446/112 135/447/112 138/448/112
f 140/449/113 139/450/113 136/451/113 137/452/113
f 142/453/114 141/454/114 139/455/114 140/456/114
f 138/457/115 135/458/115 141/459/115 142/460/115
f 136/461/116 139/462/116 141/463/116 135/464/116
f 140/465/117 137/466/117 138/467/117 142/468/117
f 145/469/118 144/470/118 143/471/118 146/472/118
f 148/473/119 147/474/119 144/475/119 145/476/119
f 150/477/120 149/478/120 147/479/120 148/480/120
f 146/481/121 143/482/121 149/483/121 150/484/121
f 144/485/122 147/486/122 149/487/122 143/488/122
f 148/489/123 145/490/123 146/491/123 150/492/123
f 153/493/124 152/494/124 151/495/124 154/496/124
f 156/497/125 155/498/125 152/499/125 153/500/125
f 158/501/126 157/502/126 155/503/126 156/504/126
f 154/505/127 151/506/127 157/507/127 158/508/127
f 152/509/128 155/510/128 157/511/128 151/512/128
f 156/513/129 153/514/129 154/515/129 158/516/129
f 161/517/130 160/518/130 159/519/130 162/520/130
f 164/521/131 163/522/131 160/523/131 161/524/131
f 166/525/132 165/526/132 163/527/132 164/528/132
f 162/529/133 159/530/133 165/531/133 166/532/133
f 160/533/134 163/534/134 165/535/134 159/536/134
f 164/537/135 161/538/135 162/539/135 166/540/135
f 169/541/136 168/542/136 167/543/136 170/544/136
f 172/545/137 171/546/137 168/547/137 169/548/137
f 174/549/138 173/550/138 171/551/138 172/552/138
f 170/553/139 167/554/139 173/555/139 174/556/139
f 168/557/140 171/558/140 173/559/140 167/560/140
f 172/561/141 169/562/141 170/563/141 174/564/141
f 177/565/142 176/566/142 175/567/142 178/568/142
f 180/569/143 179/570/143 176/571/143 177/572/143
f 182/573/144 181/574/144 179/575/144 180/576/144
f 178/577/145 175/578/145 181/579/145 182/580/145
f 176/581/146 179/582/146 181/583/146 175/584/146
f 180/585/147 177/586/147 178/587/147 182/588/147
f 185/589/148 184/590/148 183/591/148 186/592/148
f 188/593/149 187/594/149 184/595/149 185/596/149
f 190/597/150 189/598/150 187/599/150 188/600/150
f 186/601/151 183/602/151 189/603/151 190/604/151
f 184/605/152 187/606/152 189/607/152 183/608/152
f 188/609/153 185/610/153 186/611/153 190/612/153
f 193/613/154 192/614/154 191/615/154 194/616/154
f 196/617/155 195/618/155 192/619/155 193/620/155
f 198/621/156 197/622/156 195/623/156 196/624/156
f 194/625/157 191/626/157 197/627/157 198/628/157
f 192/629/158 195/630/158 197/631/158 191/632/158
f 196/633/159 193/634/159 194/635/159 198/636/159
f 201/637/160 200/638/160 199/639/160 202/640/160
f 204/641/161 203/642/161 200/643/161 201/644/161
f 206/645/162 205/646/162 203/647/162 204/648/162
f 202/649/163 199/650/163 205/651/163 206/652/163
f 200/653/164 203/654/164 205/655/164 199/656/164
f 204/657/165 201/658/165 202/659/165 206/660/165
f 209/661/166 208/662/166 207/663/166 210/664/166
f 212/665/167 211/666/167 208/667/167 209/668/167
f 214/669/168 213/670/168 211/671/168 212/672/168
f 210/673/169 207/674/169 213/675/169 214/676/169
f 208/677/170 211/678/170 213/679/170 207/680/170
f 212/681/171 209/682/171 210/683/171 214/684/171
f 208/685/172 216/686/172 215/687/172 207/688/172
f 211/689/173 217/690/173 216/691/173 208/692/173
f 213/693/174 218/694/174 217/695/174 211/696/174
f 207/697/175 215/698/175 218/699/175 213/700/175
f 216/701/176 217/702/176 218/703/176 215/704/176
f 221/705/177 220/706/177 219/707/177 222/708/177
f 224/709/178 223/710/178 220/711/178 221/712/178
f 226/713/179 225/714/179 223/715/179 224/716/179
f 222/717/180 219/718/180 225/719/180 226/720/180
f 220/721/181 223/722/181 225/723/181 219/724/181
f 224/725/182 221/726/182 222/727/182 226/728/182