# Made in Blockbench 4.12.6
mtllib boiler.mtl

o base
v -1.5 1.5 -1
v -1.875 1.5 -1
v -1.875 0 -1
v -1.5 0 -1
v -1.875 1 -1.5
v -1.875 0.5 -1.5
v -1.5 1 -1.5
v -1.5 0.5 -1.5
v -1.875 1.5 0
v -1.5 1.5 0
v -1.5 0 0
v -1.875 0 0
v -1.5 1 0.5
v -1.5 0.5 0.5
v -1.875 1 0.5
v -1.875 0.5 0.5
v -1.875 0.375 -1
v -1.5 0.375 -1
v -2 0 -1
v -1.5 0.375 0
v -1.875 0.375 0
v -2 0 0
v -2 1.5 -1
v -1.5 1.125 -1
v -1.875 1.125 -1
v -1.5 1.125 0
v -2 1.5 0
v -1.875 1.125 0
v -2 2 -1
v -1.5 2 -1
v -1.5 2 0
v -2 2 0
v -1.5 -0.5 -1
v -2 -0.5 -1
v -1.5 -0.5 0
v -2 -0.5 0
v -1.875 1.125 -1
v -1.875 1.125 0
v 2.3125 0.9375 -0.125
v 2.6875 0.9375 -0.125
v 2.6875 0.5625 -0.125
v 2.3125 0.5625 -0.125
v 2.6875 0.9375 0
v 2.6875 0.5625 0
v 2.3125 0.9375 0
v 2.3125 0.5625 0
v 2.25 1 -1.25
v 2.75 1 -1.25
v 2.75 0.5 -1.25
v 2.25 0.5 -1.25
v 2.75 1 -0.875
v 2.75 0.5 -0.875
v 2.25 1 -0.875
v 2.25 0.5 -0.875
v -1 -0.070501 -1.5625
v 1.25 -0.070501 -1.5625
v 1.25 -0.320501 -1.5625
v -1 -0.320501 -1.5625
v 1.25 -0.070501 -1.4375
v 1.25 -0.320501 -1.4375
v -1 -0.070501 -1.4375
v -1 -0.320501 -1.4375
v -1 -0.070501 0.4375
v 1.25 -0.070501 0.4375
v 1.25 -0.320501 0.4375
v -1 -0.320501 0.4375
v 1.25 -0.070501 0.5625
v 1.25 -0.320501 0.5625
v -1 -0.070501 0.5625
v -1 -0.320501 0.5625
v 1.25 0.125 -1.625
v 1.5 0.125 -1.625
v 1.5 -0.5 -1.625
v 1.25 -0.5 -1.625
v 1.5 -0.125 -1.375
v 1.5 -0.5 -1.375
v 1.25 -0.125 -1.375
v 1.25 -0.5 -1.375
v -1.25 0.125 -1.625
v -1 0.125 -1.625
v -1 -0.5 -1.625
v -1.25 -0.5 -1.625
v -1 -0.125 -1.375
v -1 -0.5 -1.375
v -1.25 -0.125 -1.375
v -1.25 -0.5 -1.375
v -1 0.125 0.625
v -1.25 0.125 0.625
v -1.25 -0.5 0.625
v -1 -0.5 0.625
v -1.25 -0.125 0.375
v -1.25 -0.5 0.375
v -1 -0.125 0.375
v -1 -0.5 0.375
v 2.0625 1.5 0.5625
v 2.9375 1.5 0.5625
v 2.9375 0 0.5625
v 2.0625 0 0.5625
v 2.9375 1.5 1
v 2.9375 0 1
v 2.0625 1.5 1
v 2.0625 0 1
v 2.375 0.875 0
v 2.625 0.875 0
v 2.625 0.625 0
v 2.375 0.625 0
v 2.625 0.875 0.1875
v 2.625 0.625 0.1875
v 2.375 0.875 0.1875
v 2.375 0.625 0.1875
v 2.3125 0.9375 0.1875
v 2.6875 0.9375 0.1875
v 2.6875 0.5625 0.1875
v 2.3125 0.5625 0.1875
v 2.6875 0.9375 0.5625
v 2.6875 0.5625 0.5625
v 2.3125 0.9375 0.5625
v 2.3125 0.5625 0.5625
v 2.375 0.5625 0.25
v 2.625 0.5625 0.25
v 2.625 -0.375 0.25
v 2.375 -0.375 0.25
v 2.625 0.5625 0.5
v 2.625 -0.375 0.5
v 2.375 0.5625 0.5
v 2.375 -0.375 0.5
v 2.3125 -0.375 0.1875
v 2.6875 -0.375 0.1875
v 2.6875 -0.5 0.1875
v 2.3125 -0.5 0.1875
v 2.6875 -0.375 0.5625
v 2.6875 -0.5 0.5625
v 2.3125 -0.375 0.5625
v 2.3125 -0.5 0.5625
v 2 0 -1
v 3 0 -1
v 3 -0.5 -1
v 2 -0.5 -1
v 3 0 0
v 3 -0.5 0
v 2 0 0
v 2 -0.5 0
v 2.875 1 -0.75
v 3 1 -0.75
v 3 0.5 -0.75
v 2.875 0.5 -0.75
v 3 1 -0.25
v 3 0.5 -0.25
v 2.875 1 -0.25
v 2.875 0.5 -0.25
v 2.125 0 -1.875
v 2.25 0 -1.875
v 2.25 -0.5 -1.875
v 2.125 -0.5 -1.875
v 2.25 0 -1.625
v 2.25 -0.5 -1.625
v 2.125 0 -1.625
v 2.125 -0.5 -1.625
v 2.75 0 -1.875
v 2.875 0 -1.875
v 2.875 -0.5 -1.875
v 2.75 -0.5 -1.875
v 2.875 0 -1.625
v 2.875 -0.5 -1.625
v 2.75 0 -1.625
v 2.75 -0.5 -1.625
v 1.75 1.25 -1
v 2 1.25 -1
v 2 0.25 -1
v 1.75 0.25 -1
v 2 1.25 0
v 2 0.25 0
v 1.75 1.25 0
v 1.75 0.25 0
v 1.99375 1.125 -0.875
v 2.86875 1.125 -0.875
v 2.86875 0.375 -0.875
v 1.99375 0.375 -0.875
v 2.86875 1.125 -0.125
v 2.86875 0.375 -0.125
v 1.99375 1.125 -0.125
v 1.99375 0.375 -0.125
v 2 1 -2
v 3 1 -2
v 3 0 -2
v 2 0 -2
v 3 1 -1.5
v 3 0 -1.5
v 2 1 -1.5
v 2 0 -1.5
v 1.5 0.125 0.625
v 1.25 0.125 0.625
v 1.25 -0.5 0.625
v 1.5 -0.5 0.625
v 1.25 -0.125 0.375
v 1.25 -0.5 0.375
v 1.5 -0.125 0.375
v 1.5 -0.5 0.375
v -1.5 1.25 0.75
v 1.75 1.25 0.75
v 1.75 2 0
v -1.5 2 0
v 1.75 1.25 -1.75
v 1.75 2 -1
v -1.5 1.25 -1.75
v -1.5 2 -1
v -1.5 0.25 -1.75
v 1.75 0.25 -1.75
v 1.75 -0.5 -1
v -1.5 -0.5 -1
v 1.75 0.25 0.75
v 1.75 -0.5 0
v -1.5 0.25 0.75
v -1.5 -0.5 0
v -1.5 1.25 -1.75
v 1.75 1.25 -1.75
v 1.75 1.25 0.75
v -1.5 1.25 0.75
v -2 -0.5 -2
v 3 -0.5 -2
v 3 -1 -2
v -2 -1 -2
v 3 -0.5 1
v 3 -1 1
v -2 -0.5 1
v -2 -1 1
vt 0 1
vt 1 1
vt 1 0
vt 0 0
vt 0.8125 0.71875
vt 0.75 0.65625
vt 0.75 0.59375
vt 0.8125 0.53125
vt 0.625 0.625
vt 0.671875 0.625
vt 0.671875 0.5625
vt 0.625 0.5625
vt 0 1
vt 1 1
vt 1 0
vt 0 0
vt 0.671875 0.648438
vt 0.71875 0.648438
vt 0.71875 0.5625
vt 0.671875 0.5625
vt 0.671875 0.648438
vt 0.71875 0.648438
vt 0.71875 0.5625
vt 0.671875 0.5625
vt 0 1
vt 1 1
vt 1 0
vt 0 0
vt 0 1
vt 1 1
vt 1 0
vt 0 0
vt 0.625 0.625
vt 0.671875 0.625
vt 0.671875 0.5625
vt 0.625 0.5625
vt 0.75 0.65625
vt 0.8125 0.71875
vt 0.8125 0.53125
vt 0.75 0.59375
vt 0.671875 0.648438
vt 0.71875 0.648438
vt 0.71875 0.5625
vt 0.671875 0.5625
vt 0.671875 0.648438
vt 0.71875 0.648438
vt 0.71875 0.5625
vt 0.671875 0.5625
vt 0.0625 0.71875
vt 0.109375 0.71875
vt 0.109375 0.671875
vt 0.046875 0.671875
vt 0 1
vt 1 1
vt 1 0
vt 0 0
vt 0.046875 0.71875
vt 0.09375 0.71875
vt 0.109375 0.671875
vt 0.046875 0.671875
vt 0.75 0.9375
vt 0.875 0.9375
vt 0.875 0.890625
vt 0.75 0.890625
vt 0 1
vt 1 1
vt 1 0
vt 0 0
vt 0 1
vt 1 1
vt 1 0
vt 0 0
vt 0.046875 0.71875
vt 0.109375 0.71875
vt 0.109375 0.671875
vt 0.0625 0.671875
vt 0 1
vt 1 1
vt 1 0
vt 0 0
vt 0.046875 0.71875
vt 0.109375 0.71875
vt 0.09375 0.671875
vt 0.046875 0.671875
vt 0.75 0.859375
vt 0.875 0.859375
vt 0.875 0.8125
vt 0.75 0.8125
vt 0 1
vt 1 1
vt 1 0
vt 0 0
vt 0 1
vt 1 1
vt 1 0
vt 0 0
vt 0.75 0.875
vt 0.8125 0.875
vt 0.8125 0.8125
vt 0.75 0.8125
vt 0 1
vt 1 1
vt 1 0
vt 0 0
vt 0.8125 0.875
vt 0.875 0.875
vt 0.875 0.8125
vt 0.8125 0.8125
vt 0.75 0.875
vt 0.875 0.875
vt 0.875 0.8125
vt 0.75 0.8125
vt 0.625 0.875
vt 0.6875 0.875
vt 0.6875 0.75
vt 0.625 0.75
vt 0.75 0.9375
vt 0.8125 0.9375
vt 0.8125 0.875
vt 0.75 0.875
vt 0 1
vt 1 1
vt 1 0
vt 0 0
vt 0.8125 0.9375
vt 0.875 0.9375
vt 0.875 0.875
vt 0.8125 0.875
vt 0.625 0.9375
vt 0.75 0.9375
vt 0.75 0.875
vt 0.625 0.875
vt 0 1
vt 1 1
vt 1 0
vt 0 0
vt 0 1
vt 1 1
vt 1 0
vt 0 0
vt 0 1
vt 1 1
vt 1 0
vt 0 0
vt 0 1
vt 1 1
vt 1 0
vt 0 0
vt 0.75 0.8125
vt 0.875 0.8125
vt 0.875 0.71875
vt 0.75 0.71875
vt 0 1
vt 1 1
vt 1 0
vt 0 0
vt 0 1
vt 1 1
vt 1 0
vt 0 0
vt 0.65625 0.75
vt 0.671875 0.75
vt 0.671875 0.703125
vt 0.65625 0.703125
vt 0.65625 0.75
vt 0.703125 0.75
vt 0.703125 0.703125
vt 0.65625 0.703125
vt 0.65625 0.75
vt 0.671875 0.75
vt 0.671875 0.703125
vt 0.65625 0.703125
vt 0.65625 0.75
vt 0.671875 0.75
vt 0.671875 0.703125
vt 0.65625 0.703125
vt 0.65625 0.75
vt 0.671875 0.75
vt 0.671875 0.703125
vt 0.65625 0.703125
vt 0.40625 0.25
vt 0.46875 0.25
vt 0.46875 0.1875
vt 0.40625 0.1875
vt 0.46875 0.25
vt 0.515625 0.25
vt 0.515625 0.1875
vt 0.46875 0.1875
vt 0 1
vt 1 1
vt 1 0
vt 0 0
vt 0.46875 0.25
vt 0.515625 0.25
vt 0.515625 0.1875
vt 0.46875 0.1875
vt 0.46875 0.25
vt 0.515625 0.25
vt 0.515625 0.1875
vt 0.46875 0.1875
vt 0.46875 0.25
vt 0.515625 0.25
vt 0.515625 0.1875
vt 0.46875 0.1875
vt 0.71875 0.53125
vt 0.71875 0.8125
vt 0.75 0.8125
vt 0.75 0.53125
vt 0 1
vt 1 1
vt 1 0
vt 0 0
vt 0.71875 0.53125
vt 0.71875 0.8125
vt 0.75 0.8125
vt 0.75 0.53125
vt 0 1
vt 1 1
vt 1 0
vt 0 0
vt 0.734375 0.53125
vt 0.734375 0.8125
vt 0.75 0.8125
vt 0.75 0.53125
vt 0.734375 0.53125
vt 0.734375 0.8125
vt 0.75 0.8125
vt 0.75 0.53125
vt 0.71875 0.53125
vt 0.71875 0.8125
vt 0.75 0.8125
vt 0.75 0.53125
vt 0 1
vt 1 1
vt 1 0
vt 0 0
vt 0.71875 0.53125
vt 0.71875 0.8125
vt 0.75 0.8125
vt 0.75 0.53125
vt 0 1
vt 1 1
vt 1 0
vt 0 0
vt 0.734375 0.53125
vt 0.734375 0.8125
vt 0.75 0.8125
vt 0.75 0.53125
vt 0.734375 0.53125
vt 0.734375 0.8125
vt 0.75 0.8125
vt 0.75 0.53125
vt 0.625 0.75
vt 0.65625 0.75
vt 0.65625 0.671875
vt 0.625 0.671875
vt 0.625 0.75
vt 0.65625 0.71875
vt 0.65625 0.671875
vt 0.625 0.671875
vt 0.625 0.71875
vt 0.65625 0.71875
vt 0.65625 0.671875
vt 0.625 0.671875
vt 0.625 0.71875
vt 0.65625 0.75
vt 0.65625 0.671875
vt 0.625 0.671875
vt 0 1
vt 1 1
vt 1 0
vt 0 0
vt 0 1
vt 1 1
vt 1 0
vt 0 0
vt 0.625 0.75
vt 0.65625 0.75
vt 0.65625 0.671875
vt 0.625 0.671875
vt 0.625 0.75
vt 0.65625 0.71875
vt 0.65625 0.671875
vt 0.625 0.671875
vt 0.625 0.71875
vt 0.65625 0.71875
vt 0.65625 0.671875
vt 0.625 0.671875
vt 0.625 0.71875
vt 0.65625 0.75
vt 0.65625 0.671875
vt 0.625 0.671875
vt 0 1
vt 1 1
vt 1 0
vt 0 0
vt 0 1
vt 1 1
vt 1 0
vt 0 0
vt 0.625 0.75
vt 0.65625 0.75
vt 0.65625 0.671875
vt 0.625 0.671875
vt 0.625 0.75
vt 0.65625 0.71875
vt 0.65625 0.671875
vt 0.625 0.671875
vt 0.625 0.71875
vt 0.65625 0.71875
vt 0.65625 0.671875
vt 0.625 0.671875
vt 0.625 0.71875
vt 0.65625 0.75
vt 0.65625 0.671875
vt 0.625 0.671875
vt 0 1
vt 1 1
vt 1 0
vt 0 0
vt 0 1
vt 1 1
vt 1 0
vt 0 0
vt 0.109375 0.1875
vt 0.21875 0.1875
vt 0.21875 0
vt 0.109375 0
vt 0.21875 0.1875
vt 0.273438 0.1875
vt 0.273438 0
vt 0.21875 0
vt 0 0.1875
vt 0.109375 0.1875
vt 0.109375 0
vt 0 0
vt 0.273438 0.1875
vt 0.21875 0.1875
vt 0.21875 0
vt 0.273438 0
vt 0.273438 0.1875
vt 0.382812 0.1875
vt 0.382812 0.13281200000000004
vt 0.273438 0.13281200000000004
vt 0.273438 0.1875
vt 0.382812 0.1875
vt 0.382812 0.13281200000000004
vt 0.273438 0.13281200000000004
vt 0 1
vt 1 1
vt 1 0
vt 0 0
vt 0.8125 0.601562
vt 0.8125 0.625
vt 0.84375 0.625
vt 0.84375 0.601562
vt 0 1
vt 1 1
vt 1 0
vt 0 0
vt 0.8125 0.601562
vt 0.8125 0.625
vt 0.84375 0.625
vt 0.84375 0.601562
vt 0.8125 0.601562
vt 0.8125 0.625
vt 0.84375 0.625
vt 0.84375 0.601562
vt 0.8125 0.601562
vt 0.8125 0.625
vt 0.84375 0.625
vt 0.84375 0.601562
vt 0.65625 0.75
vt 0.703125 0.75
vt 0.703125 0.703125
vt 0.65625 0.703125
vt 0.65625 0.75
vt 0.703125 0.75
vt 0.703125 0.703125
vt 0.65625 0.703125
vt 0 1
vt 1 1
vt 1 0
vt 0 0
vt 0.65625 0.75
vt 0.703125 0.75
vt 0.703125 0.703125
vt 0.65625 0.703125
vt 0.65625 0.75
vt 0.703125 0.75
vt 0.703125 0.703125
vt 0.65625 0.703125
vt 0.65625 0.75
vt 0.703125 0.75
vt 0.703125 0.703125
vt 0.65625 0.703125
vt 0.8125 0.71875
vt 0.84375 0.71875
vt 0.84375 0.601562
vt 0.8125 0.601562
vt 0.8125 0.71875
vt 0.84375 0.71875
vt 0.84375 0.601562
vt 0.8125 0.601562
vt 0.8125 0.71875
vt 0.84375 0.71875
vt 0.84375 0.601562
vt 0.8125 0.601562
vt 0.8125 0.71875
vt 0.84375 0.71875
vt 0.84375 0.601562
vt 0.8125 0.601562
vt 0 1
vt 1 1
vt 1 0
vt 0 0
vt 0 1
vt 1 1
vt 1 0
vt 0 0
vt 0.65625 0.71875
vt 0.703125 0.71875
vt 0.703125 0.703125
vt 0.65625 0.703125
vt 0.65625 0.71875
vt 0.703125 0.71875
vt 0.703125 0.703125
vt 0.65625 0.703125
vt 0.65625 0.71875
vt 0.703125 0.71875
vt 0.703125 0.703125
vt 0.65625 0.703125
vt 0.65625 0.71875
vt 0.703125 0.71875
vt 0.703125 0.703125
vt 0.65625 0.703125
vt 0.65625 0.75
vt 0.703125 0.75
vt 0.703125 0.703125
vt 0.65625 0.703125
vt 0 1
vt 1 1
vt 1 0
vt 0 0
vt 0.75 0.9375
vt 0.875 0.9375
vt 0.875 0.875
vt 0.75 0.875
vt 0.625 0.9375
vt 0.75 0.9375
vt 0.75 0.875
vt 0.625 0.875
vt 0.75 0.9375
vt 0.875 0.9375
vt 0.875 0.875
vt 0.75 0.875
vt 0.75 0.9375
vt 0.875 0.9375
vt 0.875 0.875
vt 0.75 0.875
vt 0.75 0.9375
vt 0.875 0.9375
vt 0.875 0.8125
vt 0.75 0.8125
vt 0 1
vt 1 1
vt 1 0
vt 0 0
vt 0.460938 0.25
vt 0.476562 0.25
vt 0.476562 0.1875
vt 0.460938 0.1875
vt 0.40625 0.25
vt 0.46875 0.25
vt 0.46875 0.1875
vt 0.40625 0.1875
vt 0.460938 0.25
vt 0.476562 0.25
vt 0.476562 0.1875
vt 0.460938 0.1875
vt 0 1
vt 1 1
vt 1 0
vt 0 0
vt 0.460938 0.25
vt 0.476562 0.25
vt 0.476562 0.1875
vt 0.460938 0.1875
vt 0.460938 0.25
vt 0.476562 0.25
vt 0.476562 0.1875
vt 0.460938 0.1875
vt 0.734375 0.875
vt 0.75 0.875
vt 0.75 0.8125
vt 0.734375 0.8125
vt 0.703125 0.875
vt 0.734375 0.875
vt 0.734375 0.8125
vt 0.703125 0.8125
vt 0.734375 0.875
vt 0.75 0.875
vt 0.75 0.8125
vt 0.734375 0.8125
vt 0.703125 0.875
vt 0.734375 0.875
vt 0.734375 0.8125
vt 0.703125 0.8125
vt 0 1
vt 1 1
vt 1 0
vt 0 0
vt 0 1
vt 1 1
vt 1 0
vt 0 0
vt 0.734375 0.875
vt 0.75 0.875
vt 0.75 0.8125
vt 0.734375 0.8125
vt 0.703125 0.875
vt 0.734375 0.875
vt 0.734375 0.8125
vt 0.703125 0.8125
vt 0.734375 0.875
vt 0.75 0.875
vt 0.75 0.8125
vt 0.734375 0.8125
vt 0.703125 0.875
vt 0.734375 0.875
vt 0.734375 0.8125
vt 0.703125 0.8125
vt 0 1
vt 1 1
vt 1 0
vt 0 0
vt 0 1
vt 1 1
vt 1 0
vt 0 0
vt 0.71875 0.8125
vt 0.75 0.8125
vt 0.75 0.6875
vt 0.71875 0.6875
vt 0.75 0.9375
vt 0.875 0.9375
vt 0.875 0.8125
vt 0.75 0.8125
vt 0.71875 0.8125
vt 0.75 0.8125
vt 0.75 0.6875
vt 0.71875 0.6875
vt 0 1
vt 1 1
vt 1 0
vt 0 0
vt 0.71875 0.8125
vt 0.75 0.8125
vt 0.75 0.6875
vt 0.71875 0.6875
vt 0.71875 0.8125
vt 0.75 0.8125
vt 0.75 0.6875
vt 0.71875 0.6875
vt 0.71875 0.328125
vt 0.71875 0.4375
vt 0.8125 0.4375
vt 0.8125 0.328125
vt 0.71875 0.53125
vt 0.8125 0.53125
vt 0.8125 0.4375
vt 0.71875 0.4375
vt 0.71875 0.328125
vt 0.71875 0.4375
vt 0.8125 0.4375
vt 0.8125 0.328125
vt 0 1
vt 1 1
vt 1 0
vt 0 0
vt 0.71875 0.328125
vt 0.71875 0.4375
vt 0.8125 0.4375
vt 0.8125 0.328125
vt 0.71875 0.328125
vt 0.71875 0.4375
vt 0.8125 0.4375
vt 0.8125 0.328125
vt 0.875 0.9375
vt 1 0.9375
vt 1 0.8125
vt 0.875 0.8125
vt 0.8125 0.9375
vt 0.875 0.9375
vt 0.875 0.8125
vt 0.8125 0.8125
vt 0.75 0.9375
vt 0.875 0.9375
vt 0.875 0.8125
vt 0.75 0.8125
vt 0.75 0.9375
vt 0.8125 0.9375
vt 0.8125 0.8125
vt 0.75 0.8125
vt 0.75 0.9375
vt 0.875 0.9375
vt 0.875 0.875
vt 0.75 0.875
vt 0.75 0.875
vt 0.875 0.875
vt 0.875 0.8125
vt 0.75 0.8125
vt 0.625 0.75
vt 0.65625 0.75
vt 0.65625 0.671875
vt 0.625 0.671875
vt 0.625 0.75
vt 0.65625 0.71875
vt 0.65625 0.671875
vt 0.625 0.671875
vt 0.625 0.71875
vt 0.65625 0.71875
vt 0.65625 0.671875
vt 0.625 0.671875
vt 0.625 0.71875
vt 0.65625 0.75
vt 0.65625 0.671875
vt 0.625 0.671875
vt 0 1
vt 1 1
vt 1 0
vt 0 0
vt 0 1
vt 1 1
vt 1 0
vt 0 0
vt 0.40625 0.44531199999999993
vt 0 0.44531199999999993
vt 0 0.3125
vt 0.40625 0.3125
vt 0.71875 0.46875
vt 0.40625 0.46875
vt 0.5 0.5625
vt 0.625 0.5625
vt 0.40625 0.44531199999999993
vt 0 0.44531199999999993
vt 0 0.3125
vt 0.40625 0.3125
vt 0.71875 0.46875
vt 0.40625 0.46875
vt 0.5 0.5625
vt 0.625 0.5625
vt 0 1
vt 1 1
vt 1 0
vt 0 0
vt 0 0.3125
vt 0.40625 0.3125
vt 0.40625 0.1875
vt 0 0.1875
vt 0 0.44531199999999993
vt 0.40625 0.44531199999999993
vt 0.40625 0.3125
vt 0 0.3125
vt 0.40625 0.34375
vt 0.71875 0.34375
vt 0.625 0.25
vt 0.5 0.25
vt 0 0.44531199999999993
vt 0.40625 0.44531199999999993
vt 0.40625 0.3125
vt 0 0.3125
vt 0.40625 0.34375
vt 0.71875 0.34375
vt 0.625 0.25
vt 0.5 0.25
vt 0 1
vt 1 1
vt 1 0
vt 0 0
vt 0 1
vt 1 1
vt 1 0
vt 0 0
vt 0 0.5625
vt 0.40625 0.5625
vt 0.40625 0.4375
vt 0 0.4375
vt 0.40625 0.46875
vt 0.71875 0.46875
vt 0.71875 0.34375
vt 0.40625 0.34375
vt 0 0.5625
vt 0.40625 0.5625
vt 0.40625 0.4375
vt 0 0.4375
vt 0.40625 0.46875
vt 0.71875 0.46875
vt 0.71875 0.34375
vt 0.40625 0.34375
vt 0 1
vt 1 1
vt 1 0
vt 0 0
vt 0 0.625
vt 0.625 0.625
vt 0.625 0.5625
vt 0 0.5625
vt 0.625 1
vt 1 1
vt 1 0.9375
vt 0.625 0.9375
vt 0 0.625
vt 0.625 0.625
vt 0.625 0.5625
vt 0 0.5625
vt 0.625 1
vt 1 1
vt 1 0.9375
vt 0.625 0.9375
vt 0 1
vt 0.625 1
vt 0.625 0.625
vt 0 0.625
vt 0 1
vt 0.625 1
vt 0.625 0.625
vt 0 0.625
vn 0 0 1
vn -1 0 0
vn 0 0 -1
vn 1 0 0
vn 0 0.7071067811865476 -0.7071067811865476
vn 0 -0.7071067811865476 -0.7071067811865476
vn 0 0 -1
vn 1 0 0
vn 0 0 1
vn -1 0 0
vn 0 0.7071067811865476 0.7071067811865476
vn 0 -0.7071067811865476 0.7071067811865476
vn 0 0 -1
vn 1 0 0
vn 0 0 1
vn -0.948683298050514 0.316227766016838 0
vn 0 1 0
vn 0 -1 0
vn 0 0 -1
vn 1 0 0
vn 0 0 1
vn -0.948683298050514 -0.316227766016838 0
vn 0 1 0
vn 0 -1 0
vn 0 0 -1
vn 1 0 0
vn 0 0 1
vn -1 0 0
vn 0 1 0
vn 0 0 -1
vn 1 0 0
vn 0 0 1
vn -1 0 0
vn 0 -1 0
vn 0 0 -1
vn 1 0 0
vn 0 0 1
vn -1 0 0
vn 0 1 0
vn 0 0 -1
vn 1 0 0
vn 0 0 1
vn -1 0 0
vn 0 1 0
vn 0 -1 0
vn 0 0 -1
vn 1 0 0
vn 0 0 1
vn -1 0 0
vn 0 1 0
vn 0 -1 0
vn 0 0 -1
vn 1 0 0
vn 0 0 1
vn -1 0 0
vn 0 1 0
vn 0 -1 0
vn 0 0 -1
vn 1 0 0
vn 0 0 1
vn -1 0 0
vn 0 1 0
vn 0 -1 0
vn 0 0 -1
vn 1 0 0
vn 0 0 1
vn -1 0 0
vn 0 0.7071067811865476 0.7071067811865476
vn 0 -1 0
vn 0 0 -1
vn 1 0 0
vn 0 0 1
vn -1 0 0
vn 0 0.7071067811865476 0.7071067811865476
vn 0 -1 0
vn 0 0 1
vn -1 0 0
vn 0 0 -1
vn 1 0 0
vn 0 0.7071067811865476 -0.7071067811865476
vn 0 -1 0
vn 0 0 -1
vn 1 0 0
vn 0 0 1
vn -1 0 0
vn 0 1 0
vn 0 -1 0
vn 0 0 -1
vn 1 0 0
vn 0 0 1
vn -1 0 0
vn 0 1 0
vn 0 -1 0
vn 0 0 -1
vn 1 0 0
vn 0 0 1
vn -1 0 0
vn 0 1 0
vn 0 -1 0
vn 0 0 -1
vn 1 0 0
vn 0 0 1
vn -1 0 0
vn 0 1 0
vn 0 -1 0
vn 0 0 -1
vn 1 0 0
vn 0 0 1
vn -1 0 0
vn 0 1 0
vn 0 -1 0
vn 0 0 -1
vn 1 0 0
vn 0 0 1
vn -1 0 0
vn 0 1 0
vn 0 -1 0
vn 0 0 -1
vn 1 0 0
vn 0 0 1
vn -1 0 0
vn 0 1 0
vn 0 -1 0
vn 0 0 -1
vn 1 0 0
vn 0 0 1
vn -1 0 0
vn 0 1 0
vn 0 -1 0
vn 0 0 -1
vn 1 0 0
vn 0 0 1
vn -1 0 0
vn 0 1 0
vn 0 -1 0
vn 0 0 -1
vn 1 0 0
vn 0 0 1
vn -1 0 0
vn 0 1 0
vn 0 -1 0
vn 0 0 -1
vn 1 0 0
vn 0 0 1
vn -1 0 0
vn 0 1 0
vn 0 -1 0
vn 0 0 -1
vn 1 0 0
vn 0 0 1
vn -1 0 0
vn 0 1 0
vn 0 -1 0
vn 0 0 1
vn -1 0 0
vn 0 0 -1
vn 1 0 0
vn 0 0.7071067811865476 -0.7071067811865476
vn 0 -1 0
vn 0 0.7071067811865476 0.7071067811865476
vn 1 0 0
vn 0 0.7071067811865476 -0.7071067811865476
vn -1 0 0
vn 0 -1 0
vn 0 1 0
vn 0 -0.7071067811865476 -0.7071067811865476
vn 1 0 0
vn 0 -0.7071067811865476 0.7071067811865476
vn -1 0 0
vn 0 1 0
vn 0 -1 0
vn 0 0 -1
vn 1 0 0
vn 0 0 1
vn -1 0 0
vn 0 1 0
vn 0 0 -1
vn 1 0 0
vn 0 0 1
vn -1 0 0
vn 0 1 0
vn 0 -1 0
usemtl m_293c202d-84f4-6d9a-77e8-2ae89d9793ef
f 1/1/1 2/2/1 3/3/1 4/4/1
f 2/5/2 5/6/2 6/7/2 3/8/2
f 5/9/3 7/10/3 8/11/3 6/12/3
f 7/13/4 1/14/4 4/15/4 8/16/4
f 7/17/5 5/18/5 2/19/5 1/20/5
f 4/21/6 3/22/6 6/23/6 8/24/6
f 9/25/7 10/26/7 11/27/7 12/28/7
f 10/29/8 13/30/8 14/31/8 11/32/8
f 13/33/9 15/34/9 16/35/9 14/36/9
f 15/37/10 9/38/10 12/39/10 16/40/10
f 15/41/11 13/42/11 10/43/11 9/44/11
f 12/45/12 11/46/12 14/47/12 16/48/12
f 17/49/13 18/50/13 4/51/13 19/52/13
f 18/53/14 20/54/14 11/55/14 4/56/14
f 20/57/15 21/58/15 22/59/15 11/60/15
f 21/61/16 17/62/16 19/63/16 22/64/16
f 21/65/17 20/66/17 18/67/17 17/68/17
f 19/69/18 4/70/18 11/71/18 22/72/18
f 23/73/19 1/74/19 24/75/19 25/76/19
f 1/77/20 10/78/20 26/79/20 24/80/20
f 10/81/21 27/82/21 28/83/21 26/84/21
f 27/85/22 23/86/22 25/87/22 28/88/22
f 27/89/23 10/90/23 1/91/23 23/92/23
f 25/93/24 24/94/24 26/95/24 28/96/24
f 29/97/25 30/98/25 1/99/25 23/100/25
f 30/101/26 31/102/26 10/103/26 1/104/26
f 31/105/27 32/106/27 27/107/27 10/108/27
f 32/109/28 29/110/28 23/111/28 27/112/28
f 32/113/29 31/114/29 30/115/29 29/116/29
f 19/117/30 4/118/30 33/119/30 34/120/30
f 4/121/31 11/122/31 35/123/31 33/124/31
f 11/125/32 22/126/32 36/127/32 35/128/32
f 22/129/33 19/130/33 34/131/33 36/132/33
f 34/133/34 33/134/34 35/135/34 36/136/34
f 37/137/35 24/138/35 18/139/35 17/140/35
f 24/141/36 26/142/36 20/143/36 18/144/36
f 26/145/37 38/146/37 21/147/37 20/148/37
f 38/149/38 37/150/38 17/151/38 21/152/38
f 38/153/39 26/154/39 24/155/39 37/156/39
f 39/157/40 40/158/40 41/159/40 42/160/40
f 40/161/41 43/162/41 44/163/41 41/164/41
f 43/165/42 45/166/42 46/167/42 44/168/42
f 45/169/43 39/170/43 42/171/43 46/172/43
f 45/173/44 43/174/44 40/175/44 39/176/44
f 42/177/45 41/178/45 44/179/45 46/180/45
f 47/181/46 48/182/46 49/183/46 50/184/46
f 48/185/47 51/186/47 52/187/47 49/188/47
f 51/189/48 53/190/48 54/191/48 52/192/48
f 53/193/49 47/194/49 50/195/49 54/196/49
f 53/197/50 51/198/50 48/199/50 47/200/50
f 50/201/51 49/202/51 52/203/51 54/204/51
f 55/205/52 56/206/52 57/207/52 58/208/52
f 56/209/53 59/210/53 60/211/53 57/212/53
f 59/213/54 61/214/54 62/215/54 60/216/54
f 61/217/55 55/218/55 58/219/55 62/220/55
f 61/221/56 59/222/56 56/223/56 55/224/56
f 58/225/57 57/226/57 60/227/57 62/228/57
f 63/229/58 64/230/58 65/231/58 66/232/58
f 64/233/59 67/234/59 68/235/59 65/236/59
f 67/237/60 69/238/60 70/239/60 68/240/60
f 69/241/61 63/242/61 66/243/61 70/244/61
f 69/245/62 67/246/62 64/247/62 63/248/62
f 66/249/63 65/250/63 68/251/63 70/252/63
f 71/253/64 72/254/64 73/255/64 74/256/64
f 72/257/65 75/258/65 76/259/65 73/260/65
f 75/261/66 77/262/66 78/263/66 76/264/66
f 77/265/67 71/266/67 74/267/67 78/268/67
f 77/269/68 75/270/68 72/271/68 71/272/68
f 74/273/69 73/274/69 76/275/69 78/276/69
f 79/277/70 80/278/70 81/279/70 82/280/70
f 80/281/71 83/282/71 84/283/71 81/284/71
f 83/285/72 85/286/72 86/287/72 84/288/72
f 85/289/73 79/290/73 82/291/73 86/292/73
f 85/293/74 83/294/74 80/295/74 79/296/74
f 82/297/75 81/298/75 84/299/75 86/300/75
f 87/301/76 88/302/76 89/303/76 90/304/76
f 88/305/77 91/306/77 92/307/77 89/308/77
f 91/309/78 93/310/78 94/311/78 92/312/78
f 93/313/79 87/314/79 90/315/79 94/316/79
f 93/317/80 91/318/80 88/319/80 87/320/80
f 90/321/81 89/322/81 92/323/81 94/324/81
f 95/325/82 96/326/82 97/327/82 98/328/82
f 96/329/83 99/330/83 100/331/83 97/332/83
f 99/333/84 101/334/84 102/335/84 100/336/84
f 101/337/85 95/338/85 98/339/85 102/340/85
f 101/341/86 99/342/86 96/343/86 95/344/86
f 98/345/87 97/346/87 100/347/87 102/348/87
f 103/349/88 104/350/88 105/351/88 106/352/88
f 104/353/89 107/354/89 108/355/89 105/356/89
f 107/357/90 109/358/90 110/359/90 108/360/90
f 109/361/91 103/362/91 106/363/91 110/364/91
f 109/365/92 107/366/92 104/367/92 103/368/92
f 106/369/93 105/370/93 108/371/93 110/372/93
f 111/373/94 112/374/94 113/375/94 114/376/94
f 112/377/95 115/378/95 116/379/95 113/380/95
f 115/381/96 117/382/96 118/383/96 116/384/96
f 117/385/97 111/386/97 114/387/97 118/388/97
f 117/389/98 115/390/98 112/391/98 111/392/98
f 114/393/99 113/394/99 116/395/99 118/396/99
f 119/397/100 120/398/100 121/399/100 122/400/100
f 120/401/101 123/402/101 124/403/101 121/404/101
f 123/405/102 125/406/102 126/407/102 124/408/102
f 125/409/103 119/410/103 122/411/103 126/412/103
f 125/413/104 123/414/104 120/415/104 119/416/104
f 122/417/105 121/418/105 124/419/105 126/420/105
f 127/421/106 128/422/106 129/423/106 130/424/106
f 128/425/107 131/426/107 132/427/107 129/428/107
f 131/429/108 133/430/108 134/431/108 132/432/108
f 133/433/109 127/434/109 130/435/109 134/436/109
f 133/437/110 131/438/110 128/439/110 127/440/110
f 130/441/111 129/442/111 132/443/111 134/444/111
f 135/445/112 136/446/112 137/447/112 138/448/112
f 136/449/113 139/450/113 140/451/113 137/452/113
f 139/453/114 141/454/114 142/455/114 140/456/114
f 141/457/115 135/458/115 138/459/115 142/460/115
f 141/461/116 139/462/116 136/463/116 135/464/116
f 138/465/117 137/466/117 140/467/117 142/468/117
f 143/469/118 144/470/118 145/471/118 146/472/118
f 144/473/119 147/474/119 148/475/119 145/476/119
f 147/477/120 149/478/120 150/479/120 148/480/120
f 149/481/121 143/482/121 146/483/121 150/484/121
f 149/485/122 147/486/122 144/487/122 143/488/122
f 146/489/123 145/490/123 148/491/123 150/492/123
f 151/493/124 152/494/124 153/495/124 154/496/124
f 152/497/125 155/498/125 156/499/125 153/500/125
f 155/501/126 157/502/126 158/503/126 156/504/126
f 157/505/127 151/506/127 154/507/127 158/508/127
f 157/509/128 155/510/128 152/511/128 151/512/128
f 154/513/129 153/514/129 156/515/129 158/516/129
f 159/517/130 160/518/130 161/519/130 162/520/130
f 160/521/131 163/522/131 164/523/131 161/524/131
f 163/525/132 165/526/132 166/527/132 164/528/132
f 165/529/133 159/530/133 162/531/133 166/532/133
f 165/533/134 163/534/134 160/535/134 159/536/134
f 162/537/135 161/538/135 164/539/135 166/540/135
f 167/541/136 168/542/136 169/543/136 170/544/136
f 168/545/137 171/546/137 172/547/137 169/548/137
f 171/549/138 173/550/138 174/551/138 172/552/138
f 173/553/139 167/554/139 170/555/139 174/556/139
f 173/557/140 171/558/140 168/559/140 167/560/140
f 170/561/141 169/562/141 172/563/141 174/564/141
f 175/565/142 176/566/142 177/567/142 178/568/142
f 176/569/143 179/570/143 180/571/143 177/572/143
f 179/573/144 181/574/144 182/575/144 180/576/144
f 181/577/145 175/578/145 178/579/145 182/580/145
f 181/581/146 179/582/146 176/583/146 175/584/146
f 178/585/147 177/586/147 180/587/147 182/588/147
f 183/589/148 184/590/148 185/591/148 186/592/148
f 184/593/149 187/594/149 188/595/149 185/596/149
f 187/597/150 189/598/150 190/599/150 188/600/150
f 189/601/151 183/602/151 186/603/151 190/604/151
f 189/605/152 187/606/152 184/607/152 183/608/152
f 186/609/153 185/610/153 188/611/153 190/612/153
f 191/613/154 192/614/154 193/615/154 194/616/154
f 192/617/155 195/618/155 196/619/155 193/620/155
f 195/621/156 197/622/156 198/623/156 196/624/156
f 197/625/157 191/626/157 194/627/157 198/628/157
f 197/629/158 195/630/158 192/631/158 191/632/158
f 194/633/159 193/634/159 196/635/159 198/636/159
f 199/637/160 200/638/160 201/639/160 202/640/160
f 200/641/161 203/642/161 204/643/161 201/644/161
f 203/645/162 205/646/162 206/647/162 204/648/162
f 205/649/163 199/650/163 202/651/163 206/652/163
f 205/653/164 203/654/164 200/655/164 199/656/164
f 202/657/165 201/658/165 204/659/165 206/660/165
f 207/661/166 208/662/166 209/663/166 210/664/166
f 208/665/167 211/666/167 212/667/167 209/668/167
f 211/669/168 213/670/168 214/671/168 212/672/168
f 213/673/169 207/674/169 210/675/169 214/676/169
f 213/677/170 211/678/170 208/679/170 207/680/170
f 210/681/171 209/682/171 212/683/171 214/684/171
f 215/685/172 216/686/172 208/687/172 207/688/172
f 216/689/173 217/690/173 211/691/173 208/692/173
f 217/693/174 218/694/174 213/695/174 211/696/174
f 218/697/175 215/698/175 207/699/175 213/700/175
f 218/701/176 217/702/176 216/703/176 215/704/176
f 219/705/177 220/706/177 221/707/177 222/708/177
f 220/709/178 223/710/178 224/711/178 221/712/178
f 223/713/179 225/714/179 226/715/179 224/716/179
f 225/717/180 219/718/180 222/719/180 226/720/180
f 225/721/181 223/722/181 220/723/181 219/724/181
f 222/725/182 221/726/182 224/727/182 226/728/182