# Made in Blockbench 5.0.7
mtllib advanced_coke_oven.mtl

o cube
v -0.3125 1.25 0.3125
v 1.3125 1.25 0.3125
v 1.5 0.5 0.5
v -0.5 0.5 0.5
v 1.3125 1.25 -1.3125
v 1.5 0.5 -1.3125
v -0.3125 1.25 -1.3125
v -0.5 0.5 -1.3125
v 0 2.5 0
v 1 2.5 0
v 1 2.5 -1
v 0 2.5 -1
v -0.625 1.25 -1.3125
v 1.625 1.25 -1.3125
v 1.625 -1 -1.3125
v -0.625 -1 -1.3125
v 1.625 1.25 -2
v 1.625 -1 -2
v -0.625 1.25 -2
v -0.625 -1 -2
v 1.3125 0 0.3125
v 1.5 0.5 -1.3125
v 1.3125 0 -1.3125
v 0 0 0.3125
v 0 0 1
v 0 -1 1
v 0 -1 0.3125
v -0.3125 0 0.3125
v -0.5 0.5 -1.3125
v -0.3125 0 -1.3125
v 0 2.5 0
v 0 3 0
v 1 3 0
v 1 2.5 0
v 1 -1 0.3125
v 1 -1 1
v 0 0.5 0.5
v 0 0.25 0.75
v 0.875 3 -0.125
v 0.125 3 -0.125
v 1 2.5 -1
v 1 3 -1
v 0 3 -1
v 0 2.5 -1
v 0.875 3 -0.875
v 0.875 2.5 -0.875
v 0.125 2.5 -0.875
v 0.125 3 -0.875
v 0.875 2.5 -0.125
v 0.125 2.5 -0.125
v -0.3125 -1 -1.3125
v 1.3125 -1 -1.3125
v 1.3125 -1 0.3125
v -0.3125 -1 0.3125
v -0.5 -0.875 -0.125
v -0.5 -0.875 -0.875
v -0.3125 -0.875 -0.875
v -0.3125 -0.875 -0.125
v -0.5 -0.125 -0.875
v -0.5 -0.125 -0.125
v -0.3125 -0.125 -0.125
v -0.3125 -0.125 -0.875
v 1.3125 -0.875 -0.875
v 1.5 -0.875 -0.875
v 1.5 -0.125 -0.875
v 1.3125 -0.125 -0.875
v 1.3125 -0.125 -0.125
v 1.5 -0.125 -0.125
v 1.5 -0.875 -0.125
v 1.3125 -0.875 -0.125
v 1 0.25 0.75
v 1 0.5 0.5
v 1 0 0.3125
v 1 0 1
vt 0.25 0.6875
vt 0.226561875 0.78125
vt 0.023438125 0.78125
vt 0 0.6875
vt 0.226561875 0.6875
vt 0.226561875 0.78125
vt 0.023438125 0.78125
vt 0 0.6875
vt 0 1
vt 1 1
vt 1 0
vt 0 0
vt 0.25 0.6875
vt 0.226561875 0.78125
vt 0.023438125 0.78125
vt 0.023438125 0.6875
vt 1 0
vt 1 1
vt 0 1
vt 0 0
vt 0.226561875 0.78125
vt 0.1875 0.9375
vt 0.0625 0.9375
vt 0.023438125 0.78125
vt 0.226561875 0.78125
vt 0.1875 0.9375
vt 0.0625 0.9375
vt 0.023438125 0.78125
vt 0.226561875 0.78125
vt 0.1875 0.9375
vt 0.0625 0.9375
vt 0.023438125 0.78125
vt 0.226561875 0.78125
vt 0.1875 0.9375
vt 0.0625 0.9375
vt 0.023438125 0.78125
vt 1 0
vt 1 1
vt 0 1
vt 0 0
vt 1 0.71875
vt 1 1
vt 0.71875 1
vt 0.71875 0.71875
vt 0.71875 0.71875
vt 0.71875 1
vt 0.632811875 1
vt 0.632811875 0.71875
vt 1 0.71875
vt 1 1
vt 0.71875 1
vt 0.71875 0.71875
vt 0.71875 0.71875
vt 0.71875 1
vt 0.632811875 1
vt 0.632811875 0.71875
vt 0.632811875 0.71875
vt 0.71875 0.71875
vt 0.71875 1
vt 0.632811875 1
vt 0.632811875 0.71875
vt 0.71875 0.71875
vt 0.71875 1
vt 0.632811875 1
vt 0.023438125 0.6875
vt 0.25 0.6875
vt 0.226561875 0.625
vt 0.023438125 0.625
vt 0.375 0.5
vt 0.375 0.625
vt 0.460938125 0.625
vt 0.460938125 0.5
vt 0 0.6875
vt 0.25 0.6875
vt 0.226561875 0.625
vt 0.023438125 0.625
vt 0.226561875 0.625
vt 0.25 0.6875
vt 0 0.6875
vt 0.023438125 0.625
vt 0 0.6875
vt 0.226561875 0.6875
vt 0.226561875 0.625
vt 0.023438125 0.625
vt 0.0625 1
vt 0.1875 1
vt 0.1875 0.9375
vt 0.0625 0.9375
vt 0.375 0.625
vt 0.375 0.5
vt 0.460938125 0.5
vt 0.460938125 0.625
vt 0.40625 0.65625
vt 0.4375 0.695311875
vt 0.460938125 0.625
vt 0.375 0.625
vt 0.335938125 0.929688125
vt 0.335938125 0.84375
vt 0.460938125 0.84375
vt 0.460938125 0.929688125
vt 0.015625 0.515625
vt 0.109375 0.515625
vt 0.125 0.5
vt 0 0.5
vt 0.0625 1
vt 0.1875 1
vt 0.1875 0.9375
vt 0.0625 0.9375
vt 0.0625 1
vt 0.1875 1
vt 0.1875 0.9375
vt 0.0625 0.9375
vt 0.0625 1
vt 0.1875 1
vt 0.1875 0.9375
vt 0.0625 0.9375
vt 0.21875 0.5
vt 0.125 0.5
vt 0.125 0.546875
vt 0.21875 0.546875
vt 0.109375 0.609375
vt 0.015625 0.609375
vt 0 0.625
vt 0.125 0.625
vt 0.109375 0.515625
vt 0.109375 0.609375
vt 0.125 0.625
vt 0.125 0.5
vt 0.015625 0.609375
vt 0.015625 0.515625
vt 0 0.5
vt 0 0.625
vt 0.015625 0.515625
vt 0.015625 0.609375
vt 0.109375 0.609375
vt 0.109375 0.515625
vt 0.21875 0.5
vt 0.125 0.5
vt 0.125 0.546875
vt 0.21875 0.546875
vt 0.21875 0.5
vt 0.125 0.5
vt 0.125 0.546875
vt 0.21875 0.546875
vt 0.21875 0.5
vt 0.125 0.5
vt 0.125 0.546875
vt 0.21875 0.546875
vt 0.5 1
vt 0.296875 1
vt 0.296875 0.914061875
vt 0.5 0.914061875
vt 0.5 0.890625
vt 0.5 0.804686875
vt 0.296875 0.804686875
vt 0.296875 0.890625
vt 0.5 0.890625
vt 0.5 0.804686875
vt 0.296875 0.804686875
vt 0.296875 0.890625
vt 0.5 0.804686875
vt 0.296875 0.804686875
vt 0.296875 0.890625
vt 0.5 0.890625
vt 0.40625 0.65625
vt 0.375 0.625
vt 0.4375 0.695311875
vt 0.476561875 0.703125
vt 0.476561875 0.796875
vt 0.5 0.796875
vt 0.5 0.703125
vt 0.476561875 0.703125
vt 0.476561875 0.796875
vt 0.5 0.796875
vt 0.5 0.703125
vt 0.476561875 0.703125
vt 0.476561875 0.796875
vt 0.5 0.796875
vt 0.5 0.703125
vt 0.476561875 0.703125
vt 0.476561875 0.796875
vt 0.5 0.796875
vt 0.5 0.703125
vt 0.476561875 0.703125
vt 0.476561875 0.796875
vt 0.5 0.796875
vt 0.5 0.703125
vt 0.476561875 0.703125
vt 0.476561875 0.796875
vt 0.5 0.796875
vt 0.5 0.703125
vt 0.476561875 0.703125
vt 0.476561875 0.796875
vt 0.5 0.796875
vt 0.5 0.703125
vt 0.476561875 0.703125
vt 0.476561875 0.796875
vt 0.5 0.796875
vt 0.5 0.703125
vt 0.375 0.625
vt 0.25 0.625
vt 0.25 0.5
vt 0.375 0.5
vt 0.382811875 0.703125
vt 0.382811875 0.796875
vt 0.476561875 0.796875
vt 0.476561875 0.703125
vt 0.382811875 0.703125
vt 0.382811875 0.796875
vt 0.476561875 0.796875
vt 0.476561875 0.703125
vt 0.5 1
vt 0.5 0.796875
vt 0.296875 0.796875
vt 0.296875 1
vt 0.375 0.625
vt 0.25 0.625
vt 0.25 0.6875
vt 0.375 0.6875
vt 0.460938125 0.625
vt 0.4375 0.695311875
vt 0.40625 0.65625
vt 0.375 0.625
vn 0 0.242535625036333 0.970142500145332
vn 0.970142500145332 0.242535625036333 0
vn 0 0 1
vn -0.970142500145332 0.242535625036333 0
vn 0 -1 0
vn 0 0.24253562503633297 0.9701425001453319
vn 0.9701425001453319 0.24253562503633297 0
vn 0 0.24253562503633297 -0.9701425001453319
vn -0.9701425001453319 0.24253562503633297 0
vn 0 -1 0
vn 0 0 1
vn 1 0 0
vn 0 0 -1
vn -1 0 0
vn 0 1 0
vn 0 -1 0
vn 0.9363291775690445 -0.3511234415883917 0
vn -1 0 0
vn 0 -0.3511234415883917 0.9363291775690445
vn 0 0 1
vn -0.9363291775690445 -0.3511234415883917 0
vn 0 0 1
vn 1 0 0
vn -1 0 0
vn 0 -1 0
vn 0 1 0
vn 0 0 -1
vn -1 0 0
vn 1 0 0
vn 0 0 1
vn 0 1 0
vn 0 1 0
vn 0 1 0
vn 0 1 0
vn 1 0 0
vn -1 0 0
vn 0 0 -1
vn 0 0 1
vn 1 0 0
vn 0 0 1
vn -1 0 0
vn 0 0 0
vn 0 -1 0
vn 0 1 0
vn 0 0 1
vn 0 0 -1
vn 0 0 -1
vn 0 0 1
vn 0 -1 0
vn 0 1 0
vn 0 0 1
vn -1 0 0
vn 1 0 0
vn 0 -1 0
vn 0 0.7071067811865476 0.7071067811865476
vn 1 0 0
usemtl m_e34bea3b-f85d-4860-905c-a3ee52dc81f3
f 3/1/1 2/2/1 1/3/1 4/4/1
f 6/5/2 5/6/2 2/7/2 3/8/2
f 5/9/3 7/10/3 8/11/3 6/12/3
f 4/13/4 1/14/4 7/15/4 8/16/4
f 6/17/5 3/18/5 4/19/5 8/20/5
f 2/21/6 10/22/6 9/23/6 1/24/6
f 5/25/7 11/26/7 10/27/7 2/28/7
f 7/29/8 12/30/8 11/31/8 5/32/8
f 1/33/9 9/34/9 12/35/9 7/36/9
f 5/37/10 2/38/10 1/39/10 7/40/10
f 15/41/11 14/42/11 13/43/11 16/44/11
f 18/45/12 17/46/12 14/47/12 15/48/12
f 20/49/13 19/50/13 17/51/13 18/52/13
f 16/53/14 13/54/14 19/55/14 20/56/14
f 14/57/15 17/58/15 19/59/15 13/60/15
f 18/61/16 15/62/16 16/63/16 20/64/16
f 22/65/17 3/66/17 21/67/17 23/68/17
f 26/69/18 25/70/18 24/71/18 27/72/18
f 3/73/19 4/74/19 28/75/19 21/76/19
f 23/77/20 22/78/20 29/79/20 30/80/20
f 4/81/21 29/82/21 30/83/21 28/84/21
f 33/85/22 32/86/22 31/87/22 34/88/22
f 74/89/23 36/90/23 35/91/23 73/92/23
f 38/93/24 37/94/24 24/95/24 25/96/24
f 35/97/25 36/98/25 26/99/25 27/100/25
f 39/101/26 40/102/26 32/103/26 33/104/26
f 43/105/27 42/106/27 41/107/27 44/108/27
f 32/109/28 43/110/28 44/111/28 31/112/28
f 42/113/29 33/114/29 34/115/29 41/116/29
f 47/117/30 46/118/30 45/119/30 48/120/30
f 48/121/31 45/122/31 42/123/31 43/124/31
f 40/125/32 48/126/32 43/127/32 32/128/32
f 45/129/33 39/130/33 33/131/33 42/132/33
f 49/133/34 46/134/34 47/135/34 50/136/34
f 50/137/35 47/138/35 48/139/35 40/140/35
f 46/141/36 49/142/36 39/143/36 45/144/36
f 49/145/37 50/146/37 40/147/37 39/148/37
f 23/149/38 30/150/38 51/151/38 52/152/38
f 21/153/39 53/154/39 52/155/39 23/156/39
f 28/157/40 54/158/40 53/159/40 21/160/40
f 51/161/41 54/162/41 28/163/41 30/164/41
f 71/165/42 74/166/42 72/167/42
f 55/168/43 56/169/43 57/170/43 58/171/43
f 59/172/44 60/173/44 61/174/44 62/175/44
f 60/176/45 55/177/45 58/178/45 61/179/45
f 56/180/46 59/181/46 62/182/46 57/183/46
f 65/184/47 64/185/47 63/186/47 66/187/47
f 69/188/48 68/189/48 67/190/48 70/191/48
f 64/192/49 69/193/49 70/194/49 63/195/49
f 68/196/50 65/197/50 66/198/50 67/199/50
f 74/200/51 25/201/51 26/202/51 36/203/51
f 55/204/52 60/205/52 59/206/52 56/207/52
f 64/208/53 65/209/53 68/210/53 69/211/53
f 54/212/54 51/213/54 52/214/54 53/215/54
f 25/216/55 74/217/55 72/218/55 37/219/55
f 73/220/56 72/221/56 71/222/56 74/223/56