# Made in Blockbench 5.1.4
mtllib steel_sheetmetal_tank.mtl

o cube
v 5 5.875 3
v 5 5.875 -2
v 0 5.875 3
v 0 5.875 -2
v 4 6.3125 2
v 4 6.3125 -1
v 1 6.3125 -1
v 1 6.3125 2
v 4 7 2
v 4 7 -1
v 1 7 -1
v 1 7 2
v 2.75 5.75 3.25
v 2.25 5.75 3.25
v 2.75 4.8125 3.25
v 2.25 4.8125 3.25
v 2.75 7.25 3.25
v 2.25 7.25 3.25
v 2.25 6.5 3.25
v 2.75 6.5 3.25
v 2.75 5.75 3.75
v 2.75 5.75 3.25
v 2.75 4.8125 3.75
v 2.75 4.8125 3.25
v 2.75 7.25 3.75
v 2.75 7.25 3.25
v 2.75 6.5 3.25
v 2.75 6.5 3.75
v 2.25 5.75 3.75
v 2.75 5.75 3.75
v 2.25 4.8125 3.75
v 2.75 4.8125 3.75
v 2.25 7.25 3.75
v 2.75 7.25 3.75
v 2.75 6.5 3.75
v 2.25 6.5 3.75
v 2.25 5.75 3.25
v 2.25 5.75 3.75
v 2.25 4.8125 3.25
v 2.25 4.8125 3.75
v 2.25 7.25 3.25
v 2.25 7.25 3.75
v 2.25 6.5 3.75
v 2.25 6.5 3.25
v 2.25 7.75 3.75
v 2.25 7.25 3.75
v 2.75 7.25 3.75
v 2.75 7.25 3.25
v 2.25 7.25 3.25
v 2.75 7.75 3.75
v 2.75 7.75 3.25
v 2.25 7.75 3.25
v 2.25 7.75 1.75
v 2.75 7.75 1.75
v 2.75 7.25 1.75
v 2.25 7.25 1.75
v 2.25 7.75 1.25
v 2.75 7.75 1.25
v 2.75 7.25 1.25
v 2.25 7.25 1.25
v 2.25 7 1.25
v 2.75 7 1.25
v 2.75 7 1.75
v 2.25 7 1.75
v 2.25 7.25 2.5
v 2.25 7.75 2.5
v 2.75 7.75 2.5
v 2.75 7.25 2.5
v 2.125 7 1.875
v 2.125 7.125 1.875
v 2.875 7 1.875
v 2.875 7.125 1.875
v 2.125 7 1.125
v 2.125 7.125 1.125
v 2.875 7 1.125
v 2.875 7.125 1.125
v 5 3.8125 4
v 5 6.8125 4
v 5 3.8125 3.875
v 5 6.8125 3.875
v 4.875 3.8125 4
v 4.875 6.8125 4
v 4.875 3.8125 3.875
v 4.875 6.8125 3.875
v 5 0.8125 4
v 5 3.8125 4
v 5 0.8125 3.875
v 5 3.8125 3.875
v 4.875 0.8125 4
v 4.875 3.8125 4
v 4.875 0.8125 3.875
v 4.875 3.8125 3.875
v 4 3.8125 4
v 4 6.8125 4
v 4 3.8125 3.875
v 4 6.8125 3.875
v 4.125 3.8125 4
v 4.125 6.8125 4
v 4.125 3.8125 3.875
v 4.125 6.8125 3.875
v 4 0.8125 4
v 4 3.8125 4
v 4 0.8125 3.875
v 4 3.8125 3.875
v 4.125 0.8125 4
v 4.125 3.8125 4
v 4.125 0.8125 3.875
v 4.125 3.8125 3.875
v 4 6.8125 3.875
v 4 6.8125 3
v 4 6.6875 3.875
v 4 6.6875 3
v 4.125 6.8125 3.875
v 4.125 6.8125 3
v 4.125 6.6875 3.875
v 4.125 6.6875 3
v 4.125 6.8125 3
v 0.125 6.8125 3
v 4.125 6.6875 3
v 0.125 6.6875 3
v 4.125 6.8125 2.875
v 0.125 6.8125 2.875
v 4.125 6.6875 2.875
v 0.125 6.6875 2.875
v 5 6.8125 3.875
v 5 6.8125 3
v 5 6.6875 3.875
v 5 6.6875 3
v 4.875 6.8125 3.875
v 4.875 6.8125 3
v 4.875 6.6875 3.875
v 4.875 6.6875 3
v 5 6.8125 3
v 5 6.8125 -2
v 5 6.6875 3
v 5 6.6875 -2
v 4.875 6.8125 3
v 4.875 6.8125 -2
v 4.875 6.6875 3
v 4.875 6.6875 -2
v 0 6.8125 3
v 0 6.8125 -2
v 0 6.6875 3
v 0 6.6875 -2
v 0.125 6.8125 3
v 0.125 6.8125 -2
v 0.125 6.6875 3
v 0.125 6.6875 -2
v 4.875 6.8125 -2
v 0.125 6.8125 -2
v 4.875 6.6875 -2
v 0.125 6.6875 -2
v 4.875 6.8125 -1.875
v 0.125 6.8125 -1.875
v 4.875 6.6875 -1.875
v 0.125 6.6875 -1.875
v 5 6.6875 3
v 5 5.875 3
v 5 6.6875 2.875
v 5 5.875 2.875
v 4.875 6.6875 3
v 4.875 5.875 3
v 4.875 6.6875 2.875
v 4.875 5.875 2.875
v 5 5.75 3.875
v 5 5.75 3
v 5 5.875 3.875
v 5 5.875 3
v 4.875 5.75 3.875
v 4.875 5.75 3
v 4.875 5.875 3.875
v 4.875 5.875 3
v 5 4.375 3.875
v 5 4.375 3
v 5 4.5 3.875
v 5 4.5 3
v 4.875 4.375 3.875
v 4.875 4.375 3
v 4.875 4.5 3.875
v 4.875 4.5 3
v 5 3.0625 3.875
v 5 3.0625 3
v 5 3.1875 3.875
v 5 3.1875 3
v 4.875 3.0625 3.875
v 4.875 3.0625 3
v 4.875 3.1875 3.875
v 4.875 3.1875 3
v 5 1.75 3.875
v 5 1.75 3
v 5 1.875 3.875
v 5 1.875 3
v 4.875 1.75 3.875
v 4.875 1.75 3
v 4.875 1.875 3.875
v 4.875 1.875 3
v 4 1.75 3.875
v 4 1.75 3
v 4 1.875 3.875
v 4 1.875 3
v 4.125 1.75 3.875
v 4.125 1.75 3
v 4.125 1.875 3.875
v 4.125 1.875 3
v 4 3.0625 3.875
v 4 3.0625 3
v 4 3.1875 3.875
v 4 3.1875 3
v 4.125 3.0625 3.875
v 4.125 3.0625 3
v 4.125 3.1875 3.875
v 4.125 3.1875 3
v 4 4.375 3.875
v 4 4.375 3
v 4 4.5 3.875
v 4 4.5 3
v 4.125 4.375 3.875
v 4.125 4.375 3
v 4.125 4.5 3.875
v 4.125 4.5 3
v 4 5.75 3.875
v 4 5.75 3
v 4 5.875 3.875
v 4 5.875 3
v 4.125 5.75 3.875
v 4.125 5.75 3
v 4.125 5.875 3.875
v 4.125 5.875 3
v 5 6.6875 1.375
v 5 5.875 1.375
v 5 6.6875 1.25
v 5 5.875 1.25
v 4.875 6.6875 1.375
v 4.875 5.875 1.375
v 4.875 6.6875 1.25
v 4.875 5.875 1.25
v 4 6.6875 3
v 4 5.875 3
v 4 6.6875 2.875
v 4 5.875 2.875
v 4.125 6.6875 3
v 4.125 5.875 3
v 4.125 6.6875 2.875
v 4.125 5.875 2.875
v 5 6.6875 -0.375
v 5 5.875 -0.375
v 5 6.6875 -0.25
v 5 5.875 -0.25
v 4.875 6.6875 -0.375
v 4.875 5.875 -0.375
v 4.875 6.6875 -0.25
v 4.875 5.875 -0.25
v 3.375 6.6875 -2
v 3.375 5.875 -2
v 3.375 6.6875 -1.875
v 3.375 5.875 -1.875
v 3.25 6.6875 -2
v 3.25 5.875 -2
v 3.25 6.6875 -1.875
v 3.25 5.875 -1.875
v 1.625 6.6875 3
v 1.625 5.875 3
v 1.625 6.6875 2.875
v 1.625 5.875 2.875
v 1.75 6.6875 3
v 1.75 5.875 3
v 1.75 6.6875 2.875
v 1.75 5.875 2.875
v 0 6.6875 3
v 0 5.875 3
v 0 6.6875 2.875
v 0 5.875 2.875
v 0.125 6.6875 3
v 0.125 5.875 3
v 0.125 6.6875 2.875
v 0.125 5.875 2.875
v 0 6.6875 1.375
v 0 5.875 1.375
v 0 6.6875 1.25
v 0 5.875 1.25
v 0.125 6.6875 1.375
v 0.125 5.875 1.375
v 0.125 6.6875 1.25
v 0.125 5.875 1.25
v 0 6.6875 -0.375
v 0 5.875 -0.375
v 0 6.6875 -0.25
v 0 5.875 -0.25
v 0.125 6.6875 -0.375
v 0.125 5.875 -0.375
v 0.125 6.6875 -0.25
v 0.125 5.875 -0.25
v 0 6.6875 -2
v 0 5.875 -2
v 0 6.6875 -1.875
v 0 5.875 -1.875
v 0.125 6.6875 -2
v 0.125 5.875 -2
v 0.125 6.6875 -1.875
v 0.125 5.875 -1.875
v 1.625 6.6875 -2
v 1.625 5.875 -2
v 1.625 6.6875 -1.875
v 1.625 5.875 -1.875
v 1.75 6.6875 -2
v 1.75 5.875 -2
v 1.75 6.6875 -1.875
v 1.75 5.875 -1.875
v 5 6.6875 -2
v 5 5.875 -2
v 5 6.6875 -1.875
v 5 5.875 -1.875
v 4.875 6.6875 -2
v 4.875 5.875 -2
v 4.875 6.6875 -1.875
v 4.875 5.875 -1.875
v 5 5.625 3.00390625
v 5 4.625 3.00390625
v 4 5.625 3.00390625
v 4 4.625 3.00390625
v 5 4.625 3.00390625
v 5 3.625 3.00390625
v 4 4.625 3.00390625
v 4 3.625 3.00390625
v 5 3.625 3.00390625
v 5 2.625 3.00390625
v 4 3.625 3.00390625
v 4 2.625 3.00390625
v 5 2.625 3.00390625
v 5 1.625 3.00390625
v 4 2.625 3.00390625
v 4 1.625 3.00390625
v 5 1.625 3.00390625
v 5 0.625 3.00390625
v 4 1.625 3.00390625
v 4 0.625 3.00390625
v 5 5.875 3
v 5 5.875 -2
v 5 0.25 3
v 5 0.25 -2
v 0 5.875 3
v 0 5.875 -2
v 0 0.25 3
v 0 0.25 -2
v 5 3.0625 -2
v 5 3.0625 3
v 0 3.0625 3
v 0 3.0625 -2
v 5 3.0625 0
v 5 5.875 0
v 5 0.25 0
v 0 0.25 0
v 0 3.0625 0
v 0 5.875 0
v 0 3.0625 1
v 0 0.25 1
v 5 0.25 1
v 5 3.0625 1
v 5 5.875 1
v 0 5.875 1
v 5 0.25 3
v 5 0.25 -2
v 0 0.25 3
v 0 0.25 -2
v 4 -0.3125 2
v 4 -0.3125 -1
v 1 -0.3125 -1
v 1 -0.3125 2
v 4 -1 2
v 4 -1 -1
v 1 -1 -1
v 1 -1 2
v 0 0.25 0
v 0 0.25 1
v 0 -1 0
v 0 -1 1
v 1 0.25 0
v 1 0.25 1
v 1 -1 0
v 1 -1 1
v 3 0.25 -2
v 2 0.25 -2
v 3 -1 -2
v 2 -1 -2
v 3 0.25 -1
v 2 0.25 -1
v 3 -1 -1
v 2 -1 -1
v 5 0.25 1
v 5 0.25 0
v 5 -1 1
v 5 -1 0
v 4 0.25 1
v 4 0.25 0
v 4 -1 1
v 4 -1 0
v 2 0 2.5
v 3 0 2.5
v 2 -1 2.5
v 3 -1 2.5
v 2 0 2
v 3 0 2
v 2 -1 2
v 3 -1 2
v 4.125 -0.125 0
v 4.125 -0.125 -0.125
v 4.125 -0.875 0
v 4.125 -0.875 -0.125
v 4.875 -0.125 0
v 4.875 -0.125 -0.125
v 4.875 -0.875 0
v 4.875 -0.875 -0.125
v 0.875 -0.125 1
v 0.875 -0.125 1.125
v 0.875 -0.875 1
v 0.875 -0.875 1.125
v 0.125 -0.125 1
v 0.125 -0.125 1.125
v 0.125 -0.875 1
v 0.125 -0.875 1.125
v 1.875 -0.125 2
v 1.875 -0.125 2.125
v 1.875 -0.875 2
v 1.875 -0.875 2.125
v 1.125 -0.125 2
v 1.125 -0.125 2.125
v 1.125 -0.875 2
v 1.125 -0.875 2.125
v 2.875 -0.125 2.5
v 2.875 -0.125 2.625
v 2.875 -0.875 2.5
v 2.875 -0.875 2.625
v 2.125 -0.125 2.5
v 2.125 -0.125 2.625
v 2.125 -0.875 2.5
v 2.125 -0.875 2.625
v 4.875 -0.125 1
v 4.875 -0.125 1.125
v 4.875 -0.875 1
v 4.875 -0.875 1.125
v 4.125 -0.125 1
v 4.125 -0.125 1.125
v 4.125 -0.875 1
v 4.125 -0.875 1.125
v 0.875 -0.125 0
v 0.875 -0.125 -0.125
v 0.875 -0.875 0
v 0.875 -0.875 -0.125
v 0.125 -0.125 0
v 0.125 -0.125 -0.125
v 0.125 -0.875 0
v 0.125 -0.875 -0.125
v 2 -0.125 -1.875
v 1.875 -0.125 -1.875
v 2 -0.875 -1.875
v 1.875 -0.875 -1.875
v 2 -0.125 -1.125
v 1.875 -0.125 -1.125
v 2 -0.875 -1.125
v 1.875 -0.875 -1.125
v 3 -0.125 -1.875
v 3.125 -0.125 -1.875
v 3 -0.875 -1.875
v 3.125 -0.875 -1.875
v 3 -0.125 -1.125
v 3.125 -0.125 -1.125
v 3 -0.875 -1.125
v 3.125 -0.875 -1.125
v 4.75 -0.25 0.25
v 4.75 -0.25 0.125
v 4.75 -0.75 0.25
v 4.75 -0.75 0.125
v 4.25 -0.25 0.25
v 4.25 -0.25 0.125
v 4.25 -0.75 0.25
v 4.25 -0.75 0.125
v 4.75 -0.25 -0.875
v 4.75 -0.75 -0.875
v 4.25 -0.25 -0.875
v 4.25 -0.75 -0.875
v 4.75 -0.25 -1.25
v 4.75 -0.75 -1.25
v 4.25 -0.25 -1.25
v 4.25 -0.75 -1.25
v 4.75 -0.25 -1.75
v 4.75 -0.75 -1.75
v 4.25 -0.25 -1.75
v 4.25 -0.75 -1.75
v 3.75 -0.25 -1.75
v 3.75 -0.75 -1.75
v 3.75 -0.75 -1.25
v 3.75 -0.25 -1.25
v 2.9375 -0.25 -1.75
v 2.9375 -0.75 -1.75
v 2.9375 -0.75 -1.25
v 2.9375 -0.25 -1.25
v 0.25 -0.25 0.25
v 0.25 -0.25 0.125
v 0.25 -0.75 0.25
v 0.25 -0.75 0.125
v 0.75 -0.25 0.25
v 0.75 -0.25 0.125
v 0.75 -0.75 0.25
v 0.75 -0.75 0.125
v 0.25 -0.25 -0.875
v 0.25 -0.75 -0.875
v 0.75 -0.25 -0.875
v 0.75 -0.75 -0.875
v 0.25 -0.25 -1.25
v 0.25 -0.75 -1.25
v 0.75 -0.25 -1.25
v 0.75 -0.75 -1.25
v 0.25 -0.25 -1.75
v 0.25 -0.75 -1.75
v 0.75 -0.25 -1.75
v 0.75 -0.75 -1.75
v 1.25 -0.25 -1.75
v 1.25 -0.75 -1.75
v 1.25 -0.75 -1.25
v 1.25 -0.25 -1.25
v 2.0625 -0.25 -1.75
v 2.0625 -0.75 -1.75
v 2.0625 -0.75 -1.25
v 2.0625 -0.25 -1.25
v 0.25 -0.25 0.75
v 0.25 -0.25 0.875
v 0.25 -0.75 0.75
v 0.25 -0.75 0.875
v 0.75 -0.25 0.75
v 0.75 -0.25 0.875
v 0.75 -0.75 0.75
v 0.75 -0.75 0.875
v 0.25 -0.25 1.875
v 0.25 -0.75 1.875
v 0.75 -0.25 1.875
v 0.75 -0.75 1.875
v 0.25 -0.25 2.25
v 0.25 -0.75 2.25
v 0.75 -0.25 2.25
v 0.75 -0.75 2.25
v 0.25 -0.25 2.75
v 0.25 -0.75 2.75
v 0.75 -0.25 2.75
v 0.75 -0.75 2.75
v 1.25 -0.25 2.75
v 1.25 -0.75 2.75
v 1.25 -0.75 2.25
v 1.25 -0.25 2.25
v 1.75 -0.25 2.75
v 1.75 -0.75 2.75
v 1.75 -0.75 2.25
v 1.75 -0.25 2.25
v 1.75 -0.75 2
v 1.75 -0.25 2
v 1.25 -0.75 2
v 1.25 -0.25 2
v 4.75 -0.25 0.75
v 4.75 -0.25 0.875
v 4.75 -0.75 0.75
v 4.75 -0.75 0.875
v 4.25 -0.25 0.75
v 4.25 -0.25 0.875
v 4.25 -0.75 0.75
v 4.25 -0.75 0.875
v 4.75 -0.25 1.875
v 4.75 -0.75 1.875
v 4.25 -0.25 1.875
v 4.25 -0.75 1.875
v 4.75 -0.25 2.25
v 4.75 -0.75 2.25
v 4.25 -0.25 2.25
v 4.25 -0.75 2.25
v 4.75 -0.25 2.75
v 4.75 -0.75 2.75
v 4.25 -0.25 2.75
v 4.25 -0.75 2.75
v 3.75 -0.25 2.75
v 3.75 -0.75 2.75
v 3.75 -0.75 2.25
v 3.75 -0.25 2.25
v 3.25 -0.25 2.75
v 3.25 -0.75 2.75
v 3.25 -0.75 2.25
v 3.25 -0.25 2.25
v 3.25 -0.75 2
v 3.25 -0.25 2
v 3.75 -0.75 2
v 3.75 -0.25 2
v 2.75 -0.25 3.25
v 2.25 -0.25 3.25
v 2.25 1.4375 3.25
v 2.75 1.4375 3.25
v 2.25 0.6875 3.25
v 2.75 0.6875 3.25
v 2.75 2.0625 3.25
v 2.25 2.0625 3.25
v 2.75 2.6875 3.25
v 2.25 2.6875 3.25
v 2.75 2.0625 3.25
v 2.25 2.0625 3.25
v 2.75 4.1875 3.25
v 2.25 4.1875 3.25
v 2.25 3.4375 3.25
v 2.75 3.4375 3.25
v 2.75 -0.25 3.75
v 2.75 -0.25 3.25
v 2.75 1.4375 3.25
v 2.75 1.4375 3.75
v 2.75 0.6875 3.25
v 2.75 0.6875 3.75
v 2.75 2.0625 3.75
v 2.75 2.0625 3.25
v 2.75 2.6875 3.75
v 2.75 2.6875 3.25
v 2.75 2.0625 3.75
v 2.75 2.0625 3.25
v 2.75 4.1875 3.75
v 2.75 4.1875 3.25
v 2.75 3.4375 3.25
v 2.75 3.4375 3.75
v 2.25 -0.25 3.75
v 2.75 -0.25 3.75
v 2.75 1.4375 3.75
v 2.25 1.4375 3.75
v 2.75 0.6875 3.75
v 2.25 0.6875 3.75
v 2.25 2.0625 3.75
v 2.75 2.0625 3.75
v 2.25 2.6875 3.75
v 2.75 2.6875 3.75
v 2.25 2.0625 3.75
v 2.75 2.0625 3.75
v 2.25 4.1875 3.75
v 2.75 4.1875 3.75
v 2.75 3.4375 3.75
v 2.25 3.4375 3.75
v 2.25 -0.25 3.25
v 2.25 -0.25 3.75
v 2.25 1.4375 3.75
v 2.25 1.4375 3.25
v 2.25 0.6875 3.75
v 2.25 0.6875 3.25
v 2.25 2.0625 3.25
v 2.25 2.0625 3.75
v 2.25 2.6875 3.25
v 2.25 2.6875 3.75
v 2.25 2.0625 3.25
v 2.25 2.0625 3.75
v 2.25 4.1875 3.25
v 2.25 4.1875 3.75
v 2.25 3.4375 3.75
v 2.25 3.4375 3.25
v 2.75 -0.25 2.125
v 2.75 -0.25 2.875
v 2.75 -0.75 2.125
v 2.75 -0.75 2.875
v 2.25 -0.25 2.125
v 2.25 -0.25 2.875
v 2.25 -0.75 2.125
v 2.25 -0.75 2.875
v 2.75 -0.75 3.25
v 2.75 -0.25 3.25
v 2.25 -0.25 3.25
v 2.25 -0.75 3.25
v 2.75 -0.75 3.75
v 2.75 -0.25 3.75
v 2.25 -0.25 3.75
v 2.25 -0.75 3.75
v 3.875 -0.125 2
v 3.875 -0.125 2.125
v 3.875 -0.875 2
v 3.875 -0.875 2.125
v 3.125 -0.125 2
v 3.125 -0.125 2.125
v 3.125 -0.875 2
v 3.125 -0.875 2.125
vt 0 0.5
vt 0.5 0.5
vt 0.4 0.6
vt 0.1 0.6
vt 0.4 0.6
vt 0.5 0.5
vt 0.5 1
vt 0.4 0.9
vt 0.4 0.9
vt 0.5 1
vt 0 1
vt 0.1 0.9
vt 0.1 0.9
vt 0 1
vt 0 0.5
vt 0.1 0.6
vt 0.4 0.6
vt 0.4 0.9
vt 0.1 0.9
vt 0.1 0.6
vt 0.8 0.06874999999999998
vt 0.5 0.06874999999999998
vt 0.5 0
vt 0.8 0
vt 0.8 0.06874999999999998
vt 0.5 0.06874999999999998
vt 0.5 0
vt 0.8 0
vt 0.8 0.06874999999999998
vt 0.5 0.06874999999999998
vt 0.5 0
vt 0.8 0
vt 0.8 0.06874999999999998
vt 0.5 0.06874999999999998
vt 0.5 0
vt 0.8 0
vt 0.95 0.07499999999999996
vt 0.95 0
vt 1 0
vt 1 0.07499999999999996
vt 0.9 0.09375
vt 0.9 0
vt 0.95 0
vt 0.95 0.09375
vt 1 0
vt 1 0.07499999999999996
vt 0.95 0.07499999999999996
vt 0.95 0
vt 0.95 0.07499999999999996
vt 0.95 0
vt 1 0
vt 1 0.07499999999999996
vt 0.9 0.09375
vt 0.9 0
vt 0.95 0
vt 0.95 0.09375
vt 1 0
vt 1 0.07499999999999996
vt 0.95 0.07499999999999996
vt 0.95 0
vt 0.95 0.07499999999999996
vt 0.95 0
vt 1 0
vt 1 0.07499999999999996
vt 0.9 0.09375
vt 0.9 0
vt 0.95 0
vt 0.95 0.09375
vt 1 0
vt 1 0.07499999999999996
vt 0.95 0.07499999999999996
vt 0.95 0
vt 0.95 0.07499999999999996
vt 0.95 0
vt 1 0
vt 1 0.07499999999999996
vt 0.9 0.09375
vt 0.9 0
vt 0.95 0
vt 0.95 0.09375
vt 1 0
vt 1 0.07499999999999996
vt 0.95 0.07499999999999996
vt 0.95 0
vt 1 0.050000000000000044
vt 0.95 0.050000000000000044
vt 0.95 0
vt 1 0
vt 0.9 0.15000000000000002
vt 0.95 0.15000000000000002
vt 0.95 0.09999999999999998
vt 0.9 0.09999999999999998
vt 1 0.050000000000000044
vt 0.95 0.050000000000000044
vt 0.95 0
vt 1 0
vt 0.95 0.15000000000000002
vt 0.9 0.15000000000000002
vt 0.9 0.09999999999999998
vt 0.95 0.09999999999999998
vt 0.95 0
vt 0.95 0.07499999999999996
vt 0.9 0.07499999999999996
vt 0.9 0
vt 0.9 0
vt 0.9 0.07499999999999996
vt 0.95 0.07499999999999996
vt 0.95 0
vt 0.9 0
vt 0.9 0.07499999999999996
vt 0.95 0.07499999999999996
vt 0.95 0
vt 0.95 0
vt 0.95 0.07499999999999996
vt 0.9 0.07499999999999996
vt 0.9 0
vt 1 0.050000000000000044
vt 0.95 0.050000000000000044
vt 0.95 0
vt 1 0
vt 0.95 0.09999999999999998
vt 0.95 0.15000000000000002
vt 0.9 0.15000000000000002
vt 0.9 0.09999999999999998
vt 0.95 0.15000000000000002
vt 0.95 0.09999999999999998
vt 0.9 0.09999999999999998
vt 0.9 0.15000000000000002
vt 0.95 0
vt 1 0
vt 1 0.025000000000000022
vt 0.95 0.025000000000000022
vt 0.95 0.06874999999999998
vt 1 0.06874999999999998
vt 1 0.09375
vt 0.95 0.09375
vt 0.95 0
vt 1 0
vt 1 0.025000000000000022
vt 0.95 0.025000000000000022
vt 0.95 0
vt 1 0
vt 1 0.025000000000000022
vt 0.95 0.025000000000000022
vt 1 0
vt 1 0.050000000000000044
vt 0.95 0.050000000000000044
vt 0.95 0
vt 0.95 0.07499999999999996
vt 0.95 0
vt 1 0
vt 1 0.07499999999999996
vt 0.95 0.07499999999999996
vt 0.95 0
vt 1 0
vt 1 0.07499999999999996
vt 1 0
vt 1 0.07499999999999996
vt 0.95 0.07499999999999996
vt 0.95 0
vt 1 0
vt 1 0.07499999999999996
vt 0.95 0.07499999999999996
vt 0.95 0
vt 0.8125 0.1875
vt 0.8 0.1875
vt 0.8 0.11250000000000004
vt 0.8125 0.11250000000000004
vt 0.825 0.11250000000000004
vt 0.825 0.1875
vt 0.8125 0.1875
vt 0.8125 0.11250000000000004
vt 0.8 0.1875
vt 0.8 0.11250000000000004
vt 0.8125 0.11250000000000004
vt 0.8125 0.1875
vt 0.8125 0.11250000000000004
vt 0.825 0.11250000000000004
vt 0.825 0.1875
vt 0.8125 0.1875
vt 0.9 0.1875
vt 0.825 0.1875
vt 0.825 0.11250000000000004
vt 0.9 0.11250000000000004
vt 0.8 0.49375
vt 0.5 0.49375
vt 0.5 0.48124999999999996
vt 0.8 0.48124999999999996
vt 0.8 0.49375
vt 0.8 0.48124999999999996
vt 0.5 0.48124999999999996
vt 0.5 0.49375
vt 0.5 0.48124999999999996
vt 0.5 0.49375
vt 0.8 0.49375
vt 0.8 0.48124999999999996
vt 0.5 0.48124999999999996
vt 0.8 0.48124999999999996
vt 0.8 0.49375
vt 0.5 0.49375
vt 0.54375 0.48124999999999996
vt 0.54375 0.49375
vt 0.53125 0.49375
vt 0.53125 0.48124999999999996
vt 0.54375 0.49375
vt 0.53125 0.49375
vt 0.53125 0.48124999999999996
vt 0.54375 0.48124999999999996
vt 0.8 0.49375
vt 0.5 0.49375
vt 0.5 0.48124999999999996
vt 0.8 0.48124999999999996
vt 0.8 0.49375
vt 0.8 0.48124999999999996
vt 0.5 0.48124999999999996
vt 0.5 0.49375
vt 0.5 0.48124999999999996
vt 0.5 0.49375
vt 0.8 0.49375
vt 0.8 0.48124999999999996
vt 0.5 0.48124999999999996
vt 0.8 0.48124999999999996
vt 0.8 0.49375
vt 0.5 0.49375
vt 0.54375 0.48124999999999996
vt 0.54375 0.49375
vt 0.53125 0.49375
vt 0.53125 0.48124999999999996
vt 0.54375 0.49375
vt 0.53125 0.49375
vt 0.53125 0.48124999999999996
vt 0.54375 0.48124999999999996
vt 0.5 0.48124999999999996
vt 0.5 0.49375
vt 0.8 0.49375
vt 0.8 0.48124999999999996
vt 0.5 0.48124999999999996
vt 0.8 0.48124999999999996
vt 0.8 0.49375
vt 0.5 0.49375
vt 0.8 0.49375
vt 0.5 0.49375
vt 0.5 0.48124999999999996
vt 0.8 0.48124999999999996
vt 0.8 0.49375
vt 0.8 0.48124999999999996
vt 0.5 0.48124999999999996
vt 0.5 0.49375
vt 0.53125 0.49375
vt 0.54375 0.49375
vt 0.54375 0.48124999999999996
vt 0.53125 0.48124999999999996
vt 0.53125 0.48124999999999996
vt 0.53125 0.49375
vt 0.54375 0.49375
vt 0.54375 0.48124999999999996
vt 0.5 0.48124999999999996
vt 0.5 0.49375
vt 0.8 0.49375
vt 0.8 0.48124999999999996
vt 0.5 0.48124999999999996
vt 0.8 0.48124999999999996
vt 0.8 0.49375
vt 0.5 0.49375
vt 0.8 0.49375
vt 0.5 0.49375
vt 0.5 0.48124999999999996
vt 0.8 0.48124999999999996
vt 0.8 0.49375
vt 0.8 0.48124999999999996
vt 0.5 0.48124999999999996
vt 0.5 0.49375
vt 0.53125 0.49375
vt 0.54375 0.49375
vt 0.54375 0.48124999999999996
vt 0.53125 0.48124999999999996
vt 0.53125 0.48124999999999996
vt 0.53125 0.49375
vt 0.54375 0.49375
vt 0.54375 0.48124999999999996
vt 0.7875 0.48124999999999996
vt 0.7875 0.49375
vt 0.7 0.49375
vt 0.7 0.48124999999999996
vt 0.7875 0.49375
vt 0.7 0.49375
vt 0.7 0.48124999999999996
vt 0.7875 0.48124999999999996
vt 0.7875 0.49375
vt 0.7 0.49375
vt 0.7 0.48124999999999996
vt 0.7875 0.48124999999999996
vt 0.7875 0.48124999999999996
vt 0.7875 0.49375
vt 0.7 0.49375
vt 0.7 0.48124999999999996
vt 0.53125 0.49375
vt 0.54375 0.49375
vt 0.54375 0.48124999999999996
vt 0.53125 0.48124999999999996
vt 0.53125 0.48124999999999996
vt 0.53125 0.49375
vt 0.54375 0.49375
vt 0.54375 0.48124999999999996
vt 0.5125 0.48124999999999996
vt 0.5125 0.49375
vt 0.9125 0.49375
vt 0.9125 0.48124999999999996
vt 0.5125 0.48124999999999996
vt 0.9125 0.48124999999999996
vt 0.9125 0.49375
vt 0.5125 0.49375
vt 0.9125 0.49375
vt 0.5125 0.49375
vt 0.5125 0.48124999999999996
vt 0.9125 0.48124999999999996
vt 0.9125 0.49375
vt 0.9125 0.48124999999999996
vt 0.5125 0.48124999999999996
vt 0.5125 0.49375
vt 0.53125 0.49375
vt 0.54375 0.49375
vt 0.54375 0.48124999999999996
vt 0.53125 0.48124999999999996
vt 0.53125 0.48124999999999996
vt 0.53125 0.49375
vt 0.54375 0.49375
vt 0.54375 0.48124999999999996
vt 0.7 0.49375
vt 0.7875 0.49375
vt 0.7875 0.48124999999999996
vt 0.7 0.48124999999999996
vt 0.7 0.48124999999999996
vt 0.7 0.49375
vt 0.7875 0.49375
vt 0.7875 0.48124999999999996
vt 0.7 0.48124999999999996
vt 0.7 0.49375
vt 0.7875 0.49375
vt 0.7875 0.48124999999999996
vt 0.7 0.49375
vt 0.7875 0.49375
vt 0.7875 0.48124999999999996
vt 0.7 0.48124999999999996
vt 0.54375 0.48124999999999996
vt 0.54375 0.49375
vt 0.53125 0.49375
vt 0.53125 0.48124999999999996
vt 0.54375 0.49375
vt 0.53125 0.49375
vt 0.53125 0.48124999999999996
vt 0.54375 0.48124999999999996
vt 1 0.49375
vt 0.5 0.49375
vt 0.5 0.48124999999999996
vt 1 0.48124999999999996
vt 1 0.49375
vt 1 0.48124999999999996
vt 0.5 0.48124999999999996
vt 0.5 0.49375
vt 0.5 0.48124999999999996
vt 0.5 0.49375
vt 1 0.49375
vt 1 0.48124999999999996
vt 0.5 0.48124999999999996
vt 1 0.48124999999999996
vt 1 0.49375
vt 0.5 0.49375
vt 0.54375 0.48124999999999996
vt 0.54375 0.49375
vt 0.53125 0.49375
vt 0.53125 0.48124999999999996
vt 0.54375 0.49375
vt 0.53125 0.49375
vt 0.53125 0.48124999999999996
vt 0.54375 0.48124999999999996
vt 0.5 0.48124999999999996
vt 0.5 0.49375
vt 1 0.49375
vt 1 0.48124999999999996
vt 0.5 0.48124999999999996
vt 1 0.48124999999999996
vt 1 0.49375
vt 0.5 0.49375
vt 1 0.49375
vt 0.5 0.49375
vt 0.5 0.48124999999999996
vt 1 0.48124999999999996
vt 1 0.49375
vt 1 0.48124999999999996
vt 0.5 0.48124999999999996
vt 0.5 0.49375
vt 0.53125 0.49375
vt 0.54375 0.49375
vt 0.54375 0.48124999999999996
vt 0.53125 0.48124999999999996
vt 0.53125 0.48124999999999996
vt 0.53125 0.49375
vt 0.54375 0.49375
vt 0.54375 0.48124999999999996
vt 0.9875 0.49375
vt 0.5125 0.49375
vt 0.5125 0.48124999999999996
vt 0.9875 0.48124999999999996
vt 0.9875 0.49375
vt 0.9875 0.48124999999999996
vt 0.5125 0.48124999999999996
vt 0.5125 0.49375
vt 0.5125 0.48124999999999996
vt 0.5125 0.49375
vt 0.9875 0.49375
vt 0.9875 0.48124999999999996
vt 0.5125 0.48124999999999996
vt 0.9875 0.48124999999999996
vt 0.9875 0.49375
vt 0.5125 0.49375
vt 0.54375 0.48124999999999996
vt 0.54375 0.49375
vt 0.53125 0.49375
vt 0.53125 0.48124999999999996
vt 0.54375 0.49375
vt 0.53125 0.49375
vt 0.53125 0.48124999999999996
vt 0.54375 0.48124999999999996
vt 0.51875 0.48124999999999996
vt 0.51875 0.49375
vt 0.6 0.49375
vt 0.6 0.48124999999999996
vt 0.51875 0.48124999999999996
vt 0.6 0.48124999999999996
vt 0.6 0.49375
vt 0.51875 0.49375
vt 0.7125 0.49375
vt 0.63125 0.49375
vt 0.63125 0.48124999999999996
vt 0.7125 0.48124999999999996
vt 0.7125 0.49375
vt 0.7125 0.48124999999999996
vt 0.63125 0.48124999999999996
vt 0.63125 0.49375
vt 0.60625 0.48124999999999996
vt 0.60625 0.49375
vt 0.51875 0.49375
vt 0.51875 0.48124999999999996
vt 0.60625 0.49375
vt 0.51875 0.49375
vt 0.51875 0.48124999999999996
vt 0.60625 0.48124999999999996
vt 0.63125 0.48124999999999996
vt 0.71875 0.48124999999999996
vt 0.71875 0.49375
vt 0.63125 0.49375
vt 0.63125 0.49375
vt 0.63125 0.48124999999999996
vt 0.71875 0.48124999999999996
vt 0.71875 0.49375
vt 0.60625 0.48124999999999996
vt 0.60625 0.49375
vt 0.51875 0.49375
vt 0.51875 0.48124999999999996
vt 0.60625 0.49375
vt 0.51875 0.49375
vt 0.51875 0.48124999999999996
vt 0.60625 0.48124999999999996
vt 0.63125 0.48124999999999996
vt 0.71875 0.48124999999999996
vt 0.71875 0.49375
vt 0.63125 0.49375
vt 0.63125 0.49375
vt 0.63125 0.48124999999999996
vt 0.71875 0.48124999999999996
vt 0.71875 0.49375
vt 0.60625 0.48124999999999996
vt 0.60625 0.49375
vt 0.51875 0.49375
vt 0.51875 0.48124999999999996
vt 0.60625 0.49375
vt 0.51875 0.49375
vt 0.51875 0.48124999999999996
vt 0.60625 0.48124999999999996
vt 0.63125 0.48124999999999996
vt 0.71875 0.48124999999999996
vt 0.71875 0.49375
vt 0.63125 0.49375
vt 0.63125 0.49375
vt 0.63125 0.48124999999999996
vt 0.71875 0.48124999999999996
vt 0.71875 0.49375
vt 0.60625 0.48124999999999996
vt 0.60625 0.49375
vt 0.51875 0.49375
vt 0.51875 0.48124999999999996
vt 0.60625 0.49375
vt 0.51875 0.49375
vt 0.51875 0.48124999999999996
vt 0.60625 0.48124999999999996
vt 0.63125 0.48124999999999996
vt 0.71875 0.48124999999999996
vt 0.71875 0.49375
vt 0.63125 0.49375
vt 0.63125 0.49375
vt 0.63125 0.48124999999999996
vt 0.71875 0.48124999999999996
vt 0.71875 0.49375
vt 0.51875 0.49375
vt 0.60625 0.49375
vt 0.60625 0.48124999999999996
vt 0.51875 0.48124999999999996
vt 0.51875 0.48124999999999996
vt 0.51875 0.49375
vt 0.60625 0.49375
vt 0.60625 0.48124999999999996
vt 0.71875 0.49375
vt 0.71875 0.48124999999999996
vt 0.63125 0.48124999999999996
vt 0.63125 0.49375
vt 0.71875 0.48124999999999996
vt 0.63125 0.48124999999999996
vt 0.63125 0.49375
vt 0.71875 0.49375
vt 0.51875 0.49375
vt 0.60625 0.49375
vt 0.60625 0.48124999999999996
vt 0.51875 0.48124999999999996
vt 0.51875 0.48124999999999996
vt 0.51875 0.49375
vt 0.60625 0.49375
vt 0.60625 0.48124999999999996
vt 0.71875 0.49375
vt 0.71875 0.48124999999999996
vt 0.63125 0.48124999999999996
vt 0.63125 0.49375
vt 0.71875 0.48124999999999996
vt 0.63125 0.48124999999999996
vt 0.63125 0.49375
vt 0.71875 0.49375
vt 0.51875 0.49375
vt 0.60625 0.49375
vt 0.60625 0.48124999999999996
vt 0.51875 0.48124999999999996
vt 0.51875 0.48124999999999996
vt 0.51875 0.49375
vt 0.60625 0.49375
vt 0.60625 0.48124999999999996
vt 0.71875 0.49375
vt 0.71875 0.48124999999999996
vt 0.63125 0.48124999999999996
vt 0.63125 0.49375
vt 0.71875 0.48124999999999996
vt 0.63125 0.48124999999999996
vt 0.63125 0.49375
vt 0.71875 0.49375
vt 0.51875 0.49375
vt 0.60625 0.49375
vt 0.60625 0.48124999999999996
vt 0.51875 0.48124999999999996
vt 0.51875 0.48124999999999996
vt 0.51875 0.49375
vt 0.60625 0.49375
vt 0.60625 0.48124999999999996
vt 0.71875 0.49375
vt 0.71875 0.48124999999999996
vt 0.63125 0.48124999999999996
vt 0.63125 0.49375
vt 0.71875 0.48124999999999996
vt 0.63125 0.48124999999999996
vt 0.63125 0.49375
vt 0.71875 0.49375
vt 0.51875 0.48124999999999996
vt 0.51875 0.49375
vt 0.6 0.49375
vt 0.6 0.48124999999999996
vt 0.51875 0.48124999999999996
vt 0.6 0.48124999999999996
vt 0.6 0.49375
vt 0.51875 0.49375
vt 0.7125 0.49375
vt 0.63125 0.49375
vt 0.63125 0.48124999999999996
vt 0.7125 0.48124999999999996
vt 0.7125 0.49375
vt 0.7125 0.48124999999999996
vt 0.63125 0.48124999999999996
vt 0.63125 0.49375
vt 0.6 0.49375
vt 0.51875 0.49375
vt 0.51875 0.48124999999999996
vt 0.6 0.48124999999999996
vt 0.6 0.49375
vt 0.6 0.48124999999999996
vt 0.51875 0.48124999999999996
vt 0.51875 0.49375
vt 0.63125 0.48124999999999996
vt 0.63125 0.49375
vt 0.7125 0.49375
vt 0.7125 0.48124999999999996
vt 0.63125 0.48124999999999996
vt 0.7125 0.48124999999999996
vt 0.7125 0.49375
vt 0.63125 0.49375
vt 0.6 0.49375
vt 0.51875 0.49375
vt 0.51875 0.48124999999999996
vt 0.6 0.48124999999999996
vt 0.6 0.49375
vt 0.6 0.48124999999999996
vt 0.51875 0.48124999999999996
vt 0.51875 0.49375
vt 0.63125 0.48124999999999996
vt 0.63125 0.49375
vt 0.7125 0.49375
vt 0.7125 0.48124999999999996
vt 0.63125 0.48124999999999996
vt 0.7125 0.48124999999999996
vt 0.7125 0.49375
vt 0.63125 0.49375
vt 0.6 0.49375
vt 0.51875 0.49375
vt 0.51875 0.48124999999999996
vt 0.6 0.48124999999999996
vt 0.6 0.49375
vt 0.6 0.48124999999999996
vt 0.51875 0.48124999999999996
vt 0.51875 0.49375
vt 0.63125 0.48124999999999996
vt 0.63125 0.49375
vt 0.7125 0.49375
vt 0.7125 0.48124999999999996
vt 0.63125 0.48124999999999996
vt 0.7125 0.48124999999999996
vt 0.7125 0.49375
vt 0.63125 0.49375
vt 0.6 0.49375
vt 0.51875 0.49375
vt 0.51875 0.48124999999999996
vt 0.6 0.48124999999999996
vt 0.6 0.49375
vt 0.6 0.48124999999999996
vt 0.51875 0.48124999999999996
vt 0.51875 0.49375
vt 0.63125 0.48124999999999996
vt 0.63125 0.49375
vt 0.7125 0.49375
vt 0.7125 0.48124999999999996
vt 0.63125 0.48124999999999996
vt 0.7125 0.48124999999999996
vt 0.7125 0.49375
vt 0.63125 0.49375
vt 0.6 0.49375
vt 0.51875 0.49375
vt 0.51875 0.48124999999999996
vt 0.6 0.48124999999999996
vt 0.6 0.49375
vt 0.6 0.48124999999999996
vt 0.51875 0.48124999999999996
vt 0.51875 0.49375
vt 0.63125 0.48124999999999996
vt 0.63125 0.49375
vt 0.7125 0.49375
vt 0.7125 0.48124999999999996
vt 0.63125 0.48124999999999996
vt 0.7125 0.48124999999999996
vt 0.7125 0.49375
vt 0.63125 0.49375
vt 0.6 0.49375
vt 0.51875 0.49375
vt 0.51875 0.48124999999999996
vt 0.6 0.48124999999999996
vt 0.6 0.49375
vt 0.6 0.48124999999999996
vt 0.51875 0.48124999999999996
vt 0.51875 0.49375
vt 0.63125 0.48124999999999996
vt 0.63125 0.49375
vt 0.7125 0.49375
vt 0.7125 0.48124999999999996
vt 0.63125 0.48124999999999996
vt 0.7125 0.48124999999999996
vt 0.7125 0.49375
vt 0.63125 0.49375
vt 0.51875 0.48124999999999996
vt 0.51875 0.49375
vt 0.6 0.49375
vt 0.6 0.48124999999999996
vt 0.51875 0.48124999999999996
vt 0.6 0.48124999999999996
vt 0.6 0.49375
vt 0.51875 0.49375
vt 0.7125 0.49375
vt 0.63125 0.49375
vt 0.63125 0.48124999999999996
vt 0.7125 0.48124999999999996
vt 0.7125 0.49375
vt 0.7125 0.48124999999999996
vt 0.63125 0.48124999999999996
vt 0.63125 0.49375
vt 0.51875 0.48124999999999996
vt 0.51875 0.49375
vt 0.6 0.49375
vt 0.6 0.48124999999999996
vt 0.51875 0.48124999999999996
vt 0.6 0.48124999999999996
vt 0.6 0.49375
vt 0.51875 0.49375
vt 0.7125 0.49375
vt 0.63125 0.49375
vt 0.63125 0.48124999999999996
vt 0.7125 0.48124999999999996
vt 0.7125 0.49375
vt 0.7125 0.48124999999999996
vt 0.63125 0.48124999999999996
vt 0.63125 0.49375
vt 0.51875 0.48124999999999996
vt 0.51875 0.49375
vt 0.6 0.49375
vt 0.6 0.48124999999999996
vt 0.51875 0.48124999999999996
vt 0.6 0.48124999999999996
vt 0.6 0.49375
vt 0.51875 0.49375
vt 0.7125 0.49375
vt 0.63125 0.49375
vt 0.63125 0.48124999999999996
vt 0.7125 0.48124999999999996
vt 0.7125 0.49375
vt 0.7125 0.48124999999999996
vt 0.63125 0.48124999999999996
vt 0.63125 0.49375
vt 0.6 0.49375
vt 0.51875 0.49375
vt 0.51875 0.48124999999999996
vt 0.6 0.48124999999999996
vt 0.6 0.49375
vt 0.6 0.48124999999999996
vt 0.51875 0.48124999999999996
vt 0.51875 0.49375
vt 0.63125 0.48124999999999996
vt 0.63125 0.49375
vt 0.7125 0.49375
vt 0.7125 0.48124999999999996
vt 0.63125 0.48124999999999996
vt 0.7125 0.48124999999999996
vt 0.7125 0.49375
vt 0.63125 0.49375
vt 0.7 0.09999999999999998
vt 0.7 0.19999999999999996
vt 0.6 0.19999999999999996
vt 0.6 0.09999999999999998
vt 0.7 0.09999999999999998
vt 0.7 0.19999999999999996
vt 0.6 0.19999999999999996
vt 0.6 0.09999999999999998
vt 0.7 0.09999999999999998
vt 0.7 0.19999999999999996
vt 0.6 0.19999999999999996
vt 0.6 0.09999999999999998
vt 0.7 0.09999999999999998
vt 0.7 0.19999999999999996
vt 0.6 0.19999999999999996
vt 0.6 0.09999999999999998
vt 0.7 0.09999999999999998
vt 0.7 0.19999999999999996
vt 0.6 0.19999999999999996
vt 0.6 0.09999999999999998
vt 1 1
vt 0.8 1
vt 0.8 0.71875
vt 1 0.71875
vt 0.5 0.71875
vt 0.7 0.71875
vt 0.7 1
vt 0.5 1
vt 0 0.5
vt 0 0.21875
vt 0.5 0.21875
vt 0.5 0.5
vt 0 0.5
vt 0 0.21875
vt 0.5 0.21875
vt 0.5 0.5
vt 0.5 0.5
vt 0.5 0.7
vt 0 0.7
vt 0 0.5
vt 0.5 0.28125
vt 0.3 0.28125
vt 0.3 0
vt 0.5 0
vt 0.5 0
vt 0.5 0.28125
vt 0 0.28125
vt 0 0
vt 0.5 0.5
vt 0.7 0.5
vt 0.7 0.78125
vt 0.5 0.78125
vt 0.5 0
vt 0.5 0.28125
vt 0 0.28125
vt 0 0
vt 0.8 1
vt 0.7 1
vt 0.7 0.71875
vt 0.8 0.71875
vt 0.8 0.78125
vt 0.7 0.78125
vt 0.7 0.5
vt 0.8 0.5
vt 0.5 0.7
vt 0.5 0.8
vt 0 0.8
vt 0 0.7
vt 0.7 0.5
vt 0.8 0.5
vt 0.8 0.78125
vt 0.7 0.78125
vt 0.7 0.71875
vt 0.8 0.71875
vt 0.8 1
vt 0.7 1
vt 0.5 0.28125
vt 0.3 0.28125
vt 0.3 0
vt 0.5 0
vt 0 1
vt 0 0.8
vt 0.5 0.8
vt 0.5 1
vt 0.5 0.5
vt 0.7 0.5
vt 0.7 0.78125
vt 0.5 0.78125
vt 0.5 0.71875
vt 0.7 0.71875
vt 0.7 1
vt 0.5 1
vt 1 1
vt 0.8 1
vt 0.8 0.71875
vt 1 0.71875
vt 0.4 0.6
vt 0.5 0.5
vt 0 0.5
vt 0.1 0.6
vt 0.5 1
vt 0.5 0.5
vt 0.4 0.6
vt 0.4 0.9
vt 0 1
vt 0.5 1
vt 0.4 0.9
vt 0.1 0.9
vt 0 0.5
vt 0 1
vt 0.1 0.9
vt 0.1 0.6
vt 0.1 0.9
vt 0.4 0.9
vt 0.4 0.6
vt 0.1 0.6
vt 0.5 0
vt 0.5 0.06874999999999998
vt 0.8 0.06874999999999998
vt 0.8 0
vt 0.5 0
vt 0.5 0.06874999999999998
vt 0.8 0.06874999999999998
vt 0.8 0
vt 0.5 0
vt 0.5 0.06874999999999998
vt 0.8 0.06874999999999998
vt 0.8 0
vt 0.5 0
vt 0.5 0.06874999999999998
vt 0.8 0.06874999999999998
vt 0.8 0
vt 0.9 0.32499999999999996
vt 0.8 0.32499999999999996
vt 0.8 0.19999999999999996
vt 0.9 0.19999999999999996
vt 0.7 0.19999999999999996
vt 0.7 0.30000000000000004
vt 0.6 0.30000000000000004
vt 0.6 0.19999999999999996
vt 0.9 0.19999999999999996
vt 0.9 0.32499999999999996
vt 1 0.32499999999999996
vt 1 0.19999999999999996
vt 1 0.32499999999999996
vt 0.9 0.32499999999999996
vt 0.9 0.19999999999999996
vt 1 0.19999999999999996
vt 0.9 0.32499999999999996
vt 0.8 0.32499999999999996
vt 0.8 0.19999999999999996
vt 0.9 0.19999999999999996
vt 0.7 0.19999999999999996
vt 0.7 0.30000000000000004
vt 0.6 0.30000000000000004
vt 0.6 0.19999999999999996
vt 0.9 0.19999999999999996
vt 0.9 0.32499999999999996
vt 1 0.32499999999999996
vt 1 0.19999999999999996
vt 1 0.32499999999999996
vt 0.9 0.32499999999999996
vt 0.9 0.19999999999999996
vt 1 0.19999999999999996
vt 0.9 0.32499999999999996
vt 0.8 0.32499999999999996
vt 0.8 0.19999999999999996
vt 0.9 0.19999999999999996
vt 0.7 0.19999999999999996
vt 0.7 0.30000000000000004
vt 0.6 0.30000000000000004
vt 0.6 0.19999999999999996
vt 0.9 0.19999999999999996
vt 0.9 0.32499999999999996
vt 1 0.32499999999999996
vt 1 0.19999999999999996
vt 1 0.32499999999999996
vt 0.9 0.32499999999999996
vt 0.9 0.19999999999999996
vt 1 0.19999999999999996
vt 0.8 0.30000000000000004
vt 0.7 0.30000000000000004
vt 0.7 0.19999999999999996
vt 0.8 0.19999999999999996
vt 0.7 0.19999999999999996
vt 0.7 0.30000000000000004
vt 0.65 0.30000000000000004
vt 0.65 0.19999999999999996
vt 0.50625 0.36875
vt 0.50625 0.46875
vt 0.55625 0.46875
vt 0.55625 0.36875
vt 0.55625 0.46875
vt 0.50625 0.46875
vt 0.50625 0.36875
vt 0.55625 0.36875
vt 0.8 0.11250000000000004
vt 0.8 0.1875
vt 0.8125 0.1875
vt 0.8125 0.11250000000000004
vt 0.8125 0.1875
vt 0.825 0.1875
vt 0.825 0.11250000000000004
vt 0.8125 0.11250000000000004
vt 0.8125 0.11250000000000004
vt 0.8 0.11250000000000004
vt 0.8 0.1875
vt 0.8125 0.1875
vt 0.825 0.1875
vt 0.825 0.11250000000000004
vt 0.8125 0.11250000000000004
vt 0.8125 0.1875
vt 0.825 0.11250000000000004
vt 0.825 0.1875
vt 0.9 0.1875
vt 0.9 0.11250000000000004
vt 0.8 0.11250000000000004
vt 0.8 0.1875
vt 0.8125 0.1875
vt 0.8125 0.11250000000000004
vt 0.8125 0.1875
vt 0.825 0.1875
vt 0.825 0.11250000000000004
vt 0.8125 0.11250000000000004
vt 0.8125 0.11250000000000004
vt 0.8 0.11250000000000004
vt 0.8 0.1875
vt 0.8125 0.1875
vt 0.825 0.1875
vt 0.825 0.11250000000000004
vt 0.8125 0.11250000000000004
vt 0.8125 0.1875
vt 0.825 0.11250000000000004
vt 0.825 0.1875
vt 0.9 0.1875
vt 0.9 0.11250000000000004
vt 0.8 0.11250000000000004
vt 0.8 0.1875
vt 0.8125 0.1875
vt 0.8125 0.11250000000000004
vt 0.8125 0.1875
vt 0.825 0.1875
vt 0.825 0.11250000000000004
vt 0.8125 0.11250000000000004
vt 0.8125 0.11250000000000004
vt 0.8 0.11250000000000004
vt 0.8 0.1875
vt 0.8125 0.1875
vt 0.825 0.1875
vt 0.825 0.11250000000000004
vt 0.8125 0.11250000000000004
vt 0.8125 0.1875
vt 0.825 0.11250000000000004
vt 0.825 0.1875
vt 0.9 0.1875
vt 0.9 0.11250000000000004
vt 0.8 0.11250000000000004
vt 0.8 0.1875
vt 0.8125 0.1875
vt 0.8125 0.11250000000000004
vt 0.8125 0.1875
vt 0.825 0.1875
vt 0.825 0.11250000000000004
vt 0.8125 0.11250000000000004
vt 0.8125 0.11250000000000004
vt 0.8 0.11250000000000004
vt 0.8 0.1875
vt 0.8125 0.1875
vt 0.825 0.1875
vt 0.825 0.11250000000000004
vt 0.8125 0.11250000000000004
vt 0.8125 0.1875
vt 0.825 0.11250000000000004
vt 0.825 0.1875
vt 0.9 0.1875
vt 0.9 0.11250000000000004
vt 0.8 0.11250000000000004
vt 0.8 0.1875
vt 0.8125 0.1875
vt 0.8125 0.11250000000000004
vt 0.8125 0.1875
vt 0.825 0.1875
vt 0.825 0.11250000000000004
vt 0.8125 0.11250000000000004
vt 0.8125 0.11250000000000004
vt 0.8 0.11250000000000004
vt 0.8 0.1875
vt 0.8125 0.1875
vt 0.825 0.1875
vt 0.825 0.11250000000000004
vt 0.8125 0.11250000000000004
vt 0.8125 0.1875
vt 0.825 0.11250000000000004
vt 0.825 0.1875
vt 0.9 0.1875
vt 0.9 0.11250000000000004
vt 0.8125 0.1875
vt 0.8 0.1875
vt 0.8 0.11250000000000004
vt 0.8125 0.11250000000000004
vt 0.825 0.11250000000000004
vt 0.825 0.1875
vt 0.8125 0.1875
vt 0.8125 0.11250000000000004
vt 0.8 0.1875
vt 0.8 0.11250000000000004
vt 0.8125 0.11250000000000004
vt 0.8125 0.1875
vt 0.8125 0.11250000000000004
vt 0.825 0.11250000000000004
vt 0.825 0.1875
vt 0.8125 0.1875
vt 0.9 0.1875
vt 0.825 0.1875
vt 0.825 0.11250000000000004
vt 0.9 0.11250000000000004
vt 0.8125 0.1875
vt 0.8 0.1875
vt 0.8 0.11250000000000004
vt 0.8125 0.11250000000000004
vt 0.825 0.11250000000000004
vt 0.825 0.1875
vt 0.8125 0.1875
vt 0.8125 0.11250000000000004
vt 0.8 0.1875
vt 0.8 0.11250000000000004
vt 0.8125 0.11250000000000004
vt 0.8125 0.1875
vt 0.8125 0.11250000000000004
vt 0.825 0.11250000000000004
vt 0.825 0.1875
vt 0.8125 0.1875
vt 0.9 0.1875
vt 0.825 0.1875
vt 0.825 0.11250000000000004
vt 0.9 0.11250000000000004
vt 0.8 0.11250000000000004
vt 0.8 0.1875
vt 0.8125 0.1875
vt 0.8125 0.11250000000000004
vt 0.8125 0.1875
vt 0.825 0.1875
vt 0.825 0.11250000000000004
vt 0.8125 0.11250000000000004
vt 0.8125 0.11250000000000004
vt 0.8 0.11250000000000004
vt 0.8 0.1875
vt 0.8125 0.1875
vt 0.825 0.1875
vt 0.825 0.11250000000000004
vt 0.8125 0.11250000000000004
vt 0.8125 0.1875
vt 0.825 0.11250000000000004
vt 0.825 0.1875
vt 0.9 0.1875
vt 0.9 0.11250000000000004
vt 0.95 0.07499999999999996
vt 0.95 0.08750000000000002
vt 0.9 0.08750000000000002
vt 0.9 0.07499999999999996
vt 0.9 0.07499999999999996
vt 0.95 0.07499999999999996
vt 0.95 0.08750000000000002
vt 0.9 0.08750000000000002
vt 0.9 0.07499999999999996
vt 0.95 0.07499999999999996
vt 0.95 0.08750000000000002
vt 0.9 0.08750000000000002
vt 0.95 0.07499999999999996
vt 0.95 0.08750000000000002
vt 0.9 0.08750000000000002
vt 0.9 0.07499999999999996
vt 1 0.025000000000000022
vt 1 0.07499999999999996
vt 0.95 0.07499999999999996
vt 0.95 0.025000000000000022
vt 1 0.09999999999999998
vt 0.95 0.09999999999999998
vt 0.95 0
vt 1 0
vt 0.95 0
vt 1 0
vt 1 0.09999999999999998
vt 0.95 0.09999999999999998
vt 0.95 0
vt 1 0
vt 1 0.09999999999999998
vt 0.95 0.09999999999999998
vt 1 0.09999999999999998
vt 0.95 0.09999999999999998
vt 0.95 0
vt 1 0
vt 0.95 0.07499999999999996
vt 0.9 0.07499999999999996
vt 0.9 0.03749999999999998
vt 0.95 0.03749999999999998
vt 0.9 0.025000000000000022
vt 0.95 0.025000000000000022
vt 0.95 0.0625
vt 0.9 0.0625
vt 0.9 0.025000000000000022
vt 0.95 0.025000000000000022
vt 0.95 0.0625
vt 0.9 0.0625
vt 0.95 0.07499999999999996
vt 0.9 0.07499999999999996
vt 0.9 0.03749999999999998
vt 0.95 0.03749999999999998
vt 0.95 0.15000000000000002
vt 0.9 0.15000000000000002
vt 0.9 0.09999999999999998
vt 0.95 0.09999999999999998
vt 0.95 0.043749999999999956
vt 1 0.043749999999999956
vt 1 0.09375
vt 0.95 0.09375
vt 0.9 0.15000000000000002
vt 0.95 0.15000000000000002
vt 0.95 0.09999999999999998
vt 0.9 0.09999999999999998
vt 1 0.0625
vt 0.95 0.0625
vt 0.95 0.012499999999999956
vt 1 0.012499999999999956
vt 0.9 0.025000000000000022
vt 0.95 0.025000000000000022
vt 0.95 0.07499999999999996
vt 0.9 0.07499999999999996
vt 0.95 0.07499999999999996
vt 0.9 0.07499999999999996
vt 0.9 0.025000000000000022
vt 0.95 0.025000000000000022
vt 0.95625 0.07499999999999996
vt 0.90625 0.07499999999999996
vt 0.90625 0.025000000000000022
vt 0.95625 0.025000000000000022
vt 0.95 0.07499999999999996
vt 0.9 0.07499999999999996
vt 0.9 0.025000000000000022
vt 0.95 0.025000000000000022
vt 0.9 0.012499999999999956
vt 0.95 0.012499999999999956
vt 0.95 0.09375
vt 0.9 0.09375
vt 0.95 0.08750000000000002
vt 0.9 0.08750000000000002
vt 0.9 0.006249999999999978
vt 0.95 0.006249999999999978
vt 0.95 0.08750000000000002
vt 0.9 0.08750000000000002
vt 0.9 0.006249999999999978
vt 0.95 0.006249999999999978
vt 0.9 0.006249999999999978
vt 0.95 0.006249999999999978
vt 0.95 0.08750000000000002
vt 0.9 0.08750000000000002
vt 0.9 0.08750000000000002
vt 0.95 0.08750000000000002
vt 0.95 0.07499999999999996
vt 0.9 0.07499999999999996
vt 0.95 0.08750000000000002
vt 0.95 0.07499999999999996
vt 0.9 0.07499999999999996
vt 0.9 0.08750000000000002
vt 0.95 0.08750000000000002
vt 0.95 0.07499999999999996
vt 0.9 0.07499999999999996
vt 0.9 0.08750000000000002
vt 0.9 0.08750000000000002
vt 0.95 0.08750000000000002
vt 0.95 0.07499999999999996
vt 0.9 0.07499999999999996
vt 0.95 0.07499999999999996
vt 1 0.07499999999999996
vt 1 0.025000000000000022
vt 0.95 0.025000000000000022
vt 0.95 0
vt 0.95 0.09999999999999998
vt 1 0.09999999999999998
vt 1 0
vt 1 0.09999999999999998
vt 1 0
vt 0.95 0
vt 0.95 0.09999999999999998
vt 1 0.09999999999999998
vt 1 0
vt 0.95 0
vt 0.95 0.09999999999999998
vt 0.95 0
vt 0.95 0.09999999999999998
vt 1 0.09999999999999998
vt 1 0
vt 0.9 0.03749999999999998
vt 0.9 0.07499999999999996
vt 0.95 0.07499999999999996
vt 0.95 0.03749999999999998
vt 0.95 0.0625
vt 0.95 0.025000000000000022
vt 0.9 0.025000000000000022
vt 0.9 0.0625
vt 0.95 0.0625
vt 0.95 0.025000000000000022
vt 0.9 0.025000000000000022
vt 0.9 0.0625
vt 0.9 0.03749999999999998
vt 0.9 0.07499999999999996
vt 0.95 0.07499999999999996
vt 0.95 0.03749999999999998
vt 0.9 0.09999999999999998
vt 0.9 0.15000000000000002
vt 0.95 0.15000000000000002
vt 0.95 0.09999999999999998
vt 1 0.09375
vt 1 0.043749999999999956
vt 0.95 0.043749999999999956
vt 0.95 0.09375
vt 0.95 0.09999999999999998
vt 0.95 0.15000000000000002
vt 0.9 0.15000000000000002
vt 0.9 0.09999999999999998
vt 0.95 0.012499999999999956
vt 0.95 0.0625
vt 1 0.0625
vt 1 0.012499999999999956
vt 0.95 0.07499999999999996
vt 0.95 0.025000000000000022
vt 0.9 0.025000000000000022
vt 0.9 0.07499999999999996
vt 0.9 0.025000000000000022
vt 0.9 0.07499999999999996
vt 0.95 0.07499999999999996
vt 0.95 0.025000000000000022
vt 0.90625 0.025000000000000022
vt 0.90625 0.07499999999999996
vt 0.95625 0.07499999999999996
vt 0.95625 0.025000000000000022
vt 0.9 0.025000000000000022
vt 0.9 0.07499999999999996
vt 0.95 0.07499999999999996
vt 0.95 0.025000000000000022
vt 0.95 0.09375
vt 0.95 0.012499999999999956
vt 0.9 0.012499999999999956
vt 0.9 0.09375
vt 0.9 0.006249999999999978
vt 0.9 0.08750000000000002
vt 0.95 0.08750000000000002
vt 0.95 0.006249999999999978
vt 0.9 0.006249999999999978
vt 0.9 0.08750000000000002
vt 0.95 0.08750000000000002
vt 0.95 0.006249999999999978
vt 0.95 0.08750000000000002
vt 0.95 0.006249999999999978
vt 0.9 0.006249999999999978
vt 0.9 0.08750000000000002
vt 0.95 0.07499999999999996
vt 0.95 0.08750000000000002
vt 0.9 0.08750000000000002
vt 0.9 0.07499999999999996
vt 0.9 0.07499999999999996
vt 0.95 0.07499999999999996
vt 0.95 0.08750000000000002
vt 0.9 0.08750000000000002
vt 0.9 0.07499999999999996
vt 0.95 0.07499999999999996
vt 0.95 0.08750000000000002
vt 0.9 0.08750000000000002
vt 0.95 0.07499999999999996
vt 0.95 0.08750000000000002
vt 0.9 0.08750000000000002
vt 0.9 0.07499999999999996
vt 1 0.025000000000000022
vt 1 0.07499999999999996
vt 0.95 0.07499999999999996
vt 0.95 0.025000000000000022
vt 1 0.09999999999999998
vt 0.95 0.09999999999999998
vt 0.95 0
vt 1 0
vt 0.95 0
vt 1 0
vt 1 0.09999999999999998
vt 0.95 0.09999999999999998
vt 0.95 0
vt 1 0
vt 1 0.09999999999999998
vt 0.95 0.09999999999999998
vt 1 0.09999999999999998
vt 0.95 0.09999999999999998
vt 0.95 0
vt 1 0
vt 0.95 0.07499999999999996
vt 0.9 0.07499999999999996
vt 0.9 0.03749999999999998
vt 0.95 0.03749999999999998
vt 0.9 0.025000000000000022
vt 0.95 0.025000000000000022
vt 0.95 0.0625
vt 0.9 0.0625
vt 0.9 0.025000000000000022
vt 0.95 0.025000000000000022
vt 0.95 0.0625
vt 0.9 0.0625
vt 0.95 0.07499999999999996
vt 0.9 0.07499999999999996
vt 0.9 0.03749999999999998
vt 0.95 0.03749999999999998
vt 0.95 0.15000000000000002
vt 0.9 0.15000000000000002
vt 0.9 0.09999999999999998
vt 0.95 0.09999999999999998
vt 0.95 0.043749999999999956
vt 1 0.043749999999999956
vt 1 0.09375
vt 0.95 0.09375
vt 0.9 0.15000000000000002
vt 0.95 0.15000000000000002
vt 0.95 0.09999999999999998
vt 0.9 0.09999999999999998
vt 1 0.0625
vt 0.95 0.0625
vt 0.95 0.012499999999999956
vt 1 0.012499999999999956
vt 0.9 0.025000000000000022
vt 0.95 0.025000000000000022
vt 0.95 0.07499999999999996
vt 0.9 0.07499999999999996
vt 0.95 0.07499999999999996
vt 0.9 0.07499999999999996
vt 0.9 0.025000000000000022
vt 0.95 0.025000000000000022
vt 0.95625 0.07499999999999996
vt 0.90625 0.07499999999999996
vt 0.90625 0.025000000000000022
vt 0.95625 0.025000000000000022
vt 0.95 0.07499999999999996
vt 0.9 0.07499999999999996
vt 0.9 0.025000000000000022
vt 0.95 0.025000000000000022
vt 0.95 0.018750000000000044
vt 1 0.018750000000000044
vt 1 0.06874999999999998
vt 0.95 0.06874999999999998
vt 0.95 0.09999999999999998
vt 0.95 0.15000000000000002
vt 0.9 0.15000000000000002
vt 0.9 0.09999999999999998
vt 0.73125 0.25
vt 0.73125 0.19999999999999996
vt 0.78125 0.19999999999999996
vt 0.78125 0.25
vt 0.95 0.15000000000000002
vt 0.95 0.09999999999999998
vt 0.9 0.09999999999999998
vt 0.9 0.15000000000000002
vt 1 0.07499999999999996
vt 1 0.050000000000000044
vt 0.95 0.050000000000000044
vt 0.95 0.07499999999999996
vt 0.95 0.025000000000000022
vt 0.95 0.050000000000000044
vt 1 0.050000000000000044
vt 1 0.025000000000000022
vt 0.95 0.06874999999999998
vt 0.95 0.09375
vt 1 0.09375
vt 1 0.06874999999999998
vt 1 0.050000000000000044
vt 1 0.025000000000000022
vt 0.95 0.025000000000000022
vt 0.95 0.050000000000000044
vt 0.9 0.08750000000000002
vt 0.95 0.08750000000000002
vt 0.95 0.07499999999999996
vt 0.9 0.07499999999999996
vt 0.95 0.08750000000000002
vt 0.95 0.07499999999999996
vt 0.9 0.07499999999999996
vt 0.9 0.08750000000000002
vt 0.95 0.08750000000000002
vt 0.95 0.07499999999999996
vt 0.9 0.07499999999999996
vt 0.9 0.08750000000000002
vt 0.9 0.08750000000000002
vt 0.95 0.08750000000000002
vt 0.95 0.07499999999999996
vt 0.9 0.07499999999999996
vt 0.95 0.07499999999999996
vt 1 0.07499999999999996
vt 1 0.025000000000000022
vt 0.95 0.025000000000000022
vt 0.95 0
vt 0.95 0.09999999999999998
vt 1 0.09999999999999998
vt 1 0
vt 1 0.09999999999999998
vt 1 0
vt 0.95 0
vt 0.95 0.09999999999999998
vt 1 0.09999999999999998
vt 1 0
vt 0.95 0
vt 0.95 0.09999999999999998
vt 0.95 0
vt 0.95 0.09999999999999998
vt 1 0.09999999999999998
vt 1 0
vt 0.9 0.03749999999999998
vt 0.9 0.07499999999999996
vt 0.95 0.07499999999999996
vt 0.95 0.03749999999999998
vt 0.95 0.0625
vt 0.95 0.025000000000000022
vt 0.9 0.025000000000000022
vt 0.9 0.0625
vt 0.95 0.0625
vt 0.95 0.025000000000000022
vt 0.9 0.025000000000000022
vt 0.9 0.0625
vt 0.9 0.03749999999999998
vt 0.9 0.07499999999999996
vt 0.95 0.07499999999999996
vt 0.95 0.03749999999999998
vt 0.9 0.09999999999999998
vt 0.9 0.15000000000000002
vt 0.95 0.15000000000000002
vt 0.95 0.09999999999999998
vt 1 0.09375
vt 1 0.043749999999999956
vt 0.95 0.043749999999999956
vt 0.95 0.09375
vt 0.95 0.09999999999999998
vt 0.95 0.15000000000000002
vt 0.9 0.15000000000000002
vt 0.9 0.09999999999999998
vt 0.95 0.012499999999999956
vt 0.95 0.0625
vt 1 0.0625
vt 1 0.012499999999999956
vt 0.95 0.07499999999999996
vt 0.95 0.025000000000000022
vt 0.9 0.025000000000000022
vt 0.9 0.07499999999999996
vt 0.9 0.025000000000000022
vt 0.9 0.07499999999999996
vt 0.95 0.07499999999999996
vt 0.95 0.025000000000000022
vt 0.90625 0.025000000000000022
vt 0.90625 0.07499999999999996
vt 0.95625 0.07499999999999996
vt 0.95625 0.025000000000000022
vt 0.9 0.025000000000000022
vt 0.9 0.07499999999999996
vt 0.95 0.07499999999999996
vt 0.95 0.025000000000000022
vt 1 0.06874999999999998
vt 1 0.018750000000000044
vt 0.95 0.018750000000000044
vt 0.95 0.06874999999999998
vt 0.9 0.15000000000000002
vt 0.95 0.15000000000000002
vt 0.95 0.09999999999999998
vt 0.9 0.09999999999999998
vt 0.78125 0.19999999999999996
vt 0.73125 0.19999999999999996
vt 0.73125 0.25
vt 0.78125 0.25
vt 0.9 0.09999999999999998
vt 0.95 0.09999999999999998
vt 0.95 0.15000000000000002
vt 0.9 0.15000000000000002
vt 0.95 0.050000000000000044
vt 1 0.050000000000000044
vt 1 0.07499999999999996
vt 0.95 0.07499999999999996
vt 1 0.050000000000000044
vt 0.95 0.050000000000000044
vt 0.95 0.025000000000000022
vt 1 0.025000000000000022
vt 1 0.09375
vt 0.95 0.09375
vt 0.95 0.06874999999999998
vt 1 0.06874999999999998
vt 0.95 0.025000000000000022
vt 1 0.025000000000000022
vt 1 0.050000000000000044
vt 0.95 0.050000000000000044
vt 0.95 0.018750000000000044
vt 0.95 0.08125000000000004
vt 0.9 0.08125000000000004
vt 0.9 0.018750000000000044
vt 0.95 0.09375
vt 0.95 0.018750000000000044
vt 1 0.018750000000000044
vt 1 0.09375
vt 1 0
vt 1 0.09375
vt 0.95 0.09375
vt 0.95 0
vt 0.95 0.07499999999999996
vt 0.95 0
vt 1 0
vt 1 0.07499999999999996
vt 0.95 0.08125000000000004
vt 0.95 0.018750000000000044
vt 1 0.018750000000000044
vt 1 0.08125000000000004
vt 1 0
vt 1 0.07499999999999996
vt 0.95 0.07499999999999996
vt 0.95 0
vt 0.95 0.018750000000000044
vt 0.95 0.08125000000000004
vt 0.9 0.08125000000000004
vt 0.9 0.018750000000000044
vt 0.95 0.09375
vt 0.95 0.018750000000000044
vt 1 0.018750000000000044
vt 1 0.09375
vt 1 0
vt 1 0.09375
vt 0.95 0.09375
vt 0.95 0
vt 0.95 0.07499999999999996
vt 0.95 0
vt 1 0
vt 1 0.07499999999999996
vt 0.95 0.08125000000000004
vt 0.95 0.018750000000000044
vt 1 0.018750000000000044
vt 1 0.08125000000000004
vt 1 0
vt 1 0.07499999999999996
vt 0.95 0.07499999999999996
vt 0.95 0
vt 0.95 0.018750000000000044
vt 0.95 0.08125000000000004
vt 0.9 0.08125000000000004
vt 0.9 0.018750000000000044
vt 0.95 0.09375
vt 0.95 0.018750000000000044
vt 1 0.018750000000000044
vt 1 0.09375
vt 1 0
vt 1 0.09375
vt 0.95 0.09375
vt 0.95 0
vt 0.95 0.07499999999999996
vt 0.95 0
vt 1 0
vt 1 0.07499999999999996
vt 0.95 0.08125000000000004
vt 0.95 0.018750000000000044
vt 1 0.018750000000000044
vt 1 0.08125000000000004
vt 1 0
vt 1 0.07499999999999996
vt 0.95 0.07499999999999996
vt 0.95 0
vt 0.95 0.018750000000000044
vt 0.95 0.08125000000000004
vt 0.9 0.08125000000000004
vt 0.9 0.018750000000000044
vt 0.95 0.09375
vt 0.95 0.018750000000000044
vt 1 0.018750000000000044
vt 1 0.09375
vt 1 0
vt 1 0.09375
vt 0.95 0.09375
vt 0.95 0
vt 0.95 0.07499999999999996
vt 0.95 0
vt 1 0
vt 1 0.07499999999999996
vt 0.95 0.08125000000000004
vt 0.95 0.018750000000000044
vt 1 0.018750000000000044
vt 1 0.08125000000000004
vt 1 0
vt 1 0.07499999999999996
vt 0.95 0.07499999999999996
vt 0.95 0
vt 0.9 0.08750000000000002
vt 0.95 0.08750000000000002
vt 0.95 0.012499999999999956
vt 0.9 0.012499999999999956
vt 0.95 0.08750000000000002
vt 0.95 0.012499999999999956
vt 0.9 0.012499999999999956
vt 0.9 0.08750000000000002
vt 0.95 0.08750000000000002
vt 0.95 0.012499999999999956
vt 0.9 0.012499999999999956
vt 0.9 0.08750000000000002
vt 0.9 0.08750000000000002
vt 0.95 0.08750000000000002
vt 0.95 0.012499999999999956
vt 0.9 0.012499999999999956
vt 0.95 0.03125
vt 0.95 0.08125000000000004
vt 1 0.08125000000000004
vt 1 0.03125
vt 1 0.06874999999999998
vt 0.95 0.06874999999999998
vt 0.95 0.03125
vt 1 0.03125
vt 0.95 0.05625000000000002
vt 1 0.05625000000000002
vt 1 0.09375
vt 0.95 0.09375
vt 0.95 0.043749999999999956
vt 1 0.043749999999999956
vt 1 0.08125000000000004
vt 0.95 0.08125000000000004
vt 1 0.07499999999999996
vt 0.95 0.07499999999999996
vt 0.95 0.03749999999999998
vt 1 0.03749999999999998
vt 0.95 0.09999999999999998
vt 0.95 0.15000000000000002
vt 0.9 0.15000000000000002
vt 0.9 0.09999999999999998
vt 0.95 0.15000000000000002
vt 0.95 0.09999999999999998
vt 0.9 0.09999999999999998
vt 0.9 0.15000000000000002
vt 1 0.06874999999999998
vt 0.95 0.06874999999999998
vt 0.95 0.018750000000000044
vt 1 0.018750000000000044
vt 0.8 0.11250000000000004
vt 0.8 0.1875
vt 0.8125 0.1875
vt 0.8125 0.11250000000000004
vt 0.8125 0.1875
vt 0.825 0.1875
vt 0.825 0.11250000000000004
vt 0.8125 0.11250000000000004
vt 0.8125 0.11250000000000004
vt 0.8 0.11250000000000004
vt 0.8 0.1875
vt 0.8125 0.1875
vt 0.825 0.1875
vt 0.825 0.11250000000000004
vt 0.8125 0.11250000000000004
vt 0.8125 0.1875
vt 0.825 0.1875
vt 0.9 0.1875
vt 0.9 0.11250000000000004
vt 0.825 0.11250000000000004
vt 0.825 0.11250000000000004
vt 0.825 0.1875
vt 0.9 0.1875
vt 0.9 0.11250000000000004
vt 1 0
vt 1 0.0625
vt 0.95 0.0625
vt 0.95 0
vt 1 0
vt 1 0.0625
vt 0.95 0.0625
vt 0.95 0
vt 1 0
vt 1 0.0625
vt 0.95 0.0625
vt 0.95 0
vt 0.95 0.0625
vt 0.95 0
vt 1 0
vt 1 0.0625
vn 0 0.9161573349021893 0.40081883401970786
vn 0.40081883401970786 0.9161573349021893 0
vn 0 0.9161573349021893 -0.40081883401970786
vn -0.40081883401970786 0.9161573349021893 0
vn 0 1 0
vn 1 0 0
vn 0 0 -1
vn -1 0 0
vn 0 0 1
vn 0 0 -1
vn 0 0 -1
vn 0 0 -1
vn 1 0 0
vn 1 0 0
vn 1 0 0
vn 0 0 1
vn 0 0 1
vn 0 0 1
vn -1 0 0
vn -1 0 0
vn -1 0 0
vn 0 0 1
vn 1 0 0
vn 0 0 -1
vn -1 0 0
vn 0 1 0
vn 1 0 0
vn 0 -1 0
vn -1 0 0
vn 0 1 0
vn 1 0 0
vn -1 0 0
vn 0 0 -1
vn 1 0 0
vn 0 0 1
vn -1 0 0
vn 0 1 0
vn -1 0 0
vn 0 1 0
vn 1 0 0
vn 0 -1 0
vn 0 0 1
vn 0 0 -1
vn -1 0 0
vn 1 0 0
vn 0 1 0
vn 1 0 0
vn -1 0 0
vn 0 0 1
vn 0 0 -1
vn 0 -1 0
vn 0 1 0
vn 1 0 0
vn -1 0 0
vn 0 0 1
vn 0 0 -1
vn 0 -1 0
vn 0 1 0
vn -1 0 0
vn 1 0 0
vn 0 0 1
vn 0 0 -1
vn 0 -1 0
vn 0 1 0
vn -1 0 0
vn 1 0 0
vn 0 0 1
vn 0 0 -1
vn 0 -1 0
vn 0 1 0
vn -1 0 0
vn 1 0 0
vn 0 1 0
vn 0 -1 0
vn 0 0 1
vn 0 0 -1
vn 0 0 1
vn 0 0 -1
vn 0 1 0
vn 0 -1 0
vn 1 0 0
vn -1 0 0
vn 1 0 0
vn -1 0 0
vn 0 1 0
vn 0 -1 0
vn 0 0 1
vn 0 0 -1
vn 1 0 0
vn -1 0 0
vn 0 1 0
vn 0 -1 0
vn 0 0 1
vn 0 0 -1
vn -1 0 0
vn 1 0 0
vn 0 1 0
vn 0 -1 0
vn 0 0 1
vn 0 0 -1
vn 0 0 -1
vn 0 0 1
vn 0 1 0
vn 0 -1 0
vn 1 0 0
vn -1 0 0
vn 1 0 0
vn -1 0 0
vn 0 0 1
vn 0 0 -1
vn 1 0 0
vn -1 0 0
vn 0 -1 0
vn 0 1 0
vn 1 0 0
vn -1 0 0
vn 0 -1 0
vn 0 1 0
vn 1 0 0
vn -1 0 0
vn 0 -1 0
vn 0 1 0
vn 1 0 0
vn -1 0 0
vn 0 -1 0
vn 0 1 0
vn -1 0 0
vn 1 0 0
vn 0 -1 0
vn 0 1 0
vn -1 0 0
vn 1 0 0
vn 0 -1 0
vn 0 1 0
vn -1 0 0
vn 1 0 0
vn 0 -1 0
vn 0 1 0
vn -1 0 0
vn 1 0 0
vn 0 -1 0
vn 0 1 0
vn 1 0 0
vn -1 0 0
vn 0 0 1
vn 0 0 -1
vn -1 0 0
vn 1 0 0
vn 0 0 1
vn 0 0 -1
vn 1 0 0
vn -1 0 0
vn 0 0 -1
vn 0 0 1
vn 1 0 0
vn -1 0 0
vn 0 0 -1
vn 0 0 1
vn -1 0 0
vn 1 0 0
vn 0 0 1
vn 0 0 -1
vn -1 0 0
vn 1 0 0
vn 0 0 1
vn 0 0 -1
vn -1 0 0
vn 1 0 0
vn 0 0 1
vn 0 0 -1
vn -1 0 0
vn 1 0 0
vn 0 0 -1
vn 0 0 1
vn -1 0 0
vn 1 0 0
vn 0 0 -1
vn 0 0 1
vn -1 0 0
vn 1 0 0
vn 0 0 -1
vn 0 0 1
vn 1 0 0
vn -1 0 0
vn 0 0 -1
vn 0 0 1
vn 0 0 1
vn 0 0 1
vn 0 0 1
vn 0 0 1
vn 0 0 1
vn 1 0 0
vn -1 0 0
vn 0 0 1
vn 0 0 -1
vn 0 -1 0
vn 1 0 0
vn 0 0 1
vn -1 0 0
vn 0 0 -1
vn 1 0 0
vn 1 0 0
vn 0 -1 0
vn -1 0 0
vn -1 0 0
vn -1 0 0
vn 0 -1 0
vn 1 0 0
vn 1 0 0
vn -1 0 0
vn 0 -0.8715755371245493 0.49026123963255896
vn 0.49026123963255896 -0.8715755371245493 0
vn 0 -0.8715755371245493 -0.49026123963255896
vn -0.49026123963255896 -0.8715755371245493 0
vn 0 -1 0
vn 1 0 0
vn 0 0 -1
vn -1 0 0
vn 0 0 1
vn -1 0 0
vn 0 -1 0
vn 0 0 -1
vn 0 0 1
vn 0 0 -1
vn 0 -1 0
vn 1 0 0
vn -1 0 0
vn 1 0 0
vn 0 -1 0
vn 0 0 1
vn 0 0 -1
vn 0 0 1
vn 0 -1 0
vn -1 0 0
vn 1 0 0
vn -1 0 0
vn 1 0 0
vn 0 1 0
vn 0 -1 0
vn 0 0 -1
vn 1 0 0
vn -1 0 0
vn 0 1 0
vn 0 -1 0
vn 0 0 1
vn 1 0 0
vn -1 0 0
vn 0 1 0
vn 0 -1 0
vn 0 0 1
vn 1 0 0
vn -1 0 0
vn 0 1 0
vn 0 -1 0
vn 0 0 1
vn 1 0 0
vn -1 0 0
vn 0 1 0
vn 0 -1 0
vn 0 0 1
vn 1 0 0
vn -1 0 0
vn 0 1 0
vn 0 -1 0
vn 0 0 -1
vn 0 0 -1
vn 0 0 1
vn 0 1 0
vn 0 -1 0
vn -1 0 0
vn 0 0 -1
vn 0 0 1
vn 0 1 0
vn 0 -1 0
vn 1 0 0
vn 1 0 0
vn -1 0 0
vn 0 1 0
vn 0 -1 0
vn 0 0 -1
vn 0 1 0
vn 1 0 0
vn 0 -1 0
vn -1 0 0
vn 0 1 0
vn 1 0 0
vn 0 -1 0
vn -1 0 0
vn 0 1 0
vn 1 0 0
vn 0 -1 0
vn -1 0 0
vn 0 0 -1
vn 0 -1 0
vn 0 0 1
vn 0 1 0
vn 0 0 -1
vn 0 -1 0
vn 0 1 0
vn 0 0 1
vn -1 0 0
vn 1 0 0
vn 0 1 0
vn 0 -1 0
vn 0 0 -1
vn 0 1 0
vn -1 0 0
vn 0 -1 0
vn 1 0 0
vn 0 1 0
vn -1 0 0
vn 0 -1 0
vn 1 0 0
vn 0 1 0
vn -1 0 0
vn 0 -1 0
vn 1 0 0
vn 0 0 -1
vn 0 -1 0
vn 0 0 1
vn 0 1 0
vn 0 0 -1
vn 0 -1 0
vn 0 1 0
vn 0 0 1
vn -1 0 0
vn 1 0 0
vn 0 1 0
vn 0 -1 0
vn 0 0 1
vn 0 1 0
vn -1 0 0
vn 0 -1 0
vn 1 0 0
vn 0 1 0
vn -1 0 0
vn 0 -1 0
vn 1 0 0
vn 0 1 0
vn -1 0 0
vn 0 -1 0
vn 1 0 0
vn 0 0 1
vn 0 -1 0
vn 0 0 -1
vn 0 1 0
vn 0 0 1
vn 0 -1 0
vn 0 0 -1
vn 0 1 0
vn 0 -1 0
vn 1 0 0
vn 0 1 0
vn -1 0 0
vn 1 0 0
vn -1 0 0
vn 0 1 0
vn 0 -1 0
vn 0 0 1
vn 0 1 0
vn 1 0 0
vn 0 -1 0
vn -1 0 0
vn 0 1 0
vn 1 0 0
vn 0 -1 0
vn -1 0 0
vn 0 1 0
vn 1 0 0
vn 0 -1 0
vn -1 0 0
vn 0 0 1
vn 0 -1 0
vn 0 0 -1
vn 0 1 0
vn 0 0 1
vn 0 -1 0
vn 0 0 -1
vn 0 1 0
vn 0 -1 0
vn -1 0 0
vn 0 1 0
vn 1 0 0
vn 0 0 -1
vn 0 0 -1
vn 0 0 -1
vn 0 0 -1
vn 0 0 -1
vn 0 0 -1
vn 1 0 0
vn 1 0 0
vn 1 0 0
vn 1 0 0
vn 1 0 0
vn 1 0 0
vn 0 0 1
vn 0 0 1
vn 0 0 1
vn 0 0 1
vn 0 0 1
vn 0 0 1
vn -1 0 0
vn -1 0 0
vn -1 0 0
vn -1 0 0
vn -1 0 0
vn -1 0 0
vn 1 0 0
vn -1 0 0
vn 0 1 0
vn 0 -1 0
vn 0 0 1
vn 1 0 0
vn 0 1 0
vn -1 0 0
vn 0 -1 0
vn 1 0 0
vn -1 0 0
vn 0 -1 0
vn 1 0 0
vn -1 0 0
vn 0 1 0
vn 0 -1 0
vn 0 0 -1
vn 0 0 1
vn -1 0 0
vn 0 0 1
vn 1 0 0
vn 0 0 -1
usemtl m_ab799ebf-ae56-f156-d03b-3bae00f678a7
f 3/1/1 1/2/1 5/3/1 8/4/1
f 5/5/2 1/6/2 2/7/2 6/8/2
f 6/9/3 2/10/3 4/11/3 7/12/3
f 7/13/4 4/14/4 3/15/4 8/16/4
f 9/17/5 10/18/5 11/19/5 12/20/5
f 10/21/6 9/22/6 5/23/6 6/24/6
f 11/25/7 10/26/7 6/27/7 7/28/7
f 12/29/8 11/30/8 7/31/8 8/32/8
f 9/33/9 12/34/9 8/35/9 5/36/9
f 17/37/10 20/38/10 19/39/10 18/40/10
f 13/41/11 15/42/11 16/43/11 14/44/11
f 14/45/12 19/46/12 20/47/12 13/48/12
f 25/49/13 28/50/13 27/51/13 26/52/13
f 21/53/14 23/54/14 24/55/14 22/56/14
f 22/57/15 27/58/15 28/59/15 21/60/15
f 33/61/16 36/62/16 35/63/16 34/64/16
f 29/65/17 31/66/17 32/67/17 30/68/17
f 30/69/18 35/70/18 36/71/18 29/72/18
f 41/73/19 44/74/19 43/75/19 42/76/19
f 37/77/20 39/78/20 40/79/20 38/80/20
f 38/81/21 43/82/21 44/83/21 37/84/21
f 50/85/22 45/86/22 46/87/22 47/88/22
f 51/89/23 50/90/23 47/91/23 48/92/23
f 57/93/24 58/94/24 59/95/24 60/96/24
f 45/97/25 52/98/25 49/99/25 46/100/25
f 51/101/26 67/102/26 66/103/26 52/104/26
f 48/105/27 68/106/27 67/107/27 51/108/27
f 49/109/28 65/110/28 68/111/28 48/112/28
f 52/113/29 66/114/29 65/115/29 49/116/29
f 58/117/30 57/118/30 53/119/30 54/120/30
f 59/121/31 58/122/31 54/123/31 55/124/31
f 57/125/32 60/126/32 56/127/32 53/128/32
f 62/129/33 61/130/33 60/131/33 59/132/33
f 63/133/34 62/134/34 59/135/34 55/136/34
f 64/137/35 63/138/35 55/139/35 56/140/35
f 61/141/36 64/142/36 56/143/36 60/144/36
f 50/145/37 51/146/37 52/147/37 45/148/37
f 56/149/38 65/150/38 66/151/38 53/152/38
f 53/153/39 66/154/39 67/155/39 54/156/39
f 54/157/40 67/158/40 68/159/40 55/160/40
f 55/161/41 68/162/41 65/163/41 56/164/41
f 70/165/42 69/166/42 71/167/42 72/168/42
f 75/169/43 73/170/43 74/171/43 76/172/43
f 73/173/44 69/174/44 70/175/44 74/176/44
f 72/177/45 71/178/45 75/179/45 76/180/45
f 74/181/46 70/182/46 72/183/46 76/184/46
f 78/185/47 77/186/47 79/187/47 80/188/47
f 83/189/48 81/190/48 82/191/48 84/192/48
f 81/193/49 77/194/49 78/195/49 82/196/49
f 80/197/50 79/198/50 83/199/50 84/200/50
f 79/201/51 77/202/51 81/203/51 83/204/51
f 82/205/52 78/206/52 80/207/52 84/208/52
f 86/209/53 85/210/53 87/211/53 88/212/53
f 91/213/54 89/214/54 90/215/54 92/216/54
f 89/217/55 85/218/55 86/219/55 90/220/55
f 88/221/56 87/222/56 91/223/56 92/224/56
f 87/225/57 85/226/57 89/227/57 91/228/57
f 90/229/58 86/230/58 88/231/58 92/232/58
f 95/233/59 93/234/59 94/235/59 96/236/59
f 98/237/60 97/238/60 99/239/60 100/240/60
f 94/241/61 93/242/61 97/243/61 98/244/61
f 99/245/62 95/246/62 96/247/62 100/248/62
f 97/249/63 93/250/63 95/251/63 99/252/63
f 96/253/64 94/254/64 98/255/64 100/256/64
f 103/257/65 101/258/65 102/259/65 104/260/65
f 106/261/66 105/262/66 107/263/66 108/264/66
f 102/265/67 101/266/67 105/267/67 106/268/67
f 107/269/68 103/270/68 104/271/68 108/272/68
f 105/273/69 101/274/69 103/275/69 107/276/69
f 104/277/70 102/278/70 106/279/70 108/280/70
f 111/281/71 109/282/71 110/283/71 112/284/71
f 114/285/72 113/286/72 115/287/72 116/288/72
f 110/289/73 109/290/73 113/291/73 114/292/73
f 115/293/74 111/294/74 112/295/74 116/296/74
f 113/297/75 109/298/75 111/299/75 115/300/75
f 112/301/76 110/302/76 114/303/76 116/304/76
f 119/305/77 117/306/77 118/307/77 120/308/77
f 122/309/78 121/310/78 123/311/78 124/312/78
f 118/313/79 117/314/79 121/315/79 122/316/79
f 123/317/80 119/318/80 120/319/80 124/320/80
f 121/321/81 117/322/81 119/323/81 123/324/81
f 120/325/82 118/326/82 122/327/82 124/328/82
f 126/329/83 125/330/83 127/331/83 128/332/83
f 131/333/84 129/334/84 130/335/84 132/336/84
f 129/337/85 125/338/85 126/339/85 130/340/85
f 128/341/86 127/342/86 131/343/86 132/344/86
f 127/345/87 125/346/87 129/347/87 131/348/87
f 130/349/88 126/350/88 128/351/88 132/352/88
f 134/353/89 133/354/89 135/355/89 136/356/89
f 139/357/90 137/358/90 138/359/90 140/360/90
f 137/361/91 133/362/91 134/363/91 138/364/91
f 136/365/92 135/366/92 139/367/92 140/368/92
f 135/369/93 133/370/93 137/371/93 139/372/93
f 138/373/94 134/374/94 136/375/94 140/376/94
f 143/377/95 141/378/95 142/379/95 144/380/95
f 146/381/96 145/382/96 147/383/96 148/384/96
f 142/385/97 141/386/97 145/387/97 146/388/97
f 147/389/98 143/390/98 144/391/98 148/392/98
f 145/393/99 141/394/99 143/395/99 147/396/99
f 144/397/100 142/398/100 146/399/100 148/400/100
f 150/401/101 149/402/101 151/403/101 152/404/101
f 155/405/102 153/406/102 154/407/102 156/408/102
f 153/409/103 149/410/103 150/411/103 154/412/103
f 152/413/104 151/414/104 155/415/104 156/416/104
f 151/417/105 149/418/105 153/419/105 155/420/105
f 154/421/106 150/422/106 152/423/106 156/424/106
f 159/425/107 157/426/107 158/427/107 160/428/107
f 162/429/108 161/430/108 163/431/108 164/432/108
f 158/433/109 157/434/109 161/435/109 162/436/109
f 163/437/110 159/438/110 160/439/110 164/440/110
f 167/441/111 165/442/111 166/443/111 168/444/111
f 170/445/112 169/446/112 171/447/112 172/448/112
f 166/449/113 165/450/113 169/451/113 170/452/113
f 171/453/114 167/454/114 168/455/114 172/456/114
f 175/457/115 173/458/115 174/459/115 176/460/115
f 178/461/116 177/462/116 179/463/116 180/464/116
f 174/465/117 173/466/117 177/467/117 178/468/117
f 179/469/118 175/470/118 176/471/118 180/472/118
f 183/473/119 181/474/119 182/475/119 184/476/119
f 186/477/120 185/478/120 187/479/120 188/480/120
f 182/481/121 181/482/121 185/483/121 186/484/121
f 187/485/122 183/486/122 184/487/122 188/488/122
f 191/489/123 189/490/123 190/491/123 192/492/123
f 194/493/124 193/494/124 195/495/124 196/496/124
f 190/497/125 189/498/125 193/499/125 194/500/125
f 195/501/126 191/502/126 192/503/126 196/504/126
f 198/505/127 197/506/127 199/507/127 200/508/127
f 203/509/128 201/510/128 202/511/128 204/512/128
f 201/513/129 197/514/129 198/515/129 202/516/129
f 200/517/130 199/518/130 203/519/130 204/520/130
f 206/521/131 205/522/131 207/523/131 208/524/131
f 211/525/132 209/526/132 210/527/132 212/528/132
f 209/529/133 205/530/133 206/531/133 210/532/133
f 208/533/134 207/534/134 211/535/134 212/536/134
f 214/537/135 213/538/135 215/539/135 216/540/135
f 219/541/136 217/542/136 218/543/136 220/544/136
f 217/545/137 213/546/137 214/547/137 218/548/137
f 216/549/138 215/550/138 219/551/138 220/552/138
f 222/553/139 221/554/139 223/555/139 224/556/139
f 227/557/140 225/558/140 226/559/140 228/560/140
f 225/561/141 221/562/141 222/563/141 226/564/141
f 224/565/142 223/566/142 227/567/142 228/568/142
f 231/569/143 229/570/143 230/571/143 232/572/143
f 234/573/144 233/574/144 235/575/144 236/576/144
f 230/577/145 229/578/145 233/579/145 234/580/145
f 235/581/146 231/582/146 232/583/146 236/584/146
f 238/585/147 237/586/147 239/587/147 240/588/147
f 243/589/148 241/590/148 242/591/148 244/592/148
f 241/593/149 237/594/149 238/595/149 242/596/149
f 240/597/150 239/598/150 243/599/150 244/600/150
f 246/601/151 245/602/151 247/603/151 248/604/151
f 251/605/152 249/606/152 250/607/152 252/608/152
f 249/609/153 245/610/153 246/611/153 250/612/153
f 248/613/154 247/614/154 251/615/154 252/616/154
f 254/617/155 253/618/155 255/619/155 256/620/155
f 259/621/156 257/622/156 258/623/156 260/624/156
f 257/625/157 253/626/157 254/627/157 258/628/157
f 256/629/158 255/630/158 259/631/158 260/632/158
f 262/633/159 261/634/159 263/635/159 264/636/159
f 267/637/160 265/638/160 266/639/160 268/640/160
f 265/641/161 261/642/161 262/643/161 266/644/161
f 264/645/162 263/646/162 267/647/162 268/648/162
f 270/649/163 269/650/163 271/651/163 272/652/163
f 275/653/164 273/654/164 274/655/164 276/656/164
f 273/657/165 269/658/165 270/659/165 274/660/165
f 272/661/166 271/662/166 275/663/166 276/664/166
f 278/665/167 277/666/167 279/667/167 280/668/167
f 283/669/168 281/670/168 282/671/168 284/672/168
f 281/673/169 277/674/169 278/675/169 282/676/169
f 280/677/170 279/678/170 283/679/170 284/680/170
f 287/681/171 285/682/171 286/683/171 288/684/171
f 290/685/172 289/686/172 291/687/172 292/688/172
f 286/689/173 285/690/173 289/691/173 290/692/173
f 291/693/174 287/694/174 288/695/174 292/696/174
f 295/697/175 293/698/175 294/699/175 296/700/175
f 298/701/176 297/702/176 299/703/176 300/704/176
f 294/705/177 293/706/177 297/707/177 298/708/177
f 299/709/178 295/710/178 296/711/178 300/712/178
f 303/713/179 301/714/179 302/715/179 304/716/179
f 306/717/180 305/718/180 307/719/180 308/720/180
f 302/721/181 301/722/181 305/723/181 306/724/181
f 307/725/182 303/726/182 304/727/182 308/728/182
f 310/729/183 309/730/183 311/731/183 312/732/183
f 315/733/184 313/734/184 314/735/184 316/736/184
f 313/737/185 309/738/185 310/739/185 314/740/185
f 312/741/186 311/742/186 315/743/186 316/744/186
f 318/745/187 317/746/187 319/747/187 320/748/187
f 322/749/188 321/750/188 323/751/188 324/752/188
f 326/753/189 325/754/189 327/755/189 328/756/189
f 330/757/190 329/758/190 331/759/190 332/760/190
f 334/761/191 333/762/191 335/763/191 336/764/191
f 338/765/192 350/766/192 349/767/192 345/768/192
f 348/769/193 353/770/193 354/771/193 342/772/193
f 341/773/194 347/774/194 346/775/194 337/776/194
f 338/777/195 345/778/195 348/779/195 342/780/195
f 340/781/196 351/782/196 352/783/196 344/784/196
f 345/785/197 349/786/197 351/787/197 340/788/197
f 339/789/198 346/790/198 347/791/198 343/792/198
f 344/793/199 352/794/199 353/795/199 348/796/199
f 344/797/200 348/798/200 345/799/200 340/800/200
f 350/801/201 359/802/201 358/803/201 349/804/201
f 349/805/202 358/806/202 357/807/202 351/808/202
f 351/809/203 357/810/203 356/811/203 352/812/203
f 352/813/204 356/814/204 355/815/204 353/816/204
f 353/817/205 355/818/205 360/819/205 354/820/205
f 347/821/206 355/822/206 356/823/206 343/824/206
f 343/825/207 356/826/207 357/827/207 339/828/207
f 339/829/208 357/830/208 358/831/208 346/832/208
f 346/833/209 358/834/209 359/835/209 337/836/209
f 341/837/210 360/838/210 355/839/210 347/840/210
f 365/841/211 361/842/211 363/843/211 368/844/211
f 362/845/212 361/846/212 365/847/212 366/848/212
f 364/849/213 362/850/213 366/851/213 367/852/213
f 363/853/214 364/854/214 367/855/214 368/856/214
f 371/857/215 370/858/215 369/859/215 372/860/215
f 365/861/216 369/862/216 370/863/216 366/864/216
f 366/865/217 370/866/217 371/867/217 367/868/217
f 367/869/218 371/870/218 372/871/218 368/872/218
f 368/873/219 372/874/219 369/875/219 365/876/219
f 374/877/220 373/878/220 375/879/220 376/880/220
f 376/881/221 375/882/221 379/883/221 380/884/221
f 375/885/222 373/886/222 377/887/222 379/888/222
f 378/889/223 374/890/223 376/891/223 380/892/223
f 382/893/224 381/894/224 383/895/224 384/896/224
f 384/897/225 383/898/225 387/899/225 388/900/225
f 383/901/226 381/902/226 385/903/226 387/904/226
f 386/905/227 382/906/227 384/907/227 388/908/227
f 390/909/228 389/910/228 391/911/228 392/912/228
f 392/913/229 391/914/229 395/915/229 396/916/229
f 391/917/230 389/918/230 393/919/230 395/920/230
f 394/921/231 390/922/231 392/923/231 396/924/231
f 398/925/232 397/926/232 399/927/232 400/928/232
f 400/929/233 399/930/233 403/931/233 404/932/233
f 399/933/234 397/934/234 401/935/234 403/936/234
f 402/937/235 398/938/235 400/939/235 404/940/235
f 407/941/236 405/942/236 406/943/236 408/944/236
f 410/945/237 409/946/237 411/947/237 412/948/237
f 406/949/238 405/950/238 409/951/238 410/952/238
f 411/953/239 407/954/239 408/955/239 412/956/239
f 408/957/240 406/958/240 410/959/240 412/960/240
f 415/961/241 413/962/241 414/963/241 416/964/241
f 418/965/242 417/966/242 419/967/242 420/968/242
f 414/969/243 413/970/243 417/971/243 418/972/243
f 419/973/244 415/974/244 416/975/244 420/976/244
f 416/977/245 414/978/245 418/979/245 420/980/245
f 423/981/246 421/982/246 422/983/246 424/984/246
f 426/985/247 425/986/247 427/987/247 428/988/247
f 422/989/248 421/990/248 425/991/248 426/992/248
f 427/993/249 423/994/249 424/995/249 428/996/249
f 424/997/250 422/998/250 426/999/250 428/1000/250
f 431/1001/251 429/1002/251 430/1003/251 432/1004/251
f 434/1005/252 433/1006/252 435/1007/252 436/1008/252
f 430/1009/253 429/1010/253 433/1011/253 434/1012/253
f 435/1013/254 431/1014/254 432/1015/254 436/1016/254
f 432/1017/255 430/1018/255 434/1019/255 436/1020/255
f 439/1021/256 437/1022/256 438/1023/256 440/1024/256
f 442/1025/257 441/1026/257 443/1027/257 444/1028/257
f 438/1029/258 437/1030/258 441/1031/258 442/1032/258
f 443/1033/259 439/1034/259 440/1035/259 444/1036/259
f 440/1037/260 438/1038/260 442/1039/260 444/1040/260
f 446/1041/261 445/1042/261 447/1043/261 448/1044/261
f 451/1045/262 449/1046/262 450/1047/262 452/1048/262
f 449/1049/263 445/1050/263 446/1051/263 450/1052/263
f 448/1053/264 447/1054/264 451/1055/264 452/1056/264
f 450/1057/265 446/1058/265 448/1059/265 452/1060/265
f 454/1061/266 453/1062/266 455/1063/266 456/1064/266
f 459/1065/267 457/1066/267 458/1067/267 460/1068/267
f 457/1069/268 453/1070/268 454/1071/268 458/1072/268
f 456/1073/269 455/1074/269 459/1075/269 460/1076/269
f 458/1077/270 454/1078/270 456/1079/270 460/1080/270
f 463/1081/271 461/1082/271 462/1083/271 464/1084/271
f 466/1085/272 465/1086/272 467/1087/272 468/1088/272
f 462/1089/273 461/1090/273 465/1091/273 466/1092/273
f 467/1093/274 463/1094/274 464/1095/274 468/1096/274
f 464/1097/275 462/1098/275 466/1099/275 468/1100/275
f 470/1101/276 469/1102/276 471/1103/276 472/1104/276
f 475/1105/277 473/1106/277 474/1107/277 476/1108/277
f 473/1109/278 469/1110/278 470/1111/278 474/1112/278
f 472/1113/279 471/1114/279 475/1115/279 476/1116/279
f 487/1117/280 485/1118/280 486/1119/280 488/1120/280
f 477/1121/281 479/1122/281 474/1123/281 470/1124/281
f 478/1125/282 477/1126/282 470/1127/282 472/1128/282
f 480/1129/283 478/1130/283 472/1131/283 476/1132/283
f 479/1133/284 480/1134/284 476/1135/284 474/1136/284
f 481/1137/285 483/1138/285 479/1139/285 477/1140/285
f 482/1141/286 481/1142/286 477/1143/286 478/1144/286
f 484/1145/287 482/1146/287 478/1147/287 480/1148/287
f 483/1149/288 484/1150/288 480/1151/288 479/1152/288
f 485/1153/289 487/1154/289 483/1155/289 481/1156/289
f 486/1157/290 485/1158/290 481/1159/290 482/1160/290
f 488/1161/291 486/1162/291 482/1163/291 484/1164/291
f 493/1165/292 494/1166/292 495/1167/292 496/1168/292
f 490/1169/293 489/1170/293 487/1171/293 488/1172/293
f 491/1173/294 490/1174/294 488/1175/294 484/1176/294
f 492/1177/295 491/1178/295 484/1179/295 483/1180/295
f 489/1181/296 492/1182/296 483/1183/296 487/1184/296
f 494/1185/297 493/1186/297 489/1187/297 490/1188/297
f 495/1189/298 494/1190/298 490/1191/298 491/1192/298
f 493/1193/299 496/1194/299 492/1195/299 489/1196/299
f 491/1197/300 492/1198/300 496/1199/300 495/1200/300
f 499/1201/301 497/1202/301 498/1203/301 500/1204/301
f 502/1205/302 501/1206/302 503/1207/302 504/1208/302
f 498/1209/303 497/1210/303 501/1211/303 502/1212/303
f 503/1213/304 499/1214/304 500/1215/304 504/1216/304
f 514/1217/305 513/1218/305 515/1219/305 516/1220/305
f 502/1221/306 507/1222/306 505/1223/306 498/1224/306
f 498/1225/307 505/1226/307 506/1227/307 500/1228/307
f 500/1229/308 506/1230/308 508/1231/308 504/1232/308
f 504/1233/309 508/1234/309 507/1235/309 502/1236/309
f 507/1237/310 511/1238/310 509/1239/310 505/1240/310
f 505/1241/311 509/1242/311 510/1243/311 506/1244/311
f 506/1245/312 510/1246/312 512/1247/312 508/1248/312
f 508/1249/313 512/1250/313 511/1251/313 507/1252/313
f 511/1253/314 515/1254/314 513/1255/314 509/1256/314
f 509/1257/315 513/1258/315 514/1259/315 510/1260/315
f 510/1261/316 514/1262/316 516/1263/316 512/1264/316
f 523/1265/317 522/1266/317 521/1267/317 524/1268/317
f 515/1269/318 517/1270/318 518/1271/318 516/1272/318
f 516/1273/319 518/1274/319 519/1275/319 512/1276/319
f 512/1277/320 519/1278/320 520/1279/320 511/1280/320
f 511/1281/321 520/1282/321 517/1283/321 515/1284/321
f 517/1285/322 521/1286/322 522/1287/322 518/1288/322
f 518/1289/323 522/1290/323 523/1291/323 519/1292/323
f 520/1293/324 524/1294/324 521/1295/324 517/1296/324
f 524/1297/325 520/1298/325 519/1299/325 523/1300/325
f 526/1301/326 525/1302/326 527/1303/326 528/1304/326
f 531/1305/327 529/1306/327 530/1307/327 532/1308/327
f 529/1309/328 525/1310/328 526/1311/328 530/1312/328
f 528/1313/329 527/1314/329 531/1315/329 532/1316/329
f 543/1317/330 541/1318/330 542/1319/330 544/1320/330
f 533/1321/331 535/1322/331 530/1323/331 526/1324/331
f 534/1325/332 533/1326/332 526/1327/332 528/1328/332
f 536/1329/333 534/1330/333 528/1331/333 532/1332/333
f 535/1333/334 536/1334/334 532/1335/334 530/1336/334
f 537/1337/335 539/1338/335 535/1339/335 533/1340/335
f 538/1341/336 537/1342/336 533/1343/336 534/1344/336
f 540/1345/337 538/1346/337 534/1347/337 536/1348/337
f 539/1349/338 540/1350/338 536/1351/338 535/1352/338
f 541/1353/339 543/1354/339 539/1355/339 537/1356/339
f 542/1357/340 541/1358/340 537/1359/340 538/1360/340
f 544/1361/341 542/1362/341 538/1363/341 540/1364/341
f 549/1365/342 550/1366/342 551/1367/342 552/1368/342
f 546/1369/343 545/1370/343 543/1371/343 544/1372/343
f 547/1373/344 546/1374/344 544/1375/344 540/1376/344
f 548/1377/345 547/1378/345 540/1379/345 539/1380/345
f 545/1381/346 548/1382/346 539/1383/346 543/1384/346
f 550/1385/347 549/1386/347 545/1387/347 546/1388/347
f 551/1389/348 550/1390/348 546/1391/348 547/1392/348
f 554/1393/349 553/1394/349 555/1395/349 556/1396/349
f 549/1397/350 552/1398/350 548/1399/350 545/1400/350
f 547/1401/351 555/1402/351 553/1403/351 551/1404/351
f 551/1405/352 553/1406/352 554/1407/352 552/1408/352
f 552/1409/353 554/1410/353 556/1411/353 548/1412/353
f 548/1413/354 556/1414/354 555/1415/354 547/1416/354
f 559/1417/355 557/1418/355 558/1419/355 560/1420/355
f 562/1421/356 561/1422/356 563/1423/356 564/1424/356
f 558/1425/357 557/1426/357 561/1427/357 562/1428/357
f 563/1429/358 559/1430/358 560/1431/358 564/1432/358
f 574/1433/359 573/1434/359 575/1435/359 576/1436/359
f 562/1437/360 567/1438/360 565/1439/360 558/1440/360
f 558/1441/361 565/1442/361 566/1443/361 560/1444/361
f 560/1445/362 566/1446/362 568/1447/362 564/1448/362
f 564/1449/363 568/1450/363 567/1451/363 562/1452/363
f 567/1453/364 571/1454/364 569/1455/364 565/1456/364
f 565/1457/365 569/1458/365 570/1459/365 566/1460/365
f 566/1461/366 570/1462/366 572/1463/366 568/1464/366
f 568/1465/367 572/1466/367 571/1467/367 567/1468/367
f 571/1469/368 575/1470/368 573/1471/368 569/1472/368
f 569/1473/369 573/1474/369 574/1475/369 570/1476/369
f 570/1477/370 574/1478/370 576/1479/370 572/1480/370
f 583/1481/371 582/1482/371 581/1483/371 584/1484/371
f 575/1485/372 577/1486/372 578/1487/372 576/1488/372
f 576/1489/373 578/1490/373 579/1491/373 572/1492/373
f 572/1493/374 579/1494/374 580/1495/374 571/1496/374
f 571/1497/375 580/1498/375 577/1499/375 575/1500/375
f 577/1501/376 581/1502/376 582/1503/376 578/1504/376
f 578/1505/377 582/1506/377 583/1507/377 579/1508/377
f 587/1509/378 585/1510/378 586/1511/378 588/1512/378
f 580/1513/379 584/1514/379 581/1515/379 577/1516/379
f 585/1517/380 587/1518/380 579/1519/380 583/1520/380
f 586/1521/381 585/1522/381 583/1523/381 584/1524/381
f 588/1525/382 586/1526/382 584/1527/382 580/1528/382
f 587/1529/383 588/1530/383 580/1531/383 579/1532/383
f 591/1533/384 596/1534/384 595/1535/384 592/1536/384
f 592/1537/385 594/1538/385 593/1539/385 591/1540/385
f 590/1541/386 593/1542/386 594/1543/386 589/1544/386
f 601/1545/387 604/1546/387 603/1547/387 602/1548/387
f 597/1549/388 599/1550/388 600/1551/388 598/1552/388
f 598/1553/389 603/1554/389 604/1555/389 597/1556/389
f 607/1557/390 612/1558/390 611/1559/390 608/1560/390
f 608/1561/391 610/1562/391 609/1563/391 607/1564/391
f 606/1565/392 609/1566/392 610/1567/392 605/1568/392
f 617/1569/393 620/1570/393 619/1571/393 618/1572/393
f 613/1573/394 615/1574/394 616/1575/394 614/1576/394
f 614/1577/395 619/1578/395 620/1579/395 613/1580/395
f 623/1581/396 628/1582/396 627/1583/396 624/1584/396
f 624/1585/397 626/1586/397 625/1587/397 623/1588/397
f 622/1589/398 625/1590/398 626/1591/398 621/1592/398
f 633/1593/399 636/1594/399 635/1595/399 634/1596/399
f 629/1597/400 631/1598/400 632/1599/400 630/1600/400
f 630/1601/401 635/1602/401 636/1603/401 629/1604/401
f 639/1605/402 644/1606/402 643/1607/402 640/1608/402
f 640/1609/403 642/1610/403 641/1611/403 639/1612/403
f 638/1613/404 641/1614/404 642/1615/404 637/1616/404
f 649/1617/405 652/1618/405 651/1619/405 650/1620/405
f 645/1621/406 647/1622/406 648/1623/406 646/1624/406
f 646/1625/407 651/1626/407 652/1627/407 645/1628/407
f 655/1629/408 653/1630/408 654/1631/408 656/1632/408
f 658/1633/409 657/1634/409 659/1635/409 660/1636/409
f 654/1637/410 653/1638/410 657/1639/410 658/1640/410
f 659/1641/411 655/1642/411 656/1643/411 660/1644/411
f 665/1645/412 666/1646/412 667/1647/412 668/1648/412
f 662/1649/413 661/1650/413 656/1651/413 654/1652/413
f 663/1653/414 662/1654/414 654/1655/414 658/1656/414
f 664/1657/415 663/1658/415 658/1659/415 660/1660/415
f 661/1661/416 664/1662/416 660/1663/416 656/1664/416
f 666/1665/417 665/1666/417 661/1667/417 662/1668/417
f 668/1669/418 667/1670/418 663/1671/418 664/1672/418
f 665/1673/419 668/1674/419 664/1675/419 661/1676/419
f 671/1677/420 669/1678/420 670/1679/420 672/1680/420
f 674/1681/421 673/1682/421 675/1683/421 676/1684/421
f 670/1685/422 669/1686/422 673/1687/422 674/1688/422
f 675/1689/423 671/1690/423 672/1691/423 676/1692/423
f 673/1693/424 669/1694/424 671/1695/424 675/1696/424
f 672/1697/425 670/1698/425 674/1699/425 676/1700/425
f 650/1701/426 40/1702/426 39/1703/426 649/1704/426
f 634/1705/427 32/1706/427 31/1707/427 633/1708/427
f 618/1709/428 24/1710/428 23/1711/428 617/1712/428
f 15/1713/429 601/1714/429 602/1715/429 16/1716/429