# Made in Blockbench 5.1.4
mtllib steel_sheetmetal_tank.mtl

o cube
v 0 5.875 3
v 0 5.875 -2
v 5 5.875 3
v 5 5.875 -2
v 1 6.3125 2
v 1 6.3125 -1
v 4 6.3125 -1
v 4 6.3125 2
v 1 7 2
v 1 7 -1
v 4 7 -1
v 4 7 2
v 2.25 5.75 3.25
v 2.75 5.75 3.25
v 2.25 4.8125 3.25
v 2.75 4.8125 3.25
v 2.25 7.25 3.25
v 2.75 7.25 3.25
v 2.75 6.5 3.25
v 2.25 6.5 3.25
v 2.25 5.75 3.75
v 2.25 5.75 3.25
v 2.25 4.8125 3.75
v 2.25 4.8125 3.25
v 2.25 7.25 3.75
v 2.25 7.25 3.25
v 2.25 6.5 3.25
v 2.25 6.5 3.75
v 2.75 5.75 3.75
v 2.25 5.75 3.75
v 2.75 4.8125 3.75
v 2.25 4.8125 3.75
v 2.75 7.25 3.75
v 2.25 7.25 3.75
v 2.25 6.5 3.75
v 2.75 6.5 3.75
v 2.75 5.75 3.25
v 2.75 5.75 3.75
v 2.75 4.8125 3.25
v 2.75 4.8125 3.75
v 2.75 7.25 3.25
v 2.75 7.25 3.75
v 2.75 6.5 3.75
v 2.75 6.5 3.25
v 2.75 7.75 3.75
v 2.75 7.25 3.75
v 2.25 7.25 3.75
v 2.25 7.25 3.25
v 2.75 7.25 3.25
v 2.25 7.75 3.75
v 2.25 7.75 3.25
v 2.75 7.75 3.25
v 2.75 7.75 1.75
v 2.25 7.75 1.75
v 2.25 7.25 1.75
v 2.75 7.25 1.75
v 2.75 7.75 1.25
v 2.25 7.75 1.25
v 2.25 7.25 1.25
v 2.75 7.25 1.25
v 2.75 7 1.25
v 2.25 7 1.25
v 2.25 7 1.75
v 2.75 7 1.75
v 2.75 7.25 2.5
v 2.75 7.75 2.5
v 2.25 7.75 2.5
v 2.25 7.25 2.5
v 2.875 7 1.875
v 2.875 7.125 1.875
v 2.125 7 1.875
v 2.125 7.125 1.875
v 2.875 7 1.125
v 2.875 7.125 1.125
v 2.125 7 1.125
v 2.125 7.125 1.125
v 0 3.8125 4
v 0 6.8125 4
v 0 3.8125 3.875
v 0 6.8125 3.875
v 0.125 3.8125 4
v 0.125 6.8125 4
v 0.125 3.8125 3.875
v 0.125 6.8125 3.875
v 0 0.8125 4
v 0 3.8125 4
v 0 0.8125 3.875
v 0 3.8125 3.875
v 0.125 0.8125 4
v 0.125 3.8125 4
v 0.125 0.8125 3.875
v 0.125 3.8125 3.875
v 1 3.8125 4
v 1 6.8125 4
v 1 3.8125 3.875
v 1 6.8125 3.875
v 0.875 3.8125 4
v 0.875 6.8125 4
v 0.875 3.8125 3.875
v 0.875 6.8125 3.875
v 1 0.8125 4
v 1 3.8125 4
v 1 0.8125 3.875
v 1 3.8125 3.875
v 0.875 0.8125 4
v 0.875 3.8125 4
v 0.875 0.8125 3.875
v 0.875 3.8125 3.875
v 1 6.8125 3.875
v 1 6.8125 3
v 1 6.6875 3.875
v 1 6.6875 3
v 0.875 6.8125 3.875
v 0.875 6.8125 3
v 0.875 6.6875 3.875
v 0.875 6.6875 3
v 0.875 6.8125 3
v 4.875 6.8125 3
v 0.875 6.6875 3
v 4.875 6.6875 3
v 0.875 6.8125 2.875
v 4.875 6.8125 2.875
v 0.875 6.6875 2.875
v 4.875 6.6875 2.875
v 0 6.8125 3.875
v 0 6.8125 3
v 0 6.6875 3.875
v 0 6.6875 3
v 0.125 6.8125 3.875
v 0.125 6.8125 3
v 0.125 6.6875 3.875
v 0.125 6.6875 3
v 0 6.8125 3
v 0 6.8125 -2
v 0 6.6875 3
v 0 6.6875 -2
v 0.125 6.8125 3
v 0.125 6.8125 -2
v 0.125 6.6875 3
v 0.125 6.6875 -2
v 5 6.8125 3
v 5 6.8125 -2
v 5 6.6875 3
v 5 6.6875 -2
v 4.875 6.8125 3
v 4.875 6.8125 -2
v 4.875 6.6875 3
v 4.875 6.6875 -2
v 0.125 6.8125 -2
v 4.875 6.8125 -2
v 0.125 6.6875 -2
v 4.875 6.6875 -2
v 0.125 6.8125 -1.875
v 4.875 6.8125 -1.875
v 0.125 6.6875 -1.875
v 4.875 6.6875 -1.875
v 0 6.6875 3
v 0 5.875 3
v 0 6.6875 2.875
v 0 5.875 2.875
v 0.125 6.6875 3
v 0.125 5.875 3
v 0.125 6.6875 2.875
v 0.125 5.875 2.875
v 0 5.75 3.875
v 0 5.75 3
v 0 5.875 3.875
v 0 5.875 3
v 0.125 5.75 3.875
v 0.125 5.75 3
v 0.125 5.875 3.875
v 0.125 5.875 3
v 0 4.375 3.875
v 0 4.375 3
v 0 4.5 3.875
v 0 4.5 3
v 0.125 4.375 3.875
v 0.125 4.375 3
v 0.125 4.5 3.875
v 0.125 4.5 3
v 0 3.0625 3.875
v 0 3.0625 3
v 0 3.1875 3.875
v 0 3.1875 3
v 0.125 3.0625 3.875
v 0.125 3.0625 3
v 0.125 3.1875 3.875
v 0.125 3.1875 3
v 0 1.75 3.875
v 0 1.75 3
v 0 1.875 3.875
v 0 1.875 3
v 0.125 1.75 3.875
v 0.125 1.75 3
v 0.125 1.875 3.875
v 0.125 1.875 3
v 1 1.75 3.875
v 1 1.75 3
v 1 1.875 3.875
v 1 1.875 3
v 0.875 1.75 3.875
v 0.875 1.75 3
v 0.875 1.875 3.875
v 0.875 1.875 3
v 1 3.0625 3.875
v 1 3.0625 3
v 1 3.1875 3.875
v 1 3.1875 3
v 0.875 3.0625 3.875
v 0.875 3.0625 3
v 0.875 3.1875 3.875
v 0.875 3.1875 3
v 1 4.375 3.875
v 1 4.375 3
v 1 4.5 3.875
v 1 4.5 3
v 0.875 4.375 3.875
v 0.875 4.375 3
v 0.875 4.5 3.875
v 0.875 4.5 3
v 1 5.75 3.875
v 1 5.75 3
v 1 5.875 3.875
v 1 5.875 3
v 0.875 5.75 3.875
v 0.875 5.75 3
v 0.875 5.875 3.875
v 0.875 5.875 3
v 0 6.6875 1.375
v 0 5.875 1.375
v 0 6.6875 1.25
v 0 5.875 1.25
v 0.125 6.6875 1.375
v 0.125 5.875 1.375
v 0.125 6.6875 1.25
v 0.125 5.875 1.25
v 1 6.6875 3
v 1 5.875 3
v 1 6.6875 2.875
v 1 5.875 2.875
v 0.875 6.6875 3
v 0.875 5.875 3
v 0.875 6.6875 2.875
v 0.875 5.875 2.875
v 0 6.6875 -0.375
v 0 5.875 -0.375
v 0 6.6875 -0.25
v 0 5.875 -0.25
v 0.125 6.6875 -0.375
v 0.125 5.875 -0.375
v 0.125 6.6875 -0.25
v 0.125 5.875 -0.25
v 1.625 6.6875 -2
v 1.625 5.875 -2
v 1.625 6.6875 -1.875
v 1.625 5.875 -1.875
v 1.75 6.6875 -2
v 1.75 5.875 -2
v 1.75 6.6875 -1.875
v 1.75 5.875 -1.875
v 3.375 6.6875 3
v 3.375 5.875 3
v 3.375 6.6875 2.875
v 3.375 5.875 2.875
v 3.25 6.6875 3
v 3.25 5.875 3
v 3.25 6.6875 2.875
v 3.25 5.875 2.875
v 5 6.6875 3
v 5 5.875 3
v 5 6.6875 2.875
v 5 5.875 2.875
v 4.875 6.6875 3
v 4.875 5.875 3
v 4.875 6.6875 2.875
v 4.875 5.875 2.875
v 5 6.6875 1.375
v 5 5.875 1.375
v 5 6.6875 1.25
v 5 5.875 1.25
v 4.875 6.6875 1.375
v 4.875 5.875 1.375
v 4.875 6.6875 1.25
v 4.875 5.875 1.25
v 5 6.6875 -0.375
v 5 5.875 -0.375
v 5 6.6875 -0.25
v 5 5.875 -0.25
v 4.875 6.6875 -0.375
v 4.875 5.875 -0.375
v 4.875 6.6875 -0.25
v 4.875 5.875 -0.25
v 5 6.6875 -2
v 5 5.875 -2
v 5 6.6875 -1.875
v 5 5.875 -1.875
v 4.875 6.6875 -2
v 4.875 5.875 -2
v 4.875 6.6875 -1.875
v 4.875 5.875 -1.875
v 3.375 6.6875 -2
v 3.375 5.875 -2
v 3.375 6.6875 -1.875
v 3.375 5.875 -1.875
v 3.25 6.6875 -2
v 3.25 5.875 -2
v 3.25 6.6875 -1.875
v 3.25 5.875 -1.875
v 0 6.6875 -2
v 0 5.875 -2
v 0 6.6875 -1.875
v 0 5.875 -1.875
v 0.125 6.6875 -2
v 0.125 5.875 -2
v 0.125 6.6875 -1.875
v 0.125 5.875 -1.875
v 0 5.625 3.00390625
v 0 4.625 3.00390625
v 1 5.625 3.00390625
v 1 4.625 3.00390625
v 0 4.625 3.00390625
v 0 3.625 3.00390625
v 1 4.625 3.00390625
v 1 3.625 3.00390625
v 0 3.625 3.00390625
v 0 2.625 3.00390625
v 1 3.625 3.00390625
v 1 2.625 3.00390625
v 0 2.625 3.00390625
v 0 1.625 3.00390625
v 1 2.625 3.00390625
v 1 1.625 3.00390625
v 0 1.625 3.00390625
v 0 0.625 3.00390625
v 1 1.625 3.00390625
v 1 0.625 3.00390625
v 0 5.875 3
v 0 5.875 -2
v 0 0.25 3
v 0 0.25 -2
v 5 5.875 3
v 5 5.875 -2
v 5 0.25 3
v 5 0.25 -2
v 0 3.0625 -2
v 0 3.0625 3
v 5 3.0625 3
v 5 3.0625 -2
v 0 3.0625 0
v 0 5.875 0
v 0 0.25 0
v 5 0.25 0
v 5 3.0625 0
v 5 5.875 0
v 5 3.0625 1
v 5 0.25 1
v 0 0.25 1
v 0 3.0625 1
v 0 5.875 1
v 5 5.875 1
v 0 0.25 3
v 0 0.25 -2
v 5 0.25 3
v 5 0.25 -2
v 1 -0.3125 2
v 1 -0.3125 -1
v 4 -0.3125 -1
v 4 -0.3125 2
v 1 -1 2
v 1 -1 -1
v 4 -1 -1
v 4 -1 2
v 5 0.25 0
v 5 0.25 1
v 5 -1 0
v 5 -1 1
v 4 0.25 0
v 4 0.25 1
v 4 -1 0
v 4 -1 1
v 2 0.25 -2
v 3 0.25 -2
v 2 -1 -2
v 3 -1 -2
v 2 0.25 -1
v 3 0.25 -1
v 2 -1 -1
v 3 -1 -1
v 0 0.25 1
v 0 0.25 0
v 0 -1 1
v 0 -1 0
v 1 0.25 1
v 1 0.25 0
v 1 -1 1
v 1 -1 0
v 3 0 2.5
v 2 0 2.5
v 3 -1 2.5
v 2 -1 2.5
v 3 0 2
v 2 0 2
v 3 -1 2
v 2 -1 2
v 0.875 -0.125 0
v 0.875 -0.125 -0.125
v 0.875 -0.875 0
v 0.875 -0.875 -0.125
v 0.125 -0.125 0
v 0.125 -0.125 -0.125
v 0.125 -0.875 0
v 0.125 -0.875 -0.125
v 4.125 -0.125 1
v 4.125 -0.125 1.125
v 4.125 -0.875 1
v 4.125 -0.875 1.125
v 4.875 -0.125 1
v 4.875 -0.125 1.125
v 4.875 -0.875 1
v 4.875 -0.875 1.125
v 3.125 -0.125 2
v 3.125 -0.125 2.125
v 3.125 -0.875 2
v 3.125 -0.875 2.125
v 3.875 -0.125 2
v 3.875 -0.125 2.125
v 3.875 -0.875 2
v 3.875 -0.875 2.125
v 2.125 -0.125 2.5
v 2.125 -0.125 2.625
v 2.125 -0.875 2.5
v 2.125 -0.875 2.625
v 2.875 -0.125 2.5
v 2.875 -0.125 2.625
v 2.875 -0.875 2.5
v 2.875 -0.875 2.625
v 0.125 -0.125 1
v 0.125 -0.125 1.125
v 0.125 -0.875 1
v 0.125 -0.875 1.125
v 0.875 -0.125 1
v 0.875 -0.125 1.125
v 0.875 -0.875 1
v 0.875 -0.875 1.125
v 4.125 -0.125 0
v 4.125 -0.125 -0.125
v 4.125 -0.875 0
v 4.125 -0.875 -0.125
v 4.875 -0.125 0
v 4.875 -0.125 -0.125
v 4.875 -0.875 0
v 4.875 -0.875 -0.125
v 3 -0.125 -1.875
v 3.125 -0.125 -1.875
v 3 -0.875 -1.875
v 3.125 -0.875 -1.875
v 3 -0.125 -1.125
v 3.125 -0.125 -1.125
v 3 -0.875 -1.125
v 3.125 -0.875 -1.125
v 2 -0.125 -1.875
v 1.875 -0.125 -1.875
v 2 -0.875 -1.875
v 1.875 -0.875 -1.875
v 2 -0.125 -1.125
v 1.875 -0.125 -1.125
v 2 -0.875 -1.125
v 1.875 -0.875 -1.125
v 0.25 -0.25 0.25
v 0.25 -0.25 0.125
v 0.25 -0.75 0.25
v 0.25 -0.75 0.125
v 0.75 -0.25 0.25
v 0.75 -0.25 0.125
v 0.75 -0.75 0.25
v 0.75 -0.75 0.125
v 0.25 -0.25 -0.875
v 0.25 -0.75 -0.875
v 0.75 -0.25 -0.875
v 0.75 -0.75 -0.875
v 0.25 -0.25 -1.25
v 0.25 -0.75 -1.25
v 0.75 -0.25 -1.25
v 0.75 -0.75 -1.25
v 0.25 -0.25 -1.75
v 0.25 -0.75 -1.75
v 0.75 -0.25 -1.75
v 0.75 -0.75 -1.75
v 1.25 -0.25 -1.75
v 1.25 -0.75 -1.75
v 1.25 -0.75 -1.25
v 1.25 -0.25 -1.25
v 2.0625 -0.25 -1.75
v 2.0625 -0.75 -1.75
v 2.0625 -0.75 -1.25
v 2.0625 -0.25 -1.25
v 4.75 -0.25 0.25
v 4.75 -0.25 0.125
v 4.75 -0.75 0.25
v 4.75 -0.75 0.125
v 4.25 -0.25 0.25
v 4.25 -0.25 0.125
v 4.25 -0.75 0.25
v 4.25 -0.75 0.125
v 4.75 -0.25 -0.875
v 4.75 -0.75 -0.875
v 4.25 -0.25 -0.875
v 4.25 -0.75 -0.875
v 4.75 -0.25 -1.25
v 4.75 -0.75 -1.25
v 4.25 -0.25 -1.25
v 4.25 -0.75 -1.25
v 4.75 -0.25 -1.75
v 4.75 -0.75 -1.75
v 4.25 -0.25 -1.75
v 4.25 -0.75 -1.75
v 3.75 -0.25 -1.75
v 3.75 -0.75 -1.75
v 3.75 -0.75 -1.25
v 3.75 -0.25 -1.25
v 2.9375 -0.25 -1.75
v 2.9375 -0.75 -1.75
v 2.9375 -0.75 -1.25
v 2.9375 -0.25 -1.25
v 4.75 -0.25 0.75
v 4.75 -0.25 0.875
v 4.75 -0.75 0.75
v 4.75 -0.75 0.875
v 4.25 -0.25 0.75
v 4.25 -0.25 0.875
v 4.25 -0.75 0.75
v 4.25 -0.75 0.875
v 4.75 -0.25 1.875
v 4.75 -0.75 1.875
v 4.25 -0.25 1.875
v 4.25 -0.75 1.875
v 4.75 -0.25 2.25
v 4.75 -0.75 2.25
v 4.25 -0.25 2.25
v 4.25 -0.75 2.25
v 4.75 -0.25 2.75
v 4.75 -0.75 2.75
v 4.25 -0.25 2.75
v 4.25 -0.75 2.75
v 3.75 -0.25 2.75
v 3.75 -0.75 2.75
v 3.75 -0.75 2.25
v 3.75 -0.25 2.25
v 3.25 -0.25 2.75
v 3.25 -0.75 2.75
v 3.25 -0.75 2.25
v 3.25 -0.25 2.25
v 3.25 -0.75 2
v 3.25 -0.25 2
v 3.75 -0.75 2
v 3.75 -0.25 2
v 0.25 -0.25 0.75
v 0.25 -0.25 0.875
v 0.25 -0.75 0.75
v 0.25 -0.75 0.875
v 0.75 -0.25 0.75
v 0.75 -0.25 0.875
v 0.75 -0.75 0.75
v 0.75 -0.75 0.875
v 0.25 -0.25 1.875
v 0.25 -0.75 1.875
v 0.75 -0.25 1.875
v 0.75 -0.75 1.875
v 0.25 -0.25 2.25
v 0.25 -0.75 2.25
v 0.75 -0.25 2.25
v 0.75 -0.75 2.25
v 0.25 -0.25 2.75
v 0.25 -0.75 2.75
v 0.75 -0.25 2.75
v 0.75 -0.75 2.75
v 1.25 -0.25 2.75
v 1.25 -0.75 2.75
v 1.25 -0.75 2.25
v 1.25 -0.25 2.25
v 1.75 -0.25 2.75
v 1.75 -0.75 2.75
v 1.75 -0.75 2.25
v 1.75 -0.25 2.25
v 1.75 -0.75 2
v 1.75 -0.25 2
v 1.25 -0.75 2
v 1.25 -0.25 2
v 2.25 -0.25 3.25
v 2.75 -0.25 3.25
v 2.75 1.4375 3.25
v 2.25 1.4375 3.25
v 2.75 0.6875 3.25
v 2.25 0.6875 3.25
v 2.25 2.0625 3.25
v 2.75 2.0625 3.25
v 2.25 2.6875 3.25
v 2.75 2.6875 3.25
v 2.25 2.0625 3.25
v 2.75 2.0625 3.25
v 2.25 4.1875 3.25
v 2.75 4.1875 3.25
v 2.75 3.4375 3.25
v 2.25 3.4375 3.25
v 2.25 -0.25 3.75
v 2.25 -0.25 3.25
v 2.25 1.4375 3.25
v 2.25 1.4375 3.75
v 2.25 0.6875 3.25
v 2.25 0.6875 3.75
v 2.25 2.0625 3.75
v 2.25 2.0625 3.25
v 2.25 2.6875 3.75
v 2.25 2.6875 3.25
v 2.25 2.0625 3.75
v 2.25 2.0625 3.25
v 2.25 4.1875 3.75
v 2.25 4.1875 3.25
v 2.25 3.4375 3.25
v 2.25 3.4375 3.75
v 2.75 -0.25 3.75
v 2.25 -0.25 3.75
v 2.25 1.4375 3.75
v 2.75 1.4375 3.75
v 2.25 0.6875 3.75
v 2.75 0.6875 3.75
v 2.75 2.0625 3.75
v 2.25 2.0625 3.75
v 2.75 2.6875 3.75
v 2.25 2.6875 3.75
v 2.75 2.0625 3.75
v 2.25 2.0625 3.75
v 2.75 4.1875 3.75
v 2.25 4.1875 3.75
v 2.25 3.4375 3.75
v 2.75 3.4375 3.75
v 2.75 -0.25 3.25
v 2.75 -0.25 3.75
v 2.75 1.4375 3.75
v 2.75 1.4375 3.25
v 2.75 0.6875 3.75
v 2.75 0.6875 3.25
v 2.75 2.0625 3.25
v 2.75 2.0625 3.75
v 2.75 2.6875 3.25
v 2.75 2.6875 3.75
v 2.75 2.0625 3.25
v 2.75 2.0625 3.75
v 2.75 4.1875 3.25
v 2.75 4.1875 3.75
v 2.75 3.4375 3.75
v 2.75 3.4375 3.25
v 2.25 -0.25 2.125
v 2.25 -0.25 2.875
v 2.25 -0.75 2.125
v 2.25 -0.75 2.875
v 2.75 -0.25 2.125
v 2.75 -0.25 2.875
v 2.75 -0.75 2.125
v 2.75 -0.75 2.875
v 2.25 -0.75 3.25
v 2.25 -0.25 3.25
v 2.75 -0.25 3.25
v 2.75 -0.75 3.25
v 2.25 -0.75 3.75
v 2.25 -0.25 3.75
v 2.75 -0.25 3.75
v 2.75 -0.75 3.75
v 1.125 -0.125 2
v 1.125 -0.125 2.125
v 1.125 -0.875 2
v 1.125 -0.875 2.125
v 1.875 -0.125 2
v 1.875 -0.125 2.125
v 1.875 -0.875 2
v 1.875 -0.875 2.125
vt 0.4 0.6
vt 0.5 0.5
vt 0 0.5
vt 0.1 0.6
vt 0.5 1
vt 0.5 0.5
vt 0.4 0.6
vt 0.4 0.9
vt 0 1
vt 0.5 1
vt 0.4 0.9
vt 0.1 0.9
vt 0 0.5
vt 0 1
vt 0.1 0.9
vt 0.1 0.6
vt 0.1 0.9
vt 0.4 0.9
vt 0.4 0.6
vt 0.1 0.6
vt 0.5 0
vt 0.5 0.06874999999999998
vt 0.8 0.06874999999999998
vt 0.8 0
vt 0.5 0
vt 0.5 0.06874999999999998
vt 0.8 0.06874999999999998
vt 0.8 0
vt 0.5 0
vt 0.5 0.06874999999999998
vt 0.8 0.06874999999999998
vt 0.8 0
vt 0.5 0
vt 0.5 0.06874999999999998
vt 0.8 0.06874999999999998
vt 0.8 0
vt 1 0
vt 0.95 0
vt 0.95 0.07499999999999996
vt 1 0.07499999999999996
vt 0.95 0
vt 0.9 0
vt 0.9 0.09375
vt 0.95 0.09375
vt 0.95 0.07499999999999996
vt 1 0.07499999999999996
vt 1 0
vt 0.95 0
vt 1 0
vt 0.95 0
vt 0.95 0.07499999999999996
vt 1 0.07499999999999996
vt 0.95 0
vt 0.9 0
vt 0.9 0.09375
vt 0.95 0.09375
vt 0.95 0.07499999999999996
vt 1 0.07499999999999996
vt 1 0
vt 0.95 0
vt 1 0
vt 0.95 0
vt 0.95 0.07499999999999996
vt 1 0.07499999999999996
vt 0.95 0
vt 0.9 0
vt 0.9 0.09375
vt 0.95 0.09375
vt 0.95 0.07499999999999996
vt 1 0.07499999999999996
vt 1 0
vt 0.95 0
vt 1 0
vt 0.95 0
vt 0.95 0.07499999999999996
vt 1 0.07499999999999996
vt 0.95 0
vt 0.9 0
vt 0.9 0.09375
vt 0.95 0.09375
vt 0.95 0.07499999999999996
vt 1 0.07499999999999996
vt 1 0
vt 0.95 0
vt 0.95 0
vt 0.95 0.050000000000000044
vt 1 0.050000000000000044
vt 1 0
vt 0.95 0.09999999999999998
vt 0.95 0.15000000000000002
vt 0.9 0.15000000000000002
vt 0.9 0.09999999999999998
vt 0.95 0
vt 0.95 0.050000000000000044
vt 1 0.050000000000000044
vt 1 0
vt 0.9 0.09999999999999998
vt 0.9 0.15000000000000002
vt 0.95 0.15000000000000002
vt 0.95 0.09999999999999998
vt 0.9 0.07499999999999996
vt 0.95 0.07499999999999996
vt 0.95 0
vt 0.9 0
vt 0.95 0.07499999999999996
vt 0.9 0.07499999999999996
vt 0.9 0
vt 0.95 0
vt 0.95 0.07499999999999996
vt 0.9 0.07499999999999996
vt 0.9 0
vt 0.95 0
vt 0.9 0.07499999999999996
vt 0.95 0.07499999999999996
vt 0.95 0
vt 0.9 0
vt 0.95 0
vt 0.95 0.050000000000000044
vt 1 0.050000000000000044
vt 1 0
vt 0.9 0.15000000000000002
vt 0.95 0.15000000000000002
vt 0.95 0.09999999999999998
vt 0.9 0.09999999999999998
vt 0.9 0.09999999999999998
vt 0.95 0.09999999999999998
vt 0.95 0.15000000000000002
vt 0.9 0.15000000000000002
vt 1 0.025000000000000022
vt 1 0
vt 0.95 0
vt 0.95 0.025000000000000022
vt 1 0.09375
vt 1 0.06874999999999998
vt 0.95 0.06874999999999998
vt 0.95 0.09375
vt 1 0.025000000000000022
vt 1 0
vt 0.95 0
vt 0.95 0.025000000000000022
vt 1 0.025000000000000022
vt 1 0
vt 0.95 0
vt 0.95 0.025000000000000022
vt 0.95 0.050000000000000044
vt 1 0.050000000000000044
vt 1 0
vt 0.95 0
vt 1 0
vt 0.95 0
vt 0.95 0.07499999999999996
vt 1 0.07499999999999996
vt 1 0
vt 0.95 0
vt 0.95 0.07499999999999996
vt 1 0.07499999999999996
vt 0.95 0.07499999999999996
vt 1 0.07499999999999996
vt 1 0
vt 0.95 0
vt 0.95 0.07499999999999996
vt 1 0.07499999999999996
vt 1 0
vt 0.95 0
vt 0.8 0.11250000000000004
vt 0.8 0.1875
vt 0.8125 0.1875
vt 0.8125 0.11250000000000004
vt 0.8125 0.1875
vt 0.825 0.1875
vt 0.825 0.11250000000000004
vt 0.8125 0.11250000000000004
vt 0.8125 0.11250000000000004
vt 0.8 0.11250000000000004
vt 0.8 0.1875
vt 0.8125 0.1875
vt 0.825 0.1875
vt 0.825 0.11250000000000004
vt 0.8125 0.11250000000000004
vt 0.8125 0.1875
vt 0.825 0.11250000000000004
vt 0.825 0.1875
vt 0.9 0.1875
vt 0.9 0.11250000000000004
vt 0.5 0.48124999999999996
vt 0.5 0.49375
vt 0.8 0.49375
vt 0.8 0.48124999999999996
vt 0.5 0.48124999999999996
vt 0.8 0.48124999999999996
vt 0.8 0.49375
vt 0.5 0.49375
vt 0.8 0.49375
vt 0.5 0.49375
vt 0.5 0.48124999999999996
vt 0.8 0.48124999999999996
vt 0.8 0.49375
vt 0.8 0.48124999999999996
vt 0.5 0.48124999999999996
vt 0.5 0.49375
vt 0.53125 0.49375
vt 0.54375 0.49375
vt 0.54375 0.48124999999999996
vt 0.53125 0.48124999999999996
vt 0.53125 0.48124999999999996
vt 0.53125 0.49375
vt 0.54375 0.49375
vt 0.54375 0.48124999999999996
vt 0.5 0.48124999999999996
vt 0.5 0.49375
vt 0.8 0.49375
vt 0.8 0.48124999999999996
vt 0.5 0.48124999999999996
vt 0.8 0.48124999999999996
vt 0.8 0.49375
vt 0.5 0.49375
vt 0.8 0.49375
vt 0.5 0.49375
vt 0.5 0.48124999999999996
vt 0.8 0.48124999999999996
vt 0.8 0.49375
vt 0.8 0.48124999999999996
vt 0.5 0.48124999999999996
vt 0.5 0.49375
vt 0.53125 0.49375
vt 0.54375 0.49375
vt 0.54375 0.48124999999999996
vt 0.53125 0.48124999999999996
vt 0.53125 0.48124999999999996
vt 0.53125 0.49375
vt 0.54375 0.49375
vt 0.54375 0.48124999999999996
vt 0.8 0.49375
vt 0.5 0.49375
vt 0.5 0.48124999999999996
vt 0.8 0.48124999999999996
vt 0.8 0.49375
vt 0.8 0.48124999999999996
vt 0.5 0.48124999999999996
vt 0.5 0.49375
vt 0.5 0.48124999999999996
vt 0.5 0.49375
vt 0.8 0.49375
vt 0.8 0.48124999999999996
vt 0.5 0.48124999999999996
vt 0.8 0.48124999999999996
vt 0.8 0.49375
vt 0.5 0.49375
vt 0.54375 0.48124999999999996
vt 0.54375 0.49375
vt 0.53125 0.49375
vt 0.53125 0.48124999999999996
vt 0.54375 0.49375
vt 0.53125 0.49375
vt 0.53125 0.48124999999999996
vt 0.54375 0.48124999999999996
vt 0.8 0.49375
vt 0.5 0.49375
vt 0.5 0.48124999999999996
vt 0.8 0.48124999999999996
vt 0.8 0.49375
vt 0.8 0.48124999999999996
vt 0.5 0.48124999999999996
vt 0.5 0.49375
vt 0.5 0.48124999999999996
vt 0.5 0.49375
vt 0.8 0.49375
vt 0.8 0.48124999999999996
vt 0.5 0.48124999999999996
vt 0.8 0.48124999999999996
vt 0.8 0.49375
vt 0.5 0.49375
vt 0.54375 0.48124999999999996
vt 0.54375 0.49375
vt 0.53125 0.49375
vt 0.53125 0.48124999999999996
vt 0.54375 0.49375
vt 0.53125 0.49375
vt 0.53125 0.48124999999999996
vt 0.54375 0.48124999999999996
vt 0.7 0.49375
vt 0.7875 0.49375
vt 0.7875 0.48124999999999996
vt 0.7 0.48124999999999996
vt 0.7 0.48124999999999996
vt 0.7 0.49375
vt 0.7875 0.49375
vt 0.7875 0.48124999999999996
vt 0.7 0.48124999999999996
vt 0.7 0.49375
vt 0.7875 0.49375
vt 0.7875 0.48124999999999996
vt 0.7 0.49375
vt 0.7875 0.49375
vt 0.7875 0.48124999999999996
vt 0.7 0.48124999999999996
vt 0.54375 0.48124999999999996
vt 0.54375 0.49375
vt 0.53125 0.49375
vt 0.53125 0.48124999999999996
vt 0.54375 0.49375
vt 0.53125 0.49375
vt 0.53125 0.48124999999999996
vt 0.54375 0.48124999999999996
vt 0.9125 0.49375
vt 0.5125 0.49375
vt 0.5125 0.48124999999999996
vt 0.9125 0.48124999999999996
vt 0.9125 0.49375
vt 0.9125 0.48124999999999996
vt 0.5125 0.48124999999999996
vt 0.5125 0.49375
vt 0.5125 0.48124999999999996
vt 0.5125 0.49375
vt 0.9125 0.49375
vt 0.9125 0.48124999999999996
vt 0.5125 0.48124999999999996
vt 0.9125 0.48124999999999996
vt 0.9125 0.49375
vt 0.5125 0.49375
vt 0.54375 0.48124999999999996
vt 0.54375 0.49375
vt 0.53125 0.49375
vt 0.53125 0.48124999999999996
vt 0.54375 0.49375
vt 0.53125 0.49375
vt 0.53125 0.48124999999999996
vt 0.54375 0.48124999999999996
vt 0.7875 0.48124999999999996
vt 0.7875 0.49375
vt 0.7 0.49375
vt 0.7 0.48124999999999996
vt 0.7875 0.49375
vt 0.7 0.49375
vt 0.7 0.48124999999999996
vt 0.7875 0.48124999999999996
vt 0.7875 0.49375
vt 0.7 0.49375
vt 0.7 0.48124999999999996
vt 0.7875 0.48124999999999996
vt 0.7875 0.48124999999999996
vt 0.7875 0.49375
vt 0.7 0.49375
vt 0.7 0.48124999999999996
vt 0.53125 0.49375
vt 0.54375 0.49375
vt 0.54375 0.48124999999999996
vt 0.53125 0.48124999999999996
vt 0.53125 0.48124999999999996
vt 0.53125 0.49375
vt 0.54375 0.49375
vt 0.54375 0.48124999999999996
vt 0.5 0.48124999999999996
vt 0.5 0.49375
vt 1 0.49375
vt 1 0.48124999999999996
vt 0.5 0.48124999999999996
vt 1 0.48124999999999996
vt 1 0.49375
vt 0.5 0.49375
vt 1 0.49375
vt 0.5 0.49375
vt 0.5 0.48124999999999996
vt 1 0.48124999999999996
vt 1 0.49375
vt 1 0.48124999999999996
vt 0.5 0.48124999999999996
vt 0.5 0.49375
vt 0.53125 0.49375
vt 0.54375 0.49375
vt 0.54375 0.48124999999999996
vt 0.53125 0.48124999999999996
vt 0.53125 0.48124999999999996
vt 0.53125 0.49375
vt 0.54375 0.49375
vt 0.54375 0.48124999999999996
vt 1 0.49375
vt 0.5 0.49375
vt 0.5 0.48124999999999996
vt 1 0.48124999999999996
vt 1 0.49375
vt 1 0.48124999999999996
vt 0.5 0.48124999999999996
vt 0.5 0.49375
vt 0.5 0.48124999999999996
vt 0.5 0.49375
vt 1 0.49375
vt 1 0.48124999999999996
vt 0.5 0.48124999999999996
vt 1 0.48124999999999996
vt 1 0.49375
vt 0.5 0.49375
vt 0.54375 0.48124999999999996
vt 0.54375 0.49375
vt 0.53125 0.49375
vt 0.53125 0.48124999999999996
vt 0.54375 0.49375
vt 0.53125 0.49375
vt 0.53125 0.48124999999999996
vt 0.54375 0.48124999999999996
vt 0.5125 0.48124999999999996
vt 0.5125 0.49375
vt 0.9875 0.49375
vt 0.9875 0.48124999999999996
vt 0.5125 0.48124999999999996
vt 0.9875 0.48124999999999996
vt 0.9875 0.49375
vt 0.5125 0.49375
vt 0.9875 0.49375
vt 0.5125 0.49375
vt 0.5125 0.48124999999999996
vt 0.9875 0.48124999999999996
vt 0.9875 0.49375
vt 0.9875 0.48124999999999996
vt 0.5125 0.48124999999999996
vt 0.5125 0.49375
vt 0.53125 0.49375
vt 0.54375 0.49375
vt 0.54375 0.48124999999999996
vt 0.53125 0.48124999999999996
vt 0.53125 0.48124999999999996
vt 0.53125 0.49375
vt 0.54375 0.49375
vt 0.54375 0.48124999999999996
vt 0.6 0.49375
vt 0.51875 0.49375
vt 0.51875 0.48124999999999996
vt 0.6 0.48124999999999996
vt 0.6 0.49375
vt 0.6 0.48124999999999996
vt 0.51875 0.48124999999999996
vt 0.51875 0.49375
vt 0.63125 0.48124999999999996
vt 0.63125 0.49375
vt 0.7125 0.49375
vt 0.7125 0.48124999999999996
vt 0.63125 0.48124999999999996
vt 0.7125 0.48124999999999996
vt 0.7125 0.49375
vt 0.63125 0.49375
vt 0.51875 0.49375
vt 0.60625 0.49375
vt 0.60625 0.48124999999999996
vt 0.51875 0.48124999999999996
vt 0.51875 0.48124999999999996
vt 0.51875 0.49375
vt 0.60625 0.49375
vt 0.60625 0.48124999999999996
vt 0.71875 0.49375
vt 0.71875 0.48124999999999996
vt 0.63125 0.48124999999999996
vt 0.63125 0.49375
vt 0.71875 0.48124999999999996
vt 0.63125 0.48124999999999996
vt 0.63125 0.49375
vt 0.71875 0.49375
vt 0.51875 0.49375
vt 0.60625 0.49375
vt 0.60625 0.48124999999999996
vt 0.51875 0.48124999999999996
vt 0.51875 0.48124999999999996
vt 0.51875 0.49375
vt 0.60625 0.49375
vt 0.60625 0.48124999999999996
vt 0.71875 0.49375
vt 0.71875 0.48124999999999996
vt 0.63125 0.48124999999999996
vt 0.63125 0.49375
vt 0.71875 0.48124999999999996
vt 0.63125 0.48124999999999996
vt 0.63125 0.49375
vt 0.71875 0.49375
vt 0.51875 0.49375
vt 0.60625 0.49375
vt 0.60625 0.48124999999999996
vt 0.51875 0.48124999999999996
vt 0.51875 0.48124999999999996
vt 0.51875 0.49375
vt 0.60625 0.49375
vt 0.60625 0.48124999999999996
vt 0.71875 0.49375
vt 0.71875 0.48124999999999996
vt 0.63125 0.48124999999999996
vt 0.63125 0.49375
vt 0.71875 0.48124999999999996
vt 0.63125 0.48124999999999996
vt 0.63125 0.49375
vt 0.71875 0.49375
vt 0.51875 0.49375
vt 0.60625 0.49375
vt 0.60625 0.48124999999999996
vt 0.51875 0.48124999999999996
vt 0.51875 0.48124999999999996
vt 0.51875 0.49375
vt 0.60625 0.49375
vt 0.60625 0.48124999999999996
vt 0.71875 0.49375
vt 0.71875 0.48124999999999996
vt 0.63125 0.48124999999999996
vt 0.63125 0.49375
vt 0.71875 0.48124999999999996
vt 0.63125 0.48124999999999996
vt 0.63125 0.49375
vt 0.71875 0.49375
vt 0.60625 0.48124999999999996
vt 0.60625 0.49375
vt 0.51875 0.49375
vt 0.51875 0.48124999999999996
vt 0.60625 0.49375
vt 0.51875 0.49375
vt 0.51875 0.48124999999999996
vt 0.60625 0.48124999999999996
vt 0.63125 0.48124999999999996
vt 0.71875 0.48124999999999996
vt 0.71875 0.49375
vt 0.63125 0.49375
vt 0.63125 0.49375
vt 0.63125 0.48124999999999996
vt 0.71875 0.48124999999999996
vt 0.71875 0.49375
vt 0.60625 0.48124999999999996
vt 0.60625 0.49375
vt 0.51875 0.49375
vt 0.51875 0.48124999999999996
vt 0.60625 0.49375
vt 0.51875 0.49375
vt 0.51875 0.48124999999999996
vt 0.60625 0.48124999999999996
vt 0.63125 0.48124999999999996
vt 0.71875 0.48124999999999996
vt 0.71875 0.49375
vt 0.63125 0.49375
vt 0.63125 0.49375
vt 0.63125 0.48124999999999996
vt 0.71875 0.48124999999999996
vt 0.71875 0.49375
vt 0.60625 0.48124999999999996
vt 0.60625 0.49375
vt 0.51875 0.49375
vt 0.51875 0.48124999999999996
vt 0.60625 0.49375
vt 0.51875 0.49375
vt 0.51875 0.48124999999999996
vt 0.60625 0.48124999999999996
vt 0.63125 0.48124999999999996
vt 0.71875 0.48124999999999996
vt 0.71875 0.49375
vt 0.63125 0.49375
vt 0.63125 0.49375
vt 0.63125 0.48124999999999996
vt 0.71875 0.48124999999999996
vt 0.71875 0.49375
vt 0.60625 0.48124999999999996
vt 0.60625 0.49375
vt 0.51875 0.49375
vt 0.51875 0.48124999999999996
vt 0.60625 0.49375
vt 0.51875 0.49375
vt 0.51875 0.48124999999999996
vt 0.60625 0.48124999999999996
vt 0.63125 0.48124999999999996
vt 0.71875 0.48124999999999996
vt 0.71875 0.49375
vt 0.63125 0.49375
vt 0.63125 0.49375
vt 0.63125 0.48124999999999996
vt 0.71875 0.48124999999999996
vt 0.71875 0.49375
vt 0.6 0.49375
vt 0.51875 0.49375
vt 0.51875 0.48124999999999996
vt 0.6 0.48124999999999996
vt 0.6 0.49375
vt 0.6 0.48124999999999996
vt 0.51875 0.48124999999999996
vt 0.51875 0.49375
vt 0.63125 0.48124999999999996
vt 0.63125 0.49375
vt 0.7125 0.49375
vt 0.7125 0.48124999999999996
vt 0.63125 0.48124999999999996
vt 0.7125 0.48124999999999996
vt 0.7125 0.49375
vt 0.63125 0.49375
vt 0.51875 0.48124999999999996
vt 0.51875 0.49375
vt 0.6 0.49375
vt 0.6 0.48124999999999996
vt 0.51875 0.48124999999999996
vt 0.6 0.48124999999999996
vt 0.6 0.49375
vt 0.51875 0.49375
vt 0.7125 0.49375
vt 0.63125 0.49375
vt 0.63125 0.48124999999999996
vt 0.7125 0.48124999999999996
vt 0.7125 0.49375
vt 0.7125 0.48124999999999996
vt 0.63125 0.48124999999999996
vt 0.63125 0.49375
vt 0.51875 0.48124999999999996
vt 0.51875 0.49375
vt 0.6 0.49375
vt 0.6 0.48124999999999996
vt 0.51875 0.48124999999999996
vt 0.6 0.48124999999999996
vt 0.6 0.49375
vt 0.51875 0.49375
vt 0.7125 0.49375
vt 0.63125 0.49375
vt 0.63125 0.48124999999999996
vt 0.7125 0.48124999999999996
vt 0.7125 0.49375
vt 0.7125 0.48124999999999996
vt 0.63125 0.48124999999999996
vt 0.63125 0.49375
vt 0.51875 0.48124999999999996
vt 0.51875 0.49375
vt 0.6 0.49375
vt 0.6 0.48124999999999996
vt 0.51875 0.48124999999999996
vt 0.6 0.48124999999999996
vt 0.6 0.49375
vt 0.51875 0.49375
vt 0.7125 0.49375
vt 0.63125 0.49375
vt 0.63125 0.48124999999999996
vt 0.7125 0.48124999999999996
vt 0.7125 0.49375
vt 0.7125 0.48124999999999996
vt 0.63125 0.48124999999999996
vt 0.63125 0.49375
vt 0.51875 0.48124999999999996
vt 0.51875 0.49375
vt 0.6 0.49375
vt 0.6 0.48124999999999996
vt 0.51875 0.48124999999999996
vt 0.6 0.48124999999999996
vt 0.6 0.49375
vt 0.51875 0.49375
vt 0.7125 0.49375
vt 0.63125 0.49375
vt 0.63125 0.48124999999999996
vt 0.7125 0.48124999999999996
vt 0.7125 0.49375
vt 0.7125 0.48124999999999996
vt 0.63125 0.48124999999999996
vt 0.63125 0.49375
vt 0.51875 0.48124999999999996
vt 0.51875 0.49375
vt 0.6 0.49375
vt 0.6 0.48124999999999996
vt 0.51875 0.48124999999999996
vt 0.6 0.48124999999999996
vt 0.6 0.49375
vt 0.51875 0.49375
vt 0.7125 0.49375
vt 0.63125 0.49375
vt 0.63125 0.48124999999999996
vt 0.7125 0.48124999999999996
vt 0.7125 0.49375
vt 0.7125 0.48124999999999996
vt 0.63125 0.48124999999999996
vt 0.63125 0.49375
vt 0.51875 0.48124999999999996
vt 0.51875 0.49375
vt 0.6 0.49375
vt 0.6 0.48124999999999996
vt 0.51875 0.48124999999999996
vt 0.6 0.48124999999999996
vt 0.6 0.49375
vt 0.51875 0.49375
vt 0.7125 0.49375
vt 0.63125 0.49375
vt 0.63125 0.48124999999999996
vt 0.7125 0.48124999999999996
vt 0.7125 0.49375
vt 0.7125 0.48124999999999996
vt 0.63125 0.48124999999999996
vt 0.63125 0.49375
vt 0.6 0.49375
vt 0.51875 0.49375
vt 0.51875 0.48124999999999996
vt 0.6 0.48124999999999996
vt 0.6 0.49375
vt 0.6 0.48124999999999996
vt 0.51875 0.48124999999999996
vt 0.51875 0.49375
vt 0.63125 0.48124999999999996
vt 0.63125 0.49375
vt 0.7125 0.49375
vt 0.7125 0.48124999999999996
vt 0.63125 0.48124999999999996
vt 0.7125 0.48124999999999996
vt 0.7125 0.49375
vt 0.63125 0.49375
vt 0.6 0.49375
vt 0.51875 0.49375
vt 0.51875 0.48124999999999996
vt 0.6 0.48124999999999996
vt 0.6 0.49375
vt 0.6 0.48124999999999996
vt 0.51875 0.48124999999999996
vt 0.51875 0.49375
vt 0.63125 0.48124999999999996
vt 0.63125 0.49375
vt 0.7125 0.49375
vt 0.7125 0.48124999999999996
vt 0.63125 0.48124999999999996
vt 0.7125 0.48124999999999996
vt 0.7125 0.49375
vt 0.63125 0.49375
vt 0.6 0.49375
vt 0.51875 0.49375
vt 0.51875 0.48124999999999996
vt 0.6 0.48124999999999996
vt 0.6 0.49375
vt 0.6 0.48124999999999996
vt 0.51875 0.48124999999999996
vt 0.51875 0.49375
vt 0.63125 0.48124999999999996
vt 0.63125 0.49375
vt 0.7125 0.49375
vt 0.7125 0.48124999999999996
vt 0.63125 0.48124999999999996
vt 0.7125 0.48124999999999996
vt 0.7125 0.49375
vt 0.63125 0.49375
vt 0.51875 0.48124999999999996
vt 0.51875 0.49375
vt 0.6 0.49375
vt 0.6 0.48124999999999996
vt 0.51875 0.48124999999999996
vt 0.6 0.48124999999999996
vt 0.6 0.49375
vt 0.51875 0.49375
vt 0.7125 0.49375
vt 0.63125 0.49375
vt 0.63125 0.48124999999999996
vt 0.7125 0.48124999999999996
vt 0.7125 0.49375
vt 0.7125 0.48124999999999996
vt 0.63125 0.48124999999999996
vt 0.63125 0.49375
vt 0.6 0.19999999999999996
vt 0.7 0.19999999999999996
vt 0.7 0.09999999999999998
vt 0.6 0.09999999999999998
vt 0.6 0.19999999999999996
vt 0.7 0.19999999999999996
vt 0.7 0.09999999999999998
vt 0.6 0.09999999999999998
vt 0.6 0.19999999999999996
vt 0.7 0.19999999999999996
vt 0.7 0.09999999999999998
vt 0.6 0.09999999999999998
vt 0.6 0.19999999999999996
vt 0.7 0.19999999999999996
vt 0.7 0.09999999999999998
vt 0.6 0.09999999999999998
vt 0.6 0.19999999999999996
vt 0.7 0.19999999999999996
vt 0.7 0.09999999999999998
vt 0.6 0.09999999999999998
vt 0.8 0.71875
vt 0.8 1
vt 1 1
vt 1 0.71875
vt 0.7 1
vt 0.7 0.71875
vt 0.5 0.71875
vt 0.5 1
vt 0.5 0.21875
vt 0 0.21875
vt 0 0.5
vt 0.5 0.5
vt 0.5 0.21875
vt 0 0.21875
vt 0 0.5
vt 0.5 0.5
vt 0 0.7
vt 0.5 0.7
vt 0.5 0.5
vt 0 0.5
vt 0.3 0
vt 0.3 0.28125
vt 0.5 0.28125
vt 0.5 0
vt 0 0.28125
vt 0.5 0.28125
vt 0.5 0
vt 0 0
vt 0.7 0.78125
vt 0.7 0.5
vt 0.5 0.5
vt 0.5 0.78125
vt 0 0.28125
vt 0.5 0.28125
vt 0.5 0
vt 0 0
vt 0.7 0.71875
vt 0.7 1
vt 0.8 1
vt 0.8 0.71875
vt 0.7 0.5
vt 0.7 0.78125
vt 0.8 0.78125
vt 0.8 0.5
vt 0 0.8
vt 0.5 0.8
vt 0.5 0.7
vt 0 0.7
vt 0.8 0.78125
vt 0.8 0.5
vt 0.7 0.5
vt 0.7 0.78125
vt 0.8 1
vt 0.8 0.71875
vt 0.7 0.71875
vt 0.7 1
vt 0.3 0
vt 0.3 0.28125
vt 0.5 0.28125
vt 0.5 0
vt 0.5 0.8
vt 0 0.8
vt 0 1
vt 0.5 1
vt 0.7 0.78125
vt 0.7 0.5
vt 0.5 0.5
vt 0.5 0.78125
vt 0.7 1
vt 0.7 0.71875
vt 0.5 0.71875
vt 0.5 1
vt 0.8 0.71875
vt 0.8 1
vt 1 1
vt 1 0.71875
vt 0 0.5
vt 0.5 0.5
vt 0.4 0.6
vt 0.1 0.6
vt 0.4 0.6
vt 0.5 0.5
vt 0.5 1
vt 0.4 0.9
vt 0.4 0.9
vt 0.5 1
vt 0 1
vt 0.1 0.9
vt 0.1 0.9
vt 0 1
vt 0 0.5
vt 0.1 0.6
vt 0.4 0.6
vt 0.4 0.9
vt 0.1 0.9
vt 0.1 0.6
vt 0.8 0.06874999999999998
vt 0.5 0.06874999999999998
vt 0.5 0
vt 0.8 0
vt 0.8 0.06874999999999998
vt 0.5 0.06874999999999998
vt 0.5 0
vt 0.8 0
vt 0.8 0.06874999999999998
vt 0.5 0.06874999999999998
vt 0.5 0
vt 0.8 0
vt 0.8 0.06874999999999998
vt 0.5 0.06874999999999998
vt 0.5 0
vt 0.8 0
vt 0.8 0.19999999999999996
vt 0.8 0.32499999999999996
vt 0.9 0.32499999999999996
vt 0.9 0.19999999999999996
vt 0.6 0.30000000000000004
vt 0.7 0.30000000000000004
vt 0.7 0.19999999999999996
vt 0.6 0.19999999999999996
vt 1 0.32499999999999996
vt 0.9 0.32499999999999996
vt 0.9 0.19999999999999996
vt 1 0.19999999999999996
vt 0.9 0.19999999999999996
vt 0.9 0.32499999999999996
vt 1 0.32499999999999996
vt 1 0.19999999999999996
vt 0.8 0.19999999999999996
vt 0.8 0.32499999999999996
vt 0.9 0.32499999999999996
vt 0.9 0.19999999999999996
vt 0.6 0.30000000000000004
vt 0.7 0.30000000000000004
vt 0.7 0.19999999999999996
vt 0.6 0.19999999999999996
vt 1 0.32499999999999996
vt 0.9 0.32499999999999996
vt 0.9 0.19999999999999996
vt 1 0.19999999999999996
vt 0.9 0.19999999999999996
vt 0.9 0.32499999999999996
vt 1 0.32499999999999996
vt 1 0.19999999999999996
vt 0.8 0.19999999999999996
vt 0.8 0.32499999999999996
vt 0.9 0.32499999999999996
vt 0.9 0.19999999999999996
vt 0.6 0.30000000000000004
vt 0.7 0.30000000000000004
vt 0.7 0.19999999999999996
vt 0.6 0.19999999999999996
vt 1 0.32499999999999996
vt 0.9 0.32499999999999996
vt 0.9 0.19999999999999996
vt 1 0.19999999999999996
vt 0.9 0.19999999999999996
vt 0.9 0.32499999999999996
vt 1 0.32499999999999996
vt 1 0.19999999999999996
vt 0.7 0.19999999999999996
vt 0.7 0.30000000000000004
vt 0.8 0.30000000000000004
vt 0.8 0.19999999999999996
vt 0.65 0.30000000000000004
vt 0.7 0.30000000000000004
vt 0.7 0.19999999999999996
vt 0.65 0.19999999999999996
vt 0.55625 0.46875
vt 0.50625 0.46875
vt 0.50625 0.36875
vt 0.55625 0.36875
vt 0.50625 0.36875
vt 0.50625 0.46875
vt 0.55625 0.46875
vt 0.55625 0.36875
vt 0.8125 0.1875
vt 0.8 0.1875
vt 0.8 0.11250000000000004
vt 0.8125 0.11250000000000004
vt 0.825 0.11250000000000004
vt 0.825 0.1875
vt 0.8125 0.1875
vt 0.8125 0.11250000000000004
vt 0.8 0.1875
vt 0.8 0.11250000000000004
vt 0.8125 0.11250000000000004
vt 0.8125 0.1875
vt 0.8125 0.11250000000000004
vt 0.825 0.11250000000000004
vt 0.825 0.1875
vt 0.8125 0.1875
vt 0.9 0.1875
vt 0.825 0.1875
vt 0.825 0.11250000000000004
vt 0.9 0.11250000000000004
vt 0.8125 0.1875
vt 0.8 0.1875
vt 0.8 0.11250000000000004
vt 0.8125 0.11250000000000004
vt 0.825 0.11250000000000004
vt 0.825 0.1875
vt 0.8125 0.1875
vt 0.8125 0.11250000000000004
vt 0.8 0.1875
vt 0.8 0.11250000000000004
vt 0.8125 0.11250000000000004
vt 0.8125 0.1875
vt 0.8125 0.11250000000000004
vt 0.825 0.11250000000000004
vt 0.825 0.1875
vt 0.8125 0.1875
vt 0.9 0.1875
vt 0.825 0.1875
vt 0.825 0.11250000000000004
vt 0.9 0.11250000000000004
vt 0.8125 0.1875
vt 0.8 0.1875
vt 0.8 0.11250000000000004
vt 0.8125 0.11250000000000004
vt 0.825 0.11250000000000004
vt 0.825 0.1875
vt 0.8125 0.1875
vt 0.8125 0.11250000000000004
vt 0.8 0.1875
vt 0.8 0.11250000000000004
vt 0.8125 0.11250000000000004
vt 0.8125 0.1875
vt 0.8125 0.11250000000000004
vt 0.825 0.11250000000000004
vt 0.825 0.1875
vt 0.8125 0.1875
vt 0.9 0.1875
vt 0.825 0.1875
vt 0.825 0.11250000000000004
vt 0.9 0.11250000000000004
vt 0.8125 0.1875
vt 0.8 0.1875
vt 0.8 0.11250000000000004
vt 0.8125 0.11250000000000004
vt 0.825 0.11250000000000004
vt 0.825 0.1875
vt 0.8125 0.1875
vt 0.8125 0.11250000000000004
vt 0.8 0.1875
vt 0.8 0.11250000000000004
vt 0.8125 0.11250000000000004
vt 0.8125 0.1875
vt 0.8125 0.11250000000000004
vt 0.825 0.11250000000000004
vt 0.825 0.1875
vt 0.8125 0.1875
vt 0.9 0.1875
vt 0.825 0.1875
vt 0.825 0.11250000000000004
vt 0.9 0.11250000000000004
vt 0.8125 0.1875
vt 0.8 0.1875
vt 0.8 0.11250000000000004
vt 0.8125 0.11250000000000004
vt 0.825 0.11250000000000004
vt 0.825 0.1875
vt 0.8125 0.1875
vt 0.8125 0.11250000000000004
vt 0.8 0.1875
vt 0.8 0.11250000000000004
vt 0.8125 0.11250000000000004
vt 0.8125 0.1875
vt 0.8125 0.11250000000000004
vt 0.825 0.11250000000000004
vt 0.825 0.1875
vt 0.8125 0.1875
vt 0.9 0.1875
vt 0.825 0.1875
vt 0.825 0.11250000000000004
vt 0.9 0.11250000000000004
vt 0.8 0.11250000000000004
vt 0.8 0.1875
vt 0.8125 0.1875
vt 0.8125 0.11250000000000004
vt 0.8125 0.1875
vt 0.825 0.1875
vt 0.825 0.11250000000000004
vt 0.8125 0.11250000000000004
vt 0.8125 0.11250000000000004
vt 0.8 0.11250000000000004
vt 0.8 0.1875
vt 0.8125 0.1875
vt 0.825 0.1875
vt 0.825 0.11250000000000004
vt 0.8125 0.11250000000000004
vt 0.8125 0.1875
vt 0.825 0.11250000000000004
vt 0.825 0.1875
vt 0.9 0.1875
vt 0.9 0.11250000000000004
vt 0.8 0.11250000000000004
vt 0.8 0.1875
vt 0.8125 0.1875
vt 0.8125 0.11250000000000004
vt 0.8125 0.1875
vt 0.825 0.1875
vt 0.825 0.11250000000000004
vt 0.8125 0.11250000000000004
vt 0.8125 0.11250000000000004
vt 0.8 0.11250000000000004
vt 0.8 0.1875
vt 0.8125 0.1875
vt 0.825 0.1875
vt 0.825 0.11250000000000004
vt 0.8125 0.11250000000000004
vt 0.8125 0.1875
vt 0.825 0.11250000000000004
vt 0.825 0.1875
vt 0.9 0.1875
vt 0.9 0.11250000000000004
vt 0.8125 0.1875
vt 0.8 0.1875
vt 0.8 0.11250000000000004
vt 0.8125 0.11250000000000004
vt 0.825 0.11250000000000004
vt 0.825 0.1875
vt 0.8125 0.1875
vt 0.8125 0.11250000000000004
vt 0.8 0.1875
vt 0.8 0.11250000000000004
vt 0.8125 0.11250000000000004
vt 0.8125 0.1875
vt 0.8125 0.11250000000000004
vt 0.825 0.11250000000000004
vt 0.825 0.1875
vt 0.8125 0.1875
vt 0.9 0.1875
vt 0.825 0.1875
vt 0.825 0.11250000000000004
vt 0.9 0.11250000000000004
vt 0.9 0.08750000000000002
vt 0.95 0.08750000000000002
vt 0.95 0.07499999999999996
vt 0.9 0.07499999999999996
vt 0.95 0.08750000000000002
vt 0.95 0.07499999999999996
vt 0.9 0.07499999999999996
vt 0.9 0.08750000000000002
vt 0.95 0.08750000000000002
vt 0.95 0.07499999999999996
vt 0.9 0.07499999999999996
vt 0.9 0.08750000000000002
vt 0.9 0.08750000000000002
vt 0.95 0.08750000000000002
vt 0.95 0.07499999999999996
vt 0.9 0.07499999999999996
vt 0.95 0.07499999999999996
vt 1 0.07499999999999996
vt 1 0.025000000000000022
vt 0.95 0.025000000000000022
vt 0.95 0
vt 0.95 0.09999999999999998
vt 1 0.09999999999999998
vt 1 0
vt 1 0.09999999999999998
vt 1 0
vt 0.95 0
vt 0.95 0.09999999999999998
vt 1 0.09999999999999998
vt 1 0
vt 0.95 0
vt 0.95 0.09999999999999998
vt 0.95 0
vt 0.95 0.09999999999999998
vt 1 0.09999999999999998
vt 1 0
vt 0.9 0.03749999999999998
vt 0.9 0.07499999999999996
vt 0.95 0.07499999999999996
vt 0.95 0.03749999999999998
vt 0.95 0.0625
vt 0.95 0.025000000000000022
vt 0.9 0.025000000000000022
vt 0.9 0.0625
vt 0.95 0.0625
vt 0.95 0.025000000000000022
vt 0.9 0.025000000000000022
vt 0.9 0.0625
vt 0.9 0.03749999999999998
vt 0.9 0.07499999999999996
vt 0.95 0.07499999999999996
vt 0.95 0.03749999999999998
vt 0.9 0.09999999999999998
vt 0.9 0.15000000000000002
vt 0.95 0.15000000000000002
vt 0.95 0.09999999999999998
vt 1 0.09375
vt 1 0.043749999999999956
vt 0.95 0.043749999999999956
vt 0.95 0.09375
vt 0.95 0.09999999999999998
vt 0.95 0.15000000000000002
vt 0.9 0.15000000000000002
vt 0.9 0.09999999999999998
vt 0.95 0.012499999999999956
vt 0.95 0.0625
vt 1 0.0625
vt 1 0.012499999999999956
vt 0.95 0.07499999999999996
vt 0.95 0.025000000000000022
vt 0.9 0.025000000000000022
vt 0.9 0.07499999999999996
vt 0.9 0.025000000000000022
vt 0.9 0.07499999999999996
vt 0.95 0.07499999999999996
vt 0.95 0.025000000000000022
vt 0.90625 0.025000000000000022
vt 0.90625 0.07499999999999996
vt 0.95625 0.07499999999999996
vt 0.95625 0.025000000000000022
vt 0.9 0.025000000000000022
vt 0.9 0.07499999999999996
vt 0.95 0.07499999999999996
vt 0.95 0.025000000000000022
vt 0.95 0.09375
vt 0.95 0.012499999999999956
vt 0.9 0.012499999999999956
vt 0.9 0.09375
vt 0.9 0.006249999999999978
vt 0.9 0.08750000000000002
vt 0.95 0.08750000000000002
vt 0.95 0.006249999999999978
vt 0.9 0.006249999999999978
vt 0.9 0.08750000000000002
vt 0.95 0.08750000000000002
vt 0.95 0.006249999999999978
vt 0.95 0.08750000000000002
vt 0.95 0.006249999999999978
vt 0.9 0.006249999999999978
vt 0.9 0.08750000000000002
vt 0.95 0.07499999999999996
vt 0.95 0.08750000000000002
vt 0.9 0.08750000000000002
vt 0.9 0.07499999999999996
vt 0.9 0.07499999999999996
vt 0.95 0.07499999999999996
vt 0.95 0.08750000000000002
vt 0.9 0.08750000000000002
vt 0.9 0.07499999999999996
vt 0.95 0.07499999999999996
vt 0.95 0.08750000000000002
vt 0.9 0.08750000000000002
vt 0.95 0.07499999999999996
vt 0.95 0.08750000000000002
vt 0.9 0.08750000000000002
vt 0.9 0.07499999999999996
vt 1 0.025000000000000022
vt 1 0.07499999999999996
vt 0.95 0.07499999999999996
vt 0.95 0.025000000000000022
vt 1 0.09999999999999998
vt 0.95 0.09999999999999998
vt 0.95 0
vt 1 0
vt 0.95 0
vt 1 0
vt 1 0.09999999999999998
vt 0.95 0.09999999999999998
vt 0.95 0
vt 1 0
vt 1 0.09999999999999998
vt 0.95 0.09999999999999998
vt 1 0.09999999999999998
vt 0.95 0.09999999999999998
vt 0.95 0
vt 1 0
vt 0.95 0.07499999999999996
vt 0.9 0.07499999999999996
vt 0.9 0.03749999999999998
vt 0.95 0.03749999999999998
vt 0.9 0.025000000000000022
vt 0.95 0.025000000000000022
vt 0.95 0.0625
vt 0.9 0.0625
vt 0.9 0.025000000000000022
vt 0.95 0.025000000000000022
vt 0.95 0.0625
vt 0.9 0.0625
vt 0.95 0.07499999999999996
vt 0.9 0.07499999999999996
vt 0.9 0.03749999999999998
vt 0.95 0.03749999999999998
vt 0.95 0.15000000000000002
vt 0.9 0.15000000000000002
vt 0.9 0.09999999999999998
vt 0.95 0.09999999999999998
vt 0.95 0.043749999999999956
vt 1 0.043749999999999956
vt 1 0.09375
vt 0.95 0.09375
vt 0.9 0.15000000000000002
vt 0.95 0.15000000000000002
vt 0.95 0.09999999999999998
vt 0.9 0.09999999999999998
vt 1 0.0625
vt 0.95 0.0625
vt 0.95 0.012499999999999956
vt 1 0.012499999999999956
vt 0.9 0.025000000000000022
vt 0.95 0.025000000000000022
vt 0.95 0.07499999999999996
vt 0.9 0.07499999999999996
vt 0.95 0.07499999999999996
vt 0.9 0.07499999999999996
vt 0.9 0.025000000000000022
vt 0.95 0.025000000000000022
vt 0.95625 0.07499999999999996
vt 0.90625 0.07499999999999996
vt 0.90625 0.025000000000000022
vt 0.95625 0.025000000000000022
vt 0.95 0.07499999999999996
vt 0.9 0.07499999999999996
vt 0.9 0.025000000000000022
vt 0.95 0.025000000000000022
vt 0.9 0.012499999999999956
vt 0.95 0.012499999999999956
vt 0.95 0.09375
vt 0.9 0.09375
vt 0.95 0.08750000000000002
vt 0.9 0.08750000000000002
vt 0.9 0.006249999999999978
vt 0.95 0.006249999999999978
vt 0.95 0.08750000000000002
vt 0.9 0.08750000000000002
vt 0.9 0.006249999999999978
vt 0.95 0.006249999999999978
vt 0.9 0.006249999999999978
vt 0.95 0.006249999999999978
vt 0.95 0.08750000000000002
vt 0.9 0.08750000000000002
vt 0.9 0.08750000000000002
vt 0.95 0.08750000000000002
vt 0.95 0.07499999999999996
vt 0.9 0.07499999999999996
vt 0.95 0.08750000000000002
vt 0.95 0.07499999999999996
vt 0.9 0.07499999999999996
vt 0.9 0.08750000000000002
vt 0.95 0.08750000000000002
vt 0.95 0.07499999999999996
vt 0.9 0.07499999999999996
vt 0.9 0.08750000000000002
vt 0.9 0.08750000000000002
vt 0.95 0.08750000000000002
vt 0.95 0.07499999999999996
vt 0.9 0.07499999999999996
vt 0.95 0.07499999999999996
vt 1 0.07499999999999996
vt 1 0.025000000000000022
vt 0.95 0.025000000000000022
vt 0.95 0
vt 0.95 0.09999999999999998
vt 1 0.09999999999999998
vt 1 0
vt 1 0.09999999999999998
vt 1 0
vt 0.95 0
vt 0.95 0.09999999999999998
vt 1 0.09999999999999998
vt 1 0
vt 0.95 0
vt 0.95 0.09999999999999998
vt 0.95 0
vt 0.95 0.09999999999999998
vt 1 0.09999999999999998
vt 1 0
vt 0.9 0.03749999999999998
vt 0.9 0.07499999999999996
vt 0.95 0.07499999999999996
vt 0.95 0.03749999999999998
vt 0.95 0.0625
vt 0.95 0.025000000000000022
vt 0.9 0.025000000000000022
vt 0.9 0.0625
vt 0.95 0.0625
vt 0.95 0.025000000000000022
vt 0.9 0.025000000000000022
vt 0.9 0.0625
vt 0.9 0.03749999999999998
vt 0.9 0.07499999999999996
vt 0.95 0.07499999999999996
vt 0.95 0.03749999999999998
vt 0.9 0.09999999999999998
vt 0.9 0.15000000000000002
vt 0.95 0.15000000000000002
vt 0.95 0.09999999999999998
vt 1 0.09375
vt 1 0.043749999999999956
vt 0.95 0.043749999999999956
vt 0.95 0.09375
vt 0.95 0.09999999999999998
vt 0.95 0.15000000000000002
vt 0.9 0.15000000000000002
vt 0.9 0.09999999999999998
vt 0.95 0.012499999999999956
vt 0.95 0.0625
vt 1 0.0625
vt 1 0.012499999999999956
vt 0.95 0.07499999999999996
vt 0.95 0.025000000000000022
vt 0.9 0.025000000000000022
vt 0.9 0.07499999999999996
vt 0.9 0.025000000000000022
vt 0.9 0.07499999999999996
vt 0.95 0.07499999999999996
vt 0.95 0.025000000000000022
vt 0.90625 0.025000000000000022
vt 0.90625 0.07499999999999996
vt 0.95625 0.07499999999999996
vt 0.95625 0.025000000000000022
vt 0.9 0.025000000000000022
vt 0.9 0.07499999999999996
vt 0.95 0.07499999999999996
vt 0.95 0.025000000000000022
vt 1 0.06874999999999998
vt 1 0.018750000000000044
vt 0.95 0.018750000000000044
vt 0.95 0.06874999999999998
vt 0.9 0.15000000000000002
vt 0.95 0.15000000000000002
vt 0.95 0.09999999999999998
vt 0.9 0.09999999999999998
vt 0.78125 0.19999999999999996
vt 0.73125 0.19999999999999996
vt 0.73125 0.25
vt 0.78125 0.25
vt 0.9 0.09999999999999998
vt 0.95 0.09999999999999998
vt 0.95 0.15000000000000002
vt 0.9 0.15000000000000002
vt 0.95 0.050000000000000044
vt 1 0.050000000000000044
vt 1 0.07499999999999996
vt 0.95 0.07499999999999996
vt 1 0.050000000000000044
vt 0.95 0.050000000000000044
vt 0.95 0.025000000000000022
vt 1 0.025000000000000022
vt 1 0.09375
vt 0.95 0.09375
vt 0.95 0.06874999999999998
vt 1 0.06874999999999998
vt 0.95 0.025000000000000022
vt 1 0.025000000000000022
vt 1 0.050000000000000044
vt 0.95 0.050000000000000044
vt 0.95 0.07499999999999996
vt 0.95 0.08750000000000002
vt 0.9 0.08750000000000002
vt 0.9 0.07499999999999996
vt 0.9 0.07499999999999996
vt 0.95 0.07499999999999996
vt 0.95 0.08750000000000002
vt 0.9 0.08750000000000002
vt 0.9 0.07499999999999996
vt 0.95 0.07499999999999996
vt 0.95 0.08750000000000002
vt 0.9 0.08750000000000002
vt 0.95 0.07499999999999996
vt 0.95 0.08750000000000002
vt 0.9 0.08750000000000002
vt 0.9 0.07499999999999996
vt 1 0.025000000000000022
vt 1 0.07499999999999996
vt 0.95 0.07499999999999996
vt 0.95 0.025000000000000022
vt 1 0.09999999999999998
vt 0.95 0.09999999999999998
vt 0.95 0
vt 1 0
vt 0.95 0
vt 1 0
vt 1 0.09999999999999998
vt 0.95 0.09999999999999998
vt 0.95 0
vt 1 0
vt 1 0.09999999999999998
vt 0.95 0.09999999999999998
vt 1 0.09999999999999998
vt 0.95 0.09999999999999998
vt 0.95 0
vt 1 0
vt 0.95 0.07499999999999996
vt 0.9 0.07499999999999996
vt 0.9 0.03749999999999998
vt 0.95 0.03749999999999998
vt 0.9 0.025000000000000022
vt 0.95 0.025000000000000022
vt 0.95 0.0625
vt 0.9 0.0625
vt 0.9 0.025000000000000022
vt 0.95 0.025000000000000022
vt 0.95 0.0625
vt 0.9 0.0625
vt 0.95 0.07499999999999996
vt 0.9 0.07499999999999996
vt 0.9 0.03749999999999998
vt 0.95 0.03749999999999998
vt 0.95 0.15000000000000002
vt 0.9 0.15000000000000002
vt 0.9 0.09999999999999998
vt 0.95 0.09999999999999998
vt 0.95 0.043749999999999956
vt 1 0.043749999999999956
vt 1 0.09375
vt 0.95 0.09375
vt 0.9 0.15000000000000002
vt 0.95 0.15000000000000002
vt 0.95 0.09999999999999998
vt 0.9 0.09999999999999998
vt 1 0.0625
vt 0.95 0.0625
vt 0.95 0.012499999999999956
vt 1 0.012499999999999956
vt 0.9 0.025000000000000022
vt 0.95 0.025000000000000022
vt 0.95 0.07499999999999996
vt 0.9 0.07499999999999996
vt 0.95 0.07499999999999996
vt 0.9 0.07499999999999996
vt 0.9 0.025000000000000022
vt 0.95 0.025000000000000022
vt 0.95625 0.07499999999999996
vt 0.90625 0.07499999999999996
vt 0.90625 0.025000000000000022
vt 0.95625 0.025000000000000022
vt 0.95 0.07499999999999996
vt 0.9 0.07499999999999996
vt 0.9 0.025000000000000022
vt 0.95 0.025000000000000022
vt 0.95 0.018750000000000044
vt 1 0.018750000000000044
vt 1 0.06874999999999998
vt 0.95 0.06874999999999998
vt 0.95 0.09999999999999998
vt 0.95 0.15000000000000002
vt 0.9 0.15000000000000002
vt 0.9 0.09999999999999998
vt 0.73125 0.25
vt 0.73125 0.19999999999999996
vt 0.78125 0.19999999999999996
vt 0.78125 0.25
vt 0.95 0.15000000000000002
vt 0.95 0.09999999999999998
vt 0.9 0.09999999999999998
vt 0.9 0.15000000000000002
vt 1 0.07499999999999996
vt 1 0.050000000000000044
vt 0.95 0.050000000000000044
vt 0.95 0.07499999999999996
vt 0.95 0.025000000000000022
vt 0.95 0.050000000000000044
vt 1 0.050000000000000044
vt 1 0.025000000000000022
vt 0.95 0.06874999999999998
vt 0.95 0.09375
vt 1 0.09375
vt 1 0.06874999999999998
vt 1 0.050000000000000044
vt 1 0.025000000000000022
vt 0.95 0.025000000000000022
vt 0.95 0.050000000000000044
vt 0.9 0.08125000000000004
vt 0.95 0.08125000000000004
vt 0.95 0.018750000000000044
vt 0.9 0.018750000000000044
vt 1 0.018750000000000044
vt 0.95 0.018750000000000044
vt 0.95 0.09375
vt 1 0.09375
vt 0.95 0.09375
vt 1 0.09375
vt 1 0
vt 0.95 0
vt 1 0
vt 0.95 0
vt 0.95 0.07499999999999996
vt 1 0.07499999999999996
vt 1 0.018750000000000044
vt 0.95 0.018750000000000044
vt 0.95 0.08125000000000004
vt 1 0.08125000000000004
vt 0.95 0.07499999999999996
vt 1 0.07499999999999996
vt 1 0
vt 0.95 0
vt 0.9 0.08125000000000004
vt 0.95 0.08125000000000004
vt 0.95 0.018750000000000044
vt 0.9 0.018750000000000044
vt 1 0.018750000000000044
vt 0.95 0.018750000000000044
vt 0.95 0.09375
vt 1 0.09375
vt 0.95 0.09375
vt 1 0.09375
vt 1 0
vt 0.95 0
vt 1 0
vt 0.95 0
vt 0.95 0.07499999999999996
vt 1 0.07499999999999996
vt 1 0.018750000000000044
vt 0.95 0.018750000000000044
vt 0.95 0.08125000000000004
vt 1 0.08125000000000004
vt 0.95 0.07499999999999996
vt 1 0.07499999999999996
vt 1 0
vt 0.95 0
vt 0.9 0.08125000000000004
vt 0.95 0.08125000000000004
vt 0.95 0.018750000000000044
vt 0.9 0.018750000000000044
vt 1 0.018750000000000044
vt 0.95 0.018750000000000044
vt 0.95 0.09375
vt 1 0.09375
vt 0.95 0.09375
vt 1 0.09375
vt 1 0
vt 0.95 0
vt 1 0
vt 0.95 0
vt 0.95 0.07499999999999996
vt 1 0.07499999999999996
vt 1 0.018750000000000044
vt 0.95 0.018750000000000044
vt 0.95 0.08125000000000004
vt 1 0.08125000000000004
vt 0.95 0.07499999999999996
vt 1 0.07499999999999996
vt 1 0
vt 0.95 0
vt 0.9 0.08125000000000004
vt 0.95 0.08125000000000004
vt 0.95 0.018750000000000044
vt 0.9 0.018750000000000044
vt 1 0.018750000000000044
vt 0.95 0.018750000000000044
vt 0.95 0.09375
vt 1 0.09375
vt 0.95 0.09375
vt 1 0.09375
vt 1 0
vt 0.95 0
vt 1 0
vt 0.95 0
vt 0.95 0.07499999999999996
vt 1 0.07499999999999996
vt 1 0.018750000000000044
vt 0.95 0.018750000000000044
vt 0.95 0.08125000000000004
vt 1 0.08125000000000004
vt 0.95 0.07499999999999996
vt 1 0.07499999999999996
vt 1 0
vt 0.95 0
vt 0.95 0.012499999999999956
vt 0.95 0.08750000000000002
vt 0.9 0.08750000000000002
vt 0.9 0.012499999999999956
vt 0.9 0.012499999999999956
vt 0.95 0.012499999999999956
vt 0.95 0.08750000000000002
vt 0.9 0.08750000000000002
vt 0.9 0.012499999999999956
vt 0.95 0.012499999999999956
vt 0.95 0.08750000000000002
vt 0.9 0.08750000000000002
vt 0.95 0.012499999999999956
vt 0.95 0.08750000000000002
vt 0.9 0.08750000000000002
vt 0.9 0.012499999999999956
vt 1 0.08125000000000004
vt 0.95 0.08125000000000004
vt 0.95 0.03125
vt 1 0.03125
vt 0.95 0.03125
vt 0.95 0.06874999999999998
vt 1 0.06874999999999998
vt 1 0.03125
vt 1 0.09375
vt 1 0.05625000000000002
vt 0.95 0.05625000000000002
vt 0.95 0.09375
vt 1 0.08125000000000004
vt 1 0.043749999999999956
vt 0.95 0.043749999999999956
vt 0.95 0.08125000000000004
vt 0.95 0.03749999999999998
vt 0.95 0.07499999999999996
vt 1 0.07499999999999996
vt 1 0.03749999999999998
vt 0.9 0.15000000000000002
vt 0.95 0.15000000000000002
vt 0.95 0.09999999999999998
vt 0.9 0.09999999999999998
vt 0.9 0.09999999999999998
vt 0.95 0.09999999999999998
vt 0.95 0.15000000000000002
vt 0.9 0.15000000000000002
vt 0.95 0.018750000000000044
vt 0.95 0.06874999999999998
vt 1 0.06874999999999998
vt 1 0.018750000000000044
vt 0.8125 0.1875
vt 0.8 0.1875
vt 0.8 0.11250000000000004
vt 0.8125 0.11250000000000004
vt 0.825 0.11250000000000004
vt 0.825 0.1875
vt 0.8125 0.1875
vt 0.8125 0.11250000000000004
vt 0.8 0.1875
vt 0.8 0.11250000000000004
vt 0.8125 0.11250000000000004
vt 0.8125 0.1875
vt 0.8125 0.11250000000000004
vt 0.825 0.11250000000000004
vt 0.825 0.1875
vt 0.8125 0.1875
vt 0.9 0.11250000000000004
vt 0.9 0.1875
vt 0.825 0.1875
vt 0.825 0.11250000000000004
vt 0.9 0.1875
vt 0.825 0.1875
vt 0.825 0.11250000000000004
vt 0.9 0.11250000000000004
vt 0.95 0.0625
vt 1 0.0625
vt 1 0
vt 0.95 0
vt 0.95 0.0625
vt 1 0.0625
vt 1 0
vt 0.95 0
vt 0.95 0.0625
vt 1 0.0625
vt 1 0
vt 0.95 0
vt 1 0
vt 0.95 0
vt 0.95 0.0625
vt 1 0.0625
vn 0 0.9161573349021893 0.40081883401970786
vn -0.40081883401970786 0.9161573349021893 0
vn 0 0.9161573349021893 -0.40081883401970786
vn 0.40081883401970786 0.9161573349021893 0
vn 0 1 0
vn -1 0 0
vn 0 0 -1
vn 1 0 0
vn 0 0 1
vn 0 0 -1
vn 0 0 -1
vn 0 0 -1
vn -1 0 0
vn -1 0 0
vn -1 0 0
vn 0 0 1
vn 0 0 1
vn 0 0 1
vn 1 0 0
vn 1 0 0
vn 1 0 0
vn 0 0 1
vn -1 0 0
vn 0 0 -1
vn 1 0 0
vn 0 1 0
vn -1 0 0
vn 0 -1 0
vn 1 0 0
vn 0 1 0
vn -1 0 0
vn 1 0 0
vn 0 0 -1
vn -1 0 0
vn 0 0 1
vn 1 0 0
vn 0 1 0
vn 1 0 0
vn 0 1 0
vn -1 0 0
vn 0 -1 0
vn 0 0 1
vn 0 0 -1
vn 1 0 0
vn -1 0 0
vn 0 1 0
vn -1 0 0
vn 1 0 0
vn 0 0 1
vn 0 0 -1
vn 0 -1 0
vn 0 1 0
vn -1 0 0
vn 1 0 0
vn 0 0 1
vn 0 0 -1
vn 0 -1 0
vn 0 1 0
vn 1 0 0
vn -1 0 0
vn 0 0 1
vn 0 0 -1
vn 0 -1 0
vn 0 1 0
vn 1 0 0
vn -1 0 0
vn 0 0 1
vn 0 0 -1
vn 0 -1 0
vn 0 1 0
vn 1 0 0
vn -1 0 0
vn 0 1 0
vn 0 -1 0
vn 0 0 1
vn 0 0 -1
vn 0 0 1
vn 0 0 -1
vn 0 1 0
vn 0 -1 0
vn -1 0 0
vn 1 0 0
vn -1 0 0
vn 1 0 0
vn 0 1 0
vn 0 -1 0
vn 0 0 1
vn 0 0 -1
vn -1 0 0
vn 1 0 0
vn 0 1 0
vn 0 -1 0
vn 0 0 1
vn 0 0 -1
vn 1 0 0
vn -1 0 0
vn 0 1 0
vn 0 -1 0
vn 0 0 1
vn 0 0 -1
vn 0 0 -1
vn 0 0 1
vn 0 1 0
vn 0 -1 0
vn -1 0 0
vn 1 0 0
vn -1 0 0
vn 1 0 0
vn 0 0 1
vn 0 0 -1
vn -1 0 0
vn 1 0 0
vn 0 -1 0
vn 0 1 0
vn -1 0 0
vn 1 0 0
vn 0 -1 0
vn 0 1 0
vn -1 0 0
vn 1 0 0
vn 0 -1 0
vn 0 1 0
vn -1 0 0
vn 1 0 0
vn 0 -1 0
vn 0 1 0
vn 1 0 0
vn -1 0 0
vn 0 -1 0
vn 0 1 0
vn 1 0 0
vn -1 0 0
vn 0 -1 0
vn 0 1 0
vn 1 0 0
vn -1 0 0
vn 0 -1 0
vn 0 1 0
vn 1 0 0
vn -1 0 0
vn 0 -1 0
vn 0 1 0
vn -1 0 0
vn 1 0 0
vn 0 0 1
vn 0 0 -1
vn 1 0 0
vn -1 0 0
vn 0 0 1
vn 0 0 -1
vn -1 0 0
vn 1 0 0
vn 0 0 -1
vn 0 0 1
vn -1 0 0
vn 1 0 0
vn 0 0 -1
vn 0 0 1
vn 1 0 0
vn -1 0 0
vn 0 0 1
vn 0 0 -1
vn 1 0 0
vn -1 0 0
vn 0 0 1
vn 0 0 -1
vn 1 0 0
vn -1 0 0
vn 0 0 1
vn 0 0 -1
vn 1 0 0
vn -1 0 0
vn 0 0 -1
vn 0 0 1
vn 1 0 0
vn -1 0 0
vn 0 0 -1
vn 0 0 1
vn 1 0 0
vn -1 0 0
vn 0 0 -1
vn 0 0 1
vn -1 0 0
vn 1 0 0
vn 0 0 -1
vn 0 0 1
vn 0 0 1
vn 0 0 1
vn 0 0 1
vn 0 0 1
vn 0 0 1
vn -1 0 0
vn 1 0 0
vn 0 0 1
vn 0 0 -1
vn 0 -1 0
vn -1 0 0
vn 0 0 1
vn 1 0 0
vn 0 0 -1
vn -1 0 0
vn -1 0 0
vn 0 -1 0
vn 1 0 0
vn 1 0 0
vn 1 0 0
vn 0 -1 0
vn -1 0 0
vn -1 0 0
vn 1 0 0
vn 0 -0.8715755371245493 0.49026123963255896
vn -0.49026123963255896 -0.8715755371245493 0
vn 0 -0.8715755371245493 -0.49026123963255896
vn 0.49026123963255896 -0.8715755371245493 0
vn 0 -1 0
vn -1 0 0
vn 0 0 -1
vn 1 0 0
vn 0 0 1
vn 1 0 0
vn 0 -1 0
vn 0 0 -1
vn 0 0 1
vn 0 0 -1
vn 0 -1 0
vn -1 0 0
vn 1 0 0
vn -1 0 0
vn 0 -1 0
vn 0 0 1
vn 0 0 -1
vn 0 0 1
vn 0 -1 0
vn 1 0 0
vn -1 0 0
vn 1 0 0
vn -1 0 0
vn 0 1 0
vn 0 -1 0
vn 0 0 -1
vn -1 0 0
vn 1 0 0
vn 0 1 0
vn 0 -1 0
vn 0 0 1
vn -1 0 0
vn 1 0 0
vn 0 1 0
vn 0 -1 0
vn 0 0 1
vn -1 0 0
vn 1 0 0
vn 0 1 0
vn 0 -1 0
vn 0 0 1
vn -1 0 0
vn 1 0 0
vn 0 1 0
vn 0 -1 0
vn 0 0 1
vn -1 0 0
vn 1 0 0
vn 0 1 0
vn 0 -1 0
vn 0 0 -1
vn 0 0 -1
vn 0 0 1
vn 0 1 0
vn 0 -1 0
vn 1 0 0
vn 0 0 -1
vn 0 0 1
vn 0 1 0
vn 0 -1 0
vn -1 0 0
vn -1 0 0
vn 1 0 0
vn 0 1 0
vn 0 -1 0
vn 0 0 -1
vn 0 1 0
vn -1 0 0
vn 0 -1 0
vn 1 0 0
vn 0 1 0
vn -1 0 0
vn 0 -1 0
vn 1 0 0
vn 0 1 0
vn -1 0 0
vn 0 -1 0
vn 1 0 0
vn 0 0 -1
vn 0 -1 0
vn 0 0 1
vn 0 1 0
vn 0 0 -1
vn 0 -1 0
vn 0 1 0
vn 0 0 1
vn 1 0 0
vn -1 0 0
vn 0 1 0
vn 0 -1 0
vn 0 0 -1
vn 0 1 0
vn 1 0 0
vn 0 -1 0
vn -1 0 0
vn 0 1 0
vn 1 0 0
vn 0 -1 0
vn -1 0 0
vn 0 1 0
vn 1 0 0
vn 0 -1 0
vn -1 0 0
vn 0 0 -1
vn 0 -1 0
vn 0 0 1
vn 0 1 0
vn 0 0 -1
vn 0 -1 0
vn 0 1 0
vn 0 0 1
vn 1 0 0
vn -1 0 0
vn 0 1 0
vn 0 -1 0
vn 0 0 1
vn 0 1 0
vn 1 0 0
vn 0 -1 0
vn -1 0 0
vn 0 1 0
vn 1 0 0
vn 0 -1 0
vn -1 0 0
vn 0 1 0
vn 1 0 0
vn 0 -1 0
vn -1 0 0
vn 0 0 1
vn 0 -1 0
vn 0 0 -1
vn 0 1 0
vn 0 0 1
vn 0 -1 0
vn 0 0 -1
vn 0 1 0
vn 0 -1 0
vn -1 0 0
vn 0 1 0
vn 1 0 0
vn -1 0 0
vn 1 0 0
vn 0 1 0
vn 0 -1 0
vn 0 0 1
vn 0 1 0
vn -1 0 0
vn 0 -1 0
vn 1 0 0
vn 0 1 0
vn -1 0 0
vn 0 -1 0
vn 1 0 0
vn 0 1 0
vn -1 0 0
vn 0 -1 0
vn 1 0 0
vn 0 0 1
vn 0 -1 0
vn 0 0 -1
vn 0 1 0
vn 0 0 1
vn 0 -1 0
vn 0 0 -1
vn 0 1 0
vn 0 -1 0
vn 1 0 0
vn 0 1 0
vn -1 0 0
vn 0 0 -1
vn 0 0 -1
vn 0 0 -1
vn 0 0 -1
vn 0 0 -1
vn 0 0 -1
vn -1 0 0
vn -1 0 0
vn -1 0 0
vn -1 0 0
vn -1 0 0
vn -1 0 0
vn 0 0 1
vn 0 0 1
vn 0 0 1
vn 0 0 1
vn 0 0 1
vn 0 0 1
vn 1 0 0
vn 1 0 0
vn 1 0 0
vn 1 0 0
vn 1 0 0
vn 1 0 0
vn -1 0 0
vn 1 0 0
vn 0 1 0
vn 0 -1 0
vn 0 0 1
vn -1 0 0
vn 0 1 0
vn 1 0 0
vn 0 -1 0
vn -1 0 0
vn 1 0 0
vn 0 -1 0
vn -1 0 0
vn 1 0 0
vn 0 1 0
vn 0 -1 0
vn 0 0 -1
vn 0 0 1
vn 1 0 0
vn 0 0 1
vn -1 0 0
vn 0 0 -1
usemtl m_ab799ebf-ae56-f156-d03b-3bae00f678a7
f 5/1/1 1/2/1 3/3/1 8/4/1
f 2/5/2 1/6/2 5/7/2 6/8/2
f 4/9/3 2/10/3 6/11/3 7/12/3
f 3/13/4 4/14/4 7/15/4 8/16/4
f 11/17/5 10/18/5 9/19/5 12/20/5
f 5/21/6 9/22/6 10/23/6 6/24/6
f 6/25/7 10/26/7 11/27/7 7/28/7
f 7/29/8 11/30/8 12/31/8 8/32/8
f 8/33/9 12/34/9 9/35/9 5/36/9
f 19/37/10 20/38/10 17/39/10 18/40/10
f 16/41/11 15/42/11 13/43/11 14/44/11
f 20/45/12 19/46/12 14/47/12 13/48/12
f 27/49/13 28/50/13 25/51/13 26/52/13
f 24/53/14 23/54/14 21/55/14 22/56/14
f 28/57/15 27/58/15 22/59/15 21/60/15
f 35/61/16 36/62/16 33/63/16 34/64/16
f 32/65/17 31/66/17 29/67/17 30/68/17
f 36/69/18 35/70/18 30/71/18 29/72/18
f 43/73/19 44/74/19 41/75/19 42/76/19
f 40/77/20 39/78/20 37/79/20 38/80/20
f 44/81/21 43/82/21 38/83/21 37/84/21
f 46/85/22 45/86/22 50/87/22 47/88/22
f 47/89/23 50/90/23 51/91/23 48/92/23
f 59/93/24 58/94/24 57/95/24 60/96/24
f 49/97/25 52/98/25 45/99/25 46/100/25
f 66/101/26 67/102/26 51/103/26 52/104/26
f 67/105/27 68/106/27 48/107/27 51/108/27
f 68/109/28 65/110/28 49/111/28 48/112/28
f 65/113/29 66/114/29 52/115/29 49/116/29
f 53/117/30 57/118/30 58/119/30 54/120/30
f 54/121/31 58/122/31 59/123/31 55/124/31
f 56/125/32 60/126/32 57/127/32 53/128/32
f 60/129/33 61/130/33 62/131/33 59/132/33
f 59/133/34 62/134/34 63/135/34 55/136/34
f 55/137/35 63/138/35 64/139/35 56/140/35
f 56/141/36 64/142/36 61/143/36 60/144/36
f 52/145/37 51/146/37 50/147/37 45/148/37
f 66/149/38 65/150/38 56/151/38 53/152/38
f 67/153/39 66/154/39 53/155/39 54/156/39
f 68/157/40 67/158/40 54/159/40 55/160/40
f 65/161/41 68/162/41 55/163/41 56/164/41
f 71/165/42 69/166/42 70/167/42 72/168/42
f 74/169/43 73/170/43 75/171/43 76/172/43
f 70/173/44 69/174/44 73/175/44 74/176/44
f 75/177/45 71/178/45 72/179/45 76/180/45
f 72/181/46 70/182/46 74/183/46 76/184/46
f 79/185/47 77/186/47 78/187/47 80/188/47
f 82/189/48 81/190/48 83/191/48 84/192/48
f 78/193/49 77/194/49 81/195/49 82/196/49
f 83/197/50 79/198/50 80/199/50 84/200/50
f 81/201/51 77/202/51 79/203/51 83/204/51
f 80/205/52 78/206/52 82/207/52 84/208/52
f 87/209/53 85/210/53 86/211/53 88/212/53
f 90/213/54 89/214/54 91/215/54 92/216/54
f 86/217/55 85/218/55 89/219/55 90/220/55
f 91/221/56 87/222/56 88/223/56 92/224/56
f 89/225/57 85/226/57 87/227/57 91/228/57
f 88/229/58 86/230/58 90/231/58 92/232/58
f 94/233/59 93/234/59 95/235/59 96/236/59
f 99/237/60 97/238/60 98/239/60 100/240/60
f 97/241/61 93/242/61 94/243/61 98/244/61
f 96/245/62 95/246/62 99/247/62 100/248/62
f 95/249/63 93/250/63 97/251/63 99/252/63
f 98/253/64 94/254/64 96/255/64 100/256/64
f 102/257/65 101/258/65 103/259/65 104/260/65
f 107/261/66 105/262/66 106/263/66 108/264/66
f 105/265/67 101/266/67 102/267/67 106/268/67
f 104/269/68 103/270/68 107/271/68 108/272/68
f 103/273/69 101/274/69 105/275/69 107/276/69
f 106/277/70 102/278/70 104/279/70 108/280/70
f 110/281/71 109/282/71 111/283/71 112/284/71
f 115/285/72 113/286/72 114/287/72 116/288/72
f 113/289/73 109/290/73 110/291/73 114/292/73
f 112/293/74 111/294/74 115/295/74 116/296/74
f 111/297/75 109/298/75 113/299/75 115/300/75
f 114/301/76 110/302/76 112/303/76 116/304/76
f 118/305/77 117/306/77 119/307/77 120/308/77
f 123/309/78 121/310/78 122/311/78 124/312/78
f 121/313/79 117/314/79 118/315/79 122/316/79
f 120/317/80 119/318/80 123/319/80 124/320/80
f 119/321/81 117/322/81 121/323/81 123/324/81
f 122/325/82 118/326/82 120/327/82 124/328/82
f 127/329/83 125/330/83 126/331/83 128/332/83
f 130/333/84 129/334/84 131/335/84 132/336/84
f 126/337/85 125/338/85 129/339/85 130/340/85
f 131/341/86 127/342/86 128/343/86 132/344/86
f 129/345/87 125/346/87 127/347/87 131/348/87
f 128/349/88 126/350/88 130/351/88 132/352/88
f 135/353/89 133/354/89 134/355/89 136/356/89
f 138/357/90 137/358/90 139/359/90 140/360/90
f 134/361/91 133/362/91 137/363/91 138/364/91
f 139/365/92 135/366/92 136/367/92 140/368/92
f 137/369/93 133/370/93 135/371/93 139/372/93
f 136/373/94 134/374/94 138/375/94 140/376/94
f 142/377/95 141/378/95 143/379/95 144/380/95
f 147/381/96 145/382/96 146/383/96 148/384/96
f 145/385/97 141/386/97 142/387/97 146/388/97
f 144/389/98 143/390/98 147/391/98 148/392/98
f 143/393/99 141/394/99 145/395/99 147/396/99
f 146/397/100 142/398/100 144/399/100 148/400/100
f 151/401/101 149/402/101 150/403/101 152/404/101
f 154/405/102 153/406/102 155/407/102 156/408/102
f 150/409/103 149/410/103 153/411/103 154/412/103
f 155/413/104 151/414/104 152/415/104 156/416/104
f 153/417/105 149/418/105 151/419/105 155/420/105
f 152/421/106 150/422/106 154/423/106 156/424/106
f 158/425/107 157/426/107 159/427/107 160/428/107
f 163/429/108 161/430/108 162/431/108 164/432/108
f 161/433/109 157/434/109 158/435/109 162/436/109
f 160/437/110 159/438/110 163/439/110 164/440/110
f 166/441/111 165/442/111 167/443/111 168/444/111
f 171/445/112 169/446/112 170/447/112 172/448/112
f 169/449/113 165/450/113 166/451/113 170/452/113
f 168/453/114 167/454/114 171/455/114 172/456/114
f 174/457/115 173/458/115 175/459/115 176/460/115
f 179/461/116 177/462/116 178/463/116 180/464/116
f 177/465/117 173/466/117 174/467/117 178/468/117
f 176/469/118 175/470/118 179/471/118 180/472/118
f 182/473/119 181/474/119 183/475/119 184/476/119
f 187/477/120 185/478/120 186/479/120 188/480/120
f 185/481/121 181/482/121 182/483/121 186/484/121
f 184/485/122 183/486/122 187/487/122 188/488/122
f 190/489/123 189/490/123 191/491/123 192/492/123
f 195/493/124 193/494/124 194/495/124 196/496/124
f 193/497/125 189/498/125 190/499/125 194/500/125
f 192/501/126 191/502/126 195/503/126 196/504/126
f 199/505/127 197/506/127 198/507/127 200/508/127
f 202/509/128 201/510/128 203/511/128 204/512/128
f 198/513/129 197/514/129 201/515/129 202/516/129
f 203/517/130 199/518/130 200/519/130 204/520/130
f 207/521/131 205/522/131 206/523/131 208/524/131
f 210/525/132 209/526/132 211/527/132 212/528/132
f 206/529/133 205/530/133 209/531/133 210/532/133
f 211/533/134 207/534/134 208/535/134 212/536/134
f 215/537/135 213/538/135 214/539/135 216/540/135
f 218/541/136 217/542/136 219/543/136 220/544/136
f 214/545/137 213/546/137 217/547/137 218/548/137
f 219/549/138 215/550/138 216/551/138 220/552/138
f 223/553/139 221/554/139 222/555/139 224/556/139
f 226/557/140 225/558/140 227/559/140 228/560/140
f 222/561/141 221/562/141 225/563/141 226/564/141
f 227/565/142 223/566/142 224/567/142 228/568/142
f 230/569/143 229/570/143 231/571/143 232/572/143
f 235/573/144 233/574/144 234/575/144 236/576/144
f 233/577/145 229/578/145 230/579/145 234/580/145
f 232/581/146 231/582/146 235/583/146 236/584/146
f 239/585/147 237/586/147 238/587/147 240/588/147
f 242/589/148 241/590/148 243/591/148 244/592/148
f 238/593/149 237/594/149 241/595/149 242/596/149
f 243/597/150 239/598/150 240/599/150 244/600/150
f 247/601/151 245/602/151 246/603/151 248/604/151
f 250/605/152 249/606/152 251/607/152 252/608/152
f 246/609/153 245/610/153 249/611/153 250/612/153
f 251/613/154 247/614/154 248/615/154 252/616/154
f 255/617/155 253/618/155 254/619/155 256/620/155
f 258/621/156 257/622/156 259/623/156 260/624/156
f 254/625/157 253/626/157 257/627/157 258/628/157
f 259/629/158 255/630/158 256/631/158 260/632/158
f 263/633/159 261/634/159 262/635/159 264/636/159
f 266/637/160 265/638/160 267/639/160 268/640/160
f 262/641/161 261/642/161 265/643/161 266/644/161
f 267/645/162 263/646/162 264/647/162 268/648/162
f 271/649/163 269/650/163 270/651/163 272/652/163
f 274/653/164 273/654/164 275/655/164 276/656/164
f 270/657/165 269/658/165 273/659/165 274/660/165
f 275/661/166 271/662/166 272/663/166 276/664/166
f 279/665/167 277/666/167 278/667/167 280/668/167
f 282/669/168 281/670/168 283/671/168 284/672/168
f 278/673/169 277/674/169 281/675/169 282/676/169
f 283/677/170 279/678/170 280/679/170 284/680/170
f 286/681/171 285/682/171 287/683/171 288/684/171
f 291/685/172 289/686/172 290/687/172 292/688/172
f 289/689/173 285/690/173 286/691/173 290/692/173
f 288/693/174 287/694/174 291/695/174 292/696/174
f 294/697/175 293/698/175 295/699/175 296/700/175
f 299/701/176 297/702/176 298/703/176 300/704/176
f 297/705/177 293/706/177 294/707/177 298/708/177
f 296/709/178 295/710/178 299/711/178 300/712/178
f 302/713/179 301/714/179 303/715/179 304/716/179
f 307/717/180 305/718/180 306/719/180 308/720/180
f 305/721/181 301/722/181 302/723/181 306/724/181
f 304/725/182 303/726/182 307/727/182 308/728/182
f 311/729/183 309/730/183 310/731/183 312/732/183
f 314/733/184 313/734/184 315/735/184 316/736/184
f 310/737/185 309/738/185 313/739/185 314/740/185
f 315/741/186 311/742/186 312/743/186 316/744/186
f 319/745/187 317/746/187 318/747/187 320/748/187
f 323/749/188 321/750/188 322/751/188 324/752/188
f 327/753/189 325/754/189 326/755/189 328/756/189
f 331/757/190 329/758/190 330/759/190 332/760/190
f 335/761/191 333/762/191 334/763/191 336/764/191
f 349/765/192 350/766/192 338/767/192 345/768/192
f 354/769/193 353/770/193 348/771/193 342/772/193
f 346/773/194 347/774/194 341/775/194 337/776/194
f 348/777/195 345/778/195 338/779/195 342/780/195
f 352/781/196 351/782/196 340/783/196 344/784/196
f 351/785/197 349/786/197 345/787/197 340/788/197
f 347/789/198 346/790/198 339/791/198 343/792/198
f 353/793/199 352/794/199 344/795/199 348/796/199
f 345/797/200 348/798/200 344/799/200 340/800/200
f 358/801/201 359/802/201 350/803/201 349/804/201
f 357/805/202 358/806/202 349/807/202 351/808/202
f 356/809/203 357/810/203 351/811/203 352/812/203
f 355/813/204 356/814/204 352/815/204 353/816/204
f 360/817/205 355/818/205 353/819/205 354/820/205
f 356/821/206 355/822/206 347/823/206 343/824/206
f 357/825/207 356/826/207 343/827/207 339/828/207
f 358/829/208 357/830/208 339/831/208 346/832/208
f 359/833/209 358/834/209 346/835/209 337/836/209
f 355/837/210 360/838/210 341/839/210 347/840/210
f 363/841/211 361/842/211 365/843/211 368/844/211
f 365/845/212 361/846/212 362/847/212 366/848/212
f 366/849/213 362/850/213 364/851/213 367/852/213
f 367/853/214 364/854/214 363/855/214 368/856/214
f 369/857/215 370/858/215 371/859/215 372/860/215
f 370/861/216 369/862/216 365/863/216 366/864/216
f 371/865/217 370/866/217 366/867/217 367/868/217
f 372/869/218 371/870/218 367/871/218 368/872/218
f 369/873/219 372/874/219 368/875/219 365/876/219
f 375/877/220 373/878/220 374/879/220 376/880/220
f 379/881/221 375/882/221 376/883/221 380/884/221
f 377/885/222 373/886/222 375/887/222 379/888/222
f 376/889/223 374/890/223 378/891/223 380/892/223
f 383/893/224 381/894/224 382/895/224 384/896/224
f 387/897/225 383/898/225 384/899/225 388/900/225
f 385/901/226 381/902/226 383/903/226 387/904/226
f 384/905/227 382/906/227 386/907/227 388/908/227
f 391/909/228 389/910/228 390/911/228 392/912/228
f 395/913/229 391/914/229 392/915/229 396/916/229
f 393/917/230 389/918/230 391/919/230 395/920/230
f 392/921/231 390/922/231 394/923/231 396/924/231
f 399/925/232 397/926/232 398/927/232 400/928/232
f 403/929/233 399/930/233 400/931/233 404/932/233
f 401/933/234 397/934/234 399/935/234 403/936/234
f 400/937/235 398/938/235 402/939/235 404/940/235
f 406/941/236 405/942/236 407/943/236 408/944/236
f 411/945/237 409/946/237 410/947/237 412/948/237
f 409/949/238 405/950/238 406/951/238 410/952/238
f 408/953/239 407/954/239 411/955/239 412/956/239
f 410/957/240 406/958/240 408/959/240 412/960/240
f 414/961/241 413/962/241 415/963/241 416/964/241
f 419/965/242 417/966/242 418/967/242 420/968/242
f 417/969/243 413/970/243 414/971/243 418/972/243
f 416/973/244 415/974/244 419/975/244 420/976/244
f 418/977/245 414/978/245 416/979/245 420/980/245
f 422/981/246 421/982/246 423/983/246 424/984/246
f 427/985/247 425/986/247 426/987/247 428/988/247
f 425/989/248 421/990/248 422/991/248 426/992/248
f 424/993/249 423/994/249 427/995/249 428/996/249
f 426/997/250 422/998/250 424/999/250 428/1000/250
f 430/1001/251 429/1002/251 431/1003/251 432/1004/251
f 435/1005/252 433/1006/252 434/1007/252 436/1008/252
f 433/1009/253 429/1010/253 430/1011/253 434/1012/253
f 432/1013/254 431/1014/254 435/1015/254 436/1016/254
f 434/1017/255 430/1018/255 432/1019/255 436/1020/255
f 438/1021/256 437/1022/256 439/1023/256 440/1024/256
f 443/1025/257 441/1026/257 442/1027/257 444/1028/257
f 441/1029/258 437/1030/258 438/1031/258 442/1032/258
f 440/1033/259 439/1034/259 443/1035/259 444/1036/259
f 442/1037/260 438/1038/260 440/1039/260 444/1040/260
f 447/1041/261 445/1042/261 446/1043/261 448/1044/261
f 450/1045/262 449/1046/262 451/1047/262 452/1048/262
f 446/1049/263 445/1050/263 449/1051/263 450/1052/263
f 451/1053/264 447/1054/264 448/1055/264 452/1056/264
f 448/1057/265 446/1058/265 450/1059/265 452/1060/265
f 455/1061/266 453/1062/266 454/1063/266 456/1064/266
f 458/1065/267 457/1066/267 459/1067/267 460/1068/267
f 454/1069/268 453/1070/268 457/1071/268 458/1072/268
f 459/1073/269 455/1074/269 456/1075/269 460/1076/269
f 456/1077/270 454/1078/270 458/1079/270 460/1080/270
f 462/1081/271 461/1082/271 463/1083/271 464/1084/271
f 467/1085/272 465/1086/272 466/1087/272 468/1088/272
f 465/1089/273 461/1090/273 462/1091/273 466/1092/273
f 464/1093/274 463/1094/274 467/1095/274 468/1096/274
f 466/1097/275 462/1098/275 464/1099/275 468/1100/275
f 471/1101/276 469/1102/276 470/1103/276 472/1104/276
f 474/1105/277 473/1106/277 475/1107/277 476/1108/277
f 470/1109/278 469/1110/278 473/1111/278 474/1112/278
f 475/1113/279 471/1114/279 472/1115/279 476/1116/279
f 486/1117/280 485/1118/280 487/1119/280 488/1120/280
f 474/1121/281 479/1122/281 477/1123/281 470/1124/281
f 470/1125/282 477/1126/282 478/1127/282 472/1128/282
f 472/1129/283 478/1130/283 480/1131/283 476/1132/283
f 476/1133/284 480/1134/284 479/1135/284 474/1136/284
f 479/1137/285 483/1138/285 481/1139/285 477/1140/285
f 477/1141/286 481/1142/286 482/1143/286 478/1144/286
f 478/1145/287 482/1146/287 484/1147/287 480/1148/287
f 480/1149/288 484/1150/288 483/1151/288 479/1152/288
f 483/1153/289 487/1154/289 485/1155/289 481/1156/289
f 481/1157/290 485/1158/290 486/1159/290 482/1160/290
f 482/1161/291 486/1162/291 488/1163/291 484/1164/291
f 495/1165/292 494/1166/292 493/1167/292 496/1168/292
f 487/1169/293 489/1170/293 490/1171/293 488/1172/293
f 488/1173/294 490/1174/294 491/1175/294 484/1176/294
f 484/1177/295 491/1178/295 492/1179/295 483/1180/295
f 483/1181/296 492/1182/296 489/1183/296 487/1184/296
f 489/1185/297 493/1186/297 494/1187/297 490/1188/297
f 490/1189/298 494/1190/298 495/1191/298 491/1192/298
f 492/1193/299 496/1194/299 493/1195/299 489/1196/299
f 496/1197/300 492/1198/300 491/1199/300 495/1200/300
f 498/1201/301 497/1202/301 499/1203/301 500/1204/301
f 503/1205/302 501/1206/302 502/1207/302 504/1208/302
f 501/1209/303 497/1210/303 498/1211/303 502/1212/303
f 500/1213/304 499/1214/304 503/1215/304 504/1216/304
f 515/1217/305 513/1218/305 514/1219/305 516/1220/305
f 505/1221/306 507/1222/306 502/1223/306 498/1224/306
f 506/1225/307 505/1226/307 498/1227/307 500/1228/307
f 508/1229/308 506/1230/308 500/1231/308 504/1232/308
f 507/1233/309 508/1234/309 504/1235/309 502/1236/309
f 509/1237/310 511/1238/310 507/1239/310 505/1240/310
f 510/1241/311 509/1242/311 505/1243/311 506/1244/311
f 512/1245/312 510/1246/312 506/1247/312 508/1248/312
f 511/1249/313 512/1250/313 508/1251/313 507/1252/313
f 513/1253/314 515/1254/314 511/1255/314 509/1256/314
f 514/1257/315 513/1258/315 509/1259/315 510/1260/315
f 516/1261/316 514/1262/316 510/1263/316 512/1264/316
f 521/1265/317 522/1266/317 523/1267/317 524/1268/317
f 518/1269/318 517/1270/318 515/1271/318 516/1272/318
f 519/1273/319 518/1274/319 516/1275/319 512/1276/319
f 520/1277/320 519/1278/320 512/1279/320 511/1280/320
f 517/1281/321 520/1282/321 511/1283/321 515/1284/321
f 522/1285/322 521/1286/322 517/1287/322 518/1288/322
f 523/1289/323 522/1290/323 518/1291/323 519/1292/323
f 521/1293/324 524/1294/324 520/1295/324 517/1296/324
f 519/1297/325 520/1298/325 524/1299/325 523/1300/325
f 527/1301/326 525/1302/326 526/1303/326 528/1304/326
f 530/1305/327 529/1306/327 531/1307/327 532/1308/327
f 526/1309/328 525/1310/328 529/1311/328 530/1312/328
f 531/1313/329 527/1314/329 528/1315/329 532/1316/329
f 542/1317/330 541/1318/330 543/1319/330 544/1320/330
f 530/1321/331 535/1322/331 533/1323/331 526/1324/331
f 526/1325/332 533/1326/332 534/1327/332 528/1328/332
f 528/1329/333 534/1330/333 536/1331/333 532/1332/333
f 532/1333/334 536/1334/334 535/1335/334 530/1336/334
f 535/1337/335 539/1338/335 537/1339/335 533/1340/335
f 533/1341/336 537/1342/336 538/1343/336 534/1344/336
f 534/1345/337 538/1346/337 540/1347/337 536/1348/337
f 536/1349/338 540/1350/338 539/1351/338 535/1352/338
f 539/1353/339 543/1354/339 541/1355/339 537/1356/339
f 537/1357/340 541/1358/340 542/1359/340 538/1360/340
f 538/1361/341 542/1362/341 544/1363/341 540/1364/341
f 551/1365/342 550/1366/342 549/1367/342 552/1368/342
f 543/1369/343 545/1370/343 546/1371/343 544/1372/343
f 544/1373/344 546/1374/344 547/1375/344 540/1376/344
f 540/1377/345 547/1378/345 548/1379/345 539/1380/345
f 539/1381/346 548/1382/346 545/1383/346 543/1384/346
f 545/1385/347 549/1386/347 550/1387/347 546/1388/347
f 546/1389/348 550/1390/348 551/1391/348 547/1392/348
f 555/1393/349 553/1394/349 554/1395/349 556/1396/349
f 548/1397/350 552/1398/350 549/1399/350 545/1400/350
f 553/1401/351 555/1402/351 547/1403/351 551/1404/351
f 554/1405/352 553/1406/352 551/1407/352 552/1408/352
f 556/1409/353 554/1410/353 552/1411/353 548/1412/353
f 555/1413/354 556/1414/354 548/1415/354 547/1416/354
f 558/1417/355 557/1418/355 559/1419/355 560/1420/355
f 563/1421/356 561/1422/356 562/1423/356 564/1424/356
f 561/1425/357 557/1426/357 558/1427/357 562/1428/357
f 560/1429/358 559/1430/358 563/1431/358 564/1432/358
f 575/1433/359 573/1434/359 574/1435/359 576/1436/359
f 565/1437/360 567/1438/360 562/1439/360 558/1440/360
f 566/1441/361 565/1442/361 558/1443/361 560/1444/361
f 568/1445/362 566/1446/362 560/1447/362 564/1448/362
f 567/1449/363 568/1450/363 564/1451/363 562/1452/363
f 569/1453/364 571/1454/364 567/1455/364 565/1456/364
f 570/1457/365 569/1458/365 565/1459/365 566/1460/365
f 572/1461/366 570/1462/366 566/1463/366 568/1464/366
f 571/1465/367 572/1466/367 568/1467/367 567/1468/367
f 573/1469/368 575/1470/368 571/1471/368 569/1472/368
f 574/1473/369 573/1474/369 569/1475/369 570/1476/369
f 576/1477/370 574/1478/370 570/1479/370 572/1480/370
f 581/1481/371 582/1482/371 583/1483/371 584/1484/371
f 578/1485/372 577/1486/372 575/1487/372 576/1488/372
f 579/1489/373 578/1490/373 576/1491/373 572/1492/373
f 580/1493/374 579/1494/374 572/1495/374 571/1496/374
f 577/1497/375 580/1498/375 571/1499/375 575/1500/375
f 582/1501/376 581/1502/376 577/1503/376 578/1504/376
f 583/1505/377 582/1506/377 578/1507/377 579/1508/377
f 586/1509/378 585/1510/378 587/1511/378 588/1512/378
f 581/1513/379 584/1514/379 580/1515/379 577/1516/379
f 579/1517/380 587/1518/380 585/1519/380 583/1520/380
f 583/1521/381 585/1522/381 586/1523/381 584/1524/381
f 584/1525/382 586/1526/382 588/1527/382 580/1528/382
f 580/1529/383 588/1530/383 587/1531/383 579/1532/383
f 595/1533/384 596/1534/384 591/1535/384 592/1536/384
f 593/1537/385 594/1538/385 592/1539/385 591/1540/385
f 594/1541/386 593/1542/386 590/1543/386 589/1544/386
f 603/1545/387 604/1546/387 601/1547/387 602/1548/387
f 600/1549/388 599/1550/388 597/1551/388 598/1552/388
f 604/1553/389 603/1554/389 598/1555/389 597/1556/389
f 611/1557/390 612/1558/390 607/1559/390 608/1560/390
f 609/1561/391 610/1562/391 608/1563/391 607/1564/391
f 610/1565/392 609/1566/392 606/1567/392 605/1568/392
f 619/1569/393 620/1570/393 617/1571/393 618/1572/393
f 616/1573/394 615/1574/394 613/1575/394 614/1576/394
f 620/1577/395 619/1578/395 614/1579/395 613/1580/395
f 627/1581/396 628/1582/396 623/1583/396 624/1584/396
f 625/1585/397 626/1586/397 624/1587/397 623/1588/397
f 626/1589/398 625/1590/398 622/1591/398 621/1592/398
f 635/1593/399 636/1594/399 633/1595/399 634/1596/399
f 632/1597/400 631/1598/400 629/1599/400 630/1600/400
f 636/1601/401 635/1602/401 630/1603/401 629/1604/401
f 643/1605/402 644/1606/402 639/1607/402 640/1608/402
f 641/1609/403 642/1610/403 640/1611/403 639/1612/403
f 642/1613/404 641/1614/404 638/1615/404 637/1616/404
f 651/1617/405 652/1618/405 649/1619/405 650/1620/405
f 648/1621/406 647/1622/406 645/1623/406 646/1624/406
f 652/1625/407 651/1626/407 646/1627/407 645/1628/407
f 654/1629/408 653/1630/408 655/1631/408 656/1632/408
f 659/1633/409 657/1634/409 658/1635/409 660/1636/409
f 657/1637/410 653/1638/410 654/1639/410 658/1640/410
f 656/1641/411 655/1642/411 659/1643/411 660/1644/411
f 667/1645/412 666/1646/412 665/1647/412 668/1648/412
f 656/1649/413 661/1650/413 662/1651/413 654/1652/413
f 654/1653/414 662/1654/414 663/1655/414 658/1656/414
f 658/1657/415 663/1658/415 664/1659/415 660/1660/415
f 660/1661/416 664/1662/416 661/1663/416 656/1664/416
f 661/1665/417 665/1666/417 666/1667/417 662/1668/417
f 663/1669/418 667/1670/418 668/1671/418 664/1672/418
f 664/1673/419 668/1674/419 665/1675/419 661/1676/419
f 670/1677/420 669/1678/420 671/1679/420 672/1680/420
f 675/1681/421 673/1682/421 674/1683/421 676/1684/421
f 673/1685/422 669/1686/422 670/1687/422 674/1688/422
f 672/1689/423 671/1690/423 675/1691/423 676/1692/423
f 671/1693/424 669/1694/424 673/1695/424 675/1696/424
f 674/1697/425 670/1698/425 672/1699/425 676/1700/425
f 39/1701/426 40/1702/426 650/1703/426 649/1704/426
f 31/1705/427 32/1706/427 634/1707/427 633/1708/427
f 23/1709/428 24/1710/428 618/1711/428 617/1712/428
f 602/1713/429 601/1714/429 15/1715/429 16/1716/429
