# Made in Blockbench 5.1.4
mtllib boiler_solid.mtl

o cube
v 1 1.1875 0.1875
v 1 1.1875 -1.1875
v 1 0.125 0.1875
v 1 -0.5 1
v 1 -0.5 -2
v 1 -1 1
v 1 -1 -2
v 0 -0.5 1
v 0 -0.5 -2
v 0 -1 1
v 0 -1 -2
v 1 0 0
v 1 0 -1
v 1 -0.5 0
v 1 -0.5 -1
v 0 0 0
v 0 0 -1
v 0 -0.5 0
v 0 -0.5 -1
v 1 0 1
v 1 1 1
v 0 1 1
v 0 0 1
v 1 0 0.5
v 1 1 0.5
v 0 0 0.5
v 0 1 0.5
v 0.25 -0.5 -1.625
v 0.25 0 -1.625
v 0.125 0 -1.625
v 0.125 -0.5 -1.625
v 0.25 -0.5 -1.875
v 0.25 0 -1.875
v 0.125 -0.5 -1.875
v 0.125 0 -1.875
v 0.875 -0.5 -1.625
v 0.875 0 -1.625
v 0.75 0 -1.625
v 0.75 -0.5 -1.625
v 0.875 -0.5 -1.875
v 0.875 0 -1.875
v 0.75 -0.5 -1.875
v 0.75 0 -1.875
v 0.9375 0 -1.5625
v 0.9375 1.5 -1.5625
v 0.0625 1.5 -1.5625
v 0.0625 0 -1.5625
v 0.9375 0 -2
v 0.9375 1.5 -2
v 0.0625 0 -2
v 0.0625 1.5 -2
v 0.25 -0.5 0.875
v 0.25 0 0.875
v 0.125 0 0.875
v 0.125 -0.5 0.875
v 0.25 -0.5 0.625
v 0.25 0 0.625
v 0.125 -0.5 0.625
v 0.125 0 0.625
v 0.875 -0.5 0.875
v 0.875 0 0.875
v 0.75 0 0.875
v 0.75 -0.5 0.875
v 0.875 -0.5 0.625
v 0.875 0 0.625
v 0.75 -0.5 0.625
v 0.75 0 0.625
v 0.875 0.125 -0.125
v 0.875 0.125 -0.875
v 0.875 0 -0.125
v 0.875 0 -0.875
v 0.125 0.125 -0.125
v 0.125 0.125 -0.875
v 0.125 0 -0.125
v 0.125 0 -0.875
v 0 0.125 0.1875
v 0 0.125 -1.1875
v 1 0.125 -1.1875
v 0 1.1875 0.1875
v 0 1.1875 -1.1875
v 0 0.4375 0.1875
v 0 0.4375 -1.1875
v 0.8125 2.1875 -0.1875
v 0.8125 2.1875 -0.8125
v 0.1875 2.1875 -0.1875
v 0.1875 2.1875 -0.8125
v 0.875 1.3125 -0.125
v 0.875 1.3125 -0.875
v 0.875 1.1875 -0.125
v 0.875 1.1875 -0.875
v 0.125 1.3125 -0.125
v 0.125 1.3125 -0.875
v 0.125 1.1875 -0.125
v 0.125 1.1875 -0.875
v 0.75 2.25 -0.25
v 0.75 2.25 -0.75
v 0.75 1.3125 -0.25
v 0.75 1.3125 -0.75
v 0.25 2.25 -0.25
v 0.25 2.25 -0.75
v 0.25 1.3125 -0.25
v 0.25 1.3125 -0.75
v 0.8125 1.375 -0.1875
v 0.8125 1.375 -0.8125
v 0.1875 1.375 -0.8125
v 0.1875 1.375 -0.1875
vt 0.3333333333333333 0.45138888888888884
vt 0.3333333333333333 0.5069444444444444
vt 0 0.5069444444444444
vt 0 0.45138888888888884
vt 0.3333333333333333 0.9444444444444444
vt 0.3333333333333333 1
vt 0 1
vt 0 0.9444444444444444
vt 0.1111111111111111 0.6111111111111112
vt 0.1111111111111111 0.9375
vt 0 0.9375
vt 0 0.6111111111111112
vt 0.1111111111111111 0.6041666666666667
vt 0.1111111111111111 0.9375
vt 0 0.9375
vt 0 0.6041666666666667
vt 0.1111111111111111 0.45138888888888884
vt 0.1111111111111111 0.5069444444444444
vt 0 0.5069444444444444
vt 0 0.45138888888888884
vt 0.3333333333333333 0.45138888888888884
vt 0.3333333333333333 0.5069444444444444
vt 0.2222222222222222 0.5069444444444444
vt 0.2222222222222222 0.45138888888888884
vt 0.22916666666666666 0.7777777777777778
vt 0.22916666666666666 0.8333333333333334
vt 0.11805555555555555 0.8333333333333334
vt 0.11805555555555555 0.7777777777777778
vt 0.3263888888888889 0.8333333333333334
vt 0.2708333333333333 0.8333333333333334
vt 0.2708333333333333 0.7222222222222222
vt 0.3263888888888889 0.7222222222222222
vt 0.22916666666666666 0.5416666666666667
vt 0.22916666666666666 0.6527777777777778
vt 0.11805555555555555 0.6527777777777778
vt 0.11805555555555555 0.5416666666666667
vt 0.3263888888888889 0.8333333333333334
vt 0.2708333333333333 0.8333333333333334
vt 0.2708333333333333 0.7222222222222222
vt 0.3263888888888889 0.7222222222222222
vt 0.3263888888888889 0.8333333333333334
vt 0.2708333333333333 0.8333333333333334
vt 0.2708333333333333 0.7222222222222222
vt 0.3263888888888889 0.7222222222222222
vt 0.22916666666666666 0.6597222222222222
vt 0.22916666666666666 0.7708333333333334
vt 0.11805555555555555 0.7708333333333334
vt 0.11805555555555555 0.6597222222222222
vt 0.3263888888888889 0.7222222222222222
vt 0.3263888888888889 0.8333333333333334
vt 0.2708333333333333 0.8333333333333334
vt 0.2708333333333333 0.7222222222222222
vt 0.22916666666666666 0.5416666666666667
vt 0.22916666666666666 0.6527777777777778
vt 0.11805555555555555 0.6527777777777778
vt 0.11805555555555555 0.5416666666666667
vt 0.3263888888888889 0.7222222222222222
vt 0.3263888888888889 0.8333333333333334
vt 0.2708333333333333 0.8333333333333334
vt 0.2708333333333333 0.7222222222222222
vt 0.3263888888888889 0.8333333333333334
vt 0.2708333333333333 0.8333333333333334
vt 0.2708333333333333 0.7222222222222222
vt 0.3263888888888889 0.7222222222222222
vt 0.3263888888888889 0.8333333333333334
vt 0.2708333333333333 0.8333333333333334
vt 0.2708333333333333 0.7222222222222222
vt 0.3263888888888889 0.7222222222222222
vt 0.3194444444444444 0.6597222222222222
vt 0.3194444444444444 0.7152777777777778
vt 0.3055555555555556 0.7152777777777778
vt 0.3055555555555556 0.6597222222222222
vt 0.2986111111111111 0.6597222222222222
vt 0.2986111111111111 0.7152777777777778
vt 0.2708333333333333 0.7152777777777778
vt 0.2708333333333333 0.6597222222222222
vt 0.3194444444444444 0.6597222222222222
vt 0.3194444444444444 0.7152777777777778
vt 0.3055555555555556 0.7152777777777778
vt 0.3055555555555556 0.6597222222222222
vt 0.2986111111111111 0.6597222222222222
vt 0.2986111111111111 0.7152777777777778
vt 0.2708333333333333 0.7152777777777778
vt 0.2708333333333333 0.6597222222222222
vt 0.3194444444444444 0.6597222222222222
vt 0.3194444444444444 0.7152777777777778
vt 0.3055555555555556 0.7152777777777778
vt 0.3055555555555556 0.6597222222222222
vt 0.2986111111111111 0.6597222222222222
vt 0.2986111111111111 0.7152777777777778
vt 0.2708333333333333 0.7152777777777778
vt 0.2708333333333333 0.6597222222222222
vt 0.3194444444444444 0.6597222222222222
vt 0.3194444444444444 0.7152777777777778
vt 0.3055555555555556 0.7152777777777778
vt 0.3055555555555556 0.6597222222222222
vt 0.2986111111111111 0.6597222222222222
vt 0.2986111111111111 0.7152777777777778
vt 0.2708333333333333 0.7152777777777778
vt 0.2708333333333333 0.6597222222222222
vt 0.4375 0.6597222222222222
vt 0.4375 0.8263888888888888
vt 0.3402777777777778 0.8263888888888888
vt 0.3402777777777778 0.6597222222222222
vt 0.3888888888888889 0.48611111111111116
vt 0.3888888888888889 0.6527777777777778
vt 0.3402777777777778 0.6527777777777778
vt 0.3402777777777778 0.48611111111111116
vt 0.4375 0.8333333333333334
vt 0.4375 1
vt 0.3402777777777778 1
vt 0.3402777777777778 0.8333333333333334
vt 0.3888888888888889 0.48611111111111116
vt 0.3888888888888889 0.6527777777777778
vt 0.3402777777777778 0.6527777777777778
vt 0.3402777777777778 0.48611111111111116
vt 0.2708333333333333 0.5555555555555556
vt 0.3194444444444444 0.5555555555555556
vt 0.3194444444444444 0.6527777777777778
vt 0.2708333333333333 0.6527777777777778
vt 0.3194444444444444 0.5555555555555556
vt 0.2708333333333333 0.5555555555555556
vt 0.2708333333333333 0.6527777777777778
vt 0.3194444444444444 0.6527777777777778
vt 0.3194444444444444 0.6597222222222222
vt 0.3194444444444444 0.7152777777777778
vt 0.3055555555555556 0.7152777777777778
vt 0.3055555555555556 0.6597222222222222
vt 0.2986111111111111 0.6597222222222222
vt 0.2986111111111111 0.7152777777777778
vt 0.2708333333333333 0.7152777777777778
vt 0.2708333333333333 0.6597222222222222
vt 0.3194444444444444 0.6597222222222222
vt 0.3194444444444444 0.7152777777777778
vt 0.3055555555555556 0.7152777777777778
vt 0.3055555555555556 0.6597222222222222
vt 0.2986111111111111 0.6597222222222222
vt 0.2986111111111111 0.7152777777777778
vt 0.2708333333333333 0.7152777777777778
vt 0.2708333333333333 0.6597222222222222
vt 0.3194444444444444 0.6597222222222222
vt 0.3194444444444444 0.7152777777777778
vt 0.3055555555555556 0.7152777777777778
vt 0.3055555555555556 0.6597222222222222
vt 0.2986111111111111 0.6597222222222222
vt 0.2986111111111111 0.7152777777777778
vt 0.2708333333333333 0.7152777777777778
vt 0.2708333333333333 0.6597222222222222
vt 0.3194444444444444 0.6597222222222222
vt 0.3194444444444444 0.7152777777777778
vt 0.3055555555555556 0.7152777777777778
vt 0.3055555555555556 0.6597222222222222
vt 0.2986111111111111 0.6597222222222222
vt 0.2986111111111111 0.7152777777777778
vt 0.2708333333333333 0.7152777777777778
vt 0.2708333333333333 0.6597222222222222
vt 0.3125 0.4444444444444444
vt 0.1597222222222222 0.4444444444444444
vt 0.1597222222222222 0.33333333333333337
vt 0.3125 0.33333333333333337
vt 0.1111111111111111 0.5138888888888888
vt 0.1111111111111111 0.5972222222222222
vt 0 0.5972222222222222
vt 0 0.5138888888888888
vt 0.1111111111111111 0.11805555555555558
vt 0.09722222222222222 0.11805555555555558
vt 0.09722222222222222 0.03472222222222221
vt 0.1111111111111111 0.03472222222222221
vt 0.1111111111111111 0.1597222222222222
vt 0.09722222222222222 0.1597222222222222
vt 0.09722222222222222 0.07638888888888884
vt 0.1111111111111111 0.07638888888888884
vt 0.08333333333333333 0.27083333333333337
vt 0.08333333333333333 0.35416666666666663
vt 0 0.35416666666666663
vt 0 0.27083333333333337
vt 0.1111111111111111 0.11805555555555558
vt 0.09722222222222222 0.11805555555555558
vt 0.09722222222222222 0.03472222222222221
vt 0.1111111111111111 0.03472222222222221
vt 0.1111111111111111 0.11805555555555558
vt 0.09722222222222222 0.11805555555555558
vt 0.09722222222222222 0.03472222222222221
vt 0.1111111111111111 0.03472222222222221
vt 0.1111111111111111 0.5138888888888888
vt 0.1111111111111111 0.5972222222222222
vt 0 0.5972222222222222
vt 0 0.5138888888888888
vt 0.3125 0.4444444444444444
vt 0.1597222222222222 0.4444444444444444
vt 0.1597222222222222 0.33333333333333337
vt 0.3125 0.33333333333333337
vt 0.11805555555555555 0.9375
vt 0.2847222222222222 0.9375
vt 0.2847222222222222 0.8402777777777778
vt 0.11805555555555555 0.8402777777777778
vt 0.3819444444444444 0.48611111111111116
vt 0.3819444444444444 0.6527777777777778
vt 0.3402777777777778 0.6527777777777778
vt 0.3402777777777778 0.48611111111111116
vt 0.1597222222222222 0.3194444444444444
vt 0.1597222222222222 0.20138888888888884
vt 0.3125 0.20138888888888884
vt 0.3125 0.3194444444444444
vt 0.4652777777777778 0.47916666666666663
vt 0.4652777777777778 0.5694444444444444
vt 0.3958333333333333 0.5694444444444444
vt 0.3958333333333333 0.47916666666666663
vt 0.4652777777777778 0.47916666666666663
vt 0.4652777777777778 0.5694444444444444
vt 0.3958333333333333 0.5694444444444444
vt 0.3958333333333333 0.47916666666666663
vt 0.4652777777777778 0.5833333333333333
vt 0.4652777777777778 0.6527777777777778
vt 0.3958333333333333 0.6527777777777778
vt 0.3958333333333333 0.5833333333333333
vt 0.4652777777777778 0.47916666666666663
vt 0.4652777777777778 0.5694444444444444
vt 0.3958333333333333 0.5694444444444444
vt 0.3958333333333333 0.47916666666666663
vt 0.4652777777777778 0.47916666666666663
vt 0.4652777777777778 0.5694444444444444
vt 0.3958333333333333 0.5694444444444444
vt 0.3958333333333333 0.47916666666666663
vt 0.1111111111111111 0.11805555555555558
vt 0.09722222222222222 0.11805555555555558
vt 0.09722222222222222 0.03472222222222221
vt 0.1111111111111111 0.03472222222222221
vt 0.1111111111111111 0.11805555555555558
vt 0.09722222222222222 0.11805555555555558
vt 0.09722222222222222 0.03472222222222221
vt 0.1111111111111111 0.03472222222222221
vt 0.08333333333333333 0.27083333333333337
vt 0.08333333333333333 0.35416666666666663
vt 0 0.35416666666666663
vt 0 0.27083333333333337
vt 0.1111111111111111 0.11805555555555558
vt 0.09722222222222222 0.11805555555555558
vt 0.09722222222222222 0.03472222222222221
vt 0.1111111111111111 0.03472222222222221
vt 0.1111111111111111 0.11805555555555558
vt 0.09722222222222222 0.11805555555555558
vt 0.09722222222222222 0.03472222222222221
vt 0.1111111111111111 0.03472222222222221
vt 0.05555555555555555 0.03472222222222221
vt 0.05555555555555555 0.13888888888888884
vt 0 0.13888888888888884
vt 0 0.03472222222222221
vt 0.05555555555555555 0.03472222222222221
vt 0.05555555555555555 0.13888888888888884
vt 0 0.13888888888888884
vt 0 0.03472222222222221
vt 0.22916666666666666 0.8611111111111112
vt 0.22916666666666666 0.9166666666666666
vt 0.1736111111111111 0.9166666666666666
vt 0.1736111111111111 0.8611111111111112
vt 0.05555555555555555 0.03472222222222221
vt 0.05555555555555555 0.13888888888888884
vt 0 0.13888888888888884
vt 0 0.03472222222222221
vt 0.05555555555555555 0.03472222222222221
vt 0.05555555555555555 0.13888888888888884
vt 0 0.13888888888888884
vt 0 0.03472222222222221
vt 0.4652777777777778 0.5833333333333333
vt 0.4652777777777778 0.6527777777777778
vt 0.3958333333333333 0.6527777777777778
vt 0.3958333333333333 0.5833333333333333
vn 1 0 0
vn -1 0 0
vn 0 1 0
vn 0 -1 0
vn 0 0 1
vn 0 0 -1
vn 1 0 0
vn -1 0 0
vn 0 1 0
vn 0 0 1
vn 0 0 -1
vn 0 0 1
vn 1 0 0
vn 0 0 -1
vn -1 0 0
vn 0 1 0
vn 0 -1 0
vn 0 0 1
vn 1 0 0
vn 0 0 -1
vn -1 0 0
vn 0 0 1
vn 1 0 0
vn 0 0 -1
vn -1 0 0
vn 0 0 1
vn 1 0 0
vn 0 0 -1
vn -1 0 0
vn 0 1 0
vn 0 -1 0
vn 0 0 1
vn 1 0 0
vn 0 0 -1
vn -1 0 0
vn 0 0 1
vn 1 0 0
vn 0 0 -1
vn -1 0 0
vn 0 1 0
vn 0 0 -1
vn 1 0 0
vn -1 0 0
vn 0 1 0
vn 0 0 1
vn 0 0 -1
vn 0 0 1
vn 0 -1 0
vn -1 0 0
vn -1 0 0
vn 1 0 0
vn 1 0 0
vn -1 0 0
vn 0 1 0
vn 0 0 1
vn 0 0 -1
vn 1 0 0
vn -1 0 0
vn 0 1 0
vn 0 0 1
vn 0 0 -1
vn 1 0 0
vn -1 0 0
vn 0 1 0
vn 0 0 1
vn 0 0 -1
vn 0 1 0
usemtl m_172712f4-742a-b193-1fb5-06c3ac7ca812
f 7/1/1 5/2/1 4/3/1 6/4/1
f 10/5/2 8/6/2 9/7/2 11/8/2
f 4/9/3 5/10/3 9/11/3 8/12/3
f 7/13/4 6/14/4 10/15/4 11/16/4
f 6/17/5 4/18/5 8/19/5 10/20/5
f 11/21/6 9/22/6 5/23/6 7/24/6
f 15/25/7 13/26/7 12/27/7 14/28/7
f 18/29/8 16/30/8 17/31/8 19/32/8
f 12/33/9 13/34/9 17/35/9 16/36/9
f 14/37/10 12/38/10 16/39/10 18/40/10
f 19/41/11 17/42/11 13/43/11 15/44/11
f 20/45/12 21/46/12 22/47/12 23/48/12
f 24/49/13 25/50/13 21/51/13 20/52/13
f 26/53/14 27/54/14 25/55/14 24/56/14
f 23/57/15 22/58/15 27/59/15 26/60/15
f 21/61/16 25/62/16 27/63/16 22/64/16
f 24/65/17 20/66/17 23/67/17 26/68/17
f 28/69/18 29/70/18 30/71/18 31/72/18
f 32/73/19 33/74/19 29/75/19 28/76/19
f 34/77/20 35/78/20 33/79/20 32/80/20
f 31/81/21 30/82/21 35/83/21 34/84/21
f 36/85/22 37/86/22 38/87/22 39/88/22
f 40/89/23 41/90/23 37/91/23 36/92/23
f 42/93/24 43/94/24 41/95/24 40/96/24
f 39/97/25 38/98/25 43/99/25 42/100/25
f 44/101/26 45/102/26 46/103/26 47/104/26
f 48/105/27 49/106/27 45/107/27 44/108/27
f 50/109/28 51/110/28 49/111/28 48/112/28
f 47/113/29 46/114/29 51/115/29 50/116/29
f 45/117/30 49/118/30 51/119/30 46/120/30
f 48/121/31 44/122/31 47/123/31 50/124/31
f 52/125/32 53/126/32 54/127/32 55/128/32
f 56/129/33 57/130/33 53/131/33 52/132/33
f 58/133/34 59/134/34 57/135/34 56/136/34
f 55/137/35 54/138/35 59/139/35 58/140/35
f 60/141/36 61/142/36 62/143/36 63/144/36
f 64/145/37 65/146/37 61/147/37 60/148/37
f 66/149/38 67/150/38 65/151/38 64/152/38
f 63/153/39 62/154/39 67/155/39 66/156/39
f 1/157/40 2/158/40 80/159/40 79/160/40
f 77/161/41 80/162/41 2/163/41 78/164/41
f 71/165/42 69/166/42 68/167/42 70/168/42
f 74/169/43 72/170/43 73/171/43 75/172/43
f 68/173/44 69/174/44 73/175/44 72/176/44
f 70/177/45 68/178/45 72/179/45 74/180/45
f 75/181/46 73/182/46 69/183/46 71/184/46
f 3/185/47 1/186/47 79/187/47 76/188/47
f 78/189/48 3/190/48 76/191/48 77/192/48
f 79/193/49 80/194/49 82/195/49 81/196/49
f 81/197/50 82/198/50 77/199/50 76/200/50
f 1/201/51 3/202/51 78/203/51 2/204/51
f 104/205/52 84/206/52 83/207/52 103/208/52
f 106/209/53 85/210/53 86/211/53 105/212/53
f 83/213/54 84/214/54 86/215/54 85/216/54
f 103/217/55 83/218/55 85/219/55 106/220/55
f 105/221/56 86/222/56 84/223/56 104/224/56
f 90/225/57 88/226/57 87/227/57 89/228/57
f 93/229/58 91/230/58 92/231/58 94/232/58
f 87/233/59 88/234/59 92/235/59 91/236/59
f 89/237/60 87/238/60 91/239/60 93/240/60
f 94/241/61 92/242/61 88/243/61 90/244/61
f 98/245/62 96/246/62 95/247/62 97/248/62
f 101/249/63 99/250/63 100/251/63 102/252/63
f 95/253/64 96/254/64 100/255/64 99/256/64
f 97/257/65 95/258/65 99/259/65 101/260/65
f 102/261/66 100/262/66 96/263/66 98/264/66
f 103/265/67 104/266/67 105/267/67 106/268/67
o cube_front
v 1 1.1875 0.1875
v 1 1.1875 -1.1875
v 1 0.125 0.1875
v 1 0.125 -1.1875
vt 0.1597222222222222 0.3194444444444444
vt 0.1597222222222222 0.20138888888888884
vt 0.3125 0.20138888888888884
vt 0.3125 0.3194444444444444
vn 1 0 0
usemtl cube_front
f 107/269/68 109/270/68 110/271/68 108/272/68
