# Made in Blockbench 5.1.4
mtllib connector_timer.mtl

o glass
v 0.71875 0.125 0.71875
v 0.71875 0.125 0.28125
v 0.75 0.125 0.28125
v 0.75 0.125 0.71875
v 0.25 0.125 0.71875
v 0.25 0.125 0.28125
v 0.28125 0.125 0.28125
v 0.28125 0.125 0.71875
v 0.75 0.125 0.71875
v 0.75 0.125 0.75
v 0.25 0.125 0.75
v 0.25 0.125 0.71875
v 0.25 0.125 0.28125
v 0.25 0.125 0.25
v 0.75 0.125 0.25
v 0.75 0.125 0.28125
v 0.6875 0.625 0.3125
v 0.6875 0.625 0.6875
v 0.75 0.625 0.6875
v 0.75 0.625 0.3125
v 0.25 0.625 0.3125
v 0.25 0.625 0.6875
v 0.3125 0.625 0.6875
v 0.3125 0.625 0.3125
v 0.25 0.625 0.75
v 0.75 0.625 0.75
v 0.25 0.625 0.25
v 0.75 0.625 0.25
v 0.3125 0.625 0.6875
v 0.75 0.125 0.25
v 0.25 0.125 0.25
v 0.25 0.625 0.25
v 0.75 0.625 0.25
v 0.25 0.125 0.75
v 0.75 0.125 0.75
v 0.25 0.125 0.25
v 0.25 0.125 0.75
v 0.25 0.625 0.75
v 0.25 0.625 0.25
v 0.3125 0.75 0.3125
v 0.6875 0.75 0.3125
v 0.3125 0.75 0.6875
v 0.6875 0.75 0.6875
v 0.6875 0.75 0.6875
v 0.3125 0.75 0.6875
v 0.3125 0.75 0.6875
v 0.625 0.75 0.375
v 0.625 0.75 0.625
v 0.6875 0.75 0.625
v 0.6875 0.75 0.375
v 0.3125 0.75 0.375
v 0.3125 0.75 0.625
v 0.375 0.75 0.625
v 0.375 0.75 0.375
vt 0.234375 0
vt 0.234375 0.21875
vt 0.21875 0.21875
vt 0.21875 0
vt 0.234375 0
vt 0.234375 0.21875
vt 0.21875 0.21875
vt 0.21875 0
vt 0.25 0
vt 0.25 0.25
vt 0.234375 0.25
vt 0.234375 0
vt 0.25 0
vt 0.25 0.25
vt 0.234375 0.25
vt 0.234375 0
vt 0.03125 0
vt 0.03125 0.1875
vt 0.0625 0.1875
vt 0.0625 0
vt 0.03125 0
vt 0.03125 0.1875
vt 0.0625 0.1875
vt 0.0625 0
vt 0 0
vt 0 0.25
vt 0.03125 0.25
vt 0.03125 0
vt 0 0
vt 0 0.25
vt 0.03125 0.25
vt 0.03125 0
vt 0 0.3125
vt 0.1875 0.3125
vt 0.1875 0.25
vt 0 0.25
vt 0.0625 0.5
vt 0.0625 0.3125
vt 0 0.3125
vt 0 0.5
vt 0 0.3125
vt 0.1875 0.3125
vt 0.1875 0.25
vt 0 0.25
vt 0.1875 0.3125
vt 0 0.3125
vt 0 0.25
vt 0.1875 0.25
vt 0 0
vt 0 0.25
vt 0.25 0.25
vt 0.25 0
vt 0 0
vt 0 0.25
vt 0.25 0.25
vt 0.25 0
vt 0 0
vt 0 0.25
vt 0.25 0.25
vt 0.25 0
vt 0 0
vt 0 0.25
vt 0.25 0.25
vt 0.25 0
vt 0 0.0625
vt 0 0.25
vt 0.03125 0.25
vt 0.03125 0.0625
vt 0 0.0625
vt 0 0.25
vt 0.03125 0.25
vt 0.03125 0.0625
vt 0.03125 0.0625
vt 0.03125 0.1875
vt 0.0625 0.1875
vt 0.0625 0.0625
vt 0.03125 0.0625
vt 0.03125 0.1875
vt 0.0625 0.1875
vt 0.0625 0.0625
vn 0 -1 0
vn 0 -1 0
vn 0 -1 0
vn 0 -1 0
vn 0 1 0
vn 0 1 0
vn 0 1 0
vn 0 1 0
vn 0 0 1
vn 0 0 -1
vn 1 0 0
vn -1 0 0
vn 0 0 -1
vn 0 0 1
vn 1 0 0
vn -1 0 0
vn 0 1 0
vn 0 1 0
vn 0 1 0
vn 0 1 0
usemtl m_59583599-5e12-b9c6-7fd7-261bf9b30f8b
f 1/1/1 2/2/1 3/3/1 4/4/1
f 5/5/2 6/6/2 7/7/2 8/8/2
f 9/9/3 10/10/3 11/11/3 12/12/3
f 13/13/4 14/14/4 15/15/4 16/16/4
f 17/17/5 18/18/5 19/19/5 20/20/5
f 21/21/6 22/22/6 23/23/6 24/24/6
f 22/25/7 25/26/7 26/27/7 19/28/7
f 27/29/8 21/30/8 20/31/8 28/32/8
f 44/33/9 45/34/9 23/35/9 18/36/9
f 17/37/10 24/38/10 40/39/10 41/40/10
f 41/41/11 44/42/11 18/43/11 17/44/11
f 46/45/12 40/46/12 24/47/12 29/48/12
f 30/49/13 31/50/13 32/51/13 33/52/13
f 26/53/14 25/54/14 34/55/14 35/56/14
f 28/57/15 26/58/15 35/59/15 15/60/15
f 36/61/16 37/62/16 38/63/16 39/64/16
f 40/65/17 51/66/17 50/67/17 41/68/17
f 52/69/18 42/70/18 43/71/18 49/72/18
f 47/73/19 48/74/19 49/75/19 50/76/19
f 51/77/20 52/78/20 53/79/20 54/80/20
o cube
v 0.59375 0.1875 0.59375
v 0.59375 0.46875 0.59375
v 0.65625 0.46875 0.59375
v 0.65625 0.1875 0.59375
v 0.65625 0.46875 0.65625
v 0.65625 0.1875 0.65625
v 0.59375 0.46875 0.65625
v 0.59375 0.1875 0.65625
v 0.59375 0.46875 0.59375
v 0.59375 0.53125 0.59375
v 0.65625 0.53125 0.59375
v 0.65625 0.46875 0.59375
v 0.65625 0.53125 0.71875
v 0.65625 0.46875 0.71875
v 0.59375 0.53125 0.71875
v 0.59375 0.46875 0.71875
v 0.5625 0.125 0.5625
v 0.5625 0.1875 0.5625
v 0.6875 0.1875 0.5625
v 0.6875 0.125 0.5625
v 0.6875 0.1875 0.6875
v 0.6875 0.125 0.6875
v 0.5625 0.1875 0.6875
v 0.5625 0.125 0.6875
v 0.34375 0.1875 0.59375
v 0.34375 0.46875 0.59375
v 0.40625 0.46875 0.59375
v 0.40625 0.1875 0.59375
v 0.40625 0.46875 0.65625
v 0.40625 0.1875 0.65625
v 0.34375 0.46875 0.65625
v 0.34375 0.1875 0.65625
v 0.34375 0.46875 0.59375
v 0.34375 0.53125 0.59375
v 0.40625 0.53125 0.59375
v 0.40625 0.46875 0.59375
v 0.40625 0.53125 0.71875
v 0.40625 0.46875 0.71875
v 0.34375 0.53125 0.71875
v 0.34375 0.46875 0.71875
v 0.3125 0.125 0.5625
v 0.3125 0.1875 0.5625
v 0.4375 0.1875 0.5625
v 0.4375 0.125 0.5625
v 0.4375 0.1875 0.6875
v 0.4375 0.125 0.6875
v 0.3125 0.1875 0.6875
v 0.3125 0.125 0.6875
v 0.375 0.51953125 0.40625
v 0.375 0.58203125 0.40625
v 0.5 0.58203125 0.40625
v 0.5 0.51953125 0.40625
v 0.5 0.58203125 0.46875
v 0.5 0.51953125 0.46875
v 0.375 0.58203125 0.46875
v 0.375 0.51953125 0.46875
v 0.5625 0.1875 0.390625
v 0.5625 0.3125 0.390625
v 0.6875 0.3125 0.390625
v 0.6875 0.1875 0.390625
v 0.6875 0.3125 0.46875
v 0.6875 0.1875 0.46875
v 0.5625 0.3125 0.46875
v 0.5625 0.1875 0.46875
v 0.34375 0.3828125 0.375
v 0.34375 0.4453125 0.375
v 0.59375 0.4453125 0.375
v 0.59375 0.3828125 0.375
v 0.59375 0.4453125 0.4375
v 0.59375 0.3828125 0.4375
v 0.34375 0.4453125 0.4375
v 0.34375 0.3828125 0.4375
v 0.59375 0.3515625 0.34375
v 0.59375 0.4765625 0.34375
v 0.65625 0.4765625 0.34375
v 0.65625 0.3515625 0.34375
v 0.65625 0.4765625 0.46875
v 0.65625 0.3515625 0.46875
v 0.59375 0.4765625 0.46875
v 0.59375 0.3515625 0.46875
v 0.3125 0.125 0.34375
v 0.3125 0.25 0.34375
v 0.4375 0.25 0.34375
v 0.4375 0.125 0.34375
v 0.4375 0.25 0.46875
v 0.4375 0.125 0.46875
v 0.3125 0.25 0.46875
v 0.3125 0.125 0.46875
v 0.28125 0.125 0.46875
v 0.28125 0.625 0.46875
v 0.71875 0.625 0.46875
v 0.71875 0.125 0.46875
v 0.71875 0.625 0.53125
v 0.71875 0.125 0.53125
v 0.28125 0.625 0.53125
v 0.28125 0.125 0.53125
v 0.34375 0.4375 0.75
v 0.34375 0.5625 0.75
v 0.40625 0.5625 0.75
v 0.40625 0.4375 0.75
v 0.40625 0.5625 0.875
v 0.40625 0.4375 0.875
v 0.34375 0.5625 0.875
v 0.34375 0.4375 0.875
v 0.59375 0.4375 0.75
v 0.59375 0.5625 0.75
v 0.65625 0.5625 0.75
v 0.65625 0.4375 0.75
v 0.65625 0.5625 0.875
v 0.65625 0.4375 0.875
v 0.59375 0.5625 0.875
v 0.59375 0.4375 0.875
v 0.28125 0 0.28125
v 0.28125 0.125 0.28125
v 0.71875 0.125 0.28125
v 0.71875 0 0.28125
v 0.71875 0.125 0.71875
v 0.71875 0 0.71875
v 0.28125 0.125 0.71875
v 0.28125 0 0.71875
v 0.375 0.75 0.375
v 0.375 1 0.375
v 0.625 1 0.375
v 0.625 0.75 0.375
v 0.625 1 0.625
v 0.625 0.75 0.625
v 0.375 1 0.625
v 0.375 0.75 0.625
v 0.25 0.25 0.875
v 0.25 0.75 0.875
v 0.75 0.75 0.875
v 0.75 0.25 0.875
v 0.75 0.75 1
v 0.75 0.25 1
v 0.25 0.75 1
v 0.25 0.25 1
v 0.375 0.625 0.375
v 0.375 0.75 0.375
v 0.625 0.75 0.375
v 0.625 0.625 0.375
v 0.625 0.75 0.625
v 0.625 0.625 0.625
v 0.375 0.75 0.625
v 0.375 0.625 0.625
v 0.375 0.75 0.375
v 0.375 1 0.375
v 0.625 1 0.375
v 0.625 0.75 0.375
vt 0.34375 0.5625
vt 0.34375 0.734375
vt 0.375 0.734375
vt 0.375 0.5625
vt 0.34375 0.5625
vt 0.34375 0.734375
vt 0.375 0.734375
vt 0.375 0.5625
vt 0.34375 0.5625
vt 0.34375 0.734375
vt 0.375 0.734375
vt 0.375 0.5625
vt 0.34375 0.5625
vt 0.34375 0.734375
vt 0.375 0.734375
vt 0.375 0.5625
vt 0 0
vt 0 1
vt 1 1
vt 1 0
vt 0 0
vt 0 1
vt 1 1
vt 1 0
vt 0.34375 0.53125
vt 0.34375 0.5625
vt 0.375 0.5625
vt 0.375 0.53125
vt 0.34375 0.59375
vt 0.375 0.59375
vt 0.375 0.53125
vt 0.34375 0.53125
vt 0.34375 0.53125
vt 0.34375 0.5625
vt 0.375 0.5625
vt 0.375 0.53125
vt 0.34375 0.59375
vt 0.375 0.59375
vt 0.375 0.53125
vt 0.34375 0.53125
vt 0.34375 0.53125
vt 0.34375 0.59375
vt 0.375 0.59375
vt 0.375 0.53125
vt 0.34375 0.53125
vt 0.34375 0.59375
vt 0.375 0.59375
vt 0.375 0.53125
vt 0.28125 0.625
vt 0.28125 0.65625
vt 0.34375 0.65625
vt 0.34375 0.625
vt 0.28125 0.625
vt 0.28125 0.65625
vt 0.34375 0.65625
vt 0.34375 0.625
vt 0.28125 0.625
vt 0.28125 0.65625
vt 0.34375 0.65625
vt 0.34375 0.625
vt 0.28125 0.625
vt 0.28125 0.65625
vt 0.34375 0.65625
vt 0.34375 0.625
vt 0.28125 0.625
vt 0.28125 0.6875
vt 0.34375 0.6875
vt 0.34375 0.625
vt 0 0
vt 0 1
vt 1 1
vt 1 0
vt 0.34375 0.5625
vt 0.34375 0.734375
vt 0.375 0.734375
vt 0.375 0.5625
vt 0.34375 0.5625
vt 0.34375 0.734375
vt 0.375 0.734375
vt 0.375 0.5625
vt 0.34375 0.5625
vt 0.34375 0.734375
vt 0.375 0.734375
vt 0.375 0.5625
vt 0.34375 0.5625
vt 0.34375 0.734375
vt 0.375 0.734375
vt 0.375 0.5625
vt 0 0
vt 0 1
vt 1 1
vt 1 0
vt 0 0
vt 0 1
vt 1 1
vt 1 0
vt 0.34375 0.53125
vt 0.34375 0.5625
vt 0.375 0.5625
vt 0.375 0.53125
vt 0.34375 0.59375
vt 0.375 0.59375
vt 0.375 0.53125
vt 0.34375 0.53125
vt 0.34375 0.53125
vt 0.34375 0.5625
vt 0.375 0.5625
vt 0.375 0.53125
vt 0.34375 0.59375
vt 0.375 0.59375
vt 0.375 0.53125
vt 0.34375 0.53125
vt 0.34375 0.53125
vt 0.34375 0.59375
vt 0.375 0.59375
vt 0.375 0.53125
vt 0.34375 0.53125
vt 0.34375 0.59375
vt 0.375 0.59375
vt 0.375 0.53125
vt 0.28125 0.625
vt 0.28125 0.65625
vt 0.34375 0.65625
vt 0.34375 0.625
vt 0.28125 0.625
vt 0.28125 0.65625
vt 0.34375 0.65625
vt 0.34375 0.625
vt 0.28125 0.625
vt 0.28125 0.65625
vt 0.34375 0.65625
vt 0.34375 0.625
vt 0.28125 0.625
vt 0.28125 0.65625
vt 0.34375 0.65625
vt 0.34375 0.625
vt 0.28125 0.625
vt 0.28125 0.6875
vt 0.34375 0.6875
vt 0.34375 0.625
vt 0 0
vt 0 1
vt 1 1
vt 1 0
vt 0.28125 0.59375
vt 0.28125 0.625
vt 0.34375 0.625
vt 0.34375 0.59375
vt 0.3125 0.5625
vt 0.3125 0.59375
vt 0.34375 0.59375
vt 0.34375 0.5625
vt 0 0
vt 0 1
vt 1 1
vt 1 0
vt 0.3125 0.5625
vt 0.3125 0.59375
vt 0.34375 0.59375
vt 0.34375 0.5625
vt 0.28125 0.5625
vt 0.28125 0.59375
vt 0.34375 0.59375
vt 0.34375 0.5625
vt 0.28125 0.5625
vt 0.28125 0.59375
vt 0.34375 0.59375
vt 0.34375 0.5625
vt 0.28125 0.6875
vt 0.28125 0.75
vt 0.34375 0.75
vt 0.34375 0.6875
vt 0.28125 0.6875
vt 0.28125 0.75
vt 0.3125 0.75
vt 0.3125 0.6875
vt 0 0
vt 0 1
vt 1 1
vt 1 0
vt 0.28125 0.6875
vt 0.28125 0.75
vt 0.3125 0.75
vt 0.3125 0.6875
vt 0.28125 0.6875
vt 0.28125 0.71875
vt 0.34375 0.71875
vt 0.34375 0.6875
vt 0.28125 0.6875
vt 0.28125 0.71875
vt 0.34375 0.71875
vt 0.34375 0.6875
vt 0.28125 0.75
vt 0.25 0.75
vt 0.25 0.625
vt 0.28125 0.625
vt 0 0
vt 0 1
vt 1 1
vt 1 0
vt 0.28125 0.75
vt 0.25 0.75
vt 0.25 0.625
vt 0.28125 0.625
vt 0.25 0.625
vt 0.25 0.65625
vt 0.28125 0.65625
vt 0.28125 0.625
vt 0.28125 0.75
vt 0.25 0.75
vt 0.25 0.625
vt 0.28125 0.625
vt 0.28125 0.75
vt 0.25 0.75
vt 0.25 0.625
vt 0.28125 0.625
vt 0.28125 0.625
vt 0.28125 0.6875
vt 0.3125 0.6875
vt 0.3125 0.625
vt 0.28125 0.625
vt 0.28125 0.6875
vt 0.34375 0.6875
vt 0.34375 0.625
vt 0 0
vt 0 1
vt 1 1
vt 1 0
vt 0.28125 0.625
vt 0.28125 0.6875
vt 0.34375 0.6875
vt 0.34375 0.625
vt 0.28125 0.625
vt 0.28125 0.6875
vt 0.3125 0.6875
vt 0.3125 0.625
vt 0.28125 0.625
vt 0.28125 0.6875
vt 0.3125 0.6875
vt 0.3125 0.625
vt 0.28125 0.53125
vt 0.28125 0.59375
vt 0.34375 0.59375
vt 0.34375 0.53125
vt 0.34375 0.5625
vt 0.28125 0.5625
vt 0.28125 0.625
vt 0.34375 0.625
vt 0 0
vt 0 1
vt 1 1
vt 1 0
vt 0.28125 0.625
vt 0.34375 0.625
vt 0.34375 0.5625
vt 0.28125 0.5625
vt 0.28125 0.5625
vt 0.28125 0.625
vt 0.34375 0.625
vt 0.34375 0.5625
vt 0 0
vt 0 1
vt 1 1
vt 1 0
vt 0 0.5
vt 0 0.75
vt 0.21875 0.75
vt 0.21875 0.5
vt 0 0.5
vt 0 0.75
vt 0.03125 0.75
vt 0.03125 0.5
vt 0 0.5
vt 0 0.75
vt 0.21875 0.75
vt 0.21875 0.5
vt 0 0.5
vt 0 0.75
vt 0.03125 0.75
vt 0.03125 0.5
vt 0.25 0.5
vt 0.21875 0.5
vt 0.21875 0.75
vt 0.25 0.75
vt 0 0
vt 0 1
vt 1 1
vt 1 0
vt 0.28125 0.6875
vt 0.28125 0.75
vt 0.3125 0.75
vt 0.3125 0.6875
vt 0.28125 0.6875
vt 0.28125 0.75
vt 0.34375 0.75
vt 0.34375 0.6875
vt 0 0
vt 0 1
vt 1 1
vt 1 0
vt 0.28125 0.6875
vt 0.28125 0.75
vt 0.34375 0.75
vt 0.34375 0.6875
vt 0.3125 0.75
vt 0.3125 0.6875
vt 0.28125 0.6875
vt 0.28125 0.75
vt 0.3125 0.75
vt 0.3125 0.6875
vt 0.28125 0.6875
vt 0.28125 0.75
vt 0.28125 0.6875
vt 0.28125 0.75
vt 0.3125 0.75
vt 0.3125 0.6875
vt 0.28125 0.6875
vt 0.28125 0.75
vt 0.34375 0.75
vt 0.34375 0.6875
vt 0 0
vt 0 1
vt 1 1
vt 1 0
vt 0.28125 0.6875
vt 0.28125 0.75
vt 0.34375 0.75
vt 0.34375 0.6875
vt 0.3125 0.75
vt 0.3125 0.6875
vt 0.28125 0.6875
vt 0.28125 0.75
vt 0.3125 0.75
vt 0.3125 0.6875
vt 0.28125 0.6875
vt 0.28125 0.75
vt 0.625 0.78125
vt 0.625 0.84375
vt 0.84375 0.84375
vt 0.84375 0.78125
vt 0.625 0.78125
vt 0.625 0.84375
vt 0.84375 0.84375
vt 0.84375 0.78125
vt 0.625 0.78125
vt 0.625 0.84375
vt 0.84375 0.84375
vt 0.84375 0.78125
vt 0.625 0.78125
vt 0.625 0.84375
vt 0.84375 0.84375
vt 0.84375 0.78125
vt 0.625 0.78125
vt 0.625 1
vt 0.84375 1
vt 0.84375 0.78125
vt 0.625 0.78125
vt 0.625 1
vt 0.84375 1
vt 0.84375 0.78125
vt 0 0.875
vt 0 1
vt 0.125 1
vt 0.125 0.875
vt 0 0.875
vt 0 1
vt 0.125 1
vt 0.125 0.875
vt 0 0.875
vt 0 1
vt 0.125 1
vt 0.125 0.875
vt 0 0.875
vt 0 1
vt 0.125 1
vt 0.125 0.875
vt 0.375 0.75
vt 0.375 1
vt 0.625 1
vt 0.625 0.75
vt 0.5625 0.75
vt 0.5625 1
vt 0.625 1
vt 0.625 0.75
vt 0.125 0.75
vt 0.125 1
vt 0.375 1
vt 0.375 0.75
vt 0.5625 0.75
vt 0.5625 1
vt 0.625 1
vt 0.625 0.75
vt 0.625 0.75
vt 0.5625 0.75
vt 0.5625 1
vt 0.625 1
vt 0.625 0.75
vt 0.5625 0.75
vt 0.5625 1
vt 0.625 1
vt 0 0.75
vt 0 0.8125
vt 0.125 0.8125
vt 0.125 0.75
vt 0 0.75
vt 0 0.8125
vt 0.125 0.8125
vt 0.125 0.75
vt 0 0.75
vt 0 0.8125
vt 0.125 0.8125
vt 0.125 0.75
vt 0 0.75
vt 0 0.8125
vt 0.125 0.8125
vt 0.125 0.75
vt 0 0.75
vt 0 0.875
vt 0.125 0.875
vt 0.125 0.75
vt 0 0.875
vt 0 1
vt 0.125 1
vt 0.125 0.875
vn 0 0 -1
vn 1 0 0
vn 0 0 1
vn -1 0 0
vn 0 1 0
vn 0 -1 0
vn 0 0 -1
vn 1 0 0
vn 0 0 1
vn -1 0 0
vn 0 1 0
vn 0 -1 0
vn 0 0 -1
vn 1 0 0
vn 0 0 1
vn -1 0 0
vn 0 1 0
vn 0 -1 0
vn 0 0 -1
vn 1 0 0
vn 0 0 1
vn -1 0 0
vn 0 1 0
vn 0 -1 0
vn 0 0 -1
vn 1 0 0
vn 0 0 1
vn -1 0 0
vn 0 1 0
vn 0 -1 0
vn 0 0 -1
vn 1 0 0
vn 0 0 1
vn -1 0 0
vn 0 1 0
vn 0 -1 0
vn 0 0 -1
vn 1 0 0
vn 0 0 1
vn -1 0 0
vn 0 1 0
vn 0 -1 0
vn 0 0 -1
vn 1 0 0
vn 0 0 1
vn -1 0 0
vn 0 1 0
vn 0 -1 0
vn 0 0 -1
vn 1 0 0
vn 0 0 1
vn -1 0 0
vn 0 1 0
vn 0 -1 0
vn 0 0 -1
vn 1 0 0
vn 0 0 1
vn -1 0 0
vn 0 1 0
vn 0 -1 0
vn 0 0 -1
vn 1 0 0
vn 0 0 1
vn -1 0 0
vn 0 1 0
vn 0 -1 0
vn 0 0 -1
vn 1 0 0
vn 0 0 1
vn -1 0 0
vn 0 1 0
vn 0 -1 0
vn 0 0 -1
vn 1 0 0
vn 0 0 1
vn -1 0 0
vn 0 1 0
vn 0 -1 0
vn 0 0 -1
vn 1 0 0
vn 0 0 1
vn -1 0 0
vn 0 1 0
vn 0 -1 0
vn 0 0 -1
vn 1 0 0
vn 0 0 1
vn -1 0 0
vn 0 1 0
vn 0 -1 0
vn 1 0 0
vn 0 0 1
vn -1 0 0
vn 0 1 0
vn 0 0 -1
vn 1 0 0
vn 0 0 1
vn -1 0 0
vn 0 1 0
vn 0 -1 0
vn 0 0 -1
vn 1 0 0
vn 0 0 1
vn -1 0 0
vn 0 -1 0
vn 0 0 -1
usemtl m_59583599-5e12-b9c6-7fd7-261bf9b30f8b
f 55/81/21 56/82/21 57/83/21 58/84/21
f 58/85/22 57/86/22 59/87/22 60/88/22
f 60/89/23 59/90/23 61/91/23 62/92/23
f 62/93/24 61/94/24 56/95/24 55/96/24
f 56/97/25 61/98/25 59/99/25 57/100/25
f 62/101/26 55/102/26 58/103/26 60/104/26
f 63/105/27 64/106/27 65/107/27 66/108/27
f 66/109/28 65/110/28 67/111/28 68/112/28
f 68/113/29 67/114/29 69/115/29 70/116/29
f 70/117/30 69/118/30 64/119/30 63/120/30
f 64/121/31 69/122/31 67/123/31 65/124/31
f 70/125/32 63/126/32 66/127/32 68/128/32
f 71/129/33 72/130/33 73/131/33 74/132/33
f 74/133/34 73/134/34 75/135/34 76/136/34
f 76/137/35 75/138/35 77/139/35 78/140/35
f 78/141/36 77/142/36 72/143/36 71/144/36
f 72/145/37 77/146/37 75/147/37 73/148/37
f 78/149/38 71/150/38 74/151/38 76/152/38
f 79/153/39 80/154/39 81/155/39 82/156/39
f 82/157/40 81/158/40 83/159/40 84/160/40
f 84/161/41 83/162/41 85/163/41 86/164/41
f 86/165/42 85/166/42 80/167/42 79/168/42
f 80/169/43 85/170/43 83/171/43 81/172/43
f 86/173/44 79/174/44 82/175/44 84/176/44
f 87/177/45 88/178/45 89/179/45 90/180/45
f 90/181/46 89/182/46 91/183/46 92/184/46
f 92/185/47 91/186/47 93/187/47 94/188/47
f 94/189/48 93/190/48 88/191/48 87/192/48
f 88/193/49 93/194/49 91/195/49 89/196/49
f 94/197/50 87/198/50 90/199/50 92/200/50
f 95/201/51 96/202/51 97/203/51 98/204/51
f 98/205/52 97/206/52 99/207/52 100/208/52
f 100/209/53 99/210/53 101/211/53 102/212/53
f 102/213/54 101/214/54 96/215/54 95/216/54
f 96/217/55 101/218/55 99/219/55 97/220/55
f 102/221/56 95/222/56 98/223/56 100/224/56
f 103/225/57 104/226/57 105/227/57 106/228/57
f 106/229/58 105/230/58 107/231/58 108/232/58
f 108/233/59 107/234/59 109/235/59 110/236/59
f 110/237/60 109/238/60 104/239/60 103/240/60
f 104/241/61 109/242/61 107/243/61 105/244/61
f 110/245/62 103/246/62 106/247/62 108/248/62
f 111/249/63 112/250/63 113/251/63 114/252/63
f 114/253/64 113/254/64 115/255/64 116/256/64
f 116/257/65 115/258/65 117/259/65 118/260/65
f 118/261/66 117/262/66 112/263/66 111/264/66
f 112/265/67 117/266/67 115/267/67 113/268/67
f 118/269/68 111/270/68 114/271/68 116/272/68
f 119/273/69 120/274/69 121/275/69 122/276/69
f 122/277/70 121/278/70 123/279/70 124/280/70
f 124/281/71 123/282/71 125/283/71 126/284/71
f 126/285/72 125/286/72 120/287/72 119/288/72
f 120/289/73 125/290/73 123/291/73 121/292/73
f 126/293/74 119/294/74 122/295/74 124/296/74
f 127/297/75 128/298/75 129/299/75 130/300/75
f 130/301/76 129/302/76 131/303/76 132/304/76
f 132/305/77 131/306/77 133/307/77 134/308/77
f 134/309/78 133/310/78 128/311/78 127/312/78
f 128/313/79 133/314/79 131/315/79 129/316/79
f 134/317/80 127/318/80 130/319/80 132/320/80
f 135/321/81 136/322/81 137/323/81 138/324/81
f 138/325/82 137/326/82 139/327/82 140/328/82
f 140/329/83 139/330/83 141/331/83 142/332/83
f 142/333/84 141/334/84 136/335/84 135/336/84
f 136/337/85 141/338/85 139/339/85 137/340/85
f 142/341/86 135/342/86 138/343/86 140/344/86
f 143/345/87 144/346/87 145/347/87 146/348/87
f 146/349/88 145/350/88 147/351/88 148/352/88
f 148/353/89 147/354/89 149/355/89 150/356/89
f 150/357/90 149/358/90 144/359/90 143/360/90
f 144/361/91 149/362/91 147/363/91 145/364/91
f 150/365/92 143/366/92 146/367/92 148/368/92
f 151/369/93 152/370/93 153/371/93 154/372/93
f 154/373/94 153/374/94 155/375/94 156/376/94
f 156/377/95 155/378/95 157/379/95 158/380/95
f 158/381/96 157/382/96 152/383/96 151/384/96
f 152/385/97 157/386/97 155/387/97 153/388/97
f 158/389/98 151/390/98 154/391/98 156/392/98
f 159/393/99 160/394/99 161/395/99 162/396/99
f 162/397/100 161/398/100 163/399/100 164/400/100
f 164/401/101 163/402/101 165/403/101 166/404/101
f 166/405/102 165/406/102 160/407/102 159/408/102
f 160/409/103 165/410/103 163/411/103 161/412/103
f 166/413/104 159/414/104 162/415/104 164/416/104
f 167/417/105 168/418/105 169/419/105 170/420/105
f 170/421/106 169/422/106 171/423/106 172/424/106
f 172/425/107 171/426/107 173/427/107 174/428/107
f 174/429/108 173/430/108 168/431/108 167/432/108
f 168/433/109 173/434/109 171/435/109 169/436/109
f 174/437/110 167/438/110 170/439/110 172/440/110
f 178/441/111 177/442/111 179/443/111 180/444/111
f 180/445/112 179/446/112 181/447/112 182/448/112
f 182/449/113 181/450/113 176/451/113 175/452/113
f 176/453/114 181/454/114 179/455/114 177/456/114
f 183/457/115 184/458/115 185/459/115 186/460/115
f 186/461/116 185/462/116 187/463/116 188/464/116
f 188/465/117 187/466/117 189/467/117 190/468/117
f 190/469/118 189/470/118 184/471/118 183/472/118
f 184/473/119 189/474/119 187/475/119 185/476/119
f 190/477/120 183/478/120 186/479/120 188/480/120
f 191/481/121 192/482/121 193/483/121 194/484/121
f 194/485/122 193/486/122 195/487/122 196/488/122
f 196/489/123 195/490/123 197/491/123 198/492/123
f 198/493/124 197/494/124 192/495/124 191/496/124
f 198/497/125 191/498/125 194/499/125 196/500/125
f 199/501/126 200/502/126 201/503/126 202/504/126