# Made in Blockbench 4.12.6
mtllib solar_melter.mtl

o cube
v 1.75 1.5 1
v 1.75 2 1
v 1.75 2 2
v 1.75 1.5 2
v 1.25 1.5 2
v 1.25 2 2
v 1.25 2 1
v 1.25 1.5 1
v 2.4375 2.4375 1.5
v 2.4375 2.8125 1.5
v 2.5 2.8125 1.5
v 2.5 2.4375 1.5
v 2.5 2.8125 1.875
v 2.5 2.4375 1.875
v 2.4375 2.8125 1.875
v 2.4375 2.4375 1.875
v 2.4375 2.375 1.125
v 2.4375 2.875 1.125
v 2.5 2.875 1.125
v 2.5 2.375 1.125
v 2.5 2.875 1.375
v 2.5 2.375 1.375
v 2.4375 2.875 1.375
v 2.4375 2.375 1.375
v 0.5625 2.25 0.5625
v 0.5625 3 0.5625
v 2.4375 3 0.5625
v 2.4375 2.25 0.5625
v 2.4375 3 2.4375
v 2.4375 2.25 2.4375
v 0.5625 3 2.4375
v 0.5625 2.25 2.4375
v 0.5 2 0.5
v 0.5 2.25 0.5
v 2.5 2.25 0.5
v 2.5 2 0.5
v 2.5 2.25 2.5
v 2.5 2 2.5
v 0.5 2.25 2.5
v 0.5 2 2.5
v 0.5 3 0.5
v 0.5 3.25 0.5
v 2.5 3.25 0.5
v 2.5 3 0.5
v 2.5 3.25 2.5
v 2.5 3 2.5
v 0.5 3.25 2.5
v 0.5 3 2.5
v 0.75 1 2.25
v 0.25 1 2.25
v 0.25 2 2.25
v 0.75 2 2.25
v 0.25 1 2.75
v 0.25 2 2.75
v 0.75 1 2.75
v 0.75 2 2.75
v 0.75 1 0.25
v 0.25 1 0.25
v 0.25 2 0.25
v 0.75 2 0.25
v 0.25 1 0.75
v 0.25 2 0.75
v 0.75 1 0.75
v 0.75 2 0.75
v 2.75 1 2.25
v 2.25 1 2.25
v 2.25 2 2.25
v 2.75 2 2.25
v 2.25 1 2.75
v 2.25 2 2.75
v 2.75 1 2.75
v 2.75 2 2.75
v 2.75 1 0.25
v 2.25 1 0.25
v 2.25 2 0.25
v 2.75 2 0.25
v 2.25 1 0.75
v 2.25 2 0.75
v 2.75 1 0.75
v 2.75 2 0.75
v 0.6875 6 2.3125
v 0.3125 6 2.3125
v 0.3125 10 2.3125
v 0.6875 10 2.3125
v 0.3125 6 2.6875
v 0.3125 10 2.6875
v 0.6875 6 2.6875
v 0.6875 10 2.6875
v 0.375 2.28125 0.44140625
v 0.375 2.22265625 0.68359375
v 0.375 5.71875 1.55859375
v 0.375 5.77734375 1.31640625
v 0.625 9.77734375 2.31640625
v 0.625 9.71875 2.55859375
v 0.625 6.22265625 1.68359375
v 0.625 6.28125 1.44140625
v 0.375 9.77734375 2.31640625
v 0.375 6.28125 1.44140625
v 0.625 2.28125 0.44140625
v 0.625 5.77734375 1.31640625
v 0.625 2.22265625 0.68359375
v 0.625 5.71875 1.55859375
v 0.6875 6.5 1.25
v 0.3125 6.5 1.25
v 0.3125 6.5 1.75
v 0.6875 6.5 1.75
v 0.6875 5.5 1.75
v 0.3125 5.5 1.75
v 0.3125 5.5 1.25
v 0.6875 5.5 1.25
v 0.375 2.22265625 2.31640625
v 0.375 2.28125 2.55859375
v 0.375 5.77734375 1.68359375
v 0.375 5.71875 1.44140625
v 0.625 2.22265625 2.31640625
v 0.625 5.71875 1.44140625
v 0.625 2.28125 2.55859375
v 0.625 5.77734375 1.68359375
v 0.375 9.71875 2.55859375
v 0.375 6.22265625 1.68359375
v 0.375 9.77734375 0.68359375
v 0.375 9.71875 0.44140625
v 0.375 6.22265625 1.31640625
v 0.375 6.28125 1.55859375
v 0.625 9.77734375 0.68359375
v 0.625 6.28125 1.55859375
v 0.625 9.71875 0.44140625
v 0.625 6.22265625 1.31640625
v 2.375 2.28125 0.44140625
v 2.375 2.22265625 0.68359375
v 2.375 5.71875 1.55859375
v 2.375 5.77734375 1.31640625
v 2.625 2.28125 0.44140625
v 2.625 5.77734375 1.31640625
v 2.3125 5.5 1.75
v 2.6875 5.5 1.75
v 2.6875 6.5 1.75
v 2.3125 6.5 1.75
v 2.625 9.71875 2.55859375
v 2.375 9.71875 2.55859375
v 2.375 6.22265625 1.68359375
v 2.625 6.22265625 1.68359375
v 2.375 9.77734375 0.68359375
v 2.375 9.71875 0.44140625
v 2.375 6.22265625 1.31640625
v 2.375 6.28125 1.55859375
v 2.625 2.22265625 0.68359375
v 2.625 5.71875 1.55859375
v 2.625 9.77734375 2.31640625
v 2.625 6.28125 1.44140625
v 2.625 9.77734375 0.68359375
v 2.625 6.28125 1.55859375
v 2.375 2.22265625 2.31640625
v 2.375 2.28125 2.55859375
v 2.375 5.77734375 1.68359375
v 2.375 5.71875 1.44140625
v 2.625 9.71875 0.44140625
v 2.625 6.22265625 1.31640625
v 2.375 9.77734375 2.31640625
v 2.375 6.28125 1.44140625
v 2.625 2.22265625 2.31640625
v 2.625 5.71875 1.44140625
v 2.625 2.28125 2.55859375
v 2.625 5.77734375 1.68359375
v 2.6875 6.5 1.25
v 2.3125 6.5 1.25
v 2.3125 5.5 1.25
v 2.6875 5.5 1.25
v 0.44140625 9.71875 0.625
v 0.44140625 9.71875 0.375
v 1.31640625 6.22265625 0.375
v 1.31640625 6.22265625 0.625
v 0.68359375 9.77734375 0.375
v 1.55859375 6.28125 0.375
v 0.68359375 9.77734375 0.625
v 1.55859375 6.28125 0.625
v 1.75 5.5 0.6875
v 1.75 5.5 0.3125
v 1.75 6.5 0.3125
v 1.75 6.5 0.6875
v 1.25 5.5 0.3125
v 1.25 6.5 0.3125
v 1.25 5.5 0.6875
v 1.25 6.5 0.6875
v 0.6875 2 2.3125
v 0.3125 2 2.3125
v 0.3125 2 2.6875
v 0.6875 2 2.6875
v 2.6875 6 2.3125
v 2.3125 6 2.3125
v 2.3125 10 2.3125
v 2.6875 10 2.3125
v 2.3125 6 2.6875
v 2.3125 10 2.6875
v 2.6875 6 2.6875
v 2.6875 10 2.6875
v 2.6875 2 2.3125
v 2.3125 2 2.3125
v 2.3125 2 2.6875
v 2.6875 2 2.6875
v 0.6875 6 0.3125
v 0.3125 6 0.3125
v 0.3125 10 0.3125
v 0.6875 10 0.3125
v 0.3125 6 0.6875
v 0.3125 10 0.6875
v 0.6875 6 0.6875
v 0.6875 10 0.6875
v 0.6875 2 0.3125
v 0.3125 2 0.3125
v 0.3125 2 0.6875
v 0.6875 2 0.6875
v 2.6875 6 0.3125
v 2.3125 6 0.3125
v 2.3125 10 0.3125
v 2.6875 10 0.3125
v 2.3125 6 0.6875
v 2.3125 10 0.6875
v 2.6875 6 0.6875
v 2.6875 10 0.6875
v 2.6875 2 0.3125
v 2.3125 2 0.3125
v 2.3125 2 0.6875
v 2.6875 2 0.6875
v 2.31640625 9.77734375 0.625
v 2.31640625 9.77734375 0.375
v 1.44140625 6.28125 0.375
v 1.44140625 6.28125 0.625
v 2.55859375 9.71875 0.375
v 1.68359375 6.22265625 0.375
v 2.55859375 9.71875 0.625
v 1.68359375 6.22265625 0.625
v 2.55859375 2.28125 0.625
v 2.55859375 2.28125 0.375
v 1.68359375 5.77734375 0.375
v 1.68359375 5.77734375 0.625
v 2.31640625 2.22265625 0.375
v 1.44140625 5.71875 0.375
v 2.31640625 2.22265625 0.625
v 1.44140625 5.71875 0.625
v 0.68359375 2.22265625 0.625
v 0.68359375 2.22265625 0.375
v 1.55859375 5.71875 0.375
v 1.55859375 5.71875 0.625
v 0.44140625 2.28125 0.375
v 1.31640625 5.77734375 0.375
v 0.44140625 2.28125 0.625
v 1.31640625 5.77734375 0.625
v 0.44140625 9.71875 2.625
v 0.44140625 9.71875 2.375
v 1.31640625 6.22265625 2.375
v 1.31640625 6.22265625 2.625
v 0.68359375 9.77734375 2.375
v 1.55859375 6.28125 2.375
v 0.68359375 9.77734375 2.625
v 1.55859375 6.28125 2.625
v 1.75 5.5 2.6875
v 1.75 5.5 2.3125
v 1.75 6.5 2.3125
v 1.75 6.5 2.6875
v 1.25 5.5 2.3125
v 1.25 6.5 2.3125
v 1.25 5.5 2.6875
v 1.25 6.5 2.6875
v 2.31640625 9.77734375 2.625
v 2.31640625 9.77734375 2.375
v 1.44140625 6.28125 2.375
v 1.44140625 6.28125 2.625
v 2.55859375 9.71875 2.375
v 1.68359375 6.22265625 2.375
v 2.55859375 9.71875 2.625
v 1.68359375 6.22265625 2.625
v 2.55859375 2.28125 2.625
v 2.55859375 2.28125 2.375
v 1.68359375 5.77734375 2.375
v 1.68359375 5.77734375 2.625
v 2.31640625 2.22265625 2.375
v 1.44140625 5.71875 2.375
v 2.31640625 2.22265625 2.625
v 1.44140625 5.71875 2.625
v 0.68359375 2.22265625 2.625
v 0.68359375 2.22265625 2.375
v 1.55859375 5.71875 2.375
v 1.55859375 5.71875 2.625
v 0.44140625 2.28125 2.375
v 1.31640625 5.77734375 2.375
v 0.44140625 2.28125 2.625
v 1.31640625 5.77734375 2.625
v 2.5 1 0.5
v 0.5 1 0.5
v 0.5 1.5 0.5
v 2.5 1.5 0.5
v 0.5 1 2.5
v 0.5 1.5 2.5
v 2.5 1 2.5
v 2.5 1.5 2.5
v 2 1 0
v 1 1 0
v 1 2 0
v 2 2 0
v 1 1 1
v 1 2 1
v 2 1 1
v 2 2 1
v 2 1 2
v 1 1 2
v 1 2 2
v 2 2 2
v 1 1 3
v 1 2 3
v 2 1 3
v 2 2 3
v 3 0 0
v 0 0 0
v 0 1 0
v 3 1 0
v 0 0 3
v 0 1 3
v 3 0 3
v 3 1 3
v 0 18.5 2
v 1 18.5 3
v 1 19 3
v 0 19 2
v 2 18.5 0
v 1 18.5 0
v 1.5 18.5 0
v 3 19 2
v 2 19 3
v 2 18.5 3
v 3 18.5 2
v 3 18.5 1
v 2 19 0
v 3 19 1
v 0 20.5 1
v 1 20.5 0
v 1 20 0
v 0 20 1
v 2 20.5 3
v 1 20.5 3
v 1.5 20.5 3
v 3 20 1
v 2 20 0
v 2 20.5 0
v 3 20.5 1
v 3 20.5 2
v 2 20 3
v 3 20 2
v 3 19.5 2
v 2 19.5 3
v 0 19.5 1
v 1 19.5 0
v 1 19 0
v 0 19 1
v 3 1 1
v 2.5 1 1
v 2.5 2 1
v 3 2 1
v 2.5 1 2
v 2.5 2 2
v 3 1 2
v 3 2 2
v 0.6875 14 2.3125
v 0.3125 14 2.3125
v 0.3125 18 2.3125
v 0.6875 18 2.3125
v 0.3125 14 2.6875
v 0.3125 18 2.6875
v 0.6875 14 2.6875
v 0.6875 18 2.6875
v 0.375 10.28125 0.44140625
v 0.375 10.22265625 0.68359375
v 0.375 13.71875 1.55859375
v 0.375 13.77734375 1.31640625
v 0.625 17.77734375 2.31640625
v 0.625 17.71875 2.55859375
v 0.625 14.22265625 1.68359375
v 0.625 14.28125 1.44140625
v 0.375 17.77734375 2.31640625
v 0.375 14.28125 1.44140625
v 0.625 10.28125 0.44140625
v 0.625 13.77734375 1.31640625
v 0.6875 14.5 1.25
v 0.3125 14.5 1.25
v 0.3125 14.5 1.75
v 0.6875 14.5 1.75
v 0.6875 13.5 1.75
v 0.3125 13.5 1.75
v 0.3125 13.5 1.25
v 0.6875 13.5 1.25
v 0.625 10.22265625 0.68359375
v 0.625 13.71875 1.55859375
v 0.375 10.22265625 2.31640625
v 0.375 10.28125 2.55859375
v 0.375 13.77734375 1.68359375
v 0.375 13.71875 1.44140625
v 0.625 10.22265625 2.31640625
v 0.625 13.71875 1.44140625
v 0.625 10.28125 2.55859375
v 0.625 13.77734375 1.68359375
v 0.375 17.71875 2.55859375
v 0.375 14.22265625 1.68359375
v 0.375 17.77734375 0.68359375
v 0.375 17.71875 0.44140625
v 0.375 14.22265625 1.31640625
v 0.375 14.28125 1.55859375
v 0.625 17.77734375 0.68359375
v 0.625 14.28125 1.55859375
v 0.625 17.71875 0.44140625
v 0.625 14.22265625 1.31640625
v 2.625 10.28125 0.44140625
v 2.375 10.28125 0.44140625
v 2.375 13.77734375 1.31640625
v 2.625 13.77734375 1.31640625
v 2.3125 13.5 1.75
v 2.6875 13.5 1.75
v 2.6875 14.5 1.75
v 2.3125 14.5 1.75
v 2.625 17.71875 2.55859375
v 2.375 17.71875 2.55859375
v 2.375 14.22265625 1.68359375
v 2.625 14.22265625 1.68359375
v 2.375 17.77734375 0.68359375
v 2.375 17.71875 0.44140625
v 2.375 14.22265625 1.31640625
v 2.375 14.28125 1.55859375
v 2.625 10.22265625 0.68359375
v 2.625 13.71875 1.55859375
v 2.375 10.22265625 0.68359375
v 2.375 13.71875 1.55859375
v 2.625 17.77734375 2.31640625
v 2.625 14.28125 1.44140625
v 2.625 17.77734375 0.68359375
v 2.625 14.28125 1.55859375
v 2.625 17.71875 0.44140625
v 2.625 14.22265625 1.31640625
v 2.375 17.77734375 2.31640625
v 2.375 14.28125 1.44140625
v 2.625 10.22265625 2.31640625
v 2.375 10.22265625 2.31640625
v 2.375 13.71875 1.44140625
v 2.625 13.71875 1.44140625
v 2.625 10.28125 2.55859375
v 2.625 13.77734375 1.68359375
v 2.6875 14.5 1.25
v 2.3125 14.5 1.25
v 2.3125 13.5 1.25
v 2.6875 13.5 1.25
v 2.375 10.28125 2.55859375
v 2.375 13.77734375 1.68359375
v 0.44140625 17.71875 0.625
v 0.44140625 17.71875 0.375
v 1.31640625 14.22265625 0.375
v 1.31640625 14.22265625 0.625
v 0.68359375 17.77734375 0.375
v 1.55859375 14.28125 0.375
v 0.68359375 17.77734375 0.625
v 1.55859375 14.28125 0.625
v 1.75 13.5 0.6875
v 1.75 13.5 0.3125
v 1.75 14.5 0.3125
v 1.75 14.5 0.6875
v 1.25 13.5 0.3125
v 1.25 14.5 0.3125
v 1.25 13.5 0.6875
v 1.25 14.5 0.6875
v 2.6875 14 2.3125
v 2.3125 14 2.3125
v 2.3125 18 2.3125
v 2.6875 18 2.3125
v 2.3125 14 2.6875
v 2.3125 18 2.6875
v 2.6875 14 2.6875
v 2.6875 18 2.6875
v 0.6875 14 0.3125
v 0.3125 14 0.3125
v 0.3125 18 0.3125
v 0.6875 18 0.3125
v 0.3125 14 0.6875
v 0.3125 18 0.6875
v 0.6875 14 0.6875
v 0.6875 18 0.6875
v 2.6875 14 0.3125
v 2.3125 14 0.3125
v 2.3125 18 0.3125
v 2.6875 18 0.3125
v 2.3125 14 0.6875
v 2.3125 18 0.6875
v 2.6875 14 0.6875
v 2.6875 18 0.6875
v 2.31640625 17.77734375 0.625
v 2.31640625 17.77734375 0.375
v 1.44140625 14.28125 0.375
v 1.44140625 14.28125 0.625
v 2.55859375 17.71875 0.375
v 1.68359375 14.22265625 0.375
v 2.55859375 17.71875 0.625
v 1.68359375 14.22265625 0.625
v 2.55859375 10.28125 0.625
v 2.55859375 10.28125 0.375
v 1.68359375 13.77734375 0.375
v 1.68359375 13.77734375 0.625
v 2.31640625 10.22265625 0.375
v 1.44140625 13.71875 0.375
v 2.31640625 10.22265625 0.625
v 1.44140625 13.71875 0.625
v 0.68359375 10.22265625 0.625
v 0.68359375 10.22265625 0.375
v 1.55859375 13.71875 0.375
v 1.55859375 13.71875 0.625
v 0.44140625 10.28125 0.375
v 1.31640625 13.77734375 0.375
v 0.44140625 10.28125 0.625
v 1.31640625 13.77734375 0.625
v 0.44140625 17.71875 2.625
v 0.44140625 17.71875 2.375
v 1.31640625 14.22265625 2.375
v 1.31640625 14.22265625 2.625
v 0.68359375 17.77734375 2.375
v 1.55859375 14.28125 2.375
v 0.68359375 17.77734375 2.625
v 1.55859375 14.28125 2.625
v 1.75 13.5 2.6875
v 1.75 13.5 2.3125
v 1.75 14.5 2.3125
v 1.75 14.5 2.6875
v 1.25 13.5 2.3125
v 1.25 14.5 2.3125
v 1.25 13.5 2.6875
v 1.25 14.5 2.6875
v 2.31640625 17.77734375 2.625
v 2.31640625 17.77734375 2.375
v 1.44140625 14.28125 2.375
v 1.44140625 14.28125 2.625
v 2.55859375 17.71875 2.375
v 1.68359375 14.22265625 2.375
v 2.55859375 17.71875 2.625
v 1.68359375 14.22265625 2.625
v 2.55859375 10.28125 2.625
v 2.55859375 10.28125 2.375
v 1.68359375 13.77734375 2.375
v 1.68359375 13.77734375 2.625
v 2.31640625 10.22265625 2.375
v 2.31640625 10.22265625 2.625
v 1.44140625 13.71875 2.625
v 1.44140625 13.71875 2.375
v 0.68359375 10.22265625 2.625
v 0.68359375 10.22265625 2.375
v 1.55859375 13.71875 2.375
v 1.55859375 13.71875 2.625
v 0.44140625 10.28125 2.375
v 0.44140625 10.28125 2.625
v 1.31640625 13.77734375 2.625
v 1.31640625 13.77734375 2.375
v 0 18.5 3
v 0 18.5 0
v 0 18 0
v 0 18 3
v 3 18.5 0
v 3 18.5 3
v 3 18 3
v 3 18 0
v 1.9375 19 1
v 1.9375 19 0
v 1.5 18.5 1
v 1.0625 19 0
v 1.0625 19 1
v 2 19 1.9375
v 3 19 1.9375
v 3 18.5 1.5
v 2 18.5 1.5
v 3 19 1.0625
v 2 19 1.0625
v 1.0625 19 2
v 1.0625 19 3
v 1.5 18.5 3
v 1.5 18.5 2
v 1.9375 19 3
v 1.9375 19 2
v 1 19 1.0625
v 0 19 1.0625
v 0 18.5 1.5
v 1 18.5 1.5
v 0 19 1.9375
v 1 19 1.9375
v 0 18.5 1
v 2.9375 19 2.6875
v 2.9375 18.5 2.6875
v 2.6875 18.5 2.6875
v 2.6875 19 2.6875
v 0.3125 19 0.0625
v 0.3125 18.5 0.0625
v 0.0625 18.5 0.0625
v 0.0625 19 0.0625
v 0.0625 18.5 0.3125
v 0.0625 19 0.3125
v 2.6875 19 0.3125
v 2.6875 18.5 0.3125
v 2.9375 18.5 0.3125
v 1 19 1
v 1 18.5 1
v 1 18.5 2
v 1 19 2
v 2.9375 19 0.3125
v 2.9375 18.5 0.0625
v 2.9375 19 0.0625
v 2 18.5 1
v 2 19 1
v 2 19 2
v 2 18.5 2
v 2.9375 19 2.9375
v 2.9375 18.5 2.9375
v 2.6875 19 0.0625
v 2.6875 18.5 0.0625
v 0.3125 18.5 0.3125
v 0.3125 19 0.3125
v 0.3125 19 2.9375
v 0.3125 18.5 2.9375
v 0.3125 18.5 2.6875
v 0.3125 19 2.6875
v 2.6875 18.5 2.9375
v 2.6875 19 2.9375
v 0.0625 19 2.6875
v 0.0625 18.5 2.6875
v 0.0625 18.5 2.9375
v 0.0625 19 2.9375
v 0 20.5 0
v 0 20.5 3
v 0 21 3
v 0 21 0
v 3 20.5 3
v 3 20.5 0
v 3 21 0
v 3 21 3
v 1.9375 20 2
v 1.9375 20 3
v 1.5 20.5 2
v 1.0625 20 3
v 1.0625 20 2
v 1 20 3
v 2 20 1.0625
v 3 20 1.0625
v 3 20.5 1.5
v 2 20.5 1.5
v 3 20 1.9375
v 2 20 1.9375
v 1.0625 20 1
v 1.0625 20 0
v 1.5 20.5 0
v 1.5 20.5 1
v 1.9375 20 0
v 1.9375 20 1
v 1 20 1.9375
v 0 20 1.9375
v 0 20.5 1.5
v 1 20.5 1.5
v 0 20 1.0625
v 1 20 1.0625
v 0 20 2
v 0 20.5 2
v 2.9375 20 0.3125
v 2.9375 20.5 0.3125
v 2.6875 20.5 0.3125
v 2.6875 20 0.3125
v 0.3125 20 2.9375
v 0.3125 20.5 2.9375
v 0.0625 20.5 2.9375
v 0.0625 20 2.9375
v 0.0625 20.5 2.6875
v 0.0625 20 2.6875
v 2.6875 20 2.6875
v 2.6875 20.5 2.6875
v 2.9375 20.5 2.6875
v 2.9375 20 2.6875
v 1 20 2
v 1 20.5 2
v 1 20.5 1
v 1 20 1
v 2.9375 20.5 2.9375
v 2.9375 20 2.9375
v 2 20.5 2
v 2 20 2
v 2 20 1
v 2 20.5 1
v 2.9375 20 0.0625
v 2.9375 20.5 0.0625
v 2.6875 20 2.9375
v 2.6875 20.5 2.9375
v 0 19.5 2
v 1 19.5 3
v 0.3125 20.5 2.6875
v 0.3125 20 2.6875
v 0.3125 20 0.0625
v 0.3125 20.5 0.0625
v 0.3125 20.5 0.3125
v 0.3125 20 0.3125
v 2.6875 20.5 0.0625
v 2.6875 20 0.0625
v 0.0625 20 0.3125
v 0.0625 20.5 0.3125
v 0.0625 20.5 0.0625
v 0.0625 20 0.0625
v 3 19.5 1
v 2 19.5 0
v 2.6875 19 2.9375
v 2.6875 19 2.6875
v 2.9375 19 2.9375
v 2.9375 19 0.0625
v 2.9375 19 0.3125
v 2.9375 19 2.6875
v 2.6875 19 0.0625
v 2.6875 19 0.3125
v 0.625 10.22265625 0.68359375
v 0.625 10.28125 0.44140625
v 0.625 13.77734375 1.31640625
v 0.625 13.71875 1.55859375
v 0.625 10.28125 2.55859375
v 0.625 10.22265625 2.31640625
v 0.625 13.71875 1.44140625
v 0.625 13.77734375 1.68359375
v 2.375 10.28125 0.44140625
v 2.375 10.22265625 0.68359375
v 2.375 13.71875 1.55859375
v 2.375 13.77734375 1.31640625
v 2.375 10.22265625 2.31640625
v 2.375 10.28125 2.55859375
v 2.375 13.77734375 1.68359375
v 2.375 13.71875 1.44140625
v 2.31640625 10.22265625 0.625
v 2.55859375 10.28125 0.625
v 1.68359375 13.77734375 0.625
v 1.44140625 13.71875 0.625
v 0.44140625 10.28125 0.625
v 0.68359375 10.22265625 0.625
v 1.55859375 13.71875 0.625
v 1.31640625 13.77734375 0.625
v 2.55859375 10.28125 2.375
v 2.31640625 10.22265625 2.375
v 1.44140625 13.71875 2.375
v 1.68359375 13.77734375 2.375
v 0.68359375 10.22265625 2.375
v 0.44140625 10.28125 2.375
v 1.31640625 13.77734375 2.375
v 1.55859375 13.71875 2.375
v 2.6875 19 0.3125
v 2.6875 18.5 0.3125
v 2.9375 18.5 0.3125
v 2.9375 19 0.3125
vt 0.640625 0.75
vt 0.578125 0.75
vt 0.578125 0.625
vt 0.640625 0.625
vt 0.640625 0.625
vt 0.578125 0.625
vt 0.578125 0.75
vt 0.640625 0.75
vt 0.546875 0.203125
vt 0.546875 0.25
vt 0.539061875 0.25
vt 0.539061875 0.203125
vt 0.546875 0.203125
vt 0.546875 0.25
vt 0.5 0.25
vt 0.5 0.203125
vt 0.507811875 0.203125
vt 0.507811875 0.25
vt 0.5 0.25
vt 0.5 0.203125
vt 0.546875 0.21093812499999998
vt 0.5 0.21093812499999998
vt 0.5 0.203125
vt 0.546875 0.203125
vt 0.546875 0.25
vt 0.5 0.25
vt 0.5 0.24218812499999998
vt 0.546875 0.24218812499999998
vt 0.578125 0.1875
vt 0.578125 0.25
vt 0.570311875 0.25
vt 0.570311875 0.1875
vt 0.578125 0.1875
vt 0.578125 0.25
vt 0.546875 0.25
vt 0.546875 0.1875
vt 0.554688125 0.1875
vt 0.554688125 0.25
vt 0.546875 0.25
vt 0.546875 0.1875
vt 0.546875 0.1875
vt 0.578125 0.1875
vt 0.578125 0.19531187500000002
vt 0.546875 0.19531187500000002
vt 0.546875 0.24218812499999998
vt 0.578125 0.24218812499999998
vt 0.578125 0.25
vt 0.546875 0.25
vt 0.953125 0.40625
vt 0.953125 0.5
vt 0.71875 0.5
vt 0.71875 0.40625
vt 0.953125 0.40625
vt 0.953125 0.5
vt 0.71875 0.5
vt 0.71875 0.40625
vt 0.953125 0.40625
vt 0.953125 0.5
vt 0.71875 0.5
vt 0.71875 0.40625
vt 0.953125 0.40625
vt 0.953125 0.5
vt 0.71875 0.5
vt 0.71875 0.40625
vt 0.710938125 0.40625
vt 0.710938125 0.375
vt 0.960938125 0.375
vt 0.960938125 0.40625
vt 0.710938125 0.40625
vt 0.710938125 0.375
vt 0.960938125 0.375
vt 0.960938125 0.40625
vt 0.710938125 0.40625
vt 0.710938125 0.375
vt 0.960938125 0.375
vt 0.960938125 0.40625
vt 0.710938125 0.40625
vt 0.710938125 0.375
vt 0.960938125 0.375
vt 0.960938125 0.40625
vt 0.710938125 0.75
vt 0.960938125 0.75
vt 0.960938125 1
vt 0.710938125 1
vt 0.960938125 0.75
vt 0.710938125 0.75
vt 0.710938125 0.5
vt 0.960938125 0.5
vt 0.710938125 0.40625
vt 0.710938125 0.375
vt 0.960938125 0.375
vt 0.960938125 0.40625
vt 0.710938125 0.40625
vt 0.710938125 0.375
vt 0.960938125 0.375
vt 0.960938125 0.40625
vt 0.710938125 0.40625
vt 0.710938125 0.375
vt 0.960938125 0.375
vt 0.960938125 0.40625
vt 0.710938125 0.40625
vt 0.710938125 0.375
vt 0.960938125 0.375
vt 0.960938125 0.40625
vt 0.710938125 0.5
vt 0.960938125 0.5
vt 0.960938125 0.75
vt 0.710938125 0.75
vt 0.960938125 0.75
vt 0.710938125 0.75
vt 0.710938125 0.5
vt 0.960938125 0.5
vt 0.25 0.375
vt 0.25 0.4375
vt 0.375 0.4375
vt 0.375 0.375
vt 0.25 0.4375
vt 0.25 0.375
vt 0.375 0.375
vt 0.375 0.4375
vt 0.25 0.375
vt 0.25 0.4375
vt 0.375 0.4375
vt 0.375 0.375
vt 0.25 0.4375
vt 0.25 0.375
vt 0.375 0.375
vt 0.375 0.4375
vt 0.40625 0.40625
vt 0.46875 0.40625
vt 0.46875 0.46875
vt 0.40625 0.46875
vt 0.25 0.375
vt 0.25 0.4375
vt 0.375 0.4375
vt 0.375 0.375
vt 0.25 0.4375
vt 0.25 0.375
vt 0.375 0.375
vt 0.375 0.4375
vt 0.25 0.375
vt 0.25 0.4375
vt 0.375 0.4375
vt 0.375 0.375
vt 0.25 0.4375
vt 0.25 0.375
vt 0.375 0.375
vt 0.375 0.4375
vt 0.40625 0.40625
vt 0.46875 0.40625
vt 0.46875 0.46875
vt 0.40625 0.46875
vt 0.25 0.375
vt 0.25 0.4375
vt 0.375 0.4375
vt 0.375 0.375
vt 0.25 0.375
vt 0.25 0.4375
vt 0.375 0.4375
vt 0.375 0.375
vt 0.25 0.4375
vt 0.25 0.375
vt 0.375 0.375
vt 0.375 0.4375
vt 0.25 0.375
vt 0.25 0.4375
vt 0.375 0.4375
vt 0.375 0.375
vt 0.46875 0.46875
vt 0.46875 0.40625
vt 0.40625 0.40625
vt 0.40625 0.46875
vt 0.25 0.375
vt 0.25 0.4375
vt 0.375 0.4375
vt 0.375 0.375
vt 0.25 0.375
vt 0.25 0.4375
vt 0.375 0.4375
vt 0.375 0.375
vt 0.25 0.4375
vt 0.25 0.375
vt 0.375 0.375
vt 0.375 0.4375
vt 0.25 0.375
vt 0.25 0.4375
vt 0.375 0.4375
vt 0.375 0.375
vt 0.46875 0.46875
vt 0.46875 0.40625
vt 0.40625 0.40625
vt 0.40625 0.46875
vt 0.578125 0.25
vt 0.53125 0.25
vt 0.53125 0.75
vt 0.578125 0.75
vt 0.578125 0.25
vt 0.53125 0.25
vt 0.53125 0.75
vt 0.578125 0.75
vt 0.53125 0.25
vt 0.578125 0.25
vt 0.578125 0.75
vt 0.53125 0.75
vt 0.578125 0.25
vt 0.53125 0.25
vt 0.53125 0.75
vt 0.578125 0.75
vt 0.53125 0.75
vt 0.5 0.75
vt 0.5 0.3125
vt 0.53125 0.3125
vt 0.53125 0.75
vt 0.5 0.75
vt 0.5 0.3125
vt 0.53125 0.3125
vt 0.5 0.75
vt 0.53125 0.75
vt 0.53125 0.3125
vt 0.5 0.3125
vt 0.5 0.75
vt 0.53125 0.75
vt 0.53125 0.3125
vt 0.5 0.3125
vt 0.53125 0.75
vt 0.5 0.75
vt 0.5 0.3125
vt 0.53125 0.3125
vt 0.414061875 0.90625
vt 0.460938125 0.90625
vt 0.460938125 0.84375
vt 0.414061875 0.84375
vt 0.414061875 0.90625
vt 0.460938125 0.90625
vt 0.460938125 0.84375
vt 0.414061875 0.84375
vt 0.5 0.75
vt 0.53125 0.75
vt 0.53125 0.3125
vt 0.5 0.3125
vt 0.25 0.375
vt 0.25 0.4375
vt 0.375 0.4375
vt 0.375 0.375
vt 0.414061875 0.9375
vt 0.460938125 0.9375
vt 0.460938125 0.8125
vt 0.414061875 0.8125
vt 0.53125 0.75
vt 0.5 0.75
vt 0.5 0.3125
vt 0.53125 0.3125
vt 0.5 0.75
vt 0.53125 0.75
vt 0.53125 0.3125
vt 0.5 0.3125
vt 0.375 0.4375
vt 0.375 0.375
vt 0.25 0.375
vt 0.25 0.4375
vt 0.460938125 0.8125
vt 0.414061875 0.8125
vt 0.414061875 0.9375
vt 0.460938125 0.9375
vt 0.53125 0.75
vt 0.5 0.75
vt 0.5 0.3125
vt 0.53125 0.3125
vt 0.5 0.75
vt 0.53125 0.75
vt 0.53125 0.3125
vt 0.5 0.3125
vt 0.53125 0.75
vt 0.5 0.75
vt 0.5 0.3125
vt 0.53125 0.3125
vt 0.53125 0.75
vt 0.5 0.75
vt 0.5 0.3125
vt 0.53125 0.3125
vt 0.5 0.75
vt 0.53125 0.75
vt 0.53125 0.3125
vt 0.5 0.3125
vt 0.5 0.75
vt 0.53125 0.75
vt 0.53125 0.3125
vt 0.5 0.3125
vt 0.53125 0.75
vt 0.5 0.75
vt 0.5 0.3125
vt 0.53125 0.3125
vt 0.5 0.75
vt 0.53125 0.75
vt 0.53125 0.3125
vt 0.5 0.3125
vt 0.53125 0.75
vt 0.5 0.75
vt 0.5 0.3125
vt 0.53125 0.3125
vt 0.5 0.75
vt 0.53125 0.75
vt 0.53125 0.3125
vt 0.5 0.3125
vt 0.460938125 0.8125
vt 0.414061875 0.8125
vt 0.414061875 0.9375
vt 0.460938125 0.9375
vt 0.5 0.75
vt 0.53125 0.75
vt 0.53125 0.3125
vt 0.5 0.3125
vt 0.53125 0.75
vt 0.5 0.75
vt 0.5 0.3125
vt 0.53125 0.3125
vt 0.53125 0.75
vt 0.5 0.75
vt 0.5 0.3125
vt 0.53125 0.3125
vt 0.5 0.75
vt 0.53125 0.75
vt 0.53125 0.3125
vt 0.5 0.3125
vt 0.53125 0.75
vt 0.5 0.75
vt 0.5 0.3125
vt 0.53125 0.3125
vt 0.5 0.75
vt 0.53125 0.75
vt 0.53125 0.3125
vt 0.5 0.3125
vt 0.53125 0.75
vt 0.5 0.75
vt 0.5 0.3125
vt 0.53125 0.3125
vt 0.53125 0.75
vt 0.5 0.75
vt 0.5 0.3125
vt 0.53125 0.3125
vt 0.5 0.75
vt 0.53125 0.75
vt 0.53125 0.3125
vt 0.5 0.3125
vt 0.5 0.75
vt 0.53125 0.75
vt 0.53125 0.3125
vt 0.5 0.3125
vt 0.53125 0.75
vt 0.5 0.75
vt 0.5 0.3125
vt 0.53125 0.3125
vt 0.414061875 0.90625
vt 0.460938125 0.90625
vt 0.460938125 0.84375
vt 0.414061875 0.84375
vt 0.414061875 0.90625
vt 0.460938125 0.90625
vt 0.460938125 0.84375
vt 0.414061875 0.84375
vt 0.25 0.375
vt 0.25 0.4375
vt 0.375 0.4375
vt 0.375 0.375
vt 0.5 0.75
vt 0.53125 0.75
vt 0.53125 0.3125
vt 0.5 0.3125
vt 0.5 0.75
vt 0.53125 0.75
vt 0.53125 0.3125
vt 0.5 0.3125
vt 0.414061875 0.9375
vt 0.460938125 0.9375
vt 0.460938125 0.8125
vt 0.414061875 0.8125
vt 0.375 0.4375
vt 0.375 0.375
vt 0.25 0.375
vt 0.25 0.4375
vt 0.53125 0.75
vt 0.5 0.75
vt 0.5 0.3125
vt 0.53125 0.3125
vt 0.5 0.75
vt 0.53125 0.75
vt 0.53125 0.3125
vt 0.5 0.3125
vt 0.53125 0.75
vt 0.5 0.75
vt 0.5 0.3125
vt 0.53125 0.3125
vt 0.5 0.75
vt 0.53125 0.75
vt 0.53125 0.3125
vt 0.5 0.3125
vt 0.53125 0.75
vt 0.5 0.75
vt 0.5 0.3125
vt 0.53125 0.3125
vt 0.460938125 0.8125
vt 0.414061875 0.8125
vt 0.414061875 0.9375
vt 0.460938125 0.9375
vt 0.375 0.4375
vt 0.375 0.375
vt 0.25 0.375
vt 0.25 0.4375
vt 0.414061875 0.9375
vt 0.460938125 0.9375
vt 0.460938125 0.8125
vt 0.414061875 0.8125
vt 0.25 0.375
vt 0.25 0.4375
vt 0.375 0.4375
vt 0.375 0.375
vt 0.414061875 0.90625
vt 0.460938125 0.90625
vt 0.460938125 0.84375
vt 0.414061875 0.84375
vt 0.414061875 0.90625
vt 0.460938125 0.90625
vt 0.460938125 0.84375
vt 0.414061875 0.84375
vt 0.578125 0.25
vt 0.53125 0.25
vt 0.53125 0.75
vt 0.578125 0.75
vt 0.578125 0.25
vt 0.53125 0.25
vt 0.53125 0.75
vt 0.578125 0.75
vt 0.53125 0.25
vt 0.578125 0.25
vt 0.578125 0.75
vt 0.53125 0.75
vt 0.578125 0.25
vt 0.53125 0.25
vt 0.53125 0.75
vt 0.578125 0.75
vt 0.578125 0.25
vt 0.53125 0.25
vt 0.53125 0.75
vt 0.578125 0.75
vt 0.578125 0.25
vt 0.53125 0.25
vt 0.53125 0.75
vt 0.578125 0.75
vt 0.53125 0.25
vt 0.578125 0.25
vt 0.578125 0.75
vt 0.53125 0.75
vt 0.578125 0.25
vt 0.53125 0.25
vt 0.53125 0.75
vt 0.578125 0.75
vt 0.578125 0.25
vt 0.53125 0.25
vt 0.53125 0.75
vt 0.578125 0.75
vt 0.578125 0.25
vt 0.53125 0.25
vt 0.53125 0.75
vt 0.578125 0.75
vt 0.53125 0.25
vt 0.578125 0.25
vt 0.578125 0.75
vt 0.53125 0.75
vt 0.578125 0.25
vt 0.53125 0.25
vt 0.53125 0.75
vt 0.578125 0.75
vt 0.578125 0.25
vt 0.53125 0.25
vt 0.53125 0.75
vt 0.578125 0.75
vt 0.578125 0.25
vt 0.53125 0.25
vt 0.53125 0.75
vt 0.578125 0.75
vt 0.53125 0.25
vt 0.578125 0.25
vt 0.578125 0.75
vt 0.53125 0.75
vt 0.578125 0.25
vt 0.53125 0.25
vt 0.53125 0.75
vt 0.578125 0.75
vt 0.578125 0.25
vt 0.53125 0.25
vt 0.53125 0.75
vt 0.578125 0.75
vt 0.578125 0.25
vt 0.53125 0.25
vt 0.53125 0.75
vt 0.578125 0.75
vt 0.53125 0.25
vt 0.578125 0.25
vt 0.578125 0.75
vt 0.53125 0.75
vt 0.578125 0.25
vt 0.53125 0.25
vt 0.53125 0.75
vt 0.578125 0.75
vt 0.578125 0.25
vt 0.53125 0.25
vt 0.53125 0.75
vt 0.578125 0.75
vt 0.578125 0.25
vt 0.53125 0.25
vt 0.53125 0.75
vt 0.578125 0.75
vt 0.53125 0.25
vt 0.578125 0.25
vt 0.578125 0.75
vt 0.53125 0.75
vt 0.578125 0.25
vt 0.53125 0.25
vt 0.53125 0.75
vt 0.578125 0.75
vt 0.578125 0.25
vt 0.53125 0.25
vt 0.53125 0.75
vt 0.578125 0.75
vt 0.578125 0.25
vt 0.53125 0.25
vt 0.53125 0.75
vt 0.578125 0.75
vt 0.53125 0.25
vt 0.578125 0.25
vt 0.578125 0.75
vt 0.53125 0.75
vt 0.578125 0.25
vt 0.53125 0.25
vt 0.53125 0.75
vt 0.578125 0.75
vt 0.5 0.75
vt 0.53125 0.75
vt 0.53125 0.3125
vt 0.5 0.3125
vt 0.53125 0.75
vt 0.5 0.75
vt 0.5 0.3125
vt 0.53125 0.3125
vt 0.5 0.75
vt 0.53125 0.75
vt 0.53125 0.3125
vt 0.5 0.3125
vt 0.53125 0.75
vt 0.5 0.75
vt 0.5 0.3125
vt 0.53125 0.3125
vt 0.5 0.75
vt 0.53125 0.75
vt 0.53125 0.3125
vt 0.5 0.3125
vt 0.53125 0.75
vt 0.5 0.75
vt 0.5 0.3125
vt 0.53125 0.3125
vt 0.5 0.75
vt 0.53125 0.75
vt 0.53125 0.3125
vt 0.5 0.3125
vt 0.53125 0.75
vt 0.5 0.75
vt 0.5 0.3125
vt 0.53125 0.3125
vt 0.5 0.75
vt 0.53125 0.75
vt 0.53125 0.3125
vt 0.5 0.3125
vt 0.53125 0.75
vt 0.5 0.75
vt 0.5 0.3125
vt 0.53125 0.3125
vt 0.5 0.75
vt 0.53125 0.75
vt 0.53125 0.3125
vt 0.5 0.3125
vt 0.53125 0.75
vt 0.5 0.75
vt 0.5 0.3125
vt 0.53125 0.3125
vt 0.5 0.75
vt 0.53125 0.75
vt 0.53125 0.3125
vt 0.5 0.3125
vt 0.53125 0.75
vt 0.5 0.75
vt 0.5 0.3125
vt 0.53125 0.3125
vt 0.5 0.75
vt 0.53125 0.75
vt 0.53125 0.3125
vt 0.5 0.3125
vt 0.53125 0.75
vt 0.5 0.75
vt 0.5 0.3125
vt 0.53125 0.3125
vt 0.460938125 0.8125
vt 0.414061875 0.8125
vt 0.414061875 0.9375
vt 0.460938125 0.9375
vt 0.375 0.4375
vt 0.375 0.375
vt 0.25 0.375
vt 0.25 0.4375
vt 0.414061875 0.9375
vt 0.460938125 0.9375
vt 0.460938125 0.8125
vt 0.414061875 0.8125
vt 0.25 0.375
vt 0.25 0.4375
vt 0.375 0.4375
vt 0.375 0.375
vt 0.414061875 0.90625
vt 0.460938125 0.90625
vt 0.460938125 0.84375
vt 0.414061875 0.84375
vt 0.414061875 0.90625
vt 0.460938125 0.90625
vt 0.460938125 0.84375
vt 0.414061875 0.84375
vt 0.5 0.75
vt 0.53125 0.75
vt 0.53125 0.3125
vt 0.5 0.3125
vt 0.53125 0.75
vt 0.5 0.75
vt 0.5 0.3125
vt 0.53125 0.3125
vt 0.5 0.75
vt 0.53125 0.75
vt 0.53125 0.3125
vt 0.5 0.3125
vt 0.53125 0.75
vt 0.5 0.75
vt 0.5 0.3125
vt 0.53125 0.3125
vt 0.5 0.75
vt 0.53125 0.75
vt 0.53125 0.3125
vt 0.5 0.3125
vt 0.53125 0.75
vt 0.5 0.75
vt 0.5 0.3125
vt 0.53125 0.3125
vt 0.5 0.75
vt 0.53125 0.75
vt 0.53125 0.3125
vt 0.5 0.3125
vt 0.53125 0.75
vt 0.5 0.75
vt 0.5 0.3125
vt 0.53125 0.3125
vt 0.5 0.75
vt 0.53125 0.75
vt 0.53125 0.3125
vt 0.5 0.3125
vt 0.53125 0.75
vt 0.5 0.75
vt 0.5 0.3125
vt 0.53125 0.3125
vt 0.5 0.75
vt 0.53125 0.75
vt 0.53125 0.3125
vt 0.5 0.3125
vt 0.53125 0.75
vt 0.5 0.75
vt 0.5 0.3125
vt 0.53125 0.3125
vt 0.25 0.375
vt 0 0.375
vt 0 0.4375
vt 0.25 0.4375
vt 0.25 0.375
vt 0 0.375
vt 0 0.4375
vt 0.25 0.4375
vt 0.25 0.375
vt 0 0.375
vt 0 0.4375
vt 0.25 0.4375
vt 0.25 0.375
vt 0 0.375
vt 0 0.4375
vt 0.25 0.4375
vt 0.960938125 1
vt 0.960938125 0.75
vt 0.710938125 0.75
vt 0.710938125 1
vt 0.5 0.375
vt 0.375 0.375
vt 0.375 0.5
vt 0.5 0.5
vt 0.375 0.4375
vt 0.25 0.4375
vt 0.25 0.5625
vt 0.375 0.5625
vt 0.375 0.4375
vt 0.25 0.4375
vt 0.25 0.5625
vt 0.375 0.5625
vt 0.375 0.4375
vt 0.25 0.4375
vt 0.25 0.5625
vt 0.375 0.5625
vt 0.25 0.5625
vt 0.375 0.5625
vt 0.375 0.4375
vt 0.25 0.4375
vt 0.375 0.4375
vt 0.25 0.4375
vt 0.25 0.5625
vt 0.375 0.5625
vt 0.375 0.4375
vt 0.25 0.4375
vt 0.25 0.5625
vt 0.375 0.5625
vt 0.5 0.25
vt 0.375 0.25
vt 0.375 0.375
vt 0.5 0.375
vt 0.375 0.4375
vt 0.25 0.4375
vt 0.25 0.5625
vt 0.375 0.5625
vt 0.25 0.5625
vt 0.375 0.5625
vt 0.375 0.4375
vt 0.25 0.4375
vt 0 0.125
vt 0.375 0.125
vt 0.375 0
vt 0 0
vt 0.375 0
vt 0 0
vt 0 0.125
vt 0.375 0.125
vt 0.375 0
vt 0 0
vt 0 0.125
vt 0.375 0.125
vt 0 0.125
vt 0.375 0.125
vt 0.375 0
vt 0 0
vt 0 0
vt 0 0.375
vt 0.375 0.375
vt 0.375 0
vt 0 0
vt 0 0.375
vt 0.375 0.375
vt 0.375 0
vt 0.710938125 0.75
vt 0.53125 0.75
vt 0.53125 0.8125
vt 0.710938125 0.8125
vt 0 0
vt 0 0
vt 0 0
vt 0.53125 0.8125
vt 0.710938125 0.8125
vt 0.710938125 0.75
vt 0.53125 0.75
vt 0.710938125 0.75
vt 0.53125 0.75
vt 0.53125 0.8125
vt 0.710938125 0.8125
vt 0.53125 1
vt 0.710938125 1
vt 0.710938125 0.9375
vt 0.53125 0.9375
vt 0 0
vt 0 0
vt 0 0
vt 0.710938125 0.9375
vt 0.53125 0.9375
vt 0.53125 1
vt 0.710938125 1
vt 0.53125 1
vt 0.710938125 1
vt 0.710938125 0.9375
vt 0.53125 0.9375
vt 0.710938125 0.8125
vt 0.53125 0.8125
vt 0.53125 0.875
vt 0.710938125 0.875
vt 0.53125 0.875
vt 0.710938125 0.875
vt 0.710938125 0.8125
vt 0.53125 0.8125
vt 0.3125 0.4375
vt 0.25 0.4375
vt 0.25 0.5625
vt 0.3125 0.5625
vt 0.375 0.4375
vt 0.25 0.4375
vt 0.25 0.5625
vt 0.375 0.5625
vt 0.375 0.4375
vt 0.3125 0.4375
vt 0.3125 0.5625
vt 0.375 0.5625
vt 0.5 0.125
vt 0.375 0.125
vt 0.375 0.25
vt 0.5 0.25
vt 0.375 0.5625
vt 0.375 0.5
vt 0.25 0.5
vt 0.25 0.5625
vt 0.578125 0.25
vt 0.53125 0.25
vt 0.53125 0.75
vt 0.578125 0.75
vt 0.578125 0.25
vt 0.53125 0.25
vt 0.53125 0.75
vt 0.578125 0.75
vt 0.53125 0.25
vt 0.578125 0.25
vt 0.578125 0.75
vt 0.53125 0.75
vt 0.578125 0.25
vt 0.53125 0.25
vt 0.53125 0.75
vt 0.578125 0.75
vt 0.53125 0.75
vt 0.5 0.75
vt 0.5 0.3125
vt 0.53125 0.3125
vt 0.53125 0.75
vt 0.5 0.75
vt 0.5 0.3125
vt 0.53125 0.3125
vt 0.5 0.75
vt 0.53125 0.75
vt 0.53125 0.3125
vt 0.5 0.3125
vt 0.5 0.75
vt 0.53125 0.75
vt 0.53125 0.3125
vt 0.5 0.3125
vt 0.414061875 0.90625
vt 0.460938125 0.90625
vt 0.460938125 0.84375
vt 0.414061875 0.84375
vt 0.414061875 0.90625
vt 0.460938125 0.90625
vt 0.460938125 0.84375
vt 0.414061875 0.84375
vt 0.5 0.75
vt 0.53125 0.75
vt 0.53125 0.3125
vt 0.5 0.3125
vt 0.25 0.375
vt 0.25 0.4375
vt 0.375 0.4375
vt 0.375 0.375
vt 0.414061875 0.9375
vt 0.460938125 0.9375
vt 0.460938125 0.8125
vt 0.414061875 0.8125
vt 0.53125 0.75
vt 0.5 0.75
vt 0.5 0.3125
vt 0.53125 0.3125
vt 0.5 0.75
vt 0.53125 0.75
vt 0.53125 0.3125
vt 0.5 0.3125
vt 0.375 0.4375
vt 0.375 0.375
vt 0.25 0.375
vt 0.25 0.4375
vt 0.460938125 0.8125
vt 0.414061875 0.8125
vt 0.414061875 0.9375
vt 0.460938125 0.9375
vt 0.5 0.75
vt 0.53125 0.75
vt 0.53125 0.3125
vt 0.5 0.3125
vt 0.53125 0.75
vt 0.5 0.75
vt 0.5 0.3125
vt 0.53125 0.3125
vt 0.53125 0.75
vt 0.5 0.75
vt 0.5 0.3125
vt 0.53125 0.3125
vt 0.5 0.75
vt 0.53125 0.75
vt 0.53125 0.3125
vt 0.5 0.3125
vt 0.5 0.75
vt 0.53125 0.75
vt 0.53125 0.3125
vt 0.5 0.3125
vt 0.53125 0.75
vt 0.5 0.75
vt 0.5 0.3125
vt 0.53125 0.3125
vt 0.5 0.75
vt 0.53125 0.75
vt 0.53125 0.3125
vt 0.5 0.3125
vt 0.5 0.75
vt 0.53125 0.75
vt 0.53125 0.3125
vt 0.5 0.3125
vt 0.460938125 0.8125
vt 0.414061875 0.8125
vt 0.414061875 0.9375
vt 0.460938125 0.9375
vt 0.5 0.75
vt 0.53125 0.75
vt 0.53125 0.3125
vt 0.5 0.3125
vt 0.53125 0.75
vt 0.5 0.75
vt 0.5 0.3125
vt 0.53125 0.3125
vt 0.53125 0.75
vt 0.5 0.75
vt 0.5 0.3125
vt 0.53125 0.3125
vt 0.5 0.75
vt 0.53125 0.75
vt 0.53125 0.3125
vt 0.5 0.3125
vt 0.53125 0.75
vt 0.5 0.75
vt 0.5 0.3125
vt 0.53125 0.3125
vt 0.5 0.75
vt 0.53125 0.75
vt 0.53125 0.3125
vt 0.5 0.3125
vt 0.53125 0.75
vt 0.5 0.75
vt 0.5 0.3125
vt 0.53125 0.3125
vt 0.5 0.75
vt 0.53125 0.75
vt 0.53125 0.3125
vt 0.5 0.3125
vt 0.5 0.75
vt 0.53125 0.75
vt 0.53125 0.3125
vt 0.5 0.3125
vt 0.53125 0.75
vt 0.5 0.75
vt 0.5 0.3125
vt 0.53125 0.3125
vt 0.414061875 0.90625
vt 0.460938125 0.90625
vt 0.460938125 0.84375
vt 0.414061875 0.84375
vt 0.414061875 0.90625
vt 0.460938125 0.90625
vt 0.460938125 0.84375
vt 0.414061875 0.84375
vt 0.25 0.375
vt 0.25 0.4375
vt 0.375 0.4375
vt 0.375 0.375
vt 0.5 0.75
vt 0.53125 0.75
vt 0.53125 0.3125
vt 0.5 0.3125
vt 0.5 0.75
vt 0.53125 0.75
vt 0.53125 0.3125
vt 0.5 0.3125
vt 0.414061875 0.9375
vt 0.460938125 0.9375
vt 0.460938125 0.8125
vt 0.414061875 0.8125
vt 0.375 0.4375
vt 0.375 0.375
vt 0.25 0.375
vt 0.25 0.4375
vt 0.53125 0.75
vt 0.5 0.75
vt 0.5 0.3125
vt 0.53125 0.3125
vt 0.5 0.75
vt 0.53125 0.75
vt 0.53125 0.3125
vt 0.5 0.3125
vt 0.53125 0.75
vt 0.5 0.75
vt 0.5 0.3125
vt 0.53125 0.3125
vt 0.5 0.75
vt 0.53125 0.75
vt 0.53125 0.3125
vt 0.5 0.3125
vt 0.53125 0.75
vt 0.5 0.75
vt 0.5 0.3125
vt 0.53125 0.3125
vt 0.460938125 0.8125
vt 0.414061875 0.8125
vt 0.414061875 0.9375
vt 0.460938125 0.9375
vt 0.375 0.4375
vt 0.375 0.375
vt 0.25 0.375
vt 0.25 0.4375
vt 0.414061875 0.9375
vt 0.460938125 0.9375
vt 0.460938125 0.8125
vt 0.414061875 0.8125
vt 0.25 0.375
vt 0.25 0.4375
vt 0.375 0.4375
vt 0.375 0.375
vt 0.414061875 0.90625
vt 0.460938125 0.90625
vt 0.460938125 0.84375
vt 0.414061875 0.84375
vt 0.414061875 0.90625
vt 0.460938125 0.90625
vt 0.460938125 0.84375
vt 0.414061875 0.84375
vt 0.578125 0.25
vt 0.53125 0.25
vt 0.53125 0.75
vt 0.578125 0.75
vt 0.578125 0.25
vt 0.53125 0.25
vt 0.53125 0.75
vt 0.578125 0.75
vt 0.53125 0.25
vt 0.578125 0.25
vt 0.578125 0.75
vt 0.53125 0.75
vt 0.578125 0.25
vt 0.53125 0.25
vt 0.53125 0.75
vt 0.578125 0.75
vt 0.578125 0.25
vt 0.53125 0.25
vt 0.53125 0.75
vt 0.578125 0.75
vt 0.578125 0.25
vt 0.53125 0.25
vt 0.53125 0.75
vt 0.578125 0.75
vt 0.53125 0.25
vt 0.578125 0.25
vt 0.578125 0.75
vt 0.53125 0.75
vt 0.578125 0.25
vt 0.53125 0.25
vt 0.53125 0.75
vt 0.578125 0.75
vt 0.578125 0.25
vt 0.53125 0.25
vt 0.53125 0.75
vt 0.578125 0.75
vt 0.578125 0.25
vt 0.53125 0.25
vt 0.53125 0.75
vt 0.578125 0.75
vt 0.53125 0.25
vt 0.578125 0.25
vt 0.578125 0.75
vt 0.53125 0.75
vt 0.578125 0.25
vt 0.53125 0.25
vt 0.53125 0.75
vt 0.578125 0.75
vt 0.578125 0.25
vt 0.53125 0.25
vt 0.53125 0.75
vt 0.578125 0.75
vt 0.578125 0.25
vt 0.53125 0.25
vt 0.53125 0.75
vt 0.578125 0.75
vt 0.53125 0.25
vt 0.578125 0.25
vt 0.578125 0.75
vt 0.53125 0.75
vt 0.578125 0.25
vt 0.53125 0.25
vt 0.53125 0.75
vt 0.578125 0.75
vt 0.578125 0.25
vt 0.53125 0.25
vt 0.53125 0.75
vt 0.578125 0.75
vt 0.578125 0.25
vt 0.53125 0.25
vt 0.53125 0.75
vt 0.578125 0.75
vt 0.53125 0.25
vt 0.578125 0.25
vt 0.578125 0.75
vt 0.53125 0.75
vt 0.578125 0.25
vt 0.53125 0.25
vt 0.53125 0.75
vt 0.578125 0.75
vt 0.578125 0.25
vt 0.53125 0.25
vt 0.53125 0.75
vt 0.578125 0.75
vt 0.578125 0.25
vt 0.53125 0.25
vt 0.53125 0.75
vt 0.578125 0.75
vt 0.53125 0.25
vt 0.578125 0.25
vt 0.578125 0.75
vt 0.53125 0.75
vt 0.578125 0.25
vt 0.53125 0.25
vt 0.53125 0.75
vt 0.578125 0.75
vt 0.578125 0.25
vt 0.53125 0.25
vt 0.53125 0.75
vt 0.578125 0.75
vt 0.578125 0.25
vt 0.53125 0.25
vt 0.53125 0.75
vt 0.578125 0.75
vt 0.53125 0.25
vt 0.578125 0.25
vt 0.578125 0.75
vt 0.53125 0.75
vt 0.578125 0.25
vt 0.53125 0.25
vt 0.53125 0.75
vt 0.578125 0.75
vt 0.5 0.75
vt 0.53125 0.75
vt 0.53125 0.3125
vt 0.5 0.3125
vt 0.53125 0.75
vt 0.5 0.75
vt 0.5 0.3125
vt 0.53125 0.3125
vt 0.5 0.75
vt 0.53125 0.75
vt 0.53125 0.3125
vt 0.5 0.3125
vt 0.53125 0.75
vt 0.5 0.75
vt 0.5 0.3125
vt 0.53125 0.3125
vt 0.5 0.75
vt 0.53125 0.75
vt 0.53125 0.3125
vt 0.5 0.3125
vt 0.53125 0.75
vt 0.5 0.75
vt 0.5 0.3125
vt 0.53125 0.3125
vt 0.5 0.75
vt 0.53125 0.75
vt 0.53125 0.3125
vt 0.5 0.3125
vt 0.5 0.75
vt 0.53125 0.75
vt 0.53125 0.3125
vt 0.5 0.3125
vt 0.53125 0.75
vt 0.5 0.75
vt 0.5 0.3125
vt 0.53125 0.3125
vt 0.5 0.75
vt 0.53125 0.75
vt 0.53125 0.3125
vt 0.5 0.3125
vt 0.5 0.75
vt 0.53125 0.75
vt 0.53125 0.3125
vt 0.5 0.3125
vt 0.53125 0.75
vt 0.5 0.75
vt 0.5 0.3125
vt 0.53125 0.3125
vt 0.5 0.75
vt 0.53125 0.75
vt 0.53125 0.3125
vt 0.5 0.3125
vt 0.53125 0.75
vt 0.5 0.75
vt 0.5 0.3125
vt 0.53125 0.3125
vt 0.460938125 0.8125
vt 0.414061875 0.8125
vt 0.414061875 0.9375
vt 0.460938125 0.9375
vt 0.375 0.4375
vt 0.375 0.375
vt 0.25 0.375
vt 0.25 0.4375
vt 0.414061875 0.9375
vt 0.460938125 0.9375
vt 0.460938125 0.8125
vt 0.414061875 0.8125
vt 0.25 0.375
vt 0.25 0.4375
vt 0.375 0.4375
vt 0.375 0.375
vt 0.414061875 0.90625
vt 0.460938125 0.90625
vt 0.460938125 0.84375
vt 0.414061875 0.84375
vt 0.414061875 0.90625
vt 0.460938125 0.90625
vt 0.460938125 0.84375
vt 0.414061875 0.84375
vt 0.5 0.75
vt 0.53125 0.75
vt 0.53125 0.3125
vt 0.5 0.3125
vt 0.53125 0.75
vt 0.5 0.75
vt 0.5 0.3125
vt 0.53125 0.3125
vt 0.5 0.75
vt 0.53125 0.75
vt 0.53125 0.3125
vt 0.5 0.3125
vt 0.53125 0.75
vt 0.5 0.75
vt 0.5 0.3125
vt 0.53125 0.3125
vt 0.5 0.75
vt 0.53125 0.75
vt 0.53125 0.3125
vt 0.5 0.3125
vt 0.5 0.75
vt 0.53125 0.75
vt 0.53125 0.3125
vt 0.5 0.3125
vt 0.53125 0.75
vt 0.5 0.75
vt 0.5 0.3125
vt 0.53125 0.3125
vt 0.5 0.75
vt 0.53125 0.75
vt 0.53125 0.3125
vt 0.5 0.3125
vt 0.5 0.75
vt 0.53125 0.75
vt 0.53125 0.3125
vt 0.5 0.3125
vt 0.53125 0.75
vt 0.5 0.75
vt 0.5 0.3125
vt 0.53125 0.3125
vt 0 0.625
vt 0.375 0.625
vt 0.375 0.5625
vt 0 0.5625
vt 0 0.625
vt 0.375 0.625
vt 0.375 0.5625
vt 0 0.5625
vt 0.125 0.476561875
vt 0.25 0.476561875
vt 0.25 0.5625
vt 0.125 0.5625
vt 0.125 0.476561875
vt 0.25 0.476561875
vt 0.25 0.5625
vt 0.125 0.5625
vt 0.5 0.8125
vt 0.5 0.75
vt 0.4375 0.75
vt 0.492188125 0.8125
vt 0.382811875 0.8125
vt 0.4375 0.75
vt 0.375 0.75
vt 0.375 0.8125
vt 0 0.625
vt 0.375 0.625
vt 0.375 0.5625
vt 0 0.5625
vt 0.125 0.476561875
vt 0.25 0.476561875
vt 0.25 0.5625
vt 0.125 0.5625
vt 0.125 0.476561875
vt 0.25 0.476561875
vt 0.25 0.5625
vt 0.125 0.5625
vt 0.5 0.8125
vt 0.5 0.75
vt 0.4375 0.75
vt 0.492188125 0.8125
vt 0.382811875 0.8125
vt 0.4375 0.75
vt 0.375 0.75
vt 0.375 0.8125
vt 0.125 0.476561875
vt 0.25 0.476561875
vt 0.25 0.5625
vt 0.125 0.5625
vt 0.125 0.476561875
vt 0.25 0.476561875
vt 0.25 0.5625
vt 0.125 0.5625
vt 0.5 0.8125
vt 0.5 0.75
vt 0.4375 0.75
vt 0.492188125 0.8125
vt 0.382811875 0.8125
vt 0.4375 0.75
vt 0.375 0.75
vt 0.375 0.8125
vt 0.125 0.476561875
vt 0.25 0.476561875
vt 0.25 0.5625
vt 0.125 0.5625
vt 0.125 0.476561875
vt 0.25 0.476561875
vt 0.25 0.5625
vt 0.125 0.5625
vt 0.5 0.8125
vt 0.5 0.75
vt 0.4375 0.75
vt 0.492188125 0.8125
vt 0.382811875 0.8125
vt 0.4375 0.75
vt 0.375 0.75
vt 0.375 0.8125
vt 0.625 0
vt 1 0
vt 1 0.375
vt 0.625 0.375
vt 0 0.625
vt 0.375 0.625
vt 0.375 0.5625
vt 0 0.5625
vt 0.53125 0.8125
vt 0.53125 0.75
vt 0.5 0.75
vt 0.5 0.8125
vt 0.53125 0.8125
vt 0.53125 0.75
vt 0.5 0.75
vt 0.5 0.8125
vt 0.53125 0.8125
vt 0.53125 0.75
vt 0.5 0.75
vt 0.5 0.8125
vt 0.375 0.5625
vt 0.375 0.5
vt 0.5 0.5
vt 0.5 0.5625
vt 0.53125 0.8125
vt 0.53125 0.75
vt 0.5 0.75
vt 0.5 0.8125
vt 0.375 0.5
vt 0.375 0.5625
vt 0.5 0.5625
vt 0.5 0.5
vt 0.375 0.5625
vt 0.375 0.5
vt 0.5 0.5
vt 0.5 0.5625
vt 0.53125 0.8125
vt 0.53125 0.75
vt 0.5 0.75
vt 0.5 0.8125
vt 0.53125 0.8125
vt 0.53125 0.75
vt 0.5 0.75
vt 0.5 0.8125
vt 0.53125 0.8125
vt 0.710938125 0.8125
vt 0.710938125 0.75
vt 0.53125 0.75
vt 0.53125 0.8125
vt 0.53125 0.75
vt 0.5 0.75
vt 0.5 0.8125
vt 0.53125 0.8125
vt 0.53125 0.75
vt 0.5 0.75
vt 0.5 0.8125
vt 0.53125 0.8125
vt 0.53125 0.75
vt 0.5 0.75
vt 0.5 0.8125
vt 0.53125 0.8125
vt 0.53125 0.75
vt 0.5 0.75
vt 0.5 0.8125
vt 0.53125 0.8125
vt 0.53125 0.75
vt 0.5 0.75
vt 0.5 0.8125
vt 0.53125 0.8125
vt 0.53125 0.75
vt 0.5 0.75
vt 0.5 0.8125
vt 0.53125 0.75
vt 0.53125 0.8125
vt 0.5 0.8125
vt 0.5 0.75
vt 0.53125 0.8125
vt 0.5 0.8125
vt 0.5 0.75
vt 0.53125 0.75
vt 0.53125 0.8125
vt 0.53125 0.75
vt 0.5 0.75
vt 0.5 0.8125
vt 0.375 0.5625
vt 0.375 0.5
vt 0.5 0.5
vt 0.5 0.5625
vt 0 1
vt 0 0.625
vt 0.375 0.625
vt 0.375 1
vt 0.375 0.5625
vt 0 0.5625
vt 0 0.625
vt 0.375 0.625
vt 0.375 0.5625
vt 0 0.5625
vt 0 0.625
vt 0.375 0.625
vt 0.125 0.476561875
vt 0.25 0.476561875
vt 0.25 0.5625
vt 0.125 0.5625
vt 0.125 0.476561875
vt 0.25 0.476561875
vt 0.25 0.5625
vt 0.125 0.5625
vt 0.375 0.9375
vt 0.375 1
vt 0.4375 1
vt 0.382811875 0.9375
vt 0.492188125 0.9375
vt 0.4375 1
vt 0.5 1
vt 0.5 0.9375
vt 0.375 0.5625
vt 0 0.5625
vt 0 0.625
vt 0.375 0.625
vt 0.125 0.476561875
vt 0.25 0.476561875
vt 0.25 0.5625
vt 0.125 0.5625
vt 0.125 0.476561875
vt 0.25 0.476561875
vt 0.25 0.5625
vt 0.125 0.5625
vt 0.375 0.9375
vt 0.375 1
vt 0.4375 1
vt 0.382811875 0.9375
vt 0.492188125 0.9375
vt 0.4375 1
vt 0.5 1
vt 0.5 0.9375
vt 0.125 0.476561875
vt 0.25 0.476561875
vt 0.25 0.5625
vt 0.125 0.5625
vt 0.125 0.476561875
vt 0.25 0.476561875
vt 0.25 0.5625
vt 0.125 0.5625
vt 0.375 0.9375
vt 0.375 1
vt 0.4375 1
vt 0.382811875 0.9375
vt 0.492188125 0.9375
vt 0.4375 1
vt 0.5 1
vt 0.5 0.9375
vt 0.125 0.476561875
vt 0.25 0.476561875
vt 0.25 0.5625
vt 0.125 0.5625
vt 0.125 0.476561875
vt 0.25 0.476561875
vt 0.25 0.5625
vt 0.125 0.5625
vt 0.375 0.9375
vt 0.375 1
vt 0.4375 1
vt 0.382811875 0.9375
vt 0.492188125 0.9375
vt 0.4375 1
vt 0.5 1
vt 0.5 0.9375
vt 0 0.625
vt 0.375 0.625
vt 0.375 1
vt 0 1
vt 0.375 0.5625
vt 0 0.5625
vt 0 0.625
vt 0.375 0.625
vt 0.53125 0.9375
vt 0.53125 1
vt 0.5 1
vt 0.5 0.9375
vt 0.53125 0.9375
vt 0.53125 1
vt 0.5 1
vt 0.5 0.9375
vt 0.53125 0.9375
vt 0.53125 1
vt 0.5 1
vt 0.5 0.9375
vt 0.5 0.9375
vt 0.5 1
vt 0.53125 1
vt 0.53125 0.9375
vt 0.5 0.6875
vt 0.5 0.75
vt 0.375 0.75
vt 0.375 0.6875
vt 0.53125 0.9375
vt 0.53125 1
vt 0.5 1
vt 0.5 0.9375
vt 0.5 0.75
vt 0.5 0.6875
vt 0.375 0.6875
vt 0.375 0.75
vt 0.5 0.6875
vt 0.5 0.75
vt 0.375 0.75
vt 0.375 0.6875
vt 0.53125 0.9375
vt 0.53125 1
vt 0.5 1
vt 0.5 0.9375
vt 0.53125 0.9375
vt 0.53125 1
vt 0.5 1
vt 0.5 0.9375
vt 0.53125 0.9375
vt 0.710938125 0.9375
vt 0.710938125 0.875
vt 0.53125 0.875
vt 0.53125 0.9375
vt 0.53125 1
vt 0.5 1
vt 0.5 0.9375
vt 0.53125 0.9375
vt 0.53125 1
vt 0.5 1
vt 0.5 0.9375
vt 0.53125 0.9375
vt 0.53125 1
vt 0.5 1
vt 0.5 0.9375
vt 0.53125 0.9375
vt 0.53125 1
vt 0.5 1
vt 0.5 0.9375
vt 0.53125 0.9375
vt 0.53125 1
vt 0.5 1
vt 0.5 0.9375
vt 0.53125 0.9375
vt 0.53125 1
vt 0.5 1
vt 0.5 0.9375
vt 0.5 0.9375
vt 0.5 1
vt 0.53125 1
vt 0.53125 0.9375
vt 0.53125 0.9375
vt 0.5 0.9375
vt 0.5 1
vt 0.53125 1
vt 0.53125 0.9375
vt 0.53125 1
vt 0.5 1
vt 0.5 0.9375
vt 0.5 0.6875
vt 0.5 0.75
vt 0.375 0.75
vt 0.375 0.6875
vt 0 1
vt 0 0.625
vt 0.375 0.625
vt 0.375 1
vt 0.375 0.5625
vt 0.382811875 0.5625
vt 0.382811875 0.6875
vt 0.375 0.6875
vt 0 0.4375
vt 0.125 0.4375
vt 0.125 0.5625
vt 0 0.5625
vt 0.375 0.5625
vt 0.382811875 0.5625
vt 0.382811875 0.6875
vt 0.375 0.6875
vt 0 0.4375
vt 0.125 0.4375
vt 0.125 0.5625
vt 0 0.5625
vt 0.375 0.5625
vt 0.382811875 0.5625
vt 0.382811875 0.6875
vt 0.375 0.6875
vt 0 0.4375
vt 0.125 0.4375
vt 0.125 0.5625
vt 0 0.5625
vt 0 0.4375
vt 0.125 0.4375
vt 0.125 0.5625
vt 0 0.5625
vt 0.375 0.5625
vt 0.382811875 0.5625
vt 0.382811875 0.6875
vt 0.375 0.6875
vt 0 0.4375
vt 0.125 0.4375
vt 0.125 0.5625
vt 0 0.5625
vt 0.375 0.5625
vt 0.382811875 0.5625
vt 0.382811875 0.6875
vt 0.375 0.6875
vt 0.382811875 0.5625
vt 0.382811875 0.6875
vt 0.375 0.6875
vt 0.375 0.5625
vt 0 0.4375
vt 0.125 0.4375
vt 0.125 0.5625
vt 0 0.5625
vt 0.5 0.6875
vt 0.5 0.5625
vt 0.375 0.5625
vt 0.375 0.6875
vt 0 0.4375
vt 0.125 0.4375
vt 0.125 0.5625
vt 0 0.5625
vt 0.375 0.5625
vt 0.382811875 0.5625
vt 0.382811875 0.6875
vt 0.375 0.6875
vt 0 0.4375
vt 0.125 0.4375
vt 0.125 0.5625
vt 0 0.5625
vt 0.375 0.5625
vt 0.382811875 0.5625
vt 0.382811875 0.6875
vt 0.375 0.6875
vt 0 0
vt 1 0
vt 1 1
vt 0 1
vt 0.710938125 0.9375
vt 0.53125 0.9375
vt 0.53125 1
vt 0.710938125 1
vt 0.53125 0.875
vt 0.53125 0.9375
vt 0.710938125 0.9375
vt 0.710938125 0.875
vt 0.710938125 0.875
vt 0.53125 0.875
vt 0.53125 0.9375
vt 0.710938125 0.9375
vt 0.53125 0.875
vt 0.53125 0.9375
vt 0.710938125 0.9375
vt 0.710938125 0.875
vt 0.710938125 0.875
vt 0.710938125 0.8125
vt 0.53125 0.8125
vt 0.53125 0.875
vt 0.710938125 0.875
vt 0.710938125 0.8125
vt 0.53125 0.8125
vt 0.53125 0.875
vt 0.53125 0.8125
vt 0.53125 0.9375
vt 0.5 0.9375
vt 0.5 0.8125
vt 0.53125 0.8125
vt 0.53125 0.9375
vt 0.5 0.9375
vt 0.5 0.8125
vt 0.53125 0.8125
vt 0.53125 0.9375
vt 0.5 0.9375
vt 0.5 0.8125
vt 0.53125 0.8125
vt 0.53125 0.9375
vt 0.5 0.9375
vt 0.5 0.8125
vt 0.53125 0.8125
vt 0.53125 0.9375
vt 0.5 0.9375
vt 0.5 0.8125
vt 0.53125 0.8125
vt 0.53125 0.9375
vt 0.5 0.9375
vt 0.5 0.8125
vt 0.53125 0.8125
vt 0.53125 0.9375
vt 0.5 0.9375
vt 0.5 0.8125
vt 0.5 0.5625
vt 0.5 0.6875
vt 0.375 0.6875
vt 0.375 0.5625
vt 0.53125 0.8125
vt 0.53125 0.9375
vt 0.5 0.9375
vt 0.5 0.8125
vt 0.53125 0.8125
vt 0.53125 0.9375
vt 0.5 0.9375
vt 0.5 0.8125
vt 0.53125 0.8125
vt 0.53125 0.9375
vt 0.5 0.9375
vt 0.5 0.8125
vt 0.53125 0.8125
vt 0.53125 0.9375
vt 0.5 0.9375
vt 0.5 0.8125
vt 0.53125 0.8125
vt 0.53125 0.9375
vt 0.5 0.9375
vt 0.5 0.8125
vt 0.5 0.5625
vt 0.5 0.6875
vt 0.375 0.6875
vt 0.375 0.5625
vt 0.53125 0.8125
vt 0.53125 0.9375
vt 0.5 0.9375
vt 0.5 0.8125
vt 0.53125 0.8125
vt 0.53125 0.9375
vt 0.5 0.9375
vt 0.5 0.8125
vt 0.53125 0.8125
vt 0.53125 0.9375
vt 0.5 0.9375
vt 0.5 0.8125
vt 0.53125 0.8125
vt 0.53125 0.9375
vt 0.5 0.9375
vt 0.5 0.8125
vt 0.5 0.5625
vt 0.5 0.6875
vt 0.375 0.6875
vt 0.375 0.5625
vt 0.53125 0.75
vt 0.5 0.75
vt 0.5 0.3125
vt 0.53125 0.3125
vt 0.53125 0.75
vt 0.5 0.75
vt 0.5 0.3125
vt 0.53125 0.3125
vt 0.53125 0.75
vt 0.5 0.75
vt 0.5 0.3125
vt 0.53125 0.3125
vt 0.53125 0.75
vt 0.5 0.75
vt 0.5 0.3125
vt 0.53125 0.3125
vt 0.53125 0.75
vt 0.5 0.75
vt 0.5 0.3125
vt 0.53125 0.3125
vt 0.53125 0.75
vt 0.5 0.75
vt 0.5 0.3125
vt 0.53125 0.3125
vt 0.53125 0.75
vt 0.5 0.75
vt 0.5 0.3125
vt 0.53125 0.3125
vt 0.53125 0.75
vt 0.5 0.75
vt 0.5 0.3125
vt 0.53125 0.3125
vt 0.53125 0.8125
vt 0.53125 0.75
vt 0.5 0.75
vt 0.5 0.8125
vn 1 0 0
vn -1 0 0
vn 0 0 -1
vn 1 0 0
vn 0 0 1
vn 0 -1 0
vn 0 1 0
vn 0 0 -1
vn 1 0 0
vn 0 0 1
vn 0 -1 0
vn 0 1 0
vn 0 0 -1
vn 1 0 0
vn 0 0 1
vn -1 0 0
vn 0 0 -1
vn 1 0 0
vn 0 0 1
vn -1 0 0
vn 0 -1 0
vn 0 1 0
vn 0 0 -1
vn 1 0 0
vn 0 0 1
vn -1 0 0
vn 0 -1 0
vn 0 1 0
vn 0 0 -1
vn -1 0 0
vn 0 0 1
vn 1 0 0
vn 0 1 0
vn 0 0 -1
vn -1 0 0
vn 0 0 1
vn 1 0 0
vn 0 1 0
vn 0 0 -1
vn -1 0 0
vn 0 0 1
vn 1 0 0
vn 0 1 0
vn 0 0 -1
vn -1 0 0
vn 0 0 1
vn 1 0 0
vn 0 1 0
vn 0 0 -1
vn -1 0 0
vn 0 0 1
vn 1 0 0
vn -1 0 0
vn 1 0 0
vn 0 0.24279064885010795 -0.9700787085752082
vn 0 0.24279064885010795 -0.9700787085752082
vn 1 0 0
vn 0 1 0
vn 0 -1 0
vn 0 -0.24279064885010795 0.9700787085752082
vn -1 0 0
vn 0 0 -1
vn -1 0 0
vn 0 -0.24279064885010795 -0.9700787085752082
vn 1 0 0
vn 0 0 1
vn 1 0 0
vn 0 0.24279064885010795 0.9700787085752082
vn -1 0 0
vn -1 0 0
vn 0 0.24279064885010795 0.9700787085752082
vn 0 -0.24279064885010795 0.9700787085752082
vn 1 0 0
vn 0 -0.24279064885010795 -0.9700787085752082
vn -1 0 0
vn 0 0.24279064885010795 -0.9700787085752082
vn 0 0 1
vn 0 -0.24279064885010795 0.9700787085752082
vn -1 0 0
vn 1 0 0
vn 0 -0.24279064885010795 0.9700787085752082
vn 1 0 0
vn 0 0.24279064885010795 0.9700787085752082
vn -1 0 0
vn 1 0 0
vn 0 0.24279064885010795 -0.9700787085752082
vn 0 -0.24279064885010795 -0.9700787085752082
vn 1 0 0
vn 0 1 0
vn 0 -1 0
vn -1 0 0
vn 0 0.24279064885010795 0.9700787085752082
vn 0 -0.24279064885010795 -0.9700787085752082
vn 0 0 -1
vn 1 0 0
vn -1 0 0
vn -0.9700787085752082 -0.24279064885010795 0
vn 0 0 -1
vn 0.9700787085752082 0.24279064885010795 0
vn 0 0 1
vn 1 0 0
vn 0 0 -1
vn -1 0 0
vn 0 0 1
vn 0 -1 0
vn 0 1 0
vn 0 0 -1
vn -1 0 0
vn 0 0 1
vn 1 0 0
vn 0 0 -1
vn -1 0 0
vn 0 0 1
vn 1 0 0
vn 0 0 -1
vn -1 0 0
vn 0 0 1
vn 1 0 0
vn 0 0 -1
vn -1 0 0
vn 0 0 1
vn 1 0 0
vn 0 0 -1
vn -1 0 0
vn 0 0 1
vn 1 0 0
vn 0 0 -1
vn -1 0 0
vn 0 0 1
vn 1 0 0
vn 0 0 -1
vn -1 0 0
vn 0 0 1
vn 1 0 0
vn -0.9700787085752082 0.24279064885010795 0
vn 0 0 -1
vn 0.9700787085752082 -0.24279064885010795 0
vn 0 0 1
vn 0.9700787085752082 0.24279064885010795 0
vn 0 0 -1
vn -0.9700787085752082 -0.24279064885010795 0
vn 0 0 1
vn 0.9700787085752082 -0.24279064885010795 0
vn 0 0 -1
vn -0.9700787085752082 0.24279064885010795 0
vn 0 0 1
vn -0.9700787085752082 -0.24279064885010795 0
vn 0 0 -1
vn 0.9700787085752082 0.24279064885010795 0
vn 0 0 1
vn 1 0 0
vn 0 0 -1
vn -1 0 0
vn 0 0 1
vn 0 -1 0
vn 0 1 0
vn -0.9700787085752082 0.24279064885010795 0
vn 0 0 -1
vn 0.9700787085752082 -0.24279064885010795 0
vn 0 0 1
vn 0.9700787085752082 0.24279064885010795 0
vn 0 0 -1
vn -0.9700787085752082 -0.24279064885010795 0
vn 0 0 1
vn 0.9700787085752082 -0.24279064885010795 0
vn 0 0 -1
vn -0.9700787085752082 0.24279064885010795 0
vn 0 0 1
vn 0 0 -1
vn -1 0 0
vn 0 0 1
vn 1 0 0
vn 0 1 0
vn 0 0 -1
vn -1 0 0
vn 0 0 1
vn 1 0 0
vn 0 1 0
vn 0 0 -1
vn -1 0 0
vn 0 0 1
vn 1 0 0
vn 0 1 0
vn 0 0 -1
vn -1 0 0
vn 0 0 1
vn 1 0 0
vn 0 -1 0
vn 0 1 0
vn -0.7071067811865476 0 0.7071067811865476
vn 0 0 0
vn 0.7071067811865476 0 0.7071067811865476
vn 0.7071067811865476 0 -0.7071067811865476
vn -0.7071067811865476 0 -0.7071067811865476
vn 0 0 0
vn 0.7071067811865476 0 -0.7071067811865476
vn 0.7071067811865476 0 0.7071067811865476
vn 0.7071067811865476 0 0.7071067811865476
vn -0.7071067811865476 0 -0.7071067811865476
vn 0 0 -1
vn -1 0 0
vn 0 0 1
vn 1 0 0
vn 0 1 0
vn 0 0 -1
vn -1 0 0
vn 0 0 1
vn 1 0 0
vn -1 0 0
vn 1 0 0
vn 0 0.24279064885010795 -0.9700787085752082
vn 0 0.24279064885010795 -0.9700787085752082
vn 0 1 0
vn 0 -1 0
vn 0 -0.24279064885010795 0.9700787085752082
vn -1 0 0
vn 0 0 -1
vn -1 0 0
vn 0 -0.24279064885010795 -0.9700787085752082
vn 1 0 0
vn 0 0 1
vn 0 0.24279064885010795 0.9700787085752082
vn -1 0 0
vn -1 0 0
vn 0 0.24279064885010795 0.9700787085752082
vn 0 -0.24279064885010795 0.9700787085752082
vn 1 0 0
vn 0 -0.24279064885010795 -0.9700787085752082
vn 0 0.24279064885010795 -0.9700787085752082
vn 0 0 1
vn 0 -0.24279064885010795 0.9700787085752082
vn -1 0 0
vn 1 0 0
vn 0 -0.24279064885010795 0.9700787085752082
vn 1 0 0
vn 0 0.24279064885010795 0.9700787085752082
vn 1 0 0
vn 0 0.24279064885010795 -0.9700787085752082
vn 0 -0.24279064885010795 -0.9700787085752082
vn 1 0 0
vn 0 1 0
vn 0 -1 0
vn -1 0 0
vn 0 0.24279064885010795 0.9700787085752082
vn 0 -0.24279064885010795 -0.9700787085752082
vn 0 0 -1
vn 1 0 0
vn -1 0 0
vn -0.9700787085752082 -0.24279064885010795 0
vn 0 0 -1
vn 0.9700787085752082 0.24279064885010795 0
vn 0 0 1
vn 1 0 0
vn 0 0 -1
vn -1 0 0
vn 0 0 1
vn 0 -1 0
vn 0 1 0
vn 0 0 -1
vn -1 0 0
vn 0 0 1
vn 1 0 0
vn 0 0 -1
vn -1 0 0
vn 0 0 1
vn 1 0 0
vn 0 0 -1
vn -1 0 0
vn 0 0 1
vn 1 0 0
vn 0 0 -1
vn -1 0 0
vn 0 0 1
vn 1 0 0
vn 0 0 -1
vn -1 0 0
vn 0 0 1
vn 1 0 0
vn 0 0 -1
vn -1 0 0
vn 0 0 1
vn 1 0 0
vn 0 0 -1
vn -1 0 0
vn 0 0 1
vn 1 0 0
vn -0.9700787085752082 0.24279064885010795 0
vn 0 0 -1
vn 0.9700787085752082 -0.24279064885010795 0
vn 0 0 1
vn 0.9700787085752082 0.24279064885010795 0
vn 0 0 -1
vn -0.9700787085752082 -0.24279064885010795 0
vn 0.9700787085752082 -0.24279064885010795 0
vn 0 0 -1
vn -0.9700787085752082 0.24279064885010795 0
vn -0.9700787085752082 -0.24279064885010795 0
vn 0 0 -1
vn 0.9700787085752082 0.24279064885010795 0
vn 0 0 1
vn 1 0 0
vn 0 0 -1
vn -1 0 0
vn 0 0 1
vn 0 -1 0
vn 0 1 0
vn -0.9700787085752082 0.24279064885010795 0
vn 0 0 -1
vn 0.9700787085752082 -0.24279064885010795 0
vn 0 0 1
vn 0.9700787085752082 0.24279064885010795 0
vn -0.9700787085752082 -0.24279064885010795 0
vn 0 0 1
vn 0.9700787085752082 -0.24279064885010795 0
vn -0.9700787085752082 0.24279064885010795 0
vn 0 0 1
vn -1 0 0
vn 1 0 0
vn -0.7525766947068778 0.658504607868518 0
vn 0.7525766947068778 0.658504607868518 0
vn 0 0 -1
vn 0 0 -1
vn 0 0 1
vn 0 0.658504607868518 -0.7525766947068778
vn 0 0.658504607868518 0.7525766947068778
vn 1 0 0
vn 1 0 0
vn 0.7525766947068778 0.658504607868518 0
vn -0.7525766947068778 0.658504607868518 0
vn 0 0 1
vn 0 0 1
vn 0 0.658504607868518 0.7525766947068778
vn 0 0.658504607868518 -0.7525766947068778
vn -1 0 0
vn -1 0 0
vn 0 -1 0
vn 0 0 -1
vn 0 0 -1
vn 0 0 -1
vn -1 0 0
vn -1 0 0
vn 1 0 0
vn 1 0 0
vn 0 0 1
vn 1 0 0
vn -1 0 0
vn -0.7071067811865476 0 -0.7071067811865476
vn 0 0 -1
vn 0 0 1
vn 1 0 0
vn 1 0 0
vn -1 0 0
vn -1 0 0
vn 0 0 1
vn 0 0 1
vn 0 0 -1
vn 0 0 -1
vn 0 1 0
vn -1 0 0
vn 1 0 0
vn -0.7525766947068778 -0.658504607868518 0
vn 0.7525766947068778 -0.658504607868518 0
vn 0 0 1
vn 0 0 1
vn 0 0 -1
vn 0 -0.658504607868518 0.7525766947068778
vn 0 -0.658504607868518 -0.7525766947068778
vn 1 0 0
vn 1 0 0
vn 0.7525766947068778 -0.658504607868518 0
vn -0.7525766947068778 -0.658504607868518 0
vn 0 0 -1
vn 0 0 -1
vn 0 -0.658504607868518 -0.7525766947068778
vn 0 -0.658504607868518 0.7525766947068778
vn -1 0 0
vn -1 0 0
vn 0 1 0
vn 0 0 1
vn 0 0 1
vn 0 0 1
vn -1 0 0
vn 0 0 -1
vn -1 0 0
vn 1 0 0
vn 1 0 0
vn 0 0 -1
vn 1 0 0
vn -1 0 0
vn -0.7071067811865476 0 0.7071067811865476
vn 0 0 1
vn 0 0 -1
vn 1 0 0
vn 1 0 0
vn -1 0 0
vn -1 0 0
vn 0 0 -1
vn 0 0 -1
vn 0 0 1
vn 0 0 1
vn 0 -1 0
vn -1 0 0
vn 0 0 -1
vn -1 0 0
vn 0 0 1
vn 1 0 0
vn 0 0 -1
vn 0 0 1
vn 1 0 0
vn -1 0 0
vn 0 0 1
vn 0 0 1
vn 1 0 0
vn 1 0 0
vn 1 0 0
vn 0 0 -1
vn -1 0 0
vn 0 0 -1
vn 0 -1 0
vn -0.7071067811865476 0 0.7071067811865476
vn 0.7071067811865476 0 0.7071067811865476
vn 0.7071067811865476 0 -0.7071067811865476
vn -0.7071067811865476 0 -0.7071067811865476
vn -0.7071067811865476 0 0.7071067811865476
vn 0.7071067811865476 0 -0.7071067811865476
vn 0 0 1
vn -1 0 0
vn 0 0 1
vn 1 0 0
vn 0 0 -1
vn -1 0 0
vn 0 0 -1
vn 0 0 1
vn 1 0 0
vn 0 0 -1
vn 0 0 -1
vn -1 0 0
vn -1 0 0
vn -1 0 0
vn 1 0 0
vn 1 0 0
vn 0 0 1
vn 0 0 1
vn 0 0 -1
vn 1 0 0
vn 1 0 0
vn -1 0 0
vn -1 0 0
vn 0 0 1
vn 0 0 1
vn 0 0 -1
vn 0 0 -1
vn 0 0 1
usemtl m_61767fb8-97d6-9305-ac4a-86e30b0332d1
f 1/1/1 2/2/1 3/3/1 4/4/1
f 5/5/2 6/6/2 7/7/2 8/8/2
f 9/9/3 10/10/3 11/11/3 12/12/3
f 12/13/4 11/14/4 13/15/4 14/16/4
f 14/17/5 13/18/5 15/19/5 16/20/5
f 12/21/6 14/22/6 16/23/6 9/24/6
f 13/25/7 11/26/7 10/27/7 15/28/7
f 17/29/8 18/30/8 19/31/8 20/32/8
f 20/33/9 19/34/9 21/35/9 22/36/9
f 22/37/10 21/38/10 23/39/10 24/40/10
f 20/41/11 22/42/11 24/43/11 17/44/11
f 21/45/12 19/46/12 18/47/12 23/48/12
f 25/49/13 26/50/13 27/51/13 28/52/13
f 28/53/14 27/54/14 29/55/14 30/56/14
f 30/57/15 29/58/15 31/59/15 32/60/15
f 32/61/16 31/62/16 26/63/16 25/64/16
f 33/65/17 34/66/17 35/67/17 36/68/17
f 36/69/18 35/70/18 37/71/18 38/72/18
f 38/73/19 37/74/19 39/75/19 40/76/19
f 40/77/20 39/78/20 34/79/20 33/80/20
f 36/81/21 38/82/21 40/83/21 33/84/21
f 37/85/22 35/86/22 34/87/22 39/88/22
f 41/89/23 42/90/23 43/91/23 44/92/23
f 44/93/24 43/94/24 45/95/24 46/96/24
f 46/97/25 45/98/25 47/99/25 48/100/25
f 48/101/26 47/102/26 42/103/26 41/104/26
f 44/105/27 46/106/27 48/107/27 41/108/27
f 45/109/28 43/110/28 42/111/28 47/112/28
f 49/113/29 50/114/29 51/115/29 52/116/29
f 50/117/30 53/118/30 54/119/30 51/120/30
f 53/121/31 55/122/31 56/123/31 54/124/31
f 55/125/32 49/126/32 52/127/32 56/128/32
f 54/129/33 56/130/33 52/131/33 51/132/33
f 57/133/34 58/134/34 59/135/34 60/136/34
f 58/137/35 61/138/35 62/139/35 59/140/35
f 61/141/36 63/142/36 64/143/36 62/144/36
f 63/145/37 57/146/37 60/147/37 64/148/37
f 62/149/38 64/150/38 60/151/38 59/152/38
f 65/153/39 66/154/39 67/155/39 68/156/39
f 66/157/40 69/158/40 70/159/40 67/160/40
f 69/161/41 71/162/41 72/163/41 70/164/41
f 71/165/42 65/166/42 68/167/42 72/168/42
f 70/169/43 72/170/43 68/171/43 67/172/43
f 73/173/44 74/174/44 75/175/44 76/176/44
f 74/177/45 77/178/45 78/179/45 75/180/45
f 77/181/46 79/182/46 80/183/46 78/184/46
f 79/185/47 73/186/47 76/187/47 80/188/47
f 78/189/48 80/190/48 76/191/48 75/192/48
f 81/193/49 82/194/49 83/195/49 84/196/49
f 82/197/50 85/198/50 86/199/50 83/200/50
f 85/201/51 87/202/51 88/203/51 86/204/51
f 87/205/52 81/206/52 84/207/52 88/208/52
f 89/209/53 90/210/53 91/211/53 92/212/53
f 93/213/54 94/214/54 95/215/54 96/216/54
f 97/217/55 93/218/55 96/219/55 98/220/55
f 99/221/56 89/222/56 92/223/56 100/224/56
f 101/225/57 99/226/57 100/227/57 102/228/57
f 103/229/58 104/230/58 105/231/58 106/232/58
f 107/233/59 108/234/59 109/235/59 110/236/59
f 90/237/60 101/238/60 102/239/60 91/240/60
f 109/241/61 108/242/61 105/243/61 104/244/61
f 110/245/62 109/246/62 104/247/62 103/248/62
f 111/249/63 112/250/63 113/251/63 114/252/63
f 115/253/64 111/254/64 114/255/64 116/256/64
f 107/257/65 110/258/65 103/259/65 106/260/65
f 108/261/66 107/262/66 106/263/66 105/264/66
f 117/265/67 115/266/67 116/267/67 118/268/67
f 112/269/68 117/270/68 118/271/68 113/272/68
f 119/273/69 97/274/69 98/275/69 120/276/69
f 121/277/70 122/278/70 123/279/70 124/280/70
f 125/281/71 121/282/71 124/283/71 126/284/71
f 94/285/72 119/286/72 120/287/72 95/288/72
f 127/289/73 125/290/73 126/291/73 128/292/73
f 122/293/74 127/294/74 128/295/74 123/296/74
f 129/297/75 130/298/75 131/299/75 132/300/75
f 133/301/76 129/302/76 132/303/76 134/304/76
f 135/305/77 136/306/77 137/307/77 138/308/77
f 139/309/78 140/310/78 141/311/78 142/312/78
f 143/313/79 144/314/79 145/315/79 146/316/79
f 147/317/80 133/318/80 134/319/80 148/320/80
f 130/321/81 147/322/81 148/323/81 131/324/81
f 149/325/82 139/326/82 142/327/82 150/328/82
f 151/329/83 143/330/83 146/331/83 152/332/83
f 153/333/84 154/334/84 155/335/84 156/336/84
f 157/337/85 151/338/85 152/339/85 158/340/85
f 159/341/86 149/342/86 150/343/86 160/344/86
f 161/345/87 153/346/87 156/347/87 162/348/87
f 163/349/88 161/350/88 162/351/88 164/352/88
f 165/353/89 166/354/89 138/355/89 137/356/89
f 136/357/90 135/358/90 167/359/90 168/360/90
f 167/361/91 135/362/91 138/363/91 166/364/91
f 154/365/92 163/366/92 164/367/92 155/368/92
f 144/369/93 157/370/93 158/371/93 145/372/93
f 168/373/94 167/374/94 166/375/94 165/376/94
f 136/377/95 168/378/95 165/379/95 137/380/95
f 140/381/96 159/382/96 160/383/96 141/384/96
f 169/385/97 170/386/97 171/387/97 172/388/97
f 170/389/98 173/390/98 174/391/98 171/392/98
f 173/393/99 175/394/99 176/395/99 174/396/99
f 175/397/100 169/398/100 172/399/100 176/400/100
f 177/401/101 178/402/101 179/403/101 180/404/101
f 178/405/102 181/406/102 182/407/102 179/408/102
f 181/409/103 183/410/103 184/411/103 182/412/103
f 183/413/104 177/414/104 180/415/104 184/416/104
f 178/417/105 177/418/105 183/419/105 181/420/105
f 182/421/106 184/422/106 180/423/106 179/424/106
f 185/425/107 186/426/107 82/427/107 81/428/107
f 186/429/108 187/430/108 85/431/108 82/432/108
f 187/433/109 188/434/109 87/435/109 85/436/109
f 188/437/110 185/438/110 81/439/110 87/440/110
f 189/441/111 190/442/111 191/443/111 192/444/111
f 190/445/112 193/446/112 194/447/112 191/448/112
f 193/449/113 195/450/113 196/451/113 194/452/113
f 195/453/114 189/454/114 192/455/114 196/456/114
f 197/457/115 198/458/115 190/459/115 189/460/115
f 198/461/116 199/462/116 193/463/116 190/464/116
f 199/465/117 200/466/117 195/467/117 193/468/117
f 200/469/118 197/470/118 189/471/118 195/472/118
f 201/473/119 202/474/119 203/475/119 204/476/119
f 202/477/120 205/478/120 206/479/120 203/480/120
f 205/481/121 207/482/121 208/483/121 206/484/121
f 207/485/122 201/486/122 204/487/122 208/488/122
f 209/489/123 210/490/123 202/491/123 201/492/123
f 210/493/124 211/494/124 205/495/124 202/496/124
f 211/497/125 212/498/125 207/499/125 205/500/125
f 212/501/126 209/502/126 201/503/126 207/504/126
f 213/505/127 214/506/127 215/507/127 216/508/127
f 214/509/128 217/510/128 218/511/128 215/512/128
f 217/513/129 219/514/129 220/515/129 218/516/129
f 219/517/130 213/518/130 216/519/130 220/520/130
f 221/521/131 222/522/131 214/523/131 213/524/131
f 222/525/132 223/526/132 217/527/132 214/528/132
f 223/529/133 224/530/133 219/531/133 217/532/133
f 224/533/134 221/534/134 213/535/134 219/536/134
f 225/537/135 226/538/135 227/539/135 228/540/135
f 226/541/136 229/542/136 230/543/136 227/544/136
f 229/545/137 231/546/137 232/547/137 230/548/137
f 231/549/138 225/550/138 228/551/138 232/552/138
f 233/553/139 234/554/139 235/555/139 236/556/139
f 234/557/140 237/558/140 238/559/140 235/560/140
f 237/561/141 239/562/141 240/563/141 238/564/141
f 239/565/142 233/566/142 236/567/142 240/568/142
f 241/569/143 242/570/143 243/571/143 244/572/143
f 242/573/144 245/574/144 246/575/144 243/576/144
f 245/577/145 247/578/145 248/579/145 246/580/145
f 247/581/146 241/582/146 244/583/146 248/584/146
f 249/585/147 250/586/147 251/587/147 252/588/147
f 250/589/148 253/590/148 254/591/148 251/592/148
f 253/593/149 255/594/149 256/595/149 254/596/149
f 255/597/150 249/598/150 252/599/150 256/600/150
f 257/601/151 258/602/151 259/603/151 260/604/151
f 258/605/152 261/606/152 262/607/152 259/608/152
f 261/609/153 263/610/153 264/611/153 262/612/153
f 263/613/154 257/614/154 260/615/154 264/616/154
f 258/617/155 257/618/155 263/619/155 261/620/155
f 262/621/156 264/622/156 260/623/156 259/624/156
f 265/625/157 266/626/157 267/627/157 268/628/157
f 266/629/158 269/630/158 270/631/158 267/632/158
f 269/633/159 271/634/159 272/635/159 270/636/159
f 271/637/160 265/638/160 268/639/160 272/640/160
f 273/641/161 274/642/161 275/643/161 276/644/161
f 274/645/162 277/646/162 278/647/162 275/648/162
f 277/649/163 279/650/163 280/651/163 278/652/163
f 279/653/164 273/654/164 276/655/164 280/656/164
f 281/657/165 282/658/165 283/659/165 284/660/165
f 282/661/166 285/662/166 286/663/166 283/664/166
f 285/665/167 287/666/167 288/667/167 286/668/167
f 287/669/168 281/670/168 284/671/168 288/672/168
f 289/673/169 290/674/169 291/675/169 292/676/169
f 290/677/170 293/678/170 294/679/170 291/680/170
f 293/681/171 295/682/171 296/683/171 294/684/171
f 295/685/172 289/686/172 292/687/172 296/688/172
f 294/689/173 296/690/173 292/691/173 291/692/173
f 297/693/174 298/694/174 299/695/174 300/696/174
f 298/697/175 301/698/175 302/699/175 299/700/175
f 301/701/176 303/702/176 304/703/176 302/704/176
f 303/705/177 297/706/177 300/707/177 304/708/177
f 302/709/178 304/710/178 300/711/178 299/712/178
f 305/713/179 306/714/179 307/715/179 308/716/179
f 306/717/180 309/718/180 310/719/180 307/720/180
f 309/721/181 311/722/181 312/723/181 310/724/181
f 311/725/182 305/726/182 308/727/182 312/728/182
f 310/729/183 312/730/183 308/731/183 307/732/183
f 313/733/184 314/734/184 315/735/184 316/736/184
f 314/737/185 317/738/185 318/739/185 315/740/185
f 317/741/186 319/742/186 320/743/186 318/744/186
f 319/745/187 313/746/187 316/747/187 320/748/187
f 314/749/188 313/750/188 319/751/188 317/752/188
f 318/753/189 320/754/189 316/755/189 315/756/189
f 321/757/190 322/758/190 323/759/190 324/760/190
f 325/761/191 326/762/191 327/763/191
f 328/764/192 329/765/192 330/766/192 331/767/192
f 332/768/193 325/769/193 333/770/193 334/771/193
f 335/772/194 336/773/194 337/774/194 338/775/194
f 339/776/195 340/777/195 341/778/195
f 342/779/196 343/780/196 344/781/196 345/782/196
f 346/783/197 339/784/197 347/785/197 348/786/197
f 329/787/198 328/788/198 349/789/198 350/790/198
f 351/791/199 352/792/199 353/793/199 354/794/199
f 355/795/200 356/796/200 357/797/200 358/798/200
f 356/799/201 359/800/201 360/801/201 357/802/201
f 359/803/202 361/804/202 362/805/202 360/806/202
f 361/807/203 355/808/203 358/809/203 362/810/203
f 360/811/204 362/812/204 358/813/204 357/814/204
f 363/815/205 364/816/205 365/817/205 366/818/205
f 364/819/206 367/820/206 368/821/206 365/822/206
f 367/823/207 369/824/207 370/825/207 368/826/207
f 369/827/208 363/828/208 366/829/208 370/830/208
f 371/831/209 372/832/209 373/833/209 374/834/209
f 375/835/210 376/836/210 377/837/210 378/838/210
f 379/839/211 375/840/211 378/841/211 380/842/211
f 381/843/212 371/844/212 374/845/212 382/846/212
f 383/847/213 384/848/213 385/849/213 386/850/213
f 387/851/214 388/852/214 389/853/214 390/854/214
f 372/855/215 391/856/215 392/857/215 373/858/215
f 389/859/216 388/860/216 385/861/216 384/862/216
f 390/863/217 389/864/217 384/865/217 383/866/217
f 393/867/218 394/868/218 395/869/218 396/870/218
f 397/871/219 393/872/219 396/873/219 398/874/219
f 387/875/220 390/876/220 383/877/220 386/878/220
f 388/879/221 387/880/221 386/881/221 385/882/221
f 394/883/222 399/884/222 400/885/222 395/886/222
f 401/887/223 379/888/223 380/889/223 402/890/223
f 403/891/224 404/892/224 405/893/224 406/894/224
f 407/895/225 403/896/225 406/897/225 408/898/225
f 376/899/226 401/900/226 402/901/226 377/902/226
f 409/903/227 407/904/227 408/905/227 410/906/227
f 404/907/228 409/908/228 410/909/228 405/910/228
f 411/911/229 412/912/229 413/913/229 414/914/229
f 415/915/230 416/916/230 417/917/230 418/918/230
f 419/919/231 420/920/231 421/921/231 422/922/231
f 423/923/232 424/924/232 425/925/232 426/926/232
f 427/927/233 411/928/233 414/929/233 428/930/233
f 429/931/234 427/932/234 428/933/234 430/934/234
f 431/935/235 419/936/235 422/937/235 432/938/235
f 433/939/236 423/940/236 426/941/236 434/942/236
f 435/943/237 433/944/237 434/945/237 436/946/237
f 437/947/238 431/948/238 432/949/238 438/950/238
f 439/951/239 440/952/239 441/953/239 442/954/239
f 443/955/240 439/956/240 442/957/240 444/958/240
f 445/959/241 446/960/241 418/961/241 417/962/241
f 416/963/242 415/964/242 447/965/242 448/966/242
f 447/967/243 415/968/243 418/969/243 446/970/243
f 449/971/244 443/972/244 444/973/244 450/974/244
f 424/975/245 435/976/245 436/977/245 425/978/245
f 448/979/246 447/980/246 446/981/246 445/982/246
f 416/983/247 448/984/247 445/985/247 417/986/247
f 420/987/248 437/988/248 438/989/248 421/990/248
f 451/991/249 452/992/249 453/993/249 454/994/249
f 452/995/250 455/996/250 456/997/250 453/998/250
f 455/999/251 457/1000/251 458/1001/251 456/1002/251
f 457/1003/252 451/1004/252 454/1005/252 458/1006/252
f 459/1007/253 460/1008/253 461/1009/253 462/1010/253
f 460/1011/254 463/1012/254 464/1013/254 461/1014/254
f 463/1015/255 465/1016/255 466/1017/255 464/1018/255
f 465/1019/256 459/1020/256 462/1021/256 466/1022/256
f 460/1023/257 459/1024/257 465/1025/257 463/1026/257
f 464/1027/258 466/1028/258 462/1029/258 461/1030/258
f 84/1031/259 83/1032/259 364/1033/259 363/1034/259
f 83/1035/260 86/1036/260 367/1037/260 364/1038/260
f 86/1039/261 88/1040/261 369/1041/261 367/1042/261
f 88/1043/262 84/1044/262 363/1045/262 369/1046/262
f 467/1047/263 468/1048/263 469/1049/263 470/1050/263
f 468/1051/264 471/1052/264 472/1053/264 469/1054/264
f 471/1055/265 473/1056/265 474/1057/265 472/1058/265
f 473/1059/266 467/1060/266 470/1061/266 474/1062/266
f 192/1063/267 191/1064/267 468/1065/267 467/1066/267
f 191/1067/268 194/1068/268 471/1069/268 468/1070/268
f 194/1071/269 196/1072/269 473/1073/269 471/1074/269
f 196/1075/270 192/1076/270 467/1077/270 473/1078/270
f 475/1079/271 476/1080/271 477/1081/271 478/1082/271
f 476/1083/272 479/1084/272 480/1085/272 477/1086/272
f 479/1087/273 481/1088/273 482/1089/273 480/1090/273
f 481/1091/274 475/1092/274 478/1093/274 482/1094/274
f 204/1095/275 203/1096/275 476/1097/275 475/1098/275
f 203/1099/276 206/1100/276 479/1101/276 476/1102/276
f 206/1103/277 208/1104/277 481/1105/277 479/1106/277
f 208/1107/278 204/1108/278 475/1109/278 481/1110/278
f 483/1111/279 484/1112/279 485/1113/279 486/1114/279
f 484/1115/280 487/1116/280 488/1117/280 485/1118/280
f 487/1119/281 489/1120/281 490/1121/281 488/1122/281
f 489/1123/282 483/1124/282 486/1125/282 490/1126/282
f 216/1127/283 215/1128/283 484/1129/283 483/1130/283
f 215/1131/284 218/1132/284 487/1133/284 484/1134/284
f 218/1135/285 220/1136/285 489/1137/285 487/1138/285
f 220/1139/286 216/1140/286 483/1141/286 489/1142/286
f 491/1143/287 492/1144/287 493/1145/287 494/1146/287
f 492/1147/288 495/1148/288 496/1149/288 493/1150/288
f 495/1151/289 497/1152/289 498/1153/289 496/1154/289
f 497/1155/290 491/1156/290 494/1157/290 498/1158/290
f 499/1159/291 500/1160/291 501/1161/291 502/1162/291
f 500/1163/292 503/1164/292 504/1165/292 501/1166/292
f 503/1167/293 505/1168/293 506/1169/293 504/1170/293
f 507/1171/294 508/1172/294 509/1173/294 510/1174/294
f 508/1175/295 511/1176/295 512/1177/295 509/1178/295
f 511/1179/296 513/1180/296 514/1181/296 512/1182/296
f 515/1183/297 516/1184/297 517/1185/297 518/1186/297
f 516/1187/298 519/1188/298 520/1189/298 517/1190/298
f 519/1191/299 521/1192/299 522/1193/299 520/1194/299
f 521/1195/300 515/1196/300 518/1197/300 522/1198/300
f 523/1199/301 524/1200/301 525/1201/301 526/1202/301
f 524/1203/302 527/1204/302 528/1205/302 525/1206/302
f 527/1207/303 529/1208/303 530/1209/303 528/1210/303
f 529/1211/304 523/1212/304 526/1213/304 530/1214/304
f 524/1215/305 523/1216/305 529/1217/305 527/1218/305
f 528/1219/306 530/1220/306 526/1221/306 525/1222/306
f 531/1223/307 532/1224/307 533/1225/307 534/1226/307
f 532/1227/308 535/1228/308 536/1229/308 533/1230/308
f 535/1231/309 537/1232/309 538/1233/309 536/1234/309
f 537/1235/310 531/1236/310 534/1237/310 538/1238/310
f 539/1239/311 540/1240/311 541/1241/311 542/1242/311
f 543/1243/312 544/1244/312 545/1245/312 546/1246/312
f 544/1247/313 539/1248/313 542/1249/313 545/1250/313
f 547/1251/314 548/1252/314 549/1253/314 550/1254/314
f 551/1255/315 552/1256/315 553/1257/315 554/1258/315
f 552/1259/316 547/1260/316 550/1261/316 553/1262/316
f 555/1263/317 556/1264/317 557/1265/317 558/1266/317
f 559/1267/318 560/1268/318 561/1269/318 562/1270/318
f 563/1271/319 564/1272/319 327/1273/319 565/1274/319
f 565/1275/320 327/1276/320 566/1277/320 567/1278/320
f 333/1279/321 325/1280/321 327/1281/321 564/1282/321
f 566/1283/322 327/1284/322 326/1285/322 353/1286/322
f 560/1287/323 555/1288/323 558/1289/323 561/1290/323
f 568/1291/324 569/1292/324 570/1293/324 571/1294/324
f 571/1295/325 570/1296/325 572/1297/325 573/1298/325
f 328/1299/326 331/1300/326 570/1301/326 569/1302/326
f 572/1303/327 570/1304/327 332/1305/327 334/1306/327
f 574/1307/328 575/1308/328 576/1309/328 577/1310/328
f 577/1311/329 576/1312/329 578/1313/329 579/1314/329
f 323/1315/330 322/1316/330 576/1317/330 575/1318/330
f 578/1319/331 576/1320/331 330/1321/331 329/1322/331
f 580/1323/332 581/1324/332 582/1325/332 583/1326/332
f 583/1327/333 582/1328/333 584/1329/333 585/1330/333
f 354/1331/334 586/1332/334 582/1333/334 581/1334/334
f 584/1335/335 582/1336/335 321/1337/335 324/1338/335
f 558/1339/336 557/1340/336 562/1341/336 561/1342/336
f 556/1343/337 559/1344/337 562/1345/337 557/1346/337
f 587/1347/338 588/1348/338 589/1349/338 590/1350/338
f 591/1351/339 592/1352/339 593/1353/339 594/1354/339
f 594/1355/340 593/1356/340 595/1357/340 596/1358/340
f 600/1359/341 601/1360/341 602/1361/341 603/1362/341
f 604/1363/342 599/1364/342 605/1365/342 606/1366/342
f 607/1367/343 608/1368/343 609/1369/343 610/1370/343
f 603/1371/344 602/1372/344 610/1373/344 609/1374/344
f 611/1375/345 612/1376/345 588/1377/345 587/1378/345
f 613/1379/346 614/1380/346 598/1381/346 597/1382/346
f 354/1383/347 353/1384/347 326/1385/347 586/1386/347
f 606/1387/348 605/1388/348 614/1389/348 613/1390/348
f 596/1391/349 595/1392/349 615/1393/349 616/1394/349
f 616/1395/350 615/1396/350 592/1397/350 591/1398/350
f 617/1399/351 618/1400/351 619/1401/351 620/1402/351
f 590/1403/352 589/1404/352 621/1405/352 622/1406/352
f 623/1407/353 624/1408/353 625/1409/353 626/1410/353
f 618/1411/354 617/1412/354 626/1413/354 625/1414/354
f 611/1415/355 622/1416/355 621/1417/355 612/1418/355
f 620/1419/356 619/1420/356 624/1421/356 623/1422/356
f 608/1423/357 607/1424/357 601/1425/357 600/1426/357
f 559/1427/358 556/1428/358 555/1429/358 560/1430/358
f 627/1431/359 628/1432/359 629/1433/359 630/1434/359
f 631/1435/360 632/1436/360 633/1437/360 634/1438/360
f 635/1439/361 636/1440/361 341/1441/361 637/1442/361
f 637/1443/362 341/1444/362 638/1445/362 639/1446/362
f 347/1447/363 339/1448/363 341/1449/363 636/1450/363
f 638/1451/364 341/1452/364 340/1453/364 640/1454/364
f 632/1455/365 627/1456/365 630/1457/365 633/1458/365
f 641/1459/366 642/1460/366 643/1461/366 644/1462/366
f 644/1463/367 643/1464/367 645/1465/367 646/1466/367
f 342/1467/368 345/1468/368 643/1469/368 642/1470/368
f 645/1471/369 643/1472/369 346/1473/369 348/1474/369
f 647/1475/370 648/1476/370 649/1477/370 650/1478/370
f 650/1479/371 649/1480/371 651/1481/371 652/1482/371
f 337/1483/372 336/1484/372 649/1485/372 648/1486/372
f 651/1487/373 649/1488/373 344/1489/373 343/1490/373
f 653/1491/374 654/1492/374 655/1493/374 656/1494/374
f 656/1495/375 655/1496/375 657/1497/375 658/1498/375
f 659/1499/376 660/1500/376 655/1501/376 654/1502/376
f 657/1503/377 655/1504/377 335/1505/377 338/1506/377
f 630/1507/378 629/1508/378 634/1509/378 633/1510/378
f 628/1511/379 631/1512/379 634/1513/379 629/1514/379
f 661/1515/380 662/1516/380 663/1517/380 664/1518/380
f 665/1519/381 666/1520/381 667/1521/381 668/1522/381
f 668/1523/382 667/1524/382 669/1525/382 670/1526/382
f 671/1527/383 672/1528/383 673/1529/383 674/1530/383
f 675/1531/384 676/1532/384 677/1533/384 678/1534/384
f 674/1535/385 673/1536/385 679/1537/385 680/1538/385
f 681/1539/386 682/1540/386 683/1541/386 684/1542/386
f 678/1543/387 677/1544/387 684/1545/387 683/1546/387
f 685/1547/388 686/1548/388 662/1549/388 661/1550/388
f 687/1551/389 688/1552/389 672/1553/389 671/1554/389
f 640/1555/390 659/1556/390 689/1557/390 690/1558/390
f 680/1559/391 679/1560/391 688/1561/391 687/1562/391
f 670/1563/392 669/1564/392 691/1565/392 692/1566/392
f 692/1567/393 691/1568/393 666/1569/393 665/1570/393
f 693/1571/394 694/1572/394 695/1573/394 696/1574/394
f 664/1575/395 663/1576/395 697/1577/395 698/1578/395
f 699/1579/396 700/1580/396 701/1581/396 702/1582/396
f 702/1583/397 701/1584/397 694/1585/397 693/1586/397
f 685/1587/398 698/1588/398 697/1589/398 686/1590/398
f 696/1591/399 695/1592/399 700/1593/399 699/1594/399
f 682/1595/400 681/1596/400 676/1597/400 675/1598/400
f 631/1599/401 628/1600/401 627/1601/401 632/1602/401
f 584/1603/402 324/1604/402 659/1605/402 654/1606/402
f 585/1607/403 584/1608/403 654/1609/403 653/1610/403
f 354/1611/404 581/1612/404 657/1613/404 338/1614/404
f 581/1615/405 580/1616/405 658/1617/405 657/1618/405
f 328/1619/406 569/1620/406 645/1621/406 348/1622/406
f 569/1623/407 568/1624/407 646/1625/407 645/1626/407
f 573/1627/408 572/1628/408 642/1629/408 641/1630/408
f 572/1631/409 334/1632/409 342/1633/409 642/1634/409
f 579/1635/410 578/1636/410 636/1637/410 635/1638/410
f 578/1639/411 329/1640/411 347/1641/411 636/1642/411
f 575/1643/412 638/1644/412 640/1645/412 323/1646/412
f 575/1647/413 574/1648/413 639/1649/413 638/1650/413
f 682/1651/414 609/1652/414 608/1653/414 683/1654/414
f 567/1655/415 566/1656/415 648/1657/415 647/1658/415
f 566/1659/416 353/1660/416 337/1661/416 648/1662/416
f 564/1663/417 563/1664/417 652/1665/417 651/1666/417
f 333/1667/418 564/1668/418 651/1669/418 343/1670/418
f 333/1671/419 608/1672/419 563/1673/419 564/1674/419
f 659/1675/420 640/1676/420 340/1677/420 660/1678/420
f 349/1679/421 348/1680/421 347/1681/421 350/1682/421
f 703/1683/422 704/1684/422 343/1685/422 342/1686/422
f 351/1687/423 338/1688/423 337/1689/423 352/1690/423
f 689/1691/424 324/1692/424 323/1693/424 690/1694/424
f 703/1695/425 334/1696/425 333/1697/425 704/1698/425
f 617/1699/426 665/1700/426 668/1701/426 626/1702/426
f 705/1703/427 687/1704/427 671/1705/427 706/1706/427
f 707/1707/428 680/1708/428 687/1709/428 705/1710/428
f 708/1711/429 685/1712/429 661/1713/429 709/1714/429
f 594/1715/430 702/1716/430 693/1717/430 591/1718/430
f 626/1719/431 668/1720/431 670/1721/431 623/1722/431
f 706/1723/432 671/1724/432 674/1725/432 710/1726/432
f 609/1727/433 682/1728/433 675/1729/433 603/1730/433
f 710/1731/434 674/1732/434 680/1733/434 707/1734/434
f 711/1735/435 698/1736/435 685/1737/435 708/1738/435
f 623/1739/436 670/1740/436 692/1741/436 620/1742/436
f 596/1743/437 699/1744/437 702/1745/437 594/1746/437
f 712/1747/438 664/1748/438 698/1749/438 711/1750/438
f 603/1751/439 675/1752/439 678/1753/439 600/1754/439
f 620/1755/440 692/1756/440 665/1757/440 617/1758/440
f 591/1759/441 693/1760/441 696/1761/441 616/1762/441
f 709/1763/442 661/1764/442 664/1765/442 712/1766/442
f 616/1767/443 696/1768/443 699/1769/443 596/1770/443
f 600/1771/444 678/1772/444 683/1773/444 608/1774/444
f 713/1775/445 714/1776/445 715/1777/445 716/1778/445
f 717/1779/446 718/1780/446 719/1781/446 720/1782/446
f 721/1783/447 722/1784/447 723/1785/447 724/1786/447
f 725/1787/448 726/1788/448 727/1789/448 728/1790/448
f 729/1791/449 730/1792/449 731/1793/449 732/1794/449
f 733/1795/450 734/1796/450 735/1797/450 736/1798/450
f 737/1799/451 738/1800/451 739/1801/451 740/1802/451
f 741/1803/452 742/1804/452 743/1805/452 744/1806/452
f 745/1807/453 746/1808/453 747/1809/453 748/1810/453