# Made in Blockbench 5.0.4
mtllib solar_melter.mtl

o cube
v 1.25 1.5 1
v 1.25 2 1
v 1.25 2 2
v 1.25 1.5 2
v 1.75 1.5 2
v 1.75 2 2
v 1.75 2 1
v 1.75 1.5 1
v 0.5625 2.4375 1.5
v 0.5625 2.8125 1.5
v 0.5 2.8125 1.5
v 0.5 2.4375 1.5
v 0.5 2.8125 1.875
v 0.5 2.4375 1.875
v 0.5625 2.8125 1.875
v 0.5625 2.4375 1.875
v 0.5625 2.375 1.125
v 0.5625 2.875 1.125
v 0.5 2.875 1.125
v 0.5 2.375 1.125
v 0.5 2.875 1.375
v 0.5 2.375 1.375
v 0.5625 2.875 1.375
v 0.5625 2.375 1.375
v 2.4375 2.25 0.5625
v 2.4375 3 0.5625
v 0.5625 3 0.5625
v 0.5625 2.25 0.5625
v 0.5625 3 2.4375
v 0.5625 2.25 2.4375
v 2.4375 3 2.4375
v 2.4375 2.25 2.4375
v 2.5 2 0.5
v 2.5 2.25 0.5
v 0.5 2.25 0.5
v 0.5 2 0.5
v 0.5 2.25 2.5
v 0.5 2 2.5
v 2.5 2.25 2.5
v 2.5 2 2.5
v 2.5 3 0.5
v 2.5 3.25 0.5
v 0.5 3.25 0.5
v 0.5 3 0.5
v 0.5 3.25 2.5
v 0.5 3 2.5
v 2.5 3.25 2.5
v 2.5 3 2.5
v 2.25 1 2.25
v 2.75 1 2.25
v 2.75 2 2.25
v 2.25 2 2.25
v 2.75 1 2.75
v 2.75 2 2.75
v 2.25 1 2.75
v 2.25 2 2.75
v 2.25 1 0.25
v 2.75 1 0.25
v 2.75 2 0.25
v 2.25 2 0.25
v 2.75 1 0.75
v 2.75 2 0.75
v 2.25 1 0.75
v 2.25 2 0.75
v 0.25 1 2.25
v 0.75 1 2.25
v 0.75 2 2.25
v 0.25 2 2.25
v 0.75 1 2.75
v 0.75 2 2.75
v 0.25 1 2.75
v 0.25 2 2.75
v 0.25 1 0.25
v 0.75 1 0.25
v 0.75 2 0.25
v 0.25 2 0.25
v 0.75 1 0.75
v 0.75 2 0.75
v 0.25 1 0.75
v 0.25 2 0.75
v 2.3125 6 2.3125
v 2.6875 6 2.3125
v 2.6875 10 2.3125
v 2.3125 10 2.3125
v 2.6875 6 2.6875
v 2.6875 10 2.6875
v 2.3125 6 2.6875
v 2.3125 10 2.6875
v 2.625 2.28125 0.44140625
v 2.625 2.22265625 0.68359375
v 2.625 5.71875 1.55859375
v 2.625 5.77734375 1.31640625
v 2.375 9.77734375 2.31640625
v 2.375 9.71875 2.55859375
v 2.375 6.22265625 1.68359375
v 2.375 6.28125 1.44140625
v 2.625 9.77734375 2.31640625
v 2.625 6.28125 1.44140625
v 2.375 2.28125 0.44140625
v 2.375 5.77734375 1.31640625
v 2.375 2.22265625 0.68359375
v 2.375 5.71875 1.55859375
v 2.3125 6.5 1.25
v 2.6875 6.5 1.25
v 2.6875 6.5 1.75
v 2.3125 6.5 1.75
v 2.3125 5.5 1.75
v 2.6875 5.5 1.75
v 2.6875 5.5 1.25
v 2.3125 5.5 1.25
v 2.625 2.22265625 2.31640625
v 2.625 2.28125 2.55859375
v 2.625 5.77734375 1.68359375
v 2.625 5.71875 1.44140625
v 2.375 2.22265625 2.31640625
v 2.375 5.71875 1.44140625
v 2.375 2.28125 2.55859375
v 2.375 5.77734375 1.68359375
v 2.625 9.71875 2.55859375
v 2.625 6.22265625 1.68359375
v 2.625 9.77734375 0.68359375
v 2.625 9.71875 0.44140625
v 2.625 6.22265625 1.31640625
v 2.625 6.28125 1.55859375
v 2.375 9.77734375 0.68359375
v 2.375 6.28125 1.55859375
v 2.375 9.71875 0.44140625
v 2.375 6.22265625 1.31640625
v 0.625 2.28125 0.44140625
v 0.625 2.22265625 0.68359375
v 0.625 5.71875 1.55859375
v 0.625 5.77734375 1.31640625
v 0.375 2.28125 0.44140625
v 0.375 5.77734375 1.31640625
v 0.6875 5.5 1.75
v 0.3125 5.5 1.75
v 0.3125 6.5 1.75
v 0.6875 6.5 1.75
v 0.375 9.71875 2.55859375
v 0.625 9.71875 2.55859375
v 0.625 6.22265625 1.68359375
v 0.375 6.22265625 1.68359375
v 0.625 9.77734375 0.68359375
v 0.625 9.71875 0.44140625
v 0.625 6.22265625 1.31640625
v 0.625 6.28125 1.55859375
v 0.375 2.22265625 0.68359375
v 0.375 5.71875 1.55859375
v 0.375 9.77734375 2.31640625
v 0.375 6.28125 1.44140625
v 0.375 9.77734375 0.68359375
v 0.375 6.28125 1.55859375
v 0.625 2.22265625 2.31640625
v 0.625 2.28125 2.55859375
v 0.625 5.77734375 1.68359375
v 0.625 5.71875 1.44140625
v 0.375 9.71875 0.44140625
v 0.375 6.22265625 1.31640625
v 0.625 9.77734375 2.31640625
v 0.625 6.28125 1.44140625
v 0.375 2.22265625 2.31640625
v 0.375 5.71875 1.44140625
v 0.375 2.28125 2.55859375
v 0.375 5.77734375 1.68359375
v 0.3125 6.5 1.25
v 0.6875 6.5 1.25
v 0.6875 5.5 1.25
v 0.3125 5.5 1.25
v 2.55859375 9.71875 0.625
v 2.55859375 9.71875 0.375
v 1.68359375 6.22265625 0.375
v 1.68359375 6.22265625 0.625
v 2.31640625 9.77734375 0.375
v 1.44140625 6.28125 0.375
v 2.31640625 9.77734375 0.625
v 1.44140625 6.28125 0.625
v 1.25 5.5 0.6875
v 1.25 5.5 0.3125
v 1.25 6.5 0.3125
v 1.25 6.5 0.6875
v 1.75 5.5 0.3125
v 1.75 6.5 0.3125
v 1.75 5.5 0.6875
v 1.75 6.5 0.6875
v 2.3125 2 2.3125
v 2.6875 2 2.3125
v 2.6875 2 2.6875
v 2.3125 2 2.6875
v 0.3125 6 2.3125
v 0.6875 6 2.3125
v 0.6875 10 2.3125
v 0.3125 10 2.3125
v 0.6875 6 2.6875
v 0.6875 10 2.6875
v 0.3125 6 2.6875
v 0.3125 10 2.6875
v 0.3125 2 2.3125
v 0.6875 2 2.3125
v 0.6875 2 2.6875
v 0.3125 2 2.6875
v 2.3125 6 0.3125
v 2.6875 6 0.3125
v 2.6875 10 0.3125
v 2.3125 10 0.3125
v 2.6875 6 0.6875
v 2.6875 10 0.6875
v 2.3125 6 0.6875
v 2.3125 10 0.6875
v 2.3125 2 0.3125
v 2.6875 2 0.3125
v 2.6875 2 0.6875
v 2.3125 2 0.6875
v 0.3125 6 0.3125
v 0.6875 6 0.3125
v 0.6875 10 0.3125
v 0.3125 10 0.3125
v 0.6875 6 0.6875
v 0.6875 10 0.6875
v 0.3125 6 0.6875
v 0.3125 10 0.6875
v 0.3125 2 0.3125
v 0.6875 2 0.3125
v 0.6875 2 0.6875
v 0.3125 2 0.6875
v 0.68359375 9.77734375 0.625
v 0.68359375 9.77734375 0.375
v 1.55859375 6.28125 0.375
v 1.55859375 6.28125 0.625
v 0.44140625 9.71875 0.375
v 1.31640625 6.22265625 0.375
v 0.44140625 9.71875 0.625
v 1.31640625 6.22265625 0.625
v 0.44140625 2.28125 0.625
v 0.44140625 2.28125 0.375
v 1.31640625 5.77734375 0.375
v 1.31640625 5.77734375 0.625
v 0.68359375 2.22265625 0.375
v 1.55859375 5.71875 0.375
v 0.68359375 2.22265625 0.625
v 1.55859375 5.71875 0.625
v 2.31640625 2.22265625 0.625
v 2.31640625 2.22265625 0.375
v 1.44140625 5.71875 0.375
v 1.44140625 5.71875 0.625
v 2.55859375 2.28125 0.375
v 1.68359375 5.77734375 0.375
v 2.55859375 2.28125 0.625
v 1.68359375 5.77734375 0.625
v 2.55859375 9.71875 2.625
v 2.55859375 9.71875 2.375
v 1.68359375 6.22265625 2.375
v 1.68359375 6.22265625 2.625
v 2.31640625 9.77734375 2.375
v 1.44140625 6.28125 2.375
v 2.31640625 9.77734375 2.625
v 1.44140625 6.28125 2.625
v 1.25 5.5 2.6875
v 1.25 5.5 2.3125
v 1.25 6.5 2.3125
v 1.25 6.5 2.6875
v 1.75 5.5 2.3125
v 1.75 6.5 2.3125
v 1.75 5.5 2.6875
v 1.75 6.5 2.6875
v 0.68359375 9.77734375 2.625
v 0.68359375 9.77734375 2.375
v 1.55859375 6.28125 2.375
v 1.55859375 6.28125 2.625
v 0.44140625 9.71875 2.375
v 1.31640625 6.22265625 2.375
v 0.44140625 9.71875 2.625
v 1.31640625 6.22265625 2.625
v 0.44140625 2.28125 2.625
v 0.44140625 2.28125 2.375
v 1.31640625 5.77734375 2.375
v 1.31640625 5.77734375 2.625
v 0.68359375 2.22265625 2.375
v 1.55859375 5.71875 2.375
v 0.68359375 2.22265625 2.625
v 1.55859375 5.71875 2.625
v 2.31640625 2.22265625 2.625
v 2.31640625 2.22265625 2.375
v 1.44140625 5.71875 2.375
v 1.44140625 5.71875 2.625
v 2.55859375 2.28125 2.375
v 1.68359375 5.77734375 2.375
v 2.55859375 2.28125 2.625
v 1.68359375 5.77734375 2.625
v 0.5 1 0.5
v 2.5 1 0.5
v 2.5 1.5 0.5
v 0.5 1.5 0.5
v 2.5 1 2.5
v 2.5 1.5 2.5
v 0.5 1 2.5
v 0.5 1.5 2.5
v 1 1 0
v 2 1 0
v 2 2 0
v 1 2 0
v 2 1 1
v 2 2 1
v 1 1 1
v 1 2 1
v 1 1 2
v 2 1 2
v 2 2 2
v 1 2 2
v 2 1 3
v 2 2 3
v 1 1 3
v 1 2 3
v 0 0 0
v 0 1 0
v 0 0 3
v 0 1 3
v 3 18.5 2
v 2 18.5 3
v 2 19 3
v 3 19 2
v 1 18.5 0
v 2 18.5 0
v 1.5 18.5 0
v 0 19 2
v 1 19 3
v 1 18.5 3
v 0 18.5 2
v 0 18.5 1
v 1 19 0
v 0 19 1
v 3 20.5 1
v 2 20.5 0
v 2 20 0
v 3 20 1
v 1 20.5 3
v 2 20.5 3
v 1.5 20.5 3
v 0 20 1
v 1 20 0
v 1 20.5 0
v 0 20.5 1
v 0 20.5 2
v 1 20 3
v 0 20 2
v 0 19.5 2
v 1 19.5 3
v 3 19.5 1
v 2 19.5 0
v 2 19 0
v 3 19 1
v 0 1 1
v 0.5 1 1
v 0.5 2 1
v 0 2 1
v 0.5 1 2
v 0.5 2 2
v 0 1 2
v 0 2 2
v 2.3125 14 2.3125
v 2.6875 14 2.3125
v 2.6875 18 2.3125
v 2.3125 18 2.3125
v 2.6875 14 2.6875
v 2.6875 18 2.6875
v 2.3125 14 2.6875
v 2.3125 18 2.6875
v 2.625 10.28125 0.44140625
v 2.625 10.22265625 0.68359375
v 2.625 13.71875 1.55859375
v 2.625 13.77734375 1.31640625
v 2.375 17.77734375 2.31640625
v 2.375 17.71875 2.55859375
v 2.375 14.22265625 1.68359375
v 2.375 14.28125 1.44140625
v 2.625 17.77734375 2.31640625
v 2.625 14.28125 1.44140625
v 2.375 10.28125 0.44140625
v 2.375 13.77734375 1.31640625
v 2.3125 14.5 1.25
v 2.6875 14.5 1.25
v 2.6875 14.5 1.75
v 2.3125 14.5 1.75
v 2.3125 13.5 1.75
v 2.6875 13.5 1.75
v 2.6875 13.5 1.25
v 2.3125 13.5 1.25
v 2.375 10.22265625 0.68359375
v 2.375 13.71875 1.55859375
v 2.625 10.22265625 2.31640625
v 2.625 10.28125 2.55859375
v 2.625 13.77734375 1.68359375
v 2.625 13.71875 1.44140625
v 2.375 10.22265625 2.31640625
v 2.375 13.71875 1.44140625
v 2.375 10.28125 2.55859375
v 2.375 13.77734375 1.68359375
v 2.625 17.71875 2.55859375
v 2.625 14.22265625 1.68359375
v 2.625 17.77734375 0.68359375
v 2.625 17.71875 0.44140625
v 2.625 14.22265625 1.31640625
v 2.625 14.28125 1.55859375
v 2.375 17.77734375 0.68359375
v 2.375 14.28125 1.55859375
v 2.375 17.71875 0.44140625
v 2.375 14.22265625 1.31640625
v 0.375 10.28125 0.44140625
v 0.625 10.28125 0.44140625
v 0.625 13.77734375 1.31640625
v 0.375 13.77734375 1.31640625
v 0.6875 13.5 1.75
v 0.3125 13.5 1.75
v 0.3125 14.5 1.75
v 0.6875 14.5 1.75
v 0.375 17.71875 2.55859375
v 0.625 17.71875 2.55859375
v 0.625 14.22265625 1.68359375
v 0.375 14.22265625 1.68359375
v 0.625 17.77734375 0.68359375
v 0.625 17.71875 0.44140625
v 0.625 14.22265625 1.31640625
v 0.625 14.28125 1.55859375
v 0.375 10.22265625 0.68359375
v 0.375 13.71875 1.55859375
v 0.625 10.22265625 0.68359375
v 0.625 13.71875 1.55859375
v 0.375 17.77734375 2.31640625
v 0.375 14.28125 1.44140625
v 0.375 17.77734375 0.68359375
v 0.375 14.28125 1.55859375
v 0.375 17.71875 0.44140625
v 0.375 14.22265625 1.31640625
v 0.625 17.77734375 2.31640625
v 0.625 14.28125 1.44140625
v 0.375 10.22265625 2.31640625
v 0.625 10.22265625 2.31640625
v 0.625 13.71875 1.44140625
v 0.375 13.71875 1.44140625
v 0.375 10.28125 2.55859375
v 0.375 13.77734375 1.68359375
v 0.3125 14.5 1.25
v 0.6875 14.5 1.25
v 0.6875 13.5 1.25
v 0.3125 13.5 1.25
v 0.625 10.28125 2.55859375
v 0.625 13.77734375 1.68359375
v 2.55859375 17.71875 0.625
v 2.55859375 17.71875 0.375
v 1.68359375 14.22265625 0.375
v 1.68359375 14.22265625 0.625
v 2.31640625 17.77734375 0.375
v 1.44140625 14.28125 0.375
v 2.31640625 17.77734375 0.625
v 1.44140625 14.28125 0.625
v 1.25 13.5 0.6875
v 1.25 13.5 0.3125
v 1.25 14.5 0.3125
v 1.25 14.5 0.6875
v 1.75 13.5 0.3125
v 1.75 14.5 0.3125
v 1.75 13.5 0.6875
v 1.75 14.5 0.6875
v 0.3125 14 2.3125
v 0.6875 14 2.3125
v 0.6875 18 2.3125
v 0.3125 18 2.3125
v 0.6875 14 2.6875
v 0.6875 18 2.6875
v 0.3125 14 2.6875
v 0.3125 18 2.6875
v 2.3125 14 0.3125
v 2.6875 14 0.3125
v 2.6875 18 0.3125
v 2.3125 18 0.3125
v 2.6875 14 0.6875
v 2.6875 18 0.6875
v 2.3125 14 0.6875
v 2.3125 18 0.6875
v 0.3125 14 0.3125
v 0.6875 14 0.3125
v 0.6875 18 0.3125
v 0.3125 18 0.3125
v 0.6875 14 0.6875
v 0.6875 18 0.6875
v 0.3125 14 0.6875
v 0.3125 18 0.6875
v 0.68359375 17.77734375 0.625
v 0.68359375 17.77734375 0.375
v 1.55859375 14.28125 0.375
v 1.55859375 14.28125 0.625
v 0.44140625 17.71875 0.375
v 1.31640625 14.22265625 0.375
v 0.44140625 17.71875 0.625
v 1.31640625 14.22265625 0.625
v 0.44140625 10.28125 0.625
v 0.44140625 10.28125 0.375
v 1.31640625 13.77734375 0.375
v 1.31640625 13.77734375 0.625
v 0.68359375 10.22265625 0.375
v 1.55859375 13.71875 0.375
v 0.68359375 10.22265625 0.625
v 1.55859375 13.71875 0.625
v 2.31640625 10.22265625 0.625
v 2.31640625 10.22265625 0.375
v 1.44140625 13.71875 0.375
v 1.44140625 13.71875 0.625
v 2.55859375 10.28125 0.375
v 1.68359375 13.77734375 0.375
v 2.55859375 10.28125 0.625
v 1.68359375 13.77734375 0.625
v 2.55859375 17.71875 2.625
v 2.55859375 17.71875 2.375
v 1.68359375 14.22265625 2.375
v 1.68359375 14.22265625 2.625
v 2.31640625 17.77734375 2.375
v 1.44140625 14.28125 2.375
v 2.31640625 17.77734375 2.625
v 1.44140625 14.28125 2.625
v 1.25 13.5 2.6875
v 1.25 13.5 2.3125
v 1.25 14.5 2.3125
v 1.25 14.5 2.6875
v 1.75 13.5 2.3125
v 1.75 14.5 2.3125
v 1.75 13.5 2.6875
v 1.75 14.5 2.6875
v 0.68359375 17.77734375 2.625
v 0.68359375 17.77734375 2.375
v 1.55859375 14.28125 2.375
v 1.55859375 14.28125 2.625
v 0.44140625 17.71875 2.375
v 1.31640625 14.22265625 2.375
v 0.44140625 17.71875 2.625
v 1.31640625 14.22265625 2.625
v 0.44140625 10.28125 2.625
v 0.44140625 10.28125 2.375
v 1.31640625 13.77734375 2.375
v 1.31640625 13.77734375 2.625
v 0.68359375 10.22265625 2.375
v 0.68359375 10.22265625 2.625
v 1.55859375 13.71875 2.625
v 1.55859375 13.71875 2.375
v 2.31640625 10.22265625 2.625
v 2.31640625 10.22265625 2.375
v 1.44140625 13.71875 2.375
v 1.44140625 13.71875 2.625
v 2.55859375 10.28125 2.375
v 2.55859375 10.28125 2.625
v 1.68359375 13.77734375 2.625
v 1.68359375 13.77734375 2.375
v 3 18.5 3
v 3 18.5 0
v 3 18 0
v 3 18 3
v 0 18.5 0
v 0 18.5 3
v 0 18 3
v 0 18 0
v 1.0625 19 1
v 1.0625 19 0
v 1.5 18.5 1
v 1.9375 19 0
v 1.9375 19 1
v 1 19 1.9375
v 0 19 1.9375
v 0 18.5 1.5
v 1 18.5 1.5
v 0 19 1.0625
v 1 19 1.0625
v 1.9375 19 2
v 1.9375 19 3
v 1.5 18.5 3
v 1.5 18.5 2
v 1.0625 19 3
v 1.0625 19 2
v 2 19 1.0625
v 3 19 1.0625
v 3 18.5 1.5
v 2 18.5 1.5
v 3 19 1.9375
v 2 19 1.9375
v 3 18.5 1
v 0.0625 19 2.6875
v 0.0625 18.5 2.6875
v 0.3125 18.5 2.6875
v 0.3125 19 2.6875
v 2.6875 19 0.0625
v 2.6875 18.5 0.0625
v 2.9375 18.5 0.0625
v 2.9375 19 0.0625
v 2.9375 18.5 0.3125
v 2.9375 19 0.3125
v 0.3125 19 0.3125
v 0.3125 18.5 0.3125
v 0.0625 18.5 0.3125
v 2 19 1
v 2 18.5 1
v 2 18.5 2
v 2 19 2
v 0.0625 19 0.3125
v 0.0625 18.5 0.0625
v 0.0625 19 0.0625
v 1 18.5 1
v 1 19 1
v 1 19 2
v 1 18.5 2
v 0.0625 19 2.9375
v 0.0625 18.5 2.9375
v 0.3125 19 0.0625
v 0.3125 18.5 0.0625
v 2.6875 18.5 0.3125
v 2.6875 19 0.3125
v 2.6875 19 2.9375
v 2.6875 18.5 2.9375
v 2.6875 18.5 2.6875
v 2.6875 19 2.6875
v 0.3125 18.5 2.9375
v 0.3125 19 2.9375
v 2.9375 19 2.6875
v 2.9375 18.5 2.6875
v 2.9375 18.5 2.9375
v 2.9375 19 2.9375
v 3 20.5 0
v 3 20.5 3
v 3 21 3
v 3 21 0
v 0 20.5 3
v 0 20.5 0
v 0 21 0
v 0 21 3
v 1.0625 20 2
v 1.0625 20 3
v 1.5 20.5 2
v 1.9375 20 3
v 1.9375 20 2
v 2 20 3
v 1 20 1.0625
v 0 20 1.0625
v 0 20.5 1.5
v 1 20.5 1.5
v 0 20 1.9375
v 1 20 1.9375
v 1.9375 20 1
v 1.9375 20 0
v 1.5 20.5 0
v 1.5 20.5 1
v 1.0625 20 0
v 1.0625 20 1
v 2 20 1.9375
v 3 20 1.9375
v 3 20.5 1.5
v 2 20.5 1.5
v 3 20 1.0625
v 2 20 1.0625
v 3 20 2
v 3 20.5 2
v 0.0625 20 0.3125
v 0.0625 20.5 0.3125
v 0.3125 20.5 0.3125
v 0.3125 20 0.3125
v 2.6875 20 2.9375
v 2.6875 20.5 2.9375
v 2.9375 20.5 2.9375
v 2.9375 20 2.9375
v 2.9375 20.5 2.6875
v 2.9375 20 2.6875
v 0.3125 20 2.6875
v 0.3125 20.5 2.6875
v 0.0625 20.5 2.6875
v 0.0625 20 2.6875
v 2 20 2
v 2 20.5 2
v 2 20.5 1
v 2 20 1
v 0.0625 20.5 2.9375
v 0.0625 20 2.9375
v 1 20.5 2
v 1 20 2
v 1 20 1
v 1 20.5 1
v 0.0625 20 0.0625
v 0.0625 20.5 0.0625
v 0.3125 20 2.9375
v 0.3125 20.5 2.9375
v 3 19.5 2
v 2 19.5 3
v 2.6875 20.5 2.6875
v 2.6875 20 2.6875
v 2.6875 20 0.0625
v 2.6875 20.5 0.0625
v 2.6875 20.5 0.3125
v 2.6875 20 0.3125
v 0.3125 20.5 0.0625
v 0.3125 20 0.0625
v 2.9375 20 0.3125
v 2.9375 20.5 0.3125
v 2.9375 20.5 0.0625
v 2.9375 20 0.0625
v 0 19.5 1
v 1 19.5 0
v 0.3125 19 2.9375
v 0.3125 19 2.6875
v 0.0625 19 2.9375
v 0.0625 19 0.0625
v 0.0625 19 0.3125
v 0.0625 19 2.6875
v 0.3125 19 0.0625
v 0.3125 19 0.3125
v 2.375 10.22265625 0.68359375
v 2.375 10.28125 0.44140625
v 2.375 13.77734375 1.31640625
v 2.375 13.71875 1.55859375
v 2.375 10.28125 2.55859375
v 2.375 10.22265625 2.31640625
v 2.375 13.71875 1.44140625
v 2.375 13.77734375 1.68359375
v 0.625 10.28125 0.44140625
v 0.625 10.22265625 0.68359375
v 0.625 13.71875 1.55859375
v 0.625 13.77734375 1.31640625
v 0.625 10.22265625 2.31640625
v 0.625 10.28125 2.55859375
v 0.625 13.77734375 1.68359375
v 0.625 13.71875 1.44140625
v 0.68359375 10.22265625 0.625
v 0.44140625 10.28125 0.625
v 1.31640625 13.77734375 0.625
v 1.55859375 13.71875 0.625
v 2.55859375 10.28125 0.625
v 2.31640625 10.22265625 0.625
v 1.44140625 13.71875 0.625
v 1.68359375 13.77734375 0.625
v 0.44140625 10.28125 2.375
v 0.68359375 10.22265625 2.375
v 1.55859375 13.71875 2.375
v 1.31640625 13.77734375 2.375
v 2.31640625 10.22265625 2.375
v 2.55859375 10.28125 2.375
v 1.68359375 13.77734375 2.375
v 1.44140625 13.71875 2.375
v 0.3125 19 0.3125
v 0.3125 18.5 0.3125
v 0.0625 18.5 0.3125
v 0.0625 19 0.3125
v 3 0 3
v 3 0 0
v 3 1 0
v 3 1 3
vt 0.578125 0.625
vt 0.578125 0.75
vt 0.640625 0.75
vt 0.640625 0.625
vt 0.578125 0.75
vt 0.578125 0.625
vt 0.640625 0.625
vt 0.640625 0.75
vt 0.539061875 0.25
vt 0.546875 0.25
vt 0.546875 0.203125
vt 0.539061875 0.203125
vt 0.5 0.25
vt 0.546875 0.25
vt 0.546875 0.203125
vt 0.5 0.203125
vt 0.5 0.25
vt 0.507811875 0.25
vt 0.507811875 0.203125
vt 0.5 0.203125
vt 0.5 0.203125
vt 0.5 0.21093812499999998
vt 0.546875 0.21093812499999998
vt 0.546875 0.203125
vt 0.5 0.24218812499999998
vt 0.5 0.25
vt 0.546875 0.25
vt 0.546875 0.24218812499999998
vt 0.570311875 0.25
vt 0.578125 0.25
vt 0.578125 0.1875
vt 0.570311875 0.1875
vt 0.546875 0.25
vt 0.578125 0.25
vt 0.578125 0.1875
vt 0.546875 0.1875
vt 0.546875 0.25
vt 0.554688125 0.25
vt 0.554688125 0.1875
vt 0.546875 0.1875
vt 0.578125 0.19531187500000002
vt 0.578125 0.1875
vt 0.546875 0.1875
vt 0.546875 0.19531187500000002
vt 0.578125 0.25
vt 0.578125 0.24218812499999998
vt 0.546875 0.24218812499999998
vt 0.546875 0.25
vt 0.71875 0.5
vt 0.953125 0.5
vt 0.953125 0.40625
vt 0.71875 0.40625
vt 0.71875 0.5
vt 0.953125 0.5
vt 0.953125 0.40625
vt 0.71875 0.40625
vt 0.71875 0.5
vt 0.953125 0.5
vt 0.953125 0.40625
vt 0.71875 0.40625
vt 0.71875 0.5
vt 0.953125 0.5
vt 0.953125 0.40625
vt 0.71875 0.40625
vt 0.960938125 0.375
vt 0.710938125 0.375
vt 0.710938125 0.40625
vt 0.960938125 0.40625
vt 0.960938125 0.375
vt 0.710938125 0.375
vt 0.710938125 0.40625
vt 0.960938125 0.40625
vt 0.960938125 0.375
vt 0.710938125 0.375
vt 0.710938125 0.40625
vt 0.960938125 0.40625
vt 0.960938125 0.375
vt 0.710938125 0.375
vt 0.710938125 0.40625
vt 0.960938125 0.40625
vt 0.960938125 1
vt 0.960938125 0.75
vt 0.710938125 0.75
vt 0.710938125 1
vt 0.710938125 0.5
vt 0.710938125 0.75
vt 0.960938125 0.75
vt 0.960938125 0.5
vt 0.960938125 0.375
vt 0.710938125 0.375
vt 0.710938125 0.40625
vt 0.960938125 0.40625
vt 0.960938125 0.375
vt 0.710938125 0.375
vt 0.710938125 0.40625
vt 0.960938125 0.40625
vt 0.960938125 0.375
vt 0.710938125 0.375
vt 0.710938125 0.40625
vt 0.960938125 0.40625
vt 0.960938125 0.375
vt 0.710938125 0.375
vt 0.710938125 0.40625
vt 0.960938125 0.40625
vt 0.960938125 0.75
vt 0.960938125 0.5
vt 0.710938125 0.5
vt 0.710938125 0.75
vt 0.710938125 0.5
vt 0.710938125 0.75
vt 0.960938125 0.75
vt 0.960938125 0.5
vt 0.375 0.4375
vt 0.25 0.4375
vt 0.25 0.375
vt 0.375 0.375
vt 0.375 0.375
vt 0.25 0.375
vt 0.25 0.4375
vt 0.375 0.4375
vt 0.375 0.4375
vt 0.25 0.4375
vt 0.25 0.375
vt 0.375 0.375
vt 0.375 0.375
vt 0.25 0.375
vt 0.25 0.4375
vt 0.375 0.4375
vt 0.46875 0.46875
vt 0.46875 0.40625
vt 0.40625 0.40625
vt 0.40625 0.46875
vt 0.375 0.4375
vt 0.25 0.4375
vt 0.25 0.375
vt 0.375 0.375
vt 0.375 0.375
vt 0.25 0.375
vt 0.25 0.4375
vt 0.375 0.4375
vt 0.375 0.4375
vt 0.25 0.4375
vt 0.25 0.375
vt 0.375 0.375
vt 0.375 0.375
vt 0.25 0.375
vt 0.25 0.4375
vt 0.375 0.4375
vt 0.46875 0.46875
vt 0.46875 0.40625
vt 0.40625 0.40625
vt 0.40625 0.46875
vt 0.375 0.4375
vt 0.25 0.4375
vt 0.25 0.375
vt 0.375 0.375
vt 0.375 0.4375
vt 0.25 0.4375
vt 0.25 0.375
vt 0.375 0.375
vt 0.375 0.375
vt 0.25 0.375
vt 0.25 0.4375
vt 0.375 0.4375
vt 0.375 0.4375
vt 0.25 0.4375
vt 0.25 0.375
vt 0.375 0.375
vt 0.40625 0.40625
vt 0.46875 0.40625
vt 0.46875 0.46875
vt 0.40625 0.46875
vt 0.375 0.4375
vt 0.25 0.4375
vt 0.25 0.375
vt 0.375 0.375
vt 0.375 0.4375
vt 0.25 0.4375
vt 0.25 0.375
vt 0.375 0.375
vt 0.375 0.375
vt 0.25 0.375
vt 0.25 0.4375
vt 0.375 0.4375
vt 0.375 0.4375
vt 0.25 0.4375
vt 0.25 0.375
vt 0.375 0.375
vt 0.40625 0.40625
vt 0.46875 0.40625
vt 0.46875 0.46875
vt 0.40625 0.46875
vt 0.53125 0.75
vt 0.53125 0.25
vt 0.578125 0.25
vt 0.578125 0.75
vt 0.53125 0.75
vt 0.53125 0.25
vt 0.578125 0.25
vt 0.578125 0.75
vt 0.578125 0.75
vt 0.578125 0.25
vt 0.53125 0.25
vt 0.53125 0.75
vt 0.53125 0.75
vt 0.53125 0.25
vt 0.578125 0.25
vt 0.578125 0.75
vt 0.5 0.3125
vt 0.5 0.75
vt 0.53125 0.75
vt 0.53125 0.3125
vt 0.5 0.3125
vt 0.5 0.75
vt 0.53125 0.75
vt 0.53125 0.3125
vt 0.53125 0.3125
vt 0.53125 0.75
vt 0.5 0.75
vt 0.5 0.3125
vt 0.53125 0.3125
vt 0.53125 0.75
vt 0.5 0.75
vt 0.5 0.3125
vt 0.5 0.3125
vt 0.5 0.75
vt 0.53125 0.75
vt 0.53125 0.3125
vt 0.460938125 0.84375
vt 0.460938125 0.90625
vt 0.414061875 0.90625
vt 0.414061875 0.84375
vt 0.460938125 0.84375
vt 0.460938125 0.90625
vt 0.414061875 0.90625
vt 0.414061875 0.84375
vt 0.53125 0.3125
vt 0.53125 0.75
vt 0.5 0.75
vt 0.5 0.3125
vt 0.375 0.4375
vt 0.25 0.4375
vt 0.25 0.375
vt 0.375 0.375
vt 0.460938125 0.8125
vt 0.460938125 0.9375
vt 0.414061875 0.9375
vt 0.414061875 0.8125
vt 0.5 0.3125
vt 0.5 0.75
vt 0.53125 0.75
vt 0.53125 0.3125
vt 0.53125 0.3125
vt 0.53125 0.75
vt 0.5 0.75
vt 0.5 0.3125
vt 0.25 0.375
vt 0.375 0.375
vt 0.375 0.4375
vt 0.25 0.4375
vt 0.414061875 0.9375
vt 0.414061875 0.8125
vt 0.460938125 0.8125
vt 0.460938125 0.9375
vt 0.5 0.3125
vt 0.5 0.75
vt 0.53125 0.75
vt 0.53125 0.3125
vt 0.53125 0.3125
vt 0.53125 0.75
vt 0.5 0.75
vt 0.5 0.3125
vt 0.5 0.3125
vt 0.5 0.75
vt 0.53125 0.75
vt 0.53125 0.3125
vt 0.5 0.3125
vt 0.5 0.75
vt 0.53125 0.75
vt 0.53125 0.3125
vt 0.53125 0.3125
vt 0.53125 0.75
vt 0.5 0.75
vt 0.5 0.3125
vt 0.53125 0.3125
vt 0.53125 0.75
vt 0.5 0.75
vt 0.5 0.3125
vt 0.5 0.3125
vt 0.5 0.75
vt 0.53125 0.75
vt 0.53125 0.3125
vt 0.53125 0.3125
vt 0.53125 0.75
vt 0.5 0.75
vt 0.5 0.3125
vt 0.5 0.3125
vt 0.5 0.75
vt 0.53125 0.75
vt 0.53125 0.3125
vt 0.53125 0.3125
vt 0.53125 0.75
vt 0.5 0.75
vt 0.5 0.3125
vt 0.414061875 0.9375
vt 0.414061875 0.8125
vt 0.460938125 0.8125
vt 0.460938125 0.9375
vt 0.53125 0.3125
vt 0.53125 0.75
vt 0.5 0.75
vt 0.5 0.3125
vt 0.5 0.3125
vt 0.5 0.75
vt 0.53125 0.75
vt 0.53125 0.3125
vt 0.5 0.3125
vt 0.5 0.75
vt 0.53125 0.75
vt 0.53125 0.3125
vt 0.53125 0.3125
vt 0.53125 0.75
vt 0.5 0.75
vt 0.5 0.3125
vt 0.5 0.3125
vt 0.5 0.75
vt 0.53125 0.75
vt 0.53125 0.3125
vt 0.53125 0.3125
vt 0.53125 0.75
vt 0.5 0.75
vt 0.5 0.3125
vt 0.5 0.3125
vt 0.5 0.75
vt 0.53125 0.75
vt 0.53125 0.3125
vt 0.5 0.3125
vt 0.5 0.75
vt 0.53125 0.75
vt 0.53125 0.3125
vt 0.53125 0.3125
vt 0.53125 0.75
vt 0.5 0.75
vt 0.5 0.3125
vt 0.53125 0.3125
vt 0.53125 0.75
vt 0.5 0.75
vt 0.5 0.3125
vt 0.5 0.3125
vt 0.5 0.75
vt 0.53125 0.75
vt 0.53125 0.3125
vt 0.460938125 0.84375
vt 0.460938125 0.90625
vt 0.414061875 0.90625
vt 0.414061875 0.84375
vt 0.460938125 0.84375
vt 0.460938125 0.90625
vt 0.414061875 0.90625
vt 0.414061875 0.84375
vt 0.375 0.4375
vt 0.25 0.4375
vt 0.25 0.375
vt 0.375 0.375
vt 0.53125 0.3125
vt 0.53125 0.75
vt 0.5 0.75
vt 0.5 0.3125
vt 0.53125 0.3125
vt 0.53125 0.75
vt 0.5 0.75
vt 0.5 0.3125
vt 0.460938125 0.8125
vt 0.460938125 0.9375
vt 0.414061875 0.9375
vt 0.414061875 0.8125
vt 0.25 0.375
vt 0.375 0.375
vt 0.375 0.4375
vt 0.25 0.4375
vt 0.5 0.3125
vt 0.5 0.75
vt 0.53125 0.75
vt 0.53125 0.3125
vt 0.53125 0.3125
vt 0.53125 0.75
vt 0.5 0.75
vt 0.5 0.3125
vt 0.5 0.3125
vt 0.5 0.75
vt 0.53125 0.75
vt 0.53125 0.3125
vt 0.53125 0.3125
vt 0.53125 0.75
vt 0.5 0.75
vt 0.5 0.3125
vt 0.5 0.3125
vt 0.5 0.75
vt 0.53125 0.75
vt 0.53125 0.3125
vt 0.414061875 0.9375
vt 0.414061875 0.8125
vt 0.460938125 0.8125
vt 0.460938125 0.9375
vt 0.25 0.375
vt 0.375 0.375
vt 0.375 0.4375
vt 0.25 0.4375
vt 0.460938125 0.8125
vt 0.460938125 0.9375
vt 0.414061875 0.9375
vt 0.414061875 0.8125
vt 0.375 0.4375
vt 0.25 0.4375
vt 0.25 0.375
vt 0.375 0.375
vt 0.460938125 0.84375
vt 0.460938125 0.90625
vt 0.414061875 0.90625
vt 0.414061875 0.84375
vt 0.460938125 0.84375
vt 0.460938125 0.90625
vt 0.414061875 0.90625
vt 0.414061875 0.84375
vt 0.53125 0.75
vt 0.53125 0.25
vt 0.578125 0.25
vt 0.578125 0.75
vt 0.53125 0.75
vt 0.53125 0.25
vt 0.578125 0.25
vt 0.578125 0.75
vt 0.578125 0.75
vt 0.578125 0.25
vt 0.53125 0.25
vt 0.53125 0.75
vt 0.53125 0.75
vt 0.53125 0.25
vt 0.578125 0.25
vt 0.578125 0.75
vt 0.53125 0.75
vt 0.53125 0.25
vt 0.578125 0.25
vt 0.578125 0.75
vt 0.53125 0.75
vt 0.53125 0.25
vt 0.578125 0.25
vt 0.578125 0.75
vt 0.578125 0.75
vt 0.578125 0.25
vt 0.53125 0.25
vt 0.53125 0.75
vt 0.53125 0.75
vt 0.53125 0.25
vt 0.578125 0.25
vt 0.578125 0.75
vt 0.53125 0.75
vt 0.53125 0.25
vt 0.578125 0.25
vt 0.578125 0.75
vt 0.53125 0.75
vt 0.53125 0.25
vt 0.578125 0.25
vt 0.578125 0.75
vt 0.578125 0.75
vt 0.578125 0.25
vt 0.53125 0.25
vt 0.53125 0.75
vt 0.53125 0.75
vt 0.53125 0.25
vt 0.578125 0.25
vt 0.578125 0.75
vt 0.53125 0.75
vt 0.53125 0.25
vt 0.578125 0.25
vt 0.578125 0.75
vt 0.53125 0.75
vt 0.53125 0.25
vt 0.578125 0.25
vt 0.578125 0.75
vt 0.578125 0.75
vt 0.578125 0.25
vt 0.53125 0.25
vt 0.53125 0.75
vt 0.53125 0.75
vt 0.53125 0.25
vt 0.578125 0.25
vt 0.578125 0.75
vt 0.53125 0.75
vt 0.53125 0.25
vt 0.578125 0.25
vt 0.578125 0.75
vt 0.53125 0.75
vt 0.53125 0.25
vt 0.578125 0.25
vt 0.578125 0.75
vt 0.578125 0.75
vt 0.578125 0.25
vt 0.53125 0.25
vt 0.53125 0.75
vt 0.53125 0.75
vt 0.53125 0.25
vt 0.578125 0.25
vt 0.578125 0.75
vt 0.53125 0.75
vt 0.53125 0.25
vt 0.578125 0.25
vt 0.578125 0.75
vt 0.53125 0.75
vt 0.53125 0.25
vt 0.578125 0.25
vt 0.578125 0.75
vt 0.578125 0.75
vt 0.578125 0.25
vt 0.53125 0.25
vt 0.53125 0.75
vt 0.53125 0.75
vt 0.53125 0.25
vt 0.578125 0.25
vt 0.578125 0.75
vt 0.53125 0.75
vt 0.53125 0.25
vt 0.578125 0.25
vt 0.578125 0.75
vt 0.53125 0.75
vt 0.53125 0.25
vt 0.578125 0.25
vt 0.578125 0.75
vt 0.578125 0.75
vt 0.578125 0.25
vt 0.53125 0.25
vt 0.53125 0.75
vt 0.53125 0.75
vt 0.53125 0.25
vt 0.578125 0.25
vt 0.578125 0.75
vt 0.53125 0.3125
vt 0.53125 0.75
vt 0.5 0.75
vt 0.5 0.3125
vt 0.5 0.3125
vt 0.5 0.75
vt 0.53125 0.75
vt 0.53125 0.3125
vt 0.53125 0.3125
vt 0.53125 0.75
vt 0.5 0.75
vt 0.5 0.3125
vt 0.5 0.3125
vt 0.5 0.75
vt 0.53125 0.75
vt 0.53125 0.3125
vt 0.53125 0.3125
vt 0.53125 0.75
vt 0.5 0.75
vt 0.5 0.3125
vt 0.5 0.3125
vt 0.5 0.75
vt 0.53125 0.75
vt 0.53125 0.3125
vt 0.53125 0.3125
vt 0.53125 0.75
vt 0.5 0.75
vt 0.5 0.3125
vt 0.5 0.3125
vt 0.5 0.75
vt 0.53125 0.75
vt 0.53125 0.3125
vt 0.53125 0.3125
vt 0.53125 0.75
vt 0.5 0.75
vt 0.5 0.3125
vt 0.5 0.3125
vt 0.5 0.75
vt 0.53125 0.75
vt 0.53125 0.3125
vt 0.53125 0.3125
vt 0.53125 0.75
vt 0.5 0.75
vt 0.5 0.3125
vt 0.5 0.3125
vt 0.5 0.75
vt 0.53125 0.75
vt 0.53125 0.3125
vt 0.53125 0.3125
vt 0.53125 0.75
vt 0.5 0.75
vt 0.5 0.3125
vt 0.5 0.3125
vt 0.5 0.75
vt 0.53125 0.75
vt 0.53125 0.3125
vt 0.53125 0.3125
vt 0.53125 0.75
vt 0.5 0.75
vt 0.5 0.3125
vt 0.5 0.3125
vt 0.5 0.75
vt 0.53125 0.75
vt 0.53125 0.3125
vt 0.414061875 0.9375
vt 0.414061875 0.8125
vt 0.460938125 0.8125
vt 0.460938125 0.9375
vt 0.25 0.375
vt 0.375 0.375
vt 0.375 0.4375
vt 0.25 0.4375
vt 0.460938125 0.8125
vt 0.460938125 0.9375
vt 0.414061875 0.9375
vt 0.414061875 0.8125
vt 0.375 0.4375
vt 0.25 0.4375
vt 0.25 0.375
vt 0.375 0.375
vt 0.460938125 0.84375
vt 0.460938125 0.90625
vt 0.414061875 0.90625
vt 0.414061875 0.84375
vt 0.460938125 0.84375
vt 0.460938125 0.90625
vt 0.414061875 0.90625
vt 0.414061875 0.84375
vt 0.53125 0.3125
vt 0.53125 0.75
vt 0.5 0.75
vt 0.5 0.3125
vt 0.5 0.3125
vt 0.5 0.75
vt 0.53125 0.75
vt 0.53125 0.3125
vt 0.53125 0.3125
vt 0.53125 0.75
vt 0.5 0.75
vt 0.5 0.3125
vt 0.5 0.3125
vt 0.5 0.75
vt 0.53125 0.75
vt 0.53125 0.3125
vt 0.53125 0.3125
vt 0.53125 0.75
vt 0.5 0.75
vt 0.5 0.3125
vt 0.5 0.3125
vt 0.5 0.75
vt 0.53125 0.75
vt 0.53125 0.3125
vt 0.53125 0.3125
vt 0.53125 0.75
vt 0.5 0.75
vt 0.5 0.3125
vt 0.5 0.3125
vt 0.5 0.75
vt 0.53125 0.75
vt 0.53125 0.3125
vt 0.53125 0.3125
vt 0.53125 0.75
vt 0.5 0.75
vt 0.5 0.3125
vt 0.5 0.3125
vt 0.5 0.75
vt 0.53125 0.75
vt 0.53125 0.3125
vt 0.53125 0.3125
vt 0.53125 0.75
vt 0.5 0.75
vt 0.5 0.3125
vt 0.5 0.3125
vt 0.5 0.75
vt 0.53125 0.75
vt 0.53125 0.3125
vt 0 0.4375
vt 0 0.375
vt 0.25 0.375
vt 0.25 0.4375
vt 0 0.4375
vt 0 0.375
vt 0.25 0.375
vt 0.25 0.4375
vt 0 0.4375
vt 0 0.375
vt 0.25 0.375
vt 0.25 0.4375
vt 0 0.4375
vt 0 0.375
vt 0.25 0.375
vt 0.25 0.4375
vt 0.710938125 0.75
vt 0.960938125 0.75
vt 0.960938125 1
vt 0.710938125 1
vt 0.375 0.5
vt 0.375 0.375
vt 0.5 0.375
vt 0.5 0.5
vt 0.25 0.5625
vt 0.25 0.4375
vt 0.375 0.4375
vt 0.375 0.5625
vt 0.25 0.5625
vt 0.25 0.4375
vt 0.375 0.4375
vt 0.375 0.5625
vt 0.25 0.5625
vt 0.25 0.4375
vt 0.375 0.4375
vt 0.375 0.5625
vt 0.375 0.4375
vt 0.375 0.5625
vt 0.25 0.5625
vt 0.25 0.4375
vt 0.25 0.5625
vt 0.25 0.4375
vt 0.375 0.4375
vt 0.375 0.5625
vt 0.25 0.5625
vt 0.25 0.4375
vt 0.375 0.4375
vt 0.375 0.5625
vt 0.375 0.375
vt 0.375 0.25
vt 0.5 0.25
vt 0.5 0.375
vt 0.25 0.5625
vt 0.25 0.4375
vt 0.375 0.4375
vt 0.375 0.5625
vt 0.375 0.4375
vt 0.375 0.5625
vt 0.25 0.5625
vt 0.25 0.4375
vt 0.375 0
vt 0.375 0.125
vt 0 0.125
vt 0 0
vt 0 0.125
vt 0 0
vt 0.375 0
vt 0.375 0.125
vt 0.375 0
vt 0.375 0.125
vt 0 0.125
vt 0 0
vt 0.375 0.375
vt 0 0.375
vt 0 0
vt 0.375 0
vt 0.375 0.375
vt 0 0.375
vt 0 0
vt 0.375 0
vt 0.53125 0.8125
vt 0.53125 0.75
vt 0.710938125 0.75
vt 0.710938125 0.8125
vt 0 0
vt 0 0
vt 0 0
vt 0.710938125 0.75
vt 0.710938125 0.8125
vt 0.53125 0.8125
vt 0.53125 0.75
vt 0.53125 0.8125
vt 0.53125 0.75
vt 0.710938125 0.75
vt 0.710938125 0.8125
vt 0.710938125 0.9375
vt 0.710938125 1
vt 0.53125 1
vt 0.53125 0.9375
vt 0 0
vt 0 0
vt 0 0
vt 0.53125 1
vt 0.53125 0.9375
vt 0.710938125 0.9375
vt 0.710938125 1
vt 0.710938125 0.9375
vt 0.710938125 1
vt 0.53125 1
vt 0.53125 0.9375
vt 0.53125 0.875
vt 0.53125 0.8125
vt 0.710938125 0.8125
vt 0.710938125 0.875
vt 0.710938125 0.8125
vt 0.710938125 0.875
vt 0.53125 0.875
vt 0.53125 0.8125
vt 0.25 0.5625
vt 0.25 0.4375
vt 0.3125 0.4375
vt 0.3125 0.5625
vt 0.25 0.5625
vt 0.25 0.4375
vt 0.375 0.4375
vt 0.375 0.5625
vt 0.3125 0.5625
vt 0.3125 0.4375
vt 0.375 0.4375
vt 0.375 0.5625
vt 0.375 0.25
vt 0.375 0.125
vt 0.5 0.125
vt 0.5 0.25
vt 0.25 0.5
vt 0.375 0.5
vt 0.375 0.5625
vt 0.25 0.5625
vt 0.53125 0.75
vt 0.53125 0.25
vt 0.578125 0.25
vt 0.578125 0.75
vt 0.53125 0.75
vt 0.53125 0.25
vt 0.578125 0.25
vt 0.578125 0.75
vt 0.578125 0.75
vt 0.578125 0.25
vt 0.53125 0.25
vt 0.53125 0.75
vt 0.53125 0.75
vt 0.53125 0.25
vt 0.578125 0.25
vt 0.578125 0.75
vt 0.5 0.3125
vt 0.5 0.75
vt 0.53125 0.75
vt 0.53125 0.3125
vt 0.5 0.3125
vt 0.5 0.75
vt 0.53125 0.75
vt 0.53125 0.3125
vt 0.53125 0.3125
vt 0.53125 0.75
vt 0.5 0.75
vt 0.5 0.3125
vt 0.53125 0.3125
vt 0.53125 0.75
vt 0.5 0.75
vt 0.5 0.3125
vt 0.460938125 0.84375
vt 0.460938125 0.90625
vt 0.414061875 0.90625
vt 0.414061875 0.84375
vt 0.460938125 0.84375
vt 0.460938125 0.90625
vt 0.414061875 0.90625
vt 0.414061875 0.84375
vt 0.53125 0.3125
vt 0.53125 0.75
vt 0.5 0.75
vt 0.5 0.3125
vt 0.375 0.4375
vt 0.25 0.4375
vt 0.25 0.375
vt 0.375 0.375
vt 0.460938125 0.8125
vt 0.460938125 0.9375
vt 0.414061875 0.9375
vt 0.414061875 0.8125
vt 0.5 0.3125
vt 0.5 0.75
vt 0.53125 0.75
vt 0.53125 0.3125
vt 0.53125 0.3125
vt 0.53125 0.75
vt 0.5 0.75
vt 0.5 0.3125
vt 0.25 0.375
vt 0.375 0.375
vt 0.375 0.4375
vt 0.25 0.4375
vt 0.414061875 0.9375
vt 0.414061875 0.8125
vt 0.460938125 0.8125
vt 0.460938125 0.9375
vt 0.53125 0.3125
vt 0.53125 0.75
vt 0.5 0.75
vt 0.5 0.3125
vt 0.5 0.3125
vt 0.5 0.75
vt 0.53125 0.75
vt 0.53125 0.3125
vt 0.5 0.3125
vt 0.5 0.75
vt 0.53125 0.75
vt 0.53125 0.3125
vt 0.53125 0.3125
vt 0.53125 0.75
vt 0.5 0.75
vt 0.5 0.3125
vt 0.53125 0.3125
vt 0.53125 0.75
vt 0.5 0.75
vt 0.5 0.3125
vt 0.5 0.3125
vt 0.5 0.75
vt 0.53125 0.75
vt 0.53125 0.3125
vt 0.53125 0.3125
vt 0.53125 0.75
vt 0.5 0.75
vt 0.5 0.3125
vt 0.53125 0.3125
vt 0.53125 0.75
vt 0.5 0.75
vt 0.5 0.3125
vt 0.414061875 0.9375
vt 0.414061875 0.8125
vt 0.460938125 0.8125
vt 0.460938125 0.9375
vt 0.53125 0.3125
vt 0.53125 0.75
vt 0.5 0.75
vt 0.5 0.3125
vt 0.5 0.3125
vt 0.5 0.75
vt 0.53125 0.75
vt 0.53125 0.3125
vt 0.5 0.3125
vt 0.5 0.75
vt 0.53125 0.75
vt 0.53125 0.3125
vt 0.53125 0.3125
vt 0.53125 0.75
vt 0.5 0.75
vt 0.5 0.3125
vt 0.5 0.3125
vt 0.5 0.75
vt 0.53125 0.75
vt 0.53125 0.3125
vt 0.53125 0.3125
vt 0.53125 0.75
vt 0.5 0.75
vt 0.5 0.3125
vt 0.5 0.3125
vt 0.5 0.75
vt 0.53125 0.75
vt 0.53125 0.3125
vt 0.53125 0.3125
vt 0.53125 0.75
vt 0.5 0.75
vt 0.5 0.3125
vt 0.53125 0.3125
vt 0.53125 0.75
vt 0.5 0.75
vt 0.5 0.3125
vt 0.5 0.3125
vt 0.5 0.75
vt 0.53125 0.75
vt 0.53125 0.3125
vt 0.460938125 0.84375
vt 0.460938125 0.90625
vt 0.414061875 0.90625
vt 0.414061875 0.84375
vt 0.460938125 0.84375
vt 0.460938125 0.90625
vt 0.414061875 0.90625
vt 0.414061875 0.84375
vt 0.375 0.4375
vt 0.25 0.4375
vt 0.25 0.375
vt 0.375 0.375
vt 0.53125 0.3125
vt 0.53125 0.75
vt 0.5 0.75
vt 0.5 0.3125
vt 0.53125 0.3125
vt 0.53125 0.75
vt 0.5 0.75
vt 0.5 0.3125
vt 0.460938125 0.8125
vt 0.460938125 0.9375
vt 0.414061875 0.9375
vt 0.414061875 0.8125
vt 0.25 0.375
vt 0.375 0.375
vt 0.375 0.4375
vt 0.25 0.4375
vt 0.5 0.3125
vt 0.5 0.75
vt 0.53125 0.75
vt 0.53125 0.3125
vt 0.53125 0.3125
vt 0.53125 0.75
vt 0.5 0.75
vt 0.5 0.3125
vt 0.5 0.3125
vt 0.5 0.75
vt 0.53125 0.75
vt 0.53125 0.3125
vt 0.53125 0.3125
vt 0.53125 0.75
vt 0.5 0.75
vt 0.5 0.3125
vt 0.5 0.3125
vt 0.5 0.75
vt 0.53125 0.75
vt 0.53125 0.3125
vt 0.414061875 0.9375
vt 0.414061875 0.8125
vt 0.460938125 0.8125
vt 0.460938125 0.9375
vt 0.25 0.375
vt 0.375 0.375
vt 0.375 0.4375
vt 0.25 0.4375
vt 0.460938125 0.8125
vt 0.460938125 0.9375
vt 0.414061875 0.9375
vt 0.414061875 0.8125
vt 0.375 0.4375
vt 0.25 0.4375
vt 0.25 0.375
vt 0.375 0.375
vt 0.460938125 0.84375
vt 0.460938125 0.90625
vt 0.414061875 0.90625
vt 0.414061875 0.84375
vt 0.460938125 0.84375
vt 0.460938125 0.90625
vt 0.414061875 0.90625
vt 0.414061875 0.84375
vt 0.53125 0.75
vt 0.53125 0.25
vt 0.578125 0.25
vt 0.578125 0.75
vt 0.53125 0.75
vt 0.53125 0.25
vt 0.578125 0.25
vt 0.578125 0.75
vt 0.578125 0.75
vt 0.578125 0.25
vt 0.53125 0.25
vt 0.53125 0.75
vt 0.53125 0.75
vt 0.53125 0.25
vt 0.578125 0.25
vt 0.578125 0.75
vt 0.53125 0.75
vt 0.53125 0.25
vt 0.578125 0.25
vt 0.578125 0.75
vt 0.53125 0.75
vt 0.53125 0.25
vt 0.578125 0.25
vt 0.578125 0.75
vt 0.578125 0.75
vt 0.578125 0.25
vt 0.53125 0.25
vt 0.53125 0.75
vt 0.53125 0.75
vt 0.53125 0.25
vt 0.578125 0.25
vt 0.578125 0.75
vt 0.53125 0.75
vt 0.53125 0.25
vt 0.578125 0.25
vt 0.578125 0.75
vt 0.53125 0.75
vt 0.53125 0.25
vt 0.578125 0.25
vt 0.578125 0.75
vt 0.578125 0.75
vt 0.578125 0.25
vt 0.53125 0.25
vt 0.53125 0.75
vt 0.53125 0.75
vt 0.53125 0.25
vt 0.578125 0.25
vt 0.578125 0.75
vt 0.53125 0.75
vt 0.53125 0.25
vt 0.578125 0.25
vt 0.578125 0.75
vt 0.53125 0.75
vt 0.53125 0.25
vt 0.578125 0.25
vt 0.578125 0.75
vt 0.578125 0.75
vt 0.578125 0.25
vt 0.53125 0.25
vt 0.53125 0.75
vt 0.53125 0.75
vt 0.53125 0.25
vt 0.578125 0.25
vt 0.578125 0.75
vt 0.53125 0.75
vt 0.53125 0.25
vt 0.578125 0.25
vt 0.578125 0.75
vt 0.53125 0.75
vt 0.53125 0.25
vt 0.578125 0.25
vt 0.578125 0.75
vt 0.578125 0.75
vt 0.578125 0.25
vt 0.53125 0.25
vt 0.53125 0.75
vt 0.53125 0.75
vt 0.53125 0.25
vt 0.578125 0.25
vt 0.578125 0.75
vt 0.53125 0.75
vt 0.53125 0.25
vt 0.578125 0.25
vt 0.578125 0.75
vt 0.53125 0.75
vt 0.53125 0.25
vt 0.578125 0.25
vt 0.578125 0.75
vt 0.578125 0.75
vt 0.578125 0.25
vt 0.53125 0.25
vt 0.53125 0.75
vt 0.53125 0.75
vt 0.53125 0.25
vt 0.578125 0.25
vt 0.578125 0.75
vt 0.53125 0.75
vt 0.53125 0.25
vt 0.578125 0.25
vt 0.578125 0.75
vt 0.53125 0.75
vt 0.53125 0.25
vt 0.578125 0.25
vt 0.578125 0.75
vt 0.578125 0.75
vt 0.578125 0.25
vt 0.53125 0.25
vt 0.53125 0.75
vt 0.53125 0.75
vt 0.53125 0.25
vt 0.578125 0.25
vt 0.578125 0.75
vt 0.53125 0.3125
vt 0.53125 0.75
vt 0.5 0.75
vt 0.5 0.3125
vt 0.5 0.3125
vt 0.5 0.75
vt 0.53125 0.75
vt 0.53125 0.3125
vt 0.53125 0.3125
vt 0.53125 0.75
vt 0.5 0.75
vt 0.5 0.3125
vt 0.5 0.3125
vt 0.5 0.75
vt 0.53125 0.75
vt 0.53125 0.3125
vt 0.53125 0.3125
vt 0.53125 0.75
vt 0.5 0.75
vt 0.5 0.3125
vt 0.5 0.3125
vt 0.5 0.75
vt 0.53125 0.75
vt 0.53125 0.3125
vt 0.53125 0.3125
vt 0.53125 0.75
vt 0.5 0.75
vt 0.5 0.3125
vt 0.53125 0.3125
vt 0.53125 0.75
vt 0.5 0.75
vt 0.5 0.3125
vt 0.5 0.3125
vt 0.5 0.75
vt 0.53125 0.75
vt 0.53125 0.3125
vt 0.53125 0.3125
vt 0.53125 0.75
vt 0.5 0.75
vt 0.5 0.3125
vt 0.53125 0.3125
vt 0.53125 0.75
vt 0.5 0.75
vt 0.5 0.3125
vt 0.5 0.3125
vt 0.5 0.75
vt 0.53125 0.75
vt 0.53125 0.3125
vt 0.53125 0.3125
vt 0.53125 0.75
vt 0.5 0.75
vt 0.5 0.3125
vt 0.5 0.3125
vt 0.5 0.75
vt 0.53125 0.75
vt 0.53125 0.3125
vt 0.414061875 0.9375
vt 0.414061875 0.8125
vt 0.460938125 0.8125
vt 0.460938125 0.9375
vt 0.25 0.375
vt 0.375 0.375
vt 0.375 0.4375
vt 0.25 0.4375
vt 0.460938125 0.8125
vt 0.460938125 0.9375
vt 0.414061875 0.9375
vt 0.414061875 0.8125
vt 0.375 0.4375
vt 0.25 0.4375
vt 0.25 0.375
vt 0.375 0.375
vt 0.460938125 0.84375
vt 0.460938125 0.90625
vt 0.414061875 0.90625
vt 0.414061875 0.84375
vt 0.460938125 0.84375
vt 0.460938125 0.90625
vt 0.414061875 0.90625
vt 0.414061875 0.84375
vt 0.53125 0.3125
vt 0.53125 0.75
vt 0.5 0.75
vt 0.5 0.3125
vt 0.5 0.3125
vt 0.5 0.75
vt 0.53125 0.75
vt 0.53125 0.3125
vt 0.53125 0.3125
vt 0.53125 0.75
vt 0.5 0.75
vt 0.5 0.3125
vt 0.5 0.3125
vt 0.5 0.75
vt 0.53125 0.75
vt 0.53125 0.3125
vt 0.53125 0.3125
vt 0.53125 0.75
vt 0.5 0.75
vt 0.5 0.3125
vt 0.53125 0.3125
vt 0.53125 0.75
vt 0.5 0.75
vt 0.5 0.3125
vt 0.5 0.3125
vt 0.5 0.75
vt 0.53125 0.75
vt 0.53125 0.3125
vt 0.53125 0.3125
vt 0.53125 0.75
vt 0.5 0.75
vt 0.5 0.3125
vt 0.53125 0.3125
vt 0.53125 0.75
vt 0.5 0.75
vt 0.5 0.3125
vt 0.5 0.3125
vt 0.5 0.75
vt 0.53125 0.75
vt 0.53125 0.3125
vt 0.375 0.5625
vt 0.375 0.625
vt 0 0.625
vt 0 0.5625
vt 0.375 0.5625
vt 0.375 0.625
vt 0 0.625
vt 0 0.5625
vt 0.25 0.5625
vt 0.25 0.476561875
vt 0.125 0.476561875
vt 0.125 0.5625
vt 0.25 0.5625
vt 0.25 0.476561875
vt 0.125 0.476561875
vt 0.125 0.5625
vt 0.4375 0.75
vt 0.5 0.75
vt 0.5 0.8125
vt 0.492188125 0.8125
vt 0.375 0.75
vt 0.4375 0.75
vt 0.382811875 0.8125
vt 0.375 0.8125
vt 0.375 0.5625
vt 0.375 0.625
vt 0 0.625
vt 0 0.5625
vt 0.25 0.5625
vt 0.25 0.476561875
vt 0.125 0.476561875
vt 0.125 0.5625
vt 0.25 0.5625
vt 0.25 0.476561875
vt 0.125 0.476561875
vt 0.125 0.5625
vt 0.4375 0.75
vt 0.5 0.75
vt 0.5 0.8125
vt 0.492188125 0.8125
vt 0.375 0.75
vt 0.4375 0.75
vt 0.382811875 0.8125
vt 0.375 0.8125
vt 0.25 0.5625
vt 0.25 0.476561875
vt 0.125 0.476561875
vt 0.125 0.5625
vt 0.25 0.5625
vt 0.25 0.476561875
vt 0.125 0.476561875
vt 0.125 0.5625
vt 0.4375 0.75
vt 0.5 0.75
vt 0.5 0.8125
vt 0.492188125 0.8125
vt 0.375 0.75
vt 0.4375 0.75
vt 0.382811875 0.8125
vt 0.375 0.8125
vt 0.25 0.5625
vt 0.25 0.476561875
vt 0.125 0.476561875
vt 0.125 0.5625
vt 0.25 0.5625
vt 0.25 0.476561875
vt 0.125 0.476561875
vt 0.125 0.5625
vt 0.4375 0.75
vt 0.5 0.75
vt 0.5 0.8125
vt 0.492188125 0.8125
vt 0.375 0.75
vt 0.4375 0.75
vt 0.382811875 0.8125
vt 0.375 0.8125
vt 1 0.375
vt 1 0
vt 0.625 0
vt 0.625 0.375
vt 0.375 0.5625
vt 0.375 0.625
vt 0 0.625
vt 0 0.5625
vt 0.5 0.75
vt 0.53125 0.75
vt 0.53125 0.8125
vt 0.5 0.8125
vt 0.5 0.75
vt 0.53125 0.75
vt 0.53125 0.8125
vt 0.5 0.8125
vt 0.5 0.75
vt 0.53125 0.75
vt 0.53125 0.8125
vt 0.5 0.8125
vt 0.5 0.5
vt 0.375 0.5
vt 0.375 0.5625
vt 0.5 0.5625
vt 0.5 0.75
vt 0.53125 0.75
vt 0.53125 0.8125
vt 0.5 0.8125
vt 0.5 0.5625
vt 0.375 0.5625
vt 0.375 0.5
vt 0.5 0.5
vt 0.5 0.5
vt 0.375 0.5
vt 0.375 0.5625
vt 0.5 0.5625
vt 0.5 0.75
vt 0.53125 0.75
vt 0.53125 0.8125
vt 0.5 0.8125
vt 0.5 0.75
vt 0.53125 0.75
vt 0.53125 0.8125
vt 0.5 0.8125
vt 0.710938125 0.75
vt 0.710938125 0.8125
vt 0.53125 0.8125
vt 0.53125 0.75
vt 0.5 0.75
vt 0.53125 0.75
vt 0.53125 0.8125
vt 0.5 0.8125
vt 0.5 0.75
vt 0.53125 0.75
vt 0.53125 0.8125
vt 0.5 0.8125
vt 0.5 0.75
vt 0.53125 0.75
vt 0.53125 0.8125
vt 0.5 0.8125
vt 0.5 0.75
vt 0.53125 0.75
vt 0.53125 0.8125
vt 0.5 0.8125
vt 0.5 0.75
vt 0.53125 0.75
vt 0.53125 0.8125
vt 0.5 0.8125
vt 0.5 0.75
vt 0.53125 0.75
vt 0.53125 0.8125
vt 0.5 0.8125
vt 0.5 0.8125
vt 0.53125 0.8125
vt 0.53125 0.75
vt 0.5 0.75
vt 0.5 0.75
vt 0.5 0.8125
vt 0.53125 0.8125
vt 0.53125 0.75
vt 0.5 0.75
vt 0.53125 0.75
vt 0.53125 0.8125
vt 0.5 0.8125
vt 0.5 0.5
vt 0.375 0.5
vt 0.375 0.5625
vt 0.5 0.5625
vt 0.375 0.625
vt 0 0.625
vt 0 1
vt 0.375 1
vt 0 0.625
vt 0 0.5625
vt 0.375 0.5625
vt 0.375 0.625
vt 0 0.625
vt 0 0.5625
vt 0.375 0.5625
vt 0.375 0.625
vt 0.25 0.5625
vt 0.25 0.476561875
vt 0.125 0.476561875
vt 0.125 0.5625
vt 0.25 0.5625
vt 0.25 0.476561875
vt 0.125 0.476561875
vt 0.125 0.5625
vt 0.4375 1
vt 0.375 1
vt 0.375 0.9375
vt 0.382811875 0.9375
vt 0.5 1
vt 0.4375 1
vt 0.492188125 0.9375
vt 0.5 0.9375
vt 0 0.625
vt 0 0.5625
vt 0.375 0.5625
vt 0.375 0.625
vt 0.25 0.5625
vt 0.25 0.476561875
vt 0.125 0.476561875
vt 0.125 0.5625
vt 0.25 0.5625
vt 0.25 0.476561875
vt 0.125 0.476561875
vt 0.125 0.5625
vt 0.4375 1
vt 0.375 1
vt 0.375 0.9375
vt 0.382811875 0.9375
vt 0.5 1
vt 0.4375 1
vt 0.492188125 0.9375
vt 0.5 0.9375
vt 0.25 0.5625
vt 0.25 0.476561875
vt 0.125 0.476561875
vt 0.125 0.5625
vt 0.25 0.5625
vt 0.25 0.476561875
vt 0.125 0.476561875
vt 0.125 0.5625
vt 0.4375 1
vt 0.375 1
vt 0.375 0.9375
vt 0.382811875 0.9375
vt 0.5 1
vt 0.4375 1
vt 0.492188125 0.9375
vt 0.5 0.9375
vt 0.25 0.5625
vt 0.25 0.476561875
vt 0.125 0.476561875
vt 0.125 0.5625
vt 0.25 0.5625
vt 0.25 0.476561875
vt 0.125 0.476561875
vt 0.125 0.5625
vt 0.4375 1
vt 0.375 1
vt 0.375 0.9375
vt 0.382811875 0.9375
vt 0.5 1
vt 0.4375 1
vt 0.492188125 0.9375
vt 0.5 0.9375
vt 0.375 1
vt 0.375 0.625
vt 0 0.625
vt 0 1
vt 0 0.625
vt 0 0.5625
vt 0.375 0.5625
vt 0.375 0.625
vt 0.5 1
vt 0.53125 1
vt 0.53125 0.9375
vt 0.5 0.9375
vt 0.5 1
vt 0.53125 1
vt 0.53125 0.9375
vt 0.5 0.9375
vt 0.5 1
vt 0.53125 1
vt 0.53125 0.9375
vt 0.5 0.9375
vt 0.53125 1
vt 0.5 1
vt 0.5 0.9375
vt 0.53125 0.9375
vt 0.375 0.75
vt 0.5 0.75
vt 0.5 0.6875
vt 0.375 0.6875
vt 0.5 1
vt 0.53125 1
vt 0.53125 0.9375
vt 0.5 0.9375
vt 0.375 0.6875
vt 0.5 0.6875
vt 0.5 0.75
vt 0.375 0.75
vt 0.375 0.75
vt 0.5 0.75
vt 0.5 0.6875
vt 0.375 0.6875
vt 0.5 1
vt 0.53125 1
vt 0.53125 0.9375
vt 0.5 0.9375
vt 0.5 1
vt 0.53125 1
vt 0.53125 0.9375
vt 0.5 0.9375
vt 0.710938125 0.875
vt 0.710938125 0.9375
vt 0.53125 0.9375
vt 0.53125 0.875
vt 0.5 1
vt 0.53125 1
vt 0.53125 0.9375
vt 0.5 0.9375
vt 0.5 1
vt 0.53125 1
vt 0.53125 0.9375
vt 0.5 0.9375
vt 0.5 1
vt 0.53125 1
vt 0.53125 0.9375
vt 0.5 0.9375
vt 0.5 1
vt 0.53125 1
vt 0.53125 0.9375
vt 0.5 0.9375
vt 0.5 1
vt 0.53125 1
vt 0.53125 0.9375
vt 0.5 0.9375
vt 0.5 1
vt 0.53125 1
vt 0.53125 0.9375
vt 0.5 0.9375
vt 0.53125 1
vt 0.5 1
vt 0.5 0.9375
vt 0.53125 0.9375
vt 0.5 1
vt 0.5 0.9375
vt 0.53125 0.9375
vt 0.53125 1
vt 0.5 1
vt 0.53125 1
vt 0.53125 0.9375
vt 0.5 0.9375
vt 0.375 0.75
vt 0.5 0.75
vt 0.5 0.6875
vt 0.375 0.6875
vt 0.375 0.625
vt 0 0.625
vt 0 1
vt 0.375 1
vt 0.382811875 0.6875
vt 0.382811875 0.5625
vt 0.375 0.5625
vt 0.375 0.6875
vt 0.125 0.5625
vt 0.125 0.4375
vt 0 0.4375
vt 0 0.5625
vt 0.382811875 0.6875
vt 0.382811875 0.5625
vt 0.375 0.5625
vt 0.375 0.6875
vt 0.125 0.5625
vt 0.125 0.4375
vt 0 0.4375
vt 0 0.5625
vt 0.382811875 0.6875
vt 0.382811875 0.5625
vt 0.375 0.5625
vt 0.375 0.6875
vt 0.125 0.5625
vt 0.125 0.4375
vt 0 0.4375
vt 0 0.5625
vt 0.125 0.5625
vt 0.125 0.4375
vt 0 0.4375
vt 0 0.5625
vt 0.382811875 0.6875
vt 0.382811875 0.5625
vt 0.375 0.5625
vt 0.375 0.6875
vt 0.125 0.5625
vt 0.125 0.4375
vt 0 0.4375
vt 0 0.5625
vt 0.382811875 0.6875
vt 0.382811875 0.5625
vt 0.375 0.5625
vt 0.375 0.6875
vt 0.375 0.6875
vt 0.382811875 0.6875
vt 0.382811875 0.5625
vt 0.375 0.5625
vt 0.125 0.5625
vt 0.125 0.4375
vt 0 0.4375
vt 0 0.5625
vt 0.375 0.5625
vt 0.5 0.5625
vt 0.5 0.6875
vt 0.375 0.6875
vt 0.125 0.5625
vt 0.125 0.4375
vt 0 0.4375
vt 0 0.5625
vt 0.382811875 0.6875
vt 0.382811875 0.5625
vt 0.375 0.5625
vt 0.375 0.6875
vt 0.125 0.5625
vt 0.125 0.4375
vt 0 0.4375
vt 0 0.5625
vt 0.382811875 0.6875
vt 0.382811875 0.5625
vt 0.375 0.5625
vt 0.375 0.6875
vt 1 1
vt 1 0
vt 0 0
vt 0 1
vt 0.53125 1
vt 0.53125 0.9375
vt 0.710938125 0.9375
vt 0.710938125 1
vt 0.710938125 0.9375
vt 0.53125 0.9375
vt 0.53125 0.875
vt 0.710938125 0.875
vt 0.53125 0.9375
vt 0.53125 0.875
vt 0.710938125 0.875
vt 0.710938125 0.9375
vt 0.710938125 0.9375
vt 0.53125 0.9375
vt 0.53125 0.875
vt 0.710938125 0.875
vt 0.53125 0.8125
vt 0.710938125 0.8125
vt 0.710938125 0.875
vt 0.53125 0.875
vt 0.53125 0.8125
vt 0.710938125 0.8125
vt 0.710938125 0.875
vt 0.53125 0.875
vt 0.5 0.9375
vt 0.53125 0.9375
vt 0.53125 0.8125
vt 0.5 0.8125
vt 0.5 0.9375
vt 0.53125 0.9375
vt 0.53125 0.8125
vt 0.5 0.8125
vt 0.5 0.9375
vt 0.53125 0.9375
vt 0.53125 0.8125
vt 0.5 0.8125
vt 0.5 0.9375
vt 0.53125 0.9375
vt 0.53125 0.8125
vt 0.5 0.8125
vt 0.5 0.9375
vt 0.53125 0.9375
vt 0.53125 0.8125
vt 0.5 0.8125
vt 0.5 0.9375
vt 0.53125 0.9375
vt 0.53125 0.8125
vt 0.5 0.8125
vt 0.5 0.9375
vt 0.53125 0.9375
vt 0.53125 0.8125
vt 0.5 0.8125
vt 0.375 0.6875
vt 0.5 0.6875
vt 0.5 0.5625
vt 0.375 0.5625
vt 0.5 0.9375
vt 0.53125 0.9375
vt 0.53125 0.8125
vt 0.5 0.8125
vt 0.5 0.9375
vt 0.53125 0.9375
vt 0.53125 0.8125
vt 0.5 0.8125
vt 0.5 0.9375
vt 0.53125 0.9375
vt 0.53125 0.8125
vt 0.5 0.8125
vt 0.5 0.9375
vt 0.53125 0.9375
vt 0.53125 0.8125
vt 0.5 0.8125
vt 0.5 0.9375
vt 0.53125 0.9375
vt 0.53125 0.8125
vt 0.5 0.8125
vt 0.375 0.6875
vt 0.5 0.6875
vt 0.5 0.5625
vt 0.375 0.5625
vt 0.5 0.9375
vt 0.53125 0.9375
vt 0.53125 0.8125
vt 0.5 0.8125
vt 0.5 0.9375
vt 0.53125 0.9375
vt 0.53125 0.8125
vt 0.5 0.8125
vt 0.5 0.9375
vt 0.53125 0.9375
vt 0.53125 0.8125
vt 0.5 0.8125
vt 0.5 0.9375
vt 0.53125 0.9375
vt 0.53125 0.8125
vt 0.5 0.8125
vt 0.375 0.6875
vt 0.5 0.6875
vt 0.5 0.5625
vt 0.375 0.5625
vt 0.5 0.3125
vt 0.5 0.75
vt 0.53125 0.75
vt 0.53125 0.3125
vt 0.5 0.3125
vt 0.5 0.75
vt 0.53125 0.75
vt 0.53125 0.3125
vt 0.5 0.3125
vt 0.5 0.75
vt 0.53125 0.75
vt 0.53125 0.3125
vt 0.5 0.3125
vt 0.5 0.75
vt 0.53125 0.75
vt 0.53125 0.3125
vt 0.5 0.3125
vt 0.5 0.75
vt 0.53125 0.75
vt 0.53125 0.3125
vt 0.5 0.3125
vt 0.5 0.75
vt 0.53125 0.75
vt 0.53125 0.3125
vt 0.5 0.3125
vt 0.5 0.75
vt 0.53125 0.75
vt 0.53125 0.3125
vt 0.5 0.3125
vt 0.5 0.75
vt 0.53125 0.75
vt 0.53125 0.3125
vt 0.5 0.75
vt 0.53125 0.75
vt 0.53125 0.8125
vt 0.5 0.8125
vt 0 0.125
vt 0.375 0.125
vt 0.375 0
vt 0 0
vn -1 0 0
vn 1 0 0
vn 0 0 -1
vn -1 0 0
vn 0 0 1
vn 0 -1 0
vn 0 1 0
vn 0 0 -1
vn -1 0 0
vn 0 0 1
vn 0 -1 0
vn 0 1 0
vn 0 0 -1
vn -1 0 0
vn 0 0 1
vn 1 0 0
vn 0 0 -1
vn -1 0 0
vn 0 0 1
vn 1 0 0
vn 0 -1 0
vn 0 1 0
vn 0 0 -1
vn -1 0 0
vn 0 0 1
vn 1 0 0
vn 0 -1 0
vn 0 1 0
vn 0 0 -1
vn 1 0 0
vn 0 0 1
vn -1 0 0
vn 0 1 0
vn 0 0 -1
vn 1 0 0
vn 0 0 1
vn -1 0 0
vn 0 1 0
vn 0 0 -1
vn 1 0 0
vn 0 0 1
vn -1 0 0
vn 0 1 0
vn 0 0 -1
vn 1 0 0
vn 0 0 1
vn -1 0 0
vn 0 1 0
vn 0 0 -1
vn 1 0 0
vn 0 0 1
vn -1 0 0
vn 1 0 0
vn -1 0 0
vn 0 0.24279064885010795 -0.9700787085752082
vn 0 0.24279064885010795 -0.9700787085752082
vn -1 0 0
vn 0 1 0
vn 0 -1 0
vn 0 -0.24279064885010795 0.9700787085752082
vn 1 0 0
vn 0 0 -1
vn 1 0 0
vn 0 -0.24279064885010795 -0.9700787085752082
vn -1 0 0
vn 0 0 1
vn -1 0 0
vn 0 0.24279064885010795 0.9700787085752082
vn 1 0 0
vn 1 0 0
vn 0 0.24279064885010795 0.9700787085752082
vn 0 -0.24279064885010795 0.9700787085752082
vn -1 0 0
vn 0 -0.24279064885010795 -0.9700787085752082
vn 1 0 0
vn 0 0.24279064885010795 -0.9700787085752082
vn 0 0 1
vn 0 -0.24279064885010795 0.9700787085752082
vn 1 0 0
vn -1 0 0
vn 0 -0.24279064885010795 0.9700787085752082
vn -1 0 0
vn 0 0.24279064885010795 0.9700787085752082
vn 1 0 0
vn -1 0 0
vn 0 0.24279064885010795 -0.9700787085752082
vn 0 -0.24279064885010795 -0.9700787085752082
vn -1 0 0
vn 0 1 0
vn 0 -1 0
vn 1 0 0
vn 0 0.24279064885010795 0.9700787085752082
vn 0 -0.24279064885010795 -0.9700787085752082
vn 0 0 -1
vn -1 0 0
vn 1 0 0
vn 0.9700787085752082 -0.24279064885010795 0
vn 0 0 -1
vn -0.9700787085752082 0.24279064885010795 0
vn 0 0 1
vn -1 0 0
vn 0 0 -1
vn 1 0 0
vn 0 0 1
vn 0 -1 0
vn 0 1 0
vn 0 0 -1
vn 1 0 0
vn 0 0 1
vn -1 0 0
vn 0 0 -1
vn 1 0 0
vn 0 0 1
vn -1 0 0
vn 0 0 -1
vn 1 0 0
vn 0 0 1
vn -1 0 0
vn 0 0 -1
vn 1 0 0
vn 0 0 1
vn -1 0 0
vn 0 0 -1
vn 1 0 0
vn 0 0 1
vn -1 0 0
vn 0 0 -1
vn 1 0 0
vn 0 0 1
vn -1 0 0
vn 0 0 -1
vn 1 0 0
vn 0 0 1
vn -1 0 0
vn 0.9700787085752082 0.24279064885010795 0
vn 0 0 -1
vn -0.9700787085752082 -0.24279064885010795 0
vn 0 0 1
vn -0.9700787085752082 0.24279064885010795 0
vn 0 0 -1
vn 0.9700787085752082 -0.24279064885010795 0
vn 0 0 1
vn -0.9700787085752082 -0.24279064885010795 0
vn 0 0 -1
vn 0.9700787085752082 0.24279064885010795 0
vn 0 0 1
vn 0.9700787085752082 -0.24279064885010795 0
vn 0 0 -1
vn -0.9700787085752082 0.24279064885010795 0
vn 0 0 1
vn -1 0 0
vn 0 0 -1
vn 1 0 0
vn 0 0 1
vn 0 -1 0
vn 0 1 0
vn 0.9700787085752082 0.24279064885010795 0
vn 0 0 -1
vn -0.9700787085752082 -0.24279064885010795 0
vn 0 0 1
vn -0.9700787085752082 0.24279064885010795 0
vn 0 0 -1
vn 0.9700787085752082 -0.24279064885010795 0
vn 0 0 1
vn -0.9700787085752082 -0.24279064885010795 0
vn 0 0 -1
vn 0.9700787085752082 0.24279064885010795 0
vn 0 0 1
vn 0 0 -1
vn 1 0 0
vn 0 0 1
vn -1 0 0
vn 0 1 0
vn 0 0 -1
vn 1 0 0
vn 0 0 1
vn -1 0 0
vn 0 1 0
vn 0 0 -1
vn 1 0 0
vn 0 0 1
vn -1 0 0
vn 0 1 0
vn 0 0 -1
vn 0 0 1
vn -1 0 0
vn 0 -1 0
vn 0 1 0
vn 0.7071067811865476 0 0.7071067811865476
vn 0 0 0
vn -0.7071067811865476 0 0.7071067811865476
vn -0.7071067811865476 0 -0.7071067811865476
vn 0.7071067811865476 0 -0.7071067811865476
vn 0 0 0
vn -0.7071067811865476 0 -0.7071067811865476
vn -0.7071067811865476 0 0.7071067811865476
vn -0.7071067811865476 0 0.7071067811865476
vn 0.7071067811865476 0 -0.7071067811865476
vn 0 0 -1
vn 1 0 0
vn 0 0 1
vn -1 0 0
vn 0 1 0
vn 0 0 -1
vn 1 0 0
vn 0 0 1
vn -1 0 0
vn 1 0 0
vn -1 0 0
vn 0 0.24279064885010795 -0.9700787085752082
vn 0 0.24279064885010795 -0.9700787085752082
vn 0 1 0
vn 0 -1 0
vn 0 -0.24279064885010795 0.9700787085752082
vn 1 0 0
vn 0 0 -1
vn 1 0 0
vn 0 -0.24279064885010795 -0.9700787085752082
vn -1 0 0
vn 0 0 1
vn 0 0.24279064885010795 0.9700787085752082
vn 1 0 0
vn 1 0 0
vn 0 0.24279064885010795 0.9700787085752082
vn 0 -0.24279064885010795 0.9700787085752082
vn -1 0 0
vn 0 -0.24279064885010795 -0.9700787085752082
vn 0 0.24279064885010795 -0.9700787085752082
vn 0 0 1
vn 0 -0.24279064885010795 0.9700787085752082
vn 1 0 0
vn -1 0 0
vn 0 -0.24279064885010795 0.9700787085752082
vn -1 0 0
vn 0 0.24279064885010795 0.9700787085752082
vn -1 0 0
vn 0 0.24279064885010795 -0.9700787085752082
vn 0 -0.24279064885010795 -0.9700787085752082
vn -1 0 0
vn 0 1 0
vn 0 -1 0
vn 1 0 0
vn 0 0.24279064885010795 0.9700787085752082
vn 0 -0.24279064885010795 -0.9700787085752082
vn 0 0 -1
vn -1 0 0
vn 1 0 0
vn 0.9700787085752082 -0.24279064885010795 0
vn 0 0 -1
vn -0.9700787085752082 0.24279064885010795 0
vn 0 0 1
vn -1 0 0
vn 0 0 -1
vn 1 0 0
vn 0 0 1
vn 0 -1 0
vn 0 1 0
vn 0 0 -1
vn 1 0 0
vn 0 0 1
vn -1 0 0
vn 0 0 -1
vn 1 0 0
vn 0 0 1
vn -1 0 0
vn 0 0 -1
vn 1 0 0
vn 0 0 1
vn -1 0 0
vn 0 0 -1
vn 1 0 0
vn 0 0 1
vn -1 0 0
vn 0 0 -1
vn 1 0 0
vn 0 0 1
vn -1 0 0
vn 0 0 -1
vn 1 0 0
vn 0 0 1
vn -1 0 0
vn 0 0 -1
vn 1 0 0
vn 0 0 1
vn -1 0 0
vn 0.9700787085752082 0.24279064885010795 0
vn 0 0 -1
vn -0.9700787085752082 -0.24279064885010795 0
vn 0 0 1
vn -0.9700787085752082 0.24279064885010795 0
vn 0 0 -1
vn 0.9700787085752082 -0.24279064885010795 0
vn -0.9700787085752082 -0.24279064885010795 0
vn 0 0 -1
vn 0.9700787085752082 0.24279064885010795 0
vn 0.9700787085752082 -0.24279064885010795 0
vn 0 0 -1
vn -0.9700787085752082 0.24279064885010795 0
vn 0 0 1
vn -1 0 0
vn 0 0 -1
vn 1 0 0
vn 0 0 1
vn 0 -1 0
vn 0 1 0
vn 0.9700787085752082 0.24279064885010795 0
vn 0 0 -1
vn -0.9700787085752082 -0.24279064885010795 0
vn 0 0 1
vn -0.9700787085752082 0.24279064885010795 0
vn 0.9700787085752082 -0.24279064885010795 0
vn 0 0 1
vn -0.9700787085752082 -0.24279064885010795 0
vn 0.9700787085752082 0.24279064885010795 0
vn 0 0 1
vn 1 0 0
vn -1 0 0
vn 0.7525766947068778 0.658504607868518 0
vn -0.7525766947068778 0.658504607868518 0
vn 0 0 -1
vn 0 0 -1
vn 0 0 1
vn 0 0.658504607868518 -0.7525766947068778
vn 0 0.658504607868518 0.7525766947068778
vn -1 0 0
vn -1 0 0
vn -0.7525766947068778 0.658504607868518 0
vn 0.7525766947068778 0.658504607868518 0
vn 0 0 1
vn 0 0 1
vn 0 0.658504607868518 0.7525766947068778
vn 0 0.658504607868518 -0.7525766947068778
vn 1 0 0
vn 1 0 0
vn 0 -1 0
vn 0 0 -1
vn 0 0 -1
vn 0 0 -1
vn 1 0 0
vn 1 0 0
vn -1 0 0
vn -1 0 0
vn 0 0 1
vn -1 0 0
vn 1 0 0
vn 0.7071067811865476 0 -0.7071067811865476
vn 0 0 -1
vn 0 0 1
vn -1 0 0
vn -1 0 0
vn 1 0 0
vn 1 0 0
vn 0 0 1
vn 0 0 1
vn 0 0 -1
vn 0 0 -1
vn 0 1 0
vn 1 0 0
vn -1 0 0
vn 0.7525766947068778 -0.658504607868518 0
vn -0.7525766947068778 -0.658504607868518 0
vn 0 0 1
vn 0 0 1
vn 0 0 -1
vn 0 -0.658504607868518 0.7525766947068778
vn 0 -0.658504607868518 -0.7525766947068778
vn -1 0 0
vn -1 0 0
vn -0.7525766947068778 -0.658504607868518 0
vn 0.7525766947068778 -0.658504607868518 0
vn 0 0 -1
vn 0 0 -1
vn 0 -0.658504607868518 -0.7525766947068778
vn 0 -0.658504607868518 0.7525766947068778
vn 1 0 0
vn 1 0 0
vn 0 1 0
vn 0 0 1
vn 0 0 1
vn 0 0 1
vn 1 0 0
vn 0 0 -1
vn 1 0 0
vn -1 0 0
vn -1 0 0
vn 0 0 -1
vn -1 0 0
vn 1 0 0
vn 0.7071067811865476 0 0.7071067811865476
vn 0 0 1
vn 0 0 -1
vn -1 0 0
vn -1 0 0
vn 1 0 0
vn 1 0 0
vn 0 0 -1
vn 0 0 -1
vn 0 0 1
vn 0 0 1
vn 0 -1 0
vn 1 0 0
vn 0 0 -1
vn 1 0 0
vn 0 0 1
vn -1 0 0
vn 0 0 -1
vn 0 0 1
vn -1 0 0
vn 1 0 0
vn 0 0 1
vn 0 0 1
vn -1 0 0
vn -1 0 0
vn -1 0 0
vn 0 0 -1
vn 1 0 0
vn 0 0 -1
vn 0 -1 0
vn 0.7071067811865476 0 0.7071067811865476
vn -0.7071067811865476 0 0.7071067811865476
vn -0.7071067811865476 0 -0.7071067811865476
vn 0.7071067811865476 0 -0.7071067811865476
vn 0.7071067811865476 0 0.7071067811865476
vn -0.7071067811865476 0 -0.7071067811865476
vn 0 0 1
vn 1 0 0
vn 0 0 1
vn -1 0 0
vn 0 0 -1
vn 1 0 0
vn 0 0 -1
vn 0 0 1
vn -1 0 0
vn 0 0 -1
vn 0 0 -1
vn 1 0 0
vn 1 0 0
vn 1 0 0
vn -1 0 0
vn -1 0 0
vn 0 0 1
vn 0 0 1
vn 0 0 -1
vn -1 0 0
vn -1 0 0
vn 1 0 0
vn 1 0 0
vn 0 0 1
vn 0 0 1
vn 0 0 -1
vn 0 0 -1
vn 0 0 1
vn 1 0 0
usemtl m_61767fb8-97d6-9305-ac4a-86e30b0332d1
f 3/1/1 2/2/1 1/3/1 4/4/1
f 7/5/2 6/6/2 5/7/2 8/8/2
f 11/9/3 10/10/3 9/11/3 12/12/3
f 13/13/4 11/14/4 12/15/4 14/16/4
f 15/17/5 13/18/5 14/19/5 16/20/5
f 16/21/6 14/22/6 12/23/6 9/24/6
f 10/25/7 11/26/7 13/27/7 15/28/7
f 19/29/8 18/30/8 17/31/8 20/32/8
f 21/33/9 19/34/9 20/35/9 22/36/9
f 23/37/10 21/38/10 22/39/10 24/40/10
f 24/41/11 22/42/11 20/43/11 17/44/11
f 18/45/12 19/46/12 21/47/12 23/48/12
f 27/49/13 26/50/13 25/51/13 28/52/13
f 29/53/14 27/54/14 28/55/14 30/56/14
f 31/57/15 29/58/15 30/59/15 32/60/15
f 26/61/16 31/62/16 32/63/16 25/64/16
f 35/65/17 34/66/17 33/67/17 36/68/17
f 37/69/18 35/70/18 36/71/18 38/72/18
f 39/73/19 37/74/19 38/75/19 40/76/19
f 34/77/20 39/78/20 40/79/20 33/80/20
f 40/81/21 38/82/21 36/83/21 33/84/21
f 34/85/22 35/86/22 37/87/22 39/88/22
f 43/89/23 42/90/23 41/91/23 44/92/23
f 45/93/24 43/94/24 44/95/24 46/96/24
f 47/97/25 45/98/25 46/99/25 48/100/25
f 42/101/26 47/102/26 48/103/26 41/104/26
f 48/105/27 46/106/27 44/107/27 41/108/27
f 42/109/28 43/110/28 45/111/28 47/112/28
f 51/113/29 50/114/29 49/115/29 52/116/29
f 54/117/30 53/118/30 50/119/30 51/120/30
f 56/121/31 55/122/31 53/123/31 54/124/31
f 52/125/32 49/126/32 55/127/32 56/128/32
f 52/129/33 56/130/33 54/131/33 51/132/33
f 59/133/34 58/134/34 57/135/34 60/136/34
f 62/137/35 61/138/35 58/139/35 59/140/35
f 64/141/36 63/142/36 61/143/36 62/144/36
f 60/145/37 57/146/37 63/147/37 64/148/37
f 60/149/38 64/150/38 62/151/38 59/152/38
f 67/153/39 66/154/39 65/155/39 68/156/39
f 70/157/40 69/158/40 66/159/40 67/160/40
f 72/161/41 71/162/41 69/163/41 70/164/41
f 68/165/42 65/166/42 71/167/42 72/168/42
f 68/169/43 72/170/43 70/171/43 67/172/43
f 75/173/44 74/174/44 73/175/44 76/176/44
f 78/177/45 77/178/45 74/179/45 75/180/45
f 80/181/46 79/182/46 77/183/46 78/184/46
f 76/185/47 73/186/47 79/187/47 80/188/47
f 76/189/48 80/190/48 78/191/48 75/192/48
f 83/193/49 82/194/49 81/195/49 84/196/49
f 86/197/50 85/198/50 82/199/50 83/200/50
f 88/201/51 87/202/51 85/203/51 86/204/51
f 84/205/52 81/206/52 87/207/52 88/208/52
f 91/209/53 90/210/53 89/211/53 92/212/53
f 95/213/54 94/214/54 93/215/54 96/216/54
f 96/217/55 93/218/55 97/219/55 98/220/55
f 92/221/56 89/222/56 99/223/56 100/224/56
f 100/225/57 99/226/57 101/227/57 102/228/57
f 105/229/58 104/230/58 103/231/58 106/232/58
f 109/233/59 108/234/59 107/235/59 110/236/59
f 102/237/60 101/238/60 90/239/60 91/240/60
f 105/241/61 108/242/61 109/243/61 104/244/61
f 104/245/62 109/246/62 110/247/62 103/248/62
f 113/249/63 112/250/63 111/251/63 114/252/63
f 114/253/64 111/254/64 115/255/64 116/256/64
f 103/257/65 110/258/65 107/259/65 106/260/65
f 106/261/66 107/262/66 108/263/66 105/264/66
f 116/265/67 115/266/67 117/267/67 118/268/67
f 118/269/68 117/270/68 112/271/68 113/272/68
f 98/273/69 97/274/69 119/275/69 120/276/69
f 123/277/70 122/278/70 121/279/70 124/280/70
f 124/281/71 121/282/71 125/283/71 126/284/71
f 120/285/72 119/286/72 94/287/72 95/288/72
f 126/289/73 125/290/73 127/291/73 128/292/73
f 128/293/74 127/294/74 122/295/74 123/296/74
f 131/297/75 130/298/75 129/299/75 132/300/75
f 132/301/76 129/302/76 133/303/76 134/304/76
f 137/305/77 136/306/77 135/307/77 138/308/77
f 141/309/78 140/310/78 139/311/78 142/312/78
f 145/313/79 144/314/79 143/315/79 146/316/79
f 134/317/80 133/318/80 147/319/80 148/320/80
f 148/321/81 147/322/81 130/323/81 131/324/81
f 142/325/82 139/326/82 149/327/82 150/328/82
f 146/329/83 143/330/83 151/331/83 152/332/83
f 155/333/84 154/334/84 153/335/84 156/336/84
f 152/337/85 151/338/85 157/339/85 158/340/85
f 150/341/86 149/342/86 159/343/86 160/344/86
f 156/345/87 153/346/87 161/347/87 162/348/87
f 162/349/88 161/350/88 163/351/88 164/352/88
f 138/353/89 166/354/89 165/355/89 137/356/89
f 167/357/90 135/358/90 136/359/90 168/360/90
f 138/361/91 135/362/91 167/363/91 166/364/91
f 164/365/92 163/366/92 154/367/92 155/368/92
f 158/369/93 157/370/93 144/371/93 145/372/93
f 166/373/94 167/374/94 168/375/94 165/376/94
f 165/377/95 168/378/95 136/379/95 137/380/95
f 160/381/96 159/382/96 140/383/96 141/384/96
f 171/385/97 170/386/97 169/387/97 172/388/97
f 174/389/98 173/390/98 170/391/98 171/392/98
f 176/393/99 175/394/99 173/395/99 174/396/99
f 172/397/100 169/398/100 175/399/100 176/400/100
f 179/401/101 178/402/101 177/403/101 180/404/101
f 182/405/102 181/406/102 178/407/102 179/408/102
f 184/409/103 183/410/103 181/411/103 182/412/103
f 180/413/104 177/414/104 183/415/104 184/416/104
f 183/417/105 177/418/105 178/419/105 181/420/105
f 180/421/106 184/422/106 182/423/106 179/424/106
f 82/425/107 186/426/107 185/427/107 81/428/107
f 85/429/108 187/430/108 186/431/108 82/432/108
f 87/433/109 188/434/109 187/435/109 85/436/109
f 81/437/110 185/438/110 188/439/110 87/440/110
f 191/441/111 190/442/111 189/443/111 192/444/111
f 194/445/112 193/446/112 190/447/112 191/448/112
f 196/449/113 195/450/113 193/451/113 194/452/113
f 192/453/114 189/454/114 195/455/114 196/456/114
f 190/457/115 198/458/115 197/459/115 189/460/115
f 193/461/116 199/462/116 198/463/116 190/464/116
f 195/465/117 200/466/117 199/467/117 193/468/117
f 189/469/118 197/470/118 200/471/118 195/472/118
f 203/473/119 202/474/119 201/475/119 204/476/119
f 206/477/120 205/478/120 202/479/120 203/480/120
f 208/481/121 207/482/121 205/483/121 206/484/121
f 204/485/122 201/486/122 207/487/122 208/488/122
f 202/489/123 210/490/123 209/491/123 201/492/123
f 205/493/124 211/494/124 210/495/124 202/496/124
f 207/497/125 212/498/125 211/499/125 205/500/125
f 201/501/126 209/502/126 212/503/126 207/504/126
f 215/505/127 214/506/127 213/507/127 216/508/127
f 218/509/128 217/510/128 214/511/128 215/512/128
f 220/513/129 219/514/129 217/515/129 218/516/129
f 216/517/130 213/518/130 219/519/130 220/520/130
f 214/521/131 222/522/131 221/523/131 213/524/131
f 217/525/132 223/526/132 222/527/132 214/528/132
f 219/529/133 224/530/133 223/531/133 217/532/133
f 213/533/134 221/534/134 224/535/134 219/536/134
f 227/537/135 226/538/135 225/539/135 228/540/135
f 230/541/136 229/542/136 226/543/136 227/544/136
f 232/545/137 231/546/137 229/547/137 230/548/137
f 228/549/138 225/550/138 231/551/138 232/552/138
f 235/553/139 234/554/139 233/555/139 236/556/139
f 238/557/140 237/558/140 234/559/140 235/560/140
f 240/561/141 239/562/141 237/563/141 238/564/141
f 236/565/142 233/566/142 239/567/142 240/568/142
f 243/569/143 242/570/143 241/571/143 244/572/143
f 246/573/144 245/574/144 242/575/144 243/576/144
f 248/577/145 247/578/145 245/579/145 246/580/145
f 244/581/146 241/582/146 247/583/146 248/584/146
f 251/585/147 250/586/147 249/587/147 252/588/147
f 254/589/148 253/590/148 250/591/148 251/592/148
f 256/593/149 255/594/149 253/595/149 254/596/149
f 252/597/150 249/598/150 255/599/150 256/600/150
f 259/601/151 258/602/151 257/603/151 260/604/151
f 262/605/152 261/606/152 258/607/152 259/608/152
f 264/609/153 263/610/153 261/611/153 262/612/153
f 260/613/154 257/614/154 263/615/154 264/616/154
f 263/617/155 257/618/155 258/619/155 261/620/155
f 260/621/156 264/622/156 262/623/156 259/624/156
f 267/625/157 266/626/157 265/627/157 268/628/157
f 270/629/158 269/630/158 266/631/158 267/632/158
f 272/633/159 271/634/159 269/635/159 270/636/159
f 268/637/160 265/638/160 271/639/160 272/640/160
f 275/641/161 274/642/161 273/643/161 276/644/161
f 278/645/162 277/646/162 274/647/162 275/648/162
f 280/649/163 279/650/163 277/651/163 278/652/163
f 276/653/164 273/654/164 279/655/164 280/656/164
f 283/657/165 282/658/165 281/659/165 284/660/165
f 286/661/166 285/662/166 282/663/166 283/664/166
f 288/665/167 287/666/167 285/667/167 286/668/167
f 284/669/168 281/670/168 287/671/168 288/672/168
f 291/673/169 290/674/169 289/675/169 292/676/169
f 294/677/170 293/678/170 290/679/170 291/680/170
f 296/681/171 295/682/171 293/683/171 294/684/171
f 292/685/172 289/686/172 295/687/172 296/688/172
f 292/689/173 296/690/173 294/691/173 291/692/173
f 299/693/174 298/694/174 297/695/174 300/696/174
f 302/697/175 301/698/175 298/699/175 299/700/175
f 304/701/176 303/702/176 301/703/176 302/704/176
f 300/705/177 297/706/177 303/707/177 304/708/177
f 300/709/178 304/710/178 302/711/178 299/712/178
f 307/713/179 306/714/179 305/715/179 308/716/179
f 310/717/180 309/718/180 306/719/180 307/720/180
f 312/721/181 311/722/181 309/723/181 310/724/181
f 308/725/182 305/726/182 311/727/182 312/728/182
f 308/729/183 312/730/183 310/731/183 307/732/183
f 747/733/184 746/734/184 313/735/184 314/736/184
f 316/737/185 315/738/185 745/739/185 748/740/185
f 314/741/186 313/742/186 315/743/186 316/744/186
f 315/745/187 313/746/187 746/747/187 745/748/187
f 314/749/188 316/750/188 748/751/188 747/752/188
f 319/753/189 318/754/189 317/755/189 320/756/189
f 322/757/190 321/758/190 323/759/190
f 326/760/191 325/761/191 324/762/191 327/763/191
f 329/764/192 321/765/192 328/766/192 330/767/192
f 333/768/193 332/769/193 331/770/193 334/771/193
f 336/772/194 335/773/194 337/774/194
f 340/775/195 339/776/195 338/777/195 341/778/195
f 343/779/196 335/780/196 342/781/196 344/782/196
f 345/783/197 324/784/197 325/785/197 346/786/197
f 349/787/198 348/788/198 347/789/198 350/790/198
f 353/791/199 352/792/199 351/793/199 354/794/199
f 356/795/200 355/796/200 352/797/200 353/798/200
f 358/799/201 357/800/201 355/801/201 356/802/201
f 354/803/202 351/804/202 357/805/202 358/806/202
f 354/807/203 358/808/203 356/809/203 353/810/203
f 361/811/204 360/812/204 359/813/204 362/814/204
f 364/815/205 363/816/205 360/817/205 361/818/205
f 366/819/206 365/820/206 363/821/206 364/822/206
f 362/823/207 359/824/207 365/825/207 366/826/207
f 369/827/208 368/828/208 367/829/208 370/830/208
f 373/831/209 372/832/209 371/833/209 374/834/209
f 374/835/210 371/836/210 375/837/210 376/838/210
f 370/839/211 367/840/211 377/841/211 378/842/211
f 381/843/212 380/844/212 379/845/212 382/846/212
f 385/847/213 384/848/213 383/849/213 386/850/213
f 388/851/214 387/852/214 368/853/214 369/854/214
f 381/855/215 384/856/215 385/857/215 380/858/215
f 380/859/216 385/860/216 386/861/216 379/862/216
f 391/863/217 390/864/217 389/865/217 392/866/217
f 392/867/218 389/868/218 393/869/218 394/870/218
f 379/871/219 386/872/219 383/873/219 382/874/219
f 382/875/220 383/876/220 384/877/220 381/878/220
f 396/879/221 395/880/221 390/881/221 391/882/221
f 376/883/222 375/884/222 397/885/222 398/886/222
f 401/887/223 400/888/223 399/889/223 402/890/223
f 402/891/224 399/892/224 403/893/224 404/894/224
f 398/895/225 397/896/225 372/897/225 373/898/225
f 404/899/226 403/900/226 405/901/226 406/902/226
f 406/903/227 405/904/227 400/905/227 401/906/227
f 409/907/228 408/908/228 407/909/228 410/910/228
f 413/911/229 412/912/229 411/913/229 414/914/229
f 417/915/230 416/916/230 415/917/230 418/918/230
f 421/919/231 420/920/231 419/921/231 422/922/231
f 410/923/232 407/924/232 423/925/232 424/926/232
f 424/927/233 423/928/233 425/929/233 426/930/233
f 418/931/234 415/932/234 427/933/234 428/934/234
f 422/935/235 419/936/235 429/937/235 430/938/235
f 430/939/236 429/940/236 431/941/236 432/942/236
f 428/943/237 427/944/237 433/945/237 434/946/237
f 437/947/238 436/948/238 435/949/238 438/950/238
f 438/951/239 435/952/239 439/953/239 440/954/239
f 414/955/240 442/956/240 441/957/240 413/958/240
f 443/959/241 411/960/241 412/961/241 444/962/241
f 414/963/242 411/964/242 443/965/242 442/966/242
f 440/967/243 439/968/243 445/969/243 446/970/243
f 432/971/244 431/972/244 420/973/244 421/974/244
f 442/975/245 443/976/245 444/977/245 441/978/245
f 441/979/246 444/980/246 412/981/246 413/982/246
f 434/983/247 433/984/247 416/985/247 417/986/247
f 449/987/248 448/988/248 447/989/248 450/990/248
f 452/991/249 451/992/249 448/993/249 449/994/249
f 454/995/250 453/996/250 451/997/250 452/998/250
f 450/999/251 447/1000/251 453/1001/251 454/1002/251
f 457/1003/252 456/1004/252 455/1005/252 458/1006/252
f 460/1007/253 459/1008/253 456/1009/253 457/1010/253
f 462/1011/254 461/1012/254 459/1013/254 460/1014/254
f 458/1015/255 455/1016/255 461/1017/255 462/1018/255
f 461/1019/256 455/1020/256 456/1021/256 459/1022/256
f 458/1023/257 462/1024/257 460/1025/257 457/1026/257
f 360/1027/258 83/1028/258 84/1029/258 359/1030/258
f 363/1031/259 86/1032/259 83/1033/259 360/1034/259
f 365/1035/260 88/1036/260 86/1037/260 363/1038/260
f 359/1039/261 84/1040/261 88/1041/261 365/1042/261
f 465/1043/262 464/1044/262 463/1045/262 466/1046/262
f 468/1047/263 467/1048/263 464/1049/263 465/1050/263
f 470/1051/264 469/1052/264 467/1053/264 468/1054/264
f 466/1055/265 463/1056/265 469/1057/265 470/1058/265
f 464/1059/266 191/1060/266 192/1061/266 463/1062/266
f 467/1063/267 194/1064/267 191/1065/267 464/1066/267
f 469/1067/268 196/1068/268 194/1069/268 467/1070/268
f 463/1071/269 192/1072/269 196/1073/269 469/1074/269
f 473/1075/270 472/1076/270 471/1077/270 474/1078/270
f 476/1079/271 475/1080/271 472/1081/271 473/1082/271
f 478/1083/272 477/1084/272 475/1085/272 476/1086/272
f 474/1087/273 471/1088/273 477/1089/273 478/1090/273
f 472/1091/274 203/1092/274 204/1093/274 471/1094/274
f 475/1095/275 206/1096/275 203/1097/275 472/1098/275
f 477/1099/276 208/1100/276 206/1101/276 475/1102/276
f 471/1103/277 204/1104/277 208/1105/277 477/1106/277
f 481/1107/278 480/1108/278 479/1109/278 482/1110/278
f 484/1111/279 483/1112/279 480/1113/279 481/1114/279
f 486/1115/280 485/1116/280 483/1117/280 484/1118/280
f 482/1119/281 479/1120/281 485/1121/281 486/1122/281
f 480/1123/282 215/1124/282 216/1125/282 479/1126/282
f 483/1127/283 218/1128/283 215/1129/283 480/1130/283
f 485/1131/284 220/1132/284 218/1133/284 483/1134/284
f 479/1135/285 216/1136/285 220/1137/285 485/1138/285
f 489/1139/286 488/1140/286 487/1141/286 490/1142/286
f 492/1143/287 491/1144/287 488/1145/287 489/1146/287
f 494/1147/288 493/1148/288 491/1149/288 492/1150/288
f 490/1151/289 487/1152/289 493/1153/289 494/1154/289
f 497/1155/290 496/1156/290 495/1157/290 498/1158/290
f 500/1159/291 499/1160/291 496/1161/291 497/1162/291
f 502/1163/292 501/1164/292 499/1165/292 500/1166/292
f 505/1167/293 504/1168/293 503/1169/293 506/1170/293
f 508/1171/294 507/1172/294 504/1173/294 505/1174/294
f 510/1175/295 509/1176/295 507/1177/295 508/1178/295
f 513/1179/296 512/1180/296 511/1181/296 514/1182/296
f 516/1183/297 515/1184/297 512/1185/297 513/1186/297
f 518/1187/298 517/1188/298 515/1189/298 516/1190/298
f 514/1191/299 511/1192/299 517/1193/299 518/1194/299
f 521/1195/300 520/1196/300 519/1197/300 522/1198/300
f 524/1199/301 523/1200/301 520/1201/301 521/1202/301
f 526/1203/302 525/1204/302 523/1205/302 524/1206/302
f 522/1207/303 519/1208/303 525/1209/303 526/1210/303
f 525/1211/304 519/1212/304 520/1213/304 523/1214/304
f 522/1215/305 526/1216/305 524/1217/305 521/1218/305
f 529/1219/306 528/1220/306 527/1221/306 530/1222/306
f 532/1223/307 531/1224/307 528/1225/307 529/1226/307
f 534/1227/308 533/1228/308 531/1229/308 532/1230/308
f 530/1231/309 527/1232/309 533/1233/309 534/1234/309
f 537/1235/310 536/1236/310 535/1237/310 538/1238/310
f 541/1239/311 540/1240/311 539/1241/311 542/1242/311
f 538/1243/312 535/1244/312 540/1245/312 541/1246/312
f 545/1247/313 544/1248/313 543/1249/313 546/1250/313
f 549/1251/314 548/1252/314 547/1253/314 550/1254/314
f 546/1255/315 543/1256/315 548/1257/315 549/1258/315
f 553/1259/316 552/1260/316 551/1261/316 554/1262/316
f 557/1263/317 556/1264/317 555/1265/317 558/1266/317
f 323/1267/318 560/1268/318 559/1269/318 561/1270/318
f 562/1271/319 323/1272/319 561/1273/319 563/1274/319
f 323/1275/320 321/1276/320 329/1277/320 560/1278/320
f 322/1279/321 323/1280/321 562/1281/321 349/1282/321
f 554/1283/322 551/1284/322 556/1285/322 557/1286/322
f 566/1287/323 565/1288/323 564/1289/323 567/1290/323
f 568/1291/324 566/1292/324 567/1293/324 569/1294/324
f 566/1295/325 327/1296/325 324/1297/325 565/1298/325
f 328/1299/326 566/1300/326 568/1301/326 330/1302/326
f 572/1303/327 571/1304/327 570/1305/327 573/1306/327
f 574/1307/328 572/1308/328 573/1309/328 575/1310/328
f 572/1311/329 318/1312/329 319/1313/329 571/1314/329
f 326/1315/330 572/1316/330 574/1317/330 325/1318/330
f 578/1319/331 577/1320/331 576/1321/331 579/1322/331
f 580/1323/332 578/1324/332 579/1325/332 581/1326/332
f 578/1327/333 582/1328/333 350/1329/333 577/1330/333
f 317/1331/334 578/1332/334 580/1333/334 320/1334/334
f 558/1335/335 553/1336/335 554/1337/335 557/1338/335
f 558/1339/336 555/1340/336 552/1341/336 553/1342/336
f 585/1343/337 584/1344/337 583/1345/337 586/1346/337
f 589/1347/338 588/1348/338 587/1349/338 590/1350/338
f 591/1351/339 589/1352/339 590/1353/339 592/1354/339
f 598/1355/340 597/1356/340 596/1357/340 599/1358/340
f 601/1359/341 595/1360/341 600/1361/341 602/1362/341
f 605/1363/342 604/1364/342 603/1365/342 606/1366/342
f 606/1367/343 598/1368/343 599/1369/343 605/1370/343
f 584/1371/344 608/1372/344 607/1373/344 583/1374/344
f 594/1375/345 610/1376/345 609/1377/345 593/1378/345
f 322/1379/346 349/1380/346 350/1381/346 582/1382/346
f 610/1383/347 601/1384/347 602/1385/347 609/1386/347
f 611/1387/348 591/1388/348 592/1389/348 612/1390/348
f 588/1391/349 611/1392/349 612/1393/349 587/1394/349
f 615/1395/350 614/1396/350 613/1397/350 616/1398/350
f 617/1399/351 585/1400/351 586/1401/351 618/1402/351
f 621/1403/352 620/1404/352 619/1405/352 622/1406/352
f 622/1407/353 613/1408/353 614/1409/353 621/1410/353
f 617/1411/354 618/1412/354 607/1413/354 608/1414/354
f 620/1415/355 615/1416/355 616/1417/355 619/1418/355
f 597/1419/356 603/1420/356 604/1421/356 596/1422/356
f 551/1423/357 552/1424/357 555/1425/357 556/1426/357
f 625/1427/358 624/1428/358 623/1429/358 626/1430/358
f 629/1431/359 628/1432/359 627/1433/359 630/1434/359
f 337/1435/360 632/1436/360 631/1437/360 633/1438/360
f 634/1439/361 337/1440/361 633/1441/361 635/1442/361
f 337/1443/362 335/1444/362 343/1445/362 632/1446/362
f 336/1447/363 337/1448/363 634/1449/363 636/1450/363
f 626/1451/364 623/1452/364 628/1453/364 629/1454/364
f 639/1455/365 638/1456/365 637/1457/365 640/1458/365
f 641/1459/366 639/1460/366 640/1461/366 642/1462/366
f 639/1463/367 341/1464/367 338/1465/367 638/1466/367
f 342/1467/368 639/1468/368 641/1469/368 344/1470/368
f 645/1471/369 644/1472/369 643/1473/369 646/1474/369
f 647/1475/370 645/1476/370 646/1477/370 648/1478/370
f 645/1479/371 332/1480/371 333/1481/371 644/1482/371
f 340/1483/372 645/1484/372 647/1485/372 339/1486/372
f 651/1487/373 650/1488/373 649/1489/373 652/1490/373
f 653/1491/374 651/1492/374 652/1493/374 654/1494/374
f 651/1495/375 656/1496/375 655/1497/375 650/1498/375
f 331/1499/376 651/1500/376 653/1501/376 334/1502/376
f 630/1503/377 625/1504/377 626/1505/377 629/1506/377
f 630/1507/378 627/1508/378 624/1509/378 625/1510/378
f 659/1511/379 658/1512/379 657/1513/379 660/1514/379
f 663/1515/380 662/1516/380 661/1517/380 664/1518/380
f 665/1519/381 663/1520/381 664/1521/381 666/1522/381
f 669/1523/382 668/1524/382 667/1525/382 670/1526/382
f 673/1527/383 672/1528/383 671/1529/383 674/1530/383
f 675/1531/384 669/1532/384 670/1533/384 676/1534/384
f 679/1535/385 678/1536/385 677/1537/385 680/1538/385
f 680/1539/386 673/1540/386 674/1541/386 679/1542/386
f 658/1543/387 682/1544/387 681/1545/387 657/1546/387
f 668/1547/388 684/1548/388 683/1549/388 667/1550/388
f 685/1551/389 655/1552/389 636/1553/389 686/1554/389
f 684/1555/390 675/1556/390 676/1557/390 683/1558/390
f 687/1559/391 665/1560/391 666/1561/391 688/1562/391
f 662/1563/392 687/1564/392 688/1565/392 661/1566/392
f 691/1567/393 690/1568/393 689/1569/393 692/1570/393
f 693/1571/394 659/1572/394 660/1573/394 694/1574/394
f 697/1575/395 696/1576/395 695/1577/395 698/1578/395
f 690/1579/396 697/1580/396 698/1581/396 689/1582/396
f 693/1583/397 694/1584/397 681/1585/397 682/1586/397
f 696/1587/398 691/1588/398 692/1589/398 695/1590/398
f 672/1591/399 677/1592/399 678/1593/399 671/1594/399
f 623/1595/400 624/1596/400 627/1597/400 628/1598/400
f 655/1599/401 320/1600/401 580/1601/401 650/1602/401
f 650/1603/402 580/1604/402 581/1605/402 649/1606/402
f 653/1607/403 577/1608/403 350/1609/403 334/1610/403
f 654/1611/404 576/1612/404 577/1613/404 653/1614/404
f 641/1615/405 565/1616/405 324/1617/405 344/1618/405
f 642/1619/406 564/1620/406 565/1621/406 641/1622/406
f 638/1623/407 568/1624/407 569/1625/407 637/1626/407
f 338/1627/408 330/1628/408 568/1629/408 638/1630/408
f 632/1631/409 574/1632/409 575/1633/409 631/1634/409
f 343/1635/410 325/1636/410 574/1637/410 632/1638/410
f 636/1639/411 634/1640/411 571/1641/411 319/1642/411
f 635/1643/412 570/1644/412 571/1645/412 634/1646/412
f 604/1647/413 605/1648/413 678/1649/413 679/1650/413
f 644/1651/414 562/1652/414 563/1653/414 643/1654/414
f 333/1655/415 349/1656/415 562/1657/415 644/1658/415
f 648/1659/416 559/1660/416 560/1661/416 647/1662/416
f 647/1663/417 560/1664/417 329/1665/417 339/1666/417
f 559/1667/418 604/1668/418 329/1669/418 560/1670/418
f 336/1671/419 636/1672/419 655/1673/419 656/1674/419
f 343/1675/420 344/1676/420 345/1677/420 346/1678/420
f 339/1679/421 700/1680/421 699/1681/421 338/1682/421
f 333/1683/422 334/1684/422 347/1685/422 348/1686/422
f 319/1687/423 320/1688/423 685/1689/423 686/1690/423
f 329/1691/424 330/1692/424 699/1693/424 700/1694/424
f 664/1695/425 661/1696/425 613/1697/425 622/1698/425
f 667/1699/426 683/1700/426 701/1701/426 702/1702/426
f 683/1703/427 676/1704/427 703/1705/427 701/1706/427
f 657/1707/428 681/1708/428 704/1709/428 705/1710/428
f 689/1711/429 698/1712/429 590/1713/429 587/1714/429
f 666/1715/430 664/1716/430 622/1717/430 619/1718/430
f 670/1719/431 667/1720/431 702/1721/431 706/1722/431
f 671/1723/432 678/1724/432 605/1725/432 599/1726/432
f 676/1727/433 670/1728/433 706/1729/433 703/1730/433
f 681/1731/434 694/1732/434 707/1733/434 704/1734/434
f 688/1735/435 666/1736/435 619/1737/435 616/1738/435
f 698/1739/436 695/1740/436 592/1741/436 590/1742/436
f 694/1743/437 660/1744/437 708/1745/437 707/1746/437
f 674/1747/438 671/1748/438 599/1749/438 596/1750/438
f 661/1751/439 688/1752/439 616/1753/439 613/1754/439
f 692/1755/440 689/1756/440 587/1757/440 612/1758/440
f 660/1759/441 657/1760/441 705/1761/441 708/1762/441
f 695/1763/442 692/1764/442 612/1765/442 592/1766/442
f 679/1767/443 674/1768/443 596/1769/443 604/1770/443
f 711/1771/444 710/1772/444 709/1773/444 712/1774/444
f 715/1775/445 714/1776/445 713/1777/445 716/1778/445
f 719/1779/446 718/1780/446 717/1781/446 720/1782/446
f 723/1783/447 722/1784/447 721/1785/447 724/1786/447
f 727/1787/448 726/1788/448 725/1789/448 728/1790/448
f 731/1791/449 730/1792/449 729/1793/449 732/1794/449
f 735/1795/450 734/1796/450 733/1797/450 736/1798/450
f 739/1799/451 738/1800/451 737/1801/451 740/1802/451
f 743/1803/452 742/1804/452 741/1805/452 744/1806/452
f 745/1807/453 746/1808/453 747/1809/453 748/1810/453