# Made in Blockbench 5.0.4
mtllib solar_melter.mtl

o cube
v 1.75 1.5 1
v 1.75 2 1
v 1.75 2 2
v 1.75 1.5 2
v 1.25 1.5 2
v 1.25 2 2
v 1.25 2 1
v 1.25 1.5 1
v 2.4375 2.4375 1.5
v 2.4375 2.8125 1.5
v 2.5 2.8125 1.5
v 2.5 2.4375 1.5
v 2.5 2.8125 1.875
v 2.5 2.4375 1.875
v 2.4375 2.8125 1.875
v 2.4375 2.4375 1.875
v 2.4375 2.375 1.125
v 2.4375 2.875 1.125
v 2.5 2.875 1.125
v 2.5 2.375 1.125
v 2.5 2.875 1.375
v 2.5 2.375 1.375
v 2.4375 2.875 1.375
v 2.4375 2.375 1.375
v 0.5625 2.25 0.5625
v 0.5625 3 0.5625
v 2.4375 3 0.5625
v 2.4375 2.25 0.5625
v 2.4375 3 2.4375
v 2.4375 2.25 2.4375
v 0.5625 3 2.4375
v 0.5625 2.25 2.4375
v 0.5 2 0.5
v 0.5 2.25 0.5
v 2.5 2.25 0.5
v 2.5 2 0.5
v 2.5 2.25 2.5
v 2.5 2 2.5
v 0.5 2.25 2.5
v 0.5 2 2.5
v 0.5 3 0.5
v 0.5 3.25 0.5
v 2.5 3.25 0.5
v 2.5 3 0.5
v 2.5 3.25 2.5
v 2.5 3 2.5
v 0.5 3.25 2.5
v 0.5 3 2.5
v 0.75 1 2.25
v 0.25 1 2.25
v 0.25 2 2.25
v 0.75 2 2.25
v 0.25 1 2.75
v 0.25 2 2.75
v 0.75 1 2.75
v 0.75 2 2.75
v 0.75 1 0.25
v 0.25 1 0.25
v 0.25 2 0.25
v 0.75 2 0.25
v 0.25 1 0.75
v 0.25 2 0.75
v 0.75 1 0.75
v 0.75 2 0.75
v 2.75 1 2.25
v 2.25 1 2.25
v 2.25 2 2.25
v 2.75 2 2.25
v 2.25 1 2.75
v 2.25 2 2.75
v 2.75 1 2.75
v 2.75 2 2.75
v 2.75 1 0.25
v 2.25 1 0.25
v 2.25 2 0.25
v 2.75 2 0.25
v 2.25 1 0.75
v 2.25 2 0.75
v 2.75 1 0.75
v 2.75 2 0.75
v 0.6875 6 2.3125
v 0.3125 6 2.3125
v 0.3125 10 2.3125
v 0.6875 10 2.3125
v 0.3125 6 2.6875
v 0.3125 10 2.6875
v 0.6875 6 2.6875
v 0.6875 10 2.6875
v 0.375 2.28125 0.44140625
v 0.375 2.22265625 0.68359375
v 0.375 5.71875 1.55859375
v 0.375 5.77734375 1.31640625
v 0.625 9.77734375 2.31640625
v 0.625 9.71875 2.55859375
v 0.625 6.22265625 1.68359375
v 0.625 6.28125 1.44140625
v 0.375 9.77734375 2.31640625
v 0.375 6.28125 1.44140625
v 0.625 2.28125 0.44140625
v 0.625 5.77734375 1.31640625
v 0.625 2.22265625 0.68359375
v 0.625 5.71875 1.55859375
v 0.6875 6.5 1.25
v 0.3125 6.5 1.25
v 0.3125 6.5 1.75
v 0.6875 6.5 1.75
v 0.6875 5.5 1.75
v 0.3125 5.5 1.75
v 0.3125 5.5 1.25
v 0.6875 5.5 1.25
v 0.375 2.22265625 2.31640625
v 0.375 2.28125 2.55859375
v 0.375 5.77734375 1.68359375
v 0.375 5.71875 1.44140625
v 0.625 2.22265625 2.31640625
v 0.625 5.71875 1.44140625
v 0.625 2.28125 2.55859375
v 0.625 5.77734375 1.68359375
v 0.375 9.71875 2.55859375
v 0.375 6.22265625 1.68359375
v 0.375 9.77734375 0.68359375
v 0.375 9.71875 0.44140625
v 0.375 6.22265625 1.31640625
v 0.375 6.28125 1.55859375
v 0.625 9.77734375 0.68359375
v 0.625 6.28125 1.55859375
v 0.625 9.71875 0.44140625
v 0.625 6.22265625 1.31640625
v 2.375 2.28125 0.44140625
v 2.375 2.22265625 0.68359375
v 2.375 5.71875 1.55859375
v 2.375 5.77734375 1.31640625
v 2.625 2.28125 0.44140625
v 2.625 5.77734375 1.31640625
v 2.3125 5.5 1.75
v 2.6875 5.5 1.75
v 2.6875 6.5 1.75
v 2.3125 6.5 1.75
v 2.625 9.71875 2.55859375
v 2.375 9.71875 2.55859375
v 2.375 6.22265625 1.68359375
v 2.625 6.22265625 1.68359375
v 2.375 9.77734375 0.68359375
v 2.375 9.71875 0.44140625
v 2.375 6.22265625 1.31640625
v 2.375 6.28125 1.55859375
v 2.625 2.22265625 0.68359375
v 2.625 5.71875 1.55859375
v 2.625 9.77734375 2.31640625
v 2.625 6.28125 1.44140625
v 2.625 9.77734375 0.68359375
v 2.625 6.28125 1.55859375
v 2.375 2.22265625 2.31640625
v 2.375 2.28125 2.55859375
v 2.375 5.77734375 1.68359375
v 2.375 5.71875 1.44140625
v 2.625 9.71875 0.44140625
v 2.625 6.22265625 1.31640625
v 2.375 9.77734375 2.31640625
v 2.375 6.28125 1.44140625
v 2.625 2.22265625 2.31640625
v 2.625 5.71875 1.44140625
v 2.625 2.28125 2.55859375
v 2.625 5.77734375 1.68359375
v 2.6875 6.5 1.25
v 2.3125 6.5 1.25
v 2.3125 5.5 1.25
v 2.6875 5.5 1.25
v 0.44140625 9.71875 0.625
v 0.44140625 9.71875 0.375
v 1.31640625 6.22265625 0.375
v 1.31640625 6.22265625 0.625
v 0.68359375 9.77734375 0.375
v 1.55859375 6.28125 0.375
v 0.68359375 9.77734375 0.625
v 1.55859375 6.28125 0.625
v 1.75 5.5 0.6875
v 1.75 5.5 0.3125
v 1.75 6.5 0.3125
v 1.75 6.5 0.6875
v 1.25 5.5 0.3125
v 1.25 6.5 0.3125
v 1.25 5.5 0.6875
v 1.25 6.5 0.6875
v 0.6875 2 2.3125
v 0.3125 2 2.3125
v 0.3125 2 2.6875
v 0.6875 2 2.6875
v 2.6875 6 2.3125
v 2.3125 6 2.3125
v 2.3125 10 2.3125
v 2.6875 10 2.3125
v 2.3125 6 2.6875
v 2.3125 10 2.6875
v 2.6875 6 2.6875
v 2.6875 10 2.6875
v 2.6875 2 2.3125
v 2.3125 2 2.3125
v 2.3125 2 2.6875
v 2.6875 2 2.6875
v 0.6875 6 0.3125
v 0.3125 6 0.3125
v 0.3125 10 0.3125
v 0.6875 10 0.3125
v 0.3125 6 0.6875
v 0.3125 10 0.6875
v 0.6875 6 0.6875
v 0.6875 10 0.6875
v 0.6875 2 0.3125
v 0.3125 2 0.3125
v 0.3125 2 0.6875
v 0.6875 2 0.6875
v 2.6875 6 0.3125
v 2.3125 6 0.3125
v 2.3125 10 0.3125
v 2.6875 10 0.3125
v 2.3125 6 0.6875
v 2.3125 10 0.6875
v 2.6875 6 0.6875
v 2.6875 10 0.6875
v 2.6875 2 0.3125
v 2.3125 2 0.3125
v 2.3125 2 0.6875
v 2.6875 2 0.6875
v 2.31640625 9.77734375 0.625
v 2.31640625 9.77734375 0.375
v 1.44140625 6.28125 0.375
v 1.44140625 6.28125 0.625
v 2.55859375 9.71875 0.375
v 1.68359375 6.22265625 0.375
v 2.55859375 9.71875 0.625
v 1.68359375 6.22265625 0.625
v 2.55859375 2.28125 0.625
v 2.55859375 2.28125 0.375
v 1.68359375 5.77734375 0.375
v 1.68359375 5.77734375 0.625
v 2.31640625 2.22265625 0.375
v 1.44140625 5.71875 0.375
v 2.31640625 2.22265625 0.625
v 1.44140625 5.71875 0.625
v 0.68359375 2.22265625 0.625
v 0.68359375 2.22265625 0.375
v 1.55859375 5.71875 0.375
v 1.55859375 5.71875 0.625
v 0.44140625 2.28125 0.375
v 1.31640625 5.77734375 0.375
v 0.44140625 2.28125 0.625
v 1.31640625 5.77734375 0.625
v 0.44140625 9.71875 2.625
v 0.44140625 9.71875 2.375
v 1.31640625 6.22265625 2.375
v 1.31640625 6.22265625 2.625
v 0.68359375 9.77734375 2.375
v 1.55859375 6.28125 2.375
v 0.68359375 9.77734375 2.625
v 1.55859375 6.28125 2.625
v 1.75 5.5 2.6875
v 1.75 5.5 2.3125
v 1.75 6.5 2.3125
v 1.75 6.5 2.6875
v 1.25 5.5 2.3125
v 1.25 6.5 2.3125
v 1.25 5.5 2.6875
v 1.25 6.5 2.6875
v 2.31640625 9.77734375 2.625
v 2.31640625 9.77734375 2.375
v 1.44140625 6.28125 2.375
v 1.44140625 6.28125 2.625
v 2.55859375 9.71875 2.375
v 1.68359375 6.22265625 2.375
v 2.55859375 9.71875 2.625
v 1.68359375 6.22265625 2.625
v 2.55859375 2.28125 2.625
v 2.55859375 2.28125 2.375
v 1.68359375 5.77734375 2.375
v 1.68359375 5.77734375 2.625
v 2.31640625 2.22265625 2.375
v 1.44140625 5.71875 2.375
v 2.31640625 2.22265625 2.625
v 1.44140625 5.71875 2.625
v 0.68359375 2.22265625 2.625
v 0.68359375 2.22265625 2.375
v 1.55859375 5.71875 2.375
v 1.55859375 5.71875 2.625
v 0.44140625 2.28125 2.375
v 1.31640625 5.77734375 2.375
v 0.44140625 2.28125 2.625
v 1.31640625 5.77734375 2.625
v 2.5 1 0.5
v 0.5 1 0.5
v 0.5 1.5 0.5
v 2.5 1.5 0.5
v 0.5 1 2.5
v 0.5 1.5 2.5
v 2.5 1 2.5
v 2.5 1.5 2.5
v 2 1 0
v 1 1 0
v 1 2 0
v 2 2 0
v 1 1 1
v 1 2 1
v 2 1 1
v 2 2 1
v 2 1 2
v 1 1 2
v 1 2 2
v 2 2 2
v 1 1 3
v 1 2 3
v 2 1 3
v 2 2 3
v 3 0 0
v 3 1 0
v 3 0 3
v 3 1 3
v 0 18.5 2
v 1 18.5 3
v 1 19 3
v 0 19 2
v 2 18.5 0
v 1 18.5 0
v 1.5 18.5 0
v 3 19 2
v 2 19 3
v 2 18.5 3
v 3 18.5 2
v 3 18.5 1
v 2 19 0
v 3 19 1
v 0 20.5 1
v 1 20.5 0
v 1 20 0
v 0 20 1
v 2 20.5 3
v 1 20.5 3
v 1.5 20.5 3
v 3 20 1
v 2 20 0
v 2 20.5 0
v 3 20.5 1
v 3 20.5 2
v 2 20 3
v 3 20 2
v 3 19.5 2
v 2 19.5 3
v 0 19.5 1
v 1 19.5 0
v 1 19 0
v 0 19 1
v 3 1 1
v 2.5 1 1
v 2.5 2 1
v 3 2 1
v 2.5 1 2
v 2.5 2 2
v 3 1 2
v 3 2 2
v 0.6875 14 2.3125
v 0.3125 14 2.3125
v 0.3125 18 2.3125
v 0.6875 18 2.3125
v 0.3125 14 2.6875
v 0.3125 18 2.6875
v 0.6875 14 2.6875
v 0.6875 18 2.6875
v 0.375 10.28125 0.44140625
v 0.375 10.22265625 0.68359375
v 0.375 13.71875 1.55859375
v 0.375 13.77734375 1.31640625
v 0.625 17.77734375 2.31640625
v 0.625 17.71875 2.55859375
v 0.625 14.22265625 1.68359375
v 0.625 14.28125 1.44140625
v 0.375 17.77734375 2.31640625
v 0.375 14.28125 1.44140625
v 0.625 10.28125 0.44140625
v 0.625 13.77734375 1.31640625
v 0.6875 14.5 1.25
v 0.3125 14.5 1.25
v 0.3125 14.5 1.75
v 0.6875 14.5 1.75
v 0.6875 13.5 1.75
v 0.3125 13.5 1.75
v 0.3125 13.5 1.25
v 0.6875 13.5 1.25
v 0.625 10.22265625 0.68359375
v 0.625 13.71875 1.55859375
v 0.375 10.22265625 2.31640625
v 0.375 10.28125 2.55859375
v 0.375 13.77734375 1.68359375
v 0.375 13.71875 1.44140625
v 0.625 10.22265625 2.31640625
v 0.625 13.71875 1.44140625
v 0.625 10.28125 2.55859375
v 0.625 13.77734375 1.68359375
v 0.375 17.71875 2.55859375
v 0.375 14.22265625 1.68359375
v 0.375 17.77734375 0.68359375
v 0.375 17.71875 0.44140625
v 0.375 14.22265625 1.31640625
v 0.375 14.28125 1.55859375
v 0.625 17.77734375 0.68359375
v 0.625 14.28125 1.55859375
v 0.625 17.71875 0.44140625
v 0.625 14.22265625 1.31640625
v 2.625 10.28125 0.44140625
v 2.375 10.28125 0.44140625
v 2.375 13.77734375 1.31640625
v 2.625 13.77734375 1.31640625
v 2.3125 13.5 1.75
v 2.6875 13.5 1.75
v 2.6875 14.5 1.75
v 2.3125 14.5 1.75
v 2.625 17.71875 2.55859375
v 2.375 17.71875 2.55859375
v 2.375 14.22265625 1.68359375
v 2.625 14.22265625 1.68359375
v 2.375 17.77734375 0.68359375
v 2.375 17.71875 0.44140625
v 2.375 14.22265625 1.31640625
v 2.375 14.28125 1.55859375
v 2.625 10.22265625 0.68359375
v 2.625 13.71875 1.55859375
v 2.375 10.22265625 0.68359375
v 2.375 13.71875 1.55859375
v 2.625 17.77734375 2.31640625
v 2.625 14.28125 1.44140625
v 2.625 17.77734375 0.68359375
v 2.625 14.28125 1.55859375
v 2.625 17.71875 0.44140625
v 2.625 14.22265625 1.31640625
v 2.375 17.77734375 2.31640625
v 2.375 14.28125 1.44140625
v 2.625 10.22265625 2.31640625
v 2.375 10.22265625 2.31640625
v 2.375 13.71875 1.44140625
v 2.625 13.71875 1.44140625
v 2.625 10.28125 2.55859375
v 2.625 13.77734375 1.68359375
v 2.6875 14.5 1.25
v 2.3125 14.5 1.25
v 2.3125 13.5 1.25
v 2.6875 13.5 1.25
v 2.375 10.28125 2.55859375
v 2.375 13.77734375 1.68359375
v 0.44140625 17.71875 0.625
v 0.44140625 17.71875 0.375
v 1.31640625 14.22265625 0.375
v 1.31640625 14.22265625 0.625
v 0.68359375 17.77734375 0.375
v 1.55859375 14.28125 0.375
v 0.68359375 17.77734375 0.625
v 1.55859375 14.28125 0.625
v 1.75 13.5 0.6875
v 1.75 13.5 0.3125
v 1.75 14.5 0.3125
v 1.75 14.5 0.6875
v 1.25 13.5 0.3125
v 1.25 14.5 0.3125
v 1.25 13.5 0.6875
v 1.25 14.5 0.6875
v 2.6875 14 2.3125
v 2.3125 14 2.3125
v 2.3125 18 2.3125
v 2.6875 18 2.3125
v 2.3125 14 2.6875
v 2.3125 18 2.6875
v 2.6875 14 2.6875
v 2.6875 18 2.6875
v 0.6875 14 0.3125
v 0.3125 14 0.3125
v 0.3125 18 0.3125
v 0.6875 18 0.3125
v 0.3125 14 0.6875
v 0.3125 18 0.6875
v 0.6875 14 0.6875
v 0.6875 18 0.6875
v 2.6875 14 0.3125
v 2.3125 14 0.3125
v 2.3125 18 0.3125
v 2.6875 18 0.3125
v 2.3125 14 0.6875
v 2.3125 18 0.6875
v 2.6875 14 0.6875
v 2.6875 18 0.6875
v 2.31640625 17.77734375 0.625
v 2.31640625 17.77734375 0.375
v 1.44140625 14.28125 0.375
v 1.44140625 14.28125 0.625
v 2.55859375 17.71875 0.375
v 1.68359375 14.22265625 0.375
v 2.55859375 17.71875 0.625
v 1.68359375 14.22265625 0.625
v 2.55859375 10.28125 0.625
v 2.55859375 10.28125 0.375
v 1.68359375 13.77734375 0.375
v 1.68359375 13.77734375 0.625
v 2.31640625 10.22265625 0.375
v 1.44140625 13.71875 0.375
v 2.31640625 10.22265625 0.625
v 1.44140625 13.71875 0.625
v 0.68359375 10.22265625 0.625
v 0.68359375 10.22265625 0.375
v 1.55859375 13.71875 0.375
v 1.55859375 13.71875 0.625
v 0.44140625 10.28125 0.375
v 1.31640625 13.77734375 0.375
v 0.44140625 10.28125 0.625
v 1.31640625 13.77734375 0.625
v 0.44140625 17.71875 2.625
v 0.44140625 17.71875 2.375
v 1.31640625 14.22265625 2.375
v 1.31640625 14.22265625 2.625
v 0.68359375 17.77734375 2.375
v 1.55859375 14.28125 2.375
v 0.68359375 17.77734375 2.625
v 1.55859375 14.28125 2.625
v 1.75 13.5 2.6875
v 1.75 13.5 2.3125
v 1.75 14.5 2.3125
v 1.75 14.5 2.6875
v 1.25 13.5 2.3125
v 1.25 14.5 2.3125
v 1.25 13.5 2.6875
v 1.25 14.5 2.6875
v 2.31640625 17.77734375 2.625
v 2.31640625 17.77734375 2.375
v 1.44140625 14.28125 2.375
v 1.44140625 14.28125 2.625
v 2.55859375 17.71875 2.375
v 1.68359375 14.22265625 2.375
v 2.55859375 17.71875 2.625
v 1.68359375 14.22265625 2.625
v 2.55859375 10.28125 2.625
v 2.55859375 10.28125 2.375
v 1.68359375 13.77734375 2.375
v 1.68359375 13.77734375 2.625
v 2.31640625 10.22265625 2.375
v 2.31640625 10.22265625 2.625
v 1.44140625 13.71875 2.625
v 1.44140625 13.71875 2.375
v 0.68359375 10.22265625 2.625
v 0.68359375 10.22265625 2.375
v 1.55859375 13.71875 2.375
v 1.55859375 13.71875 2.625
v 0.44140625 10.28125 2.375
v 0.44140625 10.28125 2.625
v 1.31640625 13.77734375 2.625
v 1.31640625 13.77734375 2.375
v 0 18.5 3
v 0 18.5 0
v 0 18 0
v 0 18 3
v 3 18.5 0
v 3 18.5 3
v 3 18 3
v 3 18 0
v 1.9375 19 1
v 1.9375 19 0
v 1.5 18.5 1
v 1.0625 19 0
v 1.0625 19 1
v 2 19 1.9375
v 3 19 1.9375
v 3 18.5 1.5
v 2 18.5 1.5
v 3 19 1.0625
v 2 19 1.0625
v 1.0625 19 2
v 1.0625 19 3
v 1.5 18.5 3
v 1.5 18.5 2
v 1.9375 19 3
v 1.9375 19 2
v 1 19 1.0625
v 0 19 1.0625
v 0 18.5 1.5
v 1 18.5 1.5
v 0 19 1.9375
v 1 19 1.9375
v 0 18.5 1
v 2.9375 19 2.6875
v 2.9375 18.5 2.6875
v 2.6875 18.5 2.6875
v 2.6875 19 2.6875
v 0.3125 19 0.0625
v 0.3125 18.5 0.0625
v 0.0625 18.5 0.0625
v 0.0625 19 0.0625
v 0.0625 18.5 0.3125
v 0.0625 19 0.3125
v 2.6875 19 0.3125
v 2.6875 18.5 0.3125
v 2.9375 18.5 0.3125
v 1 19 1
v 1 18.5 1
v 1 18.5 2
v 1 19 2
v 2.9375 19 0.3125
v 2.9375 18.5 0.0625
v 2.9375 19 0.0625
v 2 18.5 1
v 2 19 1
v 2 19 2
v 2 18.5 2
v 2.9375 19 2.9375
v 2.9375 18.5 2.9375
v 2.6875 19 0.0625
v 2.6875 18.5 0.0625
v 0.3125 18.5 0.3125
v 0.3125 19 0.3125
v 0.3125 19 2.9375
v 0.3125 18.5 2.9375
v 0.3125 18.5 2.6875
v 0.3125 19 2.6875
v 2.6875 18.5 2.9375
v 2.6875 19 2.9375
v 0.0625 19 2.6875
v 0.0625 18.5 2.6875
v 0.0625 18.5 2.9375
v 0.0625 19 2.9375
v 0 20.5 0
v 0 20.5 3
v 0 21 3
v 0 21 0
v 3 20.5 3
v 3 20.5 0
v 3 21 0
v 3 21 3
v 1.9375 20 2
v 1.9375 20 3
v 1.5 20.5 2
v 1.0625 20 3
v 1.0625 20 2
v 1 20 3
v 2 20 1.0625
v 3 20 1.0625
v 3 20.5 1.5
v 2 20.5 1.5
v 3 20 1.9375
v 2 20 1.9375
v 1.0625 20 1
v 1.0625 20 0
v 1.5 20.5 0
v 1.5 20.5 1
v 1.9375 20 0
v 1.9375 20 1
v 1 20 1.9375
v 0 20 1.9375
v 0 20.5 1.5
v 1 20.5 1.5
v 0 20 1.0625
v 1 20 1.0625
v 0 20 2
v 0 20.5 2
v 2.9375 20 0.3125
v 2.9375 20.5 0.3125
v 2.6875 20.5 0.3125
v 2.6875 20 0.3125
v 0.3125 20 2.9375
v 0.3125 20.5 2.9375
v 0.0625 20.5 2.9375
v 0.0625 20 2.9375
v 0.0625 20.5 2.6875
v 0.0625 20 2.6875
v 2.6875 20 2.6875
v 2.6875 20.5 2.6875
v 2.9375 20.5 2.6875
v 2.9375 20 2.6875
v 1 20 2
v 1 20.5 2
v 1 20.5 1
v 1 20 1
v 2.9375 20.5 2.9375
v 2.9375 20 2.9375
v 2 20.5 2
v 2 20 2
v 2 20 1
v 2 20.5 1
v 2.9375 20 0.0625
v 2.9375 20.5 0.0625
v 2.6875 20 2.9375
v 2.6875 20.5 2.9375
v 0 19.5 2
v 1 19.5 3
v 0.3125 20.5 2.6875
v 0.3125 20 2.6875
v 0.3125 20 0.0625
v 0.3125 20.5 0.0625
v 0.3125 20.5 0.3125
v 0.3125 20 0.3125
v 2.6875 20.5 0.0625
v 2.6875 20 0.0625
v 0.0625 20 0.3125
v 0.0625 20.5 0.3125
v 0.0625 20.5 0.0625
v 0.0625 20 0.0625
v 3 19.5 1
v 2 19.5 0
v 2.6875 19 2.9375
v 2.6875 19 2.6875
v 2.9375 19 2.9375
v 2.9375 19 0.0625
v 2.9375 19 0.3125
v 2.9375 19 2.6875
v 2.6875 19 0.0625
v 2.6875 19 0.3125
v 0.625 10.22265625 0.68359375
v 0.625 10.28125 0.44140625
v 0.625 13.77734375 1.31640625
v 0.625 13.71875 1.55859375
v 0.625 10.28125 2.55859375
v 0.625 10.22265625 2.31640625
v 0.625 13.71875 1.44140625
v 0.625 13.77734375 1.68359375
v 2.375 10.28125 0.44140625
v 2.375 10.22265625 0.68359375
v 2.375 13.71875 1.55859375
v 2.375 13.77734375 1.31640625
v 2.375 10.22265625 2.31640625
v 2.375 10.28125 2.55859375
v 2.375 13.77734375 1.68359375
v 2.375 13.71875 1.44140625
v 2.31640625 10.22265625 0.625
v 2.55859375 10.28125 0.625
v 1.68359375 13.77734375 0.625
v 1.44140625 13.71875 0.625
v 0.44140625 10.28125 0.625
v 0.68359375 10.22265625 0.625
v 1.55859375 13.71875 0.625
v 1.31640625 13.77734375 0.625
v 2.55859375 10.28125 2.375
v 2.31640625 10.22265625 2.375
v 1.44140625 13.71875 2.375
v 1.68359375 13.77734375 2.375
v 0.68359375 10.22265625 2.375
v 0.44140625 10.28125 2.375
v 1.31640625 13.77734375 2.375
v 1.55859375 13.71875 2.375
v 2.6875 19 0.3125
v 2.6875 18.5 0.3125
v 2.9375 18.5 0.3125
v 2.9375 19 0.3125
v 0 0 3
v 0 0 0
v 0 1 0
v 0 1 3
vt 0.640625 0.75
vt 0.578125 0.75
vt 0.578125 0.625
vt 0.640625 0.625
vt 0.640625 0.625
vt 0.578125 0.625
vt 0.578125 0.75
vt 0.640625 0.75
vt 0.546875 0.203125
vt 0.546875 0.25
vt 0.539061875 0.25
vt 0.539061875 0.203125
vt 0.546875 0.203125
vt 0.546875 0.25
vt 0.5 0.25
vt 0.5 0.203125
vt 0.507811875 0.203125
vt 0.507811875 0.25
vt 0.5 0.25
vt 0.5 0.203125
vt 0.546875 0.21093812499999998
vt 0.5 0.21093812499999998
vt 0.5 0.203125
vt 0.546875 0.203125
vt 0.546875 0.25
vt 0.5 0.25
vt 0.5 0.24218812499999998
vt 0.546875 0.24218812499999998
vt 0.578125 0.1875
vt 0.578125 0.25
vt 0.570311875 0.25
vt 0.570311875 0.1875
vt 0.578125 0.1875
vt 0.578125 0.25
vt 0.546875 0.25
vt 0.546875 0.1875
vt 0.554688125 0.1875
vt 0.554688125 0.25
vt 0.546875 0.25
vt 0.546875 0.1875
vt 0.546875 0.1875
vt 0.578125 0.1875
vt 0.578125 0.19531187500000002
vt 0.546875 0.19531187500000002
vt 0.546875 0.24218812499999998
vt 0.578125 0.24218812499999998
vt 0.578125 0.25
vt 0.546875 0.25
vt 0.953125 0.40625
vt 0.953125 0.5
vt 0.71875 0.5
vt 0.71875 0.40625
vt 0.953125 0.40625
vt 0.953125 0.5
vt 0.71875 0.5
vt 0.71875 0.40625
vt 0.953125 0.40625
vt 0.953125 0.5
vt 0.71875 0.5
vt 0.71875 0.40625
vt 0.953125 0.40625
vt 0.953125 0.5
vt 0.71875 0.5
vt 0.71875 0.40625
vt 0.710938125 0.40625
vt 0.710938125 0.375
vt 0.960938125 0.375
vt 0.960938125 0.40625
vt 0.710938125 0.40625
vt 0.710938125 0.375
vt 0.960938125 0.375
vt 0.960938125 0.40625
vt 0.710938125 0.40625
vt 0.710938125 0.375
vt 0.960938125 0.375
vt 0.960938125 0.40625
vt 0.710938125 0.40625
vt 0.710938125 0.375
vt 0.960938125 0.375
vt 0.960938125 0.40625
vt 0.710938125 0.75
vt 0.960938125 0.75
vt 0.960938125 1
vt 0.710938125 1
vt 0.960938125 0.75
vt 0.710938125 0.75
vt 0.710938125 0.5
vt 0.960938125 0.5
vt 0.710938125 0.40625
vt 0.710938125 0.375
vt 0.960938125 0.375
vt 0.960938125 0.40625
vt 0.710938125 0.40625
vt 0.710938125 0.375
vt 0.960938125 0.375
vt 0.960938125 0.40625
vt 0.710938125 0.40625
vt 0.710938125 0.375
vt 0.960938125 0.375
vt 0.960938125 0.40625
vt 0.710938125 0.40625
vt 0.710938125 0.375
vt 0.960938125 0.375
vt 0.960938125 0.40625
vt 0.710938125 0.5
vt 0.960938125 0.5
vt 0.960938125 0.75
vt 0.710938125 0.75
vt 0.960938125 0.75
vt 0.710938125 0.75
vt 0.710938125 0.5
vt 0.960938125 0.5
vt 0.25 0.375
vt 0.25 0.4375
vt 0.375 0.4375
vt 0.375 0.375
vt 0.25 0.4375
vt 0.25 0.375
vt 0.375 0.375
vt 0.375 0.4375
vt 0.25 0.375
vt 0.25 0.4375
vt 0.375 0.4375
vt 0.375 0.375
vt 0.25 0.4375
vt 0.25 0.375
vt 0.375 0.375
vt 0.375 0.4375
vt 0.40625 0.40625
vt 0.46875 0.40625
vt 0.46875 0.46875
vt 0.40625 0.46875
vt 0.25 0.375
vt 0.25 0.4375
vt 0.375 0.4375
vt 0.375 0.375
vt 0.25 0.4375
vt 0.25 0.375
vt 0.375 0.375
vt 0.375 0.4375
vt 0.25 0.375
vt 0.25 0.4375
vt 0.375 0.4375
vt 0.375 0.375
vt 0.25 0.4375
vt 0.25 0.375
vt 0.375 0.375
vt 0.375 0.4375
vt 0.40625 0.40625
vt 0.46875 0.40625
vt 0.46875 0.46875
vt 0.40625 0.46875
vt 0.25 0.375
vt 0.25 0.4375
vt 0.375 0.4375
vt 0.375 0.375
vt 0.25 0.375
vt 0.25 0.4375
vt 0.375 0.4375
vt 0.375 0.375
vt 0.25 0.4375
vt 0.25 0.375
vt 0.375 0.375
vt 0.375 0.4375
vt 0.25 0.375
vt 0.25 0.4375
vt 0.375 0.4375
vt 0.375 0.375
vt 0.46875 0.46875
vt 0.46875 0.40625
vt 0.40625 0.40625
vt 0.40625 0.46875
vt 0.25 0.375
vt 0.25 0.4375
vt 0.375 0.4375
vt 0.375 0.375
vt 0.25 0.375
vt 0.25 0.4375
vt 0.375 0.4375
vt 0.375 0.375
vt 0.25 0.4375
vt 0.25 0.375
vt 0.375 0.375
vt 0.375 0.4375
vt 0.25 0.375
vt 0.25 0.4375
vt 0.375 0.4375
vt 0.375 0.375
vt 0.46875 0.46875
vt 0.46875 0.40625
vt 0.40625 0.40625
vt 0.40625 0.46875
vt 0.578125 0.25
vt 0.53125 0.25
vt 0.53125 0.75
vt 0.578125 0.75
vt 0.578125 0.25
vt 0.53125 0.25
vt 0.53125 0.75
vt 0.578125 0.75
vt 0.53125 0.25
vt 0.578125 0.25
vt 0.578125 0.75
vt 0.53125 0.75
vt 0.578125 0.25
vt 0.53125 0.25
vt 0.53125 0.75
vt 0.578125 0.75
vt 0.53125 0.75
vt 0.5 0.75
vt 0.5 0.3125
vt 0.53125 0.3125
vt 0.53125 0.75
vt 0.5 0.75
vt 0.5 0.3125
vt 0.53125 0.3125
vt 0.5 0.75
vt 0.53125 0.75
vt 0.53125 0.3125
vt 0.5 0.3125
vt 0.5 0.75
vt 0.53125 0.75
vt 0.53125 0.3125
vt 0.5 0.3125
vt 0.53125 0.75
vt 0.5 0.75
vt 0.5 0.3125
vt 0.53125 0.3125
vt 0.414061875 0.90625
vt 0.460938125 0.90625
vt 0.460938125 0.84375
vt 0.414061875 0.84375
vt 0.414061875 0.90625
vt 0.460938125 0.90625
vt 0.460938125 0.84375
vt 0.414061875 0.84375
vt 0.5 0.75
vt 0.53125 0.75
vt 0.53125 0.3125
vt 0.5 0.3125
vt 0.25 0.375
vt 0.25 0.4375
vt 0.375 0.4375
vt 0.375 0.375
vt 0.414061875 0.9375
vt 0.460938125 0.9375
vt 0.460938125 0.8125
vt 0.414061875 0.8125
vt 0.53125 0.75
vt 0.5 0.75
vt 0.5 0.3125
vt 0.53125 0.3125
vt 0.5 0.75
vt 0.53125 0.75
vt 0.53125 0.3125
vt 0.5 0.3125
vt 0.375 0.4375
vt 0.375 0.375
vt 0.25 0.375
vt 0.25 0.4375
vt 0.460938125 0.8125
vt 0.414061875 0.8125
vt 0.414061875 0.9375
vt 0.460938125 0.9375
vt 0.53125 0.75
vt 0.5 0.75
vt 0.5 0.3125
vt 0.53125 0.3125
vt 0.5 0.75
vt 0.53125 0.75
vt 0.53125 0.3125
vt 0.5 0.3125
vt 0.53125 0.75
vt 0.5 0.75
vt 0.5 0.3125
vt 0.53125 0.3125
vt 0.53125 0.75
vt 0.5 0.75
vt 0.5 0.3125
vt 0.53125 0.3125
vt 0.5 0.75
vt 0.53125 0.75
vt 0.53125 0.3125
vt 0.5 0.3125
vt 0.5 0.75
vt 0.53125 0.75
vt 0.53125 0.3125
vt 0.5 0.3125
vt 0.53125 0.75
vt 0.5 0.75
vt 0.5 0.3125
vt 0.53125 0.3125
vt 0.5 0.75
vt 0.53125 0.75
vt 0.53125 0.3125
vt 0.5 0.3125
vt 0.53125 0.75
vt 0.5 0.75
vt 0.5 0.3125
vt 0.53125 0.3125
vt 0.5 0.75
vt 0.53125 0.75
vt 0.53125 0.3125
vt 0.5 0.3125
vt 0.460938125 0.8125
vt 0.414061875 0.8125
vt 0.414061875 0.9375
vt 0.460938125 0.9375
vt 0.5 0.75
vt 0.53125 0.75
vt 0.53125 0.3125
vt 0.5 0.3125
vt 0.53125 0.75
vt 0.5 0.75
vt 0.5 0.3125
vt 0.53125 0.3125
vt 0.53125 0.75
vt 0.5 0.75
vt 0.5 0.3125
vt 0.53125 0.3125
vt 0.5 0.75
vt 0.53125 0.75
vt 0.53125 0.3125
vt 0.5 0.3125
vt 0.53125 0.75
vt 0.5 0.75
vt 0.5 0.3125
vt 0.53125 0.3125
vt 0.5 0.75
vt 0.53125 0.75
vt 0.53125 0.3125
vt 0.5 0.3125
vt 0.53125 0.75
vt 0.5 0.75
vt 0.5 0.3125
vt 0.53125 0.3125
vt 0.53125 0.75
vt 0.5 0.75
vt 0.5 0.3125
vt 0.53125 0.3125
vt 0.5 0.75
vt 0.53125 0.75
vt 0.53125 0.3125
vt 0.5 0.3125
vt 0.5 0.75
vt 0.53125 0.75
vt 0.53125 0.3125
vt 0.5 0.3125
vt 0.53125 0.75
vt 0.5 0.75
vt 0.5 0.3125
vt 0.53125 0.3125
vt 0.414061875 0.90625
vt 0.460938125 0.90625
vt 0.460938125 0.84375
vt 0.414061875 0.84375
vt 0.414061875 0.90625
vt 0.460938125 0.90625
vt 0.460938125 0.84375
vt 0.414061875 0.84375
vt 0.25 0.375
vt 0.25 0.4375
vt 0.375 0.4375
vt 0.375 0.375
vt 0.5 0.75
vt 0.53125 0.75
vt 0.53125 0.3125
vt 0.5 0.3125
vt 0.5 0.75
vt 0.53125 0.75
vt 0.53125 0.3125
vt 0.5 0.3125
vt 0.414061875 0.9375
vt 0.460938125 0.9375
vt 0.460938125 0.8125
vt 0.414061875 0.8125
vt 0.375 0.4375
vt 0.375 0.375
vt 0.25 0.375
vt 0.25 0.4375
vt 0.53125 0.75
vt 0.5 0.75
vt 0.5 0.3125
vt 0.53125 0.3125
vt 0.5 0.75
vt 0.53125 0.75
vt 0.53125 0.3125
vt 0.5 0.3125
vt 0.53125 0.75
vt 0.5 0.75
vt 0.5 0.3125
vt 0.53125 0.3125
vt 0.5 0.75
vt 0.53125 0.75
vt 0.53125 0.3125
vt 0.5 0.3125
vt 0.53125 0.75
vt 0.5 0.75
vt 0.5 0.3125
vt 0.53125 0.3125
vt 0.460938125 0.8125
vt 0.414061875 0.8125
vt 0.414061875 0.9375
vt 0.460938125 0.9375
vt 0.375 0.4375
vt 0.375 0.375
vt 0.25 0.375
vt 0.25 0.4375
vt 0.414061875 0.9375
vt 0.460938125 0.9375
vt 0.460938125 0.8125
vt 0.414061875 0.8125
vt 0.25 0.375
vt 0.25 0.4375
vt 0.375 0.4375
vt 0.375 0.375
vt 0.414061875 0.90625
vt 0.460938125 0.90625
vt 0.460938125 0.84375
vt 0.414061875 0.84375
vt 0.414061875 0.90625
vt 0.460938125 0.90625
vt 0.460938125 0.84375
vt 0.414061875 0.84375
vt 0.578125 0.25
vt 0.53125 0.25
vt 0.53125 0.75
vt 0.578125 0.75
vt 0.578125 0.25
vt 0.53125 0.25
vt 0.53125 0.75
vt 0.578125 0.75
vt 0.53125 0.25
vt 0.578125 0.25
vt 0.578125 0.75
vt 0.53125 0.75
vt 0.578125 0.25
vt 0.53125 0.25
vt 0.53125 0.75
vt 0.578125 0.75
vt 0.578125 0.25
vt 0.53125 0.25
vt 0.53125 0.75
vt 0.578125 0.75
vt 0.578125 0.25
vt 0.53125 0.25
vt 0.53125 0.75
vt 0.578125 0.75
vt 0.53125 0.25
vt 0.578125 0.25
vt 0.578125 0.75
vt 0.53125 0.75
vt 0.578125 0.25
vt 0.53125 0.25
vt 0.53125 0.75
vt 0.578125 0.75
vt 0.578125 0.25
vt 0.53125 0.25
vt 0.53125 0.75
vt 0.578125 0.75
vt 0.578125 0.25
vt 0.53125 0.25
vt 0.53125 0.75
vt 0.578125 0.75
vt 0.53125 0.25
vt 0.578125 0.25
vt 0.578125 0.75
vt 0.53125 0.75
vt 0.578125 0.25
vt 0.53125 0.25
vt 0.53125 0.75
vt 0.578125 0.75
vt 0.578125 0.25
vt 0.53125 0.25
vt 0.53125 0.75
vt 0.578125 0.75
vt 0.578125 0.25
vt 0.53125 0.25
vt 0.53125 0.75
vt 0.578125 0.75
vt 0.53125 0.25
vt 0.578125 0.25
vt 0.578125 0.75
vt 0.53125 0.75
vt 0.578125 0.25
vt 0.53125 0.25
vt 0.53125 0.75
vt 0.578125 0.75
vt 0.578125 0.25
vt 0.53125 0.25
vt 0.53125 0.75
vt 0.578125 0.75
vt 0.578125 0.25
vt 0.53125 0.25
vt 0.53125 0.75
vt 0.578125 0.75
vt 0.53125 0.25
vt 0.578125 0.25
vt 0.578125 0.75
vt 0.53125 0.75
vt 0.578125 0.25
vt 0.53125 0.25
vt 0.53125 0.75
vt 0.578125 0.75
vt 0.578125 0.25
vt 0.53125 0.25
vt 0.53125 0.75
vt 0.578125 0.75
vt 0.578125 0.25
vt 0.53125 0.25
vt 0.53125 0.75
vt 0.578125 0.75
vt 0.53125 0.25
vt 0.578125 0.25
vt 0.578125 0.75
vt 0.53125 0.75
vt 0.578125 0.25
vt 0.53125 0.25
vt 0.53125 0.75
vt 0.578125 0.75
vt 0.578125 0.25
vt 0.53125 0.25
vt 0.53125 0.75
vt 0.578125 0.75
vt 0.578125 0.25
vt 0.53125 0.25
vt 0.53125 0.75
vt 0.578125 0.75
vt 0.53125 0.25
vt 0.578125 0.25
vt 0.578125 0.75
vt 0.53125 0.75
vt 0.578125 0.25
vt 0.53125 0.25
vt 0.53125 0.75
vt 0.578125 0.75
vt 0.5 0.75
vt 0.53125 0.75
vt 0.53125 0.3125
vt 0.5 0.3125
vt 0.53125 0.75
vt 0.5 0.75
vt 0.5 0.3125
vt 0.53125 0.3125
vt 0.5 0.75
vt 0.53125 0.75
vt 0.53125 0.3125
vt 0.5 0.3125
vt 0.53125 0.75
vt 0.5 0.75
vt 0.5 0.3125
vt 0.53125 0.3125
vt 0.5 0.75
vt 0.53125 0.75
vt 0.53125 0.3125
vt 0.5 0.3125
vt 0.53125 0.75
vt 0.5 0.75
vt 0.5 0.3125
vt 0.53125 0.3125
vt 0.5 0.75
vt 0.53125 0.75
vt 0.53125 0.3125
vt 0.5 0.3125
vt 0.53125 0.75
vt 0.5 0.75
vt 0.5 0.3125
vt 0.53125 0.3125
vt 0.5 0.75
vt 0.53125 0.75
vt 0.53125 0.3125
vt 0.5 0.3125
vt 0.53125 0.75
vt 0.5 0.75
vt 0.5 0.3125
vt 0.53125 0.3125
vt 0.5 0.75
vt 0.53125 0.75
vt 0.53125 0.3125
vt 0.5 0.3125
vt 0.53125 0.75
vt 0.5 0.75
vt 0.5 0.3125
vt 0.53125 0.3125
vt 0.5 0.75
vt 0.53125 0.75
vt 0.53125 0.3125
vt 0.5 0.3125
vt 0.53125 0.75
vt 0.5 0.75
vt 0.5 0.3125
vt 0.53125 0.3125
vt 0.5 0.75
vt 0.53125 0.75
vt 0.53125 0.3125
vt 0.5 0.3125
vt 0.53125 0.75
vt 0.5 0.75
vt 0.5 0.3125
vt 0.53125 0.3125
vt 0.460938125 0.8125
vt 0.414061875 0.8125
vt 0.414061875 0.9375
vt 0.460938125 0.9375
vt 0.375 0.4375
vt 0.375 0.375
vt 0.25 0.375
vt 0.25 0.4375
vt 0.414061875 0.9375
vt 0.460938125 0.9375
vt 0.460938125 0.8125
vt 0.414061875 0.8125
vt 0.25 0.375
vt 0.25 0.4375
vt 0.375 0.4375
vt 0.375 0.375
vt 0.414061875 0.90625
vt 0.460938125 0.90625
vt 0.460938125 0.84375
vt 0.414061875 0.84375
vt 0.414061875 0.90625
vt 0.460938125 0.90625
vt 0.460938125 0.84375
vt 0.414061875 0.84375
vt 0.5 0.75
vt 0.53125 0.75
vt 0.53125 0.3125
vt 0.5 0.3125
vt 0.53125 0.75
vt 0.5 0.75
vt 0.5 0.3125
vt 0.53125 0.3125
vt 0.5 0.75
vt 0.53125 0.75
vt 0.53125 0.3125
vt 0.5 0.3125
vt 0.53125 0.75
vt 0.5 0.75
vt 0.5 0.3125
vt 0.53125 0.3125
vt 0.5 0.75
vt 0.53125 0.75
vt 0.53125 0.3125
vt 0.5 0.3125
vt 0.53125 0.75
vt 0.5 0.75
vt 0.5 0.3125
vt 0.53125 0.3125
vt 0.5 0.75
vt 0.53125 0.75
vt 0.53125 0.3125
vt 0.5 0.3125
vt 0.53125 0.75
vt 0.5 0.75
vt 0.5 0.3125
vt 0.53125 0.3125
vt 0.5 0.75
vt 0.53125 0.75
vt 0.53125 0.3125
vt 0.5 0.3125
vt 0.53125 0.75
vt 0.5 0.75
vt 0.5 0.3125
vt 0.53125 0.3125
vt 0.5 0.75
vt 0.53125 0.75
vt 0.53125 0.3125
vt 0.5 0.3125
vt 0.53125 0.75
vt 0.5 0.75
vt 0.5 0.3125
vt 0.53125 0.3125
vt 0.25 0.375
vt 0 0.375
vt 0 0.4375
vt 0.25 0.4375
vt 0.25 0.375
vt 0 0.375
vt 0 0.4375
vt 0.25 0.4375
vt 0.25 0.375
vt 0 0.375
vt 0 0.4375
vt 0.25 0.4375
vt 0.25 0.375
vt 0 0.375
vt 0 0.4375
vt 0.25 0.4375
vt 0.960938125 1
vt 0.960938125 0.75
vt 0.710938125 0.75
vt 0.710938125 1
vt 0.5 0.375
vt 0.375 0.375
vt 0.375 0.5
vt 0.5 0.5
vt 0.375 0.4375
vt 0.25 0.4375
vt 0.25 0.5625
vt 0.375 0.5625
vt 0.375 0.4375
vt 0.25 0.4375
vt 0.25 0.5625
vt 0.375 0.5625
vt 0.375 0.4375
vt 0.25 0.4375
vt 0.25 0.5625
vt 0.375 0.5625
vt 0.25 0.5625
vt 0.375 0.5625
vt 0.375 0.4375
vt 0.25 0.4375
vt 0.375 0.4375
vt 0.25 0.4375
vt 0.25 0.5625
vt 0.375 0.5625
vt 0.375 0.4375
vt 0.25 0.4375
vt 0.25 0.5625
vt 0.375 0.5625
vt 0.5 0.25
vt 0.375 0.25
vt 0.375 0.375
vt 0.5 0.375
vt 0.375 0.4375
vt 0.25 0.4375
vt 0.25 0.5625
vt 0.375 0.5625
vt 0.25 0.5625
vt 0.375 0.5625
vt 0.375 0.4375
vt 0.25 0.4375
vt 0 0.125
vt 0.375 0.125
vt 0.375 0
vt 0 0
vt 0.375 0
vt 0 0
vt 0 0.125
vt 0.375 0.125
vt 0 0.125
vt 0.375 0.125
vt 0.375 0
vt 0 0
vt 0 0
vt 0 0.375
vt 0.375 0.375
vt 0.375 0
vt 0 0
vt 0 0.375
vt 0.375 0.375
vt 0.375 0
vt 0.710938125 0.75
vt 0.53125 0.75
vt 0.53125 0.8125
vt 0.710938125 0.8125
vt 0 0
vt 0 0
vt 0 0
vt 0.53125 0.8125
vt 0.710938125 0.8125
vt 0.710938125 0.75
vt 0.53125 0.75
vt 0.710938125 0.75
vt 0.53125 0.75
vt 0.53125 0.8125
vt 0.710938125 0.8125
vt 0.53125 1
vt 0.710938125 1
vt 0.710938125 0.9375
vt 0.53125 0.9375
vt 0 0
vt 0 0
vt 0 0
vt 0.710938125 0.9375
vt 0.53125 0.9375
vt 0.53125 1
vt 0.710938125 1
vt 0.53125 1
vt 0.710938125 1
vt 0.710938125 0.9375
vt 0.53125 0.9375
vt 0.710938125 0.8125
vt 0.53125 0.8125
vt 0.53125 0.875
vt 0.710938125 0.875
vt 0.53125 0.875
vt 0.710938125 0.875
vt 0.710938125 0.8125
vt 0.53125 0.8125
vt 0.3125 0.4375
vt 0.25 0.4375
vt 0.25 0.5625
vt 0.3125 0.5625
vt 0.375 0.4375
vt 0.25 0.4375
vt 0.25 0.5625
vt 0.375 0.5625
vt 0.375 0.4375
vt 0.3125 0.4375
vt 0.3125 0.5625
vt 0.375 0.5625
vt 0.5 0.125
vt 0.375 0.125
vt 0.375 0.25
vt 0.5 0.25
vt 0.375 0.5625
vt 0.375 0.5
vt 0.25 0.5
vt 0.25 0.5625
vt 0.578125 0.25
vt 0.53125 0.25
vt 0.53125 0.75
vt 0.578125 0.75
vt 0.578125 0.25
vt 0.53125 0.25
vt 0.53125 0.75
vt 0.578125 0.75
vt 0.53125 0.25
vt 0.578125 0.25
vt 0.578125 0.75
vt 0.53125 0.75
vt 0.578125 0.25
vt 0.53125 0.25
vt 0.53125 0.75
vt 0.578125 0.75
vt 0.53125 0.75
vt 0.5 0.75
vt 0.5 0.3125
vt 0.53125 0.3125
vt 0.53125 0.75
vt 0.5 0.75
vt 0.5 0.3125
vt 0.53125 0.3125
vt 0.5 0.75
vt 0.53125 0.75
vt 0.53125 0.3125
vt 0.5 0.3125
vt 0.5 0.75
vt 0.53125 0.75
vt 0.53125 0.3125
vt 0.5 0.3125
vt 0.414061875 0.90625
vt 0.460938125 0.90625
vt 0.460938125 0.84375
vt 0.414061875 0.84375
vt 0.414061875 0.90625
vt 0.460938125 0.90625
vt 0.460938125 0.84375
vt 0.414061875 0.84375
vt 0.5 0.75
vt 0.53125 0.75
vt 0.53125 0.3125
vt 0.5 0.3125
vt 0.25 0.375
vt 0.25 0.4375
vt 0.375 0.4375
vt 0.375 0.375
vt 0.414061875 0.9375
vt 0.460938125 0.9375
vt 0.460938125 0.8125
vt 0.414061875 0.8125
vt 0.53125 0.75
vt 0.5 0.75
vt 0.5 0.3125
vt 0.53125 0.3125
vt 0.5 0.75
vt 0.53125 0.75
vt 0.53125 0.3125
vt 0.5 0.3125
vt 0.375 0.4375
vt 0.375 0.375
vt 0.25 0.375
vt 0.25 0.4375
vt 0.460938125 0.8125
vt 0.414061875 0.8125
vt 0.414061875 0.9375
vt 0.460938125 0.9375
vt 0.5 0.75
vt 0.53125 0.75
vt 0.53125 0.3125
vt 0.5 0.3125
vt 0.53125 0.75
vt 0.5 0.75
vt 0.5 0.3125
vt 0.53125 0.3125
vt 0.53125 0.75
vt 0.5 0.75
vt 0.5 0.3125
vt 0.53125 0.3125
vt 0.5 0.75
vt 0.53125 0.75
vt 0.53125 0.3125
vt 0.5 0.3125
vt 0.5 0.75
vt 0.53125 0.75
vt 0.53125 0.3125
vt 0.5 0.3125
vt 0.53125 0.75
vt 0.5 0.75
vt 0.5 0.3125
vt 0.53125 0.3125
vt 0.5 0.75
vt 0.53125 0.75
vt 0.53125 0.3125
vt 0.5 0.3125
vt 0.5 0.75
vt 0.53125 0.75
vt 0.53125 0.3125
vt 0.5 0.3125
vt 0.460938125 0.8125
vt 0.414061875 0.8125
vt 0.414061875 0.9375
vt 0.460938125 0.9375
vt 0.5 0.75
vt 0.53125 0.75
vt 0.53125 0.3125
vt 0.5 0.3125
vt 0.53125 0.75
vt 0.5 0.75
vt 0.5 0.3125
vt 0.53125 0.3125
vt 0.53125 0.75
vt 0.5 0.75
vt 0.5 0.3125
vt 0.53125 0.3125
vt 0.5 0.75
vt 0.53125 0.75
vt 0.53125 0.3125
vt 0.5 0.3125
vt 0.53125 0.75
vt 0.5 0.75
vt 0.5 0.3125
vt 0.53125 0.3125
vt 0.5 0.75
vt 0.53125 0.75
vt 0.53125 0.3125
vt 0.5 0.3125
vt 0.53125 0.75
vt 0.5 0.75
vt 0.5 0.3125
vt 0.53125 0.3125
vt 0.5 0.75
vt 0.53125 0.75
vt 0.53125 0.3125
vt 0.5 0.3125
vt 0.5 0.75
vt 0.53125 0.75
vt 0.53125 0.3125
vt 0.5 0.3125
vt 0.53125 0.75
vt 0.5 0.75
vt 0.5 0.3125
vt 0.53125 0.3125
vt 0.414061875 0.90625
vt 0.460938125 0.90625
vt 0.460938125 0.84375
vt 0.414061875 0.84375
vt 0.414061875 0.90625
vt 0.460938125 0.90625
vt 0.460938125 0.84375
vt 0.414061875 0.84375
vt 0.25 0.375
vt 0.25 0.4375
vt 0.375 0.4375
vt 0.375 0.375
vt 0.5 0.75
vt 0.53125 0.75
vt 0.53125 0.3125
vt 0.5 0.3125
vt 0.5 0.75
vt 0.53125 0.75
vt 0.53125 0.3125
vt 0.5 0.3125
vt 0.414061875 0.9375
vt 0.460938125 0.9375
vt 0.460938125 0.8125
vt 0.414061875 0.8125
vt 0.375 0.4375
vt 0.375 0.375
vt 0.25 0.375
vt 0.25 0.4375
vt 0.53125 0.75
vt 0.5 0.75
vt 0.5 0.3125
vt 0.53125 0.3125
vt 0.5 0.75
vt 0.53125 0.75
vt 0.53125 0.3125
vt 0.5 0.3125
vt 0.53125 0.75
vt 0.5 0.75
vt 0.5 0.3125
vt 0.53125 0.3125
vt 0.5 0.75
vt 0.53125 0.75
vt 0.53125 0.3125
vt 0.5 0.3125
vt 0.53125 0.75
vt 0.5 0.75
vt 0.5 0.3125
vt 0.53125 0.3125
vt 0.460938125 0.8125
vt 0.414061875 0.8125
vt 0.414061875 0.9375
vt 0.460938125 0.9375
vt 0.375 0.4375
vt 0.375 0.375
vt 0.25 0.375
vt 0.25 0.4375
vt 0.414061875 0.9375
vt 0.460938125 0.9375
vt 0.460938125 0.8125
vt 0.414061875 0.8125
vt 0.25 0.375
vt 0.25 0.4375
vt 0.375 0.4375
vt 0.375 0.375
vt 0.414061875 0.90625
vt 0.460938125 0.90625
vt 0.460938125 0.84375
vt 0.414061875 0.84375
vt 0.414061875 0.90625
vt 0.460938125 0.90625
vt 0.460938125 0.84375
vt 0.414061875 0.84375
vt 0.578125 0.25
vt 0.53125 0.25
vt 0.53125 0.75
vt 0.578125 0.75
vt 0.578125 0.25
vt 0.53125 0.25
vt 0.53125 0.75
vt 0.578125 0.75
vt 0.53125 0.25
vt 0.578125 0.25
vt 0.578125 0.75
vt 0.53125 0.75
vt 0.578125 0.25
vt 0.53125 0.25
vt 0.53125 0.75
vt 0.578125 0.75
vt 0.578125 0.25
vt 0.53125 0.25
vt 0.53125 0.75
vt 0.578125 0.75
vt 0.578125 0.25
vt 0.53125 0.25
vt 0.53125 0.75
vt 0.578125 0.75
vt 0.53125 0.25
vt 0.578125 0.25
vt 0.578125 0.75
vt 0.53125 0.75
vt 0.578125 0.25
vt 0.53125 0.25
vt 0.53125 0.75
vt 0.578125 0.75
vt 0.578125 0.25
vt 0.53125 0.25
vt 0.53125 0.75
vt 0.578125 0.75
vt 0.578125 0.25
vt 0.53125 0.25
vt 0.53125 0.75
vt 0.578125 0.75
vt 0.53125 0.25
vt 0.578125 0.25
vt 0.578125 0.75
vt 0.53125 0.75
vt 0.578125 0.25
vt 0.53125 0.25
vt 0.53125 0.75
vt 0.578125 0.75
vt 0.578125 0.25
vt 0.53125 0.25
vt 0.53125 0.75
vt 0.578125 0.75
vt 0.578125 0.25
vt 0.53125 0.25
vt 0.53125 0.75
vt 0.578125 0.75
vt 0.53125 0.25
vt 0.578125 0.25
vt 0.578125 0.75
vt 0.53125 0.75
vt 0.578125 0.25
vt 0.53125 0.25
vt 0.53125 0.75
vt 0.578125 0.75
vt 0.578125 0.25
vt 0.53125 0.25
vt 0.53125 0.75
vt 0.578125 0.75
vt 0.578125 0.25
vt 0.53125 0.25
vt 0.53125 0.75
vt 0.578125 0.75
vt 0.53125 0.25
vt 0.578125 0.25
vt 0.578125 0.75
vt 0.53125 0.75
vt 0.578125 0.25
vt 0.53125 0.25
vt 0.53125 0.75
vt 0.578125 0.75
vt 0.578125 0.25
vt 0.53125 0.25
vt 0.53125 0.75
vt 0.578125 0.75
vt 0.578125 0.25
vt 0.53125 0.25
vt 0.53125 0.75
vt 0.578125 0.75
vt 0.53125 0.25
vt 0.578125 0.25
vt 0.578125 0.75
vt 0.53125 0.75
vt 0.578125 0.25
vt 0.53125 0.25
vt 0.53125 0.75
vt 0.578125 0.75
vt 0.578125 0.25
vt 0.53125 0.25
vt 0.53125 0.75
vt 0.578125 0.75
vt 0.578125 0.25
vt 0.53125 0.25
vt 0.53125 0.75
vt 0.578125 0.75
vt 0.53125 0.25
vt 0.578125 0.25
vt 0.578125 0.75
vt 0.53125 0.75
vt 0.578125 0.25
vt 0.53125 0.25
vt 0.53125 0.75
vt 0.578125 0.75
vt 0.5 0.75
vt 0.53125 0.75
vt 0.53125 0.3125
vt 0.5 0.3125
vt 0.53125 0.75
vt 0.5 0.75
vt 0.5 0.3125
vt 0.53125 0.3125
vt 0.5 0.75
vt 0.53125 0.75
vt 0.53125 0.3125
vt 0.5 0.3125
vt 0.53125 0.75
vt 0.5 0.75
vt 0.5 0.3125
vt 0.53125 0.3125
vt 0.5 0.75
vt 0.53125 0.75
vt 0.53125 0.3125
vt 0.5 0.3125
vt 0.53125 0.75
vt 0.5 0.75
vt 0.5 0.3125
vt 0.53125 0.3125
vt 0.5 0.75
vt 0.53125 0.75
vt 0.53125 0.3125
vt 0.5 0.3125
vt 0.5 0.75
vt 0.53125 0.75
vt 0.53125 0.3125
vt 0.5 0.3125
vt 0.53125 0.75
vt 0.5 0.75
vt 0.5 0.3125
vt 0.53125 0.3125
vt 0.5 0.75
vt 0.53125 0.75
vt 0.53125 0.3125
vt 0.5 0.3125
vt 0.5 0.75
vt 0.53125 0.75
vt 0.53125 0.3125
vt 0.5 0.3125
vt 0.53125 0.75
vt 0.5 0.75
vt 0.5 0.3125
vt 0.53125 0.3125
vt 0.5 0.75
vt 0.53125 0.75
vt 0.53125 0.3125
vt 0.5 0.3125
vt 0.53125 0.75
vt 0.5 0.75
vt 0.5 0.3125
vt 0.53125 0.3125
vt 0.460938125 0.8125
vt 0.414061875 0.8125
vt 0.414061875 0.9375
vt 0.460938125 0.9375
vt 0.375 0.4375
vt 0.375 0.375
vt 0.25 0.375
vt 0.25 0.4375
vt 0.414061875 0.9375
vt 0.460938125 0.9375
vt 0.460938125 0.8125
vt 0.414061875 0.8125
vt 0.25 0.375
vt 0.25 0.4375
vt 0.375 0.4375
vt 0.375 0.375
vt 0.414061875 0.90625
vt 0.460938125 0.90625
vt 0.460938125 0.84375
vt 0.414061875 0.84375
vt 0.414061875 0.90625
vt 0.460938125 0.90625
vt 0.460938125 0.84375
vt 0.414061875 0.84375
vt 0.5 0.75
vt 0.53125 0.75
vt 0.53125 0.3125
vt 0.5 0.3125
vt 0.53125 0.75
vt 0.5 0.75
vt 0.5 0.3125
vt 0.53125 0.3125
vt 0.5 0.75
vt 0.53125 0.75
vt 0.53125 0.3125
vt 0.5 0.3125
vt 0.53125 0.75
vt 0.5 0.75
vt 0.5 0.3125
vt 0.53125 0.3125
vt 0.5 0.75
vt 0.53125 0.75
vt 0.53125 0.3125
vt 0.5 0.3125
vt 0.5 0.75
vt 0.53125 0.75
vt 0.53125 0.3125
vt 0.5 0.3125
vt 0.53125 0.75
vt 0.5 0.75
vt 0.5 0.3125
vt 0.53125 0.3125
vt 0.5 0.75
vt 0.53125 0.75
vt 0.53125 0.3125
vt 0.5 0.3125
vt 0.5 0.75
vt 0.53125 0.75
vt 0.53125 0.3125
vt 0.5 0.3125
vt 0.53125 0.75
vt 0.5 0.75
vt 0.5 0.3125
vt 0.53125 0.3125
vt 0 0.625
vt 0.375 0.625
vt 0.375 0.5625
vt 0 0.5625
vt 0 0.625
vt 0.375 0.625
vt 0.375 0.5625
vt 0 0.5625
vt 0.125 0.476561875
vt 0.25 0.476561875
vt 0.25 0.5625
vt 0.125 0.5625
vt 0.125 0.476561875
vt 0.25 0.476561875
vt 0.25 0.5625
vt 0.125 0.5625
vt 0.5 0.8125
vt 0.5 0.75
vt 0.4375 0.75
vt 0.492188125 0.8125
vt 0.382811875 0.8125
vt 0.4375 0.75
vt 0.375 0.75
vt 0.375 0.8125
vt 0 0.625
vt 0.375 0.625
vt 0.375 0.5625
vt 0 0.5625
vt 0.125 0.476561875
vt 0.25 0.476561875
vt 0.25 0.5625
vt 0.125 0.5625
vt 0.125 0.476561875
vt 0.25 0.476561875
vt 0.25 0.5625
vt 0.125 0.5625
vt 0.5 0.8125
vt 0.5 0.75
vt 0.4375 0.75
vt 0.492188125 0.8125
vt 0.382811875 0.8125
vt 0.4375 0.75
vt 0.375 0.75
vt 0.375 0.8125
vt 0.125 0.476561875
vt 0.25 0.476561875
vt 0.25 0.5625
vt 0.125 0.5625
vt 0.125 0.476561875
vt 0.25 0.476561875
vt 0.25 0.5625
vt 0.125 0.5625
vt 0.5 0.8125
vt 0.5 0.75
vt 0.4375 0.75
vt 0.492188125 0.8125
vt 0.382811875 0.8125
vt 0.4375 0.75
vt 0.375 0.75
vt 0.375 0.8125
vt 0.125 0.476561875
vt 0.25 0.476561875
vt 0.25 0.5625
vt 0.125 0.5625
vt 0.125 0.476561875
vt 0.25 0.476561875
vt 0.25 0.5625
vt 0.125 0.5625
vt 0.5 0.8125
vt 0.5 0.75
vt 0.4375 0.75
vt 0.492188125 0.8125
vt 0.382811875 0.8125
vt 0.4375 0.75
vt 0.375 0.75
vt 0.375 0.8125
vt 0.625 0
vt 1 0
vt 1 0.375
vt 0.625 0.375
vt 0 0.625
vt 0.375 0.625
vt 0.375 0.5625
vt 0 0.5625
vt 0.53125 0.8125
vt 0.53125 0.75
vt 0.5 0.75
vt 0.5 0.8125
vt 0.53125 0.8125
vt 0.53125 0.75
vt 0.5 0.75
vt 0.5 0.8125
vt 0.53125 0.8125
vt 0.53125 0.75
vt 0.5 0.75
vt 0.5 0.8125
vt 0.375 0.5625
vt 0.375 0.5
vt 0.5 0.5
vt 0.5 0.5625
vt 0.53125 0.8125
vt 0.53125 0.75
vt 0.5 0.75
vt 0.5 0.8125
vt 0.375 0.5
vt 0.375 0.5625
vt 0.5 0.5625
vt 0.5 0.5
vt 0.375 0.5625
vt 0.375 0.5
vt 0.5 0.5
vt 0.5 0.5625
vt 0.53125 0.8125
vt 0.53125 0.75
vt 0.5 0.75
vt 0.5 0.8125
vt 0.53125 0.8125
vt 0.53125 0.75
vt 0.5 0.75
vt 0.5 0.8125
vt 0.53125 0.8125
vt 0.710938125 0.8125
vt 0.710938125 0.75
vt 0.53125 0.75
vt 0.53125 0.8125
vt 0.53125 0.75
vt 0.5 0.75
vt 0.5 0.8125
vt 0.53125 0.8125
vt 0.53125 0.75
vt 0.5 0.75
vt 0.5 0.8125
vt 0.53125 0.8125
vt 0.53125 0.75
vt 0.5 0.75
vt 0.5 0.8125
vt 0.53125 0.8125
vt 0.53125 0.75
vt 0.5 0.75
vt 0.5 0.8125
vt 0.53125 0.8125
vt 0.53125 0.75
vt 0.5 0.75
vt 0.5 0.8125
vt 0.53125 0.8125
vt 0.53125 0.75
vt 0.5 0.75
vt 0.5 0.8125
vt 0.53125 0.75
vt 0.53125 0.8125
vt 0.5 0.8125
vt 0.5 0.75
vt 0.53125 0.8125
vt 0.5 0.8125
vt 0.5 0.75
vt 0.53125 0.75
vt 0.53125 0.8125
vt 0.53125 0.75
vt 0.5 0.75
vt 0.5 0.8125
vt 0.375 0.5625
vt 0.375 0.5
vt 0.5 0.5
vt 0.5 0.5625
vt 0 1
vt 0 0.625
vt 0.375 0.625
vt 0.375 1
vt 0.375 0.5625
vt 0 0.5625
vt 0 0.625
vt 0.375 0.625
vt 0.375 0.5625
vt 0 0.5625
vt 0 0.625
vt 0.375 0.625
vt 0.125 0.476561875
vt 0.25 0.476561875
vt 0.25 0.5625
vt 0.125 0.5625
vt 0.125 0.476561875
vt 0.25 0.476561875
vt 0.25 0.5625
vt 0.125 0.5625
vt 0.375 0.9375
vt 0.375 1
vt 0.4375 1
vt 0.382811875 0.9375
vt 0.492188125 0.9375
vt 0.4375 1
vt 0.5 1
vt 0.5 0.9375
vt 0.375 0.5625
vt 0 0.5625
vt 0 0.625
vt 0.375 0.625
vt 0.125 0.476561875
vt 0.25 0.476561875
vt 0.25 0.5625
vt 0.125 0.5625
vt 0.125 0.476561875
vt 0.25 0.476561875
vt 0.25 0.5625
vt 0.125 0.5625
vt 0.375 0.9375
vt 0.375 1
vt 0.4375 1
vt 0.382811875 0.9375
vt 0.492188125 0.9375
vt 0.4375 1
vt 0.5 1
vt 0.5 0.9375
vt 0.125 0.476561875
vt 0.25 0.476561875
vt 0.25 0.5625
vt 0.125 0.5625
vt 0.125 0.476561875
vt 0.25 0.476561875
vt 0.25 0.5625
vt 0.125 0.5625
vt 0.375 0.9375
vt 0.375 1
vt 0.4375 1
vt 0.382811875 0.9375
vt 0.492188125 0.9375
vt 0.4375 1
vt 0.5 1
vt 0.5 0.9375
vt 0.125 0.476561875
vt 0.25 0.476561875
vt 0.25 0.5625
vt 0.125 0.5625
vt 0.125 0.476561875
vt 0.25 0.476561875
vt 0.25 0.5625
vt 0.125 0.5625
vt 0.375 0.9375
vt 0.375 1
vt 0.4375 1
vt 0.382811875 0.9375
vt 0.492188125 0.9375
vt 0.4375 1
vt 0.5 1
vt 0.5 0.9375
vt 0 0.625
vt 0.375 0.625
vt 0.375 1
vt 0 1
vt 0.375 0.5625
vt 0 0.5625
vt 0 0.625
vt 0.375 0.625
vt 0.53125 0.9375
vt 0.53125 1
vt 0.5 1
vt 0.5 0.9375
vt 0.53125 0.9375
vt 0.53125 1
vt 0.5 1
vt 0.5 0.9375
vt 0.53125 0.9375
vt 0.53125 1
vt 0.5 1
vt 0.5 0.9375
vt 0.5 0.9375
vt 0.5 1
vt 0.53125 1
vt 0.53125 0.9375
vt 0.5 0.6875
vt 0.5 0.75
vt 0.375 0.75
vt 0.375 0.6875
vt 0.53125 0.9375
vt 0.53125 1
vt 0.5 1
vt 0.5 0.9375
vt 0.5 0.75
vt 0.5 0.6875
vt 0.375 0.6875
vt 0.375 0.75
vt 0.5 0.6875
vt 0.5 0.75
vt 0.375 0.75
vt 0.375 0.6875
vt 0.53125 0.9375
vt 0.53125 1
vt 0.5 1
vt 0.5 0.9375
vt 0.53125 0.9375
vt 0.53125 1
vt 0.5 1
vt 0.5 0.9375
vt 0.53125 0.9375
vt 0.710938125 0.9375
vt 0.710938125 0.875
vt 0.53125 0.875
vt 0.53125 0.9375
vt 0.53125 1
vt 0.5 1
vt 0.5 0.9375
vt 0.53125 0.9375
vt 0.53125 1
vt 0.5 1
vt 0.5 0.9375
vt 0.53125 0.9375
vt 0.53125 1
vt 0.5 1
vt 0.5 0.9375
vt 0.53125 0.9375
vt 0.53125 1
vt 0.5 1
vt 0.5 0.9375
vt 0.53125 0.9375
vt 0.53125 1
vt 0.5 1
vt 0.5 0.9375
vt 0.53125 0.9375
vt 0.53125 1
vt 0.5 1
vt 0.5 0.9375
vt 0.5 0.9375
vt 0.5 1
vt 0.53125 1
vt 0.53125 0.9375
vt 0.53125 0.9375
vt 0.5 0.9375
vt 0.5 1
vt 0.53125 1
vt 0.53125 0.9375
vt 0.53125 1
vt 0.5 1
vt 0.5 0.9375
vt 0.5 0.6875
vt 0.5 0.75
vt 0.375 0.75
vt 0.375 0.6875
vt 0 1
vt 0 0.625
vt 0.375 0.625
vt 0.375 1
vt 0.375 0.5625
vt 0.382811875 0.5625
vt 0.382811875 0.6875
vt 0.375 0.6875
vt 0 0.4375
vt 0.125 0.4375
vt 0.125 0.5625
vt 0 0.5625
vt 0.375 0.5625
vt 0.382811875 0.5625
vt 0.382811875 0.6875
vt 0.375 0.6875
vt 0 0.4375
vt 0.125 0.4375
vt 0.125 0.5625
vt 0 0.5625
vt 0.375 0.5625
vt 0.382811875 0.5625
vt 0.382811875 0.6875
vt 0.375 0.6875
vt 0 0.4375
vt 0.125 0.4375
vt 0.125 0.5625
vt 0 0.5625
vt 0 0.4375
vt 0.125 0.4375
vt 0.125 0.5625
vt 0 0.5625
vt 0.375 0.5625
vt 0.382811875 0.5625
vt 0.382811875 0.6875
vt 0.375 0.6875
vt 0 0.4375
vt 0.125 0.4375
vt 0.125 0.5625
vt 0 0.5625
vt 0.375 0.5625
vt 0.382811875 0.5625
vt 0.382811875 0.6875
vt 0.375 0.6875
vt 0.382811875 0.5625
vt 0.382811875 0.6875
vt 0.375 0.6875
vt 0.375 0.5625
vt 0 0.4375
vt 0.125 0.4375
vt 0.125 0.5625
vt 0 0.5625
vt 0.5 0.6875
vt 0.5 0.5625
vt 0.375 0.5625
vt 0.375 0.6875
vt 0 0.4375
vt 0.125 0.4375
vt 0.125 0.5625
vt 0 0.5625
vt 0.375 0.5625
vt 0.382811875 0.5625
vt 0.382811875 0.6875
vt 0.375 0.6875
vt 0 0.4375
vt 0.125 0.4375
vt 0.125 0.5625
vt 0 0.5625
vt 0.375 0.5625
vt 0.382811875 0.5625
vt 0.382811875 0.6875
vt 0.375 0.6875
vt 0 0
vt 1 0
vt 1 1
vt 0 1
vt 0.710938125 0.9375
vt 0.53125 0.9375
vt 0.53125 1
vt 0.710938125 1
vt 0.53125 0.875
vt 0.53125 0.9375
vt 0.710938125 0.9375
vt 0.710938125 0.875
vt 0.710938125 0.875
vt 0.53125 0.875
vt 0.53125 0.9375
vt 0.710938125 0.9375
vt 0.53125 0.875
vt 0.53125 0.9375
vt 0.710938125 0.9375
vt 0.710938125 0.875
vt 0.710938125 0.875
vt 0.710938125 0.8125
vt 0.53125 0.8125
vt 0.53125 0.875
vt 0.710938125 0.875
vt 0.710938125 0.8125
vt 0.53125 0.8125
vt 0.53125 0.875
vt 0.53125 0.8125
vt 0.53125 0.9375
vt 0.5 0.9375
vt 0.5 0.8125
vt 0.53125 0.8125
vt 0.53125 0.9375
vt 0.5 0.9375
vt 0.5 0.8125
vt 0.53125 0.8125
vt 0.53125 0.9375
vt 0.5 0.9375
vt 0.5 0.8125
vt 0.53125 0.8125
vt 0.53125 0.9375
vt 0.5 0.9375
vt 0.5 0.8125
vt 0.53125 0.8125
vt 0.53125 0.9375
vt 0.5 0.9375
vt 0.5 0.8125
vt 0.53125 0.8125
vt 0.53125 0.9375
vt 0.5 0.9375
vt 0.5 0.8125
vt 0.53125 0.8125
vt 0.53125 0.9375
vt 0.5 0.9375
vt 0.5 0.8125
vt 0.5 0.5625
vt 0.5 0.6875
vt 0.375 0.6875
vt 0.375 0.5625
vt 0.53125 0.8125
vt 0.53125 0.9375
vt 0.5 0.9375
vt 0.5 0.8125
vt 0.53125 0.8125
vt 0.53125 0.9375
vt 0.5 0.9375
vt 0.5 0.8125
vt 0.53125 0.8125
vt 0.53125 0.9375
vt 0.5 0.9375
vt 0.5 0.8125
vt 0.53125 0.8125
vt 0.53125 0.9375
vt 0.5 0.9375
vt 0.5 0.8125
vt 0.53125 0.8125
vt 0.53125 0.9375
vt 0.5 0.9375
vt 0.5 0.8125
vt 0.5 0.5625
vt 0.5 0.6875
vt 0.375 0.6875
vt 0.375 0.5625
vt 0.53125 0.8125
vt 0.53125 0.9375
vt 0.5 0.9375
vt 0.5 0.8125
vt 0.53125 0.8125
vt 0.53125 0.9375
vt 0.5 0.9375
vt 0.5 0.8125
vt 0.53125 0.8125
vt 0.53125 0.9375
vt 0.5 0.9375
vt 0.5 0.8125
vt 0.53125 0.8125
vt 0.53125 0.9375
vt 0.5 0.9375
vt 0.5 0.8125
vt 0.5 0.5625
vt 0.5 0.6875
vt 0.375 0.6875
vt 0.375 0.5625
vt 0.53125 0.75
vt 0.5 0.75
vt 0.5 0.3125
vt 0.53125 0.3125
vt 0.53125 0.75
vt 0.5 0.75
vt 0.5 0.3125
vt 0.53125 0.3125
vt 0.53125 0.75
vt 0.5 0.75
vt 0.5 0.3125
vt 0.53125 0.3125
vt 0.53125 0.75
vt 0.5 0.75
vt 0.5 0.3125
vt 0.53125 0.3125
vt 0.53125 0.75
vt 0.5 0.75
vt 0.5 0.3125
vt 0.53125 0.3125
vt 0.53125 0.75
vt 0.5 0.75
vt 0.5 0.3125
vt 0.53125 0.3125
vt 0.53125 0.75
vt 0.5 0.75
vt 0.5 0.3125
vt 0.53125 0.3125
vt 0.53125 0.75
vt 0.5 0.75
vt 0.5 0.3125
vt 0.53125 0.3125
vt 0.53125 0.8125
vt 0.53125 0.75
vt 0.5 0.75
vt 0.5 0.8125
vt 0.375 0
vt 0.375 0.125
vt 0 0.125
vt 0 0
vn 1 0 0
vn -1 0 0
vn 0 0 -1
vn 1 0 0
vn 0 0 1
vn 0 -1 0
vn 0 1 0
vn 0 0 -1
vn 1 0 0
vn 0 0 1
vn 0 -1 0
vn 0 1 0
vn 0 0 -1
vn 1 0 0
vn 0 0 1
vn -1 0 0
vn 0 0 -1
vn 1 0 0
vn 0 0 1
vn -1 0 0
vn 0 -1 0
vn 0 1 0
vn 0 0 -1
vn 1 0 0
vn 0 0 1
vn -1 0 0
vn 0 -1 0
vn 0 1 0
vn 0 0 -1
vn -1 0 0
vn 0 0 1
vn 1 0 0
vn 0 1 0
vn 0 0 -1
vn -1 0 0
vn 0 0 1
vn 1 0 0
vn 0 1 0
vn 0 0 -1
vn -1 0 0
vn 0 0 1
vn 1 0 0
vn 0 1 0
vn 0 0 -1
vn -1 0 0
vn 0 0 1
vn 1 0 0
vn 0 1 0
vn 0 0 -1
vn -1 0 0
vn 0 0 1
vn 1 0 0
vn -1 0 0
vn 1 0 0
vn 0 0.24279064885010795 -0.9700787085752082
vn 0 0.24279064885010795 -0.9700787085752082
vn 1 0 0
vn 0 1 0
vn 0 -1 0
vn 0 -0.24279064885010795 0.9700787085752082
vn -1 0 0
vn 0 0 -1
vn -1 0 0
vn 0 -0.24279064885010795 -0.9700787085752082
vn 1 0 0
vn 0 0 1
vn 1 0 0
vn 0 0.24279064885010795 0.9700787085752082
vn -1 0 0
vn -1 0 0
vn 0 0.24279064885010795 0.9700787085752082
vn 0 -0.24279064885010795 0.9700787085752082
vn 1 0 0
vn 0 -0.24279064885010795 -0.9700787085752082
vn -1 0 0
vn 0 0.24279064885010795 -0.9700787085752082
vn 0 0 1
vn 0 -0.24279064885010795 0.9700787085752082
vn -1 0 0
vn 1 0 0
vn 0 -0.24279064885010795 0.9700787085752082
vn 1 0 0
vn 0 0.24279064885010795 0.9700787085752082
vn -1 0 0
vn 1 0 0
vn 0 0.24279064885010795 -0.9700787085752082
vn 0 -0.24279064885010795 -0.9700787085752082
vn 1 0 0
vn 0 1 0
vn 0 -1 0
vn -1 0 0
vn 0 0.24279064885010795 0.9700787085752082
vn 0 -0.24279064885010795 -0.9700787085752082
vn 0 0 -1
vn 1 0 0
vn -1 0 0
vn -0.9700787085752082 -0.24279064885010795 0
vn 0 0 -1
vn 0.9700787085752082 0.24279064885010795 0
vn 0 0 1
vn 1 0 0
vn 0 0 -1
vn -1 0 0
vn 0 0 1
vn 0 -1 0
vn 0 1 0
vn 0 0 -1
vn -1 0 0
vn 0 0 1
vn 1 0 0
vn 0 0 -1
vn -1 0 0
vn 0 0 1
vn 1 0 0
vn 0 0 -1
vn -1 0 0
vn 0 0 1
vn 1 0 0
vn 0 0 -1
vn -1 0 0
vn 0 0 1
vn 1 0 0
vn 0 0 -1
vn -1 0 0
vn 0 0 1
vn 1 0 0
vn 0 0 -1
vn -1 0 0
vn 0 0 1
vn 1 0 0
vn 0 0 -1
vn -1 0 0
vn 0 0 1
vn 1 0 0
vn -0.9700787085752082 0.24279064885010795 0
vn 0 0 -1
vn 0.9700787085752082 -0.24279064885010795 0
vn 0 0 1
vn 0.9700787085752082 0.24279064885010795 0
vn 0 0 -1
vn -0.9700787085752082 -0.24279064885010795 0
vn 0 0 1
vn 0.9700787085752082 -0.24279064885010795 0
vn 0 0 -1
vn -0.9700787085752082 0.24279064885010795 0
vn 0 0 1
vn -0.9700787085752082 -0.24279064885010795 0
vn 0 0 -1
vn 0.9700787085752082 0.24279064885010795 0
vn 0 0 1
vn 1 0 0
vn 0 0 -1
vn -1 0 0
vn 0 0 1
vn 0 -1 0
vn 0 1 0
vn -0.9700787085752082 0.24279064885010795 0
vn 0 0 -1
vn 0.9700787085752082 -0.24279064885010795 0
vn 0 0 1
vn 0.9700787085752082 0.24279064885010795 0
vn 0 0 -1
vn -0.9700787085752082 -0.24279064885010795 0
vn 0 0 1
vn 0.9700787085752082 -0.24279064885010795 0
vn 0 0 -1
vn -0.9700787085752082 0.24279064885010795 0
vn 0 0 1
vn 0 0 -1
vn -1 0 0
vn 0 0 1
vn 1 0 0
vn 0 1 0
vn 0 0 -1
vn -1 0 0
vn 0 0 1
vn 1 0 0
vn 0 1 0
vn 0 0 -1
vn -1 0 0
vn 0 0 1
vn 1 0 0
vn 0 1 0
vn 0 0 -1
vn 0 0 1
vn 1 0 0
vn 0 -1 0
vn 0 1 0
vn -0.7071067811865476 0 0.7071067811865476
vn 0 0 0
vn 0.7071067811865476 0 0.7071067811865476
vn 0.7071067811865476 0 -0.7071067811865476
vn -0.7071067811865476 0 -0.7071067811865476
vn 0 0 0
vn 0.7071067811865476 0 -0.7071067811865476
vn 0.7071067811865476 0 0.7071067811865476
vn 0.7071067811865476 0 0.7071067811865476
vn -0.7071067811865476 0 -0.7071067811865476
vn 0 0 -1
vn -1 0 0
vn 0 0 1
vn 1 0 0
vn 0 1 0
vn 0 0 -1
vn -1 0 0
vn 0 0 1
vn 1 0 0
vn -1 0 0
vn 1 0 0
vn 0 0.24279064885010795 -0.9700787085752082
vn 0 0.24279064885010795 -0.9700787085752082
vn 0 1 0
vn 0 -1 0
vn 0 -0.24279064885010795 0.9700787085752082
vn -1 0 0
vn 0 0 -1
vn -1 0 0
vn 0 -0.24279064885010795 -0.9700787085752082
vn 1 0 0
vn 0 0 1
vn 0 0.24279064885010795 0.9700787085752082
vn -1 0 0
vn -1 0 0
vn 0 0.24279064885010795 0.9700787085752082
vn 0 -0.24279064885010795 0.9700787085752082
vn 1 0 0
vn 0 -0.24279064885010795 -0.9700787085752082
vn 0 0.24279064885010795 -0.9700787085752082
vn 0 0 1
vn 0 -0.24279064885010795 0.9700787085752082
vn -1 0 0
vn 1 0 0
vn 0 -0.24279064885010795 0.9700787085752082
vn 1 0 0
vn 0 0.24279064885010795 0.9700787085752082
vn 1 0 0
vn 0 0.24279064885010795 -0.9700787085752082
vn 0 -0.24279064885010795 -0.9700787085752082
vn 1 0 0
vn 0 1 0
vn 0 -1 0
vn -1 0 0
vn 0 0.24279064885010795 0.9700787085752082
vn 0 -0.24279064885010795 -0.9700787085752082
vn 0 0 -1
vn 1 0 0
vn -1 0 0
vn -0.9700787085752082 -0.24279064885010795 0
vn 0 0 -1
vn 0.9700787085752082 0.24279064885010795 0
vn 0 0 1
vn 1 0 0
vn 0 0 -1
vn -1 0 0
vn 0 0 1
vn 0 -1 0
vn 0 1 0
vn 0 0 -1
vn -1 0 0
vn 0 0 1
vn 1 0 0
vn 0 0 -1
vn -1 0 0
vn 0 0 1
vn 1 0 0
vn 0 0 -1
vn -1 0 0
vn 0 0 1
vn 1 0 0
vn 0 0 -1
vn -1 0 0
vn 0 0 1
vn 1 0 0
vn 0 0 -1
vn -1 0 0
vn 0 0 1
vn 1 0 0
vn 0 0 -1
vn -1 0 0
vn 0 0 1
vn 1 0 0
vn 0 0 -1
vn -1 0 0
vn 0 0 1
vn 1 0 0
vn -0.9700787085752082 0.24279064885010795 0
vn 0 0 -1
vn 0.9700787085752082 -0.24279064885010795 0
vn 0 0 1
vn 0.9700787085752082 0.24279064885010795 0
vn 0 0 -1
vn -0.9700787085752082 -0.24279064885010795 0
vn 0.9700787085752082 -0.24279064885010795 0
vn 0 0 -1
vn -0.9700787085752082 0.24279064885010795 0
vn -0.9700787085752082 -0.24279064885010795 0
vn 0 0 -1
vn 0.9700787085752082 0.24279064885010795 0
vn 0 0 1
vn 1 0 0
vn 0 0 -1
vn -1 0 0
vn 0 0 1
vn 0 -1 0
vn 0 1 0
vn -0.9700787085752082 0.24279064885010795 0
vn 0 0 -1
vn 0.9700787085752082 -0.24279064885010795 0
vn 0 0 1
vn 0.9700787085752082 0.24279064885010795 0
vn -0.9700787085752082 -0.24279064885010795 0
vn 0 0 1
vn 0.9700787085752082 -0.24279064885010795 0
vn -0.9700787085752082 0.24279064885010795 0
vn 0 0 1
vn -1 0 0
vn 1 0 0
vn -0.7525766947068778 0.658504607868518 0
vn 0.7525766947068778 0.658504607868518 0
vn 0 0 -1
vn 0 0 -1
vn 0 0 1
vn 0 0.658504607868518 -0.7525766947068778
vn 0 0.658504607868518 0.7525766947068778
vn 1 0 0
vn 1 0 0
vn 0.7525766947068778 0.658504607868518 0
vn -0.7525766947068778 0.658504607868518 0
vn 0 0 1
vn 0 0 1
vn 0 0.658504607868518 0.7525766947068778
vn 0 0.658504607868518 -0.7525766947068778
vn -1 0 0
vn -1 0 0
vn 0 -1 0
vn 0 0 -1
vn 0 0 -1
vn 0 0 -1
vn -1 0 0
vn -1 0 0
vn 1 0 0
vn 1 0 0
vn 0 0 1
vn 1 0 0
vn -1 0 0
vn -0.7071067811865476 0 -0.7071067811865476
vn 0 0 -1
vn 0 0 1
vn 1 0 0
vn 1 0 0
vn -1 0 0
vn -1 0 0
vn 0 0 1
vn 0 0 1
vn 0 0 -1
vn 0 0 -1
vn 0 1 0
vn -1 0 0
vn 1 0 0
vn -0.7525766947068778 -0.658504607868518 0
vn 0.7525766947068778 -0.658504607868518 0
vn 0 0 1
vn 0 0 1
vn 0 0 -1
vn 0 -0.658504607868518 0.7525766947068778
vn 0 -0.658504607868518 -0.7525766947068778
vn 1 0 0
vn 1 0 0
vn 0.7525766947068778 -0.658504607868518 0
vn -0.7525766947068778 -0.658504607868518 0
vn 0 0 -1
vn 0 0 -1
vn 0 -0.658504607868518 -0.7525766947068778
vn 0 -0.658504607868518 0.7525766947068778
vn -1 0 0
vn -1 0 0
vn 0 1 0
vn 0 0 1
vn 0 0 1
vn 0 0 1
vn -1 0 0
vn 0 0 -1
vn -1 0 0
vn 1 0 0
vn 1 0 0
vn 0 0 -1
vn 1 0 0
vn -1 0 0
vn -0.7071067811865476 0 0.7071067811865476
vn 0 0 1
vn 0 0 -1
vn 1 0 0
vn 1 0 0
vn -1 0 0
vn -1 0 0
vn 0 0 -1
vn 0 0 -1
vn 0 0 1
vn 0 0 1
vn 0 -1 0
vn -1 0 0
vn 0 0 -1
vn -1 0 0
vn 0 0 1
vn 1 0 0
vn 0 0 -1
vn 0 0 1
vn 1 0 0
vn -1 0 0
vn 0 0 1
vn 0 0 1
vn 1 0 0
vn 1 0 0
vn 1 0 0
vn 0 0 -1
vn -1 0 0
vn 0 0 -1
vn 0 -1 0
vn -0.7071067811865476 0 0.7071067811865476
vn 0.7071067811865476 0 0.7071067811865476
vn 0.7071067811865476 0 -0.7071067811865476
vn -0.7071067811865476 0 -0.7071067811865476
vn -0.7071067811865476 0 0.7071067811865476
vn 0.7071067811865476 0 -0.7071067811865476
vn 0 0 1
vn -1 0 0
vn 0 0 1
vn 1 0 0
vn 0 0 -1
vn -1 0 0
vn 0 0 -1
vn 0 0 1
vn 1 0 0
vn 0 0 -1
vn 0 0 -1
vn -1 0 0
vn -1 0 0
vn -1 0 0
vn 1 0 0
vn 1 0 0
vn 0 0 1
vn 0 0 1
vn 0 0 -1
vn 1 0 0
vn 1 0 0
vn -1 0 0
vn -1 0 0
vn 0 0 1
vn 0 0 1
vn 0 0 -1
vn 0 0 -1
vn 0 0 1
vn -1 0 0
usemtl m_61767fb8-97d6-9305-ac4a-86e30b0332d1
f 1/1/1 2/2/1 3/3/1 4/4/1
f 5/5/2 6/6/2 7/7/2 8/8/2
f 9/9/3 10/10/3 11/11/3 12/12/3
f 12/13/4 11/14/4 13/15/4 14/16/4
f 14/17/5 13/18/5 15/19/5 16/20/5
f 12/21/6 14/22/6 16/23/6 9/24/6
f 13/25/7 11/26/7 10/27/7 15/28/7
f 17/29/8 18/30/8 19/31/8 20/32/8
f 20/33/9 19/34/9 21/35/9 22/36/9
f 22/37/10 21/38/10 23/39/10 24/40/10
f 20/41/11 22/42/11 24/43/11 17/44/11
f 21/45/12 19/46/12 18/47/12 23/48/12
f 25/49/13 26/50/13 27/51/13 28/52/13
f 28/53/14 27/54/14 29/55/14 30/56/14
f 30/57/15 29/58/15 31/59/15 32/60/15
f 32/61/16 31/62/16 26/63/16 25/64/16
f 33/65/17 34/66/17 35/67/17 36/68/17
f 36/69/18 35/70/18 37/71/18 38/72/18
f 38/73/19 37/74/19 39/75/19 40/76/19
f 40/77/20 39/78/20 34/79/20 33/80/20
f 36/81/21 38/82/21 40/83/21 33/84/21
f 37/85/22 35/86/22 34/87/22 39/88/22
f 41/89/23 42/90/23 43/91/23 44/92/23
f 44/93/24 43/94/24 45/95/24 46/96/24
f 46/97/25 45/98/25 47/99/25 48/100/25
f 48/101/26 47/102/26 42/103/26 41/104/26
f 44/105/27 46/106/27 48/107/27 41/108/27
f 45/109/28 43/110/28 42/111/28 47/112/28
f 49/113/29 50/114/29 51/115/29 52/116/29
f 50/117/30 53/118/30 54/119/30 51/120/30
f 53/121/31 55/122/31 56/123/31 54/124/31
f 55/125/32 49/126/32 52/127/32 56/128/32
f 54/129/33 56/130/33 52/131/33 51/132/33
f 57/133/34 58/134/34 59/135/34 60/136/34
f 58/137/35 61/138/35 62/139/35 59/140/35
f 61/141/36 63/142/36 64/143/36 62/144/36
f 63/145/37 57/146/37 60/147/37 64/148/37
f 62/149/38 64/150/38 60/151/38 59/152/38
f 65/153/39 66/154/39 67/155/39 68/156/39
f 66/157/40 69/158/40 70/159/40 67/160/40
f 69/161/41 71/162/41 72/163/41 70/164/41
f 71/165/42 65/166/42 68/167/42 72/168/42
f 70/169/43 72/170/43 68/171/43 67/172/43
f 73/173/44 74/174/44 75/175/44 76/176/44
f 74/177/45 77/178/45 78/179/45 75/180/45
f 77/181/46 79/182/46 80/183/46 78/184/46
f 79/185/47 73/186/47 76/187/47 80/188/47
f 78/189/48 80/190/48 76/191/48 75/192/48
f 81/193/49 82/194/49 83/195/49 84/196/49
f 82/197/50 85/198/50 86/199/50 83/200/50
f 85/201/51 87/202/51 88/203/51 86/204/51
f 87/205/52 81/206/52 84/207/52 88/208/52
f 89/209/53 90/210/53 91/211/53 92/212/53
f 93/213/54 94/214/54 95/215/54 96/216/54
f 97/217/55 93/218/55 96/219/55 98/220/55
f 99/221/56 89/222/56 92/223/56 100/224/56
f 101/225/57 99/226/57 100/227/57 102/228/57
f 103/229/58 104/230/58 105/231/58 106/232/58
f 107/233/59 108/234/59 109/235/59 110/236/59
f 90/237/60 101/238/60 102/239/60 91/240/60
f 109/241/61 108/242/61 105/243/61 104/244/61
f 110/245/62 109/246/62 104/247/62 103/248/62
f 111/249/63 112/250/63 113/251/63 114/252/63
f 115/253/64 111/254/64 114/255/64 116/256/64
f 107/257/65 110/258/65 103/259/65 106/260/65
f 108/261/66 107/262/66 106/263/66 105/264/66
f 117/265/67 115/266/67 116/267/67 118/268/67
f 112/269/68 117/270/68 118/271/68 113/272/68
f 119/273/69 97/274/69 98/275/69 120/276/69
f 121/277/70 122/278/70 123/279/70 124/280/70
f 125/281/71 121/282/71 124/283/71 126/284/71
f 94/285/72 119/286/72 120/287/72 95/288/72
f 127/289/73 125/290/73 126/291/73 128/292/73
f 122/293/74 127/294/74 128/295/74 123/296/74
f 129/297/75 130/298/75 131/299/75 132/300/75
f 133/301/76 129/302/76 132/303/76 134/304/76
f 135/305/77 136/306/77 137/307/77 138/308/77
f 139/309/78 140/310/78 141/311/78 142/312/78
f 143/313/79 144/314/79 145/315/79 146/316/79
f 147/317/80 133/318/80 134/319/80 148/320/80
f 130/321/81 147/322/81 148/323/81 131/324/81
f 149/325/82 139/326/82 142/327/82 150/328/82
f 151/329/83 143/330/83 146/331/83 152/332/83
f 153/333/84 154/334/84 155/335/84 156/336/84
f 157/337/85 151/338/85 152/339/85 158/340/85
f 159/341/86 149/342/86 150/343/86 160/344/86
f 161/345/87 153/346/87 156/347/87 162/348/87
f 163/349/88 161/350/88 162/351/88 164/352/88
f 165/353/89 166/354/89 138/355/89 137/356/89
f 136/357/90 135/358/90 167/359/90 168/360/90
f 167/361/91 135/362/91 138/363/91 166/364/91
f 154/365/92 163/366/92 164/367/92 155/368/92
f 144/369/93 157/370/93 158/371/93 145/372/93
f 168/373/94 167/374/94 166/375/94 165/376/94
f 136/377/95 168/378/95 165/379/95 137/380/95
f 140/381/96 159/382/96 160/383/96 141/384/96
f 169/385/97 170/386/97 171/387/97 172/388/97
f 170/389/98 173/390/98 174/391/98 171/392/98
f 173/393/99 175/394/99 176/395/99 174/396/99
f 175/397/100 169/398/100 172/399/100 176/400/100
f 177/401/101 178/402/101 179/403/101 180/404/101
f 178/405/102 181/406/102 182/407/102 179/408/102
f 181/409/103 183/410/103 184/411/103 182/412/103
f 183/413/104 177/414/104 180/415/104 184/416/104
f 178/417/105 177/418/105 183/419/105 181/420/105
f 182/421/106 184/422/106 180/423/106 179/424/106
f 185/425/107 186/426/107 82/427/107 81/428/107
f 186/429/108 187/430/108 85/431/108 82/432/108
f 187/433/109 188/434/109 87/435/109 85/436/109
f 188/437/110 185/438/110 81/439/110 87/440/110
f 189/441/111 190/442/111 191/443/111 192/444/111
f 190/445/112 193/446/112 194/447/112 191/448/112
f 193/449/113 195/450/113 196/451/113 194/452/113
f 195/453/114 189/454/114 192/455/114 196/456/114
f 197/457/115 198/458/115 190/459/115 189/460/115
f 198/461/116 199/462/116 193/463/116 190/464/116
f 199/465/117 200/466/117 195/467/117 193/468/117
f 200/469/118 197/470/118 189/471/118 195/472/118
f 201/473/119 202/474/119 203/475/119 204/476/119
f 202/477/120 205/478/120 206/479/120 203/480/120
f 205/481/121 207/482/121 208/483/121 206/484/121
f 207/485/122 201/486/122 204/487/122 208/488/122
f 209/489/123 210/490/123 202/491/123 201/492/123
f 210/493/124 211/494/124 205/495/124 202/496/124
f 211/497/125 212/498/125 207/499/125 205/500/125
f 212/501/126 209/502/126 201/503/126 207/504/126
f 213/505/127 214/506/127 215/507/127 216/508/127
f 214/509/128 217/510/128 218/511/128 215/512/128
f 217/513/129 219/514/129 220/515/129 218/516/129
f 219/517/130 213/518/130 216/519/130 220/520/130
f 221/521/131 222/522/131 214/523/131 213/524/131
f 222/525/132 223/526/132 217/527/132 214/528/132
f 223/529/133 224/530/133 219/531/133 217/532/133
f 224/533/134 221/534/134 213/535/134 219/536/134
f 225/537/135 226/538/135 227/539/135 228/540/135
f 226/541/136 229/542/136 230/543/136 227/544/136
f 229/545/137 231/546/137 232/547/137 230/548/137
f 231/549/138 225/550/138 228/551/138 232/552/138
f 233/553/139 234/554/139 235/555/139 236/556/139
f 234/557/140 237/558/140 238/559/140 235/560/140
f 237/561/141 239/562/141 240/563/141 238/564/141
f 239/565/142 233/566/142 236/567/142 240/568/142
f 241/569/143 242/570/143 243/571/143 244/572/143
f 242/573/144 245/574/144 246/575/144 243/576/144
f 245/577/145 247/578/145 248/579/145 246/580/145
f 247/581/146 241/582/146 244/583/146 248/584/146
f 249/585/147 250/586/147 251/587/147 252/588/147
f 250/589/148 253/590/148 254/591/148 251/592/148
f 253/593/149 255/594/149 256/595/149 254/596/149
f 255/597/150 249/598/150 252/599/150 256/600/150
f 257/601/151 258/602/151 259/603/151 260/604/151
f 258/605/152 261/606/152 262/607/152 259/608/152
f 261/609/153 263/610/153 264/611/153 262/612/153
f 263/613/154 257/614/154 260/615/154 264/616/154
f 258/617/155 257/618/155 263/619/155 261/620/155
f 262/621/156 264/622/156 260/623/156 259/624/156
f 265/625/157 266/626/157 267/627/157 268/628/157
f 266/629/158 269/630/158 270/631/158 267/632/158
f 269/633/159 271/634/159 272/635/159 270/636/159
f 271/637/160 265/638/160 268/639/160 272/640/160
f 273/641/161 274/642/161 275/643/161 276/644/161
f 274/645/162 277/646/162 278/647/162 275/648/162
f 277/649/163 279/650/163 280/651/163 278/652/163
f 279/653/164 273/654/164 276/655/164 280/656/164
f 281/657/165 282/658/165 283/659/165 284/660/165
f 282/661/166 285/662/166 286/663/166 283/664/166
f 285/665/167 287/666/167 288/667/167 286/668/167
f 287/669/168 281/670/168 284/671/168 288/672/168
f 289/673/169 290/674/169 291/675/169 292/676/169
f 290/677/170 293/678/170 294/679/170 291/680/170
f 293/681/171 295/682/171 296/683/171 294/684/171
f 295/685/172 289/686/172 292/687/172 296/688/172
f 294/689/173 296/690/173 292/691/173 291/692/173
f 297/693/174 298/694/174 299/695/174 300/696/174
f 298/697/175 301/698/175 302/699/175 299/700/175
f 301/701/176 303/702/176 304/703/176 302/704/176
f 303/705/177 297/706/177 300/707/177 304/708/177
f 302/709/178 304/710/178 300/711/178 299/712/178
f 305/713/179 306/714/179 307/715/179 308/716/179
f 306/717/180 309/718/180 310/719/180 307/720/180
f 309/721/181 311/722/181 312/723/181 310/724/181
f 311/725/182 305/726/182 308/727/182 312/728/182
f 310/729/183 312/730/183 308/731/183 307/732/183
f 313/733/184 746/734/184 747/735/184 314/736/184
f 745/737/185 315/738/185 316/739/185 748/740/185
f 315/741/186 313/742/186 314/743/186 316/744/186
f 746/745/187 313/746/187 315/747/187 745/748/187
f 748/749/188 316/750/188 314/751/188 747/752/188
f 317/753/189 318/754/189 319/755/189 320/756/189
f 321/757/190 322/758/190 323/759/190
f 324/760/191 325/761/191 326/762/191 327/763/191
f 328/764/192 321/765/192 329/766/192 330/767/192
f 331/768/193 332/769/193 333/770/193 334/771/193
f 335/772/194 336/773/194 337/774/194
f 338/775/195 339/776/195 340/777/195 341/778/195
f 342/779/196 335/780/196 343/781/196 344/782/196
f 325/783/197 324/784/197 345/785/197 346/786/197
f 347/787/198 348/788/198 349/789/198 350/790/198
f 351/791/199 352/792/199 353/793/199 354/794/199
f 352/795/200 355/796/200 356/797/200 353/798/200
f 355/799/201 357/800/201 358/801/201 356/802/201
f 357/803/202 351/804/202 354/805/202 358/806/202
f 356/807/203 358/808/203 354/809/203 353/810/203
f 359/811/204 360/812/204 361/813/204 362/814/204
f 360/815/205 363/816/205 364/817/205 361/818/205
f 363/819/206 365/820/206 366/821/206 364/822/206
f 365/823/207 359/824/207 362/825/207 366/826/207
f 367/827/208 368/828/208 369/829/208 370/830/208
f 371/831/209 372/832/209 373/833/209 374/834/209
f 375/835/210 371/836/210 374/837/210 376/838/210
f 377/839/211 367/840/211 370/841/211 378/842/211
f 379/843/212 380/844/212 381/845/212 382/846/212
f 383/847/213 384/848/213 385/849/213 386/850/213
f 368/851/214 387/852/214 388/853/214 369/854/214
f 385/855/215 384/856/215 381/857/215 380/858/215
f 386/859/216 385/860/216 380/861/216 379/862/216
f 389/863/217 390/864/217 391/865/217 392/866/217
f 393/867/218 389/868/218 392/869/218 394/870/218
f 383/871/219 386/872/219 379/873/219 382/874/219
f 384/875/220 383/876/220 382/877/220 381/878/220
f 390/879/221 395/880/221 396/881/221 391/882/221
f 397/883/222 375/884/222 376/885/222 398/886/222
f 399/887/223 400/888/223 401/889/223 402/890/223
f 403/891/224 399/892/224 402/893/224 404/894/224
f 372/895/225 397/896/225 398/897/225 373/898/225
f 405/899/226 403/900/226 404/901/226 406/902/226
f 400/903/227 405/904/227 406/905/227 401/906/227
f 407/907/228 408/908/228 409/909/228 410/910/228
f 411/911/229 412/912/229 413/913/229 414/914/229
f 415/915/230 416/916/230 417/917/230 418/918/230
f 419/919/231 420/920/231 421/921/231 422/922/231
f 423/923/232 407/924/232 410/925/232 424/926/232
f 425/927/233 423/928/233 424/929/233 426/930/233
f 427/931/234 415/932/234 418/933/234 428/934/234
f 429/935/235 419/936/235 422/937/235 430/938/235
f 431/939/236 429/940/236 430/941/236 432/942/236
f 433/943/237 427/944/237 428/945/237 434/946/237
f 435/947/238 436/948/238 437/949/238 438/950/238
f 439/951/239 435/952/239 438/953/239 440/954/239
f 441/955/240 442/956/240 414/957/240 413/958/240
f 412/959/241 411/960/241 443/961/241 444/962/241
f 443/963/242 411/964/242 414/965/242 442/966/242
f 445/967/243 439/968/243 440/969/243 446/970/243
f 420/971/244 431/972/244 432/973/244 421/974/244
f 444/975/245 443/976/245 442/977/245 441/978/245
f 412/979/246 444/980/246 441/981/246 413/982/246
f 416/983/247 433/984/247 434/985/247 417/986/247
f 447/987/248 448/988/248 449/989/248 450/990/248
f 448/991/249 451/992/249 452/993/249 449/994/249
f 451/995/250 453/996/250 454/997/250 452/998/250
f 453/999/251 447/1000/251 450/1001/251 454/1002/251
f 455/1003/252 456/1004/252 457/1005/252 458/1006/252
f 456/1007/253 459/1008/253 460/1009/253 457/1010/253
f 459/1011/254 461/1012/254 462/1013/254 460/1014/254
f 461/1015/255 455/1016/255 458/1017/255 462/1018/255
f 456/1019/256 455/1020/256 461/1021/256 459/1022/256
f 460/1023/257 462/1024/257 458/1025/257 457/1026/257
f 84/1027/258 83/1028/258 360/1029/258 359/1030/258
f 83/1031/259 86/1032/259 363/1033/259 360/1034/259
f 86/1035/260 88/1036/260 365/1037/260 363/1038/260
f 88/1039/261 84/1040/261 359/1041/261 365/1042/261
f 463/1043/262 464/1044/262 465/1045/262 466/1046/262
f 464/1047/263 467/1048/263 468/1049/263 465/1050/263
f 467/1051/264 469/1052/264 470/1053/264 468/1054/264
f 469/1055/265 463/1056/265 466/1057/265 470/1058/265
f 192/1059/266 191/1060/266 464/1061/266 463/1062/266
f 191/1063/267 194/1064/267 467/1065/267 464/1066/267
f 194/1067/268 196/1068/268 469/1069/268 467/1070/268
f 196/1071/269 192/1072/269 463/1073/269 469/1074/269
f 471/1075/270 472/1076/270 473/1077/270 474/1078/270
f 472/1079/271 475/1080/271 476/1081/271 473/1082/271
f 475/1083/272 477/1084/272 478/1085/272 476/1086/272
f 477/1087/273 471/1088/273 474/1089/273 478/1090/273
f 204/1091/274 203/1092/274 472/1093/274 471/1094/274
f 203/1095/275 206/1096/275 475/1097/275 472/1098/275
f 206/1099/276 208/1100/276 477/1101/276 475/1102/276
f 208/1103/277 204/1104/277 471/1105/277 477/1106/277
f 479/1107/278 480/1108/278 481/1109/278 482/1110/278
f 480/1111/279 483/1112/279 484/1113/279 481/1114/279
f 483/1115/280 485/1116/280 486/1117/280 484/1118/280
f 485/1119/281 479/1120/281 482/1121/281 486/1122/281
f 216/1123/282 215/1124/282 480/1125/282 479/1126/282
f 215/1127/283 218/1128/283 483/1129/283 480/1130/283
f 218/1131/284 220/1132/284 485/1133/284 483/1134/284
f 220/1135/285 216/1136/285 479/1137/285 485/1138/285
f 487/1139/286 488/1140/286 489/1141/286 490/1142/286
f 488/1143/287 491/1144/287 492/1145/287 489/1146/287
f 491/1147/288 493/1148/288 494/1149/288 492/1150/288
f 493/1151/289 487/1152/289 490/1153/289 494/1154/289
f 495/1155/290 496/1156/290 497/1157/290 498/1158/290
f 496/1159/291 499/1160/291 500/1161/291 497/1162/291
f 499/1163/292 501/1164/292 502/1165/292 500/1166/292
f 503/1167/293 504/1168/293 505/1169/293 506/1170/293
f 504/1171/294 507/1172/294 508/1173/294 505/1174/294
f 507/1175/295 509/1176/295 510/1177/295 508/1178/295
f 511/1179/296 512/1180/296 513/1181/296 514/1182/296
f 512/1183/297 515/1184/297 516/1185/297 513/1186/297
f 515/1187/298 517/1188/298 518/1189/298 516/1190/298
f 517/1191/299 511/1192/299 514/1193/299 518/1194/299
f 519/1195/300 520/1196/300 521/1197/300 522/1198/300
f 520/1199/301 523/1200/301 524/1201/301 521/1202/301
f 523/1203/302 525/1204/302 526/1205/302 524/1206/302
f 525/1207/303 519/1208/303 522/1209/303 526/1210/303
f 520/1211/304 519/1212/304 525/1213/304 523/1214/304
f 524/1215/305 526/1216/305 522/1217/305 521/1218/305
f 527/1219/306 528/1220/306 529/1221/306 530/1222/306
f 528/1223/307 531/1224/307 532/1225/307 529/1226/307
f 531/1227/308 533/1228/308 534/1229/308 532/1230/308
f 533/1231/309 527/1232/309 530/1233/309 534/1234/309
f 535/1235/310 536/1236/310 537/1237/310 538/1238/310
f 539/1239/311 540/1240/311 541/1241/311 542/1242/311
f 540/1243/312 535/1244/312 538/1245/312 541/1246/312
f 543/1247/313 544/1248/313 545/1249/313 546/1250/313
f 547/1251/314 548/1252/314 549/1253/314 550/1254/314
f 548/1255/315 543/1256/315 546/1257/315 549/1258/315
f 551/1259/316 552/1260/316 553/1261/316 554/1262/316
f 555/1263/317 556/1264/317 557/1265/317 558/1266/317
f 559/1267/318 560/1268/318 323/1269/318 561/1270/318
f 561/1271/319 323/1272/319 562/1273/319 563/1274/319
f 329/1275/320 321/1276/320 323/1277/320 560/1278/320
f 562/1279/321 323/1280/321 322/1281/321 349/1282/321
f 556/1283/322 551/1284/322 554/1285/322 557/1286/322
f 564/1287/323 565/1288/323 566/1289/323 567/1290/323
f 567/1291/324 566/1292/324 568/1293/324 569/1294/324
f 324/1295/325 327/1296/325 566/1297/325 565/1298/325
f 568/1299/326 566/1300/326 328/1301/326 330/1302/326
f 570/1303/327 571/1304/327 572/1305/327 573/1306/327
f 573/1307/328 572/1308/328 574/1309/328 575/1310/328
f 319/1311/329 318/1312/329 572/1313/329 571/1314/329
f 574/1315/330 572/1316/330 326/1317/330 325/1318/330
f 576/1319/331 577/1320/331 578/1321/331 579/1322/331
f 579/1323/332 578/1324/332 580/1325/332 581/1326/332
f 350/1327/333 582/1328/333 578/1329/333 577/1330/333
f 580/1331/334 578/1332/334 317/1333/334 320/1334/334
f 554/1335/335 553/1336/335 558/1337/335 557/1338/335
f 552/1339/336 555/1340/336 558/1341/336 553/1342/336
f 583/1343/337 584/1344/337 585/1345/337 586/1346/337
f 587/1347/338 588/1348/338 589/1349/338 590/1350/338
f 590/1351/339 589/1352/339 591/1353/339 592/1354/339
f 596/1355/340 597/1356/340 598/1357/340 599/1358/340
f 600/1359/341 595/1360/341 601/1361/341 602/1362/341
f 603/1363/342 604/1364/342 605/1365/342 606/1366/342
f 599/1367/343 598/1368/343 606/1369/343 605/1370/343
f 607/1371/344 608/1372/344 584/1373/344 583/1374/344
f 609/1375/345 610/1376/345 594/1377/345 593/1378/345
f 350/1379/346 349/1380/346 322/1381/346 582/1382/346
f 602/1383/347 601/1384/347 610/1385/347 609/1386/347
f 592/1387/348 591/1388/348 611/1389/348 612/1390/348
f 612/1391/349 611/1392/349 588/1393/349 587/1394/349
f 613/1395/350 614/1396/350 615/1397/350 616/1398/350
f 586/1399/351 585/1400/351 617/1401/351 618/1402/351
f 619/1403/352 620/1404/352 621/1405/352 622/1406/352
f 614/1407/353 613/1408/353 622/1409/353 621/1410/353
f 607/1411/354 618/1412/354 617/1413/354 608/1414/354
f 616/1415/355 615/1416/355 620/1417/355 619/1418/355
f 604/1419/356 603/1420/356 597/1421/356 596/1422/356
f 555/1423/357 552/1424/357 551/1425/357 556/1426/357
f 623/1427/358 624/1428/358 625/1429/358 626/1430/358
f 627/1431/359 628/1432/359 629/1433/359 630/1434/359
f 631/1435/360 632/1436/360 337/1437/360 633/1438/360
f 633/1439/361 337/1440/361 634/1441/361 635/1442/361
f 343/1443/362 335/1444/362 337/1445/362 632/1446/362
f 634/1447/363 337/1448/363 336/1449/363 636/1450/363
f 628/1451/364 623/1452/364 626/1453/364 629/1454/364
f 637/1455/365 638/1456/365 639/1457/365 640/1458/365
f 640/1459/366 639/1460/366 641/1461/366 642/1462/366
f 338/1463/367 341/1464/367 639/1465/367 638/1466/367
f 641/1467/368 639/1468/368 342/1469/368 344/1470/368
f 643/1471/369 644/1472/369 645/1473/369 646/1474/369
f 646/1475/370 645/1476/370 647/1477/370 648/1478/370
f 333/1479/371 332/1480/371 645/1481/371 644/1482/371
f 647/1483/372 645/1484/372 340/1485/372 339/1486/372
f 649/1487/373 650/1488/373 651/1489/373 652/1490/373
f 652/1491/374 651/1492/374 653/1493/374 654/1494/374
f 655/1495/375 656/1496/375 651/1497/375 650/1498/375
f 653/1499/376 651/1500/376 331/1501/376 334/1502/376
f 626/1503/377 625/1504/377 630/1505/377 629/1506/377
f 624/1507/378 627/1508/378 630/1509/378 625/1510/378
f 657/1511/379 658/1512/379 659/1513/379 660/1514/379
f 661/1515/380 662/1516/380 663/1517/380 664/1518/380
f 664/1519/381 663/1520/381 665/1521/381 666/1522/381
f 667/1523/382 668/1524/382 669/1525/382 670/1526/382
f 671/1527/383 672/1528/383 673/1529/383 674/1530/383
f 670/1531/384 669/1532/384 675/1533/384 676/1534/384
f 677/1535/385 678/1536/385 679/1537/385 680/1538/385
f 674/1539/386 673/1540/386 680/1541/386 679/1542/386
f 681/1543/387 682/1544/387 658/1545/387 657/1546/387
f 683/1547/388 684/1548/388 668/1549/388 667/1550/388
f 636/1551/389 655/1552/389 685/1553/389 686/1554/389
f 676/1555/390 675/1556/390 684/1557/390 683/1558/390
f 666/1559/391 665/1560/391 687/1561/391 688/1562/391
f 688/1563/392 687/1564/392 662/1565/392 661/1566/392
f 689/1567/393 690/1568/393 691/1569/393 692/1570/393
f 660/1571/394 659/1572/394 693/1573/394 694/1574/394
f 695/1575/395 696/1576/395 697/1577/395 698/1578/395
f 698/1579/396 697/1580/396 690/1581/396 689/1582/396
f 681/1583/397 694/1584/397 693/1585/397 682/1586/397
f 692/1587/398 691/1588/398 696/1589/398 695/1590/398
f 678/1591/399 677/1592/399 672/1593/399 671/1594/399
f 627/1595/400 624/1596/400 623/1597/400 628/1598/400
f 580/1599/401 320/1600/401 655/1601/401 650/1602/401
f 581/1603/402 580/1604/402 650/1605/402 649/1606/402
f 350/1607/403 577/1608/403 653/1609/403 334/1610/403
f 577/1611/404 576/1612/404 654/1613/404 653/1614/404
f 324/1615/405 565/1616/405 641/1617/405 344/1618/405
f 565/1619/406 564/1620/406 642/1621/406 641/1622/406
f 569/1623/407 568/1624/407 638/1625/407 637/1626/407
f 568/1627/408 330/1628/408 338/1629/408 638/1630/408
f 575/1631/409 574/1632/409 632/1633/409 631/1634/409
f 574/1635/410 325/1636/410 343/1637/410 632/1638/410
f 571/1639/411 634/1640/411 636/1641/411 319/1642/411
f 571/1643/412 570/1644/412 635/1645/412 634/1646/412
f 678/1647/413 605/1648/413 604/1649/413 679/1650/413
f 563/1651/414 562/1652/414 644/1653/414 643/1654/414
f 562/1655/415 349/1656/415 333/1657/415 644/1658/415
f 560/1659/416 559/1660/416 648/1661/416 647/1662/416
f 329/1663/417 560/1664/417 647/1665/417 339/1666/417
f 329/1667/418 604/1668/418 559/1669/418 560/1670/418
f 655/1671/419 636/1672/419 336/1673/419 656/1674/419
f 345/1675/420 344/1676/420 343/1677/420 346/1678/420
f 699/1679/421 700/1680/421 339/1681/421 338/1682/421
f 347/1683/422 334/1684/422 333/1685/422 348/1686/422
f 685/1687/423 320/1688/423 319/1689/423 686/1690/423
f 699/1691/424 330/1692/424 329/1693/424 700/1694/424
f 613/1695/425 661/1696/425 664/1697/425 622/1698/425
f 701/1699/426 683/1700/426 667/1701/426 702/1702/426
f 703/1703/427 676/1704/427 683/1705/427 701/1706/427
f 704/1707/428 681/1708/428 657/1709/428 705/1710/428
f 590/1711/429 698/1712/429 689/1713/429 587/1714/429
f 622/1715/430 664/1716/430 666/1717/430 619/1718/430
f 702/1719/431 667/1720/431 670/1721/431 706/1722/431
f 605/1723/432 678/1724/432 671/1725/432 599/1726/432
f 706/1727/433 670/1728/433 676/1729/433 703/1730/433
f 707/1731/434 694/1732/434 681/1733/434 704/1734/434
f 619/1735/435 666/1736/435 688/1737/435 616/1738/435
f 592/1739/436 695/1740/436 698/1741/436 590/1742/436
f 708/1743/437 660/1744/437 694/1745/437 707/1746/437
f 599/1747/438 671/1748/438 674/1749/438 596/1750/438
f 616/1751/439 688/1752/439 661/1753/439 613/1754/439
f 587/1755/440 689/1756/440 692/1757/440 612/1758/440
f 705/1759/441 657/1760/441 660/1761/441 708/1762/441
f 612/1763/442 692/1764/442 695/1765/442 592/1766/442
f 596/1767/443 674/1768/443 679/1769/443 604/1770/443
f 709/1771/444 710/1772/444 711/1773/444 712/1774/444
f 713/1775/445 714/1776/445 715/1777/445 716/1778/445
f 717/1779/446 718/1780/446 719/1781/446 720/1782/446
f 721/1783/447 722/1784/447 723/1785/447 724/1786/447
f 725/1787/448 726/1788/448 727/1789/448 728/1790/448
f 729/1791/449 730/1792/449 731/1793/449 732/1794/449
f 733/1795/450 734/1796/450 735/1797/450 736/1798/450
f 737/1799/451 738/1800/451 739/1801/451 740/1802/451
f 741/1803/452 742/1804/452 743/1805/452 744/1806/452
f 747/1807/453 746/1808/453 745/1809/453 748/1810/453