# Made in Blockbench 5.1.6
mtllib steam_turbine_mirrored.mtl

o cube
v 0.125 0.625 11.5625
v 0.125 0.3125 11.5625
v 0.125 0.625 10.75
v 0.125 0.3125 10.75
v 0.25 0.625 11.5625
v 0.25 0.3125 11.5625
v 0.25 0.625 10.75
v 0.25 0.3125 10.75
v 1.8125 1.6875 3
v 1.8125 1.6875 1
v 0.5 2 3
v 0.5 2 1
v -0.8125 1.6875 3
v -0.8125 1.6875 1
v 2.5 0 3
v 2.5 0 1
v -1.5 0 1
v -1.5 0 3
v -0.8125 1.6875 2
v 0.5 2 2
v 1.8125 1.6875 2
v 2.5 0 2
v -1.5 0 2
v 2.5 0.375 2
v 2.5 0.375 3
v -1.5 0.375 3
v -1.5 0.375 2
v -1.5 0.375 1
v 2.5 0.375 1
v 1.8125 1.6875 3
v 0.5 2 3
v -0.8125 1.6875 3
v 2.5 0 3
v -1.5 0 3
v 2.5 0.375 3
v -1.5 0.375 3
v 1.8125 1.6875 1
v 0.5 2 1
v -0.8125 1.6875 1
v 2.5 0 1
v -1.5 0 1
v 2.5 0.375 1
v -1.5 0.375 1
v 1.8125 1.6875 6
v 0.5 2 6
v -0.8125 1.6875 6
v 2.5 0 6
v -1.5 0 6
v 2.5 0.375 6
v -1.5 0.375 6
v 1.8125 1.6875 4
v 0.5 2 4
v -0.8125 1.6875 4
v 2.5 0 4
v -1.5 0 4
v 2.5 0.375 4
v -1.5 0.375 4
v 1.8125 1.6875 6
v 1.8125 1.6875 4
v 0.5 2 6
v 0.5 2 4
v -0.8125 1.6875 6
v -0.8125 1.6875 4
v 2.5 0 6
v 2.5 0 4
v -1.5 0 4
v -1.5 0 6
v -0.8125 1.6875 5
v 0.5 2 5
v 1.8125 1.6875 5
v 2.5 0 5
v -1.5 0 5
v 2.5 0.375 5
v 2.5 0.375 6
v -1.5 0.375 6
v -1.5 0.375 5
v -1.5 0.375 4
v 2.5 0.375 4
v 1.484375 1.265625 4
v 1.484375 1.265625 3
v 0.5 1.5 4
v 0.5 1.5 3
v -0.484375 1.265625 4
v -0.484375 1.265625 3
v 2 0 4
v 2 0 3
v -1 0 3
v -1 0 4
v 2 0.28125 4
v -1 0.28125 4
v -1 0.28125 3
v 2 0.28125 3
v 0.5 1.5 9.375
v 0.5 1.5 8
v -0.484375 1.265625 9.375
v -0.484375 1.265625 8
v -1 0 8
v -1 0 9.375
v -1 0.28125 9.375
v -1 0.28125 8
v 0.5 1.5 8
v 1.484375 1.265625 9.375
v 1.484375 1.265625 8
v 2 0 8
v 2 0 9.375
v 2 0.28125 9.375
v 2 0.28125 8
v 0.5 1.5 8
v -0.484375 1.265625 8
v -1 0 8
v -1 0.28125 8
v 1.484375 1.265625 8
v 2 0 8
v 2 0.28125 8
v 0.5 1.5 9.375
v -0.484375 1.265625 9.375
v -1 0 9.375
v -1 0.28125 9.375
v 1.484375 1.265625 9.375
v 2 0 9.375
v 2 0.28125 9.375
v -0.109375 0.953125 11
v -0.109375 0.953125 9
v 0.5 1.125 11
v 0.5 1.125 9
v -0.5 0 11
v -0.5 0 9
v -0.5 0.28125 11
v -0.5 0.28125 9
v 1.109375 0.953125 11
v 1.109375 0.953125 9
v 1.5 0 11
v 1.5 0 9
v 1.5 0.28125 11
v 1.5 0.28125 9
v -0.109375 0.953125 11
v -0.5 0 11
v -0.5 0.28125 11
v 1.109375 0.953125 11
v 1.5 0 11
v 1.5 0.28125 11
v 0.5 0.953125 11
v 0.5 0.28125 11
v 0.5 0 11
v 2 0 3
v 2 0 4
v 2 -1 3
v 2 -1 4
v -1 0 3
v -1 0 4
v -1 -1 3
v -1 -1 4
v 2.5 0 1
v 2.5 0 3
v 2.5 -1 1
v 2.5 -1 3
v -1.5 0 1
v -1.5 0 3
v -1.5 -1 1
v -1.5 -1 3
v 2.5 0 4
v 2.5 0 6
v 2.5 -1 4
v 2.5 -1 6
v -1.5 0 4
v -1.5 0 6
v -1.5 -1 4
v -1.5 -1 6
v 2.0625 1.33203125 1.6875
v 2.0625 1.33203125 2.3125
v 1.94921875 1.2734375 1.6875
v 1.94921875 1.2734375 2.3125
v 2.3515625 0.78125 1.6875
v 2.3515625 0.78125 2.3125
v 2.2421875 0.72265625 1.6875
v 2.2421875 0.72265625 2.3125
v -1.0625 1.33203125 1.6875
v -1.0625 1.33203125 2.3125
v -0.94921875 1.2734375 1.6875
v -0.94921875 1.2734375 2.3125
v -1.3515625 0.78125 1.6875
v -1.3515625 0.78125 2.3125
v -1.2421875 0.72265625 1.6875
v -1.2421875 0.72265625 2.3125
v -1.0625 1.33203125 4.6875
v -1.0625 1.33203125 5.3125
v -0.94921875 1.2734375 4.6875
v -0.94921875 1.2734375 5.3125
v -1.3515625 0.78125 4.6875
v -1.3515625 0.78125 5.3125
v -1.2421875 0.72265625 4.6875
v -1.2421875 0.72265625 5.3125
v 2.0625 1.33203125 4.6875
v 2.0625 1.33203125 5.3125
v 1.94921875 1.2734375 4.6875
v 1.94921875 1.2734375 5.3125
v 2.3515625 0.78125 4.6875
v 2.3515625 0.78125 5.3125
v 2.2421875 0.72265625 4.6875
v 2.2421875 0.72265625 5.3125
v 1 3.5 2.9375
v 1 3.5 7.9375
v 1 2.5 2.9375
v 1 2.5 7.9375
v 0 3.5 2.9375
v 0 3.5 7.9375
v 0 2.5 2.9375
v 0 2.5 7.9375
v 0.25 2.75 8.4375
v 0.75 2.75 8.4375
v 0.25 2.75 8.9375
v 0.75 2.75 8.9375
v 0.25 1.5625 8.4375
v 0.75 1.5625 8.4375
v 0.75 1.5625 8.9375
v 0.25 1.5625 8.9375
v 0.75 3.25 8.4375
v 0.75 3.25 8.9375
v 0.25 3.25 8.4375
v 0.25 3.25 8.9375
v 0.25 2.75 8.0625
v 0.75 2.75 8.0625
v 0.75 3.25 8.0625
v 0.25 3.25 8.0625
v 0.75 3.25 8.4375
v 0.25 3.25 8.4375
v 0.25 2.75 8.4375
v 0.75 2.75 8.4375
v 0.25 2.5 3.25
v 0.75 2.5 3.25
v 0.25 2.5 3.75
v 0.75 2.5 3.75
v 0.25 1.5 3.25
v 0.75 1.5 3.25
v 0.75 1.5 3.75
v 0.25 1.5 3.75
v 0.875 1.5625 8.3125
v 0.875 1.5625 9.0625
v 0.875 1.375 8.3125
v 0.875 1.375 9.0625
v 0.125 1.5625 8.3125
v 0.125 1.5625 9.0625
v 0.125 1.375 8.3125
v 0.125 1.375 9.0625
v 0.875 1.5625 3.125
v 0.875 1.5625 3.875
v 0.875 1.375 3.125
v 0.875 1.375 3.875
v 0.125 1.5625 3.125
v 0.125 1.5625 3.875
v 0.125 1.375 3.125
v 0.125 1.375 3.875
v 0.75 0.25 11.75
v 0.75 0.75 11.25
v 0.75 0.25 11.25
v 0.25 0.25 11.75
v 0.25 0.25 11.25
v 0.25 0.75 11.75
v 0.25 0.75 11.25
v 0.75 0.75 11.9375
v 0.75 0.25 11.9375
v 0.25 0.25 11.9375
v 0.25 0.75 11.9375
v 0.25 0.25 11.75
v 0.75 0.75 11.75
v 0.75 0.25 11.75
v 0.25 1.25 11.75
v 0.25 1.25 11.25
v 0.75 1.25 11.25
v 0.875 0.875 12.0625
v 0.875 0.125 12.0625
v 0.875 0.875 11.9375
v 0.875 0.125 11.9375
v 0.125 0.875 12.0625
v 0.125 0.125 12.0625
v 0.125 0.875 11.9375
v 0.125 0.125 11.9375
v 0.75 1.75 11.25
v 0.25 1.25 11.25
v 0.25 1.75 11.25
v 0.25 1.75 11.75
v 0.25 1.25 11.75
v 1.3125 1.25 11.25
v 1.3125 1.75 11.25
v 1.3125 1.75 11.75
v 1.3125 1.25 11.75
v 0.75 1.75 11.75
v 0.75 1.25 11.75
v 0.75 1.25 11.25
v 0.75 1.75 11.25
v 1.5 0.875 10.1875
v 1.5 0.375 10.1875
v 2 0.875 10.1875
v 2 0.375 10.1875
v 1.5 0.375 9.6875
v 2 0.375 9.6875
v 1.5 0.875 9.6875
v 2 0.875 9.6875
v 0.75 0.875 10.1875
v 0.75 0.375 10.1875
v 0.75 0.375 9.6875
v 0.75 0.875 9.6875
v 2 0.875 10.1875
v 2 0.375 10.1875
v 1.5 0.875 11.25
v 2 0.375 11.25
v 1.5 0.375 11.25
v 1.5 0.875 11.25
v 1.5 0.375 11.25
v 2 0.875 11.25
v 2 0.375 11.25
v 1.5 0.375 11.75
v 2 0.375 11.75
v 1.5 0.875 11.75
v 2 0.875 11.75
v 1.5 1.25 11.75
v 2 1.25 11.75
v 2 1.25 11.25
v 1.5 1.25 11.25
v 1.5 1.75 11.25
v 2 1.25 11.25
v 2 1.75 11.25
v 1.5 1.75 11.75
v 2 1.75 11.75
v 1.5 1.25 11.75
v 2 1.25 11.75
v 1.3125 1.25 11.25
v 1.3125 1.75 11.25
v 1.5 1.75 11.75
v 1.5 1.25 11.75
v 1.5 1.25 11.25
v 1.5 1.75 11.25
v 0.875 3.375 8.0625
v 0.875 2.625 8.0625
v 0.875 3.375 7.9375
v 0.875 2.625 7.9375
v 0.125 3.375 8.0625
v 0.125 2.625 8.0625
v 0.125 3.375 7.9375
v 0.125 2.625 7.9375
v 2.125 1 10.75
v 2.125 0.25 10.75
v 2.125 1 10.625
v 2.125 0.25 10.625
v 1.375 1 10.75
v 1.375 0.25 10.75
v 1.375 1 10.625
v 1.375 0.25 10.625
v 2.125 1 10.5625
v 2.125 0.25 10.5625
v 2.125 1 10.625
v 2.125 0.25 10.625
v 1.375 1 10.5625
v 1.375 0.25 10.5625
v 1.375 1 10.625
v 1.375 0.25 10.625
v 1.1875 1.875 11.875
v 1.1875 1.125 11.875
v 1.3125 1.875 11.875
v 1.3125 1.125 11.875
v 1.1875 1.875 11.125
v 1.1875 1.125 11.125
v 1.3125 1.875 11.125
v 1.3125 1.125 11.125
v 1.375 1.875 11.875
v 1.375 1.125 11.875
v 1.3125 1.875 11.875
v 1.3125 1.125 11.875
v 1.375 1.875 11.125
v 1.375 1.125 11.125
v 1.3125 1.875 11.125
v 1.3125 1.125 11.125
v 0.875 2.375 3.125
v 0.875 2.375 3.875
v 0.875 2.5 3.125
v 0.875 2.5 3.875
v 0.125 2.375 3.125
v 0.125 2.375 3.875
v 0.125 2.5 3.125
v 0.125 2.5 3.875
v 2 0 8
v 2 0 9.375
v 2 -1 8
v 2 -1 9.375
v -1 0 8
v -1 0 9.375
v -1 -1 8
v -1 -1 9.375
v -1 0 8.6875
v -1 -1 8.6875
v 2 -1 8.6875
v 2 0 8.6875
v -0.625 -1 8.6875
v -0.625 -1 8.375
v 1.625 -1 8.375
v 1.625 -1 8.6875
v 1.5 0 9.375
v 1.5 0 11
v 1.5 -1 9.375
v 1.5 -1 11
v -0.5 0 9.375
v -0.5 0 11
v -0.5 -1 9.375
v -0.5 -1 11
v 0.5 -1 11
v 0.5 -1 9.375
v 1 1.5 7
v 1 1.5 8
v 1.5 1 7
v 1.5 1 8
v 0 1.5 7
v 0 1.5 8
v -0.5 1 7
v -0.5 1 8
v 1 1 8
v 1 1.5 8
v 0 1 8
v 0 1.5 8
v 0 1 7
v 0 1.5 7
v 1 1 7
v 1 1.5 7
v 1.5 1 7
v 1.5 -1 7
v -0.5 1 7
v -0.5 -1 7
v 1.5 1 8
v 1.5 -1 8
v -0.5 1 8
v -0.5 -1 8
v 1.6640625 0.9140625 9.125
v 1.6640625 0.9140625 8.25
v 1.953125 0.359375 9.125
v 1.953125 0.359375 8.25
v 1.71875 0.94140625 9.125
v 1.71875 0.94140625 8.25
v 2.01171875 0.390625 9.125
v 2.01171875 0.390625 8.25
v -0.5 1 11.875
v -1 1 11.875
v -0.5 0 11.875
v -1 0 11.875
v -0.5 1 11.125
v -1 1 11.125
v -0.5 0 11.125
v -1 0 11.125
v -1 1 11.5
v -0.5 1 11.5
v -0.5 1 11.875
v -0.5 0 11.875
v -0.5 1 11.125
v -0.5 0 11.125
v 1 1 11
v 1 1 11.1875
v 1 0 11
v 1 0 11.1875
v 0 1 11
v 0 1 11.1875
v 0 0 11
v 0 0 11.1875
v 0.875 0.625 11.5625
v 0.875 0.3125 11.5625
v 0.875 0.625 10.75
v 0.875 0.3125 10.75
v 0.75 0.625 11.5625
v 0.75 0.3125 11.5625
v 0.75 0.625 10.75
v 0.75 0.3125 10.75
v 2 0 11
v 2 0 12
v 2 -1 11
v 2 -1 12
v -1 0 11
v -1 0 12
v -1 -1 11
v -1 -1 12
v 1.546875 0.32421875 9.5625
v 1.546875 0.32421875 10.3125
v 1.4375 0.2578125 9.5625
v 1.4375 0.2578125 10.3125
v 1.1640625 0.96875 9.5625
v 1.1640625 0.96875 10.3125
v 1.05859375 0.90234375 9.5625
v 1.05859375 0.90234375 10.3125
vt 0.7259615384615384 0.8125
vt 0.7884615384615384 0.8125
vt 0.7884615384615384 0.8365384615384616
vt 0.7259615384615384 0.8365384615384616
vt 0.7259615384615384 0.8125
vt 0.7884615384615384 0.8125
vt 0.7884615384615384 0.8365384615384616
vt 0.7259615384615384 0.8365384615384616
vt 0.7644230769230769 0.8173076923076923
vt 0.7884615384615384 0.8173076923076923
vt 0.7884615384615384 0.8076923076923077
vt 0.7644230769230769 0.8076923076923077
vt 0.7644230769230769 0.8076923076923077
vt 0.7884615384615384 0.8076923076923077
vt 0.7884615384615384 0.8173076923076923
vt 0.7644230769230769 0.8173076923076923
vt 0.7259615384615384 0.8173076923076923
vt 0.7884615384615384 0.8173076923076923
vt 0.7884615384615384 0.8076923076923077
vt 0.7259615384615384 0.8076923076923077
vt 0.7259615384615384 0.8076923076923077
vt 0.7884615384615384 0.8076923076923077
vt 0.7884615384615384 0.8173076923076923
vt 0.7259615384615384 0.8173076923076923
vt 0.07692307692307693 0.9855769230769231
vt 0.07692307692307693 0.8798076923076923
vt 0 0.8798076923076923
vt 0 0.9855769230769231
vt 0.23557692307692307 0.8798076923076923
vt 0.23557692307692307 0.9855769230769231
vt 0.3125 0.9855769230769231
vt 0.3125 0.8798076923076923
vt 0.23557692307692307 0.7932692307692308
vt 0.3125 0.7932692307692308
vt 0.3125 0.7644230769230769
vt 0.23557692307692307 0.7644230769230769
vt 0 0.7932692307692308
vt 0.07692307692307693 0.7932692307692308
vt 0.07692307692307693 0.7644230769230769
vt 0 0.7644230769230769
vt 0.23557692307692307 0.9855769230769231
vt 0.23557692307692307 0.8798076923076923
vt 0.15865384615384615 0.8798076923076923
vt 0.15865384615384615 0.9855769230769231
vt 0.07692307692307693 0.8798076923076923
vt 0.07692307692307693 0.9855769230769231
vt 0.15384615384615385 0.9855769230769231
vt 0.15384615384615385 0.8798076923076923
vt 0.07692307692307693 0.7932692307692308
vt 0.15384615384615385 0.7932692307692308
vt 0.15384615384615385 0.7644230769230769
vt 0.07692307692307693 0.7644230769230769
vt 0.15865384615384615 0.7932692307692308
vt 0.23557692307692307 0.7932692307692308
vt 0.23557692307692307 0.7644230769230769
vt 0.15865384615384615 0.7644230769230769
vt 0 0.9086538461538461
vt 0.07692307692307693 0.9086538461538461
vt 0.07692307692307693 0.7932692307692308
vt 0 0.7932692307692308
vt 0.15384615384615385 0.7932692307692308
vt 0.07692307692307693 0.7932692307692308
vt 0.07692307692307693 0.9086538461538461
vt 0.15384615384615385 0.9086538461538461
vt 0.15865384615384615 0.9086538461538461
vt 0.23557692307692307 0.9086538461538461
vt 0.23557692307692307 0.7932692307692308
vt 0.15865384615384615 0.7932692307692308
vt 0.3125 0.7932692307692308
vt 0.23557692307692307 0.7932692307692308
vt 0.23557692307692307 0.9086538461538461
vt 0.3125 0.9086538461538461
vt 0.052884615384615384 0.4182692307692307
vt 0.15384615384615385 0.4423076923076923
vt 0.2548076923076923 0.4182692307692307
vt 0 0.3173076923076923
vt 0.052884615384615384 0.4182692307692307
vt 0.2548076923076923 0.4182692307692307
vt 0.3076923076923077 0.3173076923076923
vt 0 0.3173076923076923
vt 0.3076923076923077 0.3173076923076923
vt 0.3076923076923077 0.28846153846153844
vt 0 0.28846153846153844
vt 0.15384615384615385 0.4423076923076923
vt 0.052884615384615384 0.4182692307692307
vt 0.2548076923076923 0.4182692307692307
vt 0.2548076923076923 0.4182692307692307
vt 0.052884615384615384 0.4182692307692307
vt 0 0.3173076923076923
vt 0.3076923076923077 0.3173076923076923
vt 0.3076923076923077 0.28846153846153844
vt 0.3076923076923077 0.3173076923076923
vt 0 0.3173076923076923
vt 0 0.28846153846153844
vt 0.052884615384615384 0.4182692307692307
vt 0.15384615384615385 0.4423076923076923
vt 0.2548076923076923 0.4182692307692307
vt 0 0.3173076923076923
vt 0.052884615384615384 0.4182692307692307
vt 0.2548076923076923 0.4182692307692307
vt 0.3076923076923077 0.3173076923076923
vt 0 0.3173076923076923
vt 0.3076923076923077 0.3173076923076923
vt 0.3076923076923077 0.28846153846153844
vt 0 0.28846153846153844
vt 0.15384615384615385 0.4423076923076923
vt 0.052884615384615384 0.4182692307692307
vt 0.2548076923076923 0.4182692307692307
vt 0.2548076923076923 0.4182692307692307
vt 0.052884615384615384 0.4182692307692307
vt 0 0.3173076923076923
vt 0.3076923076923077 0.3173076923076923
vt 0.3076923076923077 0.28846153846153844
vt 0.3076923076923077 0.3173076923076923
vt 0 0.3173076923076923
vt 0 0.28846153846153844
vt 0.07692307692307693 0.9855769230769231
vt 0.07692307692307693 0.8798076923076923
vt 0 0.8798076923076923
vt 0 0.9855769230769231
vt 0.23557692307692307 0.8798076923076923
vt 0.23557692307692307 0.9855769230769231
vt 0.3125 0.9855769230769231
vt 0.3125 0.8798076923076923
vt 0.23557692307692307 0.7932692307692308
vt 0.3125 0.7932692307692308
vt 0.3125 0.7644230769230769
vt 0.23557692307692307 0.7644230769230769
vt 0 0.7932692307692308
vt 0.07692307692307693 0.7932692307692308
vt 0.07692307692307693 0.7644230769230769
vt 0 0.7644230769230769
vt 0.23557692307692307 0.9855769230769231
vt 0.23557692307692307 0.8798076923076923
vt 0.15865384615384615 0.8798076923076923
vt 0.15865384615384615 0.9855769230769231
vt 0.07692307692307693 0.8798076923076923
vt 0.07692307692307693 0.9855769230769231
vt 0.15384615384615385 0.9855769230769231
vt 0.15384615384615385 0.8798076923076923
vt 0.07692307692307693 0.7932692307692308
vt 0.15384615384615385 0.7932692307692308
vt 0.15384615384615385 0.7644230769230769
vt 0.07692307692307693 0.7644230769230769
vt 0.15865384615384615 0.7932692307692308
vt 0.23557692307692307 0.7932692307692308
vt 0.23557692307692307 0.7644230769230769
vt 0.15865384615384615 0.7644230769230769
vt 0 0.9086538461538461
vt 0.07692307692307693 0.9086538461538461
vt 0.07692307692307693 0.7932692307692308
vt 0 0.7932692307692308
vt 0.15384615384615385 0.7932692307692308
vt 0.07692307692307693 0.7932692307692308
vt 0.07692307692307693 0.9086538461538461
vt 0.15384615384615385 0.9086538461538461
vt 0.15865384615384615 0.9086538461538461
vt 0.23557692307692307 0.9086538461538461
vt 0.23557692307692307 0.7932692307692308
vt 0.15865384615384615 0.7932692307692308
vt 0.3125 0.7932692307692308
vt 0.23557692307692307 0.7932692307692308
vt 0.23557692307692307 0.9086538461538461
vt 0.3125 0.9086538461538461
vt 0.39903846153846156 0.6009615384615384
vt 0.39903846153846156 0.6778846153846154
vt 0.47596153846153844 0.6778846153846154
vt 0.47596153846153844 0.6009615384615384
vt 0.39903846153846156 0.5192307692307692
vt 0.39903846153846156 0.5961538461538461
vt 0.47596153846153844 0.5961538461538461
vt 0.47596153846153844 0.5192307692307692
vt 0.47596153846153844 0.6538461538461539
vt 0.39903846153846156 0.6538461538461539
vt 0.39903846153846156 0.6778846153846154
vt 0.47596153846153844 0.6778846153846154
vt 0.47596153846153844 0.5144230769230769
vt 0.39903846153846156 0.5144230769230769
vt 0.39903846153846156 0.5384615384615384
vt 0.47596153846153844 0.5384615384615384
vt 0.47596153846153844 0.5673076923076923
vt 0.39903846153846156 0.5673076923076923
vt 0.39903846153846156 0.6538461538461539
vt 0.47596153846153844 0.6538461538461539
vt 0.39903846153846156 0.625
vt 0.47596153846153844 0.625
vt 0.47596153846153844 0.5384615384615384
vt 0.39903846153846156 0.5384615384615384
vt 0.46634615384615385 0.22596153846153844
vt 0.46634615384615385 0.3028846153846154
vt 0.5721153846153846 0.3028846153846154
vt 0.5721153846153846 0.22596153846153844
vt 0.46634615384615385 0.16826923076923073
vt 0.46634615384615385 0.2548076923076923
vt 0.5721153846153846 0.2548076923076923
vt 0.5721153846153846 0.16826923076923073
vt 0.46634615384615385 0.14423076923076927
vt 0.46634615384615385 0.16826923076923073
vt 0.5721153846153846 0.16826923076923073
vt 0.5721153846153846 0.14423076923076927
vt 0.5721153846153846 0.29807692307692313
vt 0.46634615384615385 0.29807692307692313
vt 0.46634615384615385 0.22115384615384615
vt 0.5721153846153846 0.22115384615384615
vt 0.5721153846153846 0.2548076923076923
vt 0.46634615384615385 0.2548076923076923
vt 0.46634615384615385 0.16826923076923073
vt 0.5721153846153846 0.16826923076923073
vt 0.5721153846153846 0.16826923076923073
vt 0.46634615384615385 0.16826923076923073
vt 0.46634615384615385 0.14423076923076927
vt 0.5721153846153846 0.14423076923076927
vt 0.23076923076923078 0.043269230769230727
vt 0 0.043269230769230727
vt 0 0.019230769230769273
vt 0.23076923076923078 0.019230769230769273
vt 0.19110576923076922 0.12139423076923073
vt 0.039663461538461536 0.12139423076923073
vt 0 0.044471153846153855
vt 0.23076923076923078 0.044471153846153855
vt 0.19110576923076922 0.12139423076923073
vt 0.11538461538461539 0.13942307692307687
vt 0.039663461538461536 0.12139423076923073
vt 0 0.019230769230769273
vt 0 0.043269230769230727
vt 0.23076923076923078 0.043269230769230727
vt 0.23076923076923078 0.019230769230769273
vt 0 0.044471153846153855
vt 0.039663461538461536 0.12139423076923073
vt 0.19110576923076922 0.12139423076923073
vt 0.23076923076923078 0.044471153846153855
vt 0.11538461538461539 0.13942307692307687
vt 0.19110576923076922 0.12139423076923073
vt 0.039663461538461536 0.12139423076923073
vt 0.15865384615384615 0.8509615384615384
vt 0.3125 0.8509615384615384
vt 0.3125 0.8990384615384616
vt 0.15865384615384615 0.8990384615384616
vt 0.3125 0.7644230769230769
vt 0.3125 0.7884615384615384
vt 0.15865384615384615 0.7884615384615384
vt 0.15865384615384615 0.7644230769230769
vt 0.3125 0.7884615384615384
vt 0.3125 0.8509615384615384
vt 0.15865384615384615 0.8509615384615384
vt 0.15865384615384615 0.7884615384615384
vt 0 0.8990384615384616
vt 0 0.8509615384615384
vt 0.15384615384615385 0.8509615384615384
vt 0.15384615384615385 0.8990384615384616
vt 0.15384615384615385 0.7884615384615384
vt 0 0.7884615384615384
vt 0 0.7644230769230769
vt 0.15384615384615385 0.7644230769230769
vt 0.15384615384615385 0.8509615384615384
vt 0 0.8509615384615384
vt 0 0.7884615384615384
vt 0.15384615384615385 0.7884615384615384
vt 0.07692307692307693 0.47115384615384615
vt 0.07692307692307693 0.4471153846153846
vt 0 0.4471153846153846
vt 0 0.47115384615384615
vt 0.07692307692307693 0.5192307692307692
vt 0.07692307692307693 0.46634615384615385
vt 0 0.46634615384615385
vt 0.030048076923076924 0.5192307692307692
vt 0.08533653846153846 0.5384615384615384
vt 0.08533653846153846 0.5240384615384616
vt 0.038461538461538464 0.5240384615384616
vt 0.09615384615384616 0.46634615384615385
vt 0.09615384615384616 0.5192307692307692
vt 0.14302884615384615 0.5192307692307692
vt 0.17307692307692307 0.46634615384615385
vt 0.09615384615384616 0.4471153846153846
vt 0.09615384615384616 0.47115384615384615
vt 0.17307692307692307 0.47115384615384615
vt 0.17307692307692307 0.4471153846153846
vt 0.13221153846153846 0.5240384615384616
vt 0.08533653846153846 0.5240384615384616
vt 0.08533653846153846 0.5384615384615384
vt 0.7692307692307693 0.3846153846153846
vt 0.8461538461538461 0.3846153846153846
vt 0.8461538461538461 0.3076923076923077
vt 0.7692307692307693 0.3076923076923077
vt 0.7692307692307693 0.3846153846153846
vt 0.8461538461538461 0.3846153846153846
vt 0.8461538461538461 0.3076923076923077
vt 0.7692307692307693 0.3076923076923077
vt 0 1
vt 0.009615384615384616 1
vt 0.009615384615384616 0.9903846153846154
vt 0 0.9903846153846154
vt 0.6057692307692307 0.6730769230769231
vt 0.8365384615384616 0.6730769230769231
vt 0.8365384615384616 0.5961538461538461
vt 0.6057692307692307 0.5961538461538461
vt 0.3076923076923077 0.3076923076923077
vt 0.46153846153846156 0.3076923076923077
vt 0.46153846153846156 0.23076923076923073
vt 0.3076923076923077 0.23076923076923073
vt 0.3076923076923077 0.3076923076923077
vt 0.46153846153846156 0.3076923076923077
vt 0.46153846153846156 0.23076923076923073
vt 0.3076923076923077 0.23076923076923073
vt 0.3076923076923077 0.3846153846153846
vt 0.6153846153846154 0.3846153846153846
vt 0.6153846153846154 0.3076923076923077
vt 0.3076923076923077 0.3076923076923077
vt 0.3076923076923077 0.3850961538461538
vt 0.6153846153846154 0.3850961538461538
vt 0.6153846153846154 0.30817307692307694
vt 0.3076923076923077 0.30817307692307694
vt 0.5673076923076923 0.4423076923076923
vt 0.875 0.4423076923076923
vt 0.875 0.5961538461538461
vt 0.5673076923076923 0.5961538461538461
vt 0.3076923076923077 0.3076923076923077
vt 0.46153846153846156 0.3076923076923077
vt 0.46153846153846156 0.23076923076923073
vt 0.3076923076923077 0.23076923076923073
vt 0.3076923076923077 0.3076923076923077
vt 0.46153846153846156 0.3076923076923077
vt 0.46153846153846156 0.23076923076923073
vt 0.3076923076923077 0.23076923076923073
vt 0.3081730769230769 0.3846153846153846
vt 0.6158653846153845 0.3846153846153846
vt 0.6158653846153845 0.3076923076923077
vt 0.3081730769230769 0.3076923076923077
vt 0.3076923076923077 0.3846153846153846
vt 0.6153846153846154 0.3846153846153846
vt 0.6153846153846154 0.3076923076923077
vt 0.3076923076923077 0.3076923076923077
vt 0.5673076923076923 0.5961538461538461
vt 0.875 0.5961538461538461
vt 0.875 0.4423076923076923
vt 0.5673076923076923 0.4423076923076923
vt 0.32211538461538464 0.9951923076923077
vt 0.32211538461538464 1
vt 0.3701923076923077 1
vt 0.3701923076923077 0.9951923076923077
vt 0.3701923076923077 0.9471153846153846
vt 0.3701923076923077 0.9567307692307693
vt 0.32211538461538464 0.9567307692307693
vt 0.32211538461538464 0.9471153846153846
vt 0.32211538461538464 0.9519230769230769
vt 0.32211538461538464 1
vt 0.3701923076923077 1
vt 0.3701923076923077 0.9519230769230769
vt 0.32211538461538464 0.9519230769230769
vt 0.32211538461538464 1
vt 0.3701923076923077 1
vt 0.3701923076923077 0.9519230769230769
vt 0.375 1
vt 0.36538461538461536 1
vt 0.36538461538461536 0.9519230769230769
vt 0.375 0.9519230769230769
vt 0.3173076923076923 0.9519230769230769
vt 0.3269230769230769 0.9519230769230769
vt 0.3269230769230769 1
vt 0.3173076923076923 1
vt 0.3701923076923077 1
vt 0.32211538461538464 1
vt 0.32211538461538464 0.9951923076923077
vt 0.3701923076923077 0.9951923076923077
vt 0.32211538461538464 0.9567307692307693
vt 0.3701923076923077 0.9567307692307693
vt 0.3701923076923077 0.9471153846153846
vt 0.32211538461538464 0.9471153846153846
vt 0.3701923076923077 1
vt 0.32211538461538464 1
vt 0.32211538461538464 0.9519230769230769
vt 0.3701923076923077 0.9519230769230769
vt 0.3701923076923077 1
vt 0.32211538461538464 1
vt 0.32211538461538464 0.9519230769230769
vt 0.3701923076923077 0.9519230769230769
vt 0.36538461538461536 0.9519230769230769
vt 0.36538461538461536 1
vt 0.375 1
vt 0.375 0.9519230769230769
vt 0.3269230769230769 1
vt 0.3269230769230769 0.9519230769230769
vt 0.3173076923076923 0.9519230769230769
vt 0.3173076923076923 1
vt 0.3701923076923077 1
vt 0.32211538461538464 1
vt 0.32211538461538464 0.9951923076923077
vt 0.3701923076923077 0.9951923076923077
vt 0.32211538461538464 0.9567307692307693
vt 0.3701923076923077 0.9567307692307693
vt 0.3701923076923077 0.9471153846153846
vt 0.32211538461538464 0.9471153846153846
vt 0.3701923076923077 1
vt 0.32211538461538464 1
vt 0.32211538461538464 0.9519230769230769
vt 0.3701923076923077 0.9519230769230769
vt 0.3701923076923077 1
vt 0.32211538461538464 1
vt 0.32211538461538464 0.9519230769230769
vt 0.3701923076923077 0.9519230769230769
vt 0.36538461538461536 0.9519230769230769
vt 0.36538461538461536 1
vt 0.375 1
vt 0.375 0.9519230769230769
vt 0.3269230769230769 1
vt 0.3269230769230769 0.9519230769230769
vt 0.3173076923076923 0.9519230769230769
vt 0.3173076923076923 1
vt 0.32211538461538464 0.9951923076923077
vt 0.32211538461538464 1
vt 0.3701923076923077 1
vt 0.3701923076923077 0.9951923076923077
vt 0.3701923076923077 0.9471153846153846
vt 0.3701923076923077 0.9567307692307693
vt 0.32211538461538464 0.9567307692307693
vt 0.32211538461538464 0.9471153846153846
vt 0.32211538461538464 0.9519230769230769
vt 0.32211538461538464 1
vt 0.3701923076923077 1
vt 0.3701923076923077 0.9519230769230769
vt 0.32211538461538464 0.9519230769230769
vt 0.32211538461538464 1
vt 0.3701923076923077 1
vt 0.3701923076923077 0.9519230769230769
vt 0.375 1
vt 0.36538461538461536 1
vt 0.36538461538461536 0.9519230769230769
vt 0.375 0.9519230769230769
vt 0.3173076923076923 0.9519230769230769
vt 0.3269230769230769 0.9519230769230769
vt 0.3269230769230769 1
vt 0.3173076923076923 1
vt 0.46153846153846156 0.22596153846153844
vt 0.07692307692307693 0.22596153846153844
vt 0.07692307692307693 0.14903846153846156
vt 0.46153846153846156 0.14903846153846156
vt 0.07692307692307693 0.22596153846153844
vt 0.46153846153846156 0.22596153846153844
vt 0.46153846153846156 0.14903846153846156
vt 0.07692307692307693 0.14903846153846156
vt 0.15865384615384615 0.6826923076923077
vt 0.15865384615384615 0.7596153846153846
vt 0.5432692307692307 0.7596153846153846
vt 0.5432692307692307 0.6826923076923077
vt 0.5432692307692307 0.6826923076923077
vt 0.5432692307692307 0.7596153846153846
vt 0.15865384615384615 0.7596153846153846
vt 0.15865384615384615 0.6826923076923077
vt 0.5480769230769231 0.7596153846153846
vt 0.625 0.7596153846153846
vt 0.625 0.6826923076923077
vt 0.5480769230769231 0.6826923076923077
vt 0.5480769230769231 0.7596153846153846
vt 0.625 0.7596153846153846
vt 0.625 0.6826923076923077
vt 0.5480769230769231 0.6826923076923077
vt 0.36538461538461536 0.8605769230769231
vt 0.36538461538461536 0.8221153846153846
vt 0.3269230769230769 0.8221153846153846
vt 0.3269230769230769 0.8605769230769231
vt 0.36538461538461536 0.7644230769230769
vt 0.3269230769230769 0.7644230769230769
vt 0.3269230769230769 0.8557692307692308
vt 0.36538461538461536 0.8557692307692308
vt 0.36538461538461536 0.7644230769230769
vt 0.3269230769230769 0.7644230769230769
vt 0.3269230769230769 0.8557692307692308
vt 0.36538461538461536 0.8557692307692308
vt 0.36538461538461536 0.7644230769230769
vt 0.3269230769230769 0.7644230769230769
vt 0.3269230769230769 0.8557692307692308
vt 0.36538461538461536 0.8557692307692308
vt 0.36538461538461536 0.7644230769230769
vt 0.3269230769230769 0.7644230769230769
vt 0.3269230769230769 0.8557692307692308
vt 0.36538461538461536 0.8557692307692308
vt 0.3269230769230769 0.9086538461538461
vt 0.3269230769230769 0.9471153846153846
vt 0.36538461538461536 0.9471153846153846
vt 0.36538461538461536 0.9086538461538461
vt 0.3269230769230769 0.8221153846153846
vt 0.3269230769230769 0.8605769230769231
vt 0.36538461538461536 0.8605769230769231
vt 0.36538461538461536 0.8221153846153846
vt 0.36538461538461536 0.9086538461538461
vt 0.36538461538461536 0.9471153846153846
vt 0.3269230769230769 0.9471153846153846
vt 0.3269230769230769 0.9086538461538461
vt 0.3269230769230769 0.8557692307692308
vt 0.36538461538461536 0.8557692307692308
vt 0.36538461538461536 0.8269230769230769
vt 0.3269230769230769 0.8269230769230769
vt 0.36538461538461536 0.8269230769230769
vt 0.3269230769230769 0.8269230769230769
vt 0.3269230769230769 0.8557692307692308
vt 0.36538461538461536 0.8557692307692308
vt 0.3269230769230769 0.8557692307692308
vt 0.36538461538461536 0.8557692307692308
vt 0.36538461538461536 0.8269230769230769
vt 0.3269230769230769 0.8269230769230769
vt 0.36538461538461536 0.8269230769230769
vt 0.3269230769230769 0.8269230769230769
vt 0.3269230769230769 0.8557692307692308
vt 0.36538461538461536 0.8557692307692308
vt 0.36538461538461536 0.7692307692307692
vt 0.3269230769230769 0.7692307692307692
vt 0.3269230769230769 0.8461538461538461
vt 0.36538461538461536 0.8461538461538461
vt 0.36538461538461536 0.7692307692307692
vt 0.3269230769230769 0.7692307692307692
vt 0.3269230769230769 0.8461538461538461
vt 0.36538461538461536 0.8461538461538461
vt 0.36538461538461536 0.7692307692307692
vt 0.3269230769230769 0.7692307692307692
vt 0.3269230769230769 0.8461538461538461
vt 0.36538461538461536 0.8461538461538461
vt 0.36538461538461536 0.7692307692307692
vt 0.3269230769230769 0.7692307692307692
vt 0.3269230769230769 0.8461538461538461
vt 0.36538461538461536 0.8461538461538461
vt 0.30288461538461536 0.6105769230769231
vt 0.30288461538461536 0.6682692307692308
vt 0.3173076923076923 0.6682692307692308
vt 0.3173076923076923 0.6105769230769231
vt 0.2548076923076923 0.6682692307692308
vt 0.2548076923076923 0.6105769230769231
vt 0.2403846153846154 0.6105769230769231
vt 0.2403846153846154 0.6682692307692308
vt 0.25 0.6682692307692308
vt 0.3076923076923077 0.6682692307692308
vt 0.3076923076923077 0.6105769230769231
vt 0.25 0.6105769230769231
vt 0.25 0.6682692307692308
vt 0.3076923076923077 0.6682692307692308
vt 0.3076923076923077 0.6105769230769231
vt 0.25 0.6105769230769231
vt 0.25 0.6153846153846154
vt 0.3076923076923077 0.6153846153846154
vt 0.3076923076923077 0.6009615384615384
vt 0.25 0.6009615384615384
vt 0.3076923076923077 0.6634615384615384
vt 0.25 0.6634615384615384
vt 0.25 0.6778846153846154
vt 0.3076923076923077 0.6778846153846154
vt 0.30288461538461536 0.6105769230769231
vt 0.30288461538461536 0.6682692307692308
vt 0.3173076923076923 0.6682692307692308
vt 0.3173076923076923 0.6105769230769231
vt 0.2548076923076923 0.6682692307692308
vt 0.2548076923076923 0.6105769230769231
vt 0.2403846153846154 0.6105769230769231
vt 0.2403846153846154 0.6682692307692308
vt 0.25 0.6682692307692308
vt 0.3076923076923077 0.6682692307692308
vt 0.3076923076923077 0.6105769230769231
vt 0.25 0.6105769230769231
vt 0.25 0.6682692307692308
vt 0.3076923076923077 0.6682692307692308
vt 0.3076923076923077 0.6105769230769231
vt 0.25 0.6105769230769231
vt 0.25 0.6153846153846154
vt 0.3076923076923077 0.6153846153846154
vt 0.3076923076923077 0.6009615384615384
vt 0.25 0.6009615384615384
vt 0.3076923076923077 0.6634615384615384
vt 0.25 0.6634615384615384
vt 0.25 0.6778846153846154
vt 0.3076923076923077 0.6778846153846154
vt 0.36538461538461536 0.9471153846153846
vt 0.36538461538461536 0.9086538461538461
vt 0.3269230769230769 0.9086538461538461
vt 0.3269230769230769 0.9471153846153846
vt 0.3269230769230769 0.8990384615384616
vt 0.36538461538461536 0.8990384615384616
vt 0.36538461538461536 0.8605769230769231
vt 0.3269230769230769 0.8605769230769231
vt 0.3269230769230769 0.875
vt 0.36538461538461536 0.875
vt 0.36538461538461536 0.8365384615384616
vt 0.3269230769230769 0.8365384615384616
vt 0.36538461538461536 0.8509615384615384
vt 0.3269230769230769 0.8509615384615384
vt 0.3269230769230769 0.8365384615384616
vt 0.36538461538461536 0.8365384615384616
vt 0.36538461538461536 0.8509615384615384
vt 0.3269230769230769 0.8509615384615384
vt 0.3269230769230769 0.8365384615384616
vt 0.36538461538461536 0.8365384615384616
vt 0.36538461538461536 0.8509615384615384
vt 0.3269230769230769 0.8509615384615384
vt 0.3269230769230769 0.8365384615384616
vt 0.36538461538461536 0.8365384615384616
vt 0.36538461538461536 0.9471153846153846
vt 0.36538461538461536 0.9086538461538461
vt 0.3269230769230769 0.9086538461538461
vt 0.3269230769230769 0.9471153846153846
vt 0 1
vt 0 1
vt 0 1
vt 0.3269230769230769 0.8365384615384616
vt 0.36538461538461536 0.8365384615384616
vt 0.36538461538461536 0.8509615384615384
vt 0.3269230769230769 0.8509615384615384
vt 0.36538461538461536 0.8269227403846153
vt 0.3269230769230769 0.8269234134615384
vt 0.32692350961538463 0.8653845192307692
vt 0.3653848557692308 0.8653845192307692
vt 0.3269230769230769 0.8846153846153846
vt 0.36538461538461536 0.8846153846153846
vt 0.36538461538461536 0.8461538461538461
vt 0.3269230769230769 0.8461538461538461
vt 0.3269230769230769 0.8894226442307692
vt 0.36538461538461536 0.8894230769230769
vt 0.36538461538461536 0.850961298076923
vt 0.3269232692307692 0.8509615384615384
vt 0.3269230769230769 0.8509615384615384
vt 0.36538461538461536 0.8509615384615384
vt 0.36538461538461536 0.8125
vt 0.3269230769230769 0.8125
vt 0.36538461538461536 0.8701923076923077
vt 0.36538461538461536 0.8125
vt 0.3557692307692308 0.8125
vt 0.3557692307692308 0.8701923076923077
vt 0.36538461538461536 0.8701923076923077
vt 0.36538461538461536 0.8125
vt 0.3557692307692308 0.8125
vt 0.3557692307692308 0.8701923076923077
vt 0.25961538461538464 0.5384615384615384
vt 0.20192307692307693 0.5384615384615384
vt 0.20192307692307693 0.5961538461538461
vt 0.25961538461538464 0.5961538461538461
vt 0.2644230769230769 0.5961538461538461
vt 0.32211538461538464 0.5961538461538461
vt 0.32211538461538464 0.5384615384615384
vt 0.2644230769230769 0.5384615384615384
vt 0.36538461538461536 0.8701923076923077
vt 0.36538461538461536 0.8125
vt 0.3557692307692308 0.8125
vt 0.3557692307692308 0.8701923076923077
vt 0.36538461538461536 0.8701923076923077
vt 0.36538461538461536 0.8125
vt 0.3557692307692308 0.8125
vt 0.3557692307692308 0.8701923076923077
vt 0.3269230769230769 0.9086538461538461
vt 0.36538461538461536 0.9086538461538461
vt 0.36538461538461536 0.9471153846153846
vt 0.3269230769230769 0.9471153846153846
vt 0.36538461538461536 0.8461538461538461
vt 0.36538461538461536 0.8846153846153846
vt 0.3269230769230769 0.8846153846153846
vt 0.3269230769230769 0.8461538461538461
vt 0.36538461538461536 0.8365384615384616
vt 0.36538461538461536 0.875
vt 0.3269230769230769 0.875
vt 0.3269230769230769 0.8365384615384616
vt 0.36538461538461536 0.8798076923076923
vt 0.36538461538461536 0.8365384615384616
vt 0.3269230769230769 0.8365384615384616
vt 0.3269230769230769 0.8798076923076923
vt 0.3269230769230769 0.8557692307692308
vt 0.3269230769230769 0.8125
vt 0.36538461538461536 0.8125
vt 0.36538461538461536 0.8557692307692308
vt 0.3269230769230769 0.8846153846153846
vt 0.3269230769230769 0.8413461538461539
vt 0.36538461538461536 0.8413461538461539
vt 0.36538461538461536 0.8846153846153846
vt 0.36538461538461536 0.8942307692307693
vt 0.36538461538461536 0.8509615384615384
vt 0.3269230769230769 0.8509615384615384
vt 0.3269230769230769 0.8942307692307693
vt 0.3269230769230769 0.9086538461538461
vt 0.36538461538461536 0.9086538461538461
vt 0.36538461538461536 0.9471153846153846
vt 0.3269230769230769 0.9471153846153846
vt 0 1
vt 0 1
vt 0 1
vt 0.36538461538461536 0.9038461538461539
vt 0.36538461538461536 0.8653846153846154
vt 0.3269230769230769 0.8653846153846154
vt 0.3269230769230769 0.9038461538461539
vt 0.3269230769230769 0.9086538461538461
vt 0.3269230769230769 0.9471153846153846
vt 0.36538461538461536 0.9471153846153846
vt 0.36538461538461536 0.9086538461538461
vt 0.3269230769230769 0.8653846153846154
vt 0.3269230769230769 0.9038461538461539
vt 0.36538461538461536 0.9038461538461539
vt 0.36538461538461536 0.8653846153846154
vt 0.36538461538461536 0.9086538461538461
vt 0.36538461538461536 0.9471153846153846
vt 0.3269230769230769 0.9471153846153846
vt 0.3269230769230769 0.9086538461538461
vt 0.3269230769230769 0.8221153846153846
vt 0.36538461538461536 0.8221153846153846
vt 0.36538461538461536 0.8798076923076923
vt 0.3269230769230769 0.8798076923076923
vt 0.36538461538461536 0.8942307692307693
vt 0.3269230769230769 0.8942307692307693
vt 0.3269230769230769 0.8365384615384616
vt 0.36538461538461536 0.8365384615384616
vt 0.3269230769230769 0.8125
vt 0.36538461538461536 0.8125
vt 0.36538461538461536 0.8701923076923077
vt 0.3269230769230769 0.8701923076923077
vt 0.36538461538461536 0.8317307692307692
vt 0.3269230769230769 0.8317307692307692
vt 0.3269230769230769 0.7740384615384616
vt 0.36538461538461536 0.7740384615384616
vt 0.3317307692307692 0.8653846153846154
vt 0.3605769230769231 0.8653846153846154
vt 0.3605769230769231 0.8365384615384616
vt 0.3317307692307692 0.8365384615384616
vt 0.3269230769230769 0.8990384615384616
vt 0.36538461538461536 0.8990384615384616
vt 0.36538461538461536 0.8173076923076923
vt 0.3269230769230769 0.8173076923076923
vt 0.3269230769230769 0.8990384615384616
vt 0.36538461538461536 0.8990384615384616
vt 0.36538461538461536 0.8173076923076923
vt 0.3269230769230769 0.8173076923076923
vt 0.3269230769230769 0.8990384615384616
vt 0.36538461538461536 0.8990384615384616
vt 0.36538461538461536 0.8173076923076923
vt 0.3269230769230769 0.8173076923076923
vt 0.3269230769230769 0.8990384615384616
vt 0.36538461538461536 0.8990384615384616
vt 0.36538461538461536 0.8173076923076923
vt 0.3269230769230769 0.8173076923076923
vt 0.3269230769230769 0.9038461538461539
vt 0.3269230769230769 0.8653846153846154
vt 0.36538461538461536 0.8653846153846154
vt 0.36538461538461536 0.9038461538461539
vt 0.36538461538461536 0.8942307692307693
vt 0.3269230769230769 0.8942307692307693
vt 0.3269230769230769 0.8557692307692308
vt 0.36538461538461536 0.8557692307692308
vt 0.3269230769230769 0.9471153846153846
vt 0.36538461538461536 0.9471153846153846
vt 0.36538461538461536 0.9086538461538461
vt 0.3269230769230769 0.9086538461538461
vt 0.36538461538461536 0.9471153846153846
vt 0.36538461538461536 0.9086538461538461
vt 0.3269230769230769 0.9086538461538461
vt 0.3269230769230769 0.9471153846153846
vt 0.36538461538461536 0.7884615384615384
vt 0.36538461538461536 0.8173073076923076
vt 0.32692350961538463 0.8173076923076923
vt 0.3269230769230769 0.7884616826923077
vt 0.36538461538461536 0.7884615384615384
vt 0.36538461538461536 0.8173076923076923
vt 0.3269230769230769 0.8173076923076923
vt 0.3269230769230769 0.7884615384615384
vt 0.36538461538461536 0.7884615384615384
vt 0.36538461538461536 0.8173076923076923
vt 0.3269230769230769 0.8173076923076923
vt 0.3269230769230769 0.7884615384615384
vt 0.32692350961538463 0.8173076923076923
vt 0.36538461538461536 0.8173073076923076
vt 0.36538461538461536 0.7884615384615384
vt 0.3269230769230769 0.7884616826923077
vt 0.36538461538461536 0.9471153846153846
vt 0.36538461538461536 0.9086538461538461
vt 0.3269230769230769 0.9086538461538461
vt 0.3269230769230769 0.9471153846153846
vt 0.3269230769230769 0.8846153846153846
vt 0.36538461538461536 0.8846153846153846
vt 0.36538461538461536 0.8461538461538461
vt 0.3269230769230769 0.8461538461538461
vt 0.3269230769230769 0.875
vt 0.36538461538461536 0.875
vt 0.36538461538461536 0.8365384615384616
vt 0.3269230769230769 0.8365384615384616
vt 0.36538461538461536 0.8509615384615384
vt 0.3269230769230769 0.8509615384615384
vt 0.3269230769230769 0.8365384615384616
vt 0.36538461538461536 0.8365384615384616
vt 0.36538461538461536 0.8509615384615384
vt 0.3269230769230769 0.8509615384615384
vt 0.3269230769230769 0.8365384615384616
vt 0.36538461538461536 0.8365384615384616
vt 0.3269230769230769 0.8365384615384616
vt 0.36538461538461536 0.8365384615384616
vt 0.36538461538461536 0.8509615384615384
vt 0.3269230769230769 0.8509615384615384
vt 0.36538461538461536 0.8509615384615384
vt 0.3269230769230769 0.8509615384615384
vt 0.3269230769230769 0.8365384615384616
vt 0.36538461538461536 0.8365384615384616
vt 0.36538461538461536 0.9471153846153846
vt 0.36538461538461536 0.9086538461538461
vt 0.3269230769230769 0.9086538461538461
vt 0.3269230769230769 0.9471153846153846
vt 0 1
vt 0 1
vt 0 1
vt 0.36538461538461536 0.8701923076923077
vt 0.36538461538461536 0.8125
vt 0.3557692307692308 0.8125
vt 0.3557692307692308 0.8701923076923077
vt 0.36538461538461536 0.8701923076923077
vt 0.36538461538461536 0.8125
vt 0.3557692307692308 0.8125
vt 0.3557692307692308 0.8701923076923077
vt 0.2644230769230769 0.5961538461538461
vt 0.32211538461538464 0.5961538461538461
vt 0.32211538461538464 0.5384615384615384
vt 0.2644230769230769 0.5384615384615384
vt 0.2644230769230769 0.5961538461538461
vt 0.32211538461538464 0.5961538461538461
vt 0.32211538461538464 0.5384615384615384
vt 0.2644230769230769 0.5384615384615384
vt 0.36538461538461536 0.8701923076923077
vt 0.36538461538461536 0.8125
vt 0.3557692307692308 0.8125
vt 0.3557692307692308 0.8701923076923077
vt 0.36538461538461536 0.8701923076923077
vt 0.36538461538461536 0.8125
vt 0.3557692307692308 0.8125
vt 0.3557692307692308 0.8701923076923077
vt 0.3557692307692308 0.8557692307692308
vt 0.3557692307692308 0.9134615384615384
vt 0.36538461538461536 0.9134615384615384
vt 0.36538461538461536 0.8557692307692308
vt 0.3557692307692308 0.8125
vt 0.3557692307692308 0.8701923076923077
vt 0.36538461538461536 0.8701923076923077
vt 0.36538461538461536 0.8125
vt 0.2644230769230769 0.5961538461538461
vt 0.32211538461538464 0.5961538461538461
vt 0.32211538461538464 0.5384615384615384
vt 0.2644230769230769 0.5384615384615384
vt 0.2644230769230769 0.5961538461538461
vt 0.32211538461538464 0.5961538461538461
vt 0.32211538461538464 0.5384615384615384
vt 0.2644230769230769 0.5384615384615384
vt 0.3557692307692308 0.8461538461538461
vt 0.3557692307692308 0.9038461538461539
vt 0.36538461538461536 0.9038461538461539
vt 0.36538461538461536 0.8461538461538461
vt 0.33653846153846156 0.8125
vt 0.33653846153846156 0.8701923076923077
vt 0.3269230769230769 0.8701923076923077
vt 0.3269230769230769 0.8125
vt 0.3605769230769231 0.8125
vt 0.3557692307692308 0.8125
vt 0.3557692307692308 0.8701923076923077
vt 0.3605769230769231 0.8701923076923077
vt 0.3605769230769231 0.8125
vt 0.3557692307692308 0.8125
vt 0.3557692307692308 0.8701923076923077
vt 0.3605769230769231 0.8701923076923077
vt 0.32211538461538464 0.5384615384615384
vt 0.32211538461538464 0.5961538461538461
vt 0.2644230769230769 0.5961538461538461
vt 0.2644230769230769 0.5384615384615384
vt 0.32211538461538464 0.5384615384615384
vt 0.32211538461538464 0.5961538461538461
vt 0.2644230769230769 0.5961538461538461
vt 0.2644230769230769 0.5384615384615384
vt 0.3605769230769231 0.8125
vt 0.3557692307692308 0.8125
vt 0.3557692307692308 0.8701923076923077
vt 0.3605769230769231 0.8701923076923077
vt 0.3605769230769231 0.8125
vt 0.3557692307692308 0.8125
vt 0.3557692307692308 0.8701923076923077
vt 0.3605769230769231 0.8701923076923077
vt 0.3557692307692308 0.8557692307692308
vt 0.3557692307692308 0.9134615384615384
vt 0.36538461538461536 0.9134615384615384
vt 0.36538461538461536 0.8557692307692308
vt 0.3557692307692308 0.8125
vt 0.3557692307692308 0.8701923076923077
vt 0.36538461538461536 0.8701923076923077
vt 0.36538461538461536 0.8125
vt 0.2644230769230769 0.5961538461538461
vt 0.32211538461538464 0.5961538461538461
vt 0.32211538461538464 0.5384615384615384
vt 0.2644230769230769 0.5384615384615384
vt 0.2644230769230769 0.5961538461538461
vt 0.32211538461538464 0.5961538461538461
vt 0.32211538461538464 0.5384615384615384
vt 0.2644230769230769 0.5384615384615384
vt 0.3557692307692308 0.8461538461538461
vt 0.3557692307692308 0.9038461538461539
vt 0.36538461538461536 0.9038461538461539
vt 0.36538461538461536 0.8461538461538461
vt 0.33653846153846156 0.8125
vt 0.33653846153846156 0.8701923076923077
vt 0.3269230769230769 0.8701923076923077
vt 0.3269230769230769 0.8125
vt 0.3605769230769231 0.8125
vt 0.3557692307692308 0.8125
vt 0.3557692307692308 0.8701923076923077
vt 0.3605769230769231 0.8701923076923077
vt 0.3605769230769231 0.8125
vt 0.3557692307692308 0.8125
vt 0.3557692307692308 0.8701923076923077
vt 0.3605769230769231 0.8701923076923077
vt 0.32211538461538464 0.5384615384615384
vt 0.32211538461538464 0.5961538461538461
vt 0.2644230769230769 0.5961538461538461
vt 0.2644230769230769 0.5384615384615384
vt 0.32211538461538464 0.5384615384615384
vt 0.32211538461538464 0.5961538461538461
vt 0.2644230769230769 0.5961538461538461
vt 0.2644230769230769 0.5384615384615384
vt 0.3605769230769231 0.8125
vt 0.3557692307692308 0.8125
vt 0.3557692307692308 0.8701923076923077
vt 0.3605769230769231 0.8701923076923077
vt 0.3605769230769231 0.8125
vt 0.3557692307692308 0.8125
vt 0.3557692307692308 0.8701923076923077
vt 0.3605769230769231 0.8701923076923077
vt 0.3557692307692308 0.8125
vt 0.36538461538461536 0.8125
vt 0.36538461538461536 0.8701923076923077
vt 0.3557692307692308 0.8701923076923077
vt 0.3557692307692308 0.8125
vt 0.36538461538461536 0.8125
vt 0.36538461538461536 0.8701923076923077
vt 0.3557692307692308 0.8701923076923077
vt 0.32211538461538464 0.5384615384615384
vt 0.32211538461538464 0.5961538461538461
vt 0.2644230769230769 0.5961538461538461
vt 0.2644230769230769 0.5384615384615384
vt 0.32211538461538464 0.5384615384615384
vt 0.32211538461538464 0.5961538461538461
vt 0.2644230769230769 0.5961538461538461
vt 0.2644230769230769 0.5384615384615384
vt 0.3557692307692308 0.8125
vt 0.36538461538461536 0.8125
vt 0.36538461538461536 0.8701923076923077
vt 0.3557692307692308 0.8701923076923077
vt 0.3557692307692308 0.8125
vt 0.36538461538461536 0.8125
vt 0.36538461538461536 0.8701923076923077
vt 0.3557692307692308 0.8701923076923077
vt 0.40865384615384615 0.23076923076923073
vt 0.40865384615384615 0.3076923076923077
vt 0.46153846153846156 0.3076923076923077
vt 0.46153846153846156 0.23076923076923073
vt 0.3605769230769231 0.3076923076923077
vt 0.3605769230769231 0.23076923076923073
vt 0.3076923076923077 0.23076923076923073
vt 0.3076923076923077 0.3076923076923077
vt 0.6634615384615384 0.8653846153846154
vt 0.8942307692307693 0.8653846153846154
vt 0.8942307692307693 0.9182692307692307
vt 0.6634615384615384 0.9182692307692307
vt 0.3076923076923077 0.46153846153846156
vt 0.5384615384615384 0.46153846153846156
vt 0.5384615384615384 0.3846153846153846
vt 0.3076923076923077 0.3846153846153846
vt 0.3076923076923077 0.46153846153846156
vt 0.5384615384615384 0.46153846153846156
vt 0.5384615384615384 0.3846153846153846
vt 0.3076923076923077 0.3846153846153846
vt 0.40865384615384615 0.23076923076923073
vt 0.40865384615384615 0.3076923076923077
vt 0.46153846153846156 0.3076923076923077
vt 0.46153846153846156 0.23076923076923073
vt 0.3605769230769231 0.3076923076923077
vt 0.3605769230769231 0.23076923076923073
vt 0.3076923076923077 0.23076923076923073
vt 0.3076923076923077 0.3076923076923077
vt 0.6634615384615384 0.8942307692307693
vt 0.6634615384615384 0.8413461538461539
vt 0.6923076923076923 0.8701923076923077
vt 0.6923076923076923 0.8942307692307693
vt 0.8653846153846154 0.8701923076923077
vt 0.8942307692307693 0.8413461538461539
vt 0.8942307692307693 0.8942307692307693
vt 0.8653846153846154 0.8942307692307693
vt 0.6923076923076923 0.8701923076923077
vt 0.6634615384615384 0.8413461538461539
vt 0.8942307692307693 0.8413461538461539
vt 0.8653846153846154 0.8701923076923077
vt 0.6586538461538461 0.5
vt 0.6586538461538461 0.47596153846153844
vt 0.8317307692307693 0.47596153846153844
vt 0.8317307692307693 0.5
vt 0.3605769230769231 0.46153846153846156
vt 0.4855769230769231 0.46153846153846156
vt 0.4855769230769231 0.3846153846153846
vt 0.3605769230769231 0.3846153846153846
vt 0.3605769230769231 0.46153846153846156
vt 0.4855769230769231 0.46153846153846156
vt 0.4855769230769231 0.3846153846153846
vt 0.3605769230769231 0.3846153846153846
vt 0.6153846153846154 0.5192307692307692
vt 0.7403846153846154 0.5192307692307692
vt 0.7403846153846154 0.4423076923076923
vt 0.6153846153846154 0.4423076923076923
vt 0.6153846153846154 0.5192307692307692
vt 0.7403846153846154 0.5192307692307692
vt 0.7403846153846154 0.4423076923076923
vt 0.6153846153846154 0.4423076923076923
vt 0.46153846153846156 0.8269230769230769
vt 0.5384615384615384 0.8269230769230769
vt 0.5384615384615384 0.7740384615384616
vt 0.46153846153846156 0.7740384615384616
vt 0.46153846153846156 0.8269230769230769
vt 0.5384615384615384 0.8269230769230769
vt 0.5384615384615384 0.7740384615384616
vt 0.46153846153846156 0.7740384615384616
vt 0.22596153846153846 0.5384615384615384
vt 0.30288461538461536 0.5384615384615384
vt 0.30288461538461536 0.46153846153846156
vt 0.22596153846153846 0.46153846153846156
vt 0.6586538461538461 1
vt 0.6586538461538461 0.9615384615384616
vt 0.6201923076923077 0.9615384615384616
vt 0.6586538461538461 0.9615384615384616
vt 0.6586538461538461 1
vt 0.6201923076923077 0.9615384615384616
vt 0.6538461538461539 0.2692307692307693
vt 0.6538461538461539 0.23076923076923073
vt 0.6153846153846154 0.23076923076923073
vt 0.7307692307692307 0.23076923076923073
vt 0.6538461538461539 0.23076923076923073
vt 0.6538461538461539 0.2692307692307693
vt 0.7307692307692307 0.2692307692307693
vt 0.7307692307692307 0.23076923076923073
vt 0.7307692307692307 0.2692307692307693
vt 0.7692307692307693 0.23076923076923073
vt 0.4567307692307692 0.7884615384615384
vt 0.3798076923076923 0.7884615384615384
vt 0.3798076923076923 0.8269230769230769
vt 0.4567307692307692 0.8269230769230769
vt 0.07692307692307693 0.7596153846153846
vt 0.07692307692307693 0.6057692307692308
vt 0 0.6057692307692308
vt 0 0.7596153846153846
vt 0.07692307692307693 0.6057692307692308
vt 0.07692307692307693 0.7596153846153846
vt 0.15384615384615385 0.7596153846153846
vt 0.15384615384615385 0.6057692307692308
vt 0.6153846153846154 0.23076923076923073
vt 0.7692307692307693 0.23076923076923073
vt 0.7692307692307693 0.07692307692307687
vt 0.6153846153846154 0.07692307692307687
vt 0.6634615384615384 1
vt 0.8173076923076923 1
vt 0.8173076923076923 0.9230769230769231
vt 0.6634615384615384 0.9230769230769231
vt 0.3269230769230769 0.5913461538461539
vt 0.3942307692307692 0.5913461538461539
vt 0.3942307692307692 0.5432692307692308
vt 0.3269230769230769 0.5432692307692308
vt 0.3942307692307692 0.5480769230769231
vt 0.3942307692307692 0.5432692307692308
vt 0.3269230769230769 0.5432692307692308
vt 0.3269230769230769 0.5480769230769231
vt 0.3942307692307692 0.5480769230769231
vt 0.3942307692307692 0.5432692307692308
vt 0.3269230769230769 0.5432692307692308
vt 0.3269230769230769 0.5480769230769231
vt 0.3894230769230769 0.5913461538461539
vt 0.3942307692307692 0.5913461538461539
vt 0.3942307692307692 0.5432692307692308
vt 0.3894230769230769 0.5432692307692308
vt 0.3269230769230769 0.5913461538461539
vt 0.3317307692307692 0.5913461538461539
vt 0.3317307692307692 0.5432692307692308
vt 0.3269230769230769 0.5432692307692308
vt 0.22115384615384615 0.5384615384615384
vt 0.18269230769230768 0.5384615384615384
vt 0.18269230769230768 0.46153846153846156
vt 0.22115384615384615 0.46153846153846156
vt 0.18269230769230768 0.46153846153846156
vt 0.22115384615384615 0.46153846153846156
vt 0.22115384615384615 0.5384615384615384
vt 0.18269230769230768 0.5384615384615384
vt 0.18269230769230768 0.5096153846153846
vt 0.22115384615384615 0.5096153846153846
vt 0.22115384615384615 0.5384615384615384
vt 0.18269230769230768 0.5384615384615384
vt 0.22115384615384615 0.4903846153846154
vt 0.18269230769230768 0.4903846153846154
vt 0.18269230769230768 0.46153846153846156
vt 0.22115384615384615 0.46153846153846156
vt 0.6971153846153846 0.3076923076923077
vt 0.6971153846153846 0.3846153846153846
vt 0.7548076923076923 0.3846153846153846
vt 0.7548076923076923 0.3076923076923077
vt 0.6634615384615384 0.8365384615384616
vt 0.7211538461538461 0.8365384615384616
vt 0.7211538461538461 0.7596153846153846
vt 0.6634615384615384 0.7596153846153846
vt 0.5480769230769231 0.13461538461538458
vt 0.5625 0.13461538461538458
vt 0.5625 0.05769230769230771
vt 0.5480769230769231 0.05769230769230771
vt 0.5480769230769231 0.13461538461538458
vt 0.5625 0.13461538461538458
vt 0.5625 0.05769230769230771
vt 0.5480769230769231 0.05769230769230771
vt 0.46634615384615385 0.05288461538461542
vt 0.5432692307692307 0.05288461538461542
vt 0.5432692307692307 0.038461538461538436
vt 0.46634615384615385 0.038461538461538436
vt 0.46634615384615385 0.13461538461538458
vt 0.5432692307692307 0.13461538461538458
vt 0.5432692307692307 0.05769230769230771
vt 0.46634615384615385 0.05769230769230771
vt 0.7884615384615384 0.8365384615384616
vt 0.7884615384615384 0.8125
vt 0.7259615384615384 0.8125
vt 0.7259615384615384 0.8365384615384616
vt 0.7884615384615384 0.8365384615384616
vt 0.7884615384615384 0.8125
vt 0.7259615384615384 0.8125
vt 0.7259615384615384 0.8365384615384616
vt 0.7884615384615384 0.8076923076923077
vt 0.7884615384615384 0.8173076923076923
vt 0.7644230769230769 0.8173076923076923
vt 0.7644230769230769 0.8076923076923077
vt 0.7884615384615384 0.8173076923076923
vt 0.7884615384615384 0.8076923076923077
vt 0.7644230769230769 0.8076923076923077
vt 0.7644230769230769 0.8173076923076923
vt 0.7884615384615384 0.8076923076923077
vt 0.7884615384615384 0.8173076923076923
vt 0.7259615384615384 0.8173076923076923
vt 0.7259615384615384 0.8076923076923077
vt 0.7884615384615384 0.8173076923076923
vt 0.7884615384615384 0.8076923076923077
vt 0.7259615384615384 0.8076923076923077
vt 0.7259615384615384 0.8173076923076923
vt 0.6153846153846154 0.3846153846153846
vt 0.6923076923076923 0.3846153846153846
vt 0.6923076923076923 0.3076923076923077
vt 0.6153846153846154 0.3076923076923077
vt 0.6153846153846154 0.3846153846153846
vt 0.6923076923076923 0.3846153846153846
vt 0.6923076923076923 0.3076923076923077
vt 0.6153846153846154 0.3076923076923077
vt 0.6634615384615384 0.9182692307692307
vt 0.8942307692307693 0.9182692307692307
vt 0.8942307692307693 0.8413461538461539
vt 0.6634615384615384 0.8413461538461539
vt 0.6634615384615384 0.9182692307692307
vt 0.8942307692307693 0.9182692307692307
vt 0.8942307692307693 0.8413461538461539
vt 0.6634615384615384 0.8413461538461539
vt 0.3076923076923077 0.46153846153846156
vt 0.5384615384615384 0.46153846153846156
vt 0.5384615384615384 0.3846153846153846
vt 0.3076923076923077 0.3846153846153846
vt 0.5384615384615384 0.46153846153846156
vt 0.5384615384615384 0.3846153846153846
vt 0.3076923076923077 0.3846153846153846
vt 0.3076923076923077 0.46153846153846156
vt 0.3125 0.6682692307692308
vt 0.3125 0.6105769230769231
vt 0.30288461538461536 0.6105769230769231
vt 0.30288461538461536 0.6682692307692308
vt 0.3125 0.6682692307692308
vt 0.3125 0.6105769230769231
vt 0.30288461538461536 0.6105769230769231
vt 0.30288461538461536 0.6682692307692308
vt 0.25 0.6682692307692308
vt 0.3076923076923077 0.6682692307692308
vt 0.3076923076923077 0.6105769230769231
vt 0.25 0.6105769230769231
vt 0.25 0.6682692307692308
vt 0.3076923076923077 0.6682692307692308
vt 0.3076923076923077 0.6105769230769231
vt 0.25 0.6105769230769231
vt 0.3125 0.6682692307692308
vt 0.3125 0.6105769230769231
vt 0.30288461538461536 0.6105769230769231
vt 0.30288461538461536 0.6682692307692308
vt 0.3125 0.6682692307692308
vt 0.3125 0.6105769230769231
vt 0.30288461538461536 0.6105769230769231
vt 0.30288461538461536 0.6682692307692308
vn -1 0 0
vn 1 0 0
vn 0 0 1
vn 0 0 -1
vn 0 1 0
vn 0 -1 0
vn 0.23162052730603974 0.9728062146853669 0
vn -0.23162052730603974 0.9728062146853669 0
vn -1 0 0
vn 1 0 0
vn -0.23162052730603974 0.9728062146853669 0
vn 0.23162052730603974 0.9728062146853669 0
vn 1 0 0
vn -1 0 0
vn 0.8858315352801555 0.4640069946705576 0
vn 0.8858315352801555 0.4640069946705576 0
vn -0.8858315352801555 0.4640069946705576 0
vn -0.8858315352801555 0.4640069946705576 0
vn 0 0 1
vn 0 0 1
vn 0 0 1
vn 0 0 -1
vn 0 0 -1
vn 0 0 -1
vn 0 0 1
vn 0 0 1
vn 0 0 1
vn 0 0 -1
vn 0 0 -1
vn 0 0 -1
vn 0.23162052730603974 0.9728062146853669 0
vn -0.23162052730603974 0.9728062146853669 0
vn -1 0 0
vn 1 0 0
vn -0.23162052730603974 0.9728062146853669 0
vn 0.23162052730603974 0.9728062146853669 0
vn 1 0 0
vn -1 0 0
vn 0.8858315352801555 0.4640069946705576 0
vn 0.8858315352801555 0.4640069946705576 0
vn -0.8858315352801555 0.4640069946705576 0
vn -0.8858315352801555 0.4640069946705576 0
vn -0.23162052730603974 0.9728062146853669 0
vn 0.23162052730603974 0.9728062146853669 0
vn 1 0 0
vn -1 0 0
vn 0.8858315352801553 0.46400699467055756 0
vn -0.8858315352801553 0.46400699467055756 0
vn -0.23162052730603974 0.972806214685367 0
vn -0.8858315352801553 0.46400699467055756 0
vn -1 0 0
vn 0.23162052730603974 0.972806214685367 0
vn 0.8858315352801553 0.46400699467055756 0
vn 1 0 0
vn 0 0 -1
vn 0 0 -1
vn 0 0 -1
vn 0 0 1
vn 0 0 1
vn 0 0 1
vn -0.27146016502180625 0.962449675986404 0
vn -1 0 0
vn -0.8645071866841928 0.5026204573745306 0
vn 0.27146016502180625 0.962449675986404 0
vn 1 0 0
vn 0.8645071866841928 0.5026204573745306 0
vn 0 0 1
vn 0 0 1
vn 0 0 1
vn 0 0 1
vn 0 0 1
vn 0 0 1
vn 1 0 0
vn -1 0 0
vn 0 1 0
vn 0 -1 0
vn 1 0 0
vn -1 0 0
vn 0 0 -1
vn 0 0 1
vn 0 -1 0
vn 1 0 0
vn -1 0 0
vn 0 0 -1
vn 0 0 1
vn 0 -1 0
vn -0.45942291887376674 0.888217643155949 0
vn 0.472221412515419 -0.8814799700287821 0
vn 0.8854625083921908 0.46471082000724906 0
vn -0.8828723891992798 -0.4696129729783403 0
vn 0 0 -1
vn 0 0 1
vn 0.45942291887376674 0.888217643155949 0
vn -0.472221412515419 -0.8814799700287821 0
vn -0.8854625083921908 0.46471082000724906 0
vn 0.8828723891992798 -0.4696129729783403 0
vn 0 0 -1
vn 0 0 1
vn 0.45942291887376674 0.888217643155949 0
vn -0.472221412515419 -0.8814799700287821 0
vn -0.8854625083921908 0.46471082000724906 0
vn 0.8828723891992798 -0.4696129729783403 0
vn 0 0 -1
vn 0 0 1
vn -0.45942291887376674 0.888217643155949 0
vn 0.472221412515419 -0.8814799700287821 0
vn 0.8854625083921908 0.46471082000724906 0
vn -0.8828723891992798 -0.4696129729783403 0
vn 0 0 -1
vn 0 0 1
vn 1 0 0
vn -1 0 0
vn 0 1 0
vn 0 -1 0
vn 0 0 -1
vn 0 0 1
vn 0 1 0
vn 0 0 -1
vn 1 0 0
vn 0 0 1
vn -1 0 0
vn 1 0 0
vn 0 0 1
vn -1 0 0
vn 0 1 0
vn 0 -1 0
vn -1 0 0
vn 1 0 0
vn 0 0 -1
vn 1 0 0
vn 0 0 1
vn -1 0 0
vn 1 0 0
vn -1 0 0
vn 0 1 0
vn 0 -1 0
vn 0 0 -1
vn 0 0 1
vn 1 0 0
vn -1 0 0
vn 0 1 0
vn 0 -1 0
vn 0 0 -1
vn 0 0 1
vn -1 0 0
vn 0 -1 0
vn 0 0 -1
vn -1 0 0
vn 1 0 0
vn 0 -1 0
vn 1 0 0
vn 0 0 0
vn 0 1 0
vn 0 0 1
vn -1 0 0
vn 0 0 -1
vn 1 0 0
vn 1 0 0
vn -1 0 0
vn 0 0 1
vn 0 0 -1
vn 0 1 0
vn 0 -1 0
vn 0 0 1
vn 0 1 0
vn -1 0 0
vn 0 0 1
vn 0 0 -1
vn 0 -1 0
vn 0 1 0
vn 0 0 -1
vn 0 0 0
vn 0 0 -1
vn 0 -1 0
vn 1 0 0
vn 0 1 0
vn 0 0 -1
vn 0 0 1
vn 0 1 0
vn 0 -1 0
vn 0 0 -1
vn 0 1 0
vn 0 -1 0
vn 1 0 0
vn -1 0 0
vn 0 0 1
vn 0 -1 0
vn 1 0 0
vn -1 0 0
vn 0 0 1
vn 1 0 0
vn -1 0 0
vn 0 0 -1
vn 0 0 1
vn 0 1 0
vn 1 0 0
vn 0 0 1
vn 0 0 -1
vn 0 -1 0
vn 0 1 0
vn 0 0 -1
vn 0 0 0
vn 1 0 0
vn -1 0 0
vn 0 0 1
vn 0 0 -1
vn 0 1 0
vn 0 -1 0
vn 1 0 0
vn -1 0 0
vn 0 0 1
vn 0 0 -1
vn 0 1 0
vn 0 -1 0
vn 1 0 0
vn -1 0 0
vn 0 0 -1
vn 0 0 1
vn 0 1 0
vn 0 -1 0
vn 0 0 1
vn 0 0 -1
vn -1 0 0
vn 1 0 0
vn 0 1 0
vn 0 -1 0
vn 0 0 1
vn 0 0 -1
vn 1 0 0
vn -1 0 0
vn 0 1 0
vn 0 -1 0
vn 1 0 0
vn -1 0 0
vn 0 -1 0
vn 0 1 0
vn 0 0 -1
vn 0 0 1
vn 1 0 0
vn -1 0 0
vn 0 -1 0
vn 0 0 -1
vn 0 0 1
vn -1 0 0
vn 1 0 0
vn 0 -1 0
vn 0 -1 0
vn 0 -1 0
vn 0 -1 0
vn 1 0 0
vn -1 0 0
vn 0 -1 0
vn 0 -1 0
vn 0.7071067811865476 0.7071067811865476 0
vn -0.7071067811865476 0.7071067811865476 0
vn 0 1 0
vn 0 0 1
vn 0 0 1
vn 0 0 -1
vn 0 0 -1
vn 0 0 -1
vn 0 0 1
vn 1 0 0
vn -1 0 0
vn 0 0 -1
vn 0 -1 0
vn 0.8828723891992799 0.46961297297834037 0
vn -0.44721359549995804 0.8944271909999161 0
vn 0.47058823529411764 -0.8823529411764706 0
vn 0 0 1
vn 0 0 -1
vn 0 0 1
vn 0 0 -1
vn 0 1 0
vn 0 1 0
vn -1 0 0
vn 1 0 0
vn 1 0 0
vn -1 0 0
vn 0 1 0
vn 0 0 1
vn 1 0 0
vn -1 0 0
vn 0 0 1
vn 0 0 -1
vn 0 1 0
vn 0 -1 0
vn 1 0 0
vn -1 0 0
vn 0 1 0
vn 0 -1 0
vn 0 0 -1
vn 0 0 1
vn 0.5189781342417641 -0.854787515221729 0
vn -0.5328132696861393 0.8462328400897505 0
vn 0.8597832514091739 0.5106591432612063 0
vn -0.862068494878381 -0.5067917818375937 0
vn 0 0 -1
vn 0 0 1
usemtl m_e0beeff7-ad5b-1529-8b1b-163fcf15f3dc
f 4/1/1 2/2/1 1/3/1 3/4/1
f 7/5/2 5/6/2 6/7/2 8/8/2
f 1/9/3 2/10/3 6/11/3 5/12/3
f 4/13/4 3/14/4 7/15/4 8/16/4
f 3/17/5 1/18/5 5/19/5 7/20/5
f 8/21/6 6/22/6 2/23/6 4/24/6
f 20/25/7 21/26/7 10/27/7 12/28/7
f 19/29/8 20/30/8 12/31/8 14/32/8
f 27/33/9 28/34/9 17/35/9 23/36/9
f 29/37/10 24/38/10 22/39/10 16/40/10
f 20/41/11 19/42/11 13/43/11 11/44/11
f 21/45/12 20/46/12 11/47/12 9/48/12
f 24/49/13 25/50/13 15/51/13 22/52/13
f 26/53/14 27/54/14 23/55/14 18/56/14
f 10/57/15 21/58/15 24/59/15 29/60/15
f 25/61/16 24/62/16 21/63/16 9/64/16
f 13/65/17 19/66/17 27/67/17 26/68/17
f 28/69/18 27/70/18 19/71/18 14/72/18
f 30/73/19 31/74/19 32/75/19
f 35/76/20 30/77/20 32/78/20 36/79/20
f 35/80/21 36/81/21 34/82/21 33/83/21
f 38/84/22 37/85/22 39/86/22
f 39/87/23 37/88/23 42/89/23 43/90/23
f 41/91/24 43/92/24 42/93/24 40/94/24
f 44/95/25 45/96/25 46/97/25
f 49/98/26 44/99/26 46/100/26 50/101/26
f 49/102/27 50/103/27 48/104/27 47/105/27
f 52/106/28 51/107/28 53/108/28
f 53/109/29 51/110/29 56/111/29 57/112/29
f 55/113/30 57/114/30 56/115/30 54/116/30
f 69/117/31 70/118/31 59/119/31 61/120/31
f 68/121/32 69/122/32 61/123/32 63/124/32
f 76/125/33 77/126/33 66/127/33 72/128/33
f 78/129/34 73/130/34 71/131/34 65/132/34
f 69/133/35 68/134/35 62/135/35 60/136/35
f 70/137/36 69/138/36 60/139/36 58/140/36
f 73/141/37 74/142/37 64/143/37 71/144/37
f 75/145/38 76/146/38 72/147/38 67/148/38
f 59/149/39 70/150/39 73/151/39 78/152/39
f 74/153/40 73/154/40 70/155/40 58/156/40
f 62/157/41 68/158/41 76/159/41 75/160/41
f 77/161/42 76/162/42 68/163/42 63/164/42
f 83/165/43 81/166/43 82/167/43 84/168/43
f 81/169/44 79/170/44 80/171/44 82/172/44
f 92/173/45 89/174/45 85/175/45 86/176/45
f 87/177/46 88/178/46 90/179/46 91/180/46
f 80/181/47 79/182/47 89/183/47 92/184/47
f 83/185/48 84/186/48 91/187/48 90/188/48
f 95/189/49 93/190/49 94/191/49 96/192/49
f 99/193/50 95/194/50 96/195/50 100/196/50
f 98/197/51 99/198/51 100/199/51 97/200/51
f 101/201/52 93/202/52 102/203/52 103/204/52
f 103/205/53 102/206/53 106/207/53 107/208/53
f 107/209/54 106/210/54 105/211/54 104/212/54
f 111/213/55 114/214/55 113/215/55 110/216/55
f 109/217/56 112/218/56 114/219/56 111/220/56
f 109/221/57 108/222/57 112/223/57
f 120/224/58 121/225/58 118/226/58 117/227/58
f 121/228/59 119/229/59 116/230/59 118/231/59
f 115/232/60 116/233/60 119/234/60
f 123/235/61 122/236/61 124/237/61 125/238/61
f 126/239/62 128/240/62 129/241/62 127/242/62
f 128/243/63 122/244/63 123/245/63 129/246/63
f 124/247/64 130/248/64 131/249/64 125/250/64
f 135/251/65 134/252/65 132/253/65 133/254/65
f 131/255/66 130/256/66 134/257/66 135/258/66
f 143/259/67 144/260/67 140/261/67 141/262/67
f 142/263/68 143/264/68 141/265/68 139/266/68
f 124/267/69 142/268/69 139/269/69
f 143/270/70 142/271/70 136/272/70 138/273/70
f 144/274/71 143/275/71 138/276/71 137/277/71
f 136/278/72 142/279/72 124/280/72
f 145/281/73 146/282/73 148/283/73 147/284/73
f 150/285/74 149/286/74 151/287/74 152/288/74
f 150/289/75 146/290/75 145/291/75 149/292/75
f 151/293/76 147/294/76 148/295/76 152/296/76
f 153/297/77 154/298/77 156/299/77 155/300/77
f 158/301/78 157/302/78 159/303/78 160/304/78
f 157/305/79 153/306/79 155/307/79 159/308/79
f 154/309/80 158/310/80 160/311/80 156/312/80
f 159/313/81 155/314/81 156/315/81 160/316/81
f 161/317/82 162/318/82 164/319/82 163/320/82
f 166/321/83 165/322/83 167/323/83 168/324/83
f 165/325/84 161/326/84 163/327/84 167/328/84
f 162/329/85 166/330/85 168/331/85 164/332/85
f 167/333/86 163/334/86 164/335/86 168/336/86
f 172/337/87 170/338/87 169/339/87 171/340/87
f 175/341/88 173/342/88 174/343/88 176/344/88
f 169/345/89 170/346/89 174/347/89 173/348/89
f 172/349/90 171/350/90 175/351/90 176/352/90
f 171/353/91 169/354/91 173/355/91 175/356/91
f 176/357/92 174/358/92 170/359/92 172/360/92
f 177/361/93 178/362/93 180/363/93 179/364/93
f 182/365/94 181/366/94 183/367/94 184/368/94
f 182/369/95 178/370/95 177/371/95 181/372/95
f 183/373/96 179/374/96 180/375/96 184/376/96
f 181/377/97 177/378/97 179/379/97 183/380/97
f 178/381/98 182/382/98 184/383/98 180/384/98
f 185/385/99 186/386/99 188/387/99 187/388/99
f 190/389/100 189/390/100 191/391/100 192/392/100
f 190/393/101 186/394/101 185/395/101 189/396/101
f 191/397/102 187/398/102 188/399/102 192/400/102
f 189/401/103 185/402/103 187/403/103 191/404/103
f 186/405/104 190/406/104 192/407/104 188/408/104
f 196/409/105 194/410/105 193/411/105 195/412/105
f 199/413/106 197/414/106 198/415/106 200/416/106
f 193/417/107 194/418/107 198/419/107 197/420/107
f 196/421/108 195/422/108 199/423/108 200/424/108
f 195/425/109 193/426/109 197/427/109 199/428/109
f 200/429/110 198/430/110 194/431/110 196/432/110
f 201/433/111 202/434/111 204/435/111 203/436/111
f 206/437/112 205/438/112 207/439/112 208/440/112
f 206/441/113 202/442/113 201/443/113 205/444/113
f 207/445/114 203/446/114 204/447/114 208/448/114
f 205/449/115 201/450/115 203/451/115 207/452/115
f 202/453/116 206/454/116 208/455/116 204/456/116
f 218/457/117 217/458/117 219/459/117 220/460/117
f 214/461/118 213/462/118 209/463/118 210/464/118
f 215/465/119 214/466/119 210/467/119 212/468/119
f 216/469/120 215/470/120 212/471/120 211/472/120
f 213/473/121 216/474/121 211/475/121 209/476/121
f 210/477/122 217/478/122 218/479/122 212/480/122
f 212/481/123 218/482/123 220/483/123 211/484/123
f 211/485/124 220/486/124 219/487/124 209/488/124
f 226/489/125 225/490/125 223/491/125 224/492/125
f 228/493/126 227/494/126 221/495/126 222/496/126
f 227/497/127 226/498/127 224/499/127 221/500/127
f 225/501/128 228/502/128 222/503/128 223/504/128
f 234/505/129 233/506/129 229/507/129 230/508/129
f 235/509/130 234/510/130 230/511/130 232/512/130
f 236/513/131 235/514/131 232/515/131 231/516/131
f 233/517/132 236/518/132 231/519/132 229/520/132
f 237/521/133 238/522/133 240/523/133 239/524/133
f 242/525/134 241/526/134 243/527/134 244/528/134
f 242/529/135 238/530/135 237/531/135 241/532/135
f 243/533/136 239/534/136 240/535/136 244/536/136
f 241/537/137 237/538/137 239/539/137 243/540/137
f 238/541/138 242/542/138 244/543/138 240/544/138
f 245/545/139 246/546/139 248/547/139 247/548/139
f 250/549/140 249/550/140 251/551/140 252/552/140
f 250/553/141 246/554/141 245/555/141 249/556/141
f 251/557/142 247/558/142 248/559/142 252/560/142
f 249/561/143 245/562/143 247/563/143 251/564/143
f 246/565/144 250/566/144 252/567/144 248/568/144
f 257/569/145 256/570/145 258/571/145 259/572/145
f 253/573/146 256/574/146 257/575/146 255/576/146
f 255/577/147 257/578/147 259/579/147 254/580/147
f 258/581/148 264/582/148 262/583/148 263/584/148
f 266/585/149 265/586/149 260/587/149 261/588/149
f 264/589/150 266/590/150 261/591/150 262/592/150
f 255/593/151 254/594/151 265/595/151 253/596/151
f 266/597/152 253/598/152 265/599/152
f 265/600/153 258/601/153 263/602/153 260/603/153
f 288/604/154 267/605/154 258/606/154 265/607/154
f 267/608/155 268/609/155 259/610/155 258/611/155
f 268/612/156 269/613/156 254/614/156 259/615/156
f 269/616/157 288/617/157 265/618/157 254/619/157
f 270/620/158 271/621/158 273/622/158 272/623/158
f 275/624/159 274/625/159 276/626/159 277/627/159
f 275/628/160 271/629/160 270/630/160 274/631/160
f 276/632/161 272/633/161 273/634/161 277/635/161
f 274/636/162 270/637/162 272/638/162 276/639/162
f 271/640/163 275/641/163 277/642/163 273/643/163
f 288/644/164 287/645/164 281/646/164 282/647/164
f 281/648/165 287/649/165 278/650/165 280/651/165
f 282/652/166 281/653/166 280/654/166 279/655/166
f 285/656/167 287/657/167 288/658/167 286/659/167
f 283/660/168 289/661/168 290/662/168 284/663/168
f 286/664/169 288/665/169 289/666/169 283/667/169
f 284/668/170 290/669/170 287/670/170 285/671/170
f 289/672/171 279/673/171 280/674/171 278/675/171
f 278/676/172 290/677/172 289/678/172
f 296/679/173 295/680/173 297/681/173 298/682/173
f 292/683/174 295/684/174 296/685/174 294/686/174
f 294/687/175 296/688/175 298/689/175 293/690/175
f 293/691/176 298/692/176 297/693/176 291/694/176
f 297/695/177 295/696/177 301/697/177 302/698/177
f 292/699/178 291/700/178 299/701/178 300/702/178
f 291/703/179 297/704/179 302/705/179 299/706/179
f 295/707/180 292/708/180 300/709/180 301/710/180
f 292/711/181 291/712/181 303/713/181 304/714/181
f 303/715/182 291/716/182 305/717/182 310/718/182
f 292/719/183 304/720/183 306/721/183 307/722/183
f 304/723/184 303/724/184 310/725/184 306/726/184
f 307/727/185 305/728/185 291/729/185 292/730/185
f 314/731/186 312/732/186 313/733/186 315/734/186
f 313/735/187 312/736/187 309/737/187 311/738/187
f 315/739/188 313/740/188 311/741/188 310/742/188
f 312/743/189 314/744/189 308/745/189 309/746/189
f 315/747/190 317/748/190 316/749/190 314/750/190
f 310/751/191 318/752/191 317/753/191 315/754/191
f 314/755/192 316/756/192 319/757/192 308/758/192
f 319/759/193 318/760/193 310/761/193 305/762/193
f 324/763/194 323/764/194 325/765/194 326/766/194
f 320/767/195 323/768/195 324/769/195 322/770/195
f 322/771/196 324/772/196 326/773/196 321/774/196
f 330/775/197 329/776/197 285/777/197 286/778/197
f 332/779/198 331/780/198 327/781/198 328/782/198
f 331/783/199 330/784/199 286/785/199 327/786/199
f 329/787/200 332/788/200 328/789/200 285/790/200
f 322/791/201 321/792/201 331/793/201 320/794/201
f 332/795/202 320/796/202 331/797/202
f 333/798/203 334/799/203 336/800/203 335/801/203
f 338/802/204 337/803/204 339/804/204 340/805/204
f 338/806/205 334/807/205 333/808/205 337/809/205
f 339/810/206 335/811/206 336/812/206 340/813/206
f 337/814/207 333/815/207 335/816/207 339/817/207
f 334/818/208 338/819/208 340/820/208 336/821/208
f 341/822/209 342/823/209 344/824/209 343/825/209
f 346/826/210 345/827/210 347/828/210 348/829/210
f 346/830/211 342/831/211 341/832/211 345/833/211
f 347/834/212 343/835/212 344/836/212 348/837/212
f 345/838/213 341/839/213 343/840/213 347/841/213
f 342/842/214 346/843/214 348/844/214 344/845/214
f 352/846/215 350/847/215 349/848/215 351/849/215
f 355/850/216 353/851/216 354/852/216 356/853/216
f 349/854/217 350/855/217 354/856/217 353/857/217
f 352/858/218 351/859/218 355/860/218 356/861/218
f 351/862/219 349/863/219 353/864/219 355/865/219
f 356/866/220 354/867/220 350/868/220 352/869/220
f 357/870/221 358/871/221 360/872/221 359/873/221
f 362/874/222 361/875/222 363/876/222 364/877/222
f 362/878/223 358/879/223 357/880/223 361/881/223
f 363/882/224 359/883/224 360/884/224 364/885/224
f 361/886/225 357/887/225 359/888/225 363/889/225
f 358/890/226 362/891/226 364/892/226 360/893/226
f 368/894/227 366/895/227 365/896/227 367/897/227
f 371/898/228 369/899/228 370/900/228 372/901/228
f 365/902/229 366/903/229 370/904/229 369/905/229
f 368/906/230 367/907/230 371/908/230 372/909/230
f 367/910/231 365/911/231 369/912/231 371/913/231
f 372/914/232 370/915/232 366/916/232 368/917/232
f 376/918/233 374/919/233 373/920/233 375/921/233
f 379/922/234 377/923/234 378/924/234 380/925/234
f 373/926/235 374/927/235 378/928/235 377/929/235
f 376/930/236 375/931/236 379/932/236 380/933/236
f 375/934/237 373/935/237 377/936/237 379/937/237
f 380/938/238 378/939/238 374/940/238 376/941/238
f 391/942/239 392/943/239 382/944/239 384/945/239
f 389/946/240 390/947/240 388/948/240 386/949/240
f 390/950/241 391/951/241 384/952/241 388/953/241
f 385/954/242 381/955/242 383/956/242 387/957/242
f 382/958/243 386/959/243 388/960/243 384/961/243
f 390/962/244 389/963/244 385/964/244 387/965/244
f 392/966/245 391/967/245 383/968/245 381/969/245
f 390/970/246 387/971/246 394/972/246 393/973/246
f 395/974/247 383/975/247 391/976/247 396/977/247
f 394/978/248 387/979/248 383/980/248 395/981/248
f 393/982/249 394/983/249 395/984/249 396/985/249
f 397/986/250 398/987/250 400/988/250 399/989/250
f 402/990/251 401/991/251 403/992/251 404/993/251
f 405/994/252 406/995/252 399/996/252 400/997/252
f 406/998/253 405/999/253 404/1000/253 403/1001/253
f 407/1002/254 408/1003/254 410/1004/254 409/1005/254
f 412/1006/255 411/1007/255 413/1008/255 414/1009/255
f 412/1010/256 408/1011/256 407/1012/256 411/1013/256
f 416/1014/257 415/1015/257 410/1016/257
f 417/1017/258 418/1018/258 414/1019/258
f 420/1020/259 419/1021/259 413/1022/259
f 421/1023/260 419/1024/260 420/1025/260 422/1026/260
f 421/1027/261 422/1028/261 409/1029/261
f 417/1030/262 415/1031/262 416/1032/262 418/1033/262
f 427/1034/263 428/1035/263 424/1036/263 423/1037/263
f 430/1038/264 429/1039/264 425/1040/264 426/1041/264
f 425/1042/265 423/1043/265 424/1044/265 426/1045/265
f 426/1046/266 424/1047/266 428/1048/266 430/1049/266
f 436/1050/267 435/1051/267 437/1052/267 438/1053/267
f 436/1054/268 432/1055/268 431/1056/268 435/1057/268
f 437/1058/269 433/1059/269 434/1060/269 438/1061/269
f 435/1062/270 431/1063/270 433/1064/270 437/1065/270
f 432/1066/271 436/1067/271 438/1068/271 434/1069/271
f 439/1070/272 440/1071/272 442/1072/272 441/1073/272
f 444/1074/273 443/1075/273 445/1076/273 446/1077/273
f 447/1078/274 448/1079/274 443/1080/274 444/1081/274
f 448/1082/275 447/1083/275 440/1084/275 439/1085/275
f 442/1086/276 440/1087/276 444/1088/276 446/1089/276
f 451/1090/277 449/1091/277 450/1092/277 452/1093/277
f 453/1094/278 454/1095/278 456/1096/278 455/1097/278
f 458/1098/279 457/1099/279 459/1100/279 460/1101/279
f 458/1102/280 454/1103/280 453/1104/280 457/1105/280
f 454/1106/281 458/1107/281 460/1108/281 456/1109/281
f 461/1110/282 462/1111/282 464/1112/282 463/1113/282
f 466/1114/283 465/1115/283 467/1116/283 468/1117/283
f 466/1118/284 462/1119/284 461/1120/284 465/1121/284
f 467/1122/285 463/1123/285 464/1124/285 468/1125/285
f 465/1126/286 461/1127/286 463/1128/286 467/1129/286
f 462/1130/287 466/1131/287 468/1132/287 464/1133/287
f 469/1134/288 470/1135/288 472/1136/288 471/1137/288
f 474/1138/289 473/1139/289 475/1140/289 476/1141/289
f 474/1142/290 470/1143/290 469/1144/290 473/1145/290
f 475/1146/291 471/1147/291 472/1148/291 476/1149/291
f 473/1150/292 469/1151/292 471/1152/292 475/1153/292
f 474/1154/293 476/1155/293 472/1156/293 470/1157/293
f 477/1158/294 478/1159/294 480/1160/294 479/1161/294
f 482/1162/295 481/1163/295 483/1164/295 484/1165/295
f 482/1166/296 478/1167/296 477/1168/296 481/1169/296
f 483/1170/297 479/1171/297 480/1172/297 484/1173/297
f 481/1174/298 477/1175/298 479/1176/298 483/1177/298
f 478/1178/299 482/1179/299 484/1180/299 480/1181/299