# Made in Blockbench 4.12.6
mtllib rotor.mtl

o rotor
v 0.5 -0.374998125 -0.375
v 0.5 0.375001875 -0.375
v 0.5 0.375001875 0.375
v 0.5 -0.374998125 0.375
v -0.5 0.37500125 0.375
v -0.5 -0.37499875 0.375
v -0.5 0.37500125 -0.375
v -0.5 -0.37499875 -0.375
vt 0 0
vt 0 1
vt 0.42857142857142855 1
vt 0.42857142857142855 0
vt 0.42857142857142855 0
vt 0.42857142857142855 1
vt 1 1
vt 1 0
vt 0 0
vt 0 1
vt 0.42857142857142855 1
vt 0.42857142857142855 0
vt 0.42857142857142855 0
vt 0.42857142857142855 1
vt 1 1
vt 1 0
vt 0.42857142857142855 1
vt 1 1
vt 1 0
vt 0.42857142857142855 0
vt 1 0
vt 0.42857142857142855 0
vt 0.42857142857142855 1
vt 1 1
vn 1 0 0
vn 0 0 1
vn -1 0 0
vn 0 0 -1
vn -6.249999999762168e-7 0.9999999999998047 0
vn 6.249999999762168e-7 -0.9999999999998047 0
usemtl m_a64481e0-b7f2-8169-66f2-fce3ccbbbba8
f 1/1/1 2/2/1 3/3/1 4/4/1
f 4/5/2 3/6/2 5/7/2 6/8/2
f 6/9/3 5/10/3 7/11/3 8/12/3
f 8/13/4 7/14/4 2/15/4 1/16/4
f 2/17/5 7/18/5 5/19/5 3/20/5
f 8/21/6 1/22/6 4/23/6 6/24/6