# Made in Blockbench 5.1.4
mtllib solar_reflector.mtl

o mirror
v -1.5 3.15625 1.75
v -1.5 2.96875 1.8125
v -1.5 2.84375 0.8125
v -1.5 2.65625 0.8125
v -1.5 3.15625 -1.625
v -1.5 2.96875 -1.6875
v -1.5 2.84375 -0.6875
v -1.5 2.65625 -0.6875
v 1.5 3.15625 1.75
v 1.5 3.15625 -1.625
v 1.5 2.96875 1.8125
v 1.5 2.96875 -1.6875
v -1.5 3.15625 1.75
v -1.5 3.15625 -1.625
v -1.5 2.96875 1.8125
v -1.5 2.96875 -1.6875
v 1.5 2.84375 -0.6875
v -1.5 2.84375 -0.6875
v -1.5 2.65625 -0.6875
v 1.5 2.65625 -0.6875
v 1.5 2.84375 0.8125
v -1.5 2.84375 0.8125
v -1.5 2.65625 0.8125
v 1.5 2.65625 0.8125
v 1.5 3.15625 -1.625
v 1.5 2.96875 -1.6875
v 1.5 2.84375 -0.6875
v 1.5 2.65625 -0.6875
v 1.5 3.15625 1.75
v 1.5 2.96875 1.8125
v 1.5 2.84375 0.8125
v 1.5 2.65625 0.8125
v 1.375 3.1328125 0.4375
v 1.375 3.1328125 -0.3125
v 1.375 2.3828125 0.4375
v 1.375 2.3828125 -0.3125
v 1.5 3.1328125 0.4375
v 1.5 3.1328125 -0.3125
v 1.5 2.3828125 0.4375
v 1.5 2.3828125 -0.3125
v -1.375 3.1328125 0.4375
v -1.375 3.1328125 -0.3125
v -1.375 2.3828125 0.4375
v -1.375 2.3828125 -0.3125
v -1.5 3.1328125 0.4375
v -1.5 3.1328125 -0.3125
v -1.5 2.3828125 0.4375
v -1.5 2.3828125 -0.3125
vt 0.405183125 0.876029453125
vt 0.3828125 0.8690386718750001
vt 0.3828125 1
vt 0.405950859375 1
vt 0.3828125 1
vt 0.3828125 0.8690386718750001
vt 0.405183125 0.876029453125
vt 0.405950859375 1
vt 0 1
vt 0 0.875
vt 0.375 0.875
vt 0.375 1
vt 0.7890625 0.5625
vt 0.7890625 0.6875
vt 0.4140625 0.6875
vt 0.4140625 0.5625
vt 0.3828125 0.6171875
vt 0.40625 0.6171875
vt 0.40625 0.9921875
vt 0.3828125 0.9921875
vt 0.40625 0.5859375
vt 0.40625 0.9609375
vt 0.3828125 0.9609375
vt 0.3828125 0.5859375
vt 0 0.875
vt 0 0.6875
vt 0.375 0.6875
vt 0.375 0.875
vt 0.3828125 0.875
vt 0.3828125 0.6875
vt 0.40625 0.6875
vt 0.40625 0.875
vt 0.7890625 0.6875
vt 0.7890625 0.875
vt 0.4140625 0.875
vt 0.4140625 0.6875
vt 0.40625 0.6875
vt 0.40625 0.875
vt 0.3828125 0.875
vt 0.3828125 0.6875
vt 0.375 0.5625
vt 0.375 0.6875
vt 0 0.6875
vt 0 0.5625
vt 0.4140625 1
vt 0.4140625 0.875
vt 0.7890625 0.875
vt 0.7890625 1
vt 0.405183125 0.876029453125
vt 0.3828125 0.8690386718750001
vt 0.3828125 1
vt 0.405950859375 1
vt 0.3828125 1
vt 0.3828125 0.8690386718750001
vt 0.405183125 0.876029453125
vt 0.405950859375 1
vt 0.140625 0.4453125
vt 0.140625 0.5390625
vt 0.234375 0.5390625
vt 0.234375 0.4453125
vt 0.140625 0.5390625
vt 0.234375 0.5390625
vt 0.234375 0.4453125
vt 0.140625 0.4453125
vt 0.21875 0.421875
vt 0.21875 0.328125
vt 0.234375 0.328125
vt 0.234375 0.421875
vt 0.21875 0.421875
vt 0.234375 0.421875
vt 0.234375 0.328125
vt 0.21875 0.328125
vt 0.234375 0.421875
vt 0.21875 0.421875
vt 0.21875 0.328125
vt 0.234375 0.328125
vt 0.21875 0.328125
vt 0.21875 0.421875
vt 0.234375 0.421875
vt 0.234375 0.328125
vt 0.234375 0.5390625
vt 0.140625 0.5390625
vt 0.140625 0.4453125
vt 0.234375 0.4453125
vt 0.234375 0.4453125
vt 0.234375 0.5390625
vt 0.140625 0.5390625
vt 0.140625 0.4453125
vt 0.234375 0.328125
vt 0.21875 0.328125
vt 0.21875 0.421875
vt 0.234375 0.421875
vt 0.234375 0.328125
vt 0.234375 0.421875
vt 0.21875 0.421875
vt 0.21875 0.328125
vt 0.21875 0.328125
vt 0.21875 0.421875
vt 0.234375 0.421875
vt 0.234375 0.328125
vt 0.234375 0.421875
vt 0.21875 0.421875
vt 0.21875 0.328125
vt 0.234375 0.328125
vn -1 0 0
vn -1 0 0
vn 0 0.9486832980505139 0.31622776601683794
vn 0 -0.9544799780350297 -0.2982749931359468
vn 0 0.316227766016838 0.948683298050514
vn 0 0.316227766016838 -0.948683298050514
vn 0 1 0
vn -1 0 0
vn 0 -1 0
vn 1 0 0
vn 0 0.9486832980505139 -0.31622776601683794
vn 0 -0.9544799780350297 0.2982749931359468
vn 1 0 0
vn 1 0 0
vn -1 0 0
vn 1 0 0
vn 0 1 0
vn 0 -1 0
vn 0 0 1
vn 0 0 -1
vn 1 0 0
vn -1 0 0
vn 0 1 0
vn 0 -1 0
vn 0 0 1
vn 0 0 -1
usemtl m_385082fd-266b-d940-b23b-d44155efc498
f 3/1/1 4/2/1 2/3/1 1/4/1
f 6/5/2 8/6/2 7/7/2 5/8/2
f 14/9/3 18/10/3 17/11/3 10/12/3
f 12/13/4 20/14/4 19/15/4 16/16/4
f 11/17/5 9/18/5 13/19/5 15/20/5
f 14/21/6 10/22/6 12/23/6 16/24/6
f 18/25/7 22/26/7 21/27/7 17/28/7
f 19/29/8 23/30/8 22/31/8 18/32/8
f 20/33/9 24/34/9 23/35/9 19/36/9
f 17/37/10 21/38/10 24/39/10 20/40/10
f 9/41/11 21/42/11 22/43/11 13/44/11
f 15/45/12 23/46/12 24/47/12 11/48/12
f 27/49/13 28/50/13 26/51/13 25/52/13
f 30/53/14 32/54/14 31/55/14 29/56/14
f 35/57/15 33/58/15 34/59/15 36/60/15
f 38/61/16 37/62/16 39/63/16 40/64/16
f 34/65/17 33/66/17 37/67/17 38/68/17
f 39/69/18 35/70/18 36/71/18 40/72/18
f 37/73/19 33/74/19 35/75/19 39/76/19
f 36/77/20 34/78/20 38/79/20 40/80/20
f 42/81/21 41/82/21 43/83/21 44/84/21
f 47/85/22 45/86/22 46/87/22 48/88/22
f 45/89/23 41/90/23 42/91/23 46/92/23
f 44/93/24 43/94/24 47/95/24 48/96/24
f 43/97/25 41/98/25 45/99/25 47/100/25
f 46/101/26 42/102/26 44/103/26 48/104/26
