# Made in Blockbench 5.1.4
mtllib solar_reflector.mtl

o base
v 3 0.5 3
v 3 0.5 0
v 3 0 3
v 3 0 0
v 0 0.5 3
v 0 0.5 0
v 0 0 3
v 0 0 0
v 2.1875 1 2.1875
v 2.1875 1 0.8125
v 2.1875 0.5 2.1875
v 2.1875 0.5 0.8125
v 0.8125 1 2.1875
v 0.8125 1 0.8125
v 0.8125 0.5 2.1875
v 0.8125 0.5 0.8125
v 2 1 0.625
v 2 1 0
v 2 0.5 0.625
v 2 0.5 0
v 1 1 0.625
v 1 1 0
v 1 0.5 0.625
v 1 0.5 0
v 2.375 1 2
v 3 1 2
v 2.375 0.5 2
v 3 0.5 2
v 2.375 1 1
v 3 1 1
v 2.375 0.5 1
v 3 0.5 1
v 0.625 1 1
v 0 1 1
v 0.625 0.5 1
v 0 0.5 1
v 0.625 1 2
v 0 1 2
v 0.625 0.5 2
v 0 0.5 2
v 1 1 2.375
v 1 1 3
v 1 0.5 2.375
v 1 0.5 3
v 2 1 2.375
v 2 1 3
v 2 0.5 2.375
v 2 0.5 3
v 2 1 0
v 2 0.5 0
v 1 1 0
v 1 0.5 0
vt 0.8984375 0.625
vt 0.8984375 1
vt 0.9609375 1
vt 0.9609375 0.625
vt 0.9609375 0.625
vt 0.8984375 0.625
vt 0.8984375 1
vt 0.9609375 1
vt 0.2578125 0.1796875
vt 0.6328125 0.1796875
vt 0.6328125 0.5546875
vt 0.2578125 0.5546875
vt 0.6328125 0.1796875
vt 0.6328125 0.5546875
vt 0.2578125 0.5546875
vt 0.2578125 0.1796875
vt 0.9609375 0.625
vt 0.8984375 0.625
vt 0.8984375 1
vt 0.9609375 1
vt 0.8984375 0.625
vt 0.8984375 1
vt 0.9609375 1
vt 0.9609375 0.625
vt 0 0.421875
vt 0.171875 0.421875
vt 0.171875 0.359375
vt 0 0.359375
vt 0 0.359375
vt 0 0.421875
vt 0.171875 0.421875
vt 0.171875 0.359375
vt 0 0.1796875
vt 0.171875 0.1796875
vt 0.171875 0.3515625
vt 0 0.3515625
vt 0.171875 0.1796875
vt 0.171875 0.3515625
vt 0 0.3515625
vt 0 0.1796875
vt 0 0.359375
vt 0 0.421875
vt 0.171875 0.421875
vt 0.171875 0.359375
vt 0 0.421875
vt 0.171875 0.421875
vt 0.171875 0.359375
vt 0 0.359375
vt 0.7265625 0.484375
vt 0.6484375 0.484375
vt 0.6484375 0.421875
vt 0.7265625 0.421875
vt 0.7265625 0.421875
vt 0.7265625 0.484375
vt 0.6484375 0.484375
vt 0.6484375 0.421875
vt 0.859375 0.484375
vt 0.734375 0.484375
vt 0.734375 0.40625
vt 0.859375 0.40625
vt 0.765625 0.4921875
vt 0.765625 0.5546875
vt 0.640625 0.5546875
vt 0.640625 0.4921875
vt 0.7265625 0.484375
vt 0.6484375 0.484375
vt 0.6484375 0.421875
vt 0.7265625 0.421875
vt 0.7265625 0.421875
vt 0.7265625 0.484375
vt 0.6484375 0.484375
vt 0.6484375 0.421875
vt 0.859375 0.484375
vt 0.734375 0.484375
vt 0.734375 0.40625
vt 0.859375 0.40625
vt 0.765625 0.4921875
vt 0.765625 0.5546875
vt 0.640625 0.5546875
vt 0.640625 0.4921875
vt 0.125 0.5546875
vt 0 0.5546875
vt 0 0.4921875
vt 0.125 0.4921875
vt 0.7265625 0.484375
vt 0.6484375 0.484375
vt 0.6484375 0.421875
vt 0.7265625 0.421875
vt 0.7265625 0.421875
vt 0.7265625 0.484375
vt 0.6484375 0.484375
vt 0.6484375 0.421875
vt 0.859375 0.484375
vt 0.734375 0.484375
vt 0.734375 0.40625
vt 0.859375 0.40625
vt 0.765625 0.4921875
vt 0.765625 0.5546875
vt 0.640625 0.5546875
vt 0.640625 0.4921875
vt 0.125 0.5546875
vt 0 0.5546875
vt 0 0.4921875
vt 0.125 0.4921875
vt 0.7265625 0.484375
vt 0.6484375 0.484375
vt 0.6484375 0.421875
vt 0.7265625 0.421875
vt 0.7265625 0.421875
vt 0.7265625 0.484375
vt 0.6484375 0.484375
vt 0.6484375 0.421875
vt 0.859375 0.484375
vt 0.734375 0.484375
vt 0.734375 0.40625
vt 0.859375 0.40625
vt 0.765625 0.4921875
vt 0.765625 0.5546875
vt 0.640625 0.5546875
vt 0.640625 0.4921875
vt 0.125 0.5546875
vt 0 0.5546875
vt 0 0.4921875
vt 0.125 0.4921875
vt 0.125 0.5546875
vt 0 0.5546875
vt 0 0.4921875
vt 0.125 0.4921875
vn 1 0 0
vn -1 0 0
vn 0 1 0
vn 0 -1 0
vn 0 0 1
vn 0 0 -1
vn 1 0 0
vn -1 0 0
vn 0 1 0
vn 0 -1 0
vn 0 0 1
vn 0 0 -1
vn 1 0 0
vn -1 0 0
vn 0 1 0
vn 0 0 1
vn 0 0 1
vn 0 0 -1
vn 0 1 0
vn -1 0 0
vn 1 0 0
vn 0 0 -1
vn 0 0 1
vn 0 1 0
vn 1 0 0
vn -1 0 0
vn -1 0 0
vn 1 0 0
vn 0 1 0
vn 0 0 -1
vn 0 0 1
vn 0 0 -1
usemtl m_385082fd-266b-d940-b23b-d44155efc498
f 2/1/1 1/2/1 3/3/1 4/4/1
f 7/5/2 5/6/2 6/7/2 8/8/2
f 5/9/3 1/10/3 2/11/3 6/12/3
f 4/13/4 3/14/4 7/15/4 8/16/4
f 3/17/5 1/18/5 5/19/5 7/20/5
f 6/21/6 2/22/6 4/23/6 8/24/6
f 10/25/7 9/26/7 11/27/7 12/28/7
f 15/29/8 13/30/8 14/31/8 16/32/8
f 13/33/9 9/34/9 10/35/9 14/36/9
f 12/37/10 11/38/10 15/39/10 16/40/10
f 11/41/11 9/42/11 13/43/11 15/44/11
f 14/45/12 10/46/12 12/47/12 16/48/12
f 18/49/13 17/50/13 19/51/13 20/52/13
f 23/53/14 21/54/14 22/55/14 24/56/14
f 21/57/15 17/58/15 18/59/15 22/60/15
f 19/61/16 17/62/16 21/63/16 23/64/16
f 26/65/17 25/66/17 27/67/17 28/68/17
f 31/69/18 29/70/18 30/71/18 32/72/18
f 29/73/19 25/74/19 26/75/19 30/76/19
f 27/77/20 25/78/20 29/79/20 31/80/20
f 30/81/21 26/82/21 28/83/21 32/84/21
f 34/85/22 33/86/22 35/87/22 36/88/22
f 39/89/23 37/90/23 38/91/23 40/92/23
f 37/93/24 33/94/24 34/95/24 38/96/24
f 35/97/25 33/98/25 37/99/25 39/100/25
f 38/101/26 34/102/26 36/103/26 40/104/26
f 42/105/27 41/106/27 43/107/27 44/108/27
f 47/109/28 45/110/28 46/111/28 48/112/28
f 45/113/29 41/114/29 42/115/29 46/116/29
f 43/117/30 41/118/30 45/119/30 47/120/30
f 46/121/31 42/122/31 44/123/31 48/124/31
f 51/125/32 49/126/32 50/127/32 52/128/32