# Made in Blockbench 5.1.4
mtllib solar_reflector.mtl

o support
v -1.75 3.125 0.3125
v -1.75 3.125 -0.3125
v -1.5625 3.125 0.3125
v -1.5625 3.125 -0.3125
v -1.75 1.3125 0.5
v -1.75 1.3125 -0.5
v -1.5625 1.3125 0.5
v -1.5625 1.3125 -0.5
v -1.5 3.25 0.5
v -1.5 3.25 -0.5
v -1.5 2.25 0.5
v -1.5 2.25 -0.5
v -1.8125 3.25 0.5
v -1.8125 3.25 -0.5
v -1.8125 2.25 0.5
v -1.8125 2.25 -0.5
v 1.75 1.3125 0.5
v 1.75 1.3125 -0.5
v 1.75 1.125 0.5
v 1.75 1.125 -0.5
v -1.75 1.3125 0.5
v -1.75 1.3125 -0.5
v -1.75 1.125 0.5
v -1.75 1.125 -0.5
v 0.375 1.4375 0.375
v 0.375 1.4375 -0.375
v 0.375 0.5625 0.375
v 0.375 0.5625 -0.375
v -0.375 1.4375 0.375
v -0.375 1.4375 -0.375
v -0.375 0.5625 0.375
v -0.375 0.5625 -0.375
v 1.5625 3.125 0.3125
v 1.5625 3.125 -0.3125
v 1.75 3.125 0.3125
v 1.75 3.125 -0.3125
v 1.5625 1.3125 0.5
v 1.5625 1.3125 -0.5
v 1.75 1.3125 0.5
v 1.75 1.3125 -0.5
v 1.8125 3.25 0.5
v 1.8125 3.25 -0.5
v 1.8125 2.25 0.5
v 1.8125 2.25 -0.5
v 1.5 3.25 0.5
v 1.5 3.25 -0.5
v 1.5 2.25 0.5
v 1.5 2.25 -0.5
vt 0.2578125 1
vt 0.1796875 1
vt 0.1796875 0.9765625
vt 0.2578125 0.9765625
vt 0.7734375 0.125
vt 0.75 0.3515625
vt 0.671875 0.3515625
vt 0.6484375 0.125
vt 0.671875 0.3515625
vt 0.75 0.3515625
vt 0.7734375 0.125
vt 0.6484375 0.125
vt 0.3828125 0.65625
vt 0.40625 0.65625
vt 0.40625 0.8828125
vt 0.3828125 0.8828125
vt 0.40625 0.734375
vt 0.40625 0.9609375
vt 0.3828125 0.9609375
vt 0.3828125 0.734375
vt 0.125 0.171875
vt 0 0.171875
vt 0 0.046875
vt 0.125 0.046875
vt 0.125 0.046875
vt 0.125 0.171875
vt 0 0.171875
vt 0 0.046875
vt 0.1328125 0.046875
vt 0.171875 0.046875
vt 0.171875 0.171875
vt 0.1328125 0.171875
vt 0.171875 0.046875
vt 0.171875 0.171875
vt 0.1328125 0.171875
vt 0.1328125 0.046875
vt 0.171875 0.046875
vt 0.171875 0.171875
vt 0.1328125 0.171875
vt 0.1328125 0.046875
vt 0.171875 0.171875
vt 0.1328125 0.171875
vt 0.1328125 0.046875
vt 0.171875 0.046875
vt 0.40625 0.71875
vt 0.40625 0.84375
vt 0.3828125 0.84375
vt 0.3828125 0.71875
vt 0.3828125 0.71875
vt 0.40625 0.71875
vt 0.40625 0.84375
vt 0.3828125 0.84375
vt 0.875 0.5625
vt 0.875 0.125
vt 1 0.125
vt 1 0.5625
vt 0.875 0.125
vt 1 0.125
vt 1 0.5625
vt 0.875 0.5625
vt 0.3828125 0.5625
vt 0.40625 0.5625
vt 0.40625 1
vt 0.3828125 1
vt 0.40625 0.5625
vt 0.40625 1
vt 0.3828125 1
vt 0.3828125 0.5625
vt 0.890625 1
vt 0.796875 1
vt 0.796875 0.890625
vt 0.890625 0.890625
vt 0.890625 0.890625
vt 0.890625 1
vt 0.796875 1
vt 0.796875 0.890625
vt 0.796875 0.7890625
vt 0.890625 0.7890625
vt 0.890625 0.8828125
vt 0.796875 0.8828125
vt 0.171875 0.1796875
vt 0.171875 0.3515625
vt 0 0.3515625
vt 0 0.1796875
vt 0.890625 0.890625
vt 0.890625 1
vt 0.796875 1
vt 0.796875 0.890625
vt 0.890625 1
vt 0.796875 1
vt 0.796875 0.890625
vt 0.890625 0.890625
vt 0.2578125 1
vt 0.1796875 1
vt 0.1796875 0.9765625
vt 0.2578125 0.9765625
vt 0.7734375 0.125
vt 0.75 0.3515625
vt 0.671875 0.3515625
vt 0.6484375 0.125
vt 0.671875 0.3515625
vt 0.75 0.3515625
vt 0.7734375 0.125
vt 0.6484375 0.125
vt 0.3828125 0.65625
vt 0.40625 0.65625
vt 0.40625 0.8828125
vt 0.3828125 0.8828125
vt 0.40625 0.734375
vt 0.40625 0.9609375
vt 0.3828125 0.9609375
vt 0.3828125 0.734375
vt 0.125 0.171875
vt 0 0.171875
vt 0 0.046875
vt 0.125 0.046875
vt 0.125 0.046875
vt 0.125 0.171875
vt 0 0.171875
vt 0 0.046875
vt 0.1328125 0.046875
vt 0.171875 0.046875
vt 0.171875 0.171875
vt 0.1328125 0.171875
vt 0.171875 0.046875
vt 0.171875 0.171875
vt 0.1328125 0.171875
vt 0.1328125 0.046875
vt 0.171875 0.046875
vt 0.171875 0.171875
vt 0.1328125 0.171875
vt 0.1328125 0.046875
vt 0.171875 0.171875
vt 0.1328125 0.171875
vt 0.1328125 0.046875
vt 0.171875 0.046875
vn 0 1 0
vn -1 0 0
vn 1 0 0
vn 0 0.10289915108550532 0.9946917938265514
vn 0 0.10289915108550532 -0.9946917938265514
vn 1 0 0
vn -1 0 0
vn 0 1 0
vn 0 -1 0
vn 0 0 1
vn 0 0 -1
vn 1 0 0
vn -1 0 0
vn 0 1 0
vn 0 -1 0
vn 0 0 1
vn 0 0 -1
vn 1 0 0
vn -1 0 0
vn 0 1 0
vn 0 -1 0
vn 0 0 1
vn 0 0 -1
vn 0 1 0
vn -1 0 0
vn 1 0 0
vn 0 0.10289915108550532 0.9946917938265514
vn 0 0.10289915108550532 -0.9946917938265514
vn 1 0 0
vn -1 0 0
vn 0 1 0
vn 0 -1 0
vn 0 0 1
vn 0 0 -1
usemtl m_385082fd-266b-d940-b23b-d44155efc498
f 2/1/1 1/2/1 3/3/1 4/4/1
f 5/5/2 1/6/2 2/7/2 6/8/2
f 4/9/3 3/10/3 7/11/3 8/12/3
f 3/13/4 1/14/4 5/15/4 7/16/4
f 6/17/5 2/18/5 4/19/5 8/20/5
f 10/21/6 9/22/6 11/23/6 12/24/6
f 15/25/7 13/26/7 14/27/7 16/28/7
f 13/29/8 9/30/8 10/31/8 14/32/8
f 12/33/9 11/34/9 15/35/9 16/36/9
f 11/37/10 9/38/10 13/39/10 15/40/10
f 14/41/11 10/42/11 12/43/11 16/44/11
f 18/45/12 17/46/12 19/47/12 20/48/12
f 23/49/13 21/50/13 22/51/13 24/52/13
f 21/53/14 17/54/14 18/55/14 22/56/14
f 20/57/15 19/58/15 23/59/15 24/60/15
f 19/61/16 17/62/16 21/63/16 23/64/16
f 22/65/17 18/66/17 20/67/17 24/68/17
f 26/69/18 25/70/18 27/71/18 28/72/18
f 31/73/19 29/74/19 30/75/19 32/76/19
f 29/77/20 25/78/20 26/79/20 30/80/20
f 28/81/21 27/82/21 31/83/21 32/84/21
f 27/85/22 25/86/22 29/87/22 31/88/22
f 30/89/23 26/90/23 28/91/23 32/92/23
f 34/93/24 33/94/24 35/95/24 36/96/24
f 37/97/25 33/98/25 34/99/25 38/100/25
f 36/101/26 35/102/26 39/103/26 40/104/26
f 35/105/27 33/106/27 37/107/27 39/108/27
f 38/109/28 34/110/28 36/111/28 40/112/28
f 42/113/29 41/114/29 43/115/29 44/116/29
f 47/117/30 45/118/30 46/119/30 48/120/30
f 45/121/31 41/122/31 42/123/31 46/124/31
f 44/125/32 43/126/32 47/127/32 48/128/32
f 43/129/33 41/130/33 45/131/33 47/132/33
f 46/133/34 42/134/34 44/135/34 48/136/34
