# Made in Blockbench 5.0.4
mtllib solar_tower.mtl

o cube
v 0.75 1 2.25
v 0.25 1 2.25
v 0.25 2 2.25
v 0.75 2 2.25
v 0.25 1 2.75
v 0.25 2 2.75
v 0.75 1 2.75
v 0.75 2 2.75
v 0.75 1 0.25
v 0.25 1 0.25
v 0.25 2 0.25
v 0.75 2 0.25
v 0.25 1 0.75
v 0.25 2 0.75
v 0.75 1 0.75
v 0.75 2 0.75
v 2.75 1 2.25
v 2.25 1 2.25
v 2.25 2 2.25
v 2.75 2 2.25
v 2.25 1 2.75
v 2.25 2 2.75
v 2.75 1 2.75
v 2.75 2 2.75
v 2.75 1 0.25
v 2.25 1 0.25
v 2.25 2 0.25
v 2.75 2 0.25
v 2.25 1 0.75
v 2.25 2 0.75
v 2.75 1 0.75
v 2.75 2 0.75
v 0.6875 6 2.3125
v 0.3125 6 2.3125
v 0.3125 10 2.3125
v 0.6875 10 2.3125
v 0.3125 6 2.6875
v 0.3125 10 2.6875
v 0.6875 6 2.6875
v 0.6875 10 2.6875
v 0.375 2.28125 0.44140625
v 0.375 2.22265625 0.68359375
v 0.375 5.71875 1.55859375
v 0.375 5.77734375 1.31640625
v 0.625 9.77734375 2.31640625
v 0.625 9.71875 2.55859375
v 0.625 6.22265625 1.68359375
v 0.625 6.28125 1.44140625
v 0.375 9.77734375 2.31640625
v 0.375 6.28125 1.44140625
v 0.625 2.28125 0.44140625
v 0.625 5.77734375 1.31640625
v 0.625 2.22265625 0.68359375
v 0.625 5.71875 1.55859375
v 0.6875 6.5 1.25
v 0.3125 6.5 1.25
v 0.3125 6.5 1.75
v 0.6875 6.5 1.75
v 0.6875 5.5 1.75
v 0.3125 5.5 1.75
v 0.3125 5.5 1.25
v 0.6875 5.5 1.25
v 0.375 2.22265625 2.31640625
v 0.375 2.28125 2.55859375
v 0.375 5.77734375 1.68359375
v 0.375 5.71875 1.44140625
v 0.625 2.22265625 2.31640625
v 0.625 5.71875 1.44140625
v 0.625 2.28125 2.55859375
v 0.625 5.77734375 1.68359375
v 0.375 9.71875 2.55859375
v 0.375 6.22265625 1.68359375
v 0.375 9.77734375 0.68359375
v 0.375 9.71875 0.44140625
v 0.375 6.22265625 1.31640625
v 0.375 6.28125 1.55859375
v 0.625 9.77734375 0.68359375
v 0.625 6.28125 1.55859375
v 0.625 9.71875 0.44140625
v 0.625 6.22265625 1.31640625
v 2.375 2.28125 0.44140625
v 2.375 2.22265625 0.68359375
v 2.375 5.71875 1.55859375
v 2.375 5.77734375 1.31640625
v 2.625 2.28125 0.44140625
v 2.625 5.77734375 1.31640625
v 2.3125 5.5 1.75
v 2.6875 5.5 1.75
v 2.6875 6.5 1.75
v 2.3125 6.5 1.75
v 2.625 9.71875 2.55859375
v 2.375 9.71875 2.55859375
v 2.375 6.22265625 1.68359375
v 2.625 6.22265625 1.68359375
v 2.375 9.77734375 0.68359375
v 2.375 9.71875 0.44140625
v 2.375 6.22265625 1.31640625
v 2.375 6.28125 1.55859375
v 2.625 2.22265625 0.68359375
v 2.625 5.71875 1.55859375
v 2.625 9.77734375 2.31640625
v 2.625 6.28125 1.44140625
v 2.625 9.77734375 0.68359375
v 2.625 6.28125 1.55859375
v 2.375 2.22265625 2.31640625
v 2.375 2.28125 2.55859375
v 2.375 5.77734375 1.68359375
v 2.375 5.71875 1.44140625
v 2.625 9.71875 0.44140625
v 2.625 6.22265625 1.31640625
v 2.375 9.77734375 2.31640625
v 2.375 6.28125 1.44140625
v 2.625 2.22265625 2.31640625
v 2.625 5.71875 1.44140625
v 2.625 2.28125 2.55859375
v 2.625 5.77734375 1.68359375
v 2.6875 6.5 1.25
v 2.3125 6.5 1.25
v 2.3125 5.5 1.25
v 2.6875 5.5 1.25
v 0.44140625 9.71875 0.625
v 0.44140625 9.71875 0.375
v 1.31640625 6.22265625 0.375
v 1.31640625 6.22265625 0.625
v 0.68359375 9.77734375 0.375
v 1.55859375 6.28125 0.375
v 0.68359375 9.77734375 0.625
v 1.55859375 6.28125 0.625
v 1.75 5.5 0.6875
v 1.75 5.5 0.3125
v 1.75 6.5 0.3125
v 1.75 6.5 0.6875
v 1.25 5.5 0.3125
v 1.25 6.5 0.3125
v 1.25 5.5 0.6875
v 1.25 6.5 0.6875
v 0.6875 2 2.3125
v 0.3125 2 2.3125
v 0.3125 2 2.6875
v 0.6875 2 2.6875
v 2.6875 6 2.3125
v 2.3125 6 2.3125
v 2.3125 10 2.3125
v 2.6875 10 2.3125
v 2.3125 6 2.6875
v 2.3125 10 2.6875
v 2.6875 6 2.6875
v 2.6875 10 2.6875
v 2.6875 2 2.3125
v 2.3125 2 2.3125
v 2.3125 2 2.6875
v 2.6875 2 2.6875
v 0.6875 6 0.3125
v 0.3125 6 0.3125
v 0.3125 10 0.3125
v 0.6875 10 0.3125
v 0.3125 6 0.6875
v 0.3125 10 0.6875
v 0.6875 6 0.6875
v 0.6875 10 0.6875
v 0.6875 2 0.3125
v 0.3125 2 0.3125
v 0.3125 2 0.6875
v 0.6875 2 0.6875
v 2.6875 6 0.3125
v 2.3125 6 0.3125
v 2.3125 10 0.3125
v 2.6875 10 0.3125
v 2.3125 6 0.6875
v 2.3125 10 0.6875
v 2.6875 6 0.6875
v 2.6875 10 0.6875
v 2.6875 2 0.3125
v 2.3125 2 0.3125
v 2.3125 2 0.6875
v 2.6875 2 0.6875
v 2.31640625 9.77734375 0.625
v 2.31640625 9.77734375 0.375
v 1.44140625 6.28125 0.375
v 1.44140625 6.28125 0.625
v 2.55859375 9.71875 0.375
v 1.68359375 6.22265625 0.375
v 2.55859375 9.71875 0.625
v 1.68359375 6.22265625 0.625
v 2.55859375 2.28125 0.625
v 2.55859375 2.28125 0.375
v 1.68359375 5.77734375 0.375
v 1.68359375 5.77734375 0.625
v 2.31640625 2.22265625 0.375
v 1.44140625 5.71875 0.375
v 2.31640625 2.22265625 0.625
v 1.44140625 5.71875 0.625
v 0.68359375 2.22265625 0.625
v 0.68359375 2.22265625 0.375
v 1.55859375 5.71875 0.375
v 1.55859375 5.71875 0.625
v 0.44140625 2.28125 0.375
v 1.31640625 5.77734375 0.375
v 0.44140625 2.28125 0.625
v 1.31640625 5.77734375 0.625
v 0.44140625 9.71875 2.625
v 0.44140625 9.71875 2.375
v 1.31640625 6.22265625 2.375
v 1.31640625 6.22265625 2.625
v 0.68359375 9.77734375 2.375
v 1.55859375 6.28125 2.375
v 0.68359375 9.77734375 2.625
v 1.55859375 6.28125 2.625
v 1.75 5.5 2.6875
v 1.75 5.5 2.3125
v 1.75 6.5 2.3125
v 1.75 6.5 2.6875
v 1.25 5.5 2.3125
v 1.25 6.5 2.3125
v 1.25 5.5 2.6875
v 1.25 6.5 2.6875
v 2.31640625 9.77734375 2.625
v 2.31640625 9.77734375 2.375
v 1.44140625 6.28125 2.375
v 1.44140625 6.28125 2.625
v 2.55859375 9.71875 2.375
v 1.68359375 6.22265625 2.375
v 2.55859375 9.71875 2.625
v 1.68359375 6.22265625 2.625
v 2.55859375 2.28125 2.625
v 2.55859375 2.28125 2.375
v 1.68359375 5.77734375 2.375
v 1.68359375 5.77734375 2.625
v 2.31640625 2.22265625 2.375
v 1.44140625 5.71875 2.375
v 2.31640625 2.22265625 2.625
v 1.44140625 5.71875 2.625
v 0.68359375 2.22265625 2.625
v 0.68359375 2.22265625 2.375
v 1.55859375 5.71875 2.375
v 1.55859375 5.71875 2.625
v 0.44140625 2.28125 2.375
v 1.31640625 5.77734375 2.375
v 0.44140625 2.28125 2.625
v 1.31640625 5.77734375 2.625
v 2.5 1 0.5
v 0.5 1 0.5
v 0.5 1.5 0.5
v 2.5 1.5 0.5
v 0.5 1 2.5
v 0.5 1.5 2.5
v 2.5 1 2.5
v 2.5 1.5 2.5
v 2 1 0
v 1 1 0
v 1 2 0
v 2 2 0
v 1 1 1
v 1 2 1
v 2 1 1
v 2 2 1
v 1.25 6 1.25
v 0.75 6 1.25
v 0.75 10 1.25
v 1.25 10 1.25
v 0.75 6 1.75
v 0.75 10 1.75
v 1.25 6 1.75
v 1.25 10 1.75
v 2 1 2
v 1 1 2
v 1 2 2
v 2 2 2
v 1 1 3
v 1 2 3
v 2 1 3
v 2 2 3
v 1.25 2 1.25
v 0.75 2 1.25
v 0.75 2 1.75
v 1.25 2 1.75
v 1.25 1.5 1.25
v 0.75 1.5 1.25
v 0.75 1.5 1.75
v 1.25 1.5 1.75
v 2.25 6 1.25
v 1.75 6 1.25
v 1.75 10 1.25
v 2.25 10 1.25
v 1.75 6 1.75
v 1.75 10 1.75
v 2.25 6 1.75
v 2.25 10 1.75
v 2.25 2 1.25
v 1.75 2 1.25
v 1.75 2 1.75
v 2.25 2 1.75
v 2.25 1.5 1.25
v 1.75 1.5 1.25
v 1.75 1.5 1.75
v 2.25 1.5 1.75
v 3 0 0
v 3 1 0
v 3 0 3
v 3 1 3
v 0 18.5 2
v 1 18.5 3
v 1 19 3
v 0 19 2
v 2 18.5 0
v 1 18.5 0
v 1.5 18.5 0
v 3 19 2
v 2 19 3
v 2 18.5 3
v 3 18.5 2
v 3 18.5 1
v 2 19 0
v 3 19 1
v 0 20.5 1
v 1 20.5 0
v 1 20 0
v 0 20 1
v 2 20.5 3
v 1 20.5 3
v 1.5 20.5 3
v 3 20 1
v 2 20 0
v 2 20.5 0
v 3 20.5 1
v 3 20.5 2
v 2 20 3
v 3 20 2
v 3 19.5 2
v 2 19.5 3
v 0 19.5 1
v 1 19.5 0
v 1 19 0
v 0 19 1
v 3 1 1
v 2.5 1 1
v 2.5 2 1
v 3 2 1
v 2.5 1 2
v 2.5 2 2
v 3 1 2
v 3 2 2
v 0.6875 14 2.3125
v 0.3125 14 2.3125
v 0.3125 18 2.3125
v 0.6875 18 2.3125
v 0.3125 14 2.6875
v 0.3125 18 2.6875
v 0.6875 14 2.6875
v 0.6875 18 2.6875
v 0.375 10.28125 0.44140625
v 0.375 10.22265625 0.68359375
v 0.375 13.71875 1.55859375
v 0.375 13.77734375 1.31640625
v 0.625 17.77734375 2.31640625
v 0.625 17.71875 2.55859375
v 0.625 14.22265625 1.68359375
v 0.625 14.28125 1.44140625
v 0.375 17.77734375 2.31640625
v 0.375 14.28125 1.44140625
v 0.625 10.28125 0.44140625
v 0.625 13.77734375 1.31640625
v 0.6875 14.5 1.25
v 0.3125 14.5 1.25
v 0.3125 14.5 1.75
v 0.6875 14.5 1.75
v 0.6875 13.5 1.75
v 0.3125 13.5 1.75
v 0.3125 13.5 1.25
v 0.6875 13.5 1.25
v 0.625 10.22265625 0.68359375
v 0.625 13.71875 1.55859375
v 0.375 10.22265625 2.31640625
v 0.375 10.28125 2.55859375
v 0.375 13.77734375 1.68359375
v 0.375 13.71875 1.44140625
v 0.625 10.22265625 2.31640625
v 0.625 13.71875 1.44140625
v 0.625 10.28125 2.55859375
v 0.625 13.77734375 1.68359375
v 0.375 17.71875 2.55859375
v 0.375 14.22265625 1.68359375
v 0.375 17.77734375 0.68359375
v 0.375 17.71875 0.44140625
v 0.375 14.22265625 1.31640625
v 0.375 14.28125 1.55859375
v 0.625 17.77734375 0.68359375
v 0.625 14.28125 1.55859375
v 0.625 17.71875 0.44140625
v 0.625 14.22265625 1.31640625
v 2.625 10.28125 0.44140625
v 2.375 10.28125 0.44140625
v 2.375 13.77734375 1.31640625
v 2.625 13.77734375 1.31640625
v 2.3125 13.5 1.75
v 2.6875 13.5 1.75
v 2.6875 14.5 1.75
v 2.3125 14.5 1.75
v 2.625 17.71875 2.55859375
v 2.375 17.71875 2.55859375
v 2.375 14.22265625 1.68359375
v 2.625 14.22265625 1.68359375
v 2.375 17.77734375 0.68359375
v 2.375 17.71875 0.44140625
v 2.375 14.22265625 1.31640625
v 2.375 14.28125 1.55859375
v 2.625 10.22265625 0.68359375
v 2.625 13.71875 1.55859375
v 2.375 10.22265625 0.68359375
v 2.375 13.71875 1.55859375
v 2.625 17.77734375 2.31640625
v 2.625 14.28125 1.44140625
v 2.625 17.77734375 0.68359375
v 2.625 14.28125 1.55859375
v 2.625 17.71875 0.44140625
v 2.625 14.22265625 1.31640625
v 2.375 17.77734375 2.31640625
v 2.375 14.28125 1.44140625
v 2.625 10.22265625 2.31640625
v 2.375 10.22265625 2.31640625
v 2.375 13.71875 1.44140625
v 2.625 13.71875 1.44140625
v 2.625 10.28125 2.55859375
v 2.625 13.77734375 1.68359375
v 2.6875 14.5 1.25
v 2.3125 14.5 1.25
v 2.3125 13.5 1.25
v 2.6875 13.5 1.25
v 2.375 10.28125 2.55859375
v 2.375 13.77734375 1.68359375
v 0.44140625 17.71875 0.625
v 0.44140625 17.71875 0.375
v 1.31640625 14.22265625 0.375
v 1.31640625 14.22265625 0.625
v 0.68359375 17.77734375 0.375
v 1.55859375 14.28125 0.375
v 0.68359375 17.77734375 0.625
v 1.55859375 14.28125 0.625
v 1.75 13.5 0.6875
v 1.75 13.5 0.3125
v 1.75 14.5 0.3125
v 1.75 14.5 0.6875
v 1.25 13.5 0.3125
v 1.25 14.5 0.3125
v 1.25 13.5 0.6875
v 1.25 14.5 0.6875
v 2.6875 14 2.3125
v 2.3125 14 2.3125
v 2.3125 18 2.3125
v 2.6875 18 2.3125
v 2.3125 14 2.6875
v 2.3125 18 2.6875
v 2.6875 14 2.6875
v 2.6875 18 2.6875
v 0.6875 14 0.3125
v 0.3125 14 0.3125
v 0.3125 18 0.3125
v 0.6875 18 0.3125
v 0.3125 14 0.6875
v 0.3125 18 0.6875
v 0.6875 14 0.6875
v 0.6875 18 0.6875
v 2.6875 14 0.3125
v 2.3125 14 0.3125
v 2.3125 18 0.3125
v 2.6875 18 0.3125
v 2.3125 14 0.6875
v 2.3125 18 0.6875
v 2.6875 14 0.6875
v 2.6875 18 0.6875
v 2.31640625 17.77734375 0.625
v 2.31640625 17.77734375 0.375
v 1.44140625 14.28125 0.375
v 1.44140625 14.28125 0.625
v 2.55859375 17.71875 0.375
v 1.68359375 14.22265625 0.375
v 2.55859375 17.71875 0.625
v 1.68359375 14.22265625 0.625
v 2.55859375 10.28125 0.625
v 2.55859375 10.28125 0.375
v 1.68359375 13.77734375 0.375
v 1.68359375 13.77734375 0.625
v 2.31640625 10.22265625 0.375
v 1.44140625 13.71875 0.375
v 2.31640625 10.22265625 0.625
v 1.44140625 13.71875 0.625
v 0.68359375 10.22265625 0.625
v 0.68359375 10.22265625 0.375
v 1.55859375 13.71875 0.375
v 1.55859375 13.71875 0.625
v 0.44140625 10.28125 0.375
v 1.31640625 13.77734375 0.375
v 0.44140625 10.28125 0.625
v 1.31640625 13.77734375 0.625
v 0.44140625 17.71875 2.625
v 0.44140625 17.71875 2.375
v 1.31640625 14.22265625 2.375
v 1.31640625 14.22265625 2.625
v 0.68359375 17.77734375 2.375
v 1.55859375 14.28125 2.375
v 0.68359375 17.77734375 2.625
v 1.55859375 14.28125 2.625
v 1.75 13.5 2.6875
v 1.75 13.5 2.3125
v 1.75 14.5 2.3125
v 1.75 14.5 2.6875
v 1.25 13.5 2.3125
v 1.25 14.5 2.3125
v 1.25 13.5 2.6875
v 1.25 14.5 2.6875
v 2.31640625 17.77734375 2.625
v 2.31640625 17.77734375 2.375
v 1.44140625 14.28125 2.375
v 1.44140625 14.28125 2.625
v 2.55859375 17.71875 2.375
v 1.68359375 14.22265625 2.375
v 2.55859375 17.71875 2.625
v 1.68359375 14.22265625 2.625
v 2.55859375 10.28125 2.625
v 2.55859375 10.28125 2.375
v 1.68359375 13.77734375 2.375
v 1.68359375 13.77734375 2.625
v 2.31640625 10.22265625 2.375
v 2.31640625 10.22265625 2.625
v 1.44140625 13.71875 2.625
v 1.44140625 13.71875 2.375
v 0.68359375 10.22265625 2.625
v 0.68359375 10.22265625 2.375
v 1.55859375 13.71875 2.375
v 1.55859375 13.71875 2.625
v 0.44140625 10.28125 2.375
v 0.44140625 10.28125 2.625
v 1.31640625 13.77734375 2.625
v 1.31640625 13.77734375 2.375
v 1.25 14 1.25
v 0.75 14 1.25
v 0.75 18 1.25
v 1.25 18 1.25
v 0.75 14 1.75
v 0.75 18 1.75
v 1.25 14 1.75
v 1.25 18 1.75
v 2.25 14 1.25
v 1.75 14 1.25
v 1.75 18 1.25
v 2.25 18 1.25
v 1.75 14 1.75
v 1.75 18 1.75
v 2.25 14 1.75
v 2.25 18 1.75
v 0.625 10.22265625 0.68359375
v 0.625 10.28125 0.44140625
v 0.625 13.77734375 1.31640625
v 0.625 13.71875 1.55859375
v 0.625 10.28125 2.55859375
v 0.625 10.22265625 2.31640625
v 0.625 13.71875 1.44140625
v 0.625 13.77734375 1.68359375
v 2.375 10.28125 0.44140625
v 2.375 10.22265625 0.68359375
v 2.375 13.71875 1.55859375
v 2.375 13.77734375 1.31640625
v 2.375 10.22265625 2.31640625
v 2.375 10.28125 2.55859375
v 2.375 13.77734375 1.68359375
v 2.375 13.71875 1.44140625
v 0.44140625 10.28125 0.625
v 0.68359375 10.22265625 0.625
v 1.55859375 13.71875 0.625
v 1.31640625 13.77734375 0.625
v 2.55859375 10.28125 2.375
v 2.31640625 10.22265625 2.375
v 1.44140625 13.71875 2.375
v 1.68359375 13.77734375 2.375
v 0.68359375 10.22265625 2.375
v 0.44140625 10.28125 2.375
v 1.31640625 13.77734375 2.375
v 1.55859375 13.71875 2.375
v 2.31640625 10.22265625 0.625
v 2.55859375 10.28125 0.625
v 1.68359375 13.77734375 0.625
v 1.44140625 13.71875 0.625
v 0 18.5 3
v 0 18.5 0
v 0 18 0
v 0 18 3
v 3 18.5 0
v 3 18.5 3
v 3 18 3
v 3 18 0
v 1.9375 19 1
v 1.9375 19 0
v 1.5 18.5 1
v 1.0625 19 0
v 1.0625 19 1
v 2 19 1.9375
v 3 19 1.9375
v 3 18.5 1.5
v 2 18.5 1.5
v 3 19 1.0625
v 2 19 1.0625
v 1.0625 19 2
v 1.0625 19 3
v 1.5 18.5 3
v 1.5 18.5 2
v 1.9375 19 3
v 1.9375 19 2
v 1 19 1.0625
v 0 19 1.0625
v 0 18.5 1.5
v 1 18.5 1.5
v 0 19 1.9375
v 1 19 1.9375
v 0 18.5 1
v 2.9375 19 2.6875
v 2.9375 18.5 2.6875
v 2.6875 18.5 2.6875
v 2.6875 19 2.6875
v 0.3125 19 0.0625
v 0.3125 18.5 0.0625
v 0.0625 18.5 0.0625
v 0.0625 19 0.0625
v 0.0625 18.5 0.3125
v 0.0625 19 0.3125
v 2.6875 19 0.3125
v 2.6875 18.5 0.3125
v 2.9375 18.5 0.3125
v 1 19 1
v 1 18.5 1
v 1 18.5 2
v 1 19 2
v 2.9375 19 0.3125
v 2.9375 18.5 0.0625
v 2.9375 19 0.0625
v 2 18.5 1
v 2 19 1
v 2 19 2
v 2 18.5 2
v 2.9375 19 2.9375
v 2.9375 18.5 2.9375
v 2.6875 19 0.0625
v 2.6875 18.5 0.0625
v 0.3125 19 2.9375
v 0.3125 18.5 2.9375
v 0.3125 18.5 2.6875
v 0.3125 19 2.6875
v 2.6875 18.5 2.9375
v 2.6875 19 2.9375
v 0.0625 19 2.6875
v 0.0625 18.5 2.6875
v 0.0625 18.5 2.9375
v 0.0625 19 2.9375
v 0 20.5 0
v 0 20.5 3
v 0 21 3
v 0 21 0
v 3 20.5 3
v 3 20.5 0
v 3 21 0
v 3 21 3
v 1.9375 20 2
v 1.9375 20 3
v 1.5 20.5 2
v 1.0625 20 3
v 1.0625 20 2
v 1 20 3
v 2 20 1.0625
v 3 20 1.0625
v 3 20.5 1.5
v 2 20.5 1.5
v 3 20 1.9375
v 2 20 1.9375
v 1.0625 20 1
v 1.0625 20 0
v 1.5 20.5 0
v 1.5 20.5 1
v 1.9375 20 0
v 1.9375 20 1
v 1 20 1.9375
v 0 20 1.9375
v 0 20.5 1.5
v 1 20.5 1.5
v 0 20 1.0625
v 1 20 1.0625
v 0 20 2
v 0 20.5 2
v 2.9375 20 0.3125
v 2.9375 20.5 0.3125
v 2.6875 20.5 0.3125
v 2.6875 20 0.3125
v 0.3125 20 2.9375
v 0.3125 20.5 2.9375
v 0.0625 20.5 2.9375
v 0.0625 20 2.9375
v 0.0625 20.5 2.6875
v 0.0625 20 2.6875
v 2.6875 20 2.6875
v 2.6875 20.5 2.6875
v 2.9375 20.5 2.6875
v 2.9375 20 2.6875
v 1 20 2
v 1 20.5 2
v 1 20.5 1
v 1 20 1
v 2.9375 20.5 2.9375
v 2.9375 20 2.9375
v 2 20.5 2
v 2 20 2
v 2 20 1
v 2 20.5 1
v 2.9375 20 0.0625
v 2.9375 20.5 0.0625
v 2.6875 20 2.9375
v 2.6875 20.5 2.9375
v 0 19.5 2
v 1 19.5 3
v 0.3125 20.5 2.6875
v 0.3125 20 2.6875
v 0.3125 20 0.0625
v 0.3125 20.5 0.0625
v 0.3125 20.5 0.3125
v 0.3125 20 0.3125
v 2.6875 20.5 0.0625
v 2.6875 20 0.0625
v 0.0625 20 0.3125
v 0.0625 20.5 0.3125
v 0.0625 20.5 0.0625
v 0.0625 20 0.0625
v 3 19.5 1
v 2 19.5 0
v 2.6875 19 2.9375
v 2.6875 19 2.6875
v 2.9375 19 2.9375
v 2.9375 19 0.0625
v 2.9375 19 0.3125
v 2.9375 19 2.6875
v 2.6875 19 0.0625
v 2.6875 19 0.3125
v 0.3125 18.5 0.3125
v 0.3125 19 0.3125
v 2.6875 19 0.3125
v 2.6875 18.5 0.3125
v 2.9375 18.5 0.3125
v 2.9375 19 0.3125
v 0 0 3
v 0 0 0
v 0 1 0
v 0 1 3
vt 0.25 0.375
vt 0.25 0.4375
vt 0.375 0.4375
vt 0.375 0.375
vt 0.25 0.4375
vt 0.25 0.375
vt 0.375 0.375
vt 0.375 0.4375
vt 0.25 0.375
vt 0.25 0.4375
vt 0.375 0.4375
vt 0.375 0.375
vt 0.25 0.4375
vt 0.25 0.375
vt 0.375 0.375
vt 0.375 0.4375
vt 0.40625 0.40625
vt 0.46875 0.40625
vt 0.46875 0.46875
vt 0.40625 0.46875
vt 0.25 0.375
vt 0.25 0.4375
vt 0.375 0.4375
vt 0.375 0.375
vt 0.25 0.4375
vt 0.25 0.375
vt 0.375 0.375
vt 0.375 0.4375
vt 0.25 0.375
vt 0.25 0.4375
vt 0.375 0.4375
vt 0.375 0.375
vt 0.25 0.4375
vt 0.25 0.375
vt 0.375 0.375
vt 0.375 0.4375
vt 0.40625 0.40625
vt 0.46875 0.40625
vt 0.46875 0.46875
vt 0.40625 0.46875
vt 0.25 0.375
vt 0.25 0.4375
vt 0.375 0.4375
vt 0.375 0.375
vt 0.25 0.375
vt 0.25 0.4375
vt 0.375 0.4375
vt 0.375 0.375
vt 0.25 0.4375
vt 0.25 0.375
vt 0.375 0.375
vt 0.375 0.4375
vt 0.25 0.375
vt 0.25 0.4375
vt 0.375 0.4375
vt 0.375 0.375
vt 0.46875 0.46875
vt 0.46875 0.40625
vt 0.40625 0.40625
vt 0.40625 0.46875
vt 0.25 0.375
vt 0.25 0.4375
vt 0.375 0.4375
vt 0.375 0.375
vt 0.25 0.375
vt 0.25 0.4375
vt 0.375 0.4375
vt 0.375 0.375
vt 0.25 0.4375
vt 0.25 0.375
vt 0.375 0.375
vt 0.375 0.4375
vt 0.25 0.375
vt 0.25 0.4375
vt 0.375 0.4375
vt 0.375 0.375
vt 0.46875 0.46875
vt 0.46875 0.40625
vt 0.40625 0.40625
vt 0.40625 0.46875
vt 0.640625 0.25
vt 0.59375 0.25
vt 0.59375 0.75
vt 0.640625 0.75
vt 0.640625 0.25
vt 0.59375 0.25
vt 0.59375 0.75
vt 0.640625 0.75
vt 0.59375 0.25
vt 0.640625 0.25
vt 0.640625 0.75
vt 0.59375 0.75
vt 0.640625 0.25
vt 0.59375 0.25
vt 0.59375 0.75
vt 0.640625 0.75
vt 0.59375 0.75
vt 0.5625 0.75
vt 0.5625 0.3125
vt 0.59375 0.3125
vt 0.59375 0.75
vt 0.5625 0.75
vt 0.5625 0.3125
vt 0.59375 0.3125
vt 0.5625 0.75
vt 0.59375 0.75
vt 0.59375 0.3125
vt 0.5625 0.3125
vt 0.5625 0.75
vt 0.59375 0.75
vt 0.59375 0.3125
vt 0.5625 0.3125
vt 0.59375 0.75
vt 0.5625 0.75
vt 0.5625 0.3125
vt 0.59375 0.3125
vt 0.414061875 0.90625
vt 0.460938125 0.90625
vt 0.460938125 0.84375
vt 0.414061875 0.84375
vt 0.414061875 0.90625
vt 0.460938125 0.90625
vt 0.460938125 0.84375
vt 0.414061875 0.84375
vt 0.5625 0.75
vt 0.59375 0.75
vt 0.59375 0.3125
vt 0.5625 0.3125
vt 0.25 0.375
vt 0.25 0.4375
vt 0.375 0.4375
vt 0.375 0.375
vt 0.414061875 0.9375
vt 0.460938125 0.9375
vt 0.460938125 0.8125
vt 0.414061875 0.8125
vt 0.59375 0.75
vt 0.5625 0.75
vt 0.5625 0.3125
vt 0.59375 0.3125
vt 0.5625 0.75
vt 0.59375 0.75
vt 0.59375 0.3125
vt 0.5625 0.3125
vt 0.375 0.4375
vt 0.375 0.375
vt 0.25 0.375
vt 0.25 0.4375
vt 0.460938125 0.8125
vt 0.414061875 0.8125
vt 0.414061875 0.9375
vt 0.460938125 0.9375
vt 0.59375 0.75
vt 0.5625 0.75
vt 0.5625 0.3125
vt 0.59375 0.3125
vt 0.5625 0.75
vt 0.59375 0.75
vt 0.59375 0.3125
vt 0.5625 0.3125
vt 0.59375 0.75
vt 0.5625 0.75
vt 0.5625 0.3125
vt 0.59375 0.3125
vt 0.59375 0.75
vt 0.5625 0.75
vt 0.5625 0.3125
vt 0.59375 0.3125
vt 0.5625 0.75
vt 0.59375 0.75
vt 0.59375 0.3125
vt 0.5625 0.3125
vt 0.5625 0.75
vt 0.59375 0.75
vt 0.59375 0.3125
vt 0.5625 0.3125
vt 0.59375 0.75
vt 0.5625 0.75
vt 0.5625 0.3125
vt 0.59375 0.3125
vt 0.5625 0.75
vt 0.59375 0.75
vt 0.59375 0.3125
vt 0.5625 0.3125
vt 0.59375 0.75
vt 0.5625 0.75
vt 0.5625 0.3125
vt 0.59375 0.3125
vt 0.5625 0.75
vt 0.59375 0.75
vt 0.59375 0.3125
vt 0.5625 0.3125
vt 0.460938125 0.8125
vt 0.414061875 0.8125
vt 0.414061875 0.9375
vt 0.460938125 0.9375
vt 0.5625 0.75
vt 0.59375 0.75
vt 0.59375 0.3125
vt 0.5625 0.3125
vt 0.59375 0.75
vt 0.5625 0.75
vt 0.5625 0.3125
vt 0.59375 0.3125
vt 0.59375 0.75
vt 0.5625 0.75
vt 0.5625 0.3125
vt 0.59375 0.3125
vt 0.5625 0.75
vt 0.59375 0.75
vt 0.59375 0.3125
vt 0.5625 0.3125
vt 0.59375 0.75
vt 0.5625 0.75
vt 0.5625 0.3125
vt 0.59375 0.3125
vt 0.5625 0.75
vt 0.59375 0.75
vt 0.59375 0.3125
vt 0.5625 0.3125
vt 0.59375 0.75
vt 0.5625 0.75
vt 0.5625 0.3125
vt 0.59375 0.3125
vt 0.59375 0.75
vt 0.5625 0.75
vt 0.5625 0.3125
vt 0.59375 0.3125
vt 0.5625 0.75
vt 0.59375 0.75
vt 0.59375 0.3125
vt 0.5625 0.3125
vt 0.5625 0.75
vt 0.59375 0.75
vt 0.59375 0.3125
vt 0.5625 0.3125
vt 0.59375 0.75
vt 0.5625 0.75
vt 0.5625 0.3125
vt 0.59375 0.3125
vt 0.414061875 0.90625
vt 0.460938125 0.90625
vt 0.460938125 0.84375
vt 0.414061875 0.84375
vt 0.414061875 0.90625
vt 0.460938125 0.90625
vt 0.460938125 0.84375
vt 0.414061875 0.84375
vt 0.25 0.375
vt 0.25 0.4375
vt 0.375 0.4375
vt 0.375 0.375
vt 0.5625 0.75
vt 0.59375 0.75
vt 0.59375 0.3125
vt 0.5625 0.3125
vt 0.5625 0.75
vt 0.59375 0.75
vt 0.59375 0.3125
vt 0.5625 0.3125
vt 0.414061875 0.9375
vt 0.460938125 0.9375
vt 0.460938125 0.8125
vt 0.414061875 0.8125
vt 0.375 0.4375
vt 0.375 0.375
vt 0.25 0.375
vt 0.25 0.4375
vt 0.59375 0.75
vt 0.5625 0.75
vt 0.5625 0.3125
vt 0.59375 0.3125
vt 0.5625 0.75
vt 0.59375 0.75
vt 0.59375 0.3125
vt 0.5625 0.3125
vt 0.59375 0.75
vt 0.5625 0.75
vt 0.5625 0.3125
vt 0.59375 0.3125
vt 0.5625 0.75
vt 0.59375 0.75
vt 0.59375 0.3125
vt 0.5625 0.3125
vt 0.59375 0.75
vt 0.5625 0.75
vt 0.5625 0.3125
vt 0.59375 0.3125
vt 0.460938125 0.8125
vt 0.414061875 0.8125
vt 0.414061875 0.9375
vt 0.460938125 0.9375
vt 0.375 0.4375
vt 0.375 0.375
vt 0.25 0.375
vt 0.25 0.4375
vt 0.414061875 0.9375
vt 0.460938125 0.9375
vt 0.460938125 0.8125
vt 0.414061875 0.8125
vt 0.25 0.375
vt 0.25 0.4375
vt 0.375 0.4375
vt 0.375 0.375
vt 0.414061875 0.90625
vt 0.460938125 0.90625
vt 0.460938125 0.84375
vt 0.414061875 0.84375
vt 0.414061875 0.90625
vt 0.460938125 0.90625
vt 0.460938125 0.84375
vt 0.414061875 0.84375
vt 0.640625 0.25
vt 0.59375 0.25
vt 0.59375 0.75
vt 0.640625 0.75
vt 0.640625 0.25
vt 0.59375 0.25
vt 0.59375 0.75
vt 0.640625 0.75
vt 0.59375 0.25
vt 0.640625 0.25
vt 0.640625 0.75
vt 0.59375 0.75
vt 0.640625 0.25
vt 0.59375 0.25
vt 0.59375 0.75
vt 0.640625 0.75
vt 0.640625 0.25
vt 0.59375 0.25
vt 0.59375 0.75
vt 0.640625 0.75
vt 0.640625 0.25
vt 0.59375 0.25
vt 0.59375 0.75
vt 0.640625 0.75
vt 0.59375 0.25
vt 0.640625 0.25
vt 0.640625 0.75
vt 0.59375 0.75
vt 0.640625 0.25
vt 0.59375 0.25
vt 0.59375 0.75
vt 0.640625 0.75
vt 0.640625 0.25
vt 0.59375 0.25
vt 0.59375 0.75
vt 0.640625 0.75
vt 0.640625 0.25
vt 0.59375 0.25
vt 0.59375 0.75
vt 0.640625 0.75
vt 0.59375 0.25
vt 0.640625 0.25
vt 0.640625 0.75
vt 0.59375 0.75
vt 0.640625 0.25
vt 0.59375 0.25
vt 0.59375 0.75
vt 0.640625 0.75
vt 0.640625 0.25
vt 0.59375 0.25
vt 0.59375 0.75
vt 0.640625 0.75
vt 0.640625 0.25
vt 0.59375 0.25
vt 0.59375 0.75
vt 0.640625 0.75
vt 0.59375 0.25
vt 0.640625 0.25
vt 0.640625 0.75
vt 0.59375 0.75
vt 0.640625 0.25
vt 0.59375 0.25
vt 0.59375 0.75
vt 0.640625 0.75
vt 0.640625 0.25
vt 0.59375 0.25
vt 0.59375 0.75
vt 0.640625 0.75
vt 0.640625 0.25
vt 0.59375 0.25
vt 0.59375 0.75
vt 0.640625 0.75
vt 0.59375 0.25
vt 0.640625 0.25
vt 0.640625 0.75
vt 0.59375 0.75
vt 0.640625 0.25
vt 0.59375 0.25
vt 0.59375 0.75
vt 0.640625 0.75
vt 0.640625 0.25
vt 0.59375 0.25
vt 0.59375 0.75
vt 0.640625 0.75
vt 0.640625 0.25
vt 0.59375 0.25
vt 0.59375 0.75
vt 0.640625 0.75
vt 0.59375 0.25
vt 0.640625 0.25
vt 0.640625 0.75
vt 0.59375 0.75
vt 0.640625 0.25
vt 0.59375 0.25
vt 0.59375 0.75
vt 0.640625 0.75
vt 0.640625 0.25
vt 0.59375 0.25
vt 0.59375 0.75
vt 0.640625 0.75
vt 0.640625 0.25
vt 0.59375 0.25
vt 0.59375 0.75
vt 0.640625 0.75
vt 0.59375 0.25
vt 0.640625 0.25
vt 0.640625 0.75
vt 0.59375 0.75
vt 0.640625 0.25
vt 0.59375 0.25
vt 0.59375 0.75
vt 0.640625 0.75
vt 0.5625 0.75
vt 0.59375 0.75
vt 0.59375 0.3125
vt 0.5625 0.3125
vt 0.59375 0.75
vt 0.5625 0.75
vt 0.5625 0.3125
vt 0.59375 0.3125
vt 0.5625 0.75
vt 0.59375 0.75
vt 0.59375 0.3125
vt 0.5625 0.3125
vt 0.59375 0.75
vt 0.5625 0.75
vt 0.5625 0.3125
vt 0.59375 0.3125
vt 0.5625 0.75
vt 0.59375 0.75
vt 0.59375 0.3125
vt 0.5625 0.3125
vt 0.59375 0.75
vt 0.5625 0.75
vt 0.5625 0.3125
vt 0.59375 0.3125
vt 0.5625 0.75
vt 0.59375 0.75
vt 0.59375 0.3125
vt 0.5625 0.3125
vt 0.59375 0.75
vt 0.5625 0.75
vt 0.5625 0.3125
vt 0.59375 0.3125
vt 0.5625 0.75
vt 0.59375 0.75
vt 0.59375 0.3125
vt 0.5625 0.3125
vt 0.59375 0.75
vt 0.5625 0.75
vt 0.5625 0.3125
vt 0.59375 0.3125
vt 0.5625 0.75
vt 0.59375 0.75
vt 0.59375 0.3125
vt 0.5625 0.3125
vt 0.59375 0.75
vt 0.5625 0.75
vt 0.5625 0.3125
vt 0.59375 0.3125
vt 0.5625 0.75
vt 0.59375 0.75
vt 0.59375 0.3125
vt 0.5625 0.3125
vt 0.59375 0.75
vt 0.5625 0.75
vt 0.5625 0.3125
vt 0.59375 0.3125
vt 0.5625 0.75
vt 0.59375 0.75
vt 0.59375 0.3125
vt 0.5625 0.3125
vt 0.59375 0.75
vt 0.5625 0.75
vt 0.5625 0.3125
vt 0.59375 0.3125
vt 0.460938125 0.8125
vt 0.414061875 0.8125
vt 0.414061875 0.9375
vt 0.460938125 0.9375
vt 0.375 0.4375
vt 0.375 0.375
vt 0.25 0.375
vt 0.25 0.4375
vt 0.414061875 0.9375
vt 0.460938125 0.9375
vt 0.460938125 0.8125
vt 0.414061875 0.8125
vt 0.25 0.375
vt 0.25 0.4375
vt 0.375 0.4375
vt 0.375 0.375
vt 0.414061875 0.90625
vt 0.460938125 0.90625
vt 0.460938125 0.84375
vt 0.414061875 0.84375
vt 0.414061875 0.90625
vt 0.460938125 0.90625
vt 0.460938125 0.84375
vt 0.414061875 0.84375
vt 0.5625 0.75
vt 0.59375 0.75
vt 0.59375 0.3125
vt 0.5625 0.3125
vt 0.59375 0.75
vt 0.5625 0.75
vt 0.5625 0.3125
vt 0.59375 0.3125
vt 0.5625 0.75
vt 0.59375 0.75
vt 0.59375 0.3125
vt 0.5625 0.3125
vt 0.59375 0.75
vt 0.5625 0.75
vt 0.5625 0.3125
vt 0.59375 0.3125
vt 0.5625 0.75
vt 0.59375 0.75
vt 0.59375 0.3125
vt 0.5625 0.3125
vt 0.59375 0.75
vt 0.5625 0.75
vt 0.5625 0.3125
vt 0.59375 0.3125
vt 0.5625 0.75
vt 0.59375 0.75
vt 0.59375 0.3125
vt 0.5625 0.3125
vt 0.59375 0.75
vt 0.5625 0.75
vt 0.5625 0.3125
vt 0.59375 0.3125
vt 0.5625 0.75
vt 0.59375 0.75
vt 0.59375 0.3125
vt 0.5625 0.3125
vt 0.59375 0.75
vt 0.5625 0.75
vt 0.5625 0.3125
vt 0.59375 0.3125
vt 0.5625 0.75
vt 0.59375 0.75
vt 0.59375 0.3125
vt 0.5625 0.3125
vt 0.59375 0.75
vt 0.5625 0.75
vt 0.5625 0.3125
vt 0.59375 0.3125
vt 0.25 0.375
vt 0 0.375
vt 0 0.4375
vt 0.25 0.4375
vt 0.25 0.375
vt 0 0.375
vt 0 0.4375
vt 0.25 0.4375
vt 0.25 0.375
vt 0 0.375
vt 0 0.4375
vt 0.25 0.4375
vt 0.25 0.375
vt 0 0.375
vt 0 0.4375
vt 0.25 0.4375
vt 0.960938125 1
vt 0.960938125 0.75
vt 0.710938125 0.75
vt 0.710938125 1
vt 0.5 0.375
vt 0.375 0.375
vt 0.375 0.5
vt 0.5 0.5
vt 0.375 0.4375
vt 0.25 0.4375
vt 0.25 0.5625
vt 0.375 0.5625
vt 0.375 0.4375
vt 0.25 0.4375
vt 0.25 0.5625
vt 0.375 0.5625
vt 0.375 0.4375
vt 0.25 0.4375
vt 0.25 0.5625
vt 0.375 0.5625
vt 0.25 0.5625
vt 0.375 0.5625
vt 0.375 0.4375
vt 0.25 0.4375
vt 0.5 0.25
vt 0.5625 0.25
vt 0.5625 0.75
vt 0.5 0.75
vt 0.5625 0.25
vt 0.5 0.25
vt 0.5 0.75
vt 0.5625 0.75
vt 0.5 0.75
vt 0.5625 0.75
vt 0.5625 0.25
vt 0.5 0.25
vt 0.5625 0.75
vt 0.5 0.75
vt 0.5 0.25
vt 0.5625 0.25
vt 0.375 0.4375
vt 0.25 0.4375
vt 0.25 0.5625
vt 0.375 0.5625
vt 0.375 0.4375
vt 0.25 0.4375
vt 0.25 0.5625
vt 0.375 0.5625
vt 0.5 0.25
vt 0.375 0.25
vt 0.375 0.375
vt 0.5 0.375
vt 0.375 0.4375
vt 0.25 0.4375
vt 0.25 0.5625
vt 0.375 0.5625
vt 0.25 0.5625
vt 0.375 0.5625
vt 0.375 0.4375
vt 0.25 0.4375
vt 0.5 0.25
vt 0.5625 0.25
vt 0.5625 0.75
vt 0.5 0.75
vt 0.5625 0.25
vt 0.5 0.25
vt 0.5 0.75
vt 0.5625 0.75
vt 0.5 0.75
vt 0.5625 0.75
vt 0.5625 0.25
vt 0.5 0.25
vt 0.5625 0.75
vt 0.5 0.75
vt 0.5 0.25
vt 0.5625 0.25
vt 0.5 0.3125
vt 0.5625 0.3125
vt 0.5625 0.25
vt 0.5 0.25
vt 0.5625 0.3125
vt 0.5 0.3125
vt 0.5 0.25
vt 0.5625 0.25
vt 0.5 0.3125
vt 0.5625 0.3125
vt 0.5625 0.25
vt 0.5 0.25
vt 0.5 0.3125
vt 0.5625 0.3125
vt 0.5625 0.25
vt 0.5 0.25
vt 0.5 0.25
vt 0.5625 0.25
vt 0.5625 0.75
vt 0.5 0.75
vt 0.5625 0.25
vt 0.5 0.25
vt 0.5 0.75
vt 0.5625 0.75
vt 0.5 0.75
vt 0.5625 0.75
vt 0.5625 0.25
vt 0.5 0.25
vt 0.5625 0.75
vt 0.5 0.75
vt 0.5 0.25
vt 0.5625 0.25
vt 0.5 0.25
vt 0.5625 0.25
vt 0.5625 0.75
vt 0.5 0.75
vt 0.5625 0.25
vt 0.5 0.25
vt 0.5 0.75
vt 0.5625 0.75
vt 0.5 0.75
vt 0.5625 0.75
vt 0.5625 0.25
vt 0.5 0.25
vt 0.5625 0.75
vt 0.5 0.75
vt 0.5 0.25
vt 0.5625 0.25
vt 0.5 0.3125
vt 0.5625 0.3125
vt 0.5625 0.25
vt 0.5 0.25
vt 0.5625 0.3125
vt 0.5 0.3125
vt 0.5 0.25
vt 0.5625 0.25
vt 0.5 0.3125
vt 0.5625 0.3125
vt 0.5625 0.25
vt 0.5 0.25
vt 0.5 0.3125
vt 0.5625 0.3125
vt 0.5625 0.25
vt 0.5 0.25
vt 0 0.125
vt 0.375 0.125
vt 0.375 0
vt 0 0
vt 0.375 0
vt 0 0
vt 0 0.125
vt 0.375 0.125
vt 0 0.125
vt 0.375 0.125
vt 0.375 0
vt 0 0
vt 0 0
vt 0 0.375
vt 0.375 0.375
vt 0.375 0
vt 0 0
vt 0 0.375
vt 0.375 0.375
vt 0.375 0
vt 0.710938125 0.75
vt 0.53125 0.75
vt 0.53125 0.8125
vt 0.710938125 0.8125
vt 0 0
vt 0 0
vt 0 0
vt 0.53125 0.8125
vt 0.710938125 0.8125
vt 0.710938125 0.75
vt 0.53125 0.75
vt 0.710938125 0.75
vt 0.53125 0.75
vt 0.53125 0.8125
vt 0.710938125 0.8125
vt 0.53125 1
vt 0.710938125 1
vt 0.710938125 0.9375
vt 0.53125 0.9375
vt 0 0
vt 0 0
vt 0 0
vt 0.710938125 0.9375
vt 0.53125 0.9375
vt 0.53125 1
vt 0.710938125 1
vt 0.53125 1
vt 0.710938125 1
vt 0.710938125 0.9375
vt 0.53125 0.9375
vt 0.710938125 0.8125
vt 0.53125 0.8125
vt 0.53125 0.875
vt 0.710938125 0.875
vt 0.53125 0.875
vt 0.710938125 0.875
vt 0.710938125 0.8125
vt 0.53125 0.8125
vt 0.3125 0.4375
vt 0.25 0.4375
vt 0.25 0.5625
vt 0.3125 0.5625
vt 0.375 0.4375
vt 0.25 0.4375
vt 0.25 0.5625
vt 0.375 0.5625
vt 0.375 0.4375
vt 0.3125 0.4375
vt 0.3125 0.5625
vt 0.375 0.5625
vt 0.5 0.125
vt 0.375 0.125
vt 0.375 0.25
vt 0.5 0.25
vt 0.375 0.5625
vt 0.375 0.5
vt 0.25 0.5
vt 0.25 0.5625
vt 0.640625 0.25
vt 0.59375 0.25
vt 0.59375 0.75
vt 0.640625 0.75
vt 0.640625 0.25
vt 0.59375 0.25
vt 0.59375 0.75
vt 0.640625 0.75
vt 0.59375 0.25
vt 0.640625 0.25
vt 0.640625 0.75
vt 0.59375 0.75
vt 0.640625 0.25
vt 0.59375 0.25
vt 0.59375 0.75
vt 0.640625 0.75
vt 0.59375 0.75
vt 0.5625 0.75
vt 0.5625 0.3125
vt 0.59375 0.3125
vt 0.59375 0.75
vt 0.5625 0.75
vt 0.5625 0.3125
vt 0.59375 0.3125
vt 0.5625 0.75
vt 0.59375 0.75
vt 0.59375 0.3125
vt 0.5625 0.3125
vt 0.5625 0.75
vt 0.59375 0.75
vt 0.59375 0.3125
vt 0.5625 0.3125
vt 0.414061875 0.90625
vt 0.460938125 0.90625
vt 0.460938125 0.84375
vt 0.414061875 0.84375
vt 0.414061875 0.90625
vt 0.460938125 0.90625
vt 0.460938125 0.84375
vt 0.414061875 0.84375
vt 0.5625 0.75
vt 0.59375 0.75
vt 0.59375 0.3125
vt 0.5625 0.3125
vt 0.25 0.375
vt 0.25 0.4375
vt 0.375 0.4375
vt 0.375 0.375
vt 0.414061875 0.9375
vt 0.460938125 0.9375
vt 0.460938125 0.8125
vt 0.414061875 0.8125
vt 0.59375 0.75
vt 0.5625 0.75
vt 0.5625 0.3125
vt 0.59375 0.3125
vt 0.5625 0.75
vt 0.59375 0.75
vt 0.59375 0.3125
vt 0.5625 0.3125
vt 0.375 0.4375
vt 0.375 0.375
vt 0.25 0.375
vt 0.25 0.4375
vt 0.460938125 0.8125
vt 0.414061875 0.8125
vt 0.414061875 0.9375
vt 0.460938125 0.9375
vt 0.5625 0.75
vt 0.59375 0.75
vt 0.59375 0.3125
vt 0.5625 0.3125
vt 0.59375 0.75
vt 0.5625 0.75
vt 0.5625 0.3125
vt 0.59375 0.3125
vt 0.59375 0.75
vt 0.5625 0.75
vt 0.5625 0.3125
vt 0.59375 0.3125
vt 0.5625 0.75
vt 0.59375 0.75
vt 0.59375 0.3125
vt 0.5625 0.3125
vt 0.5625 0.75
vt 0.59375 0.75
vt 0.59375 0.3125
vt 0.5625 0.3125
vt 0.59375 0.75
vt 0.5625 0.75
vt 0.5625 0.3125
vt 0.59375 0.3125
vt 0.5625 0.75
vt 0.59375 0.75
vt 0.59375 0.3125
vt 0.5625 0.3125
vt 0.5625 0.75
vt 0.59375 0.75
vt 0.59375 0.3125
vt 0.5625 0.3125
vt 0.460938125 0.8125
vt 0.414061875 0.8125
vt 0.414061875 0.9375
vt 0.460938125 0.9375
vt 0.5625 0.75
vt 0.59375 0.75
vt 0.59375 0.3125
vt 0.5625 0.3125
vt 0.59375 0.75
vt 0.5625 0.75
vt 0.5625 0.3125
vt 0.59375 0.3125
vt 0.59375 0.75
vt 0.5625 0.75
vt 0.5625 0.3125
vt 0.59375 0.3125
vt 0.5625 0.75
vt 0.59375 0.75
vt 0.59375 0.3125
vt 0.5625 0.3125
vt 0.59375 0.75
vt 0.5625 0.75
vt 0.5625 0.3125
vt 0.59375 0.3125
vt 0.5625 0.75
vt 0.59375 0.75
vt 0.59375 0.3125
vt 0.5625 0.3125
vt 0.59375 0.75
vt 0.5625 0.75
vt 0.5625 0.3125
vt 0.59375 0.3125
vt 0.5625 0.75
vt 0.59375 0.75
vt 0.59375 0.3125
vt 0.5625 0.3125
vt 0.5625 0.75
vt 0.59375 0.75
vt 0.59375 0.3125
vt 0.5625 0.3125
vt 0.59375 0.75
vt 0.5625 0.75
vt 0.5625 0.3125
vt 0.59375 0.3125
vt 0.414061875 0.90625
vt 0.460938125 0.90625
vt 0.460938125 0.84375
vt 0.414061875 0.84375
vt 0.414061875 0.90625
vt 0.460938125 0.90625
vt 0.460938125 0.84375
vt 0.414061875 0.84375
vt 0.25 0.375
vt 0.25 0.4375
vt 0.375 0.4375
vt 0.375 0.375
vt 0.5625 0.75
vt 0.59375 0.75
vt 0.59375 0.3125
vt 0.5625 0.3125
vt 0.5625 0.75
vt 0.59375 0.75
vt 0.59375 0.3125
vt 0.5625 0.3125
vt 0.414061875 0.9375
vt 0.460938125 0.9375
vt 0.460938125 0.8125
vt 0.414061875 0.8125
vt 0.375 0.4375
vt 0.375 0.375
vt 0.25 0.375
vt 0.25 0.4375
vt 0.59375 0.75
vt 0.5625 0.75
vt 0.5625 0.3125
vt 0.59375 0.3125
vt 0.5625 0.75
vt 0.59375 0.75
vt 0.59375 0.3125
vt 0.5625 0.3125
vt 0.59375 0.75
vt 0.5625 0.75
vt 0.5625 0.3125
vt 0.59375 0.3125
vt 0.5625 0.75
vt 0.59375 0.75
vt 0.59375 0.3125
vt 0.5625 0.3125
vt 0.59375 0.75
vt 0.5625 0.75
vt 0.5625 0.3125
vt 0.59375 0.3125
vt 0.460938125 0.8125
vt 0.414061875 0.8125
vt 0.414061875 0.9375
vt 0.460938125 0.9375
vt 0.375 0.4375
vt 0.375 0.375
vt 0.25 0.375
vt 0.25 0.4375
vt 0.414061875 0.9375
vt 0.460938125 0.9375
vt 0.460938125 0.8125
vt 0.414061875 0.8125
vt 0.25 0.375
vt 0.25 0.4375
vt 0.375 0.4375
vt 0.375 0.375
vt 0.414061875 0.90625
vt 0.460938125 0.90625
vt 0.460938125 0.84375
vt 0.414061875 0.84375
vt 0.414061875 0.90625
vt 0.460938125 0.90625
vt 0.460938125 0.84375
vt 0.414061875 0.84375
vt 0.640625 0.25
vt 0.59375 0.25
vt 0.59375 0.75
vt 0.640625 0.75
vt 0.640625 0.25
vt 0.59375 0.25
vt 0.59375 0.75
vt 0.640625 0.75
vt 0.59375 0.25
vt 0.640625 0.25
vt 0.640625 0.75
vt 0.59375 0.75
vt 0.640625 0.25
vt 0.59375 0.25
vt 0.59375 0.75
vt 0.640625 0.75
vt 0.640625 0.25
vt 0.59375 0.25
vt 0.59375 0.75
vt 0.640625 0.75
vt 0.640625 0.25
vt 0.59375 0.25
vt 0.59375 0.75
vt 0.640625 0.75
vt 0.59375 0.25
vt 0.640625 0.25
vt 0.640625 0.75
vt 0.59375 0.75
vt 0.640625 0.25
vt 0.59375 0.25
vt 0.59375 0.75
vt 0.640625 0.75
vt 0.640625 0.25
vt 0.59375 0.25
vt 0.59375 0.75
vt 0.640625 0.75
vt 0.640625 0.25
vt 0.59375 0.25
vt 0.59375 0.75
vt 0.640625 0.75
vt 0.59375 0.25
vt 0.640625 0.25
vt 0.640625 0.75
vt 0.59375 0.75
vt 0.640625 0.25
vt 0.59375 0.25
vt 0.59375 0.75
vt 0.640625 0.75
vt 0.640625 0.25
vt 0.59375 0.25
vt 0.59375 0.75
vt 0.640625 0.75
vt 0.640625 0.25
vt 0.59375 0.25
vt 0.59375 0.75
vt 0.640625 0.75
vt 0.59375 0.25
vt 0.640625 0.25
vt 0.640625 0.75
vt 0.59375 0.75
vt 0.640625 0.25
vt 0.59375 0.25
vt 0.59375 0.75
vt 0.640625 0.75
vt 0.640625 0.25
vt 0.59375 0.25
vt 0.59375 0.75
vt 0.640625 0.75
vt 0.640625 0.25
vt 0.59375 0.25
vt 0.59375 0.75
vt 0.640625 0.75
vt 0.59375 0.25
vt 0.640625 0.25
vt 0.640625 0.75
vt 0.59375 0.75
vt 0.640625 0.25
vt 0.59375 0.25
vt 0.59375 0.75
vt 0.640625 0.75
vt 0.640625 0.25
vt 0.59375 0.25
vt 0.59375 0.75
vt 0.640625 0.75
vt 0.640625 0.25
vt 0.59375 0.25
vt 0.59375 0.75
vt 0.640625 0.75
vt 0.59375 0.25
vt 0.640625 0.25
vt 0.640625 0.75
vt 0.59375 0.75
vt 0.640625 0.25
vt 0.59375 0.25
vt 0.59375 0.75
vt 0.640625 0.75
vt 0.640625 0.25
vt 0.59375 0.25
vt 0.59375 0.75
vt 0.640625 0.75
vt 0.640625 0.25
vt 0.59375 0.25
vt 0.59375 0.75
vt 0.640625 0.75
vt 0.59375 0.25
vt 0.640625 0.25
vt 0.640625 0.75
vt 0.59375 0.75
vt 0.640625 0.25
vt 0.59375 0.25
vt 0.59375 0.75
vt 0.640625 0.75
vt 0.5625 0.75
vt 0.59375 0.75
vt 0.59375 0.3125
vt 0.5625 0.3125
vt 0.59375 0.75
vt 0.5625 0.75
vt 0.5625 0.3125
vt 0.59375 0.3125
vt 0.5625 0.75
vt 0.59375 0.75
vt 0.59375 0.3125
vt 0.5625 0.3125
vt 0.59375 0.75
vt 0.5625 0.75
vt 0.5625 0.3125
vt 0.59375 0.3125
vt 0.5625 0.75
vt 0.59375 0.75
vt 0.59375 0.3125
vt 0.5625 0.3125
vt 0.59375 0.75
vt 0.5625 0.75
vt 0.5625 0.3125
vt 0.59375 0.3125
vt 0.5625 0.75
vt 0.59375 0.75
vt 0.59375 0.3125
vt 0.5625 0.3125
vt 0.5625 0.75
vt 0.59375 0.75
vt 0.59375 0.3125
vt 0.5625 0.3125
vt 0.59375 0.75
vt 0.5625 0.75
vt 0.5625 0.3125
vt 0.59375 0.3125
vt 0.5625 0.75
vt 0.59375 0.75
vt 0.59375 0.3125
vt 0.5625 0.3125
vt 0.5625 0.75
vt 0.59375 0.75
vt 0.59375 0.3125
vt 0.5625 0.3125
vt 0.59375 0.75
vt 0.5625 0.75
vt 0.5625 0.3125
vt 0.59375 0.3125
vt 0.5625 0.75
vt 0.59375 0.75
vt 0.59375 0.3125
vt 0.5625 0.3125
vt 0.59375 0.75
vt 0.5625 0.75
vt 0.5625 0.3125
vt 0.59375 0.3125
vt 0.460938125 0.8125
vt 0.414061875 0.8125
vt 0.414061875 0.9375
vt 0.460938125 0.9375
vt 0.375 0.4375
vt 0.375 0.375
vt 0.25 0.375
vt 0.25 0.4375
vt 0.414061875 0.9375
vt 0.460938125 0.9375
vt 0.460938125 0.8125
vt 0.414061875 0.8125
vt 0.25 0.375
vt 0.25 0.4375
vt 0.375 0.4375
vt 0.375 0.375
vt 0.414061875 0.90625
vt 0.460938125 0.90625
vt 0.460938125 0.84375
vt 0.414061875 0.84375
vt 0.414061875 0.90625
vt 0.460938125 0.90625
vt 0.460938125 0.84375
vt 0.414061875 0.84375
vt 0.5625 0.75
vt 0.59375 0.75
vt 0.59375 0.3125
vt 0.5625 0.3125
vt 0.59375 0.75
vt 0.5625 0.75
vt 0.5625 0.3125
vt 0.59375 0.3125
vt 0.5625 0.75
vt 0.59375 0.75
vt 0.59375 0.3125
vt 0.5625 0.3125
vt 0.59375 0.75
vt 0.5625 0.75
vt 0.5625 0.3125
vt 0.59375 0.3125
vt 0.5625 0.75
vt 0.59375 0.75
vt 0.59375 0.3125
vt 0.5625 0.3125
vt 0.5625 0.75
vt 0.59375 0.75
vt 0.59375 0.3125
vt 0.5625 0.3125
vt 0.59375 0.75
vt 0.5625 0.75
vt 0.5625 0.3125
vt 0.59375 0.3125
vt 0.5625 0.75
vt 0.59375 0.75
vt 0.59375 0.3125
vt 0.5625 0.3125
vt 0.5625 0.75
vt 0.59375 0.75
vt 0.59375 0.3125
vt 0.5625 0.3125
vt 0.59375 0.75
vt 0.5625 0.75
vt 0.5625 0.3125
vt 0.59375 0.3125
vt 0.5 0.25
vt 0.5625 0.25
vt 0.5625 0.75
vt 0.5 0.75
vt 0.5625 0.25
vt 0.5 0.25
vt 0.5 0.75
vt 0.5625 0.75
vt 0.5 0.75
vt 0.5625 0.75
vt 0.5625 0.25
vt 0.5 0.25
vt 0.5625 0.75
vt 0.5 0.75
vt 0.5 0.25
vt 0.5625 0.25
vt 0.5 0.25
vt 0.5625 0.25
vt 0.5625 0.75
vt 0.5 0.75
vt 0.5625 0.25
vt 0.5 0.25
vt 0.5 0.75
vt 0.5625 0.75
vt 0.5 0.75
vt 0.5625 0.75
vt 0.5625 0.25
vt 0.5 0.25
vt 0.5625 0.75
vt 0.5 0.75
vt 0.5 0.25
vt 0.5625 0.25
vt 0.5 0.25
vt 0.5625 0.25
vt 0.5625 0.75
vt 0.5 0.75
vt 0.5625 0.25
vt 0.5 0.25
vt 0.5 0.75
vt 0.5625 0.75
vt 0.5 0.75
vt 0.5625 0.75
vt 0.5625 0.25
vt 0.5 0.25
vt 0.5625 0.75
vt 0.5 0.75
vt 0.5 0.25
vt 0.5625 0.25
vt 0.5 0.25
vt 0.5625 0.25
vt 0.5625 0.75
vt 0.5 0.75
vt 0.5625 0.25
vt 0.5 0.25
vt 0.5 0.75
vt 0.5625 0.75
vt 0.5 0.75
vt 0.5625 0.75
vt 0.5625 0.25
vt 0.5 0.25
vt 0.5625 0.75
vt 0.5 0.75
vt 0.5 0.25
vt 0.5625 0.25
vt 0.59375 0.75
vt 0.5625 0.75
vt 0.5625 0.3125
vt 0.59375 0.3125
vt 0.59375 0.75
vt 0.5625 0.75
vt 0.5625 0.3125
vt 0.59375 0.3125
vt 0.59375 0.75
vt 0.5625 0.75
vt 0.5625 0.3125
vt 0.59375 0.3125
vt 0.59375 0.75
vt 0.5625 0.75
vt 0.5625 0.3125
vt 0.59375 0.3125
vt 0.59375 0.75
vt 0.5625 0.75
vt 0.5625 0.3125
vt 0.59375 0.3125
vt 0.59375 0.75
vt 0.5625 0.75
vt 0.5625 0.3125
vt 0.59375 0.3125
vt 0.59375 0.75
vt 0.5625 0.75
vt 0.5625 0.3125
vt 0.59375 0.3125
vt 0.59375 0.75
vt 0.5625 0.75
vt 0.5625 0.3125
vt 0.59375 0.3125
vt 0 0.625
vt 0.375 0.625
vt 0.375 0.5625
vt 0 0.5625
vt 0 0.625
vt 0.375 0.625
vt 0.375 0.5625
vt 0 0.5625
vt 0.125 0.476561875
vt 0.25 0.476561875
vt 0.25 0.5625
vt 0.125 0.5625
vt 0.125 0.476561875
vt 0.25 0.476561875
vt 0.25 0.5625
vt 0.125 0.5625
vt 0.5 0.8125
vt 0.5 0.75
vt 0.4375 0.75
vt 0.492188125 0.8125
vt 0.382811875 0.8125
vt 0.4375 0.75
vt 0.375 0.75
vt 0.375 0.8125
vt 0 0.625
vt 0.375 0.625
vt 0.375 0.5625
vt 0 0.5625
vt 0.125 0.476561875
vt 0.25 0.476561875
vt 0.25 0.5625
vt 0.125 0.5625
vt 0.125 0.476561875
vt 0.25 0.476561875
vt 0.25 0.5625
vt 0.125 0.5625
vt 0.5 0.8125
vt 0.5 0.75
vt 0.4375 0.75
vt 0.492188125 0.8125
vt 0.382811875 0.8125
vt 0.4375 0.75
vt 0.375 0.75
vt 0.375 0.8125
vt 0.125 0.476561875
vt 0.25 0.476561875
vt 0.25 0.5625
vt 0.125 0.5625
vt 0.125 0.476561875
vt 0.25 0.476561875
vt 0.25 0.5625
vt 0.125 0.5625
vt 0.5 0.8125
vt 0.5 0.75
vt 0.4375 0.75
vt 0.492188125 0.8125
vt 0.382811875 0.8125
vt 0.4375 0.75
vt 0.375 0.75
vt 0.375 0.8125
vt 0.125 0.476561875
vt 0.25 0.476561875
vt 0.25 0.5625
vt 0.125 0.5625
vt 0.125 0.476561875
vt 0.25 0.476561875
vt 0.25 0.5625
vt 0.125 0.5625
vt 0.5 0.8125
vt 0.5 0.75
vt 0.4375 0.75
vt 0.492188125 0.8125
vt 0.382811875 0.8125
vt 0.4375 0.75
vt 0.375 0.75
vt 0.375 0.8125
vt 0 0.625
vt 0.375 0.625
vt 0.375 1
vt 0 1
vt 0 0.625
vt 0.375 0.625
vt 0.375 0.5625
vt 0 0.5625
vt 0.53125 0.8125
vt 0.53125 0.75
vt 0.5 0.75
vt 0.5 0.8125
vt 0.53125 0.8125
vt 0.53125 0.75
vt 0.5 0.75
vt 0.5 0.8125
vt 0.53125 0.8125
vt 0.53125 0.75
vt 0.5 0.75
vt 0.5 0.8125
vt 0.375 0.5625
vt 0.375 0.5
vt 0.5 0.5
vt 0.5 0.5625
vt 0.53125 0.8125
vt 0.53125 0.75
vt 0.5 0.75
vt 0.5 0.8125
vt 0.375 0.5
vt 0.375 0.5625
vt 0.5 0.5625
vt 0.5 0.5
vt 0.375 0.5625
vt 0.375 0.5
vt 0.5 0.5
vt 0.5 0.5625
vt 0.53125 0.8125
vt 0.53125 0.75
vt 0.5 0.75
vt 0.5 0.8125
vt 0.53125 0.8125
vt 0.53125 0.75
vt 0.5 0.75
vt 0.5 0.8125
vt 0.53125 0.8125
vt 0.710938125 0.8125
vt 0.710938125 0.75
vt 0.53125 0.75
vt 0.53125 0.8125
vt 0.53125 0.75
vt 0.5 0.75
vt 0.5 0.8125
vt 0.53125 0.8125
vt 0.53125 0.75
vt 0.5 0.75
vt 0.5 0.8125
vt 0.53125 0.8125
vt 0.53125 0.75
vt 0.5 0.75
vt 0.5 0.8125
vt 0.53125 0.8125
vt 0.53125 0.75
vt 0.5 0.75
vt 0.5 0.8125
vt 0.53125 0.8125
vt 0.53125 0.75
vt 0.5 0.75
vt 0.5 0.8125
vt 0.53125 0.75
vt 0.53125 0.8125
vt 0.5 0.8125
vt 0.5 0.75
vt 0.53125 0.8125
vt 0.5 0.8125
vt 0.5 0.75
vt 0.53125 0.75
vt 0.53125 0.8125
vt 0.53125 0.75
vt 0.5 0.75
vt 0.5 0.8125
vt 0.375 0.5625
vt 0.375 0.5
vt 0.5 0.5
vt 0.5 0.5625
vt 0 1
vt 0 0.625
vt 0.375 0.625
vt 0.375 1
vt 0.375 0.5625
vt 0 0.5625
vt 0 0.625
vt 0.375 0.625
vt 0.375 0.5625
vt 0 0.5625
vt 0 0.625
vt 0.375 0.625
vt 0.125 0.476561875
vt 0.25 0.476561875
vt 0.25 0.5625
vt 0.125 0.5625
vt 0.125 0.476561875
vt 0.25 0.476561875
vt 0.25 0.5625
vt 0.125 0.5625
vt 0.375 0.9375
vt 0.375 1
vt 0.4375 1
vt 0.382811875 0.9375
vt 0.492188125 0.9375
vt 0.4375 1
vt 0.5 1
vt 0.5 0.9375
vt 0.375 0.5625
vt 0 0.5625
vt 0 0.625
vt 0.375 0.625
vt 0.125 0.476561875
vt 0.25 0.476561875
vt 0.25 0.5625
vt 0.125 0.5625
vt 0.125 0.476561875
vt 0.25 0.476561875
vt 0.25 0.5625
vt 0.125 0.5625
vt 0.375 0.9375
vt 0.375 1
vt 0.4375 1
vt 0.382811875 0.9375
vt 0.492188125 0.9375
vt 0.4375 1
vt 0.5 1
vt 0.5 0.9375
vt 0.125 0.476561875
vt 0.25 0.476561875
vt 0.25 0.5625
vt 0.125 0.5625
vt 0.125 0.476561875
vt 0.25 0.476561875
vt 0.25 0.5625
vt 0.125 0.5625
vt 0.375 0.9375
vt 0.375 1
vt 0.4375 1
vt 0.382811875 0.9375
vt 0.492188125 0.9375
vt 0.4375 1
vt 0.5 1
vt 0.5 0.9375
vt 0.125 0.476561875
vt 0.25 0.476561875
vt 0.25 0.5625
vt 0.125 0.5625
vt 0.125 0.476561875
vt 0.25 0.476561875
vt 0.25 0.5625
vt 0.125 0.5625
vt 0.375 0.9375
vt 0.375 1
vt 0.4375 1
vt 0.382811875 0.9375
vt 0.492188125 0.9375
vt 0.4375 1
vt 0.5 1
vt 0.5 0.9375
vt 0 0.625
vt 0.375 0.625
vt 0.375 1
vt 0 1
vt 0.375 0.5625
vt 0 0.5625
vt 0 0.625
vt 0.375 0.625
vt 0.53125 0.9375
vt 0.53125 1
vt 0.5 1
vt 0.5 0.9375
vt 0.53125 0.9375
vt 0.53125 1
vt 0.5 1
vt 0.5 0.9375
vt 0.53125 0.9375
vt 0.53125 1
vt 0.5 1
vt 0.5 0.9375
vt 0.5 0.9375
vt 0.5 1
vt 0.53125 1
vt 0.53125 0.9375
vt 0.5 0.6875
vt 0.5 0.75
vt 0.375 0.75
vt 0.375 0.6875
vt 0.53125 0.9375
vt 0.53125 1
vt 0.5 1
vt 0.5 0.9375
vt 0.5 0.75
vt 0.5 0.6875
vt 0.375 0.6875
vt 0.375 0.75
vt 0.5 0.6875
vt 0.5 0.75
vt 0.375 0.75
vt 0.375 0.6875
vt 0.53125 0.9375
vt 0.53125 1
vt 0.5 1
vt 0.5 0.9375
vt 0.53125 0.9375
vt 0.53125 1
vt 0.5 1
vt 0.5 0.9375
vt 0.53125 0.9375
vt 0.710938125 0.9375
vt 0.710938125 0.875
vt 0.53125 0.875
vt 0.53125 0.9375
vt 0.53125 1
vt 0.5 1
vt 0.5 0.9375
vt 0.53125 0.9375
vt 0.53125 1
vt 0.5 1
vt 0.5 0.9375
vt 0.53125 0.9375
vt 0.53125 1
vt 0.5 1
vt 0.5 0.9375
vt 0.53125 0.9375
vt 0.53125 1
vt 0.5 1
vt 0.5 0.9375
vt 0.53125 0.9375
vt 0.53125 1
vt 0.5 1
vt 0.5 0.9375
vt 0.53125 0.9375
vt 0.53125 1
vt 0.5 1
vt 0.5 0.9375
vt 0.5 0.9375
vt 0.5 1
vt 0.53125 1
vt 0.53125 0.9375
vt 0.53125 0.9375
vt 0.5 0.9375
vt 0.5 1
vt 0.53125 1
vt 0.53125 0.9375
vt 0.53125 1
vt 0.5 1
vt 0.5 0.9375
vt 0.5 0.6875
vt 0.5 0.75
vt 0.375 0.75
vt 0.375 0.6875
vt 0 1
vt 0 0.625
vt 0.375 0.625
vt 0.375 1
vt 0.375 0.5625
vt 0.382811875 0.5625
vt 0.382811875 0.6875
vt 0.375 0.6875
vt 0 0.4375
vt 0.125 0.4375
vt 0.125 0.5625
vt 0 0.5625
vt 0.375 0.5625
vt 0.382811875 0.5625
vt 0.382811875 0.6875
vt 0.375 0.6875
vt 0 0.4375
vt 0.125 0.4375
vt 0.125 0.5625
vt 0 0.5625
vt 0.375 0.5625
vt 0.382811875 0.5625
vt 0.382811875 0.6875
vt 0.375 0.6875
vt 0 0.4375
vt 0.125 0.4375
vt 0.125 0.5625
vt 0 0.5625
vt 0 0.4375
vt 0.125 0.4375
vt 0.125 0.5625
vt 0 0.5625
vt 0.375 0.5625
vt 0.382811875 0.5625
vt 0.382811875 0.6875
vt 0.375 0.6875
vt 0 0.4375
vt 0.125 0.4375
vt 0.125 0.5625
vt 0 0.5625
vt 0.375 0.5625
vt 0.382811875 0.5625
vt 0.382811875 0.6875
vt 0.375 0.6875
vt 0.382811875 0.5625
vt 0.382811875 0.6875
vt 0.375 0.6875
vt 0.375 0.5625
vt 0 0.4375
vt 0.125 0.4375
vt 0.125 0.5625
vt 0 0.5625
vt 0.5 0.6875
vt 0.5 0.5625
vt 0.375 0.5625
vt 0.375 0.6875
vt 0 0.4375
vt 0.125 0.4375
vt 0.125 0.5625
vt 0 0.5625
vt 0.375 0.5625
vt 0.382811875 0.5625
vt 0.382811875 0.6875
vt 0.375 0.6875
vt 0 0.4375
vt 0.125 0.4375
vt 0.125 0.5625
vt 0 0.5625
vt 0.375 0.5625
vt 0.382811875 0.5625
vt 0.382811875 0.6875
vt 0.375 0.6875
vt 0 0
vt 1 0
vt 1 1
vt 0 1
vt 0.710938125 0.9375
vt 0.53125 0.9375
vt 0.53125 1
vt 0.710938125 1
vt 0.53125 0.875
vt 0.53125 0.9375
vt 0.710938125 0.9375
vt 0.710938125 0.875
vt 0.710938125 0.875
vt 0.53125 0.875
vt 0.53125 0.9375
vt 0.710938125 0.9375
vt 0.53125 0.875
vt 0.53125 0.9375
vt 0.710938125 0.9375
vt 0.710938125 0.875
vt 0.710938125 0.875
vt 0.710938125 0.8125
vt 0.53125 0.8125
vt 0.53125 0.875
vt 0.710938125 0.875
vt 0.710938125 0.8125
vt 0.53125 0.8125
vt 0.53125 0.875
vt 0.53125 0.8125
vt 0.53125 0.9375
vt 0.5 0.9375
vt 0.5 0.8125
vt 0.53125 0.8125
vt 0.53125 0.9375
vt 0.5 0.9375
vt 0.5 0.8125
vt 0.53125 0.8125
vt 0.53125 0.9375
vt 0.5 0.9375
vt 0.5 0.8125
vt 0.53125 0.8125
vt 0.53125 0.9375
vt 0.5 0.9375
vt 0.5 0.8125
vt 0.53125 0.8125
vt 0.53125 0.9375
vt 0.5 0.9375
vt 0.5 0.8125
vt 0.53125 0.8125
vt 0.53125 0.9375
vt 0.5 0.9375
vt 0.5 0.8125
vt 0.53125 0.8125
vt 0.53125 0.9375
vt 0.5 0.9375
vt 0.5 0.8125
vt 0.5 0.5625
vt 0.5 0.6875
vt 0.375 0.6875
vt 0.375 0.5625
vt 0.53125 0.8125
vt 0.53125 0.9375
vt 0.5 0.9375
vt 0.5 0.8125
vt 0.53125 0.8125
vt 0.53125 0.9375
vt 0.5 0.9375
vt 0.5 0.8125
vt 0.53125 0.8125
vt 0.53125 0.9375
vt 0.5 0.9375
vt 0.5 0.8125
vt 0.53125 0.8125
vt 0.53125 0.9375
vt 0.5 0.9375
vt 0.5 0.8125
vt 0.53125 0.8125
vt 0.53125 0.9375
vt 0.5 0.9375
vt 0.5 0.8125
vt 0.5 0.5625
vt 0.5 0.6875
vt 0.375 0.6875
vt 0.375 0.5625
vt 0.53125 0.8125
vt 0.53125 0.9375
vt 0.5 0.9375
vt 0.5 0.8125
vt 0.53125 0.8125
vt 0.53125 0.9375
vt 0.5 0.9375
vt 0.5 0.8125
vt 0.53125 0.8125
vt 0.53125 0.9375
vt 0.5 0.9375
vt 0.5 0.8125
vt 0.53125 0.8125
vt 0.53125 0.9375
vt 0.5 0.9375
vt 0.5 0.8125
vt 0.5 0.5625
vt 0.5 0.6875
vt 0.375 0.6875
vt 0.375 0.5625
vt 0.53125 0.8125
vt 0.53125 0.75
vt 0.5 0.75
vt 0.5 0.8125
vt 0.53125 0.8125
vt 0.53125 0.75
vt 0.5 0.75
vt 0.5 0.8125
vt 0.375 0
vt 0.375 0.125
vt 0 0.125
vt 0 0
vn 0 0 -1
vn -1 0 0
vn 0 0 1
vn 1 0 0
vn 0 1 0
vn 0 0 -1
vn -1 0 0
vn 0 0 1
vn 1 0 0
vn 0 1 0
vn 0 0 -1
vn -1 0 0
vn 0 0 1
vn 1 0 0
vn 0 1 0
vn 0 0 -1
vn -1 0 0
vn 0 0 1
vn 1 0 0
vn 0 1 0
vn 0 0 -1
vn -1 0 0
vn 0 0 1
vn 1 0 0
vn -1 0 0
vn 1 0 0
vn 0 0.24279064885010795 -0.9700787085752082
vn 0 0.24279064885010795 -0.9700787085752082
vn 1 0 0
vn 0 1 0
vn 0 -1 0
vn 0 -0.24279064885010795 0.9700787085752082
vn -1 0 0
vn 0 0 -1
vn -1 0 0
vn 0 -0.24279064885010795 -0.9700787085752082
vn 1 0 0
vn 0 0 1
vn 1 0 0
vn 0 0.24279064885010795 0.9700787085752082
vn -1 0 0
vn -1 0 0
vn 0 0.24279064885010795 0.9700787085752082
vn 0 -0.24279064885010795 0.9700787085752082
vn 1 0 0
vn 0 -0.24279064885010795 -0.9700787085752082
vn -1 0 0
vn 0 0.24279064885010795 -0.9700787085752082
vn 0 0 1
vn 0 -0.24279064885010795 0.9700787085752082
vn -1 0 0
vn 1 0 0
vn 0 -0.24279064885010795 0.9700787085752082
vn 1 0 0
vn 0 0.24279064885010795 0.9700787085752082
vn -1 0 0
vn 1 0 0
vn 0 0.24279064885010795 -0.9700787085752082
vn 0 -0.24279064885010795 -0.9700787085752082
vn 1 0 0
vn 0 1 0
vn 0 -1 0
vn -1 0 0
vn 0 0.24279064885010795 0.9700787085752082
vn 0 -0.24279064885010795 -0.9700787085752082
vn 0 0 -1
vn 1 0 0
vn -1 0 0
vn -0.9700787085752082 -0.24279064885010795 0
vn 0 0 -1
vn 0.9700787085752082 0.24279064885010795 0
vn 0 0 1
vn 1 0 0
vn 0 0 -1
vn -1 0 0
vn 0 0 1
vn 0 -1 0
vn 0 1 0
vn 0 0 -1
vn -1 0 0
vn 0 0 1
vn 1 0 0
vn 0 0 -1
vn -1 0 0
vn 0 0 1
vn 1 0 0
vn 0 0 -1
vn -1 0 0
vn 0 0 1
vn 1 0 0
vn 0 0 -1
vn -1 0 0
vn 0 0 1
vn 1 0 0
vn 0 0 -1
vn -1 0 0
vn 0 0 1
vn 1 0 0
vn 0 0 -1
vn -1 0 0
vn 0 0 1
vn 1 0 0
vn 0 0 -1
vn -1 0 0
vn 0 0 1
vn 1 0 0
vn -0.9700787085752082 0.24279064885010795 0
vn 0 0 -1
vn 0.9700787085752082 -0.24279064885010795 0
vn 0 0 1
vn 0.9700787085752082 0.24279064885010795 0
vn 0 0 -1
vn -0.9700787085752082 -0.24279064885010795 0
vn 0 0 1
vn 0.9700787085752082 -0.24279064885010795 0
vn 0 0 -1
vn -0.9700787085752082 0.24279064885010795 0
vn 0 0 1
vn -0.9700787085752082 -0.24279064885010795 0
vn 0 0 -1
vn 0.9700787085752082 0.24279064885010795 0
vn 0 0 1
vn 1 0 0
vn 0 0 -1
vn -1 0 0
vn 0 0 1
vn 0 -1 0
vn 0 1 0
vn -0.9700787085752082 0.24279064885010795 0
vn 0 0 -1
vn 0.9700787085752082 -0.24279064885010795 0
vn 0 0 1
vn 0.9700787085752082 0.24279064885010795 0
vn 0 0 -1
vn -0.9700787085752082 -0.24279064885010795 0
vn 0 0 1
vn 0.9700787085752082 -0.24279064885010795 0
vn 0 0 -1
vn -0.9700787085752082 0.24279064885010795 0
vn 0 0 1
vn 0 0 -1
vn -1 0 0
vn 0 0 1
vn 1 0 0
vn 0 1 0
vn 0 0 -1
vn -1 0 0
vn 0 0 1
vn 1 0 0
vn 0 1 0
vn 0 0 -1
vn -1 0 0
vn 0 0 1
vn 1 0 0
vn 0 0 -1
vn -1 0 0
vn 0 0 1
vn 1 0 0
vn 0 1 0
vn 0 0 -1
vn -1 0 0
vn 0 0 1
vn 1 0 0
vn 0 0 -1
vn -1 0 0
vn 0 0 1
vn 1 0 0
vn 0 0 -1
vn -1 0 0
vn 0 0 1
vn 1 0 0
vn 0 0 -1
vn -1 0 0
vn 0 0 1
vn 1 0 0
vn 0 0 -1
vn -1 0 0
vn 0 0 1
vn 1 0 0
vn 0 0 -1
vn 0 0 1
vn 1 0 0
vn 0 -1 0
vn 0 1 0
vn -0.7071067811865476 0 0.7071067811865476
vn 0 0 0
vn 0.7071067811865476 0 0.7071067811865476
vn 0.7071067811865476 0 -0.7071067811865476
vn -0.7071067811865476 0 -0.7071067811865476
vn 0 0 0
vn 0.7071067811865476 0 -0.7071067811865476
vn 0.7071067811865476 0 0.7071067811865476
vn 0.7071067811865476 0 0.7071067811865476
vn -0.7071067811865476 0 -0.7071067811865476
vn 0 0 -1
vn -1 0 0
vn 0 0 1
vn 1 0 0
vn 0 1 0
vn 0 0 -1
vn -1 0 0
vn 0 0 1
vn 1 0 0
vn -1 0 0
vn 1 0 0
vn 0 0.24279064885010795 -0.9700787085752082
vn 0 0.24279064885010795 -0.9700787085752082
vn 0 1 0
vn 0 -1 0
vn 0 -0.24279064885010795 0.9700787085752082
vn -1 0 0
vn 0 0 -1
vn -1 0 0
vn 0 -0.24279064885010795 -0.9700787085752082
vn 1 0 0
vn 0 0 1
vn 0 0.24279064885010795 0.9700787085752082
vn -1 0 0
vn -1 0 0
vn 0 0.24279064885010795 0.9700787085752082
vn 0 -0.24279064885010795 0.9700787085752082
vn 1 0 0
vn 0 -0.24279064885010795 -0.9700787085752082
vn 0 0.24279064885010795 -0.9700787085752082
vn 0 0 1
vn 0 -0.24279064885010795 0.9700787085752082
vn -1 0 0
vn 1 0 0
vn 0 -0.24279064885010795 0.9700787085752082
vn 1 0 0
vn 0 0.24279064885010795 0.9700787085752082
vn 1 0 0
vn 0 0.24279064885010795 -0.9700787085752082
vn 0 -0.24279064885010795 -0.9700787085752082
vn 1 0 0
vn 0 1 0
vn 0 -1 0
vn -1 0 0
vn 0 0.24279064885010795 0.9700787085752082
vn 0 -0.24279064885010795 -0.9700787085752082
vn 0 0 -1
vn 1 0 0
vn -1 0 0
vn -0.9700787085752082 -0.24279064885010795 0
vn 0 0 -1
vn 0.9700787085752082 0.24279064885010795 0
vn 0 0 1
vn 1 0 0
vn 0 0 -1
vn -1 0 0
vn 0 0 1
vn 0 -1 0
vn 0 1 0
vn 0 0 -1
vn -1 0 0
vn 0 0 1
vn 1 0 0
vn 0 0 -1
vn -1 0 0
vn 0 0 1
vn 1 0 0
vn 0 0 -1
vn -1 0 0
vn 0 0 1
vn 1 0 0
vn 0 0 -1
vn -1 0 0
vn 0 0 1
vn 1 0 0
vn 0 0 -1
vn -1 0 0
vn 0 0 1
vn 1 0 0
vn 0 0 -1
vn -1 0 0
vn 0 0 1
vn 1 0 0
vn 0 0 -1
vn -1 0 0
vn 0 0 1
vn 1 0 0
vn -0.9700787085752082 0.24279064885010795 0
vn 0 0 -1
vn 0.9700787085752082 -0.24279064885010795 0
vn 0 0 1
vn 0.9700787085752082 0.24279064885010795 0
vn 0 0 -1
vn -0.9700787085752082 -0.24279064885010795 0
vn 0.9700787085752082 -0.24279064885010795 0
vn 0 0 -1
vn -0.9700787085752082 0.24279064885010795 0
vn -0.9700787085752082 -0.24279064885010795 0
vn 0 0 -1
vn 0.9700787085752082 0.24279064885010795 0
vn 0 0 1
vn 1 0 0
vn 0 0 -1
vn -1 0 0
vn 0 0 1
vn 0 -1 0
vn 0 1 0
vn -0.9700787085752082 0.24279064885010795 0
vn 0 0 -1
vn 0.9700787085752082 -0.24279064885010795 0
vn 0 0 1
vn 0.9700787085752082 0.24279064885010795 0
vn -0.9700787085752082 -0.24279064885010795 0
vn 0 0 1
vn 0.9700787085752082 -0.24279064885010795 0
vn -0.9700787085752082 0.24279064885010795 0
vn 0 0 1
vn 0 0 -1
vn -1 0 0
vn 0 0 1
vn 1 0 0
vn 0 0 -1
vn -1 0 0
vn 0 0 1
vn 1 0 0
vn 0 0 -1
vn -1 0 0
vn 0 0 1
vn 1 0 0
vn 0 0 -1
vn -1 0 0
vn 0 0 1
vn 1 0 0
vn 1 0 0
vn 1 0 0
vn -1 0 0
vn -1 0 0
vn 0 0 1
vn 0 0 -1
vn 0 0 -1
vn 0 0 1
vn -1 0 0
vn 1 0 0
vn -0.7525766947068778 0.658504607868518 0
vn 0.7525766947068778 0.658504607868518 0
vn 0 0 -1
vn 0 0 -1
vn 0 0 1
vn 0 0.658504607868518 -0.7525766947068778
vn 0 0.658504607868518 0.7525766947068778
vn 1 0 0
vn 1 0 0
vn 0.7525766947068778 0.658504607868518 0
vn -0.7525766947068778 0.658504607868518 0
vn 0 0 1
vn 0 0 1
vn 0 0.658504607868518 0.7525766947068778
vn 0 0.658504607868518 -0.7525766947068778
vn -1 0 0
vn -1 0 0
vn 0 -1 0
vn 0 0 -1
vn 0 0 -1
vn 0 0 -1
vn -1 0 0
vn -1 0 0
vn 1 0 0
vn 1 0 0
vn 0 0 1
vn 1 0 0
vn -1 0 0
vn -0.7071067811865476 0 -0.7071067811865476
vn 0 0 -1
vn 1 0 0
vn 1 0 0
vn -1 0 0
vn -1 0 0
vn 0 0 1
vn 0 0 1
vn 0 0 -1
vn 0 0 -1
vn 0 1 0
vn -1 0 0
vn 1 0 0
vn -0.7525766947068778 -0.658504607868518 0
vn 0.7525766947068778 -0.658504607868518 0
vn 0 0 1
vn 0 0 1
vn 0 0 -1
vn 0 -0.658504607868518 0.7525766947068778
vn 0 -0.658504607868518 -0.7525766947068778
vn 1 0 0
vn 1 0 0
vn 0.7525766947068778 -0.658504607868518 0
vn -0.7525766947068778 -0.658504607868518 0
vn 0 0 -1
vn 0 0 -1
vn 0 -0.658504607868518 -0.7525766947068778
vn 0 -0.658504607868518 0.7525766947068778
vn -1 0 0
vn -1 0 0
vn 0 1 0
vn 0 0 1
vn 0 0 1
vn 0 0 1
vn -1 0 0
vn 0 0 -1
vn -1 0 0
vn 1 0 0
vn 1 0 0
vn 0 0 -1
vn 1 0 0
vn -1 0 0
vn -0.7071067811865476 0 0.7071067811865476
vn 0 0 1
vn 0 0 -1
vn 1 0 0
vn 1 0 0
vn -1 0 0
vn -1 0 0
vn 0 0 -1
vn 0 0 -1
vn 0 0 1
vn 0 0 1
vn 0 -1 0
vn -1 0 0
vn 0 0 -1
vn -1 0 0
vn 0 0 1
vn 1 0 0
vn 0 0 -1
vn 0 0 1
vn 1 0 0
vn -1 0 0
vn 0 0 1
vn 0 0 1
vn 1 0 0
vn 1 0 0
vn 1 0 0
vn 0 0 -1
vn -1 0 0
vn 0 0 -1
vn 0 -1 0
vn -0.7071067811865476 0 0.7071067811865476
vn 0.7071067811865476 0 0.7071067811865476
vn 0.7071067811865476 0 -0.7071067811865476
vn -0.7071067811865476 0 -0.7071067811865476
vn -0.7071067811865476 0 0.7071067811865476
vn 0.7071067811865476 0 -0.7071067811865476
vn 0 0 1
vn -1 0 0
vn 0 0 1
vn 1 0 0
vn 0 0 -1
vn -1 0 0
vn 0 0 -1
vn 0 0 1
vn 1 0 0
vn 0 0 -1
vn 0 0 -1
vn -1 0 0
vn -1 0 0
vn -1 0 0
vn 1 0 0
vn 1 0 0
vn 0 0 1
vn 0 0 1
vn 0 0 -1
vn 0 0 1
vn 0 0 1
vn -1 0 0
usemtl m_3f208791-19ab-0ab0-585d-d9caf03badf0
f 1/1/1 2/2/1 3/3/1 4/4/1
f 2/5/2 5/6/2 6/7/2 3/8/2
f 5/9/3 7/10/3 8/11/3 6/12/3
f 7/13/4 1/14/4 4/15/4 8/16/4
f 6/17/5 8/18/5 4/19/5 3/20/5
f 9/21/6 10/22/6 11/23/6 12/24/6
f 10/25/7 13/26/7 14/27/7 11/28/7
f 13/29/8 15/30/8 16/31/8 14/32/8
f 15/33/9 9/34/9 12/35/9 16/36/9
f 14/37/10 16/38/10 12/39/10 11/40/10
f 17/41/11 18/42/11 19/43/11 20/44/11
f 18/45/12 21/46/12 22/47/12 19/48/12
f 21/49/13 23/50/13 24/51/13 22/52/13
f 23/53/14 17/54/14 20/55/14 24/56/14
f 22/57/15 24/58/15 20/59/15 19/60/15
f 25/61/16 26/62/16 27/63/16 28/64/16
f 26/65/17 29/66/17 30/67/17 27/68/17
f 29/69/18 31/70/18 32/71/18 30/72/18
f 31/73/19 25/74/19 28/75/19 32/76/19
f 30/77/20 32/78/20 28/79/20 27/80/20
f 33/81/21 34/82/21 35/83/21 36/84/21
f 34/85/22 37/86/22 38/87/22 35/88/22
f 37/89/23 39/90/23 40/91/23 38/92/23
f 39/93/24 33/94/24 36/95/24 40/96/24
f 41/97/25 42/98/25 43/99/25 44/100/25
f 45/101/26 46/102/26 47/103/26 48/104/26
f 49/105/27 45/106/27 48/107/27 50/108/27
f 51/109/28 41/110/28 44/111/28 52/112/28
f 53/113/29 51/114/29 52/115/29 54/116/29
f 55/117/30 56/118/30 57/119/30 58/120/30
f 59/121/31 60/122/31 61/123/31 62/124/31
f 42/125/32 53/126/32 54/127/32 43/128/32
f 61/129/33 60/130/33 57/131/33 56/132/33
f 62/133/34 61/134/34 56/135/34 55/136/34
f 63/137/35 64/138/35 65/139/35 66/140/35
f 67/141/36 63/142/36 66/143/36 68/144/36
f 59/145/37 62/146/37 55/147/37 58/148/37
f 60/149/38 59/150/38 58/151/38 57/152/38
f 69/153/39 67/154/39 68/155/39 70/156/39
f 64/157/40 69/158/40 70/159/40 65/160/40
f 71/161/41 49/162/41 50/163/41 72/164/41
f 73/165/42 74/166/42 75/167/42 76/168/42
f 77/169/43 73/170/43 76/171/43 78/172/43
f 46/173/44 71/174/44 72/175/44 47/176/44
f 79/177/45 77/178/45 78/179/45 80/180/45
f 74/181/46 79/182/46 80/183/46 75/184/46
f 81/185/47 82/186/47 83/187/47 84/188/47
f 85/189/48 81/190/48 84/191/48 86/192/48
f 87/193/49 88/194/49 89/195/49 90/196/49
f 91/197/50 92/198/50 93/199/50 94/200/50
f 95/201/51 96/202/51 97/203/51 98/204/51
f 99/205/52 85/206/52 86/207/52 100/208/52
f 82/209/53 99/210/53 100/211/53 83/212/53
f 101/213/54 91/214/54 94/215/54 102/216/54
f 103/217/55 95/218/55 98/219/55 104/220/55
f 105/221/56 106/222/56 107/223/56 108/224/56
f 109/225/57 103/226/57 104/227/57 110/228/57
f 111/229/58 101/230/58 102/231/58 112/232/58
f 113/233/59 105/234/59 108/235/59 114/236/59
f 115/237/60 113/238/60 114/239/60 116/240/60
f 117/241/61 118/242/61 90/243/61 89/244/61
f 88/245/62 87/246/62 119/247/62 120/248/62
f 119/249/63 87/250/63 90/251/63 118/252/63
f 106/253/64 115/254/64 116/255/64 107/256/64
f 96/257/65 109/258/65 110/259/65 97/260/65
f 120/261/66 119/262/66 118/263/66 117/264/66
f 88/265/67 120/266/67 117/267/67 89/268/67
f 92/269/68 111/270/68 112/271/68 93/272/68
f 121/273/69 122/274/69 123/275/69 124/276/69
f 122/277/70 125/278/70 126/279/70 123/280/70
f 125/281/71 127/282/71 128/283/71 126/284/71
f 127/285/72 121/286/72 124/287/72 128/288/72
f 129/289/73 130/290/73 131/291/73 132/292/73
f 130/293/74 133/294/74 134/295/74 131/296/74
f 133/297/75 135/298/75 136/299/75 134/300/75
f 135/301/76 129/302/76 132/303/76 136/304/76
f 130/305/77 129/306/77 135/307/77 133/308/77
f 134/309/78 136/310/78 132/311/78 131/312/78
f 137/313/79 138/314/79 34/315/79 33/316/79
f 138/317/80 139/318/80 37/319/80 34/320/80
f 139/321/81 140/322/81 39/323/81 37/324/81
f 140/325/82 137/326/82 33/327/82 39/328/82
f 141/329/83 142/330/83 143/331/83 144/332/83
f 142/333/84 145/334/84 146/335/84 143/336/84
f 145/337/85 147/338/85 148/339/85 146/340/85
f 147/341/86 141/342/86 144/343/86 148/344/86
f 149/345/87 150/346/87 142/347/87 141/348/87
f 150/349/88 151/350/88 145/351/88 142/352/88
f 151/353/89 152/354/89 147/355/89 145/356/89
f 152/357/90 149/358/90 141/359/90 147/360/90
f 153/361/91 154/362/91 155/363/91 156/364/91
f 154/365/92 157/366/92 158/367/92 155/368/92
f 157/369/93 159/370/93 160/371/93 158/372/93
f 159/373/94 153/374/94 156/375/94 160/376/94
f 161/377/95 162/378/95 154/379/95 153/380/95
f 162/381/96 163/382/96 157/383/96 154/384/96
f 163/385/97 164/386/97 159/387/97 157/388/97
f 164/389/98 161/390/98 153/391/98 159/392/98
f 165/393/99 166/394/99 167/395/99 168/396/99
f 166/397/100 169/398/100 170/399/100 167/400/100
f 169/401/101 171/402/101 172/403/101 170/404/101
f 171/405/102 165/406/102 168/407/102 172/408/102
f 173/409/103 174/410/103 166/411/103 165/412/103
f 174/413/104 175/414/104 169/415/104 166/416/104
f 175/417/105 176/418/105 171/419/105 169/420/105
f 176/421/106 173/422/106 165/423/106 171/424/106
f 177/425/107 178/426/107 179/427/107 180/428/107
f 178/429/108 181/430/108 182/431/108 179/432/108
f 181/433/109 183/434/109 184/435/109 182/436/109
f 183/437/110 177/438/110 180/439/110 184/440/110
f 185/441/111 186/442/111 187/443/111 188/444/111
f 186/445/112 189/446/112 190/447/112 187/448/112
f 189/449/113 191/450/113 192/451/113 190/452/113
f 191/453/114 185/454/114 188/455/114 192/456/114
f 193/457/115 194/458/115 195/459/115 196/460/115
f 194/461/116 197/462/116 198/463/116 195/464/116
f 197/465/117 199/466/117 200/467/117 198/468/117
f 199/469/118 193/470/118 196/471/118 200/472/118
f 201/473/119 202/474/119 203/475/119 204/476/119
f 202/477/120 205/478/120 206/479/120 203/480/120
f 205/481/121 207/482/121 208/483/121 206/484/121
f 207/485/122 201/486/122 204/487/122 208/488/122
f 209/489/123 210/490/123 211/491/123 212/492/123
f 210/493/124 213/494/124 214/495/124 211/496/124
f 213/497/125 215/498/125 216/499/125 214/500/125
f 215/501/126 209/502/126 212/503/126 216/504/126
f 210/505/127 209/506/127 215/507/127 213/508/127
f 214/509/128 216/510/128 212/511/128 211/512/128
f 217/513/129 218/514/129 219/515/129 220/516/129
f 218/517/130 221/518/130 222/519/130 219/520/130
f 221/521/131 223/522/131 224/523/131 222/524/131
f 223/525/132 217/526/132 220/527/132 224/528/132
f 225/529/133 226/530/133 227/531/133 228/532/133
f 226/533/134 229/534/134 230/535/134 227/536/134
f 229/537/135 231/538/135 232/539/135 230/540/135
f 231/541/136 225/542/136 228/543/136 232/544/136
f 233/545/137 234/546/137 235/547/137 236/548/137
f 234/549/138 237/550/138 238/551/138 235/552/138
f 237/553/139 239/554/139 240/555/139 238/556/139
f 239/557/140 233/558/140 236/559/140 240/560/140
f 241/561/141 242/562/141 243/563/141 244/564/141
f 242/565/142 245/566/142 246/567/142 243/568/142
f 245/569/143 247/570/143 248/571/143 246/572/143
f 247/573/144 241/574/144 244/575/144 248/576/144
f 246/577/145 248/578/145 244/579/145 243/580/145
f 249/581/146 250/582/146 251/583/146 252/584/146
f 250/585/147 253/586/147 254/587/147 251/588/147
f 253/589/148 255/590/148 256/591/148 254/592/148
f 255/593/149 249/594/149 252/595/149 256/596/149
f 254/597/150 256/598/150 252/599/150 251/600/150
f 257/601/151 258/602/151 259/603/151 260/604/151
f 258/605/152 261/606/152 262/607/152 259/608/152
f 261/609/153 263/610/153 264/611/153 262/612/153
f 263/613/154 257/614/154 260/615/154 264/616/154
f 265/617/155 266/618/155 267/619/155 268/620/155
f 266/621/156 269/622/156 270/623/156 267/624/156
f 269/625/157 271/626/157 272/627/157 270/628/157
f 271/629/158 265/630/158 268/631/158 272/632/158
f 270/633/159 272/634/159 268/635/159 267/636/159
f 273/637/160 274/638/160 258/639/160 257/640/160
f 274/641/161 275/642/161 261/643/161 258/644/161
f 275/645/162 276/646/162 263/647/162 261/648/162
f 276/649/163 273/650/163 257/651/163 263/652/163
f 277/653/164 278/654/164 274/655/164 273/656/164
f 278/657/165 279/658/165 275/659/165 274/660/165
f 279/661/166 280/662/166 276/663/166 275/664/166
f 280/665/167 277/666/167 273/667/167 276/668/167
f 281/669/168 282/670/168 283/671/168 284/672/168
f 282/673/169 285/674/169 286/675/169 283/676/169
f 285/677/170 287/678/170 288/679/170 286/680/170
f 287/681/171 281/682/171 284/683/171 288/684/171
f 289/685/172 290/686/172 282/687/172 281/688/172
f 290/689/173 291/690/173 285/691/173 282/692/173
f 291/693/174 292/694/174 287/695/174 285/696/174
f 292/697/175 289/698/175 281/699/175 287/700/175
f 293/701/176 294/702/176 290/703/176 289/704/176
f 294/705/177 295/706/177 291/707/177 290/708/177
f 295/709/178 296/710/178 292/711/178 291/712/178
f 296/713/179 293/714/179 289/715/179 292/716/179
f 297/717/180 746/718/180 747/719/180 298/720/180
f 745/721/181 299/722/181 300/723/181 748/724/181
f 299/725/182 297/726/182 298/727/182 300/728/182
f 746/729/183 297/730/183 299/731/183 745/732/183
f 748/733/184 300/734/184 298/735/184 747/736/184
f 301/737/185 302/738/185 303/739/185 304/740/185
f 305/741/186 306/742/186 307/743/186
f 308/744/187 309/745/187 310/746/187 311/747/187
f 312/748/188 305/749/188 313/750/188 314/751/188
f 315/752/189 316/753/189 317/754/189 318/755/189
f 319/756/190 320/757/190 321/758/190
f 322/759/191 323/760/191 324/761/191 325/762/191
f 326/763/192 319/764/192 327/765/192 328/766/192
f 309/767/193 308/768/193 329/769/193 330/770/193
f 331/771/194 332/772/194 333/773/194 334/774/194
f 335/775/195 336/776/195 337/777/195 338/778/195
f 336/779/196 339/780/196 340/781/196 337/782/196
f 339/783/197 341/784/197 342/785/197 340/786/197
f 341/787/198 335/788/198 338/789/198 342/790/198
f 340/791/199 342/792/199 338/793/199 337/794/199
f 343/795/200 344/796/200 345/797/200 346/798/200
f 344/799/201 347/800/201 348/801/201 345/802/201
f 347/803/202 349/804/202 350/805/202 348/806/202
f 349/807/203 343/808/203 346/809/203 350/810/203
f 351/811/204 352/812/204 353/813/204 354/814/204
f 355/815/205 356/816/205 357/817/205 358/818/205
f 359/819/206 355/820/206 358/821/206 360/822/206
f 361/823/207 351/824/207 354/825/207 362/826/207
f 363/827/208 364/828/208 365/829/208 366/830/208
f 367/831/209 368/832/209 369/833/209 370/834/209
f 352/835/210 371/836/210 372/837/210 353/838/210
f 369/839/211 368/840/211 365/841/211 364/842/211
f 370/843/212 369/844/212 364/845/212 363/846/212
f 373/847/213 374/848/213 375/849/213 376/850/213
f 377/851/214 373/852/214 376/853/214 378/854/214
f 367/855/215 370/856/215 363/857/215 366/858/215
f 368/859/216 367/860/216 366/861/216 365/862/216
f 374/863/217 379/864/217 380/865/217 375/866/217
f 381/867/218 359/868/218 360/869/218 382/870/218
f 383/871/219 384/872/219 385/873/219 386/874/219
f 387/875/220 383/876/220 386/877/220 388/878/220
f 356/879/221 381/880/221 382/881/221 357/882/221
f 389/883/222 387/884/222 388/885/222 390/886/222
f 384/887/223 389/888/223 390/889/223 385/890/223
f 391/891/224 392/892/224 393/893/224 394/894/224
f 395/895/225 396/896/225 397/897/225 398/898/225
f 399/899/226 400/900/226 401/901/226 402/902/226
f 403/903/227 404/904/227 405/905/227 406/906/227
f 407/907/228 391/908/228 394/909/228 408/910/228
f 409/911/229 407/912/229 408/913/229 410/914/229
f 411/915/230 399/916/230 402/917/230 412/918/230
f 413/919/231 403/920/231 406/921/231 414/922/231
f 415/923/232 413/924/232 414/925/232 416/926/232
f 417/927/233 411/928/233 412/929/233 418/930/233
f 419/931/234 420/932/234 421/933/234 422/934/234
f 423/935/235 419/936/235 422/937/235 424/938/235
f 425/939/236 426/940/236 398/941/236 397/942/236
f 396/943/237 395/944/237 427/945/237 428/946/237
f 427/947/238 395/948/238 398/949/238 426/950/238
f 429/951/239 423/952/239 424/953/239 430/954/239
f 404/955/240 415/956/240 416/957/240 405/958/240
f 428/959/241 427/960/241 426/961/241 425/962/241
f 396/963/242 428/964/242 425/965/242 397/966/242
f 400/967/243 417/968/243 418/969/243 401/970/243
f 431/971/244 432/972/244 433/973/244 434/974/244
f 432/975/245 435/976/245 436/977/245 433/978/245
f 435/979/246 437/980/246 438/981/246 436/982/246
f 437/983/247 431/984/247 434/985/247 438/986/247
f 439/987/248 440/988/248 441/989/248 442/990/248
f 440/991/249 443/992/249 444/993/249 441/994/249
f 443/995/250 445/996/250 446/997/250 444/998/250
f 445/999/251 439/1000/251 442/1001/251 446/1002/251
f 440/1003/252 439/1004/252 445/1005/252 443/1006/252
f 444/1007/253 446/1008/253 442/1009/253 441/1010/253
f 36/1011/254 35/1012/254 344/1013/254 343/1014/254
f 35/1015/255 38/1016/255 347/1017/255 344/1018/255
f 38/1019/256 40/1020/256 349/1021/256 347/1022/256
f 40/1023/257 36/1024/257 343/1025/257 349/1026/257
f 447/1027/258 448/1028/258 449/1029/258 450/1030/258
f 448/1031/259 451/1032/259 452/1033/259 449/1034/259
f 451/1035/260 453/1036/260 454/1037/260 452/1038/260
f 453/1039/261 447/1040/261 450/1041/261 454/1042/261
f 144/1043/262 143/1044/262 448/1045/262 447/1046/262
f 143/1047/263 146/1048/263 451/1049/263 448/1050/263
f 146/1051/264 148/1052/264 453/1053/264 451/1054/264
f 148/1055/265 144/1056/265 447/1057/265 453/1058/265
f 455/1059/266 456/1060/266 457/1061/266 458/1062/266
f 456/1063/267 459/1064/267 460/1065/267 457/1066/267
f 459/1067/268 461/1068/268 462/1069/268 460/1070/268
f 461/1071/269 455/1072/269 458/1073/269 462/1074/269
f 156/1075/270 155/1076/270 456/1077/270 455/1078/270
f 155/1079/271 158/1080/271 459/1081/271 456/1082/271
f 158/1083/272 160/1084/272 461/1085/272 459/1086/272
f 160/1087/273 156/1088/273 455/1089/273 461/1090/273
f 463/1091/274 464/1092/274 465/1093/274 466/1094/274
f 464/1095/275 467/1096/275 468/1097/275 465/1098/275
f 467/1099/276 469/1100/276 470/1101/276 468/1102/276
f 469/1103/277 463/1104/277 466/1105/277 470/1106/277
f 168/1107/278 167/1108/278 464/1109/278 463/1110/278
f 167/1111/279 170/1112/279 467/1113/279 464/1114/279
f 170/1115/280 172/1116/280 469/1117/280 467/1118/280
f 172/1119/281 168/1120/281 463/1121/281 469/1122/281
f 471/1123/282 472/1124/282 473/1125/282 474/1126/282
f 472/1127/283 475/1128/283 476/1129/283 473/1130/283
f 475/1131/284 477/1132/284 478/1133/284 476/1134/284
f 477/1135/285 471/1136/285 474/1137/285 478/1138/285
f 479/1139/286 480/1140/286 481/1141/286 482/1142/286
f 480/1143/287 483/1144/287 484/1145/287 481/1146/287
f 483/1147/288 485/1148/288 486/1149/288 484/1150/288
f 487/1151/289 488/1152/289 489/1153/289 490/1154/289
f 488/1155/290 491/1156/290 492/1157/290 489/1158/290
f 491/1159/291 493/1160/291 494/1161/291 492/1162/291
f 495/1163/292 496/1164/292 497/1165/292 498/1166/292
f 496/1167/293 499/1168/293 500/1169/293 497/1170/293
f 499/1171/294 501/1172/294 502/1173/294 500/1174/294
f 501/1175/295 495/1176/295 498/1177/295 502/1178/295
f 503/1179/296 504/1180/296 505/1181/296 506/1182/296
f 504/1183/297 507/1184/297 508/1185/297 505/1186/297
f 507/1187/298 509/1188/298 510/1189/298 508/1190/298
f 509/1191/299 503/1192/299 506/1193/299 510/1194/299
f 504/1195/300 503/1196/300 509/1197/300 507/1198/300
f 508/1199/301 510/1200/301 506/1201/301 505/1202/301
f 511/1203/302 512/1204/302 513/1205/302 514/1206/302
f 512/1207/303 515/1208/303 516/1209/303 513/1210/303
f 515/1211/304 517/1212/304 518/1213/304 516/1214/304
f 517/1215/305 511/1216/305 514/1217/305 518/1218/305
f 519/1219/306 520/1220/306 521/1221/306 522/1222/306
f 523/1223/307 524/1224/307 525/1225/307 526/1226/307
f 524/1227/308 519/1228/308 522/1229/308 525/1230/308
f 527/1231/309 528/1232/309 529/1233/309 530/1234/309
f 531/1235/310 532/1236/310 533/1237/310 534/1238/310
f 532/1239/311 527/1240/311 530/1241/311 533/1242/311
f 535/1243/312 536/1244/312 537/1245/312 538/1246/312
f 536/1247/313 539/1248/313 540/1249/313 537/1250/313
f 539/1251/314 541/1252/314 542/1253/314 540/1254/314
f 541/1255/315 535/1256/315 538/1257/315 542/1258/315
f 260/1259/316 259/1260/316 536/1261/316 535/1262/316
f 259/1263/317 262/1264/317 539/1265/317 536/1266/317
f 262/1267/318 264/1268/318 541/1269/318 539/1270/318
f 264/1271/319 260/1272/319 535/1273/319 541/1274/319
f 543/1275/320 544/1276/320 545/1277/320 546/1278/320
f 544/1279/321 547/1280/321 548/1281/321 545/1282/321
f 547/1283/322 549/1284/322 550/1285/322 548/1286/322
f 549/1287/323 543/1288/323 546/1289/323 550/1290/323
f 284/1291/324 283/1292/324 544/1293/324 543/1294/324
f 283/1295/325 286/1296/325 547/1297/325 544/1298/325
f 286/1299/326 288/1300/326 549/1301/326 547/1302/326
f 288/1303/327 284/1304/327 543/1305/327 549/1306/327
f 551/1307/328 552/1308/328 553/1309/328 554/1310/328
f 555/1311/329 556/1312/329 557/1313/329 558/1314/329
f 559/1315/330 560/1316/330 561/1317/330 562/1318/330
f 563/1319/331 564/1320/331 565/1321/331 566/1322/331
f 567/1323/332 568/1324/332 569/1325/332 570/1326/332
f 571/1327/333 572/1328/333 573/1329/333 574/1330/333
f 575/1331/334 576/1332/334 577/1333/334 578/1334/334
f 579/1335/335 580/1336/335 581/1337/335 582/1338/335
f 583/1339/336 584/1340/336 585/1341/336 586/1342/336
f 587/1343/337 588/1344/337 589/1345/337 590/1346/337
f 591/1347/338 592/1348/338 307/1349/338 593/1350/338
f 593/1351/339 307/1352/339 594/1353/339 595/1354/339
f 313/1355/340 305/1356/340 307/1357/340 592/1358/340
f 594/1359/341 307/1360/341 306/1361/341 333/1362/341
f 588/1363/342 583/1364/342 586/1365/342 589/1366/342
f 596/1367/343 597/1368/343 598/1369/343 599/1370/343
f 599/1371/344 598/1372/344 600/1373/344 601/1374/344
f 308/1375/345 311/1376/345 598/1377/345 597/1378/345
f 600/1379/346 598/1380/346 312/1381/346 314/1382/346
f 602/1383/347 603/1384/347 604/1385/347 605/1386/347
f 605/1387/348 604/1388/348 606/1389/348 607/1390/348
f 303/1391/349 302/1392/349 604/1393/349 603/1394/349
f 606/1395/350 604/1396/350 310/1397/350 309/1398/350
f 608/1399/351 609/1400/351 610/1401/351 611/1402/351
f 611/1403/352 610/1404/352 612/1405/352 613/1406/352
f 334/1407/353 614/1408/353 610/1409/353 609/1410/353
f 612/1411/354 610/1412/354 301/1413/354 304/1414/354
f 586/1415/355 585/1416/355 590/1417/355 589/1418/355
f 584/1419/356 587/1420/356 590/1421/356 585/1422/356
f 615/1423/357 616/1424/357 617/1425/357 618/1426/357
f 619/1427/358 620/1428/358 621/1429/358 622/1430/358
f 622/1431/359 621/1432/359 623/1433/359 624/1434/359
f 628/1435/360 629/1436/360 630/1437/360 631/1438/360
f 632/1439/361 627/1440/361 633/1441/361 634/1442/361
f 635/1443/362 636/1444/362 637/1445/362 638/1446/362
f 631/1447/363 630/1448/363 638/1449/363 637/1450/363
f 639/1451/364 640/1452/364 616/1453/364 615/1454/364
f 641/1455/365 642/1456/365 626/1457/365 625/1458/365
f 334/1459/366 333/1460/366 306/1461/366 614/1462/366
f 634/1463/367 633/1464/367 642/1465/367 641/1466/367
f 740/1467/368 739/1468/368 620/1469/368 619/1470/368
f 643/1471/369 644/1472/369 645/1473/369 646/1474/369
f 618/1475/370 617/1476/370 647/1477/370 648/1478/370
f 649/1479/371 650/1480/371 651/1481/371 652/1482/371
f 644/1483/372 643/1484/372 652/1485/372 651/1486/372
f 639/1487/373 648/1488/373 647/1489/373 640/1490/373
f 646/1491/374 645/1492/374 650/1493/374 649/1494/374
f 636/1495/375 635/1496/375 629/1497/375 628/1498/375
f 587/1499/376 584/1500/376 583/1501/376 588/1502/376
f 653/1503/377 654/1504/377 655/1505/377 656/1506/377
f 657/1507/378 658/1508/378 659/1509/378 660/1510/378
f 661/1511/379 662/1512/379 321/1513/379 663/1514/379
f 663/1515/380 321/1516/380 664/1517/380 665/1518/380
f 327/1519/381 319/1520/381 321/1521/381 662/1522/381
f 664/1523/382 321/1524/382 320/1525/382 666/1526/382
f 658/1527/383 653/1528/383 656/1529/383 659/1530/383
f 667/1531/384 668/1532/384 669/1533/384 670/1534/384
f 670/1535/385 669/1536/385 671/1537/385 672/1538/385
f 322/1539/386 325/1540/386 669/1541/386 668/1542/386
f 671/1543/387 669/1544/387 326/1545/387 328/1546/387
f 673/1547/388 674/1548/388 675/1549/388 676/1550/388
f 676/1551/389 675/1552/389 677/1553/389 678/1554/389
f 317/1555/390 316/1556/390 675/1557/390 674/1558/390
f 677/1559/391 675/1560/391 324/1561/391 323/1562/391
f 679/1563/392 680/1564/392 681/1565/392 682/1566/392
f 682/1567/393 681/1568/393 683/1569/393 684/1570/393
f 685/1571/394 686/1572/394 681/1573/394 680/1574/394
f 683/1575/395 681/1576/395 315/1577/395 318/1578/395
f 656/1579/396 655/1580/396 660/1581/396 659/1582/396
f 654/1583/397 657/1584/397 660/1585/397 655/1586/397
f 687/1587/398 688/1588/398 689/1589/398 690/1590/398
f 691/1591/399 692/1592/399 693/1593/399 694/1594/399
f 694/1595/400 693/1596/400 695/1597/400 696/1598/400
f 697/1599/401 698/1600/401 699/1601/401 700/1602/401
f 701/1603/402 702/1604/402 703/1605/402 704/1606/402
f 700/1607/403 699/1608/403 705/1609/403 706/1610/403
f 707/1611/404 708/1612/404 709/1613/404 710/1614/404
f 704/1615/405 703/1616/405 710/1617/405 709/1618/405
f 711/1619/406 712/1620/406 688/1621/406 687/1622/406
f 713/1623/407 714/1624/407 698/1625/407 697/1626/407
f 666/1627/408 685/1628/408 715/1629/408 716/1630/408
f 706/1631/409 705/1632/409 714/1633/409 713/1634/409
f 696/1635/410 695/1636/410 717/1637/410 718/1638/410
f 718/1639/411 717/1640/411 692/1641/411 691/1642/411
f 719/1643/412 720/1644/412 721/1645/412 722/1646/412
f 690/1647/413 689/1648/413 723/1649/413 724/1650/413
f 725/1651/414 726/1652/414 727/1653/414 728/1654/414
f 728/1655/415 727/1656/415 720/1657/415 719/1658/415
f 711/1659/416 724/1660/416 723/1661/416 712/1662/416
f 722/1663/417 721/1664/417 726/1665/417 725/1666/417
f 708/1667/418 707/1668/418 702/1669/418 701/1670/418
f 657/1671/419 654/1672/419 653/1673/419 658/1674/419
f 612/1675/420 304/1676/420 685/1677/420 680/1678/420
f 613/1679/421 612/1680/421 680/1681/421 679/1682/421
f 334/1683/422 609/1684/422 683/1685/422 318/1686/422
f 609/1687/423 608/1688/423 684/1689/423 683/1690/423
f 308/1691/424 597/1692/424 671/1693/424 328/1694/424
f 597/1695/425 596/1696/425 672/1697/425 671/1698/425
f 601/1699/426 600/1700/426 668/1701/426 667/1702/426
f 600/1703/427 314/1704/427 322/1705/427 668/1706/427
f 607/1707/428 606/1708/428 662/1709/428 661/1710/428
f 606/1711/429 309/1712/429 327/1713/429 662/1714/429
f 603/1715/430 664/1716/430 666/1717/430 303/1718/430
f 603/1719/431 602/1720/431 665/1721/431 664/1722/431
f 708/1723/432 637/1724/432 636/1725/432 709/1726/432
f 595/1727/433 594/1728/433 674/1729/433 673/1730/433
f 594/1731/434 333/1732/434 317/1733/434 674/1734/434
f 592/1735/435 591/1736/435 678/1737/435 677/1738/435
f 313/1739/436 592/1740/436 677/1741/436 323/1742/436
f 313/1743/437 636/1744/437 591/1745/437 592/1746/437
f 685/1747/438 666/1748/438 320/1749/438 686/1750/438
f 329/1751/439 328/1752/439 327/1753/439 330/1754/439
f 729/1755/440 730/1756/440 323/1757/440 322/1758/440
f 331/1759/441 318/1760/441 317/1761/441 332/1762/441
f 715/1763/442 304/1764/442 303/1765/442 716/1766/442
f 729/1767/443 314/1768/443 313/1769/443 730/1770/443
f 643/1771/444 691/1772/444 694/1773/444 652/1774/444
f 731/1775/445 713/1776/445 697/1777/445 732/1778/445
f 733/1779/446 706/1780/446 713/1781/446 731/1782/446
f 734/1783/447 711/1784/447 687/1785/447 735/1786/447
f 622/1787/448 728/1788/448 719/1789/448 619/1790/448
f 652/1791/449 694/1792/449 696/1793/449 649/1794/449
f 732/1795/450 697/1796/450 700/1797/450 736/1798/450
f 637/1799/451 708/1800/451 701/1801/451 631/1802/451
f 736/1803/452 700/1804/452 706/1805/452 733/1806/452
f 737/1807/453 724/1808/453 711/1809/453 734/1810/453
f 649/1811/454 696/1812/454 718/1813/454 646/1814/454
f 624/1815/455 725/1816/455 728/1817/455 622/1818/455
f 738/1819/456 690/1820/456 724/1821/456 737/1822/456
f 631/1823/457 701/1824/457 704/1825/457 628/1826/457
f 646/1827/458 718/1828/458 691/1829/458 643/1830/458
f 619/1831/459 719/1832/459 722/1833/459 740/1834/459
f 735/1835/460 687/1836/460 690/1837/460 738/1838/460
f 740/1839/461 722/1840/461 725/1841/461 624/1842/461
f 628/1843/462 704/1844/462 709/1845/462 636/1846/462
f 624/1847/463 623/1848/463 739/1849/463 740/1850/463
f 741/1851/464 742/1852/464 743/1853/464 744/1854/464
f 747/1855/465 746/1856/465 745/1857/465 748/1858/465