# Made in Blockbench 4.12.5
mtllib distiller.mtl

o base
v 0.9375 1.1875 -0.9375
v 0.9375 1.6875 -0.9375
v 0.9375 1.6875 -1
v 0.9375 1.1875 -1
v 1 1.1875 -0.9375
v 1 1.6875 -0.9375
v 1 1.1875 -1
v 1 1.6875 -1
v 0.9375 1.1875 1
v 0.9375 1.6875 1
v 0.9375 1.6875 0.9375
v 0.9375 1.1875 0.9375
v 1 1.1875 1
v 1 1.6875 1
v 1 1.1875 0.9375
v 1 1.6875 0.9375
v 0.9375 0.3125 1
v 0.9375 0.3125 0.9375
v 1.0625 0.3125 1
v 1.0625 1.1875 1
v 1.0625 0.3125 0.9375
v 1.0625 1.1875 0.9375
v 0.9375 0.3125 -0.9375
v 0.9375 0.3125 -1
v 1.0625 0.3125 -0.9375
v 1.0625 1.1875 -0.9375
v 1.0625 0.3125 -1
v 1.0625 1.1875 -1
v -1 0.3125 -0.9375
v -1 1.6875 -0.9375
v -1 1.6875 -1
v -1 0.3125 -1
v -0.9375 0.3125 -0.9375
v -0.9375 1.6875 -0.9375
v -0.9375 0.3125 -1
v -0.9375 1.6875 -1
v -0.99875 0.3125 1
v -0.99875 1.6875 1
v -0.99875 1.6875 0.9375
v -0.99875 0.3125 0.9375
v -0.93625 0.3125 1
v -0.93625 1.6875 1
v -0.93625 0.3125 0.9375
v -0.93625 1.6875 0.9375
v 1.93625 0.3125 1
v 1.93625 1.1875 1
v 1.93625 1.1875 0.9375
v 1.93625 0.3125 0.9375
v 1.99875 0.3125 1
v 1.99875 1.1875 1
v 1.99875 0.3125 0.9375
v 1.99875 1.1875 0.9375
v 1.9375 0.3125 -0.9375
v 1.9375 1.1875 -0.9375
v 1.9375 1.1875 -1
v 1.9375 0.3125 -1
v 2 0.3125 -0.9375
v 2 1.1875 -0.9375
v 2 0.3125 -1
v 2 1.1875 -1
v -0.25 -0.5 1.875
v -0.25 0 1.875
v -0.25 0 1.625
v -0.25 -0.5 1.625
v -0.125 -0.5 1.875
v -0.125 0 1.875
v -0.125 -0.5 1.625
v -0.125 0 1.625
v -0.875 -0.5 1.875
v -0.875 0 1.875
v -0.875 0 1.625
v -0.875 -0.5 1.625
v -0.75 -0.5 1.875
v -0.75 0 1.875
v -0.75 -0.5 1.625
v -0.75 0 1.625
v 0 -0.375 0.875
v 0 -0.125 0.875
v 0 -0.125 0.75
v 0 -0.375 0.75
v 1 -0.375 0.875
v 1 -0.125 0.875
v 1 -0.375 0.75
v 1 -0.125 0.75
v -0.68775 -0.375 -0.75
v -0.68775 -0.125 -0.75
v -0.68775 -0.125 -0.875
v -0.68775 -0.375 -0.875
v -0.00025 -0.375 -0.75
v -0.00025 -0.125 -0.75
v -0.00025 -0.375 -0.875
v -0.00025 -0.125 -0.875
v 1 -0.375 -0.75
v 1 -0.125 -0.75
v 1 -0.125 -0.875
v 1 -0.375 -0.875
v 1.6875 -0.375 -0.75
v 1.6875 -0.125 -0.75
v 1.6875 -0.375 -0.875
v 1.6875 -0.125 -0.875
v -0.8755 -0.375 0
v -0.8755 -0.125 0
v -0.8755 -0.125 -0.6875
v -0.8755 -0.375 -0.6875
v -0.7505 -0.375 0
v -0.7505 -0.125 0
v -0.7505 -0.375 -0.6875
v -0.7505 -0.125 -0.6875
v 1.7505 -0.375 0
v 1.7505 -0.125 0
v 1.7505 -0.125 -0.6875
v 1.7505 -0.375 -0.6875
v 1.8755 -0.375 0
v 1.8755 -0.125 0
v 1.8755 -0.375 -0.6875
v 1.8755 -0.125 -0.6875
v 1.688 -0.5 -0.6875
v 1.688 0 -0.6875
v 1.688 0 -0.9375
v 1.688 -0.5 -0.9375
v 1.938 -0.5 -0.6875
v 1.938 0 -0.6875
v 1.938 -0.5 -0.9375
v 1.938 0 -0.9375
v -0.9375 -0.5 -0.6875
v -0.9375 0 -0.6875
v -0.9375 0 -0.9375
v -0.9375 -0.5 -0.9375
v -0.6875 -0.5 -0.6875
v -0.6875 0 -0.6875
v -0.6875 -0.5 -0.9375
v -0.6875 0 -0.9375
v 1.9375 0.3125 0.9375
v 1.9375 1.1875 0.9375
v 1 1.5 1
v 1 1.5 -1
v 2 1.1875 1
v 2 1.5 1
v 2 1.5 -1
v -0.9375 0.3125 0.9375
v -0.9375 1.6875 0.9375
v -1 1.6875 1
v -1 2 1
v -1 2 -1
v 1 2 1
v 1 2 -1
v -1 0 1
v -1 0.3125 1
v -1 0 -1
v 2 0 1
v 2 0.3125 1
v 2 0 -1
v -1 0 2
v -1 1 2
v -1 1 1.5
v -1 0 1.5
v 0 0 2
v 0 1 2
v 0 0 1.5
v 0 1 1.5
v 0 -0.5 0
v 0 0 0
v 0 0 -1
v 0 -0.5 -1
v 1 -0.5 0
v 1 0 0
v 1 -0.5 -1
v 1 0 -1
v -1 -0.5 1
v -1 0 0
v -1 -0.5 0
v 0 -0.5 1
v 0 0 1
v 1 -0.5 1
v 1 0 1
v 2 -0.5 1
v 2 -0.5 0
v 2 0 0
v 1 -0.5 2.000046
v 1 1 2
v 1 1 1
v 1 -0.5 1.000046
v 2 -0.5 2.000046
v 2 1 2
v 2 -0.5 1.000046
v 2 1 1
v -1 -1 2
v -1 -0.5 2
v -1 -0.5 -1
v -1 -1 -1
v 2 -1 2
v 2 -0.5 2
v 2 -1 -1
v 2 -0.5 -1
vt 0.40625 0.3125
vt 0.40625 0.375
vt 0.398438 0.375
vt 0.398438 0.3125
vt 0.398438 0.3125
vt 0.398438 0.375
vt 0.390625 0.375
vt 0.390625 0.3125
vt 0.398438 0.3125
vt 0.398438 0.375
vt 0.390625 0.375
vt 0.390625 0.3125
vt 0.40625 0.3125
vt 0.40625 0.375
vt 0.398438 0.375
vt 0.398438 0.3125
vt 1 0
vt 1 1
vt 0 1
vt 0 0
vt 1 0
vt 1 1
vt 0 1
vt 0 0
vt 0.40625 0.3125
vt 0.40625 0.375
vt 0.398438 0.375
vt 0.398438 0.3125
vt 0.40625 0.3125
vt 0.40625 0.375
vt 0.398438 0.375
vt 0.398438 0.3125
vt 0.398438 0.3125
vt 0.398438 0.375
vt 0.390625 0.375
vt 0.390625 0.3125
vt 0.398438 0.3125
vt 0.398438 0.375
vt 0.390625 0.375
vt 0.390625 0.3125
vt 1 0
vt 1 1
vt 0 1
vt 0 0
vt 1 0
vt 1 1
vt 0 1
vt 0 0
vt 0.390625 0.3125
vt 0.390625 0.421875
vt 0.382812 0.421875
vt 0.382812 0.3125
vt 0.375 0.3125
vt 0.375 0.421875
vt 0.390625 0.421875
vt 0.390625 0.3125
vt 0.382812 0.3125
vt 0.382812 0.421875
vt 0.375 0.421875
vt 0.375 0.3125
vt 1 0
vt 1 1
vt 0 1
vt 0 0
vt 1 0
vt 1 1
vt 0 1
vt 0 0
vt 1 0
vt 1 1
vt 0 1
vt 0 0
vt 0.390625 0.3125
vt 0.390625 0.421875
vt 0.382812 0.421875
vt 0.382812 0.3125
vt 1 0
vt 1 1
vt 0 1
vt 0 0
vt 0.382812 0.3125
vt 0.382812 0.421875
vt 0.375 0.421875
vt 0.375 0.3125
vt 0.390625 0.3125
vt 0.390625 0.421875
vt 0.375 0.421875
vt 0.375 0.3125
vt 1 0
vt 1 1
vt 0 1
vt 0 0
vt 1 0
vt 1 1
vt 0 1
vt 0 0
vt 0.421875 0.3125
vt 0.421875 0.484375
vt 0.414062 0.484375
vt 0.414062 0.3125
vt 0.414062 0.3125
vt 0.414062 0.484375
vt 0.40625 0.484375
vt 0.40625 0.3125
vt 0.414062 0.3125
vt 0.414062 0.484375
vt 0.40625 0.484375
vt 0.40625 0.3125
vt 0.421875 0.3125
vt 0.421875 0.484375
vt 0.414062 0.484375
vt 0.414062 0.3125
vt 1 0
vt 1 1
vt 0 1
vt 0 0
vt 1 0
vt 1 1
vt 0 1
vt 0 0
vt 0.421875 0.3125
vt 0.421875 0.484375
vt 0.414062 0.484375
vt 0.414062 0.3125
vt 0.421875 0.3125
vt 0.421875 0.484375
vt 0.414062 0.484375
vt 0.414062 0.3125
vt 0.414062 0.3125
vt 0.414062 0.484375
vt 0.40625 0.484375
vt 0.40625 0.3125
vt 0.414062 0.3125
vt 0.414062 0.484375
vt 0.40625 0.484375
vt 0.40625 0.3125
vt 1 0
vt 1 1
vt 0 1
vt 0 0
vt 1 0
vt 1 1
vt 0 1
vt 0 0
vt 0.390625 0.3125
vt 0.390625 0.421875
vt 0.382812 0.421875
vt 0.382812 0.3125
vt 0.390625 0.3125
vt 0.390625 0.421875
vt 0.382812 0.421875
vt 0.382812 0.3125
vt 0.382812 0.3125
vt 0.382812 0.421875
vt 0.375 0.421875
vt 0.375 0.3125
vt 0.382812 0.3125
vt 0.382812 0.421875
vt 0.375 0.421875
vt 0.375 0.3125
vt 1 0
vt 1 1
vt 0 1
vt 0 0
vt 1 0
vt 1 1
vt 0 1
vt 0 0
vt 0.390625 0.3125
vt 0.390625 0.421875
vt 0.382812 0.421875
vt 0.382812 0.3125
vt 0.382812 0.3125
vt 0.382812 0.421875
vt 0.375 0.421875
vt 0.375 0.3125
vt 0.382812 0.3125
vt 0.382812 0.421875
vt 0.375 0.421875
vt 0.375 0.3125
vt 0.390625 0.3125
vt 0.390625 0.421875
vt 0.382812 0.421875
vt 0.382812 0.3125
vt 1 0
vt 1 1
vt 0 1
vt 0 0
vt 1 0
vt 1 1
vt 0 1
vt 0 0
vt 0.28125 0.4375
vt 0.28125 0.5
vt 0.25 0.5
vt 0.25 0.4375
vt 0.296875 0.4375
vt 0.296875 0.5
vt 0.28125 0.5
vt 0.28125 0.4375
vt 0.28125 0.4375
vt 0.28125 0.5
vt 0.25 0.5
vt 0.25 0.4375
vt 0.296875 0.4375
vt 0.296875 0.5
vt 0.28125 0.5
vt 0.28125 0.4375
vt 1 0
vt 1 1
vt 0 1
vt 0 0
vt 1 0
vt 1 1
vt 0 1
vt 0 0
vt 0.28125 0.4375
vt 0.28125 0.5
vt 0.25 0.5
vt 0.25 0.4375
vt 0.296875 0.4375
vt 0.296875 0.5
vt 0.28125 0.5
vt 0.28125 0.4375
vt 0.28125 0.4375
vt 0.28125 0.5
vt 0.25 0.5
vt 0.25 0.4375
vt 0.296875 0.4375
vt 0.296875 0.5
vt 0.28125 0.5
vt 0.28125 0.4375
vt 1 0
vt 1 1
vt 0 1
vt 0 0
vt 1 0
vt 1 1
vt 0 1
vt 0 0
vt 1 0
vt 1 1
vt 0 1
vt 0 0
vt 0.125 0.03125
vt 0.125 0.0625
vt 0 0.0625
vt 0 0.03125
vt 1 0
vt 1 1
vt 0 1
vt 0 0
vt 0.125 0.03125
vt 0.125 0.0625
vt 0 0.0625
vt 0 0.03125
vt 0.125 0.015625
vt 0.125 0.03125
vt 0 0.03125
vt 0 0.015625
vt 0.125 0.015625
vt 0.125 0.03125
vt 0 0.03125
vt 0 0.015625
vt 1 0
vt 1 1
vt 0 1
vt 0 0
vt 0.085938 0.03125
vt 0.085938 0.0625
vt 0 0.0625
vt 0 0.03125
vt 1 0
vt 1 1
vt 0 1
vt 0 0
vt 0.085938 0.03125
vt 0.085938 0.0625
vt 0 0.0625
vt 0 0.03125
vt 0.085938 0.015625
vt 0.085938 0.03125
vt 0 0.03125
vt 0 0.015625
vt 0.085938 0.015625
vt 0.085938 0.03125
vt 0 0.03125
vt 0 0.015625
vt 1 0
vt 1 1
vt 0 1
vt 0 0
vt 0.085938 0.03125
vt 0.085938 0.0625
vt 0 0.0625
vt 0 0.03125
vt 1 0
vt 1 1
vt 0 1
vt 0 0
vt 0.085938 0.03125
vt 0.085938 0.0625
vt 0 0.0625
vt 0 0.03125
vt 0.085938 0.015625
vt 0.085938 0.03125
vt 0 0.03125
vt 0 0.015625
vt 0.085938 0.015625
vt 0.085938 0.03125
vt 0 0.03125
vt 0 0.015625
vt 0.085938 0.03125
vt 0.085938 0.0625
vt 0 0.0625
vt 0 0.03125
vt 1 0
vt 1 1
vt 0 1
vt 0 0
vt 0.085938 0.03125
vt 0.085938 0.0625
vt 0 0.0625
vt 0 0.03125
vt 1 0
vt 1 1
vt 0 1
vt 0 0
vt 0.085938 0.015625
vt 0.085938 0.03125
vt 0 0.03125
vt 0 0.015625
vt 0.085938 0.015625
vt 0.085938 0.03125
vt 0 0.03125
vt 0 0.015625
vt 0.085938 0.03125
vt 0.085938 0.0625
vt 0 0.0625
vt 0 0.03125
vt 1 0
vt 1 1
vt 0 1
vt 0 0
vt 0.085938 0.03125
vt 0.085938 0.0625
vt 0 0.0625
vt 0 0.03125
vt 1 0
vt 1 1
vt 0 1
vt 0 0
vt 0.085938 0.015625
vt 0.085938 0.03125
vt 0 0.03125
vt 0 0.015625
vt 0.085938 0.015625
vt 0.085938 0.03125
vt 0 0.03125
vt 0 0.015625
vt 0.375 0.4375
vt 0.375 0.5
vt 0.34375 0.5
vt 0.34375 0.4375
vt 0.375 0.4375
vt 0.375 0.5
vt 0.34375 0.5
vt 0.34375 0.4375
vt 0.375 0.4375
vt 0.375 0.5
vt 0.34375 0.5
vt 0.34375 0.4375
vt 0.375 0.4375
vt 0.375 0.5
vt 0.34375 0.5
vt 0.34375 0.4375
vt 1 0
vt 1 1
vt 0 1
vt 0 0
vt 1 0
vt 1 1
vt 0 1
vt 0 0
vt 0.375 0.4375
vt 0.375 0.5
vt 0.34375 0.5
vt 0.34375 0.4375
vt 0.375 0.4375
vt 0.375 0.5
vt 0.34375 0.5
vt 0.34375 0.4375
vt 0.375 0.4375
vt 0.375 0.5
vt 0.34375 0.5
vt 0.34375 0.4375
vt 0.375 0.4375
vt 0.375 0.5
vt 0.34375 0.5
vt 0.34375 0.4375
vt 1 0
vt 1 1
vt 0 1
vt 0 0
vt 1 0
vt 1 1
vt 0 1
vt 0 0
vt 1 0
vt 1 1
vt 0 1
vt 0 0
vt 1 0.28125
vt 1 0.390625
vt 0.890625 0.390625
vt 0.890625 0.28125
vt 1 0.171875
vt 1 0.28125
vt 0.765625 0.28125
vt 0.765625 0.171875
vt 1 0.28125
vt 1 0.390625
vt 0.890625 0.390625
vt 0.890625 0.28125
vt 1 0
vt 1 1
vt 0 1
vt 0 0
vt 1 0
vt 1 1
vt 0 1
vt 0 0
vt 0.625 0.234375
vt 0.625 0.27343800000000007
vt 0.375 0.27343800000000007
vt 0.375 0.234375
vt 0.5 0.19531200000000004
vt 0.5 0.234375
vt 0.375 0.234375
vt 0.375 0.19531200000000004
vt 0.625 0.234375
vt 0.625 0.27343800000000007
vt 0.375 0.27343800000000007
vt 0.375 0.234375
vt 0.375 0.234375
vt 0.5 0.234375
vt 0.5 0.19531200000000004
vt 0.375 0.19531200000000004
vt 0.625 0.6875
vt 0.625 0.8125
vt 0.375 0.8125
vt 0.375 0.6875
vt 0.625 0.6875
vt 0.625 0.8125
vt 0.375 0.8125
vt 0.375 0.6875
vt 1 0
vt 1 0.171875
vt 0.765625 0.171875
vt 0.765625 0
vt 1 0
vt 1 0.171875
vt 0.765625 0.171875
vt 0.765625 0
vt 1 0
vt 1 0.171875
vt 0.765625 0.171875
vt 0.765625 0
vt 1 0
vt 1 0.171875
vt 0.765625 0.171875
vt 0.765625 0
vt 1 0
vt 1 1
vt 0 1
vt 0 0
vt 0 1
vt 1 1
vt 1 0
vt 0 0
vt 0.625 0.234375
vt 0.625 0.27343800000000007
vt 0.375 0.27343800000000007
vt 0.375 0.234375
vt 0.625 0.234375
vt 0.625 0.27343800000000007
vt 0.375 0.27343800000000007
vt 0.375 0.234375
vt 0.375 0.27343800000000007
vt 0.625 0.27343800000000007
vt 0.625 0.234375
vt 0.375 0.234375
vt 0.625 0.234375
vt 0.625 0.27343800000000007
vt 0.375 0.27343800000000007
vt 0.375 0.234375
vt 0.625 0.5625
vt 0.625 0.8125
vt 0.375 0.8125
vt 0.375 0.5625
vt 0.625 0.5625
vt 0.625 0.8125
vt 0.375 0.8125
vt 0.375 0.5625
vt 0.625 0.27343800000000007
vt 0.625 0.234375
vt 0.375 0.234375
vt 0.375 0.27343800000000007
vt 0.75 0.27343800000000007
vt 0.75 0.3125
vt 0.375 0.3125
vt 0.375 0.27343800000000007
vt 0.625 0.27343800000000007
vt 0.625 0.234375
vt 0.375 0.234375
vt 0.375 0.27343800000000007
vt 0.75 0.27343800000000007
vt 0.75 0.3125
vt 0.375 0.3125
vt 0.375 0.27343800000000007
vt 0.375 0.0625
vt 0.375 0.3125
vt 0 0.3125
vt 0 0.0625
vt 0.375 0.0625
vt 0.375 0.3125
vt 0 0.3125
vt 0 0.0625
vt 0.0625 0.3125
vt 0.0625 0.4375
vt 0 0.4375
vt 0 0.3125
vt 0.25 0.3125
vt 0.25 0.4375
vt 0.125 0.4375
vt 0.125 0.3125
vt 0.125 0.3125
vt 0.125 0.4375
vt 0.0625 0.4375
vt 0.0625 0.3125
vt 0.125 0.3125
vt 0.125 0.4375
vt 0 0.4375
vt 0 0.3125
vt 0.0625 0.3125
vt 0.0625 0.4375
vt 0 0.4375
vt 0 0.3125
vt 0.0625 0.3125
vt 0.0625 0.4375
vt 0 0.4375
vt 0 0.3125
vt 0.125 0.375
vt 0.125 0.4375
vt 0 0.4375
vt 0 0.375
vt 0.125 0.375
vt 0.125 0.4375
vt 0 0.4375
vt 0 0.375
vt 0.125 0.375
vt 0.125 0.4375
vt 0 0.4375
vt 0 0.375
vt 0.25 0.4375
vt 0.25 0.5
vt 0.125 0.5
vt 0.125 0.4375
vt 1 0
vt 1 1
vt 0 1
vt 0 0
vt 1 0
vt 1 1
vt 0 1
vt 0 0
vt 0.25 0.4375
vt 0.25 0.5
vt 0.125 0.5
vt 0.125 0.4375
vt 0.125 0.375
vt 0.125 0.4375
vt 0 0.4375
vt 0 0.375
vt 0.125 0.375
vt 0.125 0.4375
vt 0 0.4375
vt 0 0.375
vt 0.125 0.375
vt 0.125 0.4375
vt 0 0.4375
vt 0 0.375
vt 1 0
vt 1 1
vt 0 1
vt 0 0
vt 1 0
vt 1 1
vt 0 1
vt 0 0
vt 0.125 0.375
vt 0.125 0.4375
vt 0 0.4375
vt 0 0.375
vt 1 0
vt 1 1
vt 0 1
vt 0 0
vt 0.125 0.4375
vt 0.125 0.5
vt 0 0.5
vt 0 0.4375
vt 0.125 0.375
vt 0.125 0.4375
vt 0 0.4375
vt 0 0.375
vt 1 0
vt 1 1
vt 0 1
vt 0 0
vt 1 0
vt 1 1
vt 0 1
vt 0 0
vt 0.5 0.8125
vt 0.5 1
vt 0.375 1
vt 0.375 0.8125
vt 0.625 0.8125
vt 0.625 1
vt 0.5 1
vt 0.5 0.8125
vt 0.5 0.8125
vt 0.5 1
vt 0.375 1
vt 0.375 0.8125
vt 0.625 0.8125
vt 0.625 1
vt 0.5 1
vt 0.5 0.8125
vt 0.375 0.3125
vt 0.375 0.4375
vt 0.25 0.4375
vt 0.25 0.3125
vt 1 0
vt 1 1
vt 0 1
vt 0 0
vt 0.375 0.5625
vt 0.375 0.625
vt 0 0.625
vt 0 0.5625
vt 0.375 0.5
vt 0.375 0.5625
vt 0 0.5625
vt 0 0.5
vt 0.375 0.5625
vt 0.375 0.625
vt 0 0.625
vt 0 0.5625
vt 0.375 0.5625
vt 0.375 0.625
vt 0 0.625
vt 0 0.5625
vt 1 0.632812
vt 1 1
vt 0.625 1
vt 0.625 0.632812
vt 0.375 0.625
vt 0.375 1
vt 0 1
vt 0 0.625
vn -1 0 0
vn 0 0 1
vn 1 0 0
vn 0 0 -1
vn 0 1 0
vn 0 -1 0
vn -1 0 0
vn 0 0 1
vn 1 0 0
vn 0 0 -1
vn 0 1 0
vn 0 -1 0
vn -1 0 0
vn 0 0 1
vn 1 0 0
vn 0 0 -1
vn 0 1 0
vn 0 -1 0
vn -1 0 0
vn 0 0 1
vn 1 0 0
vn 0 0 -1
vn 0 1 0
vn 0 -1 0
vn -1 0 0
vn 0 0 1
vn 1 0 0
vn 0 0 -1
vn 0 1 0
vn 0 -1 0
vn -1 0 0
vn 0 0 1
vn 1 0 0
vn 0 0 -1
vn 0 1 0
vn 0 -1 0
vn -1 0 0
vn 0 0 1
vn 1 0 0
vn 0 0 -1
vn 0 1 0
vn 0 -1 0
vn -1 0 0
vn 0 0 1
vn 1 0 0
vn 0 0 -1
vn 0 1 0
vn 0 -1 0
vn -1 0 0
vn 0 0 1
vn 1 0 0
vn 0 0 -1
vn 0 1 0
vn 0 -1 0
vn -1 0 0
vn 0 0 1
vn 1 0 0
vn 0 0 -1
vn 0 1 0
vn 0 -1 0
vn -1 0 0
vn 0 0 1
vn 1 0 0
vn 0 0 -1
vn 0 1 0
vn 0 -1 0
vn -1 0 0
vn 0 0 1
vn 1 0 0
vn 0 0 -1
vn 0 1 0
vn 0 -1 0
vn -1 0 0
vn 0 0 1
vn 1 0 0
vn 0 0 -1
vn 0 1 0
vn 0 -1 0
vn -1 0 0
vn 0 0 1
vn 1 0 0
vn 0 0 -1
vn 0 1 0
vn 0 -1 0
vn -1 0 0
vn 0 0 1
vn 1 0 0
vn 0 0 -1
vn 0 1 0
vn 0 -1 0
vn -1 0 0
vn 0 0 1
vn 1 0 0
vn 0 0 -1
vn 0 1 0
vn 0 -1 0
vn -1 0 0
vn 0 0 1
vn 1 0 0
vn 0 0 -1
vn 0 1 0
vn 0 -1 0
vn -1 0 0
vn 0 0 1
vn 1 0 0
vn 0 0 -1
vn 0 1 0
vn 0 -1 0
vn -1 0 0
vn 0 0 1
vn 1 0 0
vn 0 0 1
vn 0 1 0
vn 0 -1 0
vn -1 0 0
vn 0 0 1
vn 1 0 0
vn 0 0 -1
vn 0 1 0
vn 0 1 0
vn -1 0 0
vn 0 0 1
vn -1 0 0
vn 0 0 -1
vn 0 1 0
vn 0 -1 0
vn -1 0 0
vn 0 0 1
vn 1 0 0
vn 0 0 -1
vn 0 1 0
vn 0 -1 0
vn -1 0 0
vn 0 0 1
vn 1 0 0
vn 0 0 -1
vn 0 1 0
vn 0 -1 0
vn -1 0 0
vn 0 0 1
vn 1 0 0
vn 0 0 -1
vn 0 1 0
vn 0 -1 0
vn -1 0 0
vn 0 0 1
vn 1 0 0
vn 0 0 -1
vn 0 1 0
vn 0 -1 0
vn -1 0 0
vn 0 0 1
vn 1 0 0
vn 0 0 -1
vn 0 1 0
vn 0 -1 0
vn -1 0 0
vn 0 0.00003066666665238821 0.9999999995297778
vn 1 0 0
vn 0 -0.00003066666665224018 -0.9999999995297778
vn 0 1 0
vn 0 -1 0
vn -1 0 0
vn 0 0 1
vn 1 0 0
vn 0 0 -1
vn 0 1 0
vn 0 -1 0
usemtl m_0f33d860-d15f-5882-7499-1c066591ca1a
f 1/1/1 2/2/1 3/3/1 4/4/1
f 5/5/2 6/6/2 2/7/2 1/8/2
f 7/9/3 8/10/3 6/11/3 5/12/3
f 4/13/4 3/14/4 8/15/4 7/16/4
f 2/17/5 6/18/5 8/19/5 3/20/5
f 5/21/6 1/22/6 4/23/6 7/24/6
f 9/25/7 10/26/7 11/27/7 12/28/7
f 13/29/8 14/30/8 10/31/8 9/32/8
f 15/33/9 16/34/9 14/35/9 13/36/9
f 12/37/10 11/38/10 16/39/10 15/40/10
f 10/41/11 14/42/11 16/43/11 11/44/11
f 13/45/12 9/46/12 12/47/12 15/48/12
f 17/49/13 9/50/13 12/51/13 18/52/13
f 19/53/14 20/54/14 9/55/14 17/56/14
f 21/57/15 22/58/15 20/59/15 19/60/15
f 18/61/16 12/62/16 22/63/16 21/64/16
f 9/65/17 20/66/17 22/67/17 12/68/17
f 19/69/18 17/70/18 18/71/18 21/72/18
f 23/73/19 1/74/19 4/75/19 24/76/19
f 25/77/20 26/78/20 1/79/20 23/80/20
f 27/81/21 28/82/21 26/83/21 25/84/21
f 24/85/22 4/86/22 28/87/22 27/88/22
f 1/89/23 26/90/23 28/91/23 4/92/23
f 25/93/24 23/94/24 24/95/24 27/96/24
f 29/97/25 30/98/25 31/99/25 32/100/25
f 33/101/26 34/102/26 30/103/26 29/104/26
f 35/105/27 36/106/27 34/107/27 33/108/27
f 32/109/28 31/110/28 36/111/28 35/112/28
f 30/113/29 34/114/29 36/115/29 31/116/29
f 33/117/30 29/118/30 32/119/30 35/120/30
f 37/121/31 38/122/31 39/123/31 40/124/31
f 41/125/32 42/126/32 38/127/32 37/128/32
f 43/129/33 44/130/33 42/131/33 41/132/33
f 40/133/34 39/134/34 44/135/34 43/136/34
f 38/137/35 42/138/35 44/139/35 39/140/35
f 41/141/36 37/142/36 40/143/36 43/144/36
f 45/145/37 46/146/37 47/147/37 48/148/37
f 49/149/38 50/150/38 46/151/38 45/152/38
f 51/153/39 52/154/39 50/155/39 49/156/39
f 48/157/40 47/158/40 52/159/40 51/160/40
f 46/161/41 50/162/41 52/163/41 47/164/41
f 49/165/42 45/166/42 48/167/42 51/168/42
f 53/169/43 54/170/43 55/171/43 56/172/43
f 57/173/44 58/174/44 54/175/44 53/176/44
f 59/177/45 60/178/45 58/179/45 57/180/45
f 56/181/46 55/182/46 60/183/46 59/184/46
f 54/185/47 58/186/47 60/187/47 55/188/47
f 57/189/48 53/190/48 56/191/48 59/192/48
f 61/193/49 62/194/49 63/195/49 64/196/49
f 65/197/50 66/198/50 62/199/50 61/200/50
f 67/201/51 68/202/51 66/203/51 65/204/51
f 64/205/52 63/206/52 68/207/52 67/208/52
f 62/209/53 66/210/53 68/211/53 63/212/53
f 65/213/54 61/214/54 64/215/54 67/216/54
f 69/217/55 70/218/55 71/219/55 72/220/55
f 73/221/56 74/222/56 70/223/56 69/224/56
f 75/225/57 76/226/57 74/227/57 73/228/57
f 72/229/58 71/230/58 76/231/58 75/232/58
f 70/233/59 74/234/59 76/235/59 71/236/59
f 73/237/60 69/238/60 72/239/60 75/240/60
f 77/241/61 78/242/61 79/243/61 80/244/61
f 81/245/62 82/246/62 78/247/62 77/248/62
f 83/249/63 84/250/63 82/251/63 81/252/63
f 80/253/64 79/254/64 84/255/64 83/256/64
f 78/257/65 82/258/65 84/259/65 79/260/65
f 81/261/66 77/262/66 80/263/66 83/264/66
f 85/265/67 86/266/67 87/267/67 88/268/67
f 89/269/68 90/270/68 86/271/68 85/272/68
f 91/273/69 92/274/69 90/275/69 89/276/69
f 88/277/70 87/278/70 92/279/70 91/280/70
f 86/281/71 90/282/71 92/283/71 87/284/71
f 89/285/72 85/286/72 88/287/72 91/288/72
f 93/289/73 94/290/73 95/291/73 96/292/73
f 97/293/74 98/294/74 94/295/74 93/296/74
f 99/297/75 100/298/75 98/299/75 97/300/75
f 96/301/76 95/302/76 100/303/76 99/304/76
f 94/305/77 98/306/77 100/307/77 95/308/77
f 97/309/78 93/310/78 96/311/78 99/312/78
f 101/313/79 102/314/79 103/315/79 104/316/79
f 105/317/80 106/318/80 102/319/80 101/320/80
f 107/321/81 108/322/81 106/323/81 105/324/81
f 104/325/82 103/326/82 108/327/82 107/328/82
f 102/329/83 106/330/83 108/331/83 103/332/83
f 105/333/84 101/334/84 104/335/84 107/336/84
f 109/337/85 110/338/85 111/339/85 112/340/85
f 113/341/86 114/342/86 110/343/86 109/344/86
f 115/345/87 116/346/87 114/347/87 113/348/87
f 112/349/88 111/350/88 116/351/88 115/352/88
f 110/353/89 114/354/89 116/355/89 111/356/89
f 113/357/90 109/358/90 112/359/90 115/360/90
f 117/361/91 118/362/91 119/363/91 120/364/91
f 121/365/92 122/366/92 118/367/92 117/368/92
f 123/369/93 124/370/93 122/371/93 121/372/93
f 120/373/94 119/374/94 124/375/94 123/376/94
f 118/377/95 122/378/95 124/379/95 119/380/95
f 121/381/96 117/382/96 120/383/96 123/384/96
f 125/385/97 126/386/97 127/387/97 128/388/97
f 129/389/98 130/390/98 126/391/98 125/392/98
f 131/393/99 132/394/99 130/395/99 129/396/99
f 128/397/100 127/398/100 132/399/100 131/400/100
f 126/401/101 130/402/101 132/403/101 127/404/101
f 129/405/102 125/406/102 128/407/102 131/408/102
f 21/409/103 22/410/103 26/411/103 25/412/103
f 133/413/104 134/414/104 22/415/104 21/416/104
f 53/417/105 54/418/105 134/419/105 133/420/105
f 25/421/106 26/422/106 54/423/106 53/424/106
f 22/425/107 134/426/107 54/427/107 26/428/107
f 133/429/108 21/430/108 25/431/108 53/432/108
f 13/433/109 135/434/109 136/435/109 7/436/109
f 137/437/110 138/438/110 135/439/110 13/440/110
f 60/441/111 139/442/111 138/443/111 137/444/111
f 139/445/112 136/446/112 7/447/112 60/448/112
f 135/449/113 138/450/113 139/451/113 136/452/113
f 137/453/114 13/454/114 7/455/114 60/456/114
f 140/457/115 141/458/115 34/459/115 33/460/115
f 18/461/116 11/462/116 141/463/116 140/464/116
f 23/465/117 2/466/117 11/467/117 18/468/117
f 33/469/118 34/470/118 2/471/118 23/472/118
f 141/473/119 11/474/119 2/475/119 34/476/119
f 33/477/120 140/478/120 18/479/120 23/480/120
f 142/481/121 143/482/121 144/483/121 31/484/121
f 14/485/122 145/486/122 143/487/122 142/488/122
f 145/489/123 146/490/123 8/491/123 14/492/123
f 31/493/124 144/494/124 146/495/124 8/496/124
f 143/497/125 145/498/125 146/499/125 144/500/125
f 14/501/126 142/502/126 31/503/126 8/504/126
f 147/505/127 148/506/127 32/507/127 149/508/127
f 150/509/128 151/510/128 148/511/128 147/512/128
f 152/513/129 59/514/129 151/515/129 150/516/129
f 149/517/130 32/518/130 59/519/130 152/520/130
f 148/521/131 151/522/131 59/523/131 32/524/131
f 150/525/132 147/526/132 149/527/132 152/528/132
f 153/529/133 154/530/133 155/531/133 156/532/133
f 157/533/134 158/534/134 154/535/134 153/536/134
f 159/537/135 160/538/135 158/539/135 157/540/135
f 156/541/136 155/542/136 160/543/136 159/544/136
f 154/545/137 158/546/137 160/547/137 155/548/137
f 157/549/138 153/550/138 156/551/138 159/552/138
f 161/553/139 162/554/139 163/555/139 164/556/139
f 165/557/140 166/558/140 162/559/140 161/560/140
f 167/561/141 168/562/141 166/563/141 165/564/141
f 164/565/142 163/566/142 168/567/142 167/568/142
f 162/569/143 166/570/143 168/571/143 163/572/143
f 165/573/144 161/574/144 164/575/144 167/576/144
f 169/577/145 147/578/145 170/579/145 171/580/145
f 172/581/146 173/582/146 147/583/146 169/584/146
f 161/585/147 162/586/147 173/587/147 172/588/147
f 171/589/148 170/590/148 162/591/148 161/592/148
f 147/593/149 173/594/149 162/595/149 170/596/149
f 172/597/150 169/598/150 171/599/150 161/600/150
f 174/601/151 175/602/151 166/603/151 165/604/151
f 176/605/152 150/606/152 175/607/152 174/608/152
f 177/609/153 178/610/153 150/611/153 176/612/153
f 165/613/154 166/614/154 178/615/154 177/616/154
f 175/617/155 150/618/155 178/619/155 166/620/155
f 176/621/156 174/622/156 165/623/156 177/624/156
f 179/625/157 180/626/157 181/627/157 182/628/157
f 183/629/158 184/630/158 180/631/158 179/632/158
f 185/633/159 186/634/159 184/635/159 183/636/159
f 182/637/160 181/638/160 186/639/160 185/640/160
f 180/641/161 184/642/161 186/643/161 181/644/161
f 183/645/162 179/646/162 182/647/162 185/648/162
f 187/649/163 188/650/163 189/651/163 190/652/163
f 191/653/164 192/654/164 188/655/164 187/656/164
f 193/657/165 194/658/165 192/659/165 191/660/165
f 190/661/166 189/662/166 194/663/166 193/664/166
f 188/665/167 192/666/167 194/667/167 189/668/167
f 191/669/168 187/670/168 190/671/168 193/672/168