# Made in Blockbench 4.12.6
mtllib alternator.mtl

o base
v 1.625 1.875 3.625
v 1.625 2.25 3.625
v 1.375 2.25 3.625
v 1.375 1.875 3.625
v 1.375 2.25 3.375
v 1.375 1.875 3.375
v 1.625 2.25 3.375
v 1.625 1.875 3.375
v 1.625 0.75 3.625
v 1.625 1.125 3.625
v 1.375 1.125 3.625
v 1.375 0.75 3.625
v 1.375 1.125 3.375
v 1.375 0.75 3.375
v 1.625 1.125 3.375
v 1.625 0.75 3.375
v 1.75 0.25 3.75
v 1.75 0.75 3.75
v 1.25 0.75 3.75
v 1.25 0.25 3.75
v 1.25 0.75 3.25
v 1.25 0.25 3.25
v 1.75 0.75 3.25
v 1.75 0.25 3.25
v 1.75 2.25 3.75
v 1.75 2.75 3.75
v 1.25 2.75 3.75
v 1.25 2.25 3.75
v 1.25 2.75 3.25
v 1.25 2.25 3.25
v 1.75 2.75 3.25
v 1.75 2.25 3.25
v 2.25 0.375 3.625
v 2.25 0.625 3.625
v 1.75 0.625 3.625
v 1.75 0.375 3.625
v 1.75 0.375 3.375
v 1.75 0.625 3.375
v 2.25 0.625 3.375
v 2.25 0.375 3.375
v 2.25 2.375 3.625
v 2.25 2.625 3.625
v 1.75 2.625 3.625
v 1.75 2.375 3.625
v 1.75 2.375 3.375
v 1.75 2.625 3.375
v 2.25 2.625 3.375
v 2.25 2.375 3.375
v 1.125 1.375 3.625
v 1.125 1.625 3.625
v 0.75 1.625 3.625
v 0.75 1.375 3.625
v 0.75 1.375 3.375
v 0.75 1.625 3.375
v 1.125 1.625 3.375
v 1.125 1.375 3.375
v 2.25 1.375 3.625
v 2.25 1.625 3.625
v 1.875 1.625 3.625
v 1.875 1.375 3.625
v 1.875 1.375 3.375
v 1.875 1.625 3.375
v 2.25 1.625 3.375
v 2.25 1.375 3.375
v 1.25 2.375 3.625
v 1.25 2.625 3.625
v 0.75 2.625 3.625
v 0.75 2.375 3.625
v 0.75 2.375 3.375
v 0.75 2.625 3.375
v 1.25 2.625 3.375
v 1.25 2.375 3.375
v 1.25 0.375 3.625
v 1.25 0.625 3.625
v 0.75 0.625 3.625
v 0.75 0.375 3.625
v 0.75 0.375 3.375
v 0.75 0.625 3.375
v 1.25 0.625 3.375
v 1.25 0.375 3.375
v 2.375 0.75 3.75
v 2.375 1.25 3.75
v 2.375 1.25 3.25
v 2.375 0.75 3.25
v 2.875 0.75 3.25
v 2.875 1.25 3.25
v 2.875 1.25 3.75
v 2.875 0.75 3.75
v 0.125 0.75 3.75
v 0.125 1.25 3.75
v 0.125 1.25 3.25
v 0.125 0.75 3.25
v 0.625 0.75 3.25
v 0.625 1.25 3.25
v 0.625 1.25 3.75
v 0.625 0.75 3.75
v 0.125 1.75 3.75
v 0.125 2.25 3.75
v 0.125 2.25 3.25
v 0.125 1.75 3.25
v 0.625 1.75 3.25
v 0.625 2.25 3.25
v 0.625 2.25 3.75
v 0.625 1.75 3.75
v 2.375 1.75 3.75
v 2.375 2.25 3.75
v 2.375 2.25 3.25
v 2.375 1.75 3.25
v 2.875 1.75 3.25
v 2.875 2.25 3.25
v 2.875 2.25 3.75
v 2.875 1.75 3.75
v 2.875 0 3.75
v 2.875 0.25 3.75
v 2.375 0.25 3.75
v 2.375 0 3.75
v 2.375 0.25 3.25
v 2.375 0 3.25
v 2.875 0.25 3.25
v 2.875 0 3.25
v 0.125 0 3.75
v 0.125 0.25 3.75
v 0.125 0.25 3.25
v 0.125 0 3.25
v 0.625 0 3.25
v 0.625 0.25 3.25
v 0.625 0.25 3.75
v 0.625 0 3.75
v 0.125 2.75 3.75
v 0.125 3 3.75
v 0.125 3 3.25
v 0.125 2.75 3.25
v 0.625 2.75 3.25
v 0.625 3 3.25
v 0.625 3 3.75
v 0.625 2.75 3.75
v 2.875 2.75 3.75
v 2.875 3 3.75
v 2.375 3 3.75
v 2.375 2.75 3.75
v 2.375 3 3.25
v 2.375 2.75 3.25
v 2.875 2.75 3.25
v 2.875 3 3.25
v 2.375 3 3
v 2.375 0 3
v 2.875 3 3
v 2.875 0 3
v 0.125 3 3
v 0.125 0 3
v 0.625 3 3
v 0.625 0 3
v 0.625 0 4
v 0.625 3 4
v 0.125 3 4
v 0.125 0 4
v 2.875 0 4
v 2.875 3 4
v 2.375 3 4
v 2.375 0 4
v 0.75 2.25 3.75
v 0.75 2.75 3.75
v 0 2.75 3.75
v 0 2.25 3.75
v 0 2.75 3.25
v 0 2.25 3.25
v 0.75 2.75 3.25
v 0.75 2.25 3.25
v 0.75 1.25 3.75
v 0.75 1.75 3.75
v 0 1.75 3.75
v 0 1.25 3.75
v 0 1.75 3.25
v 0 1.25 3.25
v 0.75 1.75 3.25
v 0.75 1.25 3.25
v 0.75 0.25 3.75
v 0.75 0.75 3.75
v 0 0.75 3.75
v 0 0.25 3.75
v 0 0.75 3.25
v 0 0.25 3.25
v 0.75 0.75 3.25
v 0.75 0.25 3.25
v 3 2.25 3.75
v 3 2.75 3.75
v 2.25 2.75 3.75
v 2.25 2.25 3.75
v 2.25 2.75 3.25
v 2.25 2.25 3.25
v 3 2.75 3.25
v 3 2.25 3.25
v 3 1.25 3.75
v 3 1.75 3.75
v 2.25 1.75 3.75
v 2.25 1.25 3.75
v 2.25 1.75 3.25
v 2.25 1.25 3.25
v 3 1.75 3.25
v 3 1.25 3.25
v 3 0.25 3.75
v 3 0.75 3.75
v 2.25 0.75 3.75
v 2.25 0.25 3.75
v 2.25 0.75 3.25
v 2.25 0.25 3.25
v 3 0.75 3.25
v 3 0.25 3.25
v 1.875 1.125 3.75
v 1.875 1.875 3.75
v 1.125 1.875 3.75
v 1.125 1.125 3.75
v 1.125 1.875 3.25
v 1.125 1.125 3.25
v 1.875 1.875 3.25
v 1.875 1.125 3.25
v 1.25 1.25 3.25
v 1.25 1.75 3.25
v 1.25 1.75 3
v 1.25 1.25 3
v 1.75 1.25 3
v 1.75 1.75 3
v 1.75 1.75 3.25
v 1.75 1.25 3.25
v 2 0.25 3
v 2 2 3
v 1 2 3
v 1 0.25 3
v 1 2 2.5
v 1 0.25 2.5
v 2 2 2.5
v 2 0.25 2.5
v 2.5 1 2.5
v 2.5 1 2
v 0.5 1 2
v 0.5 1 2.5
v 2.5 0 2.5
v 0.5 0 2.5
v 0.5 0 2
v 2.5 0 2
v 1.25 1.25 2.5
v 1.25 1.75 2.5
v 1.25 1.75 2.25
v 1.25 1.25 2.25
v 1.75 1.25 2.25
v 1.75 1.75 2.25
v 1.75 1.75 2.5
v 1.75 1.25 2.5
v 3 0 2
v 3 1 2
v 0 1 2
v 0 0 2
v 3 0 0.5
v 0 0 0.5
v 0 1 0.5
v 3 1 0.5
v 0.75 1 0.75
v 0.75 2.125 0.75
v 0.75 2.125 0.25
v 0.75 1 0.25
v 2.25 2.125 0.25
v 2.25 1 0.25
v 2.25 2.125 0.75
v 2.25 1 0.75
v 1 1 0.25
v 1 2 0.25
v 1 2 0
v 1 1 0
v 2 2 0
v 2 1 0
v 2 2 0.25
v 2 1 0.25
v 2 1.75 2.25
v 1.625 2 2.25
v 1.375 2 2.25
v 1 1.75 2.25
v 1.375 2 1.75
v 1 1.75 1.75
v 2 1.75 1.75
v 1.625 2 1.75
v 2.25 1.25 2.25
v 0.75 1.25 2.25
v 0.75 1.25 1.75
v 2.25 1.25 1.75
v 2.25 1 2.25
v 0.75 1 2.25
v 0.75 1 1.75
v 2.25 1 1.75
v 2.5 2 1.75
v 1.875 2.5 1.75
v 1.125 2.5 1.75
v 0.5 2 1.75
v 1.125 2.5 0.75
v 0.5 2 0.75
v 1.875 2.5 0.75
v 2.5 2 0.75
v 2.75 1.25 1.75
v 0.25 1.25 1.75
v 0.25 1.25 0.75
v 2.75 1.25 0.75
v 2.75 1 1.75
v 0.25 1 1.75
v 0.25 1 0.75
v 2.75 1 0.75
v 0.5 0 0.5
v 0.5 1 0.5
v 0.5 1 0
v 0.5 0 0
v 2.5 1 0
v 2.5 0 0
v 2.5 1 0.5
v 2.5 0 0.5
vt 0 0.5
vt 0 0.546875
vt 0.03125 0.546875
vt 0.03125 0.5
vt 0 0.5
vt 0 0.546875
vt 0.03125 0.546875
vt 0.03125 0.5
vt 0 0.5
vt 0 0.546875
vt 0.03125 0.546875
vt 0.03125 0.5
vt 0 0.5
vt 0 0.546875
vt 0.03125 0.546875
vt 0.03125 0.5
vt 0 0.5
vt 0 0.546875
vt 0.03125 0.546875
vt 0.03125 0.5
vt 0 0.5
vt 0 0.546875
vt 0.03125 0.546875
vt 0.03125 0.5
vt 0 0.5
vt 0 0.546875
vt 0.03125 0.546875
vt 0.03125 0.5
vt 0 0.5
vt 0 0.546875
vt 0.03125 0.546875
vt 0.03125 0.5
vt 0.65625 0.625
vt 0.65625 0.6875
vt 0.71875 0.6875
vt 0.71875 0.625
vt 0.65625 0.625
vt 0.65625 0.6875
vt 0.71875 0.6875
vt 0.71875 0.625
vt 0.65625 0.625
vt 0.65625 0.6875
vt 0.71875 0.6875
vt 0.71875 0.625
vt 0.65625 0.625
vt 0.65625 0.6875
vt 0.71875 0.6875
vt 0.71875 0.625
vt 0.65625 0.625
vt 0.65625 0.6875
vt 0.71875 0.6875
vt 0.71875 0.625
vt 0.65625 0.625
vt 0.65625 0.6875
vt 0.71875 0.6875
vt 0.71875 0.625
vt 0.65625 0.625
vt 0.65625 0.6875
vt 0.71875 0.6875
vt 0.71875 0.625
vt 0.65625 0.625
vt 0.65625 0.6875
vt 0.71875 0.6875
vt 0.71875 0.625
vt 0.65625 0.625
vt 0.65625 0.6875
vt 0.71875 0.6875
vt 0.71875 0.625
vt 0.65625 0.625
vt 0.65625 0.6875
vt 0.71875 0.6875
vt 0.71875 0.625
vt 0.65625 0.625
vt 0.65625 0.6875
vt 0.71875 0.6875
vt 0.71875 0.625
vt 0.65625 0.625
vt 0.65625 0.6875
vt 0.71875 0.6875
vt 0.71875 0.625
vt 0.03125 0.539061875
vt 0 0.539061875
vt 0 0.601561875
vt 0.03125 0.601561875
vt 0.03125 0.539061875
vt 0 0.539061875
vt 0 0.601561875
vt 0.03125 0.601561875
vt 0.03125 0.539061875
vt 0 0.539061875
vt 0 0.601561875
vt 0.03125 0.601561875
vt 0.03125 0.539061875
vt 0 0.539061875
vt 0 0.601561875
vt 0.03125 0.601561875
vt 0.03125 0.539061875
vt 0 0.539061875
vt 0 0.601561875
vt 0.03125 0.601561875
vt 0.03125 0.515625
vt 0 0.515625
vt 0 0.578125
vt 0.03125 0.578125
vt 0.03125 0.539061875
vt 0 0.539061875
vt 0 0.601561875
vt 0.03125 0.601561875
vt 0.03125 0.539061875
vt 0 0.539061875
vt 0 0.601561875
vt 0.03125 0.601561875
vt 0.03125 0.5
vt 0 0.5
vt 0 0.546875
vt 0.03125 0.546875
vt 0.03125 0.5
vt 0 0.5
vt 0 0.546875
vt 0.03125 0.546875
vt 0.03125 0.5
vt 0 0.5
vt 0 0.546875
vt 0.03125 0.546875
vt 0.03125 0.5
vt 0 0.5
vt 0 0.546875
vt 0.03125 0.546875
vt 0.03125 0.5
vt 0 0.5
vt 0 0.546875
vt 0.03125 0.546875
vt 0.03125 0.5
vt 0 0.5
vt 0 0.546875
vt 0.03125 0.546875
vt 0.03125 0.5
vt 0 0.5
vt 0 0.546875
vt 0.03125 0.546875
vt 0.03125 0.5
vt 0 0.5
vt 0 0.546875
vt 0.03125 0.546875
vt 0.03125 0.515625
vt 0 0.515625
vt 0 0.578125
vt 0.03125 0.578125
vt 0.03125 0.539061875
vt 0 0.539061875
vt 0 0.601561875
vt 0.03125 0.601561875
vt 0.03125 0.515625
vt 0 0.515625
vt 0 0.578125
vt 0.03125 0.578125
vt 0.03125 0.515625
vt 0 0.515625
vt 0 0.578125
vt 0.03125 0.578125
vt 0.03125 0.515625
vt 0 0.515625
vt 0 0.578125
vt 0.03125 0.578125
vt 0.03125 0.539061875
vt 0 0.539061875
vt 0 0.601561875
vt 0.03125 0.601561875
vt 0.03125 0.515625
vt 0 0.515625
vt 0 0.578125
vt 0.03125 0.578125
vt 0.03125 0.515625
vt 0 0.515625
vt 0 0.578125
vt 0.03125 0.578125
vt 0.65625 0.5625
vt 0.65625 0.625
vt 0.71875 0.625
vt 0.71875 0.5625
vt 0.65625 0.5625
vt 0.65625 0.625
vt 0.71875 0.625
vt 0.71875 0.5625
vt 0.65625 0.5625
vt 0.65625 0.625
vt 0.71875 0.625
vt 0.71875 0.5625
vt 0.65625 0.5625
vt 0.65625 0.625
vt 0.71875 0.625
vt 0.71875 0.5625
vt 0.65625 0.5625
vt 0.65625 0.625
vt 0.71875 0.625
vt 0.71875 0.5625
vt 0.65625 0.5625
vt 0.65625 0.625
vt 0.71875 0.625
vt 0.71875 0.5625
vt 0.65625 0.5625
vt 0.65625 0.625
vt 0.71875 0.625
vt 0.71875 0.5625
vt 0.65625 0.5625
vt 0.65625 0.625
vt 0.71875 0.625
vt 0.71875 0.5625
vt 0.77846 0.125
vt 0.703125 0.265625
vt 0.88644 0.22835062500000003
vt 0.9140625 0.15210812500000004
vt 0.5 0.59375
vt 0.5 0.625
vt 0.5625 0.625
vt 0.5625 0.59375
vt 0.640625 0
vt 0.640625 0.375
vt 1 0.375
vt 0.898925625 0.158203125
vt 0.5 0.59375
vt 0.5 0.625
vt 0.5625 0.625
vt 0.5625 0.59375
vt 0.59375 0.59375
vt 0.59375 0.65625
vt 0.65625 0.65625
vt 0.65625 0.59375
vt 0.5 0.59375
vt 0.5 0.625
vt 0.5625 0.625
vt 0.5625 0.59375
vt 0.5 0.59375
vt 0.5 0.625
vt 0.5625 0.625
vt 0.5625 0.59375
vt 0.65625 0.59375
vt 0.65625 0.65625
vt 0.59375 0.65625
vt 0.59375 0.59375
vt 0.5 0.59375
vt 0.5 0.625
vt 0.5625 0.625
vt 0.5625 0.59375
vt 0.5 0.59375
vt 0.5 0.625
vt 0.5625 0.625
vt 0.5625 0.59375
vt 0.65625 0.59375
vt 0.65625 0.65625
vt 0.59375 0.65625
vt 0.59375 0.59375
vt 0.6875 0.0234375
vt 0.6875 0.359375
vt 0.953125 0.359375
vt 0.878418125 0.16253687500000003
vt 0.5 0.59375
vt 0.5 0.625
vt 0.5625 0.625
vt 0.5625 0.59375
vt 0.5 0.59375
vt 0.5 0.625
vt 0.5625 0.625
vt 0.5625 0.59375
vt 0.59375 0.59375
vt 0.59375 0.65625
vt 0.65625 0.65625
vt 0.65625 0.59375
vt 0.78125 0.5
vt 0.78125 0.875
vt 0.75 0.875
vt 0.75 0.5
vt 0.78125 0.5
vt 0.78125 0.875
vt 0.84375 0.875
vt 0.84375 0.5
vt 0.75 0.5
vt 0.75 0.875
vt 0.78125 0.875
vt 0.78125 0.5
vt 0.59375 0.65625
vt 0.59375 0.6875
vt 0.65625 0.6875
vt 0.65625 0.65625
vt 0.59375 0.5625
vt 0.59375 0.59375
vt 0.65625 0.59375
vt 0.65625 0.5625
vt 0.78125 0.5
vt 0.78125 0.875
vt 0.75 0.875
vt 0.75 0.5
vt 0.84375 0.5
vt 0.84375 0.875
vt 0.78125 0.875
vt 0.78125 0.5
vt 0.75 0.5
vt 0.75 0.875
vt 0.78125 0.875
vt 0.78125 0.5
vt 0.65625 0.65625
vt 0.65625 0.6875
vt 0.59375 0.6875
vt 0.59375 0.65625
vt 0.65625 0.5625
vt 0.65625 0.59375
vt 0.59375 0.59375
vt 0.59375 0.5625
vt 0.78125 0.5
vt 0.78125 0.875
vt 0.84375 0.875
vt 0.84375 0.5
vt 0.75 0.5
vt 0.75 0.875
vt 0.78125 0.875
vt 0.78125 0.5
vt 0.78125 0.5
vt 0.78125 0.875
vt 0.75 0.875
vt 0.75 0.5
vt 0.65625 0.5625
vt 0.65625 0.59375
vt 0.59375 0.59375
vt 0.59375 0.5625
vt 0.65625 0.65625
vt 0.65625 0.6875
vt 0.59375 0.6875
vt 0.59375 0.65625
vt 0.84375 0.5
vt 0.84375 0.875
vt 0.78125 0.875
vt 0.78125 0.5
vt 0.75 0.5
vt 0.75 0.875
vt 0.78125 0.875
vt 0.78125 0.5
vt 0.78125 0.5
vt 0.78125 0.875
vt 0.75 0.875
vt 0.75 0.5
vt 0.59375 0.5625
vt 0.59375 0.59375
vt 0.65625 0.59375
vt 0.65625 0.5625
vt 0.59375 0.65625
vt 0.59375 0.6875
vt 0.65625 0.6875
vt 0.65625 0.65625
vt 0.625 0.8125
vt 0.625 0.875
vt 0.71875 0.875
vt 0.71875 0.8125
vt 0 0.9375
vt 0 1
vt 0.0625 1
vt 0.0625 0.9375
vt 0.625 0.8125
vt 0.625 0.875
vt 0.71875 0.875
vt 0.71875 0.8125
vt 0 0.625
vt 0 0.6875
vt 0.0625 0.6875
vt 0.0625 0.625
vt 0.625 0.8125
vt 0.625 0.875
vt 0.71875 0.875
vt 0.71875 0.8125
vt 0.625 0.8125
vt 0.625 0.875
vt 0.71875 0.875
vt 0.71875 0.8125
vt 0.625 0.8125
vt 0.625 0.875
vt 0.71875 0.875
vt 0.71875 0.8125
vt 0 0.9375
vt 0 1
vt 0.0625 1
vt 0.0625 0.9375
vt 0.625 0.8125
vt 0.625 0.875
vt 0.71875 0.875
vt 0.71875 0.8125
vt 0 0.625
vt 0 0.6875
vt 0.0625 0.6875
vt 0.0625 0.625
vt 0.625 0.8125
vt 0.625 0.875
vt 0.71875 0.875
vt 0.71875 0.8125
vt 0.625 0.8125
vt 0.625 0.875
vt 0.71875 0.875
vt 0.71875 0.8125
vt 0.625 0.8125
vt 0.625 0.875
vt 0.71875 0.875
vt 0.71875 0.8125
vt 0 0.9375
vt 0 1
vt 0.0625 1
vt 0.0625 0.9375
vt 0.625 0.8125
vt 0.625 0.875
vt 0.71875 0.875
vt 0.71875 0.8125
vt 0 0.625
vt 0 0.6875
vt 0.0625 0.6875
vt 0.0625 0.625
vt 0.625 0.8125
vt 0.625 0.875
vt 0.71875 0.875
vt 0.71875 0.8125
vt 0.625 0.8125
vt 0.625 0.875
vt 0.71875 0.875
vt 0.71875 0.8125
vt 0.625 0.8125
vt 0.625 0.875
vt 0.71875 0.875
vt 0.71875 0.8125
vt 0 0.625
vt 0 0.6875
vt 0.0625 0.6875
vt 0.0625 0.625
vt 0.625 0.8125
vt 0.625 0.875
vt 0.71875 0.875
vt 0.71875 0.8125
vt 0 0.9375
vt 0 1
vt 0.0625 1
vt 0.0625 0.9375
vt 0.625 0.8125
vt 0.625 0.875
vt 0.71875 0.875
vt 0.71875 0.8125
vt 0.625 0.8125
vt 0.625 0.875
vt 0.71875 0.875
vt 0.71875 0.8125
vt 0.625 0.8125
vt 0.625 0.875
vt 0.71875 0.875
vt 0.71875 0.8125
vt 0 0.625
vt 0 0.6875
vt 0.0625 0.6875
vt 0.0625 0.625
vt 0.625 0.8125
vt 0.625 0.875
vt 0.71875 0.875
vt 0.71875 0.8125
vt 0 0.9375
vt 0 1
vt 0.0625 1
vt 0.0625 0.9375
vt 0.625 0.8125
vt 0.625 0.875
vt 0.71875 0.875
vt 0.71875 0.8125
vt 0.625 0.8125
vt 0.625 0.875
vt 0.71875 0.875
vt 0.71875 0.8125
vt 0.625 0.8125
vt 0.625 0.875
vt 0.71875 0.875
vt 0.71875 0.8125
vt 0 0.625
vt 0 0.6875
vt 0.0625 0.6875
vt 0.0625 0.625
vt 0.625 0.8125
vt 0.625 0.875
vt 0.71875 0.875
vt 0.71875 0.8125
vt 0 0.9375
vt 0 1
vt 0.0625 1
vt 0.0625 0.9375
vt 0.625 0.8125
vt 0.625 0.875
vt 0.71875 0.875
vt 0.71875 0.8125
vt 0.625 0.8125
vt 0.625 0.875
vt 0.71875 0.875
vt 0.71875 0.8125
vt 0.84375 0.640625
vt 0.84375 0.734375
vt 0.9375 0.734375
vt 0.9375 0.640625
vt 0.90625 0.5
vt 0.90625 0.59375
vt 0.96875 0.59375
vt 0.96875 0.5
vt 0.84375 0.734375
vt 0.84375 0.828125
vt 0.9375 0.828125
vt 0.9375 0.734375
vt 0.90625 0.5
vt 0.90625 0.59375
vt 0.96875 0.59375
vt 0.96875 0.5
vt 0.90625 0.59375
vt 0.96875 0.59375
vt 0.96875 0.5
vt 0.90625 0.5
vt 0.90625 0.59375
vt 0.96875 0.59375
vt 0.96875 0.5
vt 0.90625 0.5
vt 0.03125 0.5625
vt 0.03125 0.625
vt 0.0625 0.625
vt 0.0625 0.5625
vt 0.03125 0.5625
vt 0.03125 0.625
vt 0.0625 0.625
vt 0.0625 0.5625
vt 0.03125 0.625
vt 0.0625 0.625
vt 0.0625 0.5625
vt 0.03125 0.5625
vt 0.03125 0.625
vt 0.0625 0.625
vt 0.0625 0.5625
vt 0.03125 0.5625
vt 0 0.28125
vt 0 0.5
vt 0.125 0.5
vt 0.125 0.28125
vt 0 0.28125
vt 0 0.5
vt 0.0625 0.5
vt 0.0625 0.28125
vt 0 0.28125
vt 0 0.5
vt 0.125 0.5
vt 0.125 0.28125
vt 0.0625 0.28125
vt 0.0625 0.5
vt 0.125 0.5
vt 0.125 0.28125
vt 0.59375 0.6875
vt 0.65625 0.6875
vt 0.65625 0.5625
vt 0.59375 0.5625
vt 0.65625 0.5625
vt 0.59375 0.5625
vt 0.59375 0.6875
vt 0.65625 0.6875
vt 0 0.6875
vt 0.0625 0.6875
vt 0.0625 0.9375
vt 0 0.9375
vt 0.3125 0.875
vt 0.3125 1
vt 0.5625 1
vt 0.5625 0.875
vt 0.25 0.875
vt 0.25 1
vt 0.3125 1
vt 0.3125 0.875
vt 0.0625 0.6875
vt 0 0.6875
vt 0 0.9375
vt 0.0625 0.9375
vt 0.25 0.875
vt 0.25 1
vt 0.3125 1
vt 0.3125 0.875
vt 0.03125 0.5625
vt 0.03125 0.625
vt 0.0625 0.625
vt 0.0625 0.5625
vt 0.03125 0.5625
vt 0.03125 0.625
vt 0.0625 0.625
vt 0.0625 0.5625
vt 0.03125 0.625
vt 0.0625 0.625
vt 0.0625 0.5625
vt 0.03125 0.5625
vt 0.03125 0.625
vt 0.0625 0.625
vt 0.0625 0.5625
vt 0.03125 0.5625
vt 0.25 0.875
vt 0.25 1
vt 0.625 1
vt 0.625 0.875
vt 0.25 0.625
vt 0.0625 0.625
vt 0.0625 1
vt 0.25 1
vt 0.25 0.875
vt 0.25 1
vt 0.625 1
vt 0.625 0.875
vt 0.0625 0.5
vt 0.0625 0.625
vt 0.25 0.625
vt 0.25 0.5
vt 0.0625 1
vt 0.25 1
vt 0.25 0.625
vt 0.0625 0.625
vt 0.0625 0.5
vt 0.0625 0.625
vt 0.25 0.625
vt 0.25 0.5
vt 0.84375 0.5
vt 0.84375 0.640625
vt 0.90625 0.640625
vt 0.90625 0.5
vt 0.5625 0.5625
vt 0.5625 0.703125
vt 0.75 0.703125
vt 0.75 0.5625
vt 0.90625 0.5
vt 0.90625 0.640625
vt 0.84375 0.640625
vt 0.84375 0.5
vt 0.5625 0.5625
vt 0.5625 0.5
vt 0.75 0.5
vt 0.75 0.5625
vt 0.75 0.875
vt 0.75 1
vt 0.78125 1
vt 0.78125 0.875
vt 0.625 0.875
vt 0.625 1
vt 0.75 1
vt 0.75 0.875
vt 0.75 0.875
vt 0.75 1
vt 0.78125 1
vt 0.78125 0.875
vt 0.75 1
vt 0.78125 1
vt 0.78125 0.875
vt 0.75 0.875
vt 0.78125 0.96875
vt 0.828125 1
vt 0.859375 1
vt 0.90625 0.96875
vt 0.5 0.789061875
vt 0.5 0.84375
vt 0.5625 0.84375
vt 0.5625 0.789061875
vt 0.5 0.789061875
vt 0.5 0.84375
vt 0.5625 0.84375
vt 0.5625 0.789061875
vt 0.4375 0.84375
vt 0.5 0.84375
vt 0.5 0.8125
vt 0.4375 0.8125
vt 0.78125 0.90625
vt 0.8125 0.96875
vt 0.9375 0.96875
vt 0.96875 0.90625
vt 0.5625 0.804688125
vt 0.5625 0.875
vt 0.625 0.875
vt 0.625 0.804688125
vt 0.5625 0.804688125
vt 0.5625 0.875
vt 0.625 0.875
vt 0.625 0.804688125
vt 0.25 0.78125
vt 0.25 0.8125
vt 0.4375 0.8125
vt 0.4375 0.78125
vt 0.375 0.8125
vt 0.375 0.84375
vt 0.4375 0.84375
vt 0.4375 0.8125
vt 0.375 0.8125
vt 0.375 0.84375
vt 0.4375 0.84375
vt 0.4375 0.8125
vt 0.25 0.59375
vt 0.328125 0.65625
vt 0.421875 0.65625
vt 0.5 0.59375
vt 0.25 0.679688125
vt 0.25 0.78125
vt 0.375 0.78125
vt 0.375 0.679688125
vt 0.25 0.59375
vt 0.328125 0.65625
vt 0.421875 0.65625
vt 0.5 0.59375
vt 0.375 0.679688125
vt 0.375 0.78125
vt 0.25 0.78125
vt 0.25 0.679688125
vt 0.375 0.78125
vt 0.5 0.78125
vt 0.5 0.6875
vt 0.375 0.6875
vt 0.25 0.5
vt 0.28125 0.59375
vt 0.53125 0.59375
vt 0.5625 0.5
vt 0.5 0.703125
vt 0.5 0.789061875
vt 0.625 0.789061875
vt 0.625 0.703125
vt 0.25 0.5
vt 0.28125 0.59375
vt 0.53125 0.59375
vt 0.5625 0.5
vt 0.625 0.703125
vt 0.625 0.789061875
vt 0.5 0.789061875
vt 0.5 0.703125
vt 0.25 0.84375
vt 0.25 0.875
vt 0.5625 0.875
vt 0.5625 0.84375
vt 0.25 0.8125
vt 0.25 0.84375
vt 0.375 0.84375
vt 0.375 0.8125
vt 0.25 0.84375
vt 0.25 0.875
vt 0.5625 0.875
vt 0.5625 0.84375
vt 0.25 0.8125
vt 0.25 0.84375
vt 0.375 0.84375
vt 0.375 0.8125
vt 0.25 0.875
vt 0.25 1
vt 0.3125 1
vt 0.3125 0.875
vt 0.3125 0.875
vt 0.3125 1
vt 0.5625 1
vt 0.5625 0.875
vt 0.25 0.875
vt 0.25 1
vt 0.3125 1
vt 0.3125 0.875
vt 0.0625 0.6875
vt 0 0.6875
vt 0 0.9375
vt 0.0625 0.9375
vt 0 0.6875
vt 0.0625 0.6875
vt 0.0625 0.9375
vt 0 0.9375
vn 0 0 1
vn -1 0 0
vn 0 0 -1
vn 1 0 0
vn 0 0 1
vn -1 0 0
vn 0 0 -1
vn 1 0 0
vn 0 0 1
vn -1 0 0
vn 0 0 -1
vn 1 0 0
vn 0 1 0
vn 0 -1 0
vn 0 0 1
vn -1 0 0
vn 0 0 -1
vn 1 0 0
vn 0 1 0
vn 0 -1 0
vn 0 0 1
vn 0 0 -1
vn 0 1 0
vn 0 -1 0
vn 0 0 1
vn 0 0 -1
vn 0 1 0
vn 0 -1 0
vn 0 0 1
vn 0 0 -1
vn 0 1 0
vn 0 -1 0
vn 0 0 1
vn 0 0 -1
vn 0 1 0
vn 0 -1 0
vn 0 0 1
vn 0 0 -1
vn 0 1 0
vn 0 -1 0
vn 0 0 1
vn 0 0 -1
vn 0 1 0
vn 0 -1 0
vn -1 0 0
vn 1 0 0
vn -1 0 0
vn 1 0 0
vn -1 0 0
vn 1 0 0
vn -1 0 0
vn 1 0 0
vn 0 0 1
vn -1 0 0
vn 0 0 -1
vn 1 0 0
vn 0 -1 0
vn -1 0 0
vn 1 0 0
vn 0 -1 0
vn -1 0 0
vn 1 0 0
vn 0 1 0
vn 0 0 1
vn -1 0 0
vn 1 0 0
vn 0 1 0
vn -1 0 0
vn 0 0 -1
vn 1 0 0
vn 0 1 0
vn 0 -1 0
vn -1 0 0
vn 0 0 -1
vn 1 0 0
vn 0 1 0
vn 0 -1 0
vn 0 0 1
vn -1 0 0
vn 1 0 0
vn 0 1 0
vn 0 -1 0
vn 0 0 1
vn -1 0 0
vn 1 0 0
vn 0 1 0
vn 0 -1 0
vn 0 0 1
vn -1 0 0
vn 0 0 -1
vn 1 0 0
vn 0 1 0
vn 0 -1 0
vn 0 0 1
vn -1 0 0
vn 0 0 -1
vn 1 0 0
vn 0 1 0
vn 0 -1 0
vn 0 0 1
vn -1 0 0
vn 0 0 -1
vn 1 0 0
vn 0 1 0
vn 0 -1 0
vn 0 0 1
vn -1 0 0
vn 0 0 -1
vn 1 0 0
vn 0 1 0
vn 0 -1 0
vn 0 0 1
vn -1 0 0
vn 0 0 -1
vn 1 0 0
vn 0 1 0
vn 0 -1 0
vn 0 0 1
vn -1 0 0
vn 0 0 -1
vn 1 0 0
vn 0 1 0
vn 0 -1 0
vn 0 0 1
vn -1 0 0
vn 0 0 -1
vn 1 0 0
vn 0 1 0
vn 0 -1 0
vn -1 0 0
vn 1 0 0
vn 0 1 0
vn 0 -1 0
vn 0 0 1
vn -1 0 0
vn 0 0 -1
vn 1 0 0
vn 0 1 0
vn 0 -1 0
vn 0 1 0
vn 0 0 1
vn -1 0 0
vn 0 -1 0
vn 1 0 0
vn -1 0 0
vn 1 0 0
vn 0 1 0
vn 0 -1 0
vn 0 0 1
vn 0 -1 0
vn 0 0 -1
vn 1 0 0
vn 0 1 0
vn -1 0 0
vn -1 0 0
vn 0 0 -1
vn 1 0 0
vn 0 1 0
vn -1 0 0
vn 0 0 -1
vn 1 0 0
vn 0 1 0
vn 0 0 1
vn -0.5547001962252291 0.8320502943378437 0
vn 0.5547001962252291 0.8320502943378437 0
vn 0 1 0
vn 0 0 1
vn -0.8944271909999161 0.44721359549995804 0
vn 0.8944271909999161 0.44721359549995804 0
vn 0 0 1
vn -1 0 0
vn 1 0 0
vn 0 0 1
vn -0.6246950475544243 0.7808688094430304 0
vn 0 0 -1
vn 0.6246950475544243 0.7808688094430304 0
vn 0 1 0
vn 0 0 1
vn -0.948683298050514 0.316227766016838 0
vn 0 0 -1
vn 0.948683298050514 0.316227766016838 0
vn 0 0 1
vn -1 0 0
vn 0 0 -1
vn 1 0 0
vn -1 0 0
vn 0 0 -1
vn 1 0 0
vn 0 1 0
vn 0 -1 0
usemtl m_5c29c891-8dcb-59ed-ee16-d0a890447ddc
f 1/1/1 2/2/1 3/3/1 4/4/1
f 4/5/2 3/6/2 5/7/2 6/8/2
f 6/9/3 5/10/3 7/11/3 8/12/3
f 8/13/4 7/14/4 2/15/4 1/16/4
f 9/17/5 10/18/5 11/19/5 12/20/5
f 12/21/6 11/22/6 13/23/6 14/24/6
f 14/25/7 13/26/7 15/27/7 16/28/7
f 16/29/8 15/30/8 10/31/8 9/32/8
f 17/33/9 18/34/9 19/35/9 20/36/9
f 20/37/10 19/38/10 21/39/10 22/40/10
f 22/41/11 21/42/11 23/43/11 24/44/11
f 24/45/12 23/46/12 18/47/12 17/48/12
f 18/49/13 23/50/13 21/51/13 19/52/13
f 24/53/14 17/54/14 20/55/14 22/56/14
f 25/57/15 26/58/15 27/59/15 28/60/15
f 28/61/16 27/62/16 29/63/16 30/64/16
f 30/65/17 29/66/17 31/67/17 32/68/17
f 32/69/18 31/70/18 26/71/18 25/72/18
f 26/73/19 31/74/19 29/75/19 27/76/19
f 32/77/20 25/78/20 28/79/20 30/80/20
f 33/81/21 34/82/21 35/83/21 36/84/21
f 37/85/22 38/86/22 39/87/22 40/88/22
f 34/89/23 39/90/23 38/91/23 35/92/23
f 40/93/24 33/94/24 36/95/24 37/96/24
f 41/97/25 42/98/25 43/99/25 44/100/25
f 45/101/26 46/102/26 47/103/26 48/104/26
f 42/105/27 47/106/27 46/107/27 43/108/27
f 48/109/28 41/110/28 44/111/28 45/112/28
f 49/113/29 50/114/29 51/115/29 52/116/29
f 53/117/30 54/118/30 55/119/30 56/120/30
f 50/121/31 55/122/31 54/123/31 51/124/31
f 56/125/32 49/126/32 52/127/32 53/128/32
f 57/129/33 58/130/33 59/131/33 60/132/33
f 61/133/34 62/134/34 63/135/34 64/136/34
f 58/137/35 63/138/35 62/139/35 59/140/35
f 64/141/36 57/142/36 60/143/36 61/144/36
f 65/145/37 66/146/37 67/147/37 68/148/37
f 69/149/38 70/150/38 71/151/38 72/152/38
f 66/153/39 71/154/39 70/155/39 67/156/39
f 72/157/40 65/158/40 68/159/40 69/160/40
f 73/161/41 74/162/41 75/163/41 76/164/41
f 77/165/42 78/166/42 79/167/42 80/168/42
f 74/169/43 79/170/43 78/171/43 75/172/43
f 80/173/44 73/174/44 76/175/44 77/176/44
f 81/177/45 82/178/45 83/179/45 84/180/45
f 85/181/46 86/182/46 87/183/46 88/184/46
f 89/185/47 90/186/47 91/187/47 92/188/47
f 93/189/48 94/190/48 95/191/48 96/192/48
f 97/193/49 98/194/49 99/195/49 100/196/49
f 101/197/50 102/198/50 103/199/50 104/200/50
f 105/201/51 106/202/51 107/203/51 108/204/51
f 109/205/52 110/206/52 111/207/52 112/208/52
f 113/209/53 114/210/53 115/211/53 116/212/53
f 116/213/54 115/214/54 117/215/54 118/216/54
f 118/217/55 117/218/55 119/219/55 120/220/55
f 120/221/56 119/222/56 114/223/56 113/224/56
f 120/225/57 113/226/57 116/227/57 118/228/57
f 121/229/58 122/230/58 123/231/58 124/232/58
f 125/233/59 126/234/59 127/235/59 128/236/59
f 125/237/60 128/238/60 121/239/60 124/240/60
f 129/241/61 130/242/61 131/243/61 132/244/61
f 133/245/62 134/246/62 135/247/62 136/248/62
f 135/249/63 134/250/63 131/251/63 130/252/63
f 137/253/64 138/254/64 139/255/64 140/256/64
f 140/257/65 139/258/65 141/259/65 142/260/65
f 143/261/66 144/262/66 138/263/66 137/264/66
f 138/265/67 144/266/67 141/267/67 139/268/67
f 118/269/68 141/270/68 145/271/68 146/272/68
f 146/273/69 145/274/69 147/275/69 148/276/69
f 148/277/70 147/278/70 144/279/70 120/280/70
f 144/281/71 147/282/71 145/283/71 141/284/71
f 148/285/72 120/286/72 118/287/72 146/288/72
f 124/289/73 131/290/73 149/291/73 150/292/73
f 150/293/74 149/294/74 151/295/74 152/296/74
f 152/297/75 151/298/75 134/299/75 125/300/75
f 134/301/76 151/302/76 149/303/76 131/304/76
f 152/305/77 125/306/77 124/307/77 150/308/77
f 153/309/78 154/310/78 155/311/78 156/312/78
f 156/313/79 155/314/79 130/315/79 121/316/79
f 128/317/80 135/318/80 154/319/80 153/320/80
f 154/321/81 135/322/81 130/323/81 155/324/81
f 128/325/82 153/326/82 156/327/82 121/328/82
f 157/329/83 158/330/83 159/331/83 160/332/83
f 160/333/84 159/334/84 139/335/84 116/336/84
f 113/337/85 138/338/85 158/339/85 157/340/85
f 158/341/86 138/342/86 139/343/86 159/344/86
f 113/345/87 157/346/87 160/347/87 116/348/87
f 161/349/88 162/350/88 163/351/88 164/352/88
f 164/353/89 163/354/89 165/355/89 166/356/89
f 166/357/90 165/358/90 167/359/90 168/360/90
f 168/361/91 167/362/91 162/363/91 161/364/91
f 162/365/92 167/366/92 165/367/92 163/368/92
f 168/369/93 161/370/93 164/371/93 166/372/93
f 169/373/94 170/374/94 171/375/94 172/376/94
f 172/377/95 171/378/95 173/379/95 174/380/95
f 174/381/96 173/382/96 175/383/96 176/384/96
f 176/385/97 175/386/97 170/387/97 169/388/97
f 170/389/98 175/390/98 173/391/98 171/392/98
f 176/393/99 169/394/99 172/395/99 174/396/99
f 177/397/100 178/398/100 179/399/100 180/400/100
f 180/401/101 179/402/101 181/403/101 182/404/101
f 182/405/102 181/406/102 183/407/102 184/408/102
f 184/409/103 183/410/103 178/411/103 177/412/103
f 178/413/104 183/414/104 181/415/104 179/416/104
f 184/417/105 177/418/105 180/419/105 182/420/105
f 185/421/106 186/422/106 187/423/106 188/424/106
f 188/425/107 187/426/107 189/427/107 190/428/107
f 190/429/108 189/430/108 191/431/108 192/432/108
f 192/433/109 191/434/109 186/435/109 185/436/109
f 186/437/110 191/438/110 189/439/110 187/440/110
f 192/441/111 185/442/111 188/443/111 190/444/111
f 193/445/112 194/446/112 195/447/112 196/448/112
f 196/449/113 195/450/113 197/451/113 198/452/113
f 198/453/114 197/454/114 199/455/114 200/456/114
f 200/457/115 199/458/115 194/459/115 193/460/115
f 194/461/116 199/462/116 197/463/116 195/464/116
f 200/465/117 193/466/117 196/467/117 198/468/117
f 201/469/118 202/470/118 203/471/118 204/472/118
f 204/473/119 203/474/119 205/475/119 206/476/119
f 206/477/120 205/478/120 207/479/120 208/480/120
f 208/481/121 207/482/121 202/483/121 201/484/121
f 202/485/122 207/486/122 205/487/122 203/488/122
f 208/489/123 201/490/123 204/491/123 206/492/123
f 209/493/124 210/494/124 211/495/124 212/496/124
f 212/497/125 211/498/125 213/499/125 214/500/125
f 214/501/126 213/502/126 215/503/126 216/504/126
f 216/505/127 215/506/127 210/507/127 209/508/127
f 210/509/128 215/510/128 213/511/128 211/512/128
f 216/513/129 209/514/129 212/515/129 214/516/129
f 217/517/130 218/518/130 219/519/130 220/520/130
f 221/521/131 222/522/131 223/523/131 224/524/131
f 223/525/132 222/526/132 219/527/132 218/528/132
f 221/529/133 224/530/133 217/531/133 220/532/133
f 225/533/134 226/534/134 227/535/134 228/536/134
f 228/537/135 227/538/135 229/539/135 230/540/135
f 230/541/136 229/542/136 231/543/136 232/544/136
f 232/545/137 231/546/137 226/547/137 225/548/137
f 226/549/138 231/550/138 229/551/138 227/552/138
f 232/553/139 225/554/139 228/555/139 230/556/139
f 233/557/140 234/558/140 235/559/140 236/560/140
f 237/561/141 233/562/141 236/563/141 238/564/141
f 238/565/142 236/566/142 235/567/142 239/568/142
f 240/569/143 237/570/143 238/571/143 239/572/143
f 240/573/144 234/574/144 233/575/144 237/576/144
f 241/577/145 242/578/145 243/579/145 244/580/145
f 245/581/146 246/582/146 247/583/146 248/584/146
f 247/585/147 246/586/147 243/587/147 242/588/147
f 245/589/148 248/590/148 241/591/148 244/592/148
f 249/593/149 250/594/149 251/595/149 252/596/149
f 253/597/150 249/598/150 252/599/150 254/600/150
f 254/601/151 255/602/151 256/603/151 253/604/151
f 253/605/152 256/606/152 250/607/152 249/608/152
f 250/609/153 256/610/153 255/611/153 251/612/153
f 252/613/154 251/614/154 255/615/154 254/616/154
f 257/617/155 258/618/155 259/619/155 260/620/155
f 260/621/156 259/622/156 261/623/156 262/624/156
f 262/625/157 261/626/157 263/627/157 264/628/157
f 263/629/158 261/630/158 259/631/158 258/632/158
f 265/633/159 266/634/159 267/635/159 268/636/159
f 268/637/160 267/638/160 269/639/160 270/640/160
f 270/641/161 269/642/161 271/643/161 272/644/161
f 271/645/162 269/646/162 267/647/162 266/648/162
f 273/649/163 274/650/163 275/651/163 276/652/163
f 276/653/164 275/654/164 277/655/164 278/656/164
f 279/657/165 280/658/165 274/659/165 273/660/165
f 274/661/166 280/662/166 277/663/166 275/664/166
f 281/665/167 273/666/167 276/667/167 282/668/167
f 282/669/168 276/670/168 278/671/168 283/672/168
f 284/673/169 279/674/169 273/675/169 281/676/169
f 285/677/170 281/678/170 282/679/170 286/680/170
f 286/681/171 282/682/171 283/683/171 287/684/171
f 288/685/172 284/686/172 281/687/172 285/688/172
f 289/689/173 290/690/173 291/691/173 292/692/173
f 292/693/174 291/694/174 293/695/174 294/696/174
f 294/697/175 293/698/175 295/699/175 296/700/175
f 296/701/176 295/702/176 290/703/176 289/704/176
f 290/705/177 295/706/177 293/707/177 291/708/177
f 297/709/178 289/710/178 292/711/178 298/712/178
f 298/713/179 292/714/179 294/715/179 299/716/179
f 299/717/180 294/718/180 296/719/180 300/720/180
f 300/721/181 296/722/181 289/723/181 297/724/181
f 301/725/182 297/726/182 298/727/182 302/728/182
f 302/729/183 298/730/183 299/731/183 303/732/183
f 303/733/184 299/734/184 300/735/184 304/736/184
f 304/737/185 300/738/185 297/739/185 301/740/185
f 305/741/186 306/742/186 307/743/186 308/744/186
f 308/745/187 307/746/187 309/747/187 310/748/187
f 310/749/188 309/750/188 311/751/188 312/752/188
f 311/753/189 309/754/189 307/755/189 306/756/189
f 310/757/190 312/758/190 305/759/190 308/760/190