# Made in Blockbench 5.0.4
mtllib steel_sheetmetal_tank.mtl

o cube
v 0 0 0
v 1 0 0
v 1 0 1
v 0 0 1
v -0.625 1.25 1.625
v -0.625 1.625 1.625
v -0.625 1.625 1.375
v -0.625 1.25 1.375
v -0.625 0 1.375
v -0.375 0 1.375
v -0.375 0 1.625
v -0.625 0 1.625
v 1.375 0 -0.625
v 1.625 0 -0.625
v 1.625 0 -0.375
v 1.375 0 -0.375
v -0.625 0 -0.625
v -0.375 0 -0.625
v -0.375 0 -0.375
v -0.625 0 -0.375
v 1.375 1 1.375
v 1.625 1 1.375
v 1.625 0 1.375
v 1.375 0 1.375
v 1.625 1 1.625
v 1.625 0 1.625
v 1.375 1 1.625
v 1.375 0 1.625
v 1.625 1.25 1.375
v 1.625 1.25 1.625
v -0.375 1.25 -0.375
v -0.625 1.25 -0.375
v -0.625 1 -0.375
v -0.375 1 -0.375
v -0.625 1.25 -0.625
v -0.625 1 -0.625
v 1.375 1.25 1.375
v 1.375 1.25 1.625
v 1.375 1 -0.375
v 1.375 1.25 -0.375
v 1.375 1.25 -0.625
v 1.375 1 -0.625
v 1.625 1.25 -0.375
v 1.625 1 -0.375
v 0 5 0
v -1 4 -1
v -1 4 2
v 0 5 1
v 1 5 0
v 2 4 -1
v 1 5 1
v 2 4 2
v -0.625 1 1.625
v -0.375 1 1.625
v -0.375 1 1.375
v 1.625 1 -0.625
v 1.625 1.625 1.625
v 1.375 1.625 1.625
v 1.375 1.375 1.375
v 1.5625 1.0625 -0.375
v 1.5625 1.0625 1.375
v 1.4375 1.0625 1.375
v 1.4375 1.0625 -0.375
v 2 2 -1
v -1 2 -1
v 0 1 1
v 1 1 1
v -1 2 2
v -0.625 1.625 -0.375
v -0.625 1.625 -0.625
v 1.375 1.625 -0.625
v 1.625 1.625 -0.625
v 1.625 1.25 -0.625
v -0.375 1.25 -0.625
v -0.375 1 -0.625
v -0.4375 1.1875 1.375
v -0.4375 1.1875 -0.375
v -0.5625 1.1875 -0.375
v -0.5625 1.1875 1.375
v -0.5625 1.0625 -0.375
v -0.5625 1.0625 1.375
v 1.375 1.1875 1.4375
v -0.375 1.1875 1.4375
v -0.375 1.1875 1.5625
v 1.375 1.1875 1.5625
v 1.4375 1.1875 1.375
v 1.4375 1.1875 -0.375
v -0.4375 1.0625 -0.375
v -0.4375 1.0625 1.375
v 1 1 0
v 0 1 0
v 1.375 1.1875 -0.5625
v -0.375 1.1875 -0.5625
v -0.375 1.1875 -0.4375
v 1.375 1.1875 -0.4375
v -0.375 1.25 1.625
v -0.375 1.375 -0.375
v -0.625 1 1.375
v 1.5625 1.1875 1.375
v 1.5625 1.1875 -0.375
v 1.375 1.375 -0.375
v -0.375 1.0625 1.5625
v 1.375 1.0625 1.5625
v -0.375 1.25 1.375
v -0.375 1.625 1.625
v -0.375 1.625 -0.625
v 1.625 1.625 -0.375
v 1.375 1.0625 -0.4375
v -0.375 1.0625 -0.4375
v -0.375 1.0625 -0.5625
v 1.375 1.0625 -0.5625
v 1.375 1.0625 1.4375
v -0.375 1.0625 1.4375
v -0.375 1.375 1.375
v 2 2 2
v 1.625 1.625 1.375
vt 0.75 0.75
vt 1 0.75
vt 1 1
vt 0.75 1
vt 0.84375 0.5625009375000001
vt 0.84375 0.6562490624999999
vt 0.78125 0.6562490624999999
vt 0.78125 0.5625009375000001
vt 0.84375 0.18750093749999996
vt 0.84375 0.25000093749999996
vt 0.78125 0.25000093749999996
vt 0.78125 0.18750093749999996
vt 0.78125 0.18750093749999996
vt 0.84375 0.18750093749999996
vt 0.84375 0.25000093749999996
vt 0.78125 0.25000093749999996
vt 0.78125 0.25000093749999996
vt 0.78125 0.18750093749999996
vt 0.84375 0.18750093749999996
vt 0.84375 0.25000093749999996
vt 0.84375 0.5000009375000001
vt 0.78125 0.5000009375000001
vt 0.78125 0.25000093749999996
vt 0.84375 0.25000093749999996
vt 0.78125 0.5000009375000001
vt 0.78125 0.25000093749999996
vt 0.84375 0.25000093749999996
vt 0.84375 0.5000009375000001
vt 0.78125 0.5000009375000001
vt 0.78125 0.25000093749999996
vt 0.84375 0.25000093749999996
vt 0.84375 0.5000009375000001
vt 0.84375 0.5625009375000001
vt 0.78125 0.5625009375000001
vt 0.78125 0.5000009375000001
vt 0.84375 0.5000009375000001
vt 0.84375 0.5625009375000001
vt 0.78125 0.5625009375000001
vt 0.78125 0.5000009375000001
vt 0.84375 0.5000009375000001
vt 0.84375 0.5000009375000001
vt 0.84375 0.5625009375000001
vt 0.78125 0.5625009375000001
vt 0.78125 0.5000009375000001
vt 0.84375 0.5625009375000001
vt 0.78125 0.5625009375000001
vt 0.78125 0.5000009375000001
vt 0.84375 0.5000009375000001
vt 0.84375 0.5000009375000001
vt 0.84375 0.5625009375000001
vt 0.78125 0.5625009375000001
vt 0.78125 0.5000009375000001
vt 0.84375 0.5000009375000001
vt 0.84375 0.5625009375000001
vt 0.78125 0.5625009375000001
vt 0.78125 0.5000009375000001
vt 0.84375 0.5625009375000001
vt 0.78125 0.5625009375000001
vt 0.78125 0.5000009375000001
vt 0.84375 0.5000009375000001
vt 0.25 1
vt 0 0.7343759375000001
vt 0.75 0.7343759375000001
vt 0.5 1
vt 0.25 1
vt 0 0.7343759375000001
vt 0.75 0.7343759375000001
vt 0.5 1
vt 0.25 1
vt 0 0.7343759375000001
vt 0.75 0.7343759375000001
vt 0.5 1
vt 0.78125 0.5000009375000001
vt 0.78125 0.25000093749999996
vt 0.84375 0.25000093749999996
vt 0.84375 0.5000009375000001
vt 0.84375 0.5000009375000001
vt 0.78125 0.5000009375000001
vt 0.78125 0.25000093749999996
vt 0.84375 0.25000093749999996
vt 0.78125 0.5000009375000001
vt 0.78125 0.25000093749999996
vt 0.84375 0.25000093749999996
vt 0.84375 0.5000009375000001
vt 0.84375 0.5625009375000001
vt 0.84375 0.6562490624999999
vt 0.78125 0.6562490624999999
vt 0.78125 0.5625009375000001
vt 0.84375 0.25000093749999996
vt 0.84375 0.5000009375000001
vt 0.78125 0.5000009375000001
vt 0.78125 0.25000093749999996
vt 0.78125 0.5937490624999999
vt 0.78125 0.5625009375000001
vt 0.84375 0.5625009375000001
vt 0.84375 0.6562490624999999
vt 0.78125 0.31250093749999996
vt 0.78125 0.7500009375
vt 0.75 0.7500009375
vt 0.75 0.31250093749999996
vt 0.75 0.23437593749999996
vt 0.75 0.7343759375000001
vt 0 0.7343759375000001
vt 0 0.23437593749999996
vt 0.84375 0.5625009375000001
vt 0.78125 0.5625009375000001
vt 0.78125 0.5000009375000001
vt 0.84375 0.5000009375000001
vt 0.75 1
vt 0.75 0.75
vt 1 0.75
vt 1 1
vt 0.25 1
vt 0 0.7343759375000001
vt 0.75 0.7343759375000001
vt 0.5 1
vt 0.75 0.7343759375000001
vt 0 0.7343759375000001
vt 0 0.23437593749999996
vt 0.75 0.23437593749999996
vt 0.78125 0.6562490624999999
vt 0.78125 0.5625009375000001
vt 0.84375 0.5625009375000001
vt 0.84375 0.6562490624999999
vt 0.84375 0.5625009375000001
vt 0.84375 0.6562490624999999
vt 0.78125 0.6562490624999999
vt 0.78125 0.5625009375000001
vt 0.84375 0.5625009375000001
vt 0.78125 0.5625009375000001
vt 0.78125 0.5000009375000001
vt 0.84375 0.5000009375000001
vt 0.75 0.7500009375
vt 0.75 0.31250093749999996
vt 0.78125 0.31250093749999996
vt 0.78125 0.7500009375
vt 0.75 0.7500009375
vt 0.75 0.31250093749999996
vt 0.78125 0.31250093749999996
vt 0.78125 0.7500009375
vt 0.78125 0.31250093749999996
vt 0.78125 0.7500009375
vt 0.75 0.7500009375
vt 0.75 0.31250093749999996
vt 0.78125 0.31250093749999996
vt 0.78125 0.7500009375
vt 0.75 0.7500009375
vt 0.75 0.31250093749999996
vt 0.75 0.7500009375
vt 0.75 0.31250093749999996
vt 0.78125 0.31250093749999996
vt 0.78125 0.7500009375
vt 0.75 1
vt 0.75 0.75
vt 1 0.75
vt 1 1
vt 0.75 0.75
vt 1 0.75
vt 1 1
vt 0.75 1
vt 0.78125 0.31250093749999996
vt 0.78125 0.7500009375
vt 0.75 0.7500009375
vt 0.75 0.31250093749999996
vt 0.84375 0.5000009375000001
vt 0.78125 0.5000009375000001
vt 0.78125 0.25000093749999996
vt 0.84375 0.25000093749999996
vt 0.84375 0.25000093749999996
vt 0.84375 0.5000009375000001
vt 0.78125 0.5000009375000001
vt 0.78125 0.25000093749999996
vt 0.84375 0.5625009375000001
vt 0.78125 0.5625009375000001
vt 0.78125 0.5000009375000001
vt 0.84375 0.5000009375000001
vt 0.78125 0.5625009375000001
vt 0.78125 0.5937490624999999
vt 0.84375 0.6562490624999999
vt 0.84375 0.5625009375000001
vt 0.84375 0.25000093749999996
vt 0.84375 0.5000009375000001
vt 0.78125 0.5000009375000001
vt 0.78125 0.25000093749999996
vt 0.84375 0.5000009375000001
vt 0.78125 0.5000009375000001
vt 0.78125 0.25000093749999996
vt 0.84375 0.25000093749999996
vt 0.84375 0.5000009375000001
vt 0.78125 0.5000009375000001
vt 0.78125 0.25000093749999996
vt 0.84375 0.25000093749999996
vt 0.78125 0.31250093749999996
vt 0.78125 0.7500009375
vt 0.75 0.7500009375
vt 0.75 0.31250093749999996
vt 0.78125 0.5625009375000001
vt 0.78125 0.5937490624999999
vt 0.84375 0.6562490624999999
vt 0.84375 0.5625009375000001
vt 0.84375 0.5625009375000001
vt 0.78125 0.5625009375000001
vt 0.78125 0.5000009375000001
vt 0.84375 0.5000009375000001
vt 0.84375 0.25000093749999996
vt 0.84375 0.5000009375000001
vt 0.78125 0.5000009375000001
vt 0.78125 0.25000093749999996
vt 0.84375 0.5625009375000001
vt 0.78125 0.5625009375000001
vt 0.78125 0.5000009375000001
vt 0.84375 0.5000009375000001
vt 0.84375 0.25000093749999996
vt 0.84375 0.5000009375000001
vt 0.78125 0.5000009375000001
vt 0.78125 0.25000093749999996
vt 0.78125 0.31250093749999996
vt 0.78125 0.7500009375
vt 0.75 0.7500009375
vt 0.75 0.31250093749999996
vt 0.84375 0.5625009375000001
vt 0.78125 0.5625009375000001
vt 0.78125 0.5000009375000001
vt 0.84375 0.5000009375000001
vt 0.84375 0.5000009375000001
vt 0.84375 0.5625009375000001
vt 0.78125 0.5625009375000001
vt 0.78125 0.5000009375000001
vt 0.84375 0.25000093749999996
vt 0.84375 0.5000009375000001
vt 0.78125 0.5000009375000001
vt 0.78125 0.25000093749999996
vt 0.84375 0.25000093749999996
vt 0.84375 0.5000009375000001
vt 0.78125 0.5000009375000001
vt 0.78125 0.25000093749999996
vt 0.78125 0.31250093749999996
vt 0.78125 0.7500009375
vt 0.75 0.7500009375
vt 0.75 0.31250093749999996
vt 0.78125 0.18750093749999996
vt 0.84375 0.18750093749999996
vt 0.84375 0.25000093749999996
vt 0.78125 0.25000093749999996
vt 0.84375 0.5625009375000001
vt 0.78125 0.5625009375000001
vt 0.78125 0.5000009375000001
vt 0.84375 0.5000009375000001
vt 0.84375 0.5625009375000001
vt 0.78125 0.5625009375000001
vt 0.78125 0.5000009375000001
vt 0.84375 0.5000009375000001
vt 0.84375 0.5625009375000001
vt 0.84375 0.6562490624999999
vt 0.78125 0.6562490624999999
vt 0.78125 0.5625009375000001
vt 0.78125 0.5937490624999999
vt 0.78125 0.5625009375000001
vt 0.84375 0.5625009375000001
vt 0.84375 0.6562490624999999
vt 0.78125 0.5937490624999999
vt 0.78125 0.5625009375000001
vt 0.84375 0.5625009375000001
vt 0.84375 0.6562490624999999
vt 0.84375 0.5625009375000001
vt 0.84375 0.6562490624999999
vt 0.78125 0.6562490624999999
vt 0.78125 0.5625009375000001
vt 0.78125 0.31250093749999996
vt 0.78125 0.7500009375
vt 0.75 0.7500009375
vt 0.75 0.31250093749999996
vt 0.75 1
vt 0.75 0.75
vt 1 0.75
vt 1 1
vt 0.78125 0.31250093749999996
vt 0.78125 0.7500009375
vt 0.75 0.7500009375
vt 0.75 0.31250093749999996
vt 0.78125 0.31250093749999996
vt 0.78125 0.7500009375
vt 0.75 0.7500009375
vt 0.75 0.31250093749999996
vt 0.75 0.7500009375
vt 0.75 0.31250093749999996
vt 0.78125 0.31250093749999996
vt 0.78125 0.7500009375
vt 0.78125 0.31250093749999996
vt 0.78125 0.7500009375
vt 0.75 0.7500009375
vt 0.75 0.31250093749999996
vt 0.78125 0.31250093749999996
vt 0.78125 0.7500009375
vt 0.75 0.7500009375
vt 0.75 0.31250093749999996
vt 0.75 1
vt 0.75 0.75
vt 1 0.75
vt 1 1
vt 0.84375 0.5625009375000001
vt 0.84375 0.6562490624999999
vt 0.78125 0.6562490624999999
vt 0.78125 0.5625009375000001
vt 0.78125 0.5625009375000001
vt 0.78125 0.6562490624999999
vt 0.84375 0.6562490624999999
vt 0.84375 0.5625009375000001
vt 0 0.7343759375000001
vt 0 0.23437593749999996
vt 0.75 0.23437593749999996
vt 0.75 0.7343759375000001
vt 0.78125 0.5625009375000001
vt 0.78125 0.5937490624999999
vt 0.84375 0.6562490624999999
vt 0.84375 0.5625009375000001
vt 0.84375 0.5625009375000001
vt 0.84375 0.6562490624999999
vt 0.78125 0.6562490624999999
vt 0.78125 0.5625009375000001
vt 0.78125 0.5625009375000001
vt 0.78125 0.5937490624999999
vt 0.84375 0.6562490624999999
vt 0.84375 0.5625009375000001
vt 0 0.7343759375000001
vt 0 0.23437593749999996
vt 0.75 0.23437593749999996
vt 0.75 0.7343759375000001
vt 0.59375 0.90625
vt 0.15625 0.90625
vt 0.15625 0.84375
vt 0.59375 0.84375
vt 0.15625 0.90625
vt 0.59375 0.90625
vt 0.5 1
vt 0.25 1
vt 0.59375 0.90625
vt 0.15625 0.90625
vt 0.15625 0.84375
vt 0.59375 0.84375
vt 0.15625 0.90625
vt 0.59375 0.90625
vt 0.5 1
vt 0.25 1
vt 0.59375 0.90625
vt 0.15625 0.90625
vt 0.15625 0.84375
vt 0.59375 0.84375
vt 0.15625 0.90625
vt 0.59375 0.90625
vt 0.5 1
vt 0.25 1
vt 0.15625 0.90625
vt 0.15625 0.84375
vt 0.59375 0.84375
vt 0.59375 0.90625
vt 0.25 1
vt 0.15625 0.90625
vt 0.59375 0.90625
vt 0.5 1
vt 0.65625 0.84375
vt 0.09375 0.84375
vt 0 0.7343740624999999
vt 0.75 0.7343740624999999
vt 0.65625 0.84375
vt 0.09375 0.84375
vt 0 0.7343740624999999
vt 0.75 0.7343740624999999
vt 0.09375 0.84375
vt 0 0.7343740624999999
vt 0.75 0.7343740624999999
vt 0.65625 0.84375
vt 0 0.7343740624999999
vt 0.75 0.7343740624999999
vt 0.65625 0.84375
vt 0.09375 0.84375
vn 0 -1 0
vn -1 0 0
vn 0 -1 0
vn 0 -1 0
vn 0 -1 0
vn 0 0 -1
vn 1 0 0
vn 0 0 1
vn 1 0 0
vn 0 0 1
vn -1 0 0
vn 0 0 -1
vn -1 0 0
vn -1 0 0
vn 0 0 1
vn -0.7071067811865476 0.7071067811865476 0
vn 0 0.7071067811865476 -0.7071067811865476
vn 0.7071067811865476 0.7071067811865476 0
vn 0 0 1
vn 1 0 0
vn 1 0 0
vn 0 0 1
vn -1 0 0
vn -1 0 0
vn 0 -1 0
vn 0 0 -1
vn 0 0 1
vn 0 0 1
vn 0 0.7071067811865476 0.7071067811865476
vn -1 0 0
vn -1 0 0
vn 0 0 -1
vn 0 0 -1
vn 0 1 0
vn -1 0 0
vn 0 1 0
vn -1 0 0
vn 0 -1 0
vn 0 0 -1
vn -1 0 0
vn 0 1 0
vn 0 0 -1
vn -1 0 0
vn 0 0 1
vn 0 0 1
vn -1 0 0
vn 0 0 -1
vn 1 0 0
vn 0 1 0
vn -1 0 0
vn 1 0 0
vn -1 0 0
vn 0 0 -1
vn 0 0 -1
vn 0 0 1
vn 1 0 0
vn -1 0 0
vn 0 0 1
vn 0 0 1
vn 1 0 0
vn 0 -1 0
vn 0 0 -1
vn 1 0 0
vn 0 0 1
vn 1 0 0
vn 0 0 1
vn 0 0 -1
vn 0 -1 0
vn 0 1 0
vn 0 0 -1
vn 0 -1 0
vn 1 0 0
vn 0 0 1
vn 0 0 -1
vn 1 0 0
vn 1 0 0
vn 0 0 -1
vn 0 0 1
vn 0 0 -1
vn 1 0 0
vn 1 0 0
vn 1 0 0
vn -0.7071067811865476 -0.7071067811865476 0
vn 0 -0.7071067811865476 0.7071067811865476
vn 0 -0.7071067811865476 0.7071067811865476
vn -0.7071067811865476 -0.7071067811865476 0
vn 0 -0.7071067811865476 -0.7071067811865476
vn 0.7071067811865476 -0.7071067811865476 0
vn 0.7071067811865476 -0.7071067811865476 0
vn 0 -0.7071067811865476 -0.7071067811865476
vn -0.7071067811865476 -0.7071067811865476 0
vn 0 -0.7071067811865476 -0.7071067811865476
vn 0 -0.7071067811865476 0.7071067811865476
vn 0.7071067811865476 -0.7071067811865476 0
usemtl m_72ef355c-32cc-bc9b-0ea7-a5d48b98ec81
f 1/1/1 2/2/1 3/3/1 4/4/1
f 5/5/2 6/6/2 7/7/2 8/8/2
f 9/9/3 10/10/3 11/11/3 12/12/3
f 13/13/4 14/14/4 15/15/4 16/16/4
f 17/17/5 18/18/5 19/19/5 20/20/5
f 21/21/6 22/22/6 23/23/6 24/24/6
f 25/25/7 26/26/7 23/27/7 22/28/7
f 27/29/8 28/30/8 26/31/8 25/32/8
f 29/33/9 30/34/9 25/35/9 22/36/9
f 31/37/10 32/38/10 33/39/10 34/40/10
f 33/41/11 32/42/11 35/43/11 36/44/11
f 37/45/12 29/46/12 22/47/12 21/48/12
f 27/49/13 38/50/13 37/51/13 21/52/13
f 39/53/14 40/54/14 41/55/14 42/56/14
f 43/57/15 40/58/15 39/59/15 44/60/15
f 45/61/16 46/62/16 47/63/16 48/64/16
f 49/65/17 50/66/17 46/67/17 45/68/17
f 51/69/18 52/70/18 50/71/18 49/72/18
f 53/73/19 12/74/19 11/75/19 54/76/19
f 55/77/20 54/78/20 11/79/20 10/80/20
f 44/81/21 15/82/21 14/83/21 56/84/21
f 30/85/22 57/86/22 58/87/22 38/88/22
f 28/89/23 27/90/23 21/91/23 24/92/23
f 59/93/24 37/94/24 38/95/24 58/96/24
f 60/97/25 61/98/25 62/99/25 63/100/25
f 50/101/26 64/102/26 65/103/26 46/104/26
f 30/105/27 38/106/27 27/107/27 25/108/27
f 66/109/28 4/110/28 3/111/28 67/112/28
f 48/113/29 47/114/29 52/115/29 51/116/29
f 65/117/30 68/118/30 47/119/30 46/120/30
f 32/121/31 69/122/31 70/123/31 35/124/31
f 41/125/32 71/126/32 72/127/32 73/128/32
f 35/129/33 74/130/33 75/131/33 36/132/33
f 76/133/34 77/134/34 78/135/34 79/136/34
f 79/137/35 78/138/35 80/139/35 81/140/35
f 82/141/36 83/142/36 84/143/36 85/144/36
f 63/145/37 62/146/37 86/147/37 87/148/37
f 81/149/38 80/150/38 88/151/38 89/152/38
f 90/153/39 2/154/39 1/155/39 91/156/39
f 91/157/40 1/158/40 4/159/40 66/160/40
f 92/161/41 93/162/41 94/163/41 95/164/41
f 42/165/42 56/166/42 14/167/42 13/168/42
f 20/169/43 33/170/43 36/171/43 17/172/43
f 96/173/44 5/174/44 53/175/44 54/176/44
f 31/177/45 97/178/45 69/179/45 32/180/45
f 12/181/46 53/182/46 98/183/46 9/184/46
f 36/185/47 75/186/47 18/187/47 17/188/47
f 75/189/48 34/190/48 19/191/48 18/192/48
f 87/193/49 86/194/49 99/195/49 100/196/49
f 40/197/50 101/198/50 71/199/50 41/200/50
f 74/201/51 31/202/51 34/203/51 75/204/51
f 16/205/52 39/206/52 42/207/52 13/208/52
f 41/209/53 73/210/53 56/211/53 42/212/53
f 9/213/54 98/214/54 55/215/54 10/216/54
f 85/217/55 84/218/55 102/219/55 103/220/55
f 73/221/56 43/222/56 44/223/56 56/224/56
f 53/225/57 5/226/57 8/227/57 98/228/57
f 19/229/58 34/230/58 33/231/58 20/232/58
f 15/233/59 44/234/59 39/235/59 16/236/59
f 100/237/60 99/238/60 61/239/60 60/240/60
f 24/241/61 23/242/61 26/243/61 28/244/61
f 8/245/62 104/246/62 55/247/62 98/248/62
f 104/249/63 96/250/63 54/251/63 55/252/63
f 96/253/64 105/254/64 6/255/64 5/256/64
f 97/257/65 31/258/65 74/259/65 106/260/65
f 101/261/66 40/262/66 43/263/66 107/264/66
f 35/265/67 70/266/67 106/267/67 74/268/67
f 108/269/68 109/270/68 110/271/68 111/272/68
f 48/273/69 51/274/69 49/275/69 45/276/69
f 112/277/70 113/278/70 83/279/70 82/280/70
f 103/281/71 102/282/71 113/283/71 112/284/71
f 89/285/72 88/286/72 77/287/72 76/288/72
f 95/289/73 94/290/73 109/291/73 108/292/73
f 111/293/74 110/294/74 93/295/74 92/296/74
f 67/297/75 3/298/75 2/299/75 90/300/75
f 73/301/76 72/302/76 107/303/76 43/304/76
f 114/305/77 104/306/77 8/307/77 7/308/77
f 47/309/78 68/310/78 115/311/78 52/312/78
f 37/313/79 59/314/79 116/315/79 29/316/79
f 29/317/80 116/318/80 57/319/80 30/320/80
f 104/321/81 114/322/81 105/323/81 96/324/81
f 52/325/82 115/326/82 64/327/82 50/328/82
f 97/329/83 114/330/83 7/331/83 69/332/83
f 59/333/84 114/334/84 66/335/84 67/336/84
f 114/337/85 59/338/85 58/339/85 105/340/85
f 114/341/86 97/342/86 91/343/86 66/344/86
f 101/345/87 97/346/87 106/347/87 71/348/87
f 101/349/88 59/350/88 67/351/88 90/352/88
f 101/353/89 107/354/89 116/355/89 59/356/89
f 91/357/90 97/358/90 101/359/90 90/360/90
f 70/361/91 6/362/91 68/363/91 65/364/91
f 72/365/92 70/366/92 65/367/92 64/368/92
f 57/369/93 115/370/93 68/371/93 6/372/93
f 64/373/94 115/374/94 57/375/94 72/376/94