# Made in Blockbench 4.12.6
mtllib solar_tower.mtl

o solar_tower
v 2.25 1 2.25
v 2.75 1 2.25
v 2.75 2 2.25
v 2.25 2 2.25
v 2.75 1 2.75
v 2.75 2 2.75
v 2.25 1 2.75
v 2.25 2 2.75
v 2.25 1 0.25
v 2.75 1 0.25
v 2.75 2 0.25
v 2.25 2 0.25
v 2.75 1 0.75
v 2.75 2 0.75
v 2.25 1 0.75
v 2.25 2 0.75
v 0.25 1 2.25
v 0.75 1 2.25
v 0.75 2 2.25
v 0.25 2 2.25
v 0.75 1 2.75
v 0.75 2 2.75
v 0.25 1 2.75
v 0.25 2 2.75
v 0.25 1 0.25
v 0.75 1 0.25
v 0.75 2 0.25
v 0.25 2 0.25
v 0.75 1 0.75
v 0.75 2 0.75
v 0.25 1 0.75
v 0.25 2 0.75
v 2.3125 6 2.3125
v 2.6875 6 2.3125
v 2.6875 10 2.3125
v 2.3125 10 2.3125
v 2.6875 6 2.6875
v 2.6875 10 2.6875
v 2.3125 6 2.6875
v 2.3125 10 2.6875
v 2.62499875 2.280908125 0.44333625
v 2.625 2.22119125 0.682205
v 2.625 5.71908875 1.556665
v 2.625 5.778805 1.317795
v 2.375 9.778805 2.31779375
v 2.375 9.71909 2.5566649999999997
v 2.375 6.22119125 1.6822062500000001
v 2.375 6.280908125 1.44333625
v 2.625 9.778806249999999 2.317795
v 2.625 6.280908125 1.44333625
v 2.37499875 2.280906875 0.44333625
v 2.375 5.778805 1.317795
v 2.37499875 2.221191875 0.6822062499999999
v 2.375 5.71908875 1.556665
v 2.3125 6.49999875 1.25
v 2.6875 6.49999875 1.25
v 2.6875 6.5 1.75
v 2.3125 6.49999875 1.75
v 2.3125 5.49999875 1.75
v 2.6875 5.49999875 1.75
v 2.6875 5.49999875 1.25
v 2.3125 5.49999875 1.25
v 2.62499875 2.221191875 2.31779375
v 2.625 2.280906875 2.5566649999999997
v 2.625 5.778805 1.6822062500000001
v 2.625 5.719088125 1.44333625
v 2.375 2.22119125 2.31779375
v 2.375 5.71908875 1.44333625
v 2.375 2.280908125 2.5566649999999997
v 2.375 5.778805 1.6822062500000001
v 2.62499875 9.719088750000001 2.5566637500000002
v 2.625 6.22119125 1.6822062500000001
v 2.62499875 9.778805 0.6822062499999999
v 2.625 9.71909 0.44333625
v 2.625 6.22119125 1.3177937499999999
v 2.625 6.280908125 1.55666375
v 2.37499875 9.778806249999999 0.6822062499999999
v 2.375 6.280908125 1.556665
v 2.37499875 9.719088750000001 0.44333625
v 2.375 6.22119125 1.3177937499999999
v 0.62499875 2.280908125 0.44333625
v 0.625 2.22119125 0.6822062499999999
v 0.625 5.71908875 1.556665
v 0.625 5.778805 1.3177937499999999
v 0.375 2.280906875 0.44333625
v 0.375 5.778805 1.3177937499999999
v 0.6875 5.49999875 1.75
v 0.3125 5.49999875 1.75
v 0.3125 6.49999875 1.75
v 0.6875 6.5 1.75
v 0.375 9.71909 2.5566649999999997
v 0.62499875 9.719088750000001 2.5566637500000002
v 0.625 6.22119125 1.6822062500000001
v 0.375 6.22119125 1.6822062500000001
v 0.62499875 9.778805 0.6822062499999999
v 0.625 9.71909 0.44333625
v 0.625 6.22119125 1.3177937499999999
v 0.625 6.280908125 1.556665
v 0.375 2.221191875 0.6822062499999999
v 0.375 5.71908875 1.556665
v 0.375 9.778805 2.31779375
v 0.375 6.280908125 1.44333625
v 0.375 9.778806249999999 0.6822062499999999
v 0.375 6.280908125 1.556665
v 0.62499875 2.221191875 2.31779375
v 0.625 2.280906875 2.5566649999999997
v 0.625 5.778805 1.6822062500000001
v 0.625 5.719088125 1.44333625
v 0.375 9.719088750000001 0.44333625
v 0.375 6.22119125 1.3177937499999999
v 0.625 9.778806249999999 2.317795
v 0.625 6.280908125 1.44333625
v 0.375 2.22119125 2.31779375
v 0.375 5.71908875 1.44333625
v 0.375 2.280908125 2.5566649999999997
v 0.375 5.778805 1.6822062500000001
v 0.3125 6.49999875 1.25
v 0.6875 6.49999875 1.25
v 0.6875 5.49999875 1.25
v 0.3125 5.49999875 1.25
v 2.5566637500000002 9.71909 0.625
v 2.5566637500000002 9.719088750000001 0.375
v 1.682205 6.22119125 0.375
v 1.682205 6.22119125 0.625
v 2.31779375 9.778806249999999 0.375
v 1.443335 6.280908125 0.375
v 2.31779375 9.778805 0.62499875
v 1.443335 6.280908125 0.625
v 1.25 5.49999875 0.6875
v 1.25 5.49999875 0.3125
v 1.25 6.49999875 0.3125
v 1.25 6.5 0.6875
v 1.75 5.49999875 0.3125
v 1.75 6.49999875 0.3125
v 1.75 5.49999875 0.6875
v 1.75 6.49999875 0.6875
v 2.3125 2 2.3125
v 2.6875 2 2.3125
v 2.6875 2 2.6875
v 2.3125 2 2.6875
v 0.3125 6 2.3125
v 0.6875 6 2.3125
v 0.6875 10 2.3125
v 0.3125 10 2.3125
v 0.6875 6 2.6875
v 0.6875 10 2.6875
v 0.3125 6 2.6875
v 0.3125 10 2.6875
v 0.3125 2 2.3125
v 0.6875 2 2.3125
v 0.6875 2 2.6875
v 0.3125 2 2.6875
v 2.3125 6 0.3125
v 2.6875 6 0.3125
v 2.6875 10 0.3125
v 2.3125 10 0.3125
v 2.6875 6 0.6875
v 2.6875 10 0.6875
v 2.3125 6 0.6875
v 2.3125 10 0.6875
v 2.3125 2 0.3125
v 2.6875 2 0.3125
v 2.6875 2 0.6875
v 2.3125 2 0.6875
v 0.3125 6 0.3125
v 0.6875 6 0.3125
v 0.6875 10 0.3125
v 0.3125 10 0.3125
v 0.6875 6 0.6875
v 0.6875 10 0.6875
v 0.3125 6 0.6875
v 0.3125 10 0.6875
v 0.3125 2 0.3125
v 0.6875 2 0.3125
v 0.6875 2 0.6875
v 0.3125 2 0.6875
v 0.682205 9.778806249999999 0.625
v 0.682205 9.778805 0.375
v 1.55666375 6.280908125 0.375
v 1.55666375 6.280908125 0.625
v 0.44333500000000003 9.71909 0.375
v 1.3177931250000001 6.22119125 0.375
v 0.44333500000000003 9.719088750000001 0.62499875
v 1.3177931250000001 6.22119125 0.625
v 0.44333500000000003 2.280906875 0.625
v 0.44333500000000003 2.280908125 0.375
v 1.3177931250000001 5.778805 0.375
v 1.3177931250000001 5.778805 0.625
v 0.682205 2.22119 0.375
v 1.55666375 5.71908875 0.375
v 0.682205 2.22119125 0.62499875
v 1.556663125 5.719088125 0.625
v 2.31779375 2.22119 0.625
v 2.3177931249999997 2.22119125 0.375
v 1.443335 5.71908875 0.375
v 1.443335 5.71908875 0.625
v 2.5566637500000002 2.280906875 0.375
v 1.682205 5.778805 0.375
v 2.5566637500000002 2.280908125 0.62499875
v 1.682205 5.778805 0.625
v 2.5566637500000002 9.71909 2.625
v 2.5566637500000002 9.719088750000001 2.375
v 1.682205 6.22119125 2.375
v 1.682205 6.22119125 2.625
v 2.31779375 9.778806249999999 2.375
v 1.443335 6.280908125 2.375
v 2.31779375 9.778805 2.62499875
v 1.443335 6.280908125 2.625
v 1.25 5.49999875 2.6875
v 1.25 5.49999875 2.3125
v 1.25 6.49999875 2.3125
v 1.25 6.5 2.6875
v 1.75 5.49999875 2.3125
v 1.75 6.49999875 2.3125
v 1.75 5.49999875 2.6875
v 1.75 6.49999875 2.6875
v 0.682205 9.778806249999999 2.625
v 0.682205 9.778805 2.37499875
v 1.55666375 6.280908125 2.375
v 1.55666375 6.280908125 2.625
v 0.44333500000000003 9.71909 2.37499875
v 1.3177931250000001 6.22119125 2.375
v 0.44333500000000003 9.719088750000001 2.62499875
v 1.3177931250000001 6.22119125 2.625
v 0.44333500000000003 2.280906875 2.625
v 0.44333500000000003 2.280908125 2.37499875
v 1.3177931250000001 5.778805 2.375
v 1.3177931250000001 5.778805 2.625
v 0.682205 2.22119 2.37499875
v 1.556663125 5.71908875 2.375
v 0.682205 2.22119125 2.62499875
v 1.556663125 5.719088125 2.625
v 2.31779375 2.22119 2.625
v 2.3177931249999997 2.22119125 2.375
v 1.443335 5.71908875 2.375
v 1.443335 5.71908875 2.625
v 2.5566637500000002 2.280906875 2.375
v 1.682205 5.778805 2.375
v 2.5566637500000002 2.280908125 2.62499875
v 1.682205 5.778805 2.625
v 0.5 1 0.5
v 2.5 1 0.5
v 2.5 1.5 0.5
v 0.5 1.5 0.5
v 2.5 1 2.5
v 2.5 1.5 2.5
v 0.5 1 2.5
v 0.5 1.5 2.5
v 1 1 0
v 2 1 0
v 2 2 0
v 1 2 0
v 2 1 1
v 2 2 1
v 1 1 1
v 1 2 1
v 1.75 6 1.25
v 2.25 6 1.25
v 2.25 10 1.25
v 1.75 10 1.25
v 2.25 6 1.75
v 2.25 10 1.75
v 1.75 6 1.75
v 1.75 10 1.75
v 1 1 2
v 2 1 2
v 2 2 2
v 1 2 2
v 2 1 3
v 2 2 3
v 1 1 3
v 1 2 3
v 1.75 2 1.25
v 2.25 2 1.25
v 2.25 2 1.75
v 1.75 2 1.75
v 1.75 1.5 1.25
v 2.25 1.5 1.25
v 2.25 1.5 1.75
v 1.75 1.5 1.75
v 0.75 6 1.25
v 1.25 6 1.25
v 1.25 10 1.25
v 0.75 10 1.25
v 1.25 6 1.75
v 1.25 10 1.75
v 0.75 6 1.75
v 0.75 10 1.75
v 0.75 2 1.25
v 1.25 2 1.25
v 1.25 2 1.75
v 0.75 2 1.75
v 0.75 1.5 1.25
v 1.25 1.5 1.25
v 1.25 1.5 1.75
v 0.75 1.5 1.75
v 0 0 0
v 3 0 0
v 3 1 0
v 0 1 0
v 3 0 3
v 3 1 3
v 0 0 3
v 0 1 3
v 3 18.5 1.99999875
v 1.99999875 18.5 2.99999875
v 2 19 2.99999875
v 3 19 1.999998125
v 0.99999875 18.5 -0.0000018750000001510614
v 2 18.5 -0.0000012499999999526779
v 1.49999875 18.5 -0.0000012499999999526779
v -0.0000012499999999526779 19 1.999998125
v 1 19 2.99999875
v 0.99999875 18.5 2.99999875
v 0 18.5 1.99999875
v 0.0000012499999999526779 18.5 0.9999981250000001
v 1 19 -0.0000018750000001510614
v 0 19 0.9999981250000001
v 3 20.5 0.99999875
v 1.99999875 20.5 -0.0000012499999999526779
v 1.99999875 20 -0.0000012499999999526779
v 3 20 0.99999875
v 0.99999875 20.5 2.99999875
v 1.99999875 20.5 2.99999875
v 1.49999875 20.5 2.99999875
v 0 20 0.99999875
v 1 20 -0.0000012499999999526779
v 1 20.5 -0.0000012499999999526779
v 0 20.5 0.99999875
v 0.0000012499999999526779 20.5 1.99999875
v 0.99999875 20 2.99999875
v 0 20 1.99999875
v 0 19.5 1.99999875
v 0.99999875 19.5 2.99999875
v 3 19.5 0.99999875
v 2 19.5 -0.0000012499999999526779
v 2 19 -0.0000012499999999526779
v 3 19 0.99999875
v 0 1 1
v 0.5 1 1
v 0.5 2 1
v 0 2 1
v 0.5 1 2
v 0.5 2 2
v 0 1 2
v 0 2 2
v 2.3125 14 2.31249875
v 2.6875 14 2.31249875
v 2.6875 18 2.31249875
v 2.3125 18 2.31249875
v 2.6875 14 2.68749875
v 2.6875 18 2.68749875
v 2.3125 14 2.68749875
v 2.3125 18 2.68749875
v 2.62499875 10.280908125 0.44333625
v 2.625 10.22119 0.682205
v 2.625 13.71908875 1.55666375
v 2.625 13.778805 1.3177937499999999
v 2.375 17.778805 2.317793125
v 2.375 17.71909 2.5566637500000002
v 2.375 14.22119125 1.682205
v 2.375 14.280908125 1.443335
v 2.625 17.778805 2.31779375
v 2.625 14.280908125 1.443335
v 2.37499875 10.280906875 0.44333625
v 2.375 13.778805 1.3177937499999999
v 2.3125 14.49999875 1.24999875
v 2.6875 14.49999875 1.24999875
v 2.6875 14.5 1.74999875
v 2.3125 14.49999875 1.74999875
v 2.3125 13.49999875 1.74999875
v 2.6875 13.49999875 1.74999875
v 2.6875 13.49999875 1.25
v 2.3125 13.49999875 1.25
v 2.37499875 10.22119125 0.6822062499999999
v 2.375 13.71908875 1.55666375
v 2.62499875 10.22119125 2.31779375
v 2.625 10.280906875 2.5566649999999997
v 2.625 13.778805 1.682205
v 2.625 13.719088125 1.443335
v 2.375 10.22119 2.31779375
v 2.375 13.71908875 1.443335
v 2.375 10.280908125 2.5566649999999997
v 2.375 13.778805 1.682205
v 2.62499875 17.71909 2.556663125
v 2.625 14.22119125 1.682205
v 2.62499875 17.778805 0.682205
v 2.625 17.71909 0.44333500000000003
v 2.625 14.22119125 1.3177931250000001
v 2.625 14.28090875 1.556663125
v 2.37499875 17.778805 0.682205
v 2.375 14.280908125 1.55666375
v 2.37499875 17.71909 0.44333500000000003
v 2.375 14.22119125 1.3177931250000001
v 0.375 10.280906875 0.44333625
v 0.62499875 10.280908125 0.44333625
v 0.625 13.778805 1.3177931250000001
v 0.375 13.778805 1.3177931250000001
v 0.6875 13.49999875 1.74999875
v 0.3125 13.49999875 1.74999875
v 0.3125 14.49999875 1.74999875
v 0.6875 14.5 1.74999875
v 0.375 17.71909 2.5566637500000002
v 0.62499875 17.71909 2.556663125
v 0.625 14.22119125 1.682205
v 0.375 14.22119125 1.682205
v 0.62499875 17.778805 0.682205
v 0.625 17.71909 0.44333500000000003
v 0.625 14.22119125 1.3177931250000001
v 0.625 14.28090875 1.55666375
v 0.375 10.22119125 0.6822062499999999
v 0.375 13.71908875 1.55666375
v 0.625 10.22119 0.6822062499999999
v 0.625 13.71908875 1.55666375
v 0.375 17.778805 2.317793125
v 0.375 14.280908125 1.443335
v 0.375 17.778805 0.682205
v 0.375 14.280908125 1.55666375
v 0.375 17.71909 0.44333500000000003
v 0.375 14.22119125 1.3177931250000001
v 0.625 17.778805 2.31779375
v 0.625 14.280908125 1.443335
v 0.375 10.22119 2.31779375
v 0.62499875 10.22119125 2.31779375
v 0.625 13.719088125 1.443335
v 0.375 13.71908875 1.443335
v 0.375 10.280908125 2.5566649999999997
v 0.375 13.778805 1.682205
v 0.3125 14.49999875 1.24999875
v 0.6875 14.49999875 1.24999875
v 0.6875 13.49999875 1.25
v 0.3125 13.49999875 1.25
v 0.625 10.280906875 2.5566649999999997
v 0.625 13.778805 1.682205
v 2.5566637500000002 17.71909 0.62499875
v 2.5566637500000002 17.71909 0.37499875000000005
v 1.682205 14.22119125 0.375
v 1.682205 14.22119125 0.625
v 2.31779375 17.778805 0.37499875000000005
v 1.443335 14.280908125 0.37499875000000005
v 2.31779375 17.778805 0.6249981250000001
v 1.443335 14.28090875 0.62499875
v 1.25 13.49999875 0.6875
v 1.25 13.49999875 0.3125
v 1.25 14.49999875 0.31249875000000005
v 1.25 14.5 0.68749875
v 1.75 13.49999875 0.3125
v 1.75 14.49999875 0.31249875000000005
v 1.75 13.49999875 0.6875
v 1.75 14.49999875 0.68749875
v 0.3125 14 2.31249875
v 0.6875 14 2.31249875
v 0.6875 18 2.31249875
v 0.3125 18 2.31249875
v 0.6875 14 2.68749875
v 0.6875 18 2.68749875
v 0.3125 14 2.68749875
v 0.3125 18 2.68749875
v 2.3125 14 0.3125
v 2.6875 14 0.3125
v 2.6875 18 0.31249875000000005
v 2.3125 18 0.31249875000000005
v 2.6875 14 0.6875
v 2.6875 18 0.68749875
v 2.3125 14 0.6875
v 2.3125 18 0.68749875
v 0.3125 14 0.3125
v 0.6875 14 0.3125
v 0.6875 18 0.31249875000000005
v 0.3125 18 0.31249875000000005
v 0.6875 14 0.6875
v 0.6875 18 0.68749875
v 0.3125 14 0.6875
v 0.3125 18 0.68749875
v 0.682205 17.778805 0.62499875
v 0.682205 17.778805 0.37499875000000005
v 1.55666375 14.280908125 0.37499875000000005
v 1.55666375 14.280908125 0.62499875
v 0.44333500000000003 17.71909 0.37499875000000005
v 1.3177931250000001 14.22119125 0.375
v 0.44333500000000003 17.71909 0.6249981250000001
v 1.3177931250000001 14.22119125 0.625
v 0.44333500000000003 10.280906875 0.625
v 0.44333500000000003 10.280908125 0.375
v 1.3177931250000001 13.778805 0.375
v 1.3177931250000001 13.778805 0.625
v 0.682205 10.22119 0.375
v 1.55666375 13.71908875 0.375
v 0.682205 10.22119125 0.62499875
v 1.556663125 13.719088125 0.625
v 2.31779375 10.22119 0.625
v 2.3177931249999997 10.22119125 0.375
v 1.443335 13.71908875 0.375
v 1.443335 13.71908875 0.625
v 2.5566637500000002 10.280906875 0.375
v 1.682205 13.778805 0.375
v 2.5566637500000002 10.280908125 0.62499875
v 1.682205 13.778805 0.625
v 2.5566637500000002 17.71909 2.62499875
v 2.5566637500000002 17.71909 2.37499875
v 1.682205 14.22119125 2.37499875
v 1.682205 14.22119125 2.62499875
v 2.31779375 17.778805 2.37499875
v 1.443335 14.280908125 2.37499875
v 2.31779375 17.778805 2.624998125
v 1.443335 14.28090875 2.62499875
v 1.25 13.49999875 2.6875
v 1.25 13.49999875 2.31249875
v 1.25 14.49999875 2.31249875
v 1.25 14.5 2.68749875
v 1.75 13.49999875 2.31249875
v 1.75 14.49999875 2.31249875
v 1.75 13.49999875 2.6875
v 1.75 14.49999875 2.68749875
v 0.682205 17.778805 2.62499875
v 0.682205 17.778805 2.374998125
v 1.55666375 14.280908125 2.37499875
v 1.55666375 14.280908125 2.62499875
v 0.44333500000000003 17.71909 2.374998125
v 1.3177931250000001 14.22119125 2.37499875
v 0.44333500000000003 17.71909 2.624998125
v 1.3177931250000001 14.22119125 2.62499875
v 0.44333500000000003 10.280906875 2.625
v 0.44333500000000003 10.280908125 2.37499875
v 1.3177931250000001 13.778805 2.37499875
v 1.3177931250000001 13.778805 2.62499875
v 0.682205 10.22119 2.37499875
v 0.682205 10.22119125 2.62499875
v 1.556663125 13.719088125 2.62499875
v 1.556663125 13.71908875 2.37499875
v 2.31779375 10.22119 2.625
v 2.3177931249999997 10.22119125 2.375
v 1.443335 13.71908875 2.37499875
v 1.443335 13.71908875 2.62499875
v 2.5566637500000002 10.280906875 2.375
v 2.5566637500000002 10.280908125 2.62499875
v 1.682205 13.778805 2.62499875
v 1.682205 13.778805 2.37499875
v 1.75 14 1.24999875
v 2.25 14 1.24999875
v 2.25 18 1.24999875
v 1.75 18 1.24999875
v 2.25 14 1.74999875
v 2.25 18 1.74999875
v 1.75 14 1.74999875
v 1.75 18 1.74999875
v 0.75 14 1.24999875
v 1.25 14 1.24999875
v 1.25 18 1.24999875
v 0.75 18 1.24999875
v 1.25 14 1.74999875
v 1.25 18 1.74999875
v 0.75 14 1.74999875
v 0.75 18 1.74999875
v 2.37499875 10.221191875 0.6822062499999999
v 2.37499875 10.280906875 0.44333625
v 2.375 13.778805 1.317795
v 2.375 13.71909 1.556665
v 2.375 10.280908125 2.5566649999999997
v 2.375 10.22119125 2.31779375
v 2.375 13.71909 1.44333625
v 2.375 13.778805 1.6822062500000001
v 0.62499875 10.280908125 0.44333625
v 0.625 10.22119125 0.6822062499999999
v 0.625 13.71909 1.556665
v 0.625 13.778805 1.3177937499999999
v 0.62499875 10.221191875 2.31779375
v 0.625 10.280906875 2.5566649999999997
v 0.625 13.778805 1.6822062500000001
v 0.625 13.719088125 1.44333625
v 2.5566637500000002 10.280908125 0.62499875
v 2.31779375 10.22119 0.625
v 1.443335 13.71909 0.625
v 1.682205 13.778805 0.625
v 0.44333500000000003 10.280908125 2.37499875
v 0.682205 10.22119 2.37499875
v 1.556663125 13.71909 2.375
v 1.3177931250000001 13.778805 2.375
v 2.3177931249999997 10.22119125 2.375
v 2.5566637500000002 10.280906875 2.375
v 1.682205 13.778805 2.375
v 1.443335 13.71909 2.375
v 0.682205 10.22119125 0.62499875
v 0.44333500000000003 10.280906875 0.625
v 1.3177931250000001 13.778805 0.625
v 1.556663125 13.719088125 0.625
v 2.99999875 18.5 2.99999875
v 2.99999875 18.5 -0.0000012499999999526779
v 2.99999875 18 -0.0000012499999999526779
v 2.99999875 18 2.999998125
v -0.0000012499999999526779 18.5 -0.0000018750000001510614
v -0.0000012499999999526779 18.5 2.999998125
v -0.0000012499999999526779 18 2.999998125
v -0.0000012499999999526779 18 -0.0000018750000001510614
v 1.0625 19 0.99999875
v 1.0625 19 -0.0000018750000001510614
v 1.49999875 18.5 0.9999981250000001
v 1.9375 19 -0.0000012499999999526779
v 1.9375 19 0.9999981250000001
v 1 19 1.93749875
v -0.0000012499999999526779 19 1.937498125
v -0.0000012499999999526779 18.5 1.4999981249999998
v 0.99999875 18.5 1.4999981249999998
v -0.0000012499999999526779 19 1.0624981249999998
v 1 19 1.06249875
v 1.9375 19 1.99999875
v 1.9375 19 2.99999875
v 1.49999875 18.5 2.999998125
v 1.49999875 18.5 1.99999875
v 1.06249875 19 2.999998125
v 1.06249875 19 1.99999875
v 2 19 1.06249875
v 3 19 1.06249875
v 2.99999875 18.5 1.49999875
v 1.99999875 18.5 1.4999981249999998
v 3 19 1.93749875
v 2 19 1.93749875
v 2.99999875 18.5 0.99999875
v 0.06249875000000005 19 2.687998125
v 0.06249875000000005 18.5 2.687998125
v 0.31249875000000005 18.5 2.687998125
v 0.31249875000000005 19 2.687998125
v 2.6879999999999997 19 0.0619987500000001
v 2.6879999999999997 18.5 0.0619987500000001
v 2.9379999999999997 18.5 0.0619987500000001
v 2.9379999999999997 19 0.0619987500000001
v 2.9379999999999997 18.5 0.3119987500000001
v 2.93799875 19 0.3119987500000001
v 0.3125 19 0.31249812500000007
v 0.3125 18.5 0.31249812500000007
v 0.0625 18.5 0.31249812500000007
v 2 19 0.99999875
v 1.99999875 18.5 0.9999981250000001
v 1.99999875 18.5 1.999998125
v 2 19 1.999998125
v 0.0625 19 0.31249812500000007
v 0.0625 18.5 0.06249812500000007
v 0.0625 19 0.06249812500000007
v 0.99999875 18.5 0.9999981250000001
v 1 19 0.99999875
v 1 19 1.999998125
v 0.99999875 18.5 1.999998125
v 0.06249875000000005 19 2.937998125
v 0.06249875000000005 18.5 2.937998125
v 0.3125 19 0.06249812500000007
v 0.3125 18.5 0.06249812500000007
v 2.68799875 19 2.93799875
v 2.68799875 18.5 2.93799875
v 2.68799875 18.5 2.687998125
v 2.68799875 19 2.687998125
v 0.31249875000000005 18.5 2.937998125
v 0.31249875000000005 19 2.937998125
v 2.93799875 19 2.68799875
v 2.93799875 18.5 2.68799875
v 2.93799875 18.5 2.937998125
v 2.93799875 19 2.937998125
v 2.99999875 20.5 -0.0000012499999999526779
v 2.99999875 20.5 2.99999875
v 2.99999875 21 2.99999875
v 2.99999875 21 -0.0000012499999999526779
v -0.0000012499999999526779 20.5 2.99999875
v -0.0000012499999999526779 20.5 -0.0000012499999999526779
v -0.0000012499999999526779 21 -0.0000012499999999526779
v -0.0000012499999999526779 21 2.99999875
v 1.0625 20 1.99999875
v 1.0625 20 2.99999875
v 1.49999875 20.5 1.99999875
v 1.9375 20 2.99999875
v 1.9375 20 1.99999875
v 2 20 2.99999875
v 0.99999875 20 1.06249875
v -0.0000012499999999526779 20 1.06249875
v -0.0000012499999999526779 20.5 1.49999875
v 0.99999875 20.5 1.49999875
v -0.0000012499999999526779 20 1.93749875
v 1 20 1.93749875
v 1.9375 20 0.99999875
v 1.93749875 20 -0.0000012499999999526779
v 1.49999875 20.5 -0.0000012499999999526779
v 1.49999875 20.5 0.9999981250000001
v 1.06249875 20 -0.0000012499999999526779
v 1.06249875 20 0.9999981250000001
v 2 20 1.93749875
v 3 20 1.93749875
v 2.99999875 20.5 1.49999875
v 1.99999875 20.5 1.49999875
v 3 20 1.06249875
v 2 20 1.06249875
v 3 20 1.99999875
v 2.99999875 20.5 1.99999875
v 0.0625 20 0.3119987500000001
v 0.0625 20.5 0.31200000000000006
v 0.3125 20.5 0.3119987500000001
v 0.3125 20 0.3119987500000001
v 2.68799875 20 2.93799875
v 2.68799875 20.5 2.93799875
v 2.9379999999999997 20.5 2.93799875
v 2.93799875 20 2.93799875
v 2.93799875 20.5 2.68799875
v 2.93799875 20 2.68799875
v 0.31249875000000005 20 2.68749875
v 0.31249875000000005 20.5 2.68749875
v 0.06249875000000005 20.5 2.68749875
v 0.06249875000000005 20 2.68749875
v 1.99999875 20 1.99999875
v 1.99999875 20.5 1.99999875
v 1.99999875 20.5 0.99999875
v 2 20 0.99999875
v 0.06249875000000005 20.5 2.9375
v 0.06249875000000005 20 2.93749875
v 0.99999875 20.5 1.99999875
v 0.99999875 20 1.99999875
v 1 20 0.99999875
v 0.99999875 20.5 0.99999875
v 0.0625 20 0.0619987500000001
v 0.0625 20.5 0.062000000000000055
v 0.31249875000000005 20 2.93749875
v 0.31249875000000005 20.5 2.93749875
v 3 19.5 1.99999875
v 2 19.5 2.99999875
v 2.6879999999999997 20.5 2.68799875
v 2.68799875 20 2.687998125
v 2.68799875 20 0.0619987500000001
v 2.68799875 20.5 0.0619987500000001
v 2.6879999999999997 20.5 0.3119987500000001
v 2.68799875 20 0.3119987500000001
v 0.31249875000000005 20.5 0.062000000000000055
v 0.3125 20 0.062000000000000055
v 2.93799875 20 0.3119987500000001
v 2.93799875 20.5 0.3119987500000001
v 2.93799875 20.5 0.062000000000000055
v 2.93799875 20 0.0619987500000001
v 0 19.5 0.99999875
v 1 19.5 -0.0000012499999999526779
v 0.31249875000000005 19 2.93749875
v 0.3125 19 2.68749875
v 0.0625 19 2.93749875
v 0.0625 19 0.0619987500000001
v 0.0625 19 0.3119987500000001
v 0.0625 19 2.68749875
v 0.3125 19 0.0619987500000001
v 0.3125 19 0.3119987500000001
v 2.68800125 18.5 0.3119987500000001
v 2.6879999999999997 19 0.3119987500000001
v 0.31299875 19 0.3119987500000001
v 0.31299999999999994 18.5 0.3119987500000001
v 0.0630012499999999 18.5 0.3119987500000001
v 0.06299999999999994 19 0.3119987500000001
vt 0.375 0.4375
vt 0.25 0.4375
vt 0.25 0.375
vt 0.375 0.375
vt 0.375 0.375
vt 0.25 0.375
vt 0.25 0.4375
vt 0.375 0.4375
vt 0.375 0.4375
vt 0.25 0.4375
vt 0.25 0.375
vt 0.375 0.375
vt 0.375 0.375
vt 0.25 0.375
vt 0.25 0.4375
vt 0.375 0.4375
vt 0.46875 0.46875
vt 0.46875 0.40625
vt 0.40625 0.40625
vt 0.40625 0.46875
vt 0.375 0.4375
vt 0.25 0.4375
vt 0.25 0.375
vt 0.375 0.375
vt 0.375 0.375
vt 0.25 0.375
vt 0.25 0.4375
vt 0.375 0.4375
vt 0.375 0.4375
vt 0.25 0.4375
vt 0.25 0.375
vt 0.375 0.375
vt 0.375 0.375
vt 0.25 0.375
vt 0.25 0.4375
vt 0.375 0.4375
vt 0.46875 0.46875
vt 0.46875 0.40625
vt 0.40625 0.40625
vt 0.40625 0.46875
vt 0.375 0.4375
vt 0.25 0.4375
vt 0.25 0.375
vt 0.375 0.375
vt 0.375 0.4375
vt 0.25 0.4375
vt 0.25 0.375
vt 0.375 0.375
vt 0.375 0.375
vt 0.25 0.375
vt 0.25 0.4375
vt 0.375 0.4375
vt 0.375 0.4375
vt 0.25 0.4375
vt 0.25 0.375
vt 0.375 0.375
vt 0.40625 0.40625
vt 0.46875 0.40625
vt 0.46875 0.46875
vt 0.40625 0.46875
vt 0.375 0.4375
vt 0.25 0.4375
vt 0.25 0.375
vt 0.375 0.375
vt 0.375 0.4375
vt 0.25 0.4375
vt 0.25 0.375
vt 0.375 0.375
vt 0.375 0.375
vt 0.25 0.375
vt 0.25 0.4375
vt 0.375 0.4375
vt 0.375 0.4375
vt 0.25 0.4375
vt 0.25 0.375
vt 0.375 0.375
vt 0.40625 0.40625
vt 0.46875 0.40625
vt 0.46875 0.46875
vt 0.40625 0.46875
vt 0.59375 0.75
vt 0.59375 0.25
vt 0.640625 0.25
vt 0.640625 0.75
vt 0.59375 0.75
vt 0.59375 0.25
vt 0.640625 0.25
vt 0.640625 0.75
vt 0.640625 0.75
vt 0.640625 0.25
vt 0.59375 0.25
vt 0.59375 0.75
vt 0.59375 0.75
vt 0.59375 0.25
vt 0.640625 0.25
vt 0.640625 0.75
vt 0.5625 0.3125
vt 0.5625 0.75
vt 0.59375 0.75
vt 0.59375 0.3125
vt 0.5625 0.3125
vt 0.5625 0.75
vt 0.59375 0.75
vt 0.59375 0.3125
vt 0.59375 0.3125
vt 0.59375 0.75
vt 0.5625 0.75
vt 0.5625 0.3125
vt 0.59375 0.3125
vt 0.59375 0.75
vt 0.5625 0.75
vt 0.5625 0.3125
vt 0.5625 0.3125
vt 0.5625 0.75
vt 0.59375 0.75
vt 0.59375 0.3125
vt 0.460938125 0.84375
vt 0.460938125 0.90625
vt 0.414061875 0.90625
vt 0.414061875 0.84375
vt 0.460938125 0.84375
vt 0.460938125 0.90625
vt 0.414061875 0.90625
vt 0.414061875 0.84375
vt 0.59375 0.3125
vt 0.59375 0.75
vt 0.5625 0.75
vt 0.5625 0.3125
vt 0.375 0.4375
vt 0.25 0.4375
vt 0.25 0.375
vt 0.375 0.375
vt 0.460938125 0.8125
vt 0.460938125 0.9375
vt 0.414061875 0.9375
vt 0.414061875 0.8125
vt 0.5625 0.3125
vt 0.5625 0.75
vt 0.59375 0.75
vt 0.59375 0.3125
vt 0.59375 0.3125
vt 0.59375 0.75
vt 0.5625 0.75
vt 0.5625 0.3125
vt 0.25 0.375
vt 0.375 0.375
vt 0.375 0.4375
vt 0.25 0.4375
vt 0.414061875 0.9375
vt 0.414061875 0.8125
vt 0.460938125 0.8125
vt 0.460938125 0.9375
vt 0.5625 0.3125
vt 0.5625 0.75
vt 0.59375 0.75
vt 0.59375 0.3125
vt 0.59375 0.3125
vt 0.59375 0.75
vt 0.5625 0.75
vt 0.5625 0.3125
vt 0.5625 0.3125
vt 0.5625 0.75
vt 0.59375 0.75
vt 0.59375 0.3125
vt 0.5625 0.3125
vt 0.5625 0.75
vt 0.59375 0.75
vt 0.59375 0.3125
vt 0.59375 0.3125
vt 0.59375 0.75
vt 0.5625 0.75
vt 0.5625 0.3125
vt 0.59375 0.3125
vt 0.59375 0.75
vt 0.5625 0.75
vt 0.5625 0.3125
vt 0.5625 0.3125
vt 0.5625 0.75
vt 0.59375 0.75
vt 0.59375 0.3125
vt 0.59375 0.3125
vt 0.59375 0.75
vt 0.5625 0.75
vt 0.5625 0.3125
vt 0.5625 0.3125
vt 0.5625 0.75
vt 0.59375 0.75
vt 0.59375 0.3125
vt 0.59375 0.3125
vt 0.59375 0.75
vt 0.5625 0.75
vt 0.5625 0.3125
vt 0.414061875 0.9375
vt 0.414061875 0.8125
vt 0.460938125 0.8125
vt 0.460938125 0.9375
vt 0.59375 0.3125
vt 0.59375 0.75
vt 0.5625 0.75
vt 0.5625 0.3125
vt 0.5625 0.3125
vt 0.5625 0.75
vt 0.59375 0.75
vt 0.59375 0.3125
vt 0.5625 0.3125
vt 0.5625 0.75
vt 0.59375 0.75
vt 0.59375 0.3125
vt 0.59375 0.3125
vt 0.59375 0.75
vt 0.5625 0.75
vt 0.5625 0.3125
vt 0.5625 0.3125
vt 0.5625 0.75
vt 0.59375 0.75
vt 0.59375 0.3125
vt 0.59375 0.3125
vt 0.59375 0.75
vt 0.5625 0.75
vt 0.5625 0.3125
vt 0.5625 0.3125
vt 0.5625 0.75
vt 0.59375 0.75
vt 0.59375 0.3125
vt 0.5625 0.3125
vt 0.5625 0.75
vt 0.59375 0.75
vt 0.59375 0.3125
vt 0.59375 0.3125
vt 0.59375 0.75
vt 0.5625 0.75
vt 0.5625 0.3125
vt 0.59375 0.3125
vt 0.59375 0.75
vt 0.5625 0.75
vt 0.5625 0.3125
vt 0.5625 0.3125
vt 0.5625 0.75
vt 0.59375 0.75
vt 0.59375 0.3125
vt 0.460938125 0.84375
vt 0.460938125 0.90625
vt 0.414061875 0.90625
vt 0.414061875 0.84375
vt 0.460938125 0.84375
vt 0.460938125 0.90625
vt 0.414061875 0.90625
vt 0.414061875 0.84375
vt 0.375 0.4375
vt 0.25 0.4375
vt 0.25 0.375
vt 0.375 0.375
vt 0.59375 0.3125
vt 0.59375 0.75
vt 0.5625 0.75
vt 0.5625 0.3125
vt 0.59375 0.3125
vt 0.59375 0.75
vt 0.5625 0.75
vt 0.5625 0.3125
vt 0.460938125 0.8125
vt 0.460938125 0.9375
vt 0.414061875 0.9375
vt 0.414061875 0.8125
vt 0.25 0.375
vt 0.375 0.375
vt 0.375 0.4375
vt 0.25 0.4375
vt 0.5625 0.3125
vt 0.5625 0.75
vt 0.59375 0.75
vt 0.59375 0.3125
vt 0.59375 0.3125
vt 0.59375 0.75
vt 0.5625 0.75
vt 0.5625 0.3125
vt 0.5625 0.3125
vt 0.5625 0.75
vt 0.59375 0.75
vt 0.59375 0.3125
vt 0.59375 0.3125
vt 0.59375 0.75
vt 0.5625 0.75
vt 0.5625 0.3125
vt 0.5625 0.3125
vt 0.5625 0.75
vt 0.59375 0.75
vt 0.59375 0.3125
vt 0.414061875 0.9375
vt 0.414061875 0.8125
vt 0.460938125 0.8125
vt 0.460938125 0.9375
vt 0.25 0.375
vt 0.375 0.375
vt 0.375 0.4375
vt 0.25 0.4375
vt 0.460938125 0.8125
vt 0.460938125 0.9375
vt 0.414061875 0.9375
vt 0.414061875 0.8125
vt 0.375 0.4375
vt 0.25 0.4375
vt 0.25 0.375
vt 0.375 0.375
vt 0.460938125 0.84375
vt 0.460938125 0.90625
vt 0.414061875 0.90625
vt 0.414061875 0.84375
vt 0.460938125 0.84375
vt 0.460938125 0.90625
vt 0.414061875 0.90625
vt 0.414061875 0.84375
vt 0.59375 0.75
vt 0.59375 0.25
vt 0.640625 0.25
vt 0.640625 0.75
vt 0.59375 0.75
vt 0.59375 0.25
vt 0.640625 0.25
vt 0.640625 0.75
vt 0.640625 0.75
vt 0.640625 0.25
vt 0.59375 0.25
vt 0.59375 0.75
vt 0.59375 0.75
vt 0.59375 0.25
vt 0.640625 0.25
vt 0.640625 0.75
vt 0.59375 0.75
vt 0.59375 0.25
vt 0.640625 0.25
vt 0.640625 0.75
vt 0.59375 0.75
vt 0.59375 0.25
vt 0.640625 0.25
vt 0.640625 0.75
vt 0.640625 0.75
vt 0.640625 0.25
vt 0.59375 0.25
vt 0.59375 0.75
vt 0.59375 0.75
vt 0.59375 0.25
vt 0.640625 0.25
vt 0.640625 0.75
vt 0.59375 0.75
vt 0.59375 0.25
vt 0.640625 0.25
vt 0.640625 0.75
vt 0.59375 0.75
vt 0.59375 0.25
vt 0.640625 0.25
vt 0.640625 0.75
vt 0.640625 0.75
vt 0.640625 0.25
vt 0.59375 0.25
vt 0.59375 0.75
vt 0.59375 0.75
vt 0.59375 0.25
vt 0.640625 0.25
vt 0.640625 0.75
vt 0.59375 0.75
vt 0.59375 0.25
vt 0.640625 0.25
vt 0.640625 0.75
vt 0.59375 0.75
vt 0.59375 0.25
vt 0.640625 0.25
vt 0.640625 0.75
vt 0.640625 0.75
vt 0.640625 0.25
vt 0.59375 0.25
vt 0.59375 0.75
vt 0.59375 0.75
vt 0.59375 0.25
vt 0.640625 0.25
vt 0.640625 0.75
vt 0.59375 0.75
vt 0.59375 0.25
vt 0.640625 0.25
vt 0.640625 0.75
vt 0.59375 0.75
vt 0.59375 0.25
vt 0.640625 0.25
vt 0.640625 0.75
vt 0.640625 0.75
vt 0.640625 0.25
vt 0.59375 0.25
vt 0.59375 0.75
vt 0.59375 0.75
vt 0.59375 0.25
vt 0.640625 0.25
vt 0.640625 0.75
vt 0.59375 0.75
vt 0.59375 0.25
vt 0.640625 0.25
vt 0.640625 0.75
vt 0.59375 0.75
vt 0.59375 0.25
vt 0.640625 0.25
vt 0.640625 0.75
vt 0.640625 0.75
vt 0.640625 0.25
vt 0.59375 0.25
vt 0.59375 0.75
vt 0.59375 0.75
vt 0.59375 0.25
vt 0.640625 0.25
vt 0.640625 0.75
vt 0.59375 0.75
vt 0.59375 0.25
vt 0.640625 0.25
vt 0.640625 0.75
vt 0.59375 0.75
vt 0.59375 0.25
vt 0.640625 0.25
vt 0.640625 0.75
vt 0.640625 0.75
vt 0.640625 0.25
vt 0.59375 0.25
vt 0.59375 0.75
vt 0.59375 0.75
vt 0.59375 0.25
vt 0.640625 0.25
vt 0.640625 0.75
vt 0.59375 0.3125
vt 0.59375 0.75
vt 0.5625 0.75
vt 0.5625 0.3125
vt 0.5625 0.3125
vt 0.5625 0.75
vt 0.59375 0.75
vt 0.59375 0.3125
vt 0.59375 0.3125
vt 0.59375 0.75
vt 0.5625 0.75
vt 0.5625 0.3125
vt 0.5625 0.3125
vt 0.5625 0.75
vt 0.59375 0.75
vt 0.59375 0.3125
vt 0.59375 0.3125
vt 0.59375 0.75
vt 0.5625 0.75
vt 0.5625 0.3125
vt 0.5625 0.3125
vt 0.5625 0.75
vt 0.59375 0.75
vt 0.59375 0.3125
vt 0.59375 0.3125
vt 0.59375 0.75
vt 0.5625 0.75
vt 0.5625 0.3125
vt 0.5625 0.3125
vt 0.5625 0.75
vt 0.59375 0.75
vt 0.59375 0.3125
vt 0.59375 0.3125
vt 0.59375 0.75
vt 0.5625 0.75
vt 0.5625 0.3125
vt 0.5625 0.3125
vt 0.5625 0.75
vt 0.59375 0.75
vt 0.59375 0.3125
vt 0.59375 0.3125
vt 0.59375 0.75
vt 0.5625 0.75
vt 0.5625 0.3125
vt 0.5625 0.3125
vt 0.5625 0.75
vt 0.59375 0.75
vt 0.59375 0.3125
vt 0.59375 0.3125
vt 0.59375 0.75
vt 0.5625 0.75
vt 0.5625 0.3125
vt 0.5625 0.3125
vt 0.5625 0.75
vt 0.59375 0.75
vt 0.59375 0.3125
vt 0.59375 0.3125
vt 0.59375 0.75
vt 0.5625 0.75
vt 0.5625 0.3125
vt 0.5625 0.3125
vt 0.5625 0.75
vt 0.59375 0.75
vt 0.59375 0.3125
vt 0.414061875 0.9375
vt 0.414061875 0.8125
vt 0.460938125 0.8125
vt 0.460938125 0.9375
vt 0.25 0.375
vt 0.375 0.375
vt 0.375 0.4375
vt 0.25 0.4375
vt 0.460938125 0.8125
vt 0.460938125 0.9375
vt 0.414061875 0.9375
vt 0.414061875 0.8125
vt 0.375 0.4375
vt 0.25 0.4375
vt 0.25 0.375
vt 0.375 0.375
vt 0.460938125 0.84375
vt 0.460938125 0.90625
vt 0.414061875 0.90625
vt 0.414061875 0.84375
vt 0.460938125 0.84375
vt 0.460938125 0.90625
vt 0.414061875 0.90625
vt 0.414061875 0.84375
vt 0.59375 0.3125
vt 0.59375 0.75
vt 0.5625 0.75
vt 0.5625 0.3125
vt 0.5625 0.3125
vt 0.5625 0.75
vt 0.59375 0.75
vt 0.59375 0.3125
vt 0.59375 0.3125
vt 0.59375 0.75
vt 0.5625 0.75
vt 0.5625 0.3125
vt 0.5625 0.3125
vt 0.5625 0.75
vt 0.59375 0.75
vt 0.59375 0.3125
vt 0.59375 0.3125
vt 0.59375 0.75
vt 0.5625 0.75
vt 0.5625 0.3125
vt 0.5625 0.3125
vt 0.5625 0.75
vt 0.59375 0.75
vt 0.59375 0.3125
vt 0.59375 0.3125
vt 0.59375 0.75
vt 0.5625 0.75
vt 0.5625 0.3125
vt 0.5625 0.3125
vt 0.5625 0.75
vt 0.59375 0.75
vt 0.59375 0.3125
vt 0.59375 0.3125
vt 0.59375 0.75
vt 0.5625 0.75
vt 0.5625 0.3125
vt 0.5625 0.3125
vt 0.5625 0.75
vt 0.59375 0.75
vt 0.59375 0.3125
vt 0.59375 0.3125
vt 0.59375 0.75
vt 0.5625 0.75
vt 0.5625 0.3125
vt 0.5625 0.3125
vt 0.5625 0.75
vt 0.59375 0.75
vt 0.59375 0.3125
vt 0 0.4375
vt 0 0.375
vt 0.25 0.375
vt 0.25 0.4375
vt 0 0.4375
vt 0 0.375
vt 0.25 0.375
vt 0.25 0.4375
vt 0 0.4375
vt 0 0.375
vt 0.25 0.375
vt 0.25 0.4375
vt 0 0.4375
vt 0 0.375
vt 0.25 0.375
vt 0.25 0.4375
vt 0.710938125 0.75
vt 0.960938125 0.75
vt 0.960938125 1
vt 0.710938125 1
vt 0.375 0.5
vt 0.375 0.375
vt 0.5 0.375
vt 0.5 0.5
vt 0.25 0.5625
vt 0.25 0.4375
vt 0.375 0.4375
vt 0.375 0.5625
vt 0.25 0.5625
vt 0.25 0.4375
vt 0.375 0.4375
vt 0.375 0.5625
vt 0.25 0.5625
vt 0.25 0.4375
vt 0.375 0.4375
vt 0.375 0.5625
vt 0.375 0.4375
vt 0.375 0.5625
vt 0.25 0.5625
vt 0.25 0.4375
vt 0.5625 0.75
vt 0.5625 0.25
vt 0.5 0.25
vt 0.5 0.75
vt 0.5 0.75
vt 0.5 0.25
vt 0.5625 0.25
vt 0.5625 0.75
vt 0.5625 0.25
vt 0.5625 0.75
vt 0.5 0.75
vt 0.5 0.25
vt 0.5 0.25
vt 0.5 0.75
vt 0.5625 0.75
vt 0.5625 0.25
vt 0.25 0.5625
vt 0.25 0.4375
vt 0.375 0.4375
vt 0.375 0.5625
vt 0.25 0.5625
vt 0.25 0.4375
vt 0.375 0.4375
vt 0.375 0.5625
vt 0.375 0.375
vt 0.375 0.25
vt 0.5 0.25
vt 0.5 0.375
vt 0.25 0.5625
vt 0.25 0.4375
vt 0.375 0.4375
vt 0.375 0.5625
vt 0.375 0.4375
vt 0.375 0.5625
vt 0.25 0.5625
vt 0.25 0.4375
vt 0.5625 0.75
vt 0.5625 0.25
vt 0.5 0.25
vt 0.5 0.75
vt 0.5 0.75
vt 0.5 0.25
vt 0.5625 0.25
vt 0.5625 0.75
vt 0.5625 0.25
vt 0.5625 0.75
vt 0.5 0.75
vt 0.5 0.25
vt 0.5 0.25
vt 0.5 0.75
vt 0.5625 0.75
vt 0.5625 0.25
vt 0.5625 0.25
vt 0.5625 0.3125
vt 0.5 0.3125
vt 0.5 0.25
vt 0.5 0.25
vt 0.5 0.3125
vt 0.5625 0.3125
vt 0.5625 0.25
vt 0.5625 0.25
vt 0.5625 0.3125
vt 0.5 0.3125
vt 0.5 0.25
vt 0.5625 0.25
vt 0.5625 0.3125
vt 0.5 0.3125
vt 0.5 0.25
vt 0.5625 0.75
vt 0.5625 0.25
vt 0.5 0.25
vt 0.5 0.75
vt 0.5 0.75
vt 0.5 0.25
vt 0.5625 0.25
vt 0.5625 0.75
vt 0.5625 0.25
vt 0.5625 0.75
vt 0.5 0.75
vt 0.5 0.25
vt 0.5 0.25
vt 0.5 0.75
vt 0.5625 0.75
vt 0.5625 0.25
vt 0.5625 0.75
vt 0.5625 0.25
vt 0.5 0.25
vt 0.5 0.75
vt 0.5 0.75
vt 0.5 0.25
vt 0.5625 0.25
vt 0.5625 0.75
vt 0.5625 0.25
vt 0.5625 0.75
vt 0.5 0.75
vt 0.5 0.25
vt 0.5 0.25
vt 0.5 0.75
vt 0.5625 0.75
vt 0.5625 0.25
vt 0.5625 0.25
vt 0.5625 0.3125
vt 0.5 0.3125
vt 0.5 0.25
vt 0.5 0.25
vt 0.5 0.3125
vt 0.5625 0.3125
vt 0.5625 0.25
vt 0.5625 0.25
vt 0.5625 0.3125
vt 0.5 0.3125
vt 0.5 0.25
vt 0.5625 0.25
vt 0.5625 0.3125
vt 0.5 0.3125
vt 0.5 0.25
vt 0.375 0
vt 0.375 0.125
vt 0 0.125
vt 0 0
vt 0 0.125
vt 0 0
vt 0.375 0
vt 0.375 0.125
vt 0 0.125
vt 0 0
vt 0.375 0
vt 0.375 0.125
vt 0.375 0
vt 0.375 0.125
vt 0 0.125
vt 0 0
vt 0.375 0.375
vt 0 0.375
vt 0 0
vt 0.375 0
vt 0.375 0.375
vt 0 0.375
vt 0 0
vt 0.375 0
vt 0.53125 0.8125
vt 0.53125 0.75
vt 0.710938125 0.75
vt 0.710938125 0.8125
vt 0 0
vt 0 0
vt 0 0
vt 0.710938125 0.75
vt 0.710938125 0.8125
vt 0.53125 0.8125
vt 0.53125 0.75
vt 0.53125 0.8125
vt 0.53125 0.75
vt 0.710938125 0.75
vt 0.710938125 0.8125
vt 0.710938125 0.9375
vt 0.710938125 1
vt 0.53125 1
vt 0.53125 0.9375
vt 0 0
vt 0 0
vt 0 0
vt 0.53125 1
vt 0.53125 0.9375
vt 0.710938125 0.9375
vt 0.710938125 1
vt 0.710938125 0.9375
vt 0.710938125 1
vt 0.53125 1
vt 0.53125 0.9375
vt 0.53125 0.875
vt 0.53125 0.8125
vt 0.710938125 0.8125
vt 0.710938125 0.875
vt 0.710938125 0.8125
vt 0.710938125 0.875
vt 0.53125 0.875
vt 0.53125 0.8125
vt 0.25 0.5625
vt 0.25 0.4375
vt 0.3125 0.4375
vt 0.3125 0.5625
vt 0.25 0.5625
vt 0.25 0.4375
vt 0.375 0.4375
vt 0.375 0.5625
vt 0.3125 0.5625
vt 0.3125 0.4375
vt 0.375 0.4375
vt 0.375 0.5625
vt 0.375 0.25
vt 0.375 0.125
vt 0.5 0.125
vt 0.5 0.25
vt 0.25 0.5
vt 0.375 0.5
vt 0.375 0.5625
vt 0.25 0.5625
vt 0.59375 0.75
vt 0.59375 0.25
vt 0.640625 0.25
vt 0.640625 0.75
vt 0.59375 0.75
vt 0.59375 0.25
vt 0.640625 0.25
vt 0.640625 0.75
vt 0.640625 0.75
vt 0.640625 0.25
vt 0.59375 0.25
vt 0.59375 0.75
vt 0.59375 0.75
vt 0.59375 0.25
vt 0.640625 0.25
vt 0.640625 0.75
vt 0.5625 0.3125
vt 0.5625 0.75
vt 0.59375 0.75
vt 0.59375 0.3125
vt 0.5625 0.3125
vt 0.5625 0.75
vt 0.59375 0.75
vt 0.59375 0.3125
vt 0.59375 0.3125
vt 0.59375 0.75
vt 0.5625 0.75
vt 0.5625 0.3125
vt 0.59375 0.3125
vt 0.59375 0.75
vt 0.5625 0.75
vt 0.5625 0.3125
vt 0.460938125 0.84375
vt 0.460938125 0.90625
vt 0.414061875 0.90625
vt 0.414061875 0.84375
vt 0.460938125 0.84375
vt 0.460938125 0.90625
vt 0.414061875 0.90625
vt 0.414061875 0.84375
vt 0.59375 0.3125
vt 0.59375 0.75
vt 0.5625 0.75
vt 0.5625 0.3125
vt 0.375 0.4375
vt 0.25 0.4375
vt 0.25 0.375
vt 0.375 0.375
vt 0.460938125 0.8125
vt 0.460938125 0.9375
vt 0.414061875 0.9375
vt 0.414061875 0.8125
vt 0.5625 0.3125
vt 0.5625 0.75
vt 0.59375 0.75
vt 0.59375 0.3125
vt 0.59375 0.3125
vt 0.59375 0.75
vt 0.5625 0.75
vt 0.5625 0.3125
vt 0.25 0.375
vt 0.375 0.375
vt 0.375 0.4375
vt 0.25 0.4375
vt 0.414061875 0.9375
vt 0.414061875 0.8125
vt 0.460938125 0.8125
vt 0.460938125 0.9375
vt 0.59375 0.3125
vt 0.59375 0.75
vt 0.5625 0.75
vt 0.5625 0.3125
vt 0.5625 0.3125
vt 0.5625 0.75
vt 0.59375 0.75
vt 0.59375 0.3125
vt 0.5625 0.3125
vt 0.5625 0.75
vt 0.59375 0.75
vt 0.59375 0.3125
vt 0.59375 0.3125
vt 0.59375 0.75
vt 0.5625 0.75
vt 0.5625 0.3125
vt 0.59375 0.3125
vt 0.59375 0.75
vt 0.5625 0.75
vt 0.5625 0.3125
vt 0.5625 0.3125
vt 0.5625 0.75
vt 0.59375 0.75
vt 0.59375 0.3125
vt 0.59375 0.3125
vt 0.59375 0.75
vt 0.5625 0.75
vt 0.5625 0.3125
vt 0.59375 0.3125
vt 0.59375 0.75
vt 0.5625 0.75
vt 0.5625 0.3125
vt 0.414061875 0.9375
vt 0.414061875 0.8125
vt 0.460938125 0.8125
vt 0.460938125 0.9375
vt 0.59375 0.3125
vt 0.59375 0.75
vt 0.5625 0.75
vt 0.5625 0.3125
vt 0.5625 0.3125
vt 0.5625 0.75
vt 0.59375 0.75
vt 0.59375 0.3125
vt 0.5625 0.3125
vt 0.5625 0.75
vt 0.59375 0.75
vt 0.59375 0.3125
vt 0.59375 0.3125
vt 0.59375 0.75
vt 0.5625 0.75
vt 0.5625 0.3125
vt 0.5625 0.3125
vt 0.5625 0.75
vt 0.59375 0.75
vt 0.59375 0.3125
vt 0.59375 0.3125
vt 0.59375 0.75
vt 0.5625 0.75
vt 0.5625 0.3125
vt 0.5625 0.3125
vt 0.5625 0.75
vt 0.59375 0.75
vt 0.59375 0.3125
vt 0.59375 0.3125
vt 0.59375 0.75
vt 0.5625 0.75
vt 0.5625 0.3125
vt 0.59375 0.3125
vt 0.59375 0.75
vt 0.5625 0.75
vt 0.5625 0.3125
vt 0.5625 0.3125
vt 0.5625 0.75
vt 0.59375 0.75
vt 0.59375 0.3125
vt 0.460938125 0.84375
vt 0.460938125 0.90625
vt 0.414061875 0.90625
vt 0.414061875 0.84375
vt 0.460938125 0.84375
vt 0.460938125 0.90625
vt 0.414061875 0.90625
vt 0.414061875 0.84375
vt 0.375 0.4375
vt 0.25 0.4375
vt 0.25 0.375
vt 0.375 0.375
vt 0.59375 0.3125
vt 0.59375 0.75
vt 0.5625 0.75
vt 0.5625 0.3125
vt 0.59375 0.3125
vt 0.59375 0.75
vt 0.5625 0.75
vt 0.5625 0.3125
vt 0.460938125 0.8125
vt 0.460938125 0.9375
vt 0.414061875 0.9375
vt 0.414061875 0.8125
vt 0.25 0.375
vt 0.375 0.375
vt 0.375 0.4375
vt 0.25 0.4375
vt 0.5625 0.3125
vt 0.5625 0.75
vt 0.59375 0.75
vt 0.59375 0.3125
vt 0.59375 0.3125
vt 0.59375 0.75
vt 0.5625 0.75
vt 0.5625 0.3125
vt 0.5625 0.3125
vt 0.5625 0.75
vt 0.59375 0.75
vt 0.59375 0.3125
vt 0.59375 0.3125
vt 0.59375 0.75
vt 0.5625 0.75
vt 0.5625 0.3125
vt 0.5625 0.3125
vt 0.5625 0.75
vt 0.59375 0.75
vt 0.59375 0.3125
vt 0.414061875 0.9375
vt 0.414061875 0.8125
vt 0.460938125 0.8125
vt 0.460938125 0.9375
vt 0.25 0.375
vt 0.375 0.375
vt 0.375 0.4375
vt 0.25 0.4375
vt 0.460938125 0.8125
vt 0.460938125 0.9375
vt 0.414061875 0.9375
vt 0.414061875 0.8125
vt 0.375 0.4375
vt 0.25 0.4375
vt 0.25 0.375
vt 0.375 0.375
vt 0.460938125 0.84375
vt 0.460938125 0.90625
vt 0.414061875 0.90625
vt 0.414061875 0.84375
vt 0.460938125 0.84375
vt 0.460938125 0.90625
vt 0.414061875 0.90625
vt 0.414061875 0.84375
vt 0.59375 0.75
vt 0.59375 0.25
vt 0.640625 0.25
vt 0.640625 0.75
vt 0.59375 0.75
vt 0.59375 0.25
vt 0.640625 0.25
vt 0.640625 0.75
vt 0.640625 0.75
vt 0.640625 0.25
vt 0.59375 0.25
vt 0.59375 0.75
vt 0.59375 0.75
vt 0.59375 0.25
vt 0.640625 0.25
vt 0.640625 0.75
vt 0.59375 0.75
vt 0.59375 0.25
vt 0.640625 0.25
vt 0.640625 0.75
vt 0.59375 0.75
vt 0.59375 0.25
vt 0.640625 0.25
vt 0.640625 0.75
vt 0.640625 0.75
vt 0.640625 0.25
vt 0.59375 0.25
vt 0.59375 0.75
vt 0.59375 0.75
vt 0.59375 0.25
vt 0.640625 0.25
vt 0.640625 0.75
vt 0.59375 0.75
vt 0.59375 0.25
vt 0.640625 0.25
vt 0.640625 0.75
vt 0.59375 0.75
vt 0.59375 0.25
vt 0.640625 0.25
vt 0.640625 0.75
vt 0.640625 0.75
vt 0.640625 0.25
vt 0.59375 0.25
vt 0.59375 0.75
vt 0.59375 0.75
vt 0.59375 0.25
vt 0.640625 0.25
vt 0.640625 0.75
vt 0.59375 0.75
vt 0.59375 0.25
vt 0.640625 0.25
vt 0.640625 0.75
vt 0.59375 0.75
vt 0.59375 0.25
vt 0.640625 0.25
vt 0.640625 0.75
vt 0.640625 0.75
vt 0.640625 0.25
vt 0.59375 0.25
vt 0.59375 0.75
vt 0.59375 0.75
vt 0.59375 0.25
vt 0.640625 0.25
vt 0.640625 0.75
vt 0.59375 0.75
vt 0.59375 0.25
vt 0.640625 0.25
vt 0.640625 0.75
vt 0.59375 0.75
vt 0.59375 0.25
vt 0.640625 0.25
vt 0.640625 0.75
vt 0.640625 0.75
vt 0.640625 0.25
vt 0.59375 0.25
vt 0.59375 0.75
vt 0.59375 0.75
vt 0.59375 0.25
vt 0.640625 0.25
vt 0.640625 0.75
vt 0.59375 0.75
vt 0.59375 0.25
vt 0.640625 0.25
vt 0.640625 0.75
vt 0.59375 0.75
vt 0.59375 0.25
vt 0.640625 0.25
vt 0.640625 0.75
vt 0.640625 0.75
vt 0.640625 0.25
vt 0.59375 0.25
vt 0.59375 0.75
vt 0.59375 0.75
vt 0.59375 0.25
vt 0.640625 0.25
vt 0.640625 0.75
vt 0.59375 0.75
vt 0.59375 0.25
vt 0.640625 0.25
vt 0.640625 0.75
vt 0.59375 0.75
vt 0.59375 0.25
vt 0.640625 0.25
vt 0.640625 0.75
vt 0.640625 0.75
vt 0.640625 0.25
vt 0.59375 0.25
vt 0.59375 0.75
vt 0.59375 0.75
vt 0.59375 0.25
vt 0.640625 0.25
vt 0.640625 0.75
vt 0.59375 0.3125
vt 0.59375 0.75
vt 0.5625 0.75
vt 0.5625 0.3125
vt 0.5625 0.3125
vt 0.5625 0.75
vt 0.59375 0.75
vt 0.59375 0.3125
vt 0.59375 0.3125
vt 0.59375 0.75
vt 0.5625 0.75
vt 0.5625 0.3125
vt 0.5625 0.3125
vt 0.5625 0.75
vt 0.59375 0.75
vt 0.59375 0.3125
vt 0.59375 0.3125
vt 0.59375 0.75
vt 0.5625 0.75
vt 0.5625 0.3125
vt 0.5625 0.3125
vt 0.5625 0.75
vt 0.59375 0.75
vt 0.59375 0.3125
vt 0.59375 0.3125
vt 0.59375 0.75
vt 0.5625 0.75
vt 0.5625 0.3125
vt 0.59375 0.3125
vt 0.59375 0.75
vt 0.5625 0.75
vt 0.5625 0.3125
vt 0.5625 0.3125
vt 0.5625 0.75
vt 0.59375 0.75
vt 0.59375 0.3125
vt 0.59375 0.3125
vt 0.59375 0.75
vt 0.5625 0.75
vt 0.5625 0.3125
vt 0.59375 0.3125
vt 0.59375 0.75
vt 0.5625 0.75
vt 0.5625 0.3125
vt 0.5625 0.3125
vt 0.5625 0.75
vt 0.59375 0.75
vt 0.59375 0.3125
vt 0.59375 0.3125
vt 0.59375 0.75
vt 0.5625 0.75
vt 0.5625 0.3125
vt 0.5625 0.3125
vt 0.5625 0.75
vt 0.59375 0.75
vt 0.59375 0.3125
vt 0.414061875 0.9375
vt 0.414061875 0.8125
vt 0.460938125 0.8125
vt 0.460938125 0.9375
vt 0.25 0.375
vt 0.375 0.375
vt 0.375 0.4375
vt 0.25 0.4375
vt 0.460938125 0.8125
vt 0.460938125 0.9375
vt 0.414061875 0.9375
vt 0.414061875 0.8125
vt 0.375 0.4375
vt 0.25 0.4375
vt 0.25 0.375
vt 0.375 0.375
vt 0.460938125 0.84375
vt 0.460938125 0.90625
vt 0.414061875 0.90625
vt 0.414061875 0.84375
vt 0.460938125 0.84375
vt 0.460938125 0.90625
vt 0.414061875 0.90625
vt 0.414061875 0.84375
vt 0.59375 0.3125
vt 0.59375 0.75
vt 0.5625 0.75
vt 0.5625 0.3125
vt 0.5625 0.3125
vt 0.5625 0.75
vt 0.59375 0.75
vt 0.59375 0.3125
vt 0.59375 0.3125
vt 0.59375 0.75
vt 0.5625 0.75
vt 0.5625 0.3125
vt 0.5625 0.3125
vt 0.5625 0.75
vt 0.59375 0.75
vt 0.59375 0.3125
vt 0.59375 0.3125
vt 0.59375 0.75
vt 0.5625 0.75
vt 0.5625 0.3125
vt 0.59375 0.3125
vt 0.59375 0.75
vt 0.5625 0.75
vt 0.5625 0.3125
vt 0.5625 0.3125
vt 0.5625 0.75
vt 0.59375 0.75
vt 0.59375 0.3125
vt 0.59375 0.3125
vt 0.59375 0.75
vt 0.5625 0.75
vt 0.5625 0.3125
vt 0.59375 0.3125
vt 0.59375 0.75
vt 0.5625 0.75
vt 0.5625 0.3125
vt 0.5625 0.3125
vt 0.5625 0.75
vt 0.59375 0.75
vt 0.59375 0.3125
vt 0.5625 0.75
vt 0.5625 0.25
vt 0.5 0.25
vt 0.5 0.75
vt 0.5 0.75
vt 0.5 0.25
vt 0.5625 0.25
vt 0.5625 0.75
vt 0.5625 0.25
vt 0.5625 0.75
vt 0.5 0.75
vt 0.5 0.25
vt 0.5 0.25
vt 0.5 0.75
vt 0.5625 0.75
vt 0.5625 0.25
vt 0.5625 0.75
vt 0.5625 0.25
vt 0.5 0.25
vt 0.5 0.75
vt 0.5 0.75
vt 0.5 0.25
vt 0.5625 0.25
vt 0.5625 0.75
vt 0.5625 0.25
vt 0.5625 0.75
vt 0.5 0.75
vt 0.5 0.25
vt 0.5 0.25
vt 0.5 0.75
vt 0.5625 0.75
vt 0.5625 0.25
vt 0.5625 0.75
vt 0.5625 0.25
vt 0.5 0.25
vt 0.5 0.75
vt 0.5 0.75
vt 0.5 0.25
vt 0.5625 0.25
vt 0.5625 0.75
vt 0.5625 0.25
vt 0.5625 0.75
vt 0.5 0.75
vt 0.5 0.25
vt 0.5 0.25
vt 0.5 0.75
vt 0.5625 0.75
vt 0.5625 0.25
vt 0.5625 0.75
vt 0.5625 0.25
vt 0.5 0.25
vt 0.5 0.75
vt 0.5 0.75
vt 0.5 0.25
vt 0.5625 0.25
vt 0.5625 0.75
vt 0.5625 0.25
vt 0.5625 0.75
vt 0.5 0.75
vt 0.5 0.25
vt 0.5 0.25
vt 0.5 0.75
vt 0.5625 0.75
vt 0.5625 0.25
vt 0.5625 0.3125
vt 0.5625 0.75
vt 0.59375 0.75
vt 0.59375 0.3125
vt 0.5625 0.3125
vt 0.5625 0.75
vt 0.59375 0.75
vt 0.59375 0.3125
vt 0.5625 0.3125
vt 0.5625 0.75
vt 0.59375 0.75
vt 0.59375 0.3125
vt 0.5625 0.3125
vt 0.5625 0.75
vt 0.59375 0.75
vt 0.59375 0.3125
vt 0.5625 0.3125
vt 0.5625 0.75
vt 0.59375 0.75
vt 0.59375 0.3125
vt 0.5625 0.3125
vt 0.5625 0.75
vt 0.59375 0.75
vt 0.59375 0.3125
vt 0.5625 0.3125
vt 0.5625 0.75
vt 0.59375 0.75
vt 0.59375 0.3125
vt 0.5625 0.3125
vt 0.5625 0.75
vt 0.59375 0.75
vt 0.59375 0.3125
vt 0.375 0.5625
vt 0.375 0.625
vt 0 0.625
vt 0 0.5625
vt 0.375 0.5625
vt 0.375 0.625
vt 0 0.625
vt 0 0.5625
vt 0.25 0.5625
vt 0.25 0.476561875
vt 0.125 0.476561875
vt 0.125 0.5625
vt 0.25 0.5625
vt 0.25 0.476561875
vt 0.125 0.476561875
vt 0.125 0.5625
vt 0.4375 0.75
vt 0.5 0.75
vt 0.5 0.8125
vt 0.492188125 0.8125
vt 0.375 0.75
vt 0.4375 0.75
vt 0.382811875 0.8125
vt 0.375 0.8125
vt 0.375 0.5625
vt 0.375 0.625
vt 0 0.625
vt 0 0.5625
vt 0.25 0.5625
vt 0.25 0.476561875
vt 0.125 0.476561875
vt 0.125 0.5625
vt 0.25 0.5625
vt 0.25 0.476561875
vt 0.125 0.476561875
vt 0.125 0.5625
vt 0.4375 0.75
vt 0.5 0.75
vt 0.5 0.8125
vt 0.492188125 0.8125
vt 0.375 0.75
vt 0.4375 0.75
vt 0.382811875 0.8125
vt 0.375 0.8125
vt 0.25 0.5625
vt 0.25 0.476561875
vt 0.125 0.476561875
vt 0.125 0.5625
vt 0.25 0.5625
vt 0.25 0.476561875
vt 0.125 0.476561875
vt 0.125 0.5625
vt 0.4375 0.75
vt 0.5 0.75
vt 0.5 0.8125
vt 0.492188125 0.8125
vt 0.375 0.75
vt 0.4375 0.75
vt 0.382811875 0.8125
vt 0.375 0.8125
vt 0.25 0.5625
vt 0.25 0.476561875
vt 0.125 0.476561875
vt 0.125 0.5625
vt 0.25 0.5625
vt 0.25 0.476561875
vt 0.125 0.476561875
vt 0.125 0.5625
vt 0.4375 0.75
vt 0.5 0.75
vt 0.5 0.8125
vt 0.492188125 0.8125
vt 0.375 0.75
vt 0.4375 0.75
vt 0.382811875 0.8125
vt 0.375 0.8125
vt 0.375 1
vt 0.375 0.625
vt 0 0.625
vt 0 1
vt 0.375 0.5625
vt 0.375 0.625
vt 0 0.625
vt 0 0.5625
vt 0.5 0.75
vt 0.53125 0.75
vt 0.53125 0.8125
vt 0.5 0.8125
vt 0.5 0.75
vt 0.53125 0.75
vt 0.53125 0.8125
vt 0.5 0.8125
vt 0.5 0.75
vt 0.53125 0.75
vt 0.53125 0.8125
vt 0.5 0.8125
vt 0.5 0.5
vt 0.375 0.5
vt 0.375 0.5625
vt 0.5 0.5625
vt 0.5 0.75
vt 0.53125 0.75
vt 0.53125 0.8125
vt 0.5 0.8125
vt 0.5 0.5625
vt 0.375 0.5625
vt 0.375 0.5
vt 0.5 0.5
vt 0.5 0.5
vt 0.375 0.5
vt 0.375 0.5625
vt 0.5 0.5625
vt 0.5 0.75
vt 0.53125 0.75
vt 0.53125 0.8125
vt 0.5 0.8125
vt 0.5 0.75
vt 0.53125 0.75
vt 0.53125 0.8125
vt 0.5 0.8125
vt 0.710938125 0.75
vt 0.710938125 0.8125
vt 0.53125 0.8125
vt 0.53125 0.75
vt 0.5 0.75
vt 0.53125 0.75
vt 0.53125 0.8125
vt 0.5 0.8125
vt 0.5 0.75
vt 0.53125 0.75
vt 0.53125 0.8125
vt 0.5 0.8125
vt 0.5 0.75
vt 0.53125 0.75
vt 0.53125 0.8125
vt 0.5 0.8125
vt 0.5 0.75
vt 0.53125 0.75
vt 0.53125 0.8125
vt 0.5 0.8125
vt 0.5 0.75
vt 0.53125 0.75
vt 0.53125 0.8125
vt 0.5 0.8125
vt 0.5 0.8125
vt 0.53125 0.8125
vt 0.53125 0.75
vt 0.5 0.75
vt 0.5 0.75
vt 0.5 0.8125
vt 0.53125 0.8125
vt 0.53125 0.75
vt 0.5 0.75
vt 0.53125 0.75
vt 0.53125 0.8125
vt 0.5 0.8125
vt 0.5 0.5
vt 0.375 0.5
vt 0.375 0.5625
vt 0.5 0.5625
vt 0.375 0.625
vt 0 0.625
vt 0 1
vt 0.375 1
vt 0 0.625
vt 0 0.5625
vt 0.375 0.5625
vt 0.375 0.625
vt 0 0.625
vt 0 0.5625
vt 0.375 0.5625
vt 0.375 0.625
vt 0.25 0.5625
vt 0.25 0.476561875
vt 0.125 0.476561875
vt 0.125 0.5625
vt 0.25 0.5625
vt 0.25 0.476561875
vt 0.125 0.476561875
vt 0.125 0.5625
vt 0.4375 1
vt 0.375 1
vt 0.375 0.9375
vt 0.382811875 0.9375
vt 0.5 1
vt 0.4375 1
vt 0.492188125 0.9375
vt 0.5 0.9375
vt 0 0.625
vt 0 0.5625
vt 0.375 0.5625
vt 0.375 0.625
vt 0.25 0.5625
vt 0.25 0.476561875
vt 0.125 0.476561875
vt 0.125 0.5625
vt 0.25 0.5625
vt 0.25 0.476561875
vt 0.125 0.476561875
vt 0.125 0.5625
vt 0.4375 1
vt 0.375 1
vt 0.375 0.9375
vt 0.382811875 0.9375
vt 0.5 1
vt 0.4375 1
vt 0.492188125 0.9375
vt 0.5 0.9375
vt 0.25 0.5625
vt 0.25 0.476561875
vt 0.125 0.476561875
vt 0.125 0.5625
vt 0.25 0.5625
vt 0.25 0.476561875
vt 0.125 0.476561875
vt 0.125 0.5625
vt 0.4375 1
vt 0.375 1
vt 0.375 0.9375
vt 0.382811875 0.9375
vt 0.5 1
vt 0.4375 1
vt 0.492188125 0.9375
vt 0.5 0.9375
vt 0.25 0.5625
vt 0.25 0.476561875
vt 0.125 0.476561875
vt 0.125 0.5625
vt 0.25 0.5625
vt 0.25 0.476561875
vt 0.125 0.476561875
vt 0.125 0.5625
vt 0.4375 1
vt 0.375 1
vt 0.375 0.9375
vt 0.382811875 0.9375
vt 0.5 1
vt 0.4375 1
vt 0.492188125 0.9375
vt 0.5 0.9375
vt 0.375 1
vt 0.375 0.625
vt 0 0.625
vt 0 1
vt 0 0.625
vt 0 0.5625
vt 0.375 0.5625
vt 0.375 0.625
vt 0.5 1
vt 0.53125 1
vt 0.53125 0.9375
vt 0.5 0.9375
vt 0.5 1
vt 0.53125 1
vt 0.53125 0.9375
vt 0.5 0.9375
vt 0.5 1
vt 0.53125 1
vt 0.53125 0.9375
vt 0.5 0.9375
vt 0.53125 1
vt 0.5 1
vt 0.5 0.9375
vt 0.53125 0.9375
vt 0.375 0.75
vt 0.5 0.75
vt 0.5 0.6875
vt 0.375 0.6875
vt 0.5 1
vt 0.53125 1
vt 0.53125 0.9375
vt 0.5 0.9375
vt 0.375 0.6875
vt 0.5 0.6875
vt 0.5 0.75
vt 0.375 0.75
vt 0.375 0.75
vt 0.5 0.75
vt 0.5 0.6875
vt 0.375 0.6875
vt 0.5 1
vt 0.53125 1
vt 0.53125 0.9375
vt 0.5 0.9375
vt 0.5 1
vt 0.53125 1
vt 0.53125 0.9375
vt 0.5 0.9375
vt 0.710938125 0.875
vt 0.710938125 0.9375
vt 0.53125 0.9375
vt 0.53125 0.875
vt 0.5 1
vt 0.53125 1
vt 0.53125 0.9375
vt 0.5 0.9375
vt 0.5 1
vt 0.53125 1
vt 0.53125 0.9375
vt 0.5 0.9375
vt 0.5 1
vt 0.53125 1
vt 0.53125 0.9375
vt 0.5 0.9375
vt 0.5 1
vt 0.53125 1
vt 0.53125 0.9375
vt 0.5 0.9375
vt 0.5 1
vt 0.53125 1
vt 0.53125 0.9375
vt 0.5 0.9375
vt 0.5 1
vt 0.53125 1
vt 0.53125 0.9375
vt 0.5 0.9375
vt 0.53125 1
vt 0.5 1
vt 0.5 0.9375
vt 0.53125 0.9375
vt 0.5 1
vt 0.5 0.9375
vt 0.53125 0.9375
vt 0.53125 1
vt 0.5 1
vt 0.53125 1
vt 0.53125 0.9375
vt 0.5 0.9375
vt 0.375 0.75
vt 0.5 0.75
vt 0.5 0.6875
vt 0.375 0.6875
vt 0.375 0.625
vt 0 0.625
vt 0 1
vt 0.375 1
vt 0.382811875 0.6875
vt 0.382811875 0.5625
vt 0.375 0.5625
vt 0.375 0.6875
vt 0.125 0.5625
vt 0.125 0.4375
vt 0 0.4375
vt 0 0.5625
vt 0.382811875 0.6875
vt 0.382811875 0.5625
vt 0.375 0.5625
vt 0.375 0.6875
vt 0.125 0.5625
vt 0.125 0.4375
vt 0 0.4375
vt 0 0.5625
vt 0.382811875 0.6875
vt 0.382811875 0.5625
vt 0.375 0.5625
vt 0.375 0.6875
vt 0.125 0.5625
vt 0.125 0.4375
vt 0 0.4375
vt 0 0.5625
vt 0.125 0.5625
vt 0.125 0.4375
vt 0 0.4375
vt 0 0.5625
vt 0.382811875 0.6875
vt 0.382811875 0.5625
vt 0.375 0.5625
vt 0.375 0.6875
vt 0.125 0.5625
vt 0.125 0.4375
vt 0 0.4375
vt 0 0.5625
vt 0.382811875 0.6875
vt 0.382811875 0.5625
vt 0.375 0.5625
vt 0.375 0.6875
vt 0.375 0.6875
vt 0.382811875 0.6875
vt 0.382811875 0.5625
vt 0.375 0.5625
vt 0.125 0.5625
vt 0.125 0.4375
vt 0 0.4375
vt 0 0.5625
vt 0.375 0.5625
vt 0.5 0.5625
vt 0.5 0.6875
vt 0.375 0.6875
vt 0.125 0.5625
vt 0.125 0.4375
vt 0 0.4375
vt 0 0.5625
vt 0.382811875 0.6875
vt 0.382811875 0.5625
vt 0.375 0.5625
vt 0.375 0.6875
vt 0.125 0.5625
vt 0.125 0.4375
vt 0 0.4375
vt 0 0.5625
vt 0.382811875 0.6875
vt 0.382811875 0.5625
vt 0.375 0.5625
vt 0.375 0.6875
vt 1 1
vt 1 0
vt 0 0
vt 0 1
vt 0.53125 1
vt 0.53125 0.9375
vt 0.710938125 0.9375
vt 0.710938125 1
vt 0.710938125 0.9375
vt 0.53125 0.9375
vt 0.53125 0.875
vt 0.710938125 0.875
vt 0.53125 0.9375
vt 0.53125 0.875
vt 0.710938125 0.875
vt 0.710938125 0.9375
vt 0.710938125 0.9375
vt 0.53125 0.9375
vt 0.53125 0.875
vt 0.710938125 0.875
vt 0.53125 0.8125
vt 0.710938125 0.8125
vt 0.710938125 0.875
vt 0.53125 0.875
vt 0.53125 0.8125
vt 0.710938125 0.8125
vt 0.710938125 0.875
vt 0.53125 0.875
vt 0.5 0.9375
vt 0.53125 0.9375
vt 0.53125 0.8125
vt 0.5 0.8125
vt 0.5 0.9375
vt 0.53125 0.9375
vt 0.53125 0.8125
vt 0.5 0.8125
vt 0.5 0.9375
vt 0.53125 0.9375
vt 0.53125 0.8125
vt 0.5 0.8125
vt 0.5 0.9375
vt 0.53125 0.9375
vt 0.53125 0.8125
vt 0.5 0.8125
vt 0.5 0.9375
vt 0.53125 0.9375
vt 0.53125 0.8125
vt 0.5 0.8125
vt 0.5 0.9375
vt 0.53125 0.9375
vt 0.53125 0.8125
vt 0.5 0.8125
vt 0.5 0.9375
vt 0.53125 0.9375
vt 0.53125 0.8125
vt 0.5 0.8125
vt 0.375 0.6875
vt 0.5 0.6875
vt 0.5 0.5625
vt 0.375 0.5625
vt 0.5 0.9375
vt 0.53125 0.9375
vt 0.53125 0.8125
vt 0.5 0.8125
vt 0.5 0.9375
vt 0.53125 0.9375
vt 0.53125 0.8125
vt 0.5 0.8125
vt 0.5 0.9375
vt 0.53125 0.9375
vt 0.53125 0.8125
vt 0.5 0.8125
vt 0.5 0.9375
vt 0.53125 0.9375
vt 0.53125 0.8125
vt 0.5 0.8125
vt 0.5 0.9375
vt 0.53125 0.9375
vt 0.53125 0.8125
vt 0.5 0.8125
vt 0.375 0.6875
vt 0.5 0.6875
vt 0.5 0.5625
vt 0.375 0.5625
vt 0.5 0.9375
vt 0.53125 0.9375
vt 0.53125 0.8125
vt 0.5 0.8125
vt 0.5 0.9375
vt 0.53125 0.9375
vt 0.53125 0.8125
vt 0.5 0.8125
vt 0.5 0.9375
vt 0.53125 0.9375
vt 0.53125 0.8125
vt 0.5 0.8125
vt 0.5 0.9375
vt 0.53125 0.9375
vt 0.53125 0.8125
vt 0.5 0.8125
vt 0.375 0.6875
vt 0.5 0.6875
vt 0.5 0.5625
vt 0.375 0.5625
vt 0.5 0.75
vt 0.53125 0.75
vt 0.53125 0.8125
vt 0.5 0.8125
vt 0.5 0.75
vt 0.53125 0.75
vt 0.53125 0.8125
vt 0.5 0.8125
vn 0 0 -1
vn 1 0 0
vn 0 0 1
vn -1 0 0
vn 0 1 0
vn 0 0 -1
vn 1 0 0
vn 0 0 1
vn -1 0 0
vn 0 1 0
vn 0 0 -1
vn 1 0 0
vn 0 0 1
vn -1 0 0
vn 0 1 0
vn 0 0 -1
vn 1 0 0
vn 0 0 1
vn -1 0 0
vn 0 1 0
vn 0 0 -1
vn 1 0 0
vn 0 0 1
vn -1 0 0
vn 0.9999999999871133 0.0000012312752804127808 -0.000004925182083992024
vn -1 0 0
vn 0.000003638061652770388 0.24253126083993518 -0.9701435911771803
vn -0.0000012126579352393305 0.24253158713721676 -0.9701435096104247
vn -0.99999999999994 3.363376210953584e-7 8.408088518319203e-8
vn 0 0.9999999999968752 -0.000002500000000785722
vn 0 -1 0
vn 0.000004244367358424197 -0.24253158713623027 0.9701435096021447
vn 1 0 0
vn 0 0 -1
vn 0.9999999999871135 -0.000001231263562468187 -0.0000049251431317238154
vn 6.063312861030842e-7 -0.2425313016278625 -0.9701435809870246
vn -1 0 0
vn 0 0 1
vn -1 0 0
vn 0.0000012126579352372912 0.2425315871368089 0.9701435096105266
vn 0.9999999999871133 -0.0000012312726588140248 0.000004925179517763807
vn 0.9999999999871134 0.000001231267763067257 0.000004925167854753666
vn 0.0000012126563034848229 0.2425312608417697 0.9701435911827851
vn 0.000003638080097490604 -0.24253122005256197 0.9701436013738276
vn -0.99999999999994 -3.3633679285280375e-7 8.408419821320027e-8
vn 0.0000012126500362998154 -0.24253122005480443 -0.9701436013793306
vn 0.9999999999871135 0.00000123126755972929 -0.000004925158241035594
vn -0.000001212662367289333 0.24253126084176968 -0.9701435911827851
vn 0 0 1
vn 0.0000036380800974906054 -0.24253122005256197 0.9701436013738276
vn 0.9999999999871134 0.0000012312677631219361 0.0000049251678549723866
vn -1 0 0
vn -6.063289676189801e-7 -0.24253158713694267 0.9701435096110615
vn -1 0 0
vn 0.0000012126639980666476 0.24253158713721681 0.9701435096104248
vn 0.9999999999871135 -0.0000012312635625228662 -0.0000049251431319425354
vn -1 0 0
vn 0.000003638061652770388 0.24253126083993518 -0.9701435911771803
vn 6.063312861030843e-7 -0.24253130162786246 -0.9701435809870246
vn -1 0 0
vn 0 0.9999999999968752 -0.000002500000000785722
vn 0 -1 0
vn 1 0 0
vn 0.0000012126579352372912 0.2425315871368089 0.9701435096105266
vn 0.000001212656099552036 -0.2425312200552123 -0.9701436013792286
vn 0 0 -1
vn -1 0 0
vn 0.9999999999871133 -0.0000012312726588687044 0.0000049251795179825286
vn 0.970143519806895 -0.2425315463506114 0.0000012126577313063038
vn 0 0 -1
vn -0.9701435096104246 0.24253158713721676 0.0000012126639980666472
vn -0.000004925167440641264 0.0000012312694195862185 0.9999999999871134
vn -1 0 0
vn 0 0 -1
vn 1 0 0
vn 0 0 1
vn 0 -1 0
vn 0.000002500000000785722 0.9999999999968752 0
vn 0 0 -1
vn 1 0 0
vn 0 0 1
vn -1 0 0
vn 0 0 -1
vn 1 0 0
vn 0 0 1
vn -1 0 0
vn 0 0 -1
vn 1 0 0
vn 0 0 1
vn -1 0 0
vn 0 0 -1
vn 1 0 0
vn 0 0 1
vn -1 0 0
vn 0 0 -1
vn 1 0 0
vn 0 0 1
vn -1 0 0
vn 0 0 -1
vn 1 0 0
vn 0 0 1
vn -1 0 0
vn 0 0 -1
vn 1 0 0
vn 0 0 1
vn -1 0 0
vn 0.9701435096105266 0.24253158713680892 -0.000001212657934744618
vn 0 0 -1
vn -0.9701435605929718 -0.24253138320332995 -0.000001212662978992492
vn -0.000004925155260489998 -0.0000012312665946050127 0.9999999999871135
vn -0.970143550396719 0.24253142398909566 0.0000012126571196064259
vn 0 0 -1
vn 0.9701435503966169 -0.24253142398950356 0.0000012126631829243795
vn 0.0000049251645638336525 -0.0000012312680403767957 0.9999999999871135
vn -0.9701435605930738 -0.24253138320292209 0.000001212701985933345
vn 0 0 -1
vn 0.9701435096104246 0.24253158713721676 -0.000001212663998559323
vn 0.000004925152280167793 0.0000012312656295369267 0.9999999999871135
vn 0.970143519806895 -0.2425315463506114 0.0000012126577313063038
vn 0 0 -1
vn -0.9701435096104246 0.24253158713721676 0.0000012126639980666472
vn -0.000004925167440641264 0.0000012312694195862185 0.9999999999871134
vn -1 0 0
vn 0 0 -1
vn 1 0 0
vn 0 0 1
vn 0 -1 0
vn 0.000002500000000785722 0.9999999999968752 0
vn 0.9701435096106287 0.24253158713640108 -0.0000012126518714832211
vn 8.408087458194385e-8 -3.3633757868858475e-7 -0.99999999999994
vn -0.9701435605929719 -0.24253138320332998 -0.0000012126569156775973
vn -0.000004925155260489998 -0.0000012312665946050127 0.9999999999871135
vn -0.9701435503968209 0.2425314239886878 0.0000012126510563491046
vn 8.408501586659924e-8 3.363365433870297e-7 -0.99999999999994
vn 0.9701435503966169 -0.24253142398950353 0.0000012126571196084649
vn 0.0000049251645638336525 -0.0000012312680403767957 0.9999999999871135
vn -0.9701435605930738 -0.24253138320292209 0.000001212701985933345
vn 0 0 -1
vn 0.9701435096104246 0.24253158713721676 -0.000001212663998559323
vn 0.000004925152280167793 0.0000012312656295369267 0.9999999999871135
vn 0 0 -1
vn 1 0 0
vn 0 0 1
vn -1 0 0
vn 0 1 0
vn 0 0 -1
vn 1 0 0
vn 0 0 1
vn -1 0 0
vn 0 1 0
vn 0 0 -1
vn 1 0 0
vn 0 0 1
vn -1 0 0
vn 0 0 -1
vn 1 0 0
vn 0 0 1
vn -1 0 0
vn 0 1 0
vn 0 0 -1
vn 1 0 0
vn 0 0 1
vn -1 0 0
vn 0 0 -1
vn 1 0 0
vn 0 0 1
vn -1 0 0
vn 0 0 -1
vn 1 0 0
vn 0 0 1
vn -1 0 0
vn 0 0 -1
vn 1 0 0
vn 0 0 1
vn -1 0 0
vn 0 0 -1
vn 1 0 0
vn 0 0 1
vn -1 0 0
vn 0 0 -1
vn 1 0 0
vn 0 0 1
vn -1 0 0
vn 0 -1 0
vn 0 1 0
vn 0.7071063392438426 -0.0000017677658480426829 0.7071072231267667
vn 0 1 0
vn -0.7071065602147462 0.0000017677664005368657 0.7071070021560701
vn -0.7071076650694716 0.0000017677691626736792 -0.7071058973003089
vn 0.7071063392449475 0 -0.7071072231278716
vn 0 0 0
vn -0.7071067811865476 0 -0.7071067811865476
vn -0.7071076650705764 0 0.7071058973014138
vn -0.7071065602155748 8.838826477758903e-7 0.7071070021568988
vn 0.7071067811865476 0 -0.7071067811865476
vn 0 0 -1
vn 1 0 0
vn 0 0 1
vn -1 0 0
vn 0 1 0
vn 0 0 -1
vn 1 0 0
vn 0 0 1
vn -1 0 0
vn 0.9999999999871133 0.000001231271693737516 -0.000004925176537412244
vn -1 0 0
vn 0.000002425358875920179 0.24253142398856065 -0.9701435503945789
vn -0.00000121265630447017 0.24253126084176968 -0.9701435911827851
vn 0 0.9999999999968752 -0.0000025000000007857224
vn 0 -1 0
vn 0.000003638043715870899 -0.24253122005500938 0.9701436013732161
vn 1 0 0
vn 0 -0.0000012499999999517014 -0.9999999999992188
vn 0.9999999999871135 -0.0000012312644609729292 -0.000004925139685538899
vn 0.0000012126639990519994 -0.2425315871372168 -0.9701435096104248
vn -1 0 0
vn 0 0 1
vn 0.0000012126595679767343 0.24253191343217365 0.9701434280380701
vn 0.9999999999871133 -0.000001231273072882696 0.000004925179414018134
vn 0.9999999999871135 0.0000012312685913267727 0.000004925167647697456
vn 0 0.2425314647754609 0.9701435402010722
vn 0.000002425371079333494 -0.2425313016292641 0.9701435809838318
vn -0.9999999999999399 -3.3633773421839145e-7 8.408091346276826e-8
vn 0 -0.24253130163079314 -0.9701435809864812
vn -0.0000012126615521468596 0.24253109769401535 -0.9701436319689295
vn 0 0 1
vn 0.0000024253710793334946 -0.2425313016292641 0.9701435809838319
vn 0.9999999999871135 0.0000012312685913814518 0.000004925167647916177
vn -1 0 0
vn -0.0000012126561005373834 -0.2425312200552124 0.9701436013792287
vn -1 0 0
vn 0 0.24253162792319813 0.9701434994148667
vn -1 0 0
vn 0.000002425358875920179 0.24253142398856065 -0.9701435503945789
vn 0.0000012126639990519996 -0.2425315871372168 -0.9701435096104248
vn -1 0 0
vn 0 0.9999999999968752 -0.0000025000000007857224
vn 0 -1 0
vn 1 0 0
vn 0.0000012126595679767343 0.24253191343217365 0.9701434280380701
vn 0 -0.24253130163079312 -0.9701435809864812
vn 0 -0.0000012499999999517014 -0.9999999999992188
vn -1 0 0
vn 0.9999999999871133 -0.0000012312730729373755 0.000004925179414236857
vn 0.9701435402003289 -0.24253146477843437 0
vn 0 0 -1
vn -0.9701434994148667 0.2425316279231981 0
vn -0.0000023785028493011408 9.519722743318089e-7 0.9999999999967184
vn -1 0 0
vn 0 -0.0000012499999999517014 -0.9999999999992188
vn 1 0 0
vn 0 0.000001249998437453654 0.9999999999992188
vn 0 -1 0
vn 0.000002500000000785722 0.9999999999968752 0
vn 0 -3.12500000002032e-7 -0.9999999999999512
vn 1 0 0
vn 0 3.124999999881542e-7 0.9999999999999512
vn -1 0 0
vn 0 0 -1
vn 1 0 0
vn 0 0 1
vn -1 0 0
vn 0 -3.12500000002032e-7 -0.9999999999999512
vn 1 0 0
vn 0 3.124999999881542e-7 0.9999999999999512
vn -1 0 0
vn 0 -3.124999999881542e-7 -0.9999999999999512
vn 1 0 0
vn 0 3.124999999881542e-7 0.9999999999999512
vn -1 0 0
vn 0 0 -1
vn 1 0 0
vn 0 0 1
vn -1 0 0
vn 0 -3.124999999881542e-7 -0.9999999999999512
vn 1 0 0
vn 0 3.124999999881542e-7 0.9999999999999512
vn -1 0 0
vn 0 0 -1
vn 1 0 0
vn 0 0 1
vn -1 0 0
vn 0.97014350961124 0.24253158713698725 0
vn 8.408087457821037e-8 -3.3633757867364843e-7 -0.99999999999994
vn -0.9701435809864812 -0.24253130163079312 0
vn -0.000002462583642699738 -6.15635020390834e-7 0.9999999999967784
vn -0.970143550396719 0.24253142398909566 0.0000012126571200990994
vn 0 0 -1
vn 0.9701435503966169 -0.24253142398950353 0.0000012126631834170553
vn -0.9701435605930738 -0.24253138320292217 0.0000012127019859333453
vn 0 0 -1
vn 0.9701435096104246 0.24253158713721676 -0.0000012126639990519991
vn 0.9701435402003289 -0.24253146477843437 0
vn 0 0 -1
vn -0.9701434994148667 0.24253162792319813 0
vn -0.000002462583720781875 6.15634709908418e-7 0.9999999999967784
vn -1 0 0
vn 0 0 -1
vn 1 0 0
vn 0 0.000001249998437453654 0.9999999999992188
vn 0 -1 0
vn 0.000002500000000785722 0.9999999999968752 0
vn 0.97014350961124 0.24253158713698725 0
vn 4.204043728910708e-8 -1.681687893368318e-7 -0.999999999999985
vn -0.9701435809864812 -0.24253130163079314 0
vn -0.000002462583643137181 -6.156350205001927e-7 0.9999999999967784
vn -0.970143550396719 0.24253142398909566 0.000001212651056843815
vn 0.9701435503967188 -0.24253142398909566 0.0000012126571200990988
vn 0.000005009246280809367 -8.949306122068052e-7 0.9999999999870534
vn -0.9701435605931757 -0.24253138320251427 0.0000012127019859356395
vn 0.9701435096105266 0.24253158713680892 -0.00000121266399904996
vn 0.000004841067267840859 0.0000015676021587641807 0.9999999999870534
vn 0 0 -1
vn 1 0 0
vn 0 0 1
vn -1 0 0
vn 0 -3.124999999881542e-7 -0.9999999999999512
vn 1 0 0
vn 0 3.12500000002032e-7 0.9999999999999512
vn -1 0 0
vn 0 0 -1
vn 1 0 0
vn 0 0 1
vn -1 0 0
vn 0 -3.124999999881542e-7 -0.9999999999999512
vn 1 0 0
vn 0 3.12500000002032e-7 0.9999999999999512
vn -1 0 0
vn -0.9999999999999399 3.363376210953587e-7 8.408088518319211e-8
vn -1 0 0
vn 0.9999999999871135 0.0000012312671456085236 -0.000004925158344564705
vn 0.9999999999871135 -0.0000012312635625228672 -0.000004925143131942541
vn 0.0000049251523836987425 0.0000012312652154174573 0.9999999999871135
vn 8.408498758574521e-8 3.3633643026479745e-7 -0.9999999999999399
vn 0 0 -1
vn 0.000004925164563833655 -0.0000012312680403767963 0.9999999999871134
vn 1 0 0
vn -1 0 0
vn 0.7525776271031837 0.6585035422712179 0
vn -0.7525757623113737 0.6585056734618577 0
vn 0.0000012500000003957906 -3.1250000010632023e-12 -0.9999999999992188
vn 0 0 -1
vn -2.0833333336228648e-7 -0.0000012500000001737187 0.9999999999991971
vn 4.7035984622413207e-7 0.6585046078684454 -0.7525766947067946
vn 0 0.658504607868518 0.7525766947068778
vn -0.9999999999937501 -0.0000024999968748936368 0.0000024999968748936368
vn -0.9999999999779299 -0.000004374999999737817 -0.000004999999999700362
vn -0.7525757623113737 0.6585056734618577 0
vn 0.7525766947068778 0.658504607868518 0
vn -0.000001250000000173746 3.1250000002161693e-12 0.9999999999992188
vn 0.0000012500000001729983 0.0000010937500001513736 0.9999999999986207
vn 0 0.658504607868518 0.7525766947068778
vn 4.7036043425785697e-7 0.6585046078677792 -0.7525766947073775
vn 0.9999999999968752 -0.0000024999999998975435 0
vn 0.9999999999968262 -3.1249999998717764e-7 -0.0000024999999998974215
vn 0 -1 0
vn 2.083333333994567e-7 0 -0.9999999999999785
vn 0 0 -1
vn 0 0 -1
vn 1 0 0
vn 0.999999999996875 -0.000002499999999897543 0
vn -1 0 0
vn -0.999999999996875 0.000002499999999992188 0
vn 0 0 1
vn -1 0 0
vn 1 0 0
vn 0.7071067811865476 0 -0.7071067811865476
vn 0 0 -1
vn -0.9999999999843752 -0.0000024999999998662935 0.000004999999999732587
vn -1 0 0
vn 1 0 0
vn 1 0 0
vn 0.0000024999999998975435 0 0.9999999999968752
vn 0 0 1
vn 0.0000024999999998975435 0 -0.9999999999968752
vn 0 0.0000012499999999517014 -0.9999999999992188
vn 0 1 0
vn 1 0 0
vn -1 0 0
vn 0.7525776271031835 -0.6585035422712179 0
vn -0.7525757623113737 -0.6585056734618577 0
vn 0 0 1
vn 0 0 1
vn 0 0 -1
vn 0 -0.658504607868518 0.7525766947068778
vn 0 -0.658504607868518 -0.7525766947068779
vn -0.9999999999968752 0 -0.0000024999999998975435
vn -0.9999999999779298 0.000004374999999737815 0.000004999999999700361
vn -0.752576694706545 -0.6585046078682268 9.407208683475676e-7
vn 0.7525766947068778 -0.658504607868518 0
vn 0 0 -1
vn 0 0 -1
vn 0 -0.658504607868518 -0.7525766947068779
vn 0 -0.658504607868518 0.7525766947068778
vn 0.999999999996875 0.000002499999999897543 0
vn 0.9999999999968263 3.124999999871777e-7 0.0000024999999998974215
vn 0 1 0
vn 0 0 1
vn 0.000004999999999732587 -0.0000024999999998662935 0.9999999999843752
vn 0 0 1
vn 0.9999999999843752 -0.0000024999999998662935 -0.000004999999999732587
vn 0 0 -1
vn 1 0 0
vn -1 0 0
vn -0.9999999999992188 0 -0.0000012499999999990237
vn 0 0 -1
vn -1 0 0
vn 1 0 0
vn 0.7071067811865476 0 0.7071067811865476
vn 0.000004999999999732587 -0.0000024999999998662935 0.9999999999843752
vn 0 0 -1
vn -0.9999999999843752 0.000002500006249866293 -0.000004999999999732587
vn -0.9999999999875 0 0.000004999999999748211
vn 0.9999999999875 0 -0.00000500002499987321
vn 1 0 0
vn 0.000004999999999732587 0.0000024999999998662935 -0.9999999999843752
vn 0.000004999999999748211 1.2499999998897307e-11 -0.9999999999875
vn 0 0 1
vn 0 0 1
vn 0 -1 0
vn 1 0 0
vn 0 0 -1
vn 1 0 0
vn 0 0 1
vn -1 0 0
vn 6.249992187549491e-7 0 -0.9999999999998048
vn -6.249992188380936e-7 -6.250000000871171e-7 0.9999999999996094
vn -0.9999999998 1.249999999655358e-11 -0.00001999999999524288
vn 0.9999999999992187 -0.0000012500000000002735 0
vn 0.000010000200004897857 1.2500250006122323e-11 0.999999999949998
vn 0 0 1
vn -1 0 0
vn -0.9999999999992187 -0.0000012499999999990235 0
vn -0.9999999999992187 -0.0000012499999999517014 0
vn 0 0 -1
vn 0.9999999999992188 0.0000012500000000002737 0
vn 0 6.250000001982616e-7 -0.9999999999998048
vn 0 -1 0
vn 0.7071067811854427 0.000001767766952896683 0.7071067811854427
vn -0.7071072231284239 0 0.707106339244395
vn -0.7071067811865476 0 -0.7071067811865476
vn 0.7071063392449475 0 -0.7071072231278716
vn 0.7071070021570368 -8.838832002358342e-7 0.7071065602154367
vn -0.7071067811862715 8.838834764493773e-7 -0.7071067811862712
vn 0 0 1
vn 1 0 0
vn 0 0 1
vn -1 0 0
vn 0 0 -1
vn 1 0 0
vn 0 0 -1
vn 0 -6.24999999999878e-7 0.9999999999998048
vn -0.9999999999992188 -0.0000012499999999517014 0
vn 0.000004999999999744306 0.0000012499999999360764 -0.9999999999867188
vn 0.0000024999999998975435 0 -0.9999999999968752
vn 1 0 0
vn 1 0 0
vn 0.9999999999984375 0.0000012499992187007245 0.0000012499999999507246
vn -1 0 0
vn -0.9999999999992188 -0.0000012499999999517014 0
vn 0 0 1
vn 0 0 1
vn 0 0 -1
vn 0 0 1
vn 0 0 1
usemtl m_3f208791-19ab-0ab0-585d-d9caf03badf0
f 3/1/1 2/2/1 1/3/1 4/4/1
f 6/5/2 5/6/2 2/7/2 3/8/2
f 8/9/3 7/10/3 5/11/3 6/12/3
f 4/13/4 1/14/4 7/15/4 8/16/4
f 4/17/5 8/18/5 6/19/5 3/20/5
f 11/21/6 10/22/6 9/23/6 12/24/6
f 14/25/7 13/26/7 10/27/7 11/28/7
f 16/29/8 15/30/8 13/31/8 14/32/8
f 12/33/9 9/34/9 15/35/9 16/36/9
f 12/37/10 16/38/10 14/39/10 11/40/10
f 19/41/11 18/42/11 17/43/11 20/44/11
f 22/45/12 21/46/12 18/47/12 19/48/12
f 24/49/13 23/50/13 21/51/13 22/52/13
f 20/53/14 17/54/14 23/55/14 24/56/14
f 20/57/15 24/58/15 22/59/15 19/60/15
f 27/61/16 26/62/16 25/63/16 28/64/16
f 30/65/17 29/66/17 26/67/17 27/68/17
f 32/69/18 31/70/18 29/71/18 30/72/18
f 28/73/19 25/74/19 31/75/19 32/76/19
f 28/77/20 32/78/20 30/79/20 27/80/20
f 35/81/21 34/82/21 33/83/21 36/84/21
f 38/85/22 37/86/22 34/87/22 35/88/22
f 40/89/23 39/90/23 37/91/23 38/92/23
f 36/93/24 33/94/24 39/95/24 40/96/24
f 43/97/25 42/98/25 41/99/25 44/100/25
f 47/101/26 46/102/26 45/103/26 48/104/26
f 48/105/27 45/106/27 49/107/27 50/108/27
f 44/109/28 41/110/28 51/111/28 52/112/28
f 52/113/29 51/114/29 53/115/29 54/116/29
f 57/117/30 56/118/30 55/119/30 58/120/30
f 61/121/31 60/122/31 59/123/31 62/124/31
f 54/125/32 53/126/32 42/127/32 43/128/32
f 57/129/33 60/130/33 61/131/33 56/132/33
f 56/133/34 61/134/34 62/135/34 55/136/34
f 65/137/35 64/138/35 63/139/35 66/140/35
f 66/141/36 63/142/36 67/143/36 68/144/36
f 55/145/37 62/146/37 59/147/37 58/148/37
f 58/149/38 59/150/38 60/151/38 57/152/38
f 68/153/39 67/154/39 69/155/39 70/156/39
f 70/157/40 69/158/40 64/159/40 65/160/40
f 50/161/41 49/162/41 71/163/41 72/164/41
f 75/165/42 74/166/42 73/167/42 76/168/42
f 76/169/43 73/170/43 77/171/43 78/172/43
f 72/173/44 71/174/44 46/175/44 47/176/44
f 78/177/45 77/178/45 79/179/45 80/180/45
f 80/181/46 79/182/46 74/183/46 75/184/46
f 83/185/47 82/186/47 81/187/47 84/188/47
f 84/189/48 81/190/48 85/191/48 86/192/48
f 89/193/49 88/194/49 87/195/49 90/196/49
f 93/197/50 92/198/50 91/199/50 94/200/50
f 97/201/51 96/202/51 95/203/51 98/204/51
f 86/205/52 85/206/52 99/207/52 100/208/52
f 100/209/53 99/210/53 82/211/53 83/212/53
f 94/213/54 91/214/54 101/215/54 102/216/54
f 98/217/55 95/218/55 103/219/55 104/220/55
f 107/221/56 106/222/56 105/223/56 108/224/56
f 104/225/57 103/226/57 109/227/57 110/228/57
f 102/229/58 101/230/58 111/231/58 112/232/58
f 108/233/59 105/234/59 113/235/59 114/236/59
f 114/237/60 113/238/60 115/239/60 116/240/60
f 90/241/61 118/242/61 117/243/61 89/244/61
f 119/245/62 87/246/62 88/247/62 120/248/62
f 90/249/63 87/250/63 119/251/63 118/252/63
f 116/253/64 115/254/64 106/255/64 107/256/64
f 110/257/65 109/258/65 96/259/65 97/260/65
f 118/261/66 119/262/66 120/263/66 117/264/66
f 117/265/67 120/266/67 88/267/67 89/268/67
f 112/269/68 111/270/68 92/271/68 93/272/68
f 123/273/69 122/274/69 121/275/69 124/276/69
f 126/277/70 125/278/70 122/279/70 123/280/70
f 128/281/71 127/282/71 125/283/71 126/284/71
f 124/285/72 121/286/72 127/287/72 128/288/72
f 131/289/73 130/290/73 129/291/73 132/292/73
f 134/293/74 133/294/74 130/295/74 131/296/74
f 136/297/75 135/298/75 133/299/75 134/300/75
f 132/301/76 129/302/76 135/303/76 136/304/76
f 135/305/77 129/306/77 130/307/77 133/308/77
f 132/309/78 136/310/78 134/311/78 131/312/78
f 34/313/79 138/314/79 137/315/79 33/316/79
f 37/317/80 139/318/80 138/319/80 34/320/80
f 39/321/81 140/322/81 139/323/81 37/324/81
f 33/325/82 137/326/82 140/327/82 39/328/82
f 143/329/83 142/330/83 141/331/83 144/332/83
f 146/333/84 145/334/84 142/335/84 143/336/84
f 148/337/85 147/338/85 145/339/85 146/340/85
f 144/341/86 141/342/86 147/343/86 148/344/86
f 142/345/87 150/346/87 149/347/87 141/348/87
f 145/349/88 151/350/88 150/351/88 142/352/88
f 147/353/89 152/354/89 151/355/89 145/356/89
f 141/357/90 149/358/90 152/359/90 147/360/90
f 155/361/91 154/362/91 153/363/91 156/364/91
f 158/365/92 157/366/92 154/367/92 155/368/92
f 160/369/93 159/370/93 157/371/93 158/372/93
f 156/373/94 153/374/94 159/375/94 160/376/94
f 154/377/95 162/378/95 161/379/95 153/380/95
f 157/381/96 163/382/96 162/383/96 154/384/96
f 159/385/97 164/386/97 163/387/97 157/388/97
f 153/389/98 161/390/98 164/391/98 159/392/98
f 167/393/99 166/394/99 165/395/99 168/396/99
f 170/397/100 169/398/100 166/399/100 167/400/100
f 172/401/101 171/402/101 169/403/101 170/404/101
f 168/405/102 165/406/102 171/407/102 172/408/102
f 166/409/103 174/410/103 173/411/103 165/412/103
f 169/413/104 175/414/104 174/415/104 166/416/104
f 171/417/105 176/418/105 175/419/105 169/420/105
f 165/421/106 173/422/106 176/423/106 171/424/106
f 179/425/107 178/426/107 177/427/107 180/428/107
f 182/429/108 181/430/108 178/431/108 179/432/108
f 184/433/109 183/434/109 181/435/109 182/436/109
f 180/437/110 177/438/110 183/439/110 184/440/110
f 187/441/111 186/442/111 185/443/111 188/444/111
f 190/445/112 189/446/112 186/447/112 187/448/112
f 192/449/113 191/450/113 189/451/113 190/452/113
f 188/453/114 185/454/114 191/455/114 192/456/114
f 195/457/115 194/458/115 193/459/115 196/460/115
f 198/461/116 197/462/116 194/463/116 195/464/116
f 200/465/117 199/466/117 197/467/117 198/468/117
f 196/469/118 193/470/118 199/471/118 200/472/118
f 203/473/119 202/474/119 201/475/119 204/476/119
f 206/477/120 205/478/120 202/479/120 203/480/120
f 208/481/121 207/482/121 205/483/121 206/484/121
f 204/485/122 201/486/122 207/487/122 208/488/122
f 211/489/123 210/490/123 209/491/123 212/492/123
f 214/493/124 213/494/124 210/495/124 211/496/124
f 216/497/125 215/498/125 213/499/125 214/500/125
f 212/501/126 209/502/126 215/503/126 216/504/126
f 215/505/127 209/506/127 210/507/127 213/508/127
f 212/509/128 216/510/128 214/511/128 211/512/128
f 219/513/129 218/514/129 217/515/129 220/516/129
f 222/517/130 221/518/130 218/519/130 219/520/130
f 224/521/131 223/522/131 221/523/131 222/524/131
f 220/525/132 217/526/132 223/527/132 224/528/132
f 227/529/133 226/530/133 225/531/133 228/532/133
f 230/533/134 229/534/134 226/535/134 227/536/134
f 232/537/135 231/538/135 229/539/135 230/540/135
f 228/541/136 225/542/136 231/543/136 232/544/136
f 235/545/137 234/546/137 233/547/137 236/548/137
f 238/549/138 237/550/138 234/551/138 235/552/138
f 240/553/139 239/554/139 237/555/139 238/556/139
f 236/557/140 233/558/140 239/559/140 240/560/140
f 243/561/141 242/562/141 241/563/141 244/564/141
f 246/565/142 245/566/142 242/567/142 243/568/142
f 248/569/143 247/570/143 245/571/143 246/572/143
f 244/573/144 241/574/144 247/575/144 248/576/144
f 244/577/145 248/578/145 246/579/145 243/580/145
f 251/581/146 250/582/146 249/583/146 252/584/146
f 254/585/147 253/586/147 250/587/147 251/588/147
f 256/589/148 255/590/148 253/591/148 254/592/148
f 252/593/149 249/594/149 255/595/149 256/596/149
f 252/597/150 256/598/150 254/599/150 251/600/150
f 259/601/151 258/602/151 257/603/151 260/604/151
f 262/605/152 261/606/152 258/607/152 259/608/152
f 264/609/153 263/610/153 261/611/153 262/612/153
f 260/613/154 257/614/154 263/615/154 264/616/154
f 267/617/155 266/618/155 265/619/155 268/620/155
f 270/621/156 269/622/156 266/623/156 267/624/156
f 272/625/157 271/626/157 269/627/157 270/628/157
f 268/629/158 265/630/158 271/631/158 272/632/158
f 268/633/159 272/634/159 270/635/159 267/636/159
f 258/637/160 274/638/160 273/639/160 257/640/160
f 261/641/161 275/642/161 274/643/161 258/644/161
f 263/645/162 276/646/162 275/647/162 261/648/162
f 257/649/163 273/650/163 276/651/163 263/652/163
f 274/653/164 278/654/164 277/655/164 273/656/164
f 275/657/165 279/658/165 278/659/165 274/660/165
f 276/661/166 280/662/166 279/663/166 275/664/166
f 273/665/167 277/666/167 280/667/167 276/668/167
f 283/669/168 282/670/168 281/671/168 284/672/168
f 286/673/169 285/674/169 282/675/169 283/676/169
f 288/677/170 287/678/170 285/679/170 286/680/170
f 284/681/171 281/682/171 287/683/171 288/684/171
f 282/685/172 290/686/172 289/687/172 281/688/172
f 285/689/173 291/690/173 290/691/173 282/692/173
f 287/693/174 292/694/174 291/695/174 285/696/174
f 281/697/175 289/698/175 292/699/175 287/700/175
f 290/701/176 294/702/176 293/703/176 289/704/176
f 291/705/177 295/706/177 294/707/177 290/708/177
f 292/709/178 296/710/178 295/711/178 291/712/178
f 289/713/179 293/714/179 296/715/179 292/716/179
f 299/717/180 298/718/180 297/719/180 300/720/180
f 302/721/181 301/722/181 298/723/181 299/724/181
f 304/725/182 303/726/182 301/727/182 302/728/182
f 300/729/183 297/730/183 303/731/183 304/732/183
f 303/733/184 297/734/184 298/735/184 301/736/184
f 300/737/185 304/738/185 302/739/185 299/740/185
f 307/741/186 306/742/186 305/743/186 308/744/186
f 310/745/187 309/746/187 311/747/187
f 314/748/188 313/749/188 312/750/188 315/751/188
f 317/752/189 309/753/189 316/754/189 318/755/189
f 321/756/190 320/757/190 319/758/190 322/759/190
f 324/760/191 323/761/191 325/762/191
f 328/763/192 327/764/192 326/765/192 329/766/192
f 331/767/193 323/768/193 330/769/193 332/770/193
f 333/771/194 312/772/194 313/773/194 334/774/194
f 337/775/195 336/776/195 335/777/195 338/778/195
f 341/779/196 340/780/196 339/781/196 342/782/196
f 344/783/197 343/784/197 340/785/197 341/786/197
f 346/787/198 345/788/198 343/789/198 344/790/198
f 342/791/199 339/792/199 345/793/199 346/794/199
f 342/795/200 346/796/200 344/797/200 341/798/200
f 349/799/201 348/800/201 347/801/201 350/802/201
f 352/803/202 351/804/202 348/805/202 349/806/202
f 354/807/203 353/808/203 351/809/203 352/810/203
f 350/811/204 347/812/204 353/813/204 354/814/204
f 357/815/205 356/816/205 355/817/205 358/818/205
f 361/819/206 360/820/206 359/821/206 362/822/206
f 362/823/207 359/824/207 363/825/207 364/826/207
f 358/827/208 355/828/208 365/829/208 366/830/208
f 369/831/209 368/832/209 367/833/209 370/834/209
f 373/835/210 372/836/210 371/837/210 374/838/210
f 376/839/211 375/840/211 356/841/211 357/842/211
f 369/843/212 372/844/212 373/845/212 368/846/212
f 368/847/213 373/848/213 374/849/213 367/850/213
f 379/851/214 378/852/214 377/853/214 380/854/214
f 380/855/215 377/856/215 381/857/215 382/858/215
f 367/859/216 374/860/216 371/861/216 370/862/216
f 370/863/217 371/864/217 372/865/217 369/866/217
f 384/867/218 383/868/218 378/869/218 379/870/218
f 364/871/219 363/872/219 385/873/219 386/874/219
f 389/875/220 388/876/220 387/877/220 390/878/220
f 390/879/221 387/880/221 391/881/221 392/882/221
f 386/883/222 385/884/222 360/885/222 361/886/222
f 392/887/223 391/888/223 393/889/223 394/890/223
f 394/891/224 393/892/224 388/893/224 389/894/224
f 397/895/225 396/896/225 395/897/225 398/898/225
f 401/899/226 400/900/226 399/901/226 402/902/226
f 405/903/227 404/904/227 403/905/227 406/906/227
f 409/907/228 408/908/228 407/909/228 410/910/228
f 398/911/229 395/912/229 411/913/229 412/914/229
f 412/915/230 411/916/230 413/917/230 414/918/230
f 406/919/231 403/920/231 415/921/231 416/922/231
f 410/923/232 407/924/232 417/925/232 418/926/232
f 418/927/233 417/928/233 419/929/233 420/930/233
f 416/931/234 415/932/234 421/933/234 422/934/234
f 425/935/235 424/936/235 423/937/235 426/938/235
f 426/939/236 423/940/236 427/941/236 428/942/236
f 402/943/237 430/944/237 429/945/237 401/946/237
f 431/947/238 399/948/238 400/949/238 432/950/238
f 402/951/239 399/952/239 431/953/239 430/954/239
f 428/955/240 427/956/240 433/957/240 434/958/240
f 420/959/241 419/960/241 408/961/241 409/962/241
f 430/963/242 431/964/242 432/965/242 429/966/242
f 429/967/243 432/968/243 400/969/243 401/970/243
f 422/971/244 421/972/244 404/973/244 405/974/244
f 437/975/245 436/976/245 435/977/245 438/978/245
f 440/979/246 439/980/246 436/981/246 437/982/246
f 442/983/247 441/984/247 439/985/247 440/986/247
f 438/987/248 435/988/248 441/989/248 442/990/248
f 445/991/249 444/992/249 443/993/249 446/994/249
f 448/995/250 447/996/250 444/997/250 445/998/250
f 450/999/251 449/1000/251 447/1001/251 448/1002/251
f 446/1003/252 443/1004/252 449/1005/252 450/1006/252
f 449/1007/253 443/1008/253 444/1009/253 447/1010/253
f 446/1011/254 450/1012/254 448/1013/254 445/1014/254
f 348/1015/255 35/1016/255 36/1017/255 347/1018/255
f 351/1019/256 38/1020/256 35/1021/256 348/1022/256
f 353/1023/257 40/1024/257 38/1025/257 351/1026/257
f 347/1027/258 36/1028/258 40/1029/258 353/1030/258
f 453/1031/259 452/1032/259 451/1033/259 454/1034/259
f 456/1035/260 455/1036/260 452/1037/260 453/1038/260
f 458/1039/261 457/1040/261 455/1041/261 456/1042/261
f 454/1043/262 451/1044/262 457/1045/262 458/1046/262
f 452/1047/263 143/1048/263 144/1049/263 451/1050/263
f 455/1051/264 146/1052/264 143/1053/264 452/1054/264
f 457/1055/265 148/1056/265 146/1057/265 455/1058/265
f 451/1059/266 144/1060/266 148/1061/266 457/1062/266
f 461/1063/267 460/1064/267 459/1065/267 462/1066/267
f 464/1067/268 463/1068/268 460/1069/268 461/1070/268
f 466/1071/269 465/1072/269 463/1073/269 464/1074/269
f 462/1075/270 459/1076/270 465/1077/270 466/1078/270
f 460/1079/271 155/1080/271 156/1081/271 459/1082/271
f 463/1083/272 158/1084/272 155/1085/272 460/1086/272
f 465/1087/273 160/1088/273 158/1089/273 463/1090/273
f 459/1091/274 156/1092/274 160/1093/274 465/1094/274
f 469/1095/275 468/1096/275 467/1097/275 470/1098/275
f 472/1099/276 471/1100/276 468/1101/276 469/1102/276
f 474/1103/277 473/1104/277 471/1105/277 472/1106/277
f 470/1107/278 467/1108/278 473/1109/278 474/1110/278
f 468/1111/279 167/1112/279 168/1113/279 467/1114/279
f 471/1115/280 170/1116/280 167/1117/280 468/1118/280
f 473/1119/281 172/1120/281 170/1121/281 471/1122/281
f 467/1123/282 168/1124/282 172/1125/282 473/1126/282
f 477/1127/283 476/1128/283 475/1129/283 478/1130/283
f 480/1131/284 479/1132/284 476/1133/284 477/1134/284
f 482/1135/285 481/1136/285 479/1137/285 480/1138/285
f 478/1139/286 475/1140/286 481/1141/286 482/1142/286
f 485/1143/287 484/1144/287 483/1145/287 486/1146/287
f 488/1147/288 487/1148/288 484/1149/288 485/1150/288
f 490/1151/289 489/1152/289 487/1153/289 488/1154/289
f 493/1155/290 492/1156/290 491/1157/290 494/1158/290
f 496/1159/291 495/1160/291 492/1161/291 493/1162/291
f 498/1163/292 497/1164/292 495/1165/292 496/1166/292
f 501/1167/293 500/1168/293 499/1169/293 502/1170/293
f 504/1171/294 503/1172/294 500/1173/294 501/1174/294
f 506/1175/295 505/1176/295 503/1177/295 504/1178/295
f 502/1179/296 499/1180/296 505/1181/296 506/1182/296
f 509/1183/297 508/1184/297 507/1185/297 510/1186/297
f 512/1187/298 511/1188/298 508/1189/298 509/1190/298
f 514/1191/299 513/1192/299 511/1193/299 512/1194/299
f 510/1195/300 507/1196/300 513/1197/300 514/1198/300
f 513/1199/301 507/1200/301 508/1201/301 511/1202/301
f 510/1203/302 514/1204/302 512/1205/302 509/1206/302
f 517/1207/303 516/1208/303 515/1209/303 518/1210/303
f 520/1211/304 519/1212/304 516/1213/304 517/1214/304
f 522/1215/305 521/1216/305 519/1217/305 520/1218/305
f 518/1219/306 515/1220/306 521/1221/306 522/1222/306
f 525/1223/307 524/1224/307 523/1225/307 526/1226/307
f 529/1227/308 528/1228/308 527/1229/308 530/1230/308
f 526/1231/309 523/1232/309 528/1233/309 529/1234/309
f 533/1235/310 532/1236/310 531/1237/310 534/1238/310
f 537/1239/311 536/1240/311 535/1241/311 538/1242/311
f 534/1243/312 531/1244/312 536/1245/312 537/1246/312
f 541/1247/313 540/1248/313 539/1249/313 542/1250/313
f 544/1251/314 543/1252/314 540/1253/314 541/1254/314
f 546/1255/315 545/1256/315 543/1257/315 544/1258/315
f 542/1259/316 539/1260/316 545/1261/316 546/1262/316
f 540/1263/317 259/1264/317 260/1265/317 539/1266/317
f 543/1267/318 262/1268/318 259/1269/318 540/1270/318
f 545/1271/319 264/1272/319 262/1273/319 543/1274/319
f 539/1275/320 260/1276/320 264/1277/320 545/1278/320
f 549/1279/321 548/1280/321 547/1281/321 550/1282/321
f 552/1283/322 551/1284/322 548/1285/322 549/1286/322
f 554/1287/323 553/1288/323 551/1289/323 552/1290/323
f 550/1291/324 547/1292/324 553/1293/324 554/1294/324
f 548/1295/325 283/1296/325 284/1297/325 547/1298/325
f 551/1299/326 286/1300/326 283/1301/326 548/1302/326
f 553/1303/327 288/1304/327 286/1305/327 551/1306/327
f 547/1307/328 284/1308/328 288/1309/328 553/1310/328
f 557/1311/329 556/1312/329 555/1313/329 558/1314/329
f 561/1315/330 560/1316/330 559/1317/330 562/1318/330
f 565/1319/331 564/1320/331 563/1321/331 566/1322/331
f 569/1323/332 568/1324/332 567/1325/332 570/1326/332
f 573/1327/333 572/1328/333 571/1329/333 574/1330/333
f 577/1331/334 576/1332/334 575/1333/334 578/1334/334
f 581/1335/335 580/1336/335 579/1337/335 582/1338/335
f 585/1339/336 584/1340/336 583/1341/336 586/1342/336
f 589/1343/337 588/1344/337 587/1345/337 590/1346/337
f 593/1347/338 592/1348/338 591/1349/338 594/1350/338
f 311/1351/339 596/1352/339 595/1353/339 597/1354/339
f 598/1355/340 311/1356/340 597/1357/340 599/1358/340
f 311/1359/341 309/1360/341 317/1361/341 596/1362/341
f 310/1363/342 311/1364/342 598/1365/342 337/1366/342
f 590/1367/343 587/1368/343 592/1369/343 593/1370/343
f 602/1371/344 601/1372/344 600/1373/344 603/1374/344
f 604/1375/345 602/1376/345 603/1377/345 605/1378/345
f 602/1379/346 315/1380/346 312/1381/346 601/1382/346
f 316/1383/347 602/1384/347 604/1385/347 318/1386/347
f 608/1387/348 607/1388/348 606/1389/348 609/1390/348
f 610/1391/349 608/1392/349 609/1393/349 611/1394/349
f 608/1395/350 306/1396/350 307/1397/350 607/1398/350
f 314/1399/351 608/1400/351 610/1401/351 313/1402/351
f 614/1403/352 613/1404/352 612/1405/352 615/1406/352
f 616/1407/353 614/1408/353 615/1409/353 617/1410/353
f 614/1411/354 618/1412/354 338/1413/354 613/1414/354
f 305/1415/355 614/1416/355 616/1417/355 308/1418/355
f 594/1419/356 589/1420/356 590/1421/356 593/1422/356
f 594/1423/357 591/1424/357 588/1425/357 589/1426/357
f 621/1427/358 620/1428/358 619/1429/358 622/1430/358
f 625/1431/359 624/1432/359 623/1433/359 626/1434/359
f 627/1435/360 625/1436/360 626/1437/360 628/1438/360
f 634/1439/361 633/1440/361 632/1441/361 635/1442/361
f 637/1443/362 631/1444/362 636/1445/362 638/1446/362
f 641/1447/363 640/1448/363 639/1449/363 642/1450/363
f 642/1451/364 634/1452/364 635/1453/364 641/1454/364
f 620/1455/365 644/1456/365 643/1457/365 619/1458/365
f 630/1459/366 646/1460/366 645/1461/366 629/1462/366
f 310/1463/367 337/1464/367 338/1465/367 618/1466/367
f 646/1467/368 637/1468/368 638/1469/368 645/1470/368
f 624/1471/369 743/1472/369 744/1473/369 623/1474/369
f 649/1475/370 648/1476/370 647/1477/370 650/1478/370
f 651/1479/371 621/1480/371 622/1481/371 652/1482/371
f 655/1483/372 654/1484/372 653/1485/372 656/1486/372
f 656/1487/373 647/1488/373 648/1489/373 655/1490/373
f 651/1491/374 652/1492/374 643/1493/374 644/1494/374
f 654/1495/375 649/1496/375 650/1497/375 653/1498/375
f 633/1499/376 639/1500/376 640/1501/376 632/1502/376
f 587/1503/377 588/1504/377 591/1505/377 592/1506/377
f 659/1507/378 658/1508/378 657/1509/378 660/1510/378
f 663/1511/379 662/1512/379 661/1513/379 664/1514/379
f 325/1515/380 666/1516/380 665/1517/380 667/1518/380
f 668/1519/381 325/1520/381 667/1521/381 669/1522/381
f 325/1523/382 323/1524/382 331/1525/382 666/1526/382
f 324/1527/383 325/1528/383 668/1529/383 670/1530/383
f 660/1531/384 657/1532/384 662/1533/384 663/1534/384
f 673/1535/385 672/1536/385 671/1537/385 674/1538/385
f 675/1539/386 673/1540/386 674/1541/386 676/1542/386
f 673/1543/387 329/1544/387 326/1545/387 672/1546/387
f 330/1547/388 673/1548/388 675/1549/388 332/1550/388
f 679/1551/389 678/1552/389 677/1553/389 680/1554/389
f 681/1555/390 679/1556/390 680/1557/390 682/1558/390
f 679/1559/391 320/1560/391 321/1561/391 678/1562/391
f 328/1563/392 679/1564/392 681/1565/392 327/1566/392
f 685/1567/393 684/1568/393 683/1569/393 686/1570/393
f 687/1571/394 685/1572/394 686/1573/394 688/1574/394
f 685/1575/395 690/1576/395 689/1577/395 684/1578/395
f 319/1579/396 685/1580/396 687/1581/396 322/1582/396
f 664/1583/397 659/1584/397 660/1585/397 663/1586/397
f 664/1587/398 661/1588/398 658/1589/398 659/1590/398
f 693/1591/399 692/1592/399 691/1593/399 694/1594/399
f 697/1595/400 696/1596/400 695/1597/400 698/1598/400
f 699/1599/401 697/1600/401 698/1601/401 700/1602/401
f 703/1603/402 702/1604/402 701/1605/402 704/1606/402
f 707/1607/403 706/1608/403 705/1609/403 708/1610/403
f 709/1611/404 703/1612/404 704/1613/404 710/1614/404
f 713/1615/405 712/1616/405 711/1617/405 714/1618/405
f 714/1619/406 707/1620/406 708/1621/406 713/1622/406
f 692/1623/407 716/1624/407 715/1625/407 691/1626/407
f 702/1627/408 718/1628/408 717/1629/408 701/1630/408
f 719/1631/409 689/1632/409 670/1633/409 720/1634/409
f 718/1635/410 709/1636/410 710/1637/410 717/1638/410
f 721/1639/411 699/1640/411 700/1641/411 722/1642/411
f 696/1643/412 721/1644/412 722/1645/412 695/1646/412
f 725/1647/413 724/1648/413 723/1649/413 726/1650/413
f 727/1651/414 693/1652/414 694/1653/414 728/1654/414
f 731/1655/415 730/1656/415 729/1657/415 732/1658/415
f 724/1659/416 731/1660/416 732/1661/416 723/1662/416
f 727/1663/417 728/1664/417 715/1665/417 716/1666/417
f 730/1667/418 725/1668/418 726/1669/418 729/1670/418
f 706/1671/419 711/1672/419 712/1673/419 705/1674/419
f 657/1675/420 658/1676/420 661/1677/420 662/1678/420
f 689/1679/421 308/1680/421 616/1681/421 684/1682/421
f 684/1683/422 616/1684/422 617/1685/422 683/1686/422
f 687/1687/423 613/1688/423 338/1689/423 322/1690/423
f 688/1691/424 612/1692/424 613/1693/424 687/1694/424
f 675/1695/425 601/1696/425 312/1697/425 332/1698/425
f 676/1699/426 600/1700/426 601/1701/426 675/1702/426
f 672/1703/427 604/1704/427 605/1705/427 671/1706/427
f 326/1707/428 318/1708/428 604/1709/428 672/1710/428
f 666/1711/429 610/1712/429 611/1713/429 665/1714/429
f 331/1715/430 313/1716/430 610/1717/430 666/1718/430
f 670/1719/431 668/1720/431 607/1721/431 307/1722/431
f 669/1723/432 606/1724/432 607/1725/432 668/1726/432
f 640/1727/433 641/1728/433 712/1729/433 713/1730/433
f 678/1731/434 598/1732/434 599/1733/434 677/1734/434
f 321/1735/435 337/1736/435 598/1737/435 678/1738/435
f 682/1739/436 595/1740/436 596/1741/436 681/1742/436
f 681/1743/437 596/1744/437 317/1745/437 327/1746/437
f 595/1747/438 640/1748/438 317/1749/438 596/1750/438
f 324/1751/439 670/1752/439 689/1753/439 690/1754/439
f 331/1755/440 332/1756/440 333/1757/440 334/1758/440
f 327/1759/441 734/1760/441 733/1761/441 326/1762/441
f 321/1763/442 322/1764/442 335/1765/442 336/1766/442
f 307/1767/443 308/1768/443 719/1769/443 720/1770/443
f 317/1771/444 318/1772/444 733/1773/444 734/1774/444
f 698/1775/445 695/1776/445 647/1777/445 656/1778/445
f 701/1779/446 717/1780/446 735/1781/446 736/1782/446
f 717/1783/447 710/1784/447 737/1785/447 735/1786/447
f 691/1787/448 715/1788/448 738/1789/448 739/1790/448
f 723/1791/449 732/1792/449 626/1793/449 623/1794/449
f 700/1795/450 698/1796/450 656/1797/450 653/1798/450
f 704/1799/451 701/1800/451 736/1801/451 740/1802/451
f 705/1803/452 712/1804/452 641/1805/452 635/1806/452
f 710/1807/453 704/1808/453 740/1809/453 737/1810/453
f 715/1811/454 728/1812/454 741/1813/454 738/1814/454
f 722/1815/455 700/1816/455 653/1817/455 650/1818/455
f 732/1819/456 729/1820/456 628/1821/456 626/1822/456
f 728/1823/457 694/1824/457 742/1825/457 741/1826/457
f 708/1827/458 705/1828/458 635/1829/458 632/1830/458
f 695/1831/459 722/1832/459 650/1833/459 647/1834/459
f 726/1835/460 723/1836/460 623/1837/460 744/1838/460
f 694/1839/461 691/1840/461 739/1841/461 742/1842/461
f 729/1843/462 726/1844/462 744/1845/462 628/1846/462
f 713/1847/463 708/1848/463 632/1849/463 640/1850/463
f 743/1851/464 627/1852/464 628/1853/464 744/1854/464
f 747/1855/465 746/1856/465 745/1857/465 748/1858/465