# Made in Blockbench 4.12.6
mtllib valve_load.mtl

o Base
v 0 0.25 1
v 0 0 1
v 1 0 1
v 1 0.25 1
v 0.6875 0.9375 0.625
v 0.6875 0.5 0.625
v 0.9375 0.5 0.625
v 0.9375 0.9375 0.625
v 0.9375 0.9375 0.375
v 0.9375 0.5 0.375
v 0.6875 0.5 0.375
v 0.6875 0.9375 0.375
v 0.625 0.5 0.6875
v 0.625 0.25 0.6875
v 1 0.25 0.6875
v 1 0.5 0.6875
v 1 0.5 0.3125
v 1 0.25 0.3125
v 0.625 0.25 0.3125
v 0.625 0.5 0.3125
v 0.625 0.6875 0.6875
v 0.625 0.5625 0.6875
v 1 0.5625 0.6875
v 1 0.6875 0.6875
v 1 0.6875 0.3125
v 1 0.5625 0.3125
v 0.625 0.5625 0.3125
v 0.625 0.6875 0.3125
v 0.71875 1 0.59375
v 0.71875 0.9375 0.59375
v 0.90625 0.9375 0.59375
v 0.90625 1 0.59375
v 0.90625 1 0.40625
v 0.90625 0.9375 0.40625
v 0.71875 0.9375 0.40625
v 0.71875 1 0.40625
v 0.625 0.875 0.6875
v 0.625 0.75 0.6875
v 1 0.75 0.6875
v 1 0.875 0.6875
v 1 0.875 0.3125
v 1 0.75 0.3125
v 0.625 0.75 0.3125
v 0.625 0.875 0.3125
v 0 0.25 0
v 0 0 0
v 1 0 0
v 1 0.25 0
v 0.28125 1 0.40625
v 0.28125 0.9375 0.40625
v 0.09375 0.9375 0.40625
v 0.09375 1 0.40625
v 0.09375 1 0.59375
v 0.28125 1 0.59375
v 0.09375 0.9375 0.59375
v 0.28125 0.9375 0.59375
v 0.3125 0.9375 0.375
v 0.3125 0.5 0.375
v 0.0625 0.5 0.375
v 0.0625 0.9375 0.375
v 0.0625 0.9375 0.625
v 0.3125 0.9375 0.625
v 0.0625 0.5 0.625
v 0.3125 0.5 0.625
v 0.375 0.875 0.3125
v 0.375 0.75 0.3125
v 0 0.75 0.3125
v 0 0.875 0.3125
v 0 0.875 0.6875
v 0.375 0.875 0.6875
v 0 0.75 0.6875
v 0.375 0.75 0.6875
v 0.375 0.6875 0.3125
v 0.375 0.5625 0.3125
v 0 0.5625 0.3125
v 0 0.6875 0.3125
v 0 0.6875 0.6875
v 0.375 0.6875 0.6875
v 0 0.5625 0.6875
v 0.375 0.5625 0.6875
v 0.375 0.5 0.3125
v 0.375 0.25 0.3125
v 0 0.25 0.3125
v 0 0.5 0.3125
v 0 0.5 0.6875
v 0.375 0.5 0.6875
v 0 0.25 0.6875
v 0.375 0.25 0.6875
vt 0 0.25
vt 0 0.125
vt 0.5 0.125
vt 0.5 0.25
vt 0 0.75
vt 0 0.25
vt 0.5 0.25
vt 0.5 0.75
vt 0.5 0.25
vt 0.5 0.75
vt 0 0.75
vt 0 0.25
vt 0.5 0.875
vt 0 0.875
vt 0 0.75
vt 0.5 0.75
vt 0.5 0.75
vt 0.5 0.875
vt 0 0.875
vt 0 0.75
vt 0.5625 0.875
vt 0.5625 0.59375
vt 0.6875 0.59375
vt 0.6875 0.875
vt 0.5625 0.875
vt 0.5625 0.59375
vt 0.6875 0.59375
vt 0.6875 0.875
vt 0.6875 0.875
vt 0.6875 0.75
vt 0.8125 0.75
vt 0.8125 0.875
vt 0.6875 0.875
vt 0.5625 0.875
vt 0.5625 0.59375
vt 0.6875 0.59375
vt 0.6875 0.59375
vt 0.6875 0.875
vt 0.5625 0.875
vt 0.5625 0.59375
vt 0.8125 0.6875
vt 0.8125 0.5625
vt 1 0.5625
vt 1 0.6875
vt 0.8125 0.6875
vt 0.8125 0.5625
vt 1 0.5625
vt 1 0.6875
vt 0.8125 0.875
vt 0.8125 0.6875
vt 1 0.6875
vt 1 0.875
vt 1 0.6875
vt 0.8125 0.6875
vt 0.8125 0.5625
vt 1 0.5625
vt 0.8125 0.6875
vt 0.8125 0.5625
vt 1 0.5625
vt 1 0.6875
vt 0.8125 0.6875
vt 0.8125 0.625
vt 1 0.625
vt 1 0.6875
vt 0.8125 0.6875
vt 0.8125 0.625
vt 1 0.625
vt 1 0.6875
vt 0.8125 0.875
vt 0.8125 0.6875
vt 1 0.6875
vt 1 0.875
vt 1 0.6875
vt 1 0.875
vt 0.8125 0.875
vt 0.8125 0.6875
vt 1.03125 0.6875
vt 0.8125 0.6875
vt 0.8125 0.625
vt 1.03125 0.625
vt 0.8125 0.6875
vt 0.8125 0.625
vt 1 0.625
vt 1 0.6875
vt 0.90578125 0.90578125
vt 0.90578125 0.874375
vt 1 0.874375
vt 1 0.90578125
vt 0.90578125 0.90578125
vt 0.90578125 0.874375
vt 1 0.874375
vt 1 0.90578125
vt 0.71875 1
vt 0.71875 0.90578125
vt 0.81296875 0.90578125
vt 0.81296875 1
vt 0.453125 0.953125
vt 0.40625 0.953125
vt 0.40625 0.9375
vt 0.453125 0.9375
vt 0.90578125 0.90578125
vt 0.90578125 0.874375
vt 1 0.874375
vt 1 0.90578125
vt 0.8125 0.6875
vt 0.8125 0.625
vt 1.03125 0.625
vt 1.03125 0.6875
vt 0.8125 0.6875
vt 0.8125 0.625
vt 1 0.625
vt 1 0.6875
vt 0.8125 0.875
vt 0.8125 0.6875
vt 1 0.6875
vt 1 0.875
vt 1 0.6875
vt 1 0.875
vt 0.8125 0.875
vt 0.8125 0.6875
vt 1 0.6875
vt 0.8125 0.6875
vt 0.8125 0.625
vt 1 0.625
vt 0.8125 0.6875
vt 0.8125 0.625
vt 1 0.625
vt 1 0.6875
vt 0.5 0.125
vt 0 0.125
vt 0 0.25
vt 0.5 0.25
vt 0.5625 0.875
vt 0.5625 0.59375
vt 0.6875 0.59375
vt 0.6875 0.875
vt 0.5625 0.875
vt 0.5625 0.59375
vt 0.6875 0.59375
vt 0.6875 0.875
vt 0.6875 0.875
vt 0.6875 0.75
vt 0.8125 0.75
vt 0.8125 0.875
vt 0.6875 0.875
vt 0.5625 0.875
vt 0.5625 0.59375
vt 0.6875 0.59375
vt 0.6875 0.59375
vt 0.6875 0.875
vt 0.5625 0.875
vt 0.5625 0.59375
vt 0.8125 0.6875
vt 0.8125 0.5625
vt 1 0.5625
vt 1 0.6875
vt 0.8125 0.6875
vt 0.8125 0.5625
vt 1 0.5625
vt 1 0.6875
vt 0.8125 0.875
vt 0.8125 0.6875
vt 1 0.6875
vt 1 0.875
vt 1 0.6875
vt 0.8125 0.6875
vt 0.8125 0.5625
vt 1 0.5625
vt 0.8125 0.6875
vt 0.8125 0.5625
vt 1 0.5625
vt 1 0.6875
vt 0.8125 0.6875
vt 0.8125 0.625
vt 1 0.625
vt 1 0.6875
vt 0.8125 0.6875
vt 0.8125 0.625
vt 1 0.625
vt 1 0.6875
vt 0.8125 0.875
vt 0.8125 0.6875
vt 1 0.6875
vt 1 0.875
vt 1 0.6875
vt 1 0.875
vt 0.8125 0.875
vt 0.8125 0.6875
vt 1 0.6875
vt 0.8125 0.6875
vt 0.8125 0.625
vt 1 0.625
vt 0.8125 0.6875
vt 0.8125 0.625
vt 1 0.625
vt 1 0.6875
vt 0.90578125 0.90578125
vt 0.90578125 0.874375
vt 1 0.874375
vt 1 0.90578125
vt 0.90578125 0.90578125
vt 0.90578125 0.874375
vt 1 0.874375
vt 1 0.90578125
vt 0.71875 1
vt 0.71875 0.90578125
vt 0.81296875 0.90578125
vt 0.81296875 1
vt 0.453125 0.953125
vt 0.40625 0.953125
vt 0.40625 0.9375
vt 0.453125 0.9375
vt 0.90578125 0.90578125
vt 0.90578125 0.90578125
vt 1 0.90578125
vt 1 0.90578125
vt 0.8125 0.6875
vt 0.8125 0.625
vt 1 0.625
vt 1 0.6875
vt 0.8125 0.6875
vt 0.8125 0.625
vt 1 0.625
vt 1 0.6875
vt 0.8125 0.875
vt 0.8125 0.71875
vt 1 0.71875
vt 1 0.875
vt 1 0.6875
vt 1 0.875
vt 0.8125 0.875
vt 0.8125 0.6875
vt 1 0.6875
vt 0.8125 0.6875
vt 0.8125 0.625
vt 1 0.625
vt 0.8125 0.6875
vt 0.8125 0.625
vt 1 0.625
vt 1 0.6875
vn 0 0 1
vn 0 1 0
vn 0 -1 0
vn 1 0 0
vn -1 0 0
vn 0 0 1
vn 0 0 -1
vn 0 1 0
vn 1 0 0
vn -1 0 0
vn 0 0 1
vn 0 0 -1
vn 0 1 0
vn 1 0 0
vn -1 0 0
vn 0 0 1
vn 0 0 -1
vn 0 1 0
vn 0 -1 0
vn 1 0 0
vn -1 0 0
vn 0 0 1
vn 0 0 -1
vn 0 1 0
vn 1 0 0
vn -1 0 0
vn 0 0 1
vn 0 0 -1
vn 0 1 0
vn 0 -1 0
vn 1 0 0
vn -1 0 0
vn 0 0 -1
vn 0 0 1
vn 0 0 -1
vn 0 1 0
vn 1 0 0
vn -1 0 0
vn 0 0 1
vn 0 0 -1
vn 0 1 0
vn 1 0 0
vn -1 0 0
vn 0 0 1
vn 0 0 -1
vn 0 1 0
vn 0 -1 0
vn 1 0 0
vn -1 0 0
vn 0 0 1
vn 0 0 -1
vn 0 1 0
vn 1 0 0
vn -1 0 0
vn 0 0 1
vn 0 0 -1
vn 0 1 0
vn 0 -1 0
vn 1 0 0
vn -1 0 0
usemtl m_fd2d54ab-51e7-f44f-0012-c3831302ff28
f 1/1/1 2/2/1 3/3/1 4/4/1
f 45/5/2 1/6/2 4/7/2 48/8/2
f 2/9/3 46/10/3 47/11/3 3/12/3
f 48/13/4 4/14/4 3/15/4 47/16/4
f 2/17/5 1/18/5 45/19/5 46/20/5
f 5/21/6 6/22/6 7/23/6 8/24/6
f 9/25/7 10/26/7 11/27/7 12/28/7
f 12/29/8 5/30/8 8/31/8 9/32/8
f 9/33/9 8/34/9 7/35/9 10/36/9
f 6/37/10 5/38/10 12/39/10 11/40/10
f 13/41/11 14/42/11 15/43/11 16/44/11
f 17/45/12 18/46/12 19/47/12 20/48/12
f 20/49/13 13/50/13 16/51/13 17/52/13
f 17/53/14 16/54/14 15/55/14 18/56/14
f 20/57/15 19/58/15 14/59/15 13/60/15
f 21/61/16 22/62/16 23/63/16 24/64/16
f 25/65/17 26/66/17 27/67/17 28/68/17
f 28/69/18 21/70/18 24/71/18 25/72/18
f 22/73/19 27/74/19 26/75/19 23/76/19
f 25/77/20 24/78/20 23/79/20 26/80/20
f 28/81/21 27/82/21 22/83/21 21/84/21
f 29/85/22 30/86/22 31/87/22 32/88/22
f 33/89/23 34/90/23 35/91/23 36/92/23
f 36/93/24 29/94/24 32/95/24 33/96/24
f 33/97/25 32/98/25 31/99/25 34/100/25
f 36/101/26 35/102/26 30/103/26 29/104/26
f 37/105/27 38/106/27 39/107/27 40/108/27
f 41/109/28 42/110/28 43/111/28 44/112/28
f 44/113/29 37/114/29 40/115/29 41/116/29
f 38/117/30 43/118/30 42/119/30 39/120/30
f 41/121/31 40/122/31 39/123/31 42/124/31
f 44/125/32 43/126/32 38/127/32 37/128/32
f 47/129/33 46/130/33 45/131/33 48/132/33
f 61/133/34 63/134/34 64/135/34 62/136/34
f 57/137/35 58/138/35 59/139/35 60/140/35
f 60/141/36 61/142/36 62/143/36 57/144/36
f 57/145/37 62/146/37 64/147/37 58/148/37
f 63/149/38 61/150/38 60/151/38 59/152/38
f 85/153/39 87/154/39 88/155/39 86/156/39
f 81/157/40 82/158/40 83/159/40 84/160/40
f 84/161/41 85/162/41 86/163/41 81/164/41
f 81/165/42 86/166/42 88/167/42 82/168/42
f 84/169/43 83/170/43 87/171/43 85/172/43
f 77/173/44 79/174/44 80/175/44 78/176/44
f 73/177/45 74/178/45 75/179/45 76/180/45
f 76/181/46 77/182/46 78/183/46 73/184/46
f 79/185/47 75/186/47 74/187/47 80/188/47
f 73/189/48 78/190/48 80/191/48 74/192/48
f 76/193/49 75/194/49 79/195/49 77/196/49
f 53/197/50 55/198/50 56/199/50 54/200/50
f 49/201/51 50/202/51 51/203/51 52/204/51
f 52/205/52 53/206/52 54/207/52 49/208/52
f 49/209/53 54/210/53 56/211/53 50/212/53
f 52/213/54 51/214/54 55/215/54 53/216/54
f 69/217/55 71/218/55 72/219/55 70/220/55
f 65/221/56 66/222/56 67/223/56 68/224/56
f 68/225/57 69/226/57 70/227/57 65/228/57
f 71/229/58 67/230/58 66/231/58 72/232/58
f 65/233/59 70/234/59 72/235/59 66/236/59
f 68/237/60 67/238/60 71/239/60 69/240/60
o Handle_Open
v 0.5625 0.3125 0.125
v 0.4375 0.3125 0.125
v 0.4375 0.375 0.125
v 0.5625 0.375 0.125
v 0.1875 0.3125 0.125
v 0.1875 0.3125 0.25
v 0.1875 0.375 0.25
v 0.1875 0.375 0.125
v 0.4375 0.3125 0.25
v 0.4375 0.375 0.25
v 0.5625 0.3125 0.25
v 0.5625 0.375 0.25
v 0.4375 0.25 0.125
v 0.5625 0.25 0.125
v 0.5625 0.25 0.25
v 0.4375 0.25 0.25
vt 0.75 0.4375
vt 0.75 0.375
vt 0.71875 0.375
vt 0.71875 0.4375
vt 0.65625 0.1875
vt 0.65625 0.21875
vt 0.71875 0.21875
vt 0.71875 0.1875
vt 0.625 0.21875
vt 0.625 0.375
vt 0.65625 0.375
vt 0.65625 0.21875
vt 0.5625 0.46875
vt 0.5625 0.5
vt 0.625 0.5
vt 0.625 0.46875
vt 0.65625 0.21875
vt 0.65625 0.375
vt 0.71875 0.375
vt 0.71875 0.21875
vt 0.65625 0.21875
vt 0.65625 0.375
vt 0.71875 0.375
vt 0.71875 0.21875
vt 0.5625 0.5
vt 0.5625 0.5625
vt 0.625 0.5625
vt 0.625 0.5
vt 0.78125 0.4375
vt 0.75 0.4375
vt 0.75 0.375
vt 0.78125 0.375
vt 0.65625 0.46875
vt 0.65625 0.4375
vt 0.71875 0.4375
vt 0.71875 0.46875
vt 0.65625 0.4375
vt 0.65625 0.375
vt 0.625 0.375
vt 0.625 0.4375
vt 0.625 0.46875
vt 0.625 0.4375
vt 0.5625 0.4375
vt 0.5625 0.46875
vt 0.75 0.375
vt 0.75 0.21875
vt 0.71875 0.21875
vt 0.71875 0.375
vt 0.65625 0.375
vt 0.65625 0.4375
vt 0.71875 0.4375
vt 0.71875 0.375
vt 0.625 0.375
vt 0.625 0.4375
vt 0.65625 0.4375
vt 0.65625 0.375
vn 0 0 -1
vn -1 0 0
vn 0 0 1
vn 1 0 0
vn 0 -1 0
vn 0 1 0
vn 0 -1 0
vn 0 0 -1
vn -1 0 0
vn 0 0 1
vn 1 0 0
vn 0 0 -1
vn 0 1 0
vn 0 0 1
usemtl m_fd2d54ab-51e7-f44f-0012-c3831302ff28
f 89/241/61 90/242/61 91/243/61 92/244/61
f 93/245/62 94/246/62 95/247/62 96/248/62
f 94/249/63 97/250/63 98/251/63 95/252/63
f 99/253/64 89/254/64 92/255/64 100/256/64
f 93/257/65 90/258/65 97/259/65 94/260/65
f 95/261/66 98/262/66 91/263/66 96/264/66
f 101/265/67 102/266/67 103/267/67 104/268/67
f 89/269/68 102/270/68 101/271/68 90/272/68
f 90/273/69 101/274/69 104/275/69 97/276/69
f 97/277/70 104/278/70 103/279/70 99/280/70
f 99/281/71 103/282/71 102/283/71 89/284/71
f 90/285/72 93/286/72 96/287/72 91/288/72
f 98/289/73 100/290/73 92/291/73 91/292/73
f 97/293/74 99/294/74 100/295/74 98/296/74
o Handle_Closed
v 0.5625 0.3125 0.25
v 0.5625 0.3125 0.125
v 0.5625 0.375 0.125
v 0.5625 0.375 0.25
v 0.5625 0.3125 -0.125
v 0.4375 0.3125 -0.125
v 0.4375 0.375 -0.125
v 0.5625 0.375 -0.125
v 0.4375 0.3125 0.125
v 0.4375 0.375 0.125
v 0.4375 0.3125 0.25
v 0.4375 0.375 0.25
v 0.5625 0.25 0.125
v 0.5625 0.25 0.25
v 0.4375 0.25 0.25
v 0.4375 0.25 0.125
vt 0.75 0.4375
vt 0.75 0.375
vt 0.71875 0.375
vt 0.71875 0.4375
vt 0.65625 0.1875
vt 0.65625 0.21875
vt 0.71875 0.21875
vt 0.71875 0.1875
vt 0.625 0.21875
vt 0.625 0.375
vt 0.65625 0.375
vt 0.65625 0.21875
vt 0.5625 0.46875
vt 0.5625 0.5
vt 0.625 0.5
vt 0.625 0.46875
vt 0.65625 0.21875
vt 0.65625 0.375
vt 0.71875 0.375
vt 0.71875 0.21875
vt 0.65625 0.21875
vt 0.65625 0.375
vt 0.71875 0.375
vt 0.71875 0.21875
vt 0.5625 0.5
vt 0.5625 0.5625
vt 0.625 0.5625
vt 0.625 0.5
vt 0.78125 0.4375
vt 0.75 0.4375
vt 0.75 0.375
vt 0.78125 0.375
vt 0.65625 0.46875
vt 0.65625 0.4375
vt 0.71875 0.4375
vt 0.71875 0.46875
vt 0.65625 0.4375
vt 0.65625 0.375
vt 0.625 0.375
vt 0.625 0.4375
vt 0.625 0.46875
vt 0.625 0.4375
vt 0.5625 0.4375
vt 0.5625 0.46875
vt 0.75 0.375
vt 0.75 0.21875
vt 0.71875 0.21875
vt 0.71875 0.375
vt 0.65625 0.375
vt 0.65625 0.4375
vt 0.71875 0.4375
vt 0.71875 0.375
vt 0.625 0.34375
vt 0.625 0.40625
vt 0.65625 0.40625
vt 0.65625 0.34375
vn 1 0 0
vn 0 0 -1
vn -1 0 0
vn 0 0 1
vn 0 -1 0
vn 0 1 0
vn 0 -1 0
vn 1 0 0
vn 0 0 -1
vn -1 0 0
vn 0 0 1
vn 1 0 0
vn 0 1 0
vn -1 0 0
usemtl m_fd2d54ab-51e7-f44f-0012-c3831302ff28
f 105/297/75 106/298/75 107/299/75 108/300/75
f 109/301/76 110/302/76 111/303/76 112/304/76
f 110/305/77 113/306/77 114/307/77 111/308/77
f 115/309/78 105/310/78 108/311/78 116/312/78
f 109/313/79 106/314/79 113/315/79 110/316/79
f 111/317/80 114/318/80 107/319/80 112/320/80
f 117/321/81 118/322/81 119/323/81 120/324/81
f 105/325/82 118/326/82 117/327/82 106/328/82
f 106/329/83 117/330/83 120/331/83 113/332/83
f 113/333/84 120/334/84 119/335/84 115/336/84
f 115/337/85 119/338/85 118/339/85 105/340/85
f 106/341/86 109/342/86 112/343/86 107/344/86
f 114/345/87 116/346/87 108/347/87 107/348/87
f 113/349/88 115/350/88 116/351/88 114/352/88