# Made in Blockbench 5.0.4
mtllib boiler_tank.mtl

o cube
v -1.25 -0.3203125 0.5625
v -1.25 -0.0703125 0.5625
v 1 -0.0703125 0.5625
v 1 -0.3203125 0.5625
v -1.25 -0.3203125 0.4375
v -1.25 -0.0703125 0.4375
v 1 -0.3203125 0.4375
v 1 -0.0703125 0.4375
v 1 -0.5 0.625
v 1 0.125 0.625
v 1.25 0.125 0.625
v 1.25 -0.5 0.625
v 1 -0.5 0.375
v 1 -0.125 0.375
v 1.25 -0.5 0.375
v 1.25 -0.125 0.375
v -1.5 -0.5 0.625
v -1.5 0.125 0.625
v -1.25 0.125 0.625
v -1.25 -0.5 0.625
v -1.5 -0.5 0.375
v -1.5 -0.125 0.375
v -1.25 -0.5 0.375
v -1.25 -0.125 0.375
v -1.25 -0.3203125 -1.5625
v -1.25 -0.0703125 -1.5625
v 1 -0.0703125 -1.5625
v 1 -0.3203125 -1.5625
v -1.25 -0.3203125 -1.4375
v -1.25 -0.0703125 -1.4375
v 1 -0.3203125 -1.4375
v 1 -0.0703125 -1.4375
v 1 -0.5 -1.625
v 1 0.125 -1.625
v 1.25 0.125 -1.625
v 1.25 -0.5 -1.625
v 1 -0.5 -1.375
v 1 -0.125 -1.375
v 1.25 -0.5 -1.375
v 1.25 -0.125 -1.375
v -1.5 -0.5 -1.625
v -1.5 0.125 -1.625
v -1.25 0.125 -1.625
v -1.25 -0.5 -1.625
v -1.5 -0.5 -1.375
v -1.5 -0.125 -1.375
v -1.25 -0.5 -1.375
v -1.25 -0.125 -1.375
v -1.75 2 -1
v -1.75 1.25 -1.75
v 1.5 1.25 -1.75
v -1.75 2 0
v -1.75 1.25 0.75
v 1.5 1.25 0.75
v -1.75 -0.5 0
v -1.75 0.25 0.75
v 1.5 0.25 0.75
v 1.5 -0.5 0
v -1.75 -0.5 -1
v -1.75 0.25 -1.75
v 1.5 -0.5 -1
v 1.5 0.25 -1.75
v -1.75 1.25 0.75
v 1.5 1.25 0.75
v -1.75 1.25 -1.75
v 1.5 1.25 -1.75
v -1.75 1.25 -1.75
v -1.75 2 0
v -1.75 1.25 0.75
v -1.75 -0.5 0
v -1.75 0.25 0.75
v -1.75 -0.5 -1
v -1.75 0.25 -1.75
v -1.75 1.25 0.75
v -1.75 1.25 -1.75
v 1.5 2 -1
v 1.5 1.25 -1.75
v 1.5 2 0
v 1.5 1.25 0.75
v 1.5 -0.5 0
v 1.5 0.25 0.75
v 1.5 -0.5 -1
v 1.5 0.25 -1.75
v 1.5 1.25 0.75
v 1.5 1.25 -1.75
v 1 2 0
v 1 2 -1
v 1.5 1.5 0
v 1.5 0 0
v 1.5 0 -1
v 1.5 1.5 -1
v 1.5 0.375 0
v 1.875 0.375 0
v 2 0 0
v 2 0 -1
v 1.5 1.125 0
v 1.5 1.125 -1
v 2 2 0
v 2 2 -1
v 1.5 -0.5 0
v 2 -0.5 0
v 1.5 -0.5 -1
v 1.5 0.375 -1
v 1.875 0.375 -1
v 1.875 0.375 0
v 2 0 -1
v 1.875 0.375 -1
v 2 1.5 0
v 1.875 1.125 0
v 1.875 1.125 -1
v 2 1.5 -1
v 2 2 0
v 2 2 -1
v 2 -0.5 -1
v 1.98046875 0.0625 -1
v 1.98046875 0.0625 0
v 1.875 0 0
v 1.875 1.5 0
v 1.5 1.5 0
v 1.5 0 0
v 1.875 0.5 0.5
v 1.875 1 0.5
v 1.5 0.5 0.5
v 1.5 1 0.5
v 1.875 0 -1
v 1.875 1.5 -1
v 1.5 1.5 -1
v 1.5 0 -1
v 1.875 0.5 -1.5
v 1.875 1 -1.5
v 1.5 0.5 -1.5
v 1.5 1 -1.5
v 1.875 0.5 0.5
v 1.875 1 0.5
v 1.875 0.5 -1.5
v 1.875 1 -1.5
v 1.875 0 0
v 1.875 1.5 0
v 1.875 1.5 -1
v 1.875 0 -1
v -2 -0.5 1
v -2 -0.5 -2
v -2 -1 1
v -2 -1 -2
v 2 -0.5 1
v 2 -0.5 -2
v 2 -1 1
v 2 -1 -2
v -0.5 1.0625 -1.75
v -0.5 1.0625 -1.8125
v -0.5 0.4375 -1.75
v -0.5 0.4375 -1.8125
v 0.375 1.0625 -1.75
v 0.375 1.0625 -1.8125
v 0.375 0.4375 -1.75
v 0.375 0.4375 -1.8125
v 0.3125 1.0625 0.75
v 0.3125 1.0625 0.8125
v 0.3125 0.4375 0.75
v 0.3125 0.4375 0.8125
v -0.5625 1.0625 0.75
v -0.5625 1.0625 0.8125
v -0.5625 0.4375 0.75
v -0.5625 0.4375 0.8125
v -2 0.375 0.25
v -2 1.25 0.25
v -1.75 1.25 0.25
v -1.75 0.375 0.25
v -2 0.375 -1.25
v -2 1.25 -1.25
v -1.75 0.375 -1.25
v -1.75 1.25 -1.25
v -2 0.375 0.25
v -2 1.25 0.25
v -2 0.375 -1.25
v -2 1.25 -1.25
v 0 -1 1
v 0 -1 -2
v 0 -0.5 -2
v 0 -0.5 1
vt 0.2986111111111111 0.3472222222222222
vt 0.2986111111111111 0.5972222222222222
vt 0.3263888888888889 0.5972222222222222
vt 0.3263888888888889 0.3472222222222222
vt 0.2986111111111111 0.3472222222222222
vt 0.2986111111111111 0.5972222222222222
vt 0.3263888888888889 0.5972222222222222
vt 0.3263888888888889 0.3472222222222222
vt 0.3125 0.3472222222222222
vt 0.3125 0.5972222222222222
vt 0.3263888888888889 0.5972222222222222
vt 0.3263888888888889 0.3472222222222222
vt 0.3125 0.3472222222222222
vt 0.3125 0.5972222222222222
vt 0.3263888888888889 0.5972222222222222
vt 0.3263888888888889 0.3472222222222222
vt 0.3333333333333333 0.5972222222222222
vt 0.3611111111111111 0.5972222222222222
vt 0.3611111111111111 0.5277777777777778
vt 0.3333333333333333 0.5277777777777778
vt 0.3333333333333333 0.5972222222222222
vt 0.3611111111111111 0.5694444444444444
vt 0.3611111111111111 0.5277777777777778
vt 0.3333333333333333 0.5277777777777778
vt 0.3333333333333333 0.5694444444444444
vt 0.3611111111111111 0.5694444444444444
vt 0.3611111111111111 0.5277777777777778
vt 0.3333333333333333 0.5277777777777778
vt 0.3333333333333333 0.5694444444444444
vt 0.3611111111111111 0.5972222222222222
vt 0.3611111111111111 0.5277777777777778
vt 0.3333333333333333 0.5277777777777778
vt 0.3333333333333333 0.5972222222222222
vt 0.3611111111111111 0.5972222222222222
vt 0.3611111111111111 0.5277777777777778
vt 0.3333333333333333 0.5277777777777778
vt 0.3333333333333333 0.5972222222222222
vt 0.3611111111111111 0.5694444444444444
vt 0.3611111111111111 0.5277777777777778
vt 0.3333333333333333 0.5277777777777778
vt 0.3333333333333333 0.5694444444444444
vt 0.3611111111111111 0.5694444444444444
vt 0.3611111111111111 0.5277777777777778
vt 0.3333333333333333 0.5277777777777778
vt 0.3333333333333333 0.5694444444444444
vt 0.3611111111111111 0.5972222222222222
vt 0.3611111111111111 0.5277777777777778
vt 0.3333333333333333 0.5277777777777778
vt 0.3263888888888889 0.5972222222222222
vt 0.2986111111111111 0.5972222222222222
vt 0.2986111111111111 0.3472222222222222
vt 0.3263888888888889 0.3472222222222222
vt 0.3263888888888889 0.5972222222222222
vt 0.2986111111111111 0.5972222222222222
vt 0.2986111111111111 0.3472222222222222
vt 0.3263888888888889 0.3472222222222222
vt 0.3263888888888889 0.5972222222222222
vt 0.3125 0.5972222222222222
vt 0.3125 0.3472222222222222
vt 0.3263888888888889 0.3472222222222222
vt 0.3263888888888889 0.5972222222222222
vt 0.3125 0.5972222222222222
vt 0.3125 0.3472222222222222
vt 0.3263888888888889 0.3472222222222222
vt 0.3611111111111111 0.5277777777777778
vt 0.3611111111111111 0.5972222222222222
vt 0.3333333333333333 0.5972222222222222
vt 0.3333333333333333 0.5277777777777778
vt 0.3611111111111111 0.5277777777777778
vt 0.3611111111111111 0.5694444444444444
vt 0.3333333333333333 0.5972222222222222
vt 0.3333333333333333 0.5277777777777778
vt 0.5763888888888888 0.7083333333333333
vt 0.5763888888888888 0.75
vt 0.5486111111111112 0.75
vt 0.5486111111111112 0.7083333333333333
vt 0.3611111111111111 0.5277777777777778
vt 0.3611111111111111 0.5972222222222222
vt 0.3333333333333333 0.5694444444444444
vt 0.3333333333333333 0.5277777777777778
vt 0.3611111111111111 0.5277777777777778
vt 0.3611111111111111 0.5972222222222222
vt 0.3333333333333333 0.5972222222222222
vt 0.3333333333333333 0.5277777777777778
vt 0.3611111111111111 0.5277777777777778
vt 0.3611111111111111 0.5694444444444444
vt 0.3333333333333333 0.5972222222222222
vt 0.3333333333333333 0.5277777777777778
vt 0.3611111111111111 0.5277777777777778
vt 0.3611111111111111 0.5694444444444444
vt 0.3333333333333333 0.5694444444444444
vt 0.3333333333333333 0.5277777777777778
vt 0.3611111111111111 0.5277777777777778
vt 0.3611111111111111 0.5972222222222222
vt 0.3333333333333333 0.5694444444444444
vt 0.3333333333333333 0.5277777777777778
vt 0.5486111111111112 0.7638888888888888
vt 0.9097222222222222 0.7638888888888888
vt 0.9097222222222222 0.8819444444444444
vt 0.5486111111111112 0.8819444444444444
vt 0.9097222222222222 0.7638888888888888
vt 0.5486111111111112 0.7638888888888888
vt 0.5486111111111112 0.8819444444444444
vt 0.9097222222222222 0.8819444444444444
vt 0.5486111111111112 0.6527777777777778
vt 0.9097222222222222 0.6527777777777778
vt 0.9097222222222222 0.5347222222222222
vt 0.5486111111111112 0.5347222222222222
vt 0.9097222222222222 0.6527777777777778
vt 0.5486111111111112 0.6527777777777778
vt 0.5486111111111112 0.5347222222222222
vt 0.9097222222222222 0.5347222222222222
vt 0.5486111111111112 0.7638888888888888
vt 0.9097222222222222 0.7638888888888888
vt 0.9097222222222222 0.6527777777777778
vt 0.5486111111111112 0.6527777777777778
vt 0.9097222222222222 0.7638888888888888
vt 0.5486111111111112 0.7638888888888888
vt 0.5486111111111112 0.6527777777777778
vt 0.9097222222222222 0.6527777777777778
vt 0.2777777777777778 0.5138888888888888
vt 0 0.5138888888888888
vt 0.08333333333333333 0.5972222222222222
vt 0.19444444444444445 0.5972222222222222
vt 0 0.4027777777777778
vt 0.2777777777777778 0.4027777777777778
vt 0.19444444444444445 0.3194444444444444
vt 0.08333333333333333 0.3194444444444444
vt 0 0.5138888888888888
vt 0.2777777777777778 0.5138888888888888
vt 0.2777777777777778 0.4027777777777778
vt 0 0.4027777777777778
vt 0.08333333333333333 0.3194444444444444
vt 0 0.4027777777777778
vt 0.2777777777777778 0.4027777777777778
vt 0.19444444444444445 0.3194444444444444
vt 0 0.4027777777777778
vt 0 0.5138888888888888
vt 0.2777777777777778 0.5138888888888888
vt 0.2777777777777778 0.4027777777777778
vt 0.9097222222222222 1
vt 0.9097222222222222 0.8888888888888888
vt 0.6041666666666666 0.8888888888888888
vt 0.6041666666666666 1
vt 0.1111111111111111 0.2222222222222222
vt 0.1111111111111111 0.2777777777777778
vt 0.2222222222222222 0.2777777777777778
vt 0.2222222222222222 0.2222222222222222
vt 0.5 0.5277777777777778
vt 0.5416666666666666 0.5277777777777778
vt 0.5416666666666666 0.48611111111111116
vt 0.4861111111111111 0.48611111111111116
vt 0.5416666666666666 0.5972222222222222
vt 0.4861111111111111 0.5972222222222222
vt 0.4861111111111111 0.5555555555555556
vt 0.5277777777777778 0.5555555555555556
vt 0.4861111111111111 0.5972222222222222
vt 0.5416666666666666 0.5972222222222222
vt 0.5277777777777778 0.5555555555555556
vt 0.4861111111111111 0.5555555555555556
vt 0.4444444444444444 0.47916666666666663
vt 0.5 0.47916666666666663
vt 0.5 0.42361111111111116
vt 0.4444444444444444 0.42361111111111116
vt 0.4444444444444444 0.47916666666666663
vt 0.5 0.47916666666666663
vt 0.5 0.42361111111111116
vt 0.4444444444444444 0.42361111111111116
vt 0.3819444444444444 0.5347222222222222
vt 0.4375 0.5347222222222222
vt 0.4375 0.42361111111111116
vt 0.3819444444444444 0.42361111111111116
vt 0.4444444444444444 0.47916666666666663
vt 0.5 0.47916666666666663
vt 0.5 0.42361111111111116
vt 0.4444444444444444 0.42361111111111116
vt 0.4444444444444444 0.47916666666666663
vt 0.5 0.47916666666666663
vt 0.5 0.42361111111111116
vt 0.4444444444444444 0.42361111111111116
vt 0.4861111111111111 0.5277777777777778
vt 0.5277777777777778 0.5277777777777778
vt 0.5416666666666666 0.48611111111111116
vt 0.4861111111111111 0.48611111111111116
vt 0.3819444444444444 0.35416666666666663
vt 0.4930555555555556 0.35416666666666663
vt 0.4930555555555556 0.3125
vt 0.3819444444444444 0.3125
vt 0.3819444444444444 0.41666666666666663
vt 0.4930555555555556 0.41666666666666663
vt 0.4930555555555556 0.36111111111111116
vt 0.3819444444444444 0.36111111111111116
vt 0.3819444444444444 0.375
vt 0.3819444444444444 0.4097222222222222
vt 0.4930555555555556 0.4097222222222222
vt 0.4930555555555556 0.375
vt 0.4930555555555556 0.3125
vt 0.3819444444444444 0.3125
vt 0.3819444444444444 0.3194444444444444
vt 0.4930555555555556 0.3194444444444444
vt 0.3333333333333333 0.4652777777777778
vt 0.375 0.4652777777777778
vt 0.375 0.4097222222222222
vt 0.3333333333333333 0.4097222222222222
vt 0.3333333333333333 0.4305555555555556
vt 0.375 0.4305555555555556
vt 0.375 0.35416666666666663
vt 0.3333333333333333 0.35416666666666663
vt 0.3333333333333333 0.5208333333333333
vt 0.375 0.5208333333333333
vt 0.375 0.4444444444444444
vt 0.3333333333333333 0.4444444444444444
vt 0.375 0.4097222222222222
vt 0.375 0.4652777777777778
vt 0.3333333333333333 0.4652777777777778
vt 0.3333333333333333 0.4097222222222222
vt 0.375 0.35416666666666663
vt 0.375 0.4305555555555556
vt 0.3333333333333333 0.4305555555555556
vt 0.3333333333333333 0.35416666666666663
vt 0.375 0.4444444444444444
vt 0.375 0.5208333333333333
vt 0.3333333333333333 0.5208333333333333
vt 0.3333333333333333 0.4444444444444444
vt 0.16666666666666666 0.20833333333333337
vt 0.2222222222222222 0.1527777777777778
vt 0.2222222222222222 0.09722222222222221
vt 0.16666666666666666 0.04166666666666663
vt 0 0.1527777777777778
vt 0.05555555555555555 0.20833333333333337
vt 0.05555555555555555 0.04166666666666663
vt 0 0.09722222222222221
vt 0.05555555555555555 0.04166666666666663
vt 0.05555555555555555 0.20833333333333337
vt 0.16666666666666666 0.20833333333333337
vt 0.16666666666666666 0.04166666666666663
vt 0.5486111111111112 0.5277777777777778
vt 0.8819444444444444 0.5277777777777778
vt 0.8819444444444444 0.4722222222222222
vt 0.5486111111111112 0.4722222222222222
vt 0 0.2777777777777778
vt 0.3333333333333333 0.2777777777777778
vt 0.3333333333333333 0.2222222222222222
vt 0 0.2222222222222222
vt 0.4444444444444444 0.6041666666666667
vt 0.2222222222222222 0.6041666666666667
vt 0.2222222222222222 0.9375
vt 0.4444444444444444 0.9375
vt 0 0.6041666666666667
vt 0.2222222222222222 0.6041666666666667
vt 0.2222222222222222 0.9375
vt 0 0.9375
vt 0.4444444444444444 0.9444444444444444
vt 0.2222222222222222 0.9444444444444444
vt 0.2222222222222222 1
vt 0.4444444444444444 1
vt 0 1
vt 0.2222222222222222 1
vt 0.2222222222222222 0.9444444444444444
vt 0 0.9444444444444444
vt 0.3680555555555556 0.5972222222222222
vt 0.4791666666666667 0.5972222222222222
vt 0.4791666666666667 0.5416666666666667
vt 0.3680555555555556 0.5416666666666667
vt 0.4652777777777778 0.29861111111111116
vt 0.4583333333333333 0.29861111111111116
vt 0.4583333333333333 0.22916666666666663
vt 0.4652777777777778 0.22916666666666663
vt 0.375 0.29861111111111116
vt 0.3680555555555556 0.29861111111111116
vt 0.3680555555555556 0.22916666666666663
vt 0.375 0.22916666666666663
vt 0.3680555555555556 0.29861111111111116
vt 0.4652777777777778 0.29861111111111116
vt 0.4652777777777778 0.29166666666666663
vt 0.3680555555555556 0.29166666666666663
vt 0.3680555555555556 0.23611111111111116
vt 0.4652777777777778 0.23611111111111116
vt 0.4652777777777778 0.22916666666666663
vt 0.3680555555555556 0.22916666666666663
vt 0.4652777777777778 0.29861111111111116
vt 0.3680555555555556 0.29861111111111116
vt 0.3680555555555556 0.22916666666666663
vt 0.4652777777777778 0.22916666666666663
vt 0.4652777777777778 0.29861111111111116
vt 0.4583333333333333 0.29861111111111116
vt 0.4583333333333333 0.22916666666666663
vt 0.4652777777777778 0.22916666666666663
vt 0.375 0.29861111111111116
vt 0.3680555555555556 0.29861111111111116
vt 0.3680555555555556 0.22916666666666663
vt 0.375 0.22916666666666663
vt 0.3680555555555556 0.29861111111111116
vt 0.4652777777777778 0.29861111111111116
vt 0.4652777777777778 0.29166666666666663
vt 0.3680555555555556 0.29166666666666663
vt 0.3680555555555556 0.23611111111111116
vt 0.4652777777777778 0.23611111111111116
vt 0.4652777777777778 0.22916666666666663
vt 0.3680555555555556 0.22916666666666663
vt 0.4652777777777778 0.29861111111111116
vt 0.3680555555555556 0.29861111111111116
vt 0.3680555555555556 0.22916666666666663
vt 0.4652777777777778 0.22916666666666663
vt 0.19444444444444445 0.5972222222222222
vt 0.2777777777777778 0.5138888888888888
vt 0 0.5138888888888888
vt 0.08333333333333333 0.5972222222222222
vt 0.2986111111111111 0.4444444444444444
vt 0.3263888888888889 0.4444444444444444
vt 0.3263888888888889 0.3472222222222222
vt 0.2986111111111111 0.3472222222222222
vt 0.2986111111111111 0.5972222222222222
vt 0.3263888888888889 0.5972222222222222
vt 0.3263888888888889 0.5
vt 0.2986111111111111 0.5
vt 0.2986111111111111 0.45833333333333337
vt 0.3263888888888889 0.45833333333333337
vt 0.3263888888888889 0.3472222222222222
vt 0.2986111111111111 0.3472222222222222
vt 0.2986111111111111 0.5972222222222222
vt 0.3263888888888889 0.5972222222222222
vt 0.3263888888888889 0.48611111111111116
vt 0.2986111111111111 0.48611111111111116
vt 0.5069444444444444 0.4652777777777778
vt 0.6736111111111112 0.4652777777777778
vt 0.6736111111111112 0.3680555555555556
vt 0.5069444444444444 0.3680555555555556
vt 0.4444444444444444 0.9375
vt 0.2222222222222222 0.9375
vt 0.2222222222222222 0.6041666666666667
vt 0.4444444444444444 0.6041666666666667
vt 0.4444444444444444 0.9444444444444444
vt 0.2222222222222222 0.9444444444444444
vt 0.2222222222222222 1
vt 0.4444444444444444 1
vt 0 0.9375
vt 0.2222222222222222 0.9375
vt 0.2222222222222222 0.6041666666666667
vt 0 0.6041666666666667
vt 0 1
vt 0.2222222222222222 1
vt 0.2222222222222222 0.9444444444444444
vt 0 0.9444444444444444
vn 0 0 1
vn 0 0 -1
vn 0 1 0
vn 0 -1 0
vn 0 0 1
vn -1 0 0
vn 0 0 -1
vn 1 0 0
vn 0 0 1
vn -1 0 0
vn 0 0 -1
vn 1 0 0
vn 0 0 -1
vn 0 0 1
vn 0 1 0
vn 0 -1 0
vn 0 0 -1
vn -1 0 0
vn 0 0 1
vn 1 0 0
vn 0 0 -1
vn -1 0 0
vn 0 0 1
vn 1 0 0
vn 0 0.7071067811865476 -0.7071067811865476
vn 0 0.7071067811865476 0.7071067811865476
vn 0 -0.7071067811865476 0.7071067811865476
vn 0 -0.7071067811865476 -0.7071067811865476
vn 0 0 1
vn 0 0 -1
vn -1 0 0
vn -1 0 0
vn -1 0 0
vn 1 0 0
vn 1 0 0
vn 0 1 0
vn 0 1 0
vn 0 0 1
vn 0 0 1
vn 0 0 -1
vn 0 0 1
vn 0 0 -1
vn 0 1 0
vn 0 0 1
vn 0 0 -1
vn 0 0 -1
vn 0.948683298050514 -0.316227766016838 0
vn 1 0 0
vn 0.9474922789871991 0.3197786441581797 0
vn 0.9544799780350297 0.2982749931359468 0
vn 0 0 1
vn 0 0.7071067811865476 0.7071067811865476
vn 0 -0.7071067811865476 0.7071067811865476
vn 0 0 -1
vn 0 0.7071067811865476 -0.7071067811865476
vn 0 -0.7071067811865476 -0.7071067811865476
vn 1 0 0
vn 1 0 0
vn 1 0 0
vn -1 0 0
vn 1 0 0
vn 0 1 0
vn 0 -1 0
vn 0 0 1
vn 0 0 -1
vn 1 0 0
vn -1 0 0
vn 1 0 0
vn 0 1 0
vn 0 -1 0
vn 0 0 -1
vn 1 0 0
vn -1 0 0
vn 0 1 0
vn 0 -1 0
vn 0 0 1
vn 1 0 0
vn 0 0 -1
vn 0 0 1
vn 0 -1 0
vn 0 1 0
vn -1 0 0
vn 0 -1 0
vn 0 0 -1
vn 0 1 0
vn 0 0 1
usemtl m_9651828f-bcbb-35a5-2e95-c8b2d35f0f40
f 3/1/1 2/2/1 1/3/1 4/4/1
f 6/5/2 8/6/2 7/7/2 5/8/2
f 8/9/3 6/10/3 2/11/3 3/12/3
f 4/13/4 1/14/4 5/15/4 7/16/4
f 11/17/5 10/18/5 9/19/5 12/20/5
f 10/21/6 14/22/6 13/23/6 9/24/6
f 14/25/7 16/26/7 15/27/7 13/28/7
f 16/29/8 11/30/8 12/31/8 15/32/8
f 19/33/9 18/34/9 17/35/9 20/36/9
f 18/37/10 22/38/10 21/39/10 17/40/10
f 22/41/11 24/42/11 23/43/11 21/44/11
f 24/45/12 19/46/12 20/47/12 23/48/12
f 25/49/13 26/50/13 27/51/13 28/52/13
f 31/53/14 32/54/14 30/55/14 29/56/14
f 26/57/15 30/58/15 32/59/15 27/60/15
f 29/61/16 25/62/16 28/63/16 31/64/16
f 33/65/17 34/66/17 35/67/17 36/68/17
f 37/69/18 38/70/18 34/71/18 33/72/18
f 39/73/19 40/74/19 38/75/19 37/76/19
f 36/77/20 35/78/20 40/79/20 39/80/20
f 41/81/21 42/82/21 43/83/21 44/84/21
f 45/85/22 46/86/22 42/87/22 41/88/22
f 47/89/23 48/90/23 46/91/23 45/92/23
f 44/93/24 43/94/24 48/95/24 47/96/24
f 51/97/25 50/98/25 49/99/25 76/100/25
f 53/101/26 54/102/26 78/103/26 52/104/26
f 57/105/27 56/106/27 55/107/27 58/108/27
f 60/109/28 62/110/28 61/111/28 59/112/28
f 64/113/29 63/114/29 56/115/29 57/116/29
f 65/117/30 66/118/30 62/119/30 60/120/30
f 67/121/31 69/122/31 68/123/31 49/124/31
f 71/125/32 73/126/32 72/127/32 70/128/32
f 74/129/33 75/130/33 73/131/33 71/132/33
f 82/133/34 83/134/34 81/135/34 80/136/34
f 83/137/35 85/138/35 84/139/35 81/140/35
f 49/141/36 52/142/36 86/143/36 87/144/36
f 86/145/37 78/146/37 76/147/37 87/148/37
f 93/149/38 92/150/38 89/151/38 94/152/38
f 108/153/39 88/154/39 96/155/39 109/156/39
f 91/157/40 111/158/40 110/159/40 97/160/40
f 98/161/41 78/162/41 88/163/41 108/164/41
f 76/165/42 99/166/42 111/167/42 91/168/42
f 99/169/43 76/170/43 78/171/43 98/172/43
f 94/173/44 89/174/44 100/175/44 101/176/44
f 90/177/45 95/178/45 114/179/45 102/180/45
f 103/181/46 104/182/46 95/183/46 90/184/46
f 111/185/47 108/186/47 109/187/47 110/188/47
f 113/189/48 112/190/48 108/191/48 111/192/48
f 115/193/49 107/194/49 105/195/49 116/196/49
f 94/197/50 106/198/50 115/199/50 116/200/50
f 122/201/51 124/202/51 123/203/51 121/204/51
f 124/205/52 122/206/52 118/207/52 119/208/52
f 120/209/53 117/210/53 121/211/53 123/212/53
f 131/213/54 132/214/54 130/215/54 129/216/54
f 126/217/55 130/218/55 132/219/55 127/220/55
f 129/221/56 125/222/56 128/223/56 131/224/56
f 138/225/57 134/226/57 133/227/57 137/228/57
f 136/229/58 139/230/58 140/231/58 135/232/58
f 140/233/59 139/234/59 138/235/59 137/236/59
f 141/237/60 142/238/60 144/239/60 143/240/60
f 146/241/61 145/242/61 147/243/61 148/244/61
f 141/245/62 180/246/62 179/247/62 142/248/62
f 144/249/63 178/250/63 177/251/63 143/252/63
f 143/253/64 177/254/64 180/255/64 141/256/64
f 142/257/65 179/258/65 178/259/65 144/260/65
f 106/261/66 94/262/66 101/263/66 114/264/66
f 149/265/67 150/266/67 152/267/67 151/268/67
f 154/269/68 153/270/68 155/271/68 156/272/68
f 154/273/69 150/274/69 149/275/69 153/276/69
f 155/277/70 151/278/70 152/279/70 156/280/70
f 150/281/71 154/282/71 156/283/71 152/284/71
f 157/285/72 158/286/72 160/287/72 159/288/72
f 162/289/73 161/290/73 163/291/73 164/292/73
f 162/293/74 158/294/74 157/295/74 161/296/74
f 163/297/75 159/298/75 160/299/75 164/300/75
f 158/301/76 162/302/76 164/303/76 160/304/76
f 78/305/77 79/306/77 77/307/77 76/308/77
f 170/309/78 172/310/78 171/311/78 169/312/78
f 167/313/79 166/314/79 165/315/79 168/316/79
f 168/317/80 165/318/80 169/319/80 171/320/80
f 172/321/81 170/322/81 166/323/81 167/324/81
f 174/325/82 176/326/82 175/327/82 173/328/82
f 147/329/83 177/330/83 178/331/83 148/332/83
f 148/333/84 178/334/84 179/335/84 146/336/84
f 146/337/85 179/338/85 180/339/85 145/340/85
f 145/341/86 180/342/86 177/343/86 147/344/86