# Made in Blockbench 5.1.4
mtllib cooling_tower.mtl

o cube
v -5.0625 1.625 -7
v -5.0625 2 -7
v -2.0625 1.625 -10
v -2.0625 2 -10
v 2.9375 1.625 -10
v 2.9375 2 -10
v 5.9375 1.625 -7
v 5.9375 2 -7
v 5.9375 1.625 -2
v 5.9375 2 -2
v 2.9375 1.625 1
v 2.9375 2 1
v -2.0625 1.625 1
v -2.0625 2 1
v -5.0625 1.625 -2
v -5.0625 2 -2
v -5.0625 1.625 -7
v -2.0625 1.625 -10
v 2.9375 1.625 -10
v 5.9375 1.625 -7
v 5.9375 1.625 -2
v 2.9375 1.625 1
v -2.0625 1.625 1
v -5.0625 1.625 -2
v -5.0625 2 -7
v -2.0625 2 -10
v 2.9375 2 -10
v 5.9375 2 -7
v 5.9375 2 -2
v 2.9375 2 1
v -2.0625 2 1
v -5.0625 2 -2
v -4.9375 1 -6.94140625
v -4.9375 1.625 -6.94140625
v -2.00390625 1 -9.875
v -2.00390625 1.625 -9.875
v 2.87890625 1 -9.875
v 2.87890625 1.625 -9.875
v 5.8125 1 -6.94140625
v 5.8125 1.625 -6.94140625
v 5.8125 1 -2.05859375
v 5.8125 1.625 -2.05859375
v 2.87890625 1 0.875
v 2.87890625 1.625 0.875
v -2.00390625 1 0.875
v -2.00390625 1.625 0.875
v -4.9375 1 -2.05859375
v -4.9375 1.625 -2.05859375
v -5.0625 0 -7
v -5.0625 1 -7
v -2.0625 0 -10
v -2.0625 1 -10
v 2.9375 0 -10
v 2.9375 1 -10
v 5.9375 0 -7
v 5.9375 1 -7
v 5.9375 0 -2
v 5.9375 1 -2
v 2.9375 0 1
v 2.9375 1 1
v -2.0625 0 1
v -2.0625 1 1
v -5.0625 0 -2
v -5.0625 1 -2
v -5.0625 0 -7
v -2.0625 0 -10
v 2.9375 0 -10
v 5.9375 0 -7
v 5.9375 0 -2
v 2.9375 0 1
v -2.0625 0 1
v -5.0625 0 -2
v -5.0625 1 -7
v -2.0625 1 -10
v 2.9375 1 -10
v 5.9375 1 -7
v 5.9375 1 -2
v 2.9375 1 1
v -2.0625 1 1
v -5.0625 1 -2
v -2.0625 0 1
v -2.0625 1 1
v -1.0625 0 1
v -1.0625 1 1
v -1.0625 0 1
v -1.0625 1 1
v -0.0625 0 1
v -0.0625 1 1
v -0.0625 0 1
v -0.0625 1 1
v 0.9375 0 1
v 0.9375 1 1
v 0.9375 0 1
v 0.9375 1 1
v 1.9375 0 1
v 1.9375 1 1
v 1.9375 0 1
v 1.9375 1 1
v 2.9375 0 1
v 2.9375 1 1
v -5.0625 0 -7
v -5.0625 1 -7
v -5.0625 0 -6
v -5.0625 1 -6
v -5.0625 0 -6
v -5.0625 1 -6
v -5.0625 0 -5
v -5.0625 1 -5
v -5.0625 0 -5
v -5.0625 1 -5
v -5.0625 0 -4
v -5.0625 1 -4
v -5.0625 0 -4
v -5.0625 1 -4
v -5.0625 0 -3
v -5.0625 1 -3
v -5.0625 0 -3
v -5.0625 1 -3
v -5.0625 0 -2
v -5.0625 1 -2
v 2.9375 0 -10
v 2.9375 1 -10
v 1.9375 0 -10
v 1.9375 1 -10
v 1.9375 0 -10
v 1.9375 1 -10
v 0.9375 0 -10
v 0.9375 1 -10
v 0.9375 0 -10
v 0.9375 1 -10
v -0.0625 0 -10
v -0.0625 1 -10
v -0.0625 0 -10
v -0.0625 1 -10
v -1.0625 0 -10
v -1.0625 1 -10
v -1.0625 0 -10
v -1.0625 1 -10
v -2.0625 0 -10
v -2.0625 1 -10
v 5.9375 0 -2
v 5.9375 1 -2
v 5.9375 0 -3
v 5.9375 1 -3
v 5.9375 0 -3
v 5.9375 1 -3
v 5.9375 0 -4
v 5.9375 1 -4
v 5.9375 0 -4
v 5.9375 1 -4
v 5.9375 0 -5
v 5.9375 1 -5
v 5.9375 0 -5
v 5.9375 1 -5
v 5.9375 0 -6
v 5.9375 1 -6
v 5.9375 0 -6
v 5.9375 1 -6
v 5.9375 0 -7
v 5.9375 1 -7
v -4.3125 1 -6.66015625
v -4.3125 1.625 -6.66015625
v -1.72265625 1 -9.25
v -1.72265625 1.625 -9.25
v 2.59765625 1 -9.25
v 2.59765625 1.625 -9.25
v 5.1875 1 -6.66015625
v 5.1875 1.625 -6.66015625
v 5.1875 1 -2.33984375
v 5.1875 1.625 -2.33984375
v 2.59765625 1 0.25
v 2.59765625 1.625 0.25
v -1.72265625 1 0.25
v -1.72265625 1.625 0.25
v -4.3125 1 -2.33984375
v -4.3125 1.625 -2.33984375
v -3.125 13.125 -5.9765625
v 5.5625 2 -2.37890625
v 5.5625 2.75 -2.37890625
v 2.55859375 2 0.625
v 2.55859375 2.75 0.625
v 2.27734375 4.5 -0.0625
v 4.875 4.5 -2.66015625
v 1.88671875 9 -1
v 3.9375 9 -3.05078125
v 1.96484375 10.6875 -0.8125
v 4.125 10.6875 -2.97265625
v 2.09375 12.375 -0.5
v 4.4375 12.375 -2.84375
v 2.09375 13.125 -0.5
v 4.4375 13.125 -2.84375
v 2.55859375 2 -9.625
v 2.55859375 2.75 -9.625
v 5.5625 2 -6.62109375
v 5.5625 2.75 -6.62109375
v 4.875 4.5 -6.33984375
v 2.27734375 4.5 -8.9375
v 3.9375 9 -5.94921875
v 1.88671875 9 -8
v 4.125 10.6875 -6.02734375
v 1.96484375 10.6875 -8.1875
v 4.4375 12.375 -6.15625
v 2.09375 12.375 -8.5
v 4.4375 13.125 -6.15625
v 2.09375 13.125 -8.5
v 5.5625 2 -6.62109375
v 5.5625 2.75 -6.62109375
v 5.5625 2 -2.37890625
v 5.5625 2.75 -2.37890625
v 4.875 4.5 -2.66015625
v 4.875 4.5 -6.33984375
v 3.9375 9 -3.05078125
v 3.9375 9 -5.94921875
v 4.125 10.6875 -2.97265625
v 4.125 10.6875 -6.02734375
v 4.4375 12.375 -2.84375
v 4.4375 12.375 -6.15625
v 4.4375 13.125 -2.84375
v 4.4375 13.125 -6.15625
v -1.68359375 2 -9.625
v -1.68359375 2.75 -9.625
v 2.55859375 2 -9.625
v 2.55859375 2.75 -9.625
v 2.27734375 4.5 -8.9375
v -1.40234375 4.5 -8.9375
v 1.88671875 9 -8
v -1.01171875 9 -8
v 1.96484375 10.6875 -8.1875
v -1.08984375 10.6875 -8.1875
v 2.09375 12.375 -8.5
v -1.21875 12.375 -8.5
v 2.09375 13.125 -8.5
v -1.21875 13.125 -8.5
v -4.6875 2 -6.62109375
v -4.6875 2.75 -6.62109375
v -1.68359375 2 -9.625
v -1.68359375 2.75 -9.625
v -1.40234375 4.5 -8.9375
v -4 4.5 -6.33984375
v -1.01171875 9 -8
v -3.0625 9 -5.94921875
v -1.08984375 10.6875 -8.1875
v -3.25 10.6875 -6.02734375
v -1.21875 12.375 -8.5
v -3.5625 12.375 -6.15625
v -1.21875 13.125 -8.5
v -3.5625 13.125 -6.15625
v -1.68359375 2 0.625
v -1.68359375 2.75 0.625
v -4.6875 2 -2.37890625
v -4.6875 2.75 -2.37890625
v -4 4.5 -2.66015625
v -1.40234375 4.5 -0.0625
v -3.0625 9 -3.05078125
v -1.01171875 9 -1
v -3.25 10.6875 -2.97265625
v -1.08984375 10.6875 -0.8125
v -3.5625 12.375 -2.84375
v -1.21875 12.375 -0.5
v -3.5625 13.125 -2.84375
v -1.21875 13.125 -0.5
v -4.6875 2 -2.37890625
v -4.6875 2.75 -2.37890625
v -4.6875 2 -6.62109375
v -4.6875 2.75 -6.62109375
v -4 4.5 -6.33984375
v -4 4.5 -2.66015625
v -3.0625 9 -5.94921875
v -3.0625 9 -3.05078125
v -3.25 10.6875 -6.02734375
v -3.25 10.6875 -2.97265625
v -3.5625 12.375 -6.15625
v -3.5625 12.375 -2.84375
v -3.5625 13.125 -6.15625
v -3.5625 13.125 -2.84375
v 2.55859375 2 0.625
v 2.55859375 2.75 0.625
v -1.68359375 2 0.625
v -1.68359375 2.75 0.625
v -1.40234375 4.5 -0.0625
v 2.27734375 4.5 -0.0625
v -1.01171875 9 -1
v 1.88671875 9 -1
v -1.08984375 10.6875 -0.8125
v 1.96484375 10.6875 -0.8125
v -1.21875 12.375 -0.5
v 2.09375 12.375 -0.5
v -1.21875 13.125 -0.5
v 2.09375 13.125 -0.5
v 1.9140625 13.125 -8.0625
v -1.0390625 13.125 -8.0625
v -3.125 13.125 -3.0234375
v -1.0390625 13.125 -0.9375
v 1.9140625 13.125 -0.9375
v 4 13.125 -3.0234375
v 4 13.125 -5.9765625
v 1.80859375 10.8125 -1.1875
v -0.93359375 10.8125 -1.1875
v -2.875 10.8125 -3.12890625
v -2.875 10.8125 -5.87109375
v -0.93359375 10.8125 -7.8125
v 1.80859375 10.8125 -7.8125
v 3.75 10.8125 -5.87109375
v 3.75 10.8125 -3.12890625
vt 0.9711538461538461 1
vt 1 1
vt 1 0.6730769230769231
vt 0.9711538461538461 0.6730769230769231
vt 0.9423076923076923 1
vt 0.9711538461538461 1
vt 0.9711538461538461 0.6153846153846154
vt 0.9423076923076923 0.6153846153846154
vt 0.9711538461538461 1
vt 1 1
vt 1 0.6730769230769231
vt 0.9711538461538461 0.6730769230769231
vt 0.9423076923076923 1
vt 0.9711538461538461 1
vt 0.9711538461538461 0.6153846153846154
vt 0.9423076923076923 0.6153846153846154
vt 0.9711538461538461 1
vt 1 1
vt 1 0.6730769230769231
vt 0.9711538461538461 0.6730769230769231
vt 0.9423076923076923 1
vt 0.9711538461538461 1
vt 0.9711538461538461 0.6153846153846154
vt 0.9423076923076923 0.6153846153846154
vt 0.9711538461538461 1
vt 1 1
vt 1 0.6730769230769231
vt 0.9711538461538461 0.6730769230769231
vt 0.9423076923076923 1
vt 0.9711538461538461 1
vt 0.9711538461538461 0.6153846153846154
vt 0.9423076923076923 0.6153846153846154
vt 0 0.23557692307692313
vt 0 0.6201923076923077
vt 0.8461538461538461 0.6201923076923077
vt 0.8461538461538461 0.23557692307692313
vt 0 0.6153846153846154
vt 0.23076923076923078 0.8461538461538461
vt 0.6153846153846154 0.8461538461538461
vt 0.8461538461538461 0.6153846153846154
vt 0.6153846153846154 0
vt 0.23076923076923078 0
vt 0 0.23076923076923073
vt 0.8461538461538461 0.23076923076923073
vt 0.8461538461538461 0.6201923076923077
vt 0 0.6201923076923077
vt 0 0.23557692307692313
vt 0.8461538461538461 0.23557692307692313
vt 0.6153846153846154 0.8461538461538461
vt 0.23076923076923078 0.8461538461538461
vt 0 0.6153846153846154
vt 0.8461538461538461 0.6153846153846154
vt 0 0.23076923076923073
vt 0.23076923076923078 0
vt 0.6153846153846154 0
vt 0.8461538461538461 0.23076923076923073
vt 0.8461538461538461 0.9230769230769231
vt 0.8461538461538461 0.875
vt 0.5192307692307693 0.875
vt 0.5192307692307693 0.9230769230769231
vt 0.8461538461538461 1
vt 0.8461538461538461 0.9519230769230769
vt 0.46153846153846156 0.9519230769230769
vt 0.46153846153846156 1
vt 0.8461538461538461 0.9230769230769231
vt 0.8461538461538461 0.875
vt 0.5192307692307693 0.875
vt 0.5192307692307693 0.9230769230769231
vt 0.8461538461538461 1
vt 0.8461538461538461 0.9519230769230769
vt 0.46153846153846156 0.9519230769230769
vt 0.46153846153846156 1
vt 0.8461538461538461 0.9230769230769231
vt 0.8461538461538461 0.875
vt 0.5192307692307693 0.875
vt 0.5192307692307693 0.9230769230769231
vt 0.8461538461538461 1
vt 0.8461538461538461 0.9519230769230769
vt 0.46153846153846156 0.9519230769230769
vt 0.46153846153846156 1
vt 0.8461538461538461 0.9230769230769231
vt 0.8461538461538461 0.875
vt 0.5192307692307693 0.875
vt 0.5192307692307693 0.9230769230769231
vt 0.8461538461538461 1
vt 0.8461538461538461 0.9519230769230769
vt 0.46153846153846156 0.9519230769230769
vt 0.46153846153846156 1
vt 0.38461538461538464 1
vt 0.38461538461538464 0.9230769230769231
vt 0.057692307692307696 0.9230769230769231
vt 0.057692307692307696 1
vt 0.38461538461538464 1
vt 0.38461538461538464 0.9230769230769231
vt 0.057692307692307696 0.9230769230769231
vt 0.057692307692307696 1
vt 0.38461538461538464 1
vt 0.38461538461538464 0.9230769230769231
vt 0.057692307692307696 0.9230769230769231
vt 0.057692307692307696 1
vt 0.38461538461538464 1
vt 0.38461538461538464 0.9230769230769231
vt 0.057692307692307696 0.9230769230769231
vt 0.057692307692307696 1
vt 0 0.23557692307692313
vt 0 0.6201923076923077
vt 0.8461538461538461 0.6201923076923077
vt 0.8461538461538461 0.23557692307692313
vt 0 0.6153846153846154
vt 0.23076923076923078 0.8461538461538461
vt 0.6153846153846154 0.8461538461538461
vt 0.8461538461538461 0.6153846153846154
vt 0.6153846153846154 0
vt 0.23076923076923078 0
vt 0 0.23076923076923073
vt 0.8461538461538461 0.23076923076923073
vt 0.8461538461538461 0.6201923076923077
vt 0 0.6201923076923077
vt 0 0.23557692307692313
vt 0.8461538461538461 0.23557692307692313
vt 0.6153846153846154 0.8461538461538461
vt 0.23076923076923078 0.8461538461538461
vt 0 0.6153846153846154
vt 0.8461538461538461 0.6153846153846154
vt 0.8461538461538461 0.23076923076923073
vt 0.6153846153846154 0
vt 0.23076923076923078 0
vt 0 0.23076923076923073
vt 0.38461538461538464 0.9230769230769231
vt 0.38461538461538464 0.8461538461538461
vt 0.3076923076923077 0.8461538461538461
vt 0.3076923076923077 0.9230769230769231
vt 0.46153846153846156 1
vt 0.46153846153846156 0.9230769230769231
vt 0.38461538461538464 0.9230769230769231
vt 0.38461538461538464 1
vt 0.46153846153846156 1
vt 0.46153846153846156 0.9230769230769231
vt 0.38461538461538464 0.9230769230769231
vt 0.38461538461538464 1
vt 0.46153846153846156 1
vt 0.46153846153846156 0.9230769230769231
vt 0.38461538461538464 0.9230769230769231
vt 0.38461538461538464 1
vt 0.07692307692307693 0.9230769230769231
vt 0.07692307692307693 0.8461538461538461
vt 0 0.8461538461538461
vt 0 0.9230769230769231
vt 0.38461538461538464 0.9230769230769231
vt 0.38461538461538464 0.8461538461538461
vt 0.3076923076923077 0.8461538461538461
vt 0.3076923076923077 0.9230769230769231
vt 0.46153846153846156 0.9230769230769231
vt 0.46153846153846156 0.8461538461538461
vt 0.38461538461538464 0.8461538461538461
vt 0.38461538461538464 0.9230769230769231
vt 0.46153846153846156 0.9230769230769231
vt 0.46153846153846156 0.8461538461538461
vt 0.38461538461538464 0.8461538461538461
vt 0.38461538461538464 0.9230769230769231
vt 0.46153846153846156 0.9230769230769231
vt 0.46153846153846156 0.8461538461538461
vt 0.38461538461538464 0.8461538461538461
vt 0.38461538461538464 0.9230769230769231
vt 0.07692307692307693 0.9230769230769231
vt 0.07692307692307693 0.8461538461538461
vt 0 0.8461538461538461
vt 0 0.9230769230769231
vt 0.38461538461538464 0.9230769230769231
vt 0.38461538461538464 0.8461538461538461
vt 0.3076923076923077 0.8461538461538461
vt 0.3076923076923077 0.9230769230769231
vt 0.46153846153846156 0.9230769230769231
vt 0.46153846153846156 0.8461538461538461
vt 0.38461538461538464 0.8461538461538461
vt 0.38461538461538464 0.9230769230769231
vt 0.46153846153846156 0.9230769230769231
vt 0.46153846153846156 0.8461538461538461
vt 0.38461538461538464 0.8461538461538461
vt 0.38461538461538464 0.9230769230769231
vt 0.46153846153846156 0.9230769230769231
vt 0.46153846153846156 0.8461538461538461
vt 0.38461538461538464 0.8461538461538461
vt 0.38461538461538464 0.9230769230769231
vt 0.07692307692307693 0.9230769230769231
vt 0.07692307692307693 0.8461538461538461
vt 0 0.8461538461538461
vt 0 0.9230769230769231
vt 0.38461538461538464 0.9230769230769231
vt 0.38461538461538464 0.8461538461538461
vt 0.3076923076923077 0.8461538461538461
vt 0.3076923076923077 0.9230769230769231
vt 0.46153846153846156 1
vt 0.46153846153846156 0.9230769230769231
vt 0.38461538461538464 0.9230769230769231
vt 0.38461538461538464 1
vt 0.46153846153846156 1
vt 0.46153846153846156 0.9230769230769231
vt 0.38461538461538464 0.9230769230769231
vt 0.38461538461538464 1
vt 0.46153846153846156 1
vt 0.46153846153846156 0.9230769230769231
vt 0.38461538461538464 0.9230769230769231
vt 0.38461538461538464 1
vt 0.07692307692307693 0.9230769230769231
vt 0.07692307692307693 0.8461538461538461
vt 0 0.8461538461538461
vt 0 0.9230769230769231
vt 0.9230769230769231 0.7211538461538461
vt 0.875 0.7211538461538461
vt 0.875 1
vt 0.9230769230769231 1
vt 0.9230769230769231 0.6730769230769231
vt 0.875 0.6730769230769231
vt 0.875 1
vt 0.9230769230769231 1
vt 0.9230769230769231 0.7211538461538461
vt 0.875 0.7211538461538461
vt 0.875 1
vt 0.9230769230769231 1
vt 0.9230769230769231 0.6730769230769231
vt 0.875 0.6730769230769231
vt 0.875 1
vt 0.9230769230769231 1
vt 0.9230769230769231 0.7211538461538461
vt 0.875 0.7211538461538461
vt 0.875 1
vt 0.9230769230769231 1
vt 0.9230769230769231 0.6730769230769231
vt 0.875 0.6730769230769231
vt 0.875 1
vt 0.9230769230769231 1
vt 0.9230769230769231 0.7211538461538461
vt 0.875 0.7211538461538461
vt 0.875 1
vt 0.9230769230769231 1
vt 0.9230769230769231 0.6730769230769231
vt 0.875 0.6730769230769231
vt 0.875 1
vt 0.9230769230769231 1
vt 0.40625 0.0625
vt 0.40625 0
vt 0.7604166666666666 0
vt 0.7604166666666666 0.0625
vt 0.7604166666666666 0.0625
vt 0.7366618229166666 0.21875
vt 0.43000484375 0.21875
vt 0.40625 0.0625
vt 0.734375 0.21875
vt 0.7024648437500001 0.6041666666666667
vt 0.4642018229166667 0.6041666666666667
vt 0.4322916666666667 0.21875
vt 0.7019776041666667 0.6041666666666667
vt 0.7083333333333334 0.7447916666666667
vt 0.4583333333333333 0.7447916666666667
vt 0.46468906249999997 0.6041666666666667
vt 0.7081704166666666 0.7447916666666667
vt 0.71875 0.8854166666666666
vt 0.4479166666666667 0.8854166666666666
vt 0.45849625 0.7447916666666667
vt 0.71875 0.8854166666666666
vt 0.71875 0.9479166666666666
vt 0.4479166666666667 0.9479166666666666
vt 0.4479166666666667 0.8854166666666666
vt 0 0.0625
vt 0 0
vt 0.3541666666666667 0
vt 0.3541666666666667 0.0625
vt 0.3541666666666667 0.0625
vt 0.33041182291666665 0.21875
vt 0.02375484375 0.21875
vt 0 0.0625
vt 0.328125 0.21875
vt 0.29621484375 0.6041666666666667
vt 0.057951822916666666 0.6041666666666667
vt 0.026041666666666668 0.21875
vt 0.29572760416666666 0.6041666666666667
vt 0.3020833333333333 0.7447916666666667
vt 0.052083333333333336 0.7447916666666667
vt 0.0584390625 0.6041666666666667
vt 0.30192041666666664 0.7447916666666667
vt 0.3125 0.8854166666666666
vt 0.041666666666666664 0.8854166666666666
vt 0.05224625 0.7447916666666667
vt 0.3177083333333333 0.890625
vt 0.3177083333333333 0.953125
vt 0.041666666666666664 0.953125
vt 0.041666666666666664 0.890625
vt 0 0.0625
vt 0 0
vt 0.3541666666666667 0
vt 0.3541666666666667 0.0625
vt 0.3541666666666667 0.0625
vt 0.33041182291666665 0.21875
vt 0.02375484375 0.21875
vt 0 0.0625
vt 0.328125 0.21875
vt 0.29621484375 0.6041666666666667
vt 0.057951822916666666 0.6041666666666667
vt 0.026041666666666668 0.21875
vt 0.29572760416666666 0.6041666666666667
vt 0.3020833333333333 0.7447916666666667
vt 0.052083333333333336 0.7447916666666667
vt 0.0584390625 0.6041666666666667
vt 0.30192041666666664 0.7447916666666667
vt 0.3125 0.8854166666666666
vt 0.041666666666666664 0.8854166666666666
vt 0.05224625 0.7447916666666667
vt 0.3177083333333333 0.890625
vt 0.3177083333333333 0.953125
vt 0.041666666666666664 0.953125
vt 0.041666666666666664 0.890625
vt 0 0.0625
vt 0 0
vt 0.3541666666666667 0
vt 0.3541666666666667 0.0625
vt 0.3541666666666667 0.0625
vt 0.33041182291666665 0.21875
vt 0.02375484375 0.21875
vt 0 0.0625
vt 0.328125 0.21875
vt 0.29621484375 0.6041666666666667
vt 0.057951822916666666 0.6041666666666667
vt 0.026041666666666668 0.21875
vt 0.29572760416666666 0.6041666666666667
vt 0.3020833333333333 0.7447916666666667
vt 0.052083333333333336 0.7447916666666667
vt 0.0584390625 0.6041666666666667
vt 0.30192041666666664 0.7447916666666667
vt 0.3125 0.8854166666666666
vt 0.041666666666666664 0.8854166666666666
vt 0.05224625 0.7447916666666667
vt 0.3177083333333333 0.890625
vt 0.3177083333333333 0.953125
vt 0.041666666666666664 0.953125
vt 0.041666666666666664 0.890625
vt 0 0.0625
vt 0 0
vt 0.3541666666666667 0
vt 0.3541666666666667 0.0625
vt 0.3541666666666667 0.0625
vt 0.33041182291666665 0.21875
vt 0.02375484375 0.21875
vt 0 0.0625
vt 0.328125 0.21875
vt 0.29621484375 0.6041666666666667
vt 0.057951822916666666 0.6041666666666667
vt 0.026041666666666668 0.21875
vt 0.29572760416666666 0.6041666666666667
vt 0.3020833333333333 0.7447916666666667
vt 0.052083333333333336 0.7447916666666667
vt 0.0584390625 0.6041666666666667
vt 0.30192041666666664 0.7447916666666667
vt 0.3125 0.8854166666666666
vt 0.041666666666666664 0.8854166666666666
vt 0.05224625 0.7447916666666667
vt 0.3177083333333333 0.890625
vt 0.3177083333333333 0.953125
vt 0.041666666666666664 0.953125
vt 0.041666666666666664 0.890625
vt 0 0.0625
vt 0 0
vt 0.3541666666666667 0
vt 0.3541666666666667 0.0625
vt 0.3541666666666667 0.0625
vt 0.33041182291666665 0.21875
vt 0.02375484375 0.21875
vt 0 0.0625
vt 0.328125 0.21875
vt 0.29621484375 0.6041666666666667
vt 0.057951822916666666 0.6041666666666667
vt 0.026041666666666668 0.21875
vt 0.29572760416666666 0.6041666666666667
vt 0.3020833333333333 0.7447916666666667
vt 0.052083333333333336 0.7447916666666667
vt 0.0584390625 0.6041666666666667
vt 0.30192041666666664 0.7447916666666667
vt 0.3125 0.8854166666666666
vt 0.041666666666666664 0.8854166666666666
vt 0.05224625 0.7447916666666667
vt 0.3177083333333333 0.890625
vt 0.3177083333333333 0.953125
vt 0.041666666666666664 0.953125
vt 0.041666666666666664 0.890625
vt 0 0.0625
vt 0 0
vt 0.3541666666666667 0
vt 0.3541666666666667 0.0625
vt 0.3541666666666667 0.0625
vt 0.33041182291666665 0.21875
vt 0.02375484375 0.21875
vt 0 0.0625
vt 0.328125 0.21875
vt 0.29621484375 0.6041666666666667
vt 0.057951822916666666 0.6041666666666667
vt 0.026041666666666668 0.21875
vt 0.29572760416666666 0.6041666666666667
vt 0.3020833333333333 0.7447916666666667
vt 0.052083333333333336 0.7447916666666667
vt 0.0584390625 0.6041666666666667
vt 0.30192041666666664 0.7447916666666667
vt 0.3125 0.8854166666666666
vt 0.041666666666666664 0.8854166666666666
vt 0.05224625 0.7447916666666667
vt 0.3177083333333333 0.890625
vt 0.3177083333333333 0.953125
vt 0.041666666666666664 0.953125
vt 0.041666666666666664 0.890625
vt 0 0.0625
vt 0 0
vt 0.3541666666666667 0
vt 0.3541666666666667 0.0625
vt 0.3541666666666667 0.0625
vt 0.33041182291666665 0.21875
vt 0.02375484375 0.21875
vt 0 0.0625
vt 0.328125 0.21875
vt 0.29621484375 0.6041666666666667
vt 0.057951822916666666 0.6041666666666667
vt 0.026041666666666668 0.21875
vt 0.29572760416666666 0.6041666666666667
vt 0.3020833333333333 0.7447916666666667
vt 0.052083333333333336 0.7447916666666667
vt 0.0584390625 0.6041666666666667
vt 0.30192041666666664 0.7447916666666667
vt 0.3125 0.8854166666666666
vt 0.041666666666666664 0.8854166666666666
vt 0.05224625 0.7447916666666667
vt 0.3177083333333333 0.890625
vt 0.3177083333333333 0.953125
vt 0.041666666666666664 0.953125
vt 0.041666666666666664 0.890625
vt 1 0.6145833333333333
vt 0.9849039583333333 0.6510416666666667
vt 0.7390543749999999 0.6510416666666667
vt 0.7239583333333334 0.6145833333333333
vt 0.9999994270833333 0.6145833333333333
vt 0.9849033854166667 0.6510416666666667
vt 0.7390538020833333 0.6510416666666667
vt 0.7239577604166666 0.6145833333333333
vt 1 0.6145833333333333
vt 0.9849039583333333 0.6510416666666667
vt 0.7390543749999999 0.6510416666666667
vt 0.7239583333333334 0.6145833333333333
vt 0.7239577604166666 0.6145833333333333
vt 0.7390538020833333 0.6510416666666667
vt 0.9849033854166667 0.6510416666666667
vt 0.9999994270833333 0.6145833333333333
vt 0.7239583333333334 0.6145833333333333
vt 0.7390543749999999 0.6510416666666667
vt 0.9849039583333333 0.6510416666666667
vt 1 0.6145833333333333
vt 0.9999994270833333 0.6145833333333333
vt 0.9849033854166667 0.6510416666666667
vt 0.7390538020833333 0.6510416666666667
vt 0.7239577604166666 0.6145833333333333
vt 1 0.6145833333333333
vt 0.9849039583333333 0.6510416666666667
vt 0.7390543749999999 0.6510416666666667
vt 0.7239583333333334 0.6145833333333333
vt 0.9999994270833333 0.6145833333333333
vt 0.9849033854166667 0.6510416666666667
vt 0.7390538020833333 0.6510416666666667
vt 0.7239577604166666 0.6145833333333333
vt 0.75 0.5572916666666667
vt 0.7587721875 0.36458333333333337
vt 0.9912278125 0.36458333333333337
vt 1 0.5572916666666667
vt 0.75 0.5572916666666667
vt 0.7587721875 0.36458333333333337
vt 0.9912278125 0.36458333333333337
vt 1 0.5572916666666667
vt 0.75 0.5572916666666667
vt 0.7587721875 0.36458333333333337
vt 0.9912278125 0.36458333333333337
vt 1 0.5572916666666667
vt 0.75 0.5572916666666667
vt 0.7587721875 0.36458333333333337
vt 0.9912278125 0.36458333333333337
vt 1 0.5572916666666667
vt 0.75 0.5572916666666667
vt 0.7587721875 0.36458333333333337
vt 0.9912278125 0.36458333333333337
vt 1 0.5572916666666667
vt 0.75 0.5572916666666667
vt 0.7587721875 0.36458333333333337
vt 0.9912278125 0.36458333333333337
vt 1 0.5572916666666667
vt 0.75 0.5572916666666667
vt 0.7587721875 0.36458333333333337
vt 0.9912278125 0.36458333333333337
vt 1 0.5572916666666667
vt 0.75 0.5572916666666667
vt 0.7587721875 0.36458333333333337
vt 0.9912278125 0.36458333333333337
vt 1 0.5572916666666667
vt 0.80112390625 0.36666682291666663
vt 0.80112390625 0.365625
vt 0.7973958333333333 0.365625
vt 0.7973958333333333 0.36666682291666663
vt 0.8028817708333333 0.36640234375
vt 0.7986678125000001 0.3671875
vt 0.7927083333333332 0.3671875
vt 0.8028817708333333 0.36529197916666667
vt 0.7947916666666667 0.3671875
vt 0.7947916666666667 0.36607713541666664
vt 0.7990056249999999 0.36529197916666667
vt 0.8049651041666667 0.36529197916666667
vn -0.7071067811865476 0 -0.7071067811865476
vn 0 0 -1
vn 0.7071067811865476 0 -0.7071067811865476
vn 1 0 0
vn 0.7071067811865476 0 0.7071067811865476
vn 0 0 1
vn -0.7071067811865476 0 0.7071067811865476
vn -1 0 0
vn 0 -1 0
vn 0 -1 0
vn 0 -1 0
vn 0 1 0
vn 0 1 0
vn 0 1 0
vn -0.7071067811865476 0 -0.7071067811865476
vn 0 0 -1
vn 0.7071067811865476 0 -0.7071067811865476
vn 1 0 0
vn 0.7071067811865476 0 0.7071067811865476
vn 0 0 1
vn -0.7071067811865476 0 0.7071067811865476
vn -1 0 0
vn -0.7071067811865476 0 -0.7071067811865476
vn 0.7071067811865476 0 -0.7071067811865476
vn 0.7071067811865476 0 0.7071067811865476
vn -0.7071067811865476 0 0.7071067811865476
vn 0 -1 0
vn 0 -1 0
vn 0 -1 0
vn 0 1 0
vn 0 1 0
vn 0 1 0
vn 0 0 1
vn 0 0 1
vn 0 0 1
vn 0 0 1
vn 0 0 1
vn -1 0 0
vn -1 0 0
vn -1 0 0
vn -1 0 0
vn -1 0 0
vn 0 0 -1
vn 0 0 -1
vn 0 0 -1
vn 0 0 -1
vn 0 0 -1
vn 1 0 0
vn 1 0 0
vn 1 0 0
vn 1 0 0
vn 1 0 0
vn -0.7071067811865476 0 -0.7071067811865476
vn 0 0 -1
vn 0.7071067811865476 0 -0.7071067811865476
vn 1 0 0
vn 0.7071067811865476 0 0.7071067811865476
vn 0 0 1
vn -0.7071067811865476 0 0.7071067811865476
vn -1 0 0
vn 0.7071067811865476 0 0.7071067811865476
vn 0.6584590854456046 0.3645041365859597 0.6584590854456046
vn 0.6921937066817736 0.20429328148594014 0.6921937066817736
vn 0.7027670496113153 -0.11062073929067 0.7027670496113153
vn 0.6953132912435563 -0.18187593034843025 0.6953132912435563
vn 0.7071067811865476 0 0.7071067811865476
vn 0.7071067811865476 0 -0.7071067811865476
vn 0.6584590854456046 0.3645041365859597 -0.6584590854456046
vn 0.6921937066817736 0.20429328148594014 -0.6921937066817736
vn 0.7027670496113153 -0.11062073929067 -0.7027670496113153
vn 0.6953132912435563 -0.18187593034843025 -0.6953132912435563
vn 0.7071067811865476 0 -0.7071067811865476
vn 1 0 0
vn 0.9307514934403472 0.36565237242299353 0
vn 0.9789804197376052 0.2039542541120011 0
vn 0.9938837346736189 -0.11043152607484653 0
vn 0.9832820049844602 -0.18208926018230745 0
vn 1 0 0
vn 0 0 -1
vn 0 0.36565237242299353 -0.9307514934403472
vn 0 0.2039542541120011 -0.9789804197376052
vn 0 -0.11043152607484653 -0.9938837346736189
vn 0 -0.18208926018230745 -0.9832820049844602
vn 0 0 -1
vn -0.7071067811865476 0 -0.7071067811865476
vn -0.6584590854456046 0.3645041365859597 -0.6584590854456046
vn -0.6921937066817736 0.20429328148594014 -0.6921937066817736
vn -0.7027670496113153 -0.11062073929067 -0.7027670496113153
vn -0.6953132912435563 -0.18187593034843025 -0.6953132912435563
vn -0.7071067811865476 0 -0.7071067811865476
vn -0.7071067811865476 0 0.7071067811865476
vn -0.6584590854456046 0.3645041365859597 0.6584590854456046
vn -0.6921937066817736 0.20429328148594014 0.6921937066817736
vn -0.7027670496113153 -0.11062073929067 0.7027670496113153
vn -0.6953132912435563 -0.18187593034843025 0.6953132912435563
vn -0.7071067811865476 0 0.7071067811865476
vn -1 0 0
vn -0.9307514934403472 0.36565237242299353 0
vn -0.9789804197376052 0.2039542541120011 0
vn -0.9938837346736189 -0.11043152607484653 0
vn -0.9832820049844602 -0.18208926018230745 0
vn -1 0 0
vn 0 0 1
vn 0 0.36565237242299353 0.9307514934403472
vn 0 0.2039542541120011 0.9789804197376052
vn 0 -0.11043152607484653 0.9938837346736189
vn 0 -0.18208926018230745 0.9832820049844602
vn 0 0 1
vn 0 1 0
vn 0 1 0
vn 0 1 0
vn 0 1 0
vn 0 1 0
vn 0 1 0
vn 0 1 0
vn 0 1 0
vn 0 0.10748184298009184 -0.9942070475658494
vn 0.7029664327812843 0.10805734017415013 -0.7029664327812843
vn 0.9942070475658494 0.10748184298009184 0
vn 0.7029664327812843 0.10805734017415013 0.7029664327812843
vn 0 0.10748184298009184 0.9942070475658494
vn -0.7029664327812843 0.10805734017415013 0.7029664327812843
vn -0.9942070475658494 0.10748184298009184 0
vn -0.7029664327812843 0.10805734017415013 -0.7029664327812843
vn 0 1 0
vn 0 1 0
vn 0 1 0
usemtl m_ff662666-265b-0267-1e4c-97d8c1414ced
f 4/1/1 3/2/1 1/3/1 2/4/1
f 6/5/2 5/6/2 3/7/2 4/8/2
f 8/9/3 7/10/3 5/11/3 6/12/3
f 10/13/4 9/14/4 7/15/4 8/16/4
f 12/17/5 11/18/5 9/19/5 10/20/5
f 14/21/6 13/22/6 11/23/6 12/24/6
f 16/25/7 15/26/7 13/27/7 14/28/7
f 2/29/8 1/30/8 15/31/8 16/32/8
f 22/33/9 23/34/9 18/35/9 19/36/9
f 23/37/10 24/38/10 17/39/10 18/40/10
f 20/41/11 21/42/11 22/43/11 19/44/11
f 26/45/12 31/46/12 30/47/12 27/48/12
f 25/49/13 32/50/13 31/51/13 26/52/13
f 30/53/14 29/54/14 28/55/14 27/56/14
f 36/57/15 35/58/15 33/59/15 34/60/15
f 38/61/16 37/62/16 35/63/16 36/64/16
f 40/65/17 39/66/17 37/67/17 38/68/17
f 42/69/18 41/70/18 39/71/18 40/72/18
f 44/73/19 43/74/19 41/75/19 42/76/19
f 46/77/20 45/78/20 43/79/20 44/80/20
f 48/81/21 47/82/21 45/83/21 46/84/21
f 34/85/22 33/86/22 47/87/22 48/88/22
f 52/89/23 51/90/23 49/91/23 50/92/23
f 56/93/24 55/94/24 53/95/24 54/96/24
f 60/97/25 59/98/25 57/99/25 58/100/25
f 64/101/26 63/102/26 61/103/26 62/104/26
f 70/105/27 71/106/27 66/107/27 67/108/27
f 71/109/28 72/110/28 65/111/28 66/112/28
f 68/113/29 69/114/29 70/115/29 67/116/29
f 74/117/30 79/118/30 78/119/30 75/120/30
f 73/121/31 80/122/31 79/123/31 74/124/31
f 78/125/32 77/126/32 76/127/32 75/128/32
f 82/129/33 81/130/33 83/131/33 84/132/33
f 86/133/34 85/134/34 87/135/34 88/136/34
f 90/137/35 89/138/35 91/139/35 92/140/35
f 94/141/36 93/142/36 95/143/36 96/144/36
f 98/145/37 97/146/37 99/147/37 100/148/37
f 102/149/38 101/150/38 103/151/38 104/152/38
f 106/153/39 105/154/39 107/155/39 108/156/39
f 110/157/40 109/158/40 111/159/40 112/160/40
f 114/161/41 113/162/41 115/163/41 116/164/41
f 118/165/42 117/166/42 119/167/42 120/168/42
f 122/169/43 121/170/43 123/171/43 124/172/43
f 126/173/44 125/174/44 127/175/44 128/176/44
f 130/177/45 129/178/45 131/179/45 132/180/45
f 134/181/46 133/182/46 135/183/46 136/184/46
f 138/185/47 137/186/47 139/187/47 140/188/47
f 142/189/48 141/190/48 143/191/48 144/192/48
f 146/193/49 145/194/49 147/195/49 148/196/49
f 150/197/50 149/198/50 151/199/50 152/200/50
f 154/201/51 153/202/51 155/203/51 156/204/51
f 158/205/52 157/206/52 159/207/52 160/208/52
f 164/209/53 163/210/53 161/211/53 162/212/53
f 166/213/54 165/214/54 163/215/54 164/216/54
f 168/217/55 167/218/55 165/219/55 166/220/55
f 170/221/56 169/222/56 167/223/56 168/224/56
f 172/225/57 171/226/57 169/227/57 170/228/57
f 174/229/58 173/230/58 171/231/58 172/232/58
f 176/233/59 175/234/59 173/235/59 174/236/59
f 162/237/60 161/238/60 175/239/60 176/240/60
usemtl m_c33bb003-6c32-57ed-47e4-ae89a7383a59
f 181/241/61 180/242/61 178/243/61 179/244/61
f 179/245/62 183/246/62 182/247/62 181/248/62
f 183/249/63 185/250/63 184/251/63 182/252/63
f 185/253/64 187/254/64 186/255/64 184/256/64
f 187/257/65 189/258/65 188/259/65 186/260/65
f 189/261/66 191/262/66 190/263/66 188/264/66
f 195/265/67 194/266/67 192/267/67 193/268/67
f 193/269/68 197/270/68 196/271/68 195/272/68
f 197/273/69 199/274/69 198/275/69 196/276/69
f 199/277/70 201/278/70 200/279/70 198/280/70
f 201/281/71 203/282/71 202/283/71 200/284/71
f 203/285/72 205/286/72 204/287/72 202/288/72
f 209/289/73 208/290/73 206/291/73 207/292/73
f 207/293/74 211/294/74 210/295/74 209/296/74
f 211/297/75 213/298/75 212/299/75 210/300/75
f 213/301/76 215/302/76 214/303/76 212/304/76
f 215/305/77 217/306/77 216/307/77 214/308/77
f 217/309/78 219/310/78 218/311/78 216/312/78
f 223/313/79 222/314/79 220/315/79 221/316/79
f 221/317/80 225/318/80 224/319/80 223/320/80
f 225/321/81 227/322/81 226/323/81 224/324/81
f 227/325/82 229/326/82 228/327/82 226/328/82
f 229/329/83 231/330/83 230/331/83 228/332/83
f 231/333/84 233/334/84 232/335/84 230/336/84
f 237/337/85 236/338/85 234/339/85 235/340/85
f 235/341/86 239/342/86 238/343/86 237/344/86
f 239/345/87 241/346/87 240/347/87 238/348/87
f 241/349/88 243/350/88 242/351/88 240/352/88
f 243/353/89 245/354/89 244/355/89 242/356/89
f 245/357/90 247/358/90 246/359/90 244/360/90
f 251/361/91 250/362/91 248/363/91 249/364/91
f 249/365/92 253/366/92 252/367/92 251/368/92
f 253/369/93 255/370/93 254/371/93 252/372/93
f 255/373/94 257/374/94 256/375/94 254/376/94
f 257/377/95 259/378/95 258/379/95 256/380/95
f 259/381/96 261/382/96 260/383/96 258/384/96
f 265/385/97 264/386/97 262/387/97 263/388/97
f 263/389/98 267/390/98 266/391/98 265/392/98
f 267/393/99 269/394/99 268/395/99 266/396/99
f 269/397/100 271/398/100 270/399/100 268/400/100
f 271/401/101 273/402/101 272/403/101 270/404/101
f 273/405/102 275/406/102 274/407/102 272/408/102
f 279/409/103 278/410/103 276/411/103 277/412/103
f 277/413/104 281/414/104 280/415/104 279/416/104
f 281/417/105 283/418/105 282/419/105 280/420/105
f 283/421/106 285/422/106 284/423/106 282/424/106
f 285/425/107 287/426/107 286/427/107 284/428/107
f 287/429/108 289/430/108 288/431/108 286/432/108
f 233/433/109 291/434/109 290/435/109 232/436/109
f 247/437/110 177/438/110 291/439/110 246/440/110
f 275/441/111 292/442/111 177/443/111 274/444/111
f 261/445/112 293/446/112 292/447/112 260/448/112
f 289/449/113 294/450/113 293/451/113 288/452/113
f 191/453/114 295/454/114 294/455/114 190/456/114
f 219/457/115 296/458/115 295/459/115 218/460/115
f 205/461/116 290/462/116 296/463/116 204/464/116
f 294/465/117 297/466/117 298/467/117 293/468/117
f 293/469/118 298/470/118 299/471/118 292/472/118
f 292/473/119 299/474/119 300/475/119 177/476/119
f 177/477/120 300/478/120 301/479/120 291/480/120
f 291/481/121 301/482/121 302/483/121 290/484/121
f 290/485/122 302/486/122 303/487/122 296/488/122
f 296/489/123 303/490/123 304/491/123 295/492/123
f 295/493/124 304/494/124 297/495/124 294/496/124
f 301/497/125 298/498/125 297/499/125 302/500/125
f 300/501/126 299/502/126 298/503/126 301/504/126
f 297/505/127 304/506/127 303/507/127 302/508/127
