# Made in Blockbench 5.0.4
mtllib distiller.mtl

o cube
v 0.9375 1.1875 -1
v 0.9375 1.6875 -1
v 0.9375 1.6875 -0.9375
v 0.9375 1.1875 -0.9375
v 1 1.6875 -0.9375
v 1 1.1875 -0.9375
v 1 1.6875 -1
v 1 1.1875 -1
v 0.9375 1.1875 0.9375
v 0.9375 1.6875 0.9375
v 0.9375 1.6875 1
v 0.9375 1.1875 1
v 1 1.6875 1
v 1 1.1875 1
v 1 1.6875 0.9375
v 1 1.1875 0.9375
v 0.9375 0.3125 0.9375
v 0.9375 0.3125 1
v 1.0625 1.1875 1
v 1.0625 0.3125 1
v 1.0625 1.1875 0.9375
v 1.0625 0.3125 0.9375
v 0.9375 0.3125 -1
v 0.9375 0.3125 -0.9375
v 1.0625 1.1875 -0.9375
v 1.0625 0.3125 -0.9375
v 1.0625 1.1875 -1
v 1.0625 0.3125 -1
v -1 0.3125 -1
v -1 1.6875 -1
v -1 1.6875 -0.9375
v -1 0.3125 -0.9375
v -0.9375 1.6875 -0.9375
v -0.9375 0.3125 -0.9375
v -0.9375 1.6875 -1
v -0.9375 0.3125 -1
v -1 0.3125 0.9375
v -1 1.6875 0.9375
v -1 1.6875 1
v -1 0.3125 1
v -0.9375 1.6875 1
v -0.9375 0.3125 1
v -0.9375 1.6875 0.9375
v -0.9375 0.3125 0.9375
v 1.9375 0.3125 0.9375
v 1.9375 1.1875 0.9375
v 1.9375 1.1875 1
v 1.9375 0.3125 1
v 2 1.1875 1
v 2 0.3125 1
v 2 1.1875 0.9375
v 2 0.3125 0.9375
v 1.9375 0.3125 -1
v 1.9375 1.1875 -1
v 1.9375 1.1875 -0.9375
v 1.9375 0.3125 -0.9375
v 2 1.1875 -0.9375
v 2 0.3125 -0.9375
v 2 1.1875 -1
v 2 0.3125 -1
v -0.25 -0.5 1.625
v -0.25 0 1.625
v -0.25 0 1.875
v -0.25 -0.5 1.875
v -0.125 0 1.875
v -0.125 -0.5 1.875
v -0.125 0 1.625
v -0.125 -0.5 1.625
v -0.875 -0.5 1.625
v -0.875 0 1.625
v -0.875 0 1.875
v -0.875 -0.5 1.875
v -0.75 0 1.875
v -0.75 -0.5 1.875
v -0.75 0 1.625
v -0.75 -0.5 1.625
v 0 -0.375 0.75
v 0 -0.125 0.75
v 0 -0.125 0.875
v 0 -0.375 0.875
v 1 -0.125 0.875
v 1 -0.375 0.875
v 1 -0.125 0.75
v 1 -0.375 0.75
v -0.6875 -0.375 -0.875
v -0.6875 -0.125 -0.875
v -0.6875 -0.125 -0.75
v -0.6875 -0.375 -0.75
v 0 -0.125 -0.75
v 0 -0.375 -0.75
v 0 -0.125 -0.875
v 0 -0.375 -0.875
v 1 -0.375 -0.875
v 1 -0.125 -0.875
v 1 -0.125 -0.75
v 1 -0.375 -0.75
v 1.6875 -0.125 -0.75
v 1.6875 -0.375 -0.75
v 1.6875 -0.125 -0.875
v 1.6875 -0.375 -0.875
v -0.875 -0.375 -0.6875
v -0.875 -0.125 -0.6875
v -0.875 -0.125 0
v -0.875 -0.375 0
v -0.75 -0.125 0
v -0.75 -0.375 0
v -0.75 -0.125 -0.6875
v -0.75 -0.375 -0.6875
v 1.75 -0.375 -0.6875
v 1.75 -0.125 -0.6875
v 1.75 -0.125 0
v 1.75 -0.375 0
v 1.875 -0.125 0
v 1.875 -0.375 0
v 1.875 -0.125 -0.6875
v 1.875 -0.375 -0.6875
v 1.6875 -0.5 -0.9375
v 1.6875 0 -0.9375
v 1.6875 0 -0.6875
v 1.6875 -0.5 -0.6875
v 1.9375 0 -0.6875
v 1.9375 -0.5 -0.6875
v 1.9375 0 -0.9375
v 1.9375 -0.5 -0.9375
v -0.9375 -0.5 -0.9375
v -0.9375 0 -0.9375
v -0.9375 0 -0.6875
v -0.9375 -0.5 -0.6875
v -0.6875 0 -0.6875
v -0.6875 -0.5 -0.6875
v -0.6875 0 -0.9375
v -0.6875 -0.5 -0.9375
v 1.9375 1.1875 0.9375
v 1.9375 0.3125 0.9375
v 1 1.5 -1
v 1 1.5 1
v 2 1.5 1
v 2 1.1875 1
v 2 1.5 -1
v -0.9375 1.6875 0.9375
v -0.9375 0.3125 0.9375
v -1 2 -1
v -1 2 1
v -1 1.6875 1
v 1 2 1
v 1 2 -1
v -1 0 -1
v -1 0.3125 1
v -1 0 1
v 2 0.3125 1
v 2 0 1
v 2 0 -1
v -1 0 1.5
v -1 1 1.5
v -1 1 2
v -1 0 2
v 0 1 2
v 0 0 2
v 0 1 1.5
v 0 0 1.5
v 0 -0.5 -1
v 0 0 -1
v 0 0 0
v 0 -0.5 0
v 1 0 0
v 1 -0.5 0
v 1 0 -1
v 1 -0.5 -1
v -1 -0.5 0
v -1 0 0
v -1 -0.5 1
v 0 0 1
v 0 -0.5 1
v 1 0 1
v 1 -0.5 1
v 2 -0.5 1
v 2 0 0
v 2 -0.5 0
v 1 -0.5 1
v 1 1 1
v 1 1 2
v 1 -0.5 2
v 2 1 2
v 2 -0.5 2
v 2 1 1
v 2 -0.5 1
v -1 -1 -1
v -1 -0.5 -1
v -1 -0.5 2
v -1 -1 2
v 2 -0.5 2
v 2 -1 2
v 2 -0.5 -1
v 2 -1 -1
vt 0.40625 0.375
vt 0.398438125 0.375
vt 0.398438125 0.3125
vt 0.40625 0.3125
vt 0.398438125 0.375
vt 0.390625 0.375
vt 0.390625 0.3125
vt 0.398438125 0.3125
vt 0.398438125 0.375
vt 0.390625 0.375
vt 0.390625 0.3125
vt 0.398438125 0.3125
vt 0.40625 0.375
vt 0.398438125 0.375
vt 0.398438125 0.3125
vt 0.40625 0.3125
vt 1 1
vt 0 1
vt 0 0
vt 1 0
vt 1 1
vt 0 1
vt 0 0
vt 1 0
vt 0.40625 0.375
vt 0.398438125 0.375
vt 0.398438125 0.3125
vt 0.40625 0.3125
vt 0.40625 0.375
vt 0.398438125 0.375
vt 0.398438125 0.3125
vt 0.40625 0.3125
vt 0.398438125 0.375
vt 0.390625 0.375
vt 0.390625 0.3125
vt 0.398438125 0.3125
vt 0.398438125 0.375
vt 0.390625 0.375
vt 0.390625 0.3125
vt 0.398438125 0.3125
vt 1 1
vt 0 1
vt 0 0
vt 1 0
vt 1 1
vt 0 1
vt 0 0
vt 1 0
vt 0.390625 0.421875
vt 0.382811875 0.421875
vt 0.382811875 0.3125
vt 0.390625 0.3125
vt 0.375 0.421875
vt 0.390625 0.421875
vt 0.390625 0.3125
vt 0.375 0.3125
vt 0.382811875 0.421875
vt 0.375 0.421875
vt 0.375 0.3125
vt 0.382811875 0.3125
vt 1 1
vt 0 1
vt 0 0
vt 1 0
vt 1 1
vt 0 1
vt 0 0
vt 1 0
vt 1 1
vt 0 1
vt 0 0
vt 1 0
vt 0.390625 0.421875
vt 0.382811875 0.421875
vt 0.382811875 0.3125
vt 0.390625 0.3125
vt 1 1
vt 0 1
vt 0 0
vt 1 0
vt 0.382811875 0.421875
vt 0.375 0.421875
vt 0.375 0.3125
vt 0.382811875 0.3125
vt 0.390625 0.421875
vt 0.375 0.421875
vt 0.375 0.3125
vt 0.390625 0.3125
vt 1 1
vt 0 1
vt 0 0
vt 1 0
vt 1 1
vt 0 1
vt 0 0
vt 1 0
vt 0.421875 0.484375
vt 0.414061875 0.484375
vt 0.414061875 0.3125
vt 0.421875 0.3125
vt 0.414061875 0.484375
vt 0.40625 0.484375
vt 0.40625 0.3125
vt 0.414061875 0.3125
vt 0.414061875 0.484375
vt 0.40625 0.484375
vt 0.40625 0.3125
vt 0.414061875 0.3125
vt 0.421875 0.484375
vt 0.414061875 0.484375
vt 0.414061875 0.3125
vt 0.421875 0.3125
vt 1 1
vt 0 1
vt 0 0
vt 1 0
vt 1 1
vt 0 1
vt 0 0
vt 1 0
vt 0.421875 0.484375
vt 0.414061875 0.484375
vt 0.414061875 0.3125
vt 0.421875 0.3125
vt 0.421875 0.484375
vt 0.414061875 0.484375
vt 0.414061875 0.3125
vt 0.421875 0.3125
vt 0.414061875 0.484375
vt 0.40625 0.484375
vt 0.40625 0.3125
vt 0.414061875 0.3125
vt 0.414061875 0.484375
vt 0.40625 0.484375
vt 0.40625 0.3125
vt 0.414061875 0.3125
vt 1 1
vt 0 1
vt 0 0
vt 1 0
vt 1 1
vt 0 1
vt 0 0
vt 1 0
vt 0.390625 0.421875
vt 0.382811875 0.421875
vt 0.382811875 0.3125
vt 0.390625 0.3125
vt 0.390625 0.421875
vt 0.382811875 0.421875
vt 0.382811875 0.3125
vt 0.390625 0.3125
vt 0.382811875 0.421875
vt 0.375 0.421875
vt 0.375 0.3125
vt 0.382811875 0.3125
vt 0.382811875 0.421875
vt 0.375 0.421875
vt 0.375 0.3125
vt 0.382811875 0.3125
vt 1 1
vt 0 1
vt 0 0
vt 1 0
vt 1 1
vt 0 1
vt 0 0
vt 1 0
vt 0.390625 0.421875
vt 0.382811875 0.421875
vt 0.382811875 0.3125
vt 0.390625 0.3125
vt 0.382811875 0.421875
vt 0.375 0.421875
vt 0.375 0.3125
vt 0.382811875 0.3125
vt 0.382811875 0.421875
vt 0.375 0.421875
vt 0.375 0.3125
vt 0.382811875 0.3125
vt 0.390625 0.421875
vt 0.382811875 0.421875
vt 0.382811875 0.3125
vt 0.390625 0.3125
vt 1 1
vt 0 1
vt 0 0
vt 1 0
vt 1 1
vt 0 1
vt 0 0
vt 1 0
vt 0.28125 0.5
vt 0.25 0.5
vt 0.25 0.4375
vt 0.28125 0.4375
vt 0.296875 0.5
vt 0.28125 0.5
vt 0.28125 0.4375
vt 0.296875 0.4375
vt 0.28125 0.5
vt 0.25 0.5
vt 0.25 0.4375
vt 0.28125 0.4375
vt 0.296875 0.5
vt 0.28125 0.5
vt 0.28125 0.4375
vt 0.296875 0.4375
vt 1 1
vt 0 1
vt 0 0
vt 1 0
vt 1 1
vt 0 1
vt 0 0
vt 1 0
vt 0.28125 0.5
vt 0.25 0.5
vt 0.25 0.4375
vt 0.28125 0.4375
vt 0.296875 0.5
vt 0.28125 0.5
vt 0.28125 0.4375
vt 0.296875 0.4375
vt 0.28125 0.5
vt 0.25 0.5
vt 0.25 0.4375
vt 0.28125 0.4375
vt 0.296875 0.5
vt 0.28125 0.5
vt 0.28125 0.4375
vt 0.296875 0.4375
vt 1 1
vt 0 1
vt 0 0
vt 1 0
vt 1 1
vt 0 1
vt 0 0
vt 1 0
vt 1 1
vt 0 1
vt 0 0
vt 1 0
vt 0.125 0.0625
vt 0 0.0625
vt 0 0.03125
vt 0.125 0.03125
vt 1 1
vt 0 1
vt 0 0
vt 1 0
vt 0.125 0.0625
vt 0 0.0625
vt 0 0.03125
vt 0.125 0.03125
vt 0.125 0.03125
vt 0 0.03125
vt 0 0.015625
vt 0.125 0.015625
vt 0.125 0.03125
vt 0 0.03125
vt 0 0.015625
vt 0.125 0.015625
vt 1 1
vt 0 1
vt 0 0
vt 1 0
vt 0.085938125 0.0625
vt 0 0.0625
vt 0 0.03125
vt 0.085938125 0.03125
vt 1 1
vt 0 1
vt 0 0
vt 1 0
vt 0.085938125 0.0625
vt 0 0.0625
vt 0 0.03125
vt 0.085938125 0.03125
vt 0.085938125 0.03125
vt 0 0.03125
vt 0 0.015625
vt 0.085938125 0.015625
vt 0.085938125 0.03125
vt 0 0.03125
vt 0 0.015625
vt 0.085938125 0.015625
vt 1 1
vt 0 1
vt 0 0
vt 1 0
vt 0.085938125 0.0625
vt 0 0.0625
vt 0 0.03125
vt 0.085938125 0.03125
vt 1 1
vt 0 1
vt 0 0
vt 1 0
vt 0.085938125 0.0625
vt 0 0.0625
vt 0 0.03125
vt 0.085938125 0.03125
vt 0.085938125 0.03125
vt 0 0.03125
vt 0 0.015625
vt 0.085938125 0.015625
vt 0.085938125 0.03125
vt 0 0.03125
vt 0 0.015625
vt 0.085938125 0.015625
vt 0.085938125 0.0625
vt 0 0.0625
vt 0 0.03125
vt 0.085938125 0.03125
vt 1 1
vt 0 1
vt 0 0
vt 1 0
vt 0.085938125 0.0625
vt 0 0.0625
vt 0 0.03125
vt 0.085938125 0.03125
vt 1 1
vt 0 1
vt 0 0
vt 1 0
vt 0.085938125 0.03125
vt 0 0.03125
vt 0 0.015625
vt 0.085938125 0.015625
vt 0.085938125 0.03125
vt 0 0.03125
vt 0 0.015625
vt 0.085938125 0.015625
vt 0.085938125 0.0625
vt 0 0.0625
vt 0 0.03125
vt 0.085938125 0.03125
vt 1 1
vt 0 1
vt 0 0
vt 1 0
vt 0.085938125 0.0625
vt 0 0.0625
vt 0 0.03125
vt 0.085938125 0.03125
vt 1 1
vt 0 1
vt 0 0
vt 1 0
vt 0.085938125 0.03125
vt 0 0.03125
vt 0 0.015625
vt 0.085938125 0.015625
vt 0.085938125 0.03125
vt 0 0.03125
vt 0 0.015625
vt 0.085938125 0.015625
vt 0.375 0.5
vt 0.34375 0.5
vt 0.34375 0.4375
vt 0.375 0.4375
vt 0.375 0.5
vt 0.34375 0.5
vt 0.34375 0.4375
vt 0.375 0.4375
vt 0.375 0.5
vt 0.34375 0.5
vt 0.34375 0.4375
vt 0.375 0.4375
vt 0.375 0.5
vt 0.34375 0.5
vt 0.34375 0.4375
vt 0.375 0.4375
vt 1 1
vt 0 1
vt 0 0
vt 1 0
vt 1 1
vt 0 1
vt 0 0
vt 1 0
vt 0.375 0.5
vt 0.34375 0.5
vt 0.34375 0.4375
vt 0.375 0.4375
vt 0.375 0.5
vt 0.34375 0.5
vt 0.34375 0.4375
vt 0.375 0.4375
vt 0.375 0.5
vt 0.34375 0.5
vt 0.34375 0.4375
vt 0.375 0.4375
vt 0.375 0.5
vt 0.34375 0.5
vt 0.34375 0.4375
vt 0.375 0.4375
vt 1 1
vt 0 1
vt 0 0
vt 1 0
vt 1 1
vt 0 1
vt 0 0
vt 1 0
vt 1 1
vt 0 1
vt 0 0
vt 1 0
vt 1 0.390625
vt 0.890625 0.390625
vt 0.890625 0.28125
vt 1 0.28125
vt 1 0.28125
vt 0.765625 0.28125
vt 0.765625 0.171875
vt 1 0.171875
vt 1 0.390625
vt 0.890625 0.390625
vt 0.890625 0.28125
vt 1 0.28125
vt 1 1
vt 0 1
vt 0 0
vt 1 0
vt 1 1
vt 0 1
vt 0 0
vt 1 0
vt 0.625 0.273438125
vt 0.375 0.273438125
vt 0.375 0.234375
vt 0.625 0.234375
vt 0.5 0.234375
vt 0.375 0.234375
vt 0.375 0.19531187500000002
vt 0.5 0.19531187500000002
vt 0.625 0.273438125
vt 0.375 0.273438125
vt 0.375 0.234375
vt 0.625 0.234375
vt 0.5 0.234375
vt 0.375 0.234375
vt 0.375 0.19531187500000002
vt 0.5 0.19531187500000002
vt 0.625 0.8125
vt 0.375 0.8125
vt 0.375 0.6875
vt 0.625 0.6875
vt 0.625 0.8125
vt 0.375 0.8125
vt 0.375 0.6875
vt 0.625 0.6875
vt 1 0.171875
vt 0.765625 0.171875
vt 0.765625 0
vt 1 0
vt 1 0.171875
vt 0.765625 0.171875
vt 0.765625 0
vt 1 0
vt 1 0.171875
vt 0.765625 0.171875
vt 0.765625 0
vt 1 0
vt 1 0.171875
vt 0.765625 0.171875
vt 0.765625 0
vt 1 0
vt 1 1
vt 0 1
vt 0 0
vt 1 0
vt 0 0
vt 0 1
vt 1 1
vt 1 0
vt 0.625 0.273438125
vt 0.375 0.273438125
vt 0.375 0.234375
vt 0.625 0.234375
vt 0.625 0.273438125
vt 0.375 0.273438125
vt 0.375 0.234375
vt 0.625 0.234375
vt 0.625 0.273438125
vt 0.375 0.273438125
vt 0.375 0.234375
vt 0.625 0.234375
vt 0.625 0.273438125
vt 0.375 0.273438125
vt 0.375 0.234375
vt 0.625 0.234375
vt 0.625 0.8125
vt 0.375 0.8125
vt 0.375 0.5625
vt 0.625 0.5625
vt 0.625 0.8125
vt 0.375 0.8125
vt 0.375 0.5625
vt 0.625 0.5625
vt 0.625 0.234375
vt 0.375 0.234375
vt 0.375 0.273438125
vt 0.625 0.273438125
vt 0.75 0.3125
vt 0.375 0.3125
vt 0.375 0.273438125
vt 0.75 0.273438125
vt 0.625 0.234375
vt 0.375 0.234375
vt 0.375 0.273438125
vt 0.625 0.273438125
vt 0.75 0.3125
vt 0.375 0.3125
vt 0.375 0.273438125
vt 0.75 0.273438125
vt 0.375 0.3125
vt 0 0.3125
vt 0 0.0625
vt 0.375 0.0625
vt 0.375 0.3125
vt 0 0.3125
vt 0 0.0625
vt 0.375 0.0625
vt 0.0625 0.4375
vt 0 0.4375
vt 0 0.3125
vt 0.0625 0.3125
vt 0.25 0.4375
vt 0.125 0.4375
vt 0.125 0.3125
vt 0.25 0.3125
vt 0.125 0.4375
vt 0.0625 0.4375
vt 0.0625 0.3125
vt 0.125 0.3125
vt 0.125 0.4375
vt 0 0.4375
vt 0 0.3125
vt 0.125 0.3125
vt 0.0625 0.4375
vt 0 0.4375
vt 0 0.3125
vt 0.0625 0.3125
vt 0.0625 0.4375
vt 0 0.4375
vt 0 0.3125
vt 0.0625 0.3125
vt 0.125 0.4375
vt 0 0.4375
vt 0 0.375
vt 0.125 0.375
vt 0.125 0.4375
vt 0 0.4375
vt 0 0.375
vt 0.125 0.375
vt 0.125 0.4375
vt 0 0.4375
vt 0 0.375
vt 0.125 0.375
vt 0.25 0.5
vt 0.125 0.5
vt 0.125 0.4375
vt 0.25 0.4375
vt 1 1
vt 0 1
vt 0 0
vt 1 0
vt 1 1
vt 0 1
vt 0 0
vt 1 0
vt 0.25 0.5
vt 0.125 0.5
vt 0.125 0.4375
vt 0.25 0.4375
vt 0.125 0.4375
vt 0 0.4375
vt 0 0.375
vt 0.125 0.375
vt 0.125 0.4375
vt 0 0.4375
vt 0 0.375
vt 0.125 0.375
vt 0.125 0.4375
vt 0 0.4375
vt 0 0.375
vt 0.125 0.375
vt 1 1
vt 0 1
vt 0 0
vt 1 0
vt 1 1
vt 0 1
vt 0 0
vt 1 0
vt 0.125 0.4375
vt 0 0.4375
vt 0 0.375
vt 0.125 0.375
vt 1 1
vt 0 1
vt 0 0
vt 1 0
vt 0.125 0.5
vt 0 0.5
vt 0 0.4375
vt 0.125 0.4375
vt 0.125 0.4375
vt 0 0.4375
vt 0 0.375
vt 0.125 0.375
vt 1 1
vt 0 1
vt 0 0
vt 1 0
vt 1 1
vt 0 1
vt 0 0
vt 1 0
vt 0.5 1
vt 0.375 1
vt 0.375 0.8125
vt 0.5 0.8125
vt 0.625 1
vt 0.5 1
vt 0.5 0.8125
vt 0.625 0.8125
vt 0.5 1
vt 0.375 1
vt 0.375 0.8125
vt 0.5 0.8125
vt 0.625 1
vt 0.5 1
vt 0.5 0.8125
vt 0.625 0.8125
vt 0.375 0.4375
vt 0.25 0.4375
vt 0.25 0.3125
vt 0.375 0.3125
vt 1 1
vt 0 1
vt 0 0
vt 1 0
vt 0.375 0.625
vt 0 0.625
vt 0 0.5625
vt 0.375 0.5625
vt 0.375 0.5625
vt 0 0.5625
vt 0 0.5
vt 0.375 0.5
vt 0.375 0.625
vt 0 0.625
vt 0 0.5625
vt 0.375 0.5625
vt 0.375 0.625
vt 0 0.625
vt 0 0.5625
vt 0.375 0.5625
vt 1 1
vt 0.625 1
vt 0.625 0.632811875
vt 1 0.632811875
vt 0.375 1
vt 0 1
vt 0 0.625
vt 0.375 0.625
vn -1 0 0
vn 0 0 1
vn 1 0 0
vn 0 0 -1
vn 0 1 0
vn 0 -1 0
vn -1 0 0
vn 0 0 1
vn 1 0 0
vn 0 0 -1
vn 0 1 0
vn 0 -1 0
vn -1 0 0
vn 0 0 1
vn 1 0 0
vn 0 0 -1
vn 0 1 0
vn 0 -1 0
vn -1 0 0
vn 0 0 1
vn 1 0 0
vn 0 0 -1
vn 0 1 0
vn 0 -1 0
vn -1 0 0
vn 0 0 1
vn 1 0 0
vn 0 0 -1
vn 0 1 0
vn 0 -1 0
vn -1 0 0
vn 0 0 1
vn 1 0 0
vn 0 0 -1
vn 0 1 0
vn 0 -1 0
vn -1 0 0
vn 0 0 1
vn 1 0 0
vn 0 0 -1
vn 0 1 0
vn 0 -1 0
vn -1 0 0
vn 0 0 1
vn 1 0 0
vn 0 0 -1
vn 0 1 0
vn 0 -1 0
vn -1 0 0
vn 0 0 1
vn 1 0 0
vn 0 0 -1
vn 0 1 0
vn 0 -1 0
vn -1 0 0
vn 0 0 1
vn 1 0 0
vn 0 0 -1
vn 0 1 0
vn 0 -1 0
vn -1 0 0
vn 0 0 1
vn 1 0 0
vn 0 0 -1
vn 0 1 0
vn 0 -1 0
vn -1 0 0
vn 0 0 1
vn 1 0 0
vn 0 0 -1
vn 0 1 0
vn 0 -1 0
vn -1 0 0
vn 0 0 1
vn 1 0 0
vn 0 0 -1
vn 0 1 0
vn 0 -1 0
vn -1 0 0
vn 0 0 1
vn 1 0 0
vn 0 0 -1
vn 0 1 0
vn 0 -1 0
vn -1 0 0
vn 0 0 1
vn 1 0 0
vn 0 0 -1
vn 0 1 0
vn 0 -1 0
vn -1 0 0
vn 0 0 1
vn 1 0 0
vn 0 0 -1
vn 0 1 0
vn 0 -1 0
vn -1 0 0
vn 0 0 1
vn 1 0 0
vn 0 0 -1
vn 0 1 0
vn 0 -1 0
vn -1 0 0
vn 0 0 1
vn 1 0 0
vn 0 0 -1
vn 0 1 0
vn 0 -1 0
vn -1 0 0
vn 0 0 1
vn 1 0 0
vn 0 0 -1
vn 0 1 0
vn 0 -1 0
vn -1 0 0
vn 0 0 1
vn 1 0 0
vn 0 0 -1
vn 0 1 0
vn 0 1 0
vn -1 0 0
vn 0 0 1
vn 1 0 0
vn 0 0 -1
vn 0 1 0
vn 0 -1 0
vn -1 0 0
vn 0 0 1
vn 1 0 0
vn 0 0 -1
vn 0 1 0
vn 0 -1 0
vn -1 0 0
vn 0 0 1
vn 1 0 0
vn 0 0 -1
vn 0 1 0
vn 0 -1 0
vn -1 0 0
vn 0 0 1
vn 1 0 0
vn 0 0 -1
vn 0 1 0
vn 0 -1 0
vn -1 0 0
vn 0 0 1
vn 1 0 0
vn 0 0 -1
vn 0 1 0
vn 0 -1 0
vn -1 0 0
vn 0 0 1
vn 1 0 0
vn 0 0 -1
vn 0 1 0
vn 0 -1 0
vn -1 0 0
vn 0 0 1
vn 1 0 0
vn 0 0 -1
vn 0 1 0
vn 0 -1 0
vn -1 0 0
vn 0 0 1
vn 1 0 0
vn 0 0 -1
vn 0 1 0
vn 0 -1 0
usemtl m_3b511f65-dd46-a40e-9e6f-1c26ba6c104f
f 3/1/1 2/2/1 1/3/1 4/4/1
f 5/5/2 3/6/2 4/7/2 6/8/2
f 7/9/3 5/10/3 6/11/3 8/12/3
f 2/13/4 7/14/4 8/15/4 1/16/4
f 5/17/5 7/18/5 2/19/5 3/20/5
f 4/21/6 1/22/6 8/23/6 6/24/6
f 11/25/7 10/26/7 9/27/7 12/28/7
f 13/29/8 11/30/8 12/31/8 14/32/8
f 15/33/9 13/34/9 14/35/9 16/36/9
f 10/37/10 15/38/10 16/39/10 9/40/10
f 13/41/11 15/42/11 10/43/11 11/44/11
f 12/45/12 9/46/12 16/47/12 14/48/12
f 12/49/13 9/50/13 17/51/13 18/52/13
f 19/53/14 12/54/14 18/55/14 20/56/14
f 21/57/15 19/58/15 20/59/15 22/60/15
f 9/61/16 21/62/16 22/63/16 17/64/16
f 19/65/17 21/66/17 9/67/17 12/68/17
f 18/69/18 17/70/18 22/71/18 20/72/18
f 4/73/19 1/74/19 23/75/19 24/76/19
f 25/77/20 4/78/20 24/79/20 26/80/20
f 27/81/21 25/82/21 26/83/21 28/84/21
f 1/85/22 27/86/22 28/87/22 23/88/22
f 25/89/23 27/90/23 1/91/23 4/92/23
f 24/93/24 23/94/24 28/95/24 26/96/24
f 31/97/25 30/98/25 29/99/25 32/100/25
f 33/101/26 31/102/26 32/103/26 34/104/26
f 35/105/27 33/106/27 34/107/27 36/108/27
f 30/109/28 35/110/28 36/111/28 29/112/28
f 33/113/29 35/114/29 30/115/29 31/116/29
f 32/117/30 29/118/30 36/119/30 34/120/30
f 39/121/31 38/122/31 37/123/31 40/124/31
f 41/125/32 39/126/32 40/127/32 42/128/32
f 43/129/33 41/130/33 42/131/33 44/132/33
f 38/133/34 43/134/34 44/135/34 37/136/34
f 41/137/35 43/138/35 38/139/35 39/140/35
f 40/141/36 37/142/36 44/143/36 42/144/36
f 47/145/37 46/146/37 45/147/37 48/148/37
f 49/149/38 47/150/38 48/151/38 50/152/38
f 51/153/39 49/154/39 50/155/39 52/156/39
f 46/157/40 51/158/40 52/159/40 45/160/40
f 49/161/41 51/162/41 46/163/41 47/164/41
f 48/165/42 45/166/42 52/167/42 50/168/42
f 55/169/43 54/170/43 53/171/43 56/172/43
f 57/173/44 55/174/44 56/175/44 58/176/44
f 59/177/45 57/178/45 58/179/45 60/180/45
f 54/181/46 59/182/46 60/183/46 53/184/46
f 57/185/47 59/186/47 54/187/47 55/188/47
f 56/189/48 53/190/48 60/191/48 58/192/48
f 63/193/49 62/194/49 61/195/49 64/196/49
f 65/197/50 63/198/50 64/199/50 66/200/50
f 67/201/51 65/202/51 66/203/51 68/204/51
f 62/205/52 67/206/52 68/207/52 61/208/52
f 65/209/53 67/210/53 62/211/53 63/212/53
f 64/213/54 61/214/54 68/215/54 66/216/54
f 71/217/55 70/218/55 69/219/55 72/220/55
f 73/221/56 71/222/56 72/223/56 74/224/56
f 75/225/57 73/226/57 74/227/57 76/228/57
f 70/229/58 75/230/58 76/231/58 69/232/58
f 73/233/59 75/234/59 70/235/59 71/236/59
f 72/237/60 69/238/60 76/239/60 74/240/60
f 79/241/61 78/242/61 77/243/61 80/244/61
f 81/245/62 79/246/62 80/247/62 82/248/62
f 83/249/63 81/250/63 82/251/63 84/252/63
f 78/253/64 83/254/64 84/255/64 77/256/64
f 81/257/65 83/258/65 78/259/65 79/260/65
f 80/261/66 77/262/66 84/263/66 82/264/66
f 87/265/67 86/266/67 85/267/67 88/268/67
f 89/269/68 87/270/68 88/271/68 90/272/68
f 91/273/69 89/274/69 90/275/69 92/276/69
f 86/277/70 91/278/70 92/279/70 85/280/70
f 89/281/71 91/282/71 86/283/71 87/284/71
f 88/285/72 85/286/72 92/287/72 90/288/72
f 95/289/73 94/290/73 93/291/73 96/292/73
f 97/293/74 95/294/74 96/295/74 98/296/74
f 99/297/75 97/298/75 98/299/75 100/300/75
f 94/301/76 99/302/76 100/303/76 93/304/76
f 97/305/77 99/306/77 94/307/77 95/308/77
f 96/309/78 93/310/78 100/311/78 98/312/78
f 103/313/79 102/314/79 101/315/79 104/316/79
f 105/317/80 103/318/80 104/319/80 106/320/80
f 107/321/81 105/322/81 106/323/81 108/324/81
f 102/325/82 107/326/82 108/327/82 101/328/82
f 105/329/83 107/330/83 102/331/83 103/332/83
f 104/333/84 101/334/84 108/335/84 106/336/84
f 111/337/85 110/338/85 109/339/85 112/340/85
f 113/341/86 111/342/86 112/343/86 114/344/86
f 115/345/87 113/346/87 114/347/87 116/348/87
f 110/349/88 115/350/88 116/351/88 109/352/88
f 113/353/89 115/354/89 110/355/89 111/356/89
f 112/357/90 109/358/90 116/359/90 114/360/90
f 119/361/91 118/362/91 117/363/91 120/364/91
f 121/365/92 119/366/92 120/367/92 122/368/92
f 123/369/93 121/370/93 122/371/93 124/372/93
f 118/373/94 123/374/94 124/375/94 117/376/94
f 121/377/95 123/378/95 118/379/95 119/380/95
f 120/381/96 117/382/96 124/383/96 122/384/96
f 127/385/97 126/386/97 125/387/97 128/388/97
f 129/389/98 127/390/98 128/391/98 130/392/98
f 131/393/99 129/394/99 130/395/99 132/396/99
f 126/397/100 131/398/100 132/399/100 125/400/100
f 129/401/101 131/402/101 126/403/101 127/404/101
f 128/405/102 125/406/102 132/407/102 130/408/102
f 21/409/103 25/410/103 26/411/103 22/412/103
f 133/413/104 21/414/104 22/415/104 134/416/104
f 55/417/105 133/418/105 134/419/105 56/420/105
f 25/421/106 55/422/106 56/423/106 26/424/106
f 133/425/107 55/426/107 25/427/107 21/428/107
f 22/429/108 26/430/108 56/431/108 134/432/108
f 136/433/109 135/434/109 8/435/109 14/436/109
f 137/437/110 136/438/110 14/439/110 138/440/110
f 139/441/111 137/442/111 138/443/111 59/444/111
f 135/445/112 139/446/112 59/447/112 8/448/112
f 137/449/113 139/450/113 135/451/113 136/452/113
f 14/453/114 8/454/114 59/455/114 138/456/114
f 140/457/115 33/458/115 34/459/115 141/460/115
f 10/461/116 140/462/116 141/463/116 17/464/116
f 3/465/117 10/466/117 17/467/117 24/468/117
f 33/469/118 3/470/118 24/471/118 34/472/118
f 10/473/119 3/474/119 33/475/119 140/476/119
f 24/477/120 34/478/120 141/479/120 17/480/120
f 143/481/121 142/482/121 30/483/121 144/484/121
f 145/485/122 143/486/122 144/487/122 13/488/122
f 146/489/123 145/490/123 13/491/123 7/492/123
f 142/493/124 146/494/124 7/495/124 30/496/124
f 145/497/125 146/498/125 142/499/125 143/500/125
f 144/501/126 30/502/126 7/503/126 13/504/126
f 148/505/127 29/506/127 147/507/127 149/508/127
f 150/509/128 148/510/128 149/511/128 151/512/128
f 60/513/129 150/514/129 151/515/129 152/516/129
f 29/517/130 60/518/130 152/519/130 147/520/130
f 150/521/131 60/522/131 29/523/131 148/524/131
f 149/525/132 147/526/132 152/527/132 151/528/132
f 155/529/133 154/530/133 153/531/133 156/532/133
f 157/533/134 155/534/134 156/535/134 158/536/134
f 159/537/135 157/538/135 158/539/135 160/540/135
f 154/541/136 159/542/136 160/543/136 153/544/136
f 157/545/137 159/546/137 154/547/137 155/548/137
f 156/549/138 153/550/138 160/551/138 158/552/138
f 163/553/139 162/554/139 161/555/139 164/556/139
f 165/557/140 163/558/140 164/559/140 166/560/140
f 167/561/141 165/562/141 166/563/141 168/564/141
f 162/565/142 167/566/142 168/567/142 161/568/142
f 165/569/143 167/570/143 162/571/143 163/572/143
f 164/573/144 161/574/144 168/575/144 166/576/144
f 149/577/145 170/578/145 169/579/145 171/580/145
f 172/581/146 149/582/146 171/583/146 173/584/146
f 163/585/147 172/586/147 173/587/147 164/588/147
f 170/589/148 163/590/148 164/591/148 169/592/148
f 172/593/149 163/594/149 170/595/149 149/596/149
f 171/597/150 169/598/150 164/599/150 173/600/150
f 174/601/151 165/602/151 166/603/151 175/604/151
f 151/605/152 174/606/152 175/607/152 176/608/152
f 177/609/153 151/610/153 176/611/153 178/612/153
f 165/613/154 177/614/154 178/615/154 166/616/154
f 151/617/155 177/618/155 165/619/155 174/620/155
f 175/621/156 166/622/156 178/623/156 176/624/156
f 181/625/157 180/626/157 179/627/157 182/628/157
f 183/629/158 181/630/158 182/631/158 184/632/158
f 185/633/159 183/634/159 184/635/159 186/636/159
f 180/637/160 185/638/160 186/639/160 179/640/160
f 183/641/161 185/642/161 180/643/161 181/644/161
f 182/645/162 179/646/162 186/647/162 184/648/162
f 189/649/163 188/650/163 187/651/163 190/652/163
f 191/653/164 189/654/164 190/655/164 192/656/164
f 193/657/165 191/658/165 192/659/165 194/660/165
f 188/661/166 193/662/166 194/663/166 187/664/166
f 191/665/167 193/666/167 188/667/167 189/668/167
f 190/669/168 187/670/168 194/671/168 192/672/168