# Made in Blockbench 4.12.6
mtllib boiler_liquid.mtl

o cube
v 0.75 0.3125 -0.25
v 0.75 0.3125 -0.75
v 0.75 0.125 -0.25
v 0.75 0.125 -0.75
v 0.25 0.3125 -0.25
v 0.25 0.3125 -0.75
v 0.25 0.125 -0.25
v 0.25 0.125 -0.75
v 1 -0.5 1
v 1 -0.5 -2
v 1 -1 1
v 1 -1 -2
v 0 -0.5 1
v 0 -0.5 -2
v 0 -1 1
v 0 -1 -2
v 1 0 0
v 1 0 -1
v 1 -0.5 0
v 1 -0.5 -1
v 0 0 0
v 0 0 -1
v 0 -0.5 0
v 0 -0.5 -1
v 1 0 1
v 1 1 1
v 0 1 1
v 0 0 1
v 1 0 0.5
v 1 1 0.5
v 0 0 0.5
v 0 1 0.5
v 0.25 -0.5 -1.625
v 0.25 0 -1.625
v 0.125 0 -1.625
v 0.125 -0.5 -1.625
v 0.25 -0.5 -1.875
v 0.25 0 -1.875
v 0.125 -0.5 -1.875
v 0.125 0 -1.875
v 0.875 -0.5 -1.625
v 0.875 0 -1.625
v 0.75 0 -1.625
v 0.75 -0.5 -1.625
v 0.875 -0.5 -1.875
v 0.875 0 -1.875
v 0.75 -0.5 -1.875
v 0.75 0 -1.875
v 0.9375 0 -1.5625
v 0.9375 1.5 -1.5625
v 0.0625 1.5 -1.5625
v 0.0625 0 -1.5625
v 0.9375 0 -2
v 0.9375 1.5 -2
v 0.0625 0 -2
v 0.0625 1.5 -2
v 0.25 -0.5 0.875
v 0.25 0 0.875
v 0.125 0 0.875
v 0.125 -0.5 0.875
v 0.25 -0.5 0.625
v 0.25 0 0.625
v 0.125 -0.5 0.625
v 0.125 0 0.625
v 0.875 -0.5 0.875
v 0.875 0 0.875
v 0.75 0 0.875
v 0.75 -0.5 0.875
v 0.875 -0.5 0.625
v 0.875 0 0.625
v 0.75 -0.5 0.625
v 0.75 0 0.625
v 1 1.1875 0.1875
v 1 1.1875 -1.1875
v 1 0.4375 0.1875
v 1 0.4375 -1.1875
v 0.8125 2.1875 -0.1875
v 0.8125 2.1875 -0.8125
v 0.8125 1.375 -0.1875
v 0.8125 1.375 -0.8125
v 0.1875 2.1875 -0.1875
v 0.1875 2.1875 -0.8125
v 0.1875 1.375 -0.1875
v 0.1875 1.375 -0.8125
v 0.875 1.3125 -0.125
v 0.875 1.3125 -0.875
v 0.875 1.1875 -0.125
v 0.875 1.1875 -0.875
v 0.125 1.3125 -0.125
v 0.125 1.3125 -0.875
v 0.125 1.1875 -0.125
v 0.125 1.1875 -0.875
v 0.875 0.125 -0.125
v 0.875 0.125 -0.875
v 0.875 0 -0.125
v 0.875 0 -0.875
v 0.125 0.125 -0.125
v 0.125 0.125 -0.875
v 0.125 0 -0.125
v 0.125 0 -0.875
v 0.875 0.3125 -0.125
v 0.875 0.3125 -0.875
v 0.875 0.4375 -0.125
v 0.875 0.4375 -0.875
v 0.125 0.3125 -0.125
v 0.125 0.3125 -0.875
v 0.125 0.4375 -0.125
v 0.125 0.4375 -0.875
v 0.75 2.25 -0.25
v 0.75 2.25 -0.75
v 0.75 1.3125 -0.25
v 0.75 1.3125 -0.75
v 0.25 2.25 -0.25
v 0.25 2.25 -0.75
v 0.25 1.3125 -0.25
v 0.25 1.3125 -0.75
v 0 0.4375 0.1875
v 0 1.1875 0.1875
v 0 0.4375 -1.1875
v 0 1.1875 -1.1875
vt 0.1111111111111111 0.13888888888888884
vt 0.1111111111111111 0.1597222222222222
vt 0.05555555555555555 0.1597222222222222
vt 0.05555555555555555 0.13888888888888884
vt 0.1111111111111111 0.13888888888888884
vt 0.1111111111111111 0.1597222222222222
vt 0.05555555555555555 0.1597222222222222
vt 0.05555555555555555 0.13888888888888884
vt 0.1111111111111111 0.13194444444444442
vt 0.1111111111111111 0.1527777777777778
vt 0.05555555555555555 0.1527777777777778
vt 0.05555555555555555 0.13194444444444442
vt 0.1111111111111111 0.13888888888888884
vt 0.1111111111111111 0.1597222222222222
vt 0.05555555555555555 0.1597222222222222
vt 0.05555555555555555 0.13888888888888884
vt 0.3333333333333333 0.45138888888888884
vt 0.3333333333333333 0.5069444444444444
vt 0 0.5069444444444444
vt 0 0.45138888888888884
vt 0.3333333333333333 0.9444444444444444
vt 0.3333333333333333 1
vt 0 1
vt 0 0.9444444444444444
vt 0.1111111111111111 0.6111111111111112
vt 0.1111111111111111 0.9375
vt 0 0.9375
vt 0 0.6111111111111112
vt 0.1111111111111111 0.6041666666666667
vt 0.1111111111111111 0.9375
vt 0 0.9375
vt 0 0.6041666666666667
vt 0.1111111111111111 0.45138888888888884
vt 0.1111111111111111 0.5069444444444444
vt 0 0.5069444444444444
vt 0 0.45138888888888884
vt 0.3333333333333333 0.45138888888888884
vt 0.3333333333333333 0.5069444444444444
vt 0.2222222222222222 0.5069444444444444
vt 0.2222222222222222 0.45138888888888884
vt 0.22916666666666666 0.7777777777777778
vt 0.22916666666666666 0.8333333333333334
vt 0.11805555555555555 0.8333333333333334
vt 0.11805555555555555 0.7777777777777778
vt 0.3263888888888889 0.8333333333333334
vt 0.2708333333333333 0.8333333333333334
vt 0.2708333333333333 0.7222222222222222
vt 0.3263888888888889 0.7222222222222222
vt 0.22916666666666666 0.5416666666666667
vt 0.22916666666666666 0.6527777777777778
vt 0.11805555555555555 0.6527777777777778
vt 0.11805555555555555 0.5416666666666667
vt 0.3263888888888889 0.8333333333333334
vt 0.2708333333333333 0.8333333333333334
vt 0.2708333333333333 0.7222222222222222
vt 0.3263888888888889 0.7222222222222222
vt 0.3263888888888889 0.8333333333333334
vt 0.2708333333333333 0.8333333333333334
vt 0.2708333333333333 0.7222222222222222
vt 0.3263888888888889 0.7222222222222222
vt 0.22916666666666666 0.6597222222222222
vt 0.22916666666666666 0.7708333333333334
vt 0.11805555555555555 0.7708333333333334
vt 0.11805555555555555 0.6597222222222222
vt 0.3263888888888889 0.7222222222222222
vt 0.3263888888888889 0.8333333333333334
vt 0.2708333333333333 0.8333333333333334
vt 0.2708333333333333 0.7222222222222222
vt 0.22916666666666666 0.5416666666666667
vt 0.22916666666666666 0.6527777777777778
vt 0.11805555555555555 0.6527777777777778
vt 0.11805555555555555 0.5416666666666667
vt 0.3263888888888889 0.7222222222222222
vt 0.3263888888888889 0.8333333333333334
vt 0.2708333333333333 0.8333333333333334
vt 0.2708333333333333 0.7222222222222222
vt 0.3263888888888889 0.8333333333333334
vt 0.2708333333333333 0.8333333333333334
vt 0.2708333333333333 0.7222222222222222
vt 0.3263888888888889 0.7222222222222222
vt 0.3263888888888889 0.8333333333333334
vt 0.2708333333333333 0.8333333333333334
vt 0.2708333333333333 0.7222222222222222
vt 0.3263888888888889 0.7222222222222222
vt 0.3194444444444444 0.6597222222222222
vt 0.3194444444444444 0.7152777777777778
vt 0.3055555555555556 0.7152777777777778
vt 0.3055555555555556 0.6597222222222222
vt 0.2986111111111111 0.6597222222222222
vt 0.2986111111111111 0.7152777777777778
vt 0.2708333333333333 0.7152777777777778
vt 0.2708333333333333 0.6597222222222222
vt 0.3194444444444444 0.6597222222222222
vt 0.3194444444444444 0.7152777777777778
vt 0.3055555555555556 0.7152777777777778
vt 0.3055555555555556 0.6597222222222222
vt 0.2986111111111111 0.6597222222222222
vt 0.2986111111111111 0.7152777777777778
vt 0.2708333333333333 0.7152777777777778
vt 0.2708333333333333 0.6597222222222222
vt 0.3194444444444444 0.6597222222222222
vt 0.3194444444444444 0.7152777777777778
vt 0.3055555555555556 0.7152777777777778
vt 0.3055555555555556 0.6597222222222222
vt 0.2986111111111111 0.6597222222222222
vt 0.2986111111111111 0.7152777777777778
vt 0.2708333333333333 0.7152777777777778
vt 0.2708333333333333 0.6597222222222222
vt 0.3194444444444444 0.6597222222222222
vt 0.3194444444444444 0.7152777777777778
vt 0.3055555555555556 0.7152777777777778
vt 0.3055555555555556 0.6597222222222222
vt 0.2986111111111111 0.6597222222222222
vt 0.2986111111111111 0.7152777777777778
vt 0.2708333333333333 0.7152777777777778
vt 0.2708333333333333 0.6597222222222222
vt 0.4375 0.6597222222222222
vt 0.4375 0.8263888888888888
vt 0.3402777777777778 0.8263888888888888
vt 0.3402777777777778 0.6597222222222222
vt 0.3888888888888889 0.48611111111111116
vt 0.3888888888888889 0.6527777777777778
vt 0.3402777777777778 0.6527777777777778
vt 0.3402777777777778 0.48611111111111116
vt 0.4375 0.8333333333333334
vt 0.4375 1
vt 0.3402777777777778 1
vt 0.3402777777777778 0.8333333333333334
vt 0.3888888888888889 0.48611111111111116
vt 0.3888888888888889 0.6527777777777778
vt 0.3402777777777778 0.6527777777777778
vt 0.3402777777777778 0.48611111111111116
vt 0.2708333333333333 0.5555555555555556
vt 0.3194444444444444 0.5555555555555556
vt 0.3194444444444444 0.6527777777777778
vt 0.2708333333333333 0.6527777777777778
vt 0.3194444444444444 0.5555555555555556
vt 0.2708333333333333 0.5555555555555556
vt 0.2708333333333333 0.6527777777777778
vt 0.3194444444444444 0.6527777777777778
vt 0.3194444444444444 0.6597222222222222
vt 0.3194444444444444 0.7152777777777778
vt 0.3055555555555556 0.7152777777777778
vt 0.3055555555555556 0.6597222222222222
vt 0.2986111111111111 0.6597222222222222
vt 0.2986111111111111 0.7152777777777778
vt 0.2708333333333333 0.7152777777777778
vt 0.2708333333333333 0.6597222222222222
vt 0.3194444444444444 0.6597222222222222
vt 0.3194444444444444 0.7152777777777778
vt 0.3055555555555556 0.7152777777777778
vt 0.3055555555555556 0.6597222222222222
vt 0.2986111111111111 0.6597222222222222
vt 0.2986111111111111 0.7152777777777778
vt 0.2708333333333333 0.7152777777777778
vt 0.2708333333333333 0.6597222222222222
vt 0.3194444444444444 0.6597222222222222
vt 0.3194444444444444 0.7152777777777778
vt 0.3055555555555556 0.7152777777777778
vt 0.3055555555555556 0.6597222222222222
vt 0.2986111111111111 0.6597222222222222
vt 0.2986111111111111 0.7152777777777778
vt 0.2708333333333333 0.7152777777777778
vt 0.2708333333333333 0.6597222222222222
vt 0.3194444444444444 0.6597222222222222
vt 0.3194444444444444 0.7152777777777778
vt 0.3055555555555556 0.7152777777777778
vt 0.3055555555555556 0.6597222222222222
vt 0.2986111111111111 0.6597222222222222
vt 0.2986111111111111 0.7152777777777778
vt 0.2708333333333333 0.7152777777777778
vt 0.2708333333333333 0.6597222222222222
vt 0.1527777777777778 0.36111111111111116
vt 0.1527777777777778 0.4444444444444444
vt 0 0.4444444444444444
vt 0 0.36111111111111116
vt 0.3125 0.4444444444444444
vt 0.1597222222222222 0.4444444444444444
vt 0.1597222222222222 0.33333333333333337
vt 0.3125 0.33333333333333337
vt 0.3125 0.4444444444444444
vt 0.1597222222222222 0.4444444444444444
vt 0.1597222222222222 0.33333333333333337
vt 0.3125 0.33333333333333337
vt 0.1111111111111111 0.5138888888888888
vt 0.1111111111111111 0.5972222222222222
vt 0 0.5972222222222222
vt 0 0.5138888888888888
vt 0.1111111111111111 0.5138888888888888
vt 0.1111111111111111 0.5972222222222222
vt 0 0.5972222222222222
vt 0 0.5138888888888888
vt 0.4652777777777778 0.47916666666666663
vt 0.4652777777777778 0.5694444444444444
vt 0.3958333333333333 0.5694444444444444
vt 0.3958333333333333 0.47916666666666663
vt 0.4652777777777778 0.47916666666666663
vt 0.4652777777777778 0.5694444444444444
vt 0.3958333333333333 0.5694444444444444
vt 0.3958333333333333 0.47916666666666663
vt 0.4652777777777778 0.5833333333333333
vt 0.4652777777777778 0.6527777777777778
vt 0.3958333333333333 0.6527777777777778
vt 0.3958333333333333 0.5833333333333333
vt 0.8194444444444444 0.16666666666666663
vt 0.8194444444444444 0.23611111111111116
vt 0.75 0.23611111111111116
vt 0.75 0.16666666666666663
vt 0.4652777777777778 0.47916666666666663
vt 0.4652777777777778 0.5694444444444444
vt 0.3958333333333333 0.5694444444444444
vt 0.3958333333333333 0.47916666666666663
vt 0.4652777777777778 0.47916666666666663
vt 0.4652777777777778 0.5694444444444444
vt 0.3958333333333333 0.5694444444444444
vt 0.3958333333333333 0.47916666666666663
vt 0.1111111111111111 0.11805555555555558
vt 0.09722222222222222 0.11805555555555558
vt 0.09722222222222222 0.03472222222222221
vt 0.1111111111111111 0.03472222222222221
vt 0.1111111111111111 0.11805555555555558
vt 0.09722222222222222 0.11805555555555558
vt 0.09722222222222222 0.03472222222222221
vt 0.1111111111111111 0.03472222222222221
vt 0.08333333333333333 0.27083333333333337
vt 0.08333333333333333 0.35416666666666663
vt 0 0.35416666666666663
vt 0 0.27083333333333337
vt 0.1111111111111111 0.11805555555555558
vt 0.09722222222222222 0.11805555555555558
vt 0.09722222222222222 0.03472222222222221
vt 0.1111111111111111 0.03472222222222221
vt 0.1111111111111111 0.11805555555555558
vt 0.09722222222222222 0.11805555555555558
vt 0.09722222222222222 0.03472222222222221
vt 0.1111111111111111 0.03472222222222221
vt 0.1111111111111111 0.11805555555555558
vt 0.09722222222222222 0.11805555555555558
vt 0.09722222222222222 0.03472222222222221
vt 0.1111111111111111 0.03472222222222221
vt 0.1111111111111111 0.1597222222222222
vt 0.09722222222222222 0.1597222222222222
vt 0.09722222222222222 0.07638888888888884
vt 0.1111111111111111 0.07638888888888884
vt 0.08333333333333333 0.27083333333333337
vt 0.08333333333333333 0.35416666666666663
vt 0 0.35416666666666663
vt 0 0.27083333333333337
vt 0.1111111111111111 0.11805555555555558
vt 0.09722222222222222 0.11805555555555558
vt 0.09722222222222222 0.03472222222222221
vt 0.1111111111111111 0.03472222222222221
vt 0.1111111111111111 0.11805555555555558
vt 0.09722222222222222 0.11805555555555558
vt 0.09722222222222222 0.03472222222222221
vt 0.1111111111111111 0.03472222222222221
vt 0.09722222222222222 0.07638888888888884
vt 0.09722222222222222 0.1597222222222222
vt 0.1111111111111111 0.1597222222222222
vt 0.1111111111111111 0.07638888888888884
vt 0.09722222222222222 0.03472222222222221
vt 0.09722222222222222 0.11805555555555558
vt 0.1111111111111111 0.11805555555555558
vt 0.1111111111111111 0.03472222222222221
vt 0 0.35416666666666663
vt 0.08333333333333333 0.35416666666666663
vt 0.08333333333333333 0.27083333333333337
vt 0 0.27083333333333337
vt 0.09722222222222222 0.07638888888888884
vt 0.09722222222222222 0.1597222222222222
vt 0.1111111111111111 0.1597222222222222
vt 0.1111111111111111 0.07638888888888884
vt 0.09722222222222222 0.07638888888888884
vt 0.09722222222222222 0.1597222222222222
vt 0.1111111111111111 0.1597222222222222
vt 0.1111111111111111 0.07638888888888884
vt 0.05555555555555555 0.03472222222222221
vt 0.05555555555555555 0.13888888888888884
vt 0 0.13888888888888884
vt 0 0.03472222222222221
vt 0.05555555555555555 0.03472222222222221
vt 0.05555555555555555 0.13888888888888884
vt 0 0.13888888888888884
vt 0 0.03472222222222221
vt 0.22916666666666666 0.8611111111111112
vt 0.22916666666666666 0.9166666666666666
vt 0.1736111111111111 0.9166666666666666
vt 0.1736111111111111 0.8611111111111112
vt 0.05555555555555555 0.03472222222222221
vt 0.05555555555555555 0.13888888888888884
vt 0 0.13888888888888884
vt 0 0.03472222222222221
vt 0.05555555555555555 0.03472222222222221
vt 0.05555555555555555 0.13888888888888884
vt 0 0.13888888888888884
vt 0 0.03472222222222221
vt 0.125 0.9305555555555556
vt 0.2777777777777778 0.9305555555555556
vt 0.2777777777777778 0.8472222222222222
vt 0.125 0.8472222222222222
vn 1 0 0
vn -1 0 0
vn 0 0 1
vn 0 0 -1
vn 1 0 0
vn -1 0 0
vn 0 1 0
vn 0 -1 0
vn 0 0 1
vn 0 0 -1
vn 1 0 0
vn -1 0 0
vn 0 1 0
vn 0 0 1
vn 0 0 -1
vn 0 0 1
vn 1 0 0
vn 0 0 -1
vn -1 0 0
vn 0 1 0
vn 0 -1 0
vn 0 0 1
vn 1 0 0
vn 0 0 -1
vn -1 0 0
vn 0 0 1
vn 1 0 0
vn 0 0 -1
vn -1 0 0
vn 0 0 1
vn 1 0 0
vn 0 0 -1
vn -1 0 0
vn 0 1 0
vn 0 -1 0
vn 0 0 1
vn 1 0 0
vn 0 0 -1
vn -1 0 0
vn 0 0 1
vn 1 0 0
vn 0 0 -1
vn -1 0 0
vn 1 0 0
vn 0 1 0
vn 0 -1 0
vn 0 0 1
vn 0 0 -1
vn 1 0 0
vn -1 0 0
vn 0 1 0
vn 0 -1 0
vn 0 0 1
vn 0 0 -1
vn 1 0 0
vn -1 0 0
vn 0 1 0
vn 0 0 1
vn 0 0 -1
vn 1 0 0
vn -1 0 0
vn 0 1 0
vn 0 0 1
vn 0 0 -1
vn 1 0 0
vn -1 0 0
vn 0 -1 0
vn 0 0 1
vn 0 0 -1
vn 1 0 0
vn -1 0 0
vn 0 1 0
vn 0 0 1
vn 0 0 -1
vn -1 0 0
usemtl m_172712f4-742a-b193-1fb5-06c3ac7ca812
f 4/1/1 2/2/1 1/3/1 3/4/1
f 7/5/2 5/6/2 6/7/2 8/8/2
f 3/9/3 1/10/3 5/11/3 7/12/3
f 8/13/4 6/14/4 2/15/4 4/16/4
f 12/17/5 10/18/5 9/19/5 11/20/5
f 15/21/6 13/22/6 14/23/6 16/24/6
f 9/25/7 10/26/7 14/27/7 13/28/7
f 12/29/8 11/30/8 15/31/8 16/32/8
f 11/33/9 9/34/9 13/35/9 15/36/9
f 16/37/10 14/38/10 10/39/10 12/40/10
f 20/41/11 18/42/11 17/43/11 19/44/11
f 23/45/12 21/46/12 22/47/12 24/48/12
f 17/49/13 18/50/13 22/51/13 21/52/13
f 19/53/14 17/54/14 21/55/14 23/56/14
f 24/57/15 22/58/15 18/59/15 20/60/15
f 25/61/16 26/62/16 27/63/16 28/64/16
f 29/65/17 30/66/17 26/67/17 25/68/17
f 31/69/18 32/70/18 30/71/18 29/72/18
f 28/73/19 27/74/19 32/75/19 31/76/19
f 26/77/20 30/78/20 32/79/20 27/80/20
f 29/81/21 25/82/21 28/83/21 31/84/21
f 33/85/22 34/86/22 35/87/22 36/88/22
f 37/89/23 38/90/23 34/91/23 33/92/23
f 39/93/24 40/94/24 38/95/24 37/96/24
f 36/97/25 35/98/25 40/99/25 39/100/25
f 41/101/26 42/102/26 43/103/26 44/104/26
f 45/105/27 46/106/27 42/107/27 41/108/27
f 47/109/28 48/110/28 46/111/28 45/112/28
f 44/113/29 43/114/29 48/115/29 47/116/29
f 49/117/30 50/118/30 51/119/30 52/120/30
f 53/121/31 54/122/31 50/123/31 49/124/31
f 55/125/32 56/126/32 54/127/32 53/128/32
f 52/129/33 51/130/33 56/131/33 55/132/33
f 50/133/34 54/134/34 56/135/34 51/136/34
f 53/137/35 49/138/35 52/139/35 55/140/35
f 57/141/36 58/142/36 59/143/36 60/144/36
f 61/145/37 62/146/37 58/147/37 57/148/37
f 63/149/38 64/150/38 62/151/38 61/152/38
f 60/153/39 59/154/39 64/155/39 63/156/39
f 65/157/40 66/158/40 67/159/40 68/160/40
f 69/161/41 70/162/41 66/163/41 65/164/41
f 71/165/42 72/166/42 70/167/42 69/168/42
f 68/169/43 67/170/43 72/171/43 71/172/43
f 76/173/44 74/174/44 73/175/44 75/176/44
f 73/177/45 74/178/45 120/179/45 118/180/45
f 76/181/46 75/182/46 117/183/46 119/184/46
f 75/185/47 73/186/47 118/187/47 117/188/47
f 119/189/48 120/190/48 74/191/48 76/192/48
f 80/193/49 78/194/49 77/195/49 79/196/49
f 83/197/50 81/198/50 82/199/50 84/200/50
f 77/201/51 78/202/51 82/203/51 81/204/51
f 80/205/52 79/206/52 83/207/52 84/208/52
f 79/209/53 77/210/53 81/211/53 83/212/53
f 84/213/54 82/214/54 78/215/54 80/216/54
f 88/217/55 86/218/55 85/219/55 87/220/55
f 91/221/56 89/222/56 90/223/56 92/224/56
f 85/225/57 86/226/57 90/227/57 89/228/57
f 87/229/58 85/230/58 89/231/58 91/232/58
f 92/233/59 90/234/59 86/235/59 88/236/59
f 96/237/60 94/238/60 93/239/60 95/240/60
f 99/241/61 97/242/61 98/243/61 100/244/61
f 93/245/62 94/246/62 98/247/62 97/248/62
f 95/249/63 93/250/63 97/251/63 99/252/63
f 100/253/64 98/254/64 94/255/64 96/256/64
f 101/257/65 102/258/65 104/259/65 103/260/65
f 106/261/66 105/262/66 107/263/66 108/264/66
f 106/265/67 102/266/67 101/267/67 105/268/67
f 105/269/68 101/270/68 103/271/68 107/272/68
f 102/273/69 106/274/69 108/275/69 104/276/69
f 112/277/70 110/278/70 109/279/70 111/280/70
f 115/281/71 113/282/71 114/283/71 116/284/71
f 109/285/72 110/286/72 114/287/72 113/288/72
f 111/289/73 109/290/73 113/291/73 115/292/73
f 116/293/74 114/294/74 110/295/74 112/296/74
f 118/297/75 120/298/75 119/299/75 117/300/75