# Made in Blockbench 4.12.6
mtllib gas_turbine.mtl

o Cube.030_Cube.028
v 1.75 0.25 -0.125
v 0.125 1.25 -1
v -0.5 0.75 0
v -0.5 0.75 -1
v 0.125 1.25 0
v 0.125 0.75 0
v 0.125 0.75 -1
v 1.875 0.875 0
v 1.875 0.125 -0.125
v 1.875 0.125 0
v 1.875 0.875 -0.125
v 1.125 0.125 -0.125
v 1.125 0.875 0
v 1.125 0.125 0
v 1.125 0.875 -0.125
v 1.75 0.75 -1.25
v 1.75 0.25 -1.75
v 1.75 0.25 -1.25
v 1.75 0.75 -1.75
v 1 0.25 -1.75
v 1 0.75 -1.25
v 1 0.25 -1.25
v 1 0.75 -1.75
v 0.80078125 1.25 -3.25
v 1.30078125 0.8515625 -5.75
v 1.30078125 0.8515625 -3.25
v 1.5 0.25 -3.25
v 1.30078125 0.8515625 -5.75
v 1.5 0.25 -5.75
v -0.5 1 0
v -0.5 0 -1
v -0.5 0 0
v -0.5 1 -1
v -1 0 -1
v -1 1 -1
v -1 0 0
v -1 1 0
v 0.875 1.25 0
v 1.34375 0.875 0
v 1.125 0.875 0
v 0.875 1.25 -1
v 1.5 0.75 -1
v 1.34375 0.875 -0.125
v 0.875 1.5 -5.75
v 1.5 1 -6.75
v 1.5 1 -5.75
v 0.875 1.5 -6.75
v 0.875 1 -6.75
v 0.875 1 -5.75
v 1.5 1 -5.75
v 1.75 0.25 -6.75
v 1.75 0.25 -5.75
v 1.5 1 -6.75
v 1.5 0.25 -6.75
v 1.5 0.25 -5.75
v 0.125 0.75 -1
v -0.5 0 -1
v 0.125 0 -1
v -0.5 0.75 0
v 0.125 0 0
v -0.5 0 0
v 1.75 0.75 -0.125
v 1.75 0.25 -1.25
v 1.25 0.75 -1.25
v 1.25 0.25 -1
v 1.25 0.25 -1.25
v 1.5 0.25 -1
v 1.5 0.75 -0.125
v 1.5 0.75 -1
v 1.25 0.75 -1
v 1.70703125 0.125 -0.125
v 1.66796875 0.25 -1
v 1.75 0 -1
v 1.5 0 -1
v 1.5 0 0
v 1.70703125 0.125 0
v 1.75 0 0
v 1.5 0.25 -3.25
v 1.5 0 -5.75
v 1.5 0 -3.25
v -0.5 0.25 -5.75
v -0.5 0 -3.25
v -0.5 0 -5.75
v 1.75 0.25 -5.75
v 1.75 0 -6.75
v 1.75 0 -5.75
v 1.75 0.25 -6.75
v -0.75 0 -6.75
v -0.75 0.25 -6.75
v -0.75 0 -5.75
v -0.75 0.25 -5.75
v 1.5 0 -1
v 1.5 -1 -2
v 1.5 -1 -1
v -0.5 0 -2
v -0.5 -1 -1
v -0.5 -1 -2
v 1.5 0 -2
v -0.5 0 -1
v 1.75 0 0
v 1.75 -1 -1
v 1.75 -1 0
v 1.75 0 -1
v -0.75 -1 -1
v -0.75 0 -1
v -0.75 -1 0
v 1.75 0 -3.5
v 1.75 -1 -5.5
v 1.75 -1 -3.5
v -0.75 0 -5.5
v -0.75 -1 -3.5
v -0.75 -1 -5.5
v 1.75 0 -5.5
v -0.75 0 -3.5
v 2 0 -5.5
v 2 -1 -7
v 2 -1 -5.5
v 2 0 -7
v -1 -1 -7
v -1 0 -7
v -1 -1 -5.5
v -1 0 -5.5
v 1.5 0.75 -1
v 0.875 0 -1
v 1.5 0 -1
v 0.875 0 0
v 1.125 0.125 0
v 1.5 0 0
v 1 0.75 -1
v 1.25 0.25 -1.25
v 1.25 0.25 -1
v 1 0.25 -1.25
v -0.30078125 0.8515625 -5.75
v -0.5 0.25 -3.25
v -0.5 0.25 -5.75
v 1 0.75 -1.75
v 1.25 0.25 -2.25
v 1.25 0.25 -1.75
v 1 0.75 -1
v 0.625 1 -2.25
v 1 0.75 -2.25
v -0.5 1 -6.75
v 0.125 1.5 -5.75
v -0.5 1 -5.75
v 0.125 1 -5.75
v 0.125 1 -6.75
v 0.125 1.5 -6.75
v 0.875 1.5 -2.25
v 1.5 1 -3.25
v 1.5 1 -2.25
v 0.875 1.5 -3.25
v 0.875 1 -3.25
v 0.875 1 -2.25
v 1.5 1 -2.25
v 1.75 0.25 -3.25
v 1.75 0.25 -2.25
v 1.5 1 -3.25
v 1.5 0.25 -3.25
v 1.5 0.25 -2.25
v 0.875 1.25 -1
v 0.125 0 -1
v 0.875 0 -1
v 0.125 1.25 0
v 0.875 0 0
v 0.125 0 0
v 0.875 1.25 -1
v 0.125 1.25 0
v 0.125 1.25 -1
v 0.875 1.5 -3.25
v 0.125 0.25 -3.25
v 0.875 0.25 -3.25
v 0.125 1.5 -2.25
v 0.875 0.25 -2.25
v 0.125 0.25 -2.25
v 0.125 1.5 -3.25
v 1.5 1 -6.75
v 0.875 0.25 -6.75
v 1.5 0.25 -6.75
v 0.875 1 -5.75
v 1.5 0.25 -5.75
v 0.875 0.25 -5.75
v 0.875 1.5 -6.75
v 0.125 0.25 -6.75
v 0.875 0.25 -6.75
v 0.125 1.5 -5.75
v 0.875 0.25 -5.75
v 0.125 0.25 -5.75
v 0.125 1.5 -6.75
v 1.25 0.25 -1
v 1.25 0 -2.25
v 1.25 0 -1
v 2 0 -2
v 2 -1 -3.5
v 2 -1 -2
v 2 0 -3.5
v -1 -1 -3.5
v -1 0 -2
v -1 -1 -2
v -1 -1 -3
v -1 0 -3
v 1 1 -6.75
v 1 0 -7
v 1 0 -6.75
v 1 1 -7
v 0 0 -7
v 0 1 -7
v 0 0 -6.75
v 0 1 -6.75
v -0.75 -0.5 -1
v -1 -1 -1
v -0.75 -1 -1
v -1 -0.5 -1
v -1 -1 0
v -1 -0.5 0
v -0.75 -1 0
v 0 0.75 -2.25
v -0.25 0.25 -1
v -0.25 0.25 -2.25
v 0.625 1 -2.25
v 0.375 1 -1
v 0.375 1 -2.25
v 0.375 1 -2.25
v 0 0.75 -1
v 0 0.75 -2.25
v 0.80078125 1.25 -5.75
v 0.19921875 1.25 -3.25
v 0.19921875 1.25 -5.75
v -0.75 0 -0.875
v -1 -0.5 -0.875
v -0.75 -0.5 -0.875
v -1 0 -0.875
v -1 -0.5 -0.625
v -1 0 -0.625
v -0.75 -0.5 -0.625
v -0.75 0 -0.375
v -1 -0.5 -0.375
v -0.75 -0.5 -0.375
v -1 0 -0.375
v -1 -0.5 -0.125
v -1 0 -0.125
v -0.75 -0.5 -0.125
v 0.125 1.5 -3.25
v -0.5 1 -2.25
v -0.5 1 -3.25
v 0.125 1.5 -2.25
v 0.125 1 -2.25
v 0.125 1 -3.25
v 1.5 1 -3.25
v 0.875 0.25 -3.25
v 1.5 0.25 -3.25
v 0.875 1 -2.25
v 1.5 0.25 -2.25
v 0.875 0.25 -2.25
v 0.125 1 -3.25
v -0.5 0.25 -3.25
v 0.125 0.25 -3.25
v -0.5 1 -2.25
v 0.125 0.25 -2.25
v -0.5 0.25 -2.25
v 1.75 0.25 -2.25
v 1.75 0 -3.25
v 1.75 0 -2.25
v 1.75 0.25 -3.25
v -0.75 0 -3.25
v -0.75 0.25 -3.25
v -0.75 0 -2.25
v -0.75 0.25 -2.25
v -0.5 1 -6.75
v -0.75 0.25 -5.75
v -0.75 0.25 -6.75
v -0.5 1 -5.75
v -0.5 0.25 -5.75
v -0.5 0.25 -6.75
v 0.19921875 1.25 -5.75
v -0.30078125 0.8515625 -3.25
v -0.30078125 0.8515625 -5.75
v -0.5 1 -3.25
v -0.75 0.25 -2.25
v -0.75 0.25 -3.25
v -0.5 1 -2.25
v -0.5 0.25 -2.25
v -0.5 0.25 -3.25
v 0.125 1 -6.75
v -0.5 0.25 -6.75
v 0.125 0.25 -6.75
v -0.5 1 -5.75
v 0.125 0.25 -5.75
v -0.5 0.25 -5.75
v 0.75 1.19140625 -1.78515625
v 0.75 1.25 -2.68359375
v 0.75 0.81640625 -2.43359375
v 0.25 1.25 -2.68359375
v 0.25 1.19140625 -1.78515625
v 0.25 0.81640625 -2.43359375
v 0.75 1.625 -2.03515625
v 0.25 1.625 -2.03515625
v 1.25390625 0.76171875 -1.78515625
v 1.30859375 0.78125 -2.68359375
v 1.66015625 0.90234375 -2.03515625
v 1.46875 0.30859375 -2.68359375
v 1.4140625 0.2890625 -1.78515625
v 1.82421875 0.4296875 -2.03515625
v 0.8984375 0.640625 -2.43359375
v 1.0625 0.16796875 -2.43359375
v -0.30859375 0.78125 -2.68359375
v -0.25390625 0.76171875 -1.78515625
v -0.66015625 0.90234375 -2.03515625
v -0.46875 0.30859375 -2.68359375
v -0.4140625 0.2890625 -1.78515625
v -0.0625 0.16796875 -2.43359375
v -0.82421875 0.4296875 -2.03515625
v 0.1015625 0.640625 -2.43359375
v 1.1953125 0.8515625 -1.78515625
v 1.23046875 0.8984375 -2.68359375
v 0.96484375 0.55859375 -2.43359375
v 0.8359375 1.20703125 -2.68359375
v 0.80078125 1.16015625 -1.78515625
v 0.5703125 0.8671875 -2.43359375
v 1.4609375 1.1953125 -2.03515625
v 1.06640625 1.50390625 -2.03515625
v -0.1953125 0.8515625 -1.78515625
v -0.23046875 0.8984375 -2.68359375
v -0.4609375 1.1953125 -2.03515625
v 0.19921875 1.16015625 -1.78515625
v 0.1640625 1.20703125 -2.68359375
v 0.4296875 0.8671875 -2.43359375
v -0.06640625 1.50390625 -2.03515625
v 0.03515625 0.55859375 -2.43359375
v -0.25 0.25 -2.25
v -0.25 0 -1
v -0.25 0 -2.25
v 1.5 0.75 -1
v 0.875 1.25 -1
v 0.875 0.75 -1
v -1 0 -3.5
v -0.75 0 0
v 1.75 -1 0
v -0.75 -1 0
v 0.80078125 1.25 -5.75
v 1.30078125 0.8515625 -3.25
v 1.125 0.75 0
v 0.875 0.75 0
v 1.5 0.75 -0.125
v -0.5 0.75 -1
v 0.125 0.75 0
v 1.75 0.75 -1.25
v 1.5 0.25 -0.125
v 1.66796875 0.25 -0.125
v 1.5 0.25 -1
v 1.5 0.125 0
v 1.5 0.25 -5.75
v -0.5 0.25 -3.25
v -0.75 0 0
v 0.875 0.75 -1
v 0.875 0.75 0
v 1.125 0.75 0
v 1.5 0.125 0
v 1 0.75 -1.25
v 1 0.25 -1
v -0.30078125 0.8515625 -3.25
v 1 0.75 -2.25
v 0.625 1 -1
v 0.125 1.25 -1
v 0.875 1.25 0
v 0.875 1.25 0
v 0.875 1.5 -2.25
v 0.875 1 -6.75
v 1.5 1 -5.75
v 0.875 1.5 -5.75
v 1.25 0.25 -2.25
v -0.75 -0.5 0
v 0 0.75 -1
v 0.625 1 -1
v 0.375 1 -1
v 0.80078125 1.25 -3.25
v -0.75 0 -0.625
v -0.75 0 -0.125
v 0.875 1 -3.25
v 1.5 1 -2.25
v -0.5 1 -3.25
v 0.125 1 -2.25
v 0.19921875 1.25 -3.25
v -0.5 1 -6.75
v 0.125 1 -5.75
v -0.25 0.25 -1
v 1.75 0 0
vt 0.78125 0.375
vt 0.875 0.25
vt 0.78125 0.25
vt 0.203125 0.1875
vt 0.28125 0.125
vt 0.203125 0.125
vt 0.203125 0.1875
vt 0.203125 0.125
vt 0.28125 0.125
vt 0.953125 0.59375
vt 0.859375 0.609375
vt 0.953125 0.609375
vt 0.859375 0.609375
vt 0.953125 0.703125
vt 0.953125 0.609375
vt 0.859375 0.90625
vt 0.953125 1
vt 0.953125 0.90625
vt 0.859375 0.609375
vt 0.953125 0.59375
vt 0.859375 0.59375
vt 0.859375 0.609375
vt 0.953125 0.59375
vt 0.859375 0.59375
vt 0.984375 0.703125
vt 0.921875 0.765625
vt 0.984375 0.765625
vt 0.921875 0.796875
vt 0.984375 0.703125
vt 0.921875 0.703125
vt 0.859375 0.859375
vt 0.921875 0.828125
vt 0.859375 0.828125
vt 0.921875 0.8125
vt 0.984375 0.90625
vt 0.921875 0.90625
vt 0.921875 0.8125
vt 0.984375 0.90625
vt 0.984375 0.8125
vt 0.40625 0.1875
vt 0.71875 0.265625
vt 0.71875 0.1875
vt 0.40625 0.19531312499999998
vt 0.71875 0.125
vt 0.40625 0.125
vt 0.28125 0.5
vt 0.40625 0.375
vt 0.28125 0.375
vt 0.609375 0.625
vt 0.734375 0.6875
vt 0.609375 0.6875
vt 0.734375 0.5
vt 0.859375 0.625
vt 0.859375 0.5
vt 0.609375 0.6875
vt 0.734375 0.625
vt 0.609375 0.625
vt 0.734375 0.6875
vt 0.609375 0.625
vt 0.734375 0.625
vt 0.734375 0.625
vt 0.609375 0.6875
vt 0.609375 0.625
vt 0.050975 0.140625
vt 0.109375 0.1875
vt 0.07858875 0.140625
vt 0.875 0.125
vt 0.78125 0.125
vt 0.851561875 0.234375
vt 0.28125 0.328125
vt 0.15625 0.421875
vt 0.15625 0.328125
vt 0.109375 0.1875
vt 0.03125 0.125
vt 0.109375 0.125
vt 0.109375 0.1875
vt 0.109375 0.125
vt 0.03125 0.125
vt 0.28125 0.22656187500000002
vt 0.15625 0.328125
vt 0.15625 0.22656187500000002
vt 0.03125 0.125
vt 0 0.03125
vt 0.03125 0.03125
vt 0.03125 0.125
vt 0.03125 0.03125
vt 0 0.03125
vt 0.28125 0.03125
vt 0.203125 0.125
vt 0.203125 0.03125
vt 0.203125 0.03125
vt 0.28125 0.125
vt 0.28125 0.03125
vt 0.859375 0.859375
vt 0.921875 0.703125
vt 0.859375 0.703125
vt 0.921875 0.859375
vt 0.859375 0.828125
vt 0.921875 0.828125
vt 0.890625 0.83072875
vt 0.859375 0.859375
vt 0.859375 0.71875
vt 0.890625 0.71875
vt 0.859375 0.71875
vt 0.890625 0.828125
vt 0 0
vt 0 0
vt 0 0
vt 0 0.03125
vt 0.109375 0.015625
vt 0 0
vt 0.03125 0.03125
vt 0.011706875 0.0625
vt 0 0.03125
vt 0.004953125 0.046875
vt 0.03125 0.03125
vt 0 0.03125
vt 0 0
vt 0 0
vt 0 0
vt 0.40625 0.265625
vt 0.71875 0.296875
vt 0.71875 0.265625
vt 0.71875 0.265625
vt 0.40625 0.296875
vt 0.40625 0.265625
vt 0.28125 0.1875
vt 0.15625 0.21875
vt 0.15625 0.1875
vt 0 0
vt 0.3125 0.03125
vt 0.3125 0
vt 0.15625 0.1875
vt 0.28125 0.21875
vt 0.28125 0.1875
vt 0.3125 0
vt 0 0.03125
vt 0 0
vt 0.125 0.5
vt 0.25 0.625
vt 0.25 0.5
vt 0.125 0.5
vt 0.25 0.625
vt 0.25 0.5
vt 0.734375 0.9375
vt 0.609375 0.6875
vt 0.609375 0.9375
vt 0.734375 0.9375
vt 0.609375 0.6875
vt 0.609375 0.9375
vt 0.125 0.5
vt 0.25 0.625
vt 0.25 0.5
vt 0.421875 0.5
vt 0.734375 0.625
vt 0.734375 0.5
vt 0.25 0.625
vt 0.125 0.5625
vt 0.125 0.625
vt 0.859375 0.96875
vt 0.734375 0.65625
vt 0.734375 0.96875
vt 0.4375 0.5
vt 0.6875 0.625
vt 0.6875 0.5
vt 0.4375 0.5
vt 0.6875 0.625
vt 0.6875 0.5
vt 0.421875 0.65625
vt 0.1875 0.96875
vt 0.421875 0.96875
vt 0.421875 0.96875
vt 0.1875 0.65625
vt 0.1875 0.96875
vt 0.3125 0.5
vt 0.5 0.625
vt 0.5 0.5
vt 0.5 0
vt 0.875 0.125
vt 0.875 0
vt 0.3125 0.5
vt 0.5 0.625
vt 0.5 0.5
vt 0.359375 0.5
vt 0.734375 0.625
vt 0.734375 0.5
vt 0.1875 0.625
vt 0 1
vt 0.1875 1
vt 0.1875 1
vt 0 0.625
vt 0 1
vt 0.109375 0.03125
vt 0.03125 0.125
vt 0.03125 0.03125
vt 0.07858875 0.046875
vt 0.109375 0.03125
vt 0.03125 0.03125
vt 0 0.19531187500000002
vt 0.03125 0.265625
vt 0.03125 0.19531187500000002
vt 0 0
vt 0 0
vt 0 0
vt 0.71875 0.296875
vt 0.40625 0.367188125
vt 0.40625 0.296875
vt 0 0.19531187500000002
vt 0.0625 0.265625
vt 0.0625 0.19531187500000002
vt 0.15625 0.1875
vt 0 0.24218812499999998
vt 0.15625 0.24218687500000002
vt 0.15625 0.421875
vt 0.28125 0.328125
vt 0.15625 0.328125
vt 0.109375 0.1875
vt 0.03125 0.125
vt 0.109375 0.125
vt 0.109375 0.1875
vt 0.109375 0.125
vt 0.03125 0.125
vt 0.15625 0.328125
vt 0.28125 0.421875
vt 0.28125 0.328125
vt 0.109375 0.1875
vt 0.03125 0.125
vt 0.109375 0.125
vt 0.109375 0.1875
vt 0.109375 0.125
vt 0.03125 0.125
vt 0.15625 0.22656187500000002
vt 0.28125 0.328125
vt 0.28125 0.22656187500000002
vt 0.03125 0.125
vt 0 0.03125
vt 0.03125 0.03125
vt 0.03125 0.125
vt 0.03125 0.03125
vt 0 0.03125
vt 0 0
vt 0 0
vt 0 0
vt 0.203125 0.03125
vt 0.109375 0.1875
vt 0.109375 0.03125
vt 0.90625 0.3125
vt 1 0.46875
vt 1 0.3125
vt 0.875 0.375
vt 0.78125 0.25
vt 0.875 0.25
vt 0.203125 0.03125
vt 0.109375 0.1875
vt 0.109375 0.03125
vt 0.109375 0.03125
vt 0.203125 0.1875
vt 0.203125 0.03125
vt 0.40625 0.28125
vt 0.28125 0.375
vt 0.28125 0.28125
vt 0.109375 0.125
vt 0.03125 0.03125
vt 0.03125 0.125
vt 0.03125 0.125
vt 0.109375 0.03125
vt 0.109375 0.125
vt 0.109375 0.03125
vt 0.203125 0.1875
vt 0.203125 0.03125
vt 0.203125 0.03125
vt 0.109375 0.1875
vt 0.109375 0.03125
vt 0.28125 0.28125
vt 0.40625 0.375
vt 0.40625 0.28125
vt 0 0.1875
vt 0.15625 0.21875
vt 0.15625 0.1875
vt 0.5 0
vt 0.3125 0.125
vt 0.3125 0
vt 0.359375 0.5
vt 0.734375 0.625
vt 0.734375 0.5
vt 0 0.500065
vt 0.375 0.625
vt 0.375 0.500065
vt 0.609375 0.625
vt 0.484375 0.625
vt 0.609375 1
vt 0.609375 1
vt 0.609375 0.625
vt 0.484375 1
vt 0.15625 0.5
vt 0.28125 0.46875
vt 0.15625 0.46875
vt 0.28125 0.375
vt 0.40625 0.5
vt 0.40625 0.375
vt 0.15625 0.46875
vt 0.28125 0.5
vt 0.15625 0.5
vt 0 0
vt 0 0
vt 0 0
vt 0 0
vt 0 0
vt 0 0
vt 0.15625 0.46875
vt 0.28125 0.5
vt 0.15625 0.5
vt 0.71875 0.4375
vt 0.6875 0.5
vt 0.6875 0.4375
vt 0.859375 0.4375
vt 0.734375 0.5
vt 0.734375 0.4375
vt 0.71875 0.4375
vt 0.6875 0.5
vt 0.6875 0.4375
vt 0.859375 0.65625
vt 0.734375 0.625
vt 0.734375 0.65625
vt 0.28125 0.5
vt 0.15625 0.46875
vt 0.15625 0.5
vt 0 0.19531187500000002
vt 0.15625 0.265625
vt 0.15625 0.19531187500000002
vt 0.15625 0.21875
vt 0 0.1875
vt 0 0.21875
vt 0.15625 0.24218687500000002
vt 0 0.1875
vt 0 0.24218812499999998
vt 0.71875 0.429688125
vt 0.40625 0.5
vt 0.40625 0.429688125
vt 0.15625 0.5
vt 0.21875 0.46875
vt 0.15625 0.46875
vt 0.15625 0.5
vt 0.21875 0.46875
vt 0.15625 0.46875
vt 0.15625 0.5
vt 0.21875 0.46875
vt 0.15625 0.46875
vt 0 0
vt 0 0
vt 0 0
vt 0 0
vt 0 0
vt 0 0
vt 0.15625 0.5
vt 0.21875 0.46875
vt 0.15625 0.46875
vt 0.15625 0.5
vt 0.21875 0.46875
vt 0.15625 0.46875
vt 0.15625 0.5
vt 0.21875 0.46875
vt 0.15625 0.46875
vt 0 0
vt 0 0
vt 0 0
vt 0 0
vt 0 0
vt 0 0
vt 0.28125 0.328125
vt 0.15625 0.421875
vt 0.15625 0.328125
vt 0.203125 0.1875
vt 0.28125 0.125
vt 0.203125 0.125
vt 0.203125 0.1875
vt 0.203125 0.125
vt 0.28125 0.125
vt 0.109375 0.03125
vt 0.03125 0.125
vt 0.03125 0.03125
vt 0.03125 0.03125
vt 0.109375 0.125
vt 0.109375 0.03125
vt 0.28125 0.03125
vt 0.203125 0.125
vt 0.203125 0.03125
vt 0.203125 0.03125
vt 0.28125 0.125
vt 0.28125 0.03125
vt 0.15625 0.1875
vt 0.28125 0.21875
vt 0.28125 0.1875
vt 0.3125 0
vt 0 0.03125
vt 0 0
vt 0.28125 0.1875
vt 0.15625 0.21875
vt 0.15625 0.1875
vt 0 0
vt 0.3125 0.03125
vt 0.3125 0
vt 0.15625 0.22656187500000002
vt 0.28125 0.328125
vt 0.28125 0.22656187500000002
vt 0.28125 0.125
vt 0.3125 0.03125
vt 0.28125 0.03125
vt 0.28125 0.125
vt 0.28125 0.03125
vt 0.3125 0.03125
vt 0.71875 0.1875
vt 0.40625 0.265625
vt 0.40625 0.1875
vt 0.28125 0.22656187500000002
vt 0.15625 0.328125
vt 0.15625 0.22656187500000002
vt 0.28125 0.125
vt 0.3125 0.03125
vt 0.28125 0.03125
vt 0.28125 0.125
vt 0.28125 0.03125
vt 0.3125 0.03125
vt 0 0
vt 0 0
vt 0 0
vt 0.28125 0.03125
vt 0.203125 0.125
vt 0.203125 0.03125
vt 0.203125 0.03125
vt 0.28125 0.125
vt 0.28125 0.03125
vt 0.15625 0.4375
vt 0.0625 0.5
vt 0.15625 0.5
vt 0.0625 0.4375
vt 0.15625 0.5
vt 0.15625 0.4375
vt 0 0.5
vt 0.0625 0.4375
vt 0.0625 0.5
vt 0.0625 0.5
vt 0.15625 0.4375
vt 0.15625 0.5
vt 0.0625 0.4375
vt 0.15625 0.5
vt 0.15625 0.4375
vt 0.15625 0.4375
vt 0.0625 0.5
vt 0.0625 0.4375
vt 0.0625 0.4375
vt 0.15625 0.5
vt 0.0625 0.5
vt 0.0625 0.5
vt 0 0.4375
vt 0 0.5
vt 0.0625 0.5
vt 0.15625 0.4375
vt 0.0625 0.4375
vt 0.0625 0.5
vt 0.15625 0.4375
vt 0.15625 0.5
vt 0.0625 0.5
vt 0.15625 0.4375
vt 0.0625 0.4375
vt 0.0625 0.4375
vt 0.15625 0.5
vt 0.15625 0.4375
vt 0.0625 0.5
vt 0 0.4375
vt 0.0625 0.4375
vt 0.0625 0.5
vt 0.15625 0.4375
vt 0.15625 0.5
vt 0.15625 0.4375
vt 0.0625 0.5
vt 0.15625 0.5
vt 0.15625 0.4375
vt 0.0625 0.5
vt 0.15625 0.5
vt 0.0625 0.4375
vt 0.15625 0.5
vt 0.15625 0.4375
vt 0 0.5
vt 0.0625 0.4375
vt 0.0625 0.5
vt 0.0625 0.5
vt 0.15625 0.4375
vt 0.15625 0.5
vt 0.0625 0.5
vt 0.15625 0.4375
vt 0.0625 0.4375
vt 0.15625 0.5
vt 0.0625 0.4375
vt 0.0625 0.5
vt 0.15625 0.4375
vt 0.0625 0.5
vt 0.15625 0.5
vt 0.0625 0.5
vt 0 0.4375
vt 0.0625 0.4375
vt 0.15625 0.5
vt 0.0625 0.4375
vt 0.15625 0.4375
vt 0.0625 0.4375
vt 0.15625 0.5
vt 0.15625 0.4375
vt 0 0.1875
vt 0.15625 0.21875
vt 0.15625 0.1875
vt 0.109375 0.1875
vt 0.03125 0.125
vt 0.109375 0.125
vt 0.4375 0
vt 0.5 0.125
vt 0.5 0
vt 0.875 0.46875
vt 1 0.59375
vt 1 0.46875
vt 0.875 0.3125
vt 1 0
vt 0.875 0
vt 0.875 0.375
vt 0.875 0.25
vt 0.78125 0.375
vt 0.859375 0.59375
vt 0.859375 0.609375
vt 0.953125 0.59375
vt 0.859375 0.703125
vt 0.953125 0.703125
vt 0.859375 0.609375
vt 0.859375 1
vt 0.953125 1
vt 0.859375 0.90625
vt 0.953125 0.609375
vt 0.953125 0.59375
vt 0.859375 0.609375
vt 0.953125 0.609375
vt 0.953125 0.59375
vt 0.859375 0.609375
vt 0.921875 0.703125
vt 0.921875 0.765625
vt 0.984375 0.703125
vt 0.984375 0.796875
vt 0.984375 0.703125
vt 0.921875 0.796875
vt 0.921875 0.859375
vt 0.921875 0.828125
vt 0.859375 0.859375
vt 0.984375 0.8125
vt 0.984375 0.90625
vt 0.921875 0.8125
vt 0.921875 0.90625
vt 0.984375 0.90625
vt 0.921875 0.8125
vt 0.40625 0.265625
vt 0.71875 0.265625
vt 0.40625 0.1875
vt 0.71875 0.19531187500000002
vt 0.71875 0.125
vt 0.40625 0.19531312499999998
vt 0.40625 0.5
vt 0.40625 0.375
vt 0.28125 0.5
vt 0.734375 0.625
vt 0.734375 0.6875
vt 0.609375 0.625
vt 0.734375 0.625
vt 0.859375 0.625
vt 0.734375 0.5
vt 0.734375 0.6875
vt 0.734375 0.625
vt 0.609375 0.6875
vt 0.609375 0.6875
vt 0.609375 0.625
vt 0.734375 0.6875
vt 0.734375 0.6875
vt 0.609375 0.6875
vt 0.734375 0.625
vt 0.109375 0.125
vt 0.07858875 0.125
vt 0.07858875 0.140625
vt 0.109375 0.1875
vt 0.109375 0.125
vt 0.07858875 0.140625
vt 0.875 0.234375
vt 0.875 0.125
vt 0.851561875 0.234375
vt 0.851561875 0.25
vt 0.851561875 0.234375
vt 0.78125 0.25
vt 0.78125 0.125
vt 0.78125 0.25
vt 0.851561875 0.234375
vt 0.28125 0.421875
vt 0.15625 0.421875
vt 0.28125 0.328125
vt 0.28125 0.328125
vt 0.15625 0.328125
vt 0.28125 0.22656187500000002
vt 0.28125 0.125
vt 0.203125 0.125
vt 0.28125 0.03125
vt 0.203125 0.125
vt 0.28125 0.125
vt 0.203125 0.03125
vt 0.921875 0.859375
vt 0.921875 0.703125
vt 0.859375 0.859375
vt 0.859375 0.859375
vt 0.859375 0.828125
vt 0.921875 0.859375
vt 0.921875 0.859375
vt 0.859375 0.859375
vt 0.890625 0.83072875
vt 0.921875 0.83072875
vt 0.921875 0.859375
vt 0.890625 0.83072875
vt 0.890625 0.71875
vt 0.890625 0.83072875
vt 0.859375 0.71875
vt 0.921875 0.859375
vt 0.921875 0.828125
vt 0.890625 0.828125
vt 0.859375 0.859375
vt 0.921875 0.859375
vt 0.890625 0.828125
vt 0.859375 0.71875
vt 0.859375 0.859375
vt 0.890625 0.828125
vt 0 0
vt 0 0
vt 0 0
vt 0.125 0
vt 0 0
vt 0.109375 0.015625
vt 0.125 0.015625
vt 0.125 0
vt 0.109375 0.015625
vt 0.109375 0.03125
vt 0.109375 0.015625
vt 0 0.03125
vt 0.03125 0.0625
vt 0.011706875 0.0625
vt 0.03125 0.03125
vt 0.03125 0.046875
vt 0.03125 0.03125
vt 0.004953125 0.046875
vt 0 0
vt 0 0
vt 0 0
vt 0.40625 0.296875
vt 0.71875 0.296875
vt 0.40625 0.265625
vt 0.71875 0.296875
vt 0.40625 0.296875
vt 0.71875 0.265625
vt 0.28125 0.21875
vt 0.15625 0.21875
vt 0.28125 0.1875
vt 0 0.03125
vt 0.3125 0.03125
vt 0 0
vt 0.15625 0.21875
vt 0.28125 0.21875
vt 0.15625 0.1875
vt 0.3125 0.03125
vt 0 0.03125
vt 0.3125 0
vt 0.125 0.625
vt 0.25 0.625
vt 0.125 0.5
vt 0.125 0.625
vt 0.25 0.625
vt 0.125 0.5
vt 0.734375 0.6875
vt 0.609375 0.6875
vt 0.734375 0.9375
vt 0.734375 0.6875
vt 0.609375 0.6875
vt 0.734375 0.9375
vt 0.125 0.625
vt 0.25 0.625
vt 0.125 0.5
vt 0.421875 0.625
vt 0.734375 0.625
vt 0.421875 0.5
vt 0.25 0.5625
vt 0.125 0.5625
vt 0.25 0.625
vt 0.859375 0.65625
vt 0.734375 0.65625
vt 0.859375 0.96875
vt 0.4375 0.625
vt 0.6875 0.625
vt 0.4375 0.5
vt 0.4375 0.625
vt 0.6875 0.625
vt 0.4375 0.5
vt 0.1875 0.65625
vt 0.1875 0.96875
vt 0.421875 0.65625
vt 0.421875 0.65625
vt 0.1875 0.65625
vt 0.421875 0.96875
vt 0.3125 0.625
vt 0.5 0.625
vt 0.3125 0.5
vt 0.5 0.125
vt 0.875 0.125
vt 0.5 0
vt 0.3125 0.625
vt 0.5 0.625
vt 0.3125 0.5
vt 0.359375 0.625
vt 0.734375 0.625
vt 0.359375 0.5
vt 0 0.625
vt 0 1
vt 0.1875 0.625
vt 0.1875 0.625
vt 0 0.625
vt 0.1875 1
vt 0.109375 0.125
vt 0.03125 0.125
vt 0.109375 0.03125
vt 0.109375 0.125
vt 0.109375 0.03125
vt 0.07858875 0.046875
vt 0.07858875 0.125
vt 0.109375 0.125
vt 0.07858875 0.046875
vt 0.03125 0.046875
vt 0.07858875 0.046875
vt 0.03125 0.03125
vt 0 0.265625
vt 0.03125 0.265625
vt 0 0.19531187500000002
vt 0 0
vt 0 0
vt 0 0
vt 0.71875 0.367186875
vt 0.40625 0.367188125
vt 0.71875 0.296875
vt 0 0.265625
vt 0.0625 0.265625
vt 0 0.19531187500000002
vt 0 0.1875
vt 0 0.24218812499999998
vt 0.15625 0.1875
vt 0.28125 0.421875
vt 0.28125 0.328125
vt 0.15625 0.421875
vt 0.15625 0.421875
vt 0.28125 0.421875
vt 0.15625 0.328125
vt 0.15625 0.328125
vt 0.28125 0.328125
vt 0.15625 0.22656187500000002
vt 0 0
vt 0 0
vt 0 0
vt 0.203125 0.1875
vt 0.109375 0.1875
vt 0.203125 0.03125
vt 0.90625 0.46875
vt 1 0.46875
vt 0.90625 0.3125
vt 0.78125 0.375
vt 0.78125 0.25
vt 0.875 0.375
vt 0.203125 0.1875
vt 0.109375 0.1875
vt 0.203125 0.03125
vt 0.109375 0.1875
vt 0.203125 0.1875
vt 0.109375 0.03125
vt 0.40625 0.375
vt 0.28125 0.375
vt 0.40625 0.28125
vt 0.109375 0.03125
vt 0.03125 0.03125
vt 0.109375 0.125
vt 0.03125 0.03125
vt 0.109375 0.03125
vt 0.03125 0.125
vt 0.109375 0.1875
vt 0.203125 0.1875
vt 0.109375 0.03125
vt 0.203125 0.1875
vt 0.109375 0.1875
vt 0.203125 0.03125
vt 0.28125 0.375
vt 0.40625 0.375
vt 0.28125 0.28125
vt 0 0.21875
vt 0.15625 0.21875
vt 0 0.1875
vt 0.5 0.125
vt 0.3125 0.125
vt 0.5 0
vt 0.359375 0.625
vt 0.734375 0.625
vt 0.359375 0.5
vt 0 0.625
vt 0.375 0.625
vt 0 0.500065
vt 0.421875 1
vt 0.609375 1
vt 0.484375 0.625
vt 0.421875 0.625
vt 0.421875 1
vt 0.484375 0.625
vt 0.421875 1
vt 0.484375 1
vt 0.421875 0.625
vt 0.609375 0.625
vt 0.421875 0.625
vt 0.484375 1
vt 0.28125 0.5
vt 0.28125 0.46875
vt 0.15625 0.5
vt 0.28125 0.5
vt 0.40625 0.5
vt 0.28125 0.375
vt 0.28125 0.46875
vt 0.28125 0.5
vt 0.15625 0.46875
vt 0 0
vt 0 0
vt 0 0
vt 0 0
vt 0 0
vt 0 0
vt 0.28125 0.46875
vt 0.28125 0.5
vt 0.15625 0.46875
vt 0.71875 0.5
vt 0.6875 0.5
vt 0.71875 0.4375
vt 0.859375 0.5
vt 0.734375 0.5
vt 0.859375 0.4375
vt 0.71875 0.5
vt 0.6875 0.5
vt 0.71875 0.4375
vt 0.859375 0.625
vt 0.734375 0.625
vt 0.859375 0.65625
vt 0.28125 0.46875
vt 0.15625 0.46875
vt 0.28125 0.5
vt 0 0.265625
vt 0.15625 0.265625
vt 0 0.19531187500000002
vt 0.15625 0.1875
vt 0 0.1875
vt 0.15625 0.21875
vt 0.15625 0.1875
vt 0 0.1875
vt 0.15625 0.24218687500000002
vt 0.71875 0.5
vt 0.40625 0.5
vt 0.71875 0.429688125
vt 0.21875 0.5
vt 0.21875 0.46875
vt 0.15625 0.5
vt 0.21875 0.5
vt 0.21875 0.46875
vt 0.15625 0.5
vt 0.21875 0.5
vt 0.21875 0.46875
vt 0.15625 0.5
vt 0 0
vt 0 0
vt 0 0
vt 0 0
vt 0 0
vt 0 0
vt 0.21875 0.5
vt 0.21875 0.46875
vt 0.15625 0.5
vt 0.21875 0.5
vt 0.21875 0.46875
vt 0.15625 0.5
vt 0.21875 0.5
vt 0.21875 0.46875
vt 0.15625 0.5
vt 0 0
vt 0 0
vt 0 0
vt 0 0
vt 0 0
vt 0 0
vt 0.28125 0.421875
vt 0.15625 0.421875
vt 0.28125 0.328125
vt 0.109375 0.125
vt 0.03125 0.125
vt 0.109375 0.03125
vt 0.03125 0.125
vt 0.109375 0.125
vt 0.03125 0.03125
vt 0.28125 0.125
vt 0.203125 0.125
vt 0.28125 0.03125
vt 0.203125 0.125
vt 0.28125 0.125
vt 0.203125 0.03125
vt 0.15625 0.21875
vt 0.28125 0.21875
vt 0.15625 0.1875
vt 0.3125 0.03125
vt 0 0.03125
vt 0.3125 0
vt 0.28125 0.21875
vt 0.15625 0.21875
vt 0.28125 0.1875
vt 0 0.03125
vt 0.3125 0.03125
vt 0 0
vt 0.15625 0.328125
vt 0.28125 0.328125
vt 0.15625 0.22656187500000002
vt 0.71875 0.265625
vt 0.40625 0.265625
vt 0.71875 0.1875
vt 0.28125 0.328125
vt 0.15625 0.328125
vt 0.28125 0.22656187500000002
vt 0 0
vt 0 0
vt 0 0
vt 0.28125 0.125
vt 0.203125 0.125
vt 0.28125 0.03125
vt 0.203125 0.125
vt 0.28125 0.125
vt 0.203125 0.03125
vt 0.0625 0.4375
vt 0.0625 0.5
vt 0.15625 0.4375
vt 0.0625 0.5
vt 0.15625 0.5
vt 0.0625 0.4375
vt 0 0.4375
vt 0.0625 0.4375
vt 0 0.5
vt 0.0625 0.4375
vt 0.15625 0.4375
vt 0.0625 0.5
vt 0.0625 0.5
vt 0.15625 0.5
vt 0.0625 0.4375
vt 0.15625 0.5
vt 0.0625 0.5
vt 0.15625 0.4375
vt 0.15625 0.4375
vt 0.15625 0.5
vt 0.0625 0.4375
vt 0.0625 0.4375
vt 0 0.4375
vt 0.0625 0.5
vt 0.15625 0.5
vt 0.15625 0.4375
vt 0.0625 0.5
vt 0.0625 0.4375
vt 0.15625 0.4375
vt 0.0625 0.5
vt 0.15625 0.5
vt 0.15625 0.4375
vt 0.0625 0.5
vt 0.0625 0.5
vt 0.15625 0.5
vt 0.0625 0.4375
vt 0 0.5
vt 0 0.4375
vt 0.0625 0.5
vt 0.0625 0.4375
vt 0.15625 0.4375
vt 0.0625 0.5
vt 0.0625 0.4375
vt 0.0625 0.5
vt 0.15625 0.4375
vt 0.0625 0.4375
vt 0.0625 0.5
vt 0.15625 0.4375
vt 0.0625 0.5
vt 0.15625 0.5
vt 0.0625 0.4375
vt 0 0.4375
vt 0.0625 0.4375
vt 0 0.5
vt 0.0625 0.4375
vt 0.15625 0.4375
vt 0.0625 0.5
vt 0.15625 0.5
vt 0.15625 0.4375
vt 0.0625 0.5
vt 0.15625 0.4375
vt 0.0625 0.4375
vt 0.15625 0.5
vt 0.0625 0.4375
vt 0.0625 0.5
vt 0.15625 0.4375
vt 0 0.5
vt 0 0.4375
vt 0.0625 0.5
vt 0.0625 0.5
vt 0.0625 0.4375
vt 0.15625 0.5
vt 0.0625 0.5
vt 0.15625 0.5
vt 0.0625 0.4375
vt 0 0.21875
vt 0.15625 0.21875
vt 0 0.1875
vt 0.4375 0.125
vt 0.5 0.125
vt 0.4375 0
vt 0.875 0.59375
vt 1 0.59375
vt 0.875 0.46875
vt 1 0.3125
vt 1 0
vt 0.875 0.3125
vn -0.6246950475544243 0.7808688094430304 0
vn 0 0 1
vn 0 0 -1
vn 1 0 0
vn 0 0 -1
vn 0 0 1
vn 0 -1 0
vn 0 1 0
vn 1 0 0
vn 0 0 -1
vn 0 0 1
vn 0 -1 0
vn 0 1 0
vn 0.6232037050564748 0.7820595514434193 0
vn 0.9492979228560804 0.31437788354324736 0
vn 1 0 0
vn 0 0 -1
vn -1 0 0
vn 0 0 1
vn 0 -1 0
vn 0 1 0
vn 0 0 1
vn 0.6246950475544243 0.7808688094430304 0
vn 0.6246950475544243 0.7808688094430304 0
vn 0 0 -1
vn 0 0 1
vn 0.948683298050514 0.316227766016838 0
vn 0 0 -1
vn 0 0 1
vn 0 0 -1
vn 0 0 1
vn 1 0 0
vn -1 0 0
vn 0 -1 0
vn 0 1 0
vn 0 0 1
vn 0.9501553270938734 0.31176971670267717 0.0021208824265488246
vn 0 0 -1
vn 0 0 1
vn 0 -1 0
vn 1 0 0
vn -1 0 0
vn 1 0 0
vn 0 0 -1
vn -1 0 0
vn 0 0 1
vn 1 0 0
vn -1 0 0
vn 0 -1 0
vn 0 1 0
vn 1 0 0
vn 0 0 -1
vn -1 0 0
vn 0 -1 0
vn 1 0 0
vn -1 0 0
vn 0 -1 0
vn 0 1 0
vn 1 0 0
vn 0 0 -1
vn -1 0 0
vn 0 0 1
vn 0 -1 0
vn 0 1 0
vn 0 0 -1
vn 0 0 1
vn 0.8944271909999161 0.44721359549995804 0
vn 0 -1 0
vn -0.9492979228560804 0.31437788354324736 0
vn 0.8944271909999161 0.44721359549995804 0
vn 0.5547001962252291 0.8320502943378437 0
vn -0.6246950475544243 0.7808688094430304 0
vn 0 0 1
vn 0 0 -1
vn 0.6246950475544243 0.7808688094430304 0
vn 0 0 -1
vn 0 0 1
vn 0.948683298050514 0.316227766016838 0
vn 0 0 -1
vn 0 0 1
vn 0 -1 0
vn 0 0 -1
vn 0 0 1
vn 0 1 0
vn 0 0 -1
vn 0 0 1
vn 0 1 0
vn 0 0 -1
vn 0 0 1
vn 0 0 -1
vn 0 0 1
vn 0 1 0
vn 1 0 0
vn 1 0 0
vn 0 0 -1
vn 0 0 1
vn 0 -1 0
vn 0 1 0
vn 1 0 0
vn 0 0 -1
vn -1 0 0
vn 0 0 1
vn 0 -1 0
vn 0 1 0
vn 0 0 -1
vn -1 0 0
vn 0 0 1
vn 0 -1 0
vn 0 1 0
vn -0.8944271909999161 0.44721359549995804 0
vn 0 1 0
vn -0.5547001962252291 0.8320502943378437 0
vn 0 1 0
vn 0 0 -1
vn -1 0 0
vn 0 0 1
vn 0 -1 0
vn 0 1 0
vn 0 0 -1
vn -1 0 0
vn 0 0 1
vn 0 -1 0
vn 0 1 0
vn -0.6246950475544243 0.7808688094430304 0
vn 0 0 1
vn 0 0 -1
vn 0 0 -1
vn 0 0 1
vn 0 0 -1
vn 0 0 1
vn 1 0 0
vn 0 0 -1
vn -1 0 0
vn 0 0 1
vn -0.948683298050514 0.316227766016838 0
vn 0 0 1
vn 0 0 -1
vn -0.6232037050564748 0.7820595514434193 0
vn -0.948683298050514 0.316227766016838 0
vn 0 0 1
vn 0 0 -1
vn 0 -1 0
vn 0 0 -1
vn 0 0 1
vn 1 0 0
vn -1 0 0
vn 0 0.49949721934415764 0.8663154898000234
vn 0 -0.8656642097802241 0.5006250851741055
vn 0 0.8656642097802241 -0.5006250851741055
vn -0.3267495424868399 0.9451107369619349 0.0006567829999735475
vn 0.32385816822236635 -0.9461052567641843 -0.0008543996900338811
vn 0.4749114391623952 0.16484529293240163 0.8644565659133681
vn 0.8195288844879481 0.2844645714751555 -0.4974457910821997
vn -0.8195288844879481 -0.2844645714751555 0.4974457910821997
vn 0.3267495424868399 0.9451107369619349 0.0006567829999735475
vn -0.3267495424868399 -0.9451107369619349 -0.0006567829999735475
vn -0.47307921363994193 0.16029956825816213 0.8663140920232459
vn -0.8195865235264354 0.27771113607094094 -0.5011531256572578
vn 0.8195288844879481 -0.2844645714751555 0.4974457910821997
vn 0.787404104587525 -0.6164356839988815 -0.0013503968117341402
vn -0.787404104587525 0.6164356839988815 0.0013503968117341402
vn 0.3073036543640743 0.39288188722495576 0.8667227276961431
vn -0.5341339676124977 -0.682880135808383 0.49837297755883186
vn 0.5330377639856826 0.6814786602854929 -0.5014554593786309
vn -0.7909414690200712 -0.6118910378655686 -0.0009748662313312299
vn 0.787404104587525 0.6164356839988815 0.0013503968117341402
vn -0.3073036543640743 0.39288188722495576 0.8667227276961431
vn 0.5341339676124977 -0.682880135808383 0.49837297755883186
vn -0.5330377639856826 0.6814786602854929 -0.5014554593786309
vn -1 0 0
vn 0 0 -1
vn -1 0 0
vn -1 0 0
vn 0 0 1
vn -0.6246950475544243 0.7808688094430304 0
vn 1 0 0
vn 0 0 -1
vn 0 0 1
vn 0 -1 0
vn 0 1 0
vn 1 0 0
vn 0 0 -1
vn 0 0 1
vn 0 -1 0
vn 0 1 0
vn 0.6232037050564748 0.7820595514434193 0
vn 0.9492979228560804 0.31437788354324736 0
vn 1 0 0
vn 0 0 -1
vn -1 0 0
vn 0 0 1
vn 0 -1 0
vn 0 1 0
vn 0 0 1
vn 0 0 1
vn 0.6246950475544243 0.7808688094430304 0
vn 0.6246950475544243 0.7808688094430304 0
vn 0.6246950475544243 0.7808688094430304 0
vn 0.6246950475544243 0.7808688094430304 0
vn 0.948683298050514 0.316227766016838 0
vn 0 0 -1
vn 0 0 1
vn 1 0 0
vn -1 0 0
vn 0 -1 0
vn 0 -1 0
vn 0 -1 0
vn 0 1 0
vn 0 1 0
vn 0 1 0
vn 0 0 1
vn 0.9456865993048669 0.325079768511048 0
vn 0.9456865993048669 0.325079768511048 0
vn 0.9544799780350298 0.2982749931359468 0
vn 0 0 -1
vn 0 0 1
vn 0 -1 0
vn 1 0 0
vn -1 0 0
vn 1 0 0
vn 0 0 -1
vn -1 0 0
vn 0 0 1
vn 1 0 0
vn -1 0 0
vn 0 -1 0
vn 0 1 0
vn 1 0 0
vn 0 0 -1
vn -1 0 0
vn 0 -1 0
vn 1 0 0
vn -1 0 0
vn 0 -1 0
vn 0 1 0
vn 1 0 0
vn 0 0 -1
vn -1 0 0
vn 0 0 1
vn 0 -1 0
vn 0 1 0
vn 0 0 -1
vn 0 0 1
vn 0 0 1
vn 0 0 1
vn 0.8944271909999161 0.44721359549995804 0
vn 0 -1 0
vn -0.9492979228560804 0.31437788354324736 0
vn 0.8944271909999161 0.44721359549995804 0
vn 0.5547001962252291 0.8320502943378437 0
vn -0.6246950475544243 0.7808688094430304 0
vn 0.6246950475544243 0.7808688094430304 0
vn 0.948683298050514 0.316227766016838 0
vn 0 -1 0
vn 0 0 -1
vn 0 0 1
vn 0 1 0
vn 0 0 -1
vn 0 0 1
vn 0 1 0
vn 0 0 -1
vn 0 0 1
vn 0 0 -1
vn 0 0 1
vn 0 1 0
vn 1 0 0
vn 1 0 0
vn 0 0 -1
vn 0 0 1
vn 0 -1 0
vn 0 -1 0
vn 0 1 0
vn 0 1 0
vn 1 0 0
vn 0 0 -1
vn -1 0 0
vn 0 0 1
vn 0 -1 0
vn 0 1 0
vn 0 0 -1
vn -1 0 0
vn 0 0 1
vn 0 -1 0
vn 0 1 0
vn -0.8944271909999161 0.44721359549995804 0
vn 0 1 0
vn -0.5547001962252291 0.8320502943378437 0
vn 0 1 0
vn 0 0 -1
vn -1 0 0
vn 0 0 1
vn 0 -1 0
vn 0 1 0
vn 0 0 -1
vn -1 0 0
vn 0 0 1
vn 0 -1 0
vn 0 1 0
vn -0.6246950475544243 0.7808688094430304 0
vn 0 0 -1
vn 0 0 1
vn 0 0 -1
vn 0 0 1
vn 1 0 0
vn 0 0 -1
vn -1 0 0
vn 0 0 1
vn -0.948683298050514 0.316227766016838 0
vn -0.6232037050564748 0.7820595514434193 0
vn -0.948683298050514 0.316227766016838 0
vn 0 -1 0
vn 0 0 -1
vn 0 0 1
vn 1 0 0
vn -1 0 0
vn 0 0.49949721934415764 0.8663154898000234
vn 0 -0.8656642097802241 0.5006250851741055
vn 0 0.8656642097802241 -0.5006250851741055
vn -0.32385816822236635 0.9461052567641843 0.0008543996900338811
vn 0.3267495424868399 -0.9451107369619349 -0.0006567829999735475
vn 0.47307921363994193 0.16029956825816213 0.8663140920232459
vn 0.8195865235264354 0.27771113607094094 -0.5011531256572578
vn -0.8195865235264354 -0.27771113607094094 0.5011531256572578
vn 0.32385816822236635 0.9461052567641843 0.0008543996900338811
vn -0.32385816822236635 -0.9461052567641843 -0.0008543996900338811
vn -0.4749114391623952 0.16484529293240163 0.8644565659133681
vn -0.8195288844879481 0.2844645714751555 -0.4974457910821997
vn 0.8195865235264354 -0.27771113607094094 0.5011531256572578
vn 0.7909414690200712 -0.6118910378655686 -0.0009748662313312299
vn -0.7909414690200712 0.6118910378655686 0.0009748662313312299
vn 0.3073036543640743 0.39288188722495576 0.8667227276961431
vn -0.5341339676124977 -0.682880135808383 0.49837297755883186
vn 0.5330377639856826 0.6814786602854929 -0.5014554593786309
vn -0.787404104587525 -0.6164356839988815 -0.0013503968117341402
vn 0.7909414690200712 0.6118910378655686 0.0009748662313312299
vn -0.3073036543640743 0.39288188722495576 0.8667227276961431
vn 0.5341339676124977 -0.682880135808383 0.49837297755883186
vn -0.5330377639856826 0.6814786602854929 -0.5014554593786309
vn -1 0 0
vn -1 0 0
vn -1 0 0
vn 0 0 1
usemtl m_6627e7c0-fce9-a4b4-acbc-a1af7c40be9f
f 3/1/1 2/2/1 4/3/1
f 5/4/2 3/5/2 6/6/2
f 2/7/3 7/8/3 4/9/3
f 9/10/4 8/11/4 10/12/4
f 12/13/5 11/14/5 9/15/5
f 10/16/6 13/17/6 14/18/6
f 10/19/7 12/20/7 9/21/7
f 13/22/8 11/23/8 15/24/8
f 17/25/9 16/26/9 18/27/9
f 20/28/10 19/29/10 17/30/10
f 18/31/11 21/32/11 22/33/11
f 22/34/12 17/35/12 18/36/12
f 21/37/13 19/38/13 23/39/13
f 25/40/14 24/41/14 26/42/14
f 28/43/15 27/44/15 29/45/15
f 31/46/16 30/47/16 32/48/16
f 34/49/17 33/50/17 31/51/17
f 36/52/18 35/53/18 34/54/18
f 32/55/19 37/56/19 36/57/19
f 36/58/20 31/59/20 32/60/20
f 37/61/21 33/62/21 35/63/21
f 39/64/22 38/65/22 40/66/22
f 42/67/23 41/68/23 43/69/23
f 45/70/24 44/71/24 46/72/24
f 47/73/25 45/74/25 48/75/25
f 44/76/26 49/77/26 46/78/26
f 51/79/27 50/80/27 52/81/27
f 53/82/28 51/83/28 54/84/28
f 50/85/29 55/86/29 52/87/29
f 57/88/30 56/89/30 58/90/30
f 60/91/31 59/92/31 61/93/31
f 63/94/32 62/95/32 1/96/32
f 65/97/33 64/98/33 66/99/33
f 67/100/34 63/101/34 1/102/34
f 68/103/35 62/104/35 69/105/35
f 70/106/36 67/107/36 69/108/36
f 72/109/37 71/110/37 73/111/37
f 74/112/38 72/113/38 73/114/38
f 76/115/39 75/116/39 77/117/39
f 77/118/40 74/119/40 73/120/40
f 79/121/41 78/122/41 80/123/41
f 82/124/42 81/125/42 83/126/42
f 85/127/43 84/128/43 86/129/43
f 88/130/44 87/131/44 85/132/44
f 90/133/45 89/134/45 88/135/45
f 86/136/46 91/137/46 90/138/46
f 93/139/47 92/140/47 94/141/47
f 96/142/48 95/143/48 97/144/48
f 94/145/49 97/146/49 93/147/49
f 99/148/50 98/149/50 95/150/50
f 101/151/51 100/152/51 102/153/51
f 104/154/52 103/155/52 101/156/52
f 106/157/53 105/158/53 104/159/53
f 102/160/54 104/161/54 101/162/54
f 108/163/55 107/164/55 109/165/55
f 111/166/56 110/167/56 112/168/56
f 111/169/57 108/170/57 109/171/57
f 114/172/58 113/173/58 110/174/58
f 116/175/59 115/176/59 117/177/59
f 119/178/60 118/179/60 116/180/60
f 121/181/61 120/182/61 119/183/61
f 117/184/62 122/185/62 121/186/62
f 121/187/63 116/188/63 117/189/63
f 122/190/64 118/191/64 120/192/64
f 124/193/65 123/194/65 125/195/65
f 127/196/66 126/197/66 128/198/66
f 130/199/67 129/200/67 131/201/67
f 131/202/68 132/203/68 130/204/68
f 134/205/69 133/206/69 135/207/69
f 137/208/70 136/209/70 138/210/70
f 140/211/71 139/212/71 141/213/71
f 143/214/72 142/215/72 144/216/72
f 143/217/73 144/218/73 145/219/73
f 147/220/74 146/221/74 142/222/74
f 149/223/75 148/224/75 150/225/75
f 151/226/76 149/227/76 152/228/76
f 148/229/77 153/230/77 150/231/77
f 155/232/78 154/233/78 156/234/78
f 157/235/79 155/236/79 158/237/79
f 154/238/80 159/239/80 156/240/80
f 159/241/81 155/242/81 156/243/81
f 161/244/82 160/245/82 162/246/82
f 164/247/83 163/248/83 165/249/83
f 167/250/84 166/251/84 168/252/84
f 170/253/85 169/254/85 171/255/85
f 173/256/86 172/257/86 174/258/86
f 172/259/87 169/260/87 175/261/87
f 177/262/88 176/263/88 178/264/88
f 180/265/89 179/266/89 181/267/89
f 183/268/90 182/269/90 184/270/90
f 186/271/91 185/272/91 187/273/91
f 185/274/92 182/275/92 188/276/92
f 190/277/93 189/278/93 191/279/93
f 193/280/94 192/281/94 194/282/94
f 196/283/95 195/284/95 193/285/95
f 194/286/96 197/287/96 198/288/96
f 198/289/97 199/290/97 194/291/97
f 197/292/98 192/293/98 200/294/98
f 202/295/99 201/296/99 203/297/99
f 205/298/100 204/299/100 202/300/100
f 207/301/101 206/302/101 205/303/101
f 203/304/102 208/305/102 207/306/102
f 207/307/103 202/308/103 203/309/103
f 208/310/104 204/311/104 206/312/104
f 210/313/105 209/314/105 211/315/105
f 213/316/106 212/317/106 210/318/106
f 215/319/107 214/320/107 213/321/107
f 215/322/108 210/323/108 211/324/108
f 214/325/109 209/326/109 212/327/109
f 217/328/110 216/329/110 218/330/110
f 220/331/111 219/332/111 221/333/111
f 223/334/112 222/335/112 224/336/112
f 226/337/113 225/338/113 227/339/113
f 229/340/114 228/341/114 230/342/114
f 232/343/115 231/344/115 229/345/115
f 234/346/116 233/347/116 232/348/116
f 232/349/117 230/350/117 234/351/117
f 233/352/118 228/353/118 231/354/118
f 236/355/119 235/356/119 237/357/119
f 239/358/120 238/359/120 236/360/120
f 241/361/121 240/362/121 239/363/121
f 241/364/122 236/365/122 237/366/122
f 240/367/123 235/368/123 238/369/123
f 243/370/124 242/371/124 244/372/124
f 245/373/125 243/374/125 246/375/125
f 242/376/126 247/377/126 244/378/126
f 249/379/127 248/380/127 250/381/127
f 252/382/128 251/383/128 253/384/128
f 255/385/129 254/386/129 256/387/129
f 258/388/130 257/389/130 259/390/130
f 261/391/131 260/392/131 262/393/131
f 264/394/132 263/395/132 261/396/132
f 266/397/133 265/398/133 264/399/133
f 262/400/134 267/401/134 266/402/134
f 269/403/135 268/404/135 270/405/135
f 271/406/136 269/407/136 272/408/136
f 268/409/137 273/410/137 270/411/137
f 275/412/138 274/413/138 276/414/138
f 278/415/139 277/416/139 279/417/139
f 280/418/140 278/419/140 281/420/140
f 277/421/141 282/422/141 279/423/141
f 279/424/142 281/425/142 278/426/142
f 284/427/143 283/428/143 285/429/143
f 287/430/144 286/431/144 288/432/144
f 290/433/145 289/434/145 291/435/145
f 293/436/146 292/437/146 294/438/146
f 295/439/147 293/440/147 289/441/147
f 289/442/148 294/443/148 291/444/148
f 296/445/149 290/446/149 292/447/149
f 298/448/150 297/449/150 299/450/150
f 301/451/151 300/452/151 302/453/151
f 297/454/152 302/455/152 299/456/152
f 302/457/153 298/458/153 299/459/153
f 301/460/154 303/461/154 304/462/154
f 306/463/155 305/464/155 307/465/155
f 309/466/156 308/467/156 310/468/156
f 306/469/157 311/470/157 309/471/157
f 311/472/158 305/473/158 308/474/158
f 312/475/159 309/476/159 310/477/159
f 314/478/160 313/479/160 315/480/160
f 317/481/161 316/482/161 318/483/161
f 319/484/162 317/485/162 313/486/162
f 313/487/163 318/488/163 315/489/163
f 319/490/164 316/491/164 320/492/164
f 322/493/165 321/494/165 323/495/165
f 325/496/166 324/497/166 326/498/166
f 323/499/167 324/500/167 327/501/167
f 326/502/168 321/503/168 328/504/168
f 323/505/169 325/506/169 322/507/169
f 330/508/170 329/509/170 331/510/170
f 333/511/171 332/512/171 334/513/171
f 199/514/172 335/515/172 196/516/172
f 198/517/173 200/518/173 199/519/173
f 337/520/174 336/521/174 338/522/174
f 5/523/175 2/524/175 3/525/175
f 11/526/176 8/527/176 9/528/176
f 15/529/177 11/530/177 12/531/177
f 8/532/178 13/533/178 10/534/178
f 14/535/179 12/536/179 10/537/179
f 8/538/180 11/539/180 13/540/180
f 19/541/181 16/542/181 17/543/181
f 23/544/182 19/545/182 20/546/182
f 16/547/183 21/548/183 18/549/183
f 20/550/184 17/551/184 22/552/184
f 16/553/185 19/554/185 21/555/185
f 339/556/186 24/557/186 25/558/186
f 340/559/187 27/560/187 28/561/187
f 33/562/188 30/563/188 31/564/188
f 35/565/189 33/566/189 34/567/189
f 37/568/190 35/569/190 36/570/190
f 30/571/191 37/572/191 32/573/191
f 34/574/192 31/575/192 36/576/192
f 30/577/193 33/578/193 37/579/193
f 342/580/194 341/581/194 40/582/194
f 38/583/195 342/584/195 40/585/195
f 343/586/196 42/587/196 43/588/196
f 39/589/197 43/590/197 38/591/197
f 41/592/198 38/593/198 43/594/198
f 47/595/199 44/596/199 45/597/199
f 53/598/200 50/599/200 51/600/200
f 344/601/201 56/602/201 57/603/201
f 345/604/202 59/605/202 60/606/202
f 346/607/203 62/608/203 63/609/203
f 70/610/204 64/611/204 65/612/204
f 66/613/205 63/614/205 67/615/205
f 65/616/206 66/617/206 67/618/206
f 347/619/207 67/620/207 1/621/207
f 64/622/208 70/623/208 69/624/208
f 346/625/209 64/626/209 69/627/209
f 62/628/210 346/629/210 69/630/210
f 65/631/211 67/632/211 70/633/211
f 77/634/212 73/635/212 71/636/212
f 76/637/213 77/638/213 71/639/213
f 348/640/214 71/641/214 72/642/214
f 349/643/215 72/644/215 74/645/215
f 350/646/216 75/647/216 76/648/216
f 75/649/217 74/650/217 77/651/217
f 351/652/218 78/653/218 79/654/218
f 352/655/219 81/656/219 82/657/219
f 87/658/220 84/659/220 85/660/220
f 89/661/221 87/662/221 88/663/221
f 91/664/222 89/665/222 90/666/222
f 84/667/223 91/668/223 86/669/223
f 98/670/224 92/671/224 93/672/224
f 99/673/225 95/674/225 96/675/225
f 96/676/226 97/677/226 94/678/226
f 92/679/227 98/680/227 99/681/227
f 103/682/228 100/683/228 101/684/228
f 105/685/229 103/686/229 104/687/229
f 353/688/230 105/689/230 106/690/230
f 106/691/231 104/692/231 102/693/231
f 113/694/232 107/695/232 108/696/232
f 114/697/233 110/698/233 111/699/233
f 112/700/234 108/701/234 111/702/234
f 107/703/235 113/704/235 114/705/235
f 118/706/236 115/707/236 116/708/236
f 120/709/237 118/710/237 119/711/237
f 122/712/238 120/713/238 121/714/238
f 115/715/239 122/716/239 117/717/239
f 119/718/240 116/719/240 121/720/240
f 115/721/241 118/722/241 122/723/241
f 354/724/242 123/725/242 124/726/242
f 355/727/243 126/728/243 127/729/243
f 356/730/244 355/731/244 127/732/244
f 357/733/245 127/734/245 128/735/245
f 358/736/246 129/737/246 130/738/246
f 359/739/247 132/740/247 131/741/247
f 360/742/248 133/743/248 134/744/248
f 361/745/249 136/746/249 137/747/249
f 362/748/250 139/749/250 140/750/250
f 147/751/251 142/752/251 143/753/251
f 151/754/252 148/755/252 149/756/252
f 157/757/253 154/758/253 155/759/253
f 158/760/254 155/761/254 159/762/254
f 363/763/255 160/764/255 161/765/255
f 364/766/256 163/767/256 164/768/256
f 365/769/257 166/770/257 167/771/257
f 175/772/258 169/773/258 170/774/258
f 366/775/259 172/776/259 173/777/259
f 366/778/260 169/779/260 172/780/260
f 367/781/261 176/782/261 177/783/261
f 368/784/262 179/785/262 180/786/262
f 188/787/263 182/788/263 183/789/263
f 369/790/264 185/791/264 186/792/264
f 369/793/265 182/794/265 185/795/265
f 370/796/266 189/797/266 190/798/266
f 195/799/267 192/800/267 193/801/267
f 335/802/268 195/803/268 196/804/268
f 192/805/269 197/806/269 194/807/269
f 193/808/270 194/809/270 199/810/270
f 196/811/271 193/812/271 199/813/271
f 335/814/272 200/815/272 195/816/272
f 192/817/273 195/818/273 200/819/273
f 204/820/274 201/821/274 202/822/274
f 206/823/275 204/824/275 205/825/275
f 208/826/276 206/827/276 207/828/276
f 201/829/277 208/830/277 203/831/277
f 205/832/278 202/833/278 207/834/278
f 201/835/279 204/836/279 208/837/279
f 212/838/280 209/839/280 210/840/280
f 214/841/281 212/842/281 213/843/281
f 371/844/282 214/845/282 215/846/282
f 213/847/283 210/848/283 215/849/283
f 371/850/284 209/851/284 214/852/284
f 372/853/285 216/854/285 217/855/285
f 373/856/286 219/857/286 220/858/286
f 374/859/287 222/860/287 223/861/287
f 375/862/288 225/863/288 226/864/288
f 231/865/289 228/866/289 229/867/289
f 233/868/290 231/869/290 232/870/290
f 376/871/291 233/872/291 234/873/291
f 229/874/292 230/875/292 232/876/292
f 376/877/293 228/878/293 233/879/293
f 238/880/294 235/881/294 236/882/294
f 240/883/295 238/884/295 239/885/295
f 377/886/296 240/887/296 241/888/296
f 239/889/297 236/890/297 241/891/297
f 377/892/298 235/893/298 240/894/298
f 245/895/299 242/896/299 243/897/299
f 378/898/300 248/899/300 249/900/300
f 379/901/301 251/902/301 252/903/301
f 380/904/302 254/905/302 255/906/302
f 381/907/303 257/908/303 258/909/303
f 263/910/304 260/911/304 261/912/304
f 265/913/305 263/914/305 264/915/305
f 267/916/306 265/917/306 266/918/306
f 260/919/307 267/920/307 262/921/307
f 271/922/308 268/923/308 269/924/308
f 382/925/309 274/926/309 275/927/309
f 280/928/310 277/929/310 278/930/310
f 282/931/311 281/932/311 279/933/311
f 383/934/312 283/935/312 284/936/312
f 384/937/313 286/938/313 287/939/313
f 295/940/314 289/941/314 290/942/314
f 296/943/315 292/944/315 293/945/315
f 296/946/316 293/947/316 295/948/316
f 293/949/317 294/950/317 289/951/317
f 295/952/318 290/953/318 296/954/318
f 303/955/319 297/956/319 298/957/319
f 304/958/320 300/959/320 301/960/320
f 301/961/321 302/962/321 297/963/321
f 300/964/322 298/965/322 302/966/322
f 297/967/323 303/968/323 301/969/323
f 312/970/324 305/971/324 306/972/324
f 311/973/325 308/974/325 309/975/325
f 307/976/326 311/977/326 306/978/326
f 307/979/327 305/980/327 311/981/327
f 306/982/328 309/983/328 312/984/328
f 319/985/329 313/986/329 314/987/329
f 320/988/330 316/989/330 317/990/330
f 320/991/331 317/992/331 319/993/331
f 317/994/332 318/995/332 313/996/332
f 314/997/333 316/998/333 319/999/333
f 328/1000/334 321/1001/334 322/1002/334
f 327/1003/335 324/1004/335 325/1005/335
f 321/1006/336 324/1007/336 323/1008/336
f 324/1009/337 321/1010/337 326/1011/337
f 327/1012/338 325/1013/338 323/1014/338
f 385/1015/339 329/1016/339 330/1017/339
f 200/1018/340 335/1019/340 199/1020/340
f 197/1021/341 200/1022/341 198/1023/341
f 386/1024/342 336/1025/342 337/1026/342