# Made in Blockbench 4.12.6
mtllib gas_turbine.mtl

o Cube.030_Cube.028
v 1.75 0.25 0.125
v 0.125 1.25 1
v -0.5 0.75 0
v -0.5 0.75 1
v 0.125 1.25 0
v 0.125 0.75 0
v 0.125 0.75 1
v 1.875 0.875 0
v 1.875 0.125 0.125
v 1.875 0.125 0
v 1.875 0.875 0.125
v 1.125 0.125 0.125
v 1.125 0.875 0
v 1.125 0.125 0
v 1.125 0.875 0.125
v 1.75 0.75 1.25
v 1.75 0.25 1.75
v 1.75 0.25 1.25
v 1.75 0.75 1.75
v 1 0.25 1.75
v 1 0.75 1.25
v 1 0.25 1.25
v 1 0.75 1.75
v 0.80078125 1.25 3.25
v 1.30078125 0.8515625 5.75
v 1.30078125 0.8515625 3.25
v 1.5 0.25 3.25
v 1.30078125 0.8515625 5.75
v 1.5 0.25 5.75
v -0.5 1 0
v -0.5 0 1
v -0.5 0 0
v -0.5 1 1
v -1 0 1
v -1 1 1
v -1 0 0
v -1 1 0
v 0.875 1.25 0
v 1.34375 0.875 0
v 1.125 0.875 0
v 0.875 1.25 1
v 1.5 0.75 1
v 1.34375 0.875 0.125
v 0.875 1.5 5.75
v 1.5 1 6.75
v 1.5 1 5.75
v 0.875 1.5 6.75
v 0.875 1 6.75
v 0.875 1 5.75
v 1.5 1 5.75
v 1.75 0.25 6.75
v 1.75 0.25 5.75
v 1.5 1 6.75
v 1.5 0.25 6.75
v 1.5 0.25 5.75
v 0.125 0.75 1
v -0.5 0 1
v 0.125 0 1
v -0.5 0.75 0
v 0.125 0 0
v -0.5 0 0
v 1.75 0.75 0.125
v 1.75 0.25 1.25
v 1.25 0.75 1.25
v 1.25 0.25 1
v 1.25 0.25 1.25
v 1.5 0.25 1
v 1.5 0.75 0.125
v 1.5 0.75 1
v 1.25 0.75 1
v 1.70703125 0.125 0.125
v 1.66796875 0.25 1
v 1.75 0 1
v 1.5 0 1
v 1.5 0 0
v 1.70703125 0.125 0
v 1.75 0 0
v 1.5 0.25 3.25
v 1.5 0 5.75
v 1.5 0 3.25
v -0.5 0.25 5.75
v -0.5 0 3.25
v -0.5 0 5.75
v 1.75 0.25 5.75
v 1.75 0 6.75
v 1.75 0 5.75
v 1.75 0.25 6.75
v -0.75 0 6.75
v -0.75 0.25 6.75
v -0.75 0 5.75
v -0.75 0.25 5.75
v 1.5 0 1
v 1.5 -1 2
v 1.5 -1 1
v -0.5 0 2
v -0.5 -1 1
v -0.5 -1 2
v 1.5 0 2
v -0.5 0 1
v 1.75 0 0
v 1.75 -1 1
v 1.75 -1 0
v 1.75 0 1
v -0.75 -1 1
v -0.75 0 1
v -0.75 -1 0
v 1.75 0 3.5
v 1.75 -1 5.5
v 1.75 -1 3.5
v -0.75 0 5.5
v -0.75 -1 3.5
v -0.75 -1 5.5
v 1.75 0 5.5
v -0.75 0 3.5
v 2 0 5.5
v 2 -1 7
v 2 -1 5.5
v 2 0 7
v -1 -1 7
v -1 0 7
v -1 -1 5.5
v -1 0 5.5
v 1.5 0.75 1
v 0.875 0 1
v 1.5 0 1
v 0.875 0 0
v 1.125 0.125 0
v 1.5 0 0
v 1 0.75 1
v 1.25 0.25 1.25
v 1.25 0.25 1
v 1 0.25 1.25
v -0.30078125 0.8515625 5.75
v -0.5 0.25 3.25
v -0.5 0.25 5.75
v 1 0.75 1.75
v 1.25 0.25 2.25
v 1.25 0.25 1.75
v 1 0.75 1
v 0.625 1 2.25
v 1 0.75 2.25
v -0.5 1 6.75
v 0.125 1.5 5.75
v -0.5 1 5.75
v 0.125 1 5.75
v 0.125 1 6.75
v 0.125 1.5 6.75
v 0.875 1.5 2.25
v 1.5 1 3.25
v 1.5 1 2.25
v 0.875 1.5 3.25
v 0.875 1 3.25
v 0.875 1 2.25
v 1.5 1 2.25
v 1.75 0.25 3.25
v 1.75 0.25 2.25
v 1.5 1 3.25
v 1.5 0.25 3.25
v 1.5 0.25 2.25
v 0.875 1.25 1
v 0.125 0 1
v 0.875 0 1
v 0.125 1.25 0
v 0.875 0 0
v 0.125 0 0
v 0.875 1.25 1
v 0.125 1.25 0
v 0.125 1.25 1
v 0.875 1.5 3.25
v 0.125 0.25 3.25
v 0.875 0.25 3.25
v 0.125 1.5 2.25
v 0.875 0.25 2.25
v 0.125 0.25 2.25
v 0.125 1.5 3.25
v 1.5 1 6.75
v 0.875 0.25 6.75
v 1.5 0.25 6.75
v 0.875 1 5.75
v 1.5 0.25 5.75
v 0.875 0.25 5.75
v 0.875 1.5 6.75
v 0.125 0.25 6.75
v 0.875 0.25 6.75
v 0.125 1.5 5.75
v 0.875 0.25 5.75
v 0.125 0.25 5.75
v 0.125 1.5 6.75
v 1.25 0.25 1
v 1.25 0 2.25
v 1.25 0 1
v 2 0 2
v 2 -1 3.5
v 2 -1 2
v 2 0 3.5
v -1 -1 3.5
v -1 0 2
v -1 -1 2
v -1 -1 3
v -1 0 3
v 1 1 6.75
v 1 0 7
v 1 0 6.75
v 1 1 7
v 0 0 7
v 0 1 7
v 0 0 6.75
v 0 1 6.75
v -0.75 -0.5 1
v -1 -1 1
v -0.75 -1 1
v -1 -0.5 1
v -1 -1 0
v -1 -0.5 0
v -0.75 -1 0
v 0 0.75 2.25
v -0.25 0.25 1
v -0.25 0.25 2.25
v 0.625 1 2.25
v 0.375 1 1
v 0.375 1 2.25
v 0.375 1 2.25
v 0 0.75 1
v 0 0.75 2.25
v 0.80078125 1.25 5.75
v 0.19921875 1.25 3.25
v 0.19921875 1.25 5.75
v -0.75 0 0.875
v -1 -0.5 0.875
v -0.75 -0.5 0.875
v -1 0 0.875
v -1 -0.5 0.625
v -1 0 0.625
v -0.75 -0.5 0.625
v -0.75 0 0.375
v -1 -0.5 0.375
v -0.75 -0.5 0.375
v -1 0 0.375
v -1 -0.5 0.125
v -1 0 0.125
v -0.75 -0.5 0.125
v 0.125 1.5 3.25
v -0.5 1 2.25
v -0.5 1 3.25
v 0.125 1.5 2.25
v 0.125 1 2.25
v 0.125 1 3.25
v 1.5 1 3.25
v 0.875 0.25 3.25
v 1.5 0.25 3.25
v 0.875 1 2.25
v 1.5 0.25 2.25
v 0.875 0.25 2.25
v 0.125 1 3.25
v -0.5 0.25 3.25
v 0.125 0.25 3.25
v -0.5 1 2.25
v 0.125 0.25 2.25
v -0.5 0.25 2.25
v 1.75 0.25 2.25
v 1.75 0 3.25
v 1.75 0 2.25
v 1.75 0.25 3.25
v -0.75 0 3.25
v -0.75 0.25 3.25
v -0.75 0 2.25
v -0.75 0.25 2.25
v -0.5 1 6.75
v -0.75 0.25 5.75
v -0.75 0.25 6.75
v -0.5 1 5.75
v -0.5 0.25 5.75
v -0.5 0.25 6.75
v 0.19921875 1.25 5.75
v -0.30078125 0.8515625 3.25
v -0.30078125 0.8515625 5.75
v -0.5 1 3.25
v -0.75 0.25 2.25
v -0.75 0.25 3.25
v -0.5 1 2.25
v -0.5 0.25 2.25
v -0.5 0.25 3.25
v 0.125 1 6.75
v -0.5 0.25 6.75
v 0.125 0.25 6.75
v -0.5 1 5.75
v 0.125 0.25 5.75
v -0.5 0.25 5.75
v 0.75 1.19140625 1.78515625
v 0.75 1.25 2.68359375
v 0.75 0.81640625 2.43359375
v 0.25 1.25 2.68359375
v 0.25 1.19140625 1.78515625
v 0.25 0.81640625 2.43359375
v 0.75 1.625 2.03515625
v 0.25 1.625 2.03515625
v 1.25390625 0.76171875 1.78515625
v 1.30859375 0.78125 2.68359375
v 1.66015625 0.90234375 2.03515625
v 1.46875 0.30859375 2.68359375
v 1.4140625 0.2890625 1.78515625
v 1.82421875 0.4296875 2.03515625
v 0.8984375 0.640625 2.43359375
v 1.0625 0.16796875 2.43359375
v -0.30859375 0.78125 2.68359375
v -0.25390625 0.76171875 1.78515625
v -0.66015625 0.90234375 2.03515625
v -0.46875 0.30859375 2.68359375
v -0.4140625 0.2890625 1.78515625
v -0.0625 0.16796875 2.43359375
v -0.82421875 0.4296875 2.03515625
v 0.1015625 0.640625 2.43359375
v 1.1953125 0.8515625 1.78515625
v 1.23046875 0.8984375 2.68359375
v 0.96484375 0.55859375 2.43359375
v 0.8359375 1.20703125 2.68359375
v 0.80078125 1.16015625 1.78515625
v 0.5703125 0.8671875 2.43359375
v 1.4609375 1.1953125 2.03515625
v 1.06640625 1.50390625 2.03515625
v -0.1953125 0.8515625 1.78515625
v -0.23046875 0.8984375 2.68359375
v -0.4609375 1.1953125 2.03515625
v 0.19921875 1.16015625 1.78515625
v 0.1640625 1.20703125 2.68359375
v 0.4296875 0.8671875 2.43359375
v -0.06640625 1.50390625 2.03515625
v 0.03515625 0.55859375 2.43359375
v -0.25 0.25 2.25
v -0.25 0 1
v -0.25 0 2.25
v 1.5 0.75 1
v 0.875 1.25 1
v 0.875 0.75 1
v -1 0 3.5
v -0.75 0 0
v 1.75 -1 0
v -0.75 -1 0
v 0.80078125 1.25 5.75
v 1.30078125 0.8515625 3.25
v 1.125 0.75 0
v 0.875 0.75 0
v 1.5 0.75 0.125
v -0.5 0.75 1
v 0.125 0.75 0
v 1.75 0.75 1.25
v 1.5 0.25 0.125
v 1.66796875 0.25 0.125
v 1.5 0.25 1
v 1.5 0.125 0
v 1.5 0.25 5.75
v -0.5 0.25 3.25
v -0.75 0 0
v 0.875 0.75 1
v 0.875 0.75 0
v 1.125 0.75 0
v 1.5 0.125 0
v 1 0.75 1.25
v 1 0.25 1
v -0.30078125 0.8515625 3.25
v 1 0.75 2.25
v 0.625 1 1
v 0.125 1.25 1
v 0.875 1.25 0
v 0.875 1.25 0
v 0.875 1.5 2.25
v 0.875 1 6.75
v 1.5 1 5.75
v 0.875 1.5 5.75
v 1.25 0.25 2.25
v -0.75 -0.5 0
v 0 0.75 1
v 0.625 1 1
v 0.375 1 1
v 0.80078125 1.25 3.25
v -0.75 0 0.625
v -0.75 0 0.125
v 0.875 1 3.25
v 1.5 1 2.25
v -0.5 1 3.25
v 0.125 1 2.25
v 0.19921875 1.25 3.25
v -0.5 1 6.75
v 0.125 1 5.75
v -0.25 0.25 1
v 1.75 0 0
vt 0.875 0.25
vt 0.78125 0.375
vt 0.78125 0.25
vt 0.28125 0.125
vt 0.203125 0.1875
vt 0.203125 0.125
vt 0.203125 0.125
vt 0.203125 0.1875
vt 0.28125 0.125
vt 0.859375 0.609375
vt 0.953125 0.59375
vt 0.953125 0.609375
vt 0.953125 0.703125
vt 0.859375 0.609375
vt 0.953125 0.609375
vt 0.953125 1
vt 0.859375 0.90625
vt 0.953125 0.90625
vt 0.953125 0.59375
vt 0.859375 0.609375
vt 0.859375 0.59375
vt 0.953125 0.59375
vt 0.859375 0.609375
vt 0.859375 0.59375
vt 0.921875 0.765625
vt 0.984375 0.703125
vt 0.984375 0.765625
vt 0.984375 0.703125
vt 0.921875 0.796875
vt 0.921875 0.703125
vt 0.921875 0.828125
vt 0.859375 0.859375
vt 0.859375 0.828125
vt 0.984375 0.90625
vt 0.921875 0.8125
vt 0.921875 0.90625
vt 0.984375 0.90625
vt 0.921875 0.8125
vt 0.984375 0.8125
vt 0.71875 0.265625
vt 0.40625 0.1875
vt 0.71875 0.1875
vt 0.71875 0.125
vt 0.40625 0.19531312499999998
vt 0.40625 0.125
vt 0.40625 0.375
vt 0.28125 0.5
vt 0.28125 0.375
vt 0.734375 0.6875
vt 0.609375 0.625
vt 0.609375 0.6875
vt 0.859375 0.625
vt 0.734375 0.5
vt 0.859375 0.5
vt 0.734375 0.625
vt 0.609375 0.6875
vt 0.609375 0.625
vt 0.609375 0.625
vt 0.734375 0.6875
vt 0.734375 0.625
vt 0.609375 0.6875
vt 0.734375 0.625
vt 0.609375 0.625
vt 0.109375 0.1875
vt 0.050975 0.140625
vt 0.07858875 0.140625
vt 0.78125 0.125
vt 0.875 0.125
vt 0.851561875 0.234375
vt 0.15625 0.421875
vt 0.28125 0.328125
vt 0.15625 0.328125
vt 0.03125 0.125
vt 0.109375 0.1875
vt 0.109375 0.125
vt 0.109375 0.125
vt 0.109375 0.1875
vt 0.03125 0.125
vt 0.15625 0.328125
vt 0.28125 0.22656187500000002
vt 0.15625 0.22656187500000002
vt 0 0.03125
vt 0.03125 0.125
vt 0.03125 0.03125
vt 0.03125 0.03125
vt 0.03125 0.125
vt 0 0.03125
vt 0.203125 0.125
vt 0.28125 0.03125
vt 0.203125 0.03125
vt 0.28125 0.125
vt 0.203125 0.03125
vt 0.28125 0.03125
vt 0.921875 0.703125
vt 0.859375 0.859375
vt 0.859375 0.703125
vt 0.859375 0.828125
vt 0.921875 0.859375
vt 0.921875 0.828125
vt 0.859375 0.859375
vt 0.890625 0.83072875
vt 0.859375 0.71875
vt 0.859375 0.71875
vt 0.890625 0.71875
vt 0.890625 0.828125
vt 0 0
vt 0 0
vt 0 0
vt 0.109375 0.015625
vt 0 0.03125
vt 0 0
vt 0.011706875 0.0625
vt 0.03125 0.03125
vt 0 0.03125
vt 0.03125 0.03125
vt 0.004953125 0.046875
vt 0 0.03125
vt 0 0
vt 0 0
vt 0 0
vt 0.71875 0.296875
vt 0.40625 0.265625
vt 0.71875 0.265625
vt 0.40625 0.296875
vt 0.71875 0.265625
vt 0.40625 0.265625
vt 0.15625 0.21875
vt 0.28125 0.1875
vt 0.15625 0.1875
vt 0.3125 0.03125
vt 0 0
vt 0.3125 0
vt 0.28125 0.21875
vt 0.15625 0.1875
vt 0.28125 0.1875
vt 0 0.03125
vt 0.3125 0
vt 0 0
vt 0.25 0.625
vt 0.125 0.5
vt 0.25 0.5
vt 0.25 0.625
vt 0.125 0.5
vt 0.25 0.5
vt 0.609375 0.6875
vt 0.734375 0.9375
vt 0.609375 0.9375
vt 0.609375 0.6875
vt 0.734375 0.9375
vt 0.609375 0.9375
vt 0.25 0.625
vt 0.125 0.5
vt 0.25 0.5
vt 0.734375 0.625
vt 0.421875 0.5
vt 0.734375 0.5
vt 0.125 0.5625
vt 0.25 0.625
vt 0.125 0.625
vt 0.734375 0.65625
vt 0.859375 0.96875
vt 0.734375 0.96875
vt 0.6875 0.625
vt 0.4375 0.5
vt 0.6875 0.5
vt 0.6875 0.625
vt 0.4375 0.5
vt 0.6875 0.5
vt 0.1875 0.96875
vt 0.421875 0.65625
vt 0.421875 0.96875
vt 0.1875 0.65625
vt 0.421875 0.96875
vt 0.1875 0.96875
vt 0.5 0.625
vt 0.3125 0.5
vt 0.5 0.5
vt 0.875 0.125
vt 0.5 0
vt 0.875 0
vt 0.5 0.625
vt 0.3125 0.5
vt 0.5 0.5
vt 0.734375 0.625
vt 0.359375 0.5
vt 0.734375 0.5
vt 0 1
vt 0.1875 0.625
vt 0.1875 1
vt 0 0.625
vt 0.1875 1
vt 0 1
vt 0.03125 0.125
vt 0.109375 0.03125
vt 0.03125 0.03125
vt 0.109375 0.03125
vt 0.07858875 0.046875
vt 0.03125 0.03125
vt 0.03125 0.265625
vt 0 0.19531187500000002
vt 0.03125 0.19531187500000002
vt 0 0
vt 0 0
vt 0 0
vt 0.40625 0.367188125
vt 0.71875 0.296875
vt 0.40625 0.296875
vt 0.0625 0.265625
vt 0 0.19531187500000002
vt 0.0625 0.19531187500000002
vt 0 0.24218812499999998
vt 0.15625 0.1875
vt 0.15625 0.24218687500000002
vt 0.28125 0.328125
vt 0.15625 0.421875
vt 0.15625 0.328125
vt 0.03125 0.125
vt 0.109375 0.1875
vt 0.109375 0.125
vt 0.109375 0.125
vt 0.109375 0.1875
vt 0.03125 0.125
vt 0.28125 0.421875
vt 0.15625 0.328125
vt 0.28125 0.328125
vt 0.03125 0.125
vt 0.109375 0.1875
vt 0.109375 0.125
vt 0.109375 0.125
vt 0.109375 0.1875
vt 0.03125 0.125
vt 0.28125 0.328125
vt 0.15625 0.22656187500000002
vt 0.28125 0.22656187500000002
vt 0 0.03125
vt 0.03125 0.125
vt 0.03125 0.03125
vt 0.03125 0.03125
vt 0.03125 0.125
vt 0 0.03125
vt 0 0
vt 0 0
vt 0 0
vt 0.109375 0.1875
vt 0.203125 0.03125
vt 0.109375 0.03125
vt 1 0.46875
vt 0.90625 0.3125
vt 1 0.3125
vt 0.78125 0.25
vt 0.875 0.375
vt 0.875 0.25
vt 0.109375 0.1875
vt 0.203125 0.03125
vt 0.109375 0.03125
vt 0.203125 0.1875
vt 0.109375 0.03125
vt 0.203125 0.03125
vt 0.28125 0.375
vt 0.40625 0.28125
vt 0.28125 0.28125
vt 0.03125 0.03125
vt 0.109375 0.125
vt 0.03125 0.125
vt 0.109375 0.03125
vt 0.03125 0.125
vt 0.109375 0.125
vt 0.203125 0.1875
vt 0.109375 0.03125
vt 0.203125 0.03125
vt 0.109375 0.1875
vt 0.203125 0.03125
vt 0.109375 0.03125
vt 0.40625 0.375
vt 0.28125 0.28125
vt 0.40625 0.28125
vt 0.15625 0.21875
vt 0 0.1875
vt 0.15625 0.1875
vt 0.3125 0.125
vt 0.5 0
vt 0.3125 0
vt 0.734375 0.625
vt 0.359375 0.5
vt 0.734375 0.5
vt 0.375 0.625
vt 0 0.500065
vt 0.375 0.500065
vt 0.484375 0.625
vt 0.609375 0.625
vt 0.609375 1
vt 0.609375 0.625
vt 0.609375 1
vt 0.484375 1
vt 0.28125 0.46875
vt 0.15625 0.5
vt 0.15625 0.46875
vt 0.40625 0.5
vt 0.28125 0.375
vt 0.40625 0.375
vt 0.28125 0.5
vt 0.15625 0.46875
vt 0.15625 0.5
vt 0 0
vt 0 0
vt 0 0
vt 0 0
vt 0 0
vt 0 0
vt 0.28125 0.5
vt 0.15625 0.46875
vt 0.15625 0.5
vt 0.6875 0.5
vt 0.71875 0.4375
vt 0.6875 0.4375
vt 0.734375 0.5
vt 0.859375 0.4375
vt 0.734375 0.4375
vt 0.6875 0.5
vt 0.71875 0.4375
vt 0.6875 0.4375
vt 0.734375 0.625
vt 0.859375 0.65625
vt 0.734375 0.65625
vt 0.15625 0.46875
vt 0.28125 0.5
vt 0.15625 0.5
vt 0.15625 0.265625
vt 0 0.19531187500000002
vt 0.15625 0.19531187500000002
vt 0 0.1875
vt 0.15625 0.21875
vt 0 0.21875
vt 0 0.1875
vt 0.15625 0.24218687500000002
vt 0 0.24218812499999998
vt 0.40625 0.5
vt 0.71875 0.429688125
vt 0.40625 0.429688125
vt 0.21875 0.46875
vt 0.15625 0.5
vt 0.15625 0.46875
vt 0.21875 0.46875
vt 0.15625 0.5
vt 0.15625 0.46875
vt 0.21875 0.46875
vt 0.15625 0.5
vt 0.15625 0.46875
vt 0 0
vt 0 0
vt 0 0
vt 0 0
vt 0 0
vt 0 0
vt 0.21875 0.46875
vt 0.15625 0.5
vt 0.15625 0.46875
vt 0.21875 0.46875
vt 0.15625 0.5
vt 0.15625 0.46875
vt 0.21875 0.46875
vt 0.15625 0.5
vt 0.15625 0.46875
vt 0 0
vt 0 0
vt 0 0
vt 0 0
vt 0 0
vt 0 0
vt 0.15625 0.421875
vt 0.28125 0.328125
vt 0.15625 0.328125
vt 0.28125 0.125
vt 0.203125 0.1875
vt 0.203125 0.125
vt 0.203125 0.125
vt 0.203125 0.1875
vt 0.28125 0.125
vt 0.03125 0.125
vt 0.109375 0.03125
vt 0.03125 0.03125
vt 0.109375 0.125
vt 0.03125 0.03125
vt 0.109375 0.03125
vt 0.203125 0.125
vt 0.28125 0.03125
vt 0.203125 0.03125
vt 0.28125 0.125
vt 0.203125 0.03125
vt 0.28125 0.03125
vt 0.28125 0.21875
vt 0.15625 0.1875
vt 0.28125 0.1875
vt 0 0.03125
vt 0.3125 0
vt 0 0
vt 0.15625 0.21875
vt 0.28125 0.1875
vt 0.15625 0.1875
vt 0.3125 0.03125
vt 0 0
vt 0.3125 0
vt 0.28125 0.328125
vt 0.15625 0.22656187500000002
vt 0.28125 0.22656187500000002
vt 0.3125 0.03125
vt 0.28125 0.125
vt 0.28125 0.03125
vt 0.28125 0.03125
vt 0.28125 0.125
vt 0.3125 0.03125
vt 0.40625 0.265625
vt 0.71875 0.1875
vt 0.40625 0.1875
vt 0.15625 0.328125
vt 0.28125 0.22656187500000002
vt 0.15625 0.22656187500000002
vt 0.3125 0.03125
vt 0.28125 0.125
vt 0.28125 0.03125
vt 0.28125 0.03125
vt 0.28125 0.125
vt 0.3125 0.03125
vt 0 0
vt 0 0
vt 0 0
vt 0.203125 0.125
vt 0.28125 0.03125
vt 0.203125 0.03125
vt 0.28125 0.125
vt 0.203125 0.03125
vt 0.28125 0.03125
vt 0.0625 0.5
vt 0.15625 0.4375
vt 0.15625 0.5
vt 0.15625 0.5
vt 0.0625 0.4375
vt 0.15625 0.4375
vt 0.0625 0.4375
vt 0 0.5
vt 0.0625 0.5
vt 0.15625 0.4375
vt 0.0625 0.5
vt 0.15625 0.5
vt 0.15625 0.5
vt 0.0625 0.4375
vt 0.15625 0.4375
vt 0.0625 0.5
vt 0.15625 0.4375
vt 0.0625 0.4375
vt 0.15625 0.5
vt 0.0625 0.4375
vt 0.0625 0.5
vt 0 0.4375
vt 0.0625 0.5
vt 0 0.5
vt 0.15625 0.4375
vt 0.0625 0.5
vt 0.0625 0.4375
vt 0.15625 0.4375
vt 0.0625 0.5
vt 0.15625 0.5
vt 0.15625 0.4375
vt 0.0625 0.5
vt 0.0625 0.4375
vt 0.15625 0.5
vt 0.0625 0.4375
vt 0.15625 0.4375
vt 0 0.4375
vt 0.0625 0.5
vt 0.0625 0.4375
vt 0.15625 0.4375
vt 0.0625 0.5
vt 0.15625 0.5
vt 0.0625 0.5
vt 0.15625 0.4375
vt 0.15625 0.5
vt 0.0625 0.5
vt 0.15625 0.4375
vt 0.15625 0.5
vt 0.15625 0.5
vt 0.0625 0.4375
vt 0.15625 0.4375
vt 0.0625 0.4375
vt 0 0.5
vt 0.0625 0.5
vt 0.15625 0.4375
vt 0.0625 0.5
vt 0.15625 0.5
vt 0.15625 0.4375
vt 0.0625 0.5
vt 0.0625 0.4375
vt 0.0625 0.4375
vt 0.15625 0.5
vt 0.0625 0.5
vt 0.0625 0.5
vt 0.15625 0.4375
vt 0.15625 0.5
vt 0 0.4375
vt 0.0625 0.5
vt 0.0625 0.4375
vt 0.0625 0.4375
vt 0.15625 0.5
vt 0.15625 0.4375
vt 0.15625 0.5
vt 0.0625 0.4375
vt 0.15625 0.4375
vt 0.15625 0.21875
vt 0 0.1875
vt 0.15625 0.1875
vt 0.03125 0.125
vt 0.109375 0.1875
vt 0.109375 0.125
vt 0.5 0.125
vt 0.4375 0
vt 0.5 0
vt 1 0.59375
vt 0.875 0.46875
vt 1 0.46875
vt 1 0
vt 0.875 0.3125
vt 0.875 0
vt 0.875 0.25
vt 0.875 0.375
vt 0.78125 0.375
vt 0.859375 0.609375
vt 0.859375 0.59375
vt 0.953125 0.59375
vt 0.953125 0.703125
vt 0.859375 0.703125
vt 0.859375 0.609375
vt 0.953125 1
vt 0.859375 1
vt 0.859375 0.90625
vt 0.953125 0.59375
vt 0.953125 0.609375
vt 0.859375 0.609375
vt 0.953125 0.59375
vt 0.953125 0.609375
vt 0.859375 0.609375
vt 0.921875 0.765625
vt 0.921875 0.703125
vt 0.984375 0.703125
vt 0.984375 0.703125
vt 0.984375 0.796875
vt 0.921875 0.796875
vt 0.921875 0.828125
vt 0.921875 0.859375
vt 0.859375 0.859375
vt 0.984375 0.90625
vt 0.984375 0.8125
vt 0.921875 0.8125
vt 0.984375 0.90625
vt 0.921875 0.90625
vt 0.921875 0.8125
vt 0.71875 0.265625
vt 0.40625 0.265625
vt 0.40625 0.1875
vt 0.71875 0.125
vt 0.71875 0.19531187500000002
vt 0.40625 0.19531312499999998
vt 0.40625 0.375
vt 0.40625 0.5
vt 0.28125 0.5
vt 0.734375 0.6875
vt 0.734375 0.625
vt 0.609375 0.625
vt 0.859375 0.625
vt 0.734375 0.625
vt 0.734375 0.5
vt 0.734375 0.625
vt 0.734375 0.6875
vt 0.609375 0.6875
vt 0.609375 0.625
vt 0.609375 0.6875
vt 0.734375 0.6875
vt 0.609375 0.6875
vt 0.734375 0.6875
vt 0.734375 0.625
vt 0.07858875 0.125
vt 0.109375 0.125
vt 0.07858875 0.140625
vt 0.109375 0.125
vt 0.109375 0.1875
vt 0.07858875 0.140625
vt 0.875 0.125
vt 0.875 0.234375
vt 0.851561875 0.234375
vt 0.851561875 0.234375
vt 0.851561875 0.25
vt 0.78125 0.25
vt 0.78125 0.25
vt 0.78125 0.125
vt 0.851561875 0.234375
vt 0.15625 0.421875
vt 0.28125 0.421875
vt 0.28125 0.328125
vt 0.15625 0.328125
vt 0.28125 0.328125
vt 0.28125 0.22656187500000002
vt 0.203125 0.125
vt 0.28125 0.125
vt 0.28125 0.03125
vt 0.28125 0.125
vt 0.203125 0.125
vt 0.203125 0.03125
vt 0.921875 0.703125
vt 0.921875 0.859375
vt 0.859375 0.859375
vt 0.859375 0.828125
vt 0.859375 0.859375
vt 0.921875 0.859375
vt 0.859375 0.859375
vt 0.921875 0.859375
vt 0.890625 0.83072875
vt 0.921875 0.859375
vt 0.921875 0.83072875
vt 0.890625 0.83072875
vt 0.890625 0.83072875
vt 0.890625 0.71875
vt 0.859375 0.71875
vt 0.921875 0.828125
vt 0.921875 0.859375
vt 0.890625 0.828125
vt 0.921875 0.859375
vt 0.859375 0.859375
vt 0.890625 0.828125
vt 0.859375 0.859375
vt 0.859375 0.71875
vt 0.890625 0.828125
vt 0 0
vt 0 0
vt 0 0
vt 0 0
vt 0.125 0
vt 0.109375 0.015625
vt 0.125 0
vt 0.125 0.015625
vt 0.109375 0.015625
vt 0.109375 0.015625
vt 0.109375 0.03125
vt 0 0.03125
vt 0.011706875 0.0625
vt 0.03125 0.0625
vt 0.03125 0.03125
vt 0.03125 0.03125
vt 0.03125 0.046875
vt 0.004953125 0.046875
vt 0 0
vt 0 0
vt 0 0
vt 0.71875 0.296875
vt 0.40625 0.296875
vt 0.40625 0.265625
vt 0.40625 0.296875
vt 0.71875 0.296875
vt 0.71875 0.265625
vt 0.15625 0.21875
vt 0.28125 0.21875
vt 0.28125 0.1875
vt 0.3125 0.03125
vt 0 0.03125
vt 0 0
vt 0.28125 0.21875
vt 0.15625 0.21875
vt 0.15625 0.1875
vt 0 0.03125
vt 0.3125 0.03125
vt 0.3125 0
vt 0.25 0.625
vt 0.125 0.625
vt 0.125 0.5
vt 0.25 0.625
vt 0.125 0.625
vt 0.125 0.5
vt 0.609375 0.6875
vt 0.734375 0.6875
vt 0.734375 0.9375
vt 0.609375 0.6875
vt 0.734375 0.6875
vt 0.734375 0.9375
vt 0.25 0.625
vt 0.125 0.625
vt 0.125 0.5
vt 0.734375 0.625
vt 0.421875 0.625
vt 0.421875 0.5
vt 0.125 0.5625
vt 0.25 0.5625
vt 0.25 0.625
vt 0.734375 0.65625
vt 0.859375 0.65625
vt 0.859375 0.96875
vt 0.6875 0.625
vt 0.4375 0.625
vt 0.4375 0.5
vt 0.6875 0.625
vt 0.4375 0.625
vt 0.4375 0.5
vt 0.1875 0.96875
vt 0.1875 0.65625
vt 0.421875 0.65625
vt 0.1875 0.65625
vt 0.421875 0.65625
vt 0.421875 0.96875
vt 0.5 0.625
vt 0.3125 0.625
vt 0.3125 0.5
vt 0.875 0.125
vt 0.5 0.125
vt 0.5 0
vt 0.5 0.625
vt 0.3125 0.625
vt 0.3125 0.5
vt 0.734375 0.625
vt 0.359375 0.625
vt 0.359375 0.5
vt 0 1
vt 0 0.625
vt 0.1875 0.625
vt 0 0.625
vt 0.1875 0.625
vt 0.1875 1
vt 0.03125 0.125
vt 0.109375 0.125
vt 0.109375 0.03125
vt 0.109375 0.03125
vt 0.109375 0.125
vt 0.07858875 0.046875
vt 0.109375 0.125
vt 0.07858875 0.125
vt 0.07858875 0.046875
vt 0.07858875 0.046875
vt 0.03125 0.046875
vt 0.03125 0.03125
vt 0.03125 0.265625
vt 0 0.265625
vt 0 0.19531187500000002
vt 0 0
vt 0 0
vt 0 0
vt 0.40625 0.367188125
vt 0.71875 0.367186875
vt 0.71875 0.296875
vt 0.0625 0.265625
vt 0 0.265625
vt 0 0.19531187500000002
vt 0 0.24218812499999998
vt 0 0.1875
vt 0.15625 0.1875
vt 0.28125 0.328125
vt 0.28125 0.421875
vt 0.15625 0.421875
vt 0.28125 0.421875
vt 0.15625 0.421875
vt 0.15625 0.328125
vt 0.28125 0.328125
vt 0.15625 0.328125
vt 0.15625 0.22656187500000002
vt 0 0
vt 0 0
vt 0 0
vt 0.109375 0.1875
vt 0.203125 0.1875
vt 0.203125 0.03125
vt 1 0.46875
vt 0.90625 0.46875
vt 0.90625 0.3125
vt 0.78125 0.25
vt 0.78125 0.375
vt 0.875 0.375
vt 0.109375 0.1875
vt 0.203125 0.1875
vt 0.203125 0.03125
vt 0.203125 0.1875
vt 0.109375 0.1875
vt 0.109375 0.03125
vt 0.28125 0.375
vt 0.40625 0.375
vt 0.40625 0.28125
vt 0.03125 0.03125
vt 0.109375 0.03125
vt 0.109375 0.125
vt 0.109375 0.03125
vt 0.03125 0.03125
vt 0.03125 0.125
vt 0.203125 0.1875
vt 0.109375 0.1875
vt 0.109375 0.03125
vt 0.109375 0.1875
vt 0.203125 0.1875
vt 0.203125 0.03125
vt 0.40625 0.375
vt 0.28125 0.375
vt 0.28125 0.28125
vt 0.15625 0.21875
vt 0 0.21875
vt 0 0.1875
vt 0.3125 0.125
vt 0.5 0.125
vt 0.5 0
vt 0.734375 0.625
vt 0.359375 0.625
vt 0.359375 0.5
vt 0.375 0.625
vt 0 0.625
vt 0 0.500065
vt 0.609375 1
vt 0.421875 1
vt 0.484375 0.625
vt 0.421875 1
vt 0.421875 0.625
vt 0.484375 0.625
vt 0.484375 1
vt 0.421875 1
vt 0.421875 0.625
vt 0.421875 0.625
vt 0.609375 0.625
vt 0.484375 1
vt 0.28125 0.46875
vt 0.28125 0.5
vt 0.15625 0.5
vt 0.40625 0.5
vt 0.28125 0.5
vt 0.28125 0.375
vt 0.28125 0.5
vt 0.28125 0.46875
vt 0.15625 0.46875
vt 0 0
vt 0 0
vt 0 0
vt 0 0
vt 0 0
vt 0 0
vt 0.28125 0.5
vt 0.28125 0.46875
vt 0.15625 0.46875
vt 0.6875 0.5
vt 0.71875 0.5
vt 0.71875 0.4375
vt 0.734375 0.5
vt 0.859375 0.5
vt 0.859375 0.4375
vt 0.6875 0.5
vt 0.71875 0.5
vt 0.71875 0.4375
vt 0.734375 0.625
vt 0.859375 0.625
vt 0.859375 0.65625
vt 0.15625 0.46875
vt 0.28125 0.46875
vt 0.28125 0.5
vt 0.15625 0.265625
vt 0 0.265625
vt 0 0.19531187500000002
vt 0 0.1875
vt 0.15625 0.1875
vt 0.15625 0.21875
vt 0 0.1875
vt 0.15625 0.1875
vt 0.15625 0.24218687500000002
vt 0.40625 0.5
vt 0.71875 0.5
vt 0.71875 0.429688125
vt 0.21875 0.46875
vt 0.21875 0.5
vt 0.15625 0.5
vt 0.21875 0.46875
vt 0.21875 0.5
vt 0.15625 0.5
vt 0.21875 0.46875
vt 0.21875 0.5
vt 0.15625 0.5
vt 0 0
vt 0 0
vt 0 0
vt 0 0
vt 0 0
vt 0 0
vt 0.21875 0.46875
vt 0.21875 0.5
vt 0.15625 0.5
vt 0.21875 0.46875
vt 0.21875 0.5
vt 0.15625 0.5
vt 0.21875 0.46875
vt 0.21875 0.5
vt 0.15625 0.5
vt 0 0
vt 0 0
vt 0 0
vt 0 0
vt 0 0
vt 0 0
vt 0.15625 0.421875
vt 0.28125 0.421875
vt 0.28125 0.328125
vt 0.03125 0.125
vt 0.109375 0.125
vt 0.109375 0.03125
vt 0.109375 0.125
vt 0.03125 0.125
vt 0.03125 0.03125
vt 0.203125 0.125
vt 0.28125 0.125
vt 0.28125 0.03125
vt 0.28125 0.125
vt 0.203125 0.125
vt 0.203125 0.03125
vt 0.28125 0.21875
vt 0.15625 0.21875
vt 0.15625 0.1875
vt 0 0.03125
vt 0.3125 0.03125
vt 0.3125 0
vt 0.15625 0.21875
vt 0.28125 0.21875
vt 0.28125 0.1875
vt 0.3125 0.03125
vt 0 0.03125
vt 0 0
vt 0.28125 0.328125
vt 0.15625 0.328125
vt 0.15625 0.22656187500000002
vt 0.40625 0.265625
vt 0.71875 0.265625
vt 0.71875 0.1875
vt 0.15625 0.328125
vt 0.28125 0.328125
vt 0.28125 0.22656187500000002
vt 0 0
vt 0 0
vt 0 0
vt 0.203125 0.125
vt 0.28125 0.125
vt 0.28125 0.03125
vt 0.28125 0.125
vt 0.203125 0.125
vt 0.203125 0.03125
vt 0.0625 0.5
vt 0.0625 0.4375
vt 0.15625 0.4375
vt 0.15625 0.5
vt 0.0625 0.5
vt 0.0625 0.4375
vt 0.0625 0.4375
vt 0 0.4375
vt 0 0.5
vt 0.15625 0.4375
vt 0.0625 0.4375
vt 0.0625 0.5
vt 0.15625 0.5
vt 0.0625 0.5
vt 0.0625 0.4375
vt 0.0625 0.5
vt 0.15625 0.5
vt 0.15625 0.4375
vt 0.15625 0.5
vt 0.15625 0.4375
vt 0.0625 0.4375
vt 0 0.4375
vt 0.0625 0.4375
vt 0.0625 0.5
vt 0.15625 0.4375
vt 0.15625 0.5
vt 0.0625 0.5
vt 0.15625 0.4375
vt 0.0625 0.4375
vt 0.0625 0.5
vt 0.15625 0.4375
vt 0.15625 0.5
vt 0.0625 0.5
vt 0.15625 0.5
vt 0.0625 0.5
vt 0.0625 0.4375
vt 0 0.4375
vt 0 0.5
vt 0.0625 0.5
vt 0.15625 0.4375
vt 0.0625 0.4375
vt 0.0625 0.5
vt 0.0625 0.5
vt 0.0625 0.4375
vt 0.15625 0.4375
vt 0.0625 0.5
vt 0.0625 0.4375
vt 0.15625 0.4375
vt 0.15625 0.5
vt 0.0625 0.5
vt 0.0625 0.4375
vt 0.0625 0.4375
vt 0 0.4375
vt 0 0.5
vt 0.15625 0.4375
vt 0.0625 0.4375
vt 0.0625 0.5
vt 0.15625 0.4375
vt 0.15625 0.5
vt 0.0625 0.5
vt 0.0625 0.4375
vt 0.15625 0.4375
vt 0.15625 0.5
vt 0.0625 0.5
vt 0.0625 0.4375
vt 0.15625 0.4375
vt 0 0.4375
vt 0 0.5
vt 0.0625 0.5
vt 0.0625 0.4375
vt 0.0625 0.5
vt 0.15625 0.5
vt 0.15625 0.5
vt 0.0625 0.5
vt 0.0625 0.4375
vt 0.15625 0.21875
vt 0 0.21875
vt 0 0.1875
vt 0.5 0.125
vt 0.4375 0.125
vt 0.4375 0
vt 1 0.59375
vt 0.875 0.59375
vt 0.875 0.46875
vt 1 0
vt 1 0.3125
vt 0.875 0.3125
vn -0.6246950475544243 0.7808688094430304 0
vn 0 0 -1
vn 0 0 1
vn 1 0 0
vn 0 0 1
vn 0 0 -1
vn 0 -1 0
vn 0 1 0
vn 1 0 0
vn 0 0 1
vn 0 0 -1
vn 0 -1 0
vn 0 1 0
vn 0.6232037050564748 0.7820595514434193 0
vn 0.9492979228560804 0.31437788354324736 0
vn 1 0 0
vn 0 0 1
vn -1 0 0
vn 0 0 -1
vn 0 -1 0
vn 0 1 0
vn 0 0 -1
vn 0.6246950475544243 0.7808688094430304 0
vn 0.6246950475544243 0.7808688094430304 0
vn 0 0 1
vn 0 0 -1
vn 0.948683298050514 0.316227766016838 0
vn 0 0 1
vn 0 0 -1
vn 0 0 1
vn 0 0 -1
vn 1 0 0
vn -1 0 0
vn 0 -1 0
vn 0 1 0
vn 0 0 -1
vn 0.9501553270938734 0.31176971670267717 -0.0021208824265488246
vn 0 0 1
vn 0 0 -1
vn 0 -1 0
vn 1 0 0
vn -1 0 0
vn 1 0 0
vn 0 0 1
vn -1 0 0
vn 0 0 -1
vn 1 0 0
vn -1 0 0
vn 0 -1 0
vn 0 1 0
vn 1 0 0
vn 0 0 1
vn -1 0 0
vn 0 -1 0
vn 1 0 0
vn -1 0 0
vn 0 -1 0
vn 0 1 0
vn 1 0 0
vn 0 0 1
vn -1 0 0
vn 0 0 -1
vn 0 -1 0
vn 0 1 0
vn 0 0 1
vn 0 0 -1
vn 0.8944271909999161 0.44721359549995804 0
vn 0 -1 0
vn -0.9492979228560804 0.31437788354324736 0
vn 0.8944271909999161 0.44721359549995804 0
vn 0.5547001962252291 0.8320502943378437 0
vn -0.6246950475544243 0.7808688094430304 0
vn 0 0 -1
vn 0 0 1
vn 0.6246950475544243 0.7808688094430304 0
vn 0 0 1
vn 0 0 -1
vn 0.948683298050514 0.316227766016838 0
vn 0 0 1
vn 0 0 -1
vn 0 -1 0
vn 0 0 1
vn 0 0 -1
vn 0 1 0
vn 0 0 1
vn 0 0 -1
vn 0 1 0
vn 0 0 1
vn 0 0 -1
vn 0 0 1
vn 0 0 -1
vn 0 1 0
vn 1 0 0
vn 1 0 0
vn 0 0 1
vn 0 0 -1
vn 0 -1 0
vn 0 1 0
vn 1 0 0
vn 0 0 1
vn -1 0 0
vn 0 0 -1
vn 0 -1 0
vn 0 1 0
vn 0 0 1
vn -1 0 0
vn 0 0 -1
vn 0 -1 0
vn 0 1 0
vn -0.8944271909999161 0.44721359549995804 0
vn 0 1 0
vn -0.5547001962252291 0.8320502943378437 0
vn 0 1 0
vn 0 0 1
vn -1 0 0
vn 0 0 -1
vn 0 -1 0
vn 0 1 0
vn 0 0 1
vn -1 0 0
vn 0 0 -1
vn 0 -1 0
vn 0 1 0
vn -0.6246950475544243 0.7808688094430304 0
vn 0 0 -1
vn 0 0 1
vn 0 0 1
vn 0 0 -1
vn 0 0 1
vn 0 0 -1
vn 1 0 0
vn 0 0 1
vn -1 0 0
vn 0 0 -1
vn -0.948683298050514 0.316227766016838 0
vn 0 0 -1
vn 0 0 1
vn -0.6232037050564748 0.7820595514434193 0
vn -0.948683298050514 0.316227766016838 0
vn 0 0 -1
vn 0 0 1
vn 0 -1 0
vn 0 0 1
vn 0 0 -1
vn 1 0 0
vn -1 0 0
vn 0 0.49949721934415764 -0.8663154898000234
vn 0 -0.8656642097802241 -0.5006250851741055
vn 0 0.8656642097802241 0.5006250851741055
vn -0.3267495424868399 0.9451107369619349 -0.0006567829999735475
vn 0.32385816822236635 -0.9461052567641843 0.0008543996900338811
vn 0.4749114391623952 0.16484529293240163 -0.8644565659133681
vn 0.8195288844879481 0.2844645714751555 0.4974457910821997
vn -0.8195288844879481 -0.2844645714751555 -0.4974457910821997
vn 0.3267495424868399 0.9451107369619349 -0.0006567829999735475
vn -0.3267495424868399 -0.9451107369619349 0.0006567829999735475
vn -0.47307921363994193 0.16029956825816213 -0.8663140920232459
vn -0.8195865235264354 0.27771113607094094 0.5011531256572578
vn 0.8195288844879481 -0.2844645714751555 -0.4974457910821997
vn 0.787404104587525 -0.6164356839988815 0.0013503968117341402
vn -0.787404104587525 0.6164356839988815 -0.0013503968117341402
vn 0.3073036543640743 0.39288188722495576 -0.8667227276961431
vn -0.5341339676124977 -0.682880135808383 -0.49837297755883186
vn 0.5330377639856826 0.6814786602854929 0.5014554593786309
vn -0.7909414690200712 -0.6118910378655686 0.0009748662313312299
vn 0.787404104587525 0.6164356839988815 -0.0013503968117341402
vn -0.3073036543640743 0.39288188722495576 -0.8667227276961431
vn 0.5341339676124977 -0.682880135808383 -0.49837297755883186
vn -0.5330377639856826 0.6814786602854929 0.5014554593786309
vn -1 0 0
vn 0 0 1
vn -1 0 0
vn -1 0 0
vn 0 0 -1
vn -0.6246950475544243 0.7808688094430304 0
vn 1 0 0
vn 0 0 1
vn 0 0 -1
vn 0 -1 0
vn 0 1 0
vn 1 0 0
vn 0 0 1
vn 0 0 -1
vn 0 -1 0
vn 0 1 0
vn 0.6232037050564748 0.7820595514434193 0
vn 0.9492979228560804 0.31437788354324736 0
vn 1 0 0
vn 0 0 1
vn -1 0 0
vn 0 0 -1
vn 0 -1 0
vn 0 1 0
vn 0 0 -1
vn 0 0 -1
vn 0.6246950475544243 0.7808688094430304 0
vn 0.6246950475544243 0.7808688094430304 0
vn 0.6246950475544243 0.7808688094430304 0
vn 0.6246950475544243 0.7808688094430304 0
vn 0.948683298050514 0.316227766016838 0
vn 0 0 1
vn 0 0 -1
vn 1 0 0
vn -1 0 0
vn 0 -1 0
vn 0 -1 0
vn 0 -1 0
vn 0 1 0
vn 0 1 0
vn 0 1 0
vn 0 0 -1
vn 0.9456865993048669 0.325079768511048 0
vn 0.9456865993048669 0.325079768511048 0
vn 0.9544799780350298 0.2982749931359468 0
vn 0 0 1
vn 0 0 -1
vn 0 -1 0
vn 1 0 0
vn -1 0 0
vn 1 0 0
vn 0 0 1
vn -1 0 0
vn 0 0 -1
vn 1 0 0
vn -1 0 0
vn 0 -1 0
vn 0 1 0
vn 1 0 0
vn 0 0 1
vn -1 0 0
vn 0 -1 0
vn 1 0 0
vn -1 0 0
vn 0 -1 0
vn 0 1 0
vn 1 0 0
vn 0 0 1
vn -1 0 0
vn 0 0 -1
vn 0 -1 0
vn 0 1 0
vn 0 0 1
vn 0 0 -1
vn 0 0 -1
vn 0 0 -1
vn 0.8944271909999161 0.44721359549995804 0
vn 0 -1 0
vn -0.9492979228560804 0.31437788354324736 0
vn 0.8944271909999161 0.44721359549995804 0
vn 0.5547001962252291 0.8320502943378437 0
vn -0.6246950475544243 0.7808688094430304 0
vn 0.6246950475544243 0.7808688094430304 0
vn 0.948683298050514 0.316227766016838 0
vn 0 -1 0
vn 0 0 1
vn 0 0 -1
vn 0 1 0
vn 0 0 1
vn 0 0 -1
vn 0 1 0
vn 0 0 1
vn 0 0 -1
vn 0 0 1
vn 0 0 -1
vn 0 1 0
vn 1 0 0
vn 1 0 0
vn 0 0 1
vn 0 0 -1
vn 0 -1 0
vn 0 -1 0
vn 0 1 0
vn 0 1 0
vn 1 0 0
vn 0 0 1
vn -1 0 0
vn 0 0 -1
vn 0 -1 0
vn 0 1 0
vn 0 0 1
vn -1 0 0
vn 0 0 -1
vn 0 -1 0
vn 0 1 0
vn -0.8944271909999161 0.44721359549995804 0
vn 0 1 0
vn -0.5547001962252291 0.8320502943378437 0
vn 0 1 0
vn 0 0 1
vn -1 0 0
vn 0 0 -1
vn 0 -1 0
vn 0 1 0
vn 0 0 1
vn -1 0 0
vn 0 0 -1
vn 0 -1 0
vn 0 1 0
vn -0.6246950475544243 0.7808688094430304 0
vn 0 0 1
vn 0 0 -1
vn 0 0 1
vn 0 0 -1
vn 1 0 0
vn 0 0 1
vn -1 0 0
vn 0 0 -1
vn -0.948683298050514 0.316227766016838 0
vn -0.6232037050564748 0.7820595514434193 0
vn -0.948683298050514 0.316227766016838 0
vn 0 -1 0
vn 0 0 1
vn 0 0 -1
vn 1 0 0
vn -1 0 0
vn 0 0.49949721934415764 -0.8663154898000234
vn 0 -0.8656642097802241 -0.5006250851741055
vn 0 0.8656642097802241 0.5006250851741055
vn -0.32385816822236635 0.9461052567641843 -0.0008543996900338811
vn 0.3267495424868399 -0.9451107369619349 0.0006567829999735475
vn 0.47307921363994193 0.16029956825816213 -0.8663140920232459
vn 0.8195865235264354 0.27771113607094094 0.5011531256572578
vn -0.8195865235264354 -0.27771113607094094 -0.5011531256572578
vn 0.32385816822236635 0.9461052567641843 -0.0008543996900338811
vn -0.32385816822236635 -0.9461052567641843 0.0008543996900338811
vn -0.4749114391623952 0.16484529293240163 -0.8644565659133681
vn -0.8195288844879481 0.2844645714751555 0.4974457910821997
vn 0.8195865235264354 -0.27771113607094094 -0.5011531256572578
vn 0.7909414690200712 -0.6118910378655686 0.0009748662313312299
vn -0.7909414690200712 0.6118910378655686 -0.0009748662313312299
vn 0.3073036543640743 0.39288188722495576 -0.8667227276961431
vn -0.5341339676124977 -0.682880135808383 -0.49837297755883186
vn 0.5330377639856826 0.6814786602854929 0.5014554593786309
vn -0.787404104587525 -0.6164356839988815 0.0013503968117341402
vn 0.7909414690200712 0.6118910378655686 -0.0009748662313312299
vn -0.3073036543640743 0.39288188722495576 -0.8667227276961431
vn 0.5341339676124977 -0.682880135808383 -0.49837297755883186
vn -0.5330377639856826 0.6814786602854929 0.5014554593786309
vn -1 0 0
vn -1 0 0
vn -1 0 0
vn 0 0 -1
usemtl m_6627e7c0-fce9-a4b4-acbc-a1af7c40be9f
f 2/1/1 3/2/1 4/3/1
f 3/4/2 5/5/2 6/6/2
f 7/7/3 2/8/3 4/9/3
f 8/10/4 9/11/4 10/12/4
f 11/13/5 12/14/5 9/15/5
f 13/16/6 10/17/6 14/18/6
f 12/19/7 10/20/7 9/21/7
f 11/22/8 13/23/8 15/24/8
f 16/25/9 17/26/9 18/27/9
f 19/28/10 20/29/10 17/30/10
f 21/31/11 18/32/11 22/33/11
f 17/34/12 22/35/12 18/36/12
f 19/37/13 21/38/13 23/39/13
f 24/40/14 25/41/14 26/42/14
f 27/43/15 28/44/15 29/45/15
f 30/46/16 31/47/16 32/48/16
f 33/49/17 34/50/17 31/51/17
f 35/52/18 36/53/18 34/54/18
f 37/55/19 32/56/19 36/57/19
f 31/58/20 36/59/20 32/60/20
f 33/61/21 37/62/21 35/63/21
f 38/64/22 39/65/22 40/66/22
f 41/67/23 42/68/23 43/69/23
f 44/70/24 45/71/24 46/72/24
f 45/73/25 47/74/25 48/75/25
f 49/76/26 44/77/26 46/78/26
f 50/79/27 51/80/27 52/81/27
f 51/82/28 53/83/28 54/84/28
f 55/85/29 50/86/29 52/87/29
f 56/88/30 57/89/30 58/90/30
f 59/91/31 60/92/31 61/93/31
f 62/94/32 63/95/32 1/96/32
f 64/97/33 65/98/33 66/99/33
f 63/100/34 67/101/34 1/102/34
f 62/103/35 68/104/35 69/105/35
f 67/106/36 70/107/36 69/108/36
f 71/109/37 72/110/37 73/111/37
f 72/112/38 74/113/38 73/114/38
f 75/115/39 76/116/39 77/117/39
f 74/118/40 77/119/40 73/120/40
f 78/121/41 79/122/41 80/123/41
f 81/124/42 82/125/42 83/126/42
f 84/127/43 85/128/43 86/129/43
f 87/130/44 88/131/44 85/132/44
f 89/133/45 90/134/45 88/135/45
f 91/136/46 86/137/46 90/138/46
f 92/139/47 93/140/47 94/141/47
f 95/142/48 96/143/48 97/144/48
f 97/145/49 94/146/49 93/147/49
f 98/148/50 99/149/50 95/150/50
f 100/151/51 101/152/51 102/153/51
f 103/154/52 104/155/52 101/156/52
f 105/157/53 106/158/53 104/159/53
f 104/160/54 102/161/54 101/162/54
f 107/163/55 108/164/55 109/165/55
f 110/166/56 111/167/56 112/168/56
f 108/169/57 111/170/57 109/171/57
f 113/172/58 114/173/58 110/174/58
f 115/175/59 116/176/59 117/177/59
f 118/178/60 119/179/60 116/180/60
f 120/181/61 121/182/61 119/183/61
f 122/184/62 117/185/62 121/186/62
f 116/187/63 121/188/63 117/189/63
f 118/190/64 122/191/64 120/192/64
f 123/193/65 124/194/65 125/195/65
f 126/196/66 127/197/66 128/198/66
f 129/199/67 130/200/67 131/201/67
f 132/202/68 131/203/68 130/204/68
f 133/205/69 134/206/69 135/207/69
f 136/208/70 137/209/70 138/210/70
f 139/211/71 140/212/71 141/213/71
f 142/214/72 143/215/72 144/216/72
f 144/217/73 143/218/73 145/219/73
f 146/220/74 147/221/74 142/222/74
f 148/223/75 149/224/75 150/225/75
f 149/226/76 151/227/76 152/228/76
f 153/229/77 148/230/77 150/231/77
f 154/232/78 155/233/78 156/234/78
f 155/235/79 157/236/79 158/237/79
f 159/238/80 154/239/80 156/240/80
f 155/241/81 159/242/81 156/243/81
f 160/244/82 161/245/82 162/246/82
f 163/247/83 164/248/83 165/249/83
f 166/250/84 167/251/84 168/252/84
f 169/253/85 170/254/85 171/255/85
f 172/256/86 173/257/86 174/258/86
f 169/259/87 172/260/87 175/261/87
f 176/262/88 177/263/88 178/264/88
f 179/265/89 180/266/89 181/267/89
f 182/268/90 183/269/90 184/270/90
f 185/271/91 186/272/91 187/273/91
f 182/274/92 185/275/92 188/276/92
f 189/277/93 190/278/93 191/279/93
f 192/280/94 193/281/94 194/282/94
f 195/283/95 196/284/95 193/285/95
f 197/286/96 194/287/96 198/288/96
f 199/289/97 198/290/97 194/291/97
f 192/292/98 197/293/98 200/294/98
f 201/295/99 202/296/99 203/297/99
f 204/298/100 205/299/100 202/300/100
f 206/301/101 207/302/101 205/303/101
f 208/304/102 203/305/102 207/306/102
f 202/307/103 207/308/103 203/309/103
f 204/310/104 208/311/104 206/312/104
f 209/313/105 210/314/105 211/315/105
f 212/316/106 213/317/106 210/318/106
f 214/319/107 215/320/107 213/321/107
f 210/322/108 215/323/108 211/324/108
f 209/325/109 214/326/109 212/327/109
f 216/328/110 217/329/110 218/330/110
f 219/331/111 220/332/111 221/333/111
f 222/334/112 223/335/112 224/336/112
f 225/337/113 226/338/113 227/339/113
f 228/340/114 229/341/114 230/342/114
f 231/343/115 232/344/115 229/345/115
f 233/346/116 234/347/116 232/348/116
f 230/349/117 232/350/117 234/351/117
f 228/352/118 233/353/118 231/354/118
f 235/355/119 236/356/119 237/357/119
f 238/358/120 239/359/120 236/360/120
f 240/361/121 241/362/121 239/363/121
f 236/364/122 241/365/122 237/366/122
f 235/367/123 240/368/123 238/369/123
f 242/370/124 243/371/124 244/372/124
f 243/373/125 245/374/125 246/375/125
f 247/376/126 242/377/126 244/378/126
f 248/379/127 249/380/127 250/381/127
f 251/382/128 252/383/128 253/384/128
f 254/385/129 255/386/129 256/387/129
f 257/388/130 258/389/130 259/390/130
f 260/391/131 261/392/131 262/393/131
f 263/394/132 264/395/132 261/396/132
f 265/397/133 266/398/133 264/399/133
f 267/400/134 262/401/134 266/402/134
f 268/403/135 269/404/135 270/405/135
f 269/406/136 271/407/136 272/408/136
f 273/409/137 268/410/137 270/411/137
f 274/412/138 275/413/138 276/414/138
f 277/415/139 278/416/139 279/417/139
f 278/418/140 280/419/140 281/420/140
f 282/421/141 277/422/141 279/423/141
f 281/424/142 279/425/142 278/426/142
f 283/427/143 284/428/143 285/429/143
f 286/430/144 287/431/144 288/432/144
f 289/433/145 290/434/145 291/435/145
f 292/436/146 293/437/146 294/438/146
f 293/439/147 295/440/147 289/441/147
f 294/442/148 289/443/148 291/444/148
f 290/445/149 296/446/149 292/447/149
f 297/448/150 298/449/150 299/450/150
f 300/451/151 301/452/151 302/453/151
f 302/454/152 297/455/152 299/456/152
f 298/457/153 302/458/153 299/459/153
f 303/460/154 301/461/154 304/462/154
f 305/463/155 306/464/155 307/465/155
f 308/466/156 309/467/156 310/468/156
f 311/469/157 306/470/157 309/471/157
f 305/472/158 311/473/158 308/474/158
f 309/475/159 312/476/159 310/477/159
f 313/478/160 314/479/160 315/480/160
f 316/481/161 317/482/161 318/483/161
f 317/484/162 319/485/162 313/486/162
f 318/487/163 313/488/163 315/489/163
f 316/490/164 319/491/164 320/492/164
f 321/493/165 322/494/165 323/495/165
f 324/496/166 325/497/166 326/498/166
f 324/499/167 323/500/167 327/501/167
f 321/502/168 326/503/168 328/504/168
f 325/505/169 323/506/169 322/507/169
f 329/508/170 330/509/170 331/510/170
f 332/511/171 333/512/171 334/513/171
f 335/514/172 199/515/172 196/516/172
f 200/517/173 198/518/173 199/519/173
f 336/520/174 337/521/174 338/522/174
f 2/523/175 5/524/175 3/525/175
f 8/526/176 11/527/176 9/528/176
f 11/529/177 15/530/177 12/531/177
f 13/532/178 8/533/178 10/534/178
f 12/535/179 14/536/179 10/537/179
f 11/538/180 8/539/180 13/540/180
f 16/541/181 19/542/181 17/543/181
f 19/544/182 23/545/182 20/546/182
f 21/547/183 16/548/183 18/549/183
f 17/550/184 20/551/184 22/552/184
f 19/553/185 16/554/185 21/555/185
f 24/556/186 339/557/186 25/558/186
f 27/559/187 340/560/187 28/561/187
f 30/562/188 33/563/188 31/564/188
f 33/565/189 35/566/189 34/567/189
f 35/568/190 37/569/190 36/570/190
f 37/571/191 30/572/191 32/573/191
f 31/574/192 34/575/192 36/576/192
f 33/577/193 30/578/193 37/579/193
f 341/580/194 342/581/194 40/582/194
f 342/583/195 38/584/195 40/585/195
f 42/586/196 343/587/196 43/588/196
f 43/589/197 39/590/197 38/591/197
f 38/592/198 41/593/198 43/594/198
f 44/595/199 47/596/199 45/597/199
f 50/598/200 53/599/200 51/600/200
f 56/601/201 344/602/201 57/603/201
f 59/604/202 345/605/202 60/606/202
f 62/607/203 346/608/203 63/609/203
f 64/610/204 70/611/204 65/612/204
f 63/613/205 66/614/205 67/615/205
f 66/616/206 65/617/206 67/618/206
f 67/619/207 347/620/207 1/621/207
f 70/622/208 64/623/208 69/624/208
f 64/625/209 346/626/209 69/627/209
f 346/628/210 62/629/210 69/630/210
f 67/631/211 65/632/211 70/633/211
f 73/634/212 77/635/212 71/636/212
f 77/637/213 76/638/213 71/639/213
f 71/640/214 348/641/214 72/642/214
f 72/643/215 349/644/215 74/645/215
f 75/646/216 350/647/216 76/648/216
f 74/649/217 75/650/217 77/651/217
f 78/652/218 351/653/218 79/654/218
f 81/655/219 352/656/219 82/657/219
f 84/658/220 87/659/220 85/660/220
f 87/661/221 89/662/221 88/663/221
f 89/664/222 91/665/222 90/666/222
f 91/667/223 84/668/223 86/669/223
f 92/670/224 98/671/224 93/672/224
f 95/673/225 99/674/225 96/675/225
f 97/676/226 96/677/226 94/678/226
f 98/679/227 92/680/227 99/681/227
f 100/682/228 103/683/228 101/684/228
f 103/685/229 105/686/229 104/687/229
f 105/688/230 353/689/230 106/690/230
f 104/691/231 106/692/231 102/693/231
f 107/694/232 113/695/232 108/696/232
f 110/697/233 114/698/233 111/699/233
f 108/700/234 112/701/234 111/702/234
f 113/703/235 107/704/235 114/705/235
f 115/706/236 118/707/236 116/708/236
f 118/709/237 120/710/237 119/711/237
f 120/712/238 122/713/238 121/714/238
f 122/715/239 115/716/239 117/717/239
f 116/718/240 119/719/240 121/720/240
f 118/721/241 115/722/241 122/723/241
f 123/724/242 354/725/242 124/726/242
f 126/727/243 355/728/243 127/729/243
f 355/730/244 356/731/244 127/732/244
f 127/733/245 357/734/245 128/735/245
f 129/736/246 358/737/246 130/738/246
f 132/739/247 359/740/247 131/741/247
f 133/742/248 360/743/248 134/744/248
f 136/745/249 361/746/249 137/747/249
f 139/748/250 362/749/250 140/750/250
f 142/751/251 147/752/251 143/753/251
f 148/754/252 151/755/252 149/756/252
f 154/757/253 157/758/253 155/759/253
f 155/760/254 158/761/254 159/762/254
f 160/763/255 363/764/255 161/765/255
f 163/766/256 364/767/256 164/768/256
f 166/769/257 365/770/257 167/771/257
f 169/772/258 175/773/258 170/774/258
f 172/775/259 366/776/259 173/777/259
f 169/778/260 366/779/260 172/780/260
f 176/781/261 367/782/261 177/783/261
f 179/784/262 368/785/262 180/786/262
f 182/787/263 188/788/263 183/789/263
f 185/790/264 369/791/264 186/792/264
f 182/793/265 369/794/265 185/795/265
f 189/796/266 370/797/266 190/798/266
f 192/799/267 195/800/267 193/801/267
f 195/802/268 335/803/268 196/804/268
f 197/805/269 192/806/269 194/807/269
f 194/808/270 193/809/270 199/810/270
f 193/811/271 196/812/271 199/813/271
f 200/814/272 335/815/272 195/816/272
f 195/817/273 192/818/273 200/819/273
f 201/820/274 204/821/274 202/822/274
f 204/823/275 206/824/275 205/825/275
f 206/826/276 208/827/276 207/828/276
f 208/829/277 201/830/277 203/831/277
f 202/832/278 205/833/278 207/834/278
f 204/835/279 201/836/279 208/837/279
f 209/838/280 212/839/280 210/840/280
f 212/841/281 214/842/281 213/843/281
f 214/844/282 371/845/282 215/846/282
f 210/847/283 213/848/283 215/849/283
f 209/850/284 371/851/284 214/852/284
f 216/853/285 372/854/285 217/855/285
f 219/856/286 373/857/286 220/858/286
f 222/859/287 374/860/287 223/861/287
f 225/862/288 375/863/288 226/864/288
f 228/865/289 231/866/289 229/867/289
f 231/868/290 233/869/290 232/870/290
f 233/871/291 376/872/291 234/873/291
f 230/874/292 229/875/292 232/876/292
f 228/877/293 376/878/293 233/879/293
f 235/880/294 238/881/294 236/882/294
f 238/883/295 240/884/295 239/885/295
f 240/886/296 377/887/296 241/888/296
f 236/889/297 239/890/297 241/891/297
f 235/892/298 377/893/298 240/894/298
f 242/895/299 245/896/299 243/897/299
f 248/898/300 378/899/300 249/900/300
f 251/901/301 379/902/301 252/903/301
f 254/904/302 380/905/302 255/906/302
f 257/907/303 381/908/303 258/909/303
f 260/910/304 263/911/304 261/912/304
f 263/913/305 265/914/305 264/915/305
f 265/916/306 267/917/306 266/918/306
f 267/919/307 260/920/307 262/921/307
f 268/922/308 271/923/308 269/924/308
f 274/925/309 382/926/309 275/927/309
f 277/928/310 280/929/310 278/930/310
f 281/931/311 282/932/311 279/933/311
f 283/934/312 383/935/312 284/936/312
f 286/937/313 384/938/313 287/939/313
f 289/940/314 295/941/314 290/942/314
f 292/943/315 296/944/315 293/945/315
f 293/946/316 296/947/316 295/948/316
f 294/949/317 293/950/317 289/951/317
f 290/952/318 295/953/318 296/954/318
f 297/955/319 303/956/319 298/957/319
f 300/958/320 304/959/320 301/960/320
f 302/961/321 301/962/321 297/963/321
f 298/964/322 300/965/322 302/966/322
f 303/967/323 297/968/323 301/969/323
f 305/970/324 312/971/324 306/972/324
f 308/973/325 311/974/325 309/975/325
f 311/976/326 307/977/326 306/978/326
f 305/979/327 307/980/327 311/981/327
f 309/982/328 306/983/328 312/984/328
f 313/985/329 319/986/329 314/987/329
f 316/988/330 320/989/330 317/990/330
f 317/991/331 320/992/331 319/993/331
f 318/994/332 317/995/332 313/996/332
f 316/997/333 314/998/333 319/999/333
f 321/1000/334 328/1001/334 322/1002/334
f 324/1003/335 327/1004/335 325/1005/335
f 324/1006/336 321/1007/336 323/1008/336
f 321/1009/337 324/1010/337 326/1011/337
f 325/1012/338 327/1013/338 323/1014/338
f 329/1015/339 385/1016/339 330/1017/339
f 335/1018/340 200/1019/340 199/1020/340
f 200/1021/341 197/1022/341 198/1023/341
f 336/1024/342 386/1025/342 337/1026/342