# Made in Blockbench 5.0.7
mtllib advanced_coke_oven_baseheater.mtl

o cube
v 0 0 -1
v 1 0 -1
v 1 0 0
v 0 0 0
v 1 1 0
v 1 1 -1
v 0 1 -1
v 0 1 0
v 1 0 2
v 1 0 1
v 1 1 2
v 1 1 1
v 0.375 0.375 2
v 0.375 0.375 1.875
v 0.375 0.625 1.875
v 0.375 0.625 2
v 0.625 0.375 2
v 0.625 0.375 1.875
v 0.625 0.625 2
v 0.625 0.625 1.875
v 0.625 0.4375 1.9375
v 0.625 0.5625 1.9375
v 0.875 0.5625 1.9375
v 0.875 0.4375 1.9375
v 0.4375 0.125 1.9375
v 0.5625 0.125 1.9375
v 0.5625 0.375 1.9375
v 0.4375 0.375 1.9375
v 0.125 0.875 1.6875
v 0.125 0.125 1.6875
v 0.125 0.125 2
v 0.125 0.875 2
v 0.125 0.4375 1.9375
v 0.125 0.5625 1.9375
v 0.375 0.5625 1.9375
v 0.375 0.4375 1.9375
v 0 0 2
v 0 0 1
v 0 1 1
v 0 1 2
v 0.875 0.125 2
v 0.4375 0.625 1.9375
v 0.5625 0.625 1.9375
v 0.5625 0.875 1.9375
v 0.4375 0.875 1.9375
v 0.875 0.875 1.6875
v 0.875 0.125 1.6875
v 0.875 0.875 2
v 0.0625 0.0625 1
v 0.0625 0.9375 1
v 0.9375 0.0625 1
v 0.9375 0.9375 1
v 0.8125 1 0.1875
v 0.1875 1 0.1875
v 0.1875 0.9375 0.1875
v 0.8125 0.9375 0.1875
v 0.9375 0.25 0.75
v 0.9375 0.75 0.75
v 1.5 0.75 0.75
v 1.5 0.25 0.75
v 1.5 0.25 0.25
v 1.5 0.75 0.25
v 0.9375 0.0625 0
v 0.9375 0.25 0.25
v 0.9375 0.9375 0
v 0.8125 0.9375 0.8125
v 0.9375 0.75 0.25
v 0.375 0.375 -0.875
v 0.375 0.375 -1
v 0.375 0.625 -1
v 0.375 0.625 -0.875
v 0.625 0.4375 -0.9375
v 0.625 0.5625 -0.9375
v 0.875 0.5625 -0.9375
v 0.875 0.4375 -0.9375
v 0.625 0.375 -0.875
v 0.625 0.375 -1
v 0.625 0.625 -0.875
v 0.625 0.625 -1
v 0.125 0.875 -0.6875
v 0.875 0.875 -0.6875
v 0.875 0.125 -0.6875
v 0.125 0.125 -0.6875
v 0.875 0.125 -1
v 0.875 0.875 -1
v 0.125 0.125 -1
v 0.4375 0.125 -0.9375
v 0.5625 0.125 -0.9375
v 0.5625 0.375 -0.9375
v 0.4375 0.375 -0.9375
v 0.125 0.4375 -0.9375
v 0.125 0.5625 -0.9375
v 0.375 0.5625 -0.9375
v 0.375 0.4375 -0.9375
v 0.125 0.875 -1
v 0.4375 0.625 -0.9375
v 0.5625 0.625 -0.9375
v 0.5625 0.875 -0.9375
v 0.4375 0.875 -0.9375
v 0.0625 0.0625 0
v 0.0625 0.9375 0
v 0.1875 1 0.8125
v 0.8125 1 0.8125
v 0.1875 0.9375 0.8125
vt 0.25 0.25
vt 0.5 0.25
vt 0.5 0
vt 0.25 0
vt 0.25 0.25
vt 0.5 0.25
vt 0.5 0
vt 0.25 0
vt 0.25 0.25
vt 0.5 0.25
vt 0.5 0
vt 0.25 0
vt 0.46875 0.5625
vt 0.5 0.5625
vt 0.5 0.5
vt 0.46875 0.5
vt 0.46875 0.5625
vt 0.5 0.5625
vt 0.5 0.5
vt 0.46875 0.5
vt 0.03125 0.4375
vt 0.09375 0.4375
vt 0.09375 0.40625
vt 0.03125 0.40625
vt 0.46875 0.5625
vt 0.5 0.5625
vt 0.5 0.5
vt 0.46875 0.5
vt 0.109375 0.515625
vt 0.140625 0.515625
vt 0.140625 0.453125
vt 0.109375 0.453125
vt 0.46875 0.5
vt 0.46875 0.5625
vt 0.5 0.5625
vt 0.5 0.5
vt 0.40625 0.5625
vt 0.46875 0.5625
vt 0.46875 0.5
vt 0.40625 0.5
vt 0.03125 0.25
vt 0.21875 0.25
vt 0.21875 0.328125
vt 0.03125 0.328125
vt 0.15625 0.4375
vt 0.21875 0.4375
vt 0.21875 0.40625
vt 0.15625 0.40625
vt 0.25 0.25
vt 0.5 0.25
vt 0.5 0
vt 0.25 0
vt 0.03125 0.03125
vt 0.21875 0.03125
vt 0.25 0
vt 0 0
vt 0.109375 0.390625
vt 0.140625 0.390625
vt 0.140625 0.328125
vt 0.109375 0.328125
vt 0.40625 0.5625
vt 0.46875 0.5625
vt 0.46875 0.5
vt 0.40625 0.5
vt 0.21875 0.25
vt 0.03125 0.25
vt 0.03125 0.328125
vt 0.21875 0.328125
vt 0.21875 0.21875
vt 0.21875 0.03125
vt 0.25 0
vt 0.25 0.25
vt 0.03125 0.03125
vt 0.03125 0.21875
vt 0 0.25
vt 0 0
vt 0.03125 0.21875
vt 0.21875 0.21875
vt 0.25 0.25
vt 0 0.25
vt 0.21875 0.25
vt 0.03125 0.25
vt 0.03125 0.328125
vt 0.21875 0.328125
vt 0.03125 0.25
vt 0.21875 0.25
vt 0.21875 0.328125
vt 0.03125 0.328125
vt 0.484375 0.234375
vt 0.484375 0.015625
vt 0.5 0
vt 0.5 0.25
vt 0.484375 0.015625
vt 0.265625 0.015625
vt 0.25 0
vt 0.5 0
vt 0.75 0
vt 0.75 0.25
vt 1 0.25
vt 1 0
vt 0.265625 0.015625
vt 0.265625 0.234375
vt 0.25 0.25
vt 0.25 0
vt 0.265625 0.234375
vt 0.484375 0.234375
vt 0.5 0.25
vt 0.25 0.25
vt 0.546875 0.484375
vt 0.703125 0.484375
vt 0.703125 0.46875
vt 0.546875 0.46875
vt 0.5625 0.046875
vt 0.5625 0.171875
vt 0.5 0.21875
vt 0.5 0
vt 0.8125 0.59375
vt 0.8125 0.46875
vt 0.9375 0.46875
vt 0.9375 0.59375
vt 0.6875 0.046875
vt 0.5625 0.046875
vt 0.5 0
vt 0.75 0
vt 0.796875 0.4375
vt 0.953125 0.4375
vt 1 0.46875
vt 0.75 0.46875
vt 0.796875 0.59375
vt 0.796875 0.71875
vt 0.9375 0.71875
vt 0.9375 0.59375
vt 0.796875 0.71875
vt 0.796875 0.59375
vt 0.9375 0.59375
vt 0.9375 0.71875
vt 0.6875 0.171875
vt 0.6875 0.046875
vt 0.75 0
vt 0.75 0.21875
vt 0.484375 0.234375
vt 0.484375 0.015625
vt 0.5 0
vt 0.5 0.25
vt 0.03125 0.21875
vt 0.21875 0.21875
vt 0.21875 0.03125
vt 0.03125 0.03125
vt 0.46875 0.5625
vt 0.5 0.5625
vt 0.5 0.5
vt 0.46875 0.5
vt 0.09375 0.40625
vt 0.09375 0.4375
vt 0.03125 0.4375
vt 0.03125 0.40625
vt 0.46875 0.5625
vt 0.5 0.5625
vt 0.5 0.5
vt 0.46875 0.5
vt 0.40625 0.5625
vt 0.46875 0.5625
vt 0.46875 0.5
vt 0.40625 0.5
vt 0.03125 0.21875
vt 0.21875 0.21875
vt 0.21875 0.03125
vt 0.03125 0.03125
vt 0.21875 0.25
vt 0.03125 0.25
vt 0.03125 0.328125
vt 0.21875 0.328125
vt 0.03125 0.03125
vt 0.03125 0.21875
vt 0 0.25
vt 0 0
vt 0.03125 0.25
vt 0.21875 0.25
vt 0.21875 0.328125
vt 0.03125 0.328125
vt 0.21875 0.03125
vt 0.03125 0.03125
vt 0 0
vt 0.25 0
vt 0.140625 0.453125
vt 0.140625 0.515625
vt 0.109375 0.515625
vt 0.109375 0.453125
vt 0.46875 0.5
vt 0.46875 0.5625
vt 0.5 0.5625
vt 0.5 0.5
vt 0.21875 0.40625
vt 0.21875 0.4375
vt 0.15625 0.4375
vt 0.15625 0.40625
vt 0.46875 0.5625
vt 0.5 0.5625
vt 0.5 0.5
vt 0.46875 0.5
vt 0.21875 0.21875
vt 0.21875 0.03125
vt 0.25 0
vt 0.25 0.25
vt 0.21875 0.25
vt 0.03125 0.25
vt 0.03125 0.328125
vt 0.21875 0.328125
vt 0.21875 0.25
vt 0.03125 0.25
vt 0.03125 0.328125
vt 0.21875 0.328125
vt 0.140625 0.328125
vt 0.140625 0.390625
vt 0.109375 0.390625
vt 0.109375 0.328125
vt 0.75 0
vt 0.75 0.25
vt 1 0.25
vt 1 0
vt 0.484375 0.015625
vt 0.265625 0.015625
vt 0.25 0
vt 0.5 0
vt 0.265625 0.015625
vt 0.265625 0.234375
vt 0.25 0.25
vt 0.25 0
vt 0.265625 0.234375
vt 0.484375 0.234375
vt 0.5 0.25
vt 0.25 0.25
vt 0.703125 0.484375
vt 0.546875 0.484375
vt 0.546875 0.46875
vt 0.703125 0.46875
vt 0.5625 0.171875
vt 0.6875 0.171875
vt 0.75 0.21875
vt 0.5 0.21875
vt 0.953125 0.4375
vt 0.953125 0.28125
vt 1 0.25
vt 1 0.46875
vt 0.546875 0.484375
vt 0.703125 0.484375
vt 0.703125 0.46875
vt 0.546875 0.46875
vt 0.796875 0.59375
vt 0.796875 0.71875
vt 0.9375 0.71875
vt 0.9375 0.59375
vt 0.703125 0.484375
vt 0.546875 0.484375
vt 0.546875 0.46875
vt 0.703125 0.46875
vt 0.796875 0.59375
vt 0.796875 0.71875
vt 0.9375 0.71875
vt 0.9375 0.59375
vt 0.796875 0.28125
vt 0.796875 0.4375
vt 0.75 0.46875
vt 0.75 0.25
vt 0.5 0.46875
vt 0.5 0.25
vt 0.75 0.25
vt 0.75 0.46875
vt 0.953125 0.28125
vt 0.796875 0.28125
vt 0.75 0.25
vt 1 0.25
vt 0.703125 0.484375
vt 0.546875 0.484375
vt 0.546875 0.640625
vt 0.703125 0.640625
vt 0.75 0.46875
vt 0.75 0.25
vt 0.5 0.25
vt 0.5 0.46875
vt 0.03125 0.21875
vt 0.21875 0.21875
vt 0.25 0.25
vt 0 0.25
vt 0.40625 0.5625
vt 0.46875 0.5625
vt 0.46875 0.5
vt 0.40625 0.5
vt 0.75 0.25
vt 1 0.25
vt 1 0
vt 0.75 0
vt 0.75 0.25
vt 1 0.25
vt 1 0
vt 0.75 0
vn -1 0 0
vn 1 0 0
vn 1 0 0
vn -1 0 0
vn 1 0 0
vn 0 0 1
vn 0 1 0
vn 0 0 1
vn 0 -1 0
vn 0 0 -1
vn 1 0 0
vn 0 0 1
vn -1 0 0
vn 0 0 1
vn 0 0 1
vn 0 0 1
vn -1 0 0
vn 0 0 1
vn 0 0 1
vn 0 0 1
vn 0 -1 0
vn 0 1 0
vn 0 0 -1
vn 0 0 -1
vn 0 -1 0
vn 0 0 -1
vn 0 0 -1
vn 0 0 -1
vn 1 0 0
vn 1 0 0
vn 1 0 0
vn 0 1 0
vn 0 0 1
vn 0 0 -1
vn 1 0 0
vn 0 0 1
vn 0 0 1
vn -1 0 0
vn 0 0 -1
vn 1 0 0
vn 0 0 1
vn 0 0 -1
vn -1 0 0
vn 0 0 -1
vn 0 1 0
vn 0 0 -1
vn 0 0 -1
vn 0 -1 0
vn 0 0 -1
vn 0 1 0
vn 0 0 -1
vn 1 0 0
vn 0 -1 0
vn 0 0 -1
vn 0 -1 0
vn 0 0 1
vn 0 0 1
vn 0 0 1
vn 0 0 1
vn 1 0 0
vn 0 1 0
vn 1 0 0
vn 0 1 0
vn -1 0 0
vn 0 -1 0
vn 0 1 0
vn -1 0 0
vn 0 1 0
vn 0 1 0
vn 0 -1 0
vn 0 0 -1
vn 0 0 -1
vn 0 1 0
vn 0 1 0
usemtl m_239ef5c6-7580-b415-9c7c-6209c340fc4c
f 8/1/1 7/2/1 1/3/1 4/4/1
f 6/5/2 5/6/2 3/7/2 2/8/2
f 12/9/3 11/10/3 9/11/3 10/12/3
f 16/13/4 15/14/4 14/15/4 13/16/4
f 20/17/5 19/18/5 17/19/5 18/20/5
f 23/21/6 22/22/6 21/23/6 24/24/6
f 15/25/7 16/26/7 19/27/7 20/28/7
f 25/29/8 26/30/8 27/31/8 28/32/8
f 17/33/9 13/34/9 14/35/9 18/36/9
f 15/37/10 20/38/10 18/39/10 14/40/10
f 30/41/11 29/42/11 32/43/11 31/44/11
f 35/45/12 34/46/12 33/47/12 36/48/12
f 40/49/13 39/50/13 38/51/13 37/52/13
f 41/53/14 31/54/14 37/55/14 9/56/14
f 42/57/15 43/58/15 44/59/15 45/60/15
f 19/61/16 16/62/16 13/63/16 17/64/16
f 46/65/17 47/66/17 41/67/17 48/68/17
f 48/69/18 41/70/18 9/71/18 11/72/18
f 31/73/19 32/74/19 40/75/19 37/76/19
f 32/77/20 48/78/20 11/79/20 40/80/20
f 29/81/21 46/82/21 48/83/21 32/84/21
f 47/85/22 30/86/22 31/87/22 41/88/22
f 50/89/23 49/90/23 38/91/23 39/92/23
f 49/93/24 51/94/24 10/95/24 38/96/24
f 9/97/25 37/98/25 38/99/25 10/100/25
f 51/101/26 52/102/26 12/103/26 10/104/26
f 52/105/27 50/106/27 39/107/27 12/108/27
f 54/109/28 53/110/28 56/111/28 55/112/28
f 57/113/29 58/114/29 52/115/29 51/116/29
f 59/117/30 60/118/30 61/119/30 62/120/30
f 64/121/31 57/122/31 51/123/31 63/124/31
f 56/125/32 66/126/32 52/127/32 65/128/32
f 60/129/33 59/130/33 58/131/33 57/132/33
f 62/133/34 61/134/34 64/135/34 67/136/34
f 67/137/35 64/138/35 63/139/35 65/140/35
f 65/141/36 63/142/36 3/143/36 5/144/36
f 46/145/37 29/146/37 30/147/37 47/148/37
f 71/149/38 70/150/38 69/151/38 68/152/38
f 72/153/39 73/154/39 74/155/39 75/156/39
f 79/157/40 78/158/40 76/159/40 77/160/40
f 78/161/41 71/162/41 68/163/41 76/164/41
f 80/165/42 81/166/42 82/167/42 83/168/42
f 82/169/43 81/170/43 85/171/43 84/172/43
f 84/173/44 85/174/44 6/175/44 2/176/44
f 83/177/45 82/178/45 84/179/45 86/180/45
f 86/181/46 84/182/46 2/183/46 1/184/46
f 89/185/47 88/186/47 87/187/47 90/188/47
f 76/189/48 68/190/48 69/191/48 77/192/48
f 91/193/49 92/194/49 93/195/49 94/196/49
f 70/197/50 71/198/50 78/199/50 79/200/50
f 95/201/51 86/202/51 1/203/51 7/204/51
f 80/205/52 83/206/52 86/207/52 95/208/52
f 81/209/53 80/210/53 95/211/53 85/212/53
f 98/213/54 97/214/54 96/215/54 99/216/54
f 1/217/55 2/218/55 3/219/55 4/220/55
f 63/221/56 100/222/56 4/223/56 3/224/56
f 100/225/57 101/226/57 8/227/57 4/228/57
f 101/229/58 65/230/58 5/231/58 8/232/58
f 103/233/59 102/234/59 104/235/59 66/236/59
f 58/237/60 67/238/60 65/239/60 52/240/60
f 66/241/61 104/242/61 50/243/61 52/244/61
f 53/245/62 103/246/62 66/247/62 56/248/62
f 59/249/63 62/250/63 67/251/63 58/252/63
f 102/253/64 54/254/64 55/255/64 104/256/64
f 61/257/65 60/258/65 57/259/65 64/260/65
f 55/261/66 56/262/66 65/263/66 101/264/66
f 101/265/67 100/266/67 49/267/67 50/268/67
f 104/269/68 55/270/68 101/271/68 50/272/68
f 53/273/69 54/274/69 102/275/69 103/276/69
f 100/277/70 63/278/70 51/279/70 49/280/70
f 85/281/71 95/282/71 7/283/71 6/284/71
f 70/285/72 79/286/72 77/287/72 69/288/72
f 5/289/73 6/290/73 7/291/73 8/292/73
f 39/293/74 40/294/74 11/295/74 12/296/74