# Made in Blockbench 5.0.7
mtllib advanced_coke_oven_baseheater.mtl

o cube_fan
v 0.1875 0.28125 1.7578125
v 0.21875 0.25 1.71484375
v 0.28125 0.1875 1.8046875
v 0.25 0.21875 1.84765625
v 0.41015625 0.50390625 1.7578125
v 0.44140625 0.47265625 1.71484375
v 0.50390625 0.41015625 1.8046875
v 0.47265625 0.44140625 1.84765625
v 0.75 0.21875 1.71484375
v 0.8125 0.28125 1.8046875
v 0.52734375 0.44140625 1.71484375
v 0.58984375 0.50390625 1.8046875
v 0.71875 0.1875 1.7578125
v 0.78125 0.25 1.84765625
v 0.49609375 0.41015625 1.7578125
v 0.55859375 0.47265625 1.84765625
v 0.5 0.41015625 1.875
v 0.58984375 0.5 1.875
v 0.5 0.41015625 1.6875
v 0.58984375 0.5 1.6875
v 0.5 0.58984375 1.875
v 0.5 0.58984375 1.6875
v 0.41015625 0.5 1.875
v 0.41015625 0.5 1.6875
v 0.1875 0.71875 1.8046875
v 0.21875 0.75 1.84765625
v 0.44140625 0.52734375 1.84765625
v 0.41015625 0.49609375 1.8046875
v 0.28125 0.8125 1.7578125
v 0.25 0.78125 1.71484375
v 0.47265625 0.55859375 1.71484375
v 0.8125 0.71875 1.7578125
v 0.78125 0.75 1.71484375
v 0.71875 0.8125 1.8046875
v 0.75 0.78125 1.84765625
v 0.58984375 0.49609375 1.7578125
v 0.55859375 0.52734375 1.71484375
v 0.49609375 0.58984375 1.8046875
v 0.52734375 0.55859375 1.84765625
v 0.50390625 0.58984375 1.7578125
v 0.5 0.41015625 -0.875
v 0.58984375 0.5 -0.875
v 0.5 0.41015625 -0.6875
v 0.58984375 0.5 -0.6875
v 0.8125 0.28125 -0.7578125
v 0.78125 0.25 -0.71484375
v 0.71875 0.1875 -0.8046875
v 0.75 0.21875 -0.84765625
v 0.58984375 0.50390625 -0.7578125
v 0.55859375 0.47265625 -0.71484375
v 0.52734375 0.44140625 -0.84765625
v 0.49609375 0.41015625 -0.8046875
v 0.28125 0.1875 -0.7578125
v 0.25 0.21875 -0.71484375
v 0.1875 0.28125 -0.8046875
v 0.21875 0.25 -0.84765625
v 0.1875 0.71875 -0.7578125
v 0.21875 0.75 -0.71484375
v 0.28125 0.8125 -0.8046875
v 0.25 0.78125 -0.84765625
v 0.71875 0.8125 -0.7578125
v 0.75 0.78125 -0.71484375
v 0.8125 0.71875 -0.8046875
v 0.78125 0.75 -0.84765625
v 0.5 0.58984375 -0.875
v 0.5 0.58984375 -0.6875
v 0.49609375 0.58984375 -0.7578125
v 0.52734375 0.55859375 -0.71484375
v 0.58984375 0.49609375 -0.8046875
v 0.41015625 0.5 -0.875
v 0.41015625 0.5 -0.6875
v 0.50390625 0.41015625 -0.7578125
v 0.47265625 0.44140625 -0.71484375
v 0.41015625 0.50390625 -0.8046875
v 0.44140625 0.47265625 -0.84765625
v 0.44140625 0.52734375 -0.71484375
v 0.50390625 0.58984375 -0.8046875
v 0.41015625 0.49609375 -0.7578125
v 0.55859375 0.52734375 -0.84765625
v 0.47265625 0.55859375 -0.84765625
vt 0.21875 0.390625
vt 0.21875 0.40625
vt 0.25 0.40625
vt 0.25 0.390625
vt 0.21875 0.40625
vt 0.234375 0.40625
vt 0.234375 0.328125
vt 0.21875 0.328125
vt 0.21875 0.40625
vt 0.25 0.40625
vt 0.25 0.328125
vt 0.21875 0.328125
vt 0.25 0.328125
vt 0.21875 0.328125
vt 0.21875 0.40625
vt 0.25 0.40625
vt 0.234375 0.40625
vt 0.25 0.40625
vt 0.25 0.328125
vt 0.234375 0.328125
vt 0.21875 0.40625
vt 0.25 0.40625
vt 0.25 0.328125
vt 0.21875 0.328125
vt 0.25 0.328125
vt 0.21875 0.328125
vt 0.21875 0.40625
vt 0.25 0.40625
vt 0.21875 0.40625
vt 0.21875 0.390625
vt 0.25 0.390625
vt 0.25 0.40625
vt 0.21875 0.40625
vt 0.234375 0.40625
vt 0.234375 0.328125
vt 0.21875 0.328125
vt 0.21875 0.296875
vt 0.21875 0.25
vt 0.25 0.25
vt 0.25 0.296875
vt 0.21875 0.296875
vt 0.21875 0.25
vt 0.25 0.25
vt 0.25 0.296875
vt 0.21875 0.296875
vt 0.21875 0.25
vt 0.25 0.25
vt 0.25 0.296875
vt 0.25 0.328125
vt 0.234375 0.328125
vt 0.234375 0.40625
vt 0.25 0.40625
vt 0.21875 0.390625
vt 0.21875 0.40625
vt 0.25 0.40625
vt 0.25 0.390625
vt 0.21875 0.40625
vt 0.25 0.40625
vt 0.25 0.328125
vt 0.21875 0.328125
vt 0.21875 0.390625
vt 0.21875 0.40625
vt 0.25 0.40625
vt 0.25 0.390625
vt 0.21875 0.328125
vt 0.234375 0.328125
vt 0.234375 0.40625
vt 0.21875 0.40625
vt 0.21875 0.40625
vt 0.25 0.40625
vt 0.25 0.328125
vt 0.21875 0.328125
vt 0.234375 0.40625
vt 0.25 0.40625
vt 0.25 0.328125
vt 0.234375 0.328125
vt 0.25 0.328125
vt 0.234375 0.328125
vt 0.234375 0.40625
vt 0.25 0.40625
vt 0.25 0.328125
vt 0.21875 0.328125
vt 0.21875 0.40625
vt 0.25 0.40625
vt 0.21875 0.328125
vt 0.21875 0.296875
vt 0.25 0.296875
vt 0.25 0.328125
vt 0.25 0.328125
vt 0.21875 0.328125
vt 0.21875 0.40625
vt 0.25 0.40625
vt 0.21875 0.328125
vt 0.234375 0.328125
vt 0.234375 0.40625
vt 0.21875 0.40625
vt 0.21875 0.296875
vt 0.21875 0.25
vt 0.25 0.25
vt 0.25 0.296875
vt 0.21875 0.296875
vt 0.21875 0.25
vt 0.25 0.25
vt 0.25 0.296875
vt 0.21875 0.390625
vt 0.21875 0.40625
vt 0.25 0.40625
vt 0.25 0.390625
vt 0.21875 0.40625
vt 0.234375 0.40625
vt 0.234375 0.328125
vt 0.21875 0.328125
vt 0.234375 0.40625
vt 0.25 0.40625
vt 0.25 0.328125
vt 0.234375 0.328125
vt 0.21875 0.40625
vt 0.25 0.40625
vt 0.25 0.328125
vt 0.21875 0.328125
vt 0.25 0.328125
vt 0.21875 0.328125
vt 0.21875 0.40625
vt 0.25 0.40625
vt 0.21875 0.40625
vt 0.21875 0.390625
vt 0.25 0.390625
vt 0.25 0.40625
vt 0.21875 0.390625
vt 0.21875 0.40625
vt 0.25 0.40625
vt 0.25 0.390625
vt 0.21875 0.390625
vt 0.21875 0.40625
vt 0.25 0.40625
vt 0.25 0.390625
vt 0.21875 0.296875
vt 0.21875 0.25
vt 0.25 0.25
vt 0.25 0.296875
vt 0.21875 0.328125
vt 0.234375 0.328125
vt 0.234375 0.40625
vt 0.21875 0.40625
vt 0.21875 0.40625
vt 0.25 0.40625
vt 0.25 0.328125
vt 0.21875 0.328125
vt 0.21875 0.296875
vt 0.21875 0.25
vt 0.25 0.25
vt 0.25 0.296875
vt 0.21875 0.40625
vt 0.234375 0.40625
vt 0.234375 0.328125
vt 0.21875 0.328125
vt 0.21875 0.40625
vt 0.25 0.40625
vt 0.25 0.328125
vt 0.21875 0.328125
vt 0.25 0.328125
vt 0.21875 0.328125
vt 0.21875 0.40625
vt 0.25 0.40625
vt 0.21875 0.40625
vt 0.25 0.40625
vt 0.25 0.328125
vt 0.21875 0.328125
vt 0.21875 0.296875
vt 0.21875 0.25
vt 0.25 0.25
vt 0.25 0.296875
vt 0.234375 0.40625
vt 0.25 0.40625
vt 0.25 0.328125
vt 0.234375 0.328125
vt 0.21875 0.328125
vt 0.21875 0.296875
vt 0.25 0.296875
vt 0.25 0.328125
vt 0.21875 0.328125
vt 0.234375 0.328125
vt 0.234375 0.40625
vt 0.21875 0.40625
vt 0.25 0.328125
vt 0.21875 0.328125
vt 0.21875 0.40625
vt 0.25 0.40625
vt 0.25 0.328125
vt 0.234375 0.328125
vt 0.234375 0.40625
vt 0.25 0.40625
vt 0.25 0.328125
vt 0.21875 0.328125
vt 0.21875 0.40625
vt 0.25 0.40625
vt 0.25 0.328125
vt 0.234375 0.328125
vt 0.234375 0.40625
vt 0.25 0.40625
vn -0.7071067811865476 -0.7071067811865476 0
vn -0.49292178644304296 0.49292178644304296 -0.7169771439171534
vn 0.5040660798667554 -0.5040660798667554 -0.7013093285102684
vn -0.5040660798667554 0.5040660798667554 0.7013093285102684
vn 0.49292178644304296 -0.49292178644304296 0.7169771439171534
vn 0.5040660798667554 0.5040660798667554 -0.7013093285102684
vn -0.5040660798667554 -0.5040660798667554 0.7013093285102684
vn 0.7071067811865476 -0.7071067811865476 0
vn -0.49292178644304296 -0.49292178644304296 -0.7169771439171534
vn 0.7071067811865476 -0.7071067811865476 0
vn 0.7071067811865476 0.7071067811865476 0
vn -0.7071067811865476 0.7071067811865476 0
vn -0.49292178644304296 -0.49292178644304296 0.7169771439171534
vn -0.7071067811865476 0.7071067811865476 0
vn -0.5040660798667554 -0.5040660798667554 -0.7013093285102684
vn 0.7071067811865476 0.7071067811865476 0
vn 0.49292178644304296 -0.49292178644304296 -0.7169771439171534
vn -0.5040660798667554 0.5040660798667554 -0.7013093285102684
vn 0.49292178644304296 0.49292178644304296 0.7169771439171534
vn -0.49292178644304296 0.49292178644304296 0.7169771439171534
vn 0.5040660798667554 0.5040660798667554 0.7013093285102684
vn 0 0 1
vn 0.5040660798667554 -0.5040660798667554 0.7013093285102684
vn 0.49292178644304296 0.49292178644304296 -0.7169771439171534
vn -0.7071067811865476 -0.7071067811865476 0
vn 0.7071067811865476 -0.7071067811865476 0
vn 0.7071067811865476 -0.7071067811865476 0
vn 0.49292178644304296 0.49292178644304296 0.7169771439171534
vn -0.49292178644304296 -0.49292178644304296 -0.7169771439171534
vn -0.5040660798667554 -0.5040660798667554 0.7013093285102684
vn 0.5040660798667554 0.5040660798667554 -0.7013093285102684
vn -0.7071067811865476 -0.7071067811865476 0
vn -0.7071067811865476 0.7071067811865476 0
vn 0.7071067811865476 0.7071067811865476 0
vn 0.7071067811865476 0.7071067811865476 0
vn -0.49292178644304296 0.49292178644304296 0.7169771439171534
vn 0.5040660798667554 -0.5040660798667554 0.7013093285102684
vn -0.7071067811865476 -0.7071067811865476 0
vn 0.49292178644304296 -0.49292178644304296 0.7169771439171534
vn -0.5040660798667554 0.5040660798667554 0.7013093285102684
vn 0.5040660798667554 -0.5040660798667554 -0.7013093285102684
vn 0.5040660798667554 0.5040660798667554 0.7013093285102684
vn -0.7071067811865476 0.7071067811865476 0
vn -0.49292178644304296 0.49292178644304296 -0.7169771439171534
vn 0 0 -1
vn -0.49292178644304296 -0.49292178644304296 0.7169771439171534
vn -0.5040660798667554 0.5040660798667554 -0.7013093285102684
vn 0.49292178644304296 -0.49292178644304296 -0.7169771439171534
vn -0.5040660798667554 -0.5040660798667554 -0.7013093285102684
vn 0.49292178644304296 0.49292178644304296 -0.7169771439171534
usemtl m_ebf577a6-96da-35f8-2103-5b431c24494c
f 1/1/1 2/2/1 3/3/1 4/4/1
f 5/5/2 6/6/2 2/7/2 1/8/2
f 6/9/3 7/10/3 3/11/3 2/12/3
f 8/13/4 5/14/4 1/15/4 4/16/4
f 7/17/5 8/18/5 4/19/5 3/20/5
f 11/21/6 12/22/6 10/23/6 9/24/6
f 16/25/7 15/26/7 13/27/7 14/28/7
f 13/29/8 9/30/8 10/31/8 14/32/8
f 15/33/9 11/34/9 9/35/9 13/36/9
f 17/37/10 19/38/10 20/39/10 18/40/10
f 18/41/11 20/42/11 22/43/11 21/44/11
f 21/45/12 22/46/12 24/47/12 23/48/12
f 28/49/13 27/50/13 26/51/13 25/52/13
f 29/53/14 30/54/14 25/55/14 26/56/14
f 31/57/15 28/58/15 25/59/15 30/60/15
f 32/61/16 33/62/16 34/63/16 35/64/16
f 36/65/17 37/66/17 33/67/17 32/68/17
f 37/69/18 38/70/18 34/71/18 33/72/18
f 12/73/19 16/74/19 14/75/19 10/76/19
f 38/77/20 39/78/20 35/79/20 34/80/20
f 27/81/21 40/82/21 29/83/21 26/84/21
f 21/85/22 23/86/22 17/87/22 18/88/22
f 39/89/23 36/90/23 32/91/23 35/92/23
f 40/93/24 31/94/24 30/95/24 29/96/24
f 23/97/25 24/98/25 19/99/25 17/100/25
f 42/101/26 44/102/26 43/103/26 41/104/26
f 45/105/27 46/106/27 47/107/27 48/108/27
f 49/109/28 50/110/28 46/111/28 45/112/28
f 52/113/29 51/114/29 48/115/29 47/116/29
f 50/117/30 52/118/30 47/119/30 46/120/30
f 51/121/31 49/122/31 45/123/31 48/124/31
f 53/125/32 54/126/32 55/127/32 56/128/32
f 57/129/33 58/130/33 59/131/33 60/132/33
f 61/133/34 62/134/34 63/135/34 64/136/34
f 65/137/35 66/138/35 44/139/35 42/140/35
f 67/141/36 68/142/36 62/143/36 61/144/36
f 68/145/37 69/146/37 63/147/37 62/148/37
f 41/149/38 43/150/38 71/151/38 70/152/38
f 72/153/39 73/154/39 54/155/39 53/156/39
f 73/157/40 74/158/40 55/159/40 54/160/40
f 75/161/41 72/162/41 53/163/41 56/164/41
f 76/165/42 77/166/42 59/167/42 58/168/42
f 70/169/43 71/170/43 66/171/43 65/172/43
f 74/173/44 75/174/44 56/175/44 55/176/44
f 65/177/45 42/178/45 41/179/45 70/180/45
f 78/181/46 76/182/46 58/183/46 57/184/46
f 79/185/47 67/186/47 61/187/47 64/188/47
f 69/189/48 79/190/48 64/191/48 63/192/48
f 80/193/49 78/194/49 57/195/49 60/196/49
f 77/197/50 80/198/50 60/199/50 59/200/50