# Made in Blockbench 5.1.4
mtllib gas_turbine.mtl

o cube
v 1.75 0.25 0.875
v 1.5 0 0
v 0.125 1.25 0
v -0.5 0.75 1
v -0.5 0.75 0
v 0.125 1.25 1
v 0.125 0.75 1
v 0.125 0.75 0
v 1.875 0.875 1
v 1.875 0.125 0.875
v 1.875 0.125 1
v 1.875 0.875 0.875
v 1.125 0.125 0.875
v 1.125 0.875 1
v 1.125 0.125 1
v 1.125 0.875 0.875
v 0.80078125 1.25 -2.25
v 1.30078125 0.8515625 -4.75
v 1.30078125 0.8515625 -2.25
v 1.5 0.25 -2.25
v 1.30078125 0.8515625 -4.75
v 1.5 0.25 -4.75
v -0.5 1 1
v -0.5 0 0
v -0.5 0 1
v -0.5 1 0
v -1 0 0
v -1 1 0
v -1 0 1
v -1 1 1
v 0.875 1.25 1
v 1.34375 0.875 1
v 1.125 0.875 1
v 0.875 1.25 0
v 1.5 0.75 0
v 1.34375 0.875 0.875
v 0.875 1.5 -4.75
v 1.5 1 -5.75
v 1.5 1 -4.75
v 0.875 1.5 -5.75
v 0.875 1 -5.75
v 0.875 1 -4.75
v 1.5 1 -4.75
v 1.75 0.25 -5.75
v 1.75 0.25 -4.75
v 1.5 1 -5.75
v 1.5 0.25 -5.75
v 1.5 0.25 -4.75
v 0.125 0.75 0
v -0.5 0 0
v 0.125 0 0
v -0.5 0.75 1
v 0.125 0 1
v -0.5 0 1
v 1.75 0.75 0.875
v 1.75 0.25 -0.25
v 1.5 0.25 0
v 1.5 0.75 0.875
v 1.5 0.75 0
v 1.70703125 0.125 0.875
v 1.66796875 0.25 0
v 1.75 0 0
v 1.5 0 0
v 1.5 0 1
v 1.70703125 0.125 1
v 1.75 0 1
v 1.5 0.25 -2.25
v 1.5 0 -4.75
v 1.5 0 -2.25
v -0.5 0.25 -4.75
v -0.5 0 -2.25
v -0.5 0 -4.75
v 1.75 0.25 -4.75
v 1.75 0 -5.75
v 1.75 0 -4.75
v 1.75 0.25 -5.75
v -0.75 0 -5.75
v -0.75 0.25 -5.75
v -0.75 0 -4.75
v -0.75 0.25 -4.75
v 1.5 0 0
v 1.5 -1 -1
v 1.5 -1 0
v -0.5 0 -1
v -0.5 -1 0
v -0.5 -1 -1
v 1.5 0 -1
v -0.5 0 0
v 1.75 0 1
v 1.75 -1 0
v 1.75 -1 1
v 1.75 0 0
v -0.75 -1 0
v -0.75 0 0
v -0.75 -1 1
v 1.75 0 -2.5
v 1.75 -1 -4.5
v 1.75 -1 -2.5
v -0.75 0 -4.5
v -0.75 -1 -2.5
v -0.75 -1 -4.5
v 1.75 0 -4.5
v -0.75 0 -2.5
v 2 0 -4.5
v 2 -1 -6
v 2 -1 -4.5
v 2 0 -6
v -1 -1 -6
v -1 0 -6
v -1 -1 -4.5
v -1 0 -4.5
v 0.875 0 1
v 1.125 0.125 1
v 1.5 0 1
v -0.30078125 0.8515625 -4.75
v -0.5 0.25 -2.25
v -0.5 0.25 -4.75
v -0.5 1 -5.75
v 0.125 1.5 -4.75
v -0.5 1 -4.75
v 0.125 1 -4.75
v 0.125 1 -5.75
v 0.125 1.5 -5.75
v 0.875 1.25 0
v 0.125 0 0
v 0.875 0 0
v 0.125 1.25 1
v 0.875 0 1
v 0.125 0 1
v 0.875 1.25 0
v 0.125 1.25 1
v 0.125 1.25 0
v 0.875 1.5 -2.25
v 0.125 0.25 -2.25
v 0.875 0.25 -2.25
v 0.125 1.5 -1.25
v 0.875 0.25 -1.25
v 0.125 0.25 -1.25
v 0.125 1.5 -2.25
v 1.5 1 -5.75
v 0.875 0.25 -5.75
v 1.5 0.25 -5.75
v 0.875 1 -4.75
v 1.5 0.25 -4.75
v 0.875 0.25 -4.75
v 0.875 1.5 -5.75
v 0.125 0.25 -5.75
v 0.875 0.25 -5.75
v 0.125 1.5 -4.75
v 0.875 0.25 -4.75
v 0.125 0.25 -4.75
v 0.125 1.5 -5.75
v 2 0 -1
v 2 -1 -2.5
v 2 -1 -1
v 2 0 -2.5
v -1 -1 -2.5
v -1 0 -1
v -1 -1 -1
v -1 -1 -2
v -1 0 -2
v 1 1 -5.75
v 1 0 -6
v 1 0 -5.75
v 1 1 -6
v 0 0 -6
v 0 1 -6
v 0 0 -5.75
v 0 1 -5.75
v -0.75 -0.5 0
v -1 -1 0
v -0.75 -1 0
v -1 -0.5 0
v -1 -1 1
v -1 -0.5 1
v -0.75 -1 1
v 0 0.75 -1.25
v -0.25 0.25 0
v -0.25 0.25 -1.25
v 0.625 1 -1.25
v 0.375 1 0
v 0.375 1 -1.25
v 0.375 1 -1.25
v 0 0.75 0
v 0 0.75 -1.25
v 0.80078125 1.25 -4.75
v 0.19921875 1.25 -2.25
v 0.19921875 1.25 -4.75
v -0.75 0 0.125
v -1 -0.5 0.125
v -0.75 -0.5 0.125
v -1 0 0.125
v -1 -0.5 0.375
v -1 0 0.375
v -0.75 -0.5 0.375
v -0.75 0 0.625
v -1 -0.5 0.625
v -0.75 -0.5 0.625
v -1 0 0.625
v -1 -0.5 0.875
v -1 0 0.875
v -0.75 -0.5 0.875
v 0.125 1.5 -2.25
v -0.5 1 -1.25
v -0.5 1 -2.25
v 0.125 1.5 -1.25
v 0.125 1 -1.25
v 0.125 1 -2.25
v 0.125 1 -2.25
v -0.5 0.25 -2.25
v 0.125 0.25 -2.25
v -0.5 1 -1.25
v 0.125 0.25 -1.25
v -0.5 0.25 -1.25
v 1.75 0.25 -1.25
v 1.75 0 -2.25
v 1.75 0 -1.25
v 1.75 0.25 -2.25
v -0.75 0 -2.25
v -0.75 0.25 -2.25
v -0.75 0 -1.25
v -0.75 0.25 -1.25
v -0.5 1 -5.75
v -0.75 0.25 -4.75
v -0.75 0.25 -5.75
v -0.5 1 -4.75
v -0.5 0.25 -4.75
v -0.5 0.25 -5.75
v 0.19921875 1.25 -4.75
v -0.30078125 0.8515625 -2.25
v -0.30078125 0.8515625 -4.75
v -0.5 1 -2.25
v -0.75 0.25 -1.25
v -0.75 0.25 -2.25
v -0.5 1 -1.25
v -0.5 0.25 -1.25
v -0.5 0.25 -2.25
v 0.125 1 -5.75
v -0.5 0.25 -5.75
v 0.125 0.25 -5.75
v -0.5 1 -4.75
v 0.125 0.25 -4.75
v -0.5 0.25 -4.75
v 0.75 1.19140625 -0.78515625
v 0.75 1.25 -1.68359375
v 0.75 0.81640625 -1.43359375
v 0.25 1.25 -1.68359375
v 0.25 1.19140625 -0.78515625
v 0.25 0.81640625 -1.43359375
v 0.75 1.625 -1.03515625
v 0.25 1.625 -1.03515625
v -0.30859375 0.78125 -1.68359375
v -0.25390625 0.76171875 -0.78515625
v -0.66015625 0.90234375 -1.03515625
v -0.46875 0.30859375 -1.68359375
v -0.4140625 0.2890625 -0.78515625
v -0.0625 0.16796875 -1.43359375
v -0.82421875 0.4296875 -1.03515625
v 0.1015625 0.640625 -1.43359375
v 0.8359375 1.20703125 -1.68359375
v 0.80078125 1.16015625 -0.78515625
v 1.4609375 1.1953125 -1.03515625
v 1.06640625 1.50390625 -1.03515625
v -0.1953125 0.8515625 -0.78515625
v -0.23046875 0.8984375 -1.68359375
v -0.4609375 1.1953125 -1.03515625
v 0.19921875 1.16015625 -0.78515625
v 0.1640625 1.20703125 -1.68359375
v 0.4296875 0.8671875 -1.43359375
v -0.06640625 1.50390625 -1.03515625
v 0.03515625 0.55859375 -1.43359375
v -0.25 0.25 -1.25
v -0.25 0 0
v -0.25 0 -1.25
v -1 0 -2.5
v -0.75 0 1
v 1.75 -1 1
v -0.75 -1 1
v 0.80078125 1.25 -4.75
v 1.30078125 0.8515625 -2.25
v 1.125 0.75 1
v 0.875 0.75 1
v 1.5 0.75 0.875
v -0.5 0.75 0
v 0.125 0.75 1
v 1.75 0.75 -0.25
v 1.5 0.25 0.875
v 1.66796875 0.25 0.875
v 1.5 0.125 1
v 1.5 0.25 -4.75
v -0.5 0.25 -2.25
v -0.75 0 1
v 0.875 0.75 1
v 1.125 0.75 1
v 1.5 0.125 1
v -0.30078125 0.8515625 -2.25
v 0.125 1.25 0
v 0.875 1.25 1
v 0.875 1.25 1
v 0.875 1.5 -1.25
v 0.875 1 -5.75
v 1.5 1 -4.75
v 0.875 1.5 -4.75
v -0.75 -0.5 1
v 0 0.75 0
v 0.625 1 0
v 0.375 1 0
v 0.80078125 1.25 -2.25
v -0.75 0 0.375
v -0.75 0 0.875
v -0.5 1 -2.25
v 0.125 1 -1.25
v 0.19921875 1.25 -2.25
v -0.5 1 -5.75
v 0.125 1 -4.75
v -0.25 0.25 0
v 1.75 0 1
v 0.875 0.75 0
v 0.875 1.25 0
v 1.5 0.75 0
v 0.875 0.75 0
v 0.875 0 0
v 1 0.75 -1.25
v 1.25 0.25 0
v 1.25 0.25 -1.25
v 0.625 1 -1.25
v 1 0.75 0
v 1 0.75 -1.25
v 0.875 1.5 -2.25
v 1.5 1 -1.25
v 1.5 1 -2.25
v 0.875 1.5 -1.25
v 0.875 1 -1.25
v 0.875 1 -2.25
v 0.875 1 -2.25
v 1.5 0.25 -2.25
v 0.875 0.25 -2.25
v 1.5 1 -1.25
v 0.875 0.25 -1.25
v 1.5 0.25 -1.25
v 1.75 0.25 -2.25
v 1.75 0 -1.25
v 1.75 0 -2.25
v 1.5 1 -2.25
v 1.75 0.25 -1.25
v 1.75 0.25 -2.25
v 1.5 1 -1.25
v 1.5 0.25 -1.25
v 1.5 0.25 -2.25
v 0.75 1.25 -1.68359375
v 0.75 1.19140625 -0.78515625
v 0.75 0.81640625 -1.43359375
v 1.30859375 0.78125 -1.68359375
v 1.25390625 0.76171875 -0.78515625
v 1.66015625 0.90234375 -1.03515625
v 1.46875 0.30859375 -1.68359375
v 1.4140625 0.2890625 -0.78515625
v 1.0625 0.16796875 -1.43359375
v 1.82421875 0.4296875 -1.03515625
v 0.8984375 0.640625 -1.43359375
v 1.1953125 0.8515625 -0.78515625
v 1.23046875 0.8984375 -1.68359375
v 1.4609375 1.1953125 -1.03515625
v 0.80078125 1.16015625 -0.78515625
v 0.8359375 1.20703125 -1.68359375
v 0.5703125 0.8671875 -1.43359375
v 0.96484375 0.55859375 -1.43359375
v 1.25 0.25 -1.25
v 1.25 0 0
v 1.25 0 -1.25
v 1.5 0.75 0
v 1 0.75 0
v 0.625 1 0
v 1.5 1 -2.25
v 0.875 1 -1.25
v 1.75 0.25 -1.25
v 1.25 0.25 0
v 1.66796875 0.25 0
v 1.5 0.25 0
v 1.5 0 0
v 1.75 0 0
v 1.25 0.25 -0.25
v 1.25 0.25 0
v 1.5 0.25 0
v 1.75 0.25 -0.25
v 1.75 0.25 -0.75
v 1 0.25 -0.25
v 1.75 0.25 -0.25
v 1 0.25 -0.75
v 1.75 0.75 -0.75
v 1.75 0.75 -0.25
v 1 0.75 -0.75
v 1 0.75 -0.25
v 1.25 0.75 -0.25
v 1.25 0.75 0
v 1.5 0.75 0
v 1.75 0.75 -0.25
vt 0.28125 0.125
vt 0.28125 0.03125
vt 0.203125 0.125
vt 0.78125 0.375
vt 0.875 0.25
vt 0.78125 0.25
vt 0.203125 0.1875
vt 0.28125 0.125
vt 0.203125 0.125
vt 0.203125 0.1875
vt 0.203125 0.125
vt 0.28125 0.125
vt 0.953125 0.59375
vt 0.859375 0.609375
vt 0.953125 0.609375
vt 0.859375 0.609375
vt 0.953125 0.703125
vt 0.953125 0.609375
vt 0.859375 0.90625
vt 0.953125 1
vt 0.953125 0.90625
vt 0.859375 0.609375
vt 0.953125 0.59375
vt 0.859375 0.59375
vt 0.859375 0.609375
vt 0.953125 0.59375
vt 0.859375 0.59375
vt 0.40625 0.1875
vt 0.71875 0.265625
vt 0.71875 0.1875
vt 0.40625 0.19531312499999998
vt 0.71875 0.125
vt 0.40625 0.125
vt 0.28125 0.5
vt 0.40625 0.375
vt 0.28125 0.375
vt 0.609375 0.625
vt 0.734375 0.6875
vt 0.609375 0.6875
vt 0.734375 0.5
vt 0.859375 0.625
vt 0.859375 0.5
vt 0.609375 0.6875
vt 0.734375 0.625
vt 0.609375 0.625
vt 0.734375 0.6875
vt 0.609375 0.625
vt 0.734375 0.625
vt 0.734375 0.625
vt 0.609375 0.6875
vt 0.609375 0.625
vt 0.050975 0.140625
vt 0.109375 0.1875
vt 0.07858875 0.140625
vt 0.875 0.125
vt 0.78125 0.125
vt 0.851561875 0.234375
vt 0.28125 0.328125
vt 0.15625 0.421875
vt 0.15625 0.328125
vt 0.109375 0.1875
vt 0.03125 0.125
vt 0.109375 0.125
vt 0.109375 0.1875
vt 0.109375 0.125
vt 0.03125 0.125
vt 0.28125 0.22656187500000002
vt 0.15625 0.328125
vt 0.15625 0.22656187500000002
vt 0.03125 0.125
vt 0 0.03125
vt 0.03125 0.03125
vt 0.03125 0.125
vt 0.03125 0.03125
vt 0 0.03125
vt 0.28125 0.03125
vt 0.203125 0.125
vt 0.203125 0.03125
vt 0.203125 0.03125
vt 0.28125 0.125
vt 0.28125 0.03125
vt 0.859375 0.859375
vt 0.921875 0.703125
vt 0.859375 0.703125
vt 0.890625 0.83072875
vt 0.859375 0.859375
vt 0.859375 0.71875
vt 0.890625 0.71875
vt 0.859375 0.71875
vt 0.890625 0.828125
vt 0 0.03125
vt 0.109375 0.015625
vt 0 0
vt 0.004953125 0.046875
vt 0.03125 0.03125
vt 0 0.03125
vt 0 0
vt 0 0
vt 0 0
vt 0.40625 0.265625
vt 0.71875 0.296875
vt 0.71875 0.265625
vt 0.71875 0.265625
vt 0.40625 0.296875
vt 0.40625 0.265625
vt 0.28125 0.1875
vt 0.15625 0.21875
vt 0.15625 0.1875
vt 0 0
vt 0.3125 0.03125
vt 0.3125 0
vt 0.15625 0.1875
vt 0.28125 0.21875
vt 0.28125 0.1875
vt 0.3125 0
vt 0 0.03125
vt 0 0
vt 0.125 0.5
vt 0.25 0.625
vt 0.25 0.5
vt 0.125 0.5
vt 0.25 0.625
vt 0.25 0.5
vt 0.734375 0.9375
vt 0.609375 0.6875
vt 0.609375 0.9375
vt 0.734375 0.9375
vt 0.609375 0.6875
vt 0.609375 0.9375
vt 0.125 0.5
vt 0.25 0.625
vt 0.25 0.5
vt 0.421875 0.5
vt 0.734375 0.625
vt 0.734375 0.5
vt 0.25 0.625
vt 0.125 0.5625
vt 0.125 0.625
vt 0.859375 0.96875
vt 0.734375 0.65625
vt 0.734375 0.96875
vt 0.4375 0.5
vt 0.6875 0.625
vt 0.6875 0.5
vt 0.4375 0.5
vt 0.6875 0.625
vt 0.6875 0.5
vt 0.421875 0.65625
vt 0.1875 0.96875
vt 0.421875 0.96875
vt 0.421875 0.96875
vt 0.1875 0.65625
vt 0.1875 0.96875
vt 0.3125 0.5
vt 0.5 0.625
vt 0.5 0.5
vt 0.5 0
vt 0.875 0.125
vt 0.875 0
vt 0.3125 0.5
vt 0.5 0.625
vt 0.5 0.5
vt 0.359375 0.5
vt 0.734375 0.625
vt 0.734375 0.5
vt 0.1875 0.625
vt 0 1
vt 0.1875 1
vt 0.1875 1
vt 0 0.625
vt 0 1
vt 0.07858875 0.046875
vt 0.109375 0.03125
vt 0.03125 0.03125
vt 0.71875 0.296875
vt 0.40625 0.367188125
vt 0.40625 0.296875
vt 0.15625 0.421875
vt 0.28125 0.328125
vt 0.15625 0.328125
vt 0.109375 0.1875
vt 0.03125 0.125
vt 0.109375 0.125
vt 0.109375 0.1875
vt 0.109375 0.125
vt 0.03125 0.125
vt 0.203125 0.03125
vt 0.109375 0.1875
vt 0.109375 0.03125
vt 0.90625 0.3125
vt 1 0.46875
vt 1 0.3125
vt 0.875 0.375
vt 0.78125 0.25
vt 0.875 0.25
vt 0.203125 0.03125
vt 0.109375 0.1875
vt 0.109375 0.03125
vt 0.109375 0.03125
vt 0.203125 0.1875
vt 0.203125 0.03125
vt 0.40625 0.28125
vt 0.28125 0.375
vt 0.28125 0.28125
vt 0.109375 0.125
vt 0.03125 0.03125
vt 0.03125 0.125
vt 0.03125 0.125
vt 0.109375 0.03125
vt 0.109375 0.125
vt 0.109375 0.03125
vt 0.203125 0.1875
vt 0.203125 0.03125
vt 0.203125 0.03125
vt 0.109375 0.1875
vt 0.109375 0.03125
vt 0.28125 0.28125
vt 0.40625 0.375
vt 0.40625 0.28125
vt 0.5 0
vt 0.3125 0.125
vt 0.3125 0
vt 0.359375 0.5
vt 0.734375 0.625
vt 0.734375 0.5
vt 0 0.500065
vt 0.375 0.625
vt 0.375 0.500065
vt 0.609375 0.625
vt 0.484375 0.625
vt 0.609375 1
vt 0.609375 1
vt 0.609375 0.625
vt 0.484375 1
vt 0.15625 0.5
vt 0.28125 0.46875
vt 0.15625 0.46875
vt 0.28125 0.375
vt 0.40625 0.5
vt 0.40625 0.375
vt 0.15625 0.46875
vt 0.28125 0.5
vt 0.15625 0.5
vt 0 0
vt 0 0
vt 0 0
vt 0 0
vt 0 0
vt 0 0
vt 0.15625 0.46875
vt 0.28125 0.5
vt 0.15625 0.5
vt 0.71875 0.4375
vt 0.6875 0.5
vt 0.6875 0.4375
vt 0.859375 0.4375
vt 0.734375 0.5
vt 0.734375 0.4375
vt 0.71875 0.4375
vt 0.6875 0.5
vt 0.6875 0.4375
vt 0.859375 0.65625
vt 0.734375 0.625
vt 0.734375 0.65625
vt 0.28125 0.5
vt 0.15625 0.46875
vt 0.15625 0.5
vt 0 0.19531187500000002
vt 0.15625 0.265625
vt 0.15625 0.19531187500000002
vt 0.15625 0.21875
vt 0 0.1875
vt 0 0.21875
vt 0.15625 0.24218687500000002
vt 0 0.1875
vt 0 0.24218812499999998
vt 0.71875 0.429688125
vt 0.40625 0.5
vt 0.40625 0.429688125
vt 0.15625 0.5
vt 0.21875 0.46875
vt 0.15625 0.46875
vt 0.15625 0.5
vt 0.21875 0.46875
vt 0.15625 0.46875
vt 0.15625 0.5
vt 0.21875 0.46875
vt 0.15625 0.46875
vt 0 0
vt 0 0
vt 0 0
vt 0 0
vt 0 0
vt 0 0
vt 0.15625 0.5
vt 0.21875 0.46875
vt 0.15625 0.46875
vt 0.15625 0.5
vt 0.21875 0.46875
vt 0.15625 0.46875
vt 0.15625 0.5
vt 0.21875 0.46875
vt 0.15625 0.46875
vt 0 0
vt 0 0
vt 0 0
vt 0 0
vt 0 0
vt 0 0
vt 0.28125 0.328125
vt 0.15625 0.421875
vt 0.15625 0.328125
vt 0.203125 0.1875
vt 0.28125 0.125
vt 0.203125 0.125
vt 0.203125 0.1875
vt 0.203125 0.125
vt 0.28125 0.125
vt 0.28125 0.03125
vt 0.203125 0.125
vt 0.203125 0.03125
vt 0.203125 0.03125
vt 0.28125 0.125
vt 0.28125 0.03125
vt 0.3125 0
vt 0 0.03125
vt 0 0
vt 0.28125 0.1875
vt 0.15625 0.21875
vt 0.15625 0.1875
vt 0 0
vt 0.3125 0.03125
vt 0.3125 0
vt 0.15625 0.22656187500000002
vt 0.28125 0.328125
vt 0.28125 0.22656187500000002
vt 0.28125 0.125
vt 0.3125 0.03125
vt 0.28125 0.03125
vt 0.28125 0.125
vt 0.28125 0.03125
vt 0.3125 0.03125
vt 0.71875 0.1875
vt 0.40625 0.265625
vt 0.40625 0.1875
vt 0.28125 0.22656187500000002
vt 0.15625 0.328125
vt 0.15625 0.22656187500000002
vt 0.28125 0.125
vt 0.3125 0.03125
vt 0.28125 0.03125
vt 0.28125 0.125
vt 0.28125 0.03125
vt 0.3125 0.03125
vt 0 0
vt 0 0
vt 0 0
vt 0.28125 0.03125
vt 0.203125 0.125
vt 0.203125 0.03125
vt 0.203125 0.03125
vt 0.28125 0.125
vt 0.28125 0.03125
vt 0.0625 0.4375
vt 0.15625 0.5
vt 0.15625 0.4375
vt 0 0.5
vt 0.0625 0.4375
vt 0.0625 0.5
vt 0.0625 0.5
vt 0.15625 0.4375
vt 0.15625 0.5
vt 0.0625 0.4375
vt 0.15625 0.5
vt 0.15625 0.4375
vt 0.0625 0.5
vt 0.15625 0.4375
vt 0.0625 0.4375
vt 0.0625 0.4375
vt 0.15625 0.5
vt 0.15625 0.4375
vt 0.0625 0.5
vt 0 0.4375
vt 0.0625 0.4375
vt 0.0625 0.5
vt 0.15625 0.4375
vt 0.15625 0.5
vt 0.15625 0.4375
vt 0.0625 0.5
vt 0.15625 0.5
vt 0.0625 0.5
vt 0.15625 0.4375
vt 0.0625 0.4375
vt 0.15625 0.5
vt 0.0625 0.4375
vt 0.0625 0.5
vt 0.15625 0.4375
vt 0.0625 0.5
vt 0.15625 0.5
vt 0.0625 0.5
vt 0 0.4375
vt 0.0625 0.4375
vt 0.15625 0.5
vt 0.0625 0.4375
vt 0.15625 0.4375
vt 0.0625 0.4375
vt 0.15625 0.5
vt 0.15625 0.4375
vt 0 0.1875
vt 0.15625 0.21875
vt 0.15625 0.1875
vt 0.4375 0
vt 0.5 0.125
vt 0.5 0
vt 0.875 0.46875
vt 1 0.59375
vt 1 0.46875
vt 0.875 0.3125
vt 1 0
vt 0.875 0
vt 0.875 0.375
vt 0.875 0.25
vt 0.78125 0.375
vt 0.859375 0.59375
vt 0.859375 0.609375
vt 0.953125 0.59375
vt 0.859375 0.703125
vt 0.953125 0.703125
vt 0.859375 0.609375
vt 0.859375 1
vt 0.953125 1
vt 0.859375 0.90625
vt 0.953125 0.609375
vt 0.953125 0.59375
vt 0.859375 0.609375
vt 0.953125 0.609375
vt 0.953125 0.59375
vt 0.859375 0.609375
vt 0.40625 0.265625
vt 0.71875 0.265625
vt 0.40625 0.1875
vt 0.71875 0.19531187500000002
vt 0.71875 0.125
vt 0.40625 0.19531312499999998
vt 0.40625 0.5
vt 0.40625 0.375
vt 0.28125 0.5
vt 0.734375 0.625
vt 0.734375 0.6875
vt 0.609375 0.625
vt 0.734375 0.625
vt 0.859375 0.625
vt 0.734375 0.5
vt 0.734375 0.6875
vt 0.734375 0.625
vt 0.609375 0.6875
vt 0.609375 0.6875
vt 0.609375 0.625
vt 0.734375 0.6875
vt 0.734375 0.6875
vt 0.609375 0.6875
vt 0.734375 0.625
vt 0.109375 0.125
vt 0.07858875 0.125
vt 0.07858875 0.140625
vt 0.109375 0.1875
vt 0.109375 0.125
vt 0.07858875 0.140625
vt 0.875 0.234375
vt 0.875 0.125
vt 0.851561875 0.234375
vt 0.851561875 0.25
vt 0.851561875 0.234375
vt 0.78125 0.25
vt 0.78125 0.125
vt 0.78125 0.25
vt 0.851561875 0.234375
vt 0.28125 0.421875
vt 0.15625 0.421875
vt 0.28125 0.328125
vt 0.28125 0.328125
vt 0.15625 0.328125
vt 0.28125 0.22656187500000002
vt 0.28125 0.125
vt 0.203125 0.125
vt 0.28125 0.03125
vt 0.203125 0.125
vt 0.28125 0.125
vt 0.203125 0.03125
vt 0.921875 0.859375
vt 0.921875 0.703125
vt 0.859375 0.859375
vt 0.890625 0.71875
vt 0.890625 0.83072875
vt 0.859375 0.71875
vt 0.859375 0.71875
vt 0.859375 0.859375
vt 0.890625 0.828125
vt 0.125 0
vt 0 0
vt 0.109375 0.015625
vt 0.125 0.015625
vt 0.125 0
vt 0.109375 0.015625
vt 0.109375 0.03125
vt 0.109375 0.015625
vt 0 0.03125
vt 0.03125 0.046875
vt 0.03125 0.03125
vt 0.004953125 0.046875
vt 0 0
vt 0 0
vt 0 0
vt 0.40625 0.296875
vt 0.71875 0.296875
vt 0.40625 0.265625
vt 0.71875 0.296875
vt 0.40625 0.296875
vt 0.71875 0.265625
vt 0.28125 0.21875
vt 0.15625 0.21875
vt 0.28125 0.1875
vt 0 0.03125
vt 0.3125 0.03125
vt 0 0
vt 0.15625 0.21875
vt 0.28125 0.21875
vt 0.15625 0.1875
vt 0.3125 0.03125
vt 0 0.03125
vt 0.3125 0
vt 0.125 0.625
vt 0.25 0.625
vt 0.125 0.5
vt 0.125 0.625
vt 0.25 0.625
vt 0.125 0.5
vt 0.734375 0.6875
vt 0.609375 0.6875
vt 0.734375 0.9375
vt 0.734375 0.6875
vt 0.609375 0.6875
vt 0.734375 0.9375
vt 0.125 0.625
vt 0.25 0.625
vt 0.125 0.5
vt 0.421875 0.625
vt 0.734375 0.625
vt 0.421875 0.5
vt 0.25 0.5625
vt 0.125 0.5625
vt 0.25 0.625
vt 0.859375 0.65625
vt 0.734375 0.65625
vt 0.859375 0.96875
vt 0.4375 0.625
vt 0.6875 0.625
vt 0.4375 0.5
vt 0.4375 0.625
vt 0.6875 0.625
vt 0.4375 0.5
vt 0.1875 0.65625
vt 0.1875 0.96875
vt 0.421875 0.65625
vt 0.421875 0.65625
vt 0.1875 0.65625
vt 0.421875 0.96875
vt 0.3125 0.625
vt 0.5 0.625
vt 0.3125 0.5
vt 0.5 0.125
vt 0.875 0.125
vt 0.5 0
vt 0.3125 0.625
vt 0.5 0.625
vt 0.3125 0.5
vt 0.359375 0.625
vt 0.734375 0.625
vt 0.359375 0.5
vt 0 0.625
vt 0 1
vt 0.1875 0.625
vt 0.1875 0.625
vt 0 0.625
vt 0.1875 1
vt 0.109375 0.125
vt 0.109375 0.03125
vt 0.07858875 0.046875
vt 0.07858875 0.125
vt 0.109375 0.125
vt 0.07858875 0.046875
vt 0.03125 0.046875
vt 0.07858875 0.046875
vt 0.03125 0.03125
vt 0.71875 0.367186875
vt 0.40625 0.367188125
vt 0.71875 0.296875
vt 0.28125 0.421875
vt 0.28125 0.328125
vt 0.15625 0.421875
vt 0.203125 0.1875
vt 0.109375 0.1875
vt 0.203125 0.03125
vt 0.90625 0.46875
vt 1 0.46875
vt 0.90625 0.3125
vt 0.78125 0.375
vt 0.78125 0.25
vt 0.875 0.375
vt 0.203125 0.1875
vt 0.109375 0.1875
vt 0.203125 0.03125
vt 0.109375 0.1875
vt 0.203125 0.1875
vt 0.109375 0.03125
vt 0.40625 0.375
vt 0.28125 0.375
vt 0.40625 0.28125
vt 0.109375 0.03125
vt 0.03125 0.03125
vt 0.109375 0.125
vt 0.03125 0.03125
vt 0.109375 0.03125
vt 0.03125 0.125
vt 0.109375 0.1875
vt 0.203125 0.1875
vt 0.109375 0.03125
vt 0.203125 0.1875
vt 0.109375 0.1875
vt 0.203125 0.03125
vt 0.28125 0.375
vt 0.40625 0.375
vt 0.28125 0.28125
vt 0.5 0.125
vt 0.3125 0.125
vt 0.5 0
vt 0.359375 0.625
vt 0.734375 0.625
vt 0.359375 0.5
vt 0 0.625
vt 0.375 0.625
vt 0 0.500065
vt 0.421875 1
vt 0.609375 1
vt 0.484375 0.625
vt 0.421875 0.625
vt 0.421875 1
vt 0.484375 0.625
vt 0.421875 1
vt 0.484375 1
vt 0.421875 0.625
vt 0.609375 0.625
vt 0.421875 0.625
vt 0.484375 1
vt 0.28125 0.5
vt 0.28125 0.46875
vt 0.15625 0.5
vt 0.28125 0.5
vt 0.40625 0.5
vt 0.28125 0.375
vt 0.28125 0.46875
vt 0.28125 0.5
vt 0.15625 0.46875
vt 0 0
vt 0 0
vt 0 0
vt 0 0
vt 0 0
vt 0 0
vt 0.28125 0.46875
vt 0.28125 0.5
vt 0.15625 0.46875
vt 0.71875 0.5
vt 0.6875 0.5
vt 0.71875 0.4375
vt 0.859375 0.5
vt 0.734375 0.5
vt 0.859375 0.4375
vt 0.71875 0.5
vt 0.6875 0.5
vt 0.71875 0.4375
vt 0.859375 0.625
vt 0.734375 0.625
vt 0.859375 0.65625
vt 0.28125 0.46875
vt 0.15625 0.46875
vt 0.28125 0.5
vt 0 0.265625
vt 0.15625 0.265625
vt 0 0.19531187500000002
vt 0.15625 0.1875
vt 0 0.1875
vt 0.15625 0.21875
vt 0.15625 0.1875
vt 0 0.1875
vt 0.15625 0.24218687500000002
vt 0.71875 0.5
vt 0.40625 0.5
vt 0.71875 0.429688125
vt 0.21875 0.5
vt 0.21875 0.46875
vt 0.15625 0.5
vt 0.21875 0.5
vt 0.21875 0.46875
vt 0.15625 0.5
vt 0.21875 0.5
vt 0.21875 0.46875
vt 0.15625 0.5
vt 0 0
vt 0 0
vt 0 0
vt 0 0
vt 0 0
vt 0 0
vt 0.21875 0.5
vt 0.21875 0.46875
vt 0.15625 0.5
vt 0.21875 0.5
vt 0.21875 0.46875
vt 0.15625 0.5
vt 0.21875 0.5
vt 0.21875 0.46875
vt 0.15625 0.5
vt 0 0
vt 0 0
vt 0 0
vt 0 0
vt 0 0
vt 0 0
vt 0.28125 0.421875
vt 0.15625 0.421875
vt 0.28125 0.328125
vt 0.28125 0.125
vt 0.203125 0.125
vt 0.28125 0.03125
vt 0.203125 0.125
vt 0.28125 0.125
vt 0.203125 0.03125
vt 0.3125 0.03125
vt 0 0.03125
vt 0.3125 0
vt 0.28125 0.21875
vt 0.15625 0.21875
vt 0.28125 0.1875
vt 0 0.03125
vt 0.3125 0.03125
vt 0 0
vt 0.15625 0.328125
vt 0.28125 0.328125
vt 0.15625 0.22656187500000002
vt 0.71875 0.265625
vt 0.40625 0.265625
vt 0.71875 0.1875
vt 0.28125 0.328125
vt 0.15625 0.328125
vt 0.28125 0.22656187500000002
vt 0 0
vt 0 0
vt 0 0
vt 0.28125 0.125
vt 0.203125 0.125
vt 0.28125 0.03125
vt 0.203125 0.125
vt 0.28125 0.125
vt 0.203125 0.03125
vt 0.0625 0.4375
vt 0.0625 0.5
vt 0.15625 0.4375
vt 0.0625 0.5
vt 0.15625 0.5
vt 0.0625 0.4375
vt 0 0.4375
vt 0.0625 0.4375
vt 0 0.5
vt 0.0625 0.4375
vt 0.15625 0.4375
vt 0.0625 0.5
vt 0.0625 0.5
vt 0.15625 0.5
vt 0.0625 0.4375
vt 0.15625 0.5
vt 0.15625 0.4375
vt 0.0625 0.5
vt 0.0625 0.5
vt 0.15625 0.5
vt 0.0625 0.4375
vt 0 0.5
vt 0 0.4375
vt 0.0625 0.5
vt 0.0625 0.4375
vt 0.15625 0.4375
vt 0.0625 0.5
vt 0.0625 0.4375
vt 0.0625 0.5
vt 0.15625 0.4375
vt 0.0625 0.5
vt 0.15625 0.5
vt 0.0625 0.4375
vt 0 0.4375
vt 0.0625 0.4375
vt 0 0.5
vt 0.15625 0.4375
vt 0.0625 0.4375
vt 0.15625 0.5
vt 0.0625 0.4375
vt 0.0625 0.5
vt 0.15625 0.4375
vt 0 0.5
vt 0 0.4375
vt 0.0625 0.5
vt 0.0625 0.5
vt 0.0625 0.4375
vt 0.15625 0.5
vt 0.0625 0.5
vt 0.15625 0.5
vt 0.0625 0.4375
vt 0 0.21875
vt 0.15625 0.21875
vt 0 0.1875
vt 0.4375 0.125
vt 0.5 0.125
vt 0.4375 0
vt 0.875 0.59375
vt 1 0.59375
vt 0.875 0.46875
vt 1 0.3125
vt 1 0
vt 0.875 0.3125
vt 0.203125 0.1875
vt 0.28125 0.125
vt 0.203125 0.125
vt 0.28125 0.03125
vt 0.203125 0.03125
vt 0.203125 0.125
vt 0 0.19531187500000002
vt 0.15625 0.19531187500000002
vt 0.15625 0.265625
vt 0.15625 0.24218687500000002
vt 0 0.24218812499999998
vt 0 0.1875
vt 0.28125 0.328125
vt 0.15625 0.328125
vt 0.15625 0.421875
vt 0.203125 0.1875
vt 0.203125 0.125
vt 0.28125 0.125
vt 0.203125 0.1875
vt 0.28125 0.125
vt 0.203125 0.125
vt 0.28125 0.03125
vt 0.203125 0.03125
vt 0.203125 0.125
vt 0.203125 0.03125
vt 0.28125 0.03125
vt 0.28125 0.125
vt 0.28125 0.1875
vt 0.15625 0.1875
vt 0.15625 0.21875
vt 0.28125 0.22656187500000002
vt 0.15625 0.22656187500000002
vt 0.15625 0.328125
vt 0.28125 0.125
vt 0.28125 0.03125
vt 0.3125 0.03125
vt 0.28125 0.125
vt 0.3125 0.03125
vt 0.28125 0.03125
vt 0 0
vt 0 0
vt 0 0
vt 0.0625 0.4375
vt 0.15625 0.4375
vt 0.15625 0.5
vt 0.0625 0.5
vt 0.0625 0.4375
vt 0.15625 0.4375
vt 0.0625 0.4375
vt 0.15625 0.4375
vt 0.15625 0.5
vt 0.0625 0.5
vt 0.0625 0.4375
vt 0 0.4375
vt 0.0625 0.5
vt 0.15625 0.5
vt 0.15625 0.4375
vt 0.15625 0.4375
vt 0.15625 0.5
vt 0.0625 0.5
vt 0.15625 0.5
vt 0.0625 0.5
vt 0.0625 0.4375
vt 0.15625 0.4375
vt 0.15625 0.5
vt 0.0625 0.5
vt 0.15625 0.5
vt 0.15625 0.4375
vt 0.0625 0.4375
vt 0.0625 0.4375
vt 0.15625 0.4375
vt 0.15625 0.5
vt 0 0.1875
vt 0.15625 0.1875
vt 0.15625 0.21875
vt 0 0.265625
vt 0 0.19531187500000002
vt 0.15625 0.265625
vt 0.15625 0.1875
vt 0.15625 0.24218687500000002
vt 0 0.1875
vt 0.28125 0.421875
vt 0.28125 0.328125
vt 0.15625 0.421875
vt 0.28125 0.125
vt 0.28125 0.03125
vt 0.203125 0.125
vt 0.203125 0.125
vt 0.203125 0.03125
vt 0.28125 0.125
vt 0.28125 0.21875
vt 0.28125 0.1875
vt 0.15625 0.21875
vt 0.28125 0.328125
vt 0.28125 0.22656187500000002
vt 0.15625 0.328125
vt 0 0
vt 0 0
vt 0 0
vt 0.15625 0.5
vt 0.0625 0.5
vt 0.15625 0.4375
vt 0.0625 0.5
vt 0.0625 0.4375
vt 0.15625 0.5
vt 0 0.5
vt 0.0625 0.5
vt 0 0.4375
vt 0.0625 0.4375
vt 0.0625 0.5
vt 0.15625 0.4375
vt 0.0625 0.4375
vt 0.15625 0.4375
vt 0.0625 0.5
vt 0.15625 0.4375
vt 0.15625 0.5
vt 0.0625 0.4375
vt 0 0.5
vt 0.0625 0.5
vt 0 0.4375
vt 0.0625 0.5
vt 0.15625 0.5
vt 0.0625 0.4375
vt 0 0.21875
vt 0 0.1875
vt 0.15625 0.21875
vt 0.03125 0.03125
vt 0.011706875 0.0625
vt 0 0.03125
vt 0.03125 0.0625
vt 0.011706875 0.0625
vt 0.03125 0.03125
vt 0.984375 0.703125
vt 0.921875 0.765625
vt 0.984375 0.765625
vt 0.921875 0.796875
vt 0.984375 0.703125
vt 0.921875 0.703125
vt 0.859375 0.859375
vt 0.921875 0.828125
vt 0.859375 0.828125
vt 0.921875 0.8125
vt 0.984375 0.90625
vt 0.921875 0.90625
vt 0.921875 0.8125
vt 0.984375 0.90625
vt 0.984375 0.8125
vt 0.921875 0.859375
vt 0.859375 0.828125
vt 0.921875 0.828125
vt 0.921875 0.703125
vt 0.921875 0.765625
vt 0.984375 0.703125
vt 0.984375 0.796875
vt 0.984375 0.703125
vt 0.921875 0.796875
vt 0.921875 0.859375
vt 0.921875 0.828125
vt 0.859375 0.859375
vt 0.984375 0.8125
vt 0.984375 0.90625
vt 0.921875 0.8125
vt 0.921875 0.90625
vt 0.984375 0.90625
vt 0.921875 0.8125
vt 0.859375 0.859375
vt 0.859375 0.828125
vt 0.921875 0.859375
vt 0.921875 0.859375
vt 0.859375 0.859375
vt 0.890625 0.83072875
vt 0.921875 0.83072875
vt 0.921875 0.859375
vt 0.890625 0.83072875
vt 0.921875 0.859375
vt 0.921875 0.828125
vt 0.890625 0.828125
vt 0.859375 0.859375
vt 0.921875 0.859375
vt 0.890625 0.828125
vn 0 0 -1
vn -0.6246950475544243 0.7808688094430304 0
vn 0 0 1
vn 0 0 -1
vn 1 0 0
vn 0 0 -1
vn 0 0 1
vn 0 -1 0
vn 0 1 0
vn 0.6232037050564748 0.7820595514434193 0
vn 0.9492979228560804 0.31437788354324736 0
vn 1 0 0
vn 0 0 -1
vn -1 0 0
vn 0 0 1
vn 0 -1 0
vn 0 1 0
vn 0 0 1
vn 0.6246950475544243 0.7808688094430304 0
vn 0.6246950475544243 0.7808688094430304 0
vn 0 0 -1
vn 0 0 1
vn 0.948683298050514 0.316227766016838 0
vn 0 0 -1
vn 0 0 1
vn 0 0 -1
vn 0 0 1
vn 1 0 0
vn 0 -1 0
vn 0 1 0
vn 0.9501553270938734 0.31176971670267717 0.0021208824265488246
vn 0 0 1
vn 0 -1 0
vn 1 0 0
vn -1 0 0
vn 1 0 0
vn 0 0 -1
vn -1 0 0
vn 0 0 1
vn 1 0 0
vn -1 0 0
vn 0 -1 0
vn 0 1 0
vn 1 0 0
vn 0 0 -1
vn -1 0 0
vn 0 -1 0
vn 1 0 0
vn -1 0 0
vn 0 -1 0
vn 0 1 0
vn 1 0 0
vn 0 0 -1
vn -1 0 0
vn 0 0 1
vn 0 -1 0
vn 0 1 0
vn 0 0 1
vn -0.9492979228560804 0.31437788354324736 0
vn -0.6246950475544243 0.7808688094430304 0
vn 0 0 1
vn 0 0 -1
vn 0 0 -1
vn 0 0 1
vn 0 1 0
vn 0 0 -1
vn 0 0 1
vn 0 1 0
vn 0 0 -1
vn 0 0 1
vn 0 0 -1
vn 0 0 1
vn 0 1 0
vn 1 0 0
vn 0 0 -1
vn 0 0 1
vn 0 -1 0
vn 0 1 0
vn 1 0 0
vn 0 0 -1
vn -1 0 0
vn 0 0 1
vn 0 -1 0
vn 0 1 0
vn 0 0 -1
vn -1 0 0
vn 0 0 1
vn 0 -1 0
vn 0 1 0
vn -0.8944271909999161 0.44721359549995804 0
vn 0 1 0
vn -0.5547001962252291 0.8320502943378437 0
vn 0 1 0
vn 0 0 -1
vn -1 0 0
vn 0 0 1
vn 0 -1 0
vn 0 1 0
vn 0 0 -1
vn -1 0 0
vn 0 0 1
vn 0 -1 0
vn 0 1 0
vn -0.6246950475544243 0.7808688094430304 0
vn 0 0 1
vn 0 0 -1
vn 0 0 -1
vn 0 0 1
vn 0 0 -1
vn -1 0 0
vn 0 0 1
vn -0.948683298050514 0.316227766016838 0
vn 0 0 1
vn 0 0 -1
vn -0.6232037050564748 0.7820595514434193 0
vn -0.948683298050514 0.316227766016838 0
vn 0 0 1
vn 0 0 -1
vn 0 -1 0
vn 0 0 -1
vn 0 0 1
vn -1 0 0
vn 0 0.49949721934415764 0.8663154898000234
vn 0 -0.8656642097802241 0.5006250851741055
vn 0 0.8656642097802241 -0.5006250851741055
vn 0.3267495424868399 0.9451107369619349 0.0006567829999735475
vn -0.3267495424868399 -0.9451107369619349 -0.0006567829999735475
vn -0.47307921363994193 0.16029956825816213 0.8663140920232459
vn -0.8195865235264354 0.27771113607094094 -0.5011531256572578
vn 0.8195288844879481 -0.2844645714751555 0.4974457910821997
vn 0.5330377639856826 0.6814786602854929 -0.5014554593786309
vn -0.7909414690200712 -0.6118910378655686 -0.0009748662313312299
vn 0.787404104587525 0.6164356839988815 0.0013503968117341402
vn -0.3073036543640743 0.39288188722495576 0.8667227276961431
vn 0.5341339676124977 -0.682880135808383 0.49837297755883186
vn -0.5330377639856826 0.6814786602854929 -0.5014554593786309
vn -1 0 0
vn -1 0 0
vn -1 0 0
vn 0 0 1
vn -0.6246950475544243 0.7808688094430304 0
vn 1 0 0
vn 0 0 -1
vn 0 0 1
vn 0 -1 0
vn 0 1 0
vn 0.6232037050564748 0.7820595514434193 0
vn 0.9492979228560804 0.31437788354324736 0
vn 1 0 0
vn 0 0 -1
vn -1 0 0
vn 0 0 1
vn 0 -1 0
vn 0 1 0
vn 0 0 1
vn 0 0 1
vn 0.6246950475544243 0.7808688094430304 0
vn 0.6246950475544243 0.7808688094430304 0
vn 0.6246950475544243 0.7808688094430304 0
vn 0.6246950475544243 0.7808688094430304 0
vn 0.948683298050514 0.316227766016838 0
vn 0 0 -1
vn 0 0 1
vn 1 0 0
vn 0 -1 0
vn 0 1 0
vn 0.9456865993048669 0.325079768511048 0
vn 0.9456865993048669 0.325079768511048 0
vn 0.9544799780350298 0.2982749931359468 0
vn 0 0 1
vn 0 -1 0
vn 1 0 0
vn -1 0 0
vn 1 0 0
vn 0 0 -1
vn -1 0 0
vn 0 0 1
vn 1 0 0
vn -1 0 0
vn 0 -1 0
vn 0 1 0
vn 1 0 0
vn 0 0 -1
vn -1 0 0
vn 0 -1 0
vn 1 0 0
vn -1 0 0
vn 0 -1 0
vn 0 1 0
vn 1 0 0
vn 0 0 -1
vn -1 0 0
vn 0 0 1
vn 0 -1 0
vn 0 1 0
vn 0 0 1
vn 0 0 1
vn 0 0 1
vn -0.9492979228560804 0.31437788354324736 0
vn -0.6246950475544243 0.7808688094430304 0
vn 0 0 -1
vn 0 0 1
vn 0 1 0
vn 0 0 -1
vn 0 0 1
vn 0 1 0
vn 0 0 -1
vn 0 0 1
vn 0 0 -1
vn 0 0 1
vn 0 1 0
vn 1 0 0
vn 0 0 -1
vn 0 0 1
vn 0 -1 0
vn 0 -1 0
vn 0 1 0
vn 0 1 0
vn 1 0 0
vn 0 0 -1
vn -1 0 0
vn 0 0 1
vn 0 -1 0
vn 0 1 0
vn 0 0 -1
vn -1 0 0
vn 0 0 1
vn 0 -1 0
vn 0 1 0
vn -0.8944271909999161 0.44721359549995804 0
vn 0 1 0
vn -0.5547001962252291 0.8320502943378437 0
vn 0 1 0
vn 0 0 -1
vn -1 0 0
vn 0 0 1
vn 0 -1 0
vn 0 1 0
vn 0 0 -1
vn -1 0 0
vn 0 0 1
vn 0 -1 0
vn 0 1 0
vn -0.6246950475544243 0.7808688094430304 0
vn 0 0 -1
vn 0 0 1
vn 0 0 -1
vn -1 0 0
vn 0 0 1
vn -0.948683298050514 0.316227766016838 0
vn -0.6232037050564748 0.7820595514434193 0
vn -0.948683298050514 0.316227766016838 0
vn 0 -1 0
vn 0 0 -1
vn 0 0 1
vn 1 0 0
vn -1 0 0
vn 0 0.49949721934415764 0.8663154898000234
vn 0 -0.8656642097802241 0.5006250851741055
vn 0 0.8656642097802241 -0.5006250851741055
vn 0.32385816822236635 0.9461052567641843 0.0008543996900338811
vn -0.32385816822236635 -0.9461052567641843 -0.0008543996900338811
vn -0.4749114391623952 0.16484529293240163 0.8644565659133681
vn -0.8195288844879481 0.2844645714751555 -0.4974457910821997
vn 0.8195865235264354 -0.27771113607094094 0.5011531256572578
vn -0.7909414690200712 0.6118910378655686 0.0009748662313312299
vn 0.3073036543640743 0.39288188722495576 0.8667227276961431
vn -0.787404104587525 -0.6164356839988815 -0.0013503968117341402
vn 0.7909414690200712 0.6118910378655686 0.0009748662313312299
vn -0.3073036543640743 0.39288188722495576 0.8667227276961431
vn 0.5341339676124977 -0.682880135808383 0.49837297755883186
vn -0.5330377639856826 0.6814786602854929 -0.5014554593786309
vn -1 0 0
vn -1 0 0
vn -1 0 0
vn 0 0 1
vn 0 0 -1
vn 0 0 -1
vn 0.8944271909999161 0.44721359549995804 0
vn 0.5547001962252291 0.8320502943378437 0
vn 0.6246950475544243 0.7808688094430304 0
vn 0 0 1
vn 0 0 -1
vn 0 0 -1
vn 0 0 1
vn 1 0 0
vn 0.948683298050514 0.316227766016838 0
vn 0 0 1
vn 0 0 -1
vn 0 -1 0
vn 1 0 0
vn -0.3267495424868399 0.9451107369619349 0.0006567829999735475
vn 0.3267495424868399 -0.9451107369619349 -0.0006567829999735475
vn 0.47307921363994193 0.16029956825816213 0.8663140920232459
vn 0.8195865235264354 0.27771113607094094 -0.5011531256572578
vn -0.8195288844879481 -0.2844645714751555 0.4974457910821997
vn 0.7909414690200712 -0.6118910378655686 -0.0009748662313312299
vn -0.787404104587525 0.6164356839988815 0.0013503968117341402
vn -0.5341339676124977 -0.682880135808383 0.49837297755883186
vn 0.5330377639856826 0.6814786602854929 -0.5014554593786309
vn 1 0 0
vn 0.8944271909999161 0.44721359549995804 0
vn 0.5547001962252291 0.8320502943378437 0
vn 0.6246950475544243 0.7808688094430304 0
vn 0 0 -1
vn 0 0 1
vn 1 0 0
vn 0.948683298050514 0.316227766016838 0
vn 0 -1 0
vn -0.32385816822236635 0.9461052567641843 0.0008543996900338811
vn 0.32385816822236635 -0.9461052567641843 -0.0008543996900338811
vn 0.4749114391623952 0.16484529293240163 0.8644565659133681
vn 0.8195288844879481 0.2844645714751555 -0.4974457910821997
vn -0.8195865235264354 -0.27771113607094094 0.5011531256572578
vn 0.787404104587525 -0.6164356839988815 -0.0013503968117341402
vn 0.3073036543640743 0.39288188722495576 0.8667227276961431
vn -0.5341339676124977 -0.682880135808383 0.49837297755883186
vn 1 0 0
vn 0 0 -1
vn 0 0 -1
vn 1 0 0
vn 0 0 -1
vn 0 0 1
vn 0 -1 0
vn 0 1 0
vn -1 0 0
vn 1 0 0
vn 0 0 -1
vn 0 0 1
vn 0 -1 0
vn 0 1 0
vn -1 0 0
vn 0 -1 0
vn 0 -1 0
vn 0 1 0
vn 0 1 0
usemtl m_6627e7c0-fce9-a4b4-acbc-a1af7c40be9f
f 371/1/1 2/2/1 321/3/1
f 4/4/2 3/5/2 5/6/2
f 6/7/3 4/8/3 7/9/3
f 3/10/4 8/11/4 5/12/4
f 10/13/5 9/14/5 11/15/5
f 13/16/6 12/17/6 10/18/6
f 11/19/7 14/20/7 15/21/7
f 11/22/8 13/23/8 10/24/8
f 14/25/9 12/26/9 16/27/9
f 18/28/10 17/29/10 19/30/10
f 21/31/11 20/32/11 22/33/11
f 24/34/12 23/35/12 25/36/12
f 27/37/13 26/38/13 24/39/13
f 29/40/14 28/41/14 27/42/14
f 25/43/15 30/44/15 29/45/15
f 29/46/16 24/47/16 25/48/16
f 30/49/17 26/50/17 28/51/17
f 32/52/18 31/53/18 33/54/18
f 35/55/19 34/56/19 36/57/19
f 38/58/20 37/59/20 39/60/20
f 40/61/21 38/62/21 41/63/21
f 37/64/22 42/65/22 39/66/22
f 44/67/23 43/68/23 45/69/23
f 46/70/24 44/71/24 47/72/24
f 43/73/25 48/74/25 45/75/25
f 50/76/26 49/77/26 51/78/26
f 53/79/27 52/80/27 54/81/27
f 56/82/28 55/83/28 1/84/28
f 57/85/29 56/86/29 1/87/29
f 58/88/30 55/89/30 59/90/30
f 61/91/31 60/92/31 62/93/31
f 65/94/32 64/95/32 66/96/32
f 66/97/33 63/98/33 62/99/33
f 68/100/34 67/101/34 69/102/34
f 71/103/35 70/104/35 72/105/35
f 74/106/36 73/107/36 75/108/36
f 77/109/37 76/110/37 74/111/37
f 79/112/38 78/113/38 77/114/38
f 75/115/39 80/116/39 79/117/39
f 82/118/40 81/119/40 83/120/40
f 85/121/41 84/122/41 86/123/41
f 83/124/42 86/125/42 82/126/42
f 88/127/43 87/128/43 84/129/43
f 90/130/44 89/131/44 91/132/44
f 93/133/45 92/134/45 90/135/45
f 95/136/46 94/137/46 93/138/46
f 91/139/47 93/140/47 90/141/47
f 97/142/48 96/143/48 98/144/48
f 100/145/49 99/146/49 101/147/49
f 100/148/50 97/149/50 98/150/50
f 103/151/51 102/152/51 99/153/51
f 105/154/52 104/155/52 106/156/52
f 108/157/53 107/158/53 105/159/53
f 110/160/54 109/161/54 108/162/54
f 106/163/55 111/164/55 110/165/55
f 110/166/56 105/167/56 106/168/56
f 111/169/57 107/170/57 109/171/57
f 113/172/58 112/173/58 114/174/58
f 116/175/59 115/176/59 117/177/59
f 119/178/60 118/179/60 120/180/60
f 119/181/61 120/182/61 121/183/61
f 123/184/62 122/185/62 118/186/62
f 125/187/63 124/188/63 126/189/63
f 128/190/64 127/191/64 129/192/64
f 131/193/65 130/194/65 132/195/65
f 134/196/66 133/197/66 135/198/66
f 137/199/67 136/200/67 138/201/67
f 136/202/68 133/203/68 139/204/68
f 141/205/69 140/206/69 142/207/69
f 144/208/70 143/209/70 145/210/70
f 147/211/71 146/212/71 148/213/71
f 150/214/72 149/215/72 151/216/72
f 149/217/73 146/218/73 152/219/73
f 154/220/74 153/221/74 155/222/74
f 157/223/75 156/224/75 154/225/75
f 155/226/76 158/227/76 159/228/76
f 159/229/77 160/230/77 155/231/77
f 158/232/78 153/233/78 161/234/78
f 163/235/79 162/236/79 164/237/79
f 166/238/80 165/239/80 163/240/80
f 168/241/81 167/242/81 166/243/81
f 164/244/82 169/245/82 168/246/82
f 168/247/83 163/248/83 164/249/83
f 169/250/84 165/251/84 167/252/84
f 171/253/85 170/254/85 172/255/85
f 174/256/86 173/257/86 171/258/86
f 176/259/87 175/260/87 174/261/87
f 176/262/88 171/263/88 172/264/88
f 175/265/89 170/266/89 173/267/89
f 178/268/90 177/269/90 179/270/90
f 181/271/91 180/272/91 182/273/91
f 184/274/92 183/275/92 185/276/92
f 187/277/93 186/278/93 188/279/93
f 190/280/94 189/281/94 191/282/94
f 193/283/95 192/284/95 190/285/95
f 195/286/96 194/287/96 193/288/96
f 193/289/97 191/290/97 195/291/97
f 194/292/98 189/293/98 192/294/98
f 197/295/99 196/296/99 198/297/99
f 200/298/100 199/299/100 197/300/100
f 202/301/101 201/302/101 200/303/101
f 202/304/102 197/305/102 198/306/102
f 201/307/103 196/308/103 199/309/103
f 204/310/104 203/311/104 205/312/104
f 206/313/105 204/314/105 207/315/105
f 203/316/106 208/317/106 205/318/106
f 210/319/107 209/320/107 211/321/107
f 213/322/108 212/323/108 214/324/108
f 219/325/109 218/326/109 216/327/109
f 221/328/110 220/329/110 219/330/110
f 217/331/111 222/332/111 221/333/111
f 224/334/112 223/335/112 225/336/112
f 226/337/113 224/338/113 227/339/113
f 223/340/114 228/341/114 225/342/114
f 230/343/115 229/344/115 231/345/115
f 233/346/116 232/347/116 234/348/116
f 235/349/117 233/350/117 236/351/117
f 232/352/118 237/353/118 234/354/118
f 234/355/119 236/356/119 233/357/119
f 239/358/120 238/359/120 240/360/120
f 242/361/121 241/362/121 243/363/121
f 248/364/122 247/365/122 249/366/122
f 250/367/123 248/368/123 244/369/123
f 244/370/124 249/371/124 246/372/124
f 251/373/125 245/374/125 247/375/125
f 253/376/126 252/377/126 254/378/126
f 256/379/127 255/380/127 257/381/127
f 253/382/128 258/383/128 256/384/128
f 258/385/129 252/386/129 255/387/129
f 259/388/130 256/389/130 257/390/130
f 262/391/131 260/392/131 263/393/131
f 265/394/132 264/395/132 266/396/132
f 268/397/133 267/398/133 269/399/133
f 266/400/134 267/401/134 270/402/134
f 269/403/135 264/404/135 271/405/135
f 266/406/136 268/407/136 265/408/136
f 273/409/137 272/410/137 274/411/137
f 160/412/138 275/413/138 157/414/138
f 159/415/139 161/416/139 160/417/139
f 277/418/140 276/419/140 278/420/140
f 6/421/141 3/422/141 4/423/141
f 12/424/142 9/425/142 10/426/142
f 16/427/143 12/428/143 13/429/143
f 9/430/144 14/431/144 11/432/144
f 15/433/145 13/434/145 11/435/145
f 9/436/146 12/437/146 14/438/146
f 279/439/147 17/440/147 18/441/147
f 280/442/148 20/443/148 21/444/148
f 26/445/149 23/446/149 24/447/149
f 28/448/150 26/449/150 27/450/150
f 30/451/151 28/452/151 29/453/151
f 23/454/152 30/455/152 25/456/152
f 27/457/153 24/458/153 29/459/153
f 23/460/154 26/461/154 30/462/154
f 282/463/155 281/464/155 33/465/155
f 31/466/156 282/467/156 33/468/156
f 283/469/157 35/470/157 36/471/157
f 32/472/158 36/473/158 31/474/158
f 34/475/159 31/476/159 36/477/159
f 40/478/160 37/479/160 38/480/160
f 46/481/161 43/482/161 44/483/161
f 284/484/162 49/485/162 50/486/162
f 285/487/163 52/488/163 53/489/163
f 286/490/164 55/491/164 56/492/164
f 287/493/165 57/494/165 1/495/165
f 55/496/166 286/497/166 59/498/166
f 66/499/167 62/500/167 60/501/167
f 65/502/168 66/503/168 60/504/168
f 288/505/169 60/506/169 61/507/169
f 289/508/170 64/509/170 65/510/170
f 64/511/171 63/512/171 66/513/171
f 290/514/172 67/515/172 68/516/172
f 291/517/173 70/518/173 71/519/173
f 76/520/174 73/521/174 74/522/174
f 78/523/175 76/524/175 77/525/175
f 80/526/176 78/527/176 79/528/176
f 73/529/177 80/530/177 75/531/177
f 87/532/178 81/533/178 82/534/178
f 88/535/179 84/536/179 85/537/179
f 85/538/180 86/539/180 83/540/180
f 81/541/181 87/542/181 88/543/181
f 92/544/182 89/545/182 90/546/182
f 94/547/183 92/548/183 93/549/183
f 292/550/184 94/551/184 95/552/184
f 95/553/185 93/554/185 91/555/185
f 102/556/186 96/557/186 97/558/186
f 103/559/187 99/560/187 100/561/187
f 101/562/188 97/563/188 100/564/188
f 96/565/189 102/566/189 103/567/189
f 107/568/190 104/569/190 105/570/190
f 109/571/191 107/572/191 108/573/191
f 111/574/192 109/575/192 110/576/192
f 104/577/193 111/578/193 106/579/193
f 108/580/194 105/581/194 110/582/194
f 104/583/195 107/584/195 111/585/195
f 293/586/196 112/587/196 113/588/196
f 294/589/197 293/590/197 113/591/197
f 295/592/198 113/593/198 114/594/198
f 296/595/199 115/596/199 116/597/199
f 123/598/200 118/599/200 119/600/200
f 297/601/201 124/602/201 125/603/201
f 298/604/202 127/605/202 128/606/202
f 299/607/203 130/608/203 131/609/203
f 139/610/204 133/611/204 134/612/204
f 300/613/205 136/614/205 137/615/205
f 300/616/206 133/617/206 136/618/206
f 301/619/207 140/620/207 141/621/207
f 302/622/208 143/623/208 144/624/208
f 152/625/209 146/626/209 147/627/209
f 303/628/210 149/629/210 150/630/210
f 303/631/211 146/632/211 149/633/211
f 156/634/212 153/635/212 154/636/212
f 275/637/213 156/638/213 157/639/213
f 153/640/214 158/641/214 155/642/214
f 154/643/215 155/644/215 160/645/215
f 157/646/216 154/647/216 160/648/216
f 275/649/217 161/650/217 156/651/217
f 153/652/218 156/653/218 161/654/218
f 165/655/219 162/656/219 163/657/219
f 167/658/220 165/659/220 166/660/220
f 169/661/221 167/662/221 168/663/221
f 162/664/222 169/665/222 164/666/222
f 166/667/223 163/668/223 168/669/223
f 162/670/224 165/671/224 169/672/224
f 173/673/225 170/674/225 171/675/225
f 175/676/226 173/677/226 174/678/226
f 304/679/227 175/680/227 176/681/227
f 174/682/228 171/683/228 176/684/228
f 304/685/229 170/686/229 175/687/229
f 305/688/230 177/689/230 178/690/230
f 306/691/231 180/692/231 181/693/231
f 307/694/232 183/695/232 184/696/232
f 308/697/233 186/698/233 187/699/233
f 192/700/234 189/701/234 190/702/234
f 194/703/235 192/704/235 193/705/235
f 309/706/236 194/707/236 195/708/236
f 190/709/237 191/710/237 193/711/237
f 309/712/238 189/713/238 194/714/238
f 199/715/239 196/716/239 197/717/239
f 201/718/240 199/719/240 200/720/240
f 310/721/241 201/722/241 202/723/241
f 200/724/242 197/725/242 202/726/242
f 310/727/243 196/728/243 201/729/243
f 206/730/244 203/731/244 204/732/244
f 311/733/245 209/734/245 210/735/245
f 312/736/246 212/737/246 213/738/246
f 220/739/247 218/740/247 219/741/247
f 222/742/248 220/743/248 221/744/248
f 215/745/249 222/746/249 217/747/249
f 226/748/250 223/749/250 224/750/250
f 313/751/251 229/752/251 230/753/251
f 235/754/252 232/755/252 233/756/252
f 237/757/253 236/758/253 234/759/253
f 314/760/254 238/761/254 239/762/254
f 315/763/255 241/764/255 242/765/255
f 250/766/256 244/767/256 245/768/256
f 251/769/257 247/770/257 248/771/257
f 251/772/258 248/773/258 250/774/258
f 248/775/259 249/776/259 244/777/259
f 250/778/260 245/779/260 251/780/260
f 259/781/261 252/782/261 253/783/261
f 258/784/262 255/785/262 256/786/262
f 254/787/263 258/788/263 253/789/263
f 254/790/264 252/791/264 258/792/264
f 253/793/265 256/794/265 259/795/265
f 263/796/266 260/797/266 261/798/266
f 263/799/267 261/800/267 262/801/267
f 271/802/268 264/803/268 265/804/268
f 270/805/269 267/806/269 268/807/269
f 264/808/270 267/809/270 266/810/270
f 267/811/271 264/812/271 269/813/271
f 270/814/272 268/815/272 266/816/272
f 316/817/273 272/818/273 273/819/273
f 161/820/274 275/821/274 160/822/274
f 158/823/275 161/824/275 159/825/275
f 317/826/276 276/827/276 277/828/276
f 319/829/277 320/830/277 318/831/277
f 2/832/278 322/833/278 321/834/278
f 324/835/279 325/836/279 323/837/279
f 327/838/280 328/839/280 326/840/280
f 330/841/281 331/842/281 329/843/281
f 332/844/282 333/845/282 330/846/282
f 329/847/283 331/848/283 334/849/283
f 336/850/284 337/851/284 335/852/284
f 339/853/285 340/854/285 338/855/285
f 342/856/286 343/857/286 341/858/286
f 345/859/287 346/860/287 344/861/287
f 347/862/288 348/863/288 345/864/288
f 344/865/289 346/866/289 349/867/289
f 346/868/290 345/869/290 348/870/290
f 351/871/291 352/872/291 350/873/291
f 354/874/292 355/875/292 353/876/292
f 357/877/293 358/878/293 356/879/293
f 354/880/294 357/881/294 359/882/294
f 359/883/295 356/884/295 353/885/295
f 360/886/296 358/887/296 357/888/296
f 362/889/297 363/890/297 361/891/297
f 365/892/298 366/893/298 364/894/298
f 366/895/299 367/896/299 361/897/299
f 363/898/300 362/899/300 365/900/300
f 369/901/301 370/902/301 368/903/301
f 372/904/302 324/905/302 323/906/302
f 373/907/303 327/908/303 326/909/303
f 332/910/304 330/911/304 329/912/304
f 374/913/305 336/914/305 335/915/305
f 375/916/306 339/917/306 338/918/306
f 376/919/307 342/920/307 341/921/307
f 347/922/308 345/923/308 344/924/308
f 349/925/309 346/926/309 348/927/309
f 360/928/310 354/929/310 353/930/310
f 359/931/311 357/932/311 356/933/311
f 355/934/312 354/935/312 359/936/312
f 355/937/313 359/938/313 353/939/313
f 354/940/314 360/941/314 357/942/314
f 367/943/315 362/944/315 361/945/315
f 361/946/316 363/947/316 364/948/316
f 364/949/317 366/950/317 361/951/317
f 377/952/318 369/953/318 368/954/318
f 380/955/319 378/956/319 381/957/319
f 379/958/320 378/959/320 380/960/320
f 386/961/321 391/962/321 388/963/321
f 389/964/322 390/965/322 386/966/322
f 388/967/323 393/968/323 387/969/323
f 387/970/324 386/971/324 388/972/324
f 393/973/325 390/974/325 392/975/325
f 383/976/326 394/977/326 382/978/326
f 390/979/327 391/980/327 386/981/327
f 392/982/328 390/983/328 389/984/328
f 391/985/329 393/986/329 388/987/329
f 389/988/330 386/989/330 387/990/330
f 391/991/331 390/992/331 393/993/331
f 395/994/332 394/995/332 383/996/332
f 382/997/333 385/998/333 384/999/333
f 383/1000/334 382/1001/334 384/1002/334
f 394/1003/335 395/1004/335 396/1005/335
f 397/1006/336 394/1007/336 396/1008/336
