# Made in Blockbench 5.1.3
mtllib radiator_horizontal.mtl

o cube
v -3 0.625 -4
v 0 0.625 -4
v 0 0.375 -4
v -3 0.375 -4
v -3 0.375 5
v 0 0.375 5
v 0 0.625 5
v -3 0.625 5
v -3 0.625 -3
v 0 0.625 -3
v -3 0.375 -2
v -3 0.375 -3
v 4 0.375 -3
v 4 0.375 -2
v -3 0.625 -2
v -3 0.625 -1
v 4 0.625 -1
v 4 0.625 -2
v -3 0.625 0
v 4 0.625 0
v -3 0.625 1
v 4 0.625 1
v -3 0.625 2
v 4 0.625 2
v -3 0.625 3
v 4 0.625 3
v 4 0.625 5
v 4 0.625 4
v 1 0.625 4
v 1 0.625 5
v -3 0.625 4
v 0 0.625 4
v -3 0.375 4
v 0 0.375 4
v 4 0.625 -4
v 1 0.625 -4
v 1 0.625 -3
v 4 0.625 -3
v -3 0.375 3
v -3 0.375 2
v 4 0.375 2
v 4 0.375 3
v -3 0.375 1
v 4 0.375 1
v -3 0.375 0
v 4 0.375 0
v -3 0.375 -1
v 4 0.375 -1
v 0 0.375 -3
v 4 0.375 5
v 4 0.375 4
v 4 0.375 -4
v 1 0.375 -4
v 1 0.375 5
v 1 0.375 -3
v 1 0.375 4
v 0.25 0.75 4
v 0.75 0.75 4
v 0.75 0.75 -3
v 0.25 0.75 -3
v 0.25 0.25 -3
v 0.75 0.25 -3
v 0.75 0.25 4
v 0.25 0.25 4
v 0 0 -3
v 0 1 -3
v 0 1 -4
v 0 0 -4
v 1 1 -4
v 1 0 -4
v 1 1 -3
v 1 0 -3
v 1 0 4
v 1 1 4
v 1 1 5
v 1 0 5
v 0 1 5
v 0 0 5
v 0 1 4
v 0 0 4
vt 0.40625 0.125
vt 0.40625 0.5
vt 0.375 0.5
vt 0.375 0.125
vt 0.40625 0.125
vt 0.40625 0.5
vt 0.375 0.5
vt 0.375 0.125
vt 0 0.125
vt 0.125 0.125
vt 0.125 0.5
vt 0.000016015625 0.499983984375
vt 0.125 0.125
vt 0.25 0.125
vt 0.25 1
vt 0.125 1
vt 0.125 0.125
vt 0.25 0.125
vt 0.25 1
vt 0.125 1
vt 0.125 0.125
vt 0.25 0.125
vt 0.25 1
vt 0.125 1
vt 0.125 0.125
vt 0.25 0.125
vt 0.25 1
vt 0.125 1
vt 0.125 0.125
vt 0.25 0.125
vt 0.25 1
vt 0.125 1
vt 0.125 0.125
vt 0.25 0.125
vt 0.25 1
vt 0.125 1
vt 0 1
vt 0.125 1
vt 0.125 0.625
vt 0 0.625
vt 0.25 0.125
vt 0.375 0.125
vt 0.375 0.5
vt 0.25 0.5
vt 0 0.125
vt 0.125 0.125
vt 0.125 0.5
vt 0.000016015625 0.499983984375
vt 0 1
vt 0 0.625
vt 0.125 0.625
vt 0.125 1
vt 0.125 0.125
vt 0.25 0.125
vt 0.25 1
vt 0.125 1
vt 0.125 0.125
vt 0.25 0.125
vt 0.25 1
vt 0.125 1
vt 0.125 0.125
vt 0.25 0.125
vt 0.25 1
vt 0.125 1
vt 0.125 0.125
vt 0.25 0.125
vt 0.25 1
vt 0.125 1
vt 0.125 0.125
vt 0.25 0.125
vt 0.25 1
vt 0.125 1
vt 0.125 0.125
vt 0.25 0.125
vt 0.25 1
vt 0.125 1
vt 0.25 0.125
vt 0.375 0.125
vt 0.375 0.5
vt 0.25 0.5
vt 0.40625 1
vt 0.375 1
vt 0.375 0.875
vt 0.40625 0.875
vt 0.375 0.75
vt 0.40625 0.75
vt 0.40625 0.875
vt 0.375 0.875
vt 0.375 0.75
vt 0.40625 0.75
vt 0.40625 0.875
vt 0.375 0.875
vt 0.375 0.75
vt 0.40625 0.75
vt 0.40625 0.875
vt 0.375 0.875
vt 0.375 0.75
vt 0.40625 0.75
vt 0.40625 0.875
vt 0.375 0.875
vt 0.375 0.75
vt 0.40625 0.75
vt 0.40625 0.875
vt 0.375 0.875
vt 0.375 0.75
vt 0.40625 0.75
vt 0.40625 0.875
vt 0.375 0.875
vt 0.375 0.75
vt 0.40625 0.75
vt 0.40625 0.875
vt 0.375 0.875
vt 0.40625 0.25
vt 0.375 0.25
vt 0.375 0.125
vt 0.40625 0.125
vt 0.40625 1
vt 0.375 1
vt 0.375 0.875
vt 0.40625 0.875
vt 0.375 0.75
vt 0.40625 0.75
vt 0.40625 0.875
vt 0.375 0.875
vt 0.375 0.75
vt 0.40625 0.75
vt 0.40625 0.875
vt 0.375 0.875
vt 0.375 0.75
vt 0.40625 0.75
vt 0.40625 0.875
vt 0.375 0.875
vt 0.375 0.75
vt 0.40625 0.75
vt 0.40625 0.875
vt 0.375 0.875
vt 0.375 0.75
vt 0.40625 0.75
vt 0.40625 0.875
vt 0.375 0.875
vt 0.375 0.75
vt 0.40625 0.75
vt 0.40625 0.875
vt 0.375 0.875
vt 0.375 0.75
vt 0.40625 0.75
vt 0.40625 0.875
vt 0.375 0.875
vt 0.40625 0.25
vt 0.375 0.25
vt 0.375 0.125
vt 0.40625 0.125
vt 0.375 0.625
vt 0.40625 0.625
vt 0.40625 1
vt 0.375 1
vt 0.375 0.625
vt 0.40625 0.625
vt 0.40625 1
vt 0.375 1
vt 0.375 1
vt 0.25 1
vt 0.25 0.625
vt 0.375 0.625
vt 0.25 0.125
vt 0.125 0.125
vt 0.125 1
vt 0.25 1
vt 0.125 1
vt 0.25 1
vt 0.25 0.125
vt 0.125 0.125
vt 0.375 1
vt 0.375 0.625
vt 0.25 0.625
vt 0.25 1
vt 0.46875 0.125
vt 0.53125 0.125
vt 0.53125 1
vt 0.46875 1
vt 0.46875 0.125
vt 0.53125 0.125
vt 0.53125 1
vt 0.46875 1
vt 0.46875 0.125
vt 0.53125 0.125
vt 0.53125 1
vt 0.46875 1
vt 0.46875 0.125
vt 0.53125 0.125
vt 0.53125 1
vt 0.46875 1
vt 0.375 0
vt 0.375 0.125
vt 0.25 0.125
vt 0.25 0
vt 0.125 0
vt 0.125 0.125
vt 0 0.125
vt 0 0
vt 0.375 0
vt 0.375 0.125
vt 0.25 0.125
vt 0.25 0
vt 0.375 0
vt 0.375 0.125
vt 0.25 0.125
vt 0.25 0
vt 0.25 0
vt 0.375 0
vt 0.375 0.125
vt 0.25 0.125
vt 0.25 0
vt 0.375 0
vt 0.375 0.125
vt 0.25 0.125
vt 0.375 0
vt 0.375 0.125
vt 0.25 0.125
vt 0.25 0
vt 0.25 0
vt 0.25 0.125
vt 0.125 0.125
vt 0.125 0
vt 0.375 0
vt 0.375 0.125
vt 0.25 0.125
vt 0.25 0
vt 0.375 0
vt 0.375 0.125
vt 0.25 0.125
vt 0.25 0
vt 0.25 0
vt 0.375 0
vt 0.375 0.125
vt 0.25 0.125
vt 0.25 0
vt 0.375 0
vt 0.375 0.125
vt 0.25 0.125
vn 0 0 -1
vn 0 0 1
vn 0 1 0
vn 0 -1 0
vn 0 1 0
vn 0 1 0
vn 0 1 0
vn 0 1 0
vn 0 1 0
vn 0 1 0
vn 0 1 0
vn 0 -1 0
vn 0 1 0
vn 0 -1 0
vn 0 -1 0
vn 0 -1 0
vn 0 -1 0
vn 0 -1 0
vn 0 1 0
vn 0 -1 0
vn 1 0 0
vn 1 0 0
vn 1 0 0
vn 1 0 0
vn 1 0 0
vn 1 0 0
vn 1 0 0
vn 1 0 0
vn 1 0 0
vn -1 0 0
vn -1 0 0
vn -1 0 0
vn -1 0 0
vn -1 0 0
vn -1 0 0
vn -1 0 0
vn -1 0 0
vn -1 0 0
vn 0 0 -1
vn 0 0 1
vn 0 -1 0
vn 0 1 0
vn 0 -1 0
vn 0 -1 0
vn 0 1 0
vn 0 -1 0
vn -1 0 0
vn 1 0 0
vn -1 0 0
vn 0 0 -1
vn 1 0 0
vn 0 0 1
vn 0 -1 0
vn 0 1 0
vn 1 0 0
vn 0 0 1
vn -1 0 0
vn 0 0 -1
vn 0 -1 0
vn 0 1 0
usemtl m_a20a76e4-f02e-7163-b970-28884f27f293
f 1/1/1 2/2/1 3/3/1 4/4/1
f 5/5/2 6/6/2 7/7/2 8/8/2
f 1/9/3 9/10/3 10/11/3 2/12/3
f 11/13/4 12/14/4 13/15/4 14/16/4
f 15/17/5 16/18/5 17/19/5 18/20/5
f 16/21/6 19/22/6 20/23/6 17/24/6
f 19/25/7 21/26/7 22/27/7 20/28/7
f 21/29/8 23/30/8 24/31/8 22/32/8
f 23/33/9 25/34/9 26/35/9 24/36/9
f 27/37/10 28/38/10 29/39/10 30/40/10
f 31/41/11 8/42/11 7/43/11 32/44/11
f 5/45/12 33/46/12 34/47/12 6/48/12
f 35/49/13 36/50/13 37/51/13 38/52/13
f 39/53/14 40/54/14 41/55/14 42/56/14
f 40/57/15 43/58/15 44/59/15 41/60/15
f 43/61/16 45/62/16 46/63/16 44/64/16
f 45/65/17 47/66/17 48/67/17 46/68/17
f 47/69/18 11/70/18 14/71/18 48/72/18
f 9/73/19 15/74/19 18/75/19 38/76/19
f 12/77/20 4/78/20 3/79/20 49/80/20
f 27/81/21 50/82/21 51/83/21 28/84/21
f 28/85/22 51/86/22 42/87/22 26/88/22
f 26/89/23 42/90/23 41/91/23 24/92/23
f 24/93/24 41/94/24 44/95/24 22/96/24
f 22/97/25 44/98/25 46/99/25 20/100/25
f 20/101/26 46/102/26 48/103/26 17/104/26
f 17/105/27 48/106/27 14/107/27 18/108/27
f 18/109/28 14/110/28 13/111/28 38/112/28
f 38/113/29 13/114/29 52/115/29 35/116/29
f 5/117/30 8/118/30 31/119/30 33/120/30
f 33/121/31 31/122/31 25/123/31 39/124/31
f 39/125/32 25/126/32 23/127/32 40/128/32
f 40/129/33 23/130/33 21/131/33 43/132/33
f 43/133/34 21/134/34 19/135/34 45/136/34
f 45/137/35 19/138/35 16/139/35 47/140/35
f 47/141/36 16/142/36 15/143/36 11/144/36
f 11/145/37 15/146/37 9/147/37 12/148/37
f 12/149/38 9/150/38 1/151/38 4/152/38
f 53/153/39 36/154/39 35/155/39 52/156/39
f 30/157/40 54/158/40 50/159/40 27/160/40
f 52/161/41 13/162/41 55/163/41 53/164/41
f 25/165/42 31/166/42 28/167/42 26/168/42
f 42/169/43 51/170/43 33/171/43 39/172/43
f 50/173/44 54/174/44 56/175/44 51/176/44
f 57/177/45 58/178/45 59/179/45 60/180/45
f 61/181/46 62/182/46 63/183/46 64/184/46
f 60/185/47 61/186/47 64/187/47 57/188/47
f 62/189/48 59/190/48 58/191/48 63/192/48
f 65/193/49 66/194/49 67/195/49 68/196/49
f 68/197/50 67/198/50 69/199/50 70/200/50
f 70/201/51 69/202/51 71/203/51 72/204/51
f 72/205/52 71/206/52 66/207/52 65/208/52
f 68/209/53 70/210/53 72/211/53 65/212/53
f 69/213/54 67/214/54 66/215/54 71/216/54
f 73/217/55 74/218/55 75/219/55 76/220/55
f 76/221/56 75/222/56 77/223/56 78/224/56
f 78/225/57 77/226/57 79/227/57 80/228/57
f 80/229/58 79/230/58 74/231/58 73/232/58
f 76/233/59 78/234/59 80/235/59 73/236/59
f 77/237/60 75/238/60 74/239/60 79/240/60