# Blender 4.5.3 LTS
# www.blender.org
mtllib cooling_tower.mtl
o cube
v -2.000000 1.000000 -4.371094
v -4.000000 1.000000 -4.500000
v -4.000000 1.000000 -2.500000
v -2.000000 0.750000 -5.000000
v -4.000000 0.250000 -5.000000
v -4.000000 0.750000 -5.000000
v -4.000000 -0.000000 -4.500000
v -4.000000 0.250000 -4.500000
v -2.000000 0.250000 -6.000000
v -2.000000 0.249999 -7.000000
v 3.000000 0.750000 -5.000000
v 0.500000 0.250000 -5.000000
v 0.500000 0.750000 -5.000000
v -2.000000 -0.000001 -7.000000
v 5.000000 -0.000000 -4.500000
v 5.000000 0.250000 -4.500000
v 5.000000 0.250000 -3.500000
v -2.000000 0.749999 -7.000000
v -2.000000 0.750000 -6.000000
v -1.000000 0.250000 -3.500000
v -4.000000 0.250000 -3.500000
v -1.000000 0.750000 -4.500000
v -4.000000 0.750000 -4.500000
v -2.000000 0.999999 -7.000000
v -4.000000 1.000000 -5.000000
v 3.000000 0.250000 -6.000000
v 0.500000 0.750000 -6.000000
v 0.500000 0.250000 -6.000000
v -1.000000 0.750000 -3.500000
v -4.000000 0.750000 -3.500000
v 5.000000 0.250000 -5.000000
v 5.000000 0.750000 -5.000000
v 5.000000 -0.000000 -5.000000
v 3.000000 0.249999 -7.000000
v 3.000000 -0.000001 -7.000000
v 3.000000 0.749999 -7.000000
v 3.000000 0.750000 -6.000000
v 2.000000 0.250000 -3.500000
v -1.000000 0.250000 -4.500000
v 2.000000 0.750000 -4.500000
v 5.000000 0.750000 -4.500000
v 2.000000 0.750000 -3.500000
v 5.000000 0.750000 -3.500000
v 3.000000 0.999999 -7.000000
v -4.000000 0.250000 -2.000000
v -2.000000 0.750000 -2.000000
v -4.000000 0.750000 -2.000000
v -4.000000 0.250000 -2.500000
v -4.000000 -0.000000 -2.000000
v -2.000000 0.250000 -1.000000
v -2.000000 0.250000 -0.000000
v 0.500000 0.750000 -2.000000
v 3.000000 0.750000 -1.000000
v 0.500000 0.750000 -1.000000
v -2.000000 0.000000 0.000000
v -2.000000 0.750000 -0.000000
v -2.000000 0.750000 -1.000000
v -1.000000 0.750000 -2.500000
v -4.000000 0.750000 -2.500000
v -2.000000 1.000000 -0.000000
v -2.000000 1.000000 -2.628906
v -4.000000 1.000000 -2.000000
v 0.500000 0.250000 -1.000000
v 3.000000 0.750000 -2.000000
v 5.000000 0.250000 -2.000000
v 5.000000 0.750000 -2.000000
v 5.000000 -0.000000 -2.500000
v 5.000000 0.250000 -2.500000
v 3.000000 0.250000 -1.000000
v 3.000000 0.250000 -0.000000
v 3.000000 0.250000 -2.000000
v 0.500000 0.250000 -2.000000
v 3.000000 0.000000 0.000000
v 3.000000 0.750000 -0.000000
v 2.000000 0.750000 -2.500000
v 5.000000 0.750000 -2.500000
v 3.000000 1.000000 -0.000000
v 5.000000 1.000000 -2.000000
v 3.000000 1.000000 -2.628906
v 3.000000 1.000000 -4.371094
v 5.000000 1.000000 -5.000000
v 5.000000 1.000000 -4.500000
v -2.000000 0.999999 -8.000000
v -2.000000 -0.000001 -8.000000
v 3.000000 1.000000 1.000000
v 3.000000 0.000000 1.000000
v 3.000000 0.250000 -5.000000
v -2.000000 0.250000 -5.000000
v -2.000000 0.250000 -2.000000
v -1.000000 0.250000 -2.500000
v -2.000000 1.000000 1.000000
v 3.000000 0.999999 -8.000000
v 2.000000 0.250000 -2.500000
v 5.000000 1.000000 -2.500000
v -1.156250 1.000000 0.500000
v -3.101562 3.000000 -2.007813
v -3.500000 1.000000 -1.843750
v 4.101562 3.000000 -4.992188
v 4.500000 1.000000 -1.843750
v 4.500000 1.000000 -5.156250
v -0.992188 3.000000 -7.101562
v 2.156250 0.999999 -7.500000
v -1.156250 0.999999 -7.500000
v -3.101562 3.000000 -4.992188
v -3.500000 1.000000 -5.156250
v 1.992188 3.000000 0.101562
v 2.156250 1.000000 0.500000
v -0.992188 3.000000 0.101562
v -2.738281 5.000000 -2.156250
v 4.101562 3.000000 -2.007813
v 1.843750 5.000000 -6.738282
v 3.414062 7.000000 -4.707032
v 3.738281 5.000000 -4.843750
v 3.738281 5.000000 -2.156250
v -2.738281 5.000000 -4.843750
v -0.843750 5.000000 -6.738282
v -0.843750 5.000000 -0.261719
v 1.992188 3.000000 -7.101562
v 1.843750 5.000000 -0.261719
v -2.414062 7.000000 -2.292969
v -0.878906 9.500000 -0.175782
v -2.824219 9.500000 -2.121094
v 3.414062 7.000000 -2.292969
v 1.707031 7.000000 -0.585938
v -2.414062 7.000000 -4.707032
v -0.707031 7.000000 -6.414063
v 1.707031 7.000000 -6.414063
v -0.707031 7.000000 -0.585938
v -1.031250 9.999999 -7.195313
v 2.031250 9.499999 -7.195313
v -1.031250 9.499999 -7.195313
v 2.031250 9.999999 -7.195313
v 4.195312 9.500000 -5.031251
v 4.195312 10.000000 -5.031251
v 4.195312 9.500000 -1.968751
v 4.195312 10.000000 -1.968751
v 2.031250 9.500000 0.195312
v 2.031250 10.000000 0.195312
v -1.031250 9.500000 0.195312
v -1.031250 10.000000 0.195312
v -3.195312 9.500000 -1.968751
v 3.824219 10.000000 -4.878907
v -3.195312 10.000000 -1.968751
v -3.195312 9.500000 -5.031251
v -3.195312 10.000000 -5.031251
v 3.824219 9.500000 -2.121094
v 1.878906 9.500000 -0.175782
v 3.824219 9.500000 -4.878907
v 1.878906 9.499999 -6.824220
v -2.824219 9.500000 -4.878907
v -0.878906 9.499999 -6.824220
v 1.878906 9.999999 -6.824220
v 3.492188 8.000000 -4.738282
v -0.878906 10.000000 -0.175782
v -2.824219 10.000000 -4.878907
v -0.878906 9.999999 -6.824220
v 3.824219 10.000000 -2.121094
v -2.824219 10.000000 -2.121094
v 1.878906 10.000000 -0.175782
v 1.738281 8.000000 -0.507813
v 3.492188 8.000000 -2.261719
v -2.492188 8.000000 -4.738282
v -0.738281 8.000000 -0.507813
v 1.738281 8.000000 -6.492188
v -0.738281 8.000000 -6.492188
v -2.492188 8.000000 -2.261719
v -4.000000 -0.000000 -5.000000
v 2.000000 0.250000 -4.500000
v -4.000000 -0.000000 -2.500000
v 5.000000 -0.000000 -2.000000
v -2.000000 0.000000 1.000000
v 3.000000 -0.000001 -8.000000
v -2.000000 -0.000000 -5.000000
v 3.000000 -0.000000 -5.000000
v -2.000000 -0.000000 -2.000000
v 3.000000 -0.000000 -2.000000
v -2.000000 1.000000 -4.371094
v -2.000000 1.000000 -4.371094
v -2.000000 1.000000 -4.371094
v -2.000000 1.000000 -4.371094
v -2.000000 1.000000 -4.371094
v -4.000000 1.000000 -2.500000
v -4.000000 1.000000 -2.500000
v -4.000000 1.000000 -2.500000
v -4.000000 1.000000 -2.500000
v -4.000000 1.000000 -2.500000
v -4.000000 1.000000 -4.500000
v -4.000000 1.000000 -4.500000
v -4.000000 1.000000 -4.500000
v -4.000000 1.000000 -4.500000
v -4.000000 1.000000 -4.500000
v -2.000000 0.750000 -5.000000
v -2.000000 0.750000 -5.000000
v -2.000000 0.750000 -5.000000
v -2.000000 0.750000 -5.000000
v -4.000000 0.750000 -5.000000
v -4.000000 0.750000 -5.000000
v -4.000000 0.750000 -5.000000
v -4.000000 0.750000 -5.000000
v -4.000000 0.750000 -5.000000
v -4.000000 0.750000 -5.000000
v -4.000000 0.750000 -5.000000
v -4.000000 0.250000 -5.000000
v -4.000000 0.250000 -5.000000
v -4.000000 0.250000 -5.000000
v -4.000000 0.250000 -5.000000
v -4.000000 0.250000 -5.000000
v -4.000000 0.250000 -5.000000
v -4.000000 0.250000 -5.000000
v -4.000000 0.250000 -5.000000
v -4.000000 0.250000 -5.000000
v -4.000000 0.250000 -4.500000
v -4.000000 0.250000 -4.500000
v -4.000000 0.250000 -4.500000
v -4.000000 0.250000 -4.500000
v -4.000000 0.250000 -4.500000
v -4.000000 0.250000 -4.500000
v -4.000000 -0.000000 -4.500000
v -4.000000 -0.000000 -4.500000
v -4.000000 -0.000000 -4.500000
v -4.000000 -0.000000 -4.500000
v -4.000000 -0.000000 -4.500000
v -4.000000 -0.000000 -4.500000
v -2.000000 0.249999 -7.000000
v -2.000000 0.249999 -7.000000
v -2.000000 0.249999 -7.000000
v -2.000000 0.249999 -7.000000
v -2.000000 0.249999 -7.000000
v -2.000000 0.250000 -6.000000
v -2.000000 0.250000 -6.000000
v -2.000000 0.250000 -6.000000
v -2.000000 0.250000 -6.000000
v -2.000000 0.250000 -6.000000
v -2.000000 0.250000 -6.000000
v 3.000000 0.750000 -5.000000
v 3.000000 0.750000 -5.000000
v 3.000000 0.750000 -5.000000
v 3.000000 0.750000 -5.000000
v 3.000000 0.750000 -5.000000
v 0.500000 0.750000 -5.000000
v 0.500000 0.750000 -5.000000
v 0.500000 0.750000 -5.000000
v 0.500000 0.750000 -5.000000
v 0.500000 0.750000 -5.000000
v 0.500000 0.750000 -5.000000
v 0.500000 0.250000 -5.000000
v 0.500000 0.250000 -5.000000
v 0.500000 0.250000 -5.000000
v 0.500000 0.250000 -5.000000
v 0.500000 0.250000 -5.000000
v 0.500000 0.250000 -5.000000
v -2.000000 -0.000001 -7.000000
v -2.000000 -0.000001 -7.000000
v -2.000000 -0.000001 -7.000000
v -2.000000 -0.000001 -7.000000
v -2.000000 -0.000001 -7.000000
v 5.000000 -0.000000 -4.500000
v 5.000000 -0.000000 -4.500000
v 5.000000 -0.000000 -4.500000
v 5.000000 -0.000000 -4.500000
v 5.000000 -0.000000 -4.500000
v 5.000000 0.250000 -3.500000
v 5.000000 0.250000 -3.500000
v 5.000000 0.250000 -3.500000
v 5.000000 0.250000 -3.500000
v 5.000000 0.250000 -3.500000
v 5.000000 0.250000 -4.500000
v 5.000000 0.250000 -4.500000
v 5.000000 0.250000 -4.500000
v 5.000000 0.250000 -4.500000
v 5.000000 0.250000 -4.500000
v 5.000000 0.250000 -4.500000
v 5.000000 0.250000 -4.500000
v 5.000000 0.250000 -4.500000
v -2.000000 0.749999 -7.000000
v -2.000000 0.749999 -7.000000
v -2.000000 0.749999 -7.000000
v -2.000000 0.749999 -7.000000
v -2.000000 0.749999 -7.000000
v -2.000000 0.750000 -6.000000
v -2.000000 0.750000 -6.000000
v -2.000000 0.750000 -6.000000
v -2.000000 0.750000 -6.000000
v -2.000000 0.750000 -6.000000
v -2.000000 0.750000 -6.000000
v -1.000000 0.250000 -3.500000
v -1.000000 0.250000 -3.500000
v -1.000000 0.250000 -3.500000
v -1.000000 0.250000 -3.500000
v -1.000000 0.250000 -3.500000
v -4.000000 0.250000 -3.500000
v -4.000000 0.250000 -3.500000
v -4.000000 0.250000 -3.500000
v -4.000000 0.250000 -3.500000
v -4.000000 0.250000 -3.500000
v -4.000000 0.750000 -4.500000
v -4.000000 0.750000 -4.500000
v -4.000000 0.750000 -4.500000
v -4.000000 0.750000 -4.500000
v -4.000000 0.750000 -4.500000
v -4.000000 0.750000 -4.500000
v -1.000000 0.750000 -4.500000
v -1.000000 0.750000 -4.500000
v -1.000000 0.750000 -4.500000
v -1.000000 0.750000 -4.500000
v -1.000000 0.750000 -4.500000
v -2.000000 0.999999 -7.000000
v -2.000000 0.999999 -7.000000
v -2.000000 0.999999 -7.000000
v -2.000000 0.999999 -7.000000
v -2.000000 0.999999 -7.000000
v -2.000000 0.999999 -7.000000
v -2.000000 0.999999 -7.000000
v -4.000000 1.000000 -5.000000
v -4.000000 1.000000 -5.000000
v -4.000000 1.000000 -5.000000
v 3.000000 0.250000 -6.000000
v 3.000000 0.250000 -6.000000
v 3.000000 0.250000 -6.000000
v 3.000000 0.250000 -6.000000
v 3.000000 0.250000 -6.000000
v 3.000000 0.250000 -6.000000
v 3.000000 0.250000 -6.000000
v 0.500000 0.250000 -6.000000
v 0.500000 0.250000 -6.000000
v 0.500000 0.250000 -6.000000
v 0.500000 0.250000 -6.000000
v 0.500000 0.750000 -6.000000
v 0.500000 0.750000 -6.000000
v 0.500000 0.750000 -6.000000
v 0.500000 0.750000 -6.000000
v -4.000000 0.750000 -3.500000
v -4.000000 0.750000 -3.500000
v -4.000000 0.750000 -3.500000
v -4.000000 0.750000 -3.500000
v -4.000000 0.750000 -3.500000
v -1.000000 0.750000 -3.500000
v -1.000000 0.750000 -3.500000
v -1.000000 0.750000 -3.500000
v -1.000000 0.750000 -3.500000
v -1.000000 0.750000 -3.500000
v 5.000000 0.250000 -5.000000
v 5.000000 0.250000 -5.000000
v 5.000000 0.250000 -5.000000
v 5.000000 0.250000 -5.000000
v 5.000000 0.250000 -5.000000
v 5.000000 0.250000 -5.000000
v 5.000000 0.250000 -5.000000
v 5.000000 0.750000 -5.000000
v 5.000000 0.750000 -5.000000
v 5.000000 0.750000 -5.000000
v 5.000000 0.750000 -5.000000
v 5.000000 0.750000 -5.000000
v 5.000000 0.750000 -5.000000
v 5.000000 0.750000 -5.000000
v 5.000000 -0.000000 -5.000000
v 5.000000 -0.000000 -5.000000
v 5.000000 -0.000000 -5.000000
v 5.000000 -0.000000 -5.000000
v 3.000000 0.249999 -7.000000
v 3.000000 0.249999 -7.000000
v 3.000000 0.249999 -7.000000
v 3.000000 0.249999 -7.000000
v 3.000000 0.249999 -7.000000
v 3.000000 -0.000001 -7.000000
v 3.000000 -0.000001 -7.000000
v 3.000000 -0.000001 -7.000000
v 3.000000 -0.000001 -7.000000
v 3.000000 -0.000001 -7.000000
v 3.000000 -0.000001 -7.000000
v 3.000000 -0.000001 -7.000000
v 3.000000 0.750000 -6.000000
v 3.000000 0.750000 -6.000000
v 3.000000 0.750000 -6.000000
v 3.000000 0.750000 -6.000000
v 3.000000 0.750000 -6.000000
v 3.000000 0.749999 -7.000000
v 3.000000 0.749999 -7.000000
v 3.000000 0.749999 -7.000000
v 3.000000 0.749999 -7.000000
v 3.000000 0.749999 -7.000000
v 2.000000 0.250000 -3.500000
v 2.000000 0.250000 -3.500000
v 2.000000 0.250000 -3.500000
v 2.000000 0.250000 -3.500000
v 2.000000 0.250000 -3.500000
v -1.000000 0.250000 -4.500000
v -1.000000 0.250000 -4.500000
v -1.000000 0.250000 -4.500000
v -1.000000 0.250000 -4.500000
v -1.000000 0.250000 -4.500000
v 2.000000 0.750000 -4.500000
v 2.000000 0.750000 -4.500000
v 2.000000 0.750000 -4.500000
v 2.000000 0.750000 -4.500000
v 2.000000 0.750000 -4.500000
v 5.000000 0.750000 -4.500000
v 5.000000 0.750000 -4.500000
v 5.000000 0.750000 -4.500000
v 5.000000 0.750000 -4.500000
v 5.000000 0.750000 -4.500000
v 5.000000 0.750000 -4.500000
v 2.000000 0.750000 -3.500000
v 2.000000 0.750000 -3.500000
v 2.000000 0.750000 -3.500000
v 2.000000 0.750000 -3.500000
v 2.000000 0.750000 -3.500000
v 5.000000 0.750000 -3.500000
v 5.000000 0.750000 -3.500000
v 5.000000 0.750000 -3.500000
v 5.000000 0.750000 -3.500000
v 5.000000 0.750000 -3.500000
v 3.000000 0.999999 -7.000000
v 3.000000 0.999999 -7.000000
v 3.000000 0.999999 -7.000000
v 3.000000 0.999999 -7.000000
v 3.000000 0.999999 -7.000000
v -4.000000 0.250000 -2.000000
v -4.000000 0.250000 -2.000000
v -4.000000 0.250000 -2.000000
v -4.000000 0.250000 -2.000000
v -4.000000 0.250000 -2.000000
v -4.000000 0.250000 -2.000000
v -4.000000 0.250000 -2.000000
v -4.000000 0.750000 -2.000000
v -4.000000 0.750000 -2.000000
v -4.000000 0.750000 -2.000000
v -4.000000 0.750000 -2.000000
v -4.000000 0.750000 -2.000000
v -4.000000 0.750000 -2.000000
v -4.000000 0.750000 -2.000000
v -2.000000 0.750000 -2.000000
v -2.000000 0.750000 -2.000000
v -2.000000 0.750000 -2.000000
v -2.000000 0.750000 -2.000000
v -2.000000 0.750000 -2.000000
v -4.000000 0.250000 -2.500000
v -4.000000 0.250000 -2.500000
v -4.000000 0.250000 -2.500000
v -4.000000 0.250000 -2.500000
v -4.000000 0.250000 -2.500000
v -4.000000 0.250000 -2.500000
v -4.000000 0.250000 -2.500000
v -4.000000 -0.000000 -2.000000
v -4.000000 -0.000000 -2.000000
v -4.000000 -0.000000 -2.000000
v -4.000000 -0.000000 -2.000000
v -2.000000 0.250000 -1.000000
v -2.000000 0.250000 -1.000000
v -2.000000 0.250000 -1.000000
v -2.000000 0.250000 -1.000000
v -2.000000 0.250000 -1.000000
v -2.000000 0.250000 -1.000000
v -2.000000 0.250000 -1.000000
v -2.000000 0.250000 -0.000000
v -2.000000 0.250000 -0.000000
v -2.000000 0.250000 -0.000000
v -2.000000 0.250000 -0.000000
v -2.000000 0.250000 -0.000000
v 0.500000 0.750000 -2.000000
v 0.500000 0.750000 -2.000000
v 0.500000 0.750000 -2.000000
v 0.500000 0.750000 -2.000000
v 0.500000 0.750000 -2.000000
v 0.500000 0.750000 -2.000000
v 0.500000 0.750000 -1.000000
v 0.500000 0.750000 -1.000000
v 0.500000 0.750000 -1.000000
v 0.500000 0.750000 -1.000000
v 3.000000 0.750000 -1.000000
v 3.000000 0.750000 -1.000000
v 3.000000 0.750000 -1.000000
v 3.000000 0.750000 -1.000000
v 3.000000 0.750000 -1.000000
v 3.000000 0.750000 -1.000000
v -2.000000 0.000000 0.000000
v -2.000000 0.000000 0.000000
v -2.000000 0.000000 0.000000
v -2.000000 0.000000 0.000000
v -2.000000 0.000000 0.000000
v -2.000000 0.000000 0.000000
v -2.000000 0.750000 -1.000000
v -2.000000 0.750000 -1.000000
v -2.000000 0.750000 -1.000000
v -2.000000 0.750000 -1.000000
v -2.000000 0.750000 -1.000000
v -2.000000 0.750000 -0.000000
v -2.000000 0.750000 -0.000000
v -2.000000 0.750000 -0.000000
v -2.000000 0.750000 -0.000000
v -2.000000 0.750000 -0.000000
v -1.000000 0.750000 -2.500000
v -1.000000 0.750000 -2.500000
v -1.000000 0.750000 -2.500000
v -1.000000 0.750000 -2.500000
v -1.000000 0.750000 -2.500000
v -4.000000 0.750000 -2.500000
v -4.000000 0.750000 -2.500000
v -4.000000 0.750000 -2.500000
v -4.000000 0.750000 -2.500000
v -4.000000 0.750000 -2.500000
v -2.000000 1.000000 -0.000000
v -2.000000 1.000000 -0.000000
v -2.000000 1.000000 -0.000000
v -2.000000 1.000000 -0.000000
v -2.000000 1.000000 -0.000000
v -2.000000 1.000000 -0.000000
v -4.000000 1.000000 -2.000000
v -4.000000 1.000000 -2.000000
v -4.000000 1.000000 -2.000000
v -4.000000 1.000000 -2.000000
v -2.000000 1.000000 -2.628906
v -2.000000 1.000000 -2.628906
v -2.000000 1.000000 -2.628906
v -2.000000 1.000000 -2.628906
v -2.000000 1.000000 -2.628906
v 0.500000 0.250000 -1.000000
v 0.500000 0.250000 -1.000000
v 0.500000 0.250000 -1.000000
v 0.500000 0.250000 -1.000000
v 3.000000 0.750000 -2.000000
v 3.000000 0.750000 -2.000000
v 3.000000 0.750000 -2.000000
v 3.000000 0.750000 -2.000000
v 5.000000 0.750000 -2.000000
v 5.000000 0.750000 -2.000000
v 5.000000 0.750000 -2.000000
v 5.000000 0.750000 -2.000000
v 5.000000 0.750000 -2.000000
v 5.000000 0.750000 -2.000000
v 5.000000 0.750000 -2.000000
v 5.000000 0.250000 -2.000000
v 5.000000 0.250000 -2.000000
v 5.000000 0.250000 -2.000000
v 5.000000 0.250000 -2.000000
v 5.000000 0.250000 -2.000000
v 5.000000 0.250000 -2.000000
v 5.000000 0.250000 -2.000000
v 5.000000 0.250000 -2.000000
v 5.000000 0.250000 -2.000000
v 5.000000 0.250000 -2.500000
v 5.000000 0.250000 -2.500000
v 5.000000 0.250000 -2.500000
v 5.000000 0.250000 -2.500000
v 5.000000 0.250000 -2.500000
v 5.000000 -0.000000 -2.500000
v 5.000000 -0.000000 -2.500000
v 5.000000 -0.000000 -2.500000
v 5.000000 -0.000000 -2.500000
v 5.000000 -0.000000 -2.500000
v 3.000000 0.250000 -0.000000
v 3.000000 0.250000 -0.000000
v 3.000000 0.250000 -0.000000
v 3.000000 0.250000 -0.000000
v 3.000000 0.250000 -0.000000
v 3.000000 0.250000 -1.000000
v 3.000000 0.250000 -1.000000
v 3.000000 0.250000 -1.000000
v 3.000000 0.250000 -1.000000
v 3.000000 0.250000 -1.000000
v 3.000000 0.250000 -1.000000
v 3.000000 0.250000 -2.000000
v 3.000000 0.250000 -2.000000
v 3.000000 0.250000 -2.000000
v 3.000000 0.250000 -2.000000
v 0.500000 0.250000 -2.000000
v 0.500000 0.250000 -2.000000
v 0.500000 0.250000 -2.000000
v 0.500000 0.250000 -2.000000
v 0.500000 0.250000 -2.000000
v 0.500000 0.250000 -2.000000
v 3.000000 0.000000 0.000000
v 3.000000 0.000000 0.000000
v 3.000000 0.000000 0.000000
v 3.000000 0.000000 0.000000
v 3.000000 0.000000 0.000000
v 3.000000 0.000000 0.000000
v 3.000000 0.750000 -0.000000
v 3.000000 0.750000 -0.000000
v 3.000000 0.750000 -0.000000
v 3.000000 0.750000 -0.000000
v 3.000000 0.750000 -0.000000
v 5.000000 0.750000 -2.500000
v 5.000000 0.750000 -2.500000
v 5.000000 0.750000 -2.500000
v 5.000000 0.750000 -2.500000
v 5.000000 0.750000 -2.500000
v 2.000000 0.750000 -2.500000
v 2.000000 0.750000 -2.500000
v 2.000000 0.750000 -2.500000
v 2.000000 0.750000 -2.500000
v 2.000000 0.750000 -2.500000
v 2.000000 0.750000 -2.500000
v 2.000000 0.750000 -2.500000
v 3.000000 1.000000 -0.000000
v 3.000000 1.000000 -0.000000
v 3.000000 1.000000 -0.000000
v 3.000000 1.000000 -0.000000
v 3.000000 1.000000 -0.000000
v 3.000000 1.000000 -0.000000
v 5.000000 1.000000 -2.000000
v 5.000000 1.000000 -2.000000
v 5.000000 1.000000 -2.000000
v 3.000000 1.000000 -2.628906
v 3.000000 1.000000 -2.628906
v 3.000000 1.000000 -2.628906
v 3.000000 1.000000 -2.628906
v 3.000000 1.000000 -2.628906
v 5.000000 1.000000 -5.000000
v 5.000000 1.000000 -5.000000
v 5.000000 1.000000 -5.000000
v 5.000000 1.000000 -5.000000
v 3.000000 1.000000 -4.371094
v 3.000000 1.000000 -4.371094
v 3.000000 1.000000 -4.371094
v 3.000000 1.000000 -4.371094
v 3.000000 1.000000 -4.371094
v 3.000000 1.000000 -4.371094
v 3.000000 1.000000 -4.371094
v 5.000000 1.000000 -4.500000
v 5.000000 1.000000 -4.500000
v 5.000000 1.000000 -4.500000
v 5.000000 1.000000 -4.500000
v -2.000000 0.999999 -8.000000
v -2.000000 0.999999 -8.000000
v -2.000000 0.999999 -8.000000
v -2.000000 0.999999 -8.000000
v -2.000000 0.999999 -8.000000
v -2.000000 -0.000001 -8.000000
v -2.000000 -0.000001 -8.000000
v -2.000000 -0.000001 -8.000000
v -2.000000 -0.000001 -8.000000
v 3.000000 1.000000 1.000000
v 3.000000 1.000000 1.000000
v 3.000000 1.000000 1.000000
v 3.000000 1.000000 1.000000
v 3.000000 0.000000 1.000000
v 3.000000 0.000000 1.000000
v 3.000000 0.000000 1.000000
v 3.000000 0.000000 1.000000
v 3.000000 0.250000 -5.000000
v 3.000000 0.250000 -5.000000
v 3.000000 0.250000 -5.000000
v -2.000000 0.250000 -5.000000
v -2.000000 0.250000 -5.000000
v -2.000000 0.250000 -5.000000
v -2.000000 0.250000 -5.000000
v -2.000000 0.250000 -2.000000
v -2.000000 0.250000 -2.000000
v -2.000000 0.250000 -2.000000
v -1.000000 0.250000 -2.500000
v -1.000000 0.250000 -2.500000
v -1.000000 0.250000 -2.500000
v -1.000000 0.250000 -2.500000
v -1.000000 0.250000 -2.500000
v -2.000000 1.000000 1.000000
v -2.000000 1.000000 1.000000
v -2.000000 1.000000 1.000000
v -2.000000 1.000000 1.000000
v -2.000000 1.000000 1.000000
v -2.000000 1.000000 1.000000
v 3.000000 0.999999 -8.000000
v 3.000000 0.999999 -8.000000
v 3.000000 0.999999 -8.000000
v 3.000000 0.999999 -8.000000
v 3.000000 0.999999 -8.000000
v 2.000000 0.250000 -2.500000
v 2.000000 0.250000 -2.500000
v 2.000000 0.250000 -2.500000
v 2.000000 0.250000 -2.500000
v 2.000000 0.250000 -2.500000
v 5.000000 1.000000 -2.500000
v 5.000000 1.000000 -2.500000
v 5.000000 1.000000 -2.500000
v 5.000000 1.000000 -2.500000
v 5.000000 1.000000 -2.500000
v 5.000000 1.000000 -2.500000
v -1.156250 1.000000 0.500000
v -1.156250 1.000000 0.500000
v -1.156250 1.000000 0.500000
v -3.101562 3.000000 -2.007813
v -3.101562 3.000000 -2.007813
v -3.101562 3.000000 -2.007813
v -3.101562 3.000000 -2.007813
v -3.101562 3.000000 -2.007813
v -3.101562 3.000000 -2.007813
v -3.500000 1.000000 -1.843750
v 4.101562 3.000000 -4.992188
v 4.101562 3.000000 -4.992188
v 4.101562 3.000000 -4.992188
v 4.101562 3.000000 -4.992188
v 4.101562 3.000000 -4.992188
v 4.101562 3.000000 -4.992188
v 4.500000 1.000000 -5.156250
v 4.500000 1.000000 -1.843750
v 4.500000 1.000000 -1.843750
v -0.992188 3.000000 -7.101562
v -0.992188 3.000000 -7.101562
v -0.992188 3.000000 -7.101562
v -0.992188 3.000000 -7.101562
v -0.992188 3.000000 -7.101562
v -0.992188 3.000000 -7.101562
v -1.156250 0.999999 -7.500000
v -1.156250 0.999999 -7.500000
v 2.156250 0.999999 -7.500000
v 2.156250 0.999999 -7.500000
v 2.156250 0.999999 -7.500000
v -3.101562 3.000000 -4.992188
v -3.101562 3.000000 -4.992188
v -3.101562 3.000000 -4.992188
v -3.101562 3.000000 -4.992188
v -3.500000 1.000000 -5.156250
v -3.500000 1.000000 -5.156250
v 1.992188 3.000000 0.101562
v 1.992188 3.000000 0.101562
v 1.992188 3.000000 0.101562
v 1.992188 3.000000 0.101562
v 1.992188 3.000000 0.101562
v 1.992188 3.000000 0.101562
v 2.156250 1.000000 0.500000
v 2.156250 1.000000 0.500000
v -0.992188 3.000000 0.101562
v -0.992188 3.000000 0.101562
v -0.992188 3.000000 0.101562
v -0.992188 3.000000 0.101562
v -2.738281 5.000000 -2.156250
v -2.738281 5.000000 -2.156250
v -2.738281 5.000000 -2.156250
v -2.738281 5.000000 -2.156250
v -2.738281 5.000000 -2.156250
v 4.101562 3.000000 -2.007813
v 4.101562 3.000000 -2.007813
v 4.101562 3.000000 -2.007813
v 4.101562 3.000000 -2.007813
v 1.843750 5.000000 -6.738282
v 1.843750 5.000000 -6.738282
v 1.843750 5.000000 -6.738282
v 1.843750 5.000000 -6.738282
v 1.843750 5.000000 -6.738282
v 3.738281 5.000000 -4.843750
v 3.738281 5.000000 -4.843750
v 3.738281 5.000000 -4.843750
v 3.738281 5.000000 -4.843750
v 3.738281 5.000000 -4.843750
v 3.414062 7.000000 -4.707032
v 3.414062 7.000000 -4.707032
v 3.414062 7.000000 -4.707032
v 3.414062 7.000000 -4.707032
v 3.414062 7.000000 -4.707032
v 3.414062 7.000000 -4.707032
v 3.738281 5.000000 -2.156250
v 3.738281 5.000000 -2.156250
v 3.738281 5.000000 -2.156250
v 3.738281 5.000000 -2.156250
v 3.738281 5.000000 -2.156250
v -0.843750 5.000000 -6.738282
v -0.843750 5.000000 -6.738282
v -0.843750 5.000000 -6.738282
v -0.843750 5.000000 -6.738282
v -0.843750 5.000000 -6.738282
v -2.738281 5.000000 -4.843750
v -2.738281 5.000000 -4.843750
v -2.738281 5.000000 -4.843750
v -2.738281 5.000000 -4.843750
v -2.738281 5.000000 -4.843750
v -0.843750 5.000000 -0.261719
v -0.843750 5.000000 -0.261719
v -0.843750 5.000000 -0.261719
v -0.843750 5.000000 -0.261719
v -0.843750 5.000000 -0.261719
v 1.992188 3.000000 -7.101562
v 1.992188 3.000000 -7.101562
v 1.992188 3.000000 -7.101562
v 1.992188 3.000000 -7.101562
v 1.843750 5.000000 -0.261719
v 1.843750 5.000000 -0.261719
v 1.843750 5.000000 -0.261719
v 1.843750 5.000000 -0.261719
v 1.843750 5.000000 -0.261719
v -2.414062 7.000000 -2.292969
v -2.414062 7.000000 -2.292969
v -2.414062 7.000000 -2.292969
v -2.414062 7.000000 -2.292969
v -2.414062 7.000000 -2.292969
v -2.414062 7.000000 -2.292969
v -2.824219 9.500000 -2.121094
v -2.824219 9.500000 -2.121094
v -2.824219 9.500000 -2.121094
v -2.824219 9.500000 -2.121094
v -2.824219 9.500000 -2.121094
v -0.878906 9.500000 -0.175782
v -0.878906 9.500000 -0.175782
v -0.878906 9.500000 -0.175782
v -0.878906 9.500000 -0.175782
v 1.707031 7.000000 -0.585938
v 1.707031 7.000000 -0.585938
v 1.707031 7.000000 -0.585938
v 3.414062 7.000000 -2.292969
v 3.414062 7.000000 -2.292969
v 3.414062 7.000000 -2.292969
v 3.414062 7.000000 -2.292969
v 3.414062 7.000000 -2.292969
v 3.414062 7.000000 -2.292969
v -0.707031 7.000000 -6.414063
v -0.707031 7.000000 -6.414063
v -0.707031 7.000000 -6.414063
v -0.707031 7.000000 -6.414063
v -2.414062 7.000000 -4.707032
v -2.414062 7.000000 -4.707032
v -2.414062 7.000000 -4.707032
v -2.414062 7.000000 -4.707032
v -2.414062 7.000000 -4.707032
v -2.414062 7.000000 -4.707032
v 1.707031 7.000000 -6.414063
v 1.707031 7.000000 -6.414063
v 1.707031 7.000000 -6.414063
v 1.707031 7.000000 -6.414063
v -0.707031 7.000000 -0.585938
v -0.707031 7.000000 -0.585938
v -0.707031 7.000000 -0.585938
v -0.707031 7.000000 -0.585938
v -0.707031 7.000000 -0.585938
v -1.031250 9.999999 -7.195313
v -1.031250 9.999999 -7.195313
v -1.031250 9.999999 -7.195313
v -1.031250 9.999999 -7.195313
v -1.031250 9.999999 -7.195313
v -1.031250 9.999999 -7.195313
v -1.031250 9.499999 -7.195313
v -1.031250 9.499999 -7.195313
v -1.031250 9.499999 -7.195313
v -1.031250 9.499999 -7.195313
v -1.031250 9.499999 -7.195313
v 2.031250 9.499999 -7.195313
v 2.031250 9.499999 -7.195313
v 2.031250 9.499999 -7.195313
v 2.031250 9.499999 -7.195313
v 2.031250 9.499999 -7.195313
v 2.031250 9.499999 -7.195313
v 2.031250 9.999999 -7.195313
v 2.031250 9.999999 -7.195313
v 2.031250 9.999999 -7.195313
v 2.031250 9.999999 -7.195313
v 2.031250 9.999999 -7.195313
v 4.195312 9.500000 -5.031251
v 4.195312 9.500000 -5.031251
v 4.195312 9.500000 -5.031251
v 4.195312 9.500000 -5.031251
v 4.195312 10.000000 -5.031251
v 4.195312 10.000000 -5.031251
v 4.195312 10.000000 -5.031251
v 4.195312 10.000000 -5.031251
v 4.195312 10.000000 -5.031251
v 4.195312 9.500000 -1.968751
v 4.195312 9.500000 -1.968751
v 4.195312 9.500000 -1.968751
v 4.195312 9.500000 -1.968751
v 4.195312 9.500000 -1.968751
v 4.195312 10.000000 -1.968751
v 4.195312 10.000000 -1.968751
v 4.195312 10.000000 -1.968751
v 4.195312 10.000000 -1.968751
v 2.031250 9.500000 0.195312
v 2.031250 9.500000 0.195312
v 2.031250 9.500000 0.195312
v 2.031250 9.500000 0.195312
v 2.031250 9.500000 0.195312
v 2.031250 10.000000 0.195312
v 2.031250 10.000000 0.195312
v 2.031250 10.000000 0.195312
v 2.031250 10.000000 0.195312
v 2.031250 10.000000 0.195312
v 2.031250 10.000000 0.195312
v -1.031250 9.500000 0.195312
v -1.031250 9.500000 0.195312
v -1.031250 9.500000 0.195312
v -1.031250 9.500000 0.195312
v -1.031250 9.500000 0.195312
v -1.031250 9.500000 0.195312
v -1.031250 10.000000 0.195312
v -1.031250 10.000000 0.195312
v -1.031250 10.000000 0.195312
v -1.031250 10.000000 0.195312
v -1.031250 10.000000 0.195312
v -3.195312 9.500000 -1.968751
v -3.195312 9.500000 -1.968751
v -3.195312 9.500000 -1.968751
v -3.195312 9.500000 -1.968751
v 3.824219 10.000000 -4.878907
v 3.824219 10.000000 -4.878907
v 3.824219 10.000000 -4.878907
v 3.824219 10.000000 -4.878907
v 3.824219 10.000000 -4.878907
v -3.195312 10.000000 -1.968751
v -3.195312 10.000000 -1.968751
v -3.195312 10.000000 -1.968751
v -3.195312 10.000000 -1.968751
v -3.195312 10.000000 -1.968751
v -3.195312 9.500000 -5.031251
v -3.195312 9.500000 -5.031251
v -3.195312 9.500000 -5.031251
v -3.195312 9.500000 -5.031251
v -3.195312 9.500000 -5.031251
v -3.195312 10.000000 -5.031251
v -3.195312 10.000000 -5.031251
v -3.195312 10.000000 -5.031251
v -3.195312 10.000000 -5.031251
v 3.824219 9.500000 -2.121094
v 3.824219 9.500000 -2.121094
v 3.824219 9.500000 -2.121094
v 3.824219 9.500000 -2.121094
v 3.824219 9.500000 -2.121094
v 1.878906 9.500000 -0.175782
v 1.878906 9.500000 -0.175782
v 1.878906 9.500000 -0.175782
v 1.878906 9.500000 -0.175782
v 1.878906 9.500000 -0.175782
v 1.878906 9.500000 -0.175782
v 1.878906 9.499999 -6.824220
v 1.878906 9.499999 -6.824220
v 1.878906 9.499999 -6.824220
v 1.878906 9.499999 -6.824220
v 1.878906 9.499999 -6.824220
v 3.824219 9.500000 -4.878907
v 3.824219 9.500000 -4.878907
v 3.824219 9.500000 -4.878907
v 3.824219 9.500000 -4.878907
v 3.824219 9.500000 -4.878907
v -2.824219 9.500000 -4.878907
v -2.824219 9.500000 -4.878907
v -2.824219 9.500000 -4.878907
v -2.824219 9.500000 -4.878907
v -2.824219 9.500000 -4.878907
v -0.878906 9.499999 -6.824220
v -0.878906 9.499999 -6.824220
v -0.878906 9.499999 -6.824220
v -0.878906 9.499999 -6.824220
v -0.878906 9.499999 -6.824220
v 1.878906 9.999999 -6.824220
v 1.878906 9.999999 -6.824220
v 1.878906 9.999999 -6.824220
v 1.878906 9.999999 -6.824220
v 1.878906 9.999999 -6.824220
v 3.492188 8.000000 -4.738282
v 3.492188 8.000000 -4.738282
v 3.492188 8.000000 -4.738282
v 3.492188 8.000000 -4.738282
v -0.878906 10.000000 -0.175782
v -0.878906 10.000000 -0.175782
v -0.878906 10.000000 -0.175782
v -0.878906 10.000000 -0.175782
v -0.878906 10.000000 -0.175782
v -0.878906 10.000000 -0.175782
v -0.878906 9.999999 -6.824220
v -0.878906 9.999999 -6.824220
v -0.878906 9.999999 -6.824220
v -0.878906 9.999999 -6.824220
v -0.878906 9.999999 -6.824220
v -2.824219 10.000000 -4.878907
v -2.824219 10.000000 -4.878907
v -2.824219 10.000000 -4.878907
v -2.824219 10.000000 -4.878907
v -2.824219 10.000000 -4.878907
v 3.824219 10.000000 -2.121094
v 3.824219 10.000000 -2.121094
v 3.824219 10.000000 -2.121094
v 3.824219 10.000000 -2.121094
v 3.824219 10.000000 -2.121094
v -2.824219 10.000000 -2.121094
v -2.824219 10.000000 -2.121094
v -2.824219 10.000000 -2.121094
v -2.824219 10.000000 -2.121094
v -2.824219 10.000000 -2.121094
v 1.878906 10.000000 -0.175782
v 1.878906 10.000000 -0.175782
v 1.878906 10.000000 -0.175782
v 1.878906 10.000000 -0.175782
v 1.738281 8.000000 -0.507813
v 1.738281 8.000000 -0.507813
v 1.738281 8.000000 -0.507813
v 1.738281 8.000000 -0.507813
v 1.738281 8.000000 -0.507813
v 1.738281 8.000000 -0.507813
v 3.492188 8.000000 -2.261719
v 3.492188 8.000000 -2.261719
v 3.492188 8.000000 -2.261719
v 3.492188 8.000000 -2.261719
v -2.492188 8.000000 -4.738282
v -2.492188 8.000000 -4.738282
v -2.492188 8.000000 -4.738282
v -2.492188 8.000000 -4.738282
v -0.738281 8.000000 -0.507813
v -0.738281 8.000000 -0.507813
v -0.738281 8.000000 -0.507813
v 1.738281 8.000000 -6.492188
v 1.738281 8.000000 -6.492188
v 1.738281 8.000000 -6.492188
v 1.738281 8.000000 -6.492188
v -0.738281 8.000000 -6.492188
v -0.738281 8.000000 -6.492188
v -0.738281 8.000000 -6.492188
v -0.738281 8.000000 -6.492188
v -0.738281 8.000000 -6.492188
v -2.492188 8.000000 -2.261719
v -2.492188 8.000000 -2.261719
v -2.492188 8.000000 -2.261719
v -2.492188 8.000000 -2.261719
v -4.000000 -0.000000 -5.000000
v -4.000000 -0.000000 -5.000000
v -4.000000 -0.000000 -5.000000
v 2.000000 0.250000 -4.500000
v 2.000000 0.250000 -4.500000
v 2.000000 0.250000 -4.500000
v -4.000000 -0.000000 -2.500000
v -4.000000 -0.000000 -2.500000
v -4.000000 -0.000000 -2.500000
v -4.000000 -0.000000 -2.500000
v 5.000000 -0.000000 -2.000000
v 5.000000 -0.000000 -2.000000
v 5.000000 -0.000000 -2.000000
v -2.000000 0.000000 1.000000
v -2.000000 0.000000 1.000000
v -2.000000 0.000000 1.000000
v -2.000000 0.000000 1.000000
v 3.000000 -0.000001 -8.000000
v 3.000000 -0.000001 -8.000000
v 3.000000 -0.000001 -8.000000
v 3.000000 -0.000001 -8.000000
v -2.000000 -0.000000 -5.000000
v -2.000000 -0.000000 -5.000000
v -2.000000 -0.000000 -5.000000
v -2.000000 -0.000000 -5.000000
v -2.000000 -0.000000 -5.000000
v 3.000000 -0.000000 -5.000000
v 3.000000 -0.000000 -5.000000
v 3.000000 -0.000000 -5.000000
v 3.000000 -0.000000 -5.000000
v 3.000000 -0.000000 -5.000000
v -2.000000 -0.000000 -2.000000
v -2.000000 -0.000000 -2.000000
v -2.000000 -0.000000 -2.000000
v -2.000000 -0.000000 -2.000000
v -2.000000 -0.000000 -2.000000
v -2.000000 -0.000000 -2.000000
v 3.000000 -0.000000 -2.000000
v 3.000000 -0.000000 -2.000000
v 3.000000 -0.000000 -2.000000
v 3.000000 -0.000000 -2.000000
v 3.000000 -0.000000 -2.000000
v 3.000000 -0.000000 -2.000000
vn -0.0000 1.0000 -0.0000
vn -0.0000 -0.0000 -1.0000
vn -1.0000 -0.0000 -0.0000
vn -0.7071 -0.0000 -0.7071
vn 1.0000 -0.0000 -0.0000
vn -0.0000 -0.0000 1.0000
vn -0.0000 -1.0000 -0.0000
vn 0.7071 -0.0000 -0.7071
vn -0.7071 -0.0000 0.7071
vn 0.7071 -0.0000 0.7071
vn -0.6935 0.1951 0.6935
vn 0.9807 0.1954 -0.0000
vn -0.0000 0.1954 -0.9807
vn -0.6935 0.1951 -0.6935
vn -0.0000 0.1954 0.9807
vn 0.6935 0.1951 -0.6935
vn -0.9807 0.1954 -0.0000
vn -0.6958 0.1780 0.6958
vn 0.6935 0.1951 0.6935
vn 0.6979 0.1608 -0.6979
vn 0.9839 0.1787 -0.0000
vn -0.6958 0.1780 -0.6958
vn -0.0000 0.1787 0.9839
vn 0.6958 0.1780 -0.6958
vn -0.9839 0.1787 -0.0000
vn 0.6958 0.1780 0.6958
vn -0.0000 0.1787 -0.9839
vn -0.6977 -0.1624 0.6977
vn 0.6979 0.1608 0.6979
vn -0.6979 0.1608 0.6979
vn -0.6979 0.1608 -0.6979
vn -0.0000 0.1600 -0.9871
vn 0.9871 0.1600 -0.0000
vn -0.0000 0.1600 0.9871
vn -0.9871 0.1600 -0.0000
vn -0.0000 -0.1619 0.9868
vn 0.9868 -0.1619 -0.0000
vn 0.6977 -0.1624 0.6977
vn -0.9868 -0.1619 -0.0000
vn -0.6977 -0.1624 -0.6977
vn -0.0000 -0.1619 -0.9868
vn 0.6977 -0.1624 -0.6977
vn -0.6974 0.1648 0.6974
vn 0.9865 0.1638 -0.0000
vn -0.0000 0.1638 -0.9865
vn -0.9865 0.1638 -0.0000
vn -0.0000 0.1638 0.9865
vn 0.6974 0.1648 0.6974
vn 0.6974 0.1648 -0.6974
vn -0.6974 0.1648 -0.6974
vt 0.205725 0.385182
vt 0.189497 0.623157
vt 0.439161 0.623157
vt 0.250000 0.000000
vt 0.000000 0.062500
vt 0.000000 0.000000
vt 0.281244 0.249988
vt 0.250018 0.187512
vt 0.281244 0.187512
vt 0.500000 0.593750
vt 0.250000 0.468750
vt 0.250000 0.343750
vt 0.390625 0.000000
vt 0.078125 0.062500
vt 0.078125 0.000000
vt 0.125037 0.593787
vt 0.499963 0.624963
vt 0.125037 0.624963
vt 0.375000 0.593774
vt 0.375000 0.624976
vt 0.250012 0.624976
vt 0.125047 0.250000
vt 0.250000 0.187547
vt 0.250000 0.250000
vt 0.125047 0.375047
vt 0.500000 0.500000
vt 0.500000 0.375047
vt 0.375000 0.000000
vt 0.250000 0.593750
vt 0.125000 0.625000
vt 0.500000 0.625000
vt 0.375000 0.372354
vt 0.312500 0.000000
vt 0.312500 0.062500
vt 0.250000 0.062500
vt 0.499963 0.593787
vt 0.125047 0.187547
vt 0.125047 0.500000
vt 0.375000 0.062500
vt 0.125047 0.624953
vt 0.125047 0.593797
vt 0.250000 0.593797
vt 0.500000 0.624977
vt 0.875000 0.500024
vt 0.875000 0.624976
vt 0.125055 0.624982
vt 0.500000 0.593768
vt 0.500000 0.624982
vt 0.125000 0.593768
vt 0.499945 0.624982
vt 0.125000 0.624982
vt 0.250000 0.372354
vt 0.127081 0.623157
vt 0.000000 0.507812
vt 0.000000 0.382812
vt 0.125000 0.414096
vt 0.453125 0.375047
vt 0.453125 0.500000
vt 0.328125 0.000000
vt 0.015625 0.062500
vt 0.015625 0.000000
vt 0.125000 0.500000
vt 0.390625 0.062500
vt 0.500000 0.500024
vt 0.125000 0.507812
vt 0.000000 0.476562
vt 0.000000 0.187500
vt 0.625000 0.187500
vt 0.625000 0.062563
vt 0.625000 0.062564
vt 0.460931 0.793082
vt 0.062501 0.870112
vt 0.062501 0.793082
vt 0.250000 0.624953
vt 0.250012 0.593774
vt 0.125024 0.624976
vt 0.972192 0.624140
vt 0.523496 0.879859
vt 0.499793 0.624146
vt 0.948656 0.879853
vt 0.448656 0.626268
vt 0.044838 0.881935
vt 0.023496 0.626274
vt 0.427482 0.881929
vt 0.427482 0.625993
vt 0.064054 0.881617
vt 0.044838 0.625998
vt 0.408433 0.881612
vt 0.039950 0.945365
vt 0.408433 0.625830
vt 0.432747 0.945359
vt 0.390625 0.007897
vt 0.032673 0.054688
vt 0.015709 0.007897
vt 0.064054 0.625835
vt 0.373661 0.054688
vt 0.630624 0.261910
vt 0.932656 0.012023
vt 0.948551 0.261910
vt 0.731756 0.012109
vt 0.736296 0.016649
vt 0.736296 0.023071
vt 0.646522 0.012023
vt 0.501577 0.623157
vt 0.422933 0.385182
vt 0.374994 0.249988
vt 0.343744 0.249988
vt 0.374994 0.187512
vt 0.343744 0.187512
vt 0.250018 0.249988
vt 0.125024 0.593773
vt 0.374953 0.593797
vt 0.374953 0.624953
vt 0.125055 0.593769
vt 0.499945 0.593769
vt 0.125000 0.382846
vt 0.125000 0.476596
vt 0.328125 0.062500
vt 0.125000 0.375047
vt 0.000000 0.414062
vt 0.000000 0.437500
vt 0.625000 0.437500
vt 0.460931 0.870112
vt 0.015709 0.062500
vt 0.731756 0.027611
vt 0.725334 0.027611
vt 0.720794 0.023071
vt 0.720794 0.016649
vt 0.725334 0.012109
vt 0.500000 0.000000
vt 0.000000 0.500000
vt 0.500000 0.125000
vt 0.000000 0.750000
vt 0.000000 0.117188
vt 0.554688 0.117188
vt 0.500000 0.750000
vt 0.554688 0.328125
vt 0.000000 0.328125
vt 0.554688 0.671875
vt 0.000000 0.671875
vt 0.000000 0.882812
vt 0.554688 0.882812
vt 0.554688 1.000000
vt 0.000000 1.000000
vt 0.554688 0.000000
vt 0.000000 0.875000
vt 0.625000 1.000000
vt 0.625000 0.750000
vt 0.625000 0.875000
s 1
usemtl m_79e3888a-3520-ff23-b839-e8219816cc70
f 177/1/1 187/2/1 182/3/1
f 192/4/2 203/5/2 196/6/2
f 204/7/3 218/8/3 212/9/3
f 205/10/1 229/11/1 224/12/1
f 235/13/2 246/14/2 240/15/2
f 252/16/4 206/17/4 225/18/4
f 257/19/5 267/20/5 262/21/5
f 275/22/3 230/23/3 280/24/3
f 286/25/1 213/26/1 291/27/1
f 214/5/6 302/28/6 296/6/6
f 197/10/7 281/11/7 193/29/7
f 307/30/1 314/31/1 178/32/1
f 198/10/4 308/30/4 276/16/4
f 317/5/6 328/33/6 324/34/6
f 297/26/7 337/25/7 332/27/7
f 342/6/2 236/35/2 349/5/2
f 268/7/5 356/8/5 343/9/5
f 318/11/1 344/10/1 360/12/1
f 345/18/8 365/36/8 361/17/8
f 319/24/5 377/37/5 372/23/5
f 382/38/1 387/27/1 287/26/1
f 392/39/6 269/6/6 397/5/6
f 403/38/7 398/27/7 408/26/7
f 270/26/1 383/25/1 263/27/1
f 188/40/3 298/41/3 333/42/3
f 350/10/7 373/11/7 378/12/7
f 374/43/7 241/44/7 329/45/7
f 413/17/8 351/16/8 379/36/8
f 418/6/6 432/35/6 425/5/6
f 437/7/3 444/8/3 419/9/3
f 448/11/1 420/10/1 455/12/1
f 460/44/7 470/43/7 466/45/7
f 421/46/9 476/47/9 456/48/9
f 449/37/3 487/24/3 482/22/3
f 492/39/2 438/6/2 497/5/2
f 426/10/7 483/11/7 488/12/7
f 502/30/1 512/32/1 508/31/1
f 503/17/9 427/16/9 489/36/9
f 471/5/2 517/33/2 467/34/2
f 521/4/6 532/5/6 525/6/6
f 533/7/5 546/8/5 541/9/5
f 534/10/1 556/11/1 551/12/1
f 562/13/6 461/14/6 566/15/6
f 572/49/10 535/50/10 552/51/10
f 578/22/5 557/23/5 472/24/5
f 542/6/2 588/39/2 583/5/2
f 526/10/7 473/11/7 522/29/7
f 558/25/1 567/26/1 518/27/1
f 527/10/10 595/18/10 579/16/10
f 601/30/1 604/52/1 596/31/1
f 414/30/1 613/32/1 609/31/1
f 620/2/1 610/53/1 614/1/1
f 624/54/3 629/55/3 226/56/3
f 633/54/5 637/55/5 553/56/5
f 282/44/7 242/43/7 194/45/7
f 325/33/6 283/5/6 231/6/6
f 320/57/1 247/38/1 641/58/1
f 243/59/2 644/60/2 195/61/2
f 450/27/1 568/62/1 648/26/1
f 569/59/6 433/60/6 649/61/6
f 468/33/2 451/5/2 484/6/2
f 462/43/7 485/44/7 434/45/7
f 388/61/6 393/63/6 303/60/6
f 304/45/7 404/64/7 338/44/7
f 589/13/2 651/60/2 493/61/2
f 656/65/3 504/54/3 490/66/3
f 597/67/1 505/68/1 657/69/1
f 309/67/1 415/68/1 662/70/1
f 615/71/7 513/72/7 179/73/7
f 663/65/5 44/54/5 380/66/5
f 264/27/1 667/38/1 543/26/1
f 668/38/1 288/27/1 652/26/1
f 653/25/1 292/26/1 439/27/1
f 293/74/3 217/40/3 219/41/3
f 232/38/1 248/27/1 326/26/1
f 339/45/7 590/64/7 494/44/7
f 591/38/7 409/27/7 584/26/7
f 334/26/7 495/25/7 498/27/7
f 410/75/5 621/20/5 672/76/5
f 678/77/11 681/78/11 687/79/11
f 688/80/12 695/79/12 694/77/12
f 697/80/13 705/79/13 703/77/13
f 708/80/14 704/79/14 712/77/14
f 714/80/15 679/79/15 720/77/15
f 706/77/16 689/78/16 100/79/16
f 682/80/17 713/79/17 97/77/17
f 722/81/18 726/82/18 683/83/18
f 731/80/19 721/79/19 696/77/19
f 735/81/20 745/82/20 740/83/20
f 690/81/21 751/82/21 732/83/21
f 698/83/22 761/84/22 756/82/22
f 715/81/23 766/82/23 723/83/23
f 771/85/24 741/86/24 691/87/24
f 684/81/25 762/82/25 709/83/25
f 716/83/26 752/84/26 775/82/26
f 699/81/27 736/82/27 772/83/27
f 780/87/28 791/88/28 786/86/28
f 776/87/29 798/88/29 795/86/29
f 767/89/30 781/90/30 727/91/30
f 757/87/31 808/88/31 804/86/31
f 758/85/32 814/86/32 737/87/32
f 742/85/33 799/86/33 753/87/33
f 777/85/34 818/86/34 768/87/34
f 728/85/35 809/86/35 763/87/35
f 823/63/2 834/61/2 829/13/2
f 840/63/8 845/61/8 835/13/8
f 849/63/5 854/61/5 846/13/5
f 859/63/10 863/61/10 855/13/10
f 868/63/6 874/61/6 864/13/6
f 880/63/9 885/61/9 875/13/9
f 841/92/1 889/93/1 850/94/1
f 894/63/3 899/61/3 886/13/3
f 904/63/4 830/61/4 900/13/4
f 865/92/7 908/93/7 856/94/7
f 819/91/36 913/95/36 792/90/36
f 901/92/7 787/93/7 887/94/7
f 836/94/7 924/96/7 919/93/7
f 876/92/7 914/93/7 866/94/7
f 831/92/7 929/93/7 902/94/7
f 837/92/7 934/93/7 832/94/7
f 857/92/7 925/93/7 847/94/7
f 877/94/7 788/96/7 793/93/7
f 909/89/37 746/90/37 926/91/37
f 800/91/38 915/95/38 796/90/38
f 782/89/39 930/90/39 810/91/39
f 811/89/40 935/90/40 805/91/40
f 806/89/41 920/90/41 815/91/41
f 747/91/42 921/95/42 927/90/42
f 939/97/43 944/98/43 890/99/43
f 869/92/1 948/93/1 881/94/1
f 824/94/1 959/96/1 954/93/1
f 825/92/1 940/93/1 842/94/1
f 851/92/1 964/93/1 860/94/1
f 882/92/1 969/93/1 895/94/1
f 870/94/1 965/96/1 974/93/1
f 896/92/1 960/93/1 905/94/1
f 978/100/1 984/101/1 945/102/1
f 970/97/44 988/98/44 961/99/44
f 949/99/45 979/103/45 992/98/45
f 891/97/46 985/98/46 966/99/46
f 955/97/47 995/98/47 941/99/47
f 956/99/48 989/103/48 999/98/48
f 950/97/49 1004/98/49 971/99/49
f 975/99/50 986/103/50 980/98/50
f 509/104/1 514/105/1 183/3/1
f 516/105/1 180/1/1 185/3/1
f 181/1/1 315/53/1 189/2/1
f 4/4/2 645/35/2 207/5/2
f 316/106/3 199/107/3 190/108/3
f 200/107/3 208/7/3 299/109/3
f 2/108/3 201/107/3 300/109/3
f 209/7/3 1008/110/3 220/8/3
f 216/9/3 301/109/3 210/7/3
f 211/10/1 646/29/1 233/11/1
f 237/13/2 642/63/2 251/14/2
f 253/16/4 1009/36/4 5/17/4
f 544/76/5 547/111/5 265/21/5
f 548/111/5 258/19/5 266/21/5
f 277/22/3 227/37/3 234/23/3
f 289/25/1 389/38/1 215/26/1
f 8/5/6 391/39/6 305/28/6
f 202/10/7 279/12/7 285/11/7
f 6/10/4 25/31/4 313/30/4
f 322/5/6 37/6/6 27/33/6
f 23/26/7 306/38/7 340/25/7
f 346/6/2 643/4/2 11/35/2
f 347/9/5 352/109/5 271/7/5
f 353/109/5 611/108/5 399/107/5
f 274/7/5 355/109/5 401/107/5
f 81/108/5 622/106/5 400/107/5
f 273/7/5 259/110/5 357/8/5
f 26/11/1 87/29/1 348/10/1
f 31/18/8 358/16/8 366/36/8
f 323/24/5 362/22/5 381/37/5
f 384/38/1 1011/25/1 390/27/1
f 394/39/6 1012/28/6 272/6/6
f 405/38/7 395/25/7 402/27/7
f 16/26/1 1013/38/1 386/25/1
f 335/42/3 499/112/3 184/113/3
f 186/113/3 191/40/3 336/42/3
f 354/10/7 238/29/7 375/11/7
f 376/43/7 239/64/7 244/44/7
f 417/17/8 612/18/8 32/16/8
f 422/6/6 650/4/6 435/35/6
f 423/9/3 428/109/3 440/7/3
f 429/109/3 510/108/3 500/107/3
f 443/7/3 47/109/3 59/107/3
f 511/108/3 3/106/3 501/107/3
f 441/7/3 1014/110/3 445/8/3
f 453/11/1 89/29/1 45/10/1
f 463/44/7 523/64/7 474/43/7
f 424/46/9 446/114/9 477/47/9
f 454/37/3 457/23/3 491/24/3
f 58/39/2 655/28/2 48/6/2
f 430/10/7 436/29/7 486/11/7
f 507/17/9 62/18/9 431/16/9
f 475/5/2 560/6/2 63/33/2
f 524/4/6 563/35/6 536/5/6
f 602/106/5 528/107/5 673/108/5
f 529/107/5 537/7/5 585/109/5
f 674/108/5 66/107/5 586/109/5
f 538/7/5 1018/110/5 549/8/5
f 545/9/5 76/109/5 539/7/5
f 540/10/1 564/29/1 559/11/1
f 565/13/6 64/63/6 52/14/6
f 573/49/10 1019/115/10 65/50/10
f 580/22/5 554/37/5 561/23/5
f 68/6/2 669/28/2 592/39/2
f 530/10/7 582/12/7 53/11/7
f 69/25/1 71/38/1 72/26/1
f 531/10/10 603/17/10 600/18/10
f 616/1/1 605/105/1 675/3/1
f 79/105/1 78/104/1 677/3/1
f 94/3/1 82/2/1 80/1/1
f 254/116/3 228/56/3 630/55/3
f 10/56/3 278/117/3 625/54/3
f 18/117/3 310/65/3 626/54/3
f 574/116/5 555/56/5 638/55/5
f 70/56/5 581/117/5 634/54/5
f 74/117/5 598/65/5 635/54/5
f 284/44/7 330/64/7 13/43/7
f 28/33/6 331/34/6 19/5/6
f 321/57/1 327/25/1 12/38/1
f 245/59/2 249/118/2 647/60/2
f 452/27/1 519/119/1 571/62/1
f 570/59/6 464/118/6 46/60/6
f 469/33/2 520/34/2 50/5/2
f 465/43/7 54/64/7 57/44/7
f 39/61/6 168/13/6 40/63/6
f 22/45/7 396/43/7 407/64/7
f 75/13/2 93/63/2 90/60/2
f 56/66/3 458/120/3 658/65/3
f 459/120/3 478/55/3 1021/116/3
f 659/65/3 51/120/3 1022/116/3
f 506/68/1 606/121/1 515/122/1
f 77/67/1 660/69/1 636/5/1
f 60/68/1 599/67/1 607/121/1
f 24/67/1 664/70/1 627/5/1
f 416/68/1 311/67/1 617/122/1
f 618/122/1 312/67/1 1/121/1
f 619/71/7 608/123/7 61/72/7
f 36/66/5 363/120/5 665/65/5
f 364/120/5 367/55/5 1025/116/5
f 666/65/5 34/120/5 1026/116/5
f 17/27/1 385/25/1 670/38/1
f 671/38/1 38/25/1 20/27/1
f 654/25/1 290/38/1 295/26/1
f 221/41/3 1015/112/3 294/74/3
f 169/112/3 442/113/3 21/74/3
f 9/38/1 88/25/1 250/27/1
f 29/45/7 406/43/7 593/64/7
f 594/38/7 42/25/7 412/27/7
f 30/26/7 341/38/7 496/25/7
f 676/76/5 587/111/5 43/75/5
f 411/75/5 41/19/5 623/20/5
f 680/77/11 724/80/11 685/78/11
f 692/80/12 734/78/12 99/79/12
f 701/80/13 773/78/13 707/79/13
f 710/80/14 700/78/14 103/79/14
f 718/80/15 725/78/15 95/79/15
f 102/77/16 774/80/16 693/78/16
f 686/80/17 711/78/17 105/79/17
f 108/81/18 770/84/18 730/82/18
f 733/80/19 717/78/19 107/79/19
f 111/81/20 816/84/20 748/82/20
f 98/81/21 743/84/21 754/82/21
f 101/83/22 104/81/22 765/84/22
f 719/81/23 778/84/23 769/82/23
f 118/85/24 739/88/24 744/86/24
f 96/81/25 729/84/25 764/82/25
f 106/83/26 110/81/26 755/84/26
f 702/81/27 759/84/27 738/82/27
f 783/87/28 820/85/28 794/88/28
f 779/87/29 114/85/29 803/88/29
f 117/89/30 822/95/30 785/90/30
f 760/87/31 115/85/31 813/88/31
f 116/85/32 807/88/32 127/86/32
f 113/85/33 749/88/33 801/86/33
f 119/85/34 797/88/34 821/86/34
f 109/85/35 784/88/35 812/86/35
f 827/63/2 843/124/2 838/61/2
f 844/63/8 852/124/8 133/61/8
f 853/63/5 862/124/5 858/61/5
f 861/63/10 871/124/10 867/61/10
f 873/63/6 883/124/6 139/61/6
f 884/63/9 897/124/9 141/61/9
f 132/92/1 943/96/1 892/93/1
f 898/63/3 145/124/3 144/61/3
f 906/63/4 826/124/4 833/61/4
f 137/92/7 916/96/7 910/93/7
f 128/91/36 124/89/36 918/95/36
f 903/92/7 931/96/7 789/93/7
f 839/94/7 848/92/7 928/96/7
f 879/92/7 121/96/7 917/93/7
f 131/92/7 936/96/7 932/93/7
f 130/92/7 922/96/7 937/93/7
f 135/92/7 146/96/7 148/93/7
f 878/94/7 888/92/7 122/96/7
f 911/89/37 802/95/37 750/90/37
f 123/91/38 912/89/38 147/95/38
f 120/89/39 790/95/39 933/90/39
f 125/89/40 150/95/40 151/90/40
f 126/89/41 938/95/41 149/90/41
f 112/91/42 817/89/42 923/95/42
f 152/97/43 996/103/43 946/98/43
f 138/92/1 976/96/1 951/93/1
f 129/94/1 907/92/1 962/96/1
f 828/92/1 957/96/1 942/93/1
f 134/92/1 893/96/1 967/93/1
f 140/92/1 952/96/1 972/93/1
f 872/94/1 136/92/1 968/96/1
f 143/92/1 973/96/1 963/93/1
f 153/102/1 997/125/1 981/100/1
f 998/125/1 1000/126/1 982/100/1
f 1001/126/1 990/127/1 1005/128/1
f 1006/128/1 993/129/1 1002/126/1
f 163/129/1 160/100/1 165/126/1
f 158/97/44 166/103/44 162/98/44
f 154/99/45 977/97/45 983/103/45
f 142/97/46 947/103/46 987/98/46
f 156/97/47 1003/103/47 164/98/47
f 958/99/48 155/97/48 991/103/48
f 953/97/49 994/103/49 1007/98/49
f 159/99/50 157/97/50 161/103/50
usemtl m_1476465e-cb63-7439-1006-e44bfd58f2fe
f 255/130/7 1029/26/7 1010/131/7
f 368/130/7 359/131/7 1034/26/7
f 479/131/7 447/130/7 1039/26/7
f 222/132/7 1030/6/7 1040/133/7
f 575/130/7 1045/26/7 1020/131/7
f 256/134/7 631/6/7 369/135/7
f 260/132/7 550/31/7 1046/133/7
f 1041/133/7 49/136/7 1016/31/7
f 223/132/7 167/130/7 1032/6/7
f 1043/133/7 1017/31/7 7/132/7
f 370/135/7 1035/137/7 1031/138/7
f 1036/137/7 1047/139/7 1042/140/7
f 480/141/7 1048/139/7 576/142/7
f 577/142/7 639/143/7 1023/144/7
f 1050/139/7 55/141/7 1044/140/7
f 481/141/7 73/142/7 1024/144/7
f 632/6/7 1027/145/7 35/135/7
f 175/140/7 173/138/7 174/137/7
f 1033/138/7 14/134/7 371/135/7
f 67/31/7 170/136/7 176/133/7
f 1049/133/7 1037/6/7 261/132/7
f 1038/6/7 33/130/7 15/132/7
usemtl m_95a6a580-247a-8ca5-6349-113297f9b965
f 1028/146/2 628/147/2 92/144/2
f 661/146/6 640/148/6 85/149/6
f 172/146/2 84/149/2 83/147/2
f 91/146/6 171/133/6 86/148/6
