# Made in Blockbench 4.12.6
mtllib cooling_tower.mtl

o Base_Cube.002
v -2 1 -4.37109375
v -4 1 -4.5
v -4 1 -2.5
v -2 0.75 -5
v -4 0.25 -5
v -4 0.75 -5
v -4 0 -4.5
v -4 0.25 -4.5
v -2 0.25 -6
v -2 0.25 -7
v 3 0.75 -5
v 0.5 0.25 -5
v 0.5 0.75 -5
v -2 0 -7
v 5 0 -4.5
v 5 0.25 -4.5
v 5 0.25 -3.5
v -2 0.75 -7
v -2 0.75 -6
v -1 0.25 -3.5
v -4 0.25 -3.5
v -1 0.75 -4.5
v -4 0.75 -4.5
v -2 1 -7
v -4 1 -5
v 3 0.25 -6
v 0.5 0.75 -6
v 0.5 0.25 -6
v -1 0.75 -3.5
v -4 0.75 -3.5
v 5 0.25 -5
v 5 0.75 -5
v 5 0 -5
v 3 0.25 -7
v 3 0 -7
v 3 0.75 -7
v 3 0.75 -6
v 2 0.25 -3.5
v -1 0.25 -4.5
v 2 0.75 -4.5
v 5 0.75 -4.5
v 2 0.75 -3.5
v 5 0.75 -3.5
v 3 1 -7
v -4 0.25 -2
v -2 0.75 -2
v -4 0.75 -2
v -4 0.25 -2.5
v -4 0 -2
v -2 0.25 -1
v -2 0.25 0
v 0.5 0.75 -2
v 3 0.75 -1
v 0.5 0.75 -1
v -2 0 0
v -2 0.75 0
v -2 0.75 -1
v -1 0.75 -2.5
v -4 0.75 -2.5
v -2 1 0
v -2 1 -2.62890625
v -4 1 -2
v 0.5 0.25 -1
v 3 0.75 -2
v 5 0.25 -2
v 5 0.75 -2
v 5 0 -2.5
v 5 0.25 -2.5
v 3 0.25 -1
v 3 0.25 0
v 3 0.25 -2
v 0.5 0.25 -2
v 3 0 0
v 3 0.75 0
v 2 0.75 -2.5
v 5 0.75 -2.5
v 3 1 0
v 5 1 -2
v 3 1 -2.62890625
v 3 1 -4.37109375
v 5 1 -5
v 5 1 -4.5
v -2 1 -8
v -2 0 -8
v 3 1 1
v 3 0 1
v 3 0.25 -5
v -2 0.25 -5
v -2 0.25 -2
v -1 0.25 -2.5
v -2 1 1
v 3 1 -8
v 2 0.25 -2.5
v 5 1 -2.5
v -1.15625 1 0.5
v -3.1015625 3 -2.0078125
v -3.5 1 -1.84375
v 4.1015625 3 -4.9921875
v 4.5 1 -1.84375
v 4.5 1 -5.15625
v -0.9921875 3 -7.1015625
v 2.15625 1 -7.5
v -1.15625 1 -7.5
v -3.1015625 3 -4.9921875
v -3.5 1 -5.15625
v 1.9921875 3 0.1015625
v 2.15625 1 0.5
v -0.9921875 3 0.1015625
v -2.73828125 5 -2.15625
v 4.1015625 3 -2.0078125
v 1.84375 5 -6.73828125
v 3.4140625 7 -4.70703125
v 3.73828125 5 -4.84375
v 3.73828125 5 -2.15625
v -2.73828125 5 -4.84375
v -0.84375 5 -6.73828125
v -0.84375 5 -0.26171875
v 1.9921875 3 -7.1015625
v 1.84375 5 -0.26171875
v -2.4140625 7 -2.29296875
v -0.87890625 9.5 -0.17578125
v -2.82421875 9.5 -2.12109375
v 3.4140625 7 -2.29296875
v 1.70703125 7 -0.5859375
v -2.4140625 7 -4.70703125
v -0.70703125 7 -6.4140625
v 1.70703125 7 -6.4140625
v -0.70703125 7 -0.5859375
v -1.03125 10 -7.1953125
v 2.03125 9.5 -7.1953125
v -1.03125 9.5 -7.1953125
v 2.03125 10 -7.1953125
v 4.1953125 9.5 -5.03125
v 4.1953125 10 -5.03125
v 4.1953125 9.5 -1.96875
v 4.1953125 10 -1.96875
v 2.03125 9.5 0.1953125
v 2.03125 10 0.1953125
v -1.03125 9.5 0.1953125
v -1.03125 10 0.1953125
v -3.1953125 9.5 -1.96875
v 3.82421875 10 -4.87890625
v -3.1953125 10 -1.96875
v -3.1953125 9.5 -5.03125
v -3.1953125 10 -5.03125
v 3.82421875 9.5 -2.12109375
v 1.87890625 9.5 -0.17578125
v 3.82421875 9.5 -4.87890625
v 1.87890625 9.5 -6.82421875
v -2.82421875 9.5 -4.87890625
v -0.87890625 9.5 -6.82421875
v 1.87890625 10 -6.82421875
v 3.4921875 8 -4.73828125
v -0.87890625 10 -0.17578125
v -2.82421875 10 -4.87890625
v -0.87890625 10 -6.82421875
v 3.82421875 10 -2.12109375
v -2.82421875 10 -2.12109375
v 1.87890625 10 -0.17578125
v 1.73828125 8 -0.5078125
v 3.4921875 8 -2.26171875
v -2.4921875 8 -4.73828125
v -0.73828125 8 -0.5078125
v 1.73828125 8 -6.4921875
v -0.73828125 8 -6.4921875
v -2.4921875 8 -2.26171875
v -4 0 -5
v 2 0.25 -4.5
v -4 0 -2.5
v 5 0 -2
v -2 0 1
v 3 0 -8
v -2 0 -5
v 3 0 -5
v -2 0 -2
v 3 0 -2
vt 0.205725 0.385181875
vt 0.189496875 0.623156875
vt 0.43916125 0.623156875
vt 0.25 0
vt 0 0.0625
vt 0 0
vt 0.28124375 0.249988125
vt 0.250018125 0.187511875
vt 0.28124375 0.187511875
vt 0.5 0.59375
vt 0.25 0.46875
vt 0.25 0.34375
vt 0.390625 0
vt 0.078125 0.0625
vt 0.078125 0
vt 0.125036875 0.5937868749999999
vt 0.499963125 0.6249631250000001
vt 0.125036875 0.6249631250000001
vt 0.375 0.59377375
vt 0.375 0.62497625
vt 0.250011875 0.62497625
vt 0.125046875 0.25
vt 0.25 0.187546875
vt 0.25 0.25
vt 0.125046875 0.375046875
vt 0.5 0.5
vt 0.5 0.375046875
vt 0 0.0625
vt 0.375 0
vt 0 0
vt 0.5 0.59375
vt 0.25 0.46875
vt 0.25 0.59375
vt 0.125 0.625
vt 0.5 0.625
vt 0.375 0.37235375000000004
vt 0.5 0.59375
vt 0.125 0.625
vt 0.125036875 0.5937868749999999
vt 0 0.0625
vt 0.3125 0
vt 0.3125 0.0625
vt 0.5 0.5
vt 0.125046875 0.375046875
vt 0.5 0.375046875
vt 0 0
vt 0.25 0.0625
vt 0 0.0625
vt 0.28124375 0.249988125
vt 0.250018125 0.187511875
vt 0.28124375 0.187511875
vt 0.25 0.46875
vt 0.5 0.59375
vt 0.25 0.34375
vt 0.125036875 0.6249631250000001
vt 0.499963125 0.5937868749999999
vt 0.499963125 0.6249631250000001
vt 0.25 0.25
vt 0.125046875 0.187546875
vt 0.25 0.187546875
vt 0.125046875 0.5
vt 0.5 0.375046875
vt 0.5 0.5
vt 0.375 0.0625
vt 0 0
vt 0 0.0625
vt 0.125046875 0.5
vt 0.5 0.375046875
vt 0.5 0.5
vt 0.5 0.5
vt 0.125046875 0.375046875
vt 0.5 0.375046875
vt 0.125046875 0.624953125
vt 0.125046875 0.593796875
vt 0.25 0.593796875
vt 0.5 0.59375
vt 0.25 0.46875
vt 0.25 0.34375
vt 0.5 0.624976875
vt 0.875 0.50002375
vt 0.875 0.62497625
vt 0.499963125 0.6249631250000001
vt 0.125036875 0.5937868749999999
vt 0.499963125 0.5937868749999999
vt 0 0
vt 0.25 0.0625
vt 0 0.0625
vt 0.28124375 0.249988125
vt 0.250018125 0.187511875
vt 0.28124375 0.187511875
vt 0.25 0.46875
vt 0.5 0.59375
vt 0.25 0.34375
vt 0.875 0.50002375
vt 0.5 0.624976875
vt 0.875 0.62497625
vt 0.125055 0.624981875
vt 0.5 0.593768125
vt 0.5 0.624981875
vt 0.125046875 0.187546875
vt 0.25 0.25
vt 0.125046875 0.25
vt 0.375 0.0625
vt 0 0
vt 0 0.0625
vt 0.5 0.59375
vt 0.25 0.46875
vt 0.25 0.34375
vt 0.125 0.625
vt 0.375 0.37235375000000004
vt 0.5 0.625
vt 0.499963125 0.6249631250000001
vt 0.125036875 0.5937868749999999
vt 0.499963125 0.5937868749999999
vt 0 0.0625
vt 0.3125 0
vt 0.3125 0.0625
vt 0.25 0
vt 0 0.0625
vt 0 0
vt 0.28124375 0.249988125
vt 0.250018125 0.187511875
vt 0.28124375 0.187511875
vt 0.5 0.59375
vt 0.25 0.46875
vt 0.25 0.34375
vt 0.390625 0
vt 0.078125 0.0625
vt 0.078125 0
vt 0.125 0.593768125
vt 0.499945 0.624981875
vt 0.125 0.624981875
vt 0.125046875 0.25
vt 0.25 0.187546875
vt 0.25 0.25
vt 0 0
vt 0.375 0.0625
vt 0 0.0625
vt 0.5 0.59375
vt 0.25 0.46875
vt 0.25 0.59375
vt 0.125046875 0.375046875
vt 0.5 0.5
vt 0.5 0.375046875
vt 0.5 0.59375
vt 0.125036875 0.6249631250000001
vt 0.125036875 0.5937868749999999
vt 0.125 0.625
vt 0.25 0.37235375000000004
vt 0.5 0.625
vt 0.125 0.625
vt 0.375 0.37235375000000004
vt 0.5 0.625
vt 0.189496875 0.623156875
vt 0.12708125 0.623156875
vt 0.205725 0.385181875
vt 0 0.507811875
vt 0 0.382811875
vt 0.125 0.41409625000000005
vt 0 0.507811875
vt 0 0.382811875
vt 0.125 0.41409625000000005
vt 0.875 0.50002375
vt 0.5 0.624976875
vt 0.875 0.62497625
vt 0.3125 0
vt 0 0.0625
vt 0 0
vt 0.453125 0.375046875
vt 0.125046875 0.5
vt 0.453125 0.5
vt 0.328125 0
vt 0.015625 0.0625
vt 0.015625 0
vt 0.5 0.375046875
vt 0.125 0.5
vt 0.5 0.5
vt 0.328125 0
vt 0.015625 0.0625
vt 0.015625 0
vt 0.3125 0
vt 0 0.0625
vt 0 0
vt 0.5 0.624976875
vt 0.875 0.50002375
vt 0.875 0.62497625
vt 0.015625 0
vt 0.390625 0.0625
vt 0.015625 0.0625
vt 0.875 0.62497625
vt 0.5 0.50002375
vt 0.875 0.50002375
vt 0.390625 0
vt 0.015625 0.0625
vt 0.015625 0
vt 0.125 0.507811875
vt 0 0.507811875
vt 0 0.476561875
vt 0 0.1875
vt 0.625 0.1875
vt 0.625 0.06256312500000005
vt 0 0.1875
vt 0.625 0.1875
vt 0.625 0.06256375000000003
vt 0.46093125 0.7930818749999999
vt 0.06250125 0.870111875
vt 0.06250125 0.7930818749999999
vt 0.125 0.507811875
vt 0 0.507811875
vt 0 0.476561875
vt 0.5 0.375046875
vt 0.125046875 0.5
vt 0.5 0.5
vt 0.125046875 0.5
vt 0.5 0.375046875
vt 0.5 0.5
vt 0.125046875 0.375046875
vt 0.5 0.5
vt 0.5 0.375046875
vt 0.25 0.624953125
vt 0.125046875 0.624953125
vt 0.125046875 0.593796875
vt 0.125046875 0.5
vt 0.5 0.375046875
vt 0.5 0.5
vt 0.875 0.62497625
vt 0.5 0.50002375
vt 0.875 0.50002375
vt 0.125046875 0.5
vt 0.5 0.375046875
vt 0.5 0.5
vt 0.5 0.5
vt 0.125046875 0.375046875
vt 0.5 0.375046875
vt 0.250011875 0.59377375
vt 0.375 0.62497625
vt 0.12502375 0.62497625
vt 0.972191875 0.6241399999999999
vt 0.52349625 0.87985875
vt 0.499793125 0.62414625
vt 0.94865625 0.879853125
vt 0.499793125 0.62414625
vt 0.972191875 0.6241399999999999
vt 0.94865625 0.879853125
vt 0.499793125 0.62414625
vt 0.972191875 0.6241399999999999
vt 0.94865625 0.879853125
vt 0.499793125 0.62414625
vt 0.972191875 0.6241399999999999
vt 0.94865625 0.879853125
vt 0.499793125 0.62414625
vt 0.972191875 0.6241399999999999
vt 0.972191875 0.6241399999999999
vt 0.52349625 0.87985875
vt 0.499793125 0.62414625
vt 0.94865625 0.879853125
vt 0.499793125 0.62414625
vt 0.972191875 0.6241399999999999
vt 0.44865625 0.626268125
vt 0.044838125 0.881935
vt 0.02349625 0.62627375
vt 0.94865625 0.879853125
vt 0.499793125 0.62414625
vt 0.972191875 0.6241399999999999
vt 0.44865625 0.626268125
vt 0.044838125 0.881935
vt 0.02349625 0.62627375
vt 0.44865625 0.626268125
vt 0.044838125 0.881935
vt 0.02349625 0.62627375
vt 0.02349625 0.62627375
vt 0.427481875 0.88192875
vt 0.044838125 0.881935
vt 0.44865625 0.626268125
vt 0.044838125 0.881935
vt 0.02349625 0.62627375
vt 0.427481875 0.6259931249999999
vt 0.06405375 0.881616875
vt 0.044838125 0.625998125
vt 0.44865625 0.626268125
vt 0.044838125 0.881935
vt 0.02349625 0.62627375
vt 0.02349625 0.62627375
vt 0.427481875 0.88192875
vt 0.044838125 0.881935
vt 0.44865625 0.626268125
vt 0.044838125 0.881935
vt 0.02349625 0.62627375
vt 0.044838125 0.625998125
vt 0.408433125 0.881611875
vt 0.06405375 0.881616875
vt 0.044838125 0.625998125
vt 0.408433125 0.881611875
vt 0.06405375 0.881616875
vt 0.03995 0.945365
vt 0.408433125 0.62583
vt 0.432746875 0.94535875
vt 0.044838125 0.625998125
vt 0.408433125 0.881611875
vt 0.06405375 0.881616875
vt 0.427481875 0.6259931249999999
vt 0.06405375 0.881616875
vt 0.044838125 0.625998125
vt 0.427481875 0.6259931249999999
vt 0.06405375 0.881616875
vt 0.044838125 0.625998125
vt 0.427481875 0.6259931249999999
vt 0.06405375 0.881616875
vt 0.044838125 0.625998125
vt 0.427481875 0.6259931249999999
vt 0.06405375 0.881616875
vt 0.044838125 0.625998125
vt 0.390625 0.0625
vt 0.015625 0
vt 0.390625 0
vt 0.390625 0.0625
vt 0.015625 0
vt 0.390625 0
vt 0.390625 0.0625
vt 0.015625 0
vt 0.390625 0
vt 0.390625 0.0625
vt 0.015625 0
vt 0.390625 0
vt 0.390625 0.0625
vt 0.015625 0
vt 0.390625 0
vt 0.390625 0.0625
vt 0.015625 0
vt 0.390625 0
vt 0.390625 0.007896875000000025
vt 0.032673125 0.054688124999999976
vt 0.01570875 0.007896875000000025
vt 0.390625 0.0625
vt 0.015625 0
vt 0.390625 0
vt 0.390625 0.0625
vt 0.015625 0
vt 0.390625 0
vt 0.390625 0.007896875000000025
vt 0.032673125 0.054688124999999976
vt 0.01570875 0.007896875000000025
vt 0.432746875 0.94535875
vt 0.06405375 0.6258349999999999
vt 0.408433125 0.62583
vt 0.390625 0.007896875000000025
vt 0.032673125 0.054688124999999976
vt 0.01570875 0.007896875000000025
vt 0.01570875 0.007896875000000025
vt 0.37366125 0.054688124999999976
vt 0.032673125 0.054688124999999976
vt 0.390625 0.007896875000000025
vt 0.032673125 0.054688124999999976
vt 0.01570875 0.007896875000000025
vt 0.390625 0.007896875000000025
vt 0.032673125 0.054688124999999976
vt 0.01570875 0.007896875000000025
vt 0.390625 0.007896875000000025
vt 0.032673125 0.054688124999999976
vt 0.01570875 0.007896875000000025
vt 0.390625 0.007896875000000025
vt 0.032673125 0.054688124999999976
vt 0.01570875 0.007896875000000025
vt 0.01570875 0.007896875000000025
vt 0.37366125 0.054688124999999976
vt 0.032673125 0.054688124999999976
vt 0.03995 0.945365
vt 0.408433125 0.62583
vt 0.432746875 0.94535875
vt 0.432746875 0.94535875
vt 0.06405375 0.6258349999999999
vt 0.408433125 0.62583
vt 0.03995 0.945365
vt 0.408433125 0.62583
vt 0.432746875 0.94535875
vt 0.03995 0.945365
vt 0.408433125 0.62583
vt 0.432746875 0.94535875
vt 0.03995 0.945365
vt 0.408433125 0.62583
vt 0.432746875 0.94535875
vt 0.432746875 0.94535875
vt 0.06405375 0.6258349999999999
vt 0.408433125 0.62583
vt 0.63062375 0.26191
vt 0.93265625 0.012023125000000023
vt 0.94855125 0.26191
vt 0.390625 0.007896875000000025
vt 0.032673125 0.054688124999999976
vt 0.01570875 0.007896875000000025
vt 0.01570875 0.007896875000000025
vt 0.37366125 0.054688124999999976
vt 0.032673125 0.054688124999999976
vt 0.390625 0.007896875000000025
vt 0.032673125 0.054688124999999976
vt 0.01570875 0.007896875000000025
vt 0.390625 0.007896875000000025
vt 0.032673125 0.054688124999999976
vt 0.01570875 0.007896875000000025
vt 0.390625 0.007896875000000025
vt 0.032673125 0.054688124999999976
vt 0.01570875 0.007896875000000025
vt 0.01570875 0.007896875000000025
vt 0.37366125 0.054688124999999976
vt 0.032673125 0.054688124999999976
vt 0.390625 0.007896875000000025
vt 0.032673125 0.054688124999999976
vt 0.01570875 0.007896875000000025
vt 0.73175625 0.012108750000000001
vt 0.73629625 0.01664874999999999
vt 0.73629625 0.023071249999999988
vt 0.63062375 0.26191
vt 0.93265625 0.012023125000000023
vt 0.94855125 0.26191
vt 0.94855125 0.26191
vt 0.646521875 0.012023125000000023
vt 0.93265625 0.012023125000000023
vt 0.63062375 0.26191
vt 0.93265625 0.012023125000000023
vt 0.94855125 0.26191
vt 0.63062375 0.26191
vt 0.93265625 0.012023125000000023
vt 0.94855125 0.26191
vt 0.94855125 0.26191
vt 0.646521875 0.012023125000000023
vt 0.93265625 0.012023125000000023
vt 0.63062375 0.26191
vt 0.93265625 0.012023125000000023
vt 0.94855125 0.26191
vt 0.94855125 0.26191
vt 0.646521875 0.012023125000000023
vt 0.93265625 0.012023125000000023
vt 0.501576875 0.623156875
vt 0.422933125 0.385181875
vt 0.43916125 0.623156875
vt 0.422933125 0.385181875
vt 0.205725 0.385181875
vt 0.43916125 0.623156875
vt 0.205725 0.385181875
vt 0.12708125 0.623156875
vt 0.189496875 0.623156875
vt 0.25 0
vt 0.25 0.0625
vt 0 0.0625
vt 0.37499375 0.249988125
vt 0.34374375 0.249988125
vt 0.37499375 0.187511875
vt 0.34374375 0.249988125
vt 0.28124375 0.249988125
vt 0.34374375 0.187511875
vt 0.37499375 0.187511875
vt 0.34374375 0.249988125
vt 0.34374375 0.187511875
vt 0.28124375 0.249988125
vt 0.250018125 0.249988125
vt 0.250018125 0.187511875
vt 0.28124375 0.187511875
vt 0.34374375 0.187511875
vt 0.28124375 0.249988125
vt 0.5 0.59375
vt 0.25 0.59375
vt 0.25 0.46875
vt 0.390625 0
vt 0.390625 0.0625
vt 0.078125 0.0625
vt 0.125036875 0.5937868749999999
vt 0.499963125 0.5937868749999999
vt 0.499963125 0.6249631250000001
vt 0.12502375 0.62497625
vt 0.12502375 0.593773125
vt 0.250011875 0.62497625
vt 0.12502375 0.593773125
vt 0.375 0.59377375
vt 0.250011875 0.62497625
vt 0.125046875 0.25
vt 0.125046875 0.187546875
vt 0.25 0.187546875
vt 0.125046875 0.375046875
vt 0.125046875 0.5
vt 0.5 0.5
vt 0 0.0625
vt 0.375 0.0625
vt 0.375 0
vt 0.5 0.59375
vt 0.25 0.34375
vt 0.25 0.46875
vt 0.5 0.59375
vt 0.5 0.625
vt 0.125 0.625
vt 0 0.0625
vt 0 0
vt 0.3125 0
vt 0.5 0.5
vt 0.125046875 0.5
vt 0.125046875 0.375046875
vt 0 0
vt 0.25 0
vt 0.25 0.0625
vt 0.28124375 0.187511875
vt 0.34374375 0.187511875
vt 0.28124375 0.249988125
vt 0.34374375 0.187511875
vt 0.37499375 0.187511875
vt 0.34374375 0.249988125
vt 0.28124375 0.249988125
vt 0.34374375 0.187511875
vt 0.34374375 0.249988125
vt 0.37499375 0.187511875
vt 0.37499375 0.249988125
vt 0.34374375 0.249988125
vt 0.28124375 0.249988125
vt 0.250018125 0.249988125
vt 0.250018125 0.187511875
vt 0.25 0.46875
vt 0.25 0.59375
vt 0.5 0.59375
vt 0.125036875 0.6249631250000001
vt 0.125036875 0.5937868749999999
vt 0.499963125 0.5937868749999999
vt 0.25 0.25
vt 0.125046875 0.25
vt 0.125046875 0.187546875
vt 0.125046875 0.5
vt 0.125046875 0.375046875
vt 0.5 0.375046875
vt 0.375 0.0625
vt 0.375 0
vt 0 0
vt 0.125046875 0.5
vt 0.125046875 0.375046875
vt 0.5 0.375046875
vt 0.5 0.5
vt 0.125046875 0.5
vt 0.125046875 0.375046875
vt 0.25 0.593796875
vt 0.374953125 0.593796875
vt 0.374953125 0.624953125
vt 0.374953125 0.624953125
vt 0.125046875 0.624953125
vt 0.25 0.593796875
vt 0.5 0.59375
vt 0.25 0.59375
vt 0.25 0.46875
vt 0.5 0.624976875
vt 0.5 0.50002375
vt 0.875 0.50002375
vt 0.499963125 0.6249631250000001
vt 0.125036875 0.6249631250000001
vt 0.125036875 0.5937868749999999
vt 0 0
vt 0.25 0
vt 0.25 0.0625
vt 0.28124375 0.187511875
vt 0.34374375 0.187511875
vt 0.28124375 0.249988125
vt 0.34374375 0.187511875
vt 0.37499375 0.187511875
vt 0.34374375 0.249988125
vt 0.28124375 0.249988125
vt 0.34374375 0.187511875
vt 0.34374375 0.249988125
vt 0.37499375 0.187511875
vt 0.37499375 0.249988125
vt 0.34374375 0.249988125
vt 0.28124375 0.249988125
vt 0.250018125 0.249988125
vt 0.250018125 0.187511875
vt 0.25 0.46875
vt 0.25 0.59375
vt 0.5 0.59375
vt 0.875 0.50002375
vt 0.5 0.50002375
vt 0.5 0.624976875
vt 0.125055 0.624981875
vt 0.125055 0.59376875
vt 0.5 0.593768125
vt 0.125046875 0.187546875
vt 0.25 0.187546875
vt 0.25 0.25
vt 0.375 0.0625
vt 0.375 0
vt 0 0
vt 0.5 0.59375
vt 0.25 0.59375
vt 0.25 0.46875
vt 0.499963125 0.6249631250000001
vt 0.125036875 0.6249631250000001
vt 0.125036875 0.5937868749999999
vt 0 0.0625
vt 0 0
vt 0.3125 0
vt 0.25 0
vt 0.25 0.0625
vt 0 0.0625
vt 0.37499375 0.249988125
vt 0.34374375 0.249988125
vt 0.37499375 0.187511875
vt 0.34374375 0.249988125
vt 0.28124375 0.249988125
vt 0.34374375 0.187511875
vt 0.37499375 0.187511875
vt 0.34374375 0.249988125
vt 0.34374375 0.187511875
vt 0.28124375 0.249988125
vt 0.250018125 0.249988125
vt 0.250018125 0.187511875
vt 0.28124375 0.187511875
vt 0.34374375 0.187511875
vt 0.28124375 0.249988125
vt 0.5 0.59375
vt 0.25 0.59375
vt 0.25 0.46875
vt 0.390625 0
vt 0.390625 0.0625
vt 0.078125 0.0625
vt 0.125 0.593768125
vt 0.499945 0.59376875
vt 0.499945 0.624981875
vt 0.125046875 0.25
vt 0.125046875 0.187546875
vt 0.25 0.187546875
vt 0 0
vt 0.375 0
vt 0.375 0.0625
vt 0.5 0.59375
vt 0.25 0.34375
vt 0.25 0.46875
vt 0.125046875 0.375046875
vt 0.125046875 0.5
vt 0.5 0.5
vt 0.5 0.59375
vt 0.499963125 0.6249631250000001
vt 0.125036875 0.6249631250000001
vt 0.205725 0.385181875
vt 0.422933125 0.385181875
vt 0.43916125 0.623156875
vt 0.422933125 0.385181875
vt 0.501576875 0.623156875
vt 0.43916125 0.623156875
vt 0.43916125 0.623156875
vt 0.189496875 0.623156875
vt 0.205725 0.385181875
vt 0.125 0.38284625000000005
vt 0.125 0.41409625000000005
vt 0 0.382811875
vt 0.125 0.41409625000000005
vt 0.125 0.47659625000000005
vt 0 0.507811875
vt 0.125 0.47659625000000005
vt 0.125 0.507811875
vt 0 0.507811875
vt 0.125 0.38284625000000005
vt 0.125 0.41409625000000005
vt 0 0.382811875
vt 0.125 0.41409625000000005
vt 0.125 0.47659625000000005
vt 0 0.507811875
vt 0.125 0.47659625000000005
vt 0.125 0.507811875
vt 0 0.507811875
vt 0.875 0.50002375
vt 0.5 0.50002375
vt 0.5 0.624976875
vt 0.3125 0
vt 0.3125 0.0625
vt 0 0.0625
vt 0.453125 0.375046875
vt 0.125046875 0.375046875
vt 0.125046875 0.5
vt 0.328125 0
vt 0.328125 0.0625
vt 0.015625 0.0625
vt 0.5 0.375046875
vt 0.125 0.375046875
vt 0.125 0.5
vt 0.328125 0
vt 0.328125 0.0625
vt 0.015625 0.0625
vt 0.3125 0
vt 0.3125 0.0625
vt 0 0.0625
vt 0.5 0.624976875
vt 0.5 0.50002375
vt 0.875 0.50002375
vt 0.015625 0
vt 0.390625 0
vt 0.390625 0.0625
vt 0.875 0.62497625
vt 0.5 0.624976875
vt 0.5 0.50002375
vt 0.390625 0
vt 0.390625 0.0625
vt 0.015625 0.0625
vt 0 0.476561875
vt 0 0.414061875
vt 0.125 0.507811875
vt 0 0.414061875
vt 0 0.382811875
vt 0.125 0.38284625000000005
vt 0.125 0.507811875
vt 0 0.414061875
vt 0.125 0.38284625000000005
vt 0.625 0.1875
vt 0 0.4375
vt 0.625 0.4375
vt 0 0.1875
vt 0.625 0.06256312500000005
vt 0 0.0625
vt 0.625 0.1875
vt 0 0.1875
vt 0 0.4375
vt 0 0.1875
vt 0.625 0.06256375000000003
vt 0 0.0625
vt 0.625 0.1875
vt 0 0.1875
vt 0.625 0.4375
vt 0.625 0.4375
vt 0 0.1875
vt 0 0.4375
vt 0.46093125 0.7930818749999999
vt 0.46093125 0.870111875
vt 0.06250125 0.870111875
vt 0 0.476561875
vt 0 0.414061875
vt 0.125 0.507811875
vt 0 0.414061875
vt 0 0.382811875
vt 0.125 0.38284625000000005
vt 0.125 0.507811875
vt 0 0.414061875
vt 0.125 0.38284625000000005
vt 0.5 0.375046875
vt 0.125046875 0.375046875
vt 0.125046875 0.5
vt 0.125046875 0.5
vt 0.125046875 0.375046875
vt 0.5 0.375046875
vt 0.125046875 0.375046875
vt 0.125046875 0.5
vt 0.5 0.5
vt 0.125046875 0.593796875
vt 0.374953125 0.593796875
vt 0.25 0.624953125
vt 0.374953125 0.593796875
vt 0.374953125 0.624953125
vt 0.25 0.624953125
vt 0.125046875 0.5
vt 0.125046875 0.375046875
vt 0.5 0.375046875
vt 0.875 0.62497625
vt 0.5 0.624976875
vt 0.5 0.50002375
vt 0.125046875 0.5
vt 0.125046875 0.375046875
vt 0.5 0.375046875
vt 0.5 0.5
vt 0.125046875 0.5
vt 0.125046875 0.375046875
vt 0.12502375 0.62497625
vt 0.12502375 0.593773125
vt 0.250011875 0.59377375
vt 0.250011875 0.59377375
vt 0.375 0.59377375
vt 0.375 0.62497625
vt 0.972191875 0.6241399999999999
vt 0.94865625 0.879853125
vt 0.52349625 0.87985875
vt 0.94865625 0.879853125
vt 0.52349625 0.87985875
vt 0.499793125 0.62414625
vt 0.94865625 0.879853125
vt 0.52349625 0.87985875
vt 0.499793125 0.62414625
vt 0.94865625 0.879853125
vt 0.52349625 0.87985875
vt 0.499793125 0.62414625
vt 0.94865625 0.879853125
vt 0.52349625 0.87985875
vt 0.499793125 0.62414625
vt 0.972191875 0.6241399999999999
vt 0.94865625 0.879853125
vt 0.52349625 0.87985875
vt 0.94865625 0.879853125
vt 0.52349625 0.87985875
vt 0.499793125 0.62414625
vt 0.44865625 0.626268125
vt 0.427481875 0.88192875
vt 0.044838125 0.881935
vt 0.94865625 0.879853125
vt 0.52349625 0.87985875
vt 0.499793125 0.62414625
vt 0.44865625 0.626268125
vt 0.427481875 0.88192875
vt 0.044838125 0.881935
vt 0.44865625 0.626268125
vt 0.427481875 0.88192875
vt 0.044838125 0.881935
vt 0.02349625 0.62627375
vt 0.44865625 0.626268125
vt 0.427481875 0.88192875
vt 0.44865625 0.626268125
vt 0.427481875 0.88192875
vt 0.044838125 0.881935
vt 0.427481875 0.6259931249999999
vt 0.408433125 0.881611875
vt 0.06405375 0.881616875
vt 0.44865625 0.626268125
vt 0.427481875 0.88192875
vt 0.044838125 0.881935
vt 0.02349625 0.62627375
vt 0.44865625 0.626268125
vt 0.427481875 0.88192875
vt 0.44865625 0.626268125
vt 0.427481875 0.88192875
vt 0.044838125 0.881935
vt 0.044838125 0.625998125
vt 0.427481875 0.6259931249999999
vt 0.408433125 0.881611875
vt 0.044838125 0.625998125
vt 0.427481875 0.6259931249999999
vt 0.408433125 0.881611875
vt 0.03995 0.945365
vt 0.06405375 0.6258349999999999
vt 0.408433125 0.62583
vt 0.044838125 0.625998125
vt 0.427481875 0.6259931249999999
vt 0.408433125 0.881611875
vt 0.427481875 0.6259931249999999
vt 0.408433125 0.881611875
vt 0.06405375 0.881616875
vt 0.427481875 0.6259931249999999
vt 0.408433125 0.881611875
vt 0.06405375 0.881616875
vt 0.427481875 0.6259931249999999
vt 0.408433125 0.881611875
vt 0.06405375 0.881616875
vt 0.427481875 0.6259931249999999
vt 0.408433125 0.881611875
vt 0.06405375 0.881616875
vt 0.390625 0.0625
vt 0.01570875 0.0625
vt 0.015625 0
vt 0.390625 0.0625
vt 0.01570875 0.0625
vt 0.015625 0
vt 0.390625 0.0625
vt 0.01570875 0.0625
vt 0.015625 0
vt 0.390625 0.0625
vt 0.01570875 0.0625
vt 0.015625 0
vt 0.390625 0.0625
vt 0.01570875 0.0625
vt 0.015625 0
vt 0.390625 0.0625
vt 0.01570875 0.0625
vt 0.015625 0
vt 0.390625 0.007896875000000025
vt 0.37366125 0.054688124999999976
vt 0.032673125 0.054688124999999976
vt 0.390625 0.0625
vt 0.01570875 0.0625
vt 0.015625 0
vt 0.390625 0.0625
vt 0.01570875 0.0625
vt 0.015625 0
vt 0.390625 0.007896875000000025
vt 0.37366125 0.054688124999999976
vt 0.032673125 0.054688124999999976
vt 0.432746875 0.94535875
vt 0.03995 0.945365
vt 0.06405375 0.6258349999999999
vt 0.390625 0.007896875000000025
vt 0.37366125 0.054688124999999976
vt 0.032673125 0.054688124999999976
vt 0.01570875 0.007896875000000025
vt 0.390625 0.007896875000000025
vt 0.37366125 0.054688124999999976
vt 0.390625 0.007896875000000025
vt 0.37366125 0.054688124999999976
vt 0.032673125 0.054688124999999976
vt 0.390625 0.007896875000000025
vt 0.37366125 0.054688124999999976
vt 0.032673125 0.054688124999999976
vt 0.390625 0.007896875000000025
vt 0.37366125 0.054688124999999976
vt 0.032673125 0.054688124999999976
vt 0.390625 0.007896875000000025
vt 0.37366125 0.054688124999999976
vt 0.032673125 0.054688124999999976
vt 0.01570875 0.007896875000000025
vt 0.390625 0.007896875000000025
vt 0.37366125 0.054688124999999976
vt 0.03995 0.945365
vt 0.06405375 0.6258349999999999
vt 0.408433125 0.62583
vt 0.432746875 0.94535875
vt 0.03995 0.945365
vt 0.06405375 0.6258349999999999
vt 0.03995 0.945365
vt 0.06405375 0.6258349999999999
vt 0.408433125 0.62583
vt 0.03995 0.945365
vt 0.06405375 0.6258349999999999
vt 0.408433125 0.62583
vt 0.03995 0.945365
vt 0.06405375 0.6258349999999999
vt 0.408433125 0.62583
vt 0.432746875 0.94535875
vt 0.03995 0.945365
vt 0.06405375 0.6258349999999999
vt 0.63062375 0.26191
vt 0.646521875 0.012023125000000023
vt 0.93265625 0.012023125000000023
vt 0.390625 0.007896875000000025
vt 0.37366125 0.054688124999999976
vt 0.032673125 0.054688124999999976
vt 0.01570875 0.007896875000000025
vt 0.390625 0.007896875000000025
vt 0.37366125 0.054688124999999976
vt 0.390625 0.007896875000000025
vt 0.37366125 0.054688124999999976
vt 0.032673125 0.054688124999999976
vt 0.390625 0.007896875000000025
vt 0.37366125 0.054688124999999976
vt 0.032673125 0.054688124999999976
vt 0.390625 0.007896875000000025
vt 0.37366125 0.054688124999999976
vt 0.032673125 0.054688124999999976
vt 0.01570875 0.007896875000000025
vt 0.390625 0.007896875000000025
vt 0.37366125 0.054688124999999976
vt 0.390625 0.007896875000000025
vt 0.37366125 0.054688124999999976
vt 0.032673125 0.054688124999999976
vt 0.73629625 0.023071249999999988
vt 0.73175625 0.027611249999999976
vt 0.73175625 0.012108750000000001
vt 0.73175625 0.027611249999999976
vt 0.72533375 0.027611249999999976
vt 0.73175625 0.012108750000000001
vt 0.72533375 0.027611249999999976
vt 0.72079375 0.023071249999999988
vt 0.72079375 0.01664874999999999
vt 0.72079375 0.01664874999999999
vt 0.72533375 0.012108750000000001
vt 0.72533375 0.027611249999999976
vt 0.72533375 0.012108750000000001
vt 0.73175625 0.012108750000000001
vt 0.72533375 0.027611249999999976
vt 0.63062375 0.26191
vt 0.646521875 0.012023125000000023
vt 0.93265625 0.012023125000000023
vt 0.94855125 0.26191
vt 0.63062375 0.26191
vt 0.646521875 0.012023125000000023
vt 0.63062375 0.26191
vt 0.646521875 0.012023125000000023
vt 0.93265625 0.012023125000000023
vt 0.63062375 0.26191
vt 0.646521875 0.012023125000000023
vt 0.93265625 0.012023125000000023
vt 0.94855125 0.26191
vt 0.63062375 0.26191
vt 0.646521875 0.012023125000000023
vt 0.63062375 0.26191
vt 0.646521875 0.012023125000000023
vt 0.93265625 0.012023125000000023
vt 0.94855125 0.26191
vt 0.63062375 0.26191
vt 0.646521875 0.012023125000000023
vt 0.5 0
vt 0.5 0.5
vt 0 0.5
vt 0.5 0
vt 0 0.5
vt 0.5 0.5
vt 0 0.5
vt 0.5 0
vt 0.5 0.5
vt 0.5 0.125
vt 0 0
vt 0 0.75
vt 0.5 0
vt 0.5 0.5
vt 0 0.5
vt 0 0.11718812499999998
vt 0 0
vt 0.554688125 0.11718812499999998
vt 0.5 0.125
vt 0.5 0.625
vt 0 0.75
vt 0 0.75
vt 0.5 0.75
vt 0.5 0.625
vt 0.5 0.125
vt 0.5 0
vt 0 0
vt 0 0.75
vt 0.5 0.625
vt 0.5 0.125
vt 0.554688125 0.11718812499999998
vt 0.554688125 0.328125
vt 0 0.328125
vt 0.554688125 0.328125
vt 0.554688125 0.671875
vt 0 0.671875
vt 0 0.882811875
vt 0.554688125 0.671875
vt 0.554688125 0.882811875
vt 0.554688125 0.882811875
vt 0.554688125 1
vt 0 1
vt 0.554688125 0.671875
vt 0 0.882811875
vt 0 0.671875
vt 0 0.882811875
vt 0.554688125 0.882811875
vt 0 1
vt 0 0
vt 0.554688125 0
vt 0.554688125 0.11718812499999998
vt 0 0.671875
vt 0 0.328125
vt 0.554688125 0.328125
vt 0 0.328125
vt 0 0.11718812499999998
vt 0.554688125 0.11718812499999998
vt 0.5 0.625
vt 0.5 0.75
vt 0 0.75
vt 0 0.75
vt 0 0
vt 0.5 0.125
vt 0 0
vt 0.5 0
vt 0.5 0.125
vt 0 0.875
vt 0.625 1
vt 0 1
vt 0 0.875
vt 0.625 0.75
vt 0.625 0.875
vt 0 0.875
vt 0.625 0.875
vt 0.625 1
vt 0 0.875
vt 0 0.75
vt 0.625 0.75
vn 0 1 0
vn 0 0 -1
vn -1 0 0
vn 0 1 0
vn 0 0 -1
vn -0.7071067811865476 0 -0.7071067811865476
vn 1 0 0
vn -1 0 0
vn 0 1 0
vn 0 0 1
vn 0 -1 0
vn 0 1 0
vn -0.7071067811865476 0 -0.7071067811865476
vn 0 0 1
vn 0 -1 0
vn 0 0 -1
vn 1 0 0
vn 0 1 0
vn 0.7071067811865476 0 -0.7071067811865476
vn 1 0 0
vn 0 1 0
vn 0 0 1
vn 0 -1 0
vn 0 1 0
vn -1 0 0
vn 0 -1 0
vn 0 -1 0
vn 0.7071067811865476 0 -0.7071067811865476
vn 0 0 1
vn -1 0 0
vn 0 1 0
vn 0 -1 0
vn -0.7071067811865476 0 0.7071067811865476
vn -1 0 0
vn 0 0 -1
vn 0 -1 0
vn 0 1 0
vn -0.7071067811865476 0 0.7071067811865476
vn 0 0 -1
vn 0 0 1
vn 1 0 0
vn 0 1 0
vn 0 0 1
vn 0.7071067811865476 0 0.7071067811865476
vn 1 0 0
vn 0 0 -1
vn 0 -1 0
vn 0 1 0
vn 0.7071067811865476 0 0.7071067811865476
vn 0 1 0
vn 0 1 0
vn 0 1 0
vn -1 0 0
vn 1 0 0
vn 0 -1 0
vn 0 0 1
vn 0 1 0
vn 0 0 -1
vn 0 1 0
vn 0 0 1
vn 0 0 -1
vn 0 -1 0
vn 0 0 1
vn 0 -1 0
vn 0 0 -1
vn -1 0 0
vn 0 1 0
vn 0 1 0
vn 0 -1 0
vn 1 0 0
vn 0 1 0
vn 0 1 0
vn 0 1 0
vn -1 0 0
vn 0 1 0
vn 0 -1 0
vn 0 -1 0
vn 0 -1 0
vn 1 0 0
vn -0.6935250424460282 0.19505391818794543 0.6935250424460282
vn 0.9807277438483623 0.1953793552197909 0
vn 0 0.1953793552197909 -0.9807277438483623
vn -0.6935250424460282 0.19505391818794543 -0.6935250424460282
vn 0 0.1953793552197909 0.9807277438483623
vn 0.6935250424460282 0.19505391818794543 -0.6935250424460282
vn -0.9807277438483623 0.1953793552197909 0
vn -0.6958108282788069 0.17802972364164785 0.6958108282788069
vn 0.6935250424460282 0.19505391818794543 0.6935250424460282
vn 0.6979001194897946 0.1608441681636636 -0.6979001194897946
vn 0.9839006424618184 0.17871632763466622 0
vn -0.6958108282788069 0.17802972364164787 -0.6958108282788069
vn 0 0.17871632763466622 0.9839006424618184
vn 0.6958108282788069 0.17802972364164785 -0.6958108282788069
vn -0.9839006424618184 0.17871632763466622 0
vn 0.6958108282788069 0.17802972364164787 0.6958108282788069
vn 0 0.17871632763466622 -0.9839006424618184
vn -0.697715646149601 -0.162436923869204 0.697715646149601
vn 0.6979001194897946 0.1608441681636636 0.6979001194897946
vn -0.6979001194897946 0.1608441681636636 0.6979001194897946
vn -0.6979001194897946 0.1608441681636636 -0.6979001194897946
vn 0 0.1600203865346791 -0.9871137097078999
vn 0.9871137097078999 0.1600203865346791 0
vn 0 0.1600203865346791 0.9871137097078999
vn -0.9871137097078999 0.1600203865346791 0
vn 0 0 -1
vn 0.7071067811865476 0 -0.7071067811865476
vn 1 0 0
vn 0.7071067811865476 0 0.7071067811865476
vn 0 0 1
vn -0.7071067811865476 0 0.7071067811865476
vn 0 1 0
vn -1 0 0
vn -0.7071067811865476 0 -0.7071067811865476
vn 0 -1 0
vn 0 -0.16189810234325697 0.9868074809493758
vn 0 -1 0
vn 0 -1 0
vn 0 -1 0
vn 0 -1 0
vn 0 -1 0
vn 0 -1 0
vn 0 -1 0
vn 0.9868074809493758 -0.16189810234325697 0
vn 0.697715646149601 -0.162436923869204 0.697715646149601
vn -0.9868074809493758 -0.16189810234325697 0
vn -0.697715646149601 -0.162436923869204 -0.697715646149601
vn 0 -0.16189810234325697 -0.9868074809493758
vn 0.697715646149601 -0.162436923869204 -0.697715646149601
vn -0.6974357160807111 0.16482367508938678 0.6974357160807111
vn 0 1 0
vn 0 1 0
vn 0 1 0
vn 0 1 0
vn 0 1 0
vn 0 1 0
vn 0 1 0
vn 0 1 0
vn 0.9864978747398456 0.1637740612361072 0
vn 0 0.16377406123610716 -0.9864978747398455
vn -0.9864978747398456 0.1637740612361072 0
vn 0 0.1637740612361072 0.9864978747398456
vn 0.697435716080711 0.16482367508938678 0.697435716080711
vn 0.6974357160807111 0.16482367508938678 -0.6974357160807111
vn -0.697435716080711 0.16482367508938678 -0.697435716080711
vn 0 1 0
vn 0 1 0
vn 0 1 0
vn 0 0 -1
vn -1 0 0
vn -1 0 0
vn -1 0 0
vn -1 0 0
vn -1 0 0
vn 0 1 0
vn 0 0 -1
vn -0.7071067811865476 0 -0.7071067811865476
vn 1 0 0
vn 1 0 0
vn -1 0 0
vn 0 1 0
vn 0 0 1
vn 0 -1 0
vn -0.7071067811865476 0 -0.7071067811865476
vn 0 0 1
vn 0 -1 0
vn 0 0 -1
vn 1 0 0
vn 1 0 0
vn 1 0 0
vn 1 0 0
vn 1 0 0
vn 0 1 0
vn 0.7071067811865476 0 -0.7071067811865476
vn 1 0 0
vn 0 1 0
vn 0 0 1
vn 0 -1 0
vn 0 1 0
vn -1 0 0
vn -1 0 0
vn 0 -1 0
vn 0 -1 0
vn 0.7071067811865476 0 -0.7071067811865476
vn 0 0 1
vn -1 0 0
vn -1 0 0
vn -1 0 0
vn -1 0 0
vn -1 0 0
vn 0 1 0
vn 0 -1 0
vn -0.7071067811865476 0 0.7071067811865476
vn -1 0 0
vn 0 0 -1
vn 0 -1 0
vn -0.7071067811865476 0 0.7071067811865476
vn 0 0 -1
vn 0 0 1
vn 1 0 0
vn 1 0 0
vn 1 0 0
vn 1 0 0
vn 1 0 0
vn 0 1 0
vn 0 0 1
vn 0.7071067811865476 0 0.7071067811865476
vn 1 0 0
vn 0 0 -1
vn 0 -1 0
vn 0 1 0
vn 0.7071067811865476 0 0.7071067811865476
vn 0 1 0
vn 0 1 0
vn 0 1 0
vn -1 0 0
vn -1 0 0
vn -1 0 0
vn 1 0 0
vn 1 0 0
vn 1 0 0
vn 0 -1 0
vn 0 0 1
vn 0 1 0
vn 0 0 -1
vn 0 1 0
vn 0 0 1
vn 0 0 -1
vn 0 -1 0
vn 0 0 1
vn 0 -1 0
vn 0 0 -1
vn -1 0 0
vn -1 0 0
vn -1 0 0
vn 0 1 0
vn 0 1 0
vn 0 1 0
vn 0 1 0
vn 0 1 0
vn 0 1 0
vn 0 -1 0
vn 1 0 0
vn 1 0 0
vn 1 0 0
vn 0 1 0
vn 0 1 0
vn 0 1 0
vn -1 0 0
vn -1 0 0
vn 0 1 0
vn 0 -1 0
vn 0 -1 0
vn 0 -1 0
vn 1 0 0
vn 1 0 0
vn -0.6935250424460282 0.19505391818794546 0.6935250424460282
vn 0.9807277438483623 0.1953793552197909 0
vn 0 0.1953793552197909 -0.9807277438483623
vn -0.6935250424460282 0.19505391818794546 -0.6935250424460282
vn 0 0.1953793552197909 0.9807277438483623
vn 0.6935250424460282 0.19505391818794546 -0.6935250424460282
vn -0.9807277438483623 0.1953793552197909 0
vn -0.6958108282788069 0.17802972364164787 0.6958108282788069
vn 0.6935250424460282 0.19505391818794546 0.6935250424460282
vn 0.6979001194897946 0.1608441681636636 -0.6979001194897946
vn 0.9839006424618184 0.17871632763466622 0
vn -0.6958108282788069 0.17802972364164785 -0.6958108282788069
vn 0 0.17871632763466622 0.9839006424618184
vn 0.6958108282788069 0.17802972364164787 -0.6958108282788069
vn -0.9839006424618184 0.17871632763466622 0
vn 0.6958108282788069 0.17802972364164785 0.6958108282788069
vn 0 0.17871632763466622 -0.9839006424618184
vn -0.697715646149601 -0.162436923869204 0.697715646149601
vn 0.6979001194897946 0.1608441681636636 0.6979001194897946
vn -0.6979001194897946 0.1608441681636636 0.6979001194897946
vn -0.6979001194897946 0.1608441681636636 -0.6979001194897946
vn 0 0.1600203865346791 -0.9871137097079
vn 0.9871137097079 0.1600203865346791 0
vn 0 0.1600203865346791 0.9871137097079
vn -0.9871137097079 0.1600203865346791 0
vn 0 0 -1
vn 0.7071067811865476 0 -0.7071067811865476
vn 1 0 0
vn 0.7071067811865476 0 0.7071067811865476
vn 0 0 1
vn -0.7071067811865476 0 0.7071067811865476
vn 0 1 0
vn -1 0 0
vn -0.7071067811865476 0 -0.7071067811865476
vn 0 -1 0
vn 0 -0.16189810234325697 0.9868074809493758
vn 0 -1 0
vn 0 -1 0
vn 0 -1 0
vn 0 -1 0
vn 0 -1 0
vn 0 -1 0
vn 0 -1 0
vn 0.9868074809493758 -0.16189810234325697 0
vn 0.697715646149601 -0.162436923869204 0.697715646149601
vn -0.9868074809493758 -0.16189810234325697 0
vn -0.697715646149601 -0.162436923869204 -0.697715646149601
vn 0 -0.16189810234325697 -0.9868074809493758
vn 0.697715646149601 -0.162436923869204 -0.697715646149601
vn -0.697435716080711 0.16482367508938678 0.697435716080711
vn 0 1 0
vn 0 1 0
vn 0 1 0
vn 0 1 0
vn 0 1 0
vn 0 1 0
vn 0 1 0
vn 0 1 0
vn 0 1 0
vn 0 1 0
vn 0 1 0
vn 0 1 0
vn 0.9864978747398455 0.16377406123610716 0
vn 0 0.1637740612361072 -0.9864978747398456
vn -0.9864978747398455 0.16377406123610716 0
vn 0 0.16377406123610716 0.9864978747398455
vn 0.6974357160807111 0.16482367508938678 0.6974357160807111
vn 0.697435716080711 0.16482367508938678 -0.697435716080711
vn -0.6974357160807111 0.16482367508938678 -0.6974357160807111
vn 0 -1 0
vn 0 -1 0
vn 0 -1 0
vn 0 -1 0
vn 0 -1 0
vn 0 -1 0
vn 0 -1 0
vn 0 -1 0
vn 0 -1 0
vn 0 -1 0
vn 0 -1 0
vn 0 -1 0
vn 0 -1 0
vn 0 -1 0
vn 0 -1 0
vn 0 -1 0
vn 0 -1 0
vn 0 -1 0
vn 0 -1 0
vn 0 -1 0
vn 0 -1 0
vn 0 -1 0
vn 0 0 -1
vn 0 0 1
vn 0 0 -1
vn 0 0 1
usemtl m_e6e59352-bd3e-d3f4-b2c4-992fa16b5092
f 1/1/1 2/2/1 3/3/1
f 4/4/2 5/5/2 6/6/2
f 5/7/3 7/8/3 8/9/3
f 5/10/4 9/11/4 10/12/4
f 11/13/5 12/14/5 13/15/5
f 14/16/6 5/17/6 10/18/6
f 15/19/7 16/20/7 17/21/7
f 18/22/8 9/23/8 19/24/8
f 20/25/9 8/26/9 21/27/9
f 8/28/10 22/29/10 23/30/10
f 6/31/11 19/32/11 4/33/11
f 24/34/12 25/35/12 1/36/12
f 6/37/13 24/38/13 18/39/13
f 26/40/14 27/41/14 28/42/14
f 23/43/15 29/44/15 30/45/15
f 31/46/16 11/47/16 32/48/16
f 16/49/17 33/50/17 31/51/17
f 26/52/18 31/53/18 34/54/18
f 31/55/19 35/56/19 34/57/19
f 26/58/20 36/59/20 37/60/20
f 38/61/21 39/62/21 20/63/21
f 40/64/22 16/65/22 41/66/22
f 42/67/23 41/68/23 43/69/23
f 16/70/24 38/71/24 17/72/24
f 2/73/25 23/74/25 30/75/25
f 32/76/26 37/77/26 36/78/26
f 37/79/27 13/80/27 27/81/27
f 44/82/28 32/83/28 36/84/28
f 45/85/29 46/86/29 47/87/29
f 48/88/30 49/89/30 45/90/30
f 50/91/31 45/92/31 51/93/31
f 52/94/32 53/95/32 54/96/32
f 45/97/33 55/98/33 51/99/33
f 50/100/34 56/101/34 57/102/34
f 58/103/35 48/104/35 59/105/35
f 47/106/36 57/107/36 56/108/36
f 60/109/37 61/110/37 62/111/37
f 60/112/38 47/113/38 56/114/38
f 53/115/39 63/116/39 54/117/39
f 64/118/40 65/119/40 66/120/40
f 65/121/41 67/122/41 68/123/41
f 65/124/42 69/125/42 70/126/42
f 71/127/43 52/128/43 72/129/43
f 73/130/44 65/131/44 70/132/44
f 74/133/45 69/134/45 53/135/45
f 68/136/46 75/137/46 76/138/46
f 66/139/47 53/140/47 64/141/47
f 69/142/48 72/143/48 63/144/48
f 66/145/49 77/146/49 74/147/49
f 78/148/50 79/149/50 77/150/50
f 44/151/51 80/152/51 81/153/51
f 82/154/52 81/155/52 80/156/52
f 83/157/53 84/158/53 10/159/53
f 85/160/54 86/161/54 70/162/54
f 19/163/55 13/164/55 4/165/55
f 28/166/56 19/167/56 9/168/56
f 26/169/57 12/170/57 87/171/57
f 13/172/58 88/173/58 4/174/58
f 50/175/59 72/176/59 89/177/59
f 72/178/60 46/179/60 89/180/60
f 54/181/61 50/182/61 57/183/61
f 52/184/62 57/185/62 46/186/62
f 39/187/63 40/188/63 22/189/63
f 22/190/64 42/191/64 29/192/64
f 75/193/65 90/194/65 58/195/65
f 91/196/66 60/197/66 56/198/66
f 77/199/67 60/200/67 91/201/67
f 24/202/68 44/203/68 92/204/68
f 80/205/69 61/206/69 1/207/69
f 92/208/70 44/209/70 36/210/70
f 17/211/71 93/212/71 68/213/71
f 93/214/72 20/215/72 90/216/72
f 90/217/73 21/218/73 48/219/73
f 21/220/74 8/221/74 7/222/74
f 9/223/75 12/224/75 28/225/75
f 29/226/76 75/227/76 58/228/76
f 75/229/77 43/230/77 76/231/77
f 30/232/78 58/233/78 59/234/78
f 43/235/79 82/236/79 94/237/79
f 95/238/80 96/239/80 97/240/80
f 98/241/81 99/242/81 100/243/81
f 101/244/82 102/245/82 103/246/82
f 104/247/83 103/248/83 105/249/83
f 106/250/84 95/251/84 107/252/84
f 102/253/85 98/254/85 100/255/85
f 96/256/86 105/257/86 97/258/86
f 108/259/87 109/260/87 96/261/87
f 110/262/88 107/263/88 99/264/88
f 111/265/89 112/266/89 113/267/89
f 98/268/90 114/269/90 110/270/90
f 101/271/91 115/272/91 116/273/91
f 106/274/92 117/275/92 108/276/92
f 118/277/93 113/278/93 98/279/93
f 96/280/94 115/281/94 104/282/94
f 106/283/95 114/284/95 119/285/95
f 101/286/96 111/287/96 118/288/96
f 120/289/97 121/290/97 122/291/97
f 119/292/98 123/293/98 124/294/98
f 117/295/99 120/296/99 109/297/99
f 116/298/100 125/299/100 126/300/100
f 116/301/101 127/302/101 111/303/101
f 113/304/102 123/305/102 114/306/102
f 119/307/103 128/308/103 117/309/103
f 109/310/104 125/311/104 115/312/104
f 129/313/105 130/314/105 131/315/105
f 132/316/106 133/317/106 130/318/106
f 134/319/107 135/320/107 133/321/107
f 136/322/108 137/323/108 135/324/108
f 138/325/109 139/326/109 137/327/109
f 140/328/110 141/329/110 139/330/110
f 132/331/111 142/332/111 134/333/111
f 143/334/112 144/335/112 141/336/112
f 145/337/113 131/338/113 144/339/113
f 137/340/114 146/341/114 135/342/114
f 128/343/115 147/344/115 121/345/115
f 144/346/116 122/347/116 141/348/116
f 130/349/117 148/350/117 149/351/117
f 139/352/118 147/353/118 137/354/118
f 131/355/119 150/356/119 144/357/119
f 130/358/120 151/359/120 131/360/120
f 135/361/121 148/362/121 133/363/121
f 139/364/122 122/365/122 121/366/122
f 146/367/123 112/368/123 148/369/123
f 123/370/124 147/371/124 124/372/124
f 120/373/125 150/374/125 125/375/125
f 125/376/126 151/377/126 126/378/126
f 126/379/127 149/380/127 127/381/127
f 112/382/128 149/383/128 148/384/128
f 152/385/129 153/386/129 142/387/129
f 138/388/130 154/389/130 140/390/130
f 129/391/131 155/392/131 156/393/131
f 129/394/132 152/395/132 132/396/132
f 134/397/133 157/398/133 136/399/133
f 140/400/134 158/401/134 143/402/134
f 138/403/135 157/404/135 159/405/135
f 143/406/136 155/407/136 145/408/136
f 160/409/137 161/410/137 153/411/137
f 158/412/138 162/413/138 155/414/138
f 154/415/139 160/416/139 163/417/139
f 142/418/140 161/419/140 157/420/140
f 156/421/141 164/422/141 152/423/141
f 156/424/142 162/425/142 165/426/142
f 154/427/143 166/428/143 158/429/143
f 159/430/144 161/431/144 160/432/144
f 62/433/145 61/434/145 3/435/145
f 61/436/146 1/437/146 3/438/146
f 1/439/147 25/440/147 2/441/147
f 4/442/148 88/443/148 5/444/148
f 25/445/149 6/446/149 2/447/149
f 6/448/150 5/449/150 23/450/150
f 2/451/151 6/452/151 23/453/151
f 5/454/152 167/455/152 7/456/152
f 8/457/153 23/458/153 5/459/153
f 5/460/154 88/461/154 9/462/154
f 11/463/155 87/464/155 12/465/155
f 14/466/156 167/467/156 5/468/156
f 68/469/157 67/470/157 17/471/157
f 67/472/158 15/473/158 17/474/158
f 18/475/159 10/476/159 9/477/159
f 20/478/160 39/479/160 8/480/160
f 8/481/161 39/482/161 22/483/161
f 6/484/162 18/485/162 19/486/162
f 6/487/163 25/488/163 24/489/163
f 26/490/164 37/491/164 27/492/164
f 23/493/165 22/494/165 29/495/165
f 31/496/166 87/497/166 11/498/166
f 31/499/167 32/500/167 16/501/167
f 32/502/168 81/503/168 41/504/168
f 16/505/169 32/506/169 41/507/169
f 81/508/170 82/509/170 41/510/170
f 16/511/171 15/512/171 33/513/171
f 26/514/172 87/515/172 31/516/172
f 31/517/173 33/518/173 35/519/173
f 26/520/174 34/521/174 36/522/174
f 38/523/175 168/524/175 39/525/175
f 40/526/176 168/527/176 16/528/176
f 42/529/177 40/530/177 41/531/177
f 16/532/178 168/533/178 38/534/178
f 30/535/179 59/536/179 3/537/179
f 3/538/180 2/539/180 30/540/180
f 32/541/181 11/542/181 37/543/181
f 37/544/182 11/545/182 13/546/182
f 44/547/183 81/548/183 32/549/183
f 45/550/184 89/551/184 46/552/184
f 45/553/185 47/554/185 48/555/185
f 47/556/186 62/557/186 59/558/186
f 48/559/187 47/560/187 59/561/187
f 62/562/188 3/563/188 59/564/188
f 48/565/189 169/566/189 49/567/189
f 50/568/190 89/569/190 45/570/190
f 52/571/191 64/572/191 53/573/191
f 45/574/192 49/575/192 55/576/192
f 50/577/193 51/578/193 56/579/193
f 58/580/194 90/581/194 48/582/194
f 47/583/195 46/584/195 57/585/195
f 60/586/196 62/587/196 47/588/196
f 53/589/197 69/590/197 63/591/197
f 64/592/198 71/593/198 65/594/198
f 78/595/199 66/596/199 94/597/199
f 66/598/200 65/599/200 76/600/200
f 94/601/201 66/602/201 76/603/201
f 65/604/202 170/605/202 67/606/202
f 68/607/203 76/608/203 65/609/203
f 65/610/204 71/611/204 69/612/204
f 71/613/205 64/614/205 52/615/205
f 73/616/206 170/617/206 65/618/206
f 74/619/207 70/620/207 69/621/207
f 68/622/208 93/623/208 75/624/208
f 66/625/209 74/626/209 53/627/209
f 69/628/210 71/629/210 72/630/210
f 66/631/211 78/632/211 77/633/211
f 80/634/212 79/635/212 94/636/212
f 79/637/213 78/638/213 94/639/213
f 94/640/214 82/641/214 80/642/214
f 14/643/215 10/644/215 84/645/215
f 10/646/216 18/647/216 83/648/216
f 18/649/217 24/650/217 83/651/217
f 73/652/218 70/653/218 86/654/218
f 70/655/219 74/656/219 85/657/219
f 74/658/220 77/659/220 85/660/220
f 19/661/221 27/662/221 13/663/221
f 28/664/222 27/665/222 19/666/222
f 26/667/223 28/668/223 12/669/223
f 13/670/224 12/671/224 88/672/224
f 50/673/225 63/674/225 72/675/225
f 72/676/226 52/677/226 46/678/226
f 54/679/227 63/680/227 50/681/227
f 52/682/228 54/683/228 57/684/228
f 39/685/229 168/686/229 40/687/229
f 22/688/230 40/689/230 42/690/230
f 75/691/231 93/692/231 90/693/231
f 56/694/232 51/695/232 91/696/232
f 51/697/233 55/698/233 171/699/233
f 91/700/234 51/701/234 171/702/234
f 60/703/235 79/704/235 61/705/235
f 77/706/236 91/707/236 85/708/236
f 60/709/237 77/710/237 79/711/237
f 24/712/238 92/713/238 83/714/238
f 44/715/239 24/716/239 80/717/239
f 80/718/240 24/719/240 1/720/240
f 80/721/241 79/722/241 61/723/241
f 36/724/242 34/725/242 92/726/242
f 34/727/243 35/728/243 172/729/243
f 92/730/244 34/731/244 172/732/244
f 17/733/245 38/734/245 93/735/245
f 93/736/246 38/737/246 20/738/246
f 90/739/247 20/740/247 21/741/247
f 7/742/248 169/743/248 21/744/248
f 169/745/249 48/746/249 21/747/249
f 9/748/250 88/749/250 12/750/250
f 29/751/251 42/752/251 75/753/251
f 75/754/252 42/755/252 43/756/252
f 30/757/253 29/758/253 58/759/253
f 94/760/254 76/761/254 43/762/254
f 43/763/255 41/764/255 82/765/255
f 95/766/256 108/767/256 96/768/256
f 98/769/257 110/770/257 99/771/257
f 101/772/258 118/773/258 102/774/258
f 104/775/259 101/776/259 103/777/259
f 106/778/260 108/779/260 95/780/260
f 102/781/261 118/782/261 98/783/261
f 96/784/262 104/785/262 105/786/262
f 108/787/263 117/788/263 109/789/263
f 110/790/264 106/791/264 107/792/264
f 111/793/265 127/794/265 112/795/265
f 98/796/266 113/797/266 114/798/266
f 101/799/267 104/800/267 115/801/267
f 106/802/268 119/803/268 117/804/268
f 118/805/269 111/806/269 113/807/269
f 96/808/270 109/809/270 115/810/270
f 106/811/271 110/812/271 114/813/271
f 101/814/272 116/815/272 111/816/272
f 120/817/273 128/818/273 121/819/273
f 119/820/274 114/821/274 123/822/274
f 117/823/275 128/824/275 120/825/275
f 116/826/276 115/827/276 125/828/276
f 116/829/277 126/830/277 127/831/277
f 113/832/278 112/833/278 123/834/278
f 119/835/279 124/836/279 128/837/279
f 109/838/280 120/839/280 125/840/280
f 129/841/281 132/842/281 130/843/281
f 132/844/282 134/845/282 133/846/282
f 134/847/283 136/848/283 135/849/283
f 136/850/284 138/851/284 137/852/284
f 138/853/285 140/854/285 139/855/285
f 140/856/286 143/857/286 141/858/286
f 132/859/287 152/860/287 142/861/287
f 143/862/288 145/863/288 144/864/288
f 145/865/289 129/866/289 131/867/289
f 137/868/290 147/869/290 146/870/290
f 128/871/291 124/872/291 147/873/291
f 144/874/292 150/875/292 122/876/292
f 130/877/293 133/878/293 148/879/293
f 139/880/294 121/881/294 147/882/294
f 131/883/295 151/884/295 150/885/295
f 130/886/296 149/887/296 151/888/296
f 135/889/297 146/890/297 148/891/297
f 139/892/298 141/893/298 122/894/298
f 146/895/299 123/896/299 112/897/299
f 123/898/300 146/899/300 147/900/300
f 120/901/301 122/902/301 150/903/301
f 125/904/302 150/905/302 151/906/302
f 126/907/303 151/908/303 149/909/303
f 112/910/304 127/911/304 149/912/304
f 152/913/305 164/914/305 153/915/305
f 138/916/306 159/917/306 154/918/306
f 129/919/307 145/920/307 155/921/307
f 129/922/308 156/923/308 152/924/308
f 134/925/309 142/926/309 157/927/309
f 140/928/310 154/929/310 158/930/310
f 138/931/311 136/932/311 157/933/311
f 143/934/312 158/935/312 155/936/312
f 153/937/313 164/938/313 160/939/313
f 164/940/314 165/941/314 160/942/314
f 165/943/315 162/944/315 166/945/315
f 166/946/316 163/947/316 165/948/316
f 163/949/317 160/950/317 165/951/317
f 158/952/318 166/953/318 162/954/318
f 154/955/319 159/956/319 160/957/319
f 142/958/320 153/959/320 161/960/320
f 156/961/321 165/962/321 164/963/321
f 156/964/322 155/965/322 162/966/322
f 154/967/323 163/968/323 166/969/323
f 159/970/324 157/971/324 161/972/324
usemtl m_57ef78b1-185b-6938-a1bf-48e67b4f55fb
f 14/973/325 173/974/325 167/975/325
f 35/976/326 33/977/326 174/978/326
f 55/979/327 49/980/327 175/981/327
f 7/982/328 173/983/328 175/984/328
f 73/985/329 176/986/329 170/987/329
f 14/988/330 84/989/330 35/990/330
f 15/991/331 67/992/331 176/993/331
f 175/994/332 49/995/332 169/996/332
f 7/997/333 167/998/333 173/999/333
f 175/1000/334 169/1001/334 7/1002/334
f 35/1003/335 174/1004/335 173/1005/335
f 174/1006/336 176/1007/336 175/1008/336
f 55/1009/337 176/1010/337 73/1011/337
f 73/1012/338 86/1013/338 171/1014/338
f 176/1015/339 55/1016/339 175/1017/339
f 55/1018/340 73/1019/340 171/1020/340
f 84/1021/341 172/1022/341 35/1023/341
f 175/1024/342 173/1025/342 174/1026/342
f 173/1027/343 14/1028/343 35/1029/343
f 67/1030/344 170/1031/344 176/1032/344
f 176/1033/345 174/1034/345 15/1035/345
f 174/1036/346 33/1037/346 15/1038/346
usemtl m_208df0c9-faf7-bb17-45b7-3bb0b6a60103
f 172/1039/347 83/1040/347 92/1041/347
f 91/1042/348 86/1043/348 85/1044/348
f 172/1045/349 84/1046/349 83/1047/349
f 91/1048/350 171/1049/350 86/1050/350