# Made in Blockbench 4.12.6
mtllib boiler.mtl

o base
v -1.875 0 -1
v -1.875 1.5 -1
v -1.5 1.5 -1
v -1.5 0 -1
v -1.875 0.5 -1.5
v -1.875 1 -1.5
v -1.5 0.5 -1.5
v -1.5 1 -1.5
v -1.5 0 0
v -1.5 1.5 0
v -1.875 1.5 0
v -1.875 0 0
v -1.5 0.5 0.5
v -1.5 1 0.5
v -1.875 0.5 0.5
v -1.875 1 0.5
v -1.5 0.375 -1
v -1.875 0.375 -1
v -2 0 -1
v -1.5 0.375 0
v -2 0 0
v -1.875 0.375 0
v -1.5 1.125 -1
v -2 1.5 -1
v -1.875 1.125 -1
v -1.5 1.125 0
v -1.875 1.125 0
v -2 1.5 0
v -1.5 2 -1
v -2 2 -1
v -1.5 2 0
v -2 2 0
v -1.5 -0.5 -1
v -2 -0.5 -1
v -1.5 -0.5 0
v -2 -0.5 0
v -1.875 1.125 -1
v -1.875 1.125 0
v 2.6875 0.5625 -0.125
v 2.6875 0.9375 -0.125
v 2.3125 0.9375 -0.125
v 2.3125 0.5625 -0.125
v 2.6875 0.5625 0
v 2.6875 0.9375 0
v 2.3125 0.5625 0
v 2.3125 0.9375 0
v 2.75 0.5 -1.25
v 2.75 1 -1.25
v 2.25 1 -1.25
v 2.25 0.5 -1.25
v 2.75 0.5 -0.875
v 2.75 1 -0.875
v 2.25 0.5 -0.875
v 2.25 1 -0.875
v 1.25 -0.32050125 -1.5625
v 1.25 -0.07050125 -1.5625
v -1 -0.07050125 -1.5625
v -1 -0.32050125 -1.5625
v 1.25 -0.32050125 -1.4375
v 1.25 -0.07050125 -1.4375
v -1 -0.32050125 -1.4375
v -1 -0.07050125 -1.4375
v 1.25 -0.32050125 0.4375
v 1.25 -0.07050125 0.4375
v -1 -0.07050125 0.4375
v -1 -0.32050125 0.4375
v 1.25 -0.32050125 0.5625
v 1.25 -0.07050125 0.5625
v -1 -0.32050125 0.5625
v -1 -0.07050125 0.5625
v 1.5 -0.5 -1.625
v 1.5 0.125 -1.625
v 1.25 0.125 -1.625
v 1.25 -0.5 -1.625
v 1.5 -0.5 -1.375
v 1.5 -0.125 -1.375
v 1.25 -0.5 -1.375
v 1.25 -0.125 -1.375
v -1 -0.5 -1.625
v -1 0.125 -1.625
v -1.25 0.125 -1.625
v -1.25 -0.5 -1.625
v -1 -0.5 -1.375
v -1 -0.125 -1.375
v -1.25 -0.5 -1.375
v -1.25 -0.125 -1.375
v -1.25 -0.5 0.625
v -1.25 0.125 0.625
v -1 0.125 0.625
v -1 -0.5 0.625
v -1.25 -0.5 0.375
v -1.25 -0.125 0.375
v -1 -0.5 0.375
v -1 -0.125 0.375
v 2.9375 0 0.5625
v 2.9375 1.5 0.5625
v 2.0625 1.5 0.5625
v 2.0625 0 0.5625
v 2.9375 0 1
v 2.9375 1.5 1
v 2.0625 0 1
v 2.0625 1.5 1
v 2.625 0.625 0
v 2.625 0.875 0
v 2.375 0.875 0
v 2.375 0.625 0
v 2.625 0.625 0.1875
v 2.625 0.875 0.1875
v 2.375 0.625 0.1875
v 2.375 0.875 0.1875
v 2.6875 0.5625 0.1875
v 2.6875 0.9375 0.1875
v 2.3125 0.9375 0.1875
v 2.3125 0.5625 0.1875
v 2.6875 0.5625 0.5625
v 2.6875 0.9375 0.5625
v 2.3125 0.5625 0.5625
v 2.3125 0.9375 0.5625
v 2.625 -0.375 0.25
v 2.625 0.5625 0.25
v 2.375 0.5625 0.25
v 2.375 -0.375 0.25
v 2.625 -0.375 0.5
v 2.625 0.5625 0.5
v 2.375 -0.375 0.5
v 2.375 0.5625 0.5
v 2.6875 -0.5 0.1875
v 2.6875 -0.375 0.1875
v 2.3125 -0.375 0.1875
v 2.3125 -0.5 0.1875
v 2.6875 -0.5 0.5625
v 2.6875 -0.375 0.5625
v 2.3125 -0.5 0.5625
v 2.3125 -0.375 0.5625
v 3 -0.5 -1
v 3 0 -1
v 2 0 -1
v 2 -0.5 -1
v 3 -0.5 0
v 3 0 0
v 2 -0.5 0
v 2 0 0
v 3 0.5 -0.75
v 3 1 -0.75
v 2.875 1 -0.75
v 2.875 0.5 -0.75
v 3 0.5 -0.25
v 3 1 -0.25
v 2.875 0.5 -0.25
v 2.875 1 -0.25
v 2.25 -0.5 -1.875
v 2.25 0 -1.875
v 2.125 0 -1.875
v 2.125 -0.5 -1.875
v 2.25 -0.5 -1.625
v 2.25 0 -1.625
v 2.125 -0.5 -1.625
v 2.125 0 -1.625
v 2.875 -0.5 -1.875
v 2.875 0 -1.875
v 2.75 0 -1.875
v 2.75 -0.5 -1.875
v 2.875 -0.5 -1.625
v 2.875 0 -1.625
v 2.75 -0.5 -1.625
v 2.75 0 -1.625
v 2 0.25 -1
v 2 1.25 -1
v 1.75 1.25 -1
v 1.75 0.25 -1
v 2 0.25 0
v 2 1.25 0
v 1.75 0.25 0
v 1.75 1.25 0
v 2.86875 0.375 -0.875
v 2.86875 1.125 -0.875
v 1.99375 1.125 -0.875
v 1.99375 0.375 -0.875
v 2.86875 0.375 -0.125
v 2.86875 1.125 -0.125
v 1.99375 0.375 -0.125
v 1.99375 1.125 -0.125
v 3 0 -2
v 3 1 -2
v 2 1 -2
v 2 0 -2
v 3 0 -1.5
v 3 1 -1.5
v 2 0 -1.5
v 2 1 -1.5
v 1.25 -0.5 0.625
v 1.25 0.125 0.625
v 1.5 0.125 0.625
v 1.5 -0.5 0.625
v 1.25 -0.5 0.375
v 1.25 -0.125 0.375
v 1.5 -0.5 0.375
v 1.5 -0.125 0.375
v 1.75 2 0
v 1.75 1.25 0.75
v -1.5 1.25 0.75
v -1.5 2 0
v 1.75 2 -1
v 1.75 1.25 -1.75
v -1.5 2 -1
v -1.5 1.25 -1.75
v 1.75 -0.5 -1
v 1.75 0.25 -1.75
v -1.5 0.25 -1.75
v -1.5 -0.5 -1
v 1.75 -0.5 0
v 1.75 0.25 0.75
v -1.5 -0.5 0
v -1.5 0.25 0.75
v 1.75 1.25 -1.75
v -1.5 1.25 -1.75
v 1.75 1.25 0.75
v -1.5 1.25 0.75
v 3 -1 -2
v 3 -0.5 -2
v -2 -0.5 -2
v -2 -1 -2
v 3 -1 1
v 3 -0.5 1
v -2 -1 1
v -2 -0.5 1
vt 0 1
vt 1 1
vt 1 0
vt 0 0
vt 0.8125 0.71875
vt 0.75 0.65625
vt 0.75 0.59375
vt 0.8125 0.53125
vt 0.625 0.625
vt 0.671875 0.625
vt 0.671875 0.5625
vt 0.625 0.5625
vt 0 1
vt 1 1
vt 1 0
vt 0 0
vt 0.671875 0.648438125
vt 0.71875 0.648438125
vt 0.71875 0.5625
vt 0.671875 0.5625
vt 0.671875 0.648438125
vt 0.71875 0.648438125
vt 0.71875 0.5625
vt 0.671875 0.5625
vt 0 1
vt 1 1
vt 1 0
vt 0 0
vt 0 1
vt 1 1
vt 1 0
vt 0 0
vt 0.625 0.625
vt 0.671875 0.625
vt 0.671875 0.5625
vt 0.625 0.5625
vt 0.75 0.65625
vt 0.8125 0.71875
vt 0.8125 0.53125
vt 0.75 0.59375
vt 0.671875 0.648438125
vt 0.71875 0.648438125
vt 0.71875 0.5625
vt 0.671875 0.5625
vt 0.671875 0.648438125
vt 0.71875 0.648438125
vt 0.71875 0.5625
vt 0.671875 0.5625
vt 0.0625 0.71875
vt 0.109375 0.71875
vt 0.109375 0.671875
vt 0.046875 0.671875
vt 0 1
vt 1 1
vt 1 0
vt 0 0
vt 0.046875 0.71875
vt 0.09375 0.71875
vt 0.109375 0.671875
vt 0.046875 0.671875
vt 0.75 0.9375
vt 0.875 0.9375
vt 0.875 0.890625
vt 0.75 0.890625
vt 0 1
vt 1 1
vt 1 0
vt 0 0
vt 0 1
vt 1 1
vt 1 0
vt 0 0
vt 0.046875 0.71875
vt 0.109375 0.71875
vt 0.109375 0.671875
vt 0.0625 0.671875
vt 0 1
vt 1 1
vt 1 0
vt 0 0
vt 0.046875 0.71875
vt 0.109375 0.71875
vt 0.09375 0.671875
vt 0.046875 0.671875
vt 0.75 0.859375
vt 0.875 0.859375
vt 0.875 0.8125
vt 0.75 0.8125
vt 0 1
vt 1 1
vt 1 0
vt 0 0
vt 0 1
vt 1 1
vt 1 0
vt 0 0
vt 0.75 0.875
vt 0.8125 0.875
vt 0.8125 0.8125
vt 0.75 0.8125
vt 0 1
vt 1 1
vt 1 0
vt 0 0
vt 0.8125 0.875
vt 0.875 0.875
vt 0.875 0.8125
vt 0.8125 0.8125
vt 0.75 0.875
vt 0.875 0.875
vt 0.875 0.8125
vt 0.75 0.8125
vt 0.625 0.875
vt 0.6875 0.875
vt 0.6875 0.75
vt 0.625 0.75
vt 0.75 0.9375
vt 0.8125 0.9375
vt 0.8125 0.875
vt 0.75 0.875
vt 0 1
vt 1 1
vt 1 0
vt 0 0
vt 0.8125 0.9375
vt 0.875 0.9375
vt 0.875 0.875
vt 0.8125 0.875
vt 0.625 0.9375
vt 0.75 0.9375
vt 0.75 0.875
vt 0.625 0.875
vt 0 1
vt 1 1
vt 1 0
vt 0 0
vt 0 1
vt 1 1
vt 1 0
vt 0 0
vt 0 1
vt 1 1
vt 1 0
vt 0 0
vt 0 1
vt 1 1
vt 1 0
vt 0 0
vt 0.75 0.8125
vt 0.875 0.8125
vt 0.875 0.71875
vt 0.75 0.71875
vt 0 1
vt 1 1
vt 1 0
vt 0 0
vt 0 1
vt 1 1
vt 1 0
vt 0 0
vt 0.65625 0.75
vt 0.671875 0.75
vt 0.671875 0.703125
vt 0.65625 0.703125
vt 0.65625 0.75
vt 0.703125 0.75
vt 0.703125 0.703125
vt 0.65625 0.703125
vt 0.65625 0.75
vt 0.671875 0.75
vt 0.671875 0.703125
vt 0.65625 0.703125
vt 0.65625 0.75
vt 0.671875 0.75
vt 0.671875 0.703125
vt 0.65625 0.703125
vt 0.65625 0.75
vt 0.671875 0.75
vt 0.671875 0.703125
vt 0.65625 0.703125
vt 0.40625 0.25
vt 0.46875 0.25
vt 0.46875 0.1875
vt 0.40625 0.1875
vt 0.46875 0.25
vt 0.515625 0.25
vt 0.515625 0.1875
vt 0.46875 0.1875
vt 0 1
vt 1 1
vt 1 0
vt 0 0
vt 0.46875 0.25
vt 0.515625 0.25
vt 0.515625 0.1875
vt 0.46875 0.1875
vt 0.46875 0.25
vt 0.515625 0.25
vt 0.515625 0.1875
vt 0.46875 0.1875
vt 0.46875 0.25
vt 0.515625 0.25
vt 0.515625 0.1875
vt 0.46875 0.1875
vt 0.71875 0.53125
vt 0.71875 0.8125
vt 0.75 0.8125
vt 0.75 0.53125
vt 0 1
vt 1 1
vt 1 0
vt 0 0
vt 0.71875 0.53125
vt 0.71875 0.8125
vt 0.75 0.8125
vt 0.75 0.53125
vt 0 1
vt 1 1
vt 1 0
vt 0 0
vt 0.734375 0.53125
vt 0.734375 0.8125
vt 0.75 0.8125
vt 0.75 0.53125
vt 0.734375 0.53125
vt 0.734375 0.8125
vt 0.75 0.8125
vt 0.75 0.53125
vt 0.71875 0.53125
vt 0.71875 0.8125
vt 0.75 0.8125
vt 0.75 0.53125
vt 0 1
vt 1 1
vt 1 0
vt 0 0
vt 0.71875 0.53125
vt 0.71875 0.8125
vt 0.75 0.8125
vt 0.75 0.53125
vt 0 1
vt 1 1
vt 1 0
vt 0 0
vt 0.734375 0.53125
vt 0.734375 0.8125
vt 0.75 0.8125
vt 0.75 0.53125
vt 0.734375 0.53125
vt 0.734375 0.8125
vt 0.75 0.8125
vt 0.75 0.53125
vt 0.625 0.75
vt 0.65625 0.75
vt 0.65625 0.671875
vt 0.625 0.671875
vt 0.625 0.75
vt 0.65625 0.71875
vt 0.65625 0.671875
vt 0.625 0.671875
vt 0.625 0.71875
vt 0.65625 0.71875
vt 0.65625 0.671875
vt 0.625 0.671875
vt 0.625 0.71875
vt 0.65625 0.75
vt 0.65625 0.671875
vt 0.625 0.671875
vt 0 1
vt 1 1
vt 1 0
vt 0 0
vt 0 1
vt 1 1
vt 1 0
vt 0 0
vt 0.625 0.75
vt 0.65625 0.75
vt 0.65625 0.671875
vt 0.625 0.671875
vt 0.625 0.75
vt 0.65625 0.71875
vt 0.65625 0.671875
vt 0.625 0.671875
vt 0.625 0.71875
vt 0.65625 0.71875
vt 0.65625 0.671875
vt 0.625 0.671875
vt 0.625 0.71875
vt 0.65625 0.75
vt 0.65625 0.671875
vt 0.625 0.671875
vt 0 1
vt 1 1
vt 1 0
vt 0 0
vt 0 1
vt 1 1
vt 1 0
vt 0 0
vt 0.625 0.75
vt 0.65625 0.75
vt 0.65625 0.671875
vt 0.625 0.671875
vt 0.625 0.75
vt 0.65625 0.71875
vt 0.65625 0.671875
vt 0.625 0.671875
vt 0.625 0.71875
vt 0.65625 0.71875
vt 0.65625 0.671875
vt 0.625 0.671875
vt 0.625 0.71875
vt 0.65625 0.75
vt 0.65625 0.671875
vt 0.625 0.671875
vt 0 1
vt 1 1
vt 1 0
vt 0 0
vt 0 1
vt 1 1
vt 1 0
vt 0 0
vt 0.109375 0.1875
vt 0.21875 0.1875
vt 0.21875 0
vt 0.109375 0
vt 0.21875 0.1875
vt 0.273438125 0.1875
vt 0.273438125 0
vt 0.21875 0
vt 0 0.1875
vt 0.109375 0.1875
vt 0.109375 0
vt 0 0
vt 0.273438125 0.1875
vt 0.21875 0.1875
vt 0.21875 0
vt 0.273438125 0
vt 0.273438125 0.1875
vt 0.382811875 0.1875
vt 0.382811875 0.13281187500000002
vt 0.273438125 0.13281187500000002
vt 0.273438125 0.1875
vt 0.382811875 0.1875
vt 0.382811875 0.13281187500000002
vt 0.273438125 0.13281187500000002
vt 0 1
vt 1 1
vt 1 0
vt 0 0
vt 0.8125 0.601561875
vt 0.8125 0.625
vt 0.84375 0.625
vt 0.84375 0.601561875
vt 0 1
vt 1 1
vt 1 0
vt 0 0
vt 0.8125 0.601561875
vt 0.8125 0.625
vt 0.84375 0.625
vt 0.84375 0.601561875
vt 0.8125 0.601561875
vt 0.8125 0.625
vt 0.84375 0.625
vt 0.84375 0.601561875
vt 0.8125 0.601561875
vt 0.8125 0.625
vt 0.84375 0.625
vt 0.84375 0.601561875
vt 0.65625 0.75
vt 0.703125 0.75
vt 0.703125 0.703125
vt 0.65625 0.703125
vt 0.65625 0.75
vt 0.703125 0.75
vt 0.703125 0.703125
vt 0.65625 0.703125
vt 0 1
vt 1 1
vt 1 0
vt 0 0
vt 0.65625 0.75
vt 0.703125 0.75
vt 0.703125 0.703125
vt 0.65625 0.703125
vt 0.65625 0.75
vt 0.703125 0.75
vt 0.703125 0.703125
vt 0.65625 0.703125
vt 0.65625 0.75
vt 0.703125 0.75
vt 0.703125 0.703125
vt 0.65625 0.703125
vt 0.8125 0.71875
vt 0.84375 0.71875
vt 0.84375 0.601561875
vt 0.8125 0.601561875
vt 0.8125 0.71875
vt 0.84375 0.71875
vt 0.84375 0.601561875
vt 0.8125 0.601561875
vt 0.8125 0.71875
vt 0.84375 0.71875
vt 0.84375 0.601561875
vt 0.8125 0.601561875
vt 0.8125 0.71875
vt 0.84375 0.71875
vt 0.84375 0.601561875
vt 0.8125 0.601561875
vt 0 1
vt 1 1
vt 1 0
vt 0 0
vt 0 1
vt 1 1
vt 1 0
vt 0 0
vt 0.65625 0.71875
vt 0.703125 0.71875
vt 0.703125 0.703125
vt 0.65625 0.703125
vt 0.65625 0.71875
vt 0.703125 0.71875
vt 0.703125 0.703125
vt 0.65625 0.703125
vt 0.65625 0.71875
vt 0.703125 0.71875
vt 0.703125 0.703125
vt 0.65625 0.703125
vt 0.65625 0.71875
vt 0.703125 0.71875
vt 0.703125 0.703125
vt 0.65625 0.703125
vt 0.65625 0.75
vt 0.703125 0.75
vt 0.703125 0.703125
vt 0.65625 0.703125
vt 0 1
vt 1 1
vt 1 0
vt 0 0
vt 0.75 0.9375
vt 0.875 0.9375
vt 0.875 0.875
vt 0.75 0.875
vt 0.625 0.9375
vt 0.75 0.9375
vt 0.75 0.875
vt 0.625 0.875
vt 0.75 0.9375
vt 0.875 0.9375
vt 0.875 0.875
vt 0.75 0.875
vt 0.75 0.9375
vt 0.875 0.9375
vt 0.875 0.875
vt 0.75 0.875
vt 0.75 0.9375
vt 0.875 0.9375
vt 0.875 0.8125
vt 0.75 0.8125
vt 0 1
vt 1 1
vt 1 0
vt 0 0
vt 0.460938125 0.25
vt 0.476561875 0.25
vt 0.476561875 0.1875
vt 0.460938125 0.1875
vt 0.40625 0.25
vt 0.46875 0.25
vt 0.46875 0.1875
vt 0.40625 0.1875
vt 0.460938125 0.25
vt 0.476561875 0.25
vt 0.476561875 0.1875
vt 0.460938125 0.1875
vt 0 1
vt 1 1
vt 1 0
vt 0 0
vt 0.460938125 0.25
vt 0.476561875 0.25
vt 0.476561875 0.1875
vt 0.460938125 0.1875
vt 0.460938125 0.25
vt 0.476561875 0.25
vt 0.476561875 0.1875
vt 0.460938125 0.1875
vt 0.734375 0.875
vt 0.75 0.875
vt 0.75 0.8125
vt 0.734375 0.8125
vt 0.703125 0.875
vt 0.734375 0.875
vt 0.734375 0.8125
vt 0.703125 0.8125
vt 0.734375 0.875
vt 0.75 0.875
vt 0.75 0.8125
vt 0.734375 0.8125
vt 0.703125 0.875
vt 0.734375 0.875
vt 0.734375 0.8125
vt 0.703125 0.8125
vt 0 1
vt 1 1
vt 1 0
vt 0 0
vt 0 1
vt 1 1
vt 1 0
vt 0 0
vt 0.734375 0.875
vt 0.75 0.875
vt 0.75 0.8125
vt 0.734375 0.8125
vt 0.703125 0.875
vt 0.734375 0.875
vt 0.734375 0.8125
vt 0.703125 0.8125
vt 0.734375 0.875
vt 0.75 0.875
vt 0.75 0.8125
vt 0.734375 0.8125
vt 0.703125 0.875
vt 0.734375 0.875
vt 0.734375 0.8125
vt 0.703125 0.8125
vt 0 1
vt 1 1
vt 1 0
vt 0 0
vt 0 1
vt 1 1
vt 1 0
vt 0 0
vt 0.71875 0.8125
vt 0.75 0.8125
vt 0.75 0.6875
vt 0.71875 0.6875
vt 0.75 0.9375
vt 0.875 0.9375
vt 0.875 0.8125
vt 0.75 0.8125
vt 0.71875 0.8125
vt 0.75 0.8125
vt 0.75 0.6875
vt 0.71875 0.6875
vt 0 1
vt 1 1
vt 1 0
vt 0 0
vt 0.71875 0.8125
vt 0.75 0.8125
vt 0.75 0.6875
vt 0.71875 0.6875
vt 0.71875 0.8125
vt 0.75 0.8125
vt 0.75 0.6875
vt 0.71875 0.6875
vt 0.71875 0.328125
vt 0.71875 0.4375
vt 0.8125 0.4375
vt 0.8125 0.328125
vt 0.71875 0.53125
vt 0.8125 0.53125
vt 0.8125 0.4375
vt 0.71875 0.4375
vt 0.71875 0.328125
vt 0.71875 0.4375
vt 0.8125 0.4375
vt 0.8125 0.328125
vt 0 1
vt 1 1
vt 1 0
vt 0 0
vt 0.71875 0.328125
vt 0.71875 0.4375
vt 0.8125 0.4375
vt 0.8125 0.328125
vt 0.71875 0.328125
vt 0.71875 0.4375
vt 0.8125 0.4375
vt 0.8125 0.328125
vt 0.875 0.9375
vt 1 0.9375
vt 1 0.8125
vt 0.875 0.8125
vt 0.8125 0.9375
vt 0.875 0.9375
vt 0.875 0.8125
vt 0.8125 0.8125
vt 0.75 0.9375
vt 0.875 0.9375
vt 0.875 0.8125
vt 0.75 0.8125
vt 0.75 0.9375
vt 0.8125 0.9375
vt 0.8125 0.8125
vt 0.75 0.8125
vt 0.75 0.9375
vt 0.875 0.9375
vt 0.875 0.875
vt 0.75 0.875
vt 0.75 0.875
vt 0.875 0.875
vt 0.875 0.8125
vt 0.75 0.8125
vt 0.625 0.75
vt 0.65625 0.75
vt 0.65625 0.671875
vt 0.625 0.671875
vt 0.625 0.75
vt 0.65625 0.71875
vt 0.65625 0.671875
vt 0.625 0.671875
vt 0.625 0.71875
vt 0.65625 0.71875
vt 0.65625 0.671875
vt 0.625 0.671875
vt 0.625 0.71875
vt 0.65625 0.75
vt 0.65625 0.671875
vt 0.625 0.671875
vt 0 1
vt 1 1
vt 1 0
vt 0 0
vt 0 1
vt 1 1
vt 1 0
vt 0 0
vt 0.40625 0.445311875
vt 0 0.445311875
vt 0 0.3125
vt 0.40625 0.3125
vt 0.71875 0.46875
vt 0.40625 0.46875
vt 0.5 0.5625
vt 0.625 0.5625
vt 0.40625 0.445311875
vt 0 0.445311875
vt 0 0.3125
vt 0.40625 0.3125
vt 0.71875 0.46875
vt 0.40625 0.46875
vt 0.5 0.5625
vt 0.625 0.5625
vt 0 1
vt 1 1
vt 1 0
vt 0 0
vt 0 0.3125
vt 0.40625 0.3125
vt 0.40625 0.1875
vt 0 0.1875
vt 0 0.445311875
vt 0.40625 0.445311875
vt 0.40625 0.3125
vt 0 0.3125
vt 0.40625 0.34375
vt 0.71875 0.34375
vt 0.625 0.25
vt 0.5 0.25
vt 0 0.445311875
vt 0.40625 0.445311875
vt 0.40625 0.3125
vt 0 0.3125
vt 0.40625 0.34375
vt 0.71875 0.34375
vt 0.625 0.25
vt 0.5 0.25
vt 0 1
vt 1 1
vt 1 0
vt 0 0
vt 0 1
vt 1 1
vt 1 0
vt 0 0
vt 0 0.5625
vt 0.40625 0.5625
vt 0.40625 0.4375
vt 0 0.4375
vt 0.40625 0.46875
vt 0.71875 0.46875
vt 0.71875 0.34375
vt 0.40625 0.34375
vt 0 0.5625
vt 0.40625 0.5625
vt 0.40625 0.4375
vt 0 0.4375
vt 0.40625 0.46875
vt 0.71875 0.46875
vt 0.71875 0.34375
vt 0.40625 0.34375
vt 0 1
vt 1 1
vt 1 0
vt 0 0
vt 0 0.625
vt 0.625 0.625
vt 0.625 0.5625
vt 0 0.5625
vt 0.625 1
vt 1 1
vt 1 0.9375
vt 0.625 0.9375
vt 0 0.625
vt 0.625 0.625
vt 0.625 0.5625
vt 0 0.5625
vt 0.625 1
vt 1 1
vt 1 0.9375
vt 0.625 0.9375
vt 0 1
vt 0.625 1
vt 0.625 0.625
vt 0 0.625
vt 0 1
vt 0.625 1
vt 0.625 0.625
vt 0 0.625
vn 0 0 1
vn -1 0 0
vn 0 0 -1
vn 1 0 0
vn 0 0.7071067811865476 -0.7071067811865476
vn 0 -0.7071067811865476 -0.7071067811865476
vn 0 0 -1
vn 1 0 0
vn 0 0 1
vn -1 0 0
vn 0 0.7071067811865476 0.7071067811865476
vn 0 -0.7071067811865476 0.7071067811865476
vn 0 0 -1
vn 1 0 0
vn 0 0 1
vn -0.948683298050514 0.316227766016838 0
vn 0 1 0
vn 0 -1 0
vn 0 0 -1
vn 1 0 0
vn 0 0 1
vn -0.948683298050514 -0.316227766016838 0
vn 0 1 0
vn 0 -1 0
vn 0 0 -1
vn 1 0 0
vn 0 0 1
vn -1 0 0
vn 0 1 0
vn 0 0 -1
vn 1 0 0
vn 0 0 1
vn -1 0 0
vn 0 -1 0
vn 0 0 -1
vn 1 0 0
vn 0 0 1
vn -1 0 0
vn 0 1 0
vn 0 0 -1
vn 1 0 0
vn 0 0 1
vn -1 0 0
vn 0 1 0
vn 0 -1 0
vn 0 0 -1
vn 1 0 0
vn 0 0 1
vn -1 0 0
vn 0 1 0
vn 0 -1 0
vn 0 0 -1
vn 1 0 0
vn 0 0 1
vn -1 0 0
vn 0 1 0
vn 0 -1 0
vn 0 0 -1
vn 1 0 0
vn 0 0 1
vn -1 0 0
vn 0 1 0
vn 0 -1 0
vn 0 0 -1
vn 1 0 0
vn 0 0 1
vn -1 0 0
vn 0 0.7071067811865476 0.7071067811865476
vn 0 -1 0
vn 0 0 -1
vn 1 0 0
vn 0 0 1
vn -1 0 0
vn 0 0.7071067811865476 0.7071067811865476
vn 0 -1 0
vn 0 0 1
vn -1 0 0
vn 0 0 -1
vn 1 0 0
vn 0 0.7071067811865476 -0.7071067811865476
vn 0 -1 0
vn 0 0 -1
vn 1 0 0
vn 0 0 1
vn -1 0 0
vn 0 1 0
vn 0 -1 0
vn 0 0 -1
vn 1 0 0
vn 0 0 1
vn -1 0 0
vn 0 1 0
vn 0 -1 0
vn 0 0 -1
vn 1 0 0
vn 0 0 1
vn -1 0 0
vn 0 1 0
vn 0 -1 0
vn 0 0 -1
vn 1 0 0
vn 0 0 1
vn -1 0 0
vn 0 1 0
vn 0 -1 0
vn 0 0 -1
vn 1 0 0
vn 0 0 1
vn -1 0 0
vn 0 1 0
vn 0 -1 0
vn 0 0 -1
vn 1 0 0
vn 0 0 1
vn -1 0 0
vn 0 1 0
vn 0 -1 0
vn 0 0 -1
vn 1 0 0
vn 0 0 1
vn -1 0 0
vn 0 1 0
vn 0 -1 0
vn 0 0 -1
vn 1 0 0
vn 0 0 1
vn -1 0 0
vn 0 1 0
vn 0 -1 0
vn 0 0 -1
vn 1 0 0
vn 0 0 1
vn -1 0 0
vn 0 1 0
vn 0 -1 0
vn 0 0 -1
vn 1 0 0
vn 0 0 1
vn -1 0 0
vn 0 1 0
vn 0 -1 0
vn 0 0 -1
vn 1 0 0
vn 0 0 1
vn -1 0 0
vn 0 1 0
vn 0 -1 0
vn 0 0 -1
vn 1 0 0
vn 0 0 1
vn -1 0 0
vn 0 1 0
vn 0 -1 0
vn 0 0 1
vn -1 0 0
vn 0 0 -1
vn 1 0 0
vn 0 0.7071067811865476 -0.7071067811865476
vn 0 -1 0
vn 0 0.7071067811865476 0.7071067811865476
vn 1 0 0
vn 0 0.7071067811865476 -0.7071067811865476
vn -1 0 0
vn 0 -1 0
vn 0 1 0
vn 0 -0.7071067811865476 -0.7071067811865476
vn 1 0 0
vn 0 -0.7071067811865476 0.7071067811865476
vn -1 0 0
vn 0 1 0
vn 0 -1 0
vn 0 0 -1
vn 1 0 0
vn 0 0 1
vn -1 0 0
vn 0 1 0
vn 0 0 -1
vn 1 0 0
vn 0 0 1
vn -1 0 0
vn 0 1 0
vn 0 -1 0
usemtl m_45207555-76ae-7643-d736-5f4b98118d68
f 3/1/1 2/2/1 1/3/1 4/4/1
f 2/5/2 6/6/2 5/7/2 1/8/2
f 6/9/3 8/10/3 7/11/3 5/12/3
f 8/13/4 3/14/4 4/15/4 7/16/4
f 8/17/5 6/18/5 2/19/5 3/20/5
f 4/21/6 1/22/6 5/23/6 7/24/6
f 11/25/7 10/26/7 9/27/7 12/28/7
f 10/29/8 14/30/8 13/31/8 9/32/8
f 14/33/9 16/34/9 15/35/9 13/36/9
f 16/37/10 11/38/10 12/39/10 15/40/10
f 16/41/11 14/42/11 10/43/11 11/44/11
f 12/45/12 9/46/12 13/47/12 15/48/12
f 18/49/13 17/50/13 4/51/13 19/52/13
f 17/53/14 20/54/14 9/55/14 4/56/14
f 20/57/15 22/58/15 21/59/15 9/60/15
f 22/61/16 18/62/16 19/63/16 21/64/16
f 22/65/17 20/66/17 17/67/17 18/68/17
f 19/69/18 4/70/18 9/71/18 21/72/18
f 24/73/19 3/74/19 23/75/19 25/76/19
f 3/77/20 10/78/20 26/79/20 23/80/20
f 10/81/21 28/82/21 27/83/21 26/84/21
f 28/85/22 24/86/22 25/87/22 27/88/22
f 28/89/23 10/90/23 3/91/23 24/92/23
f 25/93/24 23/94/24 26/95/24 27/96/24
f 30/97/25 29/98/25 3/99/25 24/100/25
f 29/101/26 31/102/26 10/103/26 3/104/26
f 31/105/27 32/106/27 28/107/27 10/108/27
f 32/109/28 30/110/28 24/111/28 28/112/28
f 32/113/29 31/114/29 29/115/29 30/116/29
f 19/117/30 4/118/30 33/119/30 34/120/30
f 4/121/31 9/122/31 35/123/31 33/124/31
f 9/125/32 21/126/32 36/127/32 35/128/32
f 21/129/33 19/130/33 34/131/33 36/132/33
f 34/133/34 33/134/34 35/135/34 36/136/34
f 37/137/35 23/138/35 17/139/35 18/140/35
f 23/141/36 26/142/36 20/143/36 17/144/36
f 26/145/37 38/146/37 22/147/37 20/148/37
f 38/149/38 37/150/38 18/151/38 22/152/38
f 38/153/39 26/154/39 23/155/39 37/156/39
f 41/157/40 40/158/40 39/159/40 42/160/40
f 40/161/41 44/162/41 43/163/41 39/164/41
f 44/165/42 46/166/42 45/167/42 43/168/42
f 46/169/43 41/170/43 42/171/43 45/172/43
f 46/173/44 44/174/44 40/175/44 41/176/44
f 42/177/45 39/178/45 43/179/45 45/180/45
f 49/181/46 48/182/46 47/183/46 50/184/46
f 48/185/47 52/186/47 51/187/47 47/188/47
f 52/189/48 54/190/48 53/191/48 51/192/48
f 54/193/49 49/194/49 50/195/49 53/196/49
f 54/197/50 52/198/50 48/199/50 49/200/50
f 50/201/51 47/202/51 51/203/51 53/204/51
f 57/205/52 56/206/52 55/207/52 58/208/52
f 56/209/53 60/210/53 59/211/53 55/212/53
f 60/213/54 62/214/54 61/215/54 59/216/54
f 62/217/55 57/218/55 58/219/55 61/220/55
f 62/221/56 60/222/56 56/223/56 57/224/56
f 58/225/57 55/226/57 59/227/57 61/228/57
f 65/229/58 64/230/58 63/231/58 66/232/58
f 64/233/59 68/234/59 67/235/59 63/236/59
f 68/237/60 70/238/60 69/239/60 67/240/60
f 70/241/61 65/242/61 66/243/61 69/244/61
f 70/245/62 68/246/62 64/247/62 65/248/62
f 66/249/63 63/250/63 67/251/63 69/252/63
f 73/253/64 72/254/64 71/255/64 74/256/64
f 72/257/65 76/258/65 75/259/65 71/260/65
f 76/261/66 78/262/66 77/263/66 75/264/66
f 78/265/67 73/266/67 74/267/67 77/268/67
f 78/269/68 76/270/68 72/271/68 73/272/68
f 74/273/69 71/274/69 75/275/69 77/276/69
f 81/277/70 80/278/70 79/279/70 82/280/70
f 80/281/71 84/282/71 83/283/71 79/284/71
f 84/285/72 86/286/72 85/287/72 83/288/72
f 86/289/73 81/290/73 82/291/73 85/292/73
f 86/293/74 84/294/74 80/295/74 81/296/74
f 82/297/75 79/298/75 83/299/75 85/300/75
f 89/301/76 88/302/76 87/303/76 90/304/76
f 88/305/77 92/306/77 91/307/77 87/308/77
f 92/309/78 94/310/78 93/311/78 91/312/78
f 94/313/79 89/314/79 90/315/79 93/316/79
f 94/317/80 92/318/80 88/319/80 89/320/80
f 90/321/81 87/322/81 91/323/81 93/324/81
f 97/325/82 96/326/82 95/327/82 98/328/82
f 96/329/83 100/330/83 99/331/83 95/332/83
f 100/333/84 102/334/84 101/335/84 99/336/84
f 102/337/85 97/338/85 98/339/85 101/340/85
f 102/341/86 100/342/86 96/343/86 97/344/86
f 98/345/87 95/346/87 99/347/87 101/348/87
f 105/349/88 104/350/88 103/351/88 106/352/88
f 104/353/89 108/354/89 107/355/89 103/356/89
f 108/357/90 110/358/90 109/359/90 107/360/90
f 110/361/91 105/362/91 106/363/91 109/364/91
f 110/365/92 108/366/92 104/367/92 105/368/92
f 106/369/93 103/370/93 107/371/93 109/372/93
f 113/373/94 112/374/94 111/375/94 114/376/94
f 112/377/95 116/378/95 115/379/95 111/380/95
f 116/381/96 118/382/96 117/383/96 115/384/96
f 118/385/97 113/386/97 114/387/97 117/388/97
f 118/389/98 116/390/98 112/391/98 113/392/98
f 114/393/99 111/394/99 115/395/99 117/396/99
f 121/397/100 120/398/100 119/399/100 122/400/100
f 120/401/101 124/402/101 123/403/101 119/404/101
f 124/405/102 126/406/102 125/407/102 123/408/102
f 126/409/103 121/410/103 122/411/103 125/412/103
f 126/413/104 124/414/104 120/415/104 121/416/104
f 122/417/105 119/418/105 123/419/105 125/420/105
f 129/421/106 128/422/106 127/423/106 130/424/106
f 128/425/107 132/426/107 131/427/107 127/428/107
f 132/429/108 134/430/108 133/431/108 131/432/108
f 134/433/109 129/434/109 130/435/109 133/436/109
f 134/437/110 132/438/110 128/439/110 129/440/110
f 130/441/111 127/442/111 131/443/111 133/444/111
f 137/445/112 136/446/112 135/447/112 138/448/112
f 136/449/113 140/450/113 139/451/113 135/452/113
f 140/453/114 142/454/114 141/455/114 139/456/114
f 142/457/115 137/458/115 138/459/115 141/460/115
f 142/461/116 140/462/116 136/463/116 137/464/116
f 138/465/117 135/466/117 139/467/117 141/468/117
f 145/469/118 144/470/118 143/471/118 146/472/118
f 144/473/119 148/474/119 147/475/119 143/476/119
f 148/477/120 150/478/120 149/479/120 147/480/120
f 150/481/121 145/482/121 146/483/121 149/484/121
f 150/485/122 148/486/122 144/487/122 145/488/122
f 146/489/123 143/490/123 147/491/123 149/492/123
f 153/493/124 152/494/124 151/495/124 154/496/124
f 152/497/125 156/498/125 155/499/125 151/500/125
f 156/501/126 158/502/126 157/503/126 155/504/126
f 158/505/127 153/506/127 154/507/127 157/508/127
f 158/509/128 156/510/128 152/511/128 153/512/128
f 154/513/129 151/514/129 155/515/129 157/516/129
f 161/517/130 160/518/130 159/519/130 162/520/130
f 160/521/131 164/522/131 163/523/131 159/524/131
f 164/525/132 166/526/132 165/527/132 163/528/132
f 166/529/133 161/530/133 162/531/133 165/532/133
f 166/533/134 164/534/134 160/535/134 161/536/134
f 162/537/135 159/538/135 163/539/135 165/540/135
f 169/541/136 168/542/136 167/543/136 170/544/136
f 168/545/137 172/546/137 171/547/137 167/548/137
f 172/549/138 174/550/138 173/551/138 171/552/138
f 174/553/139 169/554/139 170/555/139 173/556/139
f 174/557/140 172/558/140 168/559/140 169/560/140
f 170/561/141 167/562/141 171/563/141 173/564/141
f 177/565/142 176/566/142 175/567/142 178/568/142
f 176/569/143 180/570/143 179/571/143 175/572/143
f 180/573/144 182/574/144 181/575/144 179/576/144
f 182/577/145 177/578/145 178/579/145 181/580/145
f 182/581/146 180/582/146 176/583/146 177/584/146
f 178/585/147 175/586/147 179/587/147 181/588/147
f 185/589/148 184/590/148 183/591/148 186/592/148
f 184/593/149 188/594/149 187/595/149 183/596/149
f 188/597/150 190/598/150 189/599/150 187/600/150
f 190/601/151 185/602/151 186/603/151 189/604/151
f 190/605/152 188/606/152 184/607/152 185/608/152
f 186/609/153 183/610/153 187/611/153 189/612/153
f 193/613/154 192/614/154 191/615/154 194/616/154
f 192/617/155 196/618/155 195/619/155 191/620/155
f 196/621/156 198/622/156 197/623/156 195/624/156
f 198/625/157 193/626/157 194/627/157 197/628/157
f 198/629/158 196/630/158 192/631/158 193/632/158
f 194/633/159 191/634/159 195/635/159 197/636/159
f 201/637/160 200/638/160 199/639/160 202/640/160
f 200/641/161 204/642/161 203/643/161 199/644/161
f 204/645/162 206/646/162 205/647/162 203/648/162
f 206/649/163 201/650/163 202/651/163 205/652/163
f 206/653/164 204/654/164 200/655/164 201/656/164
f 202/657/165 199/658/165 203/659/165 205/660/165
f 209/661/166 208/662/166 207/663/166 210/664/166
f 208/665/167 212/666/167 211/667/167 207/668/167
f 212/669/168 214/670/168 213/671/168 211/672/168
f 214/673/169 209/674/169 210/675/169 213/676/169
f 214/677/170 212/678/170 208/679/170 209/680/170
f 210/681/171 207/682/171 211/683/171 213/684/171
f 216/685/172 215/686/172 208/687/172 209/688/172
f 215/689/173 217/690/173 212/691/173 208/692/173
f 217/693/174 218/694/174 214/695/174 212/696/174
f 218/697/175 216/698/175 209/699/175 214/700/175
f 218/701/176 217/702/176 215/703/176 216/704/176
f 221/705/177 220/706/177 219/707/177 222/708/177
f 220/709/178 224/710/178 223/711/178 219/712/178
f 224/713/179 226/714/179 225/715/179 223/716/179
f 226/717/180 221/718/180 222/719/180 225/720/180
f 226/721/181 224/722/181 220/723/181 221/724/181
f 222/725/182 219/726/182 223/727/182 225/728/182