# Made in Blockbench 4.12.6
mtllib solar_reflector.mtl

o mirror
v -1.5 0.375 -0.75
v -1.49985 0.957409 1.456298
v -1.49985 1.045798 1.367909
v -1.49985 0.33869099999999996 0.660803
v -1.49985 0.250302 0.7491909999999999
v 1.49985 0.33869099999999996 0.660803
v 1.49985 0.250302 0.7491909999999999
v 1.49985 1.045798 1.367909
v 1.49985 0.957409 1.456298
v -1.49985 0.250302 -0.7491909999999999
v -1.49985 0.33869099999999996 -0.660802
v -1.49985 1.045798 -1.367909
v -1.49985 0.957409 -1.456297
v 1.49985 1.045798 -1.367909
v 1.49985 0.957409 -1.456297
v 1.49985 0.33869099999999996 -0.660802
v 1.49985 0.250302 -0.7491909999999999
v -1.5 0.25 0.75
v -1.5 0.375 0.75
v -1.5 0.25 -0.75
v 1.5 0.375 -0.75
v 1.5 0.25 -0.75
v 1.5 0.375 0.75
v 1.5 0.25 0.75
v -1.5 0 -0.125
v -1.5 0.25 -0.125
v -1.5 0.25 -0.375
v -1.5 0 -0.375
v 1.5 0.25 -0.375
v 1.5 0 -0.375
v 1.5 0.25 -0.125
v 1.5 0 -0.125
v -1.5 0 0.375
v -1.5 0.25 0.375
v -1.5 0.25 0.125
v -1.5 0 0.125
v 1.5 0.25 0.125
v 1.5 0 0.125
v 1.5 0.25 0.375
v 1.5 0 0.375
v -0.625 -0.0011660000000000004 0.125
v -0.625 0.248834 0.125
v -0.625 0.248834 -0.125
v -0.625 -0.0011660000000000004 -0.125
v -0.375 -0.0011660000000000004 -0.125
v -0.375 0.248834 -0.125
v -0.375 0.248834 0.125
v -0.375 -0.0011660000000000004 0.125
v 0.375 -0.0011660000000000004 0.125
v 0.375 0.248834 0.125
v 0.375 0.248834 -0.125
v 0.375 -0.0011660000000000004 -0.125
v 0.625 -0.0011660000000000004 -0.125
v 0.625 0.248834 -0.125
v 0.625 0.248834 0.125
v 0.625 -0.0011660000000000004 0.125
v 1.25 -0.0011660000000000004 0.125
v 1.25 0.248834 0.125
v 1.25 0.248834 -0.125
v 1.25 -0.0011660000000000004 -0.125
v 1.5 -0.0011660000000000004 -0.125
v 1.5 -0.0011660000000000004 0.125
v -1.25 -0.0011660000000000004 -0.125
v -1.25 0.248834 -0.125
v -1.25 0.248834 0.125
v -1.25 -0.0011660000000000004 0.125
v -1.5 -0.0011660000000000004 -0.125
v -1.5 -0.0011660000000000004 0.125
vt 0.625 0.570312
vt 0.625 0.554688
vt 0.75 0.554688
vt 0.75 0.570312
vt 0 0
vt 0 0
vt 0 0
vt 0 0
vt 0.625 0.554688
vt 0.625 0.570312
vt 0.5 0.570312
vt 0.5 0.554688
vt 0.75 0.554688
vt 0.75 0.570312
vt 0.375 0.570312
vt 0.375 0.554688
vt 0.375 0.25
vt 0.75 0.25
vt 0.75 0.125
vt 0.375 0.125
vt 0.75 0.875
vt 0.375 0.875
vt 0.375 1
vt 0.75 1
vt 0.625 0.570312
vt 0.625 0.554688
vt 0.75 0.554688
vt 0.75 0.570312
vt 0.375 0.570312
vt 0.375 0.554688
vt 0.75 0.554688
vt 0.75 0.570312
vt 0.375 0.554688
vt 0.375 0.570312
vt 0.5 0.570312
vt 0.5 0.554688
vt 0 0
vt 0 0
vt 0 0
vt 0 0
vt 0.375 0.5625
vt 0.75 0.5625
vt 0.75 0.4375
vt 0.375 0.4375
vt 0.75 0.5625
vt 0.375 0.5625
vt 0.375 0.6875
vt 0.75 0.6875
vt 0.5625 0.570312
vt 0.5625 0.554688
vt 0.75 0.554688
vt 0.75 0.570312
vt 0 0
vt 0 0
vt 0 0
vt 0 0
vt 0.5625 0.554688
vt 0.5625 0.570312
vt 0.375 0.570312
vt 0.375 0.554688
vt 0 0
vt 0 0
vt 0 0
vt 0 0
vt 0.375 0.25
vt 0.75 0.25
vt 0.75 0.4375
vt 0.375 0.4375
vt 0.375 0.875
vt 0.75 0.875
vt 0.75 0.6875
vt 0.375 0.6875
vt 0 0
vt 0 0
vt 0 0
vt 0 0
vt 0.75 1
vt 0.78125 1
vt 0.78125 0.625
vt 0.75 0.625
vt 0 0
vt 0 0
vt 0 0
vt 0 0
vt 0.78125 0.625
vt 0.75 0.625
vt 0.75 1
vt 0.78125 1
vt 0.75 1
vt 0.75 0.625
vt 0.78125 0.625
vt 0.78125 1
vt 0 0
vt 0 0
vt 0 0
vt 0 0
vt 0.75 1
vt 0.78125 1
vt 0.78125 0.625
vt 0.75 0.625
vt 0 0
vt 0 0
vt 0 0
vt 0 0
vt 0.78125 0.625
vt 0.75 0.625
vt 0.75 1
vt 0.78125 1
vt 0.75 1
vt 0.75 0.625
vt 0.78125 0.625
vt 0.78125 1
vt 0.78125 0.960938
vt 0.75 0.960938
vt 0.75 0.992188
vt 0.78125 0.992188
vt 0.75 0.992188
vt 0.78125 0.992188
vt 0.78125 0.960938
vt 0.75 0.960938
vt 0.78125 0.992188
vt 0.75 0.992188
vt 0.75 0.960938
vt 0.78125 0.960938
vt 0.78125 0.960938
vt 0.75 0.960938
vt 0.75 0.992188
vt 0.78125 0.992188
vt 0.75 0.992188
vt 0.78125 0.992188
vt 0.78125 0.960938
vt 0.75 0.960938
vt 0.78125 0.992188
vt 0.75 0.992188
vt 0.75 0.960938
vt 0.78125 0.960938
vt 0.78125 0.960938
vt 0.75 0.960938
vt 0.75 0.992188
vt 0.78125 0.992188
vt 0.78125 0.992188
vt 0.75 0.992188
vt 0.75 0.960938
vt 0.78125 0.960938
vt 0.75 0.992188
vt 0.78125 0.992188
vt 0.78125 0.960938
vt 0.75 0.960938
vt 0.78125 0.992188
vt 0.75 0.992188
vt 0.75 0.960938
vt 0.78125 0.960938
vn -1 0 0
vn 0 -0.7071027811821284 -0.7071107811683393
vn 1 0 0
vn 0 0.7071067811865476 0.7071067811865476
vn 0 -0.7071067811865476 0.7071067811865475
vn 0 0.7071062811861719 -0.7071072811865696
vn -1 0 0
vn 0 0.707102781182128 -0.7071107811683397
vn 1 0 0
vn 0 -0.7071067811865478 0.7071067811865474
vn 0 -0.7071062811861719 -0.7071072811865696
vn 0 0.7071067811865476 0.7071067811865476
vn -1 0 0
vn 0 0 -1
vn 1 0 0
vn 0 0 1
vn 0 -1 0
vn 0 1 0
vn -1 0 0
vn 0 0 -1
vn 1 0 0
vn 0 0 1
vn 0 -1 0
vn -1 0 0
vn 0 0 -1
vn 1 0 0
vn 0 0 1
vn 0 -1 0
vn -1 0 0
vn 1 0 0
vn 0 -1 0
vn -1 0 0
vn 1 0 0
vn 0 -1 0
vn -1 0 0
vn 0 -1 0
vn 1 0 0
vn 0 -1 0
usemtl m_fa385af5-f5af-063b-95a9-c7b42f9d79fc
f 2/1/1 3/2/1 4/3/1 5/4/1
f 5/5/2 4/6/2 6/7/2 7/8/2
f 7/9/3 6/10/3 8/11/3 9/12/3
f 9/13/4 8/14/4 3/15/4 2/16/4
f 5/17/5 7/18/5 9/19/5 2/20/5
f 6/21/6 4/22/6 3/23/6 8/24/6
f 10/25/7 11/26/7 12/27/7 13/28/7
f 13/29/8 12/30/8 14/31/8 15/32/8
f 15/33/9 14/34/9 16/35/9 17/36/9
f 17/37/10 16/38/10 11/39/10 10/40/10
f 13/41/11 15/42/11 17/43/11 10/44/11
f 14/45/12 12/46/12 11/47/12 16/48/12
f 18/49/13 19/50/13 1/51/13 20/52/13
f 20/53/14 1/54/14 21/55/14 22/56/14
f 22/57/15 21/58/15 23/59/15 24/60/15
f 24/61/16 23/62/16 19/63/16 18/64/16
f 20/65/17 22/66/17 24/67/17 18/68/17
f 21/69/18 1/70/18 19/71/18 23/72/18
f 25/73/19 26/74/19 27/75/19 28/76/19
f 28/77/20 27/78/20 29/79/20 30/80/20
f 30/81/21 29/82/21 31/83/21 32/84/21
f 32/85/22 31/86/22 26/87/22 25/88/22
f 28/89/23 30/90/23 32/91/23 25/92/23
f 33/93/24 34/94/24 35/95/24 36/96/24
f 36/97/25 35/98/25 37/99/25 38/100/25
f 38/101/26 37/102/26 39/103/26 40/104/26
f 40/105/27 39/106/27 34/107/27 33/108/27
f 36/109/28 38/110/28 40/111/28 33/112/28
f 41/113/29 42/114/29 43/115/29 44/116/29
f 45/117/30 46/118/30 47/119/30 48/120/30
f 44/121/31 45/122/31 48/123/31 41/124/31
f 49/125/32 50/126/32 51/127/32 52/128/32
f 53/129/33 54/130/33 55/131/33 56/132/33
f 52/133/34 53/134/34 56/135/34 49/136/34
f 57/137/35 58/138/35 59/139/35 60/140/35
f 60/141/36 61/142/36 62/143/36 57/144/36
f 63/145/37 64/146/37 65/147/37 66/148/37
f 67/149/38 63/150/38 66/151/38 68/152/38