# Made in Blockbench 4.12.5
mtllib coke_oven_heater.mtl

g fan
o fan
v 0.71829 0.25046 1.821653125
v 0.74954 0.28171 1.77745875
v 0.81204 0.34421 1.865846875
v 0.78079 0.31296 1.91004125
v 0.49731875 0.47143125 1.821653125
v 0.52856875 0.50268125 1.77745875
v 0.55981875 0.53393125 1.91004125
v 0.59106875 0.56518125 1.865846875
v 0.18796 0.34421 1.821653125
v 0.21921 0.31296 1.77745875
v 0.28171 0.25046 1.865846875
v 0.25046 0.28171 1.91004125
v 0.40893125 0.56518125 1.821653125
v 0.44018125 0.53393125 1.77745875
v 0.47143125 0.50268125 1.91004125
v 0.50268125 0.47143125 1.865846875
v 0.28171 0.87454 1.759153125
v 0.25046 0.84329 1.77745875
v 0.18796 0.78079 1.865846875
v 0.21921 0.81204 1.84754125
v 0.50268125 0.65356875 1.759153125
v 0.47143125 0.62231875 1.77745875
v 0.44018125 0.59106875 1.84754125
v 0.40893125 0.55981875 1.865846875
v 0.81204 0.78079 1.821653125
v 0.78079 0.81204 1.77745875
v 0.71829 0.87454 1.865846875
v 0.74954 0.84329 1.91004125
v 0.59106875 0.55981875 1.821653125
v 0.55981875 0.59106875 1.77745875
v 0.52856875 0.62231875 1.91004125
v 0.49731875 0.65356875 1.865846875
v 0.5 0.474111875 1.9375
v 0.411611875 0.5625 1.9375
v 0.5 0.650888125 1.9375
v 0.588388125 0.5625 1.9375
v 0.5 0.474111875 1.75
v 0.588388125 0.5625 1.75
v 0.5 0.650888125 1.75
v 0.411611875 0.5625 1.75
v 0.28171 0.25046 -0.696653125
v 0.25046 0.28171 -0.65245875
v 0.18796 0.34421 -0.740846875
v 0.21921 0.31296 -0.78504125
v 0.50268125 0.47143125 -0.696653125
v 0.47143125 0.50268125 -0.65245875
v 0.44018125 0.53393125 -0.78504125
v 0.40893125 0.56518125 -0.740846875
v 0.81204 0.34421 -0.696653125
v 0.78079 0.31296 -0.65245875
v 0.71829 0.25046 -0.740846875
v 0.74954 0.28171 -0.78504125
v 0.59106875 0.56518125 -0.696653125
v 0.55981875 0.53393125 -0.65245875
v 0.52856875 0.50268125 -0.78504125
v 0.49731875 0.47143125 -0.740846875
v 0.71829 0.87454 -0.696653125
v 0.74954 0.84329 -0.65245875
v 0.81204 0.78079 -0.740846875
v 0.78079 0.81204 -0.78504125
v 0.49731875 0.65356875 -0.696653125
v 0.52856875 0.62231875 -0.65245875
v 0.55981875 0.59106875 -0.78504125
v 0.59106875 0.55981875 -0.740846875
v 0.18796 0.78079 -0.696653125
v 0.21921 0.81204 -0.65245875
v 0.28171 0.87454 -0.740846875
v 0.25046 0.84329 -0.78504125
v 0.40893125 0.55981875 -0.696653125
v 0.44018125 0.59106875 -0.65245875
v 0.47143125 0.62231875 -0.78504125
v 0.50268125 0.65356875 -0.740846875
v 0.5 0.474111875 -0.8125
v 0.588388125 0.5625 -0.8125
v 0.5 0.650888125 -0.8125
v 0.411611875 0.5625 -0.8125
v 0.5 0.474111875 -0.625
v 0.411611875 0.5625 -0.625
v 0.5 0.650888125 -0.625
v 0.588388125 0.5625 -0.625
vt 0.21875 0.40625
vt 0.21875 0.390625
vt 0.25 0.390625
vt 0.25 0.40625
vt 0.21875 0.40625
vt 0.234375 0.40625
vt 0.234375 0.328125
vt 0.21875 0.328125
vt 0.25 0.328125
vt 0.21875 0.328125
vt 0.21875 0.40625
vt 0.25 0.40625
vt 0.234375 0.40625
vt 0.25 0.40625
vt 0.25 0.328125
vt 0.234375 0.328125
vt 0.21875 0.40625
vt 0.25 0.40625
vt 0.25 0.328125
vt 0.21875 0.328125
vt 0.21875 0.390625
vt 0.21875 0.40625
vt 0.25 0.40625
vt 0.25 0.390625
vt 0.21875 0.40625
vt 0.234375 0.40625
vt 0.234375 0.328125
vt 0.21875 0.328125
vt 0.25 0.328125
vt 0.21875 0.328125
vt 0.21875 0.40625
vt 0.25 0.40625
vt 0.234375 0.40625
vt 0.25 0.40625
vt 0.25 0.328125
vt 0.234375 0.328125
vt 0.21875 0.40625
vt 0.25 0.40625
vt 0.25 0.328125
vt 0.21875 0.328125
vt 0.21875 0.390625
vt 0.21875 0.40625
vt 0.25 0.40625
vt 0.25 0.390625
vt 0.21875 0.328125
vt 0.234375 0.328125
vt 0.234375 0.40625
vt 0.21875 0.40625
vt 0.25 0.328125
vt 0.21875 0.328125
vt 0.21875 0.40625
vt 0.25 0.40625
vt 0.25 0.328125
vt 0.234375 0.328125
vt 0.234375 0.40625
vt 0.25 0.40625
vt 0.21875 0.40625
vt 0.25 0.40625
vt 0.25 0.328125
vt 0.21875 0.328125
vt 0.21875 0.390625
vt 0.21875 0.40625
vt 0.25 0.40625
vt 0.25 0.390625
vt 0.21875 0.328125
vt 0.234375 0.328125
vt 0.234375 0.40625
vt 0.21875 0.40625
vt 0.25 0.328125
vt 0.21875 0.328125
vt 0.21875 0.40625
vt 0.25 0.40625
vt 0.25 0.328125
vt 0.234375 0.328125
vt 0.234375 0.40625
vt 0.25 0.40625
vt 0.21875 0.40625
vt 0.25 0.40625
vt 0.25 0.328125
vt 0.21875 0.328125
vt 0.25 0.296875
vt 0.21875 0.296875
vt 0.21875 0.328125
vt 0.25 0.328125
vt 0.21875 0.296875
vt 0.21875 0.25
vt 0.25 0.25
vt 0.25 0.296875
vt 0.21875 0.296875
vt 0.21875 0.25
vt 0.25 0.25
vt 0.25 0.296875
vt 0.21875 0.296875
vt 0.21875 0.25
vt 0.25 0.25
vt 0.25 0.296875
vt 0.21875 0.296875
vt 0.21875 0.25
vt 0.25 0.25
vt 0.25 0.296875
vt 0.21875 0.40625
vt 0.21875 0.390625
vt 0.25 0.390625
vt 0.25 0.40625
vt 0.21875 0.40625
vt 0.234375 0.40625
vt 0.234375 0.328125
vt 0.21875 0.328125
vt 0.25 0.328125
vt 0.21875 0.328125
vt 0.21875 0.40625
vt 0.25 0.40625
vt 0.234375 0.40625
vt 0.25 0.40625
vt 0.25 0.328125
vt 0.234375 0.328125
vt 0.21875 0.40625
vt 0.25 0.40625
vt 0.25 0.328125
vt 0.21875 0.328125
vt 0.21875 0.390625
vt 0.21875 0.40625
vt 0.25 0.40625
vt 0.25 0.390625
vt 0.21875 0.40625
vt 0.234375 0.40625
vt 0.234375 0.328125
vt 0.21875 0.328125
vt 0.25 0.328125
vt 0.21875 0.328125
vt 0.21875 0.40625
vt 0.25 0.40625
vt 0.234375 0.40625
vt 0.25 0.40625
vt 0.25 0.328125
vt 0.234375 0.328125
vt 0.21875 0.40625
vt 0.25 0.40625
vt 0.25 0.328125
vt 0.21875 0.328125
vt 0.21875 0.390625
vt 0.21875 0.40625
vt 0.25 0.40625
vt 0.25 0.390625
vt 0.21875 0.328125
vt 0.234375 0.328125
vt 0.234375 0.40625
vt 0.21875 0.40625
vt 0.25 0.328125
vt 0.21875 0.328125
vt 0.21875 0.40625
vt 0.25 0.40625
vt 0.25 0.328125
vt 0.234375 0.328125
vt 0.234375 0.40625
vt 0.25 0.40625
vt 0.21875 0.40625
vt 0.25 0.40625
vt 0.25 0.328125
vt 0.21875 0.328125
vt 0.21875 0.390625
vt 0.21875 0.40625
vt 0.25 0.40625
vt 0.25 0.390625
vt 0.21875 0.328125
vt 0.234375 0.328125
vt 0.234375 0.40625
vt 0.21875 0.40625
vt 0.25 0.328125
vt 0.21875 0.328125
vt 0.21875 0.40625
vt 0.25 0.40625
vt 0.25 0.328125
vt 0.234375 0.328125
vt 0.234375 0.40625
vt 0.25 0.40625
vt 0.21875 0.40625
vt 0.25 0.40625
vt 0.25 0.328125
vt 0.21875 0.328125
vt 0.25 0.296875
vt 0.21875 0.296875
vt 0.21875 0.328125
vt 0.25 0.328125
vt 0.21875 0.296875
vt 0.21875 0.25
vt 0.25 0.25
vt 0.25 0.296875
vt 0.21875 0.296875
vt 0.21875 0.25
vt 0.25 0.25
vt 0.25 0.296875
vt 0.21875 0.296875
vt 0.21875 0.25
vt 0.25 0.25
vt 0.25 0.296875
vt 0.21875 0.296875
vt 0.21875 0.25
vt 0.25 0.25
vt 0.25 0.296875
vn 0.7071067811865476 -0.7071067811865476 0
vn -0.5000011380185246 -0.5000011380185246 -0.7071051717816528
vn -0.49999937025426666 -0.4999993702542666 0.7071076717803828
vn 0.5000011380185246 0.5000011380185246 0.7071051717816528
vn 0.4999993702542667 0.4999993702542667 -0.7071076717803829
vn -0.7071067811865475 -0.7071067811865476 1.1102218960227238e-16
vn -0.5000011380185245 0.5000011380185247 -0.7071051717816529
vn -0.4999993702542666 0.4999993702542668 0.7071076717803829
vn 0.500001138018525 -0.5000011380185251 0.7071051717816522
vn 0.49999937025426694 -0.4999993702542668 -0.7071076717803825
vn -0.7071067811865477 0.7071067811865475 -3.790525352012313e-16
vn -0.270595511773425 -0.2705955117734251 -0.9238810194046398
vn 0.4999993702542668 0.4999993702542668 0.7071076717803827
vn 0.2705955117734249 0.27059551177342495 0.9238810194046401
vn -0.4999993702542666 -0.4999993702542668 -0.7071076717803829
vn 0.7071067811865476 0.7071067811865476 0
vn 0.5000011380185246 -0.5000011380185246 -0.7071051717816528
vn 0.4999993702542667 -0.4999993702542667 0.7071076717803829
vn -0.5000011380185244 0.5000011380185244 0.7071051717816531
vn -0.4999993702542665 0.4999993702542666 -0.7071076717803831
vn 0 0 -1
vn 0.7071067811865474 -0.7071067811865478 0
vn -0.7071067811865478 0.7071067811865474 0
vn 0.7071067811865476 0.7071067811865476 0
vn -0.7071067811865476 -0.7071067811865476 0
vn -0.7071067811865475 -0.7071067811865476 1.1102218960227226e-16
vn 0.500001138018525 -0.5000011380185251 0.7071051717816522
vn 0.49999937025426755 -0.4999993702542674 -0.7071076717803817
vn -0.5000011380185245 0.5000011380185247 -0.7071051717816529
vn -0.4999993702542671 0.4999993702542674 0.707107671780382
vn 0.7071067811865476 -0.7071067811865476 0
vn 0.5000011380185246 0.5000011380185246 0.7071051717816528
vn 0.49999937025426733 0.49999937025426733 -0.707107671780382
vn -0.5000011380185246 -0.5000011380185246 -0.7071051717816528
vn -0.4999993702542673 -0.4999993702542673 0.707107671780382
vn 0.7071067811865476 0.7071067811865476 0
vn -0.5000011380185244 0.5000011380185244 0.7071051717816531
vn -0.49999937025426705 0.4999993702542672 -0.7071076717803821
vn 0.5000011380185246 -0.5000011380185246 -0.7071051717816528
vn 0.49999937025426733 -0.49999937025426733 0.707107671780382
vn -0.7071067811865475 0.7071067811865476 -1.1102218960227226e-16
vn -0.5000011380185245 -0.5000011380185247 0.7071051717816529
vn -0.4999993702542671 -0.4999993702542674 -0.707107671780382
vn 0.5000011380185249 0.5000011380185249 -0.7071051717816526
vn 0.4999993702542674 0.4999993702542674 0.7071076717803818
vn 0 0 1
vn -0.7071067811865476 -0.7071067811865476 0
vn 0.7071067811865476 0.7071067811865476 0
vn -0.7071067811865478 0.7071067811865474 0
vn 0.7071067811865474 -0.7071067811865478 0
g body
usemtl base
f 1/1/1 2/2/1 3/3/1 4/4/1
f 5/5/2 6/6/2 2/7/2 1/8/2
f 7/9/3 5/10/3 1/11/3 4/12/3
f 8/13/4 7/14/4 4/15/4 3/16/4
f 6/17/5 8/18/5 3/19/5 2/20/5
f 9/21/6 10/22/6 11/23/6 12/24/6
f 13/25/7 14/26/7 10/27/7 9/28/7
f 15/29/8 13/30/8 9/31/8 12/32/8
f 16/33/9 15/34/9 12/35/9 11/36/9
f 14/37/10 16/38/10 11/39/10 10/40/10
f 17/41/11 18/42/11 19/43/11 20/44/11
f 21/45/12 22/46/12 18/47/12 17/48/12
f 23/49/13 21/50/13 17/51/13 20/52/13
f 24/53/14 23/54/14 20/55/14 19/56/14
f 22/57/15 24/58/15 19/59/15 18/60/15
f 25/61/16 26/62/16 27/63/16 28/64/16
f 29/65/17 30/66/17 26/67/17 25/68/17
f 31/69/18 29/70/18 25/71/18 28/72/18
f 32/73/19 31/74/19 28/75/19 27/76/19
f 30/77/20 32/78/20 27/79/20 26/80/20
f 33/81/21 34/82/21 35/83/21 36/84/21
f 33/85/22 37/86/22 38/87/22 36/88/22
f 35/89/23 39/90/23 40/91/23 34/92/23
f 36/93/24 38/94/24 39/95/24 35/96/24
f 34/97/25 40/98/25 37/99/25 33/100/25
f 41/101/26 42/102/26 43/103/26 44/104/26
f 45/105/27 46/106/27 42/107/27 41/108/27
f 47/109/28 45/110/28 41/111/28 44/112/28
f 48/113/29 47/114/29 44/115/29 43/116/29
f 46/117/30 48/118/30 43/119/30 42/120/30
f 49/121/31 50/122/31 51/123/31 52/124/31
f 53/125/32 54/126/32 50/127/32 49/128/32
f 55/129/33 53/130/33 49/131/33 52/132/33
f 56/133/34 55/134/34 52/135/34 51/136/34
f 54/137/35 56/138/35 51/139/35 50/140/35
f 57/141/36 58/142/36 59/143/36 60/144/36
f 61/145/37 62/146/37 58/147/37 57/148/37
f 63/149/38 61/150/38 57/151/38 60/152/38
f 64/153/39 63/154/39 60/155/39 59/156/39
f 62/157/40 64/158/40 59/159/40 58/160/40
f 65/161/41 66/162/41 67/163/41 68/164/41
f 69/165/42 70/166/42 66/167/42 65/168/42
f 71/169/43 69/170/43 65/171/43 68/172/43
f 72/173/44 71/174/44 68/175/44 67/176/44
f 70/177/45 72/178/45 67/179/45 66/180/45
f 73/181/46 74/182/46 75/183/46 76/184/46
f 73/185/47 77/186/47 78/187/47 76/188/47
f 75/189/48 79/190/48 80/191/48 74/192/48
f 76/193/49 78/194/49 79/195/49 75/196/49
f 74/197/50 80/198/50 77/199/50 73/200/50
o cuboid
v 0.9375 0.9375 0
v 0.9375 0.9375 1
v 0.9375 0.0625 1
v 0.9375 0.0625 0
v -0.5 0.25 0.75
v -0.5 0.75 0.75
v -0.5 0.75 0.25
v -0.5 0.25 0.25
v 0.1875 1 0.8125
v 0.8125 1 0.8125
v 0.8125 1 0.1875
v 0.1875 1 0.1875
v 0.0625 0.0625 1
v 0.0625 0.0625 0
v 0.0625 0.9375 1
v 0.0625 0.9375 0
v 0.8125 0.9375 0.8125
v 0.1875 0.9375 0.8125
v 0.8125 0.9375 0.1875
v 0.1875 0.9375 0.1875
v 0.0625 0.75 0.75
v 0.0625 0.25 0.75
v 0.0625 0.75 0.25
v 0.0625 0.25 0.25
v 1 1 1
v 1 1 2
v 1 0 2
v 1 0 1
v 0 0 2
v 0 1 2
v 0 1 1
v 0 0 1
v 0.875 0.125 1.6875
v 0.875 0.875 1.6875
v 0.125 0.875 1.6875
v 0.125 0.125 1.6875
v 0.875 0.875 2
v 0.875 0.125 2
v 0.125 0.875 2
v 0.125 0.125 2
v 0.625 0.625 1.875
v 0.625 0.625 2
v 0.625 0.375 2
v 0.625 0.375 1.875
v 0.375 0.375 2
v 0.375 0.625 2
v 0.375 0.625 1.875
v 0.375 0.375 1.875
v 0.375 0.4375 1.9375
v 0.375 0.5625 1.9375
v 0.125 0.5625 1.9375
v 0.125 0.4375 1.9375
v 0.875 0.4375 1.9375
v 0.875 0.5625 1.9375
v 0.625 0.5625 1.9375
v 0.625 0.4375 1.9375
v 0.5625 0.875 1.9375
v 0.4375 0.875 1.9375
v 0.4375 0.625 1.9375
v 0.5625 0.625 1.9375
v 0.5625 0.375 1.9375
v 0.4375 0.375 1.9375
v 0.4375 0.125 1.9375
v 0.5625 0.125 1.9375
v 0.375 0.625 -0.8125
v 0.375 0.625 -0.9375
v 0.375 0.375 -0.9375
v 0.375 0.375 -0.8125
v 0.625 0.375 -0.9375
v 0.625 0.625 -0.9375
v 0.625 0.625 -0.8125
v 0.625 0.375 -0.8125
v 0.125 0.4375 -0.875
v 0.125 0.5625 -0.875
v 0.375 0.5625 -0.875
v 0.375 0.4375 -0.875
v 0.625 0.4375 -0.875
v 0.625 0.5625 -0.875
v 0.875 0.5625 -0.875
v 0.875 0.4375 -0.875
v 0.4375 0.875 -0.875
v 0.5625 0.875 -0.875
v 0.5625 0.625 -0.875
v 0.4375 0.625 -0.875
v 0.4375 0.375 -0.875
v 0.5625 0.375 -0.875
v 0.5625 0.125 -0.875
v 0.4375 0.125 -0.875
v 0 1 0
v 0 1 -1
v 0 0 -1
v 0 0 0
v 1 0 -1
v 1 1 -1
v 1 1 0
v 1 0 0
v 0.125 0.125 -0.6875
v 0.125 0.875 -0.6875
v 0.875 0.875 -0.6875
v 0.875 0.125 -0.6875
v 0.125 0.875 -1
v 0.125 0.125 -1
v 0.875 0.875 -1
v 0.875 0.125 -1
vt 0.75 0.46875
vt 0.5 0.46875
vt 0.5 0.25
vt 0.75 0.25
vt 0.6875 0.046875
vt 0.6875 0.171875
vt 0.5625 0.171875
vt 0.5625 0.046875
vt 0.546875 0.484375
vt 0.703125 0.484375
vt 0.703125 0.640625
vt 0.546875 0.640625
vt 0.75 0.25
vt 0.75 0.46875
vt 0.5 0.46875
vt 0.5 0.25
vt 1 0
vt 1 0.25
vt 0.75 0.25
vt 0.75 0
vt 1 0.25
vt 0.75 0.25
vt 0.75 0
vt 1 0
vt 0.796875 0.28125
vt 0.796875 0.4375
vt 0.75 0.46875
vt 0.75 0.25
vt 0.953125 0.28125
vt 0.796875 0.28125
vt 0.75 0.25
vt 1 0.25
vt 0.953125 0.4375
vt 0.953125 0.28125
vt 1 0.25
vt 1 0.46875
vt 0.796875 0.4375
vt 0.953125 0.4375
vt 1 0.46875
vt 0.75 0.46875
vt 0.546875 0.469324375
vt 0.703125 0.46875
vt 0.703125 0.484108125
vt 0.547215 0.484375
vt 0.703125 0.484375
vt 0.546875 0.484375
vt 0.546875 0.46875
vt 0.703125 0.46875
vt 0.546875 0.46875
vt 0.703125 0.46875
vt 0.703125 0.484375
vt 0.546875 0.484375
vt 0.703125 0.484375
vt 0.546875 0.484375
vt 0.546875 0.46875
vt 0.703125 0.46875
vt 0.6875 0.171875
vt 0.6875 0.046875
vt 0.75 0
vt 0.75 0.21875
vt 0.5625 0.171875
vt 0.6875 0.171875
vt 0.75 0.21875
vt 0.5 0.21875
vt 0.5625 0.046875
vt 0.5625 0.171875
vt 0.5 0.21875
vt 0.5 0
vt 0.6875 0.046875
vt 0.5625 0.046875
vt 0.5 0
vt 0.75 0
vt 0.9375 0.71875
vt 0.796875 0.71875
vt 0.796875 0.59375
vt 0.9375 0.59375
vt 0.796875 0.59375
vt 0.9375 0.59375
vt 0.9375 0.71875
vt 0.796875 0.71875
vt 0.796875 0.59375
vt 0.9375 0.59375
vt 0.9375 0.71875
vt 0.796875 0.71875
vt 0.798309375 0.594330625
vt 0.9375 0.59319
vt 0.9375 0.718153125
vt 0.799351875 0.71875
vt 0.5 0.25
vt 0.25 0.25
vt 0.25 0
vt 0.5 0
vt 0.5 0
vt 0.5 0.25
vt 0.25 0.25
vt 0.25 0
vt 0.75 0
vt 1 0
vt 1 0.25
vt 0.75 0.25
vt 1 0
vt 1 0.25
vt 0.75 0.25
vt 0.75 0
vt 0.21875 0.03125
vt 0.21875 0.21875
vt 0.03125 0.21875
vt 0.03125 0.03125
vt 0.5 0.25
vt 0.25 0.25
vt 0.25 0
vt 0.5 0
vt 0.21875 0.21875
vt 0.21875 0.03125
vt 0.25 0
vt 0.25 0.25
vt 0.03125 0.21875
vt 0.21875 0.21875
vt 0.25 0.25
vt 0 0.25
vt 0.03125 0.03125
vt 0.03125 0.21875
vt 0 0.25
vt 0 0
vt 0.21875 0.03125
vt 0.03125 0.03125
vt 0 0
vt 0.25 0
vt 0.03125 0.25
vt 0.21875 0.25
vt 0.21875 0.328125
vt 0.03125 0.328125
vt 0.03125 0.25
vt 0.21875 0.25
vt 0.21875 0.328125
vt 0.03125 0.328125
vt 0.03125 0.25
vt 0.21875 0.25
vt 0.21875 0.328125
vt 0.03125 0.328125
vt 0.21875 0.328125
vt 0.03125 0.328125
vt 0.03125 0.25
vt 0.21875 0.25
vt 0.5 0.5625
vt 0.46875 0.5625
vt 0.46875 0.5
vt 0.5 0.5
vt 0.5 0.5
vt 0.5 0.5625
vt 0.46875 0.5625
vt 0.46875 0.5
vt 0.46875 0.5
vt 0.5 0.5
vt 0.5 0.5625
vt 0.46875 0.5625
vt 0.5 0.5
vt 0.5 0.5625
vt 0.46875 0.5625
vt 0.46875 0.5
vt 0.46875 0.5
vt 0.46875 0.5625
vt 0.40625 0.5625
vt 0.40625 0.5
vt 0.46875 0.5625
vt 0.40625 0.5625
vt 0.40625 0.5
vt 0.46875 0.5
vt 0.09375 0.40625
vt 0.09375 0.4375
vt 0.03125 0.4375
vt 0.03125 0.40625
vt 0.21875 0.40625
vt 0.21875 0.4375
vt 0.15625 0.4375
vt 0.15625 0.40625
vt 0.140625 0.453125
vt 0.140625 0.515625
vt 0.109375 0.515625
vt 0.109375 0.453125
vt 0.140625 0.328125
vt 0.140625 0.390625
vt 0.109375 0.390625
vt 0.109375 0.328125
vt 0.5 0.5625
vt 0.46875 0.5625
vt 0.46875 0.5
vt 0.5 0.5
vt 0.5 0.5
vt 0.5 0.5625
vt 0.46875 0.5625
vt 0.46875 0.5
vt 0.46875 0.5
vt 0.5 0.5
vt 0.5 0.5625
vt 0.46875 0.5625
vt 0.5 0.5
vt 0.5 0.5625
vt 0.46875 0.5625
vt 0.46875 0.5
vt 0.46875 0.5
vt 0.46875 0.5625
vt 0.40625 0.5625
vt 0.40625 0.5
vt 0.46875 0.5625
vt 0.40625 0.5625
vt 0.40625 0.5
vt 0.46875 0.5
vt 0.09375 0.40625
vt 0.09375 0.4375
vt 0.03125 0.4375
vt 0.03125 0.40625
vt 0.21875 0.40625
vt 0.21875 0.4375
vt 0.15625 0.4375
vt 0.15625 0.40625
vt 0.140625 0.453125
vt 0.140625 0.515625
vt 0.109375 0.515625
vt 0.109375 0.453125
vt 0.140625 0.328125
vt 0.140625 0.390625
vt 0.109375 0.390625
vt 0.109375 0.328125
vt 0.484375 0.234375
vt 0.265625 0.234375
vt 0.265625 0.015625
vt 0.484375 0.015625
vt 0.484375 0.015625
vt 0.484375 0.234375
vt 0.265625 0.234375
vt 0.265625 0.015625
vt 0.75 0
vt 1 0
vt 1 0.25
vt 0.75 0.25
vt 1 0
vt 1 0.25
vt 0.75 0.25
vt 0.75 0
vt 0.21875 0.03125
vt 0.21875 0.21875
vt 0.03125 0.21875
vt 0.03125 0.03125
vt 0.5 0.25
vt 0.25 0.25
vt 0.25 0
vt 0.5 0
vt 0.21875 0.21875
vt 0.21875 0.03125
vt 0.25 0
vt 0.25 0.25
vt 0.03125 0.21875
vt 0.21875 0.21875
vt 0.25 0.25
vt 0 0.25
vt 0.03125 0.03125
vt 0.03125 0.21875
vt 0 0.25
vt 0 0
vt 0.21875 0.03125
vt 0.03125 0.03125
vt 0 0
vt 0.25 0
vt 0.03125 0.25
vt 0.21875 0.25
vt 0.21875 0.328125
vt 0.03125 0.328125
vt 0.03125 0.25
vt 0.21875 0.25
vt 0.21875 0.328125
vt 0.03125 0.328125
vt 0.03125 0.25
vt 0.21875 0.25
vt 0.21875 0.328125
vt 0.03125 0.328125
vt 0.03125 0.25
vt 0.21875 0.25
vt 0.21875 0.328125
vt 0.03125 0.328125
vn 1 0 0
vn -1 0 0
vn 0 1 0
vn 0 -1 0
vn 0 0 1
vn 0 0 -1
vn 0 1 0
vn 0 1 0
vn 0 1 0
vn 0 1 0
vn 0 0 1
vn 1 0 0
vn 0 0 -1
vn -1 0 0
vn -1 0 0
vn -1 0 0
vn -1 0 0
vn -1 0 0
vn 0 0 1
vn 0 1 0
vn 0 0 -1
vn 0 -1 0
vn 1 0 0
vn -1 0 0
vn 0 1 0
vn 0 -1 0
vn 0 0 1
vn 0 0 -1
vn 0 0 1
vn 0 0 1
vn 0 0 1
vn 0 0 1
vn -1 0 0
vn 0 -1 0
vn 1 0 0
vn 0 1 0
vn 1 0 0
vn -1 0 0
vn 0 1 0
vn 0 -1 0
vn 0 0 1
vn 0 0 -1
vn 0 0 1
vn 0 0 1
vn 0 0 1
vn 0 0 1
vn -1 0 0
vn 1 0 0
vn 0 1 0
vn 0 -1 0
vn 0 0 -1
vn 0 0 1
vn 0 0 -1
vn 0 0 -1
vn 0 0 -1
vn 0 0 -1
vn -1 0 0
vn 1 0 0
vn 0 1 0
vn 0 -1 0
vn 0 0 -1
vn 0 0 1
vn 0 0 -1
vn 0 0 -1
vn 0 0 -1
vn 0 0 -1
vn 1 0 0
vn 0 -1 0
vn -1 0 0
vn 0 1 0
usemtl base
f 81/201/51 82/202/51 83/203/51 84/204/51
f 85/205/52 86/206/52 87/207/52 88/208/52
f 89/209/53 90/210/53 91/211/53 92/212/53
f 84/213/54 83/214/54 93/215/54 94/216/54
f 83/217/55 82/218/55 95/219/55 93/220/55
f 96/221/56 81/222/56 84/223/56 94/224/56
f 97/225/57 98/226/57 95/227/57 82/228/57
f 99/229/58 97/230/58 82/231/58 81/232/58
f 100/233/59 99/234/59 81/235/59 96/236/59
f 98/237/60 100/238/60 96/239/60 95/240/60
f 90/241/61 89/242/61 98/243/61 97/244/61
f 91/245/62 90/246/62 97/247/62 99/248/62
f 92/249/63 91/250/63 99/251/63 100/252/63
f 89/253/64 92/254/64 100/255/64 98/256/64
f 101/257/65 102/258/65 93/259/65 95/260/65
f 103/261/66 101/262/66 95/263/66 96/264/66
f 104/265/67 103/266/67 96/267/67 94/268/67
f 102/269/68 104/270/68 94/271/68 93/272/68
f 86/273/69 85/274/69 102/275/69 101/276/69
f 87/277/70 86/278/70 101/279/70 103/280/70
f 88/281/71 87/282/71 103/283/71 104/284/71
f 85/285/72 88/286/72 104/287/72 102/288/72
f 105/289/73 106/290/73 107/291/73 108/292/73
f 109/293/74 110/294/74 111/295/74 112/296/74
f 110/297/75 106/298/75 105/299/75 111/300/75
f 108/301/76 107/302/76 109/303/76 112/304/76
f 113/305/77 114/306/77 115/307/77 116/308/77
f 111/309/78 105/310/78 108/311/78 112/312/78
f 117/313/79 118/314/79 107/315/79 106/316/79
f 119/317/80 117/318/80 106/319/80 110/320/80
f 120/321/81 119/322/81 110/323/81 109/324/81
f 118/325/82 120/326/82 109/327/82 107/328/82
f 114/329/83 113/330/83 118/331/83 117/332/83
f 115/333/84 114/334/84 117/335/84 119/336/84
f 116/337/85 115/338/85 119/339/85 120/340/85
f 113/341/86 116/342/86 120/343/86 118/344/86
f 121/345/87 122/346/87 123/347/87 124/348/87
f 125/349/88 126/350/88 127/351/88 128/352/88
f 126/353/89 122/354/89 121/355/89 127/356/89
f 124/357/90 123/358/90 125/359/90 128/360/90
f 123/361/91 122/362/91 126/363/91 125/364/91
f 127/365/92 121/366/92 124/367/92 128/368/92
f 129/369/93 130/370/93 131/371/93 132/372/93
f 133/373/94 134/374/94 135/375/94 136/376/94
f 137/377/95 138/378/95 139/379/95 140/380/95
f 141/381/96 142/382/96 143/383/96 144/384/96
f 145/385/97 146/386/97 147/387/97 148/388/97
f 149/389/98 150/390/98 151/391/98 152/392/98
f 150/393/99 146/394/99 145/395/99 151/396/99
f 148/397/100 147/398/100 149/399/100 152/400/100
f 147/401/101 146/402/101 150/403/101 149/404/101
f 151/405/102 145/406/102 148/407/102 152/408/102
f 153/409/103 154/410/103 155/411/103 156/412/103
f 157/413/104 158/414/104 159/415/104 160/416/104
f 161/417/105 162/418/105 163/419/105 164/420/105
f 165/421/106 166/422/106 167/423/106 168/424/106
f 169/425/107 170/426/107 171/427/107 172/428/107
f 173/429/108 174/430/108 175/431/108 176/432/108
f 174/433/109 170/434/109 169/435/109 175/436/109
f 172/437/110 171/438/110 173/439/110 176/440/110
f 177/441/111 178/442/111 179/443/111 180/444/111
f 175/445/112 169/446/112 172/447/112 176/448/112
f 181/449/113 182/450/113 171/451/113 170/452/113
f 183/453/114 181/454/114 170/455/114 174/456/114
f 184/457/115 183/458/115 174/459/115 173/460/115
f 182/461/116 184/462/116 173/463/116 171/464/116
f 178/465/117 177/466/117 182/467/117 181/468/117
f 179/469/118 178/470/118 181/471/118 183/472/118
f 180/473/119 179/474/119 183/475/119 184/476/119
f 177/477/120 180/478/120 184/479/120 182/480/120