# Made in Blockbench 5.1.4
mtllib gas_turbine.mtl

o cube
v -0.75 0.25 0.875
v -0.5 0 0
v 0.875 1.25 0
v 1.5 0.75 1
v 1.5 0.75 0
v 0.875 1.25 1
v 0.875 0.75 1
v 0.875 0.75 0
v -0.875 0.875 1
v -0.875 0.125 0.875
v -0.875 0.125 1
v -0.875 0.875 0.875
v -0.125 0.125 0.875
v -0.125 0.875 1
v -0.125 0.125 1
v -0.125 0.875 0.875
v 0.19921875 1.25 -2.25
v -0.30078125 0.8515625 -4.75
v -0.30078125 0.8515625 -2.25
v -0.5 0.25 -2.25
v -0.30078125 0.8515625 -4.75
v -0.5 0.25 -4.75
v 1.5 1 1
v 1.5 0 0
v 1.5 0 1
v 1.5 1 0
v 2 0 0
v 2 1 0
v 2 0 1
v 2 1 1
v 0.125 1.25 1
v -0.34375 0.875 1
v -0.125 0.875 1
v 0.125 1.25 0
v -0.5 0.75 0
v -0.34375 0.875 0.875
v 0.125 1.5 -4.75
v -0.5 1 -5.75
v -0.5 1 -4.75
v 0.125 1.5 -5.75
v 0.125 1 -5.75
v 0.125 1 -4.75
v -0.5 1 -4.75
v -0.75 0.25 -5.75
v -0.75 0.25 -4.75
v -0.5 1 -5.75
v -0.5 0.25 -5.75
v -0.5 0.25 -4.75
v 0.875 0.75 0
v 1.5 0 0
v 0.875 0 0
v 1.5 0.75 1
v 0.875 0 1
v 1.5 0 1
v -0.75 0.75 0.875
v -0.75 0.25 -0.25
v -0.5 0.25 0
v -0.5 0.75 0.875
v -0.5 0.75 0
v -0.70703125 0.125 0.875
v -0.66796875 0.25 0
v -0.75 0 0
v -0.5 0 0
v -0.5 0 1
v -0.70703125 0.125 1
v -0.75 0 1
v -0.5 0.25 -2.25
v -0.5 0 -4.75
v -0.5 0 -2.25
v 1.5 0.25 -4.75
v 1.5 0 -2.25
v 1.5 0 -4.75
v -0.75 0.25 -4.75
v -0.75 0 -5.75
v -0.75 0 -4.75
v -0.75 0.25 -5.75
v 1.75 0 -5.75
v 1.75 0.25 -5.75
v 1.75 0 -4.75
v 1.75 0.25 -4.75
v -0.5 0 0
v -0.5 -1 -1
v -0.5 -1 0
v 1.5 0 -1
v 1.5 -1 0
v 1.5 -1 -1
v -0.5 0 -1
v 1.5 0 0
v -0.75 0 1
v -0.75 -1 0
v -0.75 -1 1
v -0.75 0 0
v 1.75 -1 0
v 1.75 0 0
v 1.75 -1 1
v -0.75 0 -2.5
v -0.75 -1 -4.5
v -0.75 -1 -2.5
v 1.75 0 -4.5
v 1.75 -1 -2.5
v 1.75 -1 -4.5
v -0.75 0 -4.5
v 1.75 0 -2.5
v -1 0 -4.5
v -1 -1 -6
v -1 -1 -4.5
v -1 0 -6
v 2 -1 -6
v 2 0 -6
v 2 -1 -4.5
v 2 0 -4.5
v 0.125 0 1
v -0.125 0.125 1
v -0.5 0 1
v 1.30078125 0.8515625 -4.75
v 1.5 0.25 -2.25
v 1.5 0.25 -4.75
v 1.5 1 -5.75
v 0.875 1.5 -4.75
v 1.5 1 -4.75
v 0.875 1 -4.75
v 0.875 1 -5.75
v 0.875 1.5 -5.75
v 0.125 1.25 0
v 0.875 0 0
v 0.125 0 0
v 0.875 1.25 1
v 0.125 0 1
v 0.875 0 1
v 0.125 1.25 0
v 0.875 1.25 1
v 0.875 1.25 0
v 0.125 1.5 -2.25
v 0.875 0.25 -2.25
v 0.125 0.25 -2.25
v 0.875 1.5 -1.25
v 0.125 0.25 -1.25
v 0.875 0.25 -1.25
v 0.875 1.5 -2.25
v -0.5 1 -5.75
v 0.125 0.25 -5.75
v -0.5 0.25 -5.75
v 0.125 1 -4.75
v -0.5 0.25 -4.75
v 0.125 0.25 -4.75
v 0.125 1.5 -5.75
v 0.875 0.25 -5.75
v 0.125 0.25 -5.75
v 0.875 1.5 -4.75
v 0.125 0.25 -4.75
v 0.875 0.25 -4.75
v 0.875 1.5 -5.75
v -1 0 -1
v -1 -1 -2.5
v -1 -1 -1
v -1 0 -2.5
v 2 -1 -2.5
v 2 0 -1
v 2 -1 -1
v 2 -1 -2
v 2 0 -2
v 0 1 -5.75
v 0 0 -6
v 0 0 -5.75
v 0 1 -6
v 1 0 -6
v 1 1 -6
v 1 0 -5.75
v 1 1 -5.75
v 1.75 -0.5 0
v 2 -1 0
v 1.75 -1 0
v 2 -0.5 0
v 2 -1 1
v 2 -0.5 1
v 1.75 -1 1
v 1 0.75 -1.25
v 1.25 0.25 0
v 1.25 0.25 -1.25
v 0.375 1 -1.25
v 0.625 1 0
v 0.625 1 -1.25
v 0.625 1 -1.25
v 1 0.75 0
v 1 0.75 -1.25
v 0.19921875 1.25 -4.75
v 0.80078125 1.25 -2.25
v 0.80078125 1.25 -4.75
v 1.75 0 0.125
v 2 -0.5 0.125
v 1.75 -0.5 0.125
v 2 0 0.125
v 2 -0.5 0.375
v 2 0 0.375
v 1.75 -0.5 0.375
v 1.75 0 0.625
v 2 -0.5 0.625
v 1.75 -0.5 0.625
v 2 0 0.625
v 2 -0.5 0.875
v 2 0 0.875
v 1.75 -0.5 0.875
v 0.875 1.5 -2.25
v 1.5 1 -1.25
v 1.5 1 -2.25
v 0.875 1.5 -1.25
v 0.875 1 -1.25
v 0.875 1 -2.25
v 0.875 1 -2.25
v 1.5 0.25 -2.25
v 0.875 0.25 -2.25
v 1.5 1 -1.25
v 0.875 0.25 -1.25
v 1.5 0.25 -1.25
v -0.75 0.25 -1.25
v -0.75 0 -2.25
v -0.75 0 -1.25
v -0.75 0.25 -2.25
v 1.75 0 -2.25
v 1.75 0.25 -2.25
v 1.75 0 -1.25
v 1.75 0.25 -1.25
v 1.5 1 -5.75
v 1.75 0.25 -4.75
v 1.75 0.25 -5.75
v 1.5 1 -4.75
v 1.5 0.25 -4.75
v 1.5 0.25 -5.75
v 0.80078125 1.25 -4.75
v 1.30078125 0.8515625 -2.25
v 1.30078125 0.8515625 -4.75
v 1.5 1 -2.25
v 1.75 0.25 -1.25
v 1.75 0.25 -2.25
v 1.5 1 -1.25
v 1.5 0.25 -1.25
v 1.5 0.25 -2.25
v 0.875 1 -5.75
v 1.5 0.25 -5.75
v 0.875 0.25 -5.75
v 1.5 1 -4.75
v 0.875 0.25 -4.75
v 1.5 0.25 -4.75
v 0.25 1.19140625 -0.78515625
v 0.25 1.25 -1.68359375
v 0.25 0.81640625 -1.43359375
v 0.75 1.25 -1.68359375
v 0.75 1.19140625 -0.78515625
v 0.75 0.81640625 -1.43359375
v 0.25 1.625 -1.03515625
v 0.75 1.625 -1.03515625
v 1.30859375 0.78125 -1.68359375
v 1.25390625 0.76171875 -0.78515625
v 1.66015625 0.90234375 -1.03515625
v 1.46875 0.30859375 -1.68359375
v 1.4140625 0.2890625 -0.78515625
v 1.0625 0.16796875 -1.43359375
v 1.82421875 0.4296875 -1.03515625
v 0.8984375 0.640625 -1.43359375
v 0.1640625 1.20703125 -1.68359375
v 0.19921875 1.16015625 -0.78515625
v -0.4609375 1.1953125 -1.03515625
v -0.06640625 1.50390625 -1.03515625
v 1.1953125 0.8515625 -0.78515625
v 1.23046875 0.8984375 -1.68359375
v 1.4609375 1.1953125 -1.03515625
v 0.80078125 1.16015625 -0.78515625
v 0.8359375 1.20703125 -1.68359375
v 0.5703125 0.8671875 -1.43359375
v 1.06640625 1.50390625 -1.03515625
v 0.96484375 0.55859375 -1.43359375
v 1.25 0.25 -1.25
v 1.25 0 0
v 1.25 0 -1.25
v 2 0 -2.5
v 1.75 0 1
v -0.75 -1 1
v 1.75 -1 1
v 0.19921875 1.25 -4.75
v -0.30078125 0.8515625 -2.25
v -0.125 0.75 1
v 0.125 0.75 1
v -0.5 0.75 0.875
v 1.5 0.75 0
v 0.875 0.75 1
v -0.75 0.75 -0.25
v -0.5 0.25 0.875
v -0.66796875 0.25 0.875
v -0.5 0.125 1
v -0.5 0.25 -4.75
v 1.5 0.25 -2.25
v 1.75 0 1
v 0.125 0.75 1
v -0.125 0.75 1
v -0.5 0.125 1
v 1.30078125 0.8515625 -2.25
v 0.875 1.25 0
v 0.125 1.25 1
v 0.125 1.25 1
v 0.125 1.5 -1.25
v 0.125 1 -5.75
v -0.5 1 -4.75
v 0.125 1.5 -4.75
v 1.75 -0.5 1
v 1 0.75 0
v 0.375 1 0
v 0.625 1 0
v 0.19921875 1.25 -2.25
v 1.75 0 0.375
v 1.75 0 0.875
v 1.5 1 -2.25
v 0.875 1 -1.25
v 0.80078125 1.25 -2.25
v 1.5 1 -5.75
v 0.875 1 -4.75
v 1.25 0.25 0
v -0.75 0 1
v 0.125 0.75 0
v 0.125 1.25 0
v -0.5 0.75 0
v 0.125 0.75 0
v 0.125 0 0
v 0 0.75 -1.25
v -0.25 0.25 0
v -0.25 0.25 -1.25
v 0.375 1 -1.25
v 0 0.75 0
v 0 0.75 -1.25
v 0.125 1.5 -2.25
v -0.5 1 -1.25
v -0.5 1 -2.25
v 0.125 1.5 -1.25
v 0.125 1 -1.25
v 0.125 1 -2.25
v 0.125 1 -2.25
v -0.5 0.25 -2.25
v 0.125 0.25 -2.25
v -0.5 1 -1.25
v 0.125 0.25 -1.25
v -0.5 0.25 -1.25
v -0.75 0.25 -2.25
v -0.75 0 -1.25
v -0.75 0 -2.25
v -0.5 1 -2.25
v -0.75 0.25 -1.25
v -0.75 0.25 -2.25
v -0.5 1 -1.25
v -0.5 0.25 -1.25
v -0.5 0.25 -2.25
v 0.25 1.25 -1.68359375
v 0.25 1.19140625 -0.78515625
v 0.25 0.81640625 -1.43359375
v -0.30859375 0.78125 -1.68359375
v -0.25390625 0.76171875 -0.78515625
v -0.66015625 0.90234375 -1.03515625
v -0.46875 0.30859375 -1.68359375
v -0.4140625 0.2890625 -0.78515625
v -0.0625 0.16796875 -1.43359375
v -0.82421875 0.4296875 -1.03515625
v 0.1015625 0.640625 -1.43359375
v -0.1953125 0.8515625 -0.78515625
v -0.23046875 0.8984375 -1.68359375
v -0.4609375 1.1953125 -1.03515625
v 0.19921875 1.16015625 -0.78515625
v 0.1640625 1.20703125 -1.68359375
v 0.4296875 0.8671875 -1.43359375
v 0.03515625 0.55859375 -1.43359375
v -0.25 0.25 -1.25
v -0.25 0 0
v -0.25 0 -1.25
v -0.5 0.75 0
v 0 0.75 0
v 0.375 1 0
v -0.5 1 -2.25
v 0.125 1 -1.25
v -0.75 0.25 -1.25
v -0.25 0.25 0
v -0.66796875 0.25 0
v -0.5 0.25 0
v -0.5 0 0
v -0.75 0 0
v -0.25 0.25 -0.25
v -0.25 0.25 0
v -0.5 0.25 0
v -0.75 0.25 -0.25
v -0.75 0.25 -0.75
v 0 0.25 -0.25
v -0.75 0.25 -0.25
v 0 0.25 -0.75
v -0.75 0.75 -0.75
v -0.75 0.75 -0.25
v 0 0.75 -0.75
v 0 0.75 -0.25
v -0.25 0.75 -0.25
v -0.25 0.75 0
v -0.5 0.75 0
v -0.75 0.75 -0.25
vt 0.28125 0.03125
vt 0.28125 0.125
vt 0.203125 0.125
vt 0.875 0.25
vt 0.78125 0.375
vt 0.78125 0.25
vt 0.28125 0.125
vt 0.203125 0.1875
vt 0.203125 0.125
vt 0.203125 0.125
vt 0.203125 0.1875
vt 0.28125 0.125
vt 0.859375 0.609375
vt 0.953125 0.59375
vt 0.953125 0.609375
vt 0.953125 0.703125
vt 0.859375 0.609375
vt 0.953125 0.609375
vt 0.953125 1
vt 0.859375 0.90625
vt 0.953125 0.90625
vt 0.953125 0.59375
vt 0.859375 0.609375
vt 0.859375 0.59375
vt 0.953125 0.59375
vt 0.859375 0.609375
vt 0.859375 0.59375
vt 0.71875 0.265625
vt 0.40625 0.1875
vt 0.71875 0.1875
vt 0.71875 0.125
vt 0.40625 0.19531312499999998
vt 0.40625 0.125
vt 0.40625 0.375
vt 0.28125 0.5
vt 0.28125 0.375
vt 0.734375 0.6875
vt 0.609375 0.625
vt 0.609375 0.6875
vt 0.859375 0.625
vt 0.734375 0.5
vt 0.859375 0.5
vt 0.734375 0.625
vt 0.609375 0.6875
vt 0.609375 0.625
vt 0.609375 0.625
vt 0.734375 0.6875
vt 0.734375 0.625
vt 0.609375 0.6875
vt 0.734375 0.625
vt 0.609375 0.625
vt 0.109375 0.1875
vt 0.050975 0.140625
vt 0.07858875 0.140625
vt 0.78125 0.125
vt 0.875 0.125
vt 0.851561875 0.234375
vt 0.15625 0.421875
vt 0.28125 0.328125
vt 0.15625 0.328125
vt 0.03125 0.125
vt 0.109375 0.1875
vt 0.109375 0.125
vt 0.109375 0.125
vt 0.109375 0.1875
vt 0.03125 0.125
vt 0.15625 0.328125
vt 0.28125 0.22656187500000002
vt 0.15625 0.22656187500000002
vt 0 0.03125
vt 0.03125 0.125
vt 0.03125 0.03125
vt 0.03125 0.03125
vt 0.03125 0.125
vt 0 0.03125
vt 0.203125 0.125
vt 0.28125 0.03125
vt 0.203125 0.03125
vt 0.28125 0.125
vt 0.203125 0.03125
vt 0.28125 0.03125
vt 0.921875 0.703125
vt 0.859375 0.859375
vt 0.859375 0.703125
vt 0.859375 0.859375
vt 0.890625 0.83072875
vt 0.859375 0.71875
vt 0.859375 0.71875
vt 0.890625 0.71875
vt 0.890625 0.828125
vt 0.109375 0.015625
vt 0 0.03125
vt 0 0
vt 0.03125 0.03125
vt 0.004953125 0.046875
vt 0 0.03125
vt 0 0
vt 0 0
vt 0 0
vt 0.71875 0.296875
vt 0.40625 0.265625
vt 0.71875 0.265625
vt 0.40625 0.296875
vt 0.71875 0.265625
vt 0.40625 0.265625
vt 0.15625 0.21875
vt 0.28125 0.1875
vt 0.15625 0.1875
vt 0.3125 0.03125
vt 0 0
vt 0.3125 0
vt 0.28125 0.21875
vt 0.15625 0.1875
vt 0.28125 0.1875
vt 0 0.03125
vt 0.3125 0
vt 0 0
vt 0.25 0.625
vt 0.125 0.5
vt 0.25 0.5
vt 0.25 0.625
vt 0.125 0.5
vt 0.25 0.5
vt 0.609375 0.6875
vt 0.734375 0.9375
vt 0.609375 0.9375
vt 0.609375 0.6875
vt 0.734375 0.9375
vt 0.609375 0.9375
vt 0.25 0.625
vt 0.125 0.5
vt 0.25 0.5
vt 0.734375 0.625
vt 0.421875 0.5
vt 0.734375 0.5
vt 0.125 0.5625
vt 0.25 0.625
vt 0.125 0.625
vt 0.734375 0.65625
vt 0.859375 0.96875
vt 0.734375 0.96875
vt 0.6875 0.625
vt 0.4375 0.5
vt 0.6875 0.5
vt 0.6875 0.625
vt 0.4375 0.5
vt 0.6875 0.5
vt 0.1875 0.96875
vt 0.421875 0.65625
vt 0.421875 0.96875
vt 0.1875 0.65625
vt 0.421875 0.96875
vt 0.1875 0.96875
vt 0.5 0.625
vt 0.3125 0.5
vt 0.5 0.5
vt 0.875 0.125
vt 0.5 0
vt 0.875 0
vt 0.5 0.625
vt 0.3125 0.5
vt 0.5 0.5
vt 0.734375 0.625
vt 0.359375 0.5
vt 0.734375 0.5
vt 0 1
vt 0.1875 0.625
vt 0.1875 1
vt 0 0.625
vt 0.1875 1
vt 0 1
vt 0.109375 0.03125
vt 0.07858875 0.046875
vt 0.03125 0.03125
vt 0.40625 0.367188125
vt 0.71875 0.296875
vt 0.40625 0.296875
vt 0.28125 0.328125
vt 0.15625 0.421875
vt 0.15625 0.328125
vt 0.03125 0.125
vt 0.109375 0.1875
vt 0.109375 0.125
vt 0.109375 0.125
vt 0.109375 0.1875
vt 0.03125 0.125
vt 0.109375 0.1875
vt 0.203125 0.03125
vt 0.109375 0.03125
vt 1 0.46875
vt 0.90625 0.3125
vt 1 0.3125
vt 0.78125 0.25
vt 0.875 0.375
vt 0.875 0.25
vt 0.109375 0.1875
vt 0.203125 0.03125
vt 0.109375 0.03125
vt 0.203125 0.1875
vt 0.109375 0.03125
vt 0.203125 0.03125
vt 0.28125 0.375
vt 0.40625 0.28125
vt 0.28125 0.28125
vt 0.03125 0.03125
vt 0.109375 0.125
vt 0.03125 0.125
vt 0.109375 0.03125
vt 0.03125 0.125
vt 0.109375 0.125
vt 0.203125 0.1875
vt 0.109375 0.03125
vt 0.203125 0.03125
vt 0.109375 0.1875
vt 0.203125 0.03125
vt 0.109375 0.03125
vt 0.40625 0.375
vt 0.28125 0.28125
vt 0.40625 0.28125
vt 0.3125 0.125
vt 0.5 0
vt 0.3125 0
vt 0.734375 0.625
vt 0.359375 0.5
vt 0.734375 0.5
vt 0.375 0.625
vt 0 0.500065
vt 0.375 0.500065
vt 0.484375 0.625
vt 0.609375 0.625
vt 0.609375 1
vt 0.609375 0.625
vt 0.609375 1
vt 0.484375 1
vt 0.28125 0.46875
vt 0.15625 0.5
vt 0.15625 0.46875
vt 0.40625 0.5
vt 0.28125 0.375
vt 0.40625 0.375
vt 0.28125 0.5
vt 0.15625 0.46875
vt 0.15625 0.5
vt 0 0
vt 0 0
vt 0 0
vt 0 0
vt 0 0
vt 0 0
vt 0.28125 0.5
vt 0.15625 0.46875
vt 0.15625 0.5
vt 0.6875 0.5
vt 0.71875 0.4375
vt 0.6875 0.4375
vt 0.734375 0.5
vt 0.859375 0.4375
vt 0.734375 0.4375
vt 0.6875 0.5
vt 0.71875 0.4375
vt 0.6875 0.4375
vt 0.734375 0.625
vt 0.859375 0.65625
vt 0.734375 0.65625
vt 0.15625 0.46875
vt 0.28125 0.5
vt 0.15625 0.5
vt 0.15625 0.265625
vt 0 0.19531187500000002
vt 0.15625 0.19531187500000002
vt 0 0.1875
vt 0.15625 0.21875
vt 0 0.21875
vt 0 0.1875
vt 0.15625 0.24218687500000002
vt 0 0.24218812499999998
vt 0.40625 0.5
vt 0.71875 0.429688125
vt 0.40625 0.429688125
vt 0.21875 0.46875
vt 0.15625 0.5
vt 0.15625 0.46875
vt 0.21875 0.46875
vt 0.15625 0.5
vt 0.15625 0.46875
vt 0.21875 0.46875
vt 0.15625 0.5
vt 0.15625 0.46875
vt 0 0
vt 0 0
vt 0 0
vt 0 0
vt 0 0
vt 0 0
vt 0.21875 0.46875
vt 0.15625 0.5
vt 0.15625 0.46875
vt 0.21875 0.46875
vt 0.15625 0.5
vt 0.15625 0.46875
vt 0.21875 0.46875
vt 0.15625 0.5
vt 0.15625 0.46875
vt 0 0
vt 0 0
vt 0 0
vt 0 0
vt 0 0
vt 0 0
vt 0.15625 0.421875
vt 0.28125 0.328125
vt 0.15625 0.328125
vt 0.28125 0.125
vt 0.203125 0.1875
vt 0.203125 0.125
vt 0.203125 0.125
vt 0.203125 0.1875
vt 0.28125 0.125
vt 0.203125 0.125
vt 0.28125 0.03125
vt 0.203125 0.03125
vt 0.28125 0.125
vt 0.203125 0.03125
vt 0.28125 0.03125
vt 0 0.03125
vt 0.3125 0
vt 0 0
vt 0.15625 0.21875
vt 0.28125 0.1875
vt 0.15625 0.1875
vt 0.3125 0.03125
vt 0 0
vt 0.3125 0
vt 0.28125 0.328125
vt 0.15625 0.22656187500000002
vt 0.28125 0.22656187500000002
vt 0.3125 0.03125
vt 0.28125 0.125
vt 0.28125 0.03125
vt 0.28125 0.03125
vt 0.28125 0.125
vt 0.3125 0.03125
vt 0.40625 0.265625
vt 0.71875 0.1875
vt 0.40625 0.1875
vt 0.15625 0.328125
vt 0.28125 0.22656187500000002
vt 0.15625 0.22656187500000002
vt 0.3125 0.03125
vt 0.28125 0.125
vt 0.28125 0.03125
vt 0.28125 0.03125
vt 0.28125 0.125
vt 0.3125 0.03125
vt 0 0
vt 0 0
vt 0 0
vt 0.203125 0.125
vt 0.28125 0.03125
vt 0.203125 0.03125
vt 0.28125 0.125
vt 0.203125 0.03125
vt 0.28125 0.03125
vt 0.15625 0.5
vt 0.0625 0.4375
vt 0.15625 0.4375
vt 0.0625 0.4375
vt 0 0.5
vt 0.0625 0.5
vt 0.15625 0.4375
vt 0.0625 0.5
vt 0.15625 0.5
vt 0.15625 0.5
vt 0.0625 0.4375
vt 0.15625 0.4375
vt 0.15625 0.4375
vt 0.0625 0.5
vt 0.0625 0.4375
vt 0.15625 0.5
vt 0.0625 0.4375
vt 0.15625 0.4375
vt 0 0.4375
vt 0.0625 0.5
vt 0.0625 0.4375
vt 0.15625 0.4375
vt 0.0625 0.5
vt 0.15625 0.5
vt 0.0625 0.5
vt 0.15625 0.4375
vt 0.15625 0.5
vt 0.15625 0.4375
vt 0.0625 0.5
vt 0.0625 0.4375
vt 0.0625 0.4375
vt 0.15625 0.5
vt 0.0625 0.5
vt 0.0625 0.5
vt 0.15625 0.4375
vt 0.15625 0.5
vt 0 0.4375
vt 0.0625 0.5
vt 0.0625 0.4375
vt 0.0625 0.4375
vt 0.15625 0.5
vt 0.15625 0.4375
vt 0.15625 0.5
vt 0.0625 0.4375
vt 0.15625 0.4375
vt 0.15625 0.21875
vt 0 0.1875
vt 0.15625 0.1875
vt 0.5 0.125
vt 0.4375 0
vt 0.5 0
vt 1 0.59375
vt 0.875 0.46875
vt 1 0.46875
vt 1 0
vt 0.875 0.3125
vt 0.875 0
vt 0.875 0.25
vt 0.875 0.375
vt 0.78125 0.375
vt 0.859375 0.609375
vt 0.859375 0.59375
vt 0.953125 0.59375
vt 0.953125 0.703125
vt 0.859375 0.703125
vt 0.859375 0.609375
vt 0.953125 1
vt 0.859375 1
vt 0.859375 0.90625
vt 0.953125 0.59375
vt 0.953125 0.609375
vt 0.859375 0.609375
vt 0.953125 0.59375
vt 0.953125 0.609375
vt 0.859375 0.609375
vt 0.71875 0.265625
vt 0.40625 0.265625
vt 0.40625 0.1875
vt 0.71875 0.125
vt 0.71875 0.19531187500000002
vt 0.40625 0.19531312499999998
vt 0.40625 0.375
vt 0.40625 0.5
vt 0.28125 0.5
vt 0.734375 0.6875
vt 0.734375 0.625
vt 0.609375 0.625
vt 0.859375 0.625
vt 0.734375 0.625
vt 0.734375 0.5
vt 0.734375 0.625
vt 0.734375 0.6875
vt 0.609375 0.6875
vt 0.609375 0.625
vt 0.609375 0.6875
vt 0.734375 0.6875
vt 0.609375 0.6875
vt 0.734375 0.6875
vt 0.734375 0.625
vt 0.07858875 0.125
vt 0.109375 0.125
vt 0.07858875 0.140625
vt 0.109375 0.125
vt 0.109375 0.1875
vt 0.07858875 0.140625
vt 0.875 0.125
vt 0.875 0.234375
vt 0.851561875 0.234375
vt 0.851561875 0.234375
vt 0.851561875 0.25
vt 0.78125 0.25
vt 0.78125 0.25
vt 0.78125 0.125
vt 0.851561875 0.234375
vt 0.15625 0.421875
vt 0.28125 0.421875
vt 0.28125 0.328125
vt 0.15625 0.328125
vt 0.28125 0.328125
vt 0.28125 0.22656187500000002
vt 0.203125 0.125
vt 0.28125 0.125
vt 0.28125 0.03125
vt 0.28125 0.125
vt 0.203125 0.125
vt 0.203125 0.03125
vt 0.921875 0.703125
vt 0.921875 0.859375
vt 0.859375 0.859375
vt 0.890625 0.83072875
vt 0.890625 0.71875
vt 0.859375 0.71875
vt 0.859375 0.859375
vt 0.859375 0.71875
vt 0.890625 0.828125
vt 0 0
vt 0.125 0
vt 0.109375 0.015625
vt 0.125 0
vt 0.125 0.015625
vt 0.109375 0.015625
vt 0.109375 0.015625
vt 0.109375 0.03125
vt 0 0.03125
vt 0.03125 0.03125
vt 0.03125 0.046875
vt 0.004953125 0.046875
vt 0 0
vt 0 0
vt 0 0
vt 0.71875 0.296875
vt 0.40625 0.296875
vt 0.40625 0.265625
vt 0.40625 0.296875
vt 0.71875 0.296875
vt 0.71875 0.265625
vt 0.15625 0.21875
vt 0.28125 0.21875
vt 0.28125 0.1875
vt 0.3125 0.03125
vt 0 0.03125
vt 0 0
vt 0.28125 0.21875
vt 0.15625 0.21875
vt 0.15625 0.1875
vt 0 0.03125
vt 0.3125 0.03125
vt 0.3125 0
vt 0.25 0.625
vt 0.125 0.625
vt 0.125 0.5
vt 0.25 0.625
vt 0.125 0.625
vt 0.125 0.5
vt 0.609375 0.6875
vt 0.734375 0.6875
vt 0.734375 0.9375
vt 0.609375 0.6875
vt 0.734375 0.6875
vt 0.734375 0.9375
vt 0.25 0.625
vt 0.125 0.625
vt 0.125 0.5
vt 0.734375 0.625
vt 0.421875 0.625
vt 0.421875 0.5
vt 0.125 0.5625
vt 0.25 0.5625
vt 0.25 0.625
vt 0.734375 0.65625
vt 0.859375 0.65625
vt 0.859375 0.96875
vt 0.6875 0.625
vt 0.4375 0.625
vt 0.4375 0.5
vt 0.6875 0.625
vt 0.4375 0.625
vt 0.4375 0.5
vt 0.1875 0.96875
vt 0.1875 0.65625
vt 0.421875 0.65625
vt 0.1875 0.65625
vt 0.421875 0.65625
vt 0.421875 0.96875
vt 0.5 0.625
vt 0.3125 0.625
vt 0.3125 0.5
vt 0.875 0.125
vt 0.5 0.125
vt 0.5 0
vt 0.5 0.625
vt 0.3125 0.625
vt 0.3125 0.5
vt 0.734375 0.625
vt 0.359375 0.625
vt 0.359375 0.5
vt 0 1
vt 0 0.625
vt 0.1875 0.625
vt 0 0.625
vt 0.1875 0.625
vt 0.1875 1
vt 0.109375 0.03125
vt 0.109375 0.125
vt 0.07858875 0.046875
vt 0.109375 0.125
vt 0.07858875 0.125
vt 0.07858875 0.046875
vt 0.07858875 0.046875
vt 0.03125 0.046875
vt 0.03125 0.03125
vt 0.40625 0.367188125
vt 0.71875 0.367186875
vt 0.71875 0.296875
vt 0.28125 0.328125
vt 0.28125 0.421875
vt 0.15625 0.421875
vt 0.109375 0.1875
vt 0.203125 0.1875
vt 0.203125 0.03125
vt 1 0.46875
vt 0.90625 0.46875
vt 0.90625 0.3125
vt 0.78125 0.25
vt 0.78125 0.375
vt 0.875 0.375
vt 0.109375 0.1875
vt 0.203125 0.1875
vt 0.203125 0.03125
vt 0.203125 0.1875
vt 0.109375 0.1875
vt 0.109375 0.03125
vt 0.28125 0.375
vt 0.40625 0.375
vt 0.40625 0.28125
vt 0.03125 0.03125
vt 0.109375 0.03125
vt 0.109375 0.125
vt 0.109375 0.03125
vt 0.03125 0.03125
vt 0.03125 0.125
vt 0.203125 0.1875
vt 0.109375 0.1875
vt 0.109375 0.03125
vt 0.109375 0.1875
vt 0.203125 0.1875
vt 0.203125 0.03125
vt 0.40625 0.375
vt 0.28125 0.375
vt 0.28125 0.28125
vt 0.3125 0.125
vt 0.5 0.125
vt 0.5 0
vt 0.734375 0.625
vt 0.359375 0.625
vt 0.359375 0.5
vt 0.375 0.625
vt 0 0.625
vt 0 0.500065
vt 0.609375 1
vt 0.421875 1
vt 0.484375 0.625
vt 0.421875 1
vt 0.421875 0.625
vt 0.484375 0.625
vt 0.484375 1
vt 0.421875 1
vt 0.421875 0.625
vt 0.421875 0.625
vt 0.609375 0.625
vt 0.484375 1
vt 0.28125 0.46875
vt 0.28125 0.5
vt 0.15625 0.5
vt 0.40625 0.5
vt 0.28125 0.5
vt 0.28125 0.375
vt 0.28125 0.5
vt 0.28125 0.46875
vt 0.15625 0.46875
vt 0 0
vt 0 0
vt 0 0
vt 0 0
vt 0 0
vt 0 0
vt 0.28125 0.5
vt 0.28125 0.46875
vt 0.15625 0.46875
vt 0.6875 0.5
vt 0.71875 0.5
vt 0.71875 0.4375
vt 0.734375 0.5
vt 0.859375 0.5
vt 0.859375 0.4375
vt 0.6875 0.5
vt 0.71875 0.5
vt 0.71875 0.4375
vt 0.734375 0.625
vt 0.859375 0.625
vt 0.859375 0.65625
vt 0.15625 0.46875
vt 0.28125 0.46875
vt 0.28125 0.5
vt 0.15625 0.265625
vt 0 0.265625
vt 0 0.19531187500000002
vt 0 0.1875
vt 0.15625 0.1875
vt 0.15625 0.21875
vt 0 0.1875
vt 0.15625 0.1875
vt 0.15625 0.24218687500000002
vt 0.40625 0.5
vt 0.71875 0.5
vt 0.71875 0.429688125
vt 0.21875 0.46875
vt 0.21875 0.5
vt 0.15625 0.5
vt 0.21875 0.46875
vt 0.21875 0.5
vt 0.15625 0.5
vt 0.21875 0.46875
vt 0.21875 0.5
vt 0.15625 0.5
vt 0 0
vt 0 0
vt 0 0
vt 0 0
vt 0 0
vt 0 0
vt 0.21875 0.46875
vt 0.21875 0.5
vt 0.15625 0.5
vt 0.21875 0.46875
vt 0.21875 0.5
vt 0.15625 0.5
vt 0.21875 0.46875
vt 0.21875 0.5
vt 0.15625 0.5
vt 0 0
vt 0 0
vt 0 0
vt 0 0
vt 0 0
vt 0 0
vt 0.15625 0.421875
vt 0.28125 0.421875
vt 0.28125 0.328125
vt 0.203125 0.125
vt 0.28125 0.125
vt 0.28125 0.03125
vt 0.28125 0.125
vt 0.203125 0.125
vt 0.203125 0.03125
vt 0 0.03125
vt 0.3125 0.03125
vt 0.3125 0
vt 0.15625 0.21875
vt 0.28125 0.21875
vt 0.28125 0.1875
vt 0.3125 0.03125
vt 0 0.03125
vt 0 0
vt 0.28125 0.328125
vt 0.15625 0.328125
vt 0.15625 0.22656187500000002
vt 0.40625 0.265625
vt 0.71875 0.265625
vt 0.71875 0.1875
vt 0.15625 0.328125
vt 0.28125 0.328125
vt 0.28125 0.22656187500000002
vt 0 0
vt 0 0
vt 0 0
vt 0.203125 0.125
vt 0.28125 0.125
vt 0.28125 0.03125
vt 0.28125 0.125
vt 0.203125 0.125
vt 0.203125 0.03125
vt 0.0625 0.5
vt 0.0625 0.4375
vt 0.15625 0.4375
vt 0.15625 0.5
vt 0.0625 0.5
vt 0.0625 0.4375
vt 0.0625 0.4375
vt 0 0.4375
vt 0 0.5
vt 0.15625 0.4375
vt 0.0625 0.4375
vt 0.0625 0.5
vt 0.15625 0.5
vt 0.0625 0.5
vt 0.0625 0.4375
vt 0.15625 0.4375
vt 0.15625 0.5
vt 0.0625 0.5
vt 0.15625 0.5
vt 0.0625 0.5
vt 0.0625 0.4375
vt 0 0.4375
vt 0 0.5
vt 0.0625 0.5
vt 0.15625 0.4375
vt 0.0625 0.4375
vt 0.0625 0.5
vt 0.0625 0.5
vt 0.0625 0.4375
vt 0.15625 0.4375
vt 0.15625 0.5
vt 0.0625 0.5
vt 0.0625 0.4375
vt 0.0625 0.4375
vt 0 0.4375
vt 0 0.5
vt 0.0625 0.4375
vt 0.15625 0.4375
vt 0.15625 0.5
vt 0.0625 0.5
vt 0.0625 0.4375
vt 0.15625 0.4375
vt 0 0.4375
vt 0 0.5
vt 0.0625 0.5
vt 0.0625 0.4375
vt 0.0625 0.5
vt 0.15625 0.5
vt 0.15625 0.5
vt 0.0625 0.5
vt 0.0625 0.4375
vt 0.15625 0.21875
vt 0 0.21875
vt 0 0.1875
vt 0.5 0.125
vt 0.4375 0.125
vt 0.4375 0
vt 1 0.59375
vt 0.875 0.59375
vt 0.875 0.46875
vt 1 0
vt 1 0.3125
vt 0.875 0.3125
vt 0.28125 0.125
vt 0.203125 0.1875
vt 0.203125 0.125
vt 0.203125 0.03125
vt 0.28125 0.03125
vt 0.203125 0.125
vt 0.15625 0.19531187500000002
vt 0 0.19531187500000002
vt 0.15625 0.265625
vt 0 0.24218812499999998
vt 0.15625 0.24218687500000002
vt 0 0.1875
vt 0.15625 0.328125
vt 0.28125 0.328125
vt 0.15625 0.421875
vt 0.203125 0.125
vt 0.203125 0.1875
vt 0.28125 0.125
vt 0.28125 0.125
vt 0.203125 0.1875
vt 0.203125 0.125
vt 0.203125 0.03125
vt 0.28125 0.03125
vt 0.203125 0.125
vt 0.28125 0.03125
vt 0.203125 0.03125
vt 0.28125 0.125
vt 0.15625 0.1875
vt 0.28125 0.1875
vt 0.15625 0.21875
vt 0.15625 0.22656187500000002
vt 0.28125 0.22656187500000002
vt 0.15625 0.328125
vt 0.28125 0.03125
vt 0.28125 0.125
vt 0.3125 0.03125
vt 0.3125 0.03125
vt 0.28125 0.125
vt 0.28125 0.03125
vt 0 0
vt 0 0
vt 0 0
vt 0.15625 0.4375
vt 0.0625 0.4375
vt 0.15625 0.5
vt 0.0625 0.4375
vt 0.0625 0.5
vt 0.15625 0.4375
vt 0.15625 0.4375
vt 0.0625 0.4375
vt 0.15625 0.5
vt 0.0625 0.4375
vt 0.0625 0.5
vt 0 0.4375
vt 0.15625 0.5
vt 0.0625 0.5
vt 0.15625 0.4375
vt 0.15625 0.5
vt 0.15625 0.4375
vt 0.0625 0.5
vt 0.0625 0.5
vt 0.15625 0.5
vt 0.0625 0.4375
vt 0.15625 0.5
vt 0.15625 0.4375
vt 0.0625 0.5
vt 0.15625 0.4375
vt 0.15625 0.5
vt 0.0625 0.4375
vt 0.15625 0.4375
vt 0.0625 0.4375
vt 0.15625 0.5
vt 0.15625 0.1875
vt 0 0.1875
vt 0.15625 0.21875
vt 0 0.19531187500000002
vt 0 0.265625
vt 0.15625 0.265625
vt 0.15625 0.24218687500000002
vt 0.15625 0.1875
vt 0 0.1875
vt 0.28125 0.328125
vt 0.28125 0.421875
vt 0.15625 0.421875
vt 0.28125 0.03125
vt 0.28125 0.125
vt 0.203125 0.125
vt 0.203125 0.03125
vt 0.203125 0.125
vt 0.28125 0.125
vt 0.28125 0.1875
vt 0.28125 0.21875
vt 0.15625 0.21875
vt 0.28125 0.22656187500000002
vt 0.28125 0.328125
vt 0.15625 0.328125
vt 0 0
vt 0 0
vt 0 0
vt 0.0625 0.5
vt 0.15625 0.5
vt 0.15625 0.4375
vt 0.0625 0.4375
vt 0.0625 0.5
vt 0.15625 0.5
vt 0.0625 0.5
vt 0 0.5
vt 0 0.4375
vt 0.0625 0.5
vt 0.0625 0.4375
vt 0.15625 0.4375
vt 0.15625 0.4375
vt 0.0625 0.4375
vt 0.0625 0.5
vt 0.15625 0.5
vt 0.15625 0.4375
vt 0.0625 0.4375
vt 0.0625 0.5
vt 0 0.5
vt 0 0.4375
vt 0.15625 0.5
vt 0.0625 0.5
vt 0.0625 0.4375
vt 0 0.1875
vt 0 0.21875
vt 0.15625 0.21875
vt 0.011706875 0.0625
vt 0.03125 0.03125
vt 0 0.03125
vt 0.011706875 0.0625
vt 0.03125 0.0625
vt 0.03125 0.03125
vt 0.921875 0.765625
vt 0.984375 0.703125
vt 0.984375 0.765625
vt 0.984375 0.703125
vt 0.921875 0.796875
vt 0.921875 0.703125
vt 0.921875 0.828125
vt 0.859375 0.859375
vt 0.859375 0.828125
vt 0.984375 0.90625
vt 0.921875 0.8125
vt 0.921875 0.90625
vt 0.984375 0.90625
vt 0.921875 0.8125
vt 0.984375 0.8125
vt 0.859375 0.828125
vt 0.921875 0.859375
vt 0.921875 0.828125
vt 0.921875 0.765625
vt 0.921875 0.703125
vt 0.984375 0.703125
vt 0.984375 0.703125
vt 0.984375 0.796875
vt 0.921875 0.796875
vt 0.921875 0.828125
vt 0.921875 0.859375
vt 0.859375 0.859375
vt 0.984375 0.90625
vt 0.984375 0.8125
vt 0.921875 0.8125
vt 0.984375 0.90625
vt 0.921875 0.90625
vt 0.921875 0.8125
vt 0.859375 0.828125
vt 0.859375 0.859375
vt 0.921875 0.859375
vt 0.859375 0.859375
vt 0.921875 0.859375
vt 0.890625 0.83072875
vt 0.921875 0.859375
vt 0.921875 0.83072875
vt 0.890625 0.83072875
vt 0.921875 0.828125
vt 0.921875 0.859375
vt 0.890625 0.828125
vt 0.921875 0.859375
vt 0.859375 0.859375
vt 0.890625 0.828125
vn 0 0 -1
vn 0.6246950475544243 0.7808688094430304 0
vn 0 0 1
vn 0 0 -1
vn -1 0 0
vn 0 0 -1
vn 0 0 1
vn 0 -1 0
vn 0 1 0
vn -0.6232037050564748 0.7820595514434193 0
vn -0.9492979228560804 0.31437788354324736 0
vn -1 0 0
vn 0 0 -1
vn 1 0 0
vn 0 0 1
vn 0 -1 0
vn 0 1 0
vn 0 0 1
vn -0.6246950475544243 0.7808688094430304 0
vn -0.6246950475544243 0.7808688094430304 0
vn 0 0 -1
vn 0 0 1
vn -0.948683298050514 0.316227766016838 0
vn 0 0 -1
vn 0 0 1
vn 0 0 -1
vn 0 0 1
vn -1 0 0
vn 0 -1 0
vn 0 1 0
vn -0.9501553270938734 0.31176971670267717 0.0021208824265488246
vn 0 0 1
vn 0 -1 0
vn -1 0 0
vn 1 0 0
vn -1 0 0
vn 0 0 -1
vn 1 0 0
vn 0 0 1
vn -1 0 0
vn 1 0 0
vn 0 -1 0
vn 0 1 0
vn -1 0 0
vn 0 0 -1
vn 1 0 0
vn 0 -1 0
vn -1 0 0
vn 1 0 0
vn 0 -1 0
vn 0 1 0
vn -1 0 0
vn 0 0 -1
vn 1 0 0
vn 0 0 1
vn 0 -1 0
vn 0 1 0
vn 0 0 1
vn 0.9492979228560804 0.31437788354324736 0
vn 0.6246950475544243 0.7808688094430304 0
vn 0 0 1
vn 0 0 -1
vn 0 0 -1
vn 0 0 1
vn 0 1 0
vn 0 0 -1
vn 0 0 1
vn 0 1 0
vn 0 0 -1
vn 0 0 1
vn 0 0 -1
vn 0 0 1
vn 0 1 0
vn -1 0 0
vn 0 0 -1
vn 0 0 1
vn 0 -1 0
vn 0 1 0
vn -1 0 0
vn 0 0 -1
vn 1 0 0
vn 0 0 1
vn 0 -1 0
vn 0 1 0
vn 0 0 -1
vn 1 0 0
vn 0 0 1
vn 0 -1 0
vn 0 1 0
vn 0.8944271909999161 0.44721359549995804 0
vn 0 1 0
vn 0.5547001962252291 0.8320502943378437 0
vn 0 1 0
vn 0 0 -1
vn 1 0 0
vn 0 0 1
vn 0 -1 0
vn 0 1 0
vn 0 0 -1
vn 1 0 0
vn 0 0 1
vn 0 -1 0
vn 0 1 0
vn 0.6246950475544243 0.7808688094430304 0
vn 0 0 1
vn 0 0 -1
vn 0 0 -1
vn 0 0 1
vn 0 0 -1
vn 1 0 0
vn 0 0 1
vn 0.948683298050514 0.316227766016838 0
vn 0 0 1
vn 0 0 -1
vn 0.6232037050564748 0.7820595514434193 0
vn 0.948683298050514 0.316227766016838 0
vn 0 0 1
vn 0 0 -1
vn 0 -1 0
vn 0 0 -1
vn 0 0 1
vn 1 0 0
vn 0 0.49949721934415764 0.8663154898000234
vn 0 -0.8656642097802241 0.5006250851741055
vn 0 0.8656642097802241 -0.5006250851741055
vn -0.3267495424868399 0.9451107369619349 0.0006567829999735475
vn 0.3267495424868399 -0.9451107369619349 -0.0006567829999735475
vn 0.47307921363994193 0.16029956825816213 0.8663140920232459
vn 0.8195865235264354 0.27771113607094094 -0.5011531256572578
vn -0.8195288844879481 -0.2844645714751555 0.4974457910821997
vn -0.5330377639856826 0.6814786602854929 -0.5014554593786309
vn 0.7909414690200712 -0.6118910378655686 -0.0009748662313312299
vn -0.787404104587525 0.6164356839988815 0.0013503968117341402
vn 0.3073036543640743 0.39288188722495576 0.8667227276961431
vn -0.5341339676124977 -0.682880135808383 0.49837297755883186
vn 0.5330377639856826 0.6814786602854929 -0.5014554593786309
vn 1 0 0
vn 1 0 0
vn 1 0 0
vn 0 0 1
vn 0.6246950475544243 0.7808688094430304 0
vn -1 0 0
vn 0 0 -1
vn 0 0 1
vn 0 -1 0
vn 0 1 0
vn -0.6232037050564748 0.7820595514434193 0
vn -0.9492979228560804 0.31437788354324736 0
vn -1 0 0
vn 0 0 -1
vn 1 0 0
vn 0 0 1
vn 0 -1 0
vn 0 1 0
vn 0 0 1
vn 0 0 1
vn -0.6246950475544243 0.7808688094430304 0
vn -0.6246950475544243 0.7808688094430304 0
vn -0.6246950475544243 0.7808688094430304 0
vn -0.6246950475544243 0.7808688094430304 0
vn -0.948683298050514 0.316227766016838 0
vn 0 0 -1
vn 0 0 1
vn -1 0 0
vn 0 -1 0
vn 0 1 0
vn -0.9456865993048669 0.325079768511048 0
vn -0.9456865993048669 0.325079768511048 0
vn -0.9544799780350298 0.2982749931359468 0
vn 0 0 1
vn 0 -1 0
vn -1 0 0
vn 1 0 0
vn -1 0 0
vn 0 0 -1
vn 1 0 0
vn 0 0 1
vn -1 0 0
vn 1 0 0
vn 0 -1 0
vn 0 1 0
vn -1 0 0
vn 0 0 -1
vn 1 0 0
vn 0 -1 0
vn -1 0 0
vn 1 0 0
vn 0 -1 0
vn 0 1 0
vn -1 0 0
vn 0 0 -1
vn 1 0 0
vn 0 0 1
vn 0 -1 0
vn 0 1 0
vn 0 0 1
vn 0 0 1
vn 0 0 1
vn 0.9492979228560804 0.31437788354324736 0
vn 0.6246950475544243 0.7808688094430304 0
vn 0 0 -1
vn 0 0 1
vn 0 1 0
vn 0 0 -1
vn 0 0 1
vn 0 1 0
vn 0 0 -1
vn 0 0 1
vn 0 0 -1
vn 0 0 1
vn 0 1 0
vn -1 0 0
vn 0 0 -1
vn 0 0 1
vn 0 -1 0
vn 0 -1 0
vn 0 1 0
vn 0 1 0
vn -1 0 0
vn 0 0 -1
vn 1 0 0
vn 0 0 1
vn 0 -1 0
vn 0 1 0
vn 0 0 -1
vn 1 0 0
vn 0 0 1
vn 0 -1 0
vn 0 1 0
vn 0.8944271909999161 0.44721359549995804 0
vn 0 1 0
vn 0.5547001962252291 0.8320502943378437 0
vn 0 1 0
vn 0 0 -1
vn 1 0 0
vn 0 0 1
vn 0 -1 0
vn 0 1 0
vn 0 0 -1
vn 1 0 0
vn 0 0 1
vn 0 -1 0
vn 0 1 0
vn 0.6246950475544243 0.7808688094430304 0
vn 0 0 -1
vn 0 0 1
vn 0 0 -1
vn 1 0 0
vn 0 0 1
vn 0.948683298050514 0.316227766016838 0
vn 0.6232037050564748 0.7820595514434193 0
vn 0.948683298050514 0.316227766016838 0
vn 0 -1 0
vn 0 0 -1
vn 0 0 1
vn -1 0 0
vn 1 0 0
vn 0 0.49949721934415764 0.8663154898000234
vn 0 -0.8656642097802241 0.5006250851741055
vn 0 0.8656642097802241 -0.5006250851741055
vn -0.32385816822236635 0.9461052567641843 0.0008543996900338811
vn 0.32385816822236635 -0.9461052567641843 -0.0008543996900338811
vn 0.4749114391623952 0.16484529293240163 0.8644565659133681
vn 0.8195288844879481 0.2844645714751555 -0.4974457910821997
vn -0.8195865235264354 -0.27771113607094094 0.5011531256572578
vn 0.7909414690200712 0.6118910378655686 0.0009748662313312299
vn -0.3073036543640743 0.39288188722495576 0.8667227276961431
vn 0.787404104587525 -0.6164356839988815 -0.0013503968117341402
vn -0.7909414690200712 0.6118910378655686 0.0009748662313312299
vn 0.3073036543640743 0.39288188722495576 0.8667227276961431
vn -0.5341339676124977 -0.682880135808383 0.49837297755883186
vn 0.5330377639856826 0.6814786602854929 -0.5014554593786309
vn 1 0 0
vn 1 0 0
vn 1 0 0
vn 0 0 1
vn 0 0 -1
vn 0 0 -1
vn -0.8944271909999161 0.44721359549995804 0
vn -0.5547001962252291 0.8320502943378437 0
vn -0.6246950475544243 0.7808688094430304 0
vn 0 0 1
vn 0 0 -1
vn 0 0 -1
vn 0 0 1
vn -1 0 0
vn -0.948683298050514 0.316227766016838 0
vn 0 0 1
vn 0 0 -1
vn 0 -1 0
vn -1 0 0
vn 0.3267495424868399 0.9451107369619349 0.0006567829999735475
vn -0.3267495424868399 -0.9451107369619349 -0.0006567829999735475
vn -0.47307921363994193 0.16029956825816213 0.8663140920232459
vn -0.8195865235264354 0.27771113607094094 -0.5011531256572578
vn 0.8195288844879481 -0.2844645714751555 0.4974457910821997
vn -0.7909414690200712 -0.6118910378655686 -0.0009748662313312299
vn 0.787404104587525 0.6164356839988815 0.0013503968117341402
vn 0.5341339676124977 -0.682880135808383 0.49837297755883186
vn -0.5330377639856826 0.6814786602854929 -0.5014554593786309
vn -1 0 0
vn -0.8944271909999161 0.44721359549995804 0
vn -0.5547001962252291 0.8320502943378437 0
vn -0.6246950475544243 0.7808688094430304 0
vn 0 0 -1
vn 0 0 1
vn -1 0 0
vn -0.948683298050514 0.316227766016838 0
vn 0 -1 0
vn 0.32385816822236635 0.9461052567641843 0.0008543996900338811
vn -0.32385816822236635 -0.9461052567641843 -0.0008543996900338811
vn -0.4749114391623952 0.16484529293240163 0.8644565659133681
vn -0.8195288844879481 0.2844645714751555 -0.4974457910821997
vn 0.8195865235264354 -0.27771113607094094 0.5011531256572578
vn -0.787404104587525 -0.6164356839988815 -0.0013503968117341402
vn -0.3073036543640743 0.39288188722495576 0.8667227276961431
vn 0.5341339676124977 -0.682880135808383 0.49837297755883186
vn -1 0 0
vn 0 0 -1
vn 0 0 -1
vn -1 0 0
vn 0 0 -1
vn 0 0 1
vn 0 -1 0
vn 0 1 0
vn 1 0 0
vn -1 0 0
vn 0 0 -1
vn 0 0 1
vn 0 -1 0
vn 0 1 0
vn 1 0 0
vn 0 -1 0
vn 0 -1 0
vn 0 1 0
vn 0 1 0
usemtl m_6627e7c0-fce9-a4b4-acbc-a1af7c40be9f
f 2/1/1 371/2/1 321/3/1
f 3/4/2 4/5/2 5/6/2
f 4/7/3 6/8/3 7/9/3
f 8/10/4 3/11/4 5/12/4
f 9/13/5 10/14/5 11/15/5
f 12/16/6 13/17/6 10/18/6
f 14/19/7 11/20/7 15/21/7
f 13/22/8 11/23/8 10/24/8
f 12/25/9 14/26/9 16/27/9
f 17/28/10 18/29/10 19/30/10
f 20/31/11 21/32/11 22/33/11
f 23/34/12 24/35/12 25/36/12
f 26/37/13 27/38/13 24/39/13
f 28/40/14 29/41/14 27/42/14
f 30/43/15 25/44/15 29/45/15
f 24/46/16 29/47/16 25/48/16
f 26/49/17 30/50/17 28/51/17
f 31/52/18 32/53/18 33/54/18
f 34/55/19 35/56/19 36/57/19
f 37/58/20 38/59/20 39/60/20
f 38/61/21 40/62/21 41/63/21
f 42/64/22 37/65/22 39/66/22
f 43/67/23 44/68/23 45/69/23
f 44/70/24 46/71/24 47/72/24
f 48/73/25 43/74/25 45/75/25
f 49/76/26 50/77/26 51/78/26
f 52/79/27 53/80/27 54/81/27
f 55/82/28 56/83/28 1/84/28
f 56/85/29 57/86/29 1/87/29
f 55/88/30 58/89/30 59/90/30
f 60/91/31 61/92/31 62/93/31
f 64/94/32 65/95/32 66/96/32
f 63/97/33 66/98/33 62/99/33
f 67/100/34 68/101/34 69/102/34
f 70/103/35 71/104/35 72/105/35
f 73/106/36 74/107/36 75/108/36
f 76/109/37 77/110/37 74/111/37
f 78/112/38 79/113/38 77/114/38
f 80/115/39 75/116/39 79/117/39
f 81/118/40 82/119/40 83/120/40
f 84/121/41 85/122/41 86/123/41
f 86/124/42 83/125/42 82/126/42
f 87/127/43 88/128/43 84/129/43
f 89/130/44 90/131/44 91/132/44
f 92/133/45 93/134/45 90/135/45
f 94/136/46 95/137/46 93/138/46
f 93/139/47 91/140/47 90/141/47
f 96/142/48 97/143/48 98/144/48
f 99/145/49 100/146/49 101/147/49
f 97/148/50 100/149/50 98/150/50
f 102/151/51 103/152/51 99/153/51
f 104/154/52 105/155/52 106/156/52
f 107/157/53 108/158/53 105/159/53
f 109/160/54 110/161/54 108/162/54
f 111/163/55 106/164/55 110/165/55
f 105/166/56 110/167/56 106/168/56
f 107/169/57 111/170/57 109/171/57
f 112/172/58 113/173/58 114/174/58
f 115/175/59 116/176/59 117/177/59
f 118/178/60 119/179/60 120/180/60
f 120/181/61 119/182/61 121/183/61
f 122/184/62 123/185/62 118/186/62
f 124/187/63 125/188/63 126/189/63
f 127/190/64 128/191/64 129/192/64
f 130/193/65 131/194/65 132/195/65
f 133/196/66 134/197/66 135/198/66
f 136/199/67 137/200/67 138/201/67
f 133/202/68 136/203/68 139/204/68
f 140/205/69 141/206/69 142/207/69
f 143/208/70 144/209/70 145/210/70
f 146/211/71 147/212/71 148/213/71
f 149/214/72 150/215/72 151/216/72
f 146/217/73 149/218/73 152/219/73
f 153/220/74 154/221/74 155/222/74
f 156/223/75 157/224/75 154/225/75
f 158/226/76 155/227/76 159/228/76
f 160/229/77 159/230/77 155/231/77
f 153/232/78 158/233/78 161/234/78
f 162/235/79 163/236/79 164/237/79
f 165/238/80 166/239/80 163/240/80
f 167/241/81 168/242/81 166/243/81
f 169/244/82 164/245/82 168/246/82
f 163/247/83 168/248/83 164/249/83
f 165/250/84 169/251/84 167/252/84
f 170/253/85 171/254/85 172/255/85
f 173/256/86 174/257/86 171/258/86
f 175/259/87 176/260/87 174/261/87
f 171/262/88 176/263/88 172/264/88
f 170/265/89 175/266/89 173/267/89
f 177/268/90 178/269/90 179/270/90
f 180/271/91 181/272/91 182/273/91
f 183/274/92 184/275/92 185/276/92
f 186/277/93 187/278/93 188/279/93
f 189/280/94 190/281/94 191/282/94
f 192/283/95 193/284/95 190/285/95
f 194/286/96 195/287/96 193/288/96
f 191/289/97 193/290/97 195/291/97
f 189/292/98 194/293/98 192/294/98
f 196/295/99 197/296/99 198/297/99
f 199/298/100 200/299/100 197/300/100
f 201/301/101 202/302/101 200/303/101
f 197/304/102 202/305/102 198/306/102
f 196/307/103 201/308/103 199/309/103
f 203/310/104 204/311/104 205/312/104
f 204/313/105 206/314/105 207/315/105
f 208/316/106 203/317/106 205/318/106
f 209/319/107 210/320/107 211/321/107
f 212/322/108 213/323/108 214/324/108
f 218/325/109 219/326/109 216/327/109
f 220/328/110 221/329/110 219/330/110
f 222/331/111 217/332/111 221/333/111
f 223/334/112 224/335/112 225/336/112
f 224/337/113 226/338/113 227/339/113
f 228/340/114 223/341/114 225/342/114
f 229/343/115 230/344/115 231/345/115
f 232/346/116 233/347/116 234/348/116
f 233/349/117 235/350/117 236/351/117
f 237/352/118 232/353/118 234/354/118
f 236/355/119 234/356/119 233/357/119
f 238/358/120 239/359/120 240/360/120
f 241/361/121 242/362/121 243/363/121
f 247/364/122 248/365/122 249/366/122
f 248/367/123 250/368/123 244/369/123
f 249/370/124 244/371/124 246/372/124
f 245/373/125 251/374/125 247/375/125
f 252/376/126 253/377/126 254/378/126
f 255/379/127 256/380/127 257/381/127
f 258/382/128 253/383/128 256/384/128
f 252/385/129 258/386/129 255/387/129
f 256/388/130 259/389/130 257/390/130
f 260/391/131 262/392/131 263/393/131
f 264/394/132 265/395/132 266/396/132
f 267/397/133 268/398/133 269/399/133
f 267/400/134 266/401/134 270/402/134
f 264/403/135 269/404/135 271/405/135
f 268/406/136 266/407/136 265/408/136
f 272/409/137 273/410/137 274/411/137
f 275/412/138 160/413/138 157/414/138
f 161/415/139 159/416/139 160/417/139
f 276/418/140 277/419/140 278/420/140
f 3/421/141 6/422/141 4/423/141
f 9/424/142 12/425/142 10/426/142
f 12/427/143 16/428/143 13/429/143
f 14/430/144 9/431/144 11/432/144
f 13/433/145 15/434/145 11/435/145
f 12/436/146 9/437/146 14/438/146
f 17/439/147 279/440/147 18/441/147
f 20/442/148 280/443/148 21/444/148
f 23/445/149 26/446/149 24/447/149
f 26/448/150 28/449/150 27/450/150
f 28/451/151 30/452/151 29/453/151
f 30/454/152 23/455/152 25/456/152
f 24/457/153 27/458/153 29/459/153
f 26/460/154 23/461/154 30/462/154
f 281/463/155 282/464/155 33/465/155
f 282/466/156 31/467/156 33/468/156
f 35/469/157 283/470/157 36/471/157
f 36/472/158 32/473/158 31/474/158
f 31/475/159 34/476/159 36/477/159
f 37/478/160 40/479/160 38/480/160
f 43/481/161 46/482/161 44/483/161
f 49/484/162 284/485/162 50/486/162
f 52/487/163 285/488/163 53/489/163
f 55/490/164 286/491/164 56/492/164
f 57/493/165 287/494/165 1/495/165
f 286/496/166 55/497/166 59/498/166
f 62/499/167 66/500/167 60/501/167
f 66/502/168 65/503/168 60/504/168
f 60/505/169 288/506/169 61/507/169
f 64/508/170 289/509/170 65/510/170
f 63/511/171 64/512/171 66/513/171
f 67/514/172 290/515/172 68/516/172
f 70/517/173 291/518/173 71/519/173
f 73/520/174 76/521/174 74/522/174
f 76/523/175 78/524/175 77/525/175
f 78/526/176 80/527/176 79/528/176
f 80/529/177 73/530/177 75/531/177
f 81/532/178 87/533/178 82/534/178
f 84/535/179 88/536/179 85/537/179
f 86/538/180 85/539/180 83/540/180
f 87/541/181 81/542/181 88/543/181
f 89/544/182 92/545/182 90/546/182
f 92/547/183 94/548/183 93/549/183
f 94/550/184 292/551/184 95/552/184
f 93/553/185 95/554/185 91/555/185
f 96/556/186 102/557/186 97/558/186
f 99/559/187 103/560/187 100/561/187
f 97/562/188 101/563/188 100/564/188
f 102/565/189 96/566/189 103/567/189
f 104/568/190 107/569/190 105/570/190
f 107/571/191 109/572/191 108/573/191
f 109/574/192 111/575/192 110/576/192
f 111/577/193 104/578/193 106/579/193
f 105/580/194 108/581/194 110/582/194
f 107/583/195 104/584/195 111/585/195
f 112/586/196 293/587/196 113/588/196
f 293/589/197 294/590/197 113/591/197
f 113/592/198 295/593/198 114/594/198
f 115/595/199 296/596/199 116/597/199
f 118/598/200 123/599/200 119/600/200
f 124/601/201 297/602/201 125/603/201
f 127/604/202 298/605/202 128/606/202
f 130/607/203 299/608/203 131/609/203
f 133/610/204 139/611/204 134/612/204
f 136/613/205 300/614/205 137/615/205
f 133/616/206 300/617/206 136/618/206
f 140/619/207 301/620/207 141/621/207
f 143/622/208 302/623/208 144/624/208
f 146/625/209 152/626/209 147/627/209
f 149/628/210 303/629/210 150/630/210
f 146/631/211 303/632/211 149/633/211
f 153/634/212 156/635/212 154/636/212
f 156/637/213 275/638/213 157/639/213
f 158/640/214 153/641/214 155/642/214
f 155/643/215 154/644/215 160/645/215
f 154/646/216 157/647/216 160/648/216
f 161/649/217 275/650/217 156/651/217
f 156/652/218 153/653/218 161/654/218
f 162/655/219 165/656/219 163/657/219
f 165/658/220 167/659/220 166/660/220
f 167/661/221 169/662/221 168/663/221
f 169/664/222 162/665/222 164/666/222
f 163/667/223 166/668/223 168/669/223
f 165/670/224 162/671/224 169/672/224
f 170/673/225 173/674/225 171/675/225
f 173/676/226 175/677/226 174/678/226
f 175/679/227 304/680/227 176/681/227
f 171/682/228 174/683/228 176/684/228
f 170/685/229 304/686/229 175/687/229
f 177/688/230 305/689/230 178/690/230
f 180/691/231 306/692/231 181/693/231
f 183/694/232 307/695/232 184/696/232
f 186/697/233 308/698/233 187/699/233
f 189/700/234 192/701/234 190/702/234
f 192/703/235 194/704/235 193/705/235
f 194/706/236 309/707/236 195/708/236
f 191/709/237 190/710/237 193/711/237
f 189/712/238 309/713/238 194/714/238
f 196/715/239 199/716/239 197/717/239
f 199/718/240 201/719/240 200/720/240
f 201/721/241 310/722/241 202/723/241
f 197/724/242 200/725/242 202/726/242
f 196/727/243 310/728/243 201/729/243
f 203/730/244 206/731/244 204/732/244
f 209/733/245 311/734/245 210/735/245
f 212/736/246 312/737/246 213/738/246
f 218/739/247 220/740/247 219/741/247
f 220/742/248 222/743/248 221/744/248
f 222/745/249 215/746/249 217/747/249
f 223/748/250 226/749/250 224/750/250
f 229/751/251 313/752/251 230/753/251
f 232/754/252 235/755/252 233/756/252
f 236/757/253 237/758/253 234/759/253
f 238/760/254 314/761/254 239/762/254
f 241/763/255 315/764/255 242/765/255
f 244/766/256 250/767/256 245/768/256
f 247/769/257 251/770/257 248/771/257
f 248/772/258 251/773/258 250/774/258
f 249/775/259 248/776/259 244/777/259
f 245/778/260 250/779/260 251/780/260
f 252/781/261 259/782/261 253/783/261
f 255/784/262 258/785/262 256/786/262
f 258/787/263 254/788/263 253/789/263
f 252/790/264 254/791/264 258/792/264
f 256/793/265 253/794/265 259/795/265
f 260/796/266 263/797/266 261/798/266
f 261/799/267 263/800/267 262/801/267
f 264/802/268 271/803/268 265/804/268
f 267/805/269 270/806/269 268/807/269
f 267/808/270 264/809/270 266/810/270
f 264/811/271 267/812/271 269/813/271
f 268/814/272 270/815/272 266/816/272
f 272/817/273 316/818/273 273/819/273
f 275/820/274 161/821/274 160/822/274
f 161/823/275 158/824/275 159/825/275
f 276/826/276 317/827/276 277/828/276
f 320/829/277 319/830/277 318/831/277
f 322/832/278 2/833/278 321/834/278
f 325/835/279 324/836/279 323/837/279
f 328/838/280 327/839/280 326/840/280
f 331/841/281 330/842/281 329/843/281
f 333/844/282 332/845/282 330/846/282
f 331/847/283 329/848/283 334/849/283
f 337/850/284 336/851/284 335/852/284
f 340/853/285 339/854/285 338/855/285
f 343/856/286 342/857/286 341/858/286
f 346/859/287 345/860/287 344/861/287
f 348/862/288 347/863/288 345/864/288
f 346/865/289 344/866/289 349/867/289
f 345/868/290 346/869/290 348/870/290
f 352/871/291 351/872/291 350/873/291
f 355/874/292 354/875/292 353/876/292
f 358/877/293 357/878/293 356/879/293
f 357/880/294 354/881/294 359/882/294
f 356/883/295 359/884/295 353/885/295
f 358/886/296 360/887/296 357/888/296
f 363/889/297 362/890/297 361/891/297
f 366/892/298 365/893/298 364/894/298
f 367/895/299 366/896/299 361/897/299
f 362/898/300 363/899/300 365/900/300
f 370/901/301 369/902/301 368/903/301
f 324/904/302 372/905/302 323/906/302
f 327/907/303 373/908/303 326/909/303
f 330/910/304 332/911/304 329/912/304
f 336/913/305 374/914/305 335/915/305
f 339/916/306 375/917/306 338/918/306
f 342/919/307 376/920/307 341/921/307
f 345/922/308 347/923/308 344/924/308
f 346/925/309 349/926/309 348/927/309
f 354/928/310 360/929/310 353/930/310
f 357/931/311 359/932/311 356/933/311
f 354/934/312 355/935/312 359/936/312
f 359/937/313 355/938/313 353/939/313
f 360/940/314 354/941/314 357/942/314
f 362/943/315 367/944/315 361/945/315
f 363/946/316 361/947/316 364/948/316
f 366/949/317 364/950/317 361/951/317
f 369/952/318 377/953/318 368/954/318
f 378/955/319 380/956/319 381/957/319
f 378/958/320 379/959/320 380/960/320
f 391/961/321 386/962/321 388/963/321
f 390/964/322 389/965/322 386/966/322
f 393/967/323 388/968/323 387/969/323
f 386/970/324 387/971/324 388/972/324
f 390/973/325 393/974/325 392/975/325
f 394/976/326 383/977/326 382/978/326
f 391/979/327 390/980/327 386/981/327
f 390/982/328 392/983/328 389/984/328
f 393/985/329 391/986/329 388/987/329
f 386/988/330 389/989/330 387/990/330
f 390/991/331 391/992/331 393/993/331
f 394/994/332 395/995/332 383/996/332
f 385/997/333 382/998/333 384/999/333
f 382/1000/334 383/1001/334 384/1002/334
f 395/1003/335 394/1004/335 396/1005/335
f 394/1006/336 397/1007/336 396/1008/336