# Made in Blockbench 5.0.4
mtllib electrolytic_crucible_battery.mtl

o cube
v 2 0.5 1
v 2 0 1
v 2 0 -8
v 2 0.5 -8
v 1 0.5 -6
v 1 1 -6
v 2 1 -6
v 2 0.5 -6
v 2 1 -5
v 2 0.5 -5
v 1 1 -5
v 1 0.5 -5
v -1 0.5 1
v -1 3 1
v -1 3 0
v -1 0.5 0
v 2 3 0
v 2 0.5 0
v 2 3 1
v 1.25 3.25 0.25
v 1.25 3.75 0.25
v 1.25 3.75 0
v 1.25 3.25 0
v 1.75 3.25 0
v 1.75 3.75 0
v 1.75 3.75 0.25
v 1.75 3.25 0.25
v 1.25 3 0.75
v 1.25 3.75 0.75
v 1.25 3 0.25
v 1.75 3 0.25
v 1.75 3.75 0.75
v 1.75 3 0.75
v -0.25 0.5 -7.625
v -0.25 1 -7.625
v -0.25 1 -7.875
v -0.25 0.5 -7.875
v -0.125 1 -7.875
v -0.125 0.5 -7.875
v -0.125 1 -7.625
v -0.125 0.5 -7.625
v -0.875 0.5 -7.625
v -0.875 1 -7.625
v -0.875 1 -7.875
v -0.875 0.5 -7.875
v -0.75 1 -7.875
v -0.75 0.5 -7.875
v -0.75 1 -7.625
v -0.75 0.5 -7.625
v -1 1 -7.5
v -1 2 -7.5
v -1 2 -8
v -1 1 -8
v 0 2 -8
v 0 1 -8
v 0 2 -7.5
v 0 1 -7.5
v 0 0.5 -7
v 0 1.5 -7
v 1 1.5 -7
v 1 0.5 -7
v 2 1.5 0
v 1 0.5 0
v 2 1.5 -7
v -1 1.5 -7
v 0 0.5 0
v -1 1.5 0
v -1 3 -7
v 2 3 -7
v -0.25 0.75 -6.75
v 0 0.75 -6.75
v 0 0.5 -6.75
v -0.25 0.5 -6.75
v -0.75 0.5 0
v -0.75 1 0
v -0.75 1 -6.75
v -0.75 0.5 -6.75
v -0.25 1 -6.75
v -0.25 1 0
v 1.75 0.5 0
v 1.75 0.75 0
v 1.75 0.75 -1
v 1.75 0.5 -1
v 2 0.5 -1
v 2 0.75 -1
v 2 0.75 0
v 1 0.5 -4
v 1 1 -4
v 2 1 -4
v 2 0.5 -4
v 2 1 -1
v 1 1 -1
v 1 0.5 -1
v -1 0.5 -8
v 0.75 3 0
v 0.75 3.125 0
v 0.75 3.125 -6.5
v 0.75 3 -6.5
v 1 3.125 -6.5
v 1 3 -6.5
v 1 3.125 0
v 1 3 0
v 0.25 3 -0.25
v 0.25 3.25 -0.25
v 0.25 3.25 -0.75
v 0.25 3 -0.75
v 0.75 3.25 -0.75
v 0.75 3 -0.75
v 0.75 3.25 -0.25
v 0.75 3 -0.25
v 1.25 0.5 -7
v 1.25 3.5 -7
v 1.25 3.5 -7.5
v 1.25 0.5 -7.5
v 1.75 3.5 -7.5
v 1.75 0.5 -7.5
v 1.75 3.5 -7
v 1.75 0.5 -7
v -0.75 0.5 -7
v -0.75 3.5 -7
v -0.75 3.5 -7.5
v -0.75 0.5 -7.5
v -0.25 3.5 -7.5
v -0.25 0.5 -7.5
v -0.25 3.5 -7
v -0.25 0.5 -7
v -0.25 2.75 -7.5
v -0.25 3.25 -7.5
v 1.25 3.25 -7.5
v 1.25 2.75 -7.5
v 1.25 2.75 -7
v 1.25 3.25 -7
v -0.25 3.25 -7
v -0.25 2.75 -7
v 1.25 3 -0.25
v 1.25 3.25 -0.25
v 1.25 3.25 -0.75
v 1.25 3 -0.75
v 1.75 3.25 -0.75
v 1.75 3 -0.75
v 1.75 3.25 -0.25
v 1.75 3 -0.25
v 1.25 3 -1.25
v 1.25 3.25 -1.25
v 1.25 3.25 -1.75
v 1.25 3 -1.75
v 1.75 3.25 -1.75
v 1.75 3 -1.75
v 1.75 3.25 -1.25
v 1.75 3 -1.25
v 1.25 3 -2.25
v 1.25 3.25 -2.25
v 1.25 3.25 -2.75
v 1.25 3 -2.75
v 1.75 3.25 -2.75
v 1.75 3 -2.75
v 1.75 3.25 -2.25
v 1.75 3 -2.25
v 1.25 3 -6.25
v 1.25 3.25 -6.25
v 1.25 3.25 -6.75
v 1.25 3 -6.75
v 1.75 3.25 -6.75
v 1.75 3 -6.75
v 1.75 3.25 -6.25
v 1.75 3 -6.25
v 1.25 3 -5.25
v 1.25 3.25 -5.25
v 1.25 3.25 -5.75
v 1.25 3 -5.75
v 1.75 3.25 -5.75
v 1.75 3 -5.75
v 1.75 3.25 -5.25
v 1.75 3 -5.25
v 1.25 3 -4.25
v 1.25 3.25 -4.25
v 1.25 3.25 -4.75
v 1.25 3 -4.75
v 1.75 3.25 -4.75
v 1.75 3 -4.75
v 1.75 3.25 -4.25
v 1.75 3 -4.25
v 1.25 3 -3.25
v 1.25 3.25 -3.25
v 1.25 3.25 -3.75
v 1.25 3 -3.75
v 1.75 3.25 -3.75
v 1.75 3 -3.75
v 1.75 3.25 -3.25
v 1.75 3 -3.25
v 1.25 3.75 -6.75
v 1.75 3.75 -6.75
v -1 0 1
v -1 0 -8
v -0.75 3 0.75
v -0.75 3.75 0.75
v -0.75 3.75 0.25
v -0.75 3 0.25
v -0.25 3.75 0.25
v -0.25 3 0.25
v -0.25 3.75 0.75
v -0.25 3 0.75
v -0.75 3.25 0.25
v -0.75 3.75 0
v -0.75 3.25 0
v -0.25 3.25 0
v -0.25 3.75 0
v -0.25 3.25 0.25
v -0.75 3 -0.25
v -0.75 3.25 -0.25
v -0.75 3.25 -0.75
v -0.75 3 -0.75
v -0.25 3.25 -0.75
v -0.25 3 -0.75
v -0.25 3.25 -0.25
v -0.25 3 -0.25
v -0.75 3 -1.25
v -0.75 3.25 -1.25
v -0.75 3.25 -1.75
v -0.75 3 -1.75
v -0.25 3.25 -1.75
v -0.25 3 -1.75
v -0.25 3.25 -1.25
v -0.25 3 -1.25
v -0.75 3 -2.25
v -0.75 3.25 -2.25
v -0.75 3.25 -2.75
v -0.75 3 -2.75
v -0.25 3.25 -2.75
v -0.25 3 -2.75
v -0.25 3.25 -2.25
v -0.25 3 -2.25
v -0.75 3 -6.25
v -0.75 3.25 -6.25
v -0.75 3.25 -6.75
v -0.75 3 -6.75
v -0.25 3.25 -6.75
v -0.25 3 -6.75
v -0.25 3.25 -6.25
v -0.25 3 -6.25
v -0.75 3 -5.25
v -0.75 3.25 -5.25
v -0.75 3.25 -5.75
v -0.75 3 -5.75
v -0.25 3.25 -5.75
v -0.25 3 -5.75
v -0.25 3.25 -5.25
v -0.25 3 -5.25
v -0.75 3 -4.25
v -0.75 3.25 -4.25
v -0.75 3.25 -4.75
v -0.75 3 -4.75
v -0.25 3.25 -4.75
v -0.25 3 -4.75
v -0.25 3.25 -4.25
v -0.25 3 -4.25
v -0.75 3 -3.25
v -0.75 3.25 -3.25
v -0.75 3.25 -3.75
v -0.75 3 -3.75
v -0.25 3.25 -3.75
v -0.25 3 -3.75
v -0.25 3.25 -3.25
v -0.25 3 -3.25
v -0.75 3.75 -6.75
v -0.25 3.75 -6.75
v 0.25 3 -1.25
v 0.25 3.25 -1.25
v 0.25 3.25 -1.75
v 0.25 3 -1.75
v 0.75 3.25 -1.75
v 0.75 3 -1.75
v 0.75 3.25 -1.25
v 0.75 3 -1.25
v 0.25 3 -2.25
v 0.25 3.25 -2.25
v 0.25 3.25 -2.75
v 0.25 3 -2.75
v 0.75 3.25 -2.75
v 0.75 3 -2.75
v 0.75 3.25 -2.25
v 0.75 3 -2.25
v 0.25 3 -3.25
v 0.25 3.25 -3.25
v 0.25 3.25 -3.75
v 0.25 3 -3.75
v 0.75 3.25 -3.75
v 0.75 3 -3.75
v 0.75 3.25 -3.25
v 0.75 3 -3.25
v 0.25 3 -4.25
v 0.25 3.25 -4.25
v 0.25 3.25 -4.75
v 0.25 3 -4.75
v 0.75 3.25 -4.75
v 0.75 3 -4.75
v 0.75 3.25 -4.25
v 0.75 3 -4.25
v 0.25 3 -5.25
v 0.25 3.25 -5.25
v 0.25 3.25 -5.75
v 0.25 3 -5.75
v 0.75 3.25 -5.75
v 0.75 3 -5.75
v 0.75 3.25 -5.25
v 0.75 3 -5.25
v 0.25 3 -6.25
v 0.25 3.25 -6.25
v 0.25 3.25 -6.75
v 0.25 3 -6.75
v 0.75 3.25 -6.75
v 0.75 3 -6.75
v 0.75 3.25 -6.25
v 0.75 3 -6.25
v 0 3 0
v 0 3.125 0
v 0 3.125 -6.5
v 0 3 -6.5
v 0.25 3.125 -6.5
v 0.25 3 -6.5
v 0.25 3.125 0
v 0.25 3 0
v -0.25 1 -7.5
v -0.25 1.5 -7.5
v 1.25 1.5 -7.5
v 1.25 1 -7.5
v 1.25 1 -7
v -0.25 1 -7
v -0.25 1.5 -7
v 1.25 1.5 -7
v 1.625 0.5 -1
v 1.625 0.75 -1
v 1.625 0.75 0
v 1.625 0.5 0
v 1.375 0.75 -1
v 1.375 0.75 0
v 1.375 0.5 0
v 1.375 0.5 -1
v 0.75 3 0.25
v 0.75 3.125 0.25
v 1 3.125 0.25
v 1 3 0.25
v 0 3 0.25
v 0 3.125 0.25
v 0.25 3.125 0.25
v 0.25 3 0.25
vt 0 0.78125
vt 0 0.75
vt 0.5625 0.75
vt 0.5625 0.78125
vt 0.25 0.625
vt 0.25 0.65625
vt 0.1875 0.65625
vt 0.1875 0.625
vt 0.25 0.5625
vt 0.25 0.59375
vt 0.1875 0.59375
vt 0.1875 0.5625
vt 0.25 0.625
vt 0.25 0.65625
vt 0.1875 0.65625
vt 0.1875 0.625
vt 0.25 0.59375
vt 0.25 0.65625
vt 0.1875 0.65625
vt 0.1875 0.59375
vt 0.75 0.6328119921875
vt 0.90625 0.6328119921875
vt 0.90625 0.5703119921875
vt 0.75 0.5703119921875
vt 0.25 0.5625
vt 0.25 0.71875
vt 0.4375 0.71875
vt 0.4375 0.5625
vt 0.5625 0.5
vt 0.5625 0.65625
vt 0.5 0.65625
vt 0.5 0.5
vt 0.4375 0.5625
vt 0.4375 0.71875
vt 0.25 0.71875
vt 0.25 0.5625
vt 0.1875 0.71875
vt 0 0.71875
vt 0 0.65625
vt 0.1875 0.65625
vt 0.03125 0.5625
vt 0.03125 0.53125
vt 0.046875 0.53125
vt 0.046875 0.5625
vt 0.046875 0.53125
vt 0.046875 0.5625
vt 0.03125 0.5625
vt 0.03125 0.53125
vt 0.046875 0.5
vt 0.046875 0.53125
vt 0.03125 0.53125
vt 0.03125 0.5
vt 0.046875 0.53125
vt 0.046875 0.5625
vt 0.03125 0.5625
vt 0.03125 0.53125
vt 0 0.515625
vt 0 0.5625
vt 0.03125 0.5625
vt 0.03125 0.515625
vt 0.03125 0.5
vt 0.078125 0.5
vt 0.078125 0.53125
vt 0.03125 0.53125
vt 0.03125 0.515625
vt 0.03125 0.5625
vt 0 0.5625
vt 0 0.515625
vt 0.03125 0.5
vt 0.078125 0.5
vt 0.078125 0.53125
vt 0.03125 0.53125
vt 0.5 0.5
vt 0.5 0.53125
vt 0.46875 0.53125
vt 0.46875 0.5
vt 0.5390619921875 0.71875
vt 0.5390619921875 0.6875
vt 0.5546880078125 0.6875
vt 0.5546880078125 0.71875
vt 0.5625 0.6875
vt 0.5625 0.71875
vt 0.5546880078125 0.71875
vt 0.5546880078125 0.6875
vt 0.5546880078125 0.6875
vt 0.5546880078125 0.71875
vt 0.5390619921875 0.71875
vt 0.5390619921875 0.6875
vt 0.5625 0.6875
vt 0.5625 0.71875
vt 0.5546880078125 0.71875
vt 0.5546880078125 0.6875
vt 0.5390619921875 0.71875
vt 0.5390619921875 0.6875
vt 0.5546880078125 0.6875
vt 0.5546880078125 0.71875
vt 0.5625 0.6875
vt 0.5625 0.71875
vt 0.5546880078125 0.71875
vt 0.5546880078125 0.6875
vt 0.5546880078125 0.6875
vt 0.5546880078125 0.71875
vt 0.5390619921875 0.71875
vt 0.5390619921875 0.6875
vt 0.5625 0.6875
vt 0.5625 0.71875
vt 0.5546880078125 0.71875
vt 0.5546880078125 0.6875
vt 0.1875 0.65625
vt 0.25 0.65625
vt 0.25 0.59375
vt 0.1875 0.59375
vt 0.25 0.65625
vt 0.25 0.71875
vt 0.1875 0.71875
vt 0.1875 0.65625
vt 0.21875 0.59375
vt 0.21875 0.65625
vt 0.1875 0.65625
vt 0.1875 0.59375
vt 0.3125 0.65625
vt 0.3125 0.71875
vt 0.25 0.71875
vt 0.25 0.65625
vt 0.21875 0.59375
vt 0.21875 0.65625
vt 0.25 0.65625
vt 0.25 0.59375
vt 0.21875 0.59375
vt 0.21875 0.65625
vt 0.1875 0.65625
vt 0.1875 0.59375
vt 0.125 0.59375
vt 0.125 0.65625
vt 0.0625 0.65625
vt 0.0625 0.59375
vt 0.5625 0.71875
vt 0.5625 0.6328119921875
vt 1 0.6328119921875
vt 1 0.71875
vt 0.0625 0.59375
vt 0.0625 0.65625
vt 0 0.65625
vt 0.125 0.59375
vt 0.1875 0.65625
vt 0.125 0.65625
vt 1 0.71875
vt 0.5625 0.71875
vt 0.5625 0.6328119921875
vt 1 0.6328119921875
vt 1 0.71875
vt 1 0.8125
vt 0.5625 0.8125
vt 0.5625 0.71875
vt 0.75 0.5390619921875
vt 0.75 0.6328119921875
vt 0.5625 0.6328119921875
vt 0.5625 0.5390619921875
vt 1 0.71875
vt 1 0.8125
vt 0.5625 0.8125
vt 0.5625 0.71875
vt 1 0.8125
vt 1 1
vt 0.5625 1
vt 0.5625 0.8125
vt 0.5 0.53125
vt 0.46875 0.53125
vt 0.46875 0.5
vt 0.5 0.5
vt 0.046875 0.53125
vt 0.046875 0.5
vt 0.46875 0.5
vt 0.46875 0.53125
vt 0.5 0.5
vt 0.5 0.53125
vt 0.46875 0.53125
vt 0.46875 0.5
vt 0.5 0.5
vt 0.5 0.53125
vt 0.046875 0.53125
vt 0.046875 0.5
vt 0.90625 0.515625
vt 0.90625 0.5
vt 0.96875 0.5
vt 0.96875 0.515625
vt 0.96875 0.5
vt 0.96875 0.515625
vt 0.90625 0.515625
vt 0.90625 0.5
vt 0.96875 0.5
vt 0.96875 0.515625
vt 0.90625 0.515625
vt 0.90625 0.5
vt 0.25 0.625
vt 0.25 0.65625
vt 0.1875 0.65625
vt 0.1875 0.625
vt 0.1875 0.71875
vt 0.1875 0.75
vt 0 0.75
vt 0 0.71875
vt 0.25 0.625
vt 0.25 0.65625
vt 0.1875 0.65625
vt 0.1875 0.625
vt 0 0.8125
vt 0 1
vt 0.5625 1
vt 0.5625 0.8125
vt 0.1875 0.65625
vt 0.1875 0.71875
vt 0 0.71875
vt 0 0.65625
vt 0.96875 0.5
vt 0.96875 0.5078119921875
vt 0.5625 0.5078119921875
vt 0.5625 0.5
vt 0.9921880078125 0.5
vt 1 0.5
vt 1 0.515625
vt 0.9921880078125 0.515625
vt 0.5625 0.5078119921875
vt 0.5625 0.5
vt 0.96875 0.5
vt 0.96875 0.5078119921875
vt 0.5625 0.515625
vt 0.5625 0.5
vt 0.96875 0.5
vt 0.96875 0.515625
vt 0.5234380078125 0.6875
vt 0.5390619921875 0.6875
vt 0.5390619921875 0.71875
vt 0.5234380078125 0.71875
vt 0.5234380078125 0.6875
vt 0.5390619921875 0.6875
vt 0.5390619921875 0.71875
vt 0.5234380078125 0.71875
vt 0.5234380078125 0.6875
vt 0.5390619921875 0.6875
vt 0.5390619921875 0.71875
vt 0.5234380078125 0.71875
vt 0.5234380078125 0.6875
vt 0.5390619921875 0.6875
vt 0.5390619921875 0.71875
vt 0.5234380078125 0.71875
vt 0.5234380078125 0.6875
vt 0.5234380078125 0.71875
vt 0.4921880078125 0.71875
vt 0.4921880078125 0.6875
vt 0.78125 0.5390619921875
vt 0.96875 0.5390619921875
vt 0.96875 0.5703119921875
vt 0.78125 0.5703119921875
vt 0.78125 0.5390619921875
vt 0.96875 0.5390619921875
vt 0.96875 0.5703119921875
vt 0.78125 0.5703119921875
vt 0.78125 0.5390619921875
vt 0.96875 0.5390619921875
vt 0.96875 0.5703119921875
vt 0.78125 0.5703119921875
vt 0.78125 0.5390619921875
vt 0.96875 0.5390619921875
vt 0.96875 0.5703119921875
vt 0.78125 0.5703119921875
vt 0.78125 0.5390619921875
vt 0.78125 0.5703119921875
vt 0.75 0.5703119921875
vt 0.75 0.5390619921875
vt 0.78125 0.5390619921875
vt 0.96875 0.5390619921875
vt 0.96875 0.5703119921875
vt 0.78125 0.5703119921875
vt 0.78125 0.5390619921875
vt 0.96875 0.5390619921875
vt 0.96875 0.5703119921875
vt 0.78125 0.5703119921875
vt 0.78125 0.5390619921875
vt 0.96875 0.5390619921875
vt 0.96875 0.5703119921875
vt 0.78125 0.5703119921875
vt 0.78125 0.5390619921875
vt 0.96875 0.5390619921875
vt 0.96875 0.5703119921875
vt 0.78125 0.5703119921875
vt 0.78125 0.5390619921875
vt 0.78125 0.5703119921875
vt 0.75 0.5703119921875
vt 0.75 0.5390619921875
vt 0.8671880078125 0.5703119921875
vt 0.8671880078125 0.5390619921875
vt 0.9609380078125 0.5390619921875
vt 0.9609380078125 0.5703119921875
vt 0.9609380078125 0.5390619921875
vt 0.9609380078125 0.5703119921875
vt 0.8671880078125 0.5703119921875
vt 0.8671880078125 0.5390619921875
vt 0.8671880078125 0.5390619921875
vt 0.9609380078125 0.5390619921875
vt 0.9609380078125 0.5703119921875
vt 0.8671880078125 0.5703119921875
vt 0.9609380078125 0.5703119921875
vt 0.8671880078125 0.5703119921875
vt 0.8671880078125 0.5390619921875
vt 0.9609380078125 0.5390619921875
vt 0.03125 0.5
vt 0.046875 0.5
vt 0.046875 0.53125
vt 0.03125 0.53125
vt 0.03125 0.5
vt 0.046875 0.5
vt 0.046875 0.53125
vt 0.03125 0.53125
vt 0.046875 0.53125
vt 0.03125 0.53125
vt 0.03125 0.5
vt 0.046875 0.5
vt 0.046875 0.53125
vt 0.03125 0.53125
vt 0.03125 0.5
vt 0.046875 0.5
vt 0.03125 0.5
vt 0.046875 0.5
vt 0.046875 0.53125
vt 0.03125 0.53125
vt 0.03125 0.5
vt 0.046875 0.5
vt 0.046875 0.53125
vt 0.03125 0.53125
vt 0.046875 0.53125
vt 0.03125 0.53125
vt 0.03125 0.5
vt 0.046875 0.5
vt 0.046875 0.53125
vt 0.03125 0.53125
vt 0.03125 0.5
vt 0.046875 0.5
vt 0.03125 0.5
vt 0.046875 0.5
vt 0.046875 0.53125
vt 0.03125 0.53125
vt 0.03125 0.5
vt 0.046875 0.5
vt 0.046875 0.53125
vt 0.03125 0.53125
vt 0.046875 0.53125
vt 0.03125 0.53125
vt 0.03125 0.5
vt 0.046875 0.5
vt 0.046875 0.53125
vt 0.03125 0.53125
vt 0.03125 0.5
vt 0.046875 0.5
vt 0.03125 0.5
vt 0.046875 0.5
vt 0.046875 0.53125
vt 0.03125 0.53125
vt 0.03125 0.5
vt 0.046875 0.5
vt 0.046875 0.53125
vt 0.03125 0.53125
vt 0.046875 0.53125
vt 0.03125 0.53125
vt 0.03125 0.5
vt 0.046875 0.5
vt 0.046875 0.53125
vt 0.03125 0.53125
vt 0.03125 0.5
vt 0.046875 0.5
vt 0.03125 0.5
vt 0.046875 0.5
vt 0.046875 0.53125
vt 0.03125 0.53125
vt 0.03125 0.5
vt 0.046875 0.5
vt 0.046875 0.53125
vt 0.03125 0.53125
vt 0.046875 0.53125
vt 0.03125 0.53125
vt 0.03125 0.5
vt 0.046875 0.5
vt 0.046875 0.53125
vt 0.03125 0.53125
vt 0.03125 0.5
vt 0.046875 0.5
vt 0.03125 0.5
vt 0.046875 0.5
vt 0.046875 0.53125
vt 0.03125 0.53125
vt 0.03125 0.5
vt 0.046875 0.5
vt 0.046875 0.53125
vt 0.03125 0.53125
vt 0.046875 0.53125
vt 0.03125 0.53125
vt 0.03125 0.5
vt 0.046875 0.5
vt 0.046875 0.53125
vt 0.03125 0.53125
vt 0.03125 0.5
vt 0.046875 0.5
vt 0.03125 0.5
vt 0.046875 0.5
vt 0.046875 0.53125
vt 0.03125 0.53125
vt 0.03125 0.5
vt 0.046875 0.5
vt 0.046875 0.53125
vt 0.03125 0.53125
vt 0.046875 0.53125
vt 0.03125 0.53125
vt 0.03125 0.5
vt 0.046875 0.5
vt 0.046875 0.53125
vt 0.03125 0.53125
vt 0.03125 0.5
vt 0.046875 0.5
vt 0.046875 0.53125
vt 0.046875 0.5625
vt 0.46875 0.5625
vt 0.46875 0.53125
vt 0.46875 0.5
vt 0.5 0.5
vt 0.5 0.53125
vt 0.46875 0.53125
vt 0.46875 0.53125
vt 0.46875 0.5625
vt 0.046875 0.5625
vt 0.046875 0.53125
vt 0.46875 0.5
vt 0.46875 0.53125
vt 0.046875 0.53125
vt 0.046875 0.5
vt 0.46875 0.5
vt 0.46875 0.53125
vt 0.046875 0.53125
vt 0.046875 0.5
vt 0.5625 0.78125
vt 0.5625 0.8125
vt 0 0.8125
vt 0 0.78125
vt 0.375 0.75
vt 0.375 0.71875
vt 0.5625 0.71875
vt 0.5625 0.75
vt 0.375 0.71875
vt 0.375 0.75
vt 0.1875 0.75
vt 0.1875 0.71875
vt 0.5625 0.8125
vt 0.5625 1
vt 0 1
vt 0 0.8125
vt 0 0.515625
vt 0 0.5625
vt 0.03125 0.5625
vt 0.03125 0.515625
vt 0.03125 0.5
vt 0.078125 0.5
vt 0.078125 0.53125
vt 0.03125 0.53125
vt 0.03125 0.515625
vt 0.03125 0.5625
vt 0 0.5625
vt 0 0.515625
vt 0.03125 0.5
vt 0.078125 0.5
vt 0.078125 0.53125
vt 0.03125 0.53125
vt 0.03125 0.5625
vt 0.03125 0.53125
vt 0.046875 0.53125
vt 0.046875 0.5625
vt 0.046875 0.53125
vt 0.046875 0.5625
vt 0.03125 0.5625
vt 0.03125 0.53125
vt 0.046875 0.5
vt 0.046875 0.53125
vt 0.03125 0.53125
vt 0.03125 0.5
vt 0.046875 0.53125
vt 0.046875 0.5625
vt 0.03125 0.5625
vt 0.03125 0.53125
vt 0.5 0.5
vt 0.5 0.53125
vt 0.46875 0.53125
vt 0.46875 0.5
vt 0.03125 0.5
vt 0.046875 0.5
vt 0.046875 0.53125
vt 0.03125 0.53125
vt 0.03125 0.5
vt 0.046875 0.5
vt 0.046875 0.53125
vt 0.03125 0.53125
vt 0.046875 0.53125
vt 0.03125 0.53125
vt 0.03125 0.5
vt 0.046875 0.5
vt 0.046875 0.53125
vt 0.03125 0.53125
vt 0.03125 0.5
vt 0.046875 0.5
vt 0.03125 0.5
vt 0.046875 0.5
vt 0.046875 0.53125
vt 0.03125 0.53125
vt 0.03125 0.5
vt 0.046875 0.5
vt 0.046875 0.53125
vt 0.03125 0.53125
vt 0.046875 0.53125
vt 0.03125 0.53125
vt 0.03125 0.5
vt 0.046875 0.5
vt 0.046875 0.53125
vt 0.03125 0.53125
vt 0.03125 0.5
vt 0.046875 0.5
vt 0.03125 0.5
vt 0.046875 0.5
vt 0.046875 0.53125
vt 0.03125 0.53125
vt 0.03125 0.5
vt 0.046875 0.5
vt 0.046875 0.53125
vt 0.03125 0.53125
vt 0.046875 0.53125
vt 0.03125 0.53125
vt 0.03125 0.5
vt 0.046875 0.5
vt 0.046875 0.53125
vt 0.03125 0.53125
vt 0.03125 0.5
vt 0.046875 0.5
vt 0.03125 0.5
vt 0.046875 0.5
vt 0.046875 0.53125
vt 0.03125 0.53125
vt 0.03125 0.5
vt 0.046875 0.5
vt 0.046875 0.53125
vt 0.03125 0.53125
vt 0.046875 0.53125
vt 0.03125 0.53125
vt 0.03125 0.5
vt 0.046875 0.5
vt 0.046875 0.53125
vt 0.03125 0.53125
vt 0.03125 0.5
vt 0.046875 0.5
vt 0.03125 0.5
vt 0.046875 0.5
vt 0.046875 0.53125
vt 0.03125 0.53125
vt 0.03125 0.5
vt 0.046875 0.5
vt 0.046875 0.53125
vt 0.03125 0.53125
vt 0.046875 0.53125
vt 0.03125 0.53125
vt 0.03125 0.5
vt 0.046875 0.5
vt 0.046875 0.53125
vt 0.03125 0.53125
vt 0.03125 0.5
vt 0.046875 0.5
vt 0.03125 0.5
vt 0.046875 0.5
vt 0.046875 0.53125
vt 0.03125 0.53125
vt 0.03125 0.5
vt 0.046875 0.5
vt 0.046875 0.53125
vt 0.03125 0.53125
vt 0.046875 0.53125
vt 0.03125 0.53125
vt 0.03125 0.5
vt 0.046875 0.5
vt 0.046875 0.53125
vt 0.03125 0.53125
vt 0.03125 0.5
vt 0.046875 0.5
vt 0.03125 0.5
vt 0.046875 0.5
vt 0.046875 0.53125
vt 0.03125 0.53125
vt 0.03125 0.5
vt 0.046875 0.5
vt 0.046875 0.53125
vt 0.03125 0.53125
vt 0.046875 0.53125
vt 0.03125 0.53125
vt 0.03125 0.5
vt 0.046875 0.5
vt 0.046875 0.53125
vt 0.03125 0.53125
vt 0.03125 0.5
vt 0.046875 0.5
vt 0.046875 0.53125
vt 0.046875 0.5625
vt 0.46875 0.5625
vt 0.46875 0.53125
vt 0.46875 0.5
vt 0.5 0.5
vt 0.5 0.53125
vt 0.46875 0.53125
vt 0.46875 0.53125
vt 0.46875 0.5625
vt 0.046875 0.5625
vt 0.046875 0.53125
vt 0.46875 0.5
vt 0.46875 0.53125
vt 0.046875 0.53125
vt 0.046875 0.5
vt 0.46875 0.5
vt 0.46875 0.53125
vt 0.046875 0.53125
vt 0.046875 0.5
vt 0.5234380078125 0.6875
vt 0.5390619921875 0.6875
vt 0.5390619921875 0.71875
vt 0.5234380078125 0.71875
vt 0.5234380078125 0.6875
vt 0.5390619921875 0.6875
vt 0.5390619921875 0.71875
vt 0.5234380078125 0.71875
vt 0.5234380078125 0.6875
vt 0.5390619921875 0.6875
vt 0.5390619921875 0.71875
vt 0.5234380078125 0.71875
vt 0.5234380078125 0.6875
vt 0.5390619921875 0.6875
vt 0.5390619921875 0.71875
vt 0.5234380078125 0.71875
vt 0.5234380078125 0.6875
vt 0.5234380078125 0.71875
vt 0.4921880078125 0.71875
vt 0.4921880078125 0.6875
vt 0.5234380078125 0.6875
vt 0.5390619921875 0.6875
vt 0.5390619921875 0.71875
vt 0.5234380078125 0.71875
vt 0.5234380078125 0.6875
vt 0.5390619921875 0.6875
vt 0.5390619921875 0.71875
vt 0.5234380078125 0.71875
vt 0.5234380078125 0.6875
vt 0.5390619921875 0.6875
vt 0.5390619921875 0.71875
vt 0.5234380078125 0.71875
vt 0.5234380078125 0.6875
vt 0.5390619921875 0.6875
vt 0.5390619921875 0.71875
vt 0.5234380078125 0.71875
vt 0.5234380078125 0.6875
vt 0.5234380078125 0.71875
vt 0.4921880078125 0.71875
vt 0.4921880078125 0.6875
vt 0.5234380078125 0.6875
vt 0.5390619921875 0.6875
vt 0.5390619921875 0.71875
vt 0.5234380078125 0.71875
vt 0.5234380078125 0.6875
vt 0.5390619921875 0.6875
vt 0.5390619921875 0.71875
vt 0.5234380078125 0.71875
vt 0.5234380078125 0.6875
vt 0.5390619921875 0.6875
vt 0.5390619921875 0.71875
vt 0.5234380078125 0.71875
vt 0.5234380078125 0.6875
vt 0.5390619921875 0.6875
vt 0.5390619921875 0.71875
vt 0.5234380078125 0.71875
vt 0.5234380078125 0.6875
vt 0.5234380078125 0.71875
vt 0.4921880078125 0.71875
vt 0.4921880078125 0.6875
vt 0.5234380078125 0.6875
vt 0.5390619921875 0.6875
vt 0.5390619921875 0.71875
vt 0.5234380078125 0.71875
vt 0.5234380078125 0.6875
vt 0.5390619921875 0.6875
vt 0.5390619921875 0.71875
vt 0.5234380078125 0.71875
vt 0.5234380078125 0.6875
vt 0.5390619921875 0.6875
vt 0.5390619921875 0.71875
vt 0.5234380078125 0.71875
vt 0.5234380078125 0.6875
vt 0.5390619921875 0.6875
vt 0.5390619921875 0.71875
vt 0.5234380078125 0.71875
vt 0.5234380078125 0.6875
vt 0.5234380078125 0.71875
vt 0.4921880078125 0.71875
vt 0.4921880078125 0.6875
vt 0.5234380078125 0.6875
vt 0.5390619921875 0.6875
vt 0.5390619921875 0.71875
vt 0.5234380078125 0.71875
vt 0.5234380078125 0.6875
vt 0.5390619921875 0.6875
vt 0.5390619921875 0.71875
vt 0.5234380078125 0.71875
vt 0.5234380078125 0.6875
vt 0.5390619921875 0.6875
vt 0.5390619921875 0.71875
vt 0.5234380078125 0.71875
vt 0.5234380078125 0.6875
vt 0.5390619921875 0.6875
vt 0.5390619921875 0.71875
vt 0.5234380078125 0.71875
vt 0.5234380078125 0.6875
vt 0.5234380078125 0.71875
vt 0.4921880078125 0.71875
vt 0.4921880078125 0.6875
vt 0.5234380078125 0.6875
vt 0.5390619921875 0.6875
vt 0.5390619921875 0.71875
vt 0.5234380078125 0.71875
vt 0.5234380078125 0.6875
vt 0.5390619921875 0.6875
vt 0.5390619921875 0.71875
vt 0.5234380078125 0.71875
vt 0.5234380078125 0.6875
vt 0.5390619921875 0.6875
vt 0.5390619921875 0.71875
vt 0.5234380078125 0.71875
vt 0.5234380078125 0.6875
vt 0.5390619921875 0.6875
vt 0.5390619921875 0.71875
vt 0.5234380078125 0.71875
vt 0.5234380078125 0.6875
vt 0.5234380078125 0.71875
vt 0.4921880078125 0.71875
vt 0.4921880078125 0.6875
vt 0.96875 0.5
vt 0.96875 0.5078119921875
vt 0.5625 0.5078119921875
vt 0.5625 0.5
vt 0.9921880078125 0.5
vt 1 0.5
vt 1 0.515625
vt 0.9921880078125 0.515625
vt 0.5625 0.5078119921875
vt 0.5625 0.5
vt 0.96875 0.5
vt 0.96875 0.5078119921875
vt 0.5625 0.515625
vt 0.5625 0.5
vt 0.96875 0.5
vt 0.96875 0.515625
vt 0.8671880078125 0.5703119921875
vt 0.8671880078125 0.5390619921875
vt 0.9609380078125 0.5390619921875
vt 0.9609380078125 0.5703119921875
vt 0.8671880078125 0.5390619921875
vt 0.9609380078125 0.5390619921875
vt 0.9609380078125 0.5703119921875
vt 0.8671880078125 0.5703119921875
vt 0.9609380078125 0.5703119921875
vt 0.8671880078125 0.5703119921875
vt 0.8671880078125 0.5390619921875
vt 0.9609380078125 0.5390619921875
vt 0.96875 0.5
vt 0.96875 0.515625
vt 0.90625 0.515625
vt 0.90625 0.5
vt 0.96875 0.5
vt 0.96875 0.515625
vt 0.90625 0.515625
vt 0.90625 0.5
vt 0.90625 0.515625
vt 0.90625 0.5
vt 0.96875 0.5
vt 0.96875 0.515625
vt 0.546875 0.6796880078125
vt 0.546875 0.6875
vt 0.5625 0.6875
vt 0.5625 0.6796880078125
vt 0.5625 0.6796880078125
vt 0.5625 0.6875
vt 0.546875 0.6875
vt 0.546875 0.6796880078125
vt 0.5703119921875 0.515625
vt 0.5625 0.515625
vt 0.5625 0.5
vt 0.5703119921875 0.5
vt 0.578125 0.5
vt 0.578125 0.515625
vt 0.5625 0.515625
vt 0.5625 0.5
vt 0.546875 0.6796880078125
vt 0.546875 0.6875
vt 0.5625 0.6875
vt 0.5625 0.6796880078125
vt 0.5625 0.6796880078125
vt 0.5625 0.6875
vt 0.546875 0.6875
vt 0.546875 0.6796880078125
vt 0.5703119921875 0.515625
vt 0.5625 0.515625
vt 0.5625 0.5
vt 0.5703119921875 0.5
vt 0.578125 0.5
vt 0.578125 0.515625
vt 0.5625 0.515625
vt 0.5625 0.5
vn 1 0 0
vn 0 0 -1
vn 1 0 0
vn 0 0 1
vn 0 1 0
vn -1 0 0
vn 0 0 -1
vn 1 0 0
vn 0 0 1
vn 0 1 0
vn -1 0 0
vn 1 0 0
vn 0 -1 0
vn 0 1 0
vn -1 0 0
vn 0 0 -1
vn 1 0 0
vn 0 0 1
vn 0 1 0
vn -1 0 0
vn 0 0 -1
vn 1 0 0
vn 0 0 1
vn -1 0 0
vn 0 0 -1
vn 1 0 0
vn 0 0 1
vn -1 0 0
vn 0 0 -1
vn 1 0 0
vn 0 0 1
vn 0 -1 0
vn 0 1 0
vn 0 0 -1
vn 0.7071067811865476 -0.7071067811865476 0
vn 0 0 -1
vn 0 0 -1
vn -0.7071067811865476 -0.7071067811865476 0
vn -1 0 0
vn 0 0 -1
vn 1 0 0
vn 0 1 0
vn 0 0 -1
vn -1 0 0
vn 0 0 -1
vn 0 1 0
vn -1 0 0
vn 1 0 0
vn 0 1 0
vn 0 0 -1
vn 1 0 0
vn 0 0 1
vn 0 1 0
vn 0 1 0
vn -1 0 0
vn 0 0 -1
vn 1 0 0
vn 0 1 0
vn -1 0 0
vn 0 0 -1
vn 1 0 0
vn 0 0 1
vn 0 1 0
vn -1 0 0
vn 0 0 -1
vn 1 0 0
vn 0 0 1
vn 0 1 0
vn -1 0 0
vn 0 0 -1
vn 1 0 0
vn 0 0 1
vn 0 1 0
vn 0 0 -1
vn 0 0 1
vn 0 -1 0
vn 0 1 0
vn -1 0 0
vn 0 0 -1
vn 1 0 0
vn 0 0 1
vn -1 0 0
vn 0 0 -1
vn 1 0 0
vn 0 0 1
vn -1 0 0
vn 0 0 -1
vn 1 0 0
vn 0 0 1
vn -1 0 0
vn 0 0 -1
vn 1 0 0
vn 0 0 1
vn -1 0 0
vn 0 0 -1
vn 1 0 0
vn 0 0 1
vn -1 0 0
vn 0 0 -1
vn 1 0 0
vn 0 0 1
vn -1 0 0
vn 0 0 -1
vn 1 0 0
vn 0 0 1
vn -1 0 0
vn 0 0 -1
vn 1 0 0
vn 0 -1 0
vn 0 1 0
vn -1 0 0
vn 0 0 -1
vn 0 0 1
vn 0 -1 0
vn -1 0 0
vn 0 0 -1
vn 1 0 0
vn 0 0 1
vn -1 0 0
vn 1 0 0
vn 0 -1 0
vn 0 1 0
vn 0 1 0
vn -1 0 0
vn 0 0 -1
vn 1 0 0
vn 0 0 1
vn -1 0 0
vn 0 0 -1
vn 1 0 0
vn 0 0 1
vn -1 0 0
vn 0 0 -1
vn 1 0 0
vn 0 0 1
vn -1 0 0
vn 0 0 -1
vn 1 0 0
vn 0 0 1
vn -1 0 0
vn 0 0 -1
vn 1 0 0
vn 0 0 1
vn -1 0 0
vn 0 0 -1
vn 1 0 0
vn 0 0 1
vn -1 0 0
vn 0 0 -1
vn 1 0 0
vn 0 0 1
vn -1 0 0
vn 0 0 -1
vn 1 0 0
vn 0 -1 0
vn 0 1 0
vn -1 0 0
vn 0 0 -1
vn 1 0 0
vn 0 0 1
vn 0 1 0
vn -1 0 0
vn 0 0 -1
vn 1 0 0
vn 0 0 1
vn 0 1 0
vn -1 0 0
vn 0 0 -1
vn 1 0 0
vn 0 0 1
vn 0 1 0
vn -1 0 0
vn 0 0 -1
vn 1 0 0
vn 0 0 1
vn 0 1 0
vn -1 0 0
vn 0 0 -1
vn 1 0 0
vn 0 0 1
vn 0 1 0
vn -1 0 0
vn 0 0 -1
vn 1 0 0
vn 0 0 1
vn 0 1 0
vn -1 0 0
vn 0 0 -1
vn 1 0 0
vn 0 1 0
vn 0 0 -1
vn 0 -1 0
vn 0 1 0
vn 1 0 0
vn 0 1 0
vn -1 0 0
vn -1 0 0
vn 1 0 0
vn 0 0 1
vn 0 1 0
vn -1 0 0
vn 1 0 0
vn 0 0 1
vn 0 1 0
usemtl m_f4233543-45c1-7eb4-442c-0fd84b72c1e4
f 1/1/1 2/2/1 3/3/1 4/4/1
f 5/5/2 6/6/2 7/7/2 8/8/2
f 8/9/3 7/10/3 9/11/3 10/12/3
f 10/13/4 9/14/4 11/15/4 12/16/4
f 7/17/5 6/18/5 11/19/5 9/20/5
f 13/21/6 14/22/6 15/23/6 16/24/6
f 16/25/7 15/26/7 17/27/7 18/28/7
f 18/29/8 17/30/8 19/31/8 1/32/8
f 1/33/9 19/34/9 14/35/9 13/36/9
f 17/37/10 15/38/10 14/39/10 19/40/10
f 20/41/11 21/42/11 22/43/11 23/44/11
f 24/45/12 25/46/12 26/47/12 27/48/12
f 23/49/13 24/50/13 27/51/13 20/52/13
f 25/53/14 22/54/14 21/55/14 26/56/14
f 28/57/15 29/58/15 21/59/15 30/60/15
f 30/61/16 21/62/16 26/63/16 31/64/16
f 31/65/17 26/66/17 32/67/17 33/68/17
f 33/69/18 32/70/18 29/71/18 28/72/18
f 26/73/19 21/74/19 29/75/19 32/76/19
f 34/77/20 35/78/20 36/79/20 37/80/20
f 37/81/21 36/82/21 38/83/21 39/84/21
f 39/85/22 38/86/22 40/87/22 41/88/22
f 41/89/23 40/90/23 35/91/23 34/92/23
f 42/93/24 43/94/24 44/95/24 45/96/24
f 45/97/25 44/98/25 46/99/25 47/100/25
f 47/101/26 46/102/26 48/103/26 49/104/26
f 49/105/27 48/106/27 43/107/27 42/108/27
f 50/109/28 51/110/28 52/111/28 53/112/28
f 53/113/29 52/114/29 54/115/29 55/116/29
f 55/117/30 54/118/30 56/119/30 57/120/30
f 57/121/31 56/122/31 51/123/31 50/124/31
f 53/125/32 55/126/32 57/127/32 50/128/32
f 54/129/33 52/130/33 51/131/33 56/132/33
f 58/133/34 59/134/34 60/135/34 61/136/34
f 62/137/35 63/138/35 61/139/35 64/140/35
f 61/141/36 60/142/36 64/143/36
f 58/144/37 65/145/37 59/146/37
f 58/147/38 66/148/38 67/149/38 65/150/38
f 67/151/39 15/152/39 68/153/39 65/154/39
f 65/155/40 68/156/40 69/157/40 64/158/40
f 64/159/41 69/160/41 17/161/41 62/162/41
f 69/163/42 68/164/42 15/165/42 17/166/42
f 70/167/43 71/168/43 72/169/43 73/170/43
f 74/171/44 75/172/44 76/173/44 77/174/44
f 77/175/45 76/176/45 78/177/45 73/178/45
f 78/179/46 76/180/46 75/181/46 79/182/46
f 80/183/47 81/184/47 82/185/47 83/186/47
f 84/187/48 85/188/48 86/189/48 18/190/48
f 85/191/49 82/192/49 81/193/49 86/194/49
f 87/195/50 88/196/50 89/197/50 90/198/50
f 90/199/51 89/200/51 91/201/51 84/202/51
f 84/203/52 91/204/52 92/205/52 93/206/52
f 13/207/53 1/208/53 4/209/53 94/210/53
f 89/211/54 88/212/54 92/213/54 91/214/54
f 95/215/55 96/216/55 97/217/55 98/218/55
f 98/219/56 97/220/56 99/221/56 100/222/56
f 100/223/57 99/224/57 101/225/57 102/226/57
f 99/227/58 97/228/58 96/229/58 101/230/58
f 103/231/59 104/232/59 105/233/59 106/234/59
f 106/235/60 105/236/60 107/237/60 108/238/60
f 108/239/61 107/240/61 109/241/61 110/242/61
f 110/243/62 109/244/62 104/245/62 103/246/62
f 107/247/63 105/248/63 104/249/63 109/250/63
f 111/251/64 112/252/64 113/253/64 114/254/64
f 114/255/65 113/256/65 115/257/65 116/258/65
f 116/259/66 115/260/66 117/261/66 118/262/66
f 118/263/67 117/264/67 112/265/67 111/266/67
f 115/267/68 113/268/68 112/269/68 117/270/68
f 119/271/69 120/272/69 121/273/69 122/274/69
f 122/275/70 121/276/70 123/277/70 124/278/70
f 124/279/71 123/280/71 125/281/71 126/282/71
f 126/283/72 125/284/72 120/285/72 119/286/72
f 123/287/73 121/288/73 120/289/73 125/290/73
f 127/291/74 128/292/74 129/293/74 130/294/74
f 131/295/75 132/296/75 133/297/75 134/298/75
f 127/299/76 130/300/76 131/301/76 134/302/76
f 129/303/77 128/304/77 133/305/77 132/306/77
f 135/307/78 136/308/78 137/309/78 138/310/78
f 138/311/79 137/312/79 139/313/79 140/314/79
f 140/315/80 139/316/80 141/317/80 142/318/80
f 142/319/81 141/320/81 136/321/81 135/322/81
f 143/323/82 144/324/82 145/325/82 146/326/82
f 146/327/83 145/328/83 147/329/83 148/330/83
f 148/331/84 147/332/84 149/333/84 150/334/84
f 150/335/85 149/336/85 144/337/85 143/338/85
f 151/339/86 152/340/86 153/341/86 154/342/86
f 154/343/87 153/344/87 155/345/87 156/346/87
f 156/347/88 155/348/88 157/349/88 158/350/88
f 158/351/89 157/352/89 152/353/89 151/354/89
f 159/355/90 160/356/90 161/357/90 162/358/90
f 162/359/91 161/360/91 163/361/91 164/362/91
f 164/363/92 163/364/92 165/365/92 166/366/92
f 166/367/93 165/368/93 160/369/93 159/370/93
f 167/371/94 168/372/94 169/373/94 170/374/94
f 170/375/95 169/376/95 171/377/95 172/378/95
f 172/379/96 171/380/96 173/381/96 174/382/96
f 174/383/97 173/384/97 168/385/97 167/386/97
f 175/387/98 176/388/98 177/389/98 178/390/98
f 178/391/99 177/392/99 179/393/99 180/394/99
f 180/395/100 179/396/100 181/397/100 182/398/100
f 182/399/101 181/400/101 176/401/101 175/402/101
f 183/403/102 184/404/102 185/405/102 186/406/102
f 186/407/103 185/408/103 187/409/103 188/410/103
f 188/411/104 187/412/104 189/413/104 190/414/104
f 190/415/105 189/416/105 184/417/105 183/418/105
f 23/419/106 22/420/106 191/421/106 161/422/106
f 161/423/107 191/424/107 192/425/107 163/426/107
f 163/427/108 192/428/108 25/429/108 24/430/108
f 161/431/109 163/432/109 24/433/109 23/434/109
f 192/435/110 191/436/110 22/437/110 25/438/110
f 193/439/111 13/440/111 94/441/111 194/442/111
f 194/443/112 94/444/112 4/445/112 3/446/112
f 2/447/113 1/448/113 13/449/113 193/450/113
f 194/451/114 3/452/114 2/453/114 193/454/114
f 195/455/115 196/456/115 197/457/115 198/458/115
f 198/459/116 197/460/116 199/461/116 200/462/116
f 200/463/117 199/464/117 201/465/117 202/466/117
f 202/467/118 201/468/118 196/469/118 195/470/118
f 203/471/119 197/472/119 204/473/119 205/474/119
f 206/475/120 207/476/120 199/477/120 208/478/120
f 205/479/121 206/480/121 208/481/121 203/482/121
f 207/483/122 204/484/122 197/485/122 199/486/122
f 199/487/123 197/488/123 196/489/123 201/490/123
f 209/491/124 210/492/124 211/493/124 212/494/124
f 212/495/125 211/496/125 213/497/125 214/498/125
f 214/499/126 213/500/126 215/501/126 216/502/126
f 216/503/127 215/504/127 210/505/127 209/506/127
f 217/507/128 218/508/128 219/509/128 220/510/128
f 220/511/129 219/512/129 221/513/129 222/514/129
f 222/515/130 221/516/130 223/517/130 224/518/130
f 224/519/131 223/520/131 218/521/131 217/522/131
f 225/523/132 226/524/132 227/525/132 228/526/132
f 228/527/133 227/528/133 229/529/133 230/530/133
f 230/531/134 229/532/134 231/533/134 232/534/134
f 232/535/135 231/536/135 226/537/135 225/538/135
f 233/539/136 234/540/136 235/541/136 236/542/136
f 236/543/137 235/544/137 237/545/137 238/546/137
f 238/547/138 237/548/138 239/549/138 240/550/138
f 240/551/139 239/552/139 234/553/139 233/554/139
f 241/555/140 242/556/140 243/557/140 244/558/140
f 244/559/141 243/560/141 245/561/141 246/562/141
f 246/563/142 245/564/142 247/565/142 248/566/142
f 248/567/143 247/568/143 242/569/143 241/570/143
f 249/571/144 250/572/144 251/573/144 252/574/144
f 252/575/145 251/576/145 253/577/145 254/578/145
f 254/579/146 253/580/146 255/581/146 256/582/146
f 256/583/147 255/584/147 250/585/147 249/586/147
f 257/587/148 258/588/148 259/589/148 260/590/148
f 260/591/149 259/592/149 261/593/149 262/594/149
f 262/595/150 261/596/150 263/597/150 264/598/150
f 264/599/151 263/600/151 258/601/151 257/602/151
f 205/603/152 204/604/152 265/605/152 235/606/152
f 235/607/153 265/608/153 266/609/153 237/610/153
f 237/611/154 266/612/154 207/613/154 206/614/154
f 235/615/155 237/616/155 206/617/155 205/618/155
f 266/619/156 265/620/156 204/621/156 207/622/156
f 267/623/157 268/624/157 269/625/157 270/626/157
f 270/627/158 269/628/158 271/629/158 272/630/158
f 272/631/159 271/632/159 273/633/159 274/634/159
f 274/635/160 273/636/160 268/637/160 267/638/160
f 271/639/161 269/640/161 268/641/161 273/642/161
f 275/643/162 276/644/162 277/645/162 278/646/162
f 278/647/163 277/648/163 279/649/163 280/650/163
f 280/651/164 279/652/164 281/653/164 282/654/164
f 282/655/165 281/656/165 276/657/165 275/658/165
f 279/659/166 277/660/166 276/661/166 281/662/166
f 283/663/167 284/664/167 285/665/167 286/666/167
f 286/667/168 285/668/168 287/669/168 288/670/168
f 288/671/169 287/672/169 289/673/169 290/674/169
f 290/675/170 289/676/170 284/677/170 283/678/170
f 287/679/171 285/680/171 284/681/171 289/682/171
f 291/683/172 292/684/172 293/685/172 294/686/172
f 294/687/173 293/688/173 295/689/173 296/690/173
f 296/691/174 295/692/174 297/693/174 298/694/174
f 298/695/175 297/696/175 292/697/175 291/698/175
f 295/699/176 293/700/176 292/701/176 297/702/176
f 299/703/177 300/704/177 301/705/177 302/706/177
f 302/707/178 301/708/178 303/709/178 304/710/178
f 304/711/179 303/712/179 305/713/179 306/714/179
f 306/715/180 305/716/180 300/717/180 299/718/180
f 303/719/181 301/720/181 300/721/181 305/722/181
f 307/723/182 308/724/182 309/725/182 310/726/182
f 310/727/183 309/728/183 311/729/183 312/730/183
f 312/731/184 311/732/184 313/733/184 314/734/184
f 314/735/185 313/736/185 308/737/185 307/738/185
f 311/739/186 309/740/186 308/741/186 313/742/186
f 315/743/187 316/744/187 317/745/187 318/746/187
f 318/747/188 317/748/188 319/749/188 320/750/188
f 320/751/189 319/752/189 321/753/189 322/754/189
f 319/755/190 317/756/190 316/757/190 321/758/190
f 323/759/191 324/760/191 325/761/191 326/762/191
f 323/763/192 326/764/192 327/765/192 328/766/192
f 325/767/193 324/768/193 329/769/193 330/770/193
f 331/771/194 332/772/194 333/773/194 334/774/194
f 332/775/195 335/776/195 336/777/195 333/778/195
f 337/779/196 336/780/196 335/781/196 338/782/196
f 339/783/197 340/784/197 96/785/197 95/786/197
f 102/787/198 101/788/198 341/789/198 342/790/198
f 342/791/199 341/792/199 340/793/199 339/794/199
f 101/795/200 96/796/200 340/797/200 341/798/200
f 343/799/201 344/800/201 316/801/201 315/802/201
f 322/803/202 321/804/202 345/805/202 346/806/202
f 346/807/203 345/808/203 344/809/203 343/810/203
f 321/811/204 316/812/204 344/813/204 345/814/204
