
mtllib solar_reflector.mtl

usemtl solar_reflector

o base
v -0.625000 0.375000 0.375000
v -0.625000 0.625000 0.375000
v -0.375000 0.625000 0.375000
v -0.375000 0.375000 0.375000
v -0.375000 0.625000 0.625000
v -0.375000 0.375000 0.625000
v -0.625000 0.625000 0.625000
v -0.625000 0.375000 0.625000
v 1.375000 0.375000 0.375000
v 1.375000 0.625000 0.375000
v 1.625000 0.625000 0.375000
v 1.625000 0.375000 0.375000
v 1.625000 0.625000 0.625000
v 1.625000 0.375000 0.625000
v 1.375000 0.625000 0.625000
v 1.375000 0.375000 0.625000
v -0.250000 0.375000 0.875000
v -0.250000 0.625000 0.875000
v -0.375000 0.625000 0.875000
v -0.375000 0.375000 0.875000
v -0.375000 0.625000 0.625000
v -0.375000 0.375000 0.625000
v -0.250000 0.625000 0.625000
v -0.250000 0.375000 0.625000
v -0.250000 0.375000 0.375000
v -0.250000 0.625000 0.375000
v -0.375000 0.625000 0.375000
v -0.375000 0.375000 0.375000
v -0.375000 0.625000 0.125000
v -0.375000 0.375000 0.125000
v -0.250000 0.625000 0.125000
v -0.250000 0.375000 0.125000
v 0.000000 1.625000 0.875000
v 0.000000 1.875000 0.875000
v -0.250000 1.875000 0.875000
v -0.250000 1.625000 0.875000
v -0.250000 1.875000 0.625000
v -0.250000 1.625000 0.625000
v 0.000000 1.875000 0.625000
v 0.000000 1.625000 0.625000
v 0.000000 1.625000 0.375000
v 0.000000 1.875000 0.375000
v -0.250000 1.875000 0.375000
v -0.250000 1.625000 0.375000
v -0.250000 1.875000 0.125000
v -0.250000 1.625000 0.125000
v 0.000000 1.875000 0.125000
v 0.000000 1.625000 0.125000
v -0.375000 -0.500000 0.875000
v -0.375000 1.500000 0.875000
v -0.625000 1.500000 0.875000
v -0.625000 -0.500000 0.875000
v -0.625000 1.500000 0.625000
v -0.625000 -0.500000 0.625000
v -0.375000 1.500000 0.625000
v -0.375000 -0.500000 0.625000
v -0.250000 1.500000 1.000000
v -0.250000 2.000000 1.000000
v -0.750000 2.000000 1.000000
v -0.750000 1.500000 1.000000
v -0.750000 2.000000 0.000000
v -0.750000 1.500000 0.000000
v -0.250000 2.000000 0.000000
v -0.250000 1.500000 0.000000
v -0.375000 -0.500000 0.375000
v -0.375000 1.500000 0.375000
v -0.625000 1.500000 0.375000
v -0.625000 -0.500000 0.375000
v -0.625000 1.500000 0.125000
v -0.625000 -0.500000 0.125000
v -0.375000 1.500000 0.125000
v -0.375000 -0.500000 0.125000
v -0.250000 -1.000000 1.000000
v -0.250000 -0.500000 1.000000
v -0.750000 -0.500000 1.000000
v -0.750000 -1.000000 1.000000
v -0.750000 -0.500000 -0.000000
v -0.750000 -1.000000 -0.000000
v -0.250000 -0.500000 -0.000000
v -0.250000 -1.000000 -0.000000
v -0.375000 -2.000000 0.625000
v -0.375000 -1.000000 0.625000
v -0.625000 -1.000000 0.625000
v -0.625000 -2.000000 0.625000
v -0.625000 -1.000000 0.375000
v -0.625000 -2.000000 0.375000
v -0.375000 -1.000000 0.375000
v -0.375000 -2.000000 0.375000
v -0.250000 -3.000000 0.750000
v -0.250000 -2.000000 0.750000
v -0.750000 -2.000000 0.750000
v -0.750000 -3.000000 0.750000
v -0.750000 -2.000000 0.250000
v -0.750000 -3.000000 0.250000
v -0.250000 -2.000000 0.250000
v -0.250000 -3.000000 0.250000
v 1.250000 0.375000 0.125000
v 1.250000 0.625000 0.125000
v 1.375000 0.625000 0.125000
v 1.375000 0.375000 0.125000
v 1.250000 0.625000 0.375000
v 1.250000 0.375000 0.375000
v 1.250000 0.375000 0.625000
v 1.250000 0.625000 0.625000
v 1.375000 0.625000 0.875000
v 1.375000 0.375000 0.875000
v 1.250000 0.625000 0.875000
v 1.250000 0.375000 0.875000
v 0.000000 1.500000 0.000000
v 0.000000 2.000000 0.000000
v 1.000000 2.000000 0.000000
v 1.000000 1.500000 0.000000
v 1.000000 2.000000 1.000000
v 1.000000 1.500000 1.000000
v 0.000000 2.000000 1.000000
v 0.000000 1.500000 1.000000
v 1.000000 1.625000 0.125000
v 1.000000 1.875000 0.125000
v 1.250000 1.875000 0.125000
v 1.250000 1.625000 0.125000
v 1.250000 1.875000 0.375000
v 1.250000 1.625000 0.375000
v 1.000000 1.875000 0.375000
v 1.000000 1.625000 0.375000
v 1.000000 1.625000 0.625000
v 1.000000 1.875000 0.625000
v 1.250000 1.875000 0.625000
v 1.250000 1.625000 0.625000
v 1.250000 1.875000 0.875000
v 1.250000 1.625000 0.875000
v 1.000000 1.875000 0.875000
v 1.000000 1.625000 0.875000
v -0.250000 -0.750000 -0.000000
v -0.250000 1.500000 0.000000
v 0.000000 -0.750000 -0.000000
v 0.000000 -0.750000 1.000000
v -0.250000 1.500000 1.000000
v -0.250000 -0.750000 1.000000
v -0.250000 -0.875000 0.125000
v -0.250000 -0.750000 0.125000
v 1.250000 -0.750000 0.125000
v 1.250000 -0.875000 0.125000
v 1.250000 -0.750000 0.375000
v 1.250000 -0.875000 0.375000
v -0.250000 -0.750000 0.375000
v -0.250000 -0.875000 0.375000
v 0.500000 -0.750000 -0.000000
v 0.500000 -0.500000 -0.000000
v 1.000000 0.000000 0.000000
v 1.000000 -0.750000 -0.000000
v 1.000000 -0.000000 1.000000
v 1.000000 -0.750000 1.000000
v 0.500000 -0.500000 1.000000
v 0.500000 -0.750000 1.000000
v 0.000000 1.250000 0.000000
v 1.000000 1.250000 0.000000
v 1.000000 1.250000 1.000000
v 0.000000 1.250000 1.000000
v 1.375000 -0.500000 0.125000
v 1.375000 1.500000 0.125000
v 1.625000 1.500000 0.125000
v 1.625000 -0.500000 0.125000
v 1.625000 1.500000 0.375000
v 1.625000 -0.500000 0.375000
v 1.375000 1.500000 0.375000
v 1.375000 -0.500000 0.375000
v -0.250000 -0.875000 0.625000
v -0.250000 -0.750000 0.625000
v 1.250000 -0.750000 0.625000
v 1.250000 -0.875000 0.625000
v 1.250000 -0.750000 0.875000
v 1.250000 -0.875000 0.875000
v -0.250000 -0.750000 0.875000
v -0.250000 -0.875000 0.875000
v 0.000000 -0.000000 1.000000
v 0.000000 0.000000 0.000000
v 0.000000 -0.750000 -0.000000
v 0.500000 -0.500000 -0.000000
v 0.500000 -0.750000 -0.000000
v 1.250000 1.500000 0.000000
v 1.250000 -0.750000 -0.000000
v 1.250000 1.500000 1.000000
v 1.250000 -0.750000 1.000000
v 1.250000 2.000000 0.000000
v 1.750000 2.000000 0.000000
v 1.750000 1.500000 0.000000
v 1.750000 2.000000 1.000000
v 1.750000 1.500000 1.000000
v 1.250000 2.000000 1.000000
v 1.375000 -0.500000 0.625000
v 1.375000 1.500000 0.625000
v 1.625000 1.500000 0.625000
v 1.625000 -0.500000 0.625000
v 1.625000 1.500000 0.875000
v 1.625000 -0.500000 0.875000
v 1.375000 1.500000 0.875000
v 1.375000 -0.500000 0.875000
v 1.250000 -1.000000 -0.000000
v 1.250000 -0.500000 -0.000000
v 1.750000 -0.500000 -0.000000
v 1.750000 -1.000000 -0.000000
v 1.750000 -0.500000 1.000000
v 1.750000 -1.000000 1.000000
v 1.250000 -0.500000 1.000000
v 1.250000 -1.000000 1.000000
v 0.500000 -0.500000 0.875000
v 0.500000 0.062500 0.875000
v 0.000000 0.062500 0.875000
v -0.000000 -0.000000 0.875000
v 0.000000 0.062500 0.125000
v -0.000000 -0.000000 0.125000
v 0.500000 0.062500 0.125000
v 0.500000 -0.500000 0.125000
v 0.500000 -0.500000 0.125000
v 0.500000 0.062500 0.125000
v 1.000000 0.062500 0.125000
v 1.000000 -0.000000 0.125000
v 1.000000 0.062500 0.875000
v 1.000000 -0.000000 0.875000
v 0.000000 0.062500 0.125000
v 0.000000 1.250000 0.125000
v 1.000000 1.250000 0.125000
v 1.000000 1.250000 0.875000
v 0.000000 1.250000 0.875000
v 1.375000 -2.000000 0.375000
v 1.375000 -1.000000 0.375000
v 1.625000 -1.000000 0.375000
v 1.625000 -2.000000 0.375000
v 1.625000 -1.000000 0.625000
v 1.625000 -2.000000 0.625000
v 1.375000 -1.000000 0.625000
v 1.375000 -2.000000 0.625000
v 1.250000 -3.000000 0.250000
v 1.250000 -2.000000 0.250000
v 1.750000 -2.000000 0.250000
v 1.750000 -3.000000 0.250000
v 1.750000 -2.000000 0.750000
v 1.750000 -3.000000 0.750000
v 1.250000 -2.000000 0.750000
v 1.250000 -3.000000 0.750000
vt 0.000000 0.000000
vt 0.000000 1.000000
vt 1.000000 1.000000
vt 1.000000 0.000000
vt 0.000000 0.187500
vt 0.000000 0.250000
vt 0.062500 0.250000
vt 0.062500 0.187500
vt 0.656250 0.937500
vt 0.656250 1.000000
vt 0.687500 1.000000
vt 0.687500 0.937500
vt 0.000000 0.750000
vt 0.062500 0.750000
vt 0.125000 0.875000
vt 0.125000 1.000000
vt 0.250000 1.000000
vt 0.250000 0.875000
vt 0.125000 0.750000
vt 0.250000 0.750000
vt 0.312500 1.000000
vt 0.312500 0.750000
vt 0.312500 0.781250
vt 0.312500 0.906250
vt 0.562500 0.906250
vt 0.562500 0.781250
vt 0.312500 0.406250
vt 0.312500 0.656250
vt 0.562500 0.656250
vt 0.562500 0.406250
vt 0.687500 0.375000
vt 0.750000 1.000000
vt 0.750000 0.375000
vt 0.312500 0.187500
vt 1.000000 0.250000
vt 0.750000 0.250000
vt 0.750000 0.312500
vt 1.000000 0.312500
vt 0.312500 0.937500
vt 0.687500 0.906250
vt 0.875000 0.375000
vt 0.875000 0.437500
vt 1.000000 0.562500
vt 1.000000 0.375000
vt 0.750000 0.562500
vt 0.500000 0.906250
vt 0.500000 0.656250
vt 0.437500 0.656250
vt 0.437500 0.906250
vt 0.875000 0.562500
vt 0.875000 0.703125
vt 1.000000 0.703125
vt 1.000000 0.687500
vt 0.750000 0.687500
vt 0.750000 0.703125
vn 0.000000 0.000000 -1.000000
vn 1.000000 0.000000 0.000000
vn 0.000000 -0.000000 1.000000
vn -1.000000 -0.000000 0.000000
vn 0.000000 1.000000 0.000000
vn 0.000000 -1.000000 -0.000000
vn -0.923900 0.382700 0.000000
vn -0.707100 0.707100 0.000000
vn 0.923900 0.382700 0.000000
vn 0.707100 0.707100 0.000000
vn -0.923900 -0.382700 -0.000000
vn -0.707100 -0.707100 -0.000000
vn 0.923900 -0.382700 -0.000000
vn 0.707100 -0.707100 -0.000000
f 1/1/1 2/2/1 3/3/1 4/4/1
f 4/5/2 3/6/2 5/7/2 6/8/2
f 6/1/3 5/2/3 7/3/3 8/4/3
f 8/5/4 7/6/4 2/7/4 1/8/4
f 2/5/5 7/6/5 5/7/5 3/8/5
f 8/5/6 1/6/6 4/7/6 6/8/6
f 9/1/1 10/2/1 11/3/1 12/4/1
f 12/5/2 11/6/2 13/7/2 14/8/2
f 14/1/3 13/2/3 15/3/3 16/4/3
f 16/5/4 15/6/4 10/7/4 9/8/4
f 10/5/5 15/6/5 13/7/5 11/8/5
f 16/5/6 9/6/6 12/7/6 14/8/6
f 17/9/3 18/10/3 19/11/3 20/12/3
f 20/1/4 19/2/4 21/3/4 22/4/4
f 22/9/1 21/10/1 23/11/1 24/12/1
f 24/1/2 23/2/2 18/3/2 17/4/2
f 18/9/5 23/10/5 21/11/5 19/12/5
f 24/9/6 17/10/6 20/11/6 22/12/6
f 25/9/3 26/10/3 27/11/3 28/12/3
f 28/1/4 27/2/4 29/3/4 30/4/4
f 30/9/1 29/10/1 31/11/1 32/12/1
f 32/1/2 31/2/2 26/3/2 25/4/2
f 26/9/5 31/10/5 29/11/5 27/12/5
f 32/9/6 25/10/6 28/11/6 30/12/6
f 33/5/3 34/6/3 35/7/3 36/8/3
f 36/1/4 35/2/4 37/3/4 38/4/4
f 38/5/1 37/6/1 39/7/1 40/8/1
f 40/1/2 39/2/2 34/3/2 33/4/2
f 34/5/5 39/6/5 37/7/5 35/8/5
f 40/5/6 33/6/6 36/7/6 38/8/6
f 41/5/3 42/6/3 43/7/3 44/8/3
f 44/1/4 43/2/4 45/3/4 46/4/4
f 46/5/1 45/6/1 47/7/1 48/8/1
f 48/1/2 47/2/2 42/3/2 41/4/2
f 42/5/5 47/6/5 45/7/5 43/8/5
f 48/5/6 41/6/6 44/7/6 46/8/6
f 49/6/3 50/13/3 51/14/3 52/7/3
f 52/6/4 51/13/4 53/14/4 54/7/4
f 54/6/1 53/13/1 55/14/1 56/7/1
f 56/6/2 55/13/2 50/14/2 49/7/2
f 50/1/5 55/2/5 53/3/5 51/4/5
f 56/1/6 49/2/6 52/3/6 54/4/6
f 57/15/3 58/16/3 59/17/3 60/18/3
f 60/19/4 59/13/4 61/2/4 62/16/4
f 62/15/1 61/16/1 63/17/1 64/18/1
f 64/19/2 63/13/2 58/2/2 57/16/2
f 58/16/5 63/19/5 61/13/5 59/2/5
f 64/16/6 57/19/6 60/13/6 62/2/6
f 65/6/3 66/13/3 67/14/3 68/7/3
f 68/6/4 67/13/4 69/14/4 70/7/4
f 70/6/1 69/13/1 71/14/1 72/7/1
f 72/6/2 71/13/2 66/14/2 65/7/2
f 66/1/5 71/2/5 69/3/5 67/4/5
f 72/1/6 65/2/6 68/3/6 70/4/6
f 73/15/3 74/16/3 75/17/3 76/18/3
f 76/19/4 75/13/4 77/2/4 78/16/4
f 78/15/1 77/16/1 79/17/1 80/18/1
f 80/19/2 79/13/2 74/2/2 73/16/2
f 74/16/5 79/19/5 77/13/5 75/2/5
f 80/16/6 73/19/6 76/13/6 78/2/6
f 81/20/3 82/17/3 83/21/3 84/22/3
f 84/20/4 83/17/4 85/21/4 86/22/4
f 86/20/1 85/17/1 87/21/1 88/22/1
f 88/20/2 87/17/2 82/21/2 81/22/2
f 82/1/5 87/2/5 85/3/5 83/4/5
f 88/1/6 81/2/6 84/3/6 86/4/6
f 89/13/3 90/2/3 91/16/3 92/19/3
f 92/13/4 91/2/4 93/16/4 94/19/4
f 94/13/1 93/2/1 95/16/1 96/19/1
f 96/13/2 95/2/2 90/16/2 89/19/2
f 90/19/5 95/15/5 93/18/5 91/20/5
f 96/15/6 89/16/6 92/17/6 94/18/6
f 97/9/1 98/10/1 99/11/1 100/12/1
f 100/1/2 99/2/2 10/3/2 9/4/2
f 9/9/3 10/10/3 101/11/3 102/12/3
f 102/1/4 101/2/4 98/3/4 97/4/4
f 98/9/5 101/10/5 10/11/5 99/12/5
f 102/9/6 97/10/6 100/11/6 9/12/6
f 103/9/1 104/10/1 15/11/1 16/12/1
f 16/1/2 15/2/2 105/3/2 106/4/2
f 106/9/3 105/10/3 107/11/3 108/12/3
f 108/1/4 107/2/4 104/3/4 103/4/4
f 104/9/5 107/10/5 105/11/5 15/12/5
f 108/9/6 103/10/6 16/11/6 106/12/6
f 109/23/1 110/24/1 111/25/1 112/26/1
f 112/23/2 111/24/2 113/25/2 114/26/2
f 114/23/3 113/24/3 115/25/3 116/26/3
f 116/23/4 115/24/4 110/25/4 109/26/4
f 110/27/5 115/28/5 113/29/5 111/30/5
f 116/1/6 109/2/6 112/3/6 114/4/6
f 117/5/1 118/6/1 119/7/1 120/8/1
f 120/1/2 119/2/2 121/3/2 122/4/2
f 122/5/3 121/6/3 123/7/3 124/8/3
f 124/1/4 123/2/4 118/3/4 117/4/4
f 118/5/5 123/6/5 121/7/5 119/8/5
f 124/5/6 117/6/6 120/7/6 122/8/6
f 125/5/1 126/6/1 127/7/1 128/8/1
f 128/1/2 127/2/2 129/3/2 130/4/2
f 130/5/3 129/6/3 131/7/3 132/8/3
f 132/1/4 131/2/4 126/3/4 125/4/4
f 126/5/5 131/6/5 129/7/5 127/8/5
f 132/5/6 125/6/6 128/7/6 130/8/6
f 133/31/1 134/11/1 109/32/1 135/33/1
f 135/8/2 109/14/2 116/22/2 136/34/2
f 136/33/3 116/32/3 137/11/3 138/31/3
f 138/8/4 137/14/4 134/22/4 133/34/4
f 134/35/5 137/36/5 116/37/5 109/38/5
f 138/35/6 133/36/6 135/37/6 136/38/6
f 139/24/1 140/39/1 141/12/1 142/40/1
f 142/1/2 141/2/2 143/3/2 144/4/2
f 144/24/3 143/39/3 145/12/3 146/40/3
f 146/1/4 145/2/4 140/3/4 139/4/4
f 140/1/5 145/2/5 143/3/5 141/4/5
f 146/39/6 139/21/6 142/11/6 144/12/6
f 147/41/1 148/42/1 149/43/1 150/44/1
f 150/1/2 149/2/2 151/3/2 152/4/2
f 152/33/3 151/45/3 153/42/3 154/41/3
f 154/1/4 153/2/7 148/3/7 147/4/4
f 148/28/7 153/24/7 151/46/8 149/47/8
f 154/48/6 147/49/6 150/25/6 152/29/6
f 155/37/1 109/33/1 112/44/1 156/38/1
f 156/1/2 112/2/2 114/3/2 157/4/2
f 157/37/3 114/33/3 116/44/3 158/38/3
f 158/1/4 116/2/4 109/3/4 155/4/4
f 158/28/6 155/24/6 156/25/6 157/29/6
f 159/6/1 160/13/1 161/14/1 162/7/1
f 162/6/2 161/13/2 163/14/2 164/7/2
f 164/6/3 163/13/3 165/14/3 166/7/3
f 166/6/4 165/13/4 160/14/4 159/7/4
f 160/1/5 165/2/5 163/3/5 161/4/5
f 166/1/6 159/2/6 162/3/6 164/4/6
f 167/24/1 168/39/1 169/12/1 170/40/1
f 170/1/2 169/2/2 171/3/2 172/4/2
f 172/24/3 171/39/3 173/12/3 174/40/3
f 174/1/4 173/2/4 168/3/4 167/4/4
f 168/1/5 173/2/5 171/3/5 169/4/5
f 174/39/6 167/21/6 170/11/6 172/12/6
f 154/41/3 153/42/3 175/43/3 136/44/3
f 136/1/4 175/2/4 176/3/4 177/4/4
f 177/33/1 176/45/1 178/42/1 179/41/1
f 179/1/2 178/2/9 153/3/9 154/4/2
f 153/28/9 178/24/9 176/46/10 175/47/10
f 179/48/6 154/49/6 136/25/6 177/29/6
f 150/33/1 112/32/1 180/11/1 181/31/1
f 181/8/2 180/14/2 182/22/2 183/34/2
f 183/31/3 182/11/3 114/32/3 152/33/3
f 152/8/4 114/14/4 112/22/4 150/34/4
f 112/35/5 114/36/5 182/37/5 180/38/5
f 152/35/6 150/36/6 181/37/6 183/38/6
f 180/15/1 184/16/1 185/17/1 186/18/1
f 186/19/2 185/13/2 187/2/2 188/16/2
f 188/15/3 187/16/3 189/17/3 182/18/3
f 182/19/4 189/13/4 184/2/4 180/16/4
f 184/16/5 189/19/5 187/13/5 185/2/5
f 182/19/6 180/13/6 186/2/6 188/16/6
f 190/6/1 191/13/1 192/14/1 193/7/1
f 193/6/2 192/13/2 194/14/2 195/7/2
f 195/6/3 194/13/3 196/14/3 197/7/3
f 197/6/4 196/13/4 191/14/4 190/7/4
f 191/1/5 196/2/5 194/3/5 192/4/5
f 197/1/6 190/2/6 193/3/6 195/4/6
f 198/15/1 199/16/1 200/17/1 201/18/1
f 201/19/2 200/13/2 202/2/2 203/16/2
f 203/15/3 202/16/3 204/17/3 205/18/3
f 205/19/4 204/13/4 199/2/4 198/16/4
f 199/16/5 204/19/5 202/13/5 200/2/5
f 205/16/6 198/19/6 201/13/6 203/2/6
f 206/50/3 207/51/3 208/52/3 209/53/3
f 209/1/11 208/2/4 210/3/4 211/4/11
f 211/54/1 210/55/1 212/51/1 213/50/1
f 213/1/2 212/2/2 207/3/2 206/4/2
f 207/1/5 212/2/5 210/3/5 208/4/5
f 213/1/12 206/2/12 209/3/11 211/4/11
f 214/50/1 215/51/1 216/52/1 217/53/1
f 217/1/13 216/2/2 218/3/2 219/4/13
f 219/54/3 218/55/3 207/51/3 206/50/3
f 206/1/4 207/2/4 215/3/4 214/4/4
f 215/1/5 207/2/5 218/3/5 216/4/5
f 206/1/14 214/2/14 217/3/13 219/4/13
f 220/55/1 221/32/1 222/3/1 216/52/1
f 216/1/2 222/2/2 223/3/2 218/4/2
f 218/55/3 223/32/3 224/3/3 208/52/3
f 208/1/4 224/2/4 221/3/4 220/4/4
f 221/1/5 224/2/5 223/3/5 222/4/5
f 208/1/6 220/2/6 216/3/6 218/4/6
f 225/20/1 226/17/1 227/21/1 228/22/1
f 228/20/2 227/17/2 229/21/2 230/22/2
f 230/20/3 229/17/3 231/21/3 232/22/3
f 232/20/4 231/17/4 226/21/4 225/22/4
f 226/1/5 231/2/5 229/3/5 227/4/5
f 232/1/6 225/2/6 228/3/6 230/4/6
f 233/13/1 234/2/1 235/16/1 236/19/1
f 236/13/2 235/2/2 237/16/2 238/19/2
f 238/13/3 237/2/3 239/16/3 240/19/3
f 240/13/4 239/2/4 234/16/4 233/19/4
f 234/19/5 239/15/5 237/18/5 235/20/5
f 240/15/6 233/16/6 236/17/6 238/18/6
