# Blender v2.76 (sub 0) OBJ File: ''
# www.blender.org
mtllib solar_reflector.mtl
o base
v -0.625000 0.375000 0.375000
v -0.625000 0.625000 0.375000
v -0.375000 0.625000 0.375000
v -0.375000 0.375000 0.375000
v -0.375000 0.625000 0.625000
v -0.375000 0.375000 0.625000
v -0.625000 0.625000 0.625000
v -0.625000 0.375000 0.625000
v 1.375000 0.375000 0.375000
v 1.375000 0.625000 0.375000
v 1.625000 0.625000 0.375000
v 1.625000 0.375000 0.375000
v 1.625000 0.625000 0.625000
v 1.625000 0.375000 0.625000
v 1.375000 0.625000 0.625000
v 1.375000 0.375000 0.625000
v -0.250000 0.375000 0.875000
v -0.250000 0.625000 0.875000
v -0.375000 0.625000 0.875000
v -0.375000 0.375000 0.875000
v -0.375000 0.625000 0.625000
v -0.375000 0.375000 0.625000
v -0.250000 0.625000 0.625000
v -0.250000 0.375000 0.625000
v -0.250000 0.375000 0.375000
v -0.250000 0.625000 0.375000
v -0.375000 0.625000 0.375000
v -0.375000 0.375000 0.375000
v -0.375000 0.625000 0.125000
v -0.375000 0.375000 0.125000
v -0.250000 0.625000 0.125000
v -0.250000 0.375000 0.125000
v 0.000000 1.625000 0.875000
v 0.000000 1.875000 0.875000
v -0.250000 1.875000 0.875000
v -0.250000 1.625000 0.875000
v -0.250000 1.875000 0.625000
v -0.250000 1.625000 0.625000
v 0.000000 1.875000 0.625000
v 0.000000 1.625000 0.625000
v 0.000000 1.625000 0.375000
v 0.000000 1.875000 0.375000
v -0.250000 1.875000 0.375000
v -0.250000 1.625000 0.375000
v -0.250000 1.875000 0.125000
v -0.250000 1.625000 0.125000
v 0.000000 1.875000 0.125000
v 0.000000 1.625000 0.125000
v -0.375000 -0.500000 0.875000
v -0.375000 1.500000 0.875000
v -0.625000 1.500000 0.875000
v -0.625000 -0.500000 0.875000
v -0.625000 1.500000 0.625000
v -0.625000 -0.500000 0.625000
v -0.375000 1.500000 0.625000
v -0.375000 -0.500000 0.625000
v -0.250000 1.500000 1.000000
v -0.250000 2.000000 1.000000
v -0.750000 2.000000 1.000000
v -0.750000 1.500000 1.000000
v -0.750000 2.000000 0.000000
v -0.750000 1.500000 0.000000
v -0.250000 2.000000 0.000000
v -0.250000 1.500000 0.000000
v -0.375000 -0.500000 0.375000
v -0.375000 1.500000 0.375000
v -0.625000 1.500000 0.375000
v -0.625000 -0.500000 0.375000
v -0.625000 1.500000 0.125000
v -0.625000 -0.500000 0.125000
v -0.375000 1.500000 0.125000
v -0.375000 -0.500000 0.125000
v -0.250000 -1.000000 1.000000
v -0.250000 -0.500000 1.000000
v -0.750000 -0.500000 1.000000
v -0.750000 -1.000000 1.000000
v -0.750000 -0.500000 -0.000000
v -0.750000 -1.000000 -0.000000
v -0.250000 -0.500000 -0.000000
v -0.250000 -1.000000 -0.000000
v -0.375000 -2.000000 0.625000
v -0.375000 -1.000000 0.625000
v -0.625000 -1.000000 0.625000
v -0.625000 -2.000000 0.625000
v -0.625000 -1.000000 0.375000
v -0.625000 -2.000000 0.375000
v -0.375000 -1.000000 0.375000
v -0.375000 -2.000000 0.375000
v -0.250000 -3.000000 0.750000
v -0.250000 -2.000000 0.750000
v -0.750000 -2.000000 0.750000
v -0.750000 -3.000000 0.750000
v -0.750000 -2.000000 0.250000
v -0.750000 -3.000000 0.250000
v -0.250000 -2.000000 0.250000
v -0.250000 -3.000000 0.250000
v 1.250000 0.375000 0.125000
v 1.250000 0.625000 0.125000
v 1.375000 0.625000 0.125000
v 1.375000 0.375000 0.125000
v 1.250000 0.625000 0.375000
v 1.250000 0.375000 0.375000
v 1.250000 0.375000 0.625000
v 1.250000 0.625000 0.625000
v 1.375000 0.625000 0.875000
v 1.375000 0.375000 0.875000
v 1.250000 0.625000 0.875000
v 1.250000 0.375000 0.875000
v 0.000000 1.500000 0.000000
v 0.000000 2.000000 0.000000
v 1.000000 2.000000 0.000000
v 1.000000 1.500000 0.000000
v 1.000000 2.000000 1.000000
v 1.000000 1.500000 1.000000
v 0.000000 2.000000 1.000000
v 0.000000 1.500000 1.000000
v 1.000000 1.625000 0.125000
v 1.000000 1.875000 0.125000
v 1.250000 1.875000 0.125000
v 1.250000 1.625000 0.125000
v 1.250000 1.875000 0.375000
v 1.250000 1.625000 0.375000
v 1.000000 1.875000 0.375000
v 1.000000 1.625000 0.375000
v 1.000000 1.625000 0.625000
v 1.000000 1.875000 0.625000
v 1.250000 1.875000 0.625000
v 1.250000 1.625000 0.625000
v 1.250000 1.875000 0.875000
v 1.250000 1.625000 0.875000
v 1.000000 1.875000 0.875000
v 1.000000 1.625000 0.875000
v -0.250000 -0.750000 -0.000000
v -0.250000 1.500000 0.000000
v 0.000000 -0.750000 -0.000000
v 0.000000 -0.750000 1.000000
v -0.250000 1.500000 1.000000
v -0.250000 -0.750000 1.000000
v -0.250000 -0.875000 0.125000
v -0.250000 -0.750000 0.125000
v 1.250000 -0.750000 0.125000
v 1.250000 -0.875000 0.125000
v 1.250000 -0.750000 0.375000
v 1.250000 -0.875000 0.375000
v -0.250000 -0.750000 0.375000
v -0.250000 -0.875000 0.375000
v 0.500000 -0.750000 -0.000000
v 0.500000 -0.500000 -0.000000
v 1.000000 0.000000 0.000000
v 1.000000 -0.750000 -0.000000
v 1.000000 -0.000000 1.000000
v 1.000000 -0.750000 1.000000
v 0.500000 -0.500000 1.000000
v 0.500000 -0.750000 1.000000
v 0.000000 1.250000 0.000000
v 1.000000 1.250000 0.000000
v 1.000000 1.250000 1.000000
v 0.000000 1.250000 1.000000
v 1.375000 -0.500000 0.125000
v 1.375000 1.500000 0.125000
v 1.625000 1.500000 0.125000
v 1.625000 -0.500000 0.125000
v 1.625000 1.500000 0.375000
v 1.625000 -0.500000 0.375000
v 1.375000 1.500000 0.375000
v 1.375000 -0.500000 0.375000
v -0.250000 -0.875000 0.625000
v -0.250000 -0.750000 0.625000
v 1.250000 -0.750000 0.625000
v 1.250000 -0.875000 0.625000
v 1.250000 -0.750000 0.875000
v 1.250000 -0.875000 0.875000
v -0.250000 -0.750000 0.875000
v -0.250000 -0.875000 0.875000
v 0.000000 -0.000000 1.000000
v 0.000000 0.000000 0.000000
v 0.000000 -0.750000 -0.000000
v 0.500000 -0.500000 -0.000000
v 0.500000 -0.750000 -0.000000
v 1.250000 1.500000 0.000000
v 1.250000 -0.750000 -0.000000
v 1.250000 1.500000 1.000000
v 1.250000 -0.750000 1.000000
v 1.250000 2.000000 0.000000
v 1.750000 2.000000 0.000000
v 1.750000 1.500000 0.000000
v 1.750000 2.000000 1.000000
v 1.750000 1.500000 1.000000
v 1.250000 2.000000 1.000000
v 1.375000 -0.500000 0.625000
v 1.375000 1.500000 0.625000
v 1.625000 1.500000 0.625000
v 1.625000 -0.500000 0.625000
v 1.625000 1.500000 0.875000
v 1.625000 -0.500000 0.875000
v 1.375000 1.500000 0.875000
v 1.375000 -0.500000 0.875000
v 1.250000 -1.000000 -0.000000
v 1.250000 -0.500000 -0.000000
v 1.750000 -0.500000 -0.000000
v 1.750000 -1.000000 -0.000000
v 1.750000 -0.500000 1.000000
v 1.750000 -1.000000 1.000000
v 1.250000 -0.500000 1.000000
v 1.250000 -1.000000 1.000000
v 0.500000 -0.500000 0.875000
v 0.500000 0.062500 0.875000
v 0.000000 0.062500 0.875000
v -0.000000 -0.000000 0.875000
v 0.000000 0.062500 0.125000
v -0.000000 -0.000000 0.125000
v 0.500000 0.062500 0.125000
v 0.500000 -0.500000 0.125000
v 0.500000 -0.500000 0.125000
v 0.500000 0.062500 0.125000
v 1.000000 0.062500 0.125000
v 1.000000 -0.000000 0.125000
v 1.000000 0.062500 0.875000
v 1.000000 -0.000000 0.875000
v 0.000000 0.062500 0.125000
v 0.000000 1.250000 0.125000
v 1.000000 1.250000 0.125000
v 1.000000 1.250000 0.875000
v 0.000000 1.250000 0.875000
v 1.375000 -2.000000 0.375000
v 1.375000 -1.000000 0.375000
v 1.625000 -1.000000 0.375000
v 1.625000 -2.000000 0.375000
v 1.625000 -1.000000 0.625000
v 1.625000 -2.000000 0.625000
v 1.375000 -1.000000 0.625000
v 1.375000 -2.000000 0.625000
v 1.250000 -3.000000 0.250000
v 1.250000 -2.000000 0.250000
v 1.750000 -2.000000 0.250000
v 1.750000 -3.000000 0.250000
v 1.750000 -2.000000 0.750000
v 1.750000 -3.000000 0.750000
v 1.250000 -2.000000 0.750000
v 1.250000 -3.000000 0.750000
vt 0.000000 0.000000
vt 0.000000 1.000000
vt 1.000000 1.000000
vt 1.000000 0.000000
vn 0.000000 0.000000 -1.000000
vn 1.000000 0.000000 0.000000
vn 0.000000 -0.000000 1.000000
vn -1.000000 -0.000000 0.000000
vn 0.000000 1.000000 0.000000
vn 0.000000 -1.000000 -0.000000
vn -0.923900 0.382700 0.000000
vn -0.707100 0.707100 0.000000
vn 0.923900 0.382700 0.000000
vn 0.707100 0.707100 0.000000
vn -0.923900 -0.382700 -0.000000
vn -0.707100 -0.707100 -0.000000
vn 0.923900 -0.382700 -0.000000
vn 0.707100 -0.707100 -0.000000
usemtl base
s 1
f 1/1/1 2/2/1 3/3/1 4/4/1
f 4/1/2 3/2/2 5/3/2 6/4/2
f 6/1/3 5/2/3 7/3/3 8/4/3
f 8/1/4 7/2/4 2/3/4 1/4/4
f 2/1/5 7/2/5 5/3/5 3/4/5
f 8/1/6 1/2/6 4/3/6 6/4/6
f 9/1/1 10/2/1 11/3/1 12/4/1
f 12/1/2 11/2/2 13/3/2 14/4/2
f 14/1/3 13/2/3 15/3/3 16/4/3
f 16/1/4 15/2/4 10/3/4 9/4/4
f 10/1/5 15/2/5 13/3/5 11/4/5
f 16/1/6 9/2/6 12/3/6 14/4/6
f 17/1/3 18/2/3 19/3/3 20/4/3
f 20/1/4 19/2/4 21/3/4 22/4/4
f 22/1/1 21/2/1 23/3/1 24/4/1
f 24/1/2 23/2/2 18/3/2 17/4/2
f 18/1/5 23/2/5 21/3/5 19/4/5
f 24/1/6 17/2/6 20/3/6 22/4/6
f 25/1/3 26/2/3 27/3/3 28/4/3
f 28/1/4 27/2/4 29/3/4 30/4/4
f 30/1/1 29/2/1 31/3/1 32/4/1
f 32/1/2 31/2/2 26/3/2 25/4/2
f 26/1/5 31/2/5 29/3/5 27/4/5
f 32/1/6 25/2/6 28/3/6 30/4/6
f 33/1/3 34/2/3 35/3/3 36/4/3
f 36/1/4 35/2/4 37/3/4 38/4/4
f 38/1/1 37/2/1 39/3/1 40/4/1
f 40/1/2 39/2/2 34/3/2 33/4/2
f 34/1/5 39/2/5 37/3/5 35/4/5
f 40/1/6 33/2/6 36/3/6 38/4/6
f 41/1/3 42/2/3 43/3/3 44/4/3
f 44/1/4 43/2/4 45/3/4 46/4/4
f 46/1/1 45/2/1 47/3/1 48/4/1
f 48/1/2 47/2/2 42/3/2 41/4/2
f 42/1/5 47/2/5 45/3/5 43/4/5
f 48/1/6 41/2/6 44/3/6 46/4/6
f 49/1/3 50/2/3 51/3/3 52/4/3
f 52/1/4 51/2/4 53/3/4 54/4/4
f 54/1/1 53/2/1 55/3/1 56/4/1
f 56/1/2 55/2/2 50/3/2 49/4/2
f 50/1/5 55/2/5 53/3/5 51/4/5
f 56/1/6 49/2/6 52/3/6 54/4/6
f 57/1/3 58/2/3 59/3/3 60/4/3
f 60/1/4 59/2/4 61/3/4 62/4/4
f 62/1/1 61/2/1 63/3/1 64/4/1
f 64/1/2 63/2/2 58/3/2 57/4/2
f 58/1/5 63/2/5 61/3/5 59/4/5
f 64/1/6 57/2/6 60/3/6 62/4/6
f 65/1/3 66/2/3 67/3/3 68/4/3
f 68/1/4 67/2/4 69/3/4 70/4/4
f 70/1/1 69/2/1 71/3/1 72/4/1
f 72/1/2 71/2/2 66/3/2 65/4/2
f 66/1/5 71/2/5 69/3/5 67/4/5
f 72/1/6 65/2/6 68/3/6 70/4/6
f 73/1/3 74/2/3 75/3/3 76/4/3
f 76/1/4 75/2/4 77/3/4 78/4/4
f 78/1/1 77/2/1 79/3/1 80/4/1
f 80/1/2 79/2/2 74/3/2 73/4/2
f 74/1/5 79/2/5 77/3/5 75/4/5
f 80/1/6 73/2/6 76/3/6 78/4/6
f 81/1/3 82/2/3 83/3/3 84/4/3
f 84/1/4 83/2/4 85/3/4 86/4/4
f 86/1/1 85/2/1 87/3/1 88/4/1
f 88/1/2 87/2/2 82/3/2 81/4/2
f 82/1/5 87/2/5 85/3/5 83/4/5
f 88/1/6 81/2/6 84/3/6 86/4/6
f 89/1/3 90/2/3 91/3/3 92/4/3
f 92/1/4 91/2/4 93/3/4 94/4/4
f 94/1/1 93/2/1 95/3/1 96/4/1
f 96/1/2 95/2/2 90/3/2 89/4/2
f 90/1/5 95/2/5 93/3/5 91/4/5
f 96/1/6 89/2/6 92/3/6 94/4/6
f 97/1/1 98/2/1 99/3/1 100/4/1
f 100/1/2 99/2/2 10/3/2 9/4/2
f 9/1/3 10/2/3 101/3/3 102/4/3
f 102/1/4 101/2/4 98/3/4 97/4/4
f 98/1/5 101/2/5 10/3/5 99/4/5
f 102/1/6 97/2/6 100/3/6 9/4/6
f 103/1/1 104/2/1 15/3/1 16/4/1
f 16/1/2 15/2/2 105/3/2 106/4/2
f 106/1/3 105/2/3 107/3/3 108/4/3
f 108/1/4 107/2/4 104/3/4 103/4/4
f 104/1/5 107/2/5 105/3/5 15/4/5
f 108/1/6 103/2/6 16/3/6 106/4/6
f 109/1/1 110/2/1 111/3/1 112/4/1
f 112/1/2 111/2/2 113/3/2 114/4/2
f 114/1/3 113/2/3 115/3/3 116/4/3
f 116/1/4 115/2/4 110/3/4 109/4/4
f 110/1/5 115/2/5 113/3/5 111/4/5
f 116/1/6 109/2/6 112/3/6 114/4/6
f 117/1/1 118/2/1 119/3/1 120/4/1
f 120/1/2 119/2/2 121/3/2 122/4/2
f 122/1/3 121/2/3 123/3/3 124/4/3
f 124/1/4 123/2/4 118/3/4 117/4/4
f 118/1/5 123/2/5 121/3/5 119/4/5
f 124/1/6 117/2/6 120/3/6 122/4/6
f 125/1/1 126/2/1 127/3/1 128/4/1
f 128/1/2 127/2/2 129/3/2 130/4/2
f 130/1/3 129/2/3 131/3/3 132/4/3
f 132/1/4 131/2/4 126/3/4 125/4/4
f 126/1/5 131/2/5 129/3/5 127/4/5
f 132/1/6 125/2/6 128/3/6 130/4/6
f 133/1/1 134/2/1 109/3/1 135/4/1
f 135/1/2 109/2/2 116/3/2 136/4/2
f 136/1/3 116/2/3 137/3/3 138/4/3
f 138/1/4 137/2/4 134/3/4 133/4/4
f 134/1/5 137/2/5 116/3/5 109/4/5
f 138/1/6 133/2/6 135/3/6 136/4/6
f 139/1/1 140/2/1 141/3/1 142/4/1
f 142/1/2 141/2/2 143/3/2 144/4/2
f 144/1/3 143/2/3 145/3/3 146/4/3
f 146/1/4 145/2/4 140/3/4 139/4/4
f 140/1/5 145/2/5 143/3/5 141/4/5
f 146/1/6 139/2/6 142/3/6 144/4/6
f 147/1/1 148/2/1 149/3/1 150/4/1
f 150/1/2 149/2/2 151/3/2 152/4/2
f 152/1/3 151/2/3 153/3/3 154/4/3
f 154/1/4 153/2/7 148/3/7 147/4/4
f 148/1/7 153/2/7 151/3/8 149/4/8
f 154/1/6 147/2/6 150/3/6 152/4/6
f 155/1/1 109/2/1 112/3/1 156/4/1
f 156/1/2 112/2/2 114/3/2 157/4/2
f 157/1/3 114/2/3 116/3/3 158/4/3
f 158/1/4 116/2/4 109/3/4 155/4/4
f 158/1/6 155/2/6 156/3/6 157/4/6
f 159/1/1 160/2/1 161/3/1 162/4/1
f 162/1/2 161/2/2 163/3/2 164/4/2
f 164/1/3 163/2/3 165/3/3 166/4/3
f 166/1/4 165/2/4 160/3/4 159/4/4
f 160/1/5 165/2/5 163/3/5 161/4/5
f 166/1/6 159/2/6 162/3/6 164/4/6
f 167/1/1 168/2/1 169/3/1 170/4/1
f 170/1/2 169/2/2 171/3/2 172/4/2
f 172/1/3 171/2/3 173/3/3 174/4/3
f 174/1/4 173/2/4 168/3/4 167/4/4
f 168/1/5 173/2/5 171/3/5 169/4/5
f 174/1/6 167/2/6 170/3/6 172/4/6
f 154/1/3 153/2/3 175/3/3 136/4/3
f 136/1/4 175/2/4 176/3/4 177/4/4
f 177/1/1 176/2/1 178/3/1 179/4/1
f 179/1/2 178/2/9 153/3/9 154/4/2
f 153/1/9 178/2/9 176/3/10 175/4/10
f 179/1/6 154/2/6 136/3/6 177/4/6
f 150/1/1 112/2/1 180/3/1 181/4/1
f 181/1/2 180/2/2 182/3/2 183/4/2
f 183/1/3 182/2/3 114/3/3 152/4/3
f 152/1/4 114/2/4 112/3/4 150/4/4
f 112/1/5 114/2/5 182/3/5 180/4/5
f 152/1/6 150/2/6 181/3/6 183/4/6
f 180/1/1 184/2/1 185/3/1 186/4/1
f 186/1/2 185/2/2 187/3/2 188/4/2
f 188/1/3 187/2/3 189/3/3 182/4/3
f 182/1/4 189/2/4 184/3/4 180/4/4
f 184/1/5 189/2/5 187/3/5 185/4/5
f 182/1/6 180/2/6 186/3/6 188/4/6
f 190/1/1 191/2/1 192/3/1 193/4/1
f 193/1/2 192/2/2 194/3/2 195/4/2
f 195/1/3 194/2/3 196/3/3 197/4/3
f 197/1/4 196/2/4 191/3/4 190/4/4
f 191/1/5 196/2/5 194/3/5 192/4/5
f 197/1/6 190/2/6 193/3/6 195/4/6
f 198/1/1 199/2/1 200/3/1 201/4/1
f 201/1/2 200/2/2 202/3/2 203/4/2
f 203/1/3 202/2/3 204/3/3 205/4/3
f 205/1/4 204/2/4 199/3/4 198/4/4
f 199/1/5 204/2/5 202/3/5 200/4/5
f 205/1/6 198/2/6 201/3/6 203/4/6
f 206/1/3 207/2/3 208/3/3 209/4/3
f 209/1/11 208/2/4 210/3/4 211/4/11
f 211/1/1 210/2/1 212/3/1 213/4/1
f 213/1/2 212/2/2 207/3/2 206/4/2
f 207/1/5 212/2/5 210/3/5 208/4/5
f 213/1/12 206/2/12 209/3/11 211/4/11
f 214/1/1 215/2/1 216/3/1 217/4/1
f 217/1/13 216/2/2 218/3/2 219/4/13
f 219/1/3 218/2/3 207/3/3 206/4/3
f 206/1/4 207/2/4 215/3/4 214/4/4
f 215/1/5 207/2/5 218/3/5 216/4/5
f 206/1/14 214/2/14 217/3/13 219/4/13
f 220/1/1 221/2/1 222/3/1 216/4/1
f 216/1/2 222/2/2 223/3/2 218/4/2
f 218/1/3 223/2/3 224/3/3 208/4/3
f 208/1/4 224/2/4 221/3/4 220/4/4
f 221/1/5 224/2/5 223/3/5 222/4/5
f 208/1/6 220/2/6 216/3/6 218/4/6
f 225/1/1 226/2/1 227/3/1 228/4/1
f 228/1/2 227/2/2 229/3/2 230/4/2
f 230/1/3 229/2/3 231/3/3 232/4/3
f 232/1/4 231/2/4 226/3/4 225/4/4
f 226/1/5 231/2/5 229/3/5 227/4/5
f 232/1/6 225/2/6 228/3/6 230/4/6
f 233/1/1 234/2/1 235/3/1 236/4/1
f 236/1/2 235/2/2 237/3/2 238/4/2
f 238/1/3 237/2/3 239/3/3 240/4/3
f 240/1/4 239/2/4 234/3/4 233/4/4
f 234/1/5 239/2/5 237/3/5 235/4/5
f 240/1/6 233/2/6 236/3/6 238/4/6
